<?xml version="1.0" encoding="UTF-8" standalone="no"?>
<!DOCTYPE svg PUBLIC "-//W3C//DTD SVG 1.1//EN"
 "http://www.w3.org/Graphics/SVG/1.1/DTD/svg11.dtd">
<!-- Generated by graphviz version 2.40.1 (20161225.0304)
 -->
<!-- Title: /home/travis/build/AliceO2Group/AliceO2/Detectors/MUON/MCH/Raw/ImplHelpers/DumpBuffer.h Pages: 1 -->
<!--zoomable 229 -->
<svg id="main" version="1.1" xmlns="http://www.w3.org/2000/svg" xmlns:xlink="http://www.w3.org/1999/xlink" xml:space="preserve" onload="init(evt)">
<style type="text/css"><![CDATA[
.edge:hover path { stroke: red; }
.edge:hover polygon { stroke: red; fill: red; }
]]></style>
<script type="text/javascript"><![CDATA[
var edges = document.getElementsByTagName('g');
if (edges && edges.length) {
  for (var i=0;i<edges.length;i++) {
    if (edges[i].id.substr(0,4)=='edge') {
      edges[i].setAttribute('class','edge');
    }
  }
}
]]></script>
        <defs>
                <circle id="rim" cx="0" cy="0" r="7"/>
                <circle id="rim2" cx="0" cy="0" r="3.5"/>
                <g id="zoomPlus">
                        <use xlink:href="#rim" fill="#404040">
                                <set attributeName="fill" to="#808080" begin="zoomplus.mouseover" end="zoomplus.mouseout"/>
                        </use>
                        <path d="M-4,0h8M0,-4v8" fill="none" stroke="white" stroke-width="1.5" pointer-events="none"/>
                </g>
                <g id="zoomMin">
                        <use xlink:href="#rim" fill="#404040">
                                <set attributeName="fill" to="#808080" begin="zoomminus.mouseover" end="zoomminus.mouseout"/>
                        </use>
                        <path d="M-4,0h8" fill="none" stroke="white" stroke-width="1.5" pointer-events="none"/>
                </g>
                <g id="dirArrow">
                        <path fill="none" stroke="white" stroke-width="1.5" d="M0,-3.0v7 M-2.5,-0.5L0,-3.0L2.5,-0.5"/>
                </g>
               <g id="resetDef">
                       <use xlink:href="#rim2" fill="#404040">
                               <set attributeName="fill" to="#808080" begin="reset.mouseover" end="reset.mouseout"/>
                       </use>
               </g>
        </defs>

<script type="text/javascript">
var viewWidth = 1014;
var viewHeight = 229;
var sectionId = 'dynsection-0';
</script>
<script xlink:href="../../svgpan.js"/>
<svg id="graph" class="graph">
<g id="viewport">
<title>/home/travis/build/AliceO2Group/AliceO2/Detectors/MUON/MCH/Raw/ImplHelpers/DumpBuffer.h</title>
<!-- Node0 -->
<g id="node1" class="node">
<title>Node0</title>
<polygon fill="#bfbfbf" stroke="#000000" points="324.5,-168.5 324.5,-220.5 474.5,-220.5 474.5,-168.5 324.5,-168.5"/>
<text text-anchor="start" x="332.5" y="-208.5" font-family="Helvetica,sans-Serif" font-size="10.00" fill="#000000">/home/travis/build</text>
<text text-anchor="start" x="332.5" y="-197.5" font-family="Helvetica,sans-Serif" font-size="10.00" fill="#000000">/AliceO2Group/AliceO2</text>
<text text-anchor="start" x="332.5" y="-186.5" font-family="Helvetica,sans-Serif" font-size="10.00" fill="#000000">/Detectors/MUON/MCH/Raw</text>
<text text-anchor="middle" x="399.5" y="-175.5" font-family="Helvetica,sans-Serif" font-size="10.00" fill="#000000">/ImplHelpers/DumpBuffer.h</text>
</g>
<!-- Node1 -->
<g id="node2" class="node">
<title>Node1</title>
<polygon fill="none" stroke="#bfbfbf" points="190,-56.5 190,-75.5 247,-75.5 247,-56.5 190,-56.5"/>
<text text-anchor="middle" x="218.5" y="-63.5" font-family="Helvetica,sans-Serif" font-size="10.00" fill="#000000">gsl/span</text>
</g>
<!-- Node0&#45;&gt;Node1 -->
<g id="edge1" class="edge">
<title>Node0&#45;&gt;Node1</title>
<path fill="none" stroke="#191970" d="M350.2708,-168.4758C331.6512,-157.9353 310.5986,-145.154 292.5,-132 271.586,-116.7997 249.7418,-96.7186 235.257,-82.7151"/>
<polygon fill="#191970" stroke="#191970" points="237.6141,-80.1246 228.0197,-75.6303 232.7173,-85.1268 237.6141,-80.1246"/>
</g>
<!-- Node2 -->
<g id="node3" class="node">
<title>Node2</title>
<polygon fill="none" stroke="#bfbfbf" points="111.5,-56.5 111.5,-75.5 171.5,-75.5 171.5,-56.5 111.5,-56.5"/>
<text text-anchor="middle" x="141.5" y="-63.5" font-family="Helvetica,sans-Serif" font-size="10.00" fill="#000000">iostream</text>
</g>
<!-- Node0&#45;&gt;Node2 -->
<g id="edge2" class="edge">
<title>Node0&#45;&gt;Node2</title>
<path fill="none" stroke="#191970" d="M341.3319,-168.4779C317.383,-157.5295 289.4564,-144.4591 264.5,-132 230.4698,-115.011 191.9341,-94.0459 167.2085,-80.3657"/>
<polygon fill="#191970" stroke="#191970" points="168.8886,-77.2952 158.4465,-75.5028 165.4916,-83.4158 168.8886,-77.2952"/>
</g>
<!-- Node3 -->
<g id="node4" class="node">
<title>Node3</title>
<polygon fill="none" stroke="#bfbfbf" points="668,-112.5 668,-131.5 747,-131.5 747,-112.5 668,-112.5"/>
<text text-anchor="middle" x="707.5" y="-119.5" font-family="Helvetica,sans-Serif" font-size="10.00" fill="#000000">fmt/format.h</text>
</g>
<!-- Node0&#45;&gt;Node3 -->
<g id="edge3" class="edge">
<title>Node0&#45;&gt;Node3</title>
<path fill="none" stroke="#191970" d="M474.8453,-176.7645C531.827,-163.3516 608.4475,-145.3159 657.909,-133.6732"/>
<polygon fill="#191970" stroke="#191970" points="658.7978,-137.0597 667.7298,-131.3615 657.1938,-130.246 658.7978,-137.0597"/>
</g>
<!-- Node4 -->
<g id="node5" class="node">
<title>Node4</title>
<polygon fill="none" stroke="#bfbfbf" points="265,-56.5 265,-75.5 312,-75.5 312,-56.5 265,-56.5"/>
<text text-anchor="middle" x="288.5" y="-63.5" font-family="Helvetica,sans-Serif" font-size="10.00" fill="#000000">vector</text>
</g>
<!-- Node0&#45;&gt;Node4 -->
<g id="edge4" class="edge">
<title>Node0&#45;&gt;Node4</title>
<path fill="none" stroke="#191970" d="M347.9206,-168.4361C333.062,-158.7641 318.0387,-146.54 307.5,-132 297.6716,-118.4401 292.9086,-99.8926 290.6113,-85.912"/>
<polygon fill="#191970" stroke="#191970" points="294.0604,-85.3002 289.2478,-75.8615 287.1239,-86.2413 294.0604,-85.3002"/>
</g>
<!-- Node5 -->
<g id="node6" class="node">
<title>Node5</title>
<g id="a_node6"><a xlink:href="../../d5/d49/SampaHeader_8h.html" target="_top" xlink:title="MCHRawCommon/SampaHeader.h">
<polygon fill="none" stroke="#000000" points="0,-112.5 0,-131.5 185,-131.5 185,-112.5 0,-112.5"/>
<text text-anchor="middle" x="92.5" y="-119.5" font-family="Helvetica,sans-Serif" font-size="10.00" fill="#000000">MCHRawCommon/SampaHeader.h</text>
</a>
</g>
</g>
<!-- Node0&#45;&gt;Node5 -->
<g id="edge5" class="edge">
<title>Node0&#45;&gt;Node5</title>
<path fill="none" stroke="#191970" d="M324.3994,-176.7645C267.9348,-163.43 192.1235,-145.5267 142.7976,-133.8781"/>
<polygon fill="#191970" stroke="#191970" points="143.5318,-130.4553 132.9951,-131.5632 141.9229,-137.2679 143.5318,-130.4553"/>
</g>
<!-- Node7 -->
<g id="node8" class="node">
<title>Node7</title>
<polygon fill="none" stroke="#bfbfbf" points="764.5,-112.5 764.5,-131.5 808.5,-131.5 808.5,-112.5 764.5,-112.5"/>
<text text-anchor="middle" x="786.5" y="-119.5" font-family="Helvetica,sans-Serif" font-size="10.00" fill="#000000">limits</text>
</g>
<!-- Node0&#45;&gt;Node7 -->
<g id="edge8" class="edge">
<title>Node0&#45;&gt;Node7</title>
<path fill="none" stroke="#191970" d="M474.7116,-184.646C545.1607,-174.6642 653.3965,-157.4024 754.5619,-132.2565"/>
<polygon fill="#191970" stroke="#191970" points="755.4852,-135.6334 764.3285,-129.7984 753.7766,-128.8451 755.4852,-135.6334"/>
</g>
<!-- Node8 -->
<g id="node9" class="node">
<title>Node8</title>
<g id="a_node9"><a xlink:href="../../dc/d3a/RDHManip_8h.html" target="_top" xlink:title="MCHRawCommon/RDHManip.h">
<polygon fill="none" stroke="#000000" points="316,-112.5 316,-131.5 483,-131.5 483,-112.5 316,-112.5"/>
<text text-anchor="middle" x="399.5" y="-119.5" font-family="Helvetica,sans-Serif" font-size="10.00" fill="#000000">MCHRawCommon/RDHManip.h</text>
</a>
</g>
</g>
<!-- Node0&#45;&gt;Node8 -->
<g id="edge9" class="edge">
<title>Node0&#45;&gt;Node8</title>
<path fill="none" stroke="#191970" d="M399.5,-168.3258C399.5,-159.5142 399.5,-149.8397 399.5,-141.621"/>
<polygon fill="#191970" stroke="#191970" points="403.0001,-141.534 399.5,-131.534 396.0001,-141.534 403.0001,-141.534"/>
</g>
<!-- Node15 -->
<g id="node16" class="node">
<title>Node15</title>
<g id="a_node16"><a xlink:href="../../d4/d78/DataFormats_2Headers_2include_2Headers_2RAWDataHeader_8h.html" target="_top" xlink:title="Headers/RAWDataHeader.h">
<polygon fill="none" stroke="#000000" points="501,-112.5 501,-131.5 650,-131.5 650,-112.5 501,-112.5"/>
<text text-anchor="middle" x="575.5" y="-119.5" font-family="Helvetica,sans-Serif" font-size="10.00" fill="#000000">Headers/RAWDataHeader.h</text>
</a>
</g>
</g>
<!-- Node0&#45;&gt;Node15 -->
<g id="edge20" class="edge">
<title>Node0&#45;&gt;Node15</title>
<path fill="none" stroke="#191970" d="M463.04,-168.3258C490.1435,-157.161 520.6097,-144.6111 542.9887,-135.3924"/>
<polygon fill="#191970" stroke="#191970" points="544.4423,-138.5791 552.3554,-131.534 541.776,-132.1067 544.4423,-138.5791"/>
</g>
<!-- Node16 -->
<g id="node17" class="node">
<title>Node16</title>
<g id="a_node17"><a xlink:href="../../d0/d64/DataFormats_8h.html" target="_top" xlink:title="MCHRawCommon/DataFormats.h">
<polygon fill="none" stroke="#000000" points="827,-112.5 827,-131.5 1006,-131.5 1006,-112.5 827,-112.5"/>
<text text-anchor="middle" x="916.5" y="-119.5" font-family="Helvetica,sans-Serif" font-size="10.00" fill="#000000">MCHRawCommon/DataFormats.h</text>
</a>
</g>
</g>
<!-- Node0&#45;&gt;Node16 -->
<g id="edge22" class="edge">
<title>Node0&#45;&gt;Node16</title>
<path fill="none" stroke="#191970" d="M474.6762,-183.9579C571.7799,-170.3408 739.9891,-146.7525 838.4651,-132.943"/>
<polygon fill="#191970" stroke="#191970" points="839.2349,-136.3694 848.6519,-131.5145 838.2627,-129.4372 839.2349,-136.3694"/>
</g>
<!-- Node5&#45;&gt;Node2 -->
<g id="edge7" class="edge">
<title>Node5&#45;&gt;Node2</title>
<path fill="none" stroke="#191970" d="M101.0351,-112.2455C107.9912,-104.2958 117.9883,-92.8706 126.3051,-83.3656"/>
<polygon fill="#191970" stroke="#191970" points="129.1116,-85.4732 133.0627,-75.6427 123.8436,-80.8637 129.1116,-85.4732"/>
</g>
<!-- Node6 -->
<g id="node7" class="node">
<title>Node6</title>
<polygon fill="none" stroke="#bfbfbf" points="44,-56.5 44,-75.5 93,-75.5 93,-56.5 44,-56.5"/>
<text text-anchor="middle" x="68.5" y="-63.5" font-family="Helvetica,sans-Serif" font-size="10.00" fill="#000000">cstdlib</text>
</g>
<!-- Node5&#45;&gt;Node6 -->
<g id="edge6" class="edge">
<title>Node5&#45;&gt;Node6</title>
<path fill="none" stroke="#191970" d="M88.3195,-112.2455C85.119,-104.7776 80.604,-94.2427 76.6916,-85.1137"/>
<polygon fill="#191970" stroke="#191970" points="79.7888,-83.4554 72.6326,-75.6427 73.3548,-86.2129 79.7888,-83.4554"/>
</g>
<!-- Node8&#45;&gt;Node1 -->
<g id="edge12" class="edge">
<title>Node8&#45;&gt;Node1</title>
<path fill="none" stroke="#191970" d="M368.385,-112.3733C337.516,-102.8226 290.1432,-88.1658 256.9389,-77.8927"/>
<polygon fill="#191970" stroke="#191970" points="257.7107,-74.4679 247.123,-74.8557 255.6417,-81.1551 257.7107,-74.4679"/>
</g>
<!-- Node8&#45;&gt;Node2 -->
<g id="edge13" class="edge">
<title>Node8&#45;&gt;Node2</title>
<path fill="none" stroke="#191970" d="M351.7587,-112.4558C307.5174,-103.4857 239.924,-89.4621 181.5,-76 181.3997,-75.9769 181.2993,-75.9537 181.1988,-75.9305"/>
<polygon fill="#191970" stroke="#191970" points="182.1502,-72.5592 171.6121,-73.6549 180.5334,-79.3699 182.1502,-72.5592"/>
</g>
<!-- Node8&#45;&gt;Node4 -->
<g id="edge16" class="edge">
<title>Node8&#45;&gt;Node4</title>
<path fill="none" stroke="#191970" d="M380.4184,-112.3733C362.7598,-103.4644 336.2947,-90.1127 316.2902,-80.0203"/>
<polygon fill="#191970" stroke="#191970" points="317.8372,-76.8806 307.3326,-75.5011 314.6842,-83.1303 317.8372,-76.8806"/>
</g>
<!-- Node9 -->
<g id="node10" class="node">
<title>Node9</title>
<polygon fill="none" stroke="#bfbfbf" points="724.5,-.5 724.5,-19.5 774.5,-19.5 774.5,-.5 724.5,-.5"/>
<text text-anchor="middle" x="749.5" y="-7.5" font-family="Helvetica,sans-Serif" font-size="10.00" fill="#000000">cstdint</text>
</g>
<!-- Node8&#45;&gt;Node9 -->
<g id="edge10" class="edge">
<title>Node8&#45;&gt;Node9</title>
<path fill="none" stroke="#191970" d="M483.3126,-112.6484C578.2774,-101.7113 721.1849,-84.0763 730.5,-76 743.5659,-64.6716 747.9255,-44.9959 749.25,-30.0668"/>
<polygon fill="#191970" stroke="#191970" points="752.7599,-29.9553 749.7652,-19.7925 745.7687,-29.6047 752.7599,-29.9553"/>
</g>
<!-- Node10 -->
<g id="node11" class="node">
<title>Node10</title>
<polygon fill="none" stroke="#bfbfbf" points="778,-56.5 778,-75.5 843,-75.5 843,-56.5 778,-56.5"/>
<text text-anchor="middle" x="810.5" y="-63.5" font-family="Helvetica,sans-Serif" font-size="10.00" fill="#000000">functional</text>
</g>
<!-- Node8&#45;&gt;Node10 -->
<g id="edge11" class="edge">
<title>Node8&#45;&gt;Node10</title>
<path fill="none" stroke="#191970" d="M481.4744,-112.4528C571.7198,-101.7978 710.9804,-84.8896 763.5,-76 764.9651,-75.752 766.4539,-75.4901 767.956,-75.2174"/>
<polygon fill="#191970" stroke="#191970" points="768.7929,-78.6207 777.9518,-73.2949 767.4707,-71.7467 768.7929,-78.6207"/>
</g>
<!-- Node11 -->
<g id="node12" class="node">
<title>Node11</title>
<polygon fill="none" stroke="#bfbfbf" points="330.5,-56.5 330.5,-75.5 374.5,-75.5 374.5,-56.5 330.5,-56.5"/>
<text text-anchor="middle" x="352.5" y="-63.5" font-family="Helvetica,sans-Serif" font-size="10.00" fill="#000000">string</text>
</g>
<!-- Node8&#45;&gt;Node11 -->
<g id="edge14" class="edge">
<title>Node8&#45;&gt;Node11</title>
<path fill="none" stroke="#191970" d="M391.3132,-112.2455C384.6411,-104.2958 375.0521,-92.8706 367.0747,-83.3656"/>
<polygon fill="#191970" stroke="#191970" points="369.7026,-81.0524 360.593,-75.6427 364.3408,-85.5525 369.7026,-81.0524"/>
</g>
<!-- Node12 -->
<g id="node13" class="node">
<title>Node12</title>
<polygon fill="none" stroke="#bfbfbf" points="577,-56.5 577,-75.5 650,-75.5 650,-56.5 577,-56.5"/>
<text text-anchor="middle" x="613.5" y="-63.5" font-family="Helvetica,sans-Serif" font-size="10.00" fill="#000000">string_view</text>
</g>
<!-- Node8&#45;&gt;Node12 -->
<g id="edge15" class="edge">
<title>Node8&#45;&gt;Node12</title>
<path fill="none" stroke="#191970" d="M436.2879,-112.3733C472.5661,-102.8799 528.1236,-88.3415 567.3446,-78.0781"/>
<polygon fill="#191970" stroke="#191970" points="568.404,-81.4188 577.1921,-75.5011 566.6318,-74.6468 568.404,-81.4188"/>
</g>
<!-- Node13 -->
<g id="node14" class="node">
<title>Node13</title>
<g id="a_node14"><a xlink:href="../../dd/d9a/RDHFields_8h.html" target="_top" xlink:title="MCHRawCommon/RDHFields.h">
<polygon fill="none" stroke="#000000" points="392.5,-56.5 392.5,-75.5 558.5,-75.5 558.5,-56.5 392.5,-56.5"/>
<text text-anchor="middle" x="475.5" y="-63.5" font-family="Helvetica,sans-Serif" font-size="10.00" fill="#000000">MCHRawCommon/RDHFields.h</text>
</a>
</g>
</g>
<!-- Node8&#45;&gt;Node13 -->
<g id="edge17" class="edge">
<title>Node8&#45;&gt;Node13</title>
<path fill="none" stroke="#191970" d="M412.7382,-112.2455C424.181,-103.814 440.9296,-91.4729 454.2475,-81.6598"/>
<polygon fill="#191970" stroke="#191970" points="456.4391,-84.3924 462.4135,-75.6427 452.2867,-78.757 456.4391,-84.3924"/>
</g>
<!-- Node14 -->
<g id="node15" class="node">
<title>Node14</title>
<polygon fill="none" stroke="#bfbfbf" points="668,-56.5 668,-75.5 721,-75.5 721,-56.5 668,-56.5"/>
<text text-anchor="middle" x="694.5" y="-63.5" font-family="Helvetica,sans-Serif" font-size="10.00" fill="#000000">cstddef</text>
</g>
<!-- Node8&#45;&gt;Node14 -->
<g id="edge19" class="edge">
<title>Node8&#45;&gt;Node14</title>
<path fill="none" stroke="#191970" d="M463.9823,-112.4887C514.449,-104.6113 586.5614,-92.4066 657.7798,-76.2373"/>
<polygon fill="#191970" stroke="#191970" points="658.8589,-79.5806 667.8207,-73.9295 657.2908,-72.7585 658.8589,-79.5806"/>
</g>
<!-- Node13&#45;&gt;Node9 -->
<g id="edge18" class="edge">
<title>Node13&#45;&gt;Node9</title>
<path fill="none" stroke="#191970" d="M522.291,-56.4369C576.8012,-45.2961 665.6106,-27.1453 714.4899,-17.1554"/>
<polygon fill="#191970" stroke="#191970" points="715.1908,-20.5845 724.2874,-15.1529 713.789,-13.7263 715.1908,-20.5845"/>
</g>
<!-- Node15&#45;&gt;Node9 -->
<g id="edge21" class="edge">
<title>Node15&#45;&gt;Node9</title>
<path fill="none" stroke="#191970" d="M646.7162,-112.4923C726.5531,-101.4904 845.8215,-83.879 852.5,-76 875.8212,-48.4866 822.874,-28.4322 784.5847,-18.0483"/>
<polygon fill="#191970" stroke="#191970" points="785.2941,-14.6166 774.736,-15.4978 783.5392,-21.3931 785.2941,-14.6166"/>
</g>
</g>
</svg>
        <g id="navigator" transform="translate(0 0)" fill="#404254">
                <rect fill="#f2f5e9" fill-opacity="0.5" stroke="#606060" stroke-width=".5" x="0" y="0" width="60" height="60"/>
                <use id="zoomplus" xlink:href="#zoomPlus" x="17" y="9" onmousedown="handleZoom(evt,'in')"/>
                <use id="zoomminus" xlink:href="#zoomMin" x="42" y="9" onmousedown="handleZoom(evt,'out')"/>
                <use id="reset" xlink:href="#resetDef" x="30" y="36" onmousedown="handleReset()"/>
                <g id="arrowUp" xlink:href="#dirArrow" transform="translate(30 24)" onmousedown="handlePan(0,-1)">
                  <use xlink:href="#rim" fill="#404040">
                        <set attributeName="fill" to="#808080" begin="arrowUp.mouseover" end="arrowUp.mouseout"/>
                  </use>
                  <path fill="none" stroke="white" stroke-width="1.5" d="M0,-3.0v7 M-2.5,-0.5L0,-3.0L2.5,-0.5"/>
                </g>
                <g id="arrowRight" xlink:href="#dirArrow" transform="rotate(90) translate(36 -43)" onmousedown="handlePan(1,0)">
                  <use xlink:href="#rim" fill="#404040">
                        <set attributeName="fill" to="#808080" begin="arrowRight.mouseover" end="arrowRight.mouseout"/>
                  </use>
                  <path fill="none" stroke="white" stroke-width="1.5" d="M0,-3.0v7 M-2.5,-0.5L0,-3.0L2.5,-0.5"/>
                </g>
                <g id="arrowDown" xlink:href="#dirArrow" transform="rotate(180) translate(-30 -48)" onmousedown="handlePan(0,1)">
                  <use xlink:href="#rim" fill="#404040">
                        <set attributeName="fill" to="#808080" begin="arrowDown.mouseover" end="arrowDown.mouseout"/>
                  </use>
                  <path fill="none" stroke="white" stroke-width="1.5" d="M0,-3.0v7 M-2.5,-0.5L0,-3.0L2.5,-0.5"/>
                </g>
                <g id="arrowLeft" xlink:href="#dirArrow" transform="rotate(270) translate(-36 17)" onmousedown="handlePan(-1,0)">
                  <use xlink:href="#rim" fill="#404040">
                        <set attributeName="fill" to="#808080" begin="arrowLeft.mouseover" end="arrowLeft.mouseout"/>
                  </use>
                  <path fill="none" stroke="white" stroke-width="1.5" d="M0,-3.0v7 M-2.5,-0.5L0,-3.0L2.5,-0.5"/>
                </g>
        </g>
        <svg viewBox="0 0 15 15" width="100%" height="30px" preserveAspectRatio="xMaxYMin meet">
         <g id="arrow_out" transform="scale(0.3 0.3)">
          <a xlink:href="DumpBuffer_8h__incl_org.svg" target="_base">
           <rect id="button" ry="5" rx="5" y="6" x="6" height="38" width="38"
                fill="#f2f5e9" fill-opacity="0.5" stroke="#606060" stroke-width="1.0"/>
           <path id="arrow"
             d="M 11.500037,31.436501 C 11.940474,20.09759 22.043105,11.32322 32.158766,21.979434 L 37.068811,17.246167 C 37.068811,17.246167 37.088388,32 37.088388,32 L 22.160133,31.978069 C 22.160133,31.978069 26.997745,27.140456 26.997745,27.140456 C 18.528582,18.264221 13.291696,25.230495 11.500037,31.436501 z"
             style="fill:#404040;"/>
          </a>
         </g>
        </svg>
</svg>
