<?xml version="1.0" encoding="UTF-8" standalone="no"?>
<!DOCTYPE svg PUBLIC "-//W3C//DTD SVG 1.1//EN"
 "http://www.w3.org/Graphics/SVG/1.1/DTD/svg11.dtd">
<!-- Generated by graphviz version 2.40.1 (20161225.0304)
 -->
<!-- Title: o2::framework::InitContext Pages: 1 -->
<svg width="352pt" height="237pt"
 viewBox="0.00 0.00 351.50 237.00" xmlns="http://www.w3.org/2000/svg" xmlns:xlink="http://www.w3.org/1999/xlink">
<g id="graph0" class="graph" transform="scale(1 1) rotate(0) translate(4 233)">
<title>o2::framework::InitContext</title>
<!-- Node1 -->
<g id="node1" class="node">
<title>Node1</title>
<polygon fill="#bfbfbf" stroke="#000000" points="101,-.5 101,-79.5 249,-79.5 249,-.5 101,-.5"/>
<text text-anchor="middle" x="175" y="-67.5" font-family="Helvetica,sans-Serif" font-size="10.00" fill="#000000">o2::framework::InitContext</text>
<polyline fill="none" stroke="#000000" points="101,-60.5 249,-60.5 "/>
<text text-anchor="middle" x="175" y="-48.5" font-family="Helvetica,sans-Serif" font-size="10.00" fill="#000000"> </text>
<polyline fill="none" stroke="#000000" points="101,-41.5 249,-41.5 "/>
<text text-anchor="start" x="109" y="-29.5" font-family="Helvetica,sans-Serif" font-size="10.00" fill="#000000">+ InitContext()</text>
<text text-anchor="start" x="109" y="-18.5" font-family="Helvetica,sans-Serif" font-size="10.00" fill="#000000">+ options()</text>
<text text-anchor="start" x="109" y="-7.5" font-family="Helvetica,sans-Serif" font-size="10.00" fill="#000000">+ services()</text>
</g>
<!-- Node2 -->
<g id="node2" class="node">
<title>Node2</title>
<g id="a_node2"><a xlink:href="../../d7/d13/classo2_1_1framework_1_1ServiceRegistry.html" target="_top" xlink:title="{o2::framework::ServiceRegistry\n||+ ServiceRegistry()\l+ registerService()\l+ registerService()\l+ get()\l+ get()\l}">
<polygon fill="none" stroke="#000000" points="0,-127.5 0,-228.5 170,-228.5 170,-127.5 0,-127.5"/>
<text text-anchor="middle" x="85" y="-216.5" font-family="Helvetica,sans-Serif" font-size="10.00" fill="#000000">o2::framework::ServiceRegistry</text>
<polyline fill="none" stroke="#000000" points="0,-209.5 170,-209.5 "/>
<text text-anchor="middle" x="85" y="-197.5" font-family="Helvetica,sans-Serif" font-size="10.00" fill="#000000"> </text>
<polyline fill="none" stroke="#000000" points="0,-190.5 170,-190.5 "/>
<text text-anchor="start" x="8" y="-178.5" font-family="Helvetica,sans-Serif" font-size="10.00" fill="#000000">+ ServiceRegistry()</text>
<text text-anchor="start" x="8" y="-167.5" font-family="Helvetica,sans-Serif" font-size="10.00" fill="#000000">+ registerService()</text>
<text text-anchor="start" x="8" y="-156.5" font-family="Helvetica,sans-Serif" font-size="10.00" fill="#000000">+ registerService()</text>
<text text-anchor="start" x="8" y="-145.5" font-family="Helvetica,sans-Serif" font-size="10.00" fill="#000000">+ get()</text>
<text text-anchor="start" x="8" y="-134.5" font-family="Helvetica,sans-Serif" font-size="10.00" fill="#000000">+ get()</text>
</a>
</g>
</g>
<!-- Node2&#45;&gt;Node1 -->
<g id="edge1" class="edge">
<title>Node2&#45;&gt;Node1</title>
<path fill="none" stroke="#404040" d="M118.0016,-127.3975C125.9172,-115.2603 134.3671,-102.3038 142.2702,-90.1857"/>
<polygon fill="none" stroke="#404040" points="142.4923,-89.8451 142.4195,-82.6344 149.0475,-79.7938 149.1203,-87.0045 142.4923,-89.8451"/>
<text text-anchor="middle" x="167.5" y="-101" font-family="Helvetica,sans-Serif" font-size="10.00" fill="#000000"> +mServices</text>
</g>
<!-- Node3 -->
<g id="node3" class="node">
<title>Node3</title>
<g id="a_node3"><a xlink:href="../../df/d6f/classo2_1_1framework_1_1ConfigParamRegistry.html" target="_top" xlink:title="{o2::framework::ConfigParam\lRegistry\n||+ ConfigParamRegistry()\l+ isSet()\l+ get()\l}">
<polygon fill="none" stroke="#000000" points="188.5,-133 188.5,-223 343.5,-223 343.5,-133 188.5,-133"/>
<text text-anchor="start" x="196.5" y="-211" font-family="Helvetica,sans-Serif" font-size="10.00" fill="#000000">o2::framework::ConfigParam</text>
<text text-anchor="middle" x="266" y="-200" font-family="Helvetica,sans-Serif" font-size="10.00" fill="#000000">Registry</text>
<polyline fill="none" stroke="#000000" points="188.5,-193 343.5,-193 "/>
<text text-anchor="middle" x="266" y="-181" font-family="Helvetica,sans-Serif" font-size="10.00" fill="#000000"> </text>
<polyline fill="none" stroke="#000000" points="188.5,-174 343.5,-174 "/>
<text text-anchor="start" x="196.5" y="-162" font-family="Helvetica,sans-Serif" font-size="10.00" fill="#000000">+ ConfigParamRegistry()</text>
<text text-anchor="start" x="196.5" y="-151" font-family="Helvetica,sans-Serif" font-size="10.00" fill="#000000">+ isSet()</text>
<text text-anchor="start" x="196.5" y="-140" font-family="Helvetica,sans-Serif" font-size="10.00" fill="#000000">+ get()</text>
</a>
</g>
</g>
<!-- Node3&#45;&gt;Node1 -->
<g id="edge2" class="edge">
<title>Node3&#45;&gt;Node1</title>
<path fill="none" stroke="#404040" d="M236.2032,-132.8136C227.1985,-119.1582 217.2586,-104.0844 208.0546,-90.1268"/>
<polygon fill="none" stroke="#404040" points="207.7935,-89.7308 201.1512,-86.9239 201.1874,-79.7128 207.8298,-82.5198 207.7935,-89.7308"/>
<text text-anchor="middle" x="249.5" y="-101" font-family="Helvetica,sans-Serif" font-size="10.00" fill="#000000"> +mOptions</text>
</g>
</g>
</svg>
