<?xml version="1.0" encoding="UTF-8" standalone="no"?>
<!DOCTYPE svg PUBLIC "-//W3C//DTD SVG 1.1//EN"
 "http://www.w3.org/Graphics/SVG/1.1/DTD/svg11.dtd">
<!-- Generated by graphviz version 2.40.1 (20161225.0304)
 -->
<!-- Title: /home/travis/build/AliceO2Group/AliceO2/Framework/Core/include/Framework/ASoAHelpers.h Pages: 1 -->
<!--zoomable 397 -->
<svg id="main" version="1.1" xmlns="http://www.w3.org/2000/svg" xmlns:xlink="http://www.w3.org/1999/xlink" xml:space="preserve" onload="init(evt)">
<style type="text/css"><![CDATA[
.edge:hover path { stroke: red; }
.edge:hover polygon { stroke: red; fill: red; }
]]></style>
<script type="text/javascript"><![CDATA[
var edges = document.getElementsByTagName('g');
if (edges && edges.length) {
  for (var i=0;i<edges.length;i++) {
    if (edges[i].id.substr(0,4)=='edge') {
      edges[i].setAttribute('class','edge');
    }
  }
}
]]></script>
        <defs>
                <circle id="rim" cx="0" cy="0" r="7"/>
                <circle id="rim2" cx="0" cy="0" r="3.5"/>
                <g id="zoomPlus">
                        <use xlink:href="#rim" fill="#404040">
                                <set attributeName="fill" to="#808080" begin="zoomplus.mouseover" end="zoomplus.mouseout"/>
                        </use>
                        <path d="M-4,0h8M0,-4v8" fill="none" stroke="white" stroke-width="1.5" pointer-events="none"/>
                </g>
                <g id="zoomMin">
                        <use xlink:href="#rim" fill="#404040">
                                <set attributeName="fill" to="#808080" begin="zoomminus.mouseover" end="zoomminus.mouseout"/>
                        </use>
                        <path d="M-4,0h8" fill="none" stroke="white" stroke-width="1.5" pointer-events="none"/>
                </g>
                <g id="dirArrow">
                        <path fill="none" stroke="white" stroke-width="1.5" d="M0,-3.0v7 M-2.5,-0.5L0,-3.0L2.5,-0.5"/>
                </g>
               <g id="resetDef">
                       <use xlink:href="#rim2" fill="#404040">
                               <set attributeName="fill" to="#808080" begin="reset.mouseover" end="reset.mouseout"/>
                       </use>
               </g>
        </defs>

<script type="text/javascript">
var viewWidth = 2358;
var viewHeight = 397;
var sectionId = 'dynsection-0';
</script>
<script xlink:href="../../svgpan.js"/>
<svg id="graph" class="graph">
<g id="viewport">
<title>/home/travis/build/AliceO2Group/AliceO2/Framework/Core/include/Framework/ASoAHelpers.h</title>
<!-- Node0 -->
<g id="node1" class="node">
<title>Node0</title>
<polygon fill="#bfbfbf" stroke="#000000" points="274.5,-336.5 274.5,-388.5 423.5,-388.5 423.5,-336.5 274.5,-336.5"/>
<text text-anchor="start" x="282.5" y="-376.5" font-family="Helvetica,sans-Serif" font-size="10.00" fill="#000000">/home/travis/build</text>
<text text-anchor="start" x="282.5" y="-365.5" font-family="Helvetica,sans-Serif" font-size="10.00" fill="#000000">/AliceO2Group/AliceO2</text>
<text text-anchor="start" x="282.5" y="-354.5" font-family="Helvetica,sans-Serif" font-size="10.00" fill="#000000">/Framework/Core/include</text>
<text text-anchor="middle" x="349" y="-343.5" font-family="Helvetica,sans-Serif" font-size="10.00" fill="#000000">/Framework/ASoAHelpers.h</text>
</g>
<!-- Node1 -->
<g id="node2" class="node">
<title>Node1</title>
<g id="a_node2"><a xlink:href="../../de/d33/ASoA_8h.html" target="_top" xlink:title="Framework/ASoA.h">
<polygon fill="none" stroke="#000000" points="844,-168.5 844,-187.5 952,-187.5 952,-168.5 844,-168.5"/>
<text text-anchor="middle" x="898" y="-175.5" font-family="Helvetica,sans-Serif" font-size="10.00" fill="#000000">Framework/ASoA.h</text>
</a>
</g>
</g>
<!-- Node0&#45;&gt;Node1 -->
<g id="edge1" class="edge">
<title>Node0&#45;&gt;Node1</title>
<path fill="none" stroke="#191970" d="M423.6119,-337.4255C542.2972,-297.5395 769.8699,-221.0601 859.9438,-190.7894"/>
<polygon fill="#191970" stroke="#191970" points="861.117,-194.0875 869.4811,-187.5842 858.8871,-187.4522 861.117,-194.0875"/>
</g>
<!-- Node4 -->
<g id="node5" class="node">
<title>Node4</title>
<polygon fill="none" stroke="#bfbfbf" points="768.5,-.5 768.5,-19.5 813.5,-19.5 813.5,-.5 768.5,-.5"/>
<text text-anchor="middle" x="791" y="-7.5" font-family="Helvetica,sans-Serif" font-size="10.00" fill="#000000">utility</text>
</g>
<!-- Node0&#45;&gt;Node4 -->
<g id="edge71" class="edge">
<title>Node0&#45;&gt;Node4</title>
<path fill="none" stroke="#191970" d="M274.1307,-350.4577C171.5831,-331.8094 0,-291.9487 0,-234 0,-234 0,-234 0,-122 0,-84.6561 18.925,-73.3383 52,-56 115.1153,-22.9143 623.3527,-12.6325 758.2362,-10.4733"/>
<polygon fill="#191970" stroke="#191970" points="758.4127,-13.971 768.3569,-10.3154 758.3035,-6.9719 758.4127,-13.971"/>
</g>
<!-- Node18 -->
<g id="node19" class="node">
<title>Node18</title>
<polygon fill="none" stroke="#bfbfbf" points="61.5,-56.5 61.5,-75.5 142.5,-75.5 142.5,-56.5 61.5,-56.5"/>
<text text-anchor="middle" x="102" y="-63.5" font-family="Helvetica,sans-Serif" font-size="10.00" fill="#000000">arrow/table.h</text>
</g>
<!-- Node0&#45;&gt;Node18 -->
<g id="edge66" class="edge">
<title>Node0&#45;&gt;Node18</title>
<path fill="none" stroke="#191970" d="M274.112,-347.1288C182.0874,-326.0421 38,-284.8988 38,-234 38,-234 38,-234 38,-178 38,-147.4754 41.6385,-138.3776 57,-112 63.4568,-100.9128 73.1767,-90.5157 81.9326,-82.4209"/>
<polygon fill="#191970" stroke="#191970" points="84.3929,-84.9179 89.5813,-75.6804 79.7648,-79.6661 84.3929,-84.9179"/>
</g>
<!-- Node25 -->
<g id="node26" class="node">
<title>Node25</title>
<g id="a_node26"><a xlink:href="../../d1/dc1/ArrowCompatibility_8h.html" target="_top" xlink:title="Framework/ArrowCompatibility.h">
<polygon fill="none" stroke="#000000" points="66,-112.5 66,-131.5 242,-131.5 242,-112.5 66,-112.5"/>
<text text-anchor="middle" x="154" y="-119.5" font-family="Helvetica,sans-Serif" font-size="10.00" fill="#000000">Framework/ArrowCompatibility.h</text>
</a>
</g>
</g>
<!-- Node0&#45;&gt;Node25 -->
<g id="edge67" class="edge">
<title>Node0&#45;&gt;Node25</title>
<path fill="none" stroke="#191970" d="M327.7604,-336.3045C287.7649,-286.9767 202.2522,-181.5111 168.3116,-139.6509"/>
<polygon fill="#191970" stroke="#191970" points="170.9034,-137.2902 161.8867,-131.7269 165.4661,-141.6988 170.9034,-137.2902"/>
</g>
<!-- Node29 -->
<g id="node30" class="node">
<title>Node29</title>
<polygon fill="none" stroke="#bfbfbf" points="260.5,-112.5 260.5,-131.5 399.5,-131.5 399.5,-112.5 260.5,-112.5"/>
<text text-anchor="middle" x="330" y="-119.5" font-family="Helvetica,sans-Serif" font-size="10.00" fill="#000000">arrow/compute/context.h</text>
</g>
<!-- Node0&#45;&gt;Node29 -->
<g id="edge68" class="edge">
<title>Node0&#45;&gt;Node29</title>
<path fill="none" stroke="#191970" d="M346.9305,-336.3045C343.0987,-287.8023 334.9792,-185.0256 331.5647,-141.8056"/>
<polygon fill="#191970" stroke="#191970" points="335.0452,-141.4202 330.7684,-131.7269 328.067,-141.9715 335.0452,-141.4202"/>
</g>
<!-- Node32 -->
<g id="node33" class="node">
<title>Node32</title>
<g id="a_node33"><a xlink:href="../../d0/d92/Kernels_8h.html" target="_top" xlink:title="Framework/Kernels.h">
<polygon fill="none" stroke="#000000" points="1124.5,-280.5 1124.5,-299.5 1243.5,-299.5 1243.5,-280.5 1124.5,-280.5"/>
<text text-anchor="middle" x="1184" y="-287.5" font-family="Helvetica,sans-Serif" font-size="10.00" fill="#000000">Framework/Kernels.h</text>
</a>
</g>
</g>
<!-- Node0&#45;&gt;Node32 -->
<g id="edge40" class="edge">
<title>Node0&#45;&gt;Node32</title>
<path fill="none" stroke="#191970" d="M423.8355,-356.0023C583.9771,-342.0978 957.9631,-309.626 1113.8423,-296.0915"/>
<polygon fill="#191970" stroke="#191970" points="1114.5768,-299.541 1124.2366,-295.189 1113.9713,-292.5673 1114.5768,-299.541"/>
</g>
<!-- Node35 -->
<g id="node36" class="node">
<title>Node35</title>
<polygon fill="none" stroke="#bfbfbf" points="2220.5,-112.5 2220.5,-131.5 2261.5,-131.5 2261.5,-112.5 2220.5,-112.5"/>
<text text-anchor="middle" x="2241" y="-119.5" font-family="Helvetica,sans-Serif" font-size="10.00" fill="#000000">tuple</text>
</g>
<!-- Node0&#45;&gt;Node35 -->
<g id="edge70" class="edge">
<title>Node0&#45;&gt;Node35</title>
<path fill="none" stroke="#191970" d="M423.5802,-359.8658C742.6123,-348.2899 1983.7877,-300.0123 2149,-244 2191.4933,-229.5934 2209.4822,-226.2119 2233,-188 2241.4971,-174.1939 2243.0785,-155.6703 2242.775,-141.7615"/>
<polygon fill="#191970" stroke="#191970" points="2246.2697,-141.5664 2242.2236,-131.7746 2239.2803,-141.9524 2246.2697,-141.5664"/>
</g>
<!-- Node44 -->
<g id="node45" class="node">
<title>Node44</title>
<polygon fill="none" stroke="#bfbfbf" points="2296.5,-280.5 2296.5,-299.5 2349.5,-299.5 2349.5,-280.5 2296.5,-280.5"/>
<text text-anchor="middle" x="2323" y="-287.5" font-family="Helvetica,sans-Serif" font-size="10.00" fill="#000000">iterator</text>
</g>
<!-- Node0&#45;&gt;Node44 -->
<g id="edge69" class="edge">
<title>Node0&#45;&gt;Node44</title>
<path fill="none" stroke="#191970" d="M423.7342,-362.1492C732.9315,-360.3788 1913.1461,-350.3918 2282,-300 2283.4519,-299.8017 2284.9271,-299.5733 2286.4132,-299.3207"/>
<polygon fill="#191970" stroke="#191970" points="2287.1204,-302.7487 2296.2463,-297.3664 2285.7558,-295.883 2287.1204,-302.7487"/>
</g>
<!-- Node2 -->
<g id="node3" class="node">
<title>Node2</title>
<g id="a_node3"><a xlink:href="../../dd/dce/Pack_8h.html" target="_top" xlink:title="Framework/Pack.h">
<polygon fill="none" stroke="#000000" points="1593.5,-56.5 1593.5,-75.5 1698.5,-75.5 1698.5,-56.5 1593.5,-56.5"/>
<text text-anchor="middle" x="1646" y="-63.5" font-family="Helvetica,sans-Serif" font-size="10.00" fill="#000000">Framework/Pack.h</text>
</a>
</g>
</g>
<!-- Node1&#45;&gt;Node2 -->
<g id="edge2" class="edge">
<title>Node1&#45;&gt;Node2</title>
<path fill="none" stroke="#191970" d="M952.1396,-173.5637C1013.3646,-167.6795 1115.6449,-155.2176 1201,-132 1224.0949,-125.7179 1227.7754,-117.7844 1251,-112 1392.346,-76.7957 1434.6579,-95.0321 1583.3148,-76.0062"/>
<polygon fill="#191970" stroke="#191970" points="1583.8042,-79.4721 1593.2626,-74.6982 1582.8916,-72.5318 1583.8042,-79.4721"/>
</g>
<!-- Node6 -->
<g id="node7" class="node">
<title>Node6</title>
<g id="a_node7"><a xlink:href="../../d1/d00/CheckTypes_8h.html" target="_top" xlink:title="Framework/CheckTypes.h">
<polygon fill="none" stroke="#000000" points="161,-56.5 161,-75.5 301,-75.5 301,-56.5 161,-56.5"/>
<text text-anchor="middle" x="231" y="-63.5" font-family="Helvetica,sans-Serif" font-size="10.00" fill="#000000">Framework/CheckTypes.h</text>
</a>
</g>
</g>
<!-- Node1&#45;&gt;Node6 -->
<g id="edge6" class="edge">
<title>Node1&#45;&gt;Node6</title>
<path fill="none" stroke="#191970" d="M881.727,-168.2976C852.168,-150.752 791.7109,-115.254 781,-112 583.2606,-51.9255 520.8201,-95.7708 311.281,-76.056"/>
<polygon fill="#191970" stroke="#191970" points="311.484,-72.5592 301.1906,-75.0684 310.8021,-79.5259 311.484,-72.5592"/>
</g>
<!-- Node7 -->
<g id="node8" class="node">
<title>Node7</title>
<g id="a_node8"><a xlink:href="../../de/d9b/FunctionalHelpers_8h.html" target="_top" xlink:title="Framework/FunctionalHelpers.h">
<polygon fill="none" stroke="#000000" points="1554,-112.5 1554,-131.5 1724,-131.5 1724,-112.5 1554,-112.5"/>
<text text-anchor="middle" x="1639" y="-119.5" font-family="Helvetica,sans-Serif" font-size="10.00" fill="#000000">Framework/FunctionalHelpers.h</text>
</a>
</g>
</g>
<!-- Node1&#45;&gt;Node7 -->
<g id="edge7" class="edge">
<title>Node1&#45;&gt;Node7</title>
<path fill="none" stroke="#191970" d="M952.1873,-173.9049C1077.0611,-164.4677 1386.3904,-141.0906 1543.7625,-129.1974"/>
<polygon fill="#191970" stroke="#191970" points="1544.1973,-132.6747 1553.9051,-128.4309 1543.6697,-125.6946 1544.1973,-132.6747"/>
</g>
<!-- Node9 -->
<g id="node10" class="node">
<title>Node9</title>
<g id="a_node10"><a xlink:href="../../d9/de8/CompilerBuiltins_8h.html" target="_top" xlink:title="Framework/CompilerBuiltins.h">
<polygon fill="none" stroke="#000000" points="1411,-56.5 1411,-75.5 1575,-75.5 1575,-56.5 1411,-56.5"/>
<text text-anchor="middle" x="1493" y="-63.5" font-family="Helvetica,sans-Serif" font-size="10.00" fill="#000000">Framework/CompilerBuiltins.h</text>
</a>
</g>
</g>
<!-- Node1&#45;&gt;Node9 -->
<g id="edge10" class="edge">
<title>Node1&#45;&gt;Node9</title>
<path fill="none" stroke="#191970" d="M952.0385,-170.8813C1004.9845,-163.3355 1087.7309,-150.0152 1158,-132 1184.8205,-125.1239 1190.1456,-118.7424 1217,-112 1279.2074,-96.3814 1350.6635,-84.6375 1405.2811,-76.926"/>
<polygon fill="#191970" stroke="#191970" points="1405.8562,-80.3798 1415.2774,-75.533 1404.89,-73.4468 1405.8562,-80.3798"/>
</g>
<!-- Node10 -->
<g id="node11" class="node">
<title>Node10</title>
<g id="a_node11"><a xlink:href="../../db/d31/Traits_8h.html" target="_top" xlink:title="Framework/Traits.h">
<polygon fill="none" stroke="#000000" points="2054.5,-112.5 2054.5,-131.5 2163.5,-131.5 2163.5,-112.5 2054.5,-112.5"/>
<text text-anchor="middle" x="2109" y="-119.5" font-family="Helvetica,sans-Serif" font-size="10.00" fill="#000000">Framework/Traits.h</text>
</a>
</g>
</g>
<!-- Node1&#45;&gt;Node10 -->
<g id="edge11" class="edge">
<title>Node1&#45;&gt;Node10</title>
<path fill="none" stroke="#191970" d="M952.3868,-175.485C1150.155,-166.3397 1830.6688,-134.8708 2044.3016,-124.9918"/>
<polygon fill="#191970" stroke="#191970" points="2044.5903,-128.4823 2054.4179,-124.524 2044.2668,-121.4898 2044.5903,-128.4823"/>
</g>
<!-- Node12 -->
<g id="node13" class="node">
<title>Node12</title>
<g id="a_node13"><a xlink:href="../../d0/d91/Expressions_8h.html" target="_top" xlink:title="Framework/Expressions.h">
<polygon fill="none" stroke="#000000" points="985.5,-112.5 985.5,-131.5 1126.5,-131.5 1126.5,-112.5 985.5,-112.5"/>
<text text-anchor="middle" x="1056" y="-119.5" font-family="Helvetica,sans-Serif" font-size="10.00" fill="#000000">Framework/Expressions.h</text>
</a>
</g>
</g>
<!-- Node1&#45;&gt;Node12 -->
<g id="edge13" class="edge">
<title>Node1&#45;&gt;Node12</title>
<path fill="none" stroke="#191970" d="M925.1612,-168.3733C951.2067,-159.1419 990.7116,-145.1402 1019.4979,-134.9375"/>
<polygon fill="#191970" stroke="#191970" points="1020.937,-138.1408 1029.1933,-131.5011 1018.5985,-131.5429 1020.937,-138.1408"/>
</g>
<!-- Node1&#45;&gt;Node18 -->
<g id="edge33" class="edge">
<title>Node1&#45;&gt;Node18</title>
<path fill="none" stroke="#191970" d="M843.9731,-174.5106C785.7117,-169.5534 690.8461,-157.992 613,-132 594.8972,-125.9557 593.317,-117.3603 575,-112 397.0097,-59.9131 340.7237,-101.0837 152.5307,-75.8909"/>
<polygon fill="#191970" stroke="#191970" points="152.9788,-72.4197 142.5934,-74.5158 152.0193,-79.3536 152.9788,-72.4197"/>
</g>
<!-- Node19 -->
<g id="node20" class="node">
<title>Node19</title>
<polygon fill="none" stroke="#bfbfbf" points="1099.5,-56.5 1099.5,-75.5 1246.5,-75.5 1246.5,-56.5 1099.5,-56.5"/>
<text text-anchor="middle" x="1173" y="-63.5" font-family="Helvetica,sans-Serif" font-size="10.00" fill="#000000">gandiva/selection_vector.h</text>
</g>
<!-- Node1&#45;&gt;Node19 -->
<g id="edge38" class="edge">
<title>Node1&#45;&gt;Node19</title>
<path fill="none" stroke="#191970" d="M952.0608,-172.8561C1012.9616,-166.1571 1107.2119,-152.787 1136,-132 1151.5971,-120.7378 1161.4579,-100.761 1167.041,-85.7265"/>
<polygon fill="#191970" stroke="#191970" points="1170.4933,-86.4419 1170.3712,-75.8477 1163.8601,-84.2057 1170.4933,-86.4419"/>
</g>
<!-- Node1&#45;&gt;Node25 -->
<g id="edge29" class="edge">
<title>Node1&#45;&gt;Node25</title>
<path fill="none" stroke="#191970" d="M843.8478,-174.7329C734.2892,-167.9963 478.2481,-151.6108 252.0831,-132.0706"/>
<polygon fill="#191970" stroke="#191970" points="252.282,-128.5748 242.0168,-131.197 251.6768,-135.5485 252.282,-128.5748"/>
</g>
<!-- Node26 -->
<g id="node27" class="node">
<title>Node26</title>
<g id="a_node27"><a xlink:href="../../d4/de7/ArrowTypes_8h.html" target="_top" xlink:title="Framework/ArrowTypes.h">
<polygon fill="none" stroke="#000000" points="828.5,-112.5 828.5,-131.5 967.5,-131.5 967.5,-112.5 828.5,-112.5"/>
<text text-anchor="middle" x="898" y="-119.5" font-family="Helvetica,sans-Serif" font-size="10.00" fill="#000000">Framework/ArrowTypes.h</text>
</a>
</g>
</g>
<!-- Node1&#45;&gt;Node26 -->
<g id="edge31" class="edge">
<title>Node1&#45;&gt;Node26</title>
<path fill="none" stroke="#191970" d="M898,-168.2455C898,-160.9382 898,-150.6944 898,-141.7046"/>
<polygon fill="#191970" stroke="#191970" points="901.5001,-141.6426 898,-131.6427 894.5001,-141.6427 901.5001,-141.6426"/>
</g>
<!-- Node27 -->
<g id="node28" class="node">
<title>Node27</title>
<polygon fill="none" stroke="#bfbfbf" points="622,-112.5 622,-131.5 702,-131.5 702,-112.5 622,-112.5"/>
<text text-anchor="middle" x="662" y="-119.5" font-family="Helvetica,sans-Serif" font-size="10.00" fill="#000000">arrow/array.h</text>
</g>
<!-- Node1&#45;&gt;Node27 -->
<g id="edge34" class="edge">
<title>Node1&#45;&gt;Node27</title>
<path fill="none" stroke="#191970" d="M857.6983,-168.4369C817.3936,-158.8731 755.3179,-144.1432 711.9182,-133.845"/>
<polygon fill="#191970" stroke="#191970" points="712.6734,-130.4271 702.1355,-131.5237 711.0572,-137.238 712.6734,-130.4271"/>
</g>
<!-- Node28 -->
<g id="node29" class="node">
<title>Node28</title>
<polygon fill="none" stroke="#bfbfbf" points="456,-112.5 456,-131.5 566,-131.5 566,-112.5 456,-112.5"/>
<text text-anchor="middle" x="511" y="-119.5" font-family="Helvetica,sans-Serif" font-size="10.00" fill="#000000">arrow/util/variant.h</text>
</g>
<!-- Node1&#45;&gt;Node28 -->
<g id="edge35" class="edge">
<title>Node1&#45;&gt;Node28</title>
<path fill="none" stroke="#191970" d="M843.9836,-170.1908C780.7156,-161.043 672.7482,-145.4291 580,-132 578.8919,-131.8396 577.7738,-131.6777 576.6479,-131.5146"/>
<polygon fill="#191970" stroke="#191970" points="576.7598,-127.9944 566.3614,-130.0247 575.7564,-134.9221 576.7598,-127.9944"/>
</g>
<!-- Node1&#45;&gt;Node29 -->
<g id="edge36" class="edge">
<title>Node1&#45;&gt;Node29</title>
<path fill="none" stroke="#191970" d="M843.7951,-172.6559C743.1589,-162.734 527.038,-141.4263 409.7151,-129.8592"/>
<polygon fill="#191970" stroke="#191970" points="410.009,-126.3713 399.7138,-128.8732 409.3221,-133.3376 410.009,-126.3713"/>
</g>
<!-- Node30 -->
<g id="node31" class="node">
<title>Node30</title>
<polygon fill="none" stroke="#bfbfbf" points="1259.5,-112.5 1259.5,-131.5 1392.5,-131.5 1392.5,-112.5 1259.5,-112.5"/>
<text text-anchor="middle" x="1326" y="-119.5" font-family="Helvetica,sans-Serif" font-size="10.00" fill="#000000">arrow/compute/kernel.h</text>
</g>
<!-- Node1&#45;&gt;Node30 -->
<g id="edge37" class="edge">
<title>Node1&#45;&gt;Node30</title>
<path fill="none" stroke="#191970" d="M952.2065,-170.9076C1027.3958,-161.0697 1163.73,-143.2316 1249.323,-132.0325"/>
<polygon fill="#191970" stroke="#191970" points="1249.783,-135.5022 1259.2444,-130.7344 1248.8748,-128.5614 1249.783,-135.5022"/>
</g>
<!-- Node31 -->
<g id="node32" class="node">
<title>Node31</title>
<polygon fill="none" stroke="#bfbfbf" points="720,-112.5 720,-131.5 772,-131.5 772,-112.5 720,-112.5"/>
<text text-anchor="middle" x="746" y="-119.5" font-family="Helvetica,sans-Serif" font-size="10.00" fill="#000000">cassert</text>
</g>
<!-- Node1&#45;&gt;Node31 -->
<g id="edge39" class="edge">
<title>Node1&#45;&gt;Node31</title>
<path fill="none" stroke="#191970" d="M871.8703,-168.3733C846.9232,-159.1822 809.1408,-145.2624 781.4794,-135.0713"/>
<polygon fill="#191970" stroke="#191970" points="782.3822,-131.674 771.7888,-131.5011 779.9622,-138.2424 782.3822,-131.674"/>
</g>
<!-- Node3 -->
<g id="node4" class="node">
<title>Node3</title>
<polygon fill="none" stroke="#bfbfbf" points="1653.5,-.5 1653.5,-19.5 1706.5,-19.5 1706.5,-.5 1653.5,-.5"/>
<text text-anchor="middle" x="1680" y="-7.5" font-family="Helvetica,sans-Serif" font-size="10.00" fill="#000000">cstddef</text>
</g>
<!-- Node2&#45;&gt;Node3 -->
<g id="edge3" class="edge">
<title>Node2&#45;&gt;Node3</title>
<path fill="none" stroke="#191970" d="M1651.9223,-56.2455C1656.6027,-48.5367 1663.2673,-37.5598 1668.9289,-28.2348"/>
<polygon fill="#191970" stroke="#191970" points="1671.9475,-30.007 1674.1455,-19.6427 1665.9639,-26.3741 1671.9475,-30.007"/>
</g>
<!-- Node2&#45;&gt;Node4 -->
<g id="edge4" class="edge">
<title>Node2&#45;&gt;Node4</title>
<path fill="none" stroke="#191970" d="M1593.2845,-57.1225C1590.1473,-56.7108 1587.0347,-56.3319 1584,-56 1290.1363,-23.8628 932.3896,-13.2926 823.7893,-10.7044"/>
<polygon fill="#191970" stroke="#191970" points="823.8592,-7.2051 813.7806,-10.4718 823.6965,-14.2032 823.8592,-7.2051"/>
</g>
<!-- Node5 -->
<g id="node6" class="node">
<title>Node5</title>
<polygon fill="none" stroke="#bfbfbf" points="1589,-.5 1589,-19.5 1635,-19.5 1635,-.5 1589,-.5"/>
<text text-anchor="middle" x="1612" y="-7.5" font-family="Helvetica,sans-Serif" font-size="10.00" fill="#000000">cstdio</text>
</g>
<!-- Node2&#45;&gt;Node5 -->
<g id="edge5" class="edge">
<title>Node2&#45;&gt;Node5</title>
<path fill="none" stroke="#191970" d="M1640.0777,-56.2455C1635.3973,-48.5367 1628.7327,-37.5598 1623.0711,-28.2348"/>
<polygon fill="#191970" stroke="#191970" points="1626.0361,-26.3741 1617.8545,-19.6427 1620.0525,-30.007 1626.0361,-26.3741"/>
</g>
<!-- Node7&#45;&gt;Node2 -->
<g id="edge8" class="edge">
<title>Node7&#45;&gt;Node2</title>
<path fill="none" stroke="#191970" d="M1640.2193,-112.2455C1641.1327,-104.9382 1642.4132,-94.6944 1643.5369,-85.7046"/>
<polygon fill="#191970" stroke="#191970" points="1647.0272,-85.9996 1644.7947,-75.6427 1640.0813,-85.1313 1647.0272,-85.9996"/>
</g>
<!-- Node8 -->
<g id="node9" class="node">
<title>Node8</title>
<polygon fill="none" stroke="#bfbfbf" points="1793.5,-56.5 1793.5,-75.5 1858.5,-75.5 1858.5,-56.5 1793.5,-56.5"/>
<text text-anchor="middle" x="1826" y="-63.5" font-family="Helvetica,sans-Serif" font-size="10.00" fill="#000000">functional</text>
</g>
<!-- Node7&#45;&gt;Node8 -->
<g id="edge9" class="edge">
<title>Node7&#45;&gt;Node8</title>
<path fill="none" stroke="#191970" d="M1671.1464,-112.3733C1702.5109,-102.9807 1750.3665,-88.6496 1784.5716,-78.4064"/>
<polygon fill="#191970" stroke="#191970" points="1785.6975,-81.7229 1794.273,-75.5011 1783.6893,-75.0171 1785.6975,-81.7229"/>
</g>
<!-- Node11 -->
<g id="node12" class="node">
<title>Node11</title>
<polygon fill="none" stroke="#bfbfbf" points="2115.5,-56.5 2115.5,-75.5 2184.5,-75.5 2184.5,-56.5 2115.5,-56.5"/>
<text text-anchor="middle" x="2150" y="-63.5" font-family="Helvetica,sans-Serif" font-size="10.00" fill="#000000">type_traits</text>
</g>
<!-- Node10&#45;&gt;Node11 -->
<g id="edge12" class="edge">
<title>Node10&#45;&gt;Node11</title>
<path fill="none" stroke="#191970" d="M2116.1417,-112.2455C2121.8444,-104.4564 2129.99,-93.3308 2136.8625,-83.9439"/>
<polygon fill="#191970" stroke="#191970" points="2139.8568,-85.7789 2142.9402,-75.6427 2134.2087,-81.6437 2139.8568,-85.7789"/>
</g>
<!-- Node12&#45;&gt;Node2 -->
<g id="edge16" class="edge">
<title>Node12&#45;&gt;Node2</title>
<path fill="none" stroke="#191970" d="M1126.6309,-117.4926C1226.0883,-110.7794 1413.2832,-96.8055 1583.1428,-76.0231"/>
<polygon fill="#191970" stroke="#191970" points="1583.7763,-79.4716 1593.2723,-74.773 1582.9188,-72.5243 1583.7763,-79.4716"/>
</g>
<!-- Node12&#45;&gt;Node6 -->
<g id="edge17" class="edge">
<title>Node12&#45;&gt;Node6</title>
<path fill="none" stroke="#191970" d="M985.3921,-112.8066C982.5594,-112.5188 979.7538,-112.2483 977,-112 684.644,-85.6412 607.4035,-102.2747 311.3557,-76.0601"/>
<polygon fill="#191970" stroke="#191970" points="311.4549,-72.5551 301.1828,-75.1501 310.8312,-79.5272 311.4549,-72.5551"/>
</g>
<!-- Node12&#45;&gt;Node9 -->
<g id="edge15" class="edge">
<title>Node12&#45;&gt;Node9</title>
<path fill="none" stroke="#191970" d="M1126.6973,-112.9404C1203.6853,-103.0747 1326.7601,-87.303 1408.7152,-76.8008"/>
<polygon fill="#191970" stroke="#191970" points="1409.2751,-80.2578 1418.749,-75.515 1408.3853,-73.3145 1409.2751,-80.2578"/>
</g>
<!-- Node13 -->
<g id="node14" class="node">
<title>Node13</title>
<g id="a_node14"><a xlink:href="../../dd/dc2/BasicOps_8h.html" target="_top" xlink:title="Framework/BasicOps.h">
<polygon fill="none" stroke="#000000" points="1265,-56.5 1265,-75.5 1393,-75.5 1393,-56.5 1265,-56.5"/>
<text text-anchor="middle" x="1329" y="-63.5" font-family="Helvetica,sans-Serif" font-size="10.00" fill="#000000">Framework/BasicOps.h</text>
</a>
</g>
</g>
<!-- Node12&#45;&gt;Node13 -->
<g id="edge14" class="edge">
<title>Node12&#45;&gt;Node13</title>
<path fill="none" stroke="#191970" d="M1102.6202,-112.4369C1149.6365,-102.7925 1222.2629,-87.8948 1272.5193,-77.5858"/>
<polygon fill="#191970" stroke="#191970" points="1273.4794,-80.9618 1282.5721,-75.5237 1272.0727,-74.1046 1273.4794,-80.9618"/>
</g>
<!-- Node14 -->
<g id="node15" class="node">
<title>Node14</title>
<polygon fill="none" stroke="#bfbfbf" points="319.5,-56.5 319.5,-75.5 420.5,-75.5 420.5,-56.5 319.5,-56.5"/>
<text text-anchor="middle" x="370" y="-63.5" font-family="Helvetica,sans-Serif" font-size="10.00" fill="#000000">arrow/type_fwd.h</text>
</g>
<!-- Node12&#45;&gt;Node14 -->
<g id="edge18" class="edge">
<title>Node12&#45;&gt;Node14</title>
<path fill="none" stroke="#191970" d="M985.3883,-112.848C982.5567,-112.5487 979.7523,-112.2645 977,-112 737.7962,-89.0101 673.7573,-103.6485 430.8921,-75.9869"/>
<polygon fill="#191970" stroke="#191970" points="431.0235,-72.479 420.6888,-74.8121 430.2227,-79.4331 431.0235,-72.479"/>
</g>
<!-- Node15 -->
<g id="node16" class="node">
<title>Node15</title>
<polygon fill="none" stroke="#bfbfbf" points="439,-56.5 439,-75.5 585,-75.5 585,-56.5 439,-56.5"/>
<text text-anchor="middle" x="512" y="-63.5" font-family="Helvetica,sans-Serif" font-size="10.00" fill="#000000">gandiva/gandiva_aliases.h</text>
</g>
<!-- Node12&#45;&gt;Node15 -->
<g id="edge19" class="edge">
<title>Node12&#45;&gt;Node15</title>
<path fill="none" stroke="#191970" d="M985.3781,-112.9462C982.5493,-112.6197 979.7483,-112.303 977,-112 810.2936,-93.619 765.6714,-94.316 595.368,-76.1227"/>
<polygon fill="#191970" stroke="#191970" points="595.6228,-72.63 585.306,-75.0415 594.8748,-79.59 595.6228,-72.63"/>
</g>
<!-- Node16 -->
<g id="node17" class="node">
<title>Node16</title>
<polygon fill="none" stroke="#bfbfbf" points="603,-56.5 603,-75.5 681,-75.5 681,-56.5 603,-56.5"/>
<text text-anchor="middle" x="642" y="-63.5" font-family="Helvetica,sans-Serif" font-size="10.00" fill="#000000">arrow/type.h</text>
</g>
<!-- Node12&#45;&gt;Node16 -->
<g id="edge20" class="edge">
<title>Node12&#45;&gt;Node16</title>
<path fill="none" stroke="#191970" d="M985.3651,-113.0564C982.5399,-112.6995 979.7432,-112.3463 977,-112 853.1218,-96.3631 819.121,-96.7907 691.4392,-75.9594"/>
<polygon fill="#191970" stroke="#191970" points="691.7014,-72.4556 681.2661,-74.2873 690.566,-79.3629 691.7014,-72.4556"/>
</g>
<!-- Node17 -->
<g id="node18" class="node">
<title>Node17</title>
<polygon fill="none" stroke="#bfbfbf" points="699.5,-56.5 699.5,-75.5 794.5,-75.5 794.5,-56.5 699.5,-56.5"/>
<text text-anchor="middle" x="747" y="-63.5" font-family="Helvetica,sans-Serif" font-size="10.00" fill="#000000">gandiva/arrow.h</text>
</g>
<!-- Node12&#45;&gt;Node17 -->
<g id="edge21" class="edge">
<title>Node12&#45;&gt;Node17</title>
<path fill="none" stroke="#191970" d="M1003.2321,-112.4369C948.0267,-102.432 861.6264,-86.7737 804.6589,-76.4495"/>
<polygon fill="#191970" stroke="#191970" points="805.193,-72.9894 794.7291,-74.6499 803.9447,-79.8772 805.193,-72.9894"/>
</g>
<!-- Node12&#45;&gt;Node18 -->
<g id="edge22" class="edge">
<title>Node12&#45;&gt;Node18</title>
<path fill="none" stroke="#191970" d="M985.3953,-112.7704C982.5617,-112.4926 979.755,-112.2341 977,-112 614.6054,-81.2094 518.0916,-119.4169 152.6362,-75.869"/>
<polygon fill="#191970" stroke="#191970" points="152.9215,-72.3782 142.5748,-74.6576 152.0847,-79.328 152.9215,-72.3782"/>
</g>
<!-- Node12&#45;&gt;Node19 -->
<g id="edge23" class="edge">
<title>Node12&#45;&gt;Node19</title>
<path fill="none" stroke="#191970" d="M1076.113,-112.3733C1094.8103,-103.4241 1122.8744,-89.9917 1143.9934,-79.8835"/>
<polygon fill="#191970" stroke="#191970" points="1145.6405,-82.9755 1153.1494,-75.5011 1142.6183,-76.6614 1145.6405,-82.9755"/>
</g>
<!-- Node20 -->
<g id="node21" class="node">
<title>Node20</title>
<polygon fill="none" stroke="#bfbfbf" points="813,-56.5 813,-75.5 905,-75.5 905,-56.5 813,-56.5"/>
<text text-anchor="middle" x="859" y="-63.5" font-family="Helvetica,sans-Serif" font-size="10.00" fill="#000000">gandiva/node.h</text>
</g>
<!-- Node12&#45;&gt;Node20 -->
<g id="edge24" class="edge">
<title>Node12&#45;&gt;Node20</title>
<path fill="none" stroke="#191970" d="M1022.1345,-112.3733C988.951,-102.9404 938.245,-88.5265 902.1806,-78.2747"/>
<polygon fill="#191970" stroke="#191970" points="902.9995,-74.8689 892.4236,-75.5011 901.0855,-81.6021 902.9995,-74.8689"/>
</g>
<!-- Node21 -->
<g id="node22" class="node">
<title>Node21</title>
<polygon fill="none" stroke="#bfbfbf" points="923.5,-56.5 923.5,-75.5 1012.5,-75.5 1012.5,-56.5 923.5,-56.5"/>
<text text-anchor="middle" x="968" y="-63.5" font-family="Helvetica,sans-Serif" font-size="10.00" fill="#000000">gandiva/filter.h</text>
</g>
<!-- Node12&#45;&gt;Node21 -->
<g id="edge25" class="edge">
<title>Node12&#45;&gt;Node21</title>
<path fill="none" stroke="#191970" d="M1040.6716,-112.2455C1027.1697,-103.6534 1007.2878,-91.0014 991.7314,-81.1018"/>
<polygon fill="#191970" stroke="#191970" points="993.4685,-78.0587 983.1528,-75.6427 989.7103,-83.9643 993.4685,-78.0587"/>
</g>
<!-- Node22 -->
<g id="node23" class="node">
<title>Node22</title>
<polygon fill="none" stroke="#bfbfbf" points="1030.5,-56.5 1030.5,-75.5 1081.5,-75.5 1081.5,-56.5 1030.5,-56.5"/>
<text text-anchor="middle" x="1056" y="-63.5" font-family="Helvetica,sans-Serif" font-size="10.00" fill="#000000">variant</text>
</g>
<!-- Node12&#45;&gt;Node22 -->
<g id="edge26" class="edge">
<title>Node12&#45;&gt;Node22</title>
<path fill="none" stroke="#191970" d="M1056,-112.2455C1056,-104.9382 1056,-94.6944 1056,-85.7046"/>
<polygon fill="#191970" stroke="#191970" points="1059.5001,-85.6426 1056,-75.6427 1052.5001,-85.6427 1059.5001,-85.6426"/>
</g>
<!-- Node23 -->
<g id="node24" class="node">
<title>Node23</title>
<polygon fill="none" stroke="#bfbfbf" points="1877,-56.5 1877,-75.5 1921,-75.5 1921,-56.5 1877,-56.5"/>
<text text-anchor="middle" x="1899" y="-63.5" font-family="Helvetica,sans-Serif" font-size="10.00" fill="#000000">string</text>
</g>
<!-- Node12&#45;&gt;Node23 -->
<g id="edge27" class="edge">
<title>Node12&#45;&gt;Node23</title>
<path fill="none" stroke="#191970" d="M1126.5744,-118.241C1309.0047,-108.4951 1787.0343,-82.7617 1866.5933,-75.1416"/>
<polygon fill="#191970" stroke="#191970" points="1867.3177,-78.5796 1876.8246,-73.9031 1866.4765,-71.6303 1867.3177,-78.5796"/>
</g>
<!-- Node24 -->
<g id="node25" class="node">
<title>Node24</title>
<polygon fill="none" stroke="#bfbfbf" points="1717,-56.5 1717,-75.5 1775,-75.5 1775,-56.5 1717,-56.5"/>
<text text-anchor="middle" x="1746" y="-63.5" font-family="Helvetica,sans-Serif" font-size="10.00" fill="#000000">memory</text>
</g>
<!-- Node12&#45;&gt;Node24 -->
<g id="edge28" class="edge">
<title>Node12&#45;&gt;Node24</title>
<path fill="none" stroke="#191970" d="M1126.7337,-117.7598C1276.9805,-108.6494 1620.6338,-87.2281 1706.6692,-75.7805"/>
<polygon fill="#191970" stroke="#191970" points="1707.2796,-79.2283 1716.6589,-74.3009 1706.2539,-72.3039 1707.2796,-79.2283"/>
</g>
<!-- Node25&#45;&gt;Node18 -->
<g id="edge30" class="edge">
<title>Node25&#45;&gt;Node18</title>
<path fill="none" stroke="#191970" d="M144.9423,-112.2455C137.4858,-104.2155 126.7366,-92.6394 117.8583,-83.0781"/>
<polygon fill="#191970" stroke="#191970" points="120.3232,-80.589 110.9539,-75.6427 115.1937,-85.3522 120.3232,-80.589"/>
</g>
<!-- Node26&#45;&gt;Node14 -->
<g id="edge32" class="edge">
<title>Node26&#45;&gt;Node14</title>
<path fill="none" stroke="#191970" d="M828.3432,-113.5716C823.4907,-113.0263 818.6732,-112.4971 814,-112 646.7927,-94.2122 601.689,-97.9511 430.7974,-76.0192"/>
<polygon fill="#191970" stroke="#191970" points="431.0676,-72.5251 420.701,-74.7126 430.1691,-79.4672 431.0676,-72.5251"/>
</g>
<!-- Node32&#45;&gt;Node13 -->
<g id="edge41" class="edge">
<title>Node32&#45;&gt;Node13</title>
<path fill="none" stroke="#191970" d="M1183.9972,-280.3482C1184.5481,-257.1769 1189.3607,-198.1002 1223,-168 1283.4736,-113.8887 1350.5864,-194.7832 1402,-132 1418.486,-111.8683 1389.5207,-92.3311 1363.3482,-79.8061"/>
<polygon fill="#191970" stroke="#191970" points="1364.4734,-76.4729 1353.9214,-75.5207 1361.5765,-82.8454 1364.4734,-76.4729"/>
</g>
<!-- Node32&#45;&gt;Node23 -->
<g id="edge65" class="edge">
<title>Node32&#45;&gt;Node23</title>
<path fill="none" stroke="#191970" d="M1243.7463,-289.0892C1353.481,-286.6217 1594.2077,-277.5105 1794,-244 1890.5353,-227.8084 1947.2295,-265.516 2007,-188 2038.555,-147.0764 1970.0767,-102.4328 1928.2653,-80.2182"/>
<polygon fill="#191970" stroke="#191970" points="1929.7809,-77.0617 1919.291,-75.5741 1926.5637,-83.2786 1929.7809,-77.0617"/>
</g>
<!-- Node32&#45;&gt;Node28 -->
<g id="edge64" class="edge">
<title>Node32&#45;&gt;Node28</title>
<path fill="none" stroke="#191970" d="M1145.8883,-280.4862C1030.6917,-251.7299 686.2476,-165.7468 558.9641,-133.9732"/>
<polygon fill="#191970" stroke="#191970" points="559.6598,-130.5395 549.1098,-131.5133 557.9643,-137.3311 559.6598,-130.5395"/>
</g>
<!-- Node32&#45;&gt;Node30 -->
<g id="edge61" class="edge">
<title>Node32&#45;&gt;Node30</title>
<path fill="none" stroke="#191970" d="M1181.0512,-280.2446C1174.9266,-257.8516 1163.4209,-202.0765 1189,-168 1199.1692,-154.4526 1236.7267,-142.3986 1269.9505,-134.0318"/>
<polygon fill="#191970" stroke="#191970" points="1271.2031,-137.3288 1280.0871,-131.556 1269.5422,-130.5287 1271.2031,-137.3288"/>
</g>
<!-- Node33 -->
<g id="node34" class="node">
<title>Node33</title>
<g id="a_node34"><a xlink:href="../../d5/d98/TableBuilder_8h.html" target="_top" xlink:title="Framework/TableBuilder.h">
<polygon fill="none" stroke="#000000" points="1643,-224.5 1643,-243.5 1785,-243.5 1785,-224.5 1643,-224.5"/>
<text text-anchor="middle" x="1714" y="-231.5" font-family="Helvetica,sans-Serif" font-size="10.00" fill="#000000">Framework/TableBuilder.h</text>
</a>
</g>
</g>
<!-- Node32&#45;&gt;Node33 -->
<g id="edge42" class="edge">
<title>Node32&#45;&gt;Node33</title>
<path fill="none" stroke="#191970" d="M1243.511,-283.712C1338.6062,-273.6643 1525.0186,-253.9678 1632.4501,-242.6166"/>
<polygon fill="#191970" stroke="#191970" points="1633.0176,-246.0762 1642.5944,-241.5447 1632.282,-239.115 1633.0176,-246.0762"/>
</g>
<!-- Node42 -->
<g id="node43" class="node">
<title>Node42</title>
<polygon fill="none" stroke="#bfbfbf" points="2054,-224.5 2054,-243.5 2140,-243.5 2140,-224.5 2054,-224.5"/>
<text text-anchor="middle" x="2097" y="-231.5" font-family="Helvetica,sans-Serif" font-size="10.00" fill="#000000">arrow/status.h</text>
</g>
<!-- Node32&#45;&gt;Node42 -->
<g id="edge62" class="edge">
<title>Node32&#45;&gt;Node42</title>
<path fill="none" stroke="#191970" d="M1243.618,-289.2542C1383.2578,-286.9716 1742.237,-277.996 2040,-244 2041.2634,-243.8558 2042.5411,-243.7013 2043.8288,-243.5381"/>
<polygon fill="#191970" stroke="#191970" points="2044.4025,-246.992 2053.8192,-242.1365 2043.4299,-240.0599 2044.4025,-246.992"/>
</g>
<!-- Node43 -->
<g id="node44" class="node">
<title>Node43</title>
<polygon fill="none" stroke="#bfbfbf" points="1021,-224.5 1021,-243.5 1137,-243.5 1137,-224.5 1021,-224.5"/>
<text text-anchor="middle" x="1079" y="-231.5" font-family="Helvetica,sans-Serif" font-size="10.00" fill="#000000">arrow/util/visibility.h</text>
</g>
<!-- Node32&#45;&gt;Node43 -->
<g id="edge63" class="edge">
<title>Node32&#45;&gt;Node43</title>
<path fill="none" stroke="#191970" d="M1165.7104,-280.2455C1149.2238,-271.4527 1124.7648,-258.4079 1106.0235,-248.4125"/>
<polygon fill="#191970" stroke="#191970" points="1107.5506,-245.2604 1097.08,-243.6427 1104.2565,-251.4368 1107.5506,-245.2604"/>
</g>
<!-- Node33&#45;&gt;Node1 -->
<g id="edge43" class="edge">
<title>Node33&#45;&gt;Node1</title>
<path fill="none" stroke="#191970" d="M1642.6571,-229.1039C1485.6901,-218.3317 1112.4411,-192.7165 962.2431,-182.4088"/>
<polygon fill="#191970" stroke="#191970" points="962.4646,-178.9159 952.2484,-181.7229 961.9853,-185.8995 962.4646,-178.9159"/>
</g>
<!-- Node33&#45;&gt;Node7 -->
<g id="edge48" class="edge">
<title>Node33&#45;&gt;Node7</title>
<path fill="none" stroke="#191970" d="M1713.0311,-224.2912C1711.2921,-210.7145 1706.6617,-185.7333 1695,-168 1686.9814,-155.8065 1674.7326,-145.2191 1663.7332,-137.2856"/>
<polygon fill="#191970" stroke="#191970" points="1665.5156,-134.2644 1655.2845,-131.5121 1661.5661,-140.0439 1665.5156,-134.2644"/>
</g>
<!-- Node33&#45;&gt;Node8 -->
<g id="edge56" class="edge">
<title>Node33&#45;&gt;Node8</title>
<path fill="none" stroke="#191970" d="M1720.3425,-224.4862C1738.3537,-197.4695 1790.0397,-119.9405 1813.7932,-84.3102"/>
<polygon fill="#191970" stroke="#191970" points="1816.8132,-86.0899 1819.4481,-75.8279 1810.9889,-82.2069 1816.8132,-86.0899"/>
</g>
<!-- Node33&#45;&gt;Node18 -->
<g id="edge54" class="edge">
<title>Node33&#45;&gt;Node18</title>
<path fill="none" stroke="#191970" d="M1642.6544,-232.5891C1409.496,-227.3043 672.1106,-205.0806 447,-132 428.8474,-126.1069 427.1649,-117.8553 409,-112 302.2264,-77.5825 267.5981,-94.3356 152.5218,-75.9647"/>
<polygon fill="#191970" stroke="#191970" points="153.059,-72.5061 142.6224,-74.3301 151.9186,-79.4125 153.059,-72.5061"/>
</g>
<!-- Node33&#45;&gt;Node23 -->
<g id="edge58" class="edge">
<title>Node33&#45;&gt;Node23</title>
<path fill="none" stroke="#191970" d="M1724.5619,-224.4995C1734.8848,-215.208 1751.0399,-200.6506 1765,-188 1806.6523,-150.2549 1855.4336,-105.7719 1881.1054,-82.3405"/>
<polygon fill="#191970" stroke="#191970" points="1883.5644,-84.8349 1888.5901,-75.5079 1878.8449,-79.6651 1883.5644,-84.8349"/>
</g>
<!-- Node33&#45;&gt;Node24 -->
<g id="edge59" class="edge">
<title>Node33&#45;&gt;Node24</title>
<path fill="none" stroke="#191970" d="M1715.8121,-224.4862C1720.8925,-197.8144 1735.3501,-121.9117 1742.2486,-85.695"/>
<polygon fill="#191970" stroke="#191970" points="1745.695,-86.3062 1744.128,-75.8279 1738.8186,-84.9963 1745.695,-86.3062"/>
</g>
<!-- Node34 -->
<g id="node35" class="node">
<title>Node34</title>
<g id="a_node35"><a xlink:href="../../db/d4f/StructToTuple_8h.html" target="_top" xlink:title="Framework/StructToTuple.h">
<polygon fill="none" stroke="#000000" points="2054.5,-168.5 2054.5,-187.5 2201.5,-187.5 2201.5,-168.5 2054.5,-168.5"/>
<text text-anchor="middle" x="2128" y="-175.5" font-family="Helvetica,sans-Serif" font-size="10.00" fill="#000000">Framework/StructToTuple.h</text>
</a>
</g>
</g>
<!-- Node33&#45;&gt;Node34 -->
<g id="edge44" class="edge">
<title>Node33&#45;&gt;Node34</title>
<path fill="none" stroke="#191970" d="M1784.6987,-224.4369C1857.6355,-214.571 1971.214,-199.2078 2047.544,-188.8829"/>
<polygon fill="#191970" stroke="#191970" points="2048.1523,-192.3326 2057.5929,-187.5237 2047.2139,-185.3958 2048.1523,-192.3326"/>
</g>
<!-- Node33&#45;&gt;Node35 -->
<g id="edge60" class="edge">
<title>Node33&#45;&gt;Node35</title>
<path fill="none" stroke="#191970" d="M1785.0488,-231.3432C1914.148,-225.9467 2177.083,-212.1232 2211,-188 2226.1865,-177.1987 2233.8415,-156.814 2237.597,-141.5445"/>
<polygon fill="#191970" stroke="#191970" points="2241.0679,-142.0455 2239.6942,-131.5401 2234.2169,-140.6092 2241.0679,-142.0455"/>
</g>
<!-- Node36 -->
<g id="node37" class="node">
<title>Node36</title>
<g id="a_node37"><a xlink:href="../../d7/dbe/VariantHelpers_8h.html" target="_top" xlink:title="Framework/VariantHelpers.h">
<polygon fill="none" stroke="#000000" points="1231.5,-168.5 1231.5,-187.5 1386.5,-187.5 1386.5,-168.5 1231.5,-168.5"/>
<text text-anchor="middle" x="1309" y="-175.5" font-family="Helvetica,sans-Serif" font-size="10.00" fill="#000000">Framework/VariantHelpers.h</text>
</a>
</g>
</g>
<!-- Node33&#45;&gt;Node36 -->
<g id="edge49" class="edge">
<title>Node33&#45;&gt;Node36</title>
<path fill="none" stroke="#191970" d="M1644.8382,-224.4369C1573.6326,-214.5912 1462.831,-199.2705 1388.1646,-188.9462"/>
<polygon fill="#191970" stroke="#191970" points="1388.2617,-185.4264 1377.8765,-187.5237 1387.3029,-192.3605 1388.2617,-185.4264"/>
</g>
<!-- Node37 -->
<g id="node38" class="node">
<title>Node37</title>
<polygon fill="none" stroke="#bfbfbf" points="1856,-168.5 1856,-187.5 1912,-187.5 1912,-168.5 1856,-168.5"/>
<text text-anchor="middle" x="1884" y="-175.5" font-family="Helvetica,sans-Serif" font-size="10.00" fill="#000000">sstream</text>
</g>
<!-- Node33&#45;&gt;Node37 -->
<g id="edge51" class="edge">
<title>Node33&#45;&gt;Node37</title>
<path fill="none" stroke="#191970" d="M1743.224,-224.3733C1771.6638,-215.0049 1815.0183,-200.7234 1846.0974,-190.4856"/>
<polygon fill="#191970" stroke="#191970" points="1847.3193,-193.7681 1855.7222,-187.315 1845.1292,-187.1196 1847.3193,-193.7681"/>
</g>
<!-- Node38 -->
<g id="node39" class="node">
<title>Node38</title>
<polygon fill="none" stroke="#bfbfbf" points="1930,-168.5 1930,-187.5 1998,-187.5 1998,-168.5 1930,-168.5"/>
<text text-anchor="middle" x="1964" y="-175.5" font-family="Helvetica,sans-Serif" font-size="10.00" fill="#000000">arrow/stl.h</text>
</g>
<!-- Node33&#45;&gt;Node38 -->
<g id="edge52" class="edge">
<title>Node33&#45;&gt;Node38</title>
<path fill="none" stroke="#191970" d="M1757.642,-224.4323C1797.4255,-215.6812 1858.0898,-202.2642 1919.8252,-188.2528"/>
<polygon fill="#191970" stroke="#191970" points="1920.7638,-191.6288 1929.7395,-185.9995 1919.2124,-184.8028 1920.7638,-191.6288"/>
</g>
<!-- Node39 -->
<g id="node40" class="node">
<title>Node39</title>
<polygon fill="none" stroke="#bfbfbf" points="1404.5,-168.5 1404.5,-187.5 1513.5,-187.5 1513.5,-168.5 1404.5,-168.5"/>
<text text-anchor="middle" x="1459" y="-175.5" font-family="Helvetica,sans-Serif" font-size="10.00" fill="#000000">arrow/type_traits.h</text>
</g>
<!-- Node33&#45;&gt;Node39 -->
<g id="edge53" class="edge">
<title>Node33&#45;&gt;Node39</title>
<path fill="none" stroke="#191970" d="M1670.4537,-224.4369C1626.7207,-214.8328 1559.2655,-200.0191 1512.3458,-189.7152"/>
<polygon fill="#191970" stroke="#191970" points="1512.8847,-186.2502 1502.3667,-187.5237 1511.3832,-193.0872 1512.8847,-186.2502"/>
</g>
<!-- Node40 -->
<g id="node41" class="node">
<title>Node40</title>
<polygon fill="none" stroke="#bfbfbf" points="1531.5,-168.5 1531.5,-187.5 1620.5,-187.5 1620.5,-168.5 1531.5,-168.5"/>
<text text-anchor="middle" x="1576" y="-175.5" font-family="Helvetica,sans-Serif" font-size="10.00" fill="#000000">arrow/builder.h</text>
</g>
<!-- Node33&#45;&gt;Node40 -->
<g id="edge55" class="edge">
<title>Node33&#45;&gt;Node40</title>
<path fill="none" stroke="#191970" d="M1690.277,-224.3733C1667.8263,-215.2629 1633.9261,-201.5062 1608.8745,-191.3404"/>
<polygon fill="#191970" stroke="#191970" points="1609.9957,-188.0182 1599.4135,-187.5011 1607.3635,-194.5045 1609.9957,-188.0182"/>
</g>
<!-- Node41 -->
<g id="node42" class="node">
<title>Node41</title>
<polygon fill="none" stroke="#bfbfbf" points="1638.5,-168.5 1638.5,-187.5 1685.5,-187.5 1685.5,-168.5 1638.5,-168.5"/>
<text text-anchor="middle" x="1662" y="-175.5" font-family="Helvetica,sans-Serif" font-size="10.00" fill="#000000">vector</text>
</g>
<!-- Node33&#45;&gt;Node41 -->
<g id="edge57" class="edge">
<title>Node33&#45;&gt;Node41</title>
<path fill="none" stroke="#191970" d="M1704.9423,-224.2455C1697.4858,-216.2155 1686.7366,-204.6394 1677.8583,-195.0781"/>
<polygon fill="#191970" stroke="#191970" points="1680.3232,-192.589 1670.9539,-187.6427 1675.1937,-197.3522 1680.3232,-192.589"/>
</g>
<!-- Node34&#45;&gt;Node10 -->
<g id="edge45" class="edge">
<title>Node34&#45;&gt;Node10</title>
<path fill="none" stroke="#191970" d="M2124.6905,-168.2455C2122.1567,-160.7776 2118.5823,-150.2427 2115.485,-141.1137"/>
<polygon fill="#191970" stroke="#191970" points="2118.7991,-139.9879 2112.2716,-131.6427 2112.1702,-142.237 2118.7991,-139.9879"/>
</g>
<!-- Node34&#45;&gt;Node11 -->
<g id="edge47" class="edge">
<title>Node34&#45;&gt;Node11</title>
<path fill="none" stroke="#191970" d="M2142.3737,-168.1853C2153.0705,-159.9414 2166.8409,-147.1035 2173,-132 2179.5521,-115.9327 2171.6076,-97.2218 2163.3176,-83.8342"/>
<polygon fill="#191970" stroke="#191970" points="2166.1951,-81.8413 2157.697,-75.5141 2160.3947,-85.7598 2166.1951,-81.8413"/>
</g>
<!-- Node34&#45;&gt;Node35 -->
<g id="edge46" class="edge">
<title>Node34&#45;&gt;Node35</title>
<path fill="none" stroke="#191970" d="M2147.4254,-168.3733C2165.4021,-159.4644 2192.3441,-146.1127 2212.709,-136.0203"/>
<polygon fill="#191970" stroke="#191970" points="2214.4222,-139.0776 2221.8281,-131.5011 2211.3139,-132.8055 2214.4222,-139.0776"/>
</g>
<!-- Node36&#45;&gt;Node9 -->
<g id="edge50" class="edge">
<title>Node36&#45;&gt;Node9</title>
<path fill="none" stroke="#191970" d="M1350.6065,-168.4572C1376.4262,-161.2194 1409.4366,-149.4864 1435,-132 1453.7674,-119.1623 1470.3438,-98.8978 1480.9177,-84.208"/>
<polygon fill="#191970" stroke="#191970" points="1483.8599,-86.1074 1486.6918,-75.8981 1478.1113,-82.1131 1483.8599,-86.1074"/>
</g>
</g>
</svg>
        <g id="navigator" transform="translate(0 0)" fill="#404254">
                <rect fill="#f2f5e9" fill-opacity="0.5" stroke="#606060" stroke-width=".5" x="0" y="0" width="60" height="60"/>
                <use id="zoomplus" xlink:href="#zoomPlus" x="17" y="9" onmousedown="handleZoom(evt,'in')"/>
                <use id="zoomminus" xlink:href="#zoomMin" x="42" y="9" onmousedown="handleZoom(evt,'out')"/>
                <use id="reset" xlink:href="#resetDef" x="30" y="36" onmousedown="handleReset()"/>
                <g id="arrowUp" xlink:href="#dirArrow" transform="translate(30 24)" onmousedown="handlePan(0,-1)">
                  <use xlink:href="#rim" fill="#404040">
                        <set attributeName="fill" to="#808080" begin="arrowUp.mouseover" end="arrowUp.mouseout"/>
                  </use>
                  <path fill="none" stroke="white" stroke-width="1.5" d="M0,-3.0v7 M-2.5,-0.5L0,-3.0L2.5,-0.5"/>
                </g>
                <g id="arrowRight" xlink:href="#dirArrow" transform="rotate(90) translate(36 -43)" onmousedown="handlePan(1,0)">
                  <use xlink:href="#rim" fill="#404040">
                        <set attributeName="fill" to="#808080" begin="arrowRight.mouseover" end="arrowRight.mouseout"/>
                  </use>
                  <path fill="none" stroke="white" stroke-width="1.5" d="M0,-3.0v7 M-2.5,-0.5L0,-3.0L2.5,-0.5"/>
                </g>
                <g id="arrowDown" xlink:href="#dirArrow" transform="rotate(180) translate(-30 -48)" onmousedown="handlePan(0,1)">
                  <use xlink:href="#rim" fill="#404040">
                        <set attributeName="fill" to="#808080" begin="arrowDown.mouseover" end="arrowDown.mouseout"/>
                  </use>
                  <path fill="none" stroke="white" stroke-width="1.5" d="M0,-3.0v7 M-2.5,-0.5L0,-3.0L2.5,-0.5"/>
                </g>
                <g id="arrowLeft" xlink:href="#dirArrow" transform="rotate(270) translate(-36 17)" onmousedown="handlePan(-1,0)">
                  <use xlink:href="#rim" fill="#404040">
                        <set attributeName="fill" to="#808080" begin="arrowLeft.mouseover" end="arrowLeft.mouseout"/>
                  </use>
                  <path fill="none" stroke="white" stroke-width="1.5" d="M0,-3.0v7 M-2.5,-0.5L0,-3.0L2.5,-0.5"/>
                </g>
        </g>
        <svg viewBox="0 0 15 15" width="100%" height="30px" preserveAspectRatio="xMaxYMin meet">
         <g id="arrow_out" transform="scale(0.3 0.3)">
          <a xlink:href="ASoAHelpers_8h__incl_org.svg" target="_base">
           <rect id="button" ry="5" rx="5" y="6" x="6" height="38" width="38"
                fill="#f2f5e9" fill-opacity="0.5" stroke="#606060" stroke-width="1.0"/>
           <path id="arrow"
             d="M 11.500037,31.436501 C 11.940474,20.09759 22.043105,11.32322 32.158766,21.979434 L 37.068811,17.246167 C 37.068811,17.246167 37.088388,32 37.088388,32 L 22.160133,31.978069 C 22.160133,31.978069 26.997745,27.140456 26.997745,27.140456 C 18.528582,18.264221 13.291696,25.230495 11.500037,31.436501 z"
             style="fill:#404040;"/>
          </a>
         </g>
        </svg>
</svg>
