<?xml version="1.0" encoding="UTF-8" standalone="no"?>
<!DOCTYPE svg PUBLIC "-//W3C//DTD SVG 1.1//EN"
 "http://www.w3.org/Graphics/SVG/1.1/DTD/svg11.dtd">
<!-- Generated by graphviz version 2.40.1 (20161225.0304)
 -->
<!-- Title: /home/travis/build/AliceO2Group/AliceO2/Detectors/MUON/MCH/Raw/ImplHelpers/DumpBuffer.h Pages: 1 -->
<svg width="972pt" height="161pt"
 viewBox="0.00 0.00 971.50 161.00" xmlns="http://www.w3.org/2000/svg" xmlns:xlink="http://www.w3.org/1999/xlink">
<g id="graph0" class="graph" transform="scale(1 1) rotate(0) translate(4 157)">
<title>/home/travis/build/AliceO2Group/AliceO2/Detectors/MUON/MCH/Raw/ImplHelpers/DumpBuffer.h</title>
<!-- Node17 -->
<g id="node1" class="node">
<title>Node17</title>
<polygon fill="#bfbfbf" stroke="#000000" points="412.5,-100.5 412.5,-152.5 562.5,-152.5 562.5,-100.5 412.5,-100.5"/>
<text text-anchor="start" x="420.5" y="-140.5" font-family="Helvetica,sans-Serif" font-size="10.00" fill="#000000">/home/travis/build</text>
<text text-anchor="start" x="420.5" y="-129.5" font-family="Helvetica,sans-Serif" font-size="10.00" fill="#000000">/AliceO2Group/AliceO2</text>
<text text-anchor="start" x="420.5" y="-118.5" font-family="Helvetica,sans-Serif" font-size="10.00" fill="#000000">/Detectors/MUON/MCH/Raw</text>
<text text-anchor="middle" x="487.5" y="-107.5" font-family="Helvetica,sans-Serif" font-size="10.00" fill="#000000">/ImplHelpers/DumpBuffer.h</text>
</g>
<!-- Node18 -->
<g id="node2" class="node">
<title>Node18</title>
<g id="a_node2"><a xlink:href="../../d5/d93/testUserLogicElinkDecoder_8cxx.html" target="_top" xlink:title="/home/travis/build\l/AliceO2Group/AliceO2\l/Detectors/MUON/MCH/Raw\l/Decoder/src/testUserLogicElink\lDecoder.cxx">
<polygon fill="none" stroke="#000000" points="0,-.5 0,-63.5 171,-63.5 171,-.5 0,-.5"/>
<text text-anchor="start" x="8" y="-51.5" font-family="Helvetica,sans-Serif" font-size="10.00" fill="#000000">/home/travis/build</text>
<text text-anchor="start" x="8" y="-40.5" font-family="Helvetica,sans-Serif" font-size="10.00" fill="#000000">/AliceO2Group/AliceO2</text>
<text text-anchor="start" x="8" y="-29.5" font-family="Helvetica,sans-Serif" font-size="10.00" fill="#000000">/Detectors/MUON/MCH/Raw</text>
<text text-anchor="start" x="8" y="-18.5" font-family="Helvetica,sans-Serif" font-size="10.00" fill="#000000">/Decoder/src/testUserLogicElink</text>
<text text-anchor="middle" x="85.5" y="-7.5" font-family="Helvetica,sans-Serif" font-size="10.00" fill="#000000">Decoder.cxx</text>
</a>
</g>
</g>
<!-- Node17&#45;&gt;Node18 -->
<g id="edge1" class="edge">
<title>Node17&#45;&gt;Node18</title>
<path fill="none" stroke="#191970" d="M402.3264,-112.0931C340.3412,-100.8991 254.6329,-83.9491 180.5,-64 177.3909,-63.1634 174.2351,-62.2805 171.0555,-61.3625"/>
<polygon fill="#191970" stroke="#191970" points="401.9912,-115.5888 412.452,-113.9087 403.2267,-108.6987 401.9912,-115.5888"/>
</g>
<!-- Node19 -->
<g id="node3" class="node">
<title>Node19</title>
<g id="a_node3"><a xlink:href="../../d8/dcb/testUserLogicEndpointDecoder_8cxx.html" target="_top" xlink:title="/home/travis/build\l/AliceO2Group/AliceO2\l/Detectors/MUON/MCH/Raw\l/Decoder/src/testUserLogicEndpoint\lDecoder.cxx">
<polygon fill="none" stroke="#000000" points="189.5,-.5 189.5,-63.5 379.5,-63.5 379.5,-.5 189.5,-.5"/>
<text text-anchor="start" x="197.5" y="-51.5" font-family="Helvetica,sans-Serif" font-size="10.00" fill="#000000">/home/travis/build</text>
<text text-anchor="start" x="197.5" y="-40.5" font-family="Helvetica,sans-Serif" font-size="10.00" fill="#000000">/AliceO2Group/AliceO2</text>
<text text-anchor="start" x="197.5" y="-29.5" font-family="Helvetica,sans-Serif" font-size="10.00" fill="#000000">/Detectors/MUON/MCH/Raw</text>
<text text-anchor="start" x="197.5" y="-18.5" font-family="Helvetica,sans-Serif" font-size="10.00" fill="#000000">/Decoder/src/testUserLogicEndpoint</text>
<text text-anchor="middle" x="284.5" y="-7.5" font-family="Helvetica,sans-Serif" font-size="10.00" fill="#000000">Decoder.cxx</text>
</a>
</g>
</g>
<!-- Node17&#45;&gt;Node19 -->
<g id="edge2" class="edge">
<title>Node17&#45;&gt;Node19</title>
<path fill="none" stroke="#191970" d="M422.3987,-96.1942C399.9897,-85.7625 374.8523,-74.0606 352.2382,-63.5333"/>
<polygon fill="#191970" stroke="#191970" points="420.949,-99.38 431.492,-100.4273 423.9033,-93.0339 420.949,-99.38"/>
</g>
<!-- Node20 -->
<g id="node4" class="node">
<title>Node20</title>
<g id="a_node4"><a xlink:href="../../d8/daf/testEncoder_8cxx.html" target="_top" xlink:title="/home/travis/build\l/AliceO2Group/AliceO2\l/Detectors/MUON/MCH/Raw\l/Encoder/Payload/testEncoder.cxx">
<polygon fill="none" stroke="#000000" points="397.5,-6 397.5,-58 577.5,-58 577.5,-6 397.5,-6"/>
<text text-anchor="start" x="405.5" y="-46" font-family="Helvetica,sans-Serif" font-size="10.00" fill="#000000">/home/travis/build</text>
<text text-anchor="start" x="405.5" y="-35" font-family="Helvetica,sans-Serif" font-size="10.00" fill="#000000">/AliceO2Group/AliceO2</text>
<text text-anchor="start" x="405.5" y="-24" font-family="Helvetica,sans-Serif" font-size="10.00" fill="#000000">/Detectors/MUON/MCH/Raw</text>
<text text-anchor="middle" x="487.5" y="-13" font-family="Helvetica,sans-Serif" font-size="10.00" fill="#000000">/Encoder/Payload/testEncoder.cxx</text>
</a>
</g>
</g>
<!-- Node17&#45;&gt;Node20 -->
<g id="edge3" class="edge">
<title>Node17&#45;&gt;Node20</title>
<path fill="none" stroke="#191970" d="M487.5,-90.1645C487.5,-79.5577 487.5,-68.1746 487.5,-58.3157"/>
<polygon fill="#191970" stroke="#191970" points="484.0001,-90.4273 487.5,-100.4273 491.0001,-90.4273 484.0001,-90.4273"/>
</g>
<!-- Node21 -->
<g id="node5" class="node">
<title>Node21</title>
<g id="a_node5"><a xlink:href="../../d5/dd6/testGBTEncoder_8cxx.html" target="_top" xlink:title="/home/travis/build\l/AliceO2Group/AliceO2\l/Detectors/MUON/MCH/Raw\l/Encoder/Payload/testGBTEncoder.cxx">
<polygon fill="none" stroke="#000000" points="595.5,-6 595.5,-58 795.5,-58 795.5,-6 595.5,-6"/>
<text text-anchor="start" x="603.5" y="-46" font-family="Helvetica,sans-Serif" font-size="10.00" fill="#000000">/home/travis/build</text>
<text text-anchor="start" x="603.5" y="-35" font-family="Helvetica,sans-Serif" font-size="10.00" fill="#000000">/AliceO2Group/AliceO2</text>
<text text-anchor="start" x="603.5" y="-24" font-family="Helvetica,sans-Serif" font-size="10.00" fill="#000000">/Detectors/MUON/MCH/Raw</text>
<text text-anchor="middle" x="695.5" y="-13" font-family="Helvetica,sans-Serif" font-size="10.00" fill="#000000">/Encoder/Payload/testGBTEncoder.cxx</text>
</a>
</g>
</g>
<!-- Node17&#45;&gt;Node21 -->
<g id="edge4" class="edge">
<title>Node17&#45;&gt;Node21</title>
<path fill="none" stroke="#191970" d="M554.2458,-96.1756C581.1969,-83.931 611.9941,-69.939 637.939,-58.1515"/>
<polygon fill="#191970" stroke="#191970" points="552.5442,-93.1043 544.8875,-100.4273 555.4397,-99.4774 552.5442,-93.1043"/>
</g>
<!-- Node22 -->
<g id="node6" class="node">
<title>Node22</title>
<g id="a_node6"><a xlink:href="../../d4/dbc/rawdump_8cxx.html" target="_top" xlink:title="/home/travis/build\l/AliceO2Group/AliceO2\l/Detectors/MUON/MCH/Raw\l/Tools/rawdump.cxx">
<polygon fill="none" stroke="#000000" points="813.5,-6 813.5,-58 963.5,-58 963.5,-6 813.5,-6"/>
<text text-anchor="start" x="821.5" y="-46" font-family="Helvetica,sans-Serif" font-size="10.00" fill="#000000">/home/travis/build</text>
<text text-anchor="start" x="821.5" y="-35" font-family="Helvetica,sans-Serif" font-size="10.00" fill="#000000">/AliceO2Group/AliceO2</text>
<text text-anchor="start" x="821.5" y="-24" font-family="Helvetica,sans-Serif" font-size="10.00" fill="#000000">/Detectors/MUON/MCH/Raw</text>
<text text-anchor="middle" x="888.5" y="-13" font-family="Helvetica,sans-Serif" font-size="10.00" fill="#000000">/Tools/rawdump.cxx</text>
</a>
</g>
</g>
<!-- Node17&#45;&gt;Node22 -->
<g id="edge5" class="edge">
<title>Node17&#45;&gt;Node22</title>
<path fill="none" stroke="#191970" d="M572.7488,-113.7188C637.1001,-103.104 727.2152,-86.1668 804.5,-64 810.6504,-62.236 816.9853,-60.2162 823.2879,-58.0678"/>
<polygon fill="#191970" stroke="#191970" points="571.9533,-110.3022 562.648,-115.3679 573.0813,-117.2108 571.9533,-110.3022"/>
</g>
</g>
</svg>
