<?xml version="1.0" encoding="UTF-8" standalone="no"?>
<!DOCTYPE svg PUBLIC "-//W3C//DTD SVG 1.1//EN"
 "http://www.w3.org/Graphics/SVG/1.1/DTD/svg11.dtd">
<!-- Generated by graphviz version 2.40.1 (20161225.0304)
 -->
<!-- Title: /home/travis/build/AliceO2Group/AliceO2/Framework/Core/include/Framework/ASoA.h Pages: 1 -->
<!--zoomable 229 -->
<svg id="main" version="1.1" xmlns="http://www.w3.org/2000/svg" xmlns:xlink="http://www.w3.org/1999/xlink" xml:space="preserve" onload="init(evt)">
<style type="text/css"><![CDATA[
.edge:hover path { stroke: red; }
.edge:hover polygon { stroke: red; fill: red; }
]]></style>
<script type="text/javascript"><![CDATA[
var edges = document.getElementsByTagName('g');
if (edges && edges.length) {
  for (var i=0;i<edges.length;i++) {
    if (edges[i].id.substr(0,4)=='edge') {
      edges[i].setAttribute('class','edge');
    }
  }
}
]]></script>
        <defs>
                <circle id="rim" cx="0" cy="0" r="7"/>
                <circle id="rim2" cx="0" cy="0" r="3.5"/>
                <g id="zoomPlus">
                        <use xlink:href="#rim" fill="#404040">
                                <set attributeName="fill" to="#808080" begin="zoomplus.mouseover" end="zoomplus.mouseout"/>
                        </use>
                        <path d="M-4,0h8M0,-4v8" fill="none" stroke="white" stroke-width="1.5" pointer-events="none"/>
                </g>
                <g id="zoomMin">
                        <use xlink:href="#rim" fill="#404040">
                                <set attributeName="fill" to="#808080" begin="zoomminus.mouseover" end="zoomminus.mouseout"/>
                        </use>
                        <path d="M-4,0h8" fill="none" stroke="white" stroke-width="1.5" pointer-events="none"/>
                </g>
                <g id="dirArrow">
                        <path fill="none" stroke="white" stroke-width="1.5" d="M0,-3.0v7 M-2.5,-0.5L0,-3.0L2.5,-0.5"/>
                </g>
               <g id="resetDef">
                       <use xlink:href="#rim2" fill="#404040">
                               <set attributeName="fill" to="#808080" begin="reset.mouseover" end="reset.mouseout"/>
                       </use>
               </g>
        </defs>

<script type="text/javascript">
var viewWidth = 1964;
var viewHeight = 229;
var sectionId = 'dynsection-0';
</script>
<script xlink:href="../../svgpan.js"/>
<svg id="graph" class="graph">
<g id="viewport">
<title>/home/travis/build/AliceO2Group/AliceO2/Framework/Core/include/Framework/ASoA.h</title>
<!-- Node0 -->
<g id="node1" class="node">
<title>Node0</title>
<polygon fill="#bfbfbf" stroke="#000000" points="1106,-168.5 1106,-220.5 1243,-220.5 1243,-168.5 1106,-168.5"/>
<text text-anchor="start" x="1114" y="-208.5" font-family="Helvetica,sans-Serif" font-size="10.00" fill="#000000">/home/travis/build</text>
<text text-anchor="start" x="1114" y="-197.5" font-family="Helvetica,sans-Serif" font-size="10.00" fill="#000000">/AliceO2Group/AliceO2</text>
<text text-anchor="start" x="1114" y="-186.5" font-family="Helvetica,sans-Serif" font-size="10.00" fill="#000000">/Framework/Core/include</text>
<text text-anchor="middle" x="1174.5" y="-175.5" font-family="Helvetica,sans-Serif" font-size="10.00" fill="#000000">/Framework/ASoA.h</text>
</g>
<!-- Node1 -->
<g id="node2" class="node">
<title>Node1</title>
<g id="a_node2"><a xlink:href="../../dd/dce/Pack_8h.html" target="_top" xlink:title="Framework/Pack.h">
<polygon fill="none" stroke="#000000" points="83,-56.5 83,-75.5 188,-75.5 188,-56.5 83,-56.5"/>
<text text-anchor="middle" x="135.5" y="-63.5" font-family="Helvetica,sans-Serif" font-size="10.00" fill="#000000">Framework/Pack.h</text>
</a>
</g>
</g>
<!-- Node0&#45;&gt;Node1 -->
<g id="edge1" class="edge">
<title>Node0&#45;&gt;Node1</title>
<path fill="none" stroke="#191970" d="M1105.9487,-191.7857C974.7562,-185.9136 679.3522,-169.4216 433.5,-132 343.3099,-118.272 239.6505,-93.1585 181.4288,-78.1821"/>
<polygon fill="#191970" stroke="#191970" points="182.0038,-74.7157 171.4458,-75.5988 180.2501,-81.4924 182.0038,-74.7157"/>
</g>
<!-- Node5 -->
<g id="node6" class="node">
<title>Node5</title>
<g id="a_node6"><a xlink:href="../../d1/d00/CheckTypes_8h.html" target="_top" xlink:title="Framework/CheckTypes.h">
<polygon fill="none" stroke="#000000" points="206.5,-56.5 206.5,-75.5 346.5,-75.5 346.5,-56.5 206.5,-56.5"/>
<text text-anchor="middle" x="276.5" y="-63.5" font-family="Helvetica,sans-Serif" font-size="10.00" fill="#000000">Framework/CheckTypes.h</text>
</a>
</g>
</g>
<!-- Node0&#45;&gt;Node5 -->
<g id="edge5" class="edge">
<title>Node0&#45;&gt;Node5</title>
<path fill="none" stroke="#191970" d="M1105.5351,-191.4839C986.7168,-185.4771 736.0749,-169.2467 527.5,-132 451.5603,-118.4389 364.9324,-93.4976 315.8765,-78.4628"/>
<polygon fill="#191970" stroke="#191970" points="316.8758,-75.1084 306.2884,-75.5034 314.8113,-81.7971 316.8758,-75.1084"/>
</g>
<!-- Node6 -->
<g id="node7" class="node">
<title>Node6</title>
<g id="a_node7"><a xlink:href="../../de/d9b/FunctionalHelpers_8h.html" target="_top" xlink:title="Framework/FunctionalHelpers.h">
<polygon fill="none" stroke="#000000" points="50.5,-112.5 50.5,-131.5 220.5,-131.5 220.5,-112.5 50.5,-112.5"/>
<text text-anchor="middle" x="135.5" y="-119.5" font-family="Helvetica,sans-Serif" font-size="10.00" fill="#000000">Framework/FunctionalHelpers.h</text>
</a>
</g>
</g>
<!-- Node0&#45;&gt;Node6 -->
<g id="edge6" class="edge">
<title>Node0&#45;&gt;Node6</title>
<path fill="none" stroke="#191970" d="M1105.9265,-189.715C925.6546,-177.1359 438.084,-143.1139 230.8127,-128.6508"/>
<polygon fill="#191970" stroke="#191970" points="230.7772,-125.1399 220.5578,-127.9352 230.2899,-132.1229 230.7772,-125.1399"/>
</g>
<!-- Node8 -->
<g id="node9" class="node">
<title>Node8</title>
<g id="a_node9"><a xlink:href="../../d9/de8/CompilerBuiltins_8h.html" target="_top" xlink:title="Framework/CompilerBuiltins.h">
<polygon fill="none" stroke="#000000" points="364.5,-56.5 364.5,-75.5 528.5,-75.5 528.5,-56.5 364.5,-56.5"/>
<text text-anchor="middle" x="446.5" y="-63.5" font-family="Helvetica,sans-Serif" font-size="10.00" fill="#000000">Framework/CompilerBuiltins.h</text>
</a>
</g>
</g>
<!-- Node0&#45;&gt;Node8 -->
<g id="edge9" class="edge">
<title>Node0&#45;&gt;Node8</title>
<path fill="none" stroke="#191970" d="M1105.8027,-190.2774C971.4215,-181.5224 678.4444,-159.8625 581.5,-132 540.4108,-120.1907 496.6074,-96.4554 470.402,-80.9018"/>
<polygon fill="#191970" stroke="#191970" points="471.9515,-77.7489 461.5813,-75.5789 468.3348,-83.7422 471.9515,-77.7489"/>
</g>
<!-- Node9 -->
<g id="node10" class="node">
<title>Node9</title>
<g id="a_node10"><a xlink:href="../../db/d31/Traits_8h.html" target="_top" xlink:title="Framework/Traits.h">
<polygon fill="none" stroke="#000000" points="1241,-112.5 1241,-131.5 1350,-131.5 1350,-112.5 1241,-112.5"/>
<text text-anchor="middle" x="1295.5" y="-119.5" font-family="Helvetica,sans-Serif" font-size="10.00" fill="#000000">Framework/Traits.h</text>
</a>
</g>
</g>
<!-- Node0&#45;&gt;Node9 -->
<g id="edge10" class="edge">
<title>Node0&#45;&gt;Node9</title>
<path fill="none" stroke="#191970" d="M1218.1838,-168.3258C1235.8983,-157.7118 1255.7022,-145.8458 1270.8321,-136.7804"/>
<polygon fill="#191970" stroke="#191970" points="1272.8089,-139.6761 1279.5881,-131.534 1269.2111,-133.6715 1272.8089,-139.6761"/>
</g>
<!-- Node11 -->
<g id="node12" class="node">
<title>Node11</title>
<g id="a_node12"><a xlink:href="../../d0/d91/Expressions_8h.html" target="_top" xlink:title="Framework/Expressions.h">
<polygon fill="none" stroke="#000000" points="811,-112.5 811,-131.5 952,-131.5 952,-112.5 811,-112.5"/>
<text text-anchor="middle" x="881.5" y="-119.5" font-family="Helvetica,sans-Serif" font-size="10.00" fill="#000000">Framework/Expressions.h</text>
</a>
</g>
</g>
<!-- Node0&#45;&gt;Node11 -->
<g id="edge12" class="edge">
<title>Node0&#45;&gt;Node11</title>
<path fill="none" stroke="#191970" d="M1105.8045,-177.502C1051.7985,-164.1387 977.92,-145.8582 929.9568,-133.9902"/>
<polygon fill="#191970" stroke="#191970" points="930.6798,-130.5636 920.1319,-131.5591 928.9984,-137.3587 930.6798,-130.5636"/>
</g>
<!-- Node17 -->
<g id="node18" class="node">
<title>Node17</title>
<polygon fill="none" stroke="#bfbfbf" points="1611,-56.5 1611,-75.5 1692,-75.5 1692,-56.5 1611,-56.5"/>
<text text-anchor="middle" x="1651.5" y="-63.5" font-family="Helvetica,sans-Serif" font-size="10.00" fill="#000000">arrow/table.h</text>
</g>
<!-- Node0&#45;&gt;Node17 -->
<g id="edge32" class="edge">
<title>Node0&#45;&gt;Node17</title>
<path fill="none" stroke="#191970" d="M1174.7706,-168.3878C1176.4674,-149.704 1182.0254,-125.5497 1198.5,-112 1265.8019,-56.6468 1497.2243,-86.8562 1600.7211,-75.9246"/>
<polygon fill="#191970" stroke="#191970" points="1601.4322,-79.363 1610.9199,-74.6476 1600.5625,-72.4172 1601.4322,-79.363"/>
</g>
<!-- Node18 -->
<g id="node19" class="node">
<title>Node18</title>
<polygon fill="none" stroke="#bfbfbf" points="1710,-56.5 1710,-75.5 1857,-75.5 1857,-56.5 1710,-56.5"/>
<text text-anchor="middle" x="1783.5" y="-63.5" font-family="Helvetica,sans-Serif" font-size="10.00" fill="#000000">gandiva/selection_vector.h</text>
</g>
<!-- Node0&#45;&gt;Node18 -->
<g id="edge37" class="edge">
<title>Node0&#45;&gt;Node18</title>
<path fill="none" stroke="#191970" d="M1185.5081,-168.1039C1194.9747,-149.0136 1210.5872,-124.4687 1232.5,-112 1320.6891,-61.8191 1581.5777,-84.8712 1699.4838,-76.0402"/>
<polygon fill="#191970" stroke="#191970" points="1700.0992,-79.5001 1709.76,-75.1506 1699.4954,-72.5262 1700.0992,-79.5001"/>
</g>
<!-- Node24 -->
<g id="node25" class="node">
<title>Node24</title>
<g id="a_node25"><a xlink:href="../../d1/dc1/ArrowCompatibility_8h.html" target="_top" xlink:title="Framework/ArrowCompatibility.h">
<polygon fill="none" stroke="#000000" points="970.5,-112.5 970.5,-131.5 1146.5,-131.5 1146.5,-112.5 970.5,-112.5"/>
<text text-anchor="middle" x="1058.5" y="-119.5" font-family="Helvetica,sans-Serif" font-size="10.00" fill="#000000">Framework/ArrowCompatibility.h</text>
</a>
</g>
</g>
<!-- Node0&#45;&gt;Node24 -->
<g id="edge28" class="edge">
<title>Node0&#45;&gt;Node24</title>
<path fill="none" stroke="#191970" d="M1132.6213,-168.3258C1115.7991,-157.8119 1097.0113,-146.0696 1082.5603,-137.0377"/>
<polygon fill="#191970" stroke="#191970" points="1084.0894,-133.866 1073.7544,-131.534 1080.3794,-139.802 1084.0894,-133.866"/>
</g>
<!-- Node25 -->
<g id="node26" class="node">
<title>Node25</title>
<g id="a_node26"><a xlink:href="../../d4/de7/ArrowTypes_8h.html" target="_top" xlink:title="Framework/ArrowTypes.h">
<polygon fill="none" stroke="#000000" points="591,-112.5 591,-131.5 730,-131.5 730,-112.5 591,-112.5"/>
<text text-anchor="middle" x="660.5" y="-119.5" font-family="Helvetica,sans-Serif" font-size="10.00" fill="#000000">Framework/ArrowTypes.h</text>
</a>
</g>
</g>
<!-- Node0&#45;&gt;Node25 -->
<g id="edge30" class="edge">
<title>Node0&#45;&gt;Node25</title>
<path fill="none" stroke="#191970" d="M1105.9791,-184.8351C1010.5869,-171.38 838.2453,-147.0711 738.188,-132.9579"/>
<polygon fill="#191970" stroke="#191970" points="738.5317,-129.4718 728.1408,-131.5408 737.554,-136.4032 738.5317,-129.4718"/>
</g>
<!-- Node26 -->
<g id="node27" class="node">
<title>Node26</title>
<polygon fill="none" stroke="#bfbfbf" points="1368.5,-112.5 1368.5,-131.5 1448.5,-131.5 1448.5,-112.5 1368.5,-112.5"/>
<text text-anchor="middle" x="1408.5" y="-119.5" font-family="Helvetica,sans-Serif" font-size="10.00" fill="#000000">arrow/array.h</text>
</g>
<!-- Node0&#45;&gt;Node26 -->
<g id="edge33" class="edge">
<title>Node0&#45;&gt;Node26</title>
<path fill="none" stroke="#191970" d="M1243.1266,-173.2375C1283.6311,-160.688 1333.5233,-145.2299 1367.8505,-134.5944"/>
<polygon fill="#191970" stroke="#191970" points="1369.0208,-137.896 1377.537,-131.5932 1366.9491,-131.2096 1369.0208,-137.896"/>
</g>
<!-- Node27 -->
<g id="node28" class="node">
<title>Node27</title>
<polygon fill="none" stroke="#bfbfbf" points="1466.5,-112.5 1466.5,-131.5 1576.5,-131.5 1576.5,-112.5 1466.5,-112.5"/>
<text text-anchor="middle" x="1521.5" y="-119.5" font-family="Helvetica,sans-Serif" font-size="10.00" fill="#000000">arrow/util/variant.h</text>
</g>
<!-- Node0&#45;&gt;Node27 -->
<g id="edge34" class="edge">
<title>Node0&#45;&gt;Node27</title>
<path fill="none" stroke="#191970" d="M1243.056,-180.1763C1308.3116,-166.5423 1405.2927,-146.2796 1465.8831,-133.6202"/>
<polygon fill="#191970" stroke="#191970" points="1466.9474,-136.9735 1476.0202,-131.5023 1465.5158,-130.1215 1466.9474,-136.9735"/>
</g>
<!-- Node28 -->
<g id="node29" class="node">
<title>Node28</title>
<polygon fill="none" stroke="#bfbfbf" points="1595,-112.5 1595,-131.5 1734,-131.5 1734,-112.5 1595,-112.5"/>
<text text-anchor="middle" x="1664.5" y="-119.5" font-family="Helvetica,sans-Serif" font-size="10.00" fill="#000000">arrow/compute/context.h</text>
</g>
<!-- Node0&#45;&gt;Node28 -->
<g id="edge35" class="edge">
<title>Node0&#45;&gt;Node28</title>
<path fill="none" stroke="#191970" d="M1243.1483,-184.3428C1334.6347,-170.8066 1495.9118,-146.9442 1590.1816,-132.9961"/>
<polygon fill="#191970" stroke="#191970" points="1590.8329,-136.4379 1600.2129,-131.5119 1589.8083,-129.5133 1590.8329,-136.4379"/>
</g>
<!-- Node29 -->
<g id="node30" class="node">
<title>Node29</title>
<polygon fill="none" stroke="#bfbfbf" points="1752,-112.5 1752,-131.5 1885,-131.5 1885,-112.5 1752,-112.5"/>
<text text-anchor="middle" x="1818.5" y="-119.5" font-family="Helvetica,sans-Serif" font-size="10.00" fill="#000000">arrow/compute/kernel.h</text>
</g>
<!-- Node0&#45;&gt;Node29 -->
<g id="edge36" class="edge">
<title>Node0&#45;&gt;Node29</title>
<path fill="none" stroke="#191970" d="M1243.3149,-187.4606C1348.48,-176.5877 1555.7622,-154.7044 1741.8843,-132.1773"/>
<polygon fill="#191970" stroke="#191970" points="1742.3484,-135.6468 1751.854,-130.9676 1741.5051,-128.6978 1742.3484,-135.6468"/>
</g>
<!-- Node30 -->
<g id="node31" class="node">
<title>Node30</title>
<polygon fill="none" stroke="#bfbfbf" points="1903.5,-112.5 1903.5,-131.5 1955.5,-131.5 1955.5,-112.5 1903.5,-112.5"/>
<text text-anchor="middle" x="1929.5" y="-119.5" font-family="Helvetica,sans-Serif" font-size="10.00" fill="#000000">cassert</text>
</g>
<!-- Node0&#45;&gt;Node30 -->
<g id="edge38" class="edge">
<title>Node0&#45;&gt;Node30</title>
<path fill="none" stroke="#191970" d="M1243.0831,-192.9142C1370.0343,-189.0293 1650.1103,-176.0135 1893.1696,-131.9337"/>
<polygon fill="#191970" stroke="#191970" points="1894.0512,-135.3304 1903.2551,-130.0827 1892.7876,-128.4454 1894.0512,-135.3304"/>
</g>
<!-- Node2 -->
<g id="node3" class="node">
<title>Node2</title>
<polygon fill="none" stroke="#bfbfbf" points="42,-.5 42,-19.5 95,-19.5 95,-.5 42,-.5"/>
<text text-anchor="middle" x="68.5" y="-7.5" font-family="Helvetica,sans-Serif" font-size="10.00" fill="#000000">cstddef</text>
</g>
<!-- Node1&#45;&gt;Node2 -->
<g id="edge2" class="edge">
<title>Node1&#45;&gt;Node2</title>
<path fill="none" stroke="#191970" d="M123.8295,-56.2455C113.9339,-47.9746 99.5373,-35.9416 87.9099,-26.2232"/>
<polygon fill="#191970" stroke="#191970" points="89.9542,-23.3703 80.0368,-19.6427 85.465,-28.7413 89.9542,-23.3703"/>
</g>
<!-- Node3 -->
<g id="node4" class="node">
<title>Node3</title>
<polygon fill="none" stroke="#bfbfbf" points="113,-.5 113,-19.5 158,-19.5 158,-.5 113,-.5"/>
<text text-anchor="middle" x="135.5" y="-7.5" font-family="Helvetica,sans-Serif" font-size="10.00" fill="#000000">utility</text>
</g>
<!-- Node1&#45;&gt;Node3 -->
<g id="edge3" class="edge">
<title>Node1&#45;&gt;Node3</title>
<path fill="none" stroke="#191970" d="M135.5,-56.2455C135.5,-48.9382 135.5,-38.6944 135.5,-29.7046"/>
<polygon fill="#191970" stroke="#191970" points="139.0001,-29.6426 135.5,-19.6427 132.0001,-29.6427 139.0001,-29.6426"/>
</g>
<!-- Node4 -->
<g id="node5" class="node">
<title>Node4</title>
<polygon fill="none" stroke="#bfbfbf" points="176.5,-.5 176.5,-19.5 222.5,-19.5 222.5,-.5 176.5,-.5"/>
<text text-anchor="middle" x="199.5" y="-7.5" font-family="Helvetica,sans-Serif" font-size="10.00" fill="#000000">cstdio</text>
</g>
<!-- Node1&#45;&gt;Node4 -->
<g id="edge4" class="edge">
<title>Node1&#45;&gt;Node4</title>
<path fill="none" stroke="#191970" d="M146.6479,-56.2455C156.0087,-48.0549 169.5858,-36.1749 180.6349,-26.5069"/>
<polygon fill="#191970" stroke="#191970" points="183.2588,-28.8618 188.4798,-19.6427 178.6492,-23.5937 183.2588,-28.8618"/>
</g>
<!-- Node6&#45;&gt;Node1 -->
<g id="edge7" class="edge">
<title>Node6&#45;&gt;Node1</title>
<path fill="none" stroke="#191970" d="M135.5,-112.2455C135.5,-104.9382 135.5,-94.6944 135.5,-85.7046"/>
<polygon fill="#191970" stroke="#191970" points="139.0001,-85.6426 135.5,-75.6427 132.0001,-85.6427 139.0001,-85.6426"/>
</g>
<!-- Node7 -->
<g id="node8" class="node">
<title>Node7</title>
<polygon fill="none" stroke="#bfbfbf" points="0,-56.5 0,-75.5 65,-75.5 65,-56.5 0,-56.5"/>
<text text-anchor="middle" x="32.5" y="-63.5" font-family="Helvetica,sans-Serif" font-size="10.00" fill="#000000">functional</text>
</g>
<!-- Node6&#45;&gt;Node7 -->
<g id="edge8" class="edge">
<title>Node6&#45;&gt;Node7</title>
<path fill="none" stroke="#191970" d="M117.5588,-112.2455C101.46,-103.4928 77.6121,-90.527 59.2609,-80.5496"/>
<polygon fill="#191970" stroke="#191970" points="60.6929,-77.3444 50.2356,-75.6427 57.3493,-83.4942 60.6929,-77.3444"/>
</g>
<!-- Node10 -->
<g id="node11" class="node">
<title>Node10</title>
<polygon fill="none" stroke="#bfbfbf" points="1875,-56.5 1875,-75.5 1944,-75.5 1944,-56.5 1875,-56.5"/>
<text text-anchor="middle" x="1909.5" y="-63.5" font-family="Helvetica,sans-Serif" font-size="10.00" fill="#000000">type_traits</text>
</g>
<!-- Node9&#45;&gt;Node10 -->
<g id="edge11" class="edge">
<title>Node9&#45;&gt;Node10</title>
<path fill="none" stroke="#191970" d="M1350.2718,-113.1317C1353.3904,-112.7235 1356.4829,-112.3422 1359.5,-112 1580.6734,-86.9135 1641.3568,-109.0216 1864.7833,-76.0577"/>
<polygon fill="#191970" stroke="#191970" points="1865.4847,-79.4918 1874.8568,-74.5507 1864.4489,-72.5688 1865.4847,-79.4918"/>
</g>
<!-- Node11&#45;&gt;Node1 -->
<g id="edge15" class="edge">
<title>Node11&#45;&gt;Node1</title>
<path fill="none" stroke="#191970" d="M810.9508,-117.0191C787.8617,-115.4016 762.0878,-113.6096 738.5,-112 501.3698,-95.8191 438.64,-103.0114 198.316,-75.9904"/>
<polygon fill="#191970" stroke="#191970" points="198.5494,-72.4945 188.219,-74.8468 197.7615,-79.45 198.5494,-72.4945"/>
</g>
<!-- Node11&#45;&gt;Node5 -->
<g id="edge16" class="edge">
<title>Node11&#45;&gt;Node5</title>
<path fill="none" stroke="#191970" d="M810.8002,-116.6905C711.7134,-109.0546 525.6466,-94.0075 356.766,-76.1019"/>
<polygon fill="#191970" stroke="#191970" points="357.0094,-72.6081 346.6948,-75.0285 356.2675,-79.5687 357.0094,-72.6081"/>
</g>
<!-- Node11&#45;&gt;Node8 -->
<g id="edge14" class="edge">
<title>Node11&#45;&gt;Node8</title>
<path fill="none" stroke="#191970" d="M810.6416,-112.878C734.1074,-103.0253 612.2292,-87.3352 530.8213,-76.8552"/>
<polygon fill="#191970" stroke="#191970" points="530.9697,-73.3455 520.6047,-75.5399 530.0759,-80.2882 530.9697,-73.3455"/>
</g>
<!-- Node12 -->
<g id="node13" class="node">
<title>Node12</title>
<g id="a_node13"><a xlink:href="../../dd/dc2/BasicOps_8h.html" target="_top" xlink:title="Framework/BasicOps.h">
<polygon fill="none" stroke="#000000" points="873.5,-56.5 873.5,-75.5 1001.5,-75.5 1001.5,-56.5 873.5,-56.5"/>
<text text-anchor="middle" x="937.5" y="-63.5" font-family="Helvetica,sans-Serif" font-size="10.00" fill="#000000">Framework/BasicOps.h</text>
</a>
</g>
</g>
<!-- Node11&#45;&gt;Node12 -->
<g id="edge13" class="edge">
<title>Node11&#45;&gt;Node12</title>
<path fill="none" stroke="#191970" d="M891.2545,-112.2455C899.3648,-104.1352 911.0925,-92.4075 920.7081,-82.7919"/>
<polygon fill="#191970" stroke="#191970" points="923.2611,-85.1887 927.8573,-75.6427 918.3113,-80.2389 923.2611,-85.1887"/>
</g>
<!-- Node13 -->
<g id="node14" class="node">
<title>Node13</title>
<polygon fill="none" stroke="#bfbfbf" points="547,-56.5 547,-75.5 648,-75.5 648,-56.5 547,-56.5"/>
<text text-anchor="middle" x="597.5" y="-63.5" font-family="Helvetica,sans-Serif" font-size="10.00" fill="#000000">arrow/type_fwd.h</text>
</g>
<!-- Node11&#45;&gt;Node13 -->
<g id="edge17" class="edge">
<title>Node11&#45;&gt;Node13</title>
<path fill="none" stroke="#191970" d="M833.0014,-112.4369C783.9885,-102.7724 708.2223,-87.8326 655.9293,-77.5213"/>
<polygon fill="#191970" stroke="#191970" points="656.2868,-74.0244 645.7986,-75.5237 654.9326,-80.8922 656.2868,-74.0244"/>
</g>
<!-- Node14 -->
<g id="node15" class="node">
<title>Node14</title>
<polygon fill="none" stroke="#bfbfbf" points="1019.5,-56.5 1019.5,-75.5 1165.5,-75.5 1165.5,-56.5 1019.5,-56.5"/>
<text text-anchor="middle" x="1092.5" y="-63.5" font-family="Helvetica,sans-Serif" font-size="10.00" fill="#000000">gandiva/gandiva_aliases.h</text>
</g>
<!-- Node11&#45;&gt;Node14 -->
<g id="edge18" class="edge">
<title>Node11&#45;&gt;Node14</title>
<path fill="none" stroke="#191970" d="M917.7722,-112.3733C953.4658,-102.9001 1008.0879,-88.4032 1046.7451,-78.1435"/>
<polygon fill="#191970" stroke="#191970" points="1047.9336,-81.4493 1056.7011,-75.5011 1046.1379,-74.6835 1047.9336,-81.4493"/>
</g>
<!-- Node15 -->
<g id="node16" class="node">
<title>Node15</title>
<polygon fill="none" stroke="#bfbfbf" points="1183.5,-56.5 1183.5,-75.5 1261.5,-75.5 1261.5,-56.5 1183.5,-56.5"/>
<text text-anchor="middle" x="1222.5" y="-63.5" font-family="Helvetica,sans-Serif" font-size="10.00" fill="#000000">arrow/type.h</text>
</g>
<!-- Node11&#45;&gt;Node15 -->
<g id="edge19" class="edge">
<title>Node11&#45;&gt;Node15</title>
<path fill="none" stroke="#191970" d="M948.2801,-112.4806C1005.5054,-104.1024 1090.3629,-91.1568 1173.6191,-76.0932"/>
<polygon fill="#191970" stroke="#191970" points="1174.2878,-79.5291 1183.499,-74.2942 1173.0337,-72.6424 1174.2878,-79.5291"/>
</g>
<!-- Node16 -->
<g id="node17" class="node">
<title>Node16</title>
<polygon fill="none" stroke="#bfbfbf" points="1280,-56.5 1280,-75.5 1375,-75.5 1375,-56.5 1280,-56.5"/>
<text text-anchor="middle" x="1327.5" y="-63.5" font-family="Helvetica,sans-Serif" font-size="10.00" fill="#000000">gandiva/arrow.h</text>
</g>
<!-- Node11&#45;&gt;Node16 -->
<g id="edge20" class="edge">
<title>Node11&#45;&gt;Node16</title>
<path fill="none" stroke="#191970" d="M952.1663,-113.1341C955.3204,-112.7487 958.4429,-112.3691 961.5,-112 1095.548,-95.8137 1131.9921,-95.9387 1269.844,-76.023"/>
<polygon fill="#191970" stroke="#191970" points="1270.555,-79.4565 1279.9473,-74.5539 1269.5477,-72.5293 1270.555,-79.4565"/>
</g>
<!-- Node11&#45;&gt;Node17 -->
<g id="edge21" class="edge">
<title>Node11&#45;&gt;Node17</title>
<path fill="none" stroke="#191970" d="M952.142,-112.9043C955.3027,-112.5811 958.4332,-112.2775 961.5,-112 1242.3469,-86.5904 1317.7628,-112.0145 1600.7782,-76.0564"/>
<polygon fill="#191970" stroke="#191970" points="1601.4619,-79.4974 1610.9342,-74.7512 1600.5696,-72.5545 1601.4619,-79.4974"/>
</g>
<!-- Node11&#45;&gt;Node18 -->
<g id="edge22" class="edge">
<title>Node11&#45;&gt;Node18</title>
<path fill="none" stroke="#191970" d="M952.1395,-112.8755C955.3008,-112.5601 958.4322,-112.266 961.5,-112 1286.1835,-83.8503 1371.6649,-103.5357 1699.5012,-76.1157"/>
<polygon fill="#191970" stroke="#191970" points="1700.0992,-79.5778 1709.769,-75.2482 1699.5099,-72.6026 1700.0992,-79.5778"/>
</g>
<!-- Node19 -->
<g id="node20" class="node">
<title>Node19</title>
<polygon fill="none" stroke="#bfbfbf" points="1393.5,-56.5 1393.5,-75.5 1485.5,-75.5 1485.5,-56.5 1393.5,-56.5"/>
<text text-anchor="middle" x="1439.5" y="-63.5" font-family="Helvetica,sans-Serif" font-size="10.00" fill="#000000">gandiva/node.h</text>
</g>
<!-- Node11&#45;&gt;Node19 -->
<g id="edge23" class="edge">
<title>Node11&#45;&gt;Node19</title>
<path fill="none" stroke="#191970" d="M952.1528,-113.015C955.3106,-112.6618 958.4375,-112.3216 961.5,-112 1145.9409,-92.6315 1195.7788,-100.6181 1383.4227,-76.0339"/>
<polygon fill="#191970" stroke="#191970" points="1383.8825,-79.5036 1393.3368,-74.7217 1382.9639,-72.5641 1383.8825,-79.5036"/>
</g>
<!-- Node20 -->
<g id="node21" class="node">
<title>Node20</title>
<polygon fill="none" stroke="#bfbfbf" points="1504,-56.5 1504,-75.5 1593,-75.5 1593,-56.5 1504,-56.5"/>
<text text-anchor="middle" x="1548.5" y="-63.5" font-family="Helvetica,sans-Serif" font-size="10.00" fill="#000000">gandiva/filter.h</text>
</g>
<!-- Node11&#45;&gt;Node20 -->
<g id="edge24" class="edge">
<title>Node11&#45;&gt;Node20</title>
<path fill="none" stroke="#191970" d="M952.1461,-112.9479C955.3056,-112.6129 958.4348,-112.2948 961.5,-112 1194.6065,-89.5769 1257.2287,-105.2251 1493.833,-75.9387"/>
<polygon fill="#191970" stroke="#191970" points="1494.2852,-79.4095 1503.7732,-74.6947 1493.4159,-72.4637 1494.2852,-79.4095"/>
</g>
<!-- Node21 -->
<g id="node22" class="node">
<title>Node21</title>
<polygon fill="none" stroke="#bfbfbf" points="666,-56.5 666,-75.5 717,-75.5 717,-56.5 666,-56.5"/>
<text text-anchor="middle" x="691.5" y="-63.5" font-family="Helvetica,sans-Serif" font-size="10.00" fill="#000000">variant</text>
</g>
<!-- Node11&#45;&gt;Node21 -->
<g id="edge25" class="edge">
<title>Node11&#45;&gt;Node21</title>
<path fill="none" stroke="#191970" d="M848.8378,-112.3733C814.8457,-102.3545 761.7893,-86.7168 726.8362,-76.4149"/>
<polygon fill="#191970" stroke="#191970" points="727.6318,-73.0006 717.0502,-73.5306 725.6528,-79.715 727.6318,-73.0006"/>
</g>
<!-- Node22 -->
<g id="node23" class="node">
<title>Node22</title>
<polygon fill="none" stroke="#bfbfbf" points="735.5,-56.5 735.5,-75.5 779.5,-75.5 779.5,-56.5 735.5,-56.5"/>
<text text-anchor="middle" x="757.5" y="-63.5" font-family="Helvetica,sans-Serif" font-size="10.00" fill="#000000">string</text>
</g>
<!-- Node11&#45;&gt;Node22 -->
<g id="edge26" class="edge">
<title>Node11&#45;&gt;Node22</title>
<path fill="none" stroke="#191970" d="M860.1836,-112.3733C840.2784,-103.3838 810.3564,-89.8706 787.94,-79.7471"/>
<polygon fill="#191970" stroke="#191970" points="789.0925,-76.4272 778.5382,-75.5011 786.2113,-82.8068 789.0925,-76.4272"/>
</g>
<!-- Node23 -->
<g id="node24" class="node">
<title>Node23</title>
<polygon fill="none" stroke="#bfbfbf" points="797.5,-56.5 797.5,-75.5 855.5,-75.5 855.5,-56.5 797.5,-56.5"/>
<text text-anchor="middle" x="826.5" y="-63.5" font-family="Helvetica,sans-Serif" font-size="10.00" fill="#000000">memory</text>
</g>
<!-- Node11&#45;&gt;Node23 -->
<g id="edge27" class="edge">
<title>Node11&#45;&gt;Node23</title>
<path fill="none" stroke="#191970" d="M871.9197,-112.2455C863.9542,-104.1352 852.4359,-92.4075 842.9921,-82.7919"/>
<polygon fill="#191970" stroke="#191970" points="845.4747,-80.3247 835.9705,-75.6427 840.4805,-85.2297 845.4747,-80.3247"/>
</g>
<!-- Node24&#45;&gt;Node17 -->
<g id="edge29" class="edge">
<title>Node24&#45;&gt;Node17</title>
<path fill="none" stroke="#191970" d="M1146.6745,-113.2642C1151.35,-112.8295 1155.9809,-112.4055 1160.5,-112 1353.5471,-94.6764 1405.6501,-103.4518 1600.9105,-76.0887"/>
<polygon fill="#191970" stroke="#191970" points="1601.5125,-79.5384 1610.9234,-74.6717 1600.5316,-72.6075 1601.5125,-79.5384"/>
</g>
<!-- Node25&#45;&gt;Node13 -->
<g id="edge31" class="edge">
<title>Node25&#45;&gt;Node13</title>
<path fill="none" stroke="#191970" d="M649.5262,-112.2455C640.3118,-104.0549 626.9468,-92.1749 616.0703,-82.5069"/>
<polygon fill="#191970" stroke="#191970" points="618.1474,-79.6704 608.348,-75.6427 613.4968,-84.9023 618.1474,-79.6704"/>
</g>
</g>
</svg>
        <g id="navigator" transform="translate(0 0)" fill="#404254">
                <rect fill="#f2f5e9" fill-opacity="0.5" stroke="#606060" stroke-width=".5" x="0" y="0" width="60" height="60"/>
                <use id="zoomplus" xlink:href="#zoomPlus" x="17" y="9" onmousedown="handleZoom(evt,'in')"/>
                <use id="zoomminus" xlink:href="#zoomMin" x="42" y="9" onmousedown="handleZoom(evt,'out')"/>
                <use id="reset" xlink:href="#resetDef" x="30" y="36" onmousedown="handleReset()"/>
                <g id="arrowUp" xlink:href="#dirArrow" transform="translate(30 24)" onmousedown="handlePan(0,-1)">
                  <use xlink:href="#rim" fill="#404040">
                        <set attributeName="fill" to="#808080" begin="arrowUp.mouseover" end="arrowUp.mouseout"/>
                  </use>
                  <path fill="none" stroke="white" stroke-width="1.5" d="M0,-3.0v7 M-2.5,-0.5L0,-3.0L2.5,-0.5"/>
                </g>
                <g id="arrowRight" xlink:href="#dirArrow" transform="rotate(90) translate(36 -43)" onmousedown="handlePan(1,0)">
                  <use xlink:href="#rim" fill="#404040">
                        <set attributeName="fill" to="#808080" begin="arrowRight.mouseover" end="arrowRight.mouseout"/>
                  </use>
                  <path fill="none" stroke="white" stroke-width="1.5" d="M0,-3.0v7 M-2.5,-0.5L0,-3.0L2.5,-0.5"/>
                </g>
                <g id="arrowDown" xlink:href="#dirArrow" transform="rotate(180) translate(-30 -48)" onmousedown="handlePan(0,1)">
                  <use xlink:href="#rim" fill="#404040">
                        <set attributeName="fill" to="#808080" begin="arrowDown.mouseover" end="arrowDown.mouseout"/>
                  </use>
                  <path fill="none" stroke="white" stroke-width="1.5" d="M0,-3.0v7 M-2.5,-0.5L0,-3.0L2.5,-0.5"/>
                </g>
                <g id="arrowLeft" xlink:href="#dirArrow" transform="rotate(270) translate(-36 17)" onmousedown="handlePan(-1,0)">
                  <use xlink:href="#rim" fill="#404040">
                        <set attributeName="fill" to="#808080" begin="arrowLeft.mouseover" end="arrowLeft.mouseout"/>
                  </use>
                  <path fill="none" stroke="white" stroke-width="1.5" d="M0,-3.0v7 M-2.5,-0.5L0,-3.0L2.5,-0.5"/>
                </g>
        </g>
        <svg viewBox="0 0 15 15" width="100%" height="30px" preserveAspectRatio="xMaxYMin meet">
         <g id="arrow_out" transform="scale(0.3 0.3)">
          <a xlink:href="ASoA_8h__incl_org.svg" target="_base">
           <rect id="button" ry="5" rx="5" y="6" x="6" height="38" width="38"
                fill="#f2f5e9" fill-opacity="0.5" stroke="#606060" stroke-width="1.0"/>
           <path id="arrow"
             d="M 11.500037,31.436501 C 11.940474,20.09759 22.043105,11.32322 32.158766,21.979434 L 37.068811,17.246167 C 37.068811,17.246167 37.088388,32 37.088388,32 L 22.160133,31.978069 C 22.160133,31.978069 26.997745,27.140456 26.997745,27.140456 C 18.528582,18.264221 13.291696,25.230495 11.500037,31.436501 z"
             style="fill:#404040;"/>
          </a>
         </g>
        </svg>
</svg>
