<?xml version="1.0" encoding="UTF-8" standalone="no"?>
<!DOCTYPE svg PUBLIC "-//W3C//DTD SVG 1.1//EN"
 "http://www.w3.org/Graphics/SVG/1.1/DTD/svg11.dtd">
<!-- Generated by graphviz version 2.40.1 (20161225.0304)
 -->
<!-- Title: /home/travis/build/AliceO2Group/AliceO2/Analysis/Core/src/TrackSelection.cxx Pages: 1 -->
<svg width="327pt" height="162pt"
 viewBox="0.00 0.00 327.00 162.00" xmlns="http://www.w3.org/2000/svg" xmlns:xlink="http://www.w3.org/1999/xlink">
<g id="graph0" class="graph" transform="scale(1 1) rotate(0) translate(4 158)">
<title>/home/travis/build/AliceO2Group/AliceO2/Analysis/Core/src/TrackSelection.cxx</title>
<!-- Node0 -->
<g id="node1" class="node">
<title>Node0</title>
<polygon fill="#bfbfbf" stroke="#000000" points="122,-112.5 122,-153.5 319,-153.5 319,-112.5 122,-112.5"/>
<text text-anchor="start" x="130" y="-141.5" font-family="Helvetica,sans-Serif" font-size="10.00" fill="#000000">/home/travis/build</text>
<text text-anchor="start" x="130" y="-130.5" font-family="Helvetica,sans-Serif" font-size="10.00" fill="#000000">/AliceO2Group/AliceO2</text>
<text text-anchor="middle" x="220.5" y="-119.5" font-family="Helvetica,sans-Serif" font-size="10.00" fill="#000000">/Analysis/Core/src/TrackSelection.cxx</text>
</g>
<!-- Node1 -->
<g id="node2" class="node">
<title>Node1</title>
<g id="a_node2"><a xlink:href="../../d7/dec/TrackSelection_8h.html" target="_top" xlink:title="Analysis/TrackSelection.h">
<polygon fill="none" stroke="#000000" points="94.5,-56.5 94.5,-75.5 234.5,-75.5 234.5,-56.5 94.5,-56.5"/>
<text text-anchor="middle" x="164.5" y="-63.5" font-family="Helvetica,sans-Serif" font-size="10.00" fill="#000000">Analysis/TrackSelection.h</text>
</a>
</g>
</g>
<!-- Node0&#45;&gt;Node1 -->
<g id="edge1" class="edge">
<title>Node0&#45;&gt;Node1</title>
<path fill="none" stroke="#191970" d="M203.0882,-112.168C195.3995,-102.9691 186.4617,-92.2756 179.1251,-83.4979"/>
<polygon fill="#191970" stroke="#191970" points="181.7734,-81.2087 172.6747,-75.7805 176.4024,-85.6979 181.7734,-81.2087"/>
</g>
<!-- Node5 -->
<g id="node6" class="node">
<title>Node5</title>
<polygon fill="none" stroke="#bfbfbf" points="253,-56.5 253,-75.5 302,-75.5 302,-56.5 253,-56.5"/>
<text text-anchor="middle" x="277.5" y="-63.5" font-family="Helvetica,sans-Serif" font-size="10.00" fill="#000000">TH1F.h</text>
</g>
<!-- Node0&#45;&gt;Node5 -->
<g id="edge5" class="edge">
<title>Node0&#45;&gt;Node5</title>
<path fill="none" stroke="#191970" d="M238.2227,-112.168C246.0487,-102.9691 255.1462,-92.2756 262.6138,-83.4979"/>
<polygon fill="#191970" stroke="#191970" points="265.3653,-85.665 269.1793,-75.7805 260.0337,-81.1291 265.3653,-85.665"/>
</g>
<!-- Node2 -->
<g id="node3" class="node">
<title>Node2</title>
<g id="a_node3"><a xlink:href="../../dd/da4/Logger_8h.html" target="_top" xlink:title="Framework/Logger.h">
<polygon fill="none" stroke="#000000" points="0,-.5 0,-19.5 115,-19.5 115,-.5 0,-.5"/>
<text text-anchor="middle" x="57.5" y="-7.5" font-family="Helvetica,sans-Serif" font-size="10.00" fill="#000000">Framework/Logger.h</text>
</a>
</g>
</g>
<!-- Node1&#45;&gt;Node2 -->
<g id="edge2" class="edge">
<title>Node1&#45;&gt;Node2</title>
<path fill="none" stroke="#191970" d="M145.862,-56.2455C129.0614,-47.4527 104.1366,-34.4079 85.0382,-24.4125"/>
<polygon fill="#191970" stroke="#191970" points="86.4073,-21.1787 75.9244,-19.6427 83.1614,-27.3807 86.4073,-21.1787"/>
</g>
<!-- Node3 -->
<g id="node4" class="node">
<title>Node3</title>
<polygon fill="none" stroke="#bfbfbf" points="133,-.5 133,-19.5 196,-19.5 196,-.5 133,-.5"/>
<text text-anchor="middle" x="164.5" y="-7.5" font-family="Helvetica,sans-Serif" font-size="10.00" fill="#000000">TObject.h</text>
</g>
<!-- Node1&#45;&gt;Node3 -->
<g id="edge3" class="edge">
<title>Node1&#45;&gt;Node3</title>
<path fill="none" stroke="#191970" d="M164.5,-56.2455C164.5,-48.9382 164.5,-38.6944 164.5,-29.7046"/>
<polygon fill="#191970" stroke="#191970" points="168.0001,-29.6426 164.5,-19.6427 161.0001,-29.6427 168.0001,-29.6426"/>
</g>
<!-- Node4 -->
<g id="node5" class="node">
<title>Node4</title>
<polygon fill="none" stroke="#bfbfbf" points="214.5,-.5 214.5,-19.5 246.5,-19.5 246.5,-.5 214.5,-.5"/>
<text text-anchor="middle" x="230.5" y="-7.5" font-family="Helvetica,sans-Serif" font-size="10.00" fill="#000000">set</text>
</g>
<!-- Node1&#45;&gt;Node4 -->
<g id="edge4" class="edge">
<title>Node1&#45;&gt;Node4</title>
<path fill="none" stroke="#191970" d="M175.9963,-56.2455C185.7442,-47.9746 199.9259,-35.9416 211.3798,-26.2232"/>
<polygon fill="#191970" stroke="#191970" points="213.7747,-28.7813 219.1354,-19.6427 209.2459,-23.4437 213.7747,-28.7813"/>
</g>
</g>
</svg>
