<?xml version="1.0" encoding="UTF-8" standalone="no"?>
<!DOCTYPE svg PUBLIC "-//W3C//DTD SVG 1.1//EN"
 "http://www.w3.org/Graphics/SVG/1.1/DTD/svg11.dtd">
<!-- Generated by graphviz version 2.40.1 (20161225.0304)
 -->
<!-- Title: o2::framework::OutputObjHeader Pages: 1 -->
<svg width="1129pt" height="1036pt"
 viewBox="0.00 0.00 1129.42 1036.00" xmlns="http://www.w3.org/2000/svg" xmlns:xlink="http://www.w3.org/1999/xlink">
<g id="graph0" class="graph" transform="scale(1 1) rotate(0) translate(4 1032)">
<title>o2::framework::OutputObjHeader</title>
<!-- Node2 -->
<g id="node1" class="node">
<title>Node2</title>
<polygon fill="#bfbfbf" stroke="#000000" points="799.9182,-.5 799.9182,-90.5 942.9182,-90.5 942.9182,-.5 799.9182,-.5"/>
<text text-anchor="start" x="807.9182" y="-78.5" font-family="Helvetica,sans-Serif" font-size="10.00" fill="#000000">o2::framework::OutputObj</text>
<text text-anchor="middle" x="871.4182" y="-67.5" font-family="Helvetica,sans-Serif" font-size="10.00" fill="#000000">Header</text>
<polyline fill="none" stroke="#000000" points="799.9182,-60.5 942.9182,-60.5 "/>
<text text-anchor="middle" x="871.4182" y="-48.5" font-family="Helvetica,sans-Serif" font-size="10.00" fill="#000000"> </text>
<polyline fill="none" stroke="#000000" points="799.9182,-41.5 942.9182,-41.5 "/>
<text text-anchor="start" x="807.9182" y="-29.5" font-family="Helvetica,sans-Serif" font-size="10.00" fill="#000000">+ OutputObjHeader()</text>
<text text-anchor="start" x="807.9182" y="-18.5" font-family="Helvetica,sans-Serif" font-size="10.00" fill="#000000">+ OutputObjHeader()</text>
<text text-anchor="start" x="807.9182" y="-7.5" font-family="Helvetica,sans-Serif" font-size="10.00" fill="#000000">+ OutputObjHeader()</text>
</g>
<!-- Node3 -->
<g id="node2" class="node">
<title>Node3</title>
<g id="a_node2"><a xlink:href="../../d8/dbd/structo2_1_1header_1_1BaseHeader.html" target="_top" xlink:title="the base header struct Every header type must begin (i.e. derive) with this. Don&#39;t use this struct di...">
<polygon fill="none" stroke="#000000" points="379.4182,-160.5 379.4182,-305.5 513.4182,-305.5 513.4182,-160.5 379.4182,-160.5"/>
<text text-anchor="middle" x="446.4182" y="-293.5" font-family="Helvetica,sans-Serif" font-size="10.00" fill="#000000">o2::header::BaseHeader</text>
<polyline fill="none" stroke="#000000" points="379.4182,-286.5 513.4182,-286.5 "/>
<text text-anchor="middle" x="446.4182" y="-274.5" font-family="Helvetica,sans-Serif" font-size="10.00" fill="#000000"> </text>
<polyline fill="none" stroke="#000000" points="379.4182,-267.5 513.4182,-267.5 "/>
<text text-anchor="start" x="387.4182" y="-255.5" font-family="Helvetica,sans-Serif" font-size="10.00" fill="#000000">+ BaseHeader()</text>
<text text-anchor="start" x="387.4182" y="-244.5" font-family="Helvetica,sans-Serif" font-size="10.00" fill="#000000">+ BaseHeader()</text>
<text text-anchor="start" x="387.4182" y="-233.5" font-family="Helvetica,sans-Serif" font-size="10.00" fill="#000000">+ BaseHeader()</text>
<text text-anchor="start" x="387.4182" y="-222.5" font-family="Helvetica,sans-Serif" font-size="10.00" fill="#000000">+ size()</text>
<text text-anchor="start" x="387.4182" y="-211.5" font-family="Helvetica,sans-Serif" font-size="10.00" fill="#000000">+ data()</text>
<text text-anchor="start" x="387.4182" y="-200.5" font-family="Helvetica,sans-Serif" font-size="10.00" fill="#000000">+ next()</text>
<text text-anchor="start" x="387.4182" y="-189.5" font-family="Helvetica,sans-Serif" font-size="10.00" fill="#000000">+ next()</text>
<text text-anchor="start" x="387.4182" y="-178.5" font-family="Helvetica,sans-Serif" font-size="10.00" fill="#000000">+ get()</text>
<text text-anchor="start" x="387.4182" y="-167.5" font-family="Helvetica,sans-Serif" font-size="10.00" fill="#000000">+ get()</text>
</a>
</g>
</g>
<!-- Node3&#45;&gt;Node2 -->
<g id="edge1" class="edge">
<title>Node3&#45;&gt;Node2</title>
<path fill="none" stroke="#191970" d="M523.1316,-199.1559C601.755,-164.4691 723.054,-110.9548 799.7781,-77.106"/>
<polygon fill="none" stroke="#191970" points="521.4972,-196.0514 513.7608,-203.2901 524.3227,-202.4558 521.4972,-196.0514"/>
</g>
<!-- Node4 -->
<g id="node3" class="node">
<title>Node4</title>
<g id="a_node3"><a xlink:href="../../d9/db3/structo2_1_1header_1_1Descriptor.html" target="_top" xlink:title="{o2::header::Descriptor\l\&lt; gSizeHeaderDescriptionString \&gt;\n||+ Descriptor()\l+ Descriptor()\l+ Descriptor()\l+ Descriptor()\l+ operator=()\l+ operator ItgType()\l+ runtimeInit()\l+ operator==()\l+ operator==()\l+ operator\&lt;()\l+ operator!=()\l+ operator!=()\l+ as()\l+ print()\l}">
<polygon fill="none" stroke="#000000" points="41.9182,-419.5 41.9182,-630.5 226.9182,-630.5 226.9182,-419.5 41.9182,-419.5"/>
<text text-anchor="start" x="49.9182" y="-618.5" font-family="Helvetica,sans-Serif" font-size="10.00" fill="#000000">o2::header::Descriptor</text>
<text text-anchor="middle" x="134.4182" y="-607.5" font-family="Helvetica,sans-Serif" font-size="10.00" fill="#000000">&lt; gSizeHeaderDescriptionString &gt;</text>
<polyline fill="none" stroke="#000000" points="41.9182,-600.5 226.9182,-600.5 "/>
<text text-anchor="middle" x="134.4182" y="-588.5" font-family="Helvetica,sans-Serif" font-size="10.00" fill="#000000"> </text>
<polyline fill="none" stroke="#000000" points="41.9182,-581.5 226.9182,-581.5 "/>
<text text-anchor="start" x="49.9182" y="-569.5" font-family="Helvetica,sans-Serif" font-size="10.00" fill="#000000">+ Descriptor()</text>
<text text-anchor="start" x="49.9182" y="-558.5" font-family="Helvetica,sans-Serif" font-size="10.00" fill="#000000">+ Descriptor()</text>
<text text-anchor="start" x="49.9182" y="-547.5" font-family="Helvetica,sans-Serif" font-size="10.00" fill="#000000">+ Descriptor()</text>
<text text-anchor="start" x="49.9182" y="-536.5" font-family="Helvetica,sans-Serif" font-size="10.00" fill="#000000">+ Descriptor()</text>
<text text-anchor="start" x="49.9182" y="-525.5" font-family="Helvetica,sans-Serif" font-size="10.00" fill="#000000">+ operator=()</text>
<text text-anchor="start" x="49.9182" y="-514.5" font-family="Helvetica,sans-Serif" font-size="10.00" fill="#000000">+ operator ItgType()</text>
<text text-anchor="start" x="49.9182" y="-503.5" font-family="Helvetica,sans-Serif" font-size="10.00" fill="#000000">+ runtimeInit()</text>
<text text-anchor="start" x="49.9182" y="-492.5" font-family="Helvetica,sans-Serif" font-size="10.00" fill="#000000">+ operator==()</text>
<text text-anchor="start" x="49.9182" y="-481.5" font-family="Helvetica,sans-Serif" font-size="10.00" fill="#000000">+ operator==()</text>
<text text-anchor="start" x="49.9182" y="-470.5" font-family="Helvetica,sans-Serif" font-size="10.00" fill="#000000">+ operator&lt;()</text>
<text text-anchor="start" x="49.9182" y="-459.5" font-family="Helvetica,sans-Serif" font-size="10.00" fill="#000000">+ operator!=()</text>
<text text-anchor="start" x="49.9182" y="-448.5" font-family="Helvetica,sans-Serif" font-size="10.00" fill="#000000">+ operator!=()</text>
<text text-anchor="start" x="49.9182" y="-437.5" font-family="Helvetica,sans-Serif" font-size="10.00" fill="#000000">+ as()</text>
<text text-anchor="start" x="49.9182" y="-426.5" font-family="Helvetica,sans-Serif" font-size="10.00" fill="#000000">+ print()</text>
</a>
</g>
</g>
<!-- Node4&#45;&gt;Node3 -->
<g id="edge2" class="edge">
<title>Node4&#45;&gt;Node3</title>
<path fill="none" stroke="#404040" d="M143.298,-419.2436C150.8731,-385.3432 164.4181,-349.9135 188.4182,-324 234.6687,-274.0623 309.9865,-251.5177 367.335,-241.3461"/>
<polygon fill="none" stroke="#404040" points="367.4456,-241.3277 372.7076,-236.3971 379.2829,-239.3579 374.0208,-244.2886 367.4456,-241.3277"/>
<text text-anchor="middle" x="221.4182" y="-360" font-family="Helvetica,sans-Serif" font-size="10.00" fill="#000000"> +description</text>
</g>
<!-- Node5 -->
<g id="node4" class="node">
<title>Node5</title>
<polygon fill="none" stroke="#bfbfbf" points="238.9182,-970.5 238.9182,-1027.5 277.9182,-1027.5 277.9182,-970.5 238.9182,-970.5"/>
<text text-anchor="middle" x="258.4182" y="-1015.5" font-family="Helvetica,sans-Serif" font-size="10.00" fill="#000000">Type</text>
<polyline fill="none" stroke="#bfbfbf" points="238.9182,-1008.5 277.9182,-1008.5 "/>
<text text-anchor="middle" x="258.4182" y="-996.5" font-family="Helvetica,sans-Serif" font-size="10.00" fill="#000000"> </text>
<polyline fill="none" stroke="#bfbfbf" points="238.9182,-989.5 277.9182,-989.5 "/>
<text text-anchor="middle" x="258.4182" y="-977.5" font-family="Helvetica,sans-Serif" font-size="10.00" fill="#000000"> </text>
</g>
<!-- Node5&#45;&gt;Node4 -->
<g id="edge3" class="edge">
<title>Node5&#45;&gt;Node4</title>
<path fill="none" stroke="#404040" d="M249.4648,-970.268C247.7028,-964.2566 245.9328,-957.9401 244.4182,-952 214.8918,-836.1956 219.5967,-804.3706 188.4182,-689 184.3364,-673.8958 179.6742,-658.1332 174.8381,-642.6085"/>
<polygon fill="none" stroke="#404040" points="174.7226,-642.2422 169.1029,-637.7234 171.1126,-630.798 176.7323,-635.3168 174.7226,-642.2422"/>
<text text-anchor="middle" x="244.9182" y="-792.5" font-family="Helvetica,sans-Serif" font-size="10.00" fill="#000000"> +itg</text>
</g>
<!-- Node9 -->
<g id="node8" class="node">
<title>Node9</title>
<g id="a_node8"><a xlink:href="../../d9/db3/structo2_1_1header_1_1Descriptor.html" target="_top" xlink:title="{o2::header::Descriptor\l\&lt; N, PrinterPolicy \&gt;\n||+ Descriptor()\l+ Descriptor()\l+ Descriptor()\l+ operator=()\l+ operator ItgType()\l+ Descriptor()\l+ runtimeInit()\l+ operator==()\l+ operator\&lt;()\l+ operator!=()\l+ operator==()\l+ operator!=()\l+ as()\l+ print()\l}">
<polygon fill="none" stroke="#000000" points="324.9182,-689.5 324.9182,-900.5 449.9182,-900.5 449.9182,-689.5 324.9182,-689.5"/>
<text text-anchor="start" x="332.9182" y="-888.5" font-family="Helvetica,sans-Serif" font-size="10.00" fill="#000000">o2::header::Descriptor</text>
<text text-anchor="middle" x="387.4182" y="-877.5" font-family="Helvetica,sans-Serif" font-size="10.00" fill="#000000">&lt; N, PrinterPolicy &gt;</text>
<polyline fill="none" stroke="#000000" points="324.9182,-870.5 449.9182,-870.5 "/>
<text text-anchor="middle" x="387.4182" y="-858.5" font-family="Helvetica,sans-Serif" font-size="10.00" fill="#000000"> </text>
<polyline fill="none" stroke="#000000" points="324.9182,-851.5 449.9182,-851.5 "/>
<text text-anchor="start" x="332.9182" y="-839.5" font-family="Helvetica,sans-Serif" font-size="10.00" fill="#000000">+ Descriptor()</text>
<text text-anchor="start" x="332.9182" y="-828.5" font-family="Helvetica,sans-Serif" font-size="10.00" fill="#000000">+ Descriptor()</text>
<text text-anchor="start" x="332.9182" y="-817.5" font-family="Helvetica,sans-Serif" font-size="10.00" fill="#000000">+ Descriptor()</text>
<text text-anchor="start" x="332.9182" y="-806.5" font-family="Helvetica,sans-Serif" font-size="10.00" fill="#000000">+ operator=()</text>
<text text-anchor="start" x="332.9182" y="-795.5" font-family="Helvetica,sans-Serif" font-size="10.00" fill="#000000">+ operator ItgType()</text>
<text text-anchor="start" x="332.9182" y="-784.5" font-family="Helvetica,sans-Serif" font-size="10.00" fill="#000000">+ Descriptor()</text>
<text text-anchor="start" x="332.9182" y="-773.5" font-family="Helvetica,sans-Serif" font-size="10.00" fill="#000000">+ runtimeInit()</text>
<text text-anchor="start" x="332.9182" y="-762.5" font-family="Helvetica,sans-Serif" font-size="10.00" fill="#000000">+ operator==()</text>
<text text-anchor="start" x="332.9182" y="-751.5" font-family="Helvetica,sans-Serif" font-size="10.00" fill="#000000">+ operator&lt;()</text>
<text text-anchor="start" x="332.9182" y="-740.5" font-family="Helvetica,sans-Serif" font-size="10.00" fill="#000000">+ operator!=()</text>
<text text-anchor="start" x="332.9182" y="-729.5" font-family="Helvetica,sans-Serif" font-size="10.00" fill="#000000">+ operator==()</text>
<text text-anchor="start" x="332.9182" y="-718.5" font-family="Helvetica,sans-Serif" font-size="10.00" fill="#000000">+ operator!=()</text>
<text text-anchor="start" x="332.9182" y="-707.5" font-family="Helvetica,sans-Serif" font-size="10.00" fill="#000000">+ as()</text>
<text text-anchor="start" x="332.9182" y="-696.5" font-family="Helvetica,sans-Serif" font-size="10.00" fill="#000000">+ print()</text>
</a>
</g>
</g>
<!-- Node5&#45;&gt;Node9 -->
<g id="edge8" class="edge">
<title>Node5&#45;&gt;Node9</title>
<path fill="none" stroke="#404040" d="M277.9695,-986.9838C290.5458,-978.4679 306.5158,-966.0835 317.4182,-952 326.9535,-939.6826 335.5104,-925.8614 343.0916,-911.6617"/>
<polygon fill="none" stroke="#404040" points="343.2149,-911.4216 342.3989,-904.2568 348.6988,-900.7479 349.5147,-907.9127 343.2149,-911.4216"/>
<text text-anchor="middle" x="350.9182" y="-933" font-family="Helvetica,sans-Serif" font-size="10.00" fill="#000000"> +itg</text>
</g>
<!-- Node11 -->
<g id="node10" class="node">
<title>Node11</title>
<g id="a_node10"><a xlink:href="../../d9/db3/structo2_1_1header_1_1Descriptor.html" target="_top" xlink:title="{o2::header::Descriptor\l\&lt; gSizeSerializationMethodString \&gt;\n||+ Descriptor()\l+ Descriptor()\l+ Descriptor()\l+ Descriptor()\l+ operator=()\l+ operator ItgType()\l+ runtimeInit()\l+ operator==()\l+ operator==()\l+ operator\&lt;()\l+ operator!=()\l+ operator!=()\l+ as()\l+ print()\l}">
<polygon fill="none" stroke="#000000" points="430.9182,-419.5 430.9182,-630.5 621.9182,-630.5 621.9182,-419.5 430.9182,-419.5"/>
<text text-anchor="start" x="438.9182" y="-618.5" font-family="Helvetica,sans-Serif" font-size="10.00" fill="#000000">o2::header::Descriptor</text>
<text text-anchor="middle" x="526.4182" y="-607.5" font-family="Helvetica,sans-Serif" font-size="10.00" fill="#000000">&lt; gSizeSerializationMethodString &gt;</text>
<polyline fill="none" stroke="#000000" points="430.9182,-600.5 621.9182,-600.5 "/>
<text text-anchor="middle" x="526.4182" y="-588.5" font-family="Helvetica,sans-Serif" font-size="10.00" fill="#000000"> </text>
<polyline fill="none" stroke="#000000" points="430.9182,-581.5 621.9182,-581.5 "/>
<text text-anchor="start" x="438.9182" y="-569.5" font-family="Helvetica,sans-Serif" font-size="10.00" fill="#000000">+ Descriptor()</text>
<text text-anchor="start" x="438.9182" y="-558.5" font-family="Helvetica,sans-Serif" font-size="10.00" fill="#000000">+ Descriptor()</text>
<text text-anchor="start" x="438.9182" y="-547.5" font-family="Helvetica,sans-Serif" font-size="10.00" fill="#000000">+ Descriptor()</text>
<text text-anchor="start" x="438.9182" y="-536.5" font-family="Helvetica,sans-Serif" font-size="10.00" fill="#000000">+ Descriptor()</text>
<text text-anchor="start" x="438.9182" y="-525.5" font-family="Helvetica,sans-Serif" font-size="10.00" fill="#000000">+ operator=()</text>
<text text-anchor="start" x="438.9182" y="-514.5" font-family="Helvetica,sans-Serif" font-size="10.00" fill="#000000">+ operator ItgType()</text>
<text text-anchor="start" x="438.9182" y="-503.5" font-family="Helvetica,sans-Serif" font-size="10.00" fill="#000000">+ runtimeInit()</text>
<text text-anchor="start" x="438.9182" y="-492.5" font-family="Helvetica,sans-Serif" font-size="10.00" fill="#000000">+ operator==()</text>
<text text-anchor="start" x="438.9182" y="-481.5" font-family="Helvetica,sans-Serif" font-size="10.00" fill="#000000">+ operator==()</text>
<text text-anchor="start" x="438.9182" y="-470.5" font-family="Helvetica,sans-Serif" font-size="10.00" fill="#000000">+ operator&lt;()</text>
<text text-anchor="start" x="438.9182" y="-459.5" font-family="Helvetica,sans-Serif" font-size="10.00" fill="#000000">+ operator!=()</text>
<text text-anchor="start" x="438.9182" y="-448.5" font-family="Helvetica,sans-Serif" font-size="10.00" fill="#000000">+ operator!=()</text>
<text text-anchor="start" x="438.9182" y="-437.5" font-family="Helvetica,sans-Serif" font-size="10.00" fill="#000000">+ as()</text>
<text text-anchor="start" x="438.9182" y="-426.5" font-family="Helvetica,sans-Serif" font-size="10.00" fill="#000000">+ print()</text>
</a>
</g>
</g>
<!-- Node5&#45;&gt;Node11 -->
<g id="edge15" class="edge">
<title>Node5&#45;&gt;Node11</title>
<path fill="none" stroke="#404040" d="M259.7419,-970.459C263.3249,-898.0832 274.0575,-711.5136 290.4182,-689 294.4941,-683.3914 385.8997,-646.9708 419.8293,-630.2784"/>
<polygon fill="none" stroke="#404040" points="420.1328,-630.1115 423.462,-623.7148 430.647,-624.3277 427.3178,-630.7243 420.1328,-630.1115"/>
<text text-anchor="middle" x="302.9182" y="-792.5" font-family="Helvetica,sans-Serif" font-size="10.00" fill="#000000"> +itg</text>
</g>
<!-- Node6 -->
<g id="node5" class="node">
<title>Node6</title>
<polygon fill="none" stroke="#bfbfbf" points="110.4182,-970.5 110.4182,-1027.5 148.4182,-1027.5 148.4182,-970.5 110.4182,-970.5"/>
<text text-anchor="middle" x="129.4182" y="-1015.5" font-family="Helvetica,sans-Serif" font-size="10.00" fill="#000000">char</text>
<polyline fill="none" stroke="#bfbfbf" points="110.4182,-1008.5 148.4182,-1008.5 "/>
<text text-anchor="middle" x="129.4182" y="-996.5" font-family="Helvetica,sans-Serif" font-size="10.00" fill="#000000"> </text>
<polyline fill="none" stroke="#bfbfbf" points="110.4182,-989.5 148.4182,-989.5 "/>
<text text-anchor="middle" x="129.4182" y="-977.5" font-family="Helvetica,sans-Serif" font-size="10.00" fill="#000000"> </text>
</g>
<!-- Node6&#45;&gt;Node3 -->
<g id="edge12" class="edge">
<title>Node6&#45;&gt;Node3</title>
<path fill="none" stroke="#404040" d="M113.3806,-970.2601C66.9334,-882.9346 -58.744,-614.7389 32.4182,-419 90.8386,-293.5628 263.9247,-252.6947 366.8685,-239.397"/>
<polygon fill="none" stroke="#404040" points="367.1509,-239.3626 372.6219,-234.6649 379.0624,-237.9082 373.5915,-242.6059 367.1509,-239.3626"/>
<text text-anchor="middle" x="42.4182" y="-657.5" font-family="Helvetica,sans-Serif" font-size="10.00" fill="#000000"> +magicString</text>
</g>
<!-- Node6&#45;&gt;Node4 -->
<g id="edge4" class="edge">
<title>Node6&#45;&gt;Node4</title>
<path fill="none" stroke="#404040" d="M123.1286,-970.4384C119.1734,-950.9791 114.4474,-924.5699 112.4182,-901 104.3364,-807.125 106.1406,-783.0129 112.4182,-689 113.415,-674.0726 114.9167,-658.4317 116.6766,-642.9852"/>
<polygon fill="none" stroke="#404040" points="116.7254,-642.573 113.4598,-636.1436 118.1386,-630.6565 121.4042,-637.0858 116.7254,-642.573"/>
<text text-anchor="middle" x="124.9182" y="-792.5" font-family="Helvetica,sans-Serif" font-size="10.00" fill="#000000"> +str</text>
</g>
<!-- Node6&#45;&gt;Node9 -->
<g id="edge9" class="edge">
<title>Node6&#45;&gt;Node9</title>
<path fill="none" stroke="#404040" d="M148.5698,-991.9527C183.5929,-978.3904 259.0792,-945.9736 310.4182,-901 312.4339,-899.2342 314.4272,-897.4065 316.3958,-895.5262"/>
<polygon fill="none" stroke="#404040" points="316.4195,-895.5023 317.7985,-888.4242 324.8624,-886.9748 323.4834,-894.0529 316.4195,-895.5023"/>
<text text-anchor="middle" x="296.9182" y="-933" font-family="Helvetica,sans-Serif" font-size="10.00" fill="#000000"> +str</text>
</g>
<!-- Node6&#45;&gt;Node11 -->
<g id="edge16" class="edge">
<title>Node6&#45;&gt;Node11</title>
<path fill="none" stroke="#404040" d="M131.8477,-970.4808C138.3263,-894.9348 155.77,-694.9886 159.4182,-689 219.4664,-590.4301 307.6102,-675.8973 419.5217,-631.0618"/>
<polygon fill="none" stroke="#404040" points="419.786,-630.9462 423.6804,-624.8771 430.7805,-626.1376 426.8861,-632.2068 419.786,-630.9462"/>
<text text-anchor="middle" x="171.9182" y="-792.5" font-family="Helvetica,sans-Serif" font-size="10.00" fill="#000000"> +str</text>
</g>
<!-- Node7 -->
<g id="node6" class="node">
<title>Node7</title>
<polygon fill="none" stroke="#bfbfbf" points="490.9182,-970.5 490.9182,-1027.5 519.9182,-1027.5 519.9182,-970.5 490.9182,-970.5"/>
<text text-anchor="middle" x="505.4182" y="-1015.5" font-family="Helvetica,sans-Serif" font-size="10.00" fill="#000000">int</text>
<polyline fill="none" stroke="#bfbfbf" points="490.9182,-1008.5 519.9182,-1008.5 "/>
<text text-anchor="middle" x="505.4182" y="-996.5" font-family="Helvetica,sans-Serif" font-size="10.00" fill="#000000"> </text>
<polyline fill="none" stroke="#bfbfbf" points="490.9182,-989.5 519.9182,-989.5 "/>
<text text-anchor="middle" x="505.4182" y="-977.5" font-family="Helvetica,sans-Serif" font-size="10.00" fill="#000000"> </text>
</g>
<!-- Node7&#45;&gt;Node4 -->
<g id="edge5" class="edge">
<title>Node7&#45;&gt;Node4</title>
<path fill="none" stroke="#404040" d="M505.8664,-970.4125C505.8134,-955.1186 505.279,-935.9871 503.4182,-919 502.7094,-912.5287 462.3325,-694.2019 458.4182,-689 399.129,-610.2068 332.0638,-672.0837 238.0124,-631.5449"/>
<polygon fill="none" stroke="#404040" points="237.8813,-631.4834 230.7505,-632.5569 227.0169,-626.3875 234.1477,-625.314 237.8813,-631.4834"/>
<text text-anchor="middle" x="529.4182" y="-803.5" font-family="Helvetica,sans-Serif" font-size="10.00" fill="#000000"> +arraySize</text>
<text text-anchor="middle" x="529.4182" y="-792.5" font-family="Helvetica,sans-Serif" font-size="10.00" fill="#000000">+size</text>
<text text-anchor="middle" x="529.4182" y="-781.5" font-family="Helvetica,sans-Serif" font-size="10.00" fill="#000000">+bitcount</text>
</g>
<!-- Node7&#45;&gt;Node9 -->
<g id="edge10" class="edge">
<title>Node7&#45;&gt;Node9</title>
<path fill="none" stroke="#404040" d="M490.7644,-998.095C464.9332,-995.6184 411.8198,-986.3832 388.4182,-952 380.3905,-940.2051 375.6038,-926.6698 373.0684,-912.599"/>
<polygon fill="none" stroke="#404040" points="373.0646,-912.5704 368.292,-907.1646 371.4464,-900.68 376.2189,-906.0858 373.0646,-912.5704"/>
<text text-anchor="middle" x="417.4182" y="-944" font-family="Helvetica,sans-Serif" font-size="10.00" fill="#000000"> +arraySize</text>
<text text-anchor="middle" x="417.4182" y="-933" font-family="Helvetica,sans-Serif" font-size="10.00" fill="#000000">+size</text>
<text text-anchor="middle" x="417.4182" y="-922" font-family="Helvetica,sans-Serif" font-size="10.00" fill="#000000">+bitcount</text>
</g>
<!-- Node7&#45;&gt;Node11 -->
<g id="edge17" class="edge">
<title>Node7&#45;&gt;Node11</title>
<path fill="none" stroke="#404040" d="M520.1312,-979.0925C522.7644,-975.9355 525.578,-972.7939 528.4182,-970 564.3502,-934.654 596.1163,-946.2003 618.4182,-901 660.1092,-816.5033 642.2415,-780.1607 618.4182,-689 614.2669,-673.1147 608.1959,-657.1413 601.1198,-641.7276"/>
<polygon fill="none" stroke="#404040" points="600.981,-641.4374 594.7834,-637.7509 595.8026,-630.6121 602.0002,-634.2986 600.981,-641.4374"/>
<text text-anchor="middle" x="673.4182" y="-803.5" font-family="Helvetica,sans-Serif" font-size="10.00" fill="#000000"> +arraySize</text>
<text text-anchor="middle" x="673.4182" y="-792.5" font-family="Helvetica,sans-Serif" font-size="10.00" fill="#000000">+size</text>
<text text-anchor="middle" x="673.4182" y="-781.5" font-family="Helvetica,sans-Serif" font-size="10.00" fill="#000000">+bitcount</text>
</g>
<!-- Node8 -->
<g id="node7" class="node">
<title>Node8</title>
<polygon fill="none" stroke="#bfbfbf" points="537.9182,-970.5 537.9182,-1027.5 644.9182,-1027.5 644.9182,-970.5 537.9182,-970.5"/>
<text text-anchor="middle" x="591.4182" y="-1015.5" font-family="Helvetica,sans-Serif" font-size="10.00" fill="#000000">anonymous:+@38</text>
<polyline fill="none" stroke="#bfbfbf" points="537.9182,-1008.5 644.9182,-1008.5 "/>
<text text-anchor="middle" x="591.4182" y="-996.5" font-family="Helvetica,sans-Serif" font-size="10.00" fill="#000000"> </text>
<polyline fill="none" stroke="#bfbfbf" points="537.9182,-989.5 644.9182,-989.5 "/>
<text text-anchor="middle" x="591.4182" y="-977.5" font-family="Helvetica,sans-Serif" font-size="10.00" fill="#000000"> </text>
</g>
<!-- Node8&#45;&gt;Node4 -->
<g id="edge6" class="edge">
<title>Node8&#45;&gt;Node4</title>
<path fill="none" stroke="#404040" d="M587.7676,-970.311C585.3903,-950.7964 582.3777,-924.3734 580.4182,-901 578.0755,-873.0549 586.2594,-668.8179 566.4182,-649 542.1402,-624.7503 304.8386,-643.4445 238.8344,-630.284"/>
<polygon fill="none" stroke="#404040" points="238.7291,-630.2529 231.8398,-632.3831 227.2237,-626.843 234.113,-624.7128 238.7291,-630.2529"/>
<text text-anchor="middle" x="597.4182" y="-792.5" font-family="Helvetica,sans-Serif" font-size="10.00" fill="#000000"> +@38</text>
</g>
<!-- Node8&#45;&gt;Node9 -->
<g id="edge11" class="edge">
<title>Node8&#45;&gt;Node9</title>
<path fill="none" stroke="#404040" d="M548.3328,-970.4396C522.4992,-952.2172 489.8393,-927.1687 464.4182,-901 462.2687,-898.7873 460.1309,-896.5115 458.0094,-894.1855"/>
<polygon fill="none" stroke="#404040" points="457.8467,-894.0007 450.8799,-892.1394 449.9185,-884.9926 456.8853,-886.8539 457.8467,-894.0007"/>
<text text-anchor="middle" x="538.4182" y="-933" font-family="Helvetica,sans-Serif" font-size="10.00" fill="#000000"> +@38</text>
</g>
<!-- Node8&#45;&gt;Node11 -->
<g id="edge18" class="edge">
<title>Node8&#45;&gt;Node11</title>
<path fill="none" stroke="#404040" d="M641.9324,-970.4395C666.2575,-953.6742 693.0041,-930.0552 706.4182,-901 745.9125,-815.4545 748.2027,-773.4505 706.4182,-689 689.1209,-654.0403 666.376,-658.0904 631.5923,-631.3641"/>
<polygon fill="none" stroke="#404040" points="631.2226,-631.0584 624.0496,-630.318 621.9742,-623.412 629.1472,-624.1524 631.2226,-631.0584"/>
<text text-anchor="middle" x="754.4182" y="-792.5" font-family="Helvetica,sans-Serif" font-size="10.00" fill="#000000"> +@38</text>
</g>
<!-- Node9&#45;&gt;Node4 -->
<g id="edge7" class="edge">
<title>Node9&#45;&gt;Node4</title>
<path fill="none" stroke="#ffa500" d="M316.8953,-693.8729C314.7759,-692.1728 312.6166,-690.5448 310.4182,-689 286.9419,-672.5024 272.1773,-687.0878 248.4182,-671 232.0417,-659.911 216.9543,-645.7239 203.4818,-630.5672"/>
<polygon fill="#ffa500" stroke="#ffa500" points="315.0149,-696.8738 324.8693,-700.7651 319.5924,-691.5778 315.0149,-696.8738"/>
<text text-anchor="start" x="248.4182" y="-663" font-family="Helvetica,sans-Serif" font-size="10.00" fill="#000000"> &lt; gSizeHeaderDescription</text>
<text text-anchor="middle" x="314.4182" y="-652" font-family="Helvetica,sans-Serif" font-size="10.00" fill="#000000">String &gt;</text>
</g>
<!-- Node9&#45;&gt;Node11 -->
<g id="edge19" class="edge">
<title>Node9&#45;&gt;Node11</title>
<path fill="none" stroke="#ffa500" d="M446.4248,-680.383C454.8729,-663.9731 463.5326,-647.1519 471.8893,-630.9196"/>
<polygon fill="#ffa500" stroke="#ffa500" points="443.2219,-678.9579 441.7565,-689.4509 449.4456,-682.162 443.2219,-678.9579"/>
<text text-anchor="start" x="461.4182" y="-663" font-family="Helvetica,sans-Serif" font-size="10.00" fill="#000000"> &lt; gSizeSerializationMethod</text>
<text text-anchor="middle" x="530.4182" y="-652" font-family="Helvetica,sans-Serif" font-size="10.00" fill="#000000">String &gt;</text>
</g>
<!-- Node10 -->
<g id="node9" class="node">
<title>Node10</title>
<polygon fill="none" stroke="#bfbfbf" points="639.9182,-496.5 639.9182,-553.5 746.9182,-553.5 746.9182,-496.5 639.9182,-496.5"/>
<text text-anchor="middle" x="693.4182" y="-541.5" font-family="Helvetica,sans-Serif" font-size="10.00" fill="#000000">anonymous:+@40</text>
<polyline fill="none" stroke="#bfbfbf" points="639.9182,-534.5 746.9182,-534.5 "/>
<text text-anchor="middle" x="693.4182" y="-522.5" font-family="Helvetica,sans-Serif" font-size="10.00" fill="#000000"> </text>
<polyline fill="none" stroke="#bfbfbf" points="639.9182,-515.5 746.9182,-515.5 "/>
<text text-anchor="middle" x="693.4182" y="-503.5" font-family="Helvetica,sans-Serif" font-size="10.00" fill="#000000"> </text>
</g>
<!-- Node10&#45;&gt;Node3 -->
<g id="edge13" class="edge">
<title>Node10&#45;&gt;Node3</title>
<path fill="none" stroke="#404040" d="M679.9713,-496.2933C659.6683,-454.9742 618.1216,-377.8004 567.4182,-324 554.2061,-309.9809 538.6418,-296.5304 523.1549,-284.472"/>
<polygon fill="none" stroke="#404040" points="523.09,-284.4225 515.8932,-283.9689 513.5439,-277.1512 520.7407,-277.6048 523.09,-284.4225"/>
<text text-anchor="middle" x="640.4182" y="-360" font-family="Helvetica,sans-Serif" font-size="10.00" fill="#000000"> +@40</text>
</g>
<!-- Node11&#45;&gt;Node3 -->
<g id="edge14" class="edge">
<title>Node11&#45;&gt;Node3</title>
<path fill="none" stroke="#404040" d="M497.4233,-419.1684C488.264,-385.7371 478.2699,-349.2587 469.575,-317.522"/>
<polygon fill="none" stroke="#404040" points="469.4815,-317.1805 464.0382,-312.4507 466.3106,-305.607 471.7539,-310.3368 469.4815,-317.1805"/>
<text text-anchor="middle" x="527.4182" y="-360" font-family="Helvetica,sans-Serif" font-size="10.00" fill="#000000"> +serialization</text>
</g>
<!-- Node12 -->
<g id="node11" class="node">
<title>Node12</title>
<g id="a_node11"><a xlink:href="../../d3/d87/classuint32__t.html" target="_top" xlink:title="{uint32_t\n||}">
<polygon fill="none" stroke="#000000" points="765.4182,-496.5 765.4182,-553.5 821.4182,-553.5 821.4182,-496.5 765.4182,-496.5"/>
<text text-anchor="middle" x="793.4182" y="-541.5" font-family="Helvetica,sans-Serif" font-size="10.00" fill="#000000">uint32_t</text>
<polyline fill="none" stroke="#000000" points="765.4182,-534.5 821.4182,-534.5 "/>
<text text-anchor="middle" x="793.4182" y="-522.5" font-family="Helvetica,sans-Serif" font-size="10.00" fill="#000000"> </text>
<polyline fill="none" stroke="#000000" points="765.4182,-515.5 821.4182,-515.5 "/>
<text text-anchor="middle" x="793.4182" y="-503.5" font-family="Helvetica,sans-Serif" font-size="10.00" fill="#000000"> </text>
</a>
</g>
</g>
<!-- Node12&#45;&gt;Node2 -->
<g id="edge24" class="edge">
<title>Node12&#45;&gt;Node2</title>
<path fill="none" stroke="#404040" d="M789.2497,-496.3129C781.197,-433.7154 767.2233,-280.8013 802.4182,-160 808.4149,-139.4174 819.0675,-118.781 830.2353,-100.8093"/>
<polygon fill="none" stroke="#404040" points="830.3412,-100.6449 830.2272,-93.4347 836.839,-90.5563 836.9529,-97.7665 830.3412,-100.6449"/>
<text text-anchor="middle" x="836.4182" y="-230.5" font-family="Helvetica,sans-Serif" font-size="10.00" fill="#000000"> +mTaskHash</text>
</g>
<!-- Node12&#45;&gt;Node3 -->
<g id="edge20" class="edge">
<title>Node12&#45;&gt;Node3</title>
<path fill="none" stroke="#404040" d="M790.4406,-496.2267C786.4475,-472.2879 777.1276,-439.0032 755.4182,-419 732.7427,-398.1065 711.0209,-421.9723 688.4182,-401 661.8341,-376.3334 686.2394,-350.44 661.4182,-324 625.3711,-285.6018 570.5263,-262.739 525.2533,-249.5335"/>
<polygon fill="none" stroke="#404040" points="525.2252,-249.5257 518.3709,-251.766 513.6667,-246.3005 520.521,-244.0603 525.2252,-249.5257"/>
<text text-anchor="middle" x="733.9182" y="-393" font-family="Helvetica,sans-Serif" font-size="10.00" fill="#000000"> +headerVersion</text>
<text text-anchor="middle" x="733.9182" y="-382" font-family="Helvetica,sans-Serif" font-size="10.00" fill="#000000">+headerSize</text>
<text text-anchor="middle" x="733.9182" y="-371" font-family="Helvetica,sans-Serif" font-size="10.00" fill="#000000">+sMagicString</text>
<text text-anchor="middle" x="733.9182" y="-360" font-family="Helvetica,sans-Serif" font-size="10.00" fill="#000000">+flagsNextHeader</text>
<text text-anchor="middle" x="733.9182" y="-349" font-family="Helvetica,sans-Serif" font-size="10.00" fill="#000000">+magicStringInt</text>
<text text-anchor="middle" x="733.9182" y="-338" font-family="Helvetica,sans-Serif" font-size="10.00" fill="#000000">+flagsUnused</text>
<text text-anchor="middle" x="733.9182" y="-327" font-family="Helvetica,sans-Serif" font-size="10.00" fill="#000000">+flags</text>
</g>
<!-- Node13 -->
<g id="node12" class="node">
<title>Node13</title>
<polygon fill="none" stroke="#bfbfbf" points="244.9182,-496.5 244.9182,-553.5 287.9182,-553.5 287.9182,-496.5 244.9182,-496.5"/>
<text text-anchor="middle" x="266.4182" y="-541.5" font-family="Helvetica,sans-Serif" font-size="10.00" fill="#000000">const</text>
<polyline fill="none" stroke="#bfbfbf" points="244.9182,-534.5 287.9182,-534.5 "/>
<text text-anchor="middle" x="266.4182" y="-522.5" font-family="Helvetica,sans-Serif" font-size="10.00" fill="#000000"> </text>
<polyline fill="none" stroke="#bfbfbf" points="244.9182,-515.5 287.9182,-515.5 "/>
<text text-anchor="middle" x="266.4182" y="-503.5" font-family="Helvetica,sans-Serif" font-size="10.00" fill="#000000"> </text>
</g>
<!-- Node13&#45;&gt;Node3 -->
<g id="edge21" class="edge">
<title>Node13&#45;&gt;Node3</title>
<path fill="none" stroke="#404040" d="M260.9874,-496.3782C254.722,-454.8214 249.2427,-376.9685 283.4182,-324 303.0657,-293.5485 336.6468,-272.3375 368.2413,-258.1043"/>
<polygon fill="none" stroke="#404040" points="368.2796,-258.0879 372.2167,-252.0465 379.3077,-253.3571 375.3706,-259.3986 368.2796,-258.0879"/>
<text text-anchor="middle" x="338.9182" y="-371" font-family="Helvetica,sans-Serif" font-size="10.00" fill="#000000"> +sHeaderType</text>
<text text-anchor="middle" x="338.9182" y="-360" font-family="Helvetica,sans-Serif" font-size="10.00" fill="#000000">+sSerializationMethod</text>
<text text-anchor="middle" x="338.9182" y="-349" font-family="Helvetica,sans-Serif" font-size="10.00" fill="#000000">+sVersion</text>
</g>
<!-- Node14 -->
<g id="node13" class="node">
<title>Node14</title>
<polygon fill="none" stroke="#bfbfbf" points="305.9182,-496.5 305.9182,-553.5 412.9182,-553.5 412.9182,-496.5 305.9182,-496.5"/>
<text text-anchor="middle" x="359.4182" y="-541.5" font-family="Helvetica,sans-Serif" font-size="10.00" fill="#000000">anonymous:+@42</text>
<polyline fill="none" stroke="#bfbfbf" points="305.9182,-534.5 412.9182,-534.5 "/>
<text text-anchor="middle" x="359.4182" y="-522.5" font-family="Helvetica,sans-Serif" font-size="10.00" fill="#000000"> </text>
<polyline fill="none" stroke="#bfbfbf" points="305.9182,-515.5 412.9182,-515.5 "/>
<text text-anchor="middle" x="359.4182" y="-503.5" font-family="Helvetica,sans-Serif" font-size="10.00" fill="#000000"> </text>
</g>
<!-- Node14&#45;&gt;Node3 -->
<g id="edge22" class="edge">
<title>Node14&#45;&gt;Node3</title>
<path fill="none" stroke="#404040" d="M367.9186,-496.4702C380.1644,-455.3693 403.2735,-377.8075 421.2605,-317.4374"/>
<polygon fill="none" stroke="#404040" points="421.3583,-317.1089 419.2381,-310.2165 424.7849,-305.6085 426.9051,-312.5009 421.3583,-317.1089"/>
<text text-anchor="middle" x="435.4182" y="-360" font-family="Helvetica,sans-Serif" font-size="10.00" fill="#000000"> +@42</text>
</g>
<!-- Node15 -->
<g id="node14" class="node">
<title>Node15</title>
<polygon fill="none" stroke="#bfbfbf" points="879.9182,-204.5 879.9182,-261.5 1018.9182,-261.5 1018.9182,-204.5 879.9182,-204.5"/>
<text text-anchor="middle" x="949.4182" y="-249.5" font-family="Helvetica,sans-Serif" font-size="10.00" fill="#000000">OutputObjHandlingPolicy</text>
<polyline fill="none" stroke="#bfbfbf" points="879.9182,-242.5 1018.9182,-242.5 "/>
<text text-anchor="middle" x="949.4182" y="-230.5" font-family="Helvetica,sans-Serif" font-size="10.00" fill="#000000"> </text>
<polyline fill="none" stroke="#bfbfbf" points="879.9182,-223.5 1018.9182,-223.5 "/>
<text text-anchor="middle" x="949.4182" y="-211.5" font-family="Helvetica,sans-Serif" font-size="10.00" fill="#000000"> </text>
</g>
<!-- Node15&#45;&gt;Node2 -->
<g id="edge23" class="edge">
<title>Node15&#45;&gt;Node2</title>
<path fill="none" stroke="#404040" d="M937.4017,-204.114C926.114,-176.9802 908.9113,-135.6275 894.9009,-101.9487"/>
<polygon fill="none" stroke="#404040" points="894.8943,-101.9326 888.8965,-97.9292 890.2851,-90.853 896.2829,-94.8564 894.8943,-101.9326"/>
<text text-anchor="middle" x="935.9182" y="-123" font-family="Helvetica,sans-Serif" font-size="10.00" fill="#000000"> +mPolicy</text>
</g>
<!-- Node16 -->
<g id="node15" class="node">
<title>Node16</title>
<polygon fill="none" stroke="#bfbfbf" points="1037.4182,-204.5 1037.4182,-261.5 1081.4182,-261.5 1081.4182,-204.5 1037.4182,-204.5"/>
<text text-anchor="middle" x="1059.4182" y="-249.5" font-family="Helvetica,sans-Serif" font-size="10.00" fill="#000000">static</text>
<polyline fill="none" stroke="#bfbfbf" points="1037.4182,-242.5 1081.4182,-242.5 "/>
<text text-anchor="middle" x="1059.4182" y="-230.5" font-family="Helvetica,sans-Serif" font-size="10.00" fill="#000000"> </text>
<polyline fill="none" stroke="#bfbfbf" points="1037.4182,-223.5 1081.4182,-223.5 "/>
<text text-anchor="middle" x="1059.4182" y="-211.5" font-family="Helvetica,sans-Serif" font-size="10.00" fill="#000000"> </text>
</g>
<!-- Node16&#45;&gt;Node2 -->
<g id="edge25" class="edge">
<title>Node16&#45;&gt;Node2</title>
<path fill="none" stroke="#404040" d="M1050.8879,-204.2538C1045.7971,-190.0588 1038.364,-173.1942 1028.4182,-160 1008.251,-133.2459 980.1031,-110.0178 953.2016,-91.6064"/>
<polygon fill="none" stroke="#404040" points="952.9572,-91.4436 945.7461,-91.4446 942.9716,-84.7886 950.1828,-84.7876 952.9572,-91.4436"/>
<text text-anchor="middle" x="1065.9182" y="-134" font-family="Helvetica,sans-Serif" font-size="10.00" fill="#000000"> +sHeaderType</text>
<text text-anchor="middle" x="1065.9182" y="-123" font-family="Helvetica,sans-Serif" font-size="10.00" fill="#000000">+sSerializationMethod</text>
<text text-anchor="middle" x="1065.9182" y="-112" font-family="Helvetica,sans-Serif" font-size="10.00" fill="#000000">+sVersion</text>
</g>
</g>
</svg>
