<?xml version="1.0" encoding="UTF-8" standalone="no"?>
<!DOCTYPE svg PUBLIC "-//W3C//DTD SVG 1.1//EN"
 "http://www.w3.org/Graphics/SVG/1.1/DTD/svg11.dtd">
<!-- Generated by graphviz version 2.40.1 (20161225.0304)
 -->
<!-- Title: /home/travis/build/AliceO2Group/AliceO2/GPU/GPUTracking/ctest/testGPUTracking.cxx Pages: 1 -->
<svg width="1671pt" height="464pt"
 viewBox="0.00 0.00 1670.76 464.00" xmlns="http://www.w3.org/2000/svg" xmlns:xlink="http://www.w3.org/1999/xlink">
<g id="graph0" class="graph" transform="scale(1 1) rotate(0) translate(4 460)">
<title>/home/travis/build/AliceO2Group/AliceO2/GPU/GPUTracking/ctest/testGPUTracking.cxx</title>
<!-- Node0 -->
<g id="node1" class="node">
<title>Node0</title>
<polygon fill="#bfbfbf" stroke="#000000" points="481,-403.5 481,-455.5 613,-455.5 613,-403.5 481,-403.5"/>
<text text-anchor="start" x="489" y="-443.5" font-family="Helvetica,sans-Serif" font-size="10.00" fill="#000000">/home/travis/build</text>
<text text-anchor="start" x="489" y="-432.5" font-family="Helvetica,sans-Serif" font-size="10.00" fill="#000000">/AliceO2Group/AliceO2</text>
<text text-anchor="start" x="489" y="-421.5" font-family="Helvetica,sans-Serif" font-size="10.00" fill="#000000">/GPU/GPUTracking/ctest</text>
<text text-anchor="middle" x="547" y="-410.5" font-family="Helvetica,sans-Serif" font-size="10.00" fill="#000000">/testGPUTracking.cxx</text>
</g>
<!-- Node1 -->
<g id="node2" class="node">
<title>Node1</title>
<polygon fill="none" stroke="#bfbfbf" points="191,-347.5 191,-366.5 323,-366.5 323,-347.5 191,-347.5"/>
<text text-anchor="middle" x="257" y="-354.5" font-family="Helvetica,sans-Serif" font-size="10.00" fill="#000000">boost/test/unit_test.hpp</text>
</g>
<!-- Node0&#45;&gt;Node1 -->
<g id="edge1" class="edge">
<title>Node0&#45;&gt;Node1</title>
<path fill="none" stroke="#191970" d="M480.8316,-412.9579C427.3003,-399.5751 353.1737,-381.0434 305.1537,-369.0384"/>
<polygon fill="#191970" stroke="#191970" points="305.8701,-365.6099 295.3198,-366.5799 304.1723,-372.4009 305.8701,-365.6099"/>
</g>
<!-- Node2 -->
<g id="node3" class="node">
<title>Node2</title>
<g id="a_node3"><a xlink:href="../../d4/db1/TPCFastTransform_8h.html" target="_top" xlink:title="Definition of TPCFastTransform class. ">
<polygon fill="none" stroke="#000000" points="341.5,-347.5 341.5,-366.5 454.5,-366.5 454.5,-347.5 341.5,-347.5"/>
<text text-anchor="middle" x="398" y="-354.5" font-family="Helvetica,sans-Serif" font-size="10.00" fill="#000000">TPCFastTransform.h</text>
</a>
</g>
</g>
<!-- Node0&#45;&gt;Node2 -->
<g id="edge2" class="edge">
<title>Node0&#45;&gt;Node2</title>
<path fill="none" stroke="#191970" d="M493.2076,-403.3258C470.7765,-392.4114 445.6248,-380.1731 426.8084,-371.0175"/>
<polygon fill="#191970" stroke="#191970" points="428.1174,-367.7622 417.594,-366.534 425.0547,-374.0566 428.1174,-367.7622"/>
</g>
<!-- Node25 -->
<g id="node26" class="node">
<title>Node25</title>
<g id="a_node26"><a xlink:href="../../dc/dae/GPUO2Interface_8h.html" target="_top" xlink:title="GPUO2Interface.h">
<polygon fill="none" stroke="#000000" points="451,-179.5 451,-198.5 555,-198.5 555,-179.5 451,-179.5"/>
<text text-anchor="middle" x="503" y="-186.5" font-family="Helvetica,sans-Serif" font-size="10.00" fill="#000000">GPUO2Interface.h</text>
</a>
</g>
</g>
<!-- Node0&#45;&gt;Node25 -->
<g id="edge35" class="edge">
<title>Node0&#45;&gt;Node25</title>
<path fill="none" stroke="#191970" d="M542.2075,-403.3045C533.3339,-354.8023 514.5307,-252.0256 506.6235,-208.8056"/>
<polygon fill="#191970" stroke="#191970" points="510.0221,-207.9338 504.7796,-198.7269 503.1364,-209.1936 510.0221,-207.9338"/>
</g>
<!-- Node27 -->
<g id="node28" class="node">
<title>Node27</title>
<g id="a_node28"><a xlink:href="../../d8/de7/GPUO2InterfaceConfiguration_8h.html" target="_top" xlink:title="GPUO2InterfaceConfiguration.h">
<polygon fill="none" stroke="#000000" points="930.5,-235.5 930.5,-254.5 1099.5,-254.5 1099.5,-235.5 930.5,-235.5"/>
<text text-anchor="middle" x="1015" y="-242.5" font-family="Helvetica,sans-Serif" font-size="10.00" fill="#000000">GPUO2InterfaceConfiguration.h</text>
</a>
</g>
</g>
<!-- Node0&#45;&gt;Node27 -->
<g id="edge41" class="edge">
<title>Node0&#45;&gt;Node27</title>
<path fill="none" stroke="#191970" d="M613.3328,-404.5231C643.2238,-393.1902 678.9351,-379.5429 711,-367 809.9241,-328.3037 926.3295,-281.1275 982.0433,-258.4461"/>
<polygon fill="#191970" stroke="#191970" points="983.4646,-261.6465 991.4054,-254.6327 980.8239,-255.1636 983.4646,-261.6465"/>
</g>
<!-- Node3 -->
<g id="node4" class="node">
<title>Node3</title>
<g id="a_node4"><a xlink:href="../../db/dff/FlatObject_8h.html" target="_top" xlink:title="Definition of FlatObject class. ">
<polygon fill="none" stroke="#000000" points="725.5,-118 725.5,-137 800.5,-137 800.5,-118 725.5,-118"/>
<text text-anchor="middle" x="763" y="-125" font-family="Helvetica,sans-Serif" font-size="10.00" fill="#000000">FlatObject.h</text>
</a>
</g>
</g>
<!-- Node2&#45;&gt;Node3 -->
<g id="edge3" class="edge">
<title>Node2&#45;&gt;Node3</title>
<path fill="none" stroke="#191970" d="M420.6077,-347.4138C440.7481,-338.634 470.8386,-324.9223 496,-311 576.4715,-266.4735 594.8121,-251.9628 670,-199 695.8725,-180.7753 724.6012,-158.3315 743.1862,-143.5054"/>
<polygon fill="#191970" stroke="#191970" points="745.5871,-146.0666 751.2013,-137.0815 741.2093,-140.6044 745.5871,-146.0666"/>
</g>
<!-- Node16 -->
<g id="node17" class="node">
<title>Node16</title>
<g id="a_node17"><a xlink:href="../../d5/dde/TPCFastTransformGeo_8h.html" target="_top" xlink:title="Definition of TPCFastTransformGeo class. ">
<polygon fill="none" stroke="#000000" points="97,-235.5 97,-254.5 229,-254.5 229,-235.5 97,-235.5"/>
<text text-anchor="middle" x="163" y="-242.5" font-family="Helvetica,sans-Serif" font-size="10.00" fill="#000000">TPCFastTransformGeo.h</text>
</a>
</g>
</g>
<!-- Node2&#45;&gt;Node16 -->
<g id="edge16" class="edge">
<title>Node2&#45;&gt;Node16</title>
<path fill="none" stroke="#191970" d="M343.0853,-347.4867C311.0781,-340.4421 270.7062,-328.9016 238,-311 214.636,-298.2118 192.3151,-277.0173 178.1929,-262.1031"/>
<polygon fill="#191970" stroke="#191970" points="180.5875,-259.5369 171.2361,-254.5568 175.4408,-264.2816 180.5875,-259.5369"/>
</g>
<!-- Node17 -->
<g id="node18" class="node">
<title>Node17</title>
<g id="a_node18"><a xlink:href="../../d8/d93/TPCFastSpaceChargeCorrection_8h.html" target="_top" xlink:title="Definition of TPCFastSpaceChargeCorrection class. ">
<polygon fill="none" stroke="#000000" points="309,-291.5 309,-310.5 487,-310.5 487,-291.5 309,-291.5"/>
<text text-anchor="middle" x="398" y="-298.5" font-family="Helvetica,sans-Serif" font-size="10.00" fill="#000000">TPCFastSpaceChargeCorrection.h</text>
</a>
</g>
</g>
<!-- Node2&#45;&gt;Node17 -->
<g id="edge19" class="edge">
<title>Node2&#45;&gt;Node17</title>
<path fill="none" stroke="#191970" d="M398,-347.2455C398,-339.9382 398,-329.6944 398,-320.7046"/>
<polygon fill="#191970" stroke="#191970" points="401.5001,-320.6426 398,-310.6427 394.5001,-320.6427 401.5001,-320.6426"/>
</g>
<!-- Node21 -->
<g id="node22" class="node">
<title>Node21</title>
<g id="a_node22"><a xlink:href="../../d6/da2/GPUCommonMath_8h.html" target="_top" xlink:title="GPUCommonMath.h">
<polygon fill="none" stroke="#000000" points="11.5,-118 11.5,-137 126.5,-137 126.5,-118 11.5,-118"/>
<text text-anchor="middle" x="69" y="-125" font-family="Helvetica,sans-Serif" font-size="10.00" fill="#000000">GPUCommonMath.h</text>
</a>
</g>
</g>
<!-- Node2&#45;&gt;Node21 -->
<g id="edge30" class="edge">
<title>Node2&#45;&gt;Node21</title>
<path fill="none" stroke="#191970" d="M346.5849,-347.4543C266.8399,-331.5012 119.2324,-296.9973 88,-255 64.3948,-223.2588 64.3279,-174.5694 66.5486,-147.4656"/>
<polygon fill="#191970" stroke="#191970" points="70.0543,-147.5851 67.5785,-137.2837 63.0899,-146.8807 70.0543,-147.5851"/>
</g>
<!-- Node24 -->
<g id="node25" class="node">
<title>Node24</title>
<polygon fill="none" stroke="#bfbfbf" points="247,-291.5 247,-310.5 291,-310.5 291,-291.5 247,-291.5"/>
<text text-anchor="middle" x="269" y="-298.5" font-family="Helvetica,sans-Serif" font-size="10.00" fill="#000000">string</text>
</g>
<!-- Node2&#45;&gt;Node24 -->
<g id="edge34" class="edge">
<title>Node2&#45;&gt;Node24</title>
<path fill="none" stroke="#191970" d="M375.8241,-347.3733C355.0234,-338.3435 323.7083,-324.7494 300.3542,-314.6111"/>
<polygon fill="#191970" stroke="#191970" points="301.4532,-311.2727 290.8865,-310.5011 298.6657,-317.6938 301.4532,-311.2727"/>
</g>
<!-- Node4 -->
<g id="node5" class="node">
<title>Node4</title>
<polygon fill="none" stroke="#bfbfbf" points="508.5,-56.5 508.5,-75.5 561.5,-75.5 561.5,-56.5 508.5,-56.5"/>
<text text-anchor="middle" x="535" y="-63.5" font-family="Helvetica,sans-Serif" font-size="10.00" fill="#000000">cstddef</text>
</g>
<!-- Node3&#45;&gt;Node4 -->
<g id="edge4" class="edge">
<title>Node3&#45;&gt;Node4</title>
<path fill="none" stroke="#191970" d="M727.375,-117.8906C684.9378,-106.4437 614.4161,-87.4214 571.5679,-75.8637"/>
<polygon fill="#191970" stroke="#191970" points="572.3914,-72.4608 561.825,-73.2357 570.5684,-79.2193 572.3914,-72.4608"/>
</g>
<!-- Node5 -->
<g id="node6" class="node">
<title>Node5</title>
<polygon fill="none" stroke="#bfbfbf" points="872,-56.5 872,-75.5 930,-75.5 930,-56.5 872,-56.5"/>
<text text-anchor="middle" x="901" y="-63.5" font-family="Helvetica,sans-Serif" font-size="10.00" fill="#000000">memory</text>
</g>
<!-- Node3&#45;&gt;Node5 -->
<g id="edge5" class="edge">
<title>Node3&#45;&gt;Node5</title>
<path fill="none" stroke="#191970" d="M784.5625,-117.8906C807.5512,-107.6457 844.156,-91.3326 870.1824,-79.7339"/>
<polygon fill="#191970" stroke="#191970" points="871.8796,-82.8095 879.5889,-75.5419 869.0302,-76.4156 871.8796,-82.8095"/>
</g>
<!-- Node6 -->
<g id="node7" class="node">
<title>Node6</title>
<polygon fill="none" stroke="#bfbfbf" points="948,-56.5 948,-75.5 998,-75.5 998,-56.5 948,-56.5"/>
<text text-anchor="middle" x="973" y="-63.5" font-family="Helvetica,sans-Serif" font-size="10.00" fill="#000000">cstring</text>
</g>
<!-- Node3&#45;&gt;Node6 -->
<g id="edge6" class="edge">
<title>Node3&#45;&gt;Node6</title>
<path fill="none" stroke="#191970" d="M791.2656,-117.9428C797.4239,-115.9266 803.9172,-113.8507 810,-112 864.0548,-95.5538 880.1643,-92.6682 938.092,-76.2253"/>
<polygon fill="#191970" stroke="#191970" points="939.105,-79.5761 947.7604,-73.4658 937.1837,-72.8449 939.105,-79.5761"/>
</g>
<!-- Node7 -->
<g id="node8" class="node">
<title>Node7</title>
<polygon fill="none" stroke="#bfbfbf" points="1016,-56.5 1016,-75.5 1068,-75.5 1068,-56.5 1016,-56.5"/>
<text text-anchor="middle" x="1042" y="-63.5" font-family="Helvetica,sans-Serif" font-size="10.00" fill="#000000">cassert</text>
</g>
<!-- Node3&#45;&gt;Node7 -->
<g id="edge7" class="edge">
<title>Node3&#45;&gt;Node7</title>
<path fill="none" stroke="#191970" d="M790.1504,-117.8415C796.6061,-115.7415 803.506,-113.6558 810,-112 893.2141,-90.7829 918.5586,-95.8461 1005.8986,-76.0749"/>
<polygon fill="#191970" stroke="#191970" points="1006.7423,-79.4722 1015.6986,-73.8123 1005.1676,-72.6516 1006.7423,-79.4722"/>
</g>
<!-- Node8 -->
<g id="node9" class="node">
<title>Node8</title>
<g id="a_node9"><a xlink:href="../../df/d21/GPUCommonDef_8h.html" target="_top" xlink:title="GPUCommonDef.h">
<polygon fill="none" stroke="#000000" points="337.5,-56.5 337.5,-75.5 444.5,-75.5 444.5,-56.5 337.5,-56.5"/>
<text text-anchor="middle" x="391" y="-63.5" font-family="Helvetica,sans-Serif" font-size="10.00" fill="#000000">GPUCommonDef.h</text>
</a>
</g>
</g>
<!-- Node3&#45;&gt;Node8 -->
<g id="edge8" class="edge">
<title>Node3&#45;&gt;Node8</title>
<path fill="none" stroke="#191970" d="M725.2835,-121.2646C661.7324,-110.7582 532.644,-89.4169 454.7943,-76.5466"/>
<polygon fill="#191970" stroke="#191970" points="455.0658,-73.0441 444.6289,-74.8661 453.924,-79.9504 455.0658,-73.0441"/>
</g>
<!-- Node11 -->
<g id="node12" class="node">
<title>Node11</title>
<g id="a_node12"><a xlink:href="../../d2/d45/GPUCommonRtypes_8h.html" target="_top" xlink:title="GPUCommonRtypes.h">
<polygon fill="none" stroke="#000000" points="1086.5,-56.5 1086.5,-75.5 1211.5,-75.5 1211.5,-56.5 1086.5,-56.5"/>
<text text-anchor="middle" x="1149" y="-63.5" font-family="Helvetica,sans-Serif" font-size="10.00" fill="#000000">GPUCommonRtypes.h</text>
</a>
</g>
</g>
<!-- Node3&#45;&gt;Node11 -->
<g id="edge11" class="edge">
<title>Node3&#45;&gt;Node11</title>
<path fill="none" stroke="#191970" d="M789.1071,-117.9429C795.8446,-115.7391 803.1342,-113.5807 810,-112 923.611,-85.843 956.6358,-91.8854 1076.2608,-76.0746"/>
<polygon fill="#191970" stroke="#191970" points="1076.7294,-79.5432 1086.1734,-74.7409 1075.796,-72.6057 1076.7294,-79.5432"/>
</g>
<!-- Node13 -->
<g id="node14" class="node">
<title>Node13</title>
<g id="a_node14"><a xlink:href="../../df/d5b/GPUCommonLogger_8h.html" target="_top" xlink:title="GPUCommonLogger.h">
<polygon fill="none" stroke="#000000" points="615.5,-56.5 615.5,-75.5 738.5,-75.5 738.5,-56.5 615.5,-56.5"/>
<text text-anchor="middle" x="677" y="-63.5" font-family="Helvetica,sans-Serif" font-size="10.00" fill="#000000">GPUCommonLogger.h</text>
</a>
</g>
</g>
<!-- Node3&#45;&gt;Node13 -->
<g id="edge13" class="edge">
<title>Node3&#45;&gt;Node13</title>
<path fill="none" stroke="#191970" d="M749.5625,-117.8906C735.9305,-108.1421 714.6154,-92.8994 698.6078,-81.4521"/>
<polygon fill="#191970" stroke="#191970" points="700.5132,-78.5118 690.3431,-75.5419 696.4414,-84.2057 700.5132,-78.5118"/>
</g>
<!-- Node9 -->
<g id="node10" class="node">
<title>Node9</title>
<g id="a_node10"><a xlink:href="../../d5/d93/GPUCommonDefSettings_8h.html" target="_top" xlink:title="GPUCommonDefSettings.h">
<polygon fill="none" stroke="#000000" points="240,-.5 240,-19.5 388,-19.5 388,-.5 240,-.5"/>
<text text-anchor="middle" x="314" y="-7.5" font-family="Helvetica,sans-Serif" font-size="10.00" fill="#000000">GPUCommonDefSettings.h</text>
</a>
</g>
</g>
<!-- Node8&#45;&gt;Node9 -->
<g id="edge9" class="edge">
<title>Node8&#45;&gt;Node9</title>
<path fill="none" stroke="#191970" d="M377.5876,-56.2455C365.9943,-47.814 349.0252,-35.4729 335.5322,-25.6598"/>
<polygon fill="#191970" stroke="#191970" points="337.4047,-22.6938 327.2587,-19.6427 333.2874,-28.355 337.4047,-22.6938"/>
</g>
<!-- Node10 -->
<g id="node11" class="node">
<title>Node10</title>
<g id="a_node11"><a xlink:href="../../da/d5a/GPUCommonDefAPI_8h.html" target="_top" xlink:title="GPUCommonDefAPI.h">
<polygon fill="none" stroke="#000000" points="406,-.5 406,-19.5 530,-19.5 530,-.5 406,-.5"/>
<text text-anchor="middle" x="468" y="-7.5" font-family="Helvetica,sans-Serif" font-size="10.00" fill="#000000">GPUCommonDefAPI.h</text>
</a>
</g>
</g>
<!-- Node8&#45;&gt;Node10 -->
<g id="edge10" class="edge">
<title>Node8&#45;&gt;Node10</title>
<path fill="none" stroke="#191970" d="M404.4124,-56.2455C416.0057,-47.814 432.9748,-35.4729 446.4678,-25.6598"/>
<polygon fill="#191970" stroke="#191970" points="448.7126,-28.355 454.7413,-19.6427 444.5953,-22.6938 448.7126,-28.355"/>
</g>
<!-- Node12 -->
<g id="node13" class="node">
<title>Node12</title>
<polygon fill="none" stroke="#bfbfbf" points="1119.5,-.5 1119.5,-19.5 1178.5,-19.5 1178.5,-.5 1119.5,-.5"/>
<text text-anchor="middle" x="1149" y="-7.5" font-family="Helvetica,sans-Serif" font-size="10.00" fill="#000000">Rtypes.h</text>
</g>
<!-- Node11&#45;&gt;Node12 -->
<g id="edge12" class="edge">
<title>Node11&#45;&gt;Node12</title>
<path fill="none" stroke="#191970" d="M1149,-56.2455C1149,-48.9382 1149,-38.6944 1149,-29.7046"/>
<polygon fill="#191970" stroke="#191970" points="1152.5001,-29.6426 1149,-19.6427 1145.5001,-29.6427 1152.5001,-29.6426"/>
</g>
<!-- Node14 -->
<g id="node15" class="node">
<title>Node14</title>
<polygon fill="none" stroke="#bfbfbf" points="708,-.5 708,-19.5 768,-19.5 768,-.5 708,-.5"/>
<text text-anchor="middle" x="738" y="-7.5" font-family="Helvetica,sans-Serif" font-size="10.00" fill="#000000">iostream</text>
</g>
<!-- Node13&#45;&gt;Node14 -->
<g id="edge14" class="edge">
<title>Node13&#45;&gt;Node14</title>
<path fill="none" stroke="#191970" d="M687.6254,-56.2455C696.5473,-48.0549 709.488,-36.1749 720.0192,-26.5069"/>
<polygon fill="#191970" stroke="#191970" points="722.4968,-28.9837 727.4964,-19.6427 717.7629,-23.8271 722.4968,-28.9837"/>
</g>
<!-- Node15 -->
<g id="node16" class="node">
<title>Node15</title>
<polygon fill="none" stroke="#bfbfbf" points="644,-.5 644,-19.5 690,-19.5 690,-.5 644,-.5"/>
<text text-anchor="middle" x="667" y="-7.5" font-family="Helvetica,sans-Serif" font-size="10.00" fill="#000000">cstdio</text>
</g>
<!-- Node13&#45;&gt;Node15 -->
<g id="edge15" class="edge">
<title>Node13&#45;&gt;Node15</title>
<path fill="none" stroke="#191970" d="M675.2581,-56.2455C673.9533,-48.9382 672.124,-38.6944 670.5187,-29.7046"/>
<polygon fill="#191970" stroke="#191970" points="673.9254,-28.8717 668.7219,-19.6427 667.0344,-30.1022 673.9254,-28.8717"/>
</g>
<!-- Node16&#45;&gt;Node5 -->
<g id="edge18" class="edge">
<title>Node16&#45;&gt;Node5</title>
<path fill="none" stroke="#191970" d="M229.0237,-240.864C326.4396,-234.1799 503.6633,-219.6357 564,-199 580.2272,-193.4501 582.1772,-187.6261 597,-179 623.3971,-163.6382 688.5862,-123.2004 717,-112 776.2616,-88.6398 796.3559,-92.0995 861.9482,-76.1845"/>
<polygon fill="#191970" stroke="#191970" points="863.1078,-79.5027 871.9659,-73.6903 861.4166,-72.71 863.1078,-79.5027"/>
</g>
<!-- Node16&#45;&gt;Node8 -->
<g id="edge17" class="edge">
<title>Node16&#45;&gt;Node8</title>
<path fill="none" stroke="#191970" d="M160.831,-235.4656C155.9533,-211.3345 146.9078,-147.258 179,-112 198.6595,-90.4011 272.3123,-78.0892 327.3191,-71.7391"/>
<polygon fill="#191970" stroke="#191970" points="327.8044,-75.2068 337.3558,-70.6219 327.03,-68.2497 327.8044,-75.2068"/>
</g>
<!-- Node17&#45;&gt;Node3 -->
<g id="edge28" class="edge">
<title>Node17&#45;&gt;Node3</title>
<path fill="none" stroke="#191970" d="M422.8414,-291.4718C466.7344,-274.4004 560.589,-236.8352 637,-199 673.1755,-181.0876 713.5159,-157.532 738.58,-142.4495"/>
<polygon fill="#191970" stroke="#191970" points="740.6544,-145.2852 747.3976,-137.1133 737.0302,-139.2965 740.6544,-145.2852"/>
</g>
<!-- Node17&#45;&gt;Node8 -->
<g id="edge29" class="edge">
<title>Node17&#45;&gt;Node8</title>
<path fill="none" stroke="#191970" d="M367.4644,-291.429C329.6757,-277.7458 267.0191,-248.603 240,-199 228.8523,-178.5345 229.2619,-137.3916 251,-112 262.3954,-98.6893 301.6784,-86.4531 335.7427,-77.9524"/>
<polygon fill="#191970" stroke="#191970" points="336.7548,-81.3084 345.6461,-75.5467 335.1024,-74.5062 336.7548,-81.3084"/>
</g>
<!-- Node17&#45;&gt;Node16 -->
<g id="edge27" class="edge">
<title>Node17&#45;&gt;Node16</title>
<path fill="none" stroke="#191970" d="M357.8691,-291.4369C317.7351,-281.8731 255.9225,-267.1432 212.7067,-256.845"/>
<polygon fill="#191970" stroke="#191970" points="213.5044,-253.4372 202.9654,-254.5237 211.8817,-260.2465 213.5044,-253.4372"/>
</g>
<!-- Node18 -->
<g id="node19" class="node">
<title>Node18</title>
<g id="a_node19"><a xlink:href="../../dd/d27/Spline2D_8h.html" target="_top" xlink:title="Definition of Spline2D class. ">
<polygon fill="none" stroke="#000000" points="363.5,-235.5 363.5,-254.5 432.5,-254.5 432.5,-235.5 363.5,-235.5"/>
<text text-anchor="middle" x="398" y="-242.5" font-family="Helvetica,sans-Serif" font-size="10.00" fill="#000000">Spline2D.h</text>
</a>
</g>
</g>
<!-- Node17&#45;&gt;Node18 -->
<g id="edge20" class="edge">
<title>Node17&#45;&gt;Node18</title>
<path fill="none" stroke="#191970" d="M398,-291.2455C398,-283.9382 398,-273.6944 398,-264.7046"/>
<polygon fill="#191970" stroke="#191970" points="401.5001,-264.6426 398,-254.6427 394.5001,-264.6427 401.5001,-264.6426"/>
</g>
<!-- Node18&#45;&gt;Node3 -->
<g id="edge25" class="edge">
<title>Node18&#45;&gt;Node3</title>
<path fill="none" stroke="#191970" d="M432.6701,-238.9453C472.7866,-231.4913 540.5633,-217.5109 597,-199 646.7186,-182.6926 702.0974,-157.2935 734.6681,-141.5656"/>
<polygon fill="#191970" stroke="#191970" points="736.5538,-144.5403 744.0125,-137.0158 733.4894,-138.2467 736.5538,-144.5403"/>
</g>
<!-- Node18&#45;&gt;Node8 -->
<g id="edge26" class="edge">
<title>Node18&#45;&gt;Node8</title>
<path fill="none" stroke="#191970" d="M363.3585,-239.0829C324.0192,-231.5748 263.5216,-217.3623 250,-199 231.2979,-173.6025 252.9284,-137.5866 279,-112 295.0599,-96.2389 317.2722,-85.6157 337.6835,-78.5894"/>
<polygon fill="#191970" stroke="#191970" points="338.7711,-81.9163 347.214,-75.5157 336.6224,-75.2542 338.7711,-81.9163"/>
</g>
<!-- Node19 -->
<g id="node20" class="node">
<title>Node19</title>
<g id="a_node20"><a xlink:href="../../de/da6/Spline1D_8h.html" target="_top" xlink:title="Definition of Spline1D class. ">
<polygon fill="none" stroke="#000000" points="363.5,-179.5 363.5,-198.5 432.5,-198.5 432.5,-179.5 363.5,-179.5"/>
<text text-anchor="middle" x="398" y="-186.5" font-family="Helvetica,sans-Serif" font-size="10.00" fill="#000000">Spline1D.h</text>
</a>
</g>
</g>
<!-- Node18&#45;&gt;Node19 -->
<g id="edge21" class="edge">
<title>Node18&#45;&gt;Node19</title>
<path fill="none" stroke="#191970" d="M398,-235.2455C398,-227.9382 398,-217.6944 398,-208.7046"/>
<polygon fill="#191970" stroke="#191970" points="401.5001,-208.6426 398,-198.6427 394.5001,-208.6427 401.5001,-208.6426"/>
</g>
<!-- Node19&#45;&gt;Node3 -->
<g id="edge23" class="edge">
<title>Node19&#45;&gt;Node3</title>
<path fill="none" stroke="#191970" d="M432.5428,-180.9284C435.7345,-180.2494 438.9237,-179.5957 442,-179 538.5822,-160.2972 652.4494,-143.189 715.2938,-134.1737"/>
<polygon fill="#191970" stroke="#191970" points="715.8985,-137.6229 725.3033,-132.7444 714.9089,-130.6932 715.8985,-137.6229"/>
</g>
<!-- Node19&#45;&gt;Node8 -->
<g id="edge22" class="edge">
<title>Node19&#45;&gt;Node8</title>
<path fill="none" stroke="#191970" d="M364.5755,-179.4921C335.5884,-170.4908 296.9188,-156.3969 288,-143 280.3649,-131.5313 280.5027,-123.5593 288,-112 298.2057,-96.2649 315.1895,-85.8651 332.4521,-79.0109"/>
<polygon fill="#191970" stroke="#191970" points="333.8106,-82.2417 342.0299,-75.5564 331.4355,-75.6569 333.8106,-82.2417"/>
</g>
<!-- Node20 -->
<g id="node21" class="node">
<title>Node20</title>
<polygon fill="none" stroke="#bfbfbf" points="297.5,-118 297.5,-137 362.5,-137 362.5,-118 297.5,-118"/>
<text text-anchor="middle" x="330" y="-125" font-family="Helvetica,sans-Serif" font-size="10.00" fill="#000000">functional</text>
</g>
<!-- Node19&#45;&gt;Node20 -->
<g id="edge24" class="edge">
<title>Node19&#45;&gt;Node20</title>
<path fill="none" stroke="#191970" d="M387.375,-179.3906C376.9569,-169.9683 360.8636,-155.4134 348.3696,-144.1137"/>
<polygon fill="#191970" stroke="#191970" points="350.5392,-141.3568 340.7748,-137.2449 345.8438,-146.5484 350.5392,-141.3568"/>
</g>
<!-- Node21&#45;&gt;Node8 -->
<g id="edge31" class="edge">
<title>Node21&#45;&gt;Node8</title>
<path fill="none" stroke="#191970" d="M112.3602,-117.9448C121.7905,-115.9284 131.7211,-113.852 141,-112 204.1619,-99.3934 276.5599,-86.2102 327.1346,-77.2052"/>
<polygon fill="#191970" stroke="#191970" points="328.033,-80.6005 337.2666,-75.4051 326.8085,-73.7084 328.033,-80.6005"/>
</g>
<!-- Node22 -->
<g id="node23" class="node">
<title>Node22</title>
<polygon fill="none" stroke="#bfbfbf" points="82.5,-56.5 82.5,-75.5 129.5,-75.5 129.5,-56.5 82.5,-56.5"/>
<text text-anchor="middle" x="106" y="-63.5" font-family="Helvetica,sans-Serif" font-size="10.00" fill="#000000">cmath</text>
</g>
<!-- Node21&#45;&gt;Node22 -->
<g id="edge32" class="edge">
<title>Node21&#45;&gt;Node22</title>
<path fill="none" stroke="#191970" d="M74.7813,-117.8906C80.126,-109.0068 88.2159,-95.5601 94.8211,-84.5811"/>
<polygon fill="#191970" stroke="#191970" points="97.9811,-86.118 100.1372,-75.7449 91.9829,-82.5093 97.9811,-86.118"/>
</g>
<!-- Node23 -->
<g id="node24" class="node">
<title>Node23</title>
<polygon fill="none" stroke="#bfbfbf" points="0,-56.5 0,-75.5 64,-75.5 64,-56.5 0,-56.5"/>
<text text-anchor="middle" x="32" y="-63.5" font-family="Helvetica,sans-Serif" font-size="10.00" fill="#000000">algorithm</text>
</g>
<!-- Node21&#45;&gt;Node23 -->
<g id="edge33" class="edge">
<title>Node21&#45;&gt;Node23</title>
<path fill="none" stroke="#191970" d="M63.2188,-117.8906C57.874,-109.0068 49.7841,-95.5601 43.1789,-84.5811"/>
<polygon fill="#191970" stroke="#191970" points="46.0171,-82.5093 37.8628,-75.7449 40.0189,-86.118 46.0171,-82.5093"/>
</g>
<!-- Node25&#45;&gt;Node5 -->
<g id="edge36" class="edge">
<title>Node25&#45;&gt;Node5</title>
<path fill="none" stroke="#191970" d="M521.6919,-179.4671C553.8665,-163.4112 622.1318,-130.8827 683,-112 757.8772,-88.7714 781.6657,-93.9238 861.9236,-76.1127"/>
<polygon fill="#191970" stroke="#191970" points="863.0225,-79.4523 871.9983,-73.8233 861.4713,-72.6263 863.0225,-79.4523"/>
</g>
<!-- Node25&#45;&gt;Node8 -->
<g id="edge37" class="edge">
<title>Node25&#45;&gt;Node8</title>
<path fill="none" stroke="#191970" d="M467.3288,-179.482C447.6884,-172.476 424.4384,-160.976 410,-143 396.9694,-126.7767 392.7022,-102.8738 391.3929,-86.012"/>
<polygon fill="#191970" stroke="#191970" points="394.8703,-85.462 390.8876,-75.6443 387.8786,-85.8028 394.8703,-85.462"/>
</g>
<!-- Node26 -->
<g id="node27" class="node">
<title>Node26</title>
<g id="a_node27"><a xlink:href="../../d4/dc5/GPUDataTypes_8h.html" target="_top" xlink:title="GPUDataTypes.h">
<polygon fill="none" stroke="#000000" points="419,-118 419,-137 517,-137 517,-118 419,-118"/>
<text text-anchor="middle" x="468" y="-125" font-family="Helvetica,sans-Serif" font-size="10.00" fill="#000000">GPUDataTypes.h</text>
</a>
</g>
</g>
<!-- Node25&#45;&gt;Node26 -->
<g id="edge38" class="edge">
<title>Node25&#45;&gt;Node26</title>
<path fill="none" stroke="#191970" d="M497.5313,-179.3906C492.4754,-170.5068 484.8228,-157.0601 478.5746,-146.0811"/>
<polygon fill="#191970" stroke="#191970" points="481.534,-144.2048 473.5459,-137.2449 475.4502,-147.6672 481.534,-144.2048"/>
</g>
<!-- Node26&#45;&gt;Node4 -->
<g id="edge40" class="edge">
<title>Node26&#45;&gt;Node4</title>
<path fill="none" stroke="#191970" d="M478.4688,-117.8906C488.7337,-108.4683 504.5903,-93.9134 516.9006,-82.6137"/>
<polygon fill="#191970" stroke="#191970" points="519.3834,-85.0856 524.3837,-75.7449 514.6499,-79.9287 519.3834,-85.0856"/>
</g>
<!-- Node26&#45;&gt;Node8 -->
<g id="edge39" class="edge">
<title>Node26&#45;&gt;Node8</title>
<path fill="none" stroke="#191970" d="M455.9688,-117.8906C443.9893,-108.3227 425.3834,-93.4621 411.1475,-82.0919"/>
<polygon fill="#191970" stroke="#191970" points="412.9447,-79.0479 402.9468,-75.5419 408.5761,-84.5175 412.9447,-79.0479"/>
</g>
<!-- Node27&#45;&gt;Node5 -->
<g id="edge42" class="edge">
<title>Node27&#45;&gt;Node5</title>
<path fill="none" stroke="#191970" d="M1013.485,-235.118C1011.1496,-221.77 1005.8706,-197.5194 996,-179 990.322,-168.3469 941.5478,-112.1712 916.1856,-83.2473"/>
<polygon fill="#191970" stroke="#191970" points="918.6523,-80.752 909.4233,-75.5485 913.393,-85.3715 918.6523,-80.752"/>
</g>
<!-- Node27&#45;&gt;Node26 -->
<g id="edge57" class="edge">
<title>Node27&#45;&gt;Node26</title>
<path fill="none" stroke="#191970" d="M954.6701,-235.4639C901.6388,-226.8204 822.4628,-213.2814 754,-199 650.1627,-177.3395 624.5566,-170.0831 522,-143 518.1837,-141.9922 514.2245,-140.9157 510.263,-139.8174"/>
<polygon fill="#191970" stroke="#191970" points="511.0651,-136.4072 500.491,-137.069 509.1699,-143.1458 511.0651,-136.4072"/>
</g>
<!-- Node28 -->
<g id="node29" class="node">
<title>Node28</title>
<polygon fill="none" stroke="#bfbfbf" points="978,-118 978,-137 1020,-137 1020,-118 978,-118"/>
<text text-anchor="middle" x="999" y="-125" font-family="Helvetica,sans-Serif" font-size="10.00" fill="#000000">array</text>
</g>
<!-- Node27&#45;&gt;Node28 -->
<g id="edge43" class="edge">
<title>Node27&#45;&gt;Node28</title>
<path fill="none" stroke="#191970" d="M1020.0244,-235.0796C1025.9361,-222.0955 1034.3131,-198.6764 1029,-179 1025.7294,-166.8876 1018.827,-154.696 1012.4669,-145.2173"/>
<polygon fill="#191970" stroke="#191970" points="1015.3136,-143.1809 1006.6714,-137.052 1009.6052,-147.2325 1015.3136,-143.1809"/>
</g>
<!-- Node29 -->
<g id="node30" class="node">
<title>Node29</title>
<polygon fill="none" stroke="#bfbfbf" points="1468.5,-56.5 1468.5,-75.5 1515.5,-75.5 1515.5,-56.5 1468.5,-56.5"/>
<text text-anchor="middle" x="1492" y="-63.5" font-family="Helvetica,sans-Serif" font-size="10.00" fill="#000000">vector</text>
</g>
<!-- Node27&#45;&gt;Node29 -->
<g id="edge44" class="edge">
<title>Node27&#45;&gt;Node29</title>
<path fill="none" stroke="#191970" d="M1099.5722,-237.251C1262.1463,-221.4979 1605.3541,-183.7585 1640,-143 1675.1728,-101.6217 1579.4296,-79.5501 1525.6737,-70.701"/>
<polygon fill="#191970" stroke="#191970" points="1525.956,-67.2024 1515.5335,-69.1057 1524.868,-74.1174 1525.956,-67.2024"/>
</g>
<!-- Node30 -->
<g id="node31" class="node">
<title>Node30</title>
<polygon fill="none" stroke="#bfbfbf" points="1607,-56.5 1607,-75.5 1655,-75.5 1655,-56.5 1607,-56.5"/>
<text text-anchor="middle" x="1631" y="-63.5" font-family="Helvetica,sans-Serif" font-size="10.00" fill="#000000">gsl/gsl</text>
</g>
<!-- Node27&#45;&gt;Node30 -->
<g id="edge45" class="edge">
<title>Node27&#45;&gt;Node30</title>
<path fill="none" stroke="#191970" d="M1099.5385,-242.5923C1195.2174,-238.537 1355.2874,-227.7191 1490,-199 1566.5635,-182.6776 1611.2835,-206.5484 1657,-143 1669.7922,-125.2182 1657.5067,-100.685 1645.8553,-84.1289"/>
<polygon fill="#191970" stroke="#191970" points="1648.4253,-81.7237 1639.6109,-75.8452 1642.8356,-85.9374 1648.4253,-81.7237"/>
</g>
<!-- Node31 -->
<g id="node32" class="node">
<title>Node31</title>
<g id="a_node32"><a xlink:href="../../dd/dc6/GPUSettings_8h.html" target="_top" xlink:title="GPUSettings.h">
<polygon fill="none" stroke="#000000" points="259,-179.5 259,-198.5 345,-198.5 345,-179.5 259,-179.5"/>
<text text-anchor="middle" x="302" y="-186.5" font-family="Helvetica,sans-Serif" font-size="10.00" fill="#000000">GPUSettings.h</text>
</a>
</g>
</g>
<!-- Node27&#45;&gt;Node31 -->
<g id="edge46" class="edge">
<title>Node27&#45;&gt;Node31</title>
<path fill="none" stroke="#191970" d="M930.4194,-242.3759C806.3581,-237.8017 567.6421,-226.2492 355.1631,-199.0054"/>
<polygon fill="#191970" stroke="#191970" points="355.4325,-195.5111 345.0654,-197.6962 354.5323,-202.453 355.4325,-195.5111"/>
</g>
<!-- Node32 -->
<g id="node33" class="node">
<title>Node32</title>
<g id="a_node33"><a xlink:href="../../d4/d50/GPUDisplayConfig_8h.html" target="_top" xlink:title="GPUDisplayConfig.h">
<polygon fill="none" stroke="#000000" points="763,-179.5 763,-198.5 877,-198.5 877,-179.5 763,-179.5"/>
<text text-anchor="middle" x="820" y="-186.5" font-family="Helvetica,sans-Serif" font-size="10.00" fill="#000000">GPUDisplayConfig.h</text>
</a>
</g>
</g>
<!-- Node27&#45;&gt;Node32 -->
<g id="edge48" class="edge">
<title>Node27&#45;&gt;Node32</title>
<path fill="none" stroke="#191970" d="M981.4783,-235.3733C948.6317,-225.9404 898.4405,-211.5265 862.7422,-201.2747"/>
<polygon fill="#191970" stroke="#191970" points="863.6619,-197.8974 853.0843,-198.5011 861.7297,-204.6255 863.6619,-197.8974"/>
</g>
<!-- Node35 -->
<g id="node36" class="node">
<title>Node35</title>
<g id="a_node36"><a xlink:href="../../d8/d93/GPUQAConfig_8h.html" target="_top" xlink:title="GPUQAConfig.h">
<polygon fill="none" stroke="#000000" points="895,-179.5 895,-198.5 987,-198.5 987,-179.5 895,-179.5"/>
<text text-anchor="middle" x="941" y="-186.5" font-family="Helvetica,sans-Serif" font-size="10.00" fill="#000000">GPUQAConfig.h</text>
</a>
</g>
</g>
<!-- Node27&#45;&gt;Node35 -->
<g id="edge54" class="edge">
<title>Node27&#45;&gt;Node35</title>
<path fill="none" stroke="#191970" d="M1002.1102,-235.2455C991.0746,-226.8943 974.9708,-214.7076 962.0647,-204.9408"/>
<polygon fill="#191970" stroke="#191970" points="963.8283,-201.8862 953.7421,-198.6427 959.6041,-207.4681 963.8283,-201.8862"/>
</g>
<!-- Node36 -->
<g id="node37" class="node">
<title>Node36</title>
<g id="a_node37"><a xlink:href="../../d6/d20/GPUHostDataTypes_8h.html" target="_top" xlink:title="GPUHostDataTypes.h">
<polygon fill="none" stroke="#000000" points="1081,-179.5 1081,-198.5 1201,-198.5 1201,-179.5 1081,-179.5"/>
<text text-anchor="middle" x="1141" y="-186.5" font-family="Helvetica,sans-Serif" font-size="10.00" fill="#000000">GPUHostDataTypes.h</text>
</a>
</g>
</g>
<!-- Node27&#45;&gt;Node36 -->
<g id="edge58" class="edge">
<title>Node27&#45;&gt;Node36</title>
<path fill="none" stroke="#191970" d="M1036.6602,-235.3733C1056.9772,-226.3435 1087.564,-212.7494 1110.375,-202.6111"/>
<polygon fill="#191970" stroke="#191970" points="1111.9059,-205.7609 1119.6225,-198.5011 1109.0628,-199.3642 1111.9059,-205.7609"/>
</g>
<!-- Node38 -->
<g id="node39" class="node">
<title>Node38</title>
<g id="a_node39"><a xlink:href="../../d0/dda/DataFormats_2Detectors_2TPC_2include_2DataFormatsTPC_2Constants_8h.html" target="_top" xlink:title="DataFormatsTPC/Constants.h">
<polygon fill="none" stroke="#000000" points="1471.5,-118 1471.5,-137 1630.5,-137 1630.5,-118 1471.5,-118"/>
<text text-anchor="middle" x="1551" y="-125" font-family="Helvetica,sans-Serif" font-size="10.00" fill="#000000">DataFormatsTPC/Constants.h</text>
</a>
</g>
</g>
<!-- Node27&#45;&gt;Node38 -->
<g id="edge77" class="edge">
<title>Node27&#45;&gt;Node38</title>
<path fill="none" stroke="#191970" d="M1058.4091,-235.484C1155.8288,-214.128 1391.6125,-162.4404 1497.707,-139.1827"/>
<polygon fill="#191970" stroke="#191970" points="1498.5418,-142.5829 1507.5604,-137.0227 1497.0428,-135.7453 1498.5418,-142.5829"/>
</g>
<!-- Node31&#45;&gt;Node21 -->
<g id="edge47" class="edge">
<title>Node31&#45;&gt;Node21</title>
<path fill="none" stroke="#191970" d="M265.8494,-179.4581C225.2931,-168.7533 159.4069,-151.3628 115.1593,-139.6837"/>
<polygon fill="#191970" stroke="#191970" points="115.7975,-136.2323 105.2354,-137.0643 114.011,-143.0005 115.7975,-136.2323"/>
</g>
<!-- Node32&#45;&gt;Node8 -->
<g id="edge49" class="edge">
<title>Node32&#45;&gt;Node8</title>
<path fill="none" stroke="#191970" d="M762.8645,-185.7208C710.6049,-181.0741 632.0668,-169.8835 569,-143 547.3272,-133.7615 546.9351,-122.8066 526,-112 498.1984,-97.649 464.9523,-86.2581 438.4095,-78.4014"/>
<polygon fill="#191970" stroke="#191970" points="439.1688,-74.9777 428.5902,-75.5645 437.2258,-81.7027 439.1688,-74.9777"/>
</g>
<!-- Node33 -->
<g id="node34" class="node">
<title>Node33</title>
<g id="a_node34"><a xlink:href="../../da/d08/qconfig_8h.html" target="_top" xlink:title="utils/qconfig.h">
<polygon fill="none" stroke="#000000" points="818.5,-118 818.5,-137 903.5,-137 903.5,-118 818.5,-118"/>
<text text-anchor="middle" x="861" y="-125" font-family="Helvetica,sans-Serif" font-size="10.00" fill="#000000">utils/qconfig.h</text>
</a>
</g>
</g>
<!-- Node32&#45;&gt;Node33 -->
<g id="edge50" class="edge">
<title>Node32&#45;&gt;Node33</title>
<path fill="none" stroke="#191970" d="M826.4063,-179.3906C832.3886,-170.417 841.4747,-156.7879 848.8339,-145.7491"/>
<polygon fill="#191970" stroke="#191970" points="851.8686,-147.5068 854.5034,-137.2449 846.0442,-143.6239 851.8686,-147.5068"/>
</g>
<!-- Node33&#45;&gt;Node29 -->
<g id="edge51" class="edge">
<title>Node33&#45;&gt;Node29</title>
<path fill="none" stroke="#191970" d="M903.7481,-120.6686C923.5581,-117.6819 947.4373,-114.335 969,-112 1183.2435,-88.8002 1243.2411,-116.0523 1458.359,-75.9405"/>
<polygon fill="#191970" stroke="#191970" points="1459.2137,-79.3409 1468.3887,-74.0428 1457.9123,-72.463 1459.2137,-79.3409"/>
</g>
<!-- Node33&#45;&gt;Node33 -->
<g id="edge53" class="edge">
<title>Node33&#45;&gt;Node33</title>
<path fill="none" stroke="#191970" d="M883.3388,-137.0334C902.0005,-141.1075 921.5,-137.9297 921.5,-127.5 921.5,-118.9444 908.3785,-115.2687 893.3618,-116.4729"/>
<polygon fill="#191970" stroke="#191970" points="892.7136,-113.0307 883.3388,-117.9666 893.7455,-119.9542 892.7136,-113.0307"/>
</g>
<!-- Node34 -->
<g id="node35" class="node">
<title>Node34</title>
<g id="a_node35"><a xlink:href="../../d8/de9/qconfigoptions_8h.html" target="_top" xlink:title="qconfigoptions.h">
<polygon fill="none" stroke="#000000" points="756.5,-56.5 756.5,-75.5 853.5,-75.5 853.5,-56.5 756.5,-56.5"/>
<text text-anchor="middle" x="805" y="-63.5" font-family="Helvetica,sans-Serif" font-size="10.00" fill="#000000">qconfigoptions.h</text>
</a>
</g>
</g>
<!-- Node33&#45;&gt;Node34 -->
<g id="edge52" class="edge">
<title>Node33&#45;&gt;Node34</title>
<path fill="none" stroke="#191970" d="M852.25,-117.8906C843.8338,-108.6478 830.9203,-94.466 820.719,-83.2628"/>
<polygon fill="#191970" stroke="#191970" points="823.194,-80.7824 813.8734,-75.7449 818.0182,-85.4953 823.194,-80.7824"/>
</g>
<!-- Node35&#45;&gt;Node8 -->
<g id="edge55" class="edge">
<title>Node35&#45;&gt;Node8</title>
<path fill="none" stroke="#191970" d="M894.8157,-180.4246C891.8351,-179.9263 888.8771,-179.4469 886,-179 762.4534,-159.8108 723.7569,-187.7193 607,-143 584.3203,-134.3134 584.0449,-122.1906 562,-112 527.9857,-96.2764 487.5957,-85.0975 454.6126,-77.7001"/>
<polygon fill="#191970" stroke="#191970" points="455.1454,-74.2341 444.6295,-75.5249 453.6551,-81.0737 455.1454,-74.2341"/>
</g>
<!-- Node35&#45;&gt;Node33 -->
<g id="edge56" class="edge">
<title>Node35&#45;&gt;Node33</title>
<path fill="none" stroke="#191970" d="M928.5,-179.3906C915.9364,-169.7324 896.3577,-154.6812 881.5151,-143.271"/>
<polygon fill="#191970" stroke="#191970" points="883.4735,-140.3618 873.4122,-137.0419 879.2072,-145.9115 883.4735,-140.3618"/>
</g>
<!-- Node36&#45;&gt;Node5 -->
<g id="edge62" class="edge">
<title>Node36&#45;&gt;Node5</title>
<path fill="none" stroke="#191970" d="M1124.7211,-179.4422C1109.7049,-170.4629 1086.9385,-156.4332 1068,-143 1049.9398,-130.1898 1048.3427,-122.7765 1029,-112 1000.7732,-96.2739 966.1513,-84.217 940.0354,-76.3998"/>
<polygon fill="#191970" stroke="#191970" points="940.6995,-72.9479 930.1197,-73.5122 938.7423,-79.6687 940.6995,-72.9479"/>
</g>
<!-- Node36&#45;&gt;Node8 -->
<g id="edge59" class="edge">
<title>Node36&#45;&gt;Node8</title>
<path fill="none" stroke="#191970" d="M1080.9078,-185.3082C998.367,-179.596 845.516,-166.7164 717,-143 663.6763,-133.1596 651.7048,-124.7458 599,-112 547.5257,-99.5518 488.5583,-86.6373 446.5853,-77.6728"/>
<polygon fill="#191970" stroke="#191970" points="447.073,-74.1982 436.5632,-75.5384 445.6148,-81.0447 447.073,-74.1982"/>
</g>
<!-- Node36&#45;&gt;Node28 -->
<g id="edge61" class="edge">
<title>Node36&#45;&gt;Node28</title>
<path fill="none" stroke="#191970" d="M1118.4247,-179.3791C1096.7484,-170.1213 1063.0963,-155.6966 1034,-143 1032.4506,-142.3239 1030.8636,-141.6291 1029.2617,-140.9261"/>
<polygon fill="#191970" stroke="#191970" points="1030.6451,-137.711 1020.0828,-136.881 1027.8222,-144.1166 1030.6451,-137.711"/>
</g>
<!-- Node36&#45;&gt;Node29 -->
<g id="edge60" class="edge">
<title>Node36&#45;&gt;Node29</title>
<path fill="none" stroke="#191970" d="M1201.1662,-184.0787C1272.8331,-177.3898 1387.571,-163.8211 1425,-143 1449.6945,-129.2629 1469.6218,-102.7614 1481.1387,-84.7286"/>
<polygon fill="#191970" stroke="#191970" points="1484.4184,-86.0739 1486.6486,-75.7164 1478.4462,-82.4225 1484.4184,-86.0739"/>
</g>
<!-- Node37 -->
<g id="node38" class="node">
<title>Node37</title>
<polygon fill="none" stroke="#bfbfbf" points="1222,-118 1222,-137 1270,-137 1270,-118 1222,-118"/>
<text text-anchor="middle" x="1246" y="-125" font-family="Helvetica,sans-Serif" font-size="10.00" fill="#000000">mutex</text>
</g>
<!-- Node36&#45;&gt;Node37 -->
<g id="edge63" class="edge">
<title>Node36&#45;&gt;Node37</title>
<path fill="none" stroke="#191970" d="M1157.4063,-179.3906C1174.4353,-169.4165 1201.2841,-153.6908 1220.9651,-142.1633"/>
<polygon fill="#191970" stroke="#191970" points="1222.849,-145.1161 1229.709,-137.0419 1219.3112,-139.0759 1222.849,-145.1161"/>
</g>
<!-- Node36&#45;&gt;Node38 -->
<g id="edge64" class="edge">
<title>Node36&#45;&gt;Node38</title>
<path fill="none" stroke="#191970" d="M1201.2379,-180.6434C1265.0485,-171.7011 1368.7101,-156.9177 1458,-143 1466.6957,-141.6446 1475.8409,-140.1748 1484.8633,-138.6985"/>
<polygon fill="#191970" stroke="#191970" points="1485.6689,-142.1131 1494.9673,-137.0347 1484.5315,-135.2061 1485.6689,-142.1131"/>
</g>
<!-- Node39 -->
<g id="node40" class="node">
<title>Node39</title>
<g id="a_node40"><a xlink:href="../../db/d14/MCTruthContainer_8h.html" target="_top" xlink:title="Definition of a container to keep Monte Carlo truth external to simulation objects. ">
<polygon fill="none" stroke="#000000" points="1288.5,-112.5 1288.5,-142.5 1415.5,-142.5 1415.5,-112.5 1288.5,-112.5"/>
<text text-anchor="start" x="1296.5" y="-130.5" font-family="Helvetica,sans-Serif" font-size="10.00" fill="#000000">SimulationDataFormat</text>
<text text-anchor="middle" x="1352" y="-119.5" font-family="Helvetica,sans-Serif" font-size="10.00" fill="#000000">/MCTruthContainer.h</text>
</a>
</g>
</g>
<!-- Node36&#45;&gt;Node39 -->
<g id="edge65" class="edge">
<title>Node36&#45;&gt;Node39</title>
<path fill="none" stroke="#191970" d="M1173.9688,-179.3906C1205.0369,-170.3352 1252.3702,-156.539 1290.4228,-145.4479"/>
<polygon fill="#191970" stroke="#191970" points="1291.7625,-148.7031 1300.3836,-142.5446 1289.8037,-141.9827 1291.7625,-148.7031"/>
</g>
<!-- Node43 -->
<g id="node44" class="node">
<title>Node43</title>
<g id="a_node44"><a xlink:href="../../d7/dcd/MCCompLabel_8h.html" target="_top" xlink:title="SimulationDataFormat\l/MCCompLabel.h">
<polygon fill="none" stroke="#000000" points="1076.5,-112.5 1076.5,-142.5 1203.5,-142.5 1203.5,-112.5 1076.5,-112.5"/>
<text text-anchor="start" x="1084.5" y="-130.5" font-family="Helvetica,sans-Serif" font-size="10.00" fill="#000000">SimulationDataFormat</text>
<text text-anchor="middle" x="1140" y="-119.5" font-family="Helvetica,sans-Serif" font-size="10.00" fill="#000000">/MCCompLabel.h</text>
</a>
</g>
</g>
<!-- Node36&#45;&gt;Node43 -->
<g id="edge75" class="edge">
<title>Node36&#45;&gt;Node43</title>
<path fill="none" stroke="#191970" d="M1140.8438,-179.3906C1140.7272,-172.2234 1140.5624,-162.0862 1140.4093,-152.671"/>
<polygon fill="#191970" stroke="#191970" points="1143.9068,-152.4863 1140.2446,-142.5446 1136.9078,-152.6002 1143.9068,-152.4863"/>
</g>
<!-- Node39&#45;&gt;Node5 -->
<g id="edge73" class="edge">
<title>Node39&#45;&gt;Node5</title>
<path fill="none" stroke="#191970" d="M1288.3712,-113.5837C1285.2079,-113.0194 1282.0711,-112.4873 1279,-112 1132.1459,-88.6991 1090.2514,-102.7786 940.3888,-76.0196"/>
<polygon fill="#191970" stroke="#191970" points="940.8239,-72.5414 930.3592,-74.1972 939.5724,-79.4287 940.8239,-72.5414"/>
</g>
<!-- Node39&#45;&gt;Node6 -->
<g id="edge72" class="edge">
<title>Node39&#45;&gt;Node6</title>
<path fill="none" stroke="#191970" d="M1288.3549,-113.6824C1285.1959,-113.092 1282.0644,-112.5273 1279,-112 1161.9918,-91.866 1128.0704,-100.7756 1008.0814,-75.9565"/>
<polygon fill="#191970" stroke="#191970" points="1008.6468,-72.4989 998.1404,-73.8646 1007.2053,-79.3489 1008.6468,-72.4989"/>
</g>
<!-- Node39&#45;&gt;Node7 -->
<g id="edge68" class="edge">
<title>Node39&#45;&gt;Node7</title>
<path fill="none" stroke="#191970" d="M1288.3233,-113.8543C1285.1726,-113.2185 1282.0516,-112.5971 1279,-112 1189.9341,-94.5729 1166.4858,-96.1671 1078,-76 1077.9012,-75.9775 1077.8022,-75.9549 1077.7031,-75.9321"/>
<polygon fill="#191970" stroke="#191970" points="1078.8211,-72.6031 1068.2737,-73.6046 1077.1435,-79.3991 1078.8211,-72.6031"/>
</g>
<!-- Node39&#45;&gt;Node11 -->
<g id="edge66" class="edge">
<title>Node39&#45;&gt;Node11</title>
<path fill="none" stroke="#191970" d="M1302.3406,-112.4554C1267.8753,-102.0139 1222.5091,-88.27 1190.0802,-78.4455"/>
<polygon fill="#191970" stroke="#191970" points="1191.0431,-75.0802 1180.4578,-75.5303 1189.0134,-81.7795 1191.0431,-75.0802"/>
</g>
<!-- Node39&#45;&gt;Node29 -->
<g id="edge74" class="edge">
<title>Node39&#45;&gt;Node29</title>
<path fill="none" stroke="#191970" d="M1386.2479,-112.4554C1409.0949,-102.419 1438.8879,-89.3314 1461.0267,-79.6061"/>
<polygon fill="#191970" stroke="#191970" points="1462.5571,-82.7567 1470.305,-75.5303 1459.7417,-76.3478 1462.5571,-82.7567"/>
</g>
<!-- Node39&#45;&gt;Node30 -->
<g id="edge70" class="edge">
<title>Node39&#45;&gt;Node30</title>
<path fill="none" stroke="#191970" d="M1415.6585,-113.4677C1472.0584,-101.0355 1552.2211,-83.3652 1597.1362,-73.4646"/>
<polygon fill="#191970" stroke="#191970" points="1597.9505,-76.8692 1606.9626,-71.2986 1596.4436,-70.0333 1597.9505,-76.8692"/>
</g>
<!-- Node40 -->
<g id="node41" class="node">
<title>Node40</title>
<polygon fill="none" stroke="#bfbfbf" points="1317,-56.5 1317,-75.5 1367,-75.5 1367,-56.5 1317,-56.5"/>
<text text-anchor="middle" x="1342" y="-63.5" font-family="Helvetica,sans-Serif" font-size="10.00" fill="#000000">cstdint</text>
</g>
<!-- Node39&#45;&gt;Node40 -->
<g id="edge67" class="edge">
<title>Node39&#45;&gt;Node40</title>
<path fill="none" stroke="#191970" d="M1349.5281,-112.2977C1348.2267,-104.2945 1346.6153,-94.3843 1345.2177,-85.7889"/>
<polygon fill="#191970" stroke="#191970" points="1348.6608,-85.1555 1343.6011,-75.8469 1341.7515,-86.2791 1348.6608,-85.1555"/>
</g>
<!-- Node41 -->
<g id="node42" class="node">
<title>Node41</title>
<polygon fill="none" stroke="#bfbfbf" points="1385.5,-56.5 1385.5,-75.5 1450.5,-75.5 1450.5,-56.5 1385.5,-56.5"/>
<text text-anchor="middle" x="1418" y="-63.5" font-family="Helvetica,sans-Serif" font-size="10.00" fill="#000000">stdexcept</text>
</g>
<!-- Node39&#45;&gt;Node41 -->
<g id="edge69" class="edge">
<title>Node39&#45;&gt;Node41</title>
<path fill="none" stroke="#191970" d="M1368.3146,-112.2977C1377.9533,-103.3163 1390.1691,-91.9334 1400.0759,-82.702"/>
<polygon fill="#191970" stroke="#191970" points="1402.5025,-85.2249 1407.4326,-75.8469 1397.7304,-80.1036 1402.5025,-85.2249"/>
</g>
<!-- Node42 -->
<g id="node43" class="node">
<title>Node42</title>
<polygon fill="none" stroke="#bfbfbf" points="1229.5,-56.5 1229.5,-75.5 1298.5,-75.5 1298.5,-56.5 1229.5,-56.5"/>
<text text-anchor="middle" x="1264" y="-63.5" font-family="Helvetica,sans-Serif" font-size="10.00" fill="#000000">type_traits</text>
</g>
<!-- Node39&#45;&gt;Node42 -->
<g id="edge71" class="edge">
<title>Node39&#45;&gt;Node42</title>
<path fill="none" stroke="#191970" d="M1330.2472,-112.2977C1316.8032,-102.9022 1299.5989,-90.8787 1286.0922,-81.4395"/>
<polygon fill="#191970" stroke="#191970" points="1288.0288,-78.5228 1277.8271,-75.6633 1284.0189,-84.2605 1288.0288,-78.5228"/>
</g>
<!-- Node43&#45;&gt;Node11 -->
<g id="edge76" class="edge">
<title>Node43&#45;&gt;Node11</title>
<path fill="none" stroke="#191970" d="M1142.2247,-112.2977C1143.3959,-104.2945 1144.8462,-94.3843 1146.1041,-85.7889"/>
<polygon fill="#191970" stroke="#191970" points="1149.574,-86.2484 1147.559,-75.8469 1142.6478,-85.2347 1149.574,-86.2484"/>
</g>
</g>
</svg>
