<?xml version="1.0" encoding="UTF-8" standalone="no"?>
<!DOCTYPE svg PUBLIC "-//W3C//DTD SVG 1.1//EN"
 "http://www.w3.org/Graphics/SVG/1.1/DTD/svg11.dtd">
<!-- Generated by graphviz version 2.40.1 (20161225.0304)
 -->
<!-- Title: GPUCA_NAMESPACE::gpu::GPUTPCCompressionKernels Pages: 1 -->
<svg width="376pt" height="408pt"
 viewBox="0.00 0.00 375.88 408.00" xmlns="http://www.w3.org/2000/svg" xmlns:xlink="http://www.w3.org/1999/xlink">
<g id="graph0" class="graph" transform="scale(1 1) rotate(0) translate(4 404)">
<title>GPUCA_NAMESPACE::gpu::GPUTPCCompressionKernels</title>
<!-- Node2 -->
<g id="node1" class="node">
<title>Node2</title>
<polygon fill="#bfbfbf" stroke="#000000" points="161.8765,-.5 161.8765,-112.5 323.8765,-112.5 323.8765,-.5 161.8765,-.5"/>
<text text-anchor="start" x="169.8765" y="-100.5" font-family="Helvetica,sans-Serif" font-size="10.00" fill="#000000">GPUCA_NAMESPACE::gpu</text>
<text text-anchor="middle" x="242.8765" y="-89.5" font-family="Helvetica,sans-Serif" font-size="10.00" fill="#000000">::GPUTPCCompressionKernels</text>
<polyline fill="none" stroke="#000000" points="161.8765,-82.5 323.8765,-82.5 "/>
<text text-anchor="middle" x="242.8765" y="-70.5" font-family="Helvetica,sans-Serif" font-size="10.00" fill="#000000"> </text>
<polyline fill="none" stroke="#000000" points="161.8765,-63.5 323.8765,-63.5 "/>
<text text-anchor="start" x="169.8765" y="-51.5" font-family="Helvetica,sans-Serif" font-size="10.00" fill="#000000">+ GPUhdi()</text>
<text text-anchor="start" x="169.8765" y="-40.5" font-family="Helvetica,sans-Serif" font-size="10.00" fill="#000000">+ GPUd()</text>
<text text-anchor="start" x="169.8765" y="-29.5" font-family="Helvetica,sans-Serif" font-size="10.00" fill="#000000">+ GPUsharedref()</text>
<text text-anchor="start" x="169.8765" y="-18.5" font-family="Helvetica,sans-Serif" font-size="10.00" fill="#000000">+ GPUrestrict()</text>
<text text-anchor="start" x="169.8765" y="-7.5" font-family="Helvetica,sans-Serif" font-size="10.00" fill="#000000">+ GPUd()</text>
</g>
<!-- Node3 -->
<g id="node2" class="node">
<title>Node3</title>
<g id="a_node2"><a xlink:href="../../d3/d60/classGPUCA__NAMESPACE_1_1gpu_1_1GPUKernelTemplate.html" target="_top" xlink:title="{GPUCA_NAMESPACE::gpu\l::GPUKernelTemplate\n||+ GPUconstantref()\l+ GPUhdi()\l+ GPUhdi()\l+ GPUd()\l+ GPUsharedref()\l}">
<polygon fill="none" stroke="#000000" points="83.8765,-160.5 83.8765,-272.5 223.8765,-272.5 223.8765,-160.5 83.8765,-160.5"/>
<text text-anchor="start" x="91.8765" y="-260.5" font-family="Helvetica,sans-Serif" font-size="10.00" fill="#000000">GPUCA_NAMESPACE::gpu</text>
<text text-anchor="middle" x="153.8765" y="-249.5" font-family="Helvetica,sans-Serif" font-size="10.00" fill="#000000">::GPUKernelTemplate</text>
<polyline fill="none" stroke="#000000" points="83.8765,-242.5 223.8765,-242.5 "/>
<text text-anchor="middle" x="153.8765" y="-230.5" font-family="Helvetica,sans-Serif" font-size="10.00" fill="#000000"> </text>
<polyline fill="none" stroke="#000000" points="83.8765,-223.5 223.8765,-223.5 "/>
<text text-anchor="start" x="91.8765" y="-211.5" font-family="Helvetica,sans-Serif" font-size="10.00" fill="#000000">+ GPUconstantref()</text>
<text text-anchor="start" x="91.8765" y="-200.5" font-family="Helvetica,sans-Serif" font-size="10.00" fill="#000000">+ GPUhdi()</text>
<text text-anchor="start" x="91.8765" y="-189.5" font-family="Helvetica,sans-Serif" font-size="10.00" fill="#000000">+ GPUhdi()</text>
<text text-anchor="start" x="91.8765" y="-178.5" font-family="Helvetica,sans-Serif" font-size="10.00" fill="#000000">+ GPUd()</text>
<text text-anchor="start" x="91.8765" y="-167.5" font-family="Helvetica,sans-Serif" font-size="10.00" fill="#000000">+ GPUsharedref()</text>
</a>
</g>
</g>
<!-- Node3&#45;&gt;Node2 -->
<g id="edge1" class="edge">
<title>Node3&#45;&gt;Node2</title>
<path fill="none" stroke="#191970" d="M190.134,-151.3181C197.2631,-138.5017 204.6847,-125.1595 211.6319,-112.6701"/>
<polygon fill="none" stroke="#191970" points="187.0571,-149.6496 185.2546,-160.09 193.1744,-153.0524 187.0571,-149.6496"/>
</g>
<!-- Node4 -->
<g id="node3" class="node">
<title>Node4</title>
<polygon fill="none" stroke="#bfbfbf" points="13.3765,-342.5 13.3765,-399.5 42.3765,-399.5 42.3765,-342.5 13.3765,-342.5"/>
<text text-anchor="middle" x="27.8765" y="-387.5" font-family="Helvetica,sans-Serif" font-size="10.00" fill="#000000">int</text>
<polyline fill="none" stroke="#bfbfbf" points="13.3765,-380.5 42.3765,-380.5 "/>
<text text-anchor="middle" x="27.8765" y="-368.5" font-family="Helvetica,sans-Serif" font-size="10.00" fill="#000000"> </text>
<polyline fill="none" stroke="#bfbfbf" points="13.3765,-361.5 42.3765,-361.5 "/>
<text text-anchor="middle" x="27.8765" y="-349.5" font-family="Helvetica,sans-Serif" font-size="10.00" fill="#000000"> </text>
</g>
<!-- Node4&#45;&gt;Node2 -->
<g id="edge3" class="edge">
<title>Node4&#45;&gt;Node2</title>
<path fill="none" stroke="#404040" d="M17.475,-342.4034C3.6924,-299.1707 -14.9671,-216.2586 20.8765,-160 49.374,-115.2716 102.7943,-89.5597 150.0904,-74.9514"/>
<polygon fill="none" stroke="#404040" points="150.1326,-74.939 154.7635,-69.4113 161.6471,-71.5599 157.0162,-77.0876 150.1326,-74.939"/>
<text text-anchor="middle" x="47.8765" y="-225" font-family="Helvetica,sans-Serif" font-size="10.00" fill="#000000"> +iThread</text>
<text text-anchor="middle" x="47.8765" y="-214" font-family="Helvetica,sans-Serif" font-size="10.00" fill="#000000">+iBlock</text>
<text text-anchor="middle" x="47.8765" y="-203" font-family="Helvetica,sans-Serif" font-size="10.00" fill="#000000">+nThreads</text>
</g>
<!-- Node4&#45;&gt;Node3 -->
<g id="edge2" class="edge">
<title>Node4&#45;&gt;Node3</title>
<path fill="none" stroke="#404040" d="M42.5769,-352.9745C56.8576,-335.4637 79.4132,-307.8062 100.4966,-281.9539"/>
<polygon fill="none" stroke="#404040" points="100.5954,-281.8328 101.2876,-274.6549 108.1795,-272.5332 107.4873,-279.711 100.5954,-281.8328"/>
<text text-anchor="middle" x="117.8765" y="-316" font-family="Helvetica,sans-Serif" font-size="10.00" fill="#000000"> +iThread</text>
<text text-anchor="middle" x="117.8765" y="-305" font-family="Helvetica,sans-Serif" font-size="10.00" fill="#000000">+iBlock</text>
<text text-anchor="middle" x="117.8765" y="-294" font-family="Helvetica,sans-Serif" font-size="10.00" fill="#000000">+nThreads</text>
</g>
<!-- Node5 -->
<g id="node4" class="node">
<title>Node5</title>
<polygon fill="none" stroke="#bfbfbf" points="242.3765,-188 242.3765,-245 303.3765,-245 303.3765,-188 242.3765,-188"/>
<text text-anchor="middle" x="272.8765" y="-233" font-family="Helvetica,sans-Serif" font-size="10.00" fill="#000000">unsigned</text>
<polyline fill="none" stroke="#bfbfbf" points="242.3765,-226 303.3765,-226 "/>
<text text-anchor="middle" x="272.8765" y="-214" font-family="Helvetica,sans-Serif" font-size="10.00" fill="#000000"> </text>
<polyline fill="none" stroke="#bfbfbf" points="242.3765,-207 303.3765,-207 "/>
<text text-anchor="middle" x="272.8765" y="-195" font-family="Helvetica,sans-Serif" font-size="10.00" fill="#000000"> </text>
</g>
<!-- Node5&#45;&gt;Node2 -->
<g id="edge4" class="edge">
<title>Node5&#45;&gt;Node2</title>
<path fill="none" stroke="#404040" d="M267.5131,-187.8952C264.1987,-170.2185 259.7958,-146.7364 255.6296,-124.5162"/>
<polygon fill="none" stroke="#404040" points="255.6254,-124.4936 250.5881,-119.3335 253.4138,-112.6991 258.4511,-117.8591 255.6254,-124.4936"/>
<text text-anchor="middle" x="273.3765" y="-134" font-family="Helvetica,sans-Serif" font-size="10.00" fill="#000000"> +size</text>
</g>
<!-- Node6 -->
<g id="node5" class="node">
<title>Node6</title>
<polygon fill="none" stroke="#bfbfbf" points="321.8765,-188 321.8765,-245 367.8765,-245 367.8765,-188 321.8765,-188"/>
<text text-anchor="middle" x="344.8765" y="-233" font-family="Helvetica,sans-Serif" font-size="10.00" fill="#000000">void *</text>
<polyline fill="none" stroke="#bfbfbf" points="321.8765,-226 367.8765,-226 "/>
<text text-anchor="middle" x="344.8765" y="-214" font-family="Helvetica,sans-Serif" font-size="10.00" fill="#000000"> </text>
<polyline fill="none" stroke="#bfbfbf" points="321.8765,-207 367.8765,-207 "/>
<text text-anchor="middle" x="344.8765" y="-195" font-family="Helvetica,sans-Serif" font-size="10.00" fill="#000000"> </text>
</g>
<!-- Node6&#45;&gt;Node2 -->
<g id="edge5" class="edge">
<title>Node6&#45;&gt;Node2</title>
<path fill="none" stroke="#404040" d="M329.1965,-187.7889C324.1346,-178.8032 318.4009,-168.9103 312.8765,-160 305.3305,-147.829 297.0214,-135.0525 288.8446,-122.7922"/>
<polygon fill="none" stroke="#404040" points="288.7168,-122.6018 282.0511,-119.8507 282.0269,-112.6396 288.6926,-115.3907 288.7168,-122.6018"/>
<text text-anchor="middle" x="312.8765" y="-134" font-family="Helvetica,sans-Serif" font-size="10.00" fill="#000000"> +src</text>
</g>
</g>
</svg>
