<?xml version="1.0" encoding="UTF-8" standalone="no"?>
<!DOCTYPE svg PUBLIC "-//W3C//DTD SVG 1.1//EN"
 "http://www.w3.org/Graphics/SVG/1.1/DTD/svg11.dtd">
<!-- Generated by graphviz version 2.40.1 (20161225.0304)
 -->
<!-- Title: o2::raw::RawFileReader::LinkData Pages: 1 -->
<svg width="1031pt" height="964pt"
 viewBox="0.00 0.00 1031.08 964.00" xmlns="http://www.w3.org/2000/svg" xmlns:xlink="http://www.w3.org/1999/xlink">
<g id="graph0" class="graph" transform="scale(1 1) rotate(0) translate(4 960)">
<title>o2::raw::RawFileReader::LinkData</title>
<!-- Node1 -->
<g id="node1" class="node">
<title>Node1</title>
<polygon fill="#bfbfbf" stroke="#000000" points="557.0771,-.5 557.0771,-189.5 695.0771,-189.5 695.0771,-.5 557.0771,-.5"/>
<text text-anchor="start" x="565.0771" y="-177.5" font-family="Helvetica,sans-Serif" font-size="10.00" fill="#000000">o2::raw::RawFileReader</text>
<text text-anchor="middle" x="626.0771" y="-166.5" font-family="Helvetica,sans-Serif" font-size="10.00" fill="#000000">::LinkData</text>
<polyline fill="none" stroke="#000000" points="557.0771,-159.5 695.0771,-159.5 "/>
<text text-anchor="middle" x="626.0771" y="-147.5" font-family="Helvetica,sans-Serif" font-size="10.00" fill="#000000"> </text>
<polyline fill="none" stroke="#000000" points="557.0771,-140.5 695.0771,-140.5 "/>
<text text-anchor="start" x="565.0771" y="-128.5" font-family="Helvetica,sans-Serif" font-size="10.00" fill="#000000">+ LinkData()</text>
<text text-anchor="start" x="565.0771" y="-117.5" font-family="Helvetica,sans-Serif" font-size="10.00" fill="#000000">+ LinkData()</text>
<text text-anchor="start" x="565.0771" y="-106.5" font-family="Helvetica,sans-Serif" font-size="10.00" fill="#000000">+ preprocessCRUPage()</text>
<text text-anchor="start" x="565.0771" y="-95.5" font-family="Helvetica,sans-Serif" font-size="10.00" fill="#000000">+ getLargestSuperPage()</text>
<text text-anchor="start" x="565.0771" y="-84.5" font-family="Helvetica,sans-Serif" font-size="10.00" fill="#000000">+ getLargestTF()</text>
<text text-anchor="start" x="565.0771" y="-73.5" font-family="Helvetica,sans-Serif" font-size="10.00" fill="#000000">+ getNextHBFSize()</text>
<text text-anchor="start" x="565.0771" y="-62.5" font-family="Helvetica,sans-Serif" font-size="10.00" fill="#000000">+ getNextTFSize()</text>
<text text-anchor="start" x="565.0771" y="-51.5" font-family="Helvetica,sans-Serif" font-size="10.00" fill="#000000">+ getNHBFinTF()</text>
<text text-anchor="start" x="565.0771" y="-40.5" font-family="Helvetica,sans-Serif" font-size="10.00" fill="#000000">+ readNextHBF()</text>
<text text-anchor="start" x="565.0771" y="-29.5" font-family="Helvetica,sans-Serif" font-size="10.00" fill="#000000">+ readNextTF()</text>
<text text-anchor="start" x="565.0771" y="-18.5" font-family="Helvetica,sans-Serif" font-size="10.00" fill="#000000">+ print()</text>
<text text-anchor="start" x="565.0771" y="-7.5" font-family="Helvetica,sans-Serif" font-size="10.00" fill="#000000">+ describe()</text>
</g>
<!-- Node2 -->
<g id="node2" class="node">
<title>Node2</title>
<g id="a_node2"><a xlink:href="../../d6/d30/classuint64__t.html" target="_top" xlink:title="{uint64_t\n||}">
<polygon fill="none" stroke="#000000" points="33.0771,-694.5 33.0771,-751.5 89.0771,-751.5 89.0771,-694.5 33.0771,-694.5"/>
<text text-anchor="middle" x="61.0771" y="-739.5" font-family="Helvetica,sans-Serif" font-size="10.00" fill="#000000">uint64_t</text>
<polyline fill="none" stroke="#000000" points="33.0771,-732.5 89.0771,-732.5 "/>
<text text-anchor="middle" x="61.0771" y="-720.5" font-family="Helvetica,sans-Serif" font-size="10.00" fill="#000000"> </text>
<polyline fill="none" stroke="#000000" points="33.0771,-713.5 89.0771,-713.5 "/>
<text text-anchor="middle" x="61.0771" y="-701.5" font-family="Helvetica,sans-Serif" font-size="10.00" fill="#000000"> </text>
</a>
</g>
</g>
<!-- Node2&#45;&gt;Node1 -->
<g id="edge1" class="edge">
<title>Node2&#45;&gt;Node1</title>
<path fill="none" stroke="#404040" d="M49.5682,-694.2253C20.6654,-616.7883 -45.9817,-400.994 51.0771,-270 110.345,-190.0099 400.7131,-132.0388 544.7456,-107.7024"/>
<polygon fill="none" stroke="#404040" points="545.1215,-107.6396 550.3796,-102.7048 556.9571,-105.6605 551.699,-110.5953 545.1215,-107.6396"/>
<text text-anchor="middle" x="83.0771" y="-384.5" font-family="Helvetica,sans-Serif" font-size="10.00" fill="#000000"> +spec</text>
<text text-anchor="middle" x="83.0771" y="-373.5" font-family="Helvetica,sans-Serif" font-size="10.00" fill="#000000">+nCRUPages</text>
</g>
<!-- Node13 -->
<g id="node13" class="node">
<title>Node13</title>
<g id="a_node13"><a xlink:href="../../d3/d22/structo2_1_1header_1_1RDHAny.html" target="_top" xlink:title="{o2::header::RDHAny\n||+ RDHAny()\l+ RDHAny()\l+ operator=()\l+ GPUhdi()\l+ GPUhdi()\l+ GPUhdi()\l+ GPUhdi()\l+ GPUhdi()\l+ GPUhdi()\l+ GPUhdi()\l+ GPUhdi()\l# copyFrom()\l}">
<polygon fill="none" stroke="#000000" points="124.5771,-292.5 124.5771,-470.5 239.5771,-470.5 239.5771,-292.5 124.5771,-292.5"/>
<text text-anchor="middle" x="182.0771" y="-458.5" font-family="Helvetica,sans-Serif" font-size="10.00" fill="#000000">o2::header::RDHAny</text>
<polyline fill="none" stroke="#000000" points="124.5771,-451.5 239.5771,-451.5 "/>
<text text-anchor="middle" x="182.0771" y="-439.5" font-family="Helvetica,sans-Serif" font-size="10.00" fill="#000000"> </text>
<polyline fill="none" stroke="#000000" points="124.5771,-432.5 239.5771,-432.5 "/>
<text text-anchor="start" x="132.5771" y="-420.5" font-family="Helvetica,sans-Serif" font-size="10.00" fill="#000000">+ RDHAny()</text>
<text text-anchor="start" x="132.5771" y="-409.5" font-family="Helvetica,sans-Serif" font-size="10.00" fill="#000000">+ RDHAny()</text>
<text text-anchor="start" x="132.5771" y="-398.5" font-family="Helvetica,sans-Serif" font-size="10.00" fill="#000000">+ operator=()</text>
<text text-anchor="start" x="132.5771" y="-387.5" font-family="Helvetica,sans-Serif" font-size="10.00" fill="#000000">+ GPUhdi()</text>
<text text-anchor="start" x="132.5771" y="-376.5" font-family="Helvetica,sans-Serif" font-size="10.00" fill="#000000">+ GPUhdi()</text>
<text text-anchor="start" x="132.5771" y="-365.5" font-family="Helvetica,sans-Serif" font-size="10.00" fill="#000000">+ GPUhdi()</text>
<text text-anchor="start" x="132.5771" y="-354.5" font-family="Helvetica,sans-Serif" font-size="10.00" fill="#000000">+ GPUhdi()</text>
<text text-anchor="start" x="132.5771" y="-343.5" font-family="Helvetica,sans-Serif" font-size="10.00" fill="#000000">+ GPUhdi()</text>
<text text-anchor="start" x="132.5771" y="-332.5" font-family="Helvetica,sans-Serif" font-size="10.00" fill="#000000">+ GPUhdi()</text>
<text text-anchor="start" x="132.5771" y="-321.5" font-family="Helvetica,sans-Serif" font-size="10.00" fill="#000000">+ GPUhdi()</text>
<text text-anchor="start" x="132.5771" y="-310.5" font-family="Helvetica,sans-Serif" font-size="10.00" fill="#000000">+ GPUhdi()</text>
<text text-anchor="start" x="132.5771" y="-299.5" font-family="Helvetica,sans-Serif" font-size="10.00" fill="#000000"># copyFrom()</text>
</a>
</g>
</g>
<!-- Node2&#45;&gt;Node13 -->
<g id="edge23" class="edge">
<title>Node2&#45;&gt;Node13</title>
<path fill="none" stroke="#404040" d="M60.8869,-694.3683C61.0397,-643.7712 63.6905,-541.0501 82.0771,-511 89.7984,-498.3807 99.6055,-503.4503 110.0771,-493 114.1445,-488.9409 118.1026,-484.6146 121.9343,-480.1116"/>
<polygon fill="none" stroke="#404040" points="122.0525,-479.966 122.7288,-472.7866 129.616,-470.6496 128.9397,-477.8289 122.0525,-479.966"/>
<text text-anchor="middle" x="103.0771" y="-591" font-family="Helvetica,sans-Serif" font-size="10.00" fill="#000000"> +word7</text>
<text text-anchor="middle" x="103.0771" y="-580" font-family="Helvetica,sans-Serif" font-size="10.00" fill="#000000">+word0</text>
<text text-anchor="middle" x="103.0771" y="-569" font-family="Helvetica,sans-Serif" font-size="10.00" fill="#000000">+word1</text>
<text text-anchor="middle" x="103.0771" y="-558" font-family="Helvetica,sans-Serif" font-size="10.00" fill="#000000">+word2</text>
<text text-anchor="middle" x="103.0771" y="-547" font-family="Helvetica,sans-Serif" font-size="10.00" fill="#000000">+word3</text>
<text text-anchor="middle" x="103.0771" y="-536" font-family="Helvetica,sans-Serif" font-size="10.00" fill="#000000">+word4</text>
<text text-anchor="middle" x="103.0771" y="-525" font-family="Helvetica,sans-Serif" font-size="10.00" fill="#000000">+word5</text>
<text text-anchor="middle" x="103.0771" y="-514" font-family="Helvetica,sans-Serif" font-size="10.00" fill="#000000">+word6</text>
</g>
<!-- Node3 -->
<g id="node3" class="node">
<title>Node3</title>
<g id="a_node3"><a xlink:href="../../d9/db3/structo2_1_1header_1_1Descriptor.html" target="_top" xlink:title="{o2::header::Descriptor\l\&lt; gSizeDataOriginString,\l printDataOrigin \&gt;\n||+ Descriptor()\l+ Descriptor()\l+ Descriptor()\l+ Descriptor()\l+ operator=()\l+ operator ItgType()\l+ runtimeInit()\l+ operator==()\l+ operator==()\l+ operator\&lt;()\l+ operator!=()\l+ operator!=()\l+ as()\l+ print()\l}">
<polygon fill="none" stroke="#000000" points="440.0771,-270.5 440.0771,-492.5 578.0771,-492.5 578.0771,-270.5 440.0771,-270.5"/>
<text text-anchor="start" x="448.0771" y="-480.5" font-family="Helvetica,sans-Serif" font-size="10.00" fill="#000000">o2::header::Descriptor</text>
<text text-anchor="start" x="448.0771" y="-469.5" font-family="Helvetica,sans-Serif" font-size="10.00" fill="#000000">&lt; gSizeDataOriginString,</text>
<text text-anchor="middle" x="509.0771" y="-458.5" font-family="Helvetica,sans-Serif" font-size="10.00" fill="#000000"> printDataOrigin &gt;</text>
<polyline fill="none" stroke="#000000" points="440.0771,-451.5 578.0771,-451.5 "/>
<text text-anchor="middle" x="509.0771" y="-439.5" font-family="Helvetica,sans-Serif" font-size="10.00" fill="#000000"> </text>
<polyline fill="none" stroke="#000000" points="440.0771,-432.5 578.0771,-432.5 "/>
<text text-anchor="start" x="448.0771" y="-420.5" font-family="Helvetica,sans-Serif" font-size="10.00" fill="#000000">+ Descriptor()</text>
<text text-anchor="start" x="448.0771" y="-409.5" font-family="Helvetica,sans-Serif" font-size="10.00" fill="#000000">+ Descriptor()</text>
<text text-anchor="start" x="448.0771" y="-398.5" font-family="Helvetica,sans-Serif" font-size="10.00" fill="#000000">+ Descriptor()</text>
<text text-anchor="start" x="448.0771" y="-387.5" font-family="Helvetica,sans-Serif" font-size="10.00" fill="#000000">+ Descriptor()</text>
<text text-anchor="start" x="448.0771" y="-376.5" font-family="Helvetica,sans-Serif" font-size="10.00" fill="#000000">+ operator=()</text>
<text text-anchor="start" x="448.0771" y="-365.5" font-family="Helvetica,sans-Serif" font-size="10.00" fill="#000000">+ operator ItgType()</text>
<text text-anchor="start" x="448.0771" y="-354.5" font-family="Helvetica,sans-Serif" font-size="10.00" fill="#000000">+ runtimeInit()</text>
<text text-anchor="start" x="448.0771" y="-343.5" font-family="Helvetica,sans-Serif" font-size="10.00" fill="#000000">+ operator==()</text>
<text text-anchor="start" x="448.0771" y="-332.5" font-family="Helvetica,sans-Serif" font-size="10.00" fill="#000000">+ operator==()</text>
<text text-anchor="start" x="448.0771" y="-321.5" font-family="Helvetica,sans-Serif" font-size="10.00" fill="#000000">+ operator&lt;()</text>
<text text-anchor="start" x="448.0771" y="-310.5" font-family="Helvetica,sans-Serif" font-size="10.00" fill="#000000">+ operator!=()</text>
<text text-anchor="start" x="448.0771" y="-299.5" font-family="Helvetica,sans-Serif" font-size="10.00" fill="#000000">+ operator!=()</text>
<text text-anchor="start" x="448.0771" y="-288.5" font-family="Helvetica,sans-Serif" font-size="10.00" fill="#000000">+ as()</text>
<text text-anchor="start" x="448.0771" y="-277.5" font-family="Helvetica,sans-Serif" font-size="10.00" fill="#000000">+ print()</text>
</a>
</g>
</g>
<!-- Node3&#45;&gt;Node1 -->
<g id="edge2" class="edge">
<title>Node3&#45;&gt;Node1</title>
<path fill="none" stroke="#404040" d="M554.4798,-270.3216C563.7664,-247.5813 573.5172,-223.7044 582.7295,-201.146"/>
<polygon fill="none" stroke="#404040" points="582.811,-200.9463 581.3763,-193.8793 587.3479,-189.837 588.7825,-196.9039 582.811,-200.9463"/>
<text text-anchor="middle" x="597.0771" y="-227.5" font-family="Helvetica,sans-Serif" font-size="10.00" fill="#000000"> +origin</text>
</g>
<!-- Node4 -->
<g id="node4" class="node">
<title>Node4</title>
<polygon fill="none" stroke="#bfbfbf" points="179.5771,-898.5 179.5771,-955.5 218.5771,-955.5 218.5771,-898.5 179.5771,-898.5"/>
<text text-anchor="middle" x="199.0771" y="-943.5" font-family="Helvetica,sans-Serif" font-size="10.00" fill="#000000">Type</text>
<polyline fill="none" stroke="#bfbfbf" points="179.5771,-936.5 218.5771,-936.5 "/>
<text text-anchor="middle" x="199.0771" y="-924.5" font-family="Helvetica,sans-Serif" font-size="10.00" fill="#000000"> </text>
<polyline fill="none" stroke="#bfbfbf" points="179.5771,-917.5 218.5771,-917.5 "/>
<text text-anchor="middle" x="199.0771" y="-905.5" font-family="Helvetica,sans-Serif" font-size="10.00" fill="#000000"> </text>
</g>
<!-- Node4&#45;&gt;Node3 -->
<g id="edge3" class="edge">
<title>Node4&#45;&gt;Node3</title>
<path fill="none" stroke="#404040" d="M197.8367,-898.2523C194.8235,-812.5566 191.1879,-561.6582 249.0771,-511 277.3918,-486.2221 379.2037,-509.4882 429.057,-492.1392"/>
<polygon fill="none" stroke="#404040" points="429.0697,-492.1334 432.8599,-485.9987 439.9805,-487.1378 436.1903,-493.2725 429.0697,-492.1334"/>
<text text-anchor="middle" x="221.5771" y="-720.5" font-family="Helvetica,sans-Serif" font-size="10.00" fill="#000000"> +itg</text>
</g>
<!-- Node8 -->
<g id="node8" class="node">
<title>Node8</title>
<g id="a_node8"><a xlink:href="../../d9/db3/structo2_1_1header_1_1Descriptor.html" target="_top" xlink:title="{o2::header::Descriptor\l\&lt; N, PrinterPolicy \&gt;\n||+ Descriptor()\l+ Descriptor()\l+ Descriptor()\l+ operator=()\l+ operator ItgType()\l+ Descriptor()\l+ runtimeInit()\l+ operator==()\l+ operator\&lt;()\l+ operator!=()\l+ operator==()\l+ operator!=()\l+ as()\l+ print()\l}">
<polygon fill="none" stroke="#000000" points="365.5771,-617.5 365.5771,-828.5 490.5771,-828.5 490.5771,-617.5 365.5771,-617.5"/>
<text text-anchor="start" x="373.5771" y="-816.5" font-family="Helvetica,sans-Serif" font-size="10.00" fill="#000000">o2::header::Descriptor</text>
<text text-anchor="middle" x="428.0771" y="-805.5" font-family="Helvetica,sans-Serif" font-size="10.00" fill="#000000">&lt; N, PrinterPolicy &gt;</text>
<polyline fill="none" stroke="#000000" points="365.5771,-798.5 490.5771,-798.5 "/>
<text text-anchor="middle" x="428.0771" y="-786.5" font-family="Helvetica,sans-Serif" font-size="10.00" fill="#000000"> </text>
<polyline fill="none" stroke="#000000" points="365.5771,-779.5 490.5771,-779.5 "/>
<text text-anchor="start" x="373.5771" y="-767.5" font-family="Helvetica,sans-Serif" font-size="10.00" fill="#000000">+ Descriptor()</text>
<text text-anchor="start" x="373.5771" y="-756.5" font-family="Helvetica,sans-Serif" font-size="10.00" fill="#000000">+ Descriptor()</text>
<text text-anchor="start" x="373.5771" y="-745.5" font-family="Helvetica,sans-Serif" font-size="10.00" fill="#000000">+ Descriptor()</text>
<text text-anchor="start" x="373.5771" y="-734.5" font-family="Helvetica,sans-Serif" font-size="10.00" fill="#000000">+ operator=()</text>
<text text-anchor="start" x="373.5771" y="-723.5" font-family="Helvetica,sans-Serif" font-size="10.00" fill="#000000">+ operator ItgType()</text>
<text text-anchor="start" x="373.5771" y="-712.5" font-family="Helvetica,sans-Serif" font-size="10.00" fill="#000000">+ Descriptor()</text>
<text text-anchor="start" x="373.5771" y="-701.5" font-family="Helvetica,sans-Serif" font-size="10.00" fill="#000000">+ runtimeInit()</text>
<text text-anchor="start" x="373.5771" y="-690.5" font-family="Helvetica,sans-Serif" font-size="10.00" fill="#000000">+ operator==()</text>
<text text-anchor="start" x="373.5771" y="-679.5" font-family="Helvetica,sans-Serif" font-size="10.00" fill="#000000">+ operator&lt;()</text>
<text text-anchor="start" x="373.5771" y="-668.5" font-family="Helvetica,sans-Serif" font-size="10.00" fill="#000000">+ operator!=()</text>
<text text-anchor="start" x="373.5771" y="-657.5" font-family="Helvetica,sans-Serif" font-size="10.00" fill="#000000">+ operator==()</text>
<text text-anchor="start" x="373.5771" y="-646.5" font-family="Helvetica,sans-Serif" font-size="10.00" fill="#000000">+ operator!=()</text>
<text text-anchor="start" x="373.5771" y="-635.5" font-family="Helvetica,sans-Serif" font-size="10.00" fill="#000000">+ as()</text>
<text text-anchor="start" x="373.5771" y="-624.5" font-family="Helvetica,sans-Serif" font-size="10.00" fill="#000000">+ print()</text>
</a>
</g>
</g>
<!-- Node4&#45;&gt;Node8 -->
<g id="edge8" class="edge">
<title>Node4&#45;&gt;Node8</title>
<path fill="none" stroke="#404040" d="M218.6015,-909.6071C248.7804,-882.7228 308.2764,-829.722 356.174,-787.0534"/>
<polygon fill="none" stroke="#404040" points="356.3191,-786.9241 358.1386,-779.9463 365.2794,-778.942 363.46,-785.9198 356.3191,-786.9241"/>
<text text-anchor="middle" x="299.5771" y="-861" font-family="Helvetica,sans-Serif" font-size="10.00" fill="#000000"> +itg</text>
</g>
<!-- Node9 -->
<g id="node9" class="node">
<title>Node9</title>
<g id="a_node9"><a xlink:href="../../d9/db3/structo2_1_1header_1_1Descriptor.html" target="_top" xlink:title="{o2::header::Descriptor\l\&lt; gSizeDataDescriptionString,\l printDataDescription \&gt;\n||+ Descriptor()\l+ Descriptor()\l+ Descriptor()\l+ Descriptor()\l+ operator=()\l+ operator ItgType()\l+ runtimeInit()\l+ operator==()\l+ operator==()\l+ operator\&lt;()\l+ operator!=()\l+ operator!=()\l+ as()\l+ print()\l}">
<polygon fill="none" stroke="#000000" points="258.0771,-270.5 258.0771,-492.5 422.0771,-492.5 422.0771,-270.5 258.0771,-270.5"/>
<text text-anchor="start" x="266.0771" y="-480.5" font-family="Helvetica,sans-Serif" font-size="10.00" fill="#000000">o2::header::Descriptor</text>
<text text-anchor="start" x="266.0771" y="-469.5" font-family="Helvetica,sans-Serif" font-size="10.00" fill="#000000">&lt; gSizeDataDescriptionString,</text>
<text text-anchor="middle" x="340.0771" y="-458.5" font-family="Helvetica,sans-Serif" font-size="10.00" fill="#000000"> printDataDescription &gt;</text>
<polyline fill="none" stroke="#000000" points="258.0771,-451.5 422.0771,-451.5 "/>
<text text-anchor="middle" x="340.0771" y="-439.5" font-family="Helvetica,sans-Serif" font-size="10.00" fill="#000000"> </text>
<polyline fill="none" stroke="#000000" points="258.0771,-432.5 422.0771,-432.5 "/>
<text text-anchor="start" x="266.0771" y="-420.5" font-family="Helvetica,sans-Serif" font-size="10.00" fill="#000000">+ Descriptor()</text>
<text text-anchor="start" x="266.0771" y="-409.5" font-family="Helvetica,sans-Serif" font-size="10.00" fill="#000000">+ Descriptor()</text>
<text text-anchor="start" x="266.0771" y="-398.5" font-family="Helvetica,sans-Serif" font-size="10.00" fill="#000000">+ Descriptor()</text>
<text text-anchor="start" x="266.0771" y="-387.5" font-family="Helvetica,sans-Serif" font-size="10.00" fill="#000000">+ Descriptor()</text>
<text text-anchor="start" x="266.0771" y="-376.5" font-family="Helvetica,sans-Serif" font-size="10.00" fill="#000000">+ operator=()</text>
<text text-anchor="start" x="266.0771" y="-365.5" font-family="Helvetica,sans-Serif" font-size="10.00" fill="#000000">+ operator ItgType()</text>
<text text-anchor="start" x="266.0771" y="-354.5" font-family="Helvetica,sans-Serif" font-size="10.00" fill="#000000">+ runtimeInit()</text>
<text text-anchor="start" x="266.0771" y="-343.5" font-family="Helvetica,sans-Serif" font-size="10.00" fill="#000000">+ operator==()</text>
<text text-anchor="start" x="266.0771" y="-332.5" font-family="Helvetica,sans-Serif" font-size="10.00" fill="#000000">+ operator==()</text>
<text text-anchor="start" x="266.0771" y="-321.5" font-family="Helvetica,sans-Serif" font-size="10.00" fill="#000000">+ operator&lt;()</text>
<text text-anchor="start" x="266.0771" y="-310.5" font-family="Helvetica,sans-Serif" font-size="10.00" fill="#000000">+ operator!=()</text>
<text text-anchor="start" x="266.0771" y="-299.5" font-family="Helvetica,sans-Serif" font-size="10.00" fill="#000000">+ operator!=()</text>
<text text-anchor="start" x="266.0771" y="-288.5" font-family="Helvetica,sans-Serif" font-size="10.00" fill="#000000">+ as()</text>
<text text-anchor="start" x="266.0771" y="-277.5" font-family="Helvetica,sans-Serif" font-size="10.00" fill="#000000">+ print()</text>
</a>
</g>
</g>
<!-- Node4&#45;&gt;Node9 -->
<g id="edge13" class="edge">
<title>Node4&#45;&gt;Node9</title>
<path fill="none" stroke="#404040" d="M181.0482,-898.2415C170.2982,-879.3505 157.6837,-853.6555 152.0771,-829 131.1847,-737.1233 137.9124,-710.1514 152.0771,-617 159.4947,-568.2194 149.7798,-545.4771 185.0771,-511 205.909,-490.6522 223.7128,-508.9493 248.0771,-493 248.1821,-492.9313 248.287,-492.8624 248.3919,-492.7934"/>
<polygon fill="none" stroke="#404040" points="248.2056,-492.9265 250.7613,-486.1834 257.9686,-485.949 255.413,-492.6921 248.2056,-492.9265"/>
<text text-anchor="middle" x="164.5771" y="-720.5" font-family="Helvetica,sans-Serif" font-size="10.00" fill="#000000"> +itg</text>
</g>
<!-- Node5 -->
<g id="node5" class="node">
<title>Node5</title>
<polygon fill="none" stroke="#bfbfbf" points="578.0771,-898.5 578.0771,-955.5 616.0771,-955.5 616.0771,-898.5 578.0771,-898.5"/>
<text text-anchor="middle" x="597.0771" y="-943.5" font-family="Helvetica,sans-Serif" font-size="10.00" fill="#000000">char</text>
<polyline fill="none" stroke="#bfbfbf" points="578.0771,-936.5 616.0771,-936.5 "/>
<text text-anchor="middle" x="597.0771" y="-924.5" font-family="Helvetica,sans-Serif" font-size="10.00" fill="#000000"> </text>
<polyline fill="none" stroke="#bfbfbf" points="578.0771,-917.5 616.0771,-917.5 "/>
<text text-anchor="middle" x="597.0771" y="-905.5" font-family="Helvetica,sans-Serif" font-size="10.00" fill="#000000"> </text>
</g>
<!-- Node5&#45;&gt;Node3 -->
<g id="edge4" class="edge">
<title>Node5&#45;&gt;Node3</title>
<path fill="none" stroke="#404040" d="M607.6999,-898.2826C632.1343,-827.0267 684.7937,-638.6619 611.0771,-511 604.5861,-499.759 597.0345,-502.3946 588.0771,-493 587.4478,-492.34 586.8196,-491.6747 586.1926,-491.0044"/>
<polygon fill="none" stroke="#404040" points="586.1461,-490.9527 579.159,-489.169 578.1181,-482.0334 585.1052,-483.8171 586.1461,-490.9527"/>
<text text-anchor="middle" x="660.5771" y="-720.5" font-family="Helvetica,sans-Serif" font-size="10.00" fill="#000000"> +str</text>
</g>
<!-- Node5&#45;&gt;Node8 -->
<g id="edge9" class="edge">
<title>Node5&#45;&gt;Node8</title>
<path fill="none" stroke="#404040" d="M578.007,-908.1305C558.8622,-888.8605 528.8739,-857.7723 505.0771,-829 502.8346,-826.2887 500.5821,-823.518 498.3287,-820.7051"/>
<polygon fill="none" stroke="#404040" points="498.1086,-820.4259 491.2525,-818.1912 490.6784,-811.003 497.5345,-813.2377 498.1086,-820.4259"/>
<text text-anchor="middle" x="561.5771" y="-861" font-family="Helvetica,sans-Serif" font-size="10.00" fill="#000000"> +str</text>
</g>
<!-- Node5&#45;&gt;Node9 -->
<g id="edge14" class="edge">
<title>Node5&#45;&gt;Node9</title>
<path fill="none" stroke="#404040" d="M596.7441,-898.3745C595.4224,-808.8544 589.2003,-538.5199 562.0771,-511 523.402,-471.7593 487.1497,-515.5542 433.1541,-492.9062"/>
<polygon fill="none" stroke="#404040" points="432.8693,-492.7654 425.7179,-493.6915 422.1124,-487.4464 429.2639,-486.5203 432.8693,-492.7654"/>
<text text-anchor="middle" x="607.5771" y="-720.5" font-family="Helvetica,sans-Serif" font-size="10.00" fill="#000000"> +str</text>
</g>
<!-- Node6 -->
<g id="node6" class="node">
<title>Node6</title>
<polygon fill="none" stroke="#bfbfbf" points="770.5771,-898.5 770.5771,-955.5 799.5771,-955.5 799.5771,-898.5 770.5771,-898.5"/>
<text text-anchor="middle" x="785.0771" y="-943.5" font-family="Helvetica,sans-Serif" font-size="10.00" fill="#000000">int</text>
<polyline fill="none" stroke="#bfbfbf" points="770.5771,-936.5 799.5771,-936.5 "/>
<text text-anchor="middle" x="785.0771" y="-924.5" font-family="Helvetica,sans-Serif" font-size="10.00" fill="#000000"> </text>
<polyline fill="none" stroke="#bfbfbf" points="770.5771,-917.5 799.5771,-917.5 "/>
<text text-anchor="middle" x="785.0771" y="-905.5" font-family="Helvetica,sans-Serif" font-size="10.00" fill="#000000"> </text>
</g>
<!-- Node6&#45;&gt;Node1 -->
<g id="edge20" class="edge">
<title>Node6&#45;&gt;Node1</title>
<path fill="none" stroke="#404040" d="M799.8419,-918.1236C823.1321,-903.1505 867.5505,-870.4139 885.0771,-829 938.8618,-701.9109 963.9131,-323.2967 888.0771,-208 848.2653,-147.4724 768.4323,-119.2224 707.2989,-106.1247"/>
<polygon fill="none" stroke="#404040" points="707.1001,-106.0846 700.4254,-108.8137 695.339,-103.7022 702.0137,-100.973 707.1001,-106.0846"/>
<text text-anchor="middle" x="979.0771" y="-569" font-family="Helvetica,sans-Serif" font-size="10.00" fill="#000000"> +nHBFinTF</text>
<text text-anchor="middle" x="979.0771" y="-558" font-family="Helvetica,sans-Serif" font-size="10.00" fill="#000000">+nErrors</text>
<text text-anchor="middle" x="979.0771" y="-547" font-family="Helvetica,sans-Serif" font-size="10.00" fill="#000000">+fairMQChannel</text>
<text text-anchor="middle" x="979.0771" y="-536" font-family="Helvetica,sans-Serif" font-size="10.00" fill="#000000">+nextBlock2Read</text>
</g>
<!-- Node6&#45;&gt;Node3 -->
<g id="edge5" class="edge">
<title>Node6&#45;&gt;Node3</title>
<path fill="none" stroke="#404040" d="M794.0736,-898.2761C816.7567,-819.5117 866.1746,-600.0669 744.0771,-511 690.6652,-472.0375 652.3506,-522.6484 589.094,-492.2862"/>
<polygon fill="none" stroke="#404040" points="588.8417,-492.1495 581.6608,-492.8083 578.2907,-486.4331 585.4717,-485.7743 588.8417,-492.1495"/>
<text text-anchor="middle" x="852.0771" y="-731.5" font-family="Helvetica,sans-Serif" font-size="10.00" fill="#000000"> +arraySize</text>
<text text-anchor="middle" x="852.0771" y="-720.5" font-family="Helvetica,sans-Serif" font-size="10.00" fill="#000000">+size</text>
<text text-anchor="middle" x="852.0771" y="-709.5" font-family="Helvetica,sans-Serif" font-size="10.00" fill="#000000">+bitcount</text>
</g>
<!-- Node6&#45;&gt;Node8 -->
<g id="edge10" class="edge">
<title>Node6&#45;&gt;Node8</title>
<path fill="none" stroke="#404040" d="M770.2451,-920.5151C736.5732,-905.9604 651.5704,-870.1594 578.0771,-847 546.2059,-836.9567 532.8038,-847.6513 505.0771,-829 503.3579,-827.8435 501.6635,-826.6351 499.9944,-825.38"/>
<polygon fill="none" stroke="#404040" points="499.9669,-825.3572 492.7934,-824.6209 490.7141,-817.7161 497.8876,-818.4524 499.9669,-825.3572"/>
<text text-anchor="middle" x="698.0771" y="-872" font-family="Helvetica,sans-Serif" font-size="10.00" fill="#000000"> +arraySize</text>
<text text-anchor="middle" x="698.0771" y="-861" font-family="Helvetica,sans-Serif" font-size="10.00" fill="#000000">+size</text>
<text text-anchor="middle" x="698.0771" y="-850" font-family="Helvetica,sans-Serif" font-size="10.00" fill="#000000">+bitcount</text>
</g>
<!-- Node6&#45;&gt;Node9 -->
<g id="edge15" class="edge">
<title>Node6&#45;&gt;Node9</title>
<path fill="none" stroke="#404040" d="M773.9429,-898.3745C766.4437,-878.8875 756.4349,-852.4713 748.0771,-829 714.7446,-735.3916 726.1292,-703.4145 677.0771,-617 646.4261,-563.0025 640.9051,-540.1392 586.0771,-511 528.1859,-480.2328 495.5938,-521.3133 433.4691,-493.3206"/>
<polygon fill="none" stroke="#404040" points="433.0998,-493.1349 425.9421,-494.0115 422.38,-487.7416 429.5376,-486.865 433.0998,-493.1349"/>
<text text-anchor="middle" x="777.0771" y="-731.5" font-family="Helvetica,sans-Serif" font-size="10.00" fill="#000000"> +arraySize</text>
<text text-anchor="middle" x="777.0771" y="-720.5" font-family="Helvetica,sans-Serif" font-size="10.00" fill="#000000">+size</text>
<text text-anchor="middle" x="777.0771" y="-709.5" font-family="Helvetica,sans-Serif" font-size="10.00" fill="#000000">+bitcount</text>
</g>
<!-- Node7 -->
<g id="node7" class="node">
<title>Node7</title>
<polygon fill="none" stroke="#bfbfbf" points="374.5771,-898.5 374.5771,-955.5 481.5771,-955.5 481.5771,-898.5 374.5771,-898.5"/>
<text text-anchor="middle" x="428.0771" y="-943.5" font-family="Helvetica,sans-Serif" font-size="10.00" fill="#000000">anonymous:+@38</text>
<polyline fill="none" stroke="#bfbfbf" points="374.5771,-936.5 481.5771,-936.5 "/>
<text text-anchor="middle" x="428.0771" y="-924.5" font-family="Helvetica,sans-Serif" font-size="10.00" fill="#000000"> </text>
<polyline fill="none" stroke="#bfbfbf" points="374.5771,-917.5 481.5771,-917.5 "/>
<text text-anchor="middle" x="428.0771" y="-905.5" font-family="Helvetica,sans-Serif" font-size="10.00" fill="#000000"> </text>
</g>
<!-- Node7&#45;&gt;Node3 -->
<g id="edge6" class="edge">
<title>Node7&#45;&gt;Node3</title>
<path fill="none" stroke="#404040" d="M454.5837,-898.3877C470.1119,-879.9554 488.6632,-854.7035 499.0771,-829 535.1457,-739.9757 497.045,-702.3666 541.0771,-617 546.1214,-607.2204 554.0117,-609.2254 558.0771,-599 569.9332,-569.1793 568.9704,-535.8615 562.2484,-504.4395"/>
<polygon fill="none" stroke="#404040" points="562.1852,-504.1742 556.9039,-499.2643 559.4048,-492.5008 564.6862,-497.4107 562.1852,-504.1742"/>
<text text-anchor="middle" x="558.0771" y="-720.5" font-family="Helvetica,sans-Serif" font-size="10.00" fill="#000000"> +@38</text>
</g>
<!-- Node7&#45;&gt;Node8 -->
<g id="edge11" class="edge">
<title>Node7&#45;&gt;Node8</title>
<path fill="none" stroke="#404040" d="M428.0771,-898.2045C428.0771,-882.616 428.0771,-862.2061 428.0771,-840.8459"/>
<polygon fill="none" stroke="#404040" points="428.0772,-840.5491 424.0771,-834.5491 428.0771,-828.5491 432.0771,-834.5491 428.0772,-840.5491"/>
<text text-anchor="middle" x="445.0771" y="-861" font-family="Helvetica,sans-Serif" font-size="10.00" fill="#000000"> +@38</text>
</g>
<!-- Node7&#45;&gt;Node9 -->
<g id="edge16" class="edge">
<title>Node7&#45;&gt;Node9</title>
<path fill="none" stroke="#404040" d="M387.9788,-898.3085C365.7794,-880.578 339.2794,-856.078 322.0771,-829 264.5678,-738.4754 265.4927,-704.9837 249.0771,-599 243.0906,-560.3498 237.285,-548.2911 249.0771,-511 250.2784,-507.201 251.6355,-503.417 253.1271,-499.6583"/>
<polygon fill="none" stroke="#404040" points="253.2057,-499.477 251.925,-492.3805 257.9831,-488.469 259.2637,-495.5655 253.2057,-499.477"/>
<text text-anchor="middle" x="339.0771" y="-720.5" font-family="Helvetica,sans-Serif" font-size="10.00" fill="#000000"> +@38</text>
</g>
<!-- Node8&#45;&gt;Node3 -->
<g id="edge7" class="edge">
<title>Node8&#45;&gt;Node3</title>
<path fill="none" stroke="#ffa500" d="M420.2986,-607.1801C420.9936,-575.5081 424.3966,-541.5149 433.0771,-511 435.0029,-504.2301 437.3679,-497.4477 440.058,-490.7308"/>
<polygon fill="#ffa500" stroke="#ffa500" points="416.7964,-607.3292 420.1648,-617.3743 423.7958,-607.4211 416.7964,-607.3292"/>
<text text-anchor="start" x="433.0771" y="-558" font-family="Helvetica,sans-Serif" font-size="10.00" fill="#000000"> &lt; gSizeDataOriginString,</text>
<text text-anchor="middle" x="495.5771" y="-547" font-family="Helvetica,sans-Serif" font-size="10.00" fill="#000000"> printDataOrigin &gt;</text>
</g>
<!-- Node8&#45;&gt;Node9 -->
<g id="edge17" class="edge">
<title>Node8&#45;&gt;Node9</title>
<path fill="none" stroke="#ffa500" d="M357.6606,-657.2502C340.7684,-643.0762 322.3194,-628.8176 304.0771,-617 288.3927,-606.8395 276.0704,-614.7914 266.0771,-599 245.6545,-566.7283 250.8611,-528.1704 265.382,-492.5434"/>
<polygon fill="#ffa500" stroke="#ffa500" points="355.4194,-659.9388 365.3059,-663.7475 359.9524,-654.6047 355.4194,-659.9388"/>
<text text-anchor="start" x="266.0771" y="-558" font-family="Helvetica,sans-Serif" font-size="10.00" fill="#000000"> &lt; gSizeDataDescriptionString,</text>
<text text-anchor="middle" x="341.5771" y="-547" font-family="Helvetica,sans-Serif" font-size="10.00" fill="#000000"> printDataDescription &gt;</text>
</g>
<!-- Node9&#45;&gt;Node1 -->
<g id="edge12" class="edge">
<title>Node9&#45;&gt;Node1</title>
<path fill="none" stroke="#404040" d="M422.2248,-279.9385C425.1886,-276.5653 428.145,-273.2439 431.0771,-270 466.7884,-230.4909 510.6211,-190.5173 547.6775,-158.7677"/>
<polygon fill="none" stroke="#404040" points="547.8067,-158.6576 549.782,-151.7223 556.9435,-150.8782 554.9683,-157.8135 547.8067,-158.6576"/>
<text text-anchor="middle" x="524.0771" y="-227.5" font-family="Helvetica,sans-Serif" font-size="10.00" fill="#000000"> +description</text>
</g>
<!-- Node10 -->
<g id="node10" class="node">
<title>Node10</title>
<polygon fill="none" stroke="#bfbfbf" points="596.5771,-347.5 596.5771,-415.5 733.5771,-415.5 733.5771,-347.5 596.5771,-347.5"/>
<text text-anchor="start" x="604.5771" y="-403.5" font-family="Helvetica,sans-Serif" font-size="10.00" fill="#000000">vector&lt; o2::raw::RawFile</text>
<text text-anchor="middle" x="665.0771" y="-392.5" font-family="Helvetica,sans-Serif" font-size="10.00" fill="#000000">Reader::LinkBlock &gt;</text>
<polyline fill="none" stroke="#bfbfbf" points="596.5771,-385.5 733.5771,-385.5 "/>
<text text-anchor="middle" x="665.0771" y="-373.5" font-family="Helvetica,sans-Serif" font-size="10.00" fill="#000000"> </text>
<polyline fill="none" stroke="#bfbfbf" points="596.5771,-366.5 733.5771,-366.5 "/>
<text text-anchor="middle" x="665.0771" y="-354.5" font-family="Helvetica,sans-Serif" font-size="10.00" fill="#000000"> </text>
</g>
<!-- Node10&#45;&gt;Node1 -->
<g id="edge18" class="edge">
<title>Node10&#45;&gt;Node1</title>
<path fill="none" stroke="#404040" d="M660.4115,-347.226C655.5355,-311.4061 647.6353,-253.3699 640.6417,-201.9937"/>
<polygon fill="none" stroke="#404040" points="640.5978,-201.671 635.825,-196.2654 638.9792,-189.7807 643.7519,-195.1863 640.5978,-201.671"/>
<text text-anchor="middle" x="667.5771" y="-227.5" font-family="Helvetica,sans-Serif" font-size="10.00" fill="#000000"> +blocks</text>
</g>
<!-- Node11 -->
<g id="node11" class="node">
<title>Node11</title>
<g id="a_node11"><a xlink:href="../../d3/d87/classuint32__t.html" target="_top" xlink:title="{uint32_t\n||}">
<polygon fill="none" stroke="#000000" points="752.0771,-353 752.0771,-410 808.0771,-410 808.0771,-353 752.0771,-353"/>
<text text-anchor="middle" x="780.0771" y="-398" font-family="Helvetica,sans-Serif" font-size="10.00" fill="#000000">uint32_t</text>
<polyline fill="none" stroke="#000000" points="752.0771,-391 808.0771,-391 "/>
<text text-anchor="middle" x="780.0771" y="-379" font-family="Helvetica,sans-Serif" font-size="10.00" fill="#000000"> </text>
<polyline fill="none" stroke="#000000" points="752.0771,-372 808.0771,-372 "/>
<text text-anchor="middle" x="780.0771" y="-360" font-family="Helvetica,sans-Serif" font-size="10.00" fill="#000000"> </text>
</a>
</g>
</g>
<!-- Node11&#45;&gt;Node1 -->
<g id="edge19" class="edge">
<title>Node11&#45;&gt;Node1</title>
<path fill="none" stroke="#404040" d="M772.8298,-352.72C766.4938,-329.6998 756.2491,-296.9331 743.0771,-270 731.3283,-245.9772 716.7372,-221.3901 701.8884,-198.5239"/>
<polygon fill="none" stroke="#404040" points="701.8842,-198.5174 695.2445,-195.704 695.2878,-188.493 701.9275,-191.3064 701.8842,-198.5174"/>
<text text-anchor="middle" x="771.0771" y="-244" font-family="Helvetica,sans-Serif" font-size="10.00" fill="#000000"> +nTimeFrames</text>
<text text-anchor="middle" x="771.0771" y="-233" font-family="Helvetica,sans-Serif" font-size="10.00" fill="#000000">+nHBFrames</text>
<text text-anchor="middle" x="771.0771" y="-222" font-family="Helvetica,sans-Serif" font-size="10.00" fill="#000000">+nSPages</text>
<text text-anchor="middle" x="771.0771" y="-211" font-family="Helvetica,sans-Serif" font-size="10.00" fill="#000000">+subspec</text>
</g>
<!-- Node12 -->
<g id="node12" class="node">
<title>Node12</title>
<polygon fill="none" stroke="#bfbfbf" points="826.0771,-353 826.0771,-410 864.0771,-410 864.0771,-353 826.0771,-353"/>
<text text-anchor="middle" x="845.0771" y="-398" font-family="Helvetica,sans-Serif" font-size="10.00" fill="#000000">bool</text>
<polyline fill="none" stroke="#bfbfbf" points="826.0771,-391 864.0771,-391 "/>
<text text-anchor="middle" x="845.0771" y="-379" font-family="Helvetica,sans-Serif" font-size="10.00" fill="#000000"> </text>
<polyline fill="none" stroke="#bfbfbf" points="826.0771,-372 864.0771,-372 "/>
<text text-anchor="middle" x="845.0771" y="-360" font-family="Helvetica,sans-Serif" font-size="10.00" fill="#000000"> </text>
</g>
<!-- Node12&#45;&gt;Node1 -->
<g id="edge21" class="edge">
<title>Node12&#45;&gt;Node1</title>
<path fill="none" stroke="#404040" d="M846.8693,-352.9962C847.7471,-316.2413 844.28,-251.8456 814.0771,-208 788.0252,-170.1804 744.7984,-142.9165 706.3595,-124.6558"/>
<polygon fill="none" stroke="#404040" points="706.0452,-124.5118 698.924,-125.6468 695.1373,-119.5099 702.2586,-118.3749 706.0452,-124.5118"/>
<text text-anchor="middle" x="859.0771" y="-227.5" font-family="Helvetica,sans-Serif" font-size="10.00" fill="#000000"> +openHB</text>
</g>
<!-- Node13&#45;&gt;Node1 -->
<g id="edge22" class="edge">
<title>Node13&#45;&gt;Node1</title>
<path fill="none" stroke="#404040" d="M228.615,-292.4153C234.8576,-284.2954 241.6867,-276.6425 249.0771,-270 335.74,-192.1068 463.0769,-142.8505 545.2918,-117.0966"/>
<polygon fill="none" stroke="#404040" points="545.3656,-117.0739 549.9227,-111.4853 556.8342,-113.5424 552.2771,-119.131 545.3656,-117.0739"/>
<text text-anchor="middle" x="347.5771" y="-227.5" font-family="Helvetica,sans-Serif" font-size="10.00" fill="#000000"> +rdhl</text>
</g>
</g>
</svg>
