<?xml version="1.0" encoding="UTF-8" standalone="no"?>
<!DOCTYPE svg PUBLIC "-//W3C//DTD SVG 1.1//EN"
 "http://www.w3.org/Graphics/SVG/1.1/DTD/svg11.dtd">
<!-- Generated by graphviz version 2.40.1 (20161225.0304)
 -->
<!-- Title: o2::header::HeartbeatFrameEnvelope Pages: 1 -->
<svg width="1735pt" height="1025pt"
 viewBox="0.00 0.00 1735.12 1025.00" xmlns="http://www.w3.org/2000/svg" xmlns:xlink="http://www.w3.org/1999/xlink">
<g id="graph0" class="graph" transform="scale(1 1) rotate(0) translate(4 1021)">
<title>o2::header::HeartbeatFrameEnvelope</title>
<!-- Node2 -->
<g id="node1" class="node">
<title>Node2</title>
<polygon fill="#bfbfbf" stroke="#000000" points="1109.123,-.5 1109.123,-79.5 1268.123,-79.5 1268.123,-.5 1109.123,-.5"/>
<text text-anchor="start" x="1117.123" y="-67.5" font-family="Helvetica,sans-Serif" font-size="10.00" fill="#000000">o2::header::HeartbeatFrame</text>
<text text-anchor="middle" x="1188.623" y="-56.5" font-family="Helvetica,sans-Serif" font-size="10.00" fill="#000000">Envelope</text>
<polyline fill="none" stroke="#000000" points="1109.123,-49.5 1268.123,-49.5 "/>
<text text-anchor="middle" x="1188.623" y="-37.5" font-family="Helvetica,sans-Serif" font-size="10.00" fill="#000000"> </text>
<polyline fill="none" stroke="#000000" points="1109.123,-30.5 1268.123,-30.5 "/>
<text text-anchor="start" x="1117.123" y="-18.5" font-family="Helvetica,sans-Serif" font-size="10.00" fill="#000000">+ HeartbeatFrameEnvelope()</text>
<text text-anchor="start" x="1117.123" y="-7.5" font-family="Helvetica,sans-Serif" font-size="10.00" fill="#000000">+ HeartbeatFrameEnvelope()</text>
</g>
<!-- Node3 -->
<g id="node2" class="node">
<title>Node3</title>
<g id="a_node2"><a xlink:href="../../d8/dbd/structo2_1_1header_1_1BaseHeader.html" target="_top" xlink:title="the base header struct Every header type must begin (i.e. derive) with this. Don&#39;t use this struct di...">
<polygon fill="none" stroke="#000000" points="500.623,-149.5 500.623,-294.5 634.623,-294.5 634.623,-149.5 500.623,-149.5"/>
<text text-anchor="middle" x="567.623" y="-282.5" font-family="Helvetica,sans-Serif" font-size="10.00" fill="#000000">o2::header::BaseHeader</text>
<polyline fill="none" stroke="#000000" points="500.623,-275.5 634.623,-275.5 "/>
<text text-anchor="middle" x="567.623" y="-263.5" font-family="Helvetica,sans-Serif" font-size="10.00" fill="#000000"> </text>
<polyline fill="none" stroke="#000000" points="500.623,-256.5 634.623,-256.5 "/>
<text text-anchor="start" x="508.623" y="-244.5" font-family="Helvetica,sans-Serif" font-size="10.00" fill="#000000">+ BaseHeader()</text>
<text text-anchor="start" x="508.623" y="-233.5" font-family="Helvetica,sans-Serif" font-size="10.00" fill="#000000">+ BaseHeader()</text>
<text text-anchor="start" x="508.623" y="-222.5" font-family="Helvetica,sans-Serif" font-size="10.00" fill="#000000">+ BaseHeader()</text>
<text text-anchor="start" x="508.623" y="-211.5" font-family="Helvetica,sans-Serif" font-size="10.00" fill="#000000">+ size()</text>
<text text-anchor="start" x="508.623" y="-200.5" font-family="Helvetica,sans-Serif" font-size="10.00" fill="#000000">+ data()</text>
<text text-anchor="start" x="508.623" y="-189.5" font-family="Helvetica,sans-Serif" font-size="10.00" fill="#000000">+ next()</text>
<text text-anchor="start" x="508.623" y="-178.5" font-family="Helvetica,sans-Serif" font-size="10.00" fill="#000000">+ next()</text>
<text text-anchor="start" x="508.623" y="-167.5" font-family="Helvetica,sans-Serif" font-size="10.00" fill="#000000">+ get()</text>
<text text-anchor="start" x="508.623" y="-156.5" font-family="Helvetica,sans-Serif" font-size="10.00" fill="#000000">+ get()</text>
</a>
</g>
</g>
<!-- Node3&#45;&gt;Node2 -->
<g id="edge1" class="edge">
<title>Node3&#45;&gt;Node2</title>
<path fill="none" stroke="#191970" d="M644.3967,-199.4995C762.7989,-164.7987 988.8212,-98.557 1108.9521,-63.3496"/>
<polygon fill="none" stroke="#191970" points="643.2828,-196.1786 634.6709,-202.3499 645.2516,-202.8961 643.2828,-196.1786"/>
</g>
<!-- Node4 -->
<g id="node3" class="node">
<title>Node4</title>
<g id="a_node3"><a xlink:href="../../d9/db3/structo2_1_1header_1_1Descriptor.html" target="_top" xlink:title="{o2::header::Descriptor\l\&lt; gSizeHeaderDescriptionString \&gt;\n||+ Descriptor()\l+ Descriptor()\l+ Descriptor()\l+ Descriptor()\l+ operator=()\l+ operator ItgType()\l+ runtimeInit()\l+ operator==()\l+ operator==()\l+ operator\&lt;()\l+ operator!=()\l+ operator!=()\l+ as()\l+ print()\l}">
<polygon fill="none" stroke="#000000" points="73.123,-408.5 73.123,-619.5 258.123,-619.5 258.123,-408.5 73.123,-408.5"/>
<text text-anchor="start" x="81.123" y="-607.5" font-family="Helvetica,sans-Serif" font-size="10.00" fill="#000000">o2::header::Descriptor</text>
<text text-anchor="middle" x="165.623" y="-596.5" font-family="Helvetica,sans-Serif" font-size="10.00" fill="#000000">&lt; gSizeHeaderDescriptionString &gt;</text>
<polyline fill="none" stroke="#000000" points="73.123,-589.5 258.123,-589.5 "/>
<text text-anchor="middle" x="165.623" y="-577.5" font-family="Helvetica,sans-Serif" font-size="10.00" fill="#000000"> </text>
<polyline fill="none" stroke="#000000" points="73.123,-570.5 258.123,-570.5 "/>
<text text-anchor="start" x="81.123" y="-558.5" font-family="Helvetica,sans-Serif" font-size="10.00" fill="#000000">+ Descriptor()</text>
<text text-anchor="start" x="81.123" y="-547.5" font-family="Helvetica,sans-Serif" font-size="10.00" fill="#000000">+ Descriptor()</text>
<text text-anchor="start" x="81.123" y="-536.5" font-family="Helvetica,sans-Serif" font-size="10.00" fill="#000000">+ Descriptor()</text>
<text text-anchor="start" x="81.123" y="-525.5" font-family="Helvetica,sans-Serif" font-size="10.00" fill="#000000">+ Descriptor()</text>
<text text-anchor="start" x="81.123" y="-514.5" font-family="Helvetica,sans-Serif" font-size="10.00" fill="#000000">+ operator=()</text>
<text text-anchor="start" x="81.123" y="-503.5" font-family="Helvetica,sans-Serif" font-size="10.00" fill="#000000">+ operator ItgType()</text>
<text text-anchor="start" x="81.123" y="-492.5" font-family="Helvetica,sans-Serif" font-size="10.00" fill="#000000">+ runtimeInit()</text>
<text text-anchor="start" x="81.123" y="-481.5" font-family="Helvetica,sans-Serif" font-size="10.00" fill="#000000">+ operator==()</text>
<text text-anchor="start" x="81.123" y="-470.5" font-family="Helvetica,sans-Serif" font-size="10.00" fill="#000000">+ operator==()</text>
<text text-anchor="start" x="81.123" y="-459.5" font-family="Helvetica,sans-Serif" font-size="10.00" fill="#000000">+ operator&lt;()</text>
<text text-anchor="start" x="81.123" y="-448.5" font-family="Helvetica,sans-Serif" font-size="10.00" fill="#000000">+ operator!=()</text>
<text text-anchor="start" x="81.123" y="-437.5" font-family="Helvetica,sans-Serif" font-size="10.00" fill="#000000">+ operator!=()</text>
<text text-anchor="start" x="81.123" y="-426.5" font-family="Helvetica,sans-Serif" font-size="10.00" fill="#000000">+ as()</text>
<text text-anchor="start" x="81.123" y="-415.5" font-family="Helvetica,sans-Serif" font-size="10.00" fill="#000000">+ print()</text>
</a>
</g>
</g>
<!-- Node4&#45;&gt;Node3 -->
<g id="edge2" class="edge">
<title>Node4&#45;&gt;Node3</title>
<path fill="none" stroke="#404040" d="M245.0509,-408.3415C274.2141,-374.6457 309.3005,-339.317 346.623,-313 389.7368,-282.5994 444.5359,-259.9499 488.7797,-244.8509"/>
<polygon fill="none" stroke="#404040" points="488.9887,-244.7812 493.4145,-239.0881 500.372,-240.9838 495.9462,-246.677 488.9887,-244.7812"/>
<text text-anchor="middle" x="379.623" y="-349" font-family="Helvetica,sans-Serif" font-size="10.00" fill="#000000"> +description</text>
</g>
<!-- Node5 -->
<g id="node4" class="node">
<title>Node5</title>
<polygon fill="none" stroke="#bfbfbf" points="235.123,-959.5 235.123,-1016.5 274.123,-1016.5 274.123,-959.5 235.123,-959.5"/>
<text text-anchor="middle" x="254.623" y="-1004.5" font-family="Helvetica,sans-Serif" font-size="10.00" fill="#000000">Type</text>
<polyline fill="none" stroke="#bfbfbf" points="235.123,-997.5 274.123,-997.5 "/>
<text text-anchor="middle" x="254.623" y="-985.5" font-family="Helvetica,sans-Serif" font-size="10.00" fill="#000000"> </text>
<polyline fill="none" stroke="#bfbfbf" points="235.123,-978.5 274.123,-978.5 "/>
<text text-anchor="middle" x="254.623" y="-966.5" font-family="Helvetica,sans-Serif" font-size="10.00" fill="#000000"> </text>
</g>
<!-- Node5&#45;&gt;Node4 -->
<g id="edge3" class="edge">
<title>Node5&#45;&gt;Node4</title>
<path fill="none" stroke="#404040" d="M238.6957,-959.1602C228.1086,-942.2662 212.8238,-921.6373 194.623,-908 176.3893,-894.3381 159.6006,-908.7268 146.623,-890 118.552,-849.4936 130.1451,-726.2384 144.4135,-631.7786"/>
<polygon fill="none" stroke="#404040" points="144.4278,-631.6852 141.3886,-625.1458 146.2561,-619.8252 149.2952,-626.3646 144.4278,-631.6852"/>
<text text-anchor="middle" x="159.123" y="-781.5" font-family="Helvetica,sans-Serif" font-size="10.00" fill="#000000"> +itg</text>
</g>
<!-- Node9 -->
<g id="node8" class="node">
<title>Node9</title>
<g id="a_node8"><a xlink:href="../../d9/db3/structo2_1_1header_1_1Descriptor.html" target="_top" xlink:title="{o2::header::Descriptor\l\&lt; N, PrinterPolicy \&gt;\n||+ Descriptor()\l+ Descriptor()\l+ Descriptor()\l+ operator=()\l+ operator ItgType()\l+ Descriptor()\l+ runtimeInit()\l+ operator==()\l+ operator\&lt;()\l+ operator!=()\l+ operator==()\l+ operator!=()\l+ as()\l+ print()\l}">
<polygon fill="none" stroke="#000000" points="298.123,-678.5 298.123,-889.5 423.123,-889.5 423.123,-678.5 298.123,-678.5"/>
<text text-anchor="start" x="306.123" y="-877.5" font-family="Helvetica,sans-Serif" font-size="10.00" fill="#000000">o2::header::Descriptor</text>
<text text-anchor="middle" x="360.623" y="-866.5" font-family="Helvetica,sans-Serif" font-size="10.00" fill="#000000">&lt; N, PrinterPolicy &gt;</text>
<polyline fill="none" stroke="#000000" points="298.123,-859.5 423.123,-859.5 "/>
<text text-anchor="middle" x="360.623" y="-847.5" font-family="Helvetica,sans-Serif" font-size="10.00" fill="#000000"> </text>
<polyline fill="none" stroke="#000000" points="298.123,-840.5 423.123,-840.5 "/>
<text text-anchor="start" x="306.123" y="-828.5" font-family="Helvetica,sans-Serif" font-size="10.00" fill="#000000">+ Descriptor()</text>
<text text-anchor="start" x="306.123" y="-817.5" font-family="Helvetica,sans-Serif" font-size="10.00" fill="#000000">+ Descriptor()</text>
<text text-anchor="start" x="306.123" y="-806.5" font-family="Helvetica,sans-Serif" font-size="10.00" fill="#000000">+ Descriptor()</text>
<text text-anchor="start" x="306.123" y="-795.5" font-family="Helvetica,sans-Serif" font-size="10.00" fill="#000000">+ operator=()</text>
<text text-anchor="start" x="306.123" y="-784.5" font-family="Helvetica,sans-Serif" font-size="10.00" fill="#000000">+ operator ItgType()</text>
<text text-anchor="start" x="306.123" y="-773.5" font-family="Helvetica,sans-Serif" font-size="10.00" fill="#000000">+ Descriptor()</text>
<text text-anchor="start" x="306.123" y="-762.5" font-family="Helvetica,sans-Serif" font-size="10.00" fill="#000000">+ runtimeInit()</text>
<text text-anchor="start" x="306.123" y="-751.5" font-family="Helvetica,sans-Serif" font-size="10.00" fill="#000000">+ operator==()</text>
<text text-anchor="start" x="306.123" y="-740.5" font-family="Helvetica,sans-Serif" font-size="10.00" fill="#000000">+ operator&lt;()</text>
<text text-anchor="start" x="306.123" y="-729.5" font-family="Helvetica,sans-Serif" font-size="10.00" fill="#000000">+ operator!=()</text>
<text text-anchor="start" x="306.123" y="-718.5" font-family="Helvetica,sans-Serif" font-size="10.00" fill="#000000">+ operator==()</text>
<text text-anchor="start" x="306.123" y="-707.5" font-family="Helvetica,sans-Serif" font-size="10.00" fill="#000000">+ operator!=()</text>
<text text-anchor="start" x="306.123" y="-696.5" font-family="Helvetica,sans-Serif" font-size="10.00" fill="#000000">+ as()</text>
<text text-anchor="start" x="306.123" y="-685.5" font-family="Helvetica,sans-Serif" font-size="10.00" fill="#000000">+ print()</text>
</a>
</g>
</g>
<!-- Node5&#45;&gt;Node9 -->
<g id="edge8" class="edge">
<title>Node5&#45;&gt;Node9</title>
<path fill="none" stroke="#404040" d="M269.5853,-959.2045C277.8736,-943.2534 288.785,-922.2542 300.1644,-900.3542"/>
<polygon fill="none" stroke="#404040" points="300.2458,-900.1974 299.4629,-893.0289 305.7788,-889.5491 306.5617,-896.7176 300.2458,-900.1974"/>
<text text-anchor="middle" x="308.123" y="-922" font-family="Helvetica,sans-Serif" font-size="10.00" fill="#000000"> +itg</text>
</g>
<!-- Node11 -->
<g id="node10" class="node">
<title>Node11</title>
<g id="a_node10"><a xlink:href="../../d9/db3/structo2_1_1header_1_1Descriptor.html" target="_top" xlink:title="{o2::header::Descriptor\l\&lt; gSizeSerializationMethodString \&gt;\n||+ Descriptor()\l+ Descriptor()\l+ Descriptor()\l+ Descriptor()\l+ operator=()\l+ operator ItgType()\l+ runtimeInit()\l+ operator==()\l+ operator==()\l+ operator\&lt;()\l+ operator!=()\l+ operator!=()\l+ as()\l+ print()\l}">
<polygon fill="none" stroke="#000000" points="276.123,-408.5 276.123,-619.5 467.123,-619.5 467.123,-408.5 276.123,-408.5"/>
<text text-anchor="start" x="284.123" y="-607.5" font-family="Helvetica,sans-Serif" font-size="10.00" fill="#000000">o2::header::Descriptor</text>
<text text-anchor="middle" x="371.623" y="-596.5" font-family="Helvetica,sans-Serif" font-size="10.00" fill="#000000">&lt; gSizeSerializationMethodString &gt;</text>
<polyline fill="none" stroke="#000000" points="276.123,-589.5 467.123,-589.5 "/>
<text text-anchor="middle" x="371.623" y="-577.5" font-family="Helvetica,sans-Serif" font-size="10.00" fill="#000000"> </text>
<polyline fill="none" stroke="#000000" points="276.123,-570.5 467.123,-570.5 "/>
<text text-anchor="start" x="284.123" y="-558.5" font-family="Helvetica,sans-Serif" font-size="10.00" fill="#000000">+ Descriptor()</text>
<text text-anchor="start" x="284.123" y="-547.5" font-family="Helvetica,sans-Serif" font-size="10.00" fill="#000000">+ Descriptor()</text>
<text text-anchor="start" x="284.123" y="-536.5" font-family="Helvetica,sans-Serif" font-size="10.00" fill="#000000">+ Descriptor()</text>
<text text-anchor="start" x="284.123" y="-525.5" font-family="Helvetica,sans-Serif" font-size="10.00" fill="#000000">+ Descriptor()</text>
<text text-anchor="start" x="284.123" y="-514.5" font-family="Helvetica,sans-Serif" font-size="10.00" fill="#000000">+ operator=()</text>
<text text-anchor="start" x="284.123" y="-503.5" font-family="Helvetica,sans-Serif" font-size="10.00" fill="#000000">+ operator ItgType()</text>
<text text-anchor="start" x="284.123" y="-492.5" font-family="Helvetica,sans-Serif" font-size="10.00" fill="#000000">+ runtimeInit()</text>
<text text-anchor="start" x="284.123" y="-481.5" font-family="Helvetica,sans-Serif" font-size="10.00" fill="#000000">+ operator==()</text>
<text text-anchor="start" x="284.123" y="-470.5" font-family="Helvetica,sans-Serif" font-size="10.00" fill="#000000">+ operator==()</text>
<text text-anchor="start" x="284.123" y="-459.5" font-family="Helvetica,sans-Serif" font-size="10.00" fill="#000000">+ operator&lt;()</text>
<text text-anchor="start" x="284.123" y="-448.5" font-family="Helvetica,sans-Serif" font-size="10.00" fill="#000000">+ operator!=()</text>
<text text-anchor="start" x="284.123" y="-437.5" font-family="Helvetica,sans-Serif" font-size="10.00" fill="#000000">+ operator!=()</text>
<text text-anchor="start" x="284.123" y="-426.5" font-family="Helvetica,sans-Serif" font-size="10.00" fill="#000000">+ as()</text>
<text text-anchor="start" x="284.123" y="-415.5" font-family="Helvetica,sans-Serif" font-size="10.00" fill="#000000">+ print()</text>
</a>
</g>
</g>
<!-- Node5&#45;&gt;Node11 -->
<g id="edge15" class="edge">
<title>Node5&#45;&gt;Node11</title>
<path fill="none" stroke="#404040" d="M245.3328,-959.0829C228.1375,-899.4738 198.6918,-761.5316 263.623,-678 281.4947,-655.0087 305.8199,-680.3772 326.623,-660 335.2207,-651.5783 342.1843,-641.5552 347.823,-630.7631"/>
<polygon fill="none" stroke="#404040" points="347.9028,-630.5942 346.8509,-623.4602 353.0315,-619.7454 354.0834,-626.8794 347.9028,-630.5942"/>
<text text-anchor="middle" x="276.123" y="-781.5" font-family="Helvetica,sans-Serif" font-size="10.00" fill="#000000"> +itg</text>
</g>
<!-- Node6 -->
<g id="node5" class="node">
<title>Node6</title>
<polygon fill="none" stroke="#bfbfbf" points="74.623,-959.5 74.623,-1016.5 112.623,-1016.5 112.623,-959.5 74.623,-959.5"/>
<text text-anchor="middle" x="93.623" y="-1004.5" font-family="Helvetica,sans-Serif" font-size="10.00" fill="#000000">char</text>
<polyline fill="none" stroke="#bfbfbf" points="74.623,-997.5 112.623,-997.5 "/>
<text text-anchor="middle" x="93.623" y="-985.5" font-family="Helvetica,sans-Serif" font-size="10.00" fill="#000000"> </text>
<polyline fill="none" stroke="#bfbfbf" points="74.623,-978.5 112.623,-978.5 "/>
<text text-anchor="middle" x="93.623" y="-966.5" font-family="Helvetica,sans-Serif" font-size="10.00" fill="#000000"> </text>
</g>
<!-- Node6&#45;&gt;Node3 -->
<g id="edge12" class="edge">
<title>Node6&#45;&gt;Node3</title>
<path fill="none" stroke="#404040" d="M80.4826,-959.3959C40.5798,-867.8066 -68.6207,-577.8611 63.623,-408 117.0472,-339.3789 360.0828,-272.0323 488.1339,-240.5169"/>
<polygon fill="none" stroke="#404040" points="488.4995,-240.4277 493.3789,-235.1181 500.1567,-237.5801 495.2773,-242.8896 488.4995,-240.4277"/>
<text text-anchor="middle" x="36.623" y="-646.5" font-family="Helvetica,sans-Serif" font-size="10.00" fill="#000000"> +magicString</text>
</g>
<!-- Node6&#45;&gt;Node4 -->
<g id="edge4" class="edge">
<title>Node6&#45;&gt;Node4</title>
<path fill="none" stroke="#404040" d="M88.1607,-959.312C78.6642,-904.0263 62.2462,-779.2423 85.623,-678 89.2361,-662.3519 94.5554,-646.47 100.7636,-631.0606"/>
<polygon fill="none" stroke="#404040" points="100.7888,-631.0001 99.4203,-623.9201 105.4294,-619.9337 106.7979,-627.0138 100.7888,-631.0001"/>
<text text-anchor="middle" x="98.123" y="-781.5" font-family="Helvetica,sans-Serif" font-size="10.00" fill="#000000"> +str</text>
</g>
<!-- Node6&#45;&gt;Node9 -->
<g id="edge9" class="edge">
<title>Node6&#45;&gt;Node9</title>
<path fill="none" stroke="#404040" d="M112.7231,-978.4478C159.4825,-955.0228 276.4241,-896.1799 283.623,-890 285.4675,-888.4166 287.2922,-886.7806 289.0955,-885.0992"/>
<polygon fill="none" stroke="#404040" points="289.4034,-884.7942 290.8495,-877.7295 297.927,-876.3473 296.4808,-883.4119 289.4034,-884.7942"/>
<text text-anchor="middle" x="261.123" y="-922" font-family="Helvetica,sans-Serif" font-size="10.00" fill="#000000"> +str</text>
</g>
<!-- Node6&#45;&gt;Node11 -->
<g id="edge16" class="edge">
<title>Node6&#45;&gt;Node11</title>
<path fill="none" stroke="#404040" d="M112.7201,-970.5671C131.2297,-952.4144 158.3903,-922.1775 171.623,-890 189.6461,-846.1737 162.1922,-712.5518 194.623,-678 226.7265,-643.7968 260.9765,-687.9864 298.623,-660 309.7049,-651.7617 319.2129,-641.3701 327.3446,-629.9435"/>
<polygon fill="none" stroke="#404040" points="327.5231,-629.6735 327.4956,-622.4624 334.1413,-619.6635 334.1689,-626.8746 327.5231,-629.6735"/>
<text text-anchor="middle" x="207.123" y="-781.5" font-family="Helvetica,sans-Serif" font-size="10.00" fill="#000000"> +str</text>
</g>
<!-- Node7 -->
<g id="node6" class="node">
<title>Node7</title>
<polygon fill="none" stroke="#bfbfbf" points="576.123,-959.5 576.123,-1016.5 605.123,-1016.5 605.123,-959.5 576.123,-959.5"/>
<text text-anchor="middle" x="590.623" y="-1004.5" font-family="Helvetica,sans-Serif" font-size="10.00" fill="#000000">int</text>
<polyline fill="none" stroke="#bfbfbf" points="576.123,-997.5 605.123,-997.5 "/>
<text text-anchor="middle" x="590.623" y="-985.5" font-family="Helvetica,sans-Serif" font-size="10.00" fill="#000000"> </text>
<polyline fill="none" stroke="#bfbfbf" points="576.123,-978.5 605.123,-978.5 "/>
<text text-anchor="middle" x="590.623" y="-966.5" font-family="Helvetica,sans-Serif" font-size="10.00" fill="#000000"> </text>
</g>
<!-- Node7&#45;&gt;Node4 -->
<g id="edge5" class="edge">
<title>Node7&#45;&gt;Node4</title>
<path fill="none" stroke="#404040" d="M588.2318,-959.3432C585.5269,-942.7244 579.7859,-922.3183 567.623,-908 555.5242,-893.7573 540.6658,-905.0762 529.623,-890 473.4277,-813.2795 560.8639,-751.5866 500.623,-678 498.4805,-675.3829 388.9062,-638.8119 385.623,-638 337.2463,-626.0368 316.9067,-642.1736 269.2318,-620.6561"/>
<polygon fill="none" stroke="#404040" points="269.0493,-620.5667 261.9012,-621.5178 258.274,-615.2854 265.4221,-614.3343 269.0493,-620.5667"/>
<text text-anchor="middle" x="558.623" y="-792.5" font-family="Helvetica,sans-Serif" font-size="10.00" fill="#000000"> +arraySize</text>
<text text-anchor="middle" x="558.623" y="-781.5" font-family="Helvetica,sans-Serif" font-size="10.00" fill="#000000">+size</text>
<text text-anchor="middle" x="558.623" y="-770.5" font-family="Helvetica,sans-Serif" font-size="10.00" fill="#000000">+bitcount</text>
</g>
<!-- Node7&#45;&gt;Node9 -->
<g id="edge10" class="edge">
<title>Node7&#45;&gt;Node9</title>
<path fill="none" stroke="#404040" d="M575.8812,-980.9279C547.0522,-966.6168 482.143,-931.9868 437.623,-890 435.6398,-888.1297 433.6736,-886.2023 431.7271,-884.227"/>
<polygon fill="none" stroke="#404040" points="431.5457,-884.0341 424.5218,-882.4016 423.3272,-875.2901 430.3512,-876.9226 431.5457,-884.0341"/>
<text text-anchor="middle" x="534.623" y="-933" font-family="Helvetica,sans-Serif" font-size="10.00" fill="#000000"> +arraySize</text>
<text text-anchor="middle" x="534.623" y="-922" font-family="Helvetica,sans-Serif" font-size="10.00" fill="#000000">+size</text>
<text text-anchor="middle" x="534.623" y="-911" font-family="Helvetica,sans-Serif" font-size="10.00" fill="#000000">+bitcount</text>
</g>
<!-- Node7&#45;&gt;Node11 -->
<g id="edge17" class="edge">
<title>Node7&#45;&gt;Node11</title>
<path fill="none" stroke="#404040" d="M605.1358,-973.6688C622.0192,-955.8733 648.9421,-923.7226 659.623,-890 688.0727,-800.1755 711.5925,-756.5938 659.623,-678 614.454,-609.6907 556.5074,-656.1905 478.3713,-620.6783"/>
<polygon fill="none" stroke="#404040" points="477.946,-620.4658 470.7908,-621.3625 467.2112,-615.1026 474.3663,-614.2059 477.946,-620.4658"/>
<text text-anchor="middle" x="719.623" y="-792.5" font-family="Helvetica,sans-Serif" font-size="10.00" fill="#000000"> +arraySize</text>
<text text-anchor="middle" x="719.623" y="-781.5" font-family="Helvetica,sans-Serif" font-size="10.00" fill="#000000">+size</text>
<text text-anchor="middle" x="719.623" y="-770.5" font-family="Helvetica,sans-Serif" font-size="10.00" fill="#000000">+bitcount</text>
</g>
<!-- Node8 -->
<g id="node7" class="node">
<title>Node8</title>
<polygon fill="none" stroke="#bfbfbf" points="406.123,-959.5 406.123,-1016.5 513.123,-1016.5 513.123,-959.5 406.123,-959.5"/>
<text text-anchor="middle" x="459.623" y="-1004.5" font-family="Helvetica,sans-Serif" font-size="10.00" fill="#000000">anonymous:+@38</text>
<polyline fill="none" stroke="#bfbfbf" points="406.123,-997.5 513.123,-997.5 "/>
<text text-anchor="middle" x="459.623" y="-985.5" font-family="Helvetica,sans-Serif" font-size="10.00" fill="#000000"> </text>
<polyline fill="none" stroke="#bfbfbf" points="406.123,-978.5 513.123,-978.5 "/>
<text text-anchor="middle" x="459.623" y="-966.5" font-family="Helvetica,sans-Serif" font-size="10.00" fill="#000000"> </text>
</g>
<!-- Node8&#45;&gt;Node4 -->
<g id="edge6" class="edge">
<title>Node8&#45;&gt;Node4</title>
<path fill="none" stroke="#404040" d="M460.7609,-959.2751C462.8872,-891.0731 464.6081,-721.8225 431.623,-678 402.0901,-638.764 375.1374,-653.7501 328.623,-638 304.6302,-629.8759 293.79,-633.6806 268.9365,-620.6951"/>
<polygon fill="none" stroke="#404040" points="268.6492,-620.5307 261.4548,-621.0214 258.2348,-614.5691 265.4292,-614.0784 268.6492,-620.5307"/>
<text text-anchor="middle" x="479.623" y="-781.5" font-family="Helvetica,sans-Serif" font-size="10.00" fill="#000000"> +@38</text>
</g>
<!-- Node8&#45;&gt;Node9 -->
<g id="edge11" class="edge">
<title>Node8&#45;&gt;Node9</title>
<path fill="none" stroke="#404040" d="M426.0061,-959.311C420.6784,-953.6442 415.6177,-947.443 411.623,-941 403.937,-928.6035 397.2913,-914.9308 391.5761,-900.9791"/>
<polygon fill="none" stroke="#404040" points="391.5558,-900.9272 385.647,-896.7936 387.19,-889.7495 393.0988,-893.883 391.5558,-900.9272"/>
<text text-anchor="middle" x="428.623" y="-922" font-family="Helvetica,sans-Serif" font-size="10.00" fill="#000000"> +@38</text>
</g>
<!-- Node8&#45;&gt;Node11 -->
<g id="edge18" class="edge">
<title>Node8&#45;&gt;Node11</title>
<path fill="none" stroke="#404040" d="M513.1753,-966.7191C544.086,-950.9309 579.2304,-925.8811 591.623,-890 622.3823,-800.94 637.8638,-760.0951 591.623,-678 574.7897,-648.1146 556.5794,-652.7712 525.623,-638 507.1379,-629.1797 498.0632,-631.709 477.5333,-620.5157"/>
<polygon fill="none" stroke="#404040" points="477.505,-620.4988 470.3018,-620.8364 467.2197,-614.3172 474.4229,-613.9795 477.505,-620.4988"/>
<text text-anchor="middle" x="638.623" y="-781.5" font-family="Helvetica,sans-Serif" font-size="10.00" fill="#000000"> +@38</text>
</g>
<!-- Node9&#45;&gt;Node4 -->
<g id="edge7" class="edge">
<title>Node9&#45;&gt;Node4</title>
<path fill="none" stroke="#ffa500" d="M290.0199,-682.4535C287.9291,-680.8913 285.7966,-679.4034 283.623,-678 250.4503,-656.5831 224.616,-687.8478 196.623,-660 185.417,-648.8522 177.7913,-634.7275 172.6759,-619.6774"/>
<polygon fill="#ffa500" stroke="#ffa500" points="287.9045,-685.2443 297.8756,-688.8257 292.3142,-679.8078 287.9045,-685.2443"/>
<text text-anchor="start" x="196.623" y="-652" font-family="Helvetica,sans-Serif" font-size="10.00" fill="#000000"> &lt; gSizeHeaderDescription</text>
<text text-anchor="middle" x="262.623" y="-641" font-family="Helvetica,sans-Serif" font-size="10.00" fill="#000000">String &gt;</text>
</g>
<!-- Node9&#45;&gt;Node11 -->
<g id="edge19" class="edge">
<title>Node9&#45;&gt;Node11</title>
<path fill="none" stroke="#ffa500" d="M380.8596,-668.2138C381.1395,-665.4522 381.395,-662.7112 381.623,-660 382.7192,-646.9616 382.9697,-633.2605 382.6703,-619.691"/>
<polygon fill="#ffa500" stroke="#ffa500" points="377.3662,-667.9617 379.7456,-678.2859 384.3238,-668.7313 377.3662,-667.9617"/>
<text text-anchor="start" x="383.623" y="-652" font-family="Helvetica,sans-Serif" font-size="10.00" fill="#000000"> &lt; gSizeSerializationMethod</text>
<text text-anchor="middle" x="452.623" y="-641" font-family="Helvetica,sans-Serif" font-size="10.00" fill="#000000">String &gt;</text>
</g>
<!-- Node10 -->
<g id="node9" class="node">
<title>Node10</title>
<polygon fill="none" stroke="#bfbfbf" points="485.123,-485.5 485.123,-542.5 592.123,-542.5 592.123,-485.5 485.123,-485.5"/>
<text text-anchor="middle" x="538.623" y="-530.5" font-family="Helvetica,sans-Serif" font-size="10.00" fill="#000000">anonymous:+@40</text>
<polyline fill="none" stroke="#bfbfbf" points="485.123,-523.5 592.123,-523.5 "/>
<text text-anchor="middle" x="538.623" y="-511.5" font-family="Helvetica,sans-Serif" font-size="10.00" fill="#000000"> </text>
<polyline fill="none" stroke="#bfbfbf" points="485.123,-504.5 592.123,-504.5 "/>
<text text-anchor="middle" x="538.623" y="-492.5" font-family="Helvetica,sans-Serif" font-size="10.00" fill="#000000"> </text>
</g>
<!-- Node10&#45;&gt;Node3 -->
<g id="edge13" class="edge">
<title>Node10&#45;&gt;Node3</title>
<path fill="none" stroke="#404040" d="M536.1351,-485.168C533.3481,-445.9487 530.3394,-373.7117 539.623,-313 539.9552,-310.8273 540.3284,-308.6349 540.7376,-306.4305"/>
<polygon fill="none" stroke="#404040" points="540.7618,-306.3153 538.0861,-299.6189 543.2382,-294.5736 545.9139,-301.2699 540.7618,-306.3153"/>
<text text-anchor="middle" x="556.623" y="-349" font-family="Helvetica,sans-Serif" font-size="10.00" fill="#000000"> +@40</text>
</g>
<!-- Node11&#45;&gt;Node3 -->
<g id="edge14" class="edge">
<title>Node11&#45;&gt;Node3</title>
<path fill="none" stroke="#404040" d="M405.7942,-408.4691C419.0818,-376.0816 436.3165,-341.4995 457.623,-313 467.2021,-300.1869 478.9438,-288.05 491.1485,-277.0628"/>
<polygon fill="none" stroke="#404040" points="491.4884,-276.7672 493.3912,-269.8117 500.5436,-268.8929 498.6408,-275.8484 491.4884,-276.7672"/>
<text text-anchor="middle" x="493.623" y="-349" font-family="Helvetica,sans-Serif" font-size="10.00" fill="#000000"> +serialization</text>
</g>
<!-- Node12 -->
<g id="node11" class="node">
<title>Node12</title>
<g id="a_node11"><a xlink:href="../../d3/d87/classuint32__t.html" target="_top" xlink:title="{uint32_t\n||}">
<polygon fill="none" stroke="#000000" points="859.623,-485.5 859.623,-542.5 915.623,-542.5 915.623,-485.5 859.623,-485.5"/>
<text text-anchor="middle" x="887.623" y="-530.5" font-family="Helvetica,sans-Serif" font-size="10.00" fill="#000000">uint32_t</text>
<polyline fill="none" stroke="#000000" points="859.623,-523.5 915.623,-523.5 "/>
<text text-anchor="middle" x="887.623" y="-511.5" font-family="Helvetica,sans-Serif" font-size="10.00" fill="#000000"> </text>
<polyline fill="none" stroke="#000000" points="859.623,-504.5 915.623,-504.5 "/>
<text text-anchor="middle" x="887.623" y="-492.5" font-family="Helvetica,sans-Serif" font-size="10.00" fill="#000000"> </text>
</a>
</g>
</g>
<!-- Node12&#45;&gt;Node3 -->
<g id="edge20" class="edge">
<title>Node12&#45;&gt;Node3</title>
<path fill="none" stroke="#404040" d="M861.6762,-485.0887C840.9847,-460.9566 812.3089,-424.9775 792.623,-390 774.609,-357.9932 787.7344,-339.8021 762.623,-313 731.4704,-279.7502 685.7422,-257.5275 646.3969,-243.3717"/>
<polygon fill="none" stroke="#404040" points="646.2926,-243.3357 639.3146,-245.1543 634.952,-239.4126 641.93,-237.5939 646.2926,-243.3357"/>
<text text-anchor="middle" x="838.123" y="-382" font-family="Helvetica,sans-Serif" font-size="10.00" fill="#000000"> +headerVersion</text>
<text text-anchor="middle" x="838.123" y="-371" font-family="Helvetica,sans-Serif" font-size="10.00" fill="#000000">+headerSize</text>
<text text-anchor="middle" x="838.123" y="-360" font-family="Helvetica,sans-Serif" font-size="10.00" fill="#000000">+sMagicString</text>
<text text-anchor="middle" x="838.123" y="-349" font-family="Helvetica,sans-Serif" font-size="10.00" fill="#000000">+flagsNextHeader</text>
<text text-anchor="middle" x="838.123" y="-338" font-family="Helvetica,sans-Serif" font-size="10.00" fill="#000000">+magicStringInt</text>
<text text-anchor="middle" x="838.123" y="-327" font-family="Helvetica,sans-Serif" font-size="10.00" fill="#000000">+flagsUnused</text>
<text text-anchor="middle" x="838.123" y="-316" font-family="Helvetica,sans-Serif" font-size="10.00" fill="#000000">+flags</text>
</g>
<!-- Node15 -->
<g id="node14" class="node">
<title>Node15</title>
<g id="a_node14"><a xlink:href="../../dd/da3/structo2_1_1header_1_1HeartbeatHeader.html" target="_top" xlink:title="{o2::header::HeartbeatHeader\n||+ operator bool()\l+ operator\&lt;()\l+ operator uint64_t()\l}">
<polygon fill="none" stroke="#000000" points="1196.623,-182.5 1196.623,-261.5 1354.623,-261.5 1354.623,-182.5 1196.623,-182.5"/>
<text text-anchor="middle" x="1275.623" y="-249.5" font-family="Helvetica,sans-Serif" font-size="10.00" fill="#000000">o2::header::HeartbeatHeader</text>
<polyline fill="none" stroke="#000000" points="1196.623,-242.5 1354.623,-242.5 "/>
<text text-anchor="middle" x="1275.623" y="-230.5" font-family="Helvetica,sans-Serif" font-size="10.00" fill="#000000"> </text>
<polyline fill="none" stroke="#000000" points="1196.623,-223.5 1354.623,-223.5 "/>
<text text-anchor="start" x="1204.623" y="-211.5" font-family="Helvetica,sans-Serif" font-size="10.00" fill="#000000">+ operator bool()</text>
<text text-anchor="start" x="1204.623" y="-200.5" font-family="Helvetica,sans-Serif" font-size="10.00" fill="#000000">+ operator&lt;()</text>
<text text-anchor="start" x="1204.623" y="-189.5" font-family="Helvetica,sans-Serif" font-size="10.00" fill="#000000">+ operator uint64_t()</text>
</a>
</g>
</g>
<!-- Node12&#45;&gt;Node15 -->
<g id="edge27" class="edge">
<title>Node12&#45;&gt;Node15</title>
<path fill="none" stroke="#404040" d="M889.8402,-485.2745C893.297,-461.0293 902.122,-427.274 924.623,-408 958.2552,-379.191 987.5725,-417.0657 1022.623,-390 1052.5237,-366.9109 1028.2447,-335.4571 1058.623,-313 1104.8192,-278.8496 1134.0122,-318.0749 1186.623,-295 1200.9194,-288.7296 1214.7779,-279.4887 1227.1347,-269.674"/>
<polygon fill="none" stroke="#404040" points="1227.4719,-269.3939 1229.531,-262.483 1236.7022,-261.7256 1234.6432,-268.6365 1227.4719,-269.3939"/>
<text text-anchor="middle" x="1075.623" y="-349" font-family="Helvetica,sans-Serif" font-size="10.00" fill="#000000"> +orbit</text>
</g>
<!-- Node20 -->
<g id="node19" class="node">
<title>Node20</title>
<g id="a_node19"><a xlink:href="../../d1/dfe/structo2_1_1header_1_1HeartbeatTrailer.html" target="_top" xlink:title="{o2::header::HeartbeatTrailer\n||+ operator bool()\l+ operator uint64_t()\l}">
<polygon fill="none" stroke="#000000" points="1025.123,-188 1025.123,-256 1178.123,-256 1178.123,-188 1025.123,-188"/>
<text text-anchor="middle" x="1101.623" y="-244" font-family="Helvetica,sans-Serif" font-size="10.00" fill="#000000">o2::header::HeartbeatTrailer</text>
<polyline fill="none" stroke="#000000" points="1025.123,-237 1178.123,-237 "/>
<text text-anchor="middle" x="1101.623" y="-225" font-family="Helvetica,sans-Serif" font-size="10.00" fill="#000000"> </text>
<polyline fill="none" stroke="#000000" points="1025.123,-218 1178.123,-218 "/>
<text text-anchor="start" x="1033.123" y="-206" font-family="Helvetica,sans-Serif" font-size="10.00" fill="#000000">+ operator bool()</text>
<text text-anchor="start" x="1033.123" y="-195" font-family="Helvetica,sans-Serif" font-size="10.00" fill="#000000">+ operator uint64_t()</text>
</a>
</g>
</g>
<!-- Node12&#45;&gt;Node20 -->
<g id="edge34" class="edge">
<title>Node12&#45;&gt;Node20</title>
<path fill="none" stroke="#404040" d="M886.4445,-485.476C884.9864,-436.7526 884.6798,-340.1201 903.623,-313 929.2116,-276.3658 973.3392,-254.1646 1013.4504,-240.8768"/>
<polygon fill="none" stroke="#404040" points="1013.4643,-240.8725 1017.9911,-235.2592 1024.9137,-237.2789 1020.3869,-242.8921 1013.4643,-240.8725"/>
<text text-anchor="middle" x="935.623" y="-354.5" font-family="Helvetica,sans-Serif" font-size="10.00" fill="#000000"> +status</text>
<text text-anchor="middle" x="935.623" y="-343.5" font-family="Helvetica,sans-Serif" font-size="10.00" fill="#000000">+dataLength</text>
</g>
<!-- Node13 -->
<g id="node12" class="node">
<title>Node13</title>
<polygon fill="none" stroke="#bfbfbf" points="610.123,-485.5 610.123,-542.5 653.123,-542.5 653.123,-485.5 610.123,-485.5"/>
<text text-anchor="middle" x="631.623" y="-530.5" font-family="Helvetica,sans-Serif" font-size="10.00" fill="#000000">const</text>
<polyline fill="none" stroke="#bfbfbf" points="610.123,-523.5 653.123,-523.5 "/>
<text text-anchor="middle" x="631.623" y="-511.5" font-family="Helvetica,sans-Serif" font-size="10.00" fill="#000000"> </text>
<polyline fill="none" stroke="#bfbfbf" points="610.123,-504.5 653.123,-504.5 "/>
<text text-anchor="middle" x="631.623" y="-492.5" font-family="Helvetica,sans-Serif" font-size="10.00" fill="#000000"> </text>
</g>
<!-- Node13&#45;&gt;Node3 -->
<g id="edge21" class="edge">
<title>Node13&#45;&gt;Node3</title>
<path fill="none" stroke="#404040" d="M622.5593,-485.1557C614.9282,-460.1631 604.0935,-422.9405 596.623,-390 590.5203,-363.0913 585.0167,-333.5024 580.485,-306.7537"/>
<polygon fill="none" stroke="#404040" points="580.4461,-306.52 575.5138,-301.2595 578.4726,-294.6834 583.4049,-299.9438 580.4461,-306.52"/>
<text text-anchor="middle" x="652.123" y="-360" font-family="Helvetica,sans-Serif" font-size="10.00" fill="#000000"> +sHeaderType</text>
<text text-anchor="middle" x="652.123" y="-349" font-family="Helvetica,sans-Serif" font-size="10.00" fill="#000000">+sSerializationMethod</text>
<text text-anchor="middle" x="652.123" y="-338" font-family="Helvetica,sans-Serif" font-size="10.00" fill="#000000">+sVersion</text>
</g>
<!-- Node14 -->
<g id="node13" class="node">
<title>Node14</title>
<polygon fill="none" stroke="#bfbfbf" points="676.123,-485.5 676.123,-542.5 783.123,-542.5 783.123,-485.5 676.123,-485.5"/>
<text text-anchor="middle" x="729.623" y="-530.5" font-family="Helvetica,sans-Serif" font-size="10.00" fill="#000000">anonymous:+@42</text>
<polyline fill="none" stroke="#bfbfbf" points="676.123,-523.5 783.123,-523.5 "/>
<text text-anchor="middle" x="729.623" y="-511.5" font-family="Helvetica,sans-Serif" font-size="10.00" fill="#000000"> </text>
<polyline fill="none" stroke="#bfbfbf" points="676.123,-504.5 783.123,-504.5 "/>
<text text-anchor="middle" x="729.623" y="-492.5" font-family="Helvetica,sans-Serif" font-size="10.00" fill="#000000"> </text>
</g>
<!-- Node14&#45;&gt;Node3 -->
<g id="edge22" class="edge">
<title>Node14&#45;&gt;Node3</title>
<path fill="none" stroke="#404040" d="M729.458,-485.3236C728.6961,-436.8368 724.9649,-341.1766 707.623,-313 692.8649,-289.0216 669.1529,-270.1391 645.4056,-255.9372"/>
<polygon fill="none" stroke="#404040" points="645.313,-255.8844 638.1193,-256.3859 634.8896,-249.9385 642.0833,-249.437 645.313,-255.8844"/>
<text text-anchor="middle" x="741.623" y="-349" font-family="Helvetica,sans-Serif" font-size="10.00" fill="#000000"> +@42</text>
</g>
<!-- Node15&#45;&gt;Node2 -->
<g id="edge23" class="edge">
<title>Node15&#45;&gt;Node2</title>
<path fill="none" stroke="#404040" d="M1256.5304,-182.0593C1243.6806,-155.178 1226.6294,-119.5078 1212.8281,-90.636"/>
<polygon fill="none" stroke="#404040" points="1212.6966,-90.3609 1206.5,-86.6727 1207.5212,-79.5342 1213.7178,-83.2224 1212.6966,-90.3609"/>
<text text-anchor="middle" x="1254.623" y="-112" font-family="Helvetica,sans-Serif" font-size="10.00" fill="#000000"> +header</text>
</g>
<!-- Node16 -->
<g id="node15" class="node">
<title>Node16</title>
<g id="a_node15"><a xlink:href="../../d6/d30/classuint64__t.html" target="_top" xlink:title="{uint64_t\n||}">
<polygon fill="none" stroke="#000000" points="1504.623,-485.5 1504.623,-542.5 1560.623,-542.5 1560.623,-485.5 1504.623,-485.5"/>
<text text-anchor="middle" x="1532.623" y="-530.5" font-family="Helvetica,sans-Serif" font-size="10.00" fill="#000000">uint64_t</text>
<polyline fill="none" stroke="#000000" points="1504.623,-523.5 1560.623,-523.5 "/>
<text text-anchor="middle" x="1532.623" y="-511.5" font-family="Helvetica,sans-Serif" font-size="10.00" fill="#000000"> </text>
<polyline fill="none" stroke="#000000" points="1504.623,-504.5 1560.623,-504.5 "/>
<text text-anchor="middle" x="1532.623" y="-492.5" font-family="Helvetica,sans-Serif" font-size="10.00" fill="#000000"> </text>
</a>
</g>
</g>
<!-- Node16&#45;&gt;Node15 -->
<g id="edge24" class="edge">
<title>Node16&#45;&gt;Node15</title>
<path fill="none" stroke="#404040" d="M1548.7013,-485.186C1570.4287,-441.9477 1601.7745,-360.3182 1558.623,-313 1529.2997,-280.8453 1403.835,-311.6363 1363.623,-295 1349.1496,-289.0122 1335.2381,-279.7803 1322.917,-269.873"/>
<polygon fill="none" stroke="#404040" points="1322.5641,-269.5749 1315.3992,-268.7592 1313.3964,-261.8318 1320.5613,-262.6475 1322.5641,-269.5749"/>
<text text-anchor="middle" x="1614.623" y="-349" font-family="Helvetica,sans-Serif" font-size="10.00" fill="#000000"> +headerWord</text>
</g>
<!-- Node16&#45;&gt;Node20 -->
<g id="edge30" class="edge">
<title>Node16&#45;&gt;Node20</title>
<path fill="none" stroke="#404040" d="M1522.4895,-485.2416C1503.0782,-430.3268 1462.2428,-315.7074 1458.623,-313 1410.2912,-276.8509 1243.5582,-317.6708 1187.623,-295 1170.6639,-288.1264 1154.6279,-276.5455 1141.1004,-264.6092"/>
<polygon fill="none" stroke="#404040" points="1140.9682,-264.4871 1133.8469,-263.3523 1132.1555,-256.3424 1139.2767,-257.4771 1140.9682,-264.4871"/>
<text text-anchor="middle" x="1519.623" y="-349" font-family="Helvetica,sans-Serif" font-size="10.00" fill="#000000"> +trailerWord</text>
</g>
<!-- Node17 -->
<g id="node16" class="node">
<title>Node17</title>
<polygon fill="none" stroke="#bfbfbf" points="1122.623,-485.5 1122.623,-542.5 1178.623,-542.5 1178.623,-485.5 1122.623,-485.5"/>
<text text-anchor="middle" x="1150.623" y="-530.5" font-family="Helvetica,sans-Serif" font-size="10.00" fill="#000000">uint16_t</text>
<polyline fill="none" stroke="#bfbfbf" points="1122.623,-523.5 1178.623,-523.5 "/>
<text text-anchor="middle" x="1150.623" y="-511.5" font-family="Helvetica,sans-Serif" font-size="10.00" fill="#000000"> </text>
<polyline fill="none" stroke="#bfbfbf" points="1122.623,-504.5 1178.623,-504.5 "/>
<text text-anchor="middle" x="1150.623" y="-492.5" font-family="Helvetica,sans-Serif" font-size="10.00" fill="#000000"> </text>
</g>
<!-- Node17&#45;&gt;Node15 -->
<g id="edge25" class="edge">
<title>Node17&#45;&gt;Node15</title>
<path fill="none" stroke="#404040" d="M1156.9797,-485.4842C1168.6159,-433.7703 1192.8589,-328.4157 1200.623,-313 1207.9614,-298.4293 1217.9983,-284.1123 1228.3427,-271.3029"/>
<polygon fill="none" stroke="#404040" points="1228.574,-271.0264 1229.3557,-263.8577 1236.2735,-261.8221 1235.4919,-268.9907 1228.574,-271.0264"/>
<text text-anchor="middle" x="1228.123" y="-354.5" font-family="Helvetica,sans-Serif" font-size="10.00" fill="#000000"> +reserved</text>
<text text-anchor="middle" x="1228.123" y="-343.5" font-family="Helvetica,sans-Serif" font-size="10.00" fill="#000000">+bcid</text>
</g>
<!-- Node17&#45;&gt;Node20 -->
<g id="edge31" class="edge">
<title>Node17&#45;&gt;Node20</title>
<path fill="none" stroke="#404040" d="M1136.0719,-485.3243C1124.4516,-460.7438 1109.0823,-424.0188 1102.623,-390 1094.9277,-349.4725 1095.43,-302.4482 1097.4208,-268.4755"/>
<polygon fill="none" stroke="#404040" points="1097.4452,-268.1084 1093.8528,-261.8559 1098.2427,-256.135 1101.8351,-262.3875 1097.4452,-268.1084"/>
<text text-anchor="middle" x="1140.123" y="-365.5" font-family="Helvetica,sans-Serif" font-size="10.00" fill="#000000"> +hbfTruncated</text>
<text text-anchor="middle" x="1140.123" y="-354.5" font-family="Helvetica,sans-Serif" font-size="10.00" fill="#000000">+hbfStatus</text>
<text text-anchor="middle" x="1140.123" y="-343.5" font-family="Helvetica,sans-Serif" font-size="10.00" fill="#000000">+trailerLength</text>
<text text-anchor="middle" x="1140.123" y="-332.5" font-family="Helvetica,sans-Serif" font-size="10.00" fill="#000000">+hbAccept</text>
</g>
<!-- Node18 -->
<g id="node17" class="node">
<title>Node18</title>
<polygon fill="none" stroke="#bfbfbf" points="1294.623,-485.5 1294.623,-542.5 1344.623,-542.5 1344.623,-485.5 1294.623,-485.5"/>
<text text-anchor="middle" x="1319.623" y="-530.5" font-family="Helvetica,sans-Serif" font-size="10.00" fill="#000000">uint8_t</text>
<polyline fill="none" stroke="#bfbfbf" points="1294.623,-523.5 1344.623,-523.5 "/>
<text text-anchor="middle" x="1319.623" y="-511.5" font-family="Helvetica,sans-Serif" font-size="10.00" fill="#000000"> </text>
<polyline fill="none" stroke="#bfbfbf" points="1294.623,-504.5 1344.623,-504.5 "/>
<text text-anchor="middle" x="1319.623" y="-492.5" font-family="Helvetica,sans-Serif" font-size="10.00" fill="#000000"> </text>
</g>
<!-- Node18&#45;&gt;Node15 -->
<g id="edge26" class="edge">
<title>Node18&#45;&gt;Node15</title>
<path fill="none" stroke="#404040" d="M1329.5112,-485.2967C1341.6197,-445.6108 1358.3492,-372.1785 1339.623,-313 1335.025,-298.4697 1327.1813,-284.2513 1318.5294,-271.533"/>
<polygon fill="none" stroke="#404040" points="1318.4557,-271.4302 1311.7089,-268.8844 1311.464,-261.6774 1318.2108,-264.2233 1318.4557,-271.4302"/>
<text text-anchor="middle" x="1401.123" y="-365.5" font-family="Helvetica,sans-Serif" font-size="10.00" fill="#000000"> +triggerType</text>
<text text-anchor="middle" x="1401.123" y="-354.5" font-family="Helvetica,sans-Serif" font-size="10.00" fill="#000000">+headerLength</text>
<text text-anchor="middle" x="1401.123" y="-343.5" font-family="Helvetica,sans-Serif" font-size="10.00" fill="#000000">+blockType</text>
<text text-anchor="middle" x="1401.123" y="-332.5" font-family="Helvetica,sans-Serif" font-size="10.00" fill="#000000">+reservedTriggerType</text>
</g>
<!-- Node18&#45;&gt;Node20 -->
<g id="edge33" class="edge">
<title>Node18&#45;&gt;Node20</title>
<path fill="none" stroke="#404040" d="M1308.1967,-485.2297C1298.5273,-460.2834 1284.6778,-423.0873 1274.623,-390 1264.374,-356.2742 1280.3367,-338.1337 1255.623,-313 1233.7036,-290.7082 1215.3345,-309.4725 1187.623,-295 1172.1175,-286.9022 1156.9626,-275.5684 1143.8013,-264.2425"/>
<polygon fill="none" stroke="#404040" points="1143.5555,-264.0236 1136.4145,-263.0207 1134.5937,-256.0433 1141.7347,-257.0462 1143.5555,-264.0236"/>
<text text-anchor="middle" x="1305.123" y="-349" font-family="Helvetica,sans-Serif" font-size="10.00" fill="#000000"> +blockType</text>
</g>
<!-- Node19 -->
<g id="node18" class="node">
<title>Node19</title>
<polygon fill="none" stroke="#bfbfbf" points="1620.123,-485.5 1620.123,-542.5 1727.123,-542.5 1727.123,-485.5 1620.123,-485.5"/>
<text text-anchor="middle" x="1673.623" y="-530.5" font-family="Helvetica,sans-Serif" font-size="10.00" fill="#000000">anonymous:+@46</text>
<polyline fill="none" stroke="#bfbfbf" points="1620.123,-523.5 1727.123,-523.5 "/>
<text text-anchor="middle" x="1673.623" y="-511.5" font-family="Helvetica,sans-Serif" font-size="10.00" fill="#000000"> </text>
<polyline fill="none" stroke="#bfbfbf" points="1620.123,-504.5 1727.123,-504.5 "/>
<text text-anchor="middle" x="1673.623" y="-492.5" font-family="Helvetica,sans-Serif" font-size="10.00" fill="#000000"> </text>
</g>
<!-- Node19&#45;&gt;Node15 -->
<g id="edge28" class="edge">
<title>Node19&#45;&gt;Node15</title>
<path fill="none" stroke="#404040" d="M1680.5409,-485.4694C1689.3199,-441.4646 1698.221,-357.4756 1651.623,-313 1628.4293,-290.8628 1393.4283,-306.8169 1363.623,-295 1348.7713,-289.1118 1334.56,-279.7105 1322.0544,-269.5871"/>
<polygon fill="none" stroke="#404040" points="1321.9823,-269.5258 1314.8203,-268.6854 1312.8414,-261.7511 1320.0034,-262.5915 1321.9823,-269.5258"/>
<text text-anchor="middle" x="1702.623" y="-349" font-family="Helvetica,sans-Serif" font-size="10.00" fill="#000000"> +@46</text>
</g>
<!-- Node20&#45;&gt;Node2 -->
<g id="edge29" class="edge">
<title>Node20&#45;&gt;Node2</title>
<path fill="none" stroke="#404040" d="M1117.987,-187.7672C1131.0509,-160.4381 1149.5514,-121.7359 1164.3418,-90.7951"/>
<polygon fill="none" stroke="#404040" points="1164.4306,-90.6091 1163.4095,-83.4707 1169.606,-79.7825 1170.6272,-86.921 1164.4306,-90.6091"/>
<text text-anchor="middle" x="1181.123" y="-112" font-family="Helvetica,sans-Serif" font-size="10.00" fill="#000000"> +trailer</text>
</g>
<!-- Node21 -->
<g id="node20" class="node">
<title>Node21</title>
<polygon fill="none" stroke="#bfbfbf" points="934.123,-485.5 934.123,-542.5 1041.123,-542.5 1041.123,-485.5 934.123,-485.5"/>
<text text-anchor="middle" x="987.623" y="-530.5" font-family="Helvetica,sans-Serif" font-size="10.00" fill="#000000">anonymous:+@50</text>
<polyline fill="none" stroke="#bfbfbf" points="934.123,-523.5 1041.123,-523.5 "/>
<text text-anchor="middle" x="987.623" y="-511.5" font-family="Helvetica,sans-Serif" font-size="10.00" fill="#000000"> </text>
<polyline fill="none" stroke="#bfbfbf" points="934.123,-504.5 1041.123,-504.5 "/>
<text text-anchor="middle" x="987.623" y="-492.5" font-family="Helvetica,sans-Serif" font-size="10.00" fill="#000000"> </text>
</g>
<!-- Node21&#45;&gt;Node20 -->
<g id="edge32" class="edge">
<title>Node21&#45;&gt;Node20</title>
<path fill="none" stroke="#404040" d="M980.41,-485.3191C971.7696,-444.7 961.5907,-369.1185 988.623,-313 997.9435,-293.6507 1013.5909,-277.0956 1030.3167,-263.6199"/>
<polygon fill="none" stroke="#404040" points="1030.7082,-263.3213 1033.053,-256.502 1040.2495,-256.0436 1037.9047,-262.8629 1030.7082,-263.3213"/>
<text text-anchor="middle" x="1005.623" y="-349" font-family="Helvetica,sans-Serif" font-size="10.00" fill="#000000"> +@50</text>
</g>
<!-- Node22 -->
<g id="node21" class="node">
<title>Node22</title>
<polygon fill="none" stroke="#bfbfbf" points="1372.623,-193.5 1372.623,-250.5 1416.623,-250.5 1416.623,-193.5 1372.623,-193.5"/>
<text text-anchor="middle" x="1394.623" y="-238.5" font-family="Helvetica,sans-Serif" font-size="10.00" fill="#000000">static</text>
<polyline fill="none" stroke="#bfbfbf" points="1372.623,-231.5 1416.623,-231.5 "/>
<text text-anchor="middle" x="1394.623" y="-219.5" font-family="Helvetica,sans-Serif" font-size="10.00" fill="#000000"> </text>
<polyline fill="none" stroke="#bfbfbf" points="1372.623,-212.5 1416.623,-212.5 "/>
<text text-anchor="middle" x="1394.623" y="-200.5" font-family="Helvetica,sans-Serif" font-size="10.00" fill="#000000"> </text>
</g>
<!-- Node22&#45;&gt;Node2 -->
<g id="edge35" class="edge">
<title>Node22&#45;&gt;Node2</title>
<path fill="none" stroke="#404040" d="M1387.0095,-193.4276C1382.0951,-178.9422 1374.5427,-161.7647 1363.623,-149 1340.4156,-121.8718 1308.7276,-99.3367 1278.69,-81.9336"/>
<polygon fill="none" stroke="#404040" points="1278.6044,-81.8853 1271.4134,-82.4236 1268.1508,-75.9928 1275.3418,-75.4545 1278.6044,-81.8853"/>
<text text-anchor="middle" x="1399.123" y="-123" font-family="Helvetica,sans-Serif" font-size="10.00" fill="#000000"> +sHeaderType</text>
<text text-anchor="middle" x="1399.123" y="-112" font-family="Helvetica,sans-Serif" font-size="10.00" fill="#000000">+sSerializationMethod</text>
<text text-anchor="middle" x="1399.123" y="-101" font-family="Helvetica,sans-Serif" font-size="10.00" fill="#000000">+sVersion</text>
</g>
</g>
</svg>
