<?xml version="1.0" encoding="UTF-8" standalone="no"?>
<!DOCTYPE svg PUBLIC "-//W3C//DTD SVG 1.1//EN"
 "http://www.w3.org/Graphics/SVG/1.1/DTD/svg11.dtd">
<!-- Generated by graphviz version 2.40.1 (20161225.0304)
 -->
<!-- Title: /home/travis/build/AliceO2Group/AliceO2/Framework/Core/src/BoostOptionsRetriever.cxx Pages: 1 -->
<svg width="975pt" height="307pt"
 viewBox="0.00 0.00 974.98 307.00" xmlns="http://www.w3.org/2000/svg" xmlns:xlink="http://www.w3.org/1999/xlink">
<g id="graph0" class="graph" transform="scale(1 1) rotate(0) translate(4 303)">
<title>/home/travis/build/AliceO2Group/AliceO2/Framework/Core/src/BoostOptionsRetriever.cxx</title>
<!-- Node0 -->
<g id="node1" class="node">
<title>Node0</title>
<polygon fill="#bfbfbf" stroke="#000000" points="365.5,-246.5 365.5,-298.5 550.5,-298.5 550.5,-246.5 365.5,-246.5"/>
<text text-anchor="start" x="373.5" y="-286.5" font-family="Helvetica,sans-Serif" font-size="10.00" fill="#000000">/home/travis/build</text>
<text text-anchor="start" x="373.5" y="-275.5" font-family="Helvetica,sans-Serif" font-size="10.00" fill="#000000">/AliceO2Group/AliceO2</text>
<text text-anchor="start" x="373.5" y="-264.5" font-family="Helvetica,sans-Serif" font-size="10.00" fill="#000000">/Framework/Core/src/BoostOptions</text>
<text text-anchor="middle" x="458" y="-253.5" font-family="Helvetica,sans-Serif" font-size="10.00" fill="#000000">Retriever.cxx</text>
</g>
<!-- Node1 -->
<g id="node2" class="node">
<title>Node1</title>
<g id="a_node2"><a xlink:href="../../d3/d7e/BoostOptionsRetriever_8h.html" target="_top" xlink:title="Framework/BoostOptionsRetriever.h">
<polygon fill="none" stroke="#000000" points="450.5,-190.5 450.5,-209.5 641.5,-209.5 641.5,-190.5 450.5,-190.5"/>
<text text-anchor="middle" x="546" y="-197.5" font-family="Helvetica,sans-Serif" font-size="10.00" fill="#000000">Framework/BoostOptionsRetriever.h</text>
</a>
</g>
</g>
<!-- Node0&#45;&gt;Node1 -->
<g id="edge1" class="edge">
<title>Node0&#45;&gt;Node1</title>
<path fill="none" stroke="#191970" d="M489.77,-246.3258C502.0456,-236.2124 515.7008,-224.9624 526.4804,-216.0815"/>
<polygon fill="#191970" stroke="#191970" points="528.9352,-218.594 534.4277,-209.534 524.4841,-213.1913 528.9352,-218.594"/>
</g>
<!-- Node2 -->
<g id="node3" class="node">
<title>Node2</title>
<g id="a_node3"><a xlink:href="../../d0/d1c/ConfigParamSpec_8h.html" target="_top" xlink:title="Framework/ConfigParamSpec.h">
<polygon fill="none" stroke="#000000" points="120.5,-129 120.5,-148 287.5,-148 287.5,-129 120.5,-129"/>
<text text-anchor="middle" x="204" y="-136" font-family="Helvetica,sans-Serif" font-size="10.00" fill="#000000">Framework/ConfigParamSpec.h</text>
</a>
</g>
</g>
<!-- Node0&#45;&gt;Node2 -->
<g id="edge22" class="edge">
<title>Node0&#45;&gt;Node2</title>
<path fill="none" stroke="#191970" d="M378.2921,-246.347C352.0083,-236.4288 323.0971,-224.0824 298,-210 269.6232,-194.0774 240.3058,-170.4197 222.1186,-154.7357"/>
<polygon fill="#191970" stroke="#191970" points="224.4194,-152.0982 214.5889,-148.147 219.8098,-157.3662 224.4194,-152.0982"/>
</g>
<!-- Node5 -->
<g id="node6" class="node">
<title>Node5</title>
<polygon fill="none" stroke="#bfbfbf" points="0,-.5 0,-19.5 50,-19.5 50,-.5 0,-.5"/>
<text text-anchor="middle" x="25" y="-7.5" font-family="Helvetica,sans-Serif" font-size="10.00" fill="#000000">cstring</text>
</g>
<!-- Node0&#45;&gt;Node5 -->
<g id="edge31" class="edge">
<title>Node0&#45;&gt;Node5</title>
<path fill="none" stroke="#191970" d="M365.4775,-263.9139C305.5318,-255.7353 226.9946,-239.995 163,-210 126.6094,-192.9433 116.9328,-185.5209 92,-154 60.9051,-114.6888 40.188,-58.6006 30.7888,-29.3815"/>
<polygon fill="#191970" stroke="#191970" points="34.0552,-28.0985 27.7425,-19.5896 27.3712,-30.178 34.0552,-28.0985"/>
</g>
<!-- Node7 -->
<g id="node8" class="node">
<title>Node7</title>
<polygon fill="none" stroke="#bfbfbf" points="68.5,-.5 68.5,-19.5 117.5,-19.5 117.5,-.5 68.5,-.5"/>
<text text-anchor="middle" x="93" y="-7.5" font-family="Helvetica,sans-Serif" font-size="10.00" fill="#000000">cstdlib</text>
</g>
<!-- Node0&#45;&gt;Node7 -->
<g id="edge30" class="edge">
<title>Node0&#45;&gt;Node7</title>
<path fill="none" stroke="#191970" d="M365.4128,-252.7218C273.938,-231.1976 143.1564,-194.4104 111,-154 82.3442,-117.9887 85.4177,-60.0535 89.5303,-29.8155"/>
<polygon fill="#191970" stroke="#191970" points="93.0273,-30.1029 91.0934,-19.6861 86.1092,-29.0353 93.0273,-30.1029"/>
</g>
<!-- Node12 -->
<g id="node13" class="node">
<title>Node12</title>
<polygon fill="none" stroke="#bfbfbf" points="633,-.5 633,-19.5 677,-19.5 677,-.5 633,-.5"/>
<text text-anchor="middle" x="655" y="-7.5" font-family="Helvetica,sans-Serif" font-size="10.00" fill="#000000">string</text>
</g>
<!-- Node0&#45;&gt;Node12 -->
<g id="edge28" class="edge">
<title>Node0&#45;&gt;Node12</title>
<path fill="none" stroke="#191970" d="M550.9468,-263.4981C655.5681,-252.5082 818.4494,-232.5736 876,-210 917.0848,-193.8849 937.3935,-193.026 958,-154 1014.9038,-46.2315 776.3584,-18.4312 687.3244,-11.8712"/>
<polygon fill="#191970" stroke="#191970" points="687.4556,-8.3719 677.2376,-11.1725 686.9718,-15.3552 687.4556,-8.3719"/>
</g>
<!-- Node15 -->
<g id="node16" class="node">
<title>Node15</title>
<polygon fill="none" stroke="#bfbfbf" points="729.5,-62 729.5,-81 776.5,-81 776.5,-62 729.5,-62"/>
<text text-anchor="middle" x="753" y="-69" font-family="Helvetica,sans-Serif" font-size="10.00" fill="#000000">vector</text>
</g>
<!-- Node0&#45;&gt;Node15 -->
<g id="edge29" class="edge">
<title>Node0&#45;&gt;Node15</title>
<path fill="none" stroke="#191970" d="M550.7311,-263.1363C676.9326,-248.2597 892.551,-214.5274 940,-154 982.7196,-99.5057 851.6604,-80.1533 786.9279,-74.0316"/>
<polygon fill="#191970" stroke="#191970" points="787.0458,-70.5284 776.775,-73.1285 786.4255,-77.5008 787.0458,-70.5284"/>
</g>
<!-- Node16 -->
<g id="node17" class="node">
<title>Node16</title>
<polygon fill="none" stroke="#bfbfbf" points="781,-129 781,-148 931,-148 931,-129 781,-129"/>
<text text-anchor="middle" x="856" y="-136" font-family="Helvetica,sans-Serif" font-size="10.00" fill="#000000">boost/program_options.hpp</text>
</g>
<!-- Node0&#45;&gt;Node16 -->
<g id="edge27" class="edge">
<title>Node0&#45;&gt;Node16</title>
<path fill="none" stroke="#191970" d="M539.8344,-246.4465C574.222,-235.3826 614.6123,-222.2358 651,-210 710.2453,-190.0782 778.754,-165.9644 819.6661,-151.4486"/>
<polygon fill="#191970" stroke="#191970" points="820.9507,-154.7067 829.2025,-148.0615 818.6078,-148.1104 820.9507,-154.7067"/>
</g>
<!-- Node17 -->
<g id="node18" class="node">
<title>Node17</title>
<g id="a_node18"><a xlink:href="../../da/d3e/PropertyTreeHelpers_8h.html" target="_top" xlink:title="PropertyTreeHelpers.h">
<polygon fill="none" stroke="#000000" points="307.5,-190.5 307.5,-209.5 432.5,-209.5 432.5,-190.5 307.5,-190.5"/>
<text text-anchor="middle" x="370" y="-197.5" font-family="Helvetica,sans-Serif" font-size="10.00" fill="#000000">PropertyTreeHelpers.h</text>
</a>
</g>
</g>
<!-- Node0&#45;&gt;Node17 -->
<g id="edge23" class="edge">
<title>Node0&#45;&gt;Node17</title>
<path fill="none" stroke="#191970" d="M426.23,-246.3258C413.9544,-236.2124 400.2992,-224.9624 389.5196,-216.0815"/>
<polygon fill="#191970" stroke="#191970" points="391.5159,-213.1913 381.5723,-209.534 387.0648,-218.594 391.5159,-213.1913"/>
</g>
<!-- Node1&#45;&gt;Node2 -->
<g id="edge2" class="edge">
<title>Node1&#45;&gt;Node2</title>
<path fill="none" stroke="#191970" d="M492.9377,-190.4581C431.9411,-179.4894 331.9093,-161.5012 267.0085,-149.8305"/>
<polygon fill="#191970" stroke="#191970" points="267.367,-146.3389 256.9053,-148.0137 266.128,-153.2284 267.367,-146.3389"/>
</g>
<!-- Node1&#45;&gt;Node12 -->
<g id="edge20" class="edge">
<title>Node1&#45;&gt;Node12</title>
<path fill="none" stroke="#191970" d="M539.8199,-190.1722C524.9881,-165.2073 490.774,-98.3334 521,-56 522.5572,-53.819 584.1299,-33.278 623.26,-20.3931"/>
<polygon fill="#191970" stroke="#191970" points="624.5073,-23.6674 632.9141,-17.2194 622.3212,-17.0175 624.5073,-23.6674"/>
</g>
<!-- Node13 -->
<g id="node14" class="node">
<title>Node13</title>
<g id="a_node14"><a xlink:href="../../df/d72/ParamRetriever_8h.html" target="_top" xlink:title="Framework/ParamRetriever.h">
<polygon fill="none" stroke="#000000" points="567.5,-129 567.5,-148 724.5,-148 724.5,-129 567.5,-129"/>
<text text-anchor="middle" x="646" y="-136" font-family="Helvetica,sans-Serif" font-size="10.00" fill="#000000">Framework/ParamRetriever.h</text>
</a>
</g>
</g>
<!-- Node1&#45;&gt;Node13 -->
<g id="edge14" class="edge">
<title>Node1&#45;&gt;Node13</title>
<path fill="none" stroke="#191970" d="M561.625,-190.3906C577.7698,-180.4616 603.1822,-164.833 621.9023,-153.3201"/>
<polygon fill="#191970" stroke="#191970" points="623.8002,-156.2619 630.4847,-148.0419 620.1331,-150.2992 623.8002,-156.2619"/>
</g>
<!-- Node14 -->
<g id="node15" class="node">
<title>Node14</title>
<polygon fill="none" stroke="#bfbfbf" points="529.5,-56.5 529.5,-86.5 642.5,-86.5 642.5,-56.5 529.5,-56.5"/>
<text text-anchor="start" x="537.5" y="-74.5" font-family="Helvetica,sans-Serif" font-size="10.00" fill="#000000">boost/property_tree</text>
<text text-anchor="middle" x="586" y="-63.5" font-family="Helvetica,sans-Serif" font-size="10.00" fill="#000000">/ptree.hpp</text>
</g>
<!-- Node1&#45;&gt;Node14 -->
<g id="edge19" class="edge">
<title>Node1&#45;&gt;Node14</title>
<path fill="none" stroke="#191970" d="M546.6554,-190.2791C547.8736,-175.436 551.1198,-146.382 559,-123 562.139,-113.6861 566.7956,-104.0078 571.3614,-95.5894"/>
<polygon fill="#191970" stroke="#191970" points="574.5095,-97.1329 576.3921,-86.7066 568.4185,-93.6832 574.5095,-97.1329"/>
</g>
<!-- Node1&#45;&gt;Node15 -->
<g id="edge21" class="edge">
<title>Node1&#45;&gt;Node15</title>
<path fill="none" stroke="#191970" d="M617.1401,-190.4575C663.1946,-182.8452 717.5406,-170.685 734,-154 750.3176,-137.4588 753.7276,-109.8866 753.949,-91.215"/>
<polygon fill="#191970" stroke="#191970" points="757.4475,-91.0962 753.7732,-81.159 750.4486,-91.2187 757.4475,-91.0962"/>
</g>
<!-- Node1&#45;&gt;Node16 -->
<g id="edge18" class="edge">
<title>Node1&#45;&gt;Node16</title>
<path fill="none" stroke="#191970" d="M594.0974,-190.4581C649.1592,-179.5345 739.3132,-161.6492 798.1591,-149.9749"/>
<polygon fill="#191970" stroke="#191970" points="798.9171,-153.3928 808.0449,-148.0137 797.5549,-146.5266 798.9171,-153.3928"/>
</g>
<!-- Node3 -->
<g id="node4" class="node">
<title>Node3</title>
<g id="a_node4"><a xlink:href="../../de/d56/Variant_8h.html" target="_top" xlink:title="Framework/Variant.h">
<polygon fill="none" stroke="#000000" points="217.5,-62 217.5,-81 334.5,-81 334.5,-62 217.5,-62"/>
<text text-anchor="middle" x="276" y="-69" font-family="Helvetica,sans-Serif" font-size="10.00" fill="#000000">Framework/Variant.h</text>
</a>
</g>
</g>
<!-- Node2&#45;&gt;Node3 -->
<g id="edge3" class="edge">
<title>Node2&#45;&gt;Node3</title>
<path fill="none" stroke="#191970" d="M214.3158,-128.9005C225.7575,-118.2535 244.4215,-100.8856 258.2273,-88.0385"/>
<polygon fill="#191970" stroke="#191970" points="260.7669,-90.4562 265.7033,-81.0817 255.9983,-85.3317 260.7669,-90.4562"/>
</g>
<!-- Node2&#45;&gt;Node12 -->
<g id="edge13" class="edge">
<title>Node2&#45;&gt;Node12</title>
<path fill="none" stroke="#191970" d="M235.7519,-128.9434C288.0195,-113.2798 395.5138,-81.3502 487,-56 544.7075,-40.0096 561.9148,-37.8553 622.9386,-20.2025"/>
<polygon fill="#191970" stroke="#191970" points="624.0741,-23.5173 632.6943,-17.3575 622.1143,-16.7972 624.0741,-23.5173"/>
</g>
<!-- Node4 -->
<g id="node5" class="node">
<title>Node4</title>
<polygon fill="none" stroke="#bfbfbf" points="477.5,-.5 477.5,-19.5 546.5,-19.5 546.5,-.5 477.5,-.5"/>
<text text-anchor="middle" x="512" y="-7.5" font-family="Helvetica,sans-Serif" font-size="10.00" fill="#000000">type_traits</text>
</g>
<!-- Node3&#45;&gt;Node4 -->
<g id="edge4" class="edge">
<title>Node3&#45;&gt;Node4</title>
<path fill="none" stroke="#191970" d="M312.6161,-61.9581C354.3829,-51.074 422.6726,-33.2781 467.4806,-21.6015"/>
<polygon fill="#191970" stroke="#191970" points="468.4283,-24.9715 477.2225,-19.0628 466.663,-18.1977 468.4283,-24.9715"/>
</g>
<!-- Node3&#45;&gt;Node5 -->
<g id="edge5" class="edge">
<title>Node3&#45;&gt;Node5</title>
<path fill="none" stroke="#191970" d="M232.6006,-61.9124C190.8185,-52.5232 125.6316,-37.4602 60.2729,-20.244"/>
<polygon fill="#191970" stroke="#191970" points="60.7722,-16.7556 50.2092,-17.5761 58.9784,-23.5218 60.7722,-16.7556"/>
</g>
<!-- Node6 -->
<g id="node7" class="node">
<title>Node6</title>
<polygon fill="none" stroke="#bfbfbf" points="565,-.5 565,-19.5 615,-19.5 615,-.5 565,-.5"/>
<text text-anchor="middle" x="590" y="-7.5" font-family="Helvetica,sans-Serif" font-size="10.00" fill="#000000">cstdint</text>
</g>
<!-- Node3&#45;&gt;Node6 -->
<g id="edge6" class="edge">
<title>Node3&#45;&gt;Node6</title>
<path fill="none" stroke="#191970" d="M334.5554,-62.5535C389.239,-53.7872 473.2736,-39.267 554.8884,-20.0836"/>
<polygon fill="#191970" stroke="#191970" points="555.9078,-23.4389 564.8273,-17.7211 554.289,-16.6286 555.9078,-23.4389"/>
</g>
<!-- Node3&#45;&gt;Node7 -->
<g id="edge7" class="edge">
<title>Node3&#45;&gt;Node7</title>
<path fill="none" stroke="#191970" d="M247.4063,-61.8906C214.9261,-50.9752 161.9489,-33.1713 127.2795,-21.5202"/>
<polygon fill="#191970" stroke="#191970" points="128.1792,-18.1302 117.5852,-18.2622 125.9492,-24.7655 128.1792,-18.1302"/>
</g>
<!-- Node8 -->
<g id="node9" class="node">
<title>Node8</title>
<polygon fill="none" stroke="#bfbfbf" points="135.5,-.5 135.5,-19.5 200.5,-19.5 200.5,-.5 135.5,-.5"/>
<text text-anchor="middle" x="168" y="-7.5" font-family="Helvetica,sans-Serif" font-size="10.00" fill="#000000">stdexcept</text>
</g>
<!-- Node3&#45;&gt;Node8 -->
<g id="edge8" class="edge">
<title>Node3&#45;&gt;Node8</title>
<path fill="none" stroke="#191970" d="M259.125,-61.8906C241.5302,-51.8713 213.7434,-36.0483 193.4759,-24.5071"/>
<polygon fill="#191970" stroke="#191970" points="195.1783,-21.4489 184.7565,-19.5419 191.7144,-27.5318 195.1783,-21.4489"/>
</g>
<!-- Node9 -->
<g id="node10" class="node">
<title>Node9</title>
<polygon fill="none" stroke="#bfbfbf" points="218.5,-.5 218.5,-19.5 267.5,-19.5 267.5,-.5 218.5,-.5"/>
<text text-anchor="middle" x="243" y="-7.5" font-family="Helvetica,sans-Serif" font-size="10.00" fill="#000000">iosfwd</text>
</g>
<!-- Node3&#45;&gt;Node9 -->
<g id="edge9" class="edge">
<title>Node3&#45;&gt;Node9</title>
<path fill="none" stroke="#191970" d="M270.8438,-61.8906C266.0768,-53.0068 258.8615,-39.5601 252.9703,-28.5811"/>
<polygon fill="#191970" stroke="#191970" points="256.0412,-26.9016 248.2289,-19.7449 249.8731,-30.2114 256.0412,-26.9016"/>
</g>
<!-- Node10 -->
<g id="node11" class="node">
<title>Node10</title>
<polygon fill="none" stroke="#bfbfbf" points="285.5,-.5 285.5,-19.5 368.5,-19.5 368.5,-.5 285.5,-.5"/>
<text text-anchor="middle" x="327" y="-7.5" font-family="Helvetica,sans-Serif" font-size="10.00" fill="#000000">initializer_list</text>
</g>
<!-- Node3&#45;&gt;Node10 -->
<g id="edge10" class="edge">
<title>Node3&#45;&gt;Node10</title>
<path fill="none" stroke="#191970" d="M283.9688,-61.8906C291.5591,-52.7376 303.1661,-38.7409 312.4132,-27.59"/>
<polygon fill="#191970" stroke="#191970" points="315.2297,-29.6766 318.9189,-19.7449 309.8413,-25.2083 315.2297,-29.6766"/>
</g>
<!-- Node11 -->
<g id="node12" class="node">
<title>Node11</title>
<polygon fill="none" stroke="#bfbfbf" points="386.5,-.5 386.5,-19.5 459.5,-19.5 459.5,-.5 386.5,-.5"/>
<text text-anchor="middle" x="423" y="-7.5" font-family="Helvetica,sans-Serif" font-size="10.00" fill="#000000">string_view</text>
</g>
<!-- Node3&#45;&gt;Node11 -->
<g id="edge11" class="edge">
<title>Node3&#45;&gt;Node11</title>
<path fill="none" stroke="#191970" d="M298.9688,-61.8906C323.6724,-51.5554 363.137,-35.0447 390.9027,-23.4284"/>
<polygon fill="#191970" stroke="#191970" points="392.3182,-26.6303 400.1925,-19.5419 389.6165,-20.1727 392.3182,-26.6303"/>
</g>
<!-- Node3&#45;&gt;Node12 -->
<g id="edge12" class="edge">
<title>Node3&#45;&gt;Node12</title>
<path fill="none" stroke="#191970" d="M334.7494,-62.9316C422.0389,-50.1852 579.6635,-27.1029 622.7235,-19.5939"/>
<polygon fill="#191970" stroke="#191970" points="623.6166,-22.9862 632.7726,-17.6555 622.2907,-16.1129 623.6166,-22.9862"/>
</g>
<!-- Node13&#45;&gt;Node12 -->
<g id="edge16" class="edge">
<title>Node13&#45;&gt;Node12</title>
<path fill="none" stroke="#191970" d="M647.3764,-128.649C648.7686,-118.3001 650.8716,-101.5386 652,-87 653.4995,-67.6806 654.2626,-45.5733 654.6425,-30.0174"/>
<polygon fill="#191970" stroke="#191970" points="658.1424,-30.0541 654.8565,-19.9818 651.144,-29.9048 658.1424,-30.0541"/>
</g>
<!-- Node13&#45;&gt;Node14 -->
<g id="edge15" class="edge">
<title>Node13&#45;&gt;Node14</title>
<path fill="none" stroke="#191970" d="M637.4035,-128.9005C629.3472,-119.9043 616.994,-106.1099 606.4167,-94.2986"/>
<polygon fill="#191970" stroke="#191970" points="608.7309,-91.6364 599.4523,-86.5218 603.5162,-96.3062 608.7309,-91.6364"/>
</g>
<!-- Node13&#45;&gt;Node15 -->
<g id="edge17" class="edge">
<title>Node13&#45;&gt;Node15</title>
<path fill="none" stroke="#191970" d="M661.3305,-128.9005C679.0491,-117.8057 708.4228,-99.4128 729.1368,-86.4424"/>
<polygon fill="#191970" stroke="#191970" points="731.0799,-89.3553 737.6979,-81.0817 727.3649,-83.4224 731.0799,-89.3553"/>
</g>
<!-- Node17&#45;&gt;Node2 -->
<g id="edge24" class="edge">
<title>Node17&#45;&gt;Node2</title>
<path fill="none" stroke="#191970" d="M344.0625,-190.3906C315.9222,-179.9652 270.8207,-163.2559 239.4274,-151.6252"/>
<polygon fill="#191970" stroke="#191970" points="240.3485,-148.234 229.7554,-148.0419 237.9166,-154.798 240.3485,-148.234"/>
</g>
<!-- Node17&#45;&gt;Node14 -->
<g id="edge25" class="edge">
<title>Node17&#45;&gt;Node14</title>
<path fill="none" stroke="#191970" d="M386.2351,-190.3416C421.2603,-169.5049 504.5601,-119.9492 551.7878,-91.8531"/>
<polygon fill="#191970" stroke="#191970" points="553.6424,-94.8224 560.4471,-86.7016 550.0634,-88.8064 553.6424,-94.8224"/>
</g>
<!-- Node18 -->
<g id="node19" class="node">
<title>Node18</title>
<polygon fill="none" stroke="#bfbfbf" points="305.5,-123.5 305.5,-153.5 434.5,-153.5 434.5,-123.5 305.5,-123.5"/>
<text text-anchor="start" x="313.5" y="-141.5" font-family="Helvetica,sans-Serif" font-size="10.00" fill="#000000">boost/program_options</text>
<text text-anchor="middle" x="370" y="-130.5" font-family="Helvetica,sans-Serif" font-size="10.00" fill="#000000">/variables_map.hpp</text>
</g>
<!-- Node17&#45;&gt;Node18 -->
<g id="edge26" class="edge">
<title>Node17&#45;&gt;Node18</title>
<path fill="none" stroke="#191970" d="M370,-190.3906C370,-183.2234 370,-173.0862 370,-163.671"/>
<polygon fill="#191970" stroke="#191970" points="373.5001,-163.5446 370,-153.5446 366.5001,-163.5446 373.5001,-163.5446"/>
</g>
</g>
</svg>
