<?xml version="1.0" encoding="UTF-8" standalone="no"?>
<!DOCTYPE svg PUBLIC "-//W3C//DTD SVG 1.1//EN"
 "http://www.w3.org/Graphics/SVG/1.1/DTD/svg11.dtd">
<!-- Generated by graphviz version 2.40.1 (20161225.0304)
 -->
<!-- Title: o2::soa::CombinationsBlockFullSameIndexPolicy&lt; T1, T, Ts &gt; Pages: 1 -->
<svg width="840pt" height="906pt"
 viewBox="0.00 0.00 839.50 906.00" xmlns="http://www.w3.org/2000/svg" xmlns:xlink="http://www.w3.org/1999/xlink">
<g id="graph0" class="graph" transform="scale(1 1) rotate(0) translate(4 902)">
<title>o2::soa::CombinationsBlockFullSameIndexPolicy&lt; T1, T, Ts &gt;</title>
<!-- Node5 -->
<g id="node1" class="node">
<title>Node5</title>
<polygon fill="#bfbfbf" stroke="#000000" points="0,-.5 0,-112.5 167,-112.5 167,-.5 0,-.5"/>
<text text-anchor="start" x="8" y="-100.5" font-family="Helvetica,sans-Serif" font-size="10.00" fill="#000000">o2::soa::CombinationsBlock</text>
<text text-anchor="start" x="8" y="-89.5" font-family="Helvetica,sans-Serif" font-size="10.00" fill="#000000">FullSameIndexPolicy&lt; T1,</text>
<text text-anchor="middle" x="83.5" y="-78.5" font-family="Helvetica,sans-Serif" font-size="10.00" fill="#000000"> T, Ts &gt;</text>
<polyline fill="none" stroke="#000000" points="0,-71.5 167,-71.5 "/>
<text text-anchor="middle" x="83.5" y="-59.5" font-family="Helvetica,sans-Serif" font-size="10.00" fill="#000000"> </text>
<polyline fill="none" stroke="#000000" points="0,-52.5 167,-52.5 "/>
<text text-anchor="start" x="8" y="-40.5" font-family="Helvetica,sans-Serif" font-size="10.00" fill="#000000">+ CombinationsBlockFullSame</text>
<text text-anchor="start" x="8" y="-29.5" font-family="Helvetica,sans-Serif" font-size="10.00" fill="#000000">IndexPolicy()</text>
<text text-anchor="start" x="8" y="-18.5" font-family="Helvetica,sans-Serif" font-size="10.00" fill="#000000">+ setRanges()</text>
<text text-anchor="start" x="8" y="-7.5" font-family="Helvetica,sans-Serif" font-size="10.00" fill="#000000">+ addOne()</text>
</g>
<!-- Node6 -->
<g id="node2" class="node">
<title>Node6</title>
<g id="a_node2"><a xlink:href="../../d3/dc5/structo2_1_1soa_1_1CombinationsBlockSameIndexPolicyBase.html" target="_top" xlink:title="{o2::soa::CombinationsBlock\lSameIndexPolicyBase\&lt; T1,\l T, Ts... \&gt;\n||+ CombinationsBlockSameIndex\lPolicyBase()\l}">
<polygon fill="none" stroke="#000000" points="233,-150.5 233,-240.5 410,-240.5 410,-150.5 233,-150.5"/>
<text text-anchor="start" x="241" y="-228.5" font-family="Helvetica,sans-Serif" font-size="10.00" fill="#000000">o2::soa::CombinationsBlock</text>
<text text-anchor="start" x="241" y="-217.5" font-family="Helvetica,sans-Serif" font-size="10.00" fill="#000000">SameIndexPolicyBase&lt; T1,</text>
<text text-anchor="middle" x="321.5" y="-206.5" font-family="Helvetica,sans-Serif" font-size="10.00" fill="#000000"> T, Ts... &gt;</text>
<polyline fill="none" stroke="#000000" points="233,-199.5 410,-199.5 "/>
<text text-anchor="middle" x="321.5" y="-187.5" font-family="Helvetica,sans-Serif" font-size="10.00" fill="#000000"> </text>
<polyline fill="none" stroke="#000000" points="233,-180.5 410,-180.5 "/>
<text text-anchor="start" x="241" y="-168.5" font-family="Helvetica,sans-Serif" font-size="10.00" fill="#000000">+ CombinationsBlockSameIndex</text>
<text text-anchor="start" x="241" y="-157.5" font-family="Helvetica,sans-Serif" font-size="10.00" fill="#000000">PolicyBase()</text>
</a>
</g>
</g>
<!-- Node6&#45;&gt;Node5 -->
<g id="edge1" class="edge">
<title>Node6&#45;&gt;Node5</title>
<path fill="none" stroke="#191970" d="M235.4874,-145.2657C213.2973,-132.306 189.4458,-118.3759 167.3667,-105.481"/>
<polygon fill="none" stroke="#191970" points="233.8279,-148.3497 244.2282,-150.3707 237.3582,-142.3051 233.8279,-148.3497"/>
</g>
<!-- Node7 -->
<g id="node3" class="node">
<title>Node7</title>
<g id="a_node3"><a xlink:href="../../de/dac/structo2_1_1soa_1_1CombinationsIndexPolicyBase.html" target="_top" xlink:title="{o2::soa::CombinationsIndex\lPolicyBase\&lt; T, Ts... \&gt;\n||+ CombinationsIndexPolicyBase()\l+ moveToEnd()\l+ addOne()\l}">
<polygon fill="none" stroke="#000000" points="380,-426.5 380,-516.5 563,-516.5 563,-426.5 380,-426.5"/>
<text text-anchor="start" x="388" y="-504.5" font-family="Helvetica,sans-Serif" font-size="10.00" fill="#000000">o2::soa::CombinationsIndex</text>
<text text-anchor="middle" x="471.5" y="-493.5" font-family="Helvetica,sans-Serif" font-size="10.00" fill="#000000">PolicyBase&lt; T, Ts... &gt;</text>
<polyline fill="none" stroke="#000000" points="380,-486.5 563,-486.5 "/>
<text text-anchor="middle" x="471.5" y="-474.5" font-family="Helvetica,sans-Serif" font-size="10.00" fill="#000000"> </text>
<polyline fill="none" stroke="#000000" points="380,-467.5 563,-467.5 "/>
<text text-anchor="start" x="388" y="-455.5" font-family="Helvetica,sans-Serif" font-size="10.00" fill="#000000">+ CombinationsIndexPolicyBase()</text>
<text text-anchor="start" x="388" y="-444.5" font-family="Helvetica,sans-Serif" font-size="10.00" fill="#000000">+ moveToEnd()</text>
<text text-anchor="start" x="388" y="-433.5" font-family="Helvetica,sans-Serif" font-size="10.00" fill="#000000">+ addOne()</text>
</a>
</g>
</g>
<!-- Node7&#45;&gt;Node6 -->
<g id="edge2" class="edge">
<title>Node7&#45;&gt;Node6</title>
<path fill="none" stroke="#191970" d="M538.2604,-418.7138C548.9564,-406.8798 558.4756,-393.489 564.5,-379 580.0278,-341.6551 587.4546,-321.2993 564.5,-288 546.0857,-261.2871 471.7315,-235.408 410.0668,-217.8491"/>
<polygon fill="none" stroke="#191970" points="535.4389,-416.6019 531.0865,-426.2615 540.5127,-421.4244 535.4389,-416.6019"/>
</g>
<!-- Node16 -->
<g id="node12" class="node">
<title>Node16</title>
<g id="a_node12"><a xlink:href="../../d3/dc5/structo2_1_1soa_1_1CombinationsBlockSameIndexPolicyBase.html" target="_top" xlink:title="{o2::soa::CombinationsBlock\lSameIndexPolicyBase\&lt; T1,\l T, Ts \&gt;\n||+ CombinationsBlockSameIndex\lPolicyBase()\l}">
<polygon fill="none" stroke="#000000" points="378,-288.5 378,-378.5 555,-378.5 555,-288.5 378,-288.5"/>
<text text-anchor="start" x="386" y="-366.5" font-family="Helvetica,sans-Serif" font-size="10.00" fill="#000000">o2::soa::CombinationsBlock</text>
<text text-anchor="start" x="386" y="-355.5" font-family="Helvetica,sans-Serif" font-size="10.00" fill="#000000">SameIndexPolicyBase&lt; T1,</text>
<text text-anchor="middle" x="466.5" y="-344.5" font-family="Helvetica,sans-Serif" font-size="10.00" fill="#000000"> T, Ts &gt;</text>
<polyline fill="none" stroke="#000000" points="378,-337.5 555,-337.5 "/>
<text text-anchor="middle" x="466.5" y="-325.5" font-family="Helvetica,sans-Serif" font-size="10.00" fill="#000000"> </text>
<polyline fill="none" stroke="#000000" points="378,-318.5 555,-318.5 "/>
<text text-anchor="start" x="386" y="-306.5" font-family="Helvetica,sans-Serif" font-size="10.00" fill="#000000">+ CombinationsBlockSameIndex</text>
<text text-anchor="start" x="386" y="-295.5" font-family="Helvetica,sans-Serif" font-size="10.00" fill="#000000">PolicyBase()</text>
</a>
</g>
</g>
<!-- Node7&#45;&gt;Node16 -->
<g id="edge16" class="edge">
<title>Node7&#45;&gt;Node16</title>
<path fill="none" stroke="#191970" d="M469.4924,-416.089C469.0436,-403.7026 468.5727,-390.7078 468.1409,-378.7879"/>
<polygon fill="none" stroke="#191970" points="466.0029,-416.447 469.8628,-426.3136 472.9983,-416.1934 466.0029,-416.447"/>
</g>
<!-- Node8 -->
<g id="node4" class="node">
<title>Node8</title>
<polygon fill="none" stroke="#bfbfbf" points="337,-713.5 337,-781.5 452,-781.5 452,-713.5 337,-713.5"/>
<text text-anchor="start" x="345" y="-769.5" font-family="Helvetica,sans-Serif" font-size="10.00" fill="#000000">tuple&lt; typename Ts</text>
<text text-anchor="middle" x="394.5" y="-758.5" font-family="Helvetica,sans-Serif" font-size="10.00" fill="#000000">::iterator... &gt;</text>
<polyline fill="none" stroke="#bfbfbf" points="337,-751.5 452,-751.5 "/>
<text text-anchor="middle" x="394.5" y="-739.5" font-family="Helvetica,sans-Serif" font-size="10.00" fill="#000000"> </text>
<polyline fill="none" stroke="#bfbfbf" points="337,-732.5 452,-732.5 "/>
<text text-anchor="middle" x="394.5" y="-720.5" font-family="Helvetica,sans-Serif" font-size="10.00" fill="#000000"> </text>
</g>
<!-- Node8&#45;&gt;Node7 -->
<g id="edge3" class="edge">
<title>Node8&#45;&gt;Node7</title>
<path fill="none" stroke="#404040" d="M360.6387,-713.2707C346.9109,-697.0275 332.6313,-676.4868 325.5,-655 312.7602,-616.6144 306.0024,-599.4344 325.5,-564 335.9355,-545.0348 352.0836,-529.4129 369.8959,-516.756"/>
<polygon fill="none" stroke="#404040" points="369.9685,-516.7073 372.7261,-510.0443 379.9372,-510.027 377.1796,-516.69 369.9685,-516.7073"/>
<text text-anchor="middle" x="354.5" y="-607" font-family="Helvetica,sans-Serif" font-size="10.00" fill="#000000"> +mCurrent</text>
</g>
<!-- Node12 -->
<g id="node8" class="node">
<title>Node12</title>
<g id="a_node8"><a xlink:href="../../de/dac/structo2_1_1soa_1_1CombinationsIndexPolicyBase.html" target="_top" xlink:title="{o2::soa::CombinationsIndex\lPolicyBase\&lt; Ts \&gt;\n||+ CombinationsIndexPolicyBase()\l+ moveToEnd()\l+ addOne()\l}">
<polygon fill="none" stroke="#000000" points="392,-564.5 392,-654.5 575,-654.5 575,-564.5 392,-564.5"/>
<text text-anchor="start" x="400" y="-642.5" font-family="Helvetica,sans-Serif" font-size="10.00" fill="#000000">o2::soa::CombinationsIndex</text>
<text text-anchor="middle" x="483.5" y="-631.5" font-family="Helvetica,sans-Serif" font-size="10.00" fill="#000000">PolicyBase&lt; Ts &gt;</text>
<polyline fill="none" stroke="#000000" points="392,-624.5 575,-624.5 "/>
<text text-anchor="middle" x="483.5" y="-612.5" font-family="Helvetica,sans-Serif" font-size="10.00" fill="#000000"> </text>
<polyline fill="none" stroke="#000000" points="392,-605.5 575,-605.5 "/>
<text text-anchor="start" x="400" y="-593.5" font-family="Helvetica,sans-Serif" font-size="10.00" fill="#000000">+ CombinationsIndexPolicyBase()</text>
<text text-anchor="start" x="400" y="-582.5" font-family="Helvetica,sans-Serif" font-size="10.00" fill="#000000">+ moveToEnd()</text>
<text text-anchor="start" x="400" y="-571.5" font-family="Helvetica,sans-Serif" font-size="10.00" fill="#000000">+ addOne()</text>
</a>
</g>
</g>
<!-- Node8&#45;&gt;Node12 -->
<g id="edge8" class="edge">
<title>Node8&#45;&gt;Node12</title>
<path fill="none" stroke="#404040" d="M409.5229,-713.2387C415.7158,-700.2764 423.3503,-685.6156 431.5,-673 433.3484,-670.1387 435.3051,-667.258 437.3336,-664.3866"/>
<polygon fill="none" stroke="#404040" points="437.3466,-664.3689 437.6781,-657.1654 444.4549,-654.7007 444.1235,-661.9042 437.3466,-664.3689"/>
<text text-anchor="middle" x="460.5" y="-681.5" font-family="Helvetica,sans-Serif" font-size="10.00" fill="#000000"> +mCurrent</text>
</g>
<!-- Node9 -->
<g id="node5" class="node">
<title>Node9</title>
<polygon fill="none" stroke="#bfbfbf" points="217.5,-719 217.5,-776 255.5,-776 255.5,-719 217.5,-719"/>
<text text-anchor="middle" x="236.5" y="-764" font-family="Helvetica,sans-Serif" font-size="10.00" fill="#000000">bool</text>
<polyline fill="none" stroke="#bfbfbf" points="217.5,-757 255.5,-757 "/>
<text text-anchor="middle" x="236.5" y="-745" font-family="Helvetica,sans-Serif" font-size="10.00" fill="#000000"> </text>
<polyline fill="none" stroke="#bfbfbf" points="217.5,-738 255.5,-738 "/>
<text text-anchor="middle" x="236.5" y="-726" font-family="Helvetica,sans-Serif" font-size="10.00" fill="#000000"> </text>
</g>
<!-- Node9&#45;&gt;Node7 -->
<g id="edge4" class="edge">
<title>Node9&#45;&gt;Node7</title>
<path fill="none" stroke="#404040" d="M232.1935,-718.855C227.9583,-679.7923 226.3633,-609.4828 260.5,-564 264.3306,-558.8963 316.7909,-535.8885 368.4378,-514.0983"/>
<polygon fill="none" stroke="#404040" points="368.713,-513.9825 372.6922,-507.9687 379.7739,-509.3289 375.7947,-515.3427 368.713,-513.9825"/>
<text text-anchor="middle" x="284.5" y="-607" font-family="Helvetica,sans-Serif" font-size="10.00" fill="#000000"> +mIsEnd</text>
</g>
<!-- Node9&#45;&gt;Node12 -->
<g id="edge9" class="edge">
<title>Node9&#45;&gt;Node12</title>
<path fill="none" stroke="#404040" d="M255.8025,-736.2524C281.1202,-721.5425 326.9714,-695.0494 366.5,-673 373.9238,-668.859 381.6295,-664.597 389.383,-660.3344"/>
<polygon fill="none" stroke="#404040" points="389.4415,-660.3024 392.7793,-653.9102 399.9635,-654.5327 396.6257,-660.9248 389.4415,-660.3024"/>
<text text-anchor="middle" x="390.5" y="-681.5" font-family="Helvetica,sans-Serif" font-size="10.00" fill="#000000"> +mIsEnd</text>
</g>
<!-- Node10 -->
<g id="node6" class="node">
<title>Node10</title>
<g id="a_node6"><a xlink:href="../../dd/da8/structo2_1_1soa_1_1NTupleType.html" target="_top" xlink:title="{o2::soa::NTupleType\l\&lt; uint64_t, sizeof...(Ts)\&gt;\n||}">
<polygon fill="none" stroke="#000000" points="510,-713.5 510,-781.5 647,-781.5 647,-713.5 510,-713.5"/>
<text text-anchor="start" x="518" y="-769.5" font-family="Helvetica,sans-Serif" font-size="10.00" fill="#000000">o2::soa::NTupleType</text>
<text text-anchor="middle" x="578.5" y="-758.5" font-family="Helvetica,sans-Serif" font-size="10.00" fill="#000000">&lt; uint64_t, sizeof...(Ts)&gt;</text>
<polyline fill="none" stroke="#000000" points="510,-751.5 647,-751.5 "/>
<text text-anchor="middle" x="578.5" y="-739.5" font-family="Helvetica,sans-Serif" font-size="10.00" fill="#000000"> </text>
<polyline fill="none" stroke="#000000" points="510,-732.5 647,-732.5 "/>
<text text-anchor="middle" x="578.5" y="-720.5" font-family="Helvetica,sans-Serif" font-size="10.00" fill="#000000"> </text>
</a>
</g>
</g>
<!-- Node10&#45;&gt;Node7 -->
<g id="edge5" class="edge">
<title>Node10&#45;&gt;Node7</title>
<path fill="none" stroke="#404040" d="M592.8155,-713.2297C594.7587,-707.2488 596.4451,-701.0149 597.5,-695 604.6504,-654.2304 601.6869,-595.3289 584.5,-564 576.5029,-549.4227 565.1873,-536.2436 552.7781,-524.703"/>
<polygon fill="none" stroke="#404040" points="552.5814,-524.5295 545.4355,-523.5613 543.5809,-516.5927 550.7268,-517.561 552.5814,-524.5295"/>
<text text-anchor="middle" x="636" y="-607" font-family="Helvetica,sans-Serif" font-size="10.00" fill="#000000"> +mMaxOffset</text>
</g>
<!-- Node10&#45;&gt;Node12 -->
<g id="edge10" class="edge">
<title>Node10&#45;&gt;Node12</title>
<path fill="none" stroke="#404040" d="M541.6315,-713.2905C536.2364,-707.454 530.993,-701.2498 526.5,-695 519.9474,-685.8852 513.8584,-675.6263 508.4448,-665.462"/>
<polygon fill="none" stroke="#404040" points="508.3154,-665.2093 502.0202,-661.6922 502.8455,-654.5284 509.1407,-658.0455 508.3154,-665.2093"/>
<text text-anchor="middle" x="562" y="-681.5" font-family="Helvetica,sans-Serif" font-size="10.00" fill="#000000"> +mMaxOffset</text>
</g>
<!-- Node11 -->
<g id="node7" class="node">
<title>Node11</title>
<g id="a_node7"><a xlink:href="../../dd/da8/structo2_1_1soa_1_1NTupleType.html" target="_top" xlink:title="{o2::soa::NTupleType\l\&lt; T, N, REST \&gt;\n||}">
<polygon fill="none" stroke="#000000" points="591,-829.5 591,-897.5 704,-897.5 704,-829.5 591,-829.5"/>
<text text-anchor="start" x="599" y="-885.5" font-family="Helvetica,sans-Serif" font-size="10.00" fill="#000000">o2::soa::NTupleType</text>
<text text-anchor="middle" x="647.5" y="-874.5" font-family="Helvetica,sans-Serif" font-size="10.00" fill="#000000">&lt; T, N, REST &gt;</text>
<polyline fill="none" stroke="#000000" points="591,-867.5 704,-867.5 "/>
<text text-anchor="middle" x="647.5" y="-855.5" font-family="Helvetica,sans-Serif" font-size="10.00" fill="#000000"> </text>
<polyline fill="none" stroke="#000000" points="591,-848.5 704,-848.5 "/>
<text text-anchor="middle" x="647.5" y="-836.5" font-family="Helvetica,sans-Serif" font-size="10.00" fill="#000000"> </text>
</a>
</g>
</g>
<!-- Node11&#45;&gt;Node10 -->
<g id="edge6" class="edge">
<title>Node11&#45;&gt;Node10</title>
<path fill="none" stroke="#ffa500" d="M586.0345,-821.3952C583.5396,-818.1122 581.3271,-814.6461 579.5,-811 575.0544,-802.1285 573.611,-791.6464 573.6083,-781.7826"/>
<polygon fill="#ffa500" stroke="#ffa500" points="583.5722,-823.8989 592.7587,-829.1771 588.8688,-819.3221 583.5722,-823.8989"/>
<text text-anchor="middle" x="641.5" y="-803" font-family="Helvetica,sans-Serif" font-size="10.00" fill="#000000"> &lt; uint64_t, sizeof...(Ts)&gt;</text>
</g>
<!-- Node15 -->
<g id="node11" class="node">
<title>Node15</title>
<g id="a_node11"><a xlink:href="../../dd/da8/structo2_1_1soa_1_1NTupleType.html" target="_top" xlink:title="{o2::soa::NTupleType\l\&lt; uint64_t, sizeof...\l(Ts)+1 \&gt;\n||}">
<polygon fill="none" stroke="#000000" points="661,-432 661,-511 774,-511 774,-432 661,-432"/>
<text text-anchor="start" x="669" y="-499" font-family="Helvetica,sans-Serif" font-size="10.00" fill="#000000">o2::soa::NTupleType</text>
<text text-anchor="start" x="669" y="-488" font-family="Helvetica,sans-Serif" font-size="10.00" fill="#000000">&lt; uint64_t, sizeof...</text>
<text text-anchor="middle" x="717.5" y="-477" font-family="Helvetica,sans-Serif" font-size="10.00" fill="#000000">(Ts)+1 &gt;</text>
<polyline fill="none" stroke="#000000" points="661,-470 774,-470 "/>
<text text-anchor="middle" x="717.5" y="-458" font-family="Helvetica,sans-Serif" font-size="10.00" fill="#000000"> </text>
<polyline fill="none" stroke="#000000" points="661,-451 774,-451 "/>
<text text-anchor="middle" x="717.5" y="-439" font-family="Helvetica,sans-Serif" font-size="10.00" fill="#000000"> </text>
</a>
</g>
</g>
<!-- Node11&#45;&gt;Node15 -->
<g id="edge14" class="edge">
<title>Node11&#45;&gt;Node15</title>
<path fill="none" stroke="#ffa500" d="M697.783,-821.0517C699.97,-817.8321 701.9083,-814.4759 703.5,-811 749.245,-711.105 735.8378,-576.8633 725.1361,-511.1277"/>
<polygon fill="#ffa500" stroke="#ffa500" points="694.804,-819.1839 691.4796,-829.2437 700.3518,-823.4527 694.804,-819.1839"/>
<text text-anchor="start" x="733.5" y="-687" font-family="Helvetica,sans-Serif" font-size="10.00" fill="#000000"> &lt; uint64_t, sizeof...</text>
<text text-anchor="middle" x="782.5" y="-676" font-family="Helvetica,sans-Serif" font-size="10.00" fill="#000000">(Ts)+1 &gt;</text>
</g>
<!-- Node12&#45;&gt;Node7 -->
<g id="edge7" class="edge">
<title>Node12&#45;&gt;Node7</title>
<path fill="none" stroke="#ffa500" d="M478.6817,-554.089C477.6046,-541.7026 476.4746,-528.7078 475.4381,-516.7879"/>
<polygon fill="#ffa500" stroke="#ffa500" points="475.2175,-554.6545 479.5708,-564.3136 482.1912,-554.048 475.2175,-554.6545"/>
<text text-anchor="middle" x="506" y="-538" font-family="Helvetica,sans-Serif" font-size="10.00" fill="#000000"> &lt; T, Ts... &gt;</text>
</g>
<!-- Node13 -->
<g id="node9" class="node">
<title>Node13</title>
<g id="a_node9"><a xlink:href="../../d6/d30/classuint64__t.html" target="_top" xlink:title="{uint64_t\n||}">
<polygon fill="none" stroke="#000000" points="78.5,-443 78.5,-500 134.5,-500 134.5,-443 78.5,-443"/>
<text text-anchor="middle" x="106.5" y="-488" font-family="Helvetica,sans-Serif" font-size="10.00" fill="#000000">uint64_t</text>
<polyline fill="none" stroke="#000000" points="78.5,-481 134.5,-481 "/>
<text text-anchor="middle" x="106.5" y="-469" font-family="Helvetica,sans-Serif" font-size="10.00" fill="#000000"> </text>
<polyline fill="none" stroke="#000000" points="78.5,-462 134.5,-462 "/>
<text text-anchor="middle" x="106.5" y="-450" font-family="Helvetica,sans-Serif" font-size="10.00" fill="#000000"> </text>
</a>
</g>
</g>
<!-- Node13&#45;&gt;Node5 -->
<g id="edge20" class="edge">
<title>Node13&#45;&gt;Node5</title>
<path fill="none" stroke="#404040" d="M102.6554,-442.872C97.6146,-403.8676 89.0022,-331.8038 85.5,-270 82.7515,-221.4961 82.293,-166.697 82.5002,-124.7616"/>
<polygon fill="none" stroke="#404040" points="82.5002,-124.7372 78.5399,-118.7109 82.5794,-112.7374 86.5398,-118.7637 82.5002,-124.7372"/>
<text text-anchor="middle" x="123.5" y="-262" font-family="Helvetica,sans-Serif" font-size="10.00" fill="#000000"> +mBeginIndex</text>
</g>
<!-- Node13&#45;&gt;Node6 -->
<g id="edge11" class="edge">
<title>Node13&#45;&gt;Node6</title>
<path fill="none" stroke="#404040" d="M105.8007,-442.9917C106.2908,-404.0876 112.4872,-333.9614 147.5,-288 166.4428,-263.1338 194.0295,-244.2343 221.6767,-230.2101"/>
<polygon fill="none" stroke="#404040" points="221.8718,-230.1155 225.5257,-223.8986 232.6697,-224.8804 229.0158,-231.0972 221.8718,-230.1155"/>
<text text-anchor="middle" x="204.5" y="-331" font-family="Helvetica,sans-Serif" font-size="10.00" fill="#000000"> +mSlidingWindowSize</text>
</g>
<!-- Node13&#45;&gt;Node16 -->
<g id="edge17" class="edge">
<title>Node13&#45;&gt;Node16</title>
<path fill="none" stroke="#404040" d="M134.9163,-450.9584C160.2836,-433.6923 199.1015,-409.8346 236.5,-397 290.4216,-378.4949 308.6862,-394.666 363.5,-379 364.3811,-378.7482 365.2644,-378.4903 366.1497,-378.2268"/>
<polygon fill="none" stroke="#404040" points="366.3093,-378.1755 370.797,-372.5309 377.7334,-374.5024 373.2457,-380.147 366.3093,-378.1755"/>
<text text-anchor="middle" x="293.5" y="-400" font-family="Helvetica,sans-Serif" font-size="10.00" fill="#000000"> +mSlidingWindowSize</text>
</g>
<!-- Node14 -->
<g id="node10" class="node">
<title>Node14</title>
<polygon fill="none" stroke="#bfbfbf" points="219.5,-437.5 219.5,-505.5 347.5,-505.5 347.5,-437.5 219.5,-437.5"/>
<text text-anchor="start" x="227.5" y="-493.5" font-family="Helvetica,sans-Serif" font-size="10.00" fill="#000000">vector&lt; std::pair&lt;</text>
<text text-anchor="middle" x="283.5" y="-482.5" font-family="Helvetica,sans-Serif" font-size="10.00" fill="#000000"> uint64_t, uint64_t &gt; &gt;</text>
<polyline fill="none" stroke="#bfbfbf" points="219.5,-475.5 347.5,-475.5 "/>
<text text-anchor="middle" x="283.5" y="-463.5" font-family="Helvetica,sans-Serif" font-size="10.00" fill="#000000"> </text>
<polyline fill="none" stroke="#bfbfbf" points="219.5,-456.5 347.5,-456.5 "/>
<text text-anchor="middle" x="283.5" y="-444.5" font-family="Helvetica,sans-Serif" font-size="10.00" fill="#000000"> </text>
</g>
<!-- Node14&#45;&gt;Node6 -->
<g id="edge12" class="edge">
<title>Node14&#45;&gt;Node6</title>
<path fill="none" stroke="#404040" d="M275.4362,-437.4576C267.991,-400.1898 259.8385,-338.9502 272.5,-288 275.5557,-275.704 280.5812,-263.2447 286.2771,-251.6231"/>
<polygon fill="none" stroke="#404040" points="286.3799,-251.4246 285.589,-244.257 291.9011,-240.7701 292.692,-247.9378 286.3799,-251.4246"/>
<text text-anchor="middle" x="321" y="-331" font-family="Helvetica,sans-Serif" font-size="10.00" fill="#000000"> +mGroupedIndices</text>
</g>
<!-- Node14&#45;&gt;Node16 -->
<g id="edge18" class="edge">
<title>Node14&#45;&gt;Node16</title>
<path fill="none" stroke="#404040" d="M319.6652,-437.2111C334.1171,-424.1053 351.1807,-409.3527 367.5,-397 372.6387,-393.1103 378.0152,-389.2146 383.4926,-385.3733"/>
<polygon fill="none" stroke="#404040" points="383.5474,-385.3356 386.2213,-378.6385 393.4317,-378.531 390.7578,-385.228 383.5474,-385.3356"/>
<text text-anchor="middle" x="416" y="-400" font-family="Helvetica,sans-Serif" font-size="10.00" fill="#000000"> +mGroupedIndices</text>
</g>
<!-- Node15&#45;&gt;Node6 -->
<g id="edge13" class="edge">
<title>Node15&#45;&gt;Node6</title>
<path fill="none" stroke="#404040" d="M709.7079,-431.6782C706.3938,-419.9943 701.7945,-407.5353 695.5,-397 649.5388,-320.0728 628.4447,-299.4854 548.5,-259 509.1247,-239.0596 462.6357,-224.6501 422.0159,-214.6505"/>
<polygon fill="none" stroke="#404040" points="421.8417,-214.6089 415.0757,-217.1032 410.1709,-211.8171 416.9369,-209.3227 421.8417,-214.6089"/>
<text text-anchor="middle" x="729.5" y="-331" font-family="Helvetica,sans-Serif" font-size="10.00" fill="#000000"> +mCurrentIndices</text>
</g>
<!-- Node15&#45;&gt;Node16 -->
<g id="edge19" class="edge">
<title>Node15&#45;&gt;Node16</title>
<path fill="none" stroke="#404040" d="M660.8577,-440.358C630.9802,-423.9314 593.5616,-403.3585 559.5553,-384.6619"/>
<polygon fill="none" stroke="#404040" points="559.1636,-384.4466 551.9787,-385.061 548.6481,-378.6651 555.833,-378.0507 559.1636,-384.4466"/>
<text text-anchor="middle" x="645.5" y="-400" font-family="Helvetica,sans-Serif" font-size="10.00" fill="#000000"> +mCurrentIndices</text>
</g>
<!-- Node16&#45;&gt;Node6 -->
<g id="edge15" class="edge">
<title>Node16&#45;&gt;Node6</title>
<path fill="none" stroke="#ffa500" d="M411.7755,-281.4174C397.7305,-268.0504 382.7369,-253.7806 369.0851,-240.7879"/>
<polygon fill="#ffa500" stroke="#ffa500" points="409.3649,-283.9549 419.0216,-288.3136 414.1907,-278.8842 409.3649,-283.9549"/>
<text text-anchor="middle" x="435" y="-262" font-family="Helvetica,sans-Serif" font-size="10.00" fill="#000000"> &lt; T1, T, Ts... &gt;</text>
</g>
</g>
</svg>
