<?xml version="1.0" encoding="UTF-8" standalone="no"?>
<!DOCTYPE svg PUBLIC "-//W3C//DTD SVG 1.1//EN"
 "http://www.w3.org/Graphics/SVG/1.1/DTD/svg11.dtd">
<!-- Generated by graphviz version 2.40.1 (20161225.0304)
 -->
<!-- Title: GPUCA_NAMESPACE::gpu::TPCFastSpaceChargeCorrection Pages: 1 -->
<svg width="439pt" height="816pt"
 viewBox="0.00 0.00 439.00 816.00" xmlns="http://www.w3.org/2000/svg" xmlns:xlink="http://www.w3.org/1999/xlink">
<g id="graph0" class="graph" transform="scale(1 1) rotate(0) translate(4 812)">
<title>GPUCA_NAMESPACE::gpu::TPCFastSpaceChargeCorrection</title>
<!-- Node2 -->
<g id="node1" class="node">
<title>Node2</title>
<polygon fill="#bfbfbf" stroke="#000000" points="235,-.5 235,-299.5 431,-299.5 431,-.5 235,-.5"/>
<text text-anchor="start" x="243" y="-287.5" font-family="Helvetica,sans-Serif" font-size="10.00" fill="#000000">GPUCA_NAMESPACE::gpu</text>
<text text-anchor="middle" x="333" y="-276.5" font-family="Helvetica,sans-Serif" font-size="10.00" fill="#000000">::TPCFastSpaceChargeCorrection</text>
<polyline fill="none" stroke="#000000" points="235,-269.5 431,-269.5 "/>
<text text-anchor="middle" x="333" y="-257.5" font-family="Helvetica,sans-Serif" font-size="10.00" fill="#000000"> </text>
<polyline fill="none" stroke="#000000" points="235,-250.5 431,-250.5 "/>
<text text-anchor="start" x="243" y="-238.5" font-family="Helvetica,sans-Serif" font-size="10.00" fill="#000000">+ TPCFastSpaceChargeCorrection()</text>
<text text-anchor="start" x="243" y="-227.5" font-family="Helvetica,sans-Serif" font-size="10.00" fill="#000000">+ TPCFastSpaceChargeCorrection()</text>
<text text-anchor="start" x="243" y="-216.5" font-family="Helvetica,sans-Serif" font-size="10.00" fill="#000000">+ operator=()</text>
<text text-anchor="start" x="243" y="-205.5" font-family="Helvetica,sans-Serif" font-size="10.00" fill="#000000">+ ~TPCFastSpaceChargeCorrection()</text>
<text text-anchor="start" x="243" y="-194.5" font-family="Helvetica,sans-Serif" font-size="10.00" fill="#000000">+ cloneFromObject()</text>
<text text-anchor="start" x="243" y="-183.5" font-family="Helvetica,sans-Serif" font-size="10.00" fill="#000000">+ destroy()</text>
<text text-anchor="start" x="243" y="-172.5" font-family="Helvetica,sans-Serif" font-size="10.00" fill="#000000">+ moveBufferTo()</text>
<text text-anchor="start" x="243" y="-161.5" font-family="Helvetica,sans-Serif" font-size="10.00" fill="#000000">+ setActualBufferAddress()</text>
<text text-anchor="start" x="243" y="-150.5" font-family="Helvetica,sans-Serif" font-size="10.00" fill="#000000">+ setFutureBufferAddress()</text>
<text text-anchor="start" x="243" y="-139.5" font-family="Helvetica,sans-Serif" font-size="10.00" fill="#000000">+ startConstruction()</text>
<text text-anchor="start" x="243" y="-128.5" font-family="Helvetica,sans-Serif" font-size="10.00" fill="#000000">+ setRowScenarioID()</text>
<text text-anchor="start" x="243" y="-117.5" font-family="Helvetica,sans-Serif" font-size="10.00" fill="#000000">+ setSplineScenario()</text>
<text text-anchor="start" x="243" y="-106.5" font-family="Helvetica,sans-Serif" font-size="10.00" fill="#000000">+ finishConstruction()</text>
<text text-anchor="start" x="243" y="-95.5" font-family="Helvetica,sans-Serif" font-size="10.00" fill="#000000">+ setTimeStamp()</text>
<text text-anchor="start" x="243" y="-84.5" font-family="Helvetica,sans-Serif" font-size="10.00" fill="#000000">+ GPUd()</text>
<text text-anchor="start" x="243" y="-73.5" font-family="Helvetica,sans-Serif" font-size="10.00" fill="#000000">+ GPUd()</text>
<text text-anchor="start" x="243" y="-62.5" font-family="Helvetica,sans-Serif" font-size="10.00" fill="#000000">+ GPUd()</text>
<text text-anchor="start" x="243" y="-51.5" font-family="Helvetica,sans-Serif" font-size="10.00" fill="#000000">+ GPUd()</text>
<text text-anchor="start" x="243" y="-40.5" font-family="Helvetica,sans-Serif" font-size="10.00" fill="#000000">+ GPUd()</text>
<text text-anchor="start" x="243" y="-29.5" font-family="Helvetica,sans-Serif" font-size="10.00" fill="#000000">+ getTimeStamp()</text>
<text text-anchor="start" x="243" y="-18.5" font-family="Helvetica,sans-Serif" font-size="10.00" fill="#000000">+ GPUd()</text>
<text text-anchor="start" x="243" y="-7.5" font-family="Helvetica,sans-Serif" font-size="10.00" fill="#000000">+ print()</text>
</g>
<!-- Node3 -->
<g id="node2" class="node">
<title>Node3</title>
<g id="a_node2"><a xlink:href="../../dc/d5e/classGPUCA__NAMESPACE_1_1gpu_1_1FlatObject.html" target="_top" xlink:title="GPUCA_GPUCODE. ">
<polygon fill="none" stroke="#000000" points="137,-337.5 137,-691.5 295,-691.5 295,-337.5 137,-337.5"/>
<text text-anchor="start" x="145" y="-679.5" font-family="Helvetica,sans-Serif" font-size="10.00" fill="#000000">GPUCA_NAMESPACE::gpu</text>
<text text-anchor="middle" x="216" y="-668.5" font-family="Helvetica,sans-Serif" font-size="10.00" fill="#000000">::FlatObject</text>
<polyline fill="none" stroke="#000000" points="137,-661.5 295,-661.5 "/>
<text text-anchor="middle" x="216" y="-649.5" font-family="Helvetica,sans-Serif" font-size="10.00" fill="#000000"> </text>
<polyline fill="none" stroke="#000000" points="137,-642.5 295,-642.5 "/>
<text text-anchor="start" x="145" y="-630.5" font-family="Helvetica,sans-Serif" font-size="10.00" fill="#000000">+ FlatObject()</text>
<text text-anchor="start" x="145" y="-619.5" font-family="Helvetica,sans-Serif" font-size="10.00" fill="#000000">+ ~FlatObject()</text>
<text text-anchor="start" x="145" y="-608.5" font-family="Helvetica,sans-Serif" font-size="10.00" fill="#000000">+ FlatObject()</text>
<text text-anchor="start" x="145" y="-597.5" font-family="Helvetica,sans-Serif" font-size="10.00" fill="#000000">+ operator=()</text>
<text text-anchor="start" x="145" y="-586.5" font-family="Helvetica,sans-Serif" font-size="10.00" fill="#000000">+ getFlatBufferSize()</text>
<text text-anchor="start" x="145" y="-575.5" font-family="Helvetica,sans-Serif" font-size="10.00" fill="#000000">+ getFlatBufferPtr()</text>
<text text-anchor="start" x="145" y="-564.5" font-family="Helvetica,sans-Serif" font-size="10.00" fill="#000000">+ isConstructed()</text>
<text text-anchor="start" x="145" y="-553.5" font-family="Helvetica,sans-Serif" font-size="10.00" fill="#000000">+ isBufferInternal()</text>
<text text-anchor="start" x="145" y="-542.5" font-family="Helvetica,sans-Serif" font-size="10.00" fill="#000000">+ adoptInternalBuffer()</text>
<text text-anchor="start" x="145" y="-531.5" font-family="Helvetica,sans-Serif" font-size="10.00" fill="#000000">+ clearInternalBufferPtr()</text>
<text text-anchor="start" x="145" y="-520.5" font-family="Helvetica,sans-Serif" font-size="10.00" fill="#000000">+ printC()</text>
<text text-anchor="start" x="145" y="-509.5" font-family="Helvetica,sans-Serif" font-size="10.00" fill="#000000">+ alignSize()</text>
<text text-anchor="start" x="145" y="-498.5" font-family="Helvetica,sans-Serif" font-size="10.00" fill="#000000">+ relocatePointer()</text>
<text text-anchor="start" x="145" y="-487.5" font-family="Helvetica,sans-Serif" font-size="10.00" fill="#000000">+ writeToFile()</text>
<text text-anchor="start" x="145" y="-476.5" font-family="Helvetica,sans-Serif" font-size="10.00" fill="#000000">+ readFromFile()</text>
<text text-anchor="start" x="145" y="-465.5" font-family="Helvetica,sans-Serif" font-size="10.00" fill="#000000">+ stressTest()</text>
<text text-anchor="start" x="145" y="-454.5" font-family="Helvetica,sans-Serif" font-size="10.00" fill="#000000"># startConstruction()</text>
<text text-anchor="start" x="145" y="-443.5" font-family="Helvetica,sans-Serif" font-size="10.00" fill="#000000"># finishConstruction()</text>
<text text-anchor="start" x="145" y="-432.5" font-family="Helvetica,sans-Serif" font-size="10.00" fill="#000000"># destroy()</text>
<text text-anchor="start" x="145" y="-421.5" font-family="Helvetica,sans-Serif" font-size="10.00" fill="#000000"># cloneFromObject()</text>
<text text-anchor="start" x="145" y="-410.5" font-family="Helvetica,sans-Serif" font-size="10.00" fill="#000000"># releaseInternalBuffer()</text>
<text text-anchor="start" x="145" y="-399.5" font-family="Helvetica,sans-Serif" font-size="10.00" fill="#000000"># moveBufferTo()</text>
<text text-anchor="start" x="145" y="-388.5" font-family="Helvetica,sans-Serif" font-size="10.00" fill="#000000"># setActualBufferAddress()</text>
<text text-anchor="start" x="145" y="-377.5" font-family="Helvetica,sans-Serif" font-size="10.00" fill="#000000"># setFutureBufferAddress()</text>
<text text-anchor="start" x="145" y="-366.5" font-family="Helvetica,sans-Serif" font-size="10.00" fill="#000000"># ClassDefNV()</text>
<text text-anchor="start" x="145" y="-355.5" font-family="Helvetica,sans-Serif" font-size="10.00" fill="#000000"># getClassAlignmentBytes()</text>
<text text-anchor="start" x="145" y="-344.5" font-family="Helvetica,sans-Serif" font-size="10.00" fill="#000000"># getBufferAlignmentBytes()</text>
</a>
</g>
</g>
<!-- Node3&#45;&gt;Node2 -->
<g id="edge1" class="edge">
<title>Node3&#45;&gt;Node2</title>
<path fill="none" stroke="#191970" d="M275.9996,-327.5783C279.0002,-318.2302 281.9955,-308.8985 284.954,-299.6816"/>
<polygon fill="none" stroke="#191970" points="272.5958,-326.7306 272.872,-337.3218 279.2609,-328.87 272.5958,-326.7306"/>
</g>
<!-- Node4 -->
<g id="node3" class="node">
<title>Node4</title>
<polygon fill="none" stroke="#bfbfbf" points="0,-750.5 0,-807.5 38,-807.5 38,-750.5 0,-750.5"/>
<text text-anchor="middle" x="19" y="-795.5" font-family="Helvetica,sans-Serif" font-size="10.00" fill="#000000">char</text>
<polyline fill="none" stroke="#bfbfbf" points="0,-788.5 38,-788.5 "/>
<text text-anchor="middle" x="19" y="-776.5" font-family="Helvetica,sans-Serif" font-size="10.00" fill="#000000"> </text>
<polyline fill="none" stroke="#bfbfbf" points="0,-769.5 38,-769.5 "/>
<text text-anchor="middle" x="19" y="-757.5" font-family="Helvetica,sans-Serif" font-size="10.00" fill="#000000"> </text>
</g>
<!-- Node4&#45;&gt;Node3 -->
<g id="edge2" class="edge">
<title>Node4&#45;&gt;Node3</title>
<path fill="none" stroke="#404040" d="M22.7466,-750.2995C25.2464,-737.4289 29.3454,-722.3907 36,-710 59.3447,-666.5325 94.5973,-625.2646 127.735,-591.9441"/>
<polygon fill="none" stroke="#404040" points="128.0318,-591.6502 129.4801,-584.586 136.558,-583.2059 135.1096,-590.2701 128.0318,-591.6502"/>
<text text-anchor="middle" x="92.5" y="-724" font-family="Helvetica,sans-Serif" font-size="10.00" fill="#000000"> #mFlatBufferPtr</text>
<text text-anchor="middle" x="92.5" y="-713" font-family="Helvetica,sans-Serif" font-size="10.00" fill="#000000">#mFlatBufferContainer</text>
</g>
<!-- Node5 -->
<g id="node4" class="node">
<title>Node5</title>
<polygon fill="none" stroke="#bfbfbf" points="324.5,-750.5 324.5,-807.5 353.5,-807.5 353.5,-750.5 324.5,-750.5"/>
<text text-anchor="middle" x="339" y="-795.5" font-family="Helvetica,sans-Serif" font-size="10.00" fill="#000000">int</text>
<polyline fill="none" stroke="#bfbfbf" points="324.5,-788.5 353.5,-788.5 "/>
<text text-anchor="middle" x="339" y="-776.5" font-family="Helvetica,sans-Serif" font-size="10.00" fill="#000000"> </text>
<polyline fill="none" stroke="#bfbfbf" points="324.5,-769.5 353.5,-769.5 "/>
<text text-anchor="middle" x="339" y="-757.5" font-family="Helvetica,sans-Serif" font-size="10.00" fill="#000000"> </text>
</g>
<!-- Node5&#45;&gt;Node2 -->
<g id="edge5" class="edge">
<title>Node5&#45;&gt;Node2</title>
<path fill="none" stroke="#404040" d="M353.8589,-765.7923C362.4228,-757.1459 372.3815,-745.0582 377,-732 380.2603,-722.7818 377.3832,-719.7703 377,-710 371.7262,-575.5499 359.3562,-423.3601 349.0711,-311.6065"/>
<polygon fill="none" stroke="#404040" points="349.0616,-311.5034 344.5256,-305.8976 347.9555,-299.5544 352.4915,-305.1602 349.0616,-311.5034"/>
<text text-anchor="middle" x="395" y="-539.5" font-family="Helvetica,sans-Serif" font-size="10.00" fill="#000000"> +const</text>
<text text-anchor="middle" x="395" y="-528.5" font-family="Helvetica,sans-Serif" font-size="10.00" fill="#000000">+u</text>
<text text-anchor="middle" x="395" y="-517.5" font-family="Helvetica,sans-Serif" font-size="10.00" fill="#000000">+v</text>
<text text-anchor="middle" x="395" y="-506.5" font-family="Helvetica,sans-Serif" font-size="10.00" fill="#000000">+du</text>
<text text-anchor="middle" x="395" y="-495.5" font-family="Helvetica,sans-Serif" font-size="10.00" fill="#000000">+row</text>
<text text-anchor="middle" x="395" y="-484.5" font-family="Helvetica,sans-Serif" font-size="10.00" fill="#000000">+dx</text>
</g>
<!-- Node5&#45;&gt;Node3 -->
<g id="edge3" class="edge">
<title>Node5&#45;&gt;Node3</title>
<path fill="none" stroke="#404040" d="M324.1219,-768.6066C312.7777,-759.9819 297.5298,-746.7722 288,-732 282.0223,-722.734 276.495,-712.9242 271.3905,-702.7971"/>
<polygon fill="none" stroke="#404040" points="271.2445,-702.4954 265.03,-698.8376 266.0163,-691.6942 272.2308,-695.3521 271.2445,-702.4954"/>
<text text-anchor="middle" x="332.5" y="-718.5" font-family="Helvetica,sans-Serif" font-size="10.00" fill="#000000"> #mFlatBufferSize</text>
</g>
<!-- Node6 -->
<g id="node5" class="node">
<title>Node6</title>
<polygon fill="none" stroke="#bfbfbf" points="124.5,-750.5 124.5,-807.5 185.5,-807.5 185.5,-750.5 124.5,-750.5"/>
<text text-anchor="middle" x="155" y="-795.5" font-family="Helvetica,sans-Serif" font-size="10.00" fill="#000000">unsigned</text>
<polyline fill="none" stroke="#bfbfbf" points="124.5,-788.5 185.5,-788.5 "/>
<text text-anchor="middle" x="155" y="-776.5" font-family="Helvetica,sans-Serif" font-size="10.00" fill="#000000"> </text>
<polyline fill="none" stroke="#bfbfbf" points="124.5,-769.5 185.5,-769.5 "/>
<text text-anchor="middle" x="155" y="-757.5" font-family="Helvetica,sans-Serif" font-size="10.00" fill="#000000"> </text>
</g>
<!-- Node6&#45;&gt;Node3 -->
<g id="edge4" class="edge">
<title>Node6&#45;&gt;Node3</title>
<path fill="none" stroke="#404040" d="M153.6088,-750.3106C153.4694,-737.8534 153.9321,-723.1365 156,-710 156.3274,-707.9204 156.6718,-705.8322 157.0322,-703.737"/>
<polygon fill="none" stroke="#404040" points="157.0815,-703.4702 154.2403,-696.8424 159.2656,-691.6706 162.1067,-698.2984 157.0815,-703.4702"/>
<text text-anchor="middle" x="210.5" y="-718.5" font-family="Helvetica,sans-Serif" font-size="10.00" fill="#000000"> #mConstructionMask</text>
</g>
</g>
</svg>
