<?xml version="1.0" encoding="UTF-8" standalone="no"?>
<!DOCTYPE svg PUBLIC "-//W3C//DTD SVG 1.1//EN"
 "http://www.w3.org/Graphics/SVG/1.1/DTD/svg11.dtd">
<!-- Generated by graphviz version 2.40.1 (20161225.0304)
 -->
<!-- Title: /home/travis/build/AliceO2Group/AliceO2/Framework/Core/include/Framework/TableBuilder.h Pages: 1 -->
<svg width="2393pt" height="285pt"
 viewBox="0.00 0.00 2393.00 285.00" xmlns="http://www.w3.org/2000/svg" xmlns:xlink="http://www.w3.org/1999/xlink">
<g id="graph0" class="graph" transform="scale(1 1) rotate(0) translate(4 281)">
<title>/home/travis/build/AliceO2Group/AliceO2/Framework/Core/include/Framework/TableBuilder.h</title>
<!-- Node0 -->
<g id="node1" class="node">
<title>Node0</title>
<polygon fill="#bfbfbf" stroke="#000000" points="1690,-224.5 1690,-276.5 1835,-276.5 1835,-224.5 1690,-224.5"/>
<text text-anchor="start" x="1698" y="-264.5" font-family="Helvetica,sans-Serif" font-size="10.00" fill="#000000">/home/travis/build</text>
<text text-anchor="start" x="1698" y="-253.5" font-family="Helvetica,sans-Serif" font-size="10.00" fill="#000000">/AliceO2Group/AliceO2</text>
<text text-anchor="start" x="1698" y="-242.5" font-family="Helvetica,sans-Serif" font-size="10.00" fill="#000000">/Framework/Core/include</text>
<text text-anchor="middle" x="1762.5" y="-231.5" font-family="Helvetica,sans-Serif" font-size="10.00" fill="#000000">/Framework/TableBuilder.h</text>
</g>
<!-- Node1 -->
<g id="node2" class="node">
<title>Node1</title>
<g id="a_node2"><a xlink:href="../../de/d33/ASoA_8h.html" target="_top" xlink:title="Framework/ASoA.h">
<polygon fill="none" stroke="#000000" points="874.5,-168.5 874.5,-187.5 982.5,-187.5 982.5,-168.5 874.5,-168.5"/>
<text text-anchor="middle" x="928.5" y="-175.5" font-family="Helvetica,sans-Serif" font-size="10.00" fill="#000000">Framework/ASoA.h</text>
</a>
</g>
</g>
<!-- Node0&#45;&gt;Node1 -->
<g id="edge1" class="edge">
<title>Node0&#45;&gt;Node1</title>
<path fill="none" stroke="#191970" d="M1689.9469,-244.1929C1529.2721,-230.2254 1145.5984,-196.8725 992.8462,-183.5936"/>
<polygon fill="#191970" stroke="#191970" points="992.9536,-180.0899 982.6881,-182.7106 992.3473,-187.0636 992.9536,-180.0899"/>
</g>
<!-- Node7 -->
<g id="node8" class="node">
<title>Node7</title>
<g id="a_node8"><a xlink:href="../../de/d9b/FunctionalHelpers_8h.html" target="_top" xlink:title="Framework/FunctionalHelpers.h">
<polygon fill="none" stroke="#000000" points="60.5,-112.5 60.5,-131.5 230.5,-131.5 230.5,-112.5 60.5,-112.5"/>
<text text-anchor="middle" x="145.5" y="-119.5" font-family="Helvetica,sans-Serif" font-size="10.00" fill="#000000">Framework/FunctionalHelpers.h</text>
</a>
</g>
</g>
<!-- Node0&#45;&gt;Node7 -->
<g id="edge44" class="edge">
<title>Node0&#45;&gt;Node7</title>
<path fill="none" stroke="#191970" d="M1689.6943,-249.5778C1500.6904,-246.5727 979.0645,-234.3812 547.5,-188 424.0055,-174.7278 280.7668,-148.6059 202.9883,-133.5098"/>
<polygon fill="#191970" stroke="#191970" points="203.4007,-130.0244 192.9156,-131.5453 202.0606,-136.8949 203.4007,-130.0244"/>
</g>
<!-- Node8 -->
<g id="node9" class="node">
<title>Node8</title>
<polygon fill="none" stroke="#bfbfbf" points="0,-56.5 0,-75.5 65,-75.5 65,-56.5 0,-56.5"/>
<text text-anchor="middle" x="32.5" y="-63.5" font-family="Helvetica,sans-Serif" font-size="10.00" fill="#000000">functional</text>
</g>
<!-- Node0&#45;&gt;Node8 -->
<g id="edge52" class="edge">
<title>Node0&#45;&gt;Node8</title>
<path fill="none" stroke="#191970" d="M1689.8812,-250.0723C1485.9404,-248.246 890.7943,-238.6277 399.5,-188 243.6688,-171.9417 168.7547,-235.8873 51.5,-132 38.5564,-120.532 34.1805,-100.8749 32.8189,-85.9882"/>
<polygon fill="#191970" stroke="#191970" points="36.3005,-85.5482 32.2733,-75.7486 29.3105,-85.9207 36.3005,-85.5482"/>
</g>
<!-- Node18 -->
<g id="node19" class="node">
<title>Node18</title>
<polygon fill="none" stroke="#bfbfbf" points="1638,-56.5 1638,-75.5 1719,-75.5 1719,-56.5 1638,-56.5"/>
<text text-anchor="middle" x="1678.5" y="-63.5" font-family="Helvetica,sans-Serif" font-size="10.00" fill="#000000">arrow/table.h</text>
</g>
<!-- Node0&#45;&gt;Node18 -->
<g id="edge50" class="edge">
<title>Node0&#45;&gt;Node18</title>
<path fill="none" stroke="#191970" d="M1718.5214,-224.256C1706.0239,-214.5093 1693.83,-202.2875 1686.5,-188 1669.6956,-155.2452 1671.9889,-110.8754 1675.216,-85.6629"/>
<polygon fill="#191970" stroke="#191970" points="1678.7128,-85.9391 1676.6991,-75.5373 1671.7867,-84.9245 1678.7128,-85.9391"/>
</g>
<!-- Node23 -->
<g id="node24" class="node">
<title>Node23</title>
<polygon fill="none" stroke="#bfbfbf" points="1737.5,-56.5 1737.5,-75.5 1781.5,-75.5 1781.5,-56.5 1737.5,-56.5"/>
<text text-anchor="middle" x="1759.5" y="-63.5" font-family="Helvetica,sans-Serif" font-size="10.00" fill="#000000">string</text>
</g>
<!-- Node0&#45;&gt;Node23 -->
<g id="edge54" class="edge">
<title>Node0&#45;&gt;Node23</title>
<path fill="none" stroke="#191970" d="M1725.3082,-224.2887C1714.2212,-214.3288 1703.4485,-201.9719 1697.5,-188 1684.2685,-156.9216 1682.3159,-142.1725 1697.5,-112 1704.1737,-98.7387 1716.6793,-88.3415 1728.7207,-80.8125"/>
<polygon fill="#191970" stroke="#191970" points="1730.8201,-83.6422 1737.7342,-75.6143 1727.323,-77.5783 1730.8201,-83.6422"/>
</g>
<!-- Node24 -->
<g id="node25" class="node">
<title>Node24</title>
<polygon fill="none" stroke="#bfbfbf" points="1799.5,-56.5 1799.5,-75.5 1857.5,-75.5 1857.5,-56.5 1799.5,-56.5"/>
<text text-anchor="middle" x="1828.5" y="-63.5" font-family="Helvetica,sans-Serif" font-size="10.00" fill="#000000">memory</text>
</g>
<!-- Node0&#45;&gt;Node24 -->
<g id="edge55" class="edge">
<title>Node0&#45;&gt;Node24</title>
<path fill="none" stroke="#191970" d="M1745.4217,-224.2689C1728.6298,-194.8374 1708.4662,-146.6827 1730.5,-112 1737.529,-100.9359 1765.9919,-88.2724 1790.445,-79.0371"/>
<polygon fill="#191970" stroke="#191970" points="1791.7363,-82.2914 1799.9115,-75.5523 1789.318,-75.7224 1791.7363,-82.2914"/>
</g>
<!-- Node32 -->
<g id="node33" class="node">
<title>Node32</title>
<g id="a_node33"><a xlink:href="../../db/d4f/StructToTuple_8h.html" target="_top" xlink:title="Framework/StructToTuple.h">
<polygon fill="none" stroke="#000000" points="1740,-168.5 1740,-187.5 1887,-187.5 1887,-168.5 1740,-168.5"/>
<text text-anchor="middle" x="1813.5" y="-175.5" font-family="Helvetica,sans-Serif" font-size="10.00" fill="#000000">Framework/StructToTuple.h</text>
</a>
</g>
</g>
<!-- Node0&#45;&gt;Node32 -->
<g id="edge40" class="edge">
<title>Node0&#45;&gt;Node32</title>
<path fill="none" stroke="#191970" d="M1780.9122,-224.3258C1787.5334,-214.9134 1794.8471,-204.5164 1800.8654,-195.961"/>
<polygon fill="#191970" stroke="#191970" points="1803.9024,-197.7268 1806.7933,-187.534 1798.1771,-193.6993 1803.9024,-197.7268"/>
</g>
<!-- Node33 -->
<g id="node34" class="node">
<title>Node33</title>
<polygon fill="none" stroke="#bfbfbf" points="1906,-112.5 1906,-131.5 1947,-131.5 1947,-112.5 1906,-112.5"/>
<text text-anchor="middle" x="1926.5" y="-119.5" font-family="Helvetica,sans-Serif" font-size="10.00" fill="#000000">tuple</text>
</g>
<!-- Node0&#45;&gt;Node33 -->
<g id="edge56" class="edge">
<title>Node0&#45;&gt;Node33</title>
<path fill="none" stroke="#191970" d="M1835.1702,-227.6897C1856.9448,-218.1267 1879.5215,-205.1457 1896.5,-188 1909.2033,-175.1717 1917.0894,-155.9989 1921.5684,-141.6185"/>
<polygon fill="#191970" stroke="#191970" points="1925.0084,-142.315 1924.3527,-131.7404 1918.2709,-140.4158 1925.0084,-142.315"/>
</g>
<!-- Node34 -->
<g id="node35" class="node">
<title>Node34</title>
<g id="a_node35"><a xlink:href="../../d7/dbe/VariantHelpers_8h.html" target="_top" xlink:title="Framework/VariantHelpers.h">
<polygon fill="none" stroke="#000000" points="557,-168.5 557,-187.5 712,-187.5 712,-168.5 557,-168.5"/>
<text text-anchor="middle" x="634.5" y="-175.5" font-family="Helvetica,sans-Serif" font-size="10.00" fill="#000000">Framework/VariantHelpers.h</text>
</a>
</g>
</g>
<!-- Node0&#45;&gt;Node34 -->
<g id="edge45" class="edge">
<title>Node0&#45;&gt;Node34</title>
<path fill="none" stroke="#191970" d="M1689.7908,-245.8268C1490.7503,-233.0338 937.5167,-197.4758 722.011,-183.6246"/>
<polygon fill="#191970" stroke="#191970" points="722.2108,-180.1303 712.0068,-182.9816 721.7617,-187.1159 722.2108,-180.1303"/>
</g>
<!-- Node35 -->
<g id="node36" class="node">
<title>Node35</title>
<polygon fill="none" stroke="#bfbfbf" points="1943.5,-168.5 1943.5,-187.5 1999.5,-187.5 1999.5,-168.5 1943.5,-168.5"/>
<text text-anchor="middle" x="1971.5" y="-175.5" font-family="Helvetica,sans-Serif" font-size="10.00" fill="#000000">sstream</text>
</g>
<!-- Node0&#45;&gt;Node35 -->
<g id="edge47" class="edge">
<title>Node0&#45;&gt;Node35</title>
<path fill="none" stroke="#191970" d="M1835.0115,-225.3465C1868.5077,-213.727 1906.8566,-200.4241 1934.3587,-190.8839"/>
<polygon fill="#191970" stroke="#191970" points="1935.6706,-194.1335 1943.9712,-187.5495 1933.3764,-187.5201 1935.6706,-194.1335"/>
</g>
<!-- Node36 -->
<g id="node37" class="node">
<title>Node36</title>
<polygon fill="none" stroke="#bfbfbf" points="2017.5,-168.5 2017.5,-187.5 2085.5,-187.5 2085.5,-168.5 2017.5,-168.5"/>
<text text-anchor="middle" x="2051.5" y="-175.5" font-family="Helvetica,sans-Serif" font-size="10.00" fill="#000000">arrow/stl.h</text>
</g>
<!-- Node0&#45;&gt;Node36 -->
<g id="edge48" class="edge">
<title>Node0&#45;&gt;Node36</title>
<path fill="none" stroke="#191970" d="M1835.0539,-232.2988C1889.3044,-218.6892 1961.7194,-200.5228 2007.4902,-189.0405"/>
<polygon fill="#191970" stroke="#191970" points="2008.5508,-192.383 2017.3986,-186.5548 2006.8475,-185.5934 2008.5508,-192.383"/>
</g>
<!-- Node37 -->
<g id="node38" class="node">
<title>Node37</title>
<polygon fill="none" stroke="#bfbfbf" points="2104,-168.5 2104,-187.5 2213,-187.5 2213,-168.5 2104,-168.5"/>
<text text-anchor="middle" x="2158.5" y="-175.5" font-family="Helvetica,sans-Serif" font-size="10.00" fill="#000000">arrow/type_traits.h</text>
</g>
<!-- Node0&#45;&gt;Node37 -->
<g id="edge49" class="edge">
<title>Node0&#45;&gt;Node37</title>
<path fill="none" stroke="#191970" d="M1835.1325,-237.2024C1910.0446,-223.4874 2025.6295,-202.326 2096.4175,-189.3661"/>
<polygon fill="#191970" stroke="#191970" points="2097.3203,-192.7591 2106.5265,-187.5154 2096.0596,-185.8735 2097.3203,-192.7591"/>
</g>
<!-- Node38 -->
<g id="node39" class="node">
<title>Node38</title>
<polygon fill="none" stroke="#bfbfbf" points="2231,-168.5 2231,-187.5 2320,-187.5 2320,-168.5 2231,-168.5"/>
<text text-anchor="middle" x="2275.5" y="-175.5" font-family="Helvetica,sans-Serif" font-size="10.00" fill="#000000">arrow/builder.h</text>
</g>
<!-- Node0&#45;&gt;Node38 -->
<g id="edge51" class="edge">
<title>Node0&#45;&gt;Node38</title>
<path fill="none" stroke="#191970" d="M1835.1723,-241.7987C1923.8554,-230.9171 2078.5965,-211.0826 2220.7816,-188.2201"/>
<polygon fill="#191970" stroke="#191970" points="2221.6829,-191.6199 2230.9962,-186.5688 2220.5658,-184.7096 2221.6829,-191.6199"/>
</g>
<!-- Node39 -->
<g id="node40" class="node">
<title>Node39</title>
<polygon fill="none" stroke="#bfbfbf" points="2338,-168.5 2338,-187.5 2385,-187.5 2385,-168.5 2338,-168.5"/>
<text text-anchor="middle" x="2361.5" y="-175.5" font-family="Helvetica,sans-Serif" font-size="10.00" fill="#000000">vector</text>
</g>
<!-- Node0&#45;&gt;Node39 -->
<g id="edge53" class="edge">
<title>Node0&#45;&gt;Node39</title>
<path fill="none" stroke="#191970" d="M1835.2561,-246.9802C1941.879,-240.8301 2146.7225,-225.2498 2327.8937,-188.0205"/>
<polygon fill="#191970" stroke="#191970" points="2328.7923,-191.4086 2337.8689,-185.9436 2327.3654,-184.5555 2328.7923,-191.4086"/>
</g>
<!-- Node2 -->
<g id="node3" class="node">
<title>Node2</title>
<g id="a_node3"><a xlink:href="../../dd/dce/Pack_8h.html" target="_top" xlink:title="Framework/Pack.h">
<polygon fill="none" stroke="#000000" points="83,-56.5 83,-75.5 188,-75.5 188,-56.5 83,-56.5"/>
<text text-anchor="middle" x="135.5" y="-63.5" font-family="Helvetica,sans-Serif" font-size="10.00" fill="#000000">Framework/Pack.h</text>
</a>
</g>
</g>
<!-- Node1&#45;&gt;Node2 -->
<g id="edge2" class="edge">
<title>Node1&#45;&gt;Node2</title>
<path fill="none" stroke="#191970" d="M874.4257,-175.7026C746.4659,-169.9733 428.012,-153.9216 323.5,-132 266.4053,-120.0243 202.9476,-95.1847 166.2881,-79.6269"/>
<polygon fill="#191970" stroke="#191970" points="167.256,-76.2336 156.6864,-75.5034 164.4937,-82.6655 167.256,-76.2336"/>
</g>
<!-- Node6 -->
<g id="node7" class="node">
<title>Node6</title>
<g id="a_node7"><a xlink:href="../../d1/d00/CheckTypes_8h.html" target="_top" xlink:title="Framework/CheckTypes.h">
<polygon fill="none" stroke="#000000" points="388.5,-56.5 388.5,-75.5 528.5,-75.5 528.5,-56.5 388.5,-56.5"/>
<text text-anchor="middle" x="458.5" y="-63.5" font-family="Helvetica,sans-Serif" font-size="10.00" fill="#000000">Framework/CheckTypes.h</text>
</a>
</g>
</g>
<!-- Node1&#45;&gt;Node6 -->
<g id="edge6" class="edge">
<title>Node1&#45;&gt;Node6</title>
<path fill="none" stroke="#191970" d="M921.886,-168.3391C911.0294,-153.3598 887.8787,-124.914 860.5,-112 732.7933,-51.7634 683.1713,-91.205 538.8079,-76.0732"/>
<polygon fill="#191970" stroke="#191970" points="539.032,-72.5765 528.7046,-74.9418 538.2529,-79.533 539.032,-72.5765"/>
</g>
<!-- Node1&#45;&gt;Node7 -->
<g id="edge7" class="edge">
<title>Node1&#45;&gt;Node7</title>
<path fill="none" stroke="#191970" d="M874.475,-174.1856C763.5391,-166.3458 502.0251,-147.8278 282.5,-132 269.0059,-131.0271 254.7647,-129.9943 240.7702,-128.9759"/>
<polygon fill="#191970" stroke="#191970" points="240.8656,-125.4737 230.6378,-128.238 240.3571,-132.4552 240.8656,-125.4737"/>
</g>
<!-- Node9 -->
<g id="node10" class="node">
<title>Node9</title>
<g id="a_node10"><a xlink:href="../../d9/de8/CompilerBuiltins_8h.html" target="_top" xlink:title="Framework/CompilerBuiltins.h">
<polygon fill="none" stroke="#000000" points="206.5,-56.5 206.5,-75.5 370.5,-75.5 370.5,-56.5 206.5,-56.5"/>
<text text-anchor="middle" x="288.5" y="-63.5" font-family="Helvetica,sans-Serif" font-size="10.00" fill="#000000">Framework/CompilerBuiltins.h</text>
</a>
</g>
</g>
<!-- Node1&#45;&gt;Node9 -->
<g id="edge10" class="edge">
<title>Node1&#45;&gt;Node9</title>
<path fill="none" stroke="#191970" d="M874.4442,-174.7C735.8238,-166.1002 376.8986,-142.9138 353.5,-132 331.0822,-121.5437 312.1382,-99.8265 300.5864,-84.1549"/>
<polygon fill="#191970" stroke="#191970" points="303.29,-81.9154 294.6687,-75.7571 297.5679,-85.9476 303.29,-81.9154"/>
</g>
<!-- Node10 -->
<g id="node11" class="node">
<title>Node10</title>
<g id="a_node11"><a xlink:href="../../db/d31/Traits_8h.html" target="_top" xlink:title="Framework/Traits.h">
<polygon fill="none" stroke="#000000" points="1740,-112.5 1740,-131.5 1849,-131.5 1849,-112.5 1740,-112.5"/>
<text text-anchor="middle" x="1794.5" y="-119.5" font-family="Helvetica,sans-Serif" font-size="10.00" fill="#000000">Framework/Traits.h</text>
</a>
</g>
</g>
<!-- Node1&#45;&gt;Node10 -->
<g id="edge11" class="edge">
<title>Node1&#45;&gt;Node10</title>
<path fill="none" stroke="#191970" d="M982.6722,-174.4969C1134.6716,-164.6679 1564.7684,-136.8556 1729.3413,-126.2135"/>
<polygon fill="#191970" stroke="#191970" points="1730.0384,-129.6758 1739.7917,-125.5377 1729.5867,-122.6904 1730.0384,-129.6758"/>
</g>
<!-- Node12 -->
<g id="node13" class="node">
<title>Node12</title>
<g id="a_node13"><a xlink:href="../../d0/d91/Expressions_8h.html" target="_top" xlink:title="Framework/Expressions.h">
<polygon fill="none" stroke="#000000" points="1065,-112.5 1065,-131.5 1206,-131.5 1206,-112.5 1065,-112.5"/>
<text text-anchor="middle" x="1135.5" y="-119.5" font-family="Helvetica,sans-Serif" font-size="10.00" fill="#000000">Framework/Expressions.h</text>
</a>
</g>
</g>
<!-- Node1&#45;&gt;Node12 -->
<g id="edge13" class="edge">
<title>Node1&#45;&gt;Node12</title>
<path fill="none" stroke="#191970" d="M964.0846,-168.3733C999.1016,-158.9001 1052.6881,-144.4032 1090.6125,-134.1435"/>
<polygon fill="#191970" stroke="#191970" points="1091.6408,-137.4912 1100.3798,-131.5011 1089.8127,-130.7341 1091.6408,-137.4912"/>
</g>
<!-- Node1&#45;&gt;Node18 -->
<g id="edge33" class="edge">
<title>Node1&#45;&gt;Node18</title>
<path fill="none" stroke="#191970" d="M982.6043,-175.4153C1047.5033,-171.1497 1158.9978,-160.0916 1250.5,-132 1269.8818,-126.0497 1272.0157,-117.6056 1291.5,-112 1433.1482,-71.2481 1477.6953,-97.6043 1627.8504,-75.9398"/>
<polygon fill="#191970" stroke="#191970" points="1628.5211,-79.3785 1637.8957,-74.4421 1627.4889,-72.4551 1628.5211,-79.3785"/>
</g>
<!-- Node19 -->
<g id="node20" class="node">
<title>Node19</title>
<polygon fill="none" stroke="#bfbfbf" points="1473,-56.5 1473,-75.5 1620,-75.5 1620,-56.5 1473,-56.5"/>
<text text-anchor="middle" x="1546.5" y="-63.5" font-family="Helvetica,sans-Serif" font-size="10.00" fill="#000000">gandiva/selection_vector.h</text>
</g>
<!-- Node1&#45;&gt;Node19 -->
<g id="edge38" class="edge">
<title>Node1&#45;&gt;Node19</title>
<path fill="none" stroke="#191970" d="M982.7025,-173.6264C1040.9525,-167.9286 1135.7799,-155.7528 1214.5,-132 1235.0652,-125.7947 1237.9314,-118.1941 1258.5,-112 1295.6416,-100.815 1391.4857,-86.5413 1462.462,-76.8825"/>
<polygon fill="#191970" stroke="#191970" points="1463.3029,-80.3007 1472.7435,-75.4918 1462.3646,-73.3639 1463.3029,-80.3007"/>
</g>
<!-- Node25 -->
<g id="node26" class="node">
<title>Node25</title>
<g id="a_node26"><a xlink:href="../../d1/dc1/ArrowCompatibility_8h.html" target="_top" xlink:title="Framework/ArrowCompatibility.h">
<polygon fill="none" stroke="#000000" points="1300.5,-112.5 1300.5,-131.5 1476.5,-131.5 1476.5,-112.5 1300.5,-112.5"/>
<text text-anchor="middle" x="1388.5" y="-119.5" font-family="Helvetica,sans-Serif" font-size="10.00" fill="#000000">Framework/ArrowCompatibility.h</text>
</a>
</g>
</g>
<!-- Node1&#45;&gt;Node25 -->
<g id="edge29" class="edge">
<title>Node1&#45;&gt;Node25</title>
<path fill="none" stroke="#191970" d="M982.6205,-171.4114C1060.8736,-161.885 1206.5024,-144.1562 1300.3801,-132.7276"/>
<polygon fill="#191970" stroke="#191970" points="1300.9264,-136.1871 1310.4301,-131.5042 1300.0804,-129.2384 1300.9264,-136.1871"/>
</g>
<!-- Node26 -->
<g id="node27" class="node">
<title>Node26</title>
<g id="a_node27"><a xlink:href="../../d4/de7/ArrowTypes_8h.html" target="_top" xlink:title="Framework/ArrowTypes.h">
<polygon fill="none" stroke="#000000" points="908,-112.5 908,-131.5 1047,-131.5 1047,-112.5 908,-112.5"/>
<text text-anchor="middle" x="977.5" y="-119.5" font-family="Helvetica,sans-Serif" font-size="10.00" fill="#000000">Framework/ArrowTypes.h</text>
</a>
</g>
</g>
<!-- Node1&#45;&gt;Node26 -->
<g id="edge31" class="edge">
<title>Node1&#45;&gt;Node26</title>
<path fill="none" stroke="#191970" d="M937.0351,-168.2455C943.9912,-160.2958 953.9883,-148.8706 962.3051,-139.3656"/>
<polygon fill="#191970" stroke="#191970" points="965.1116,-141.4732 969.0627,-131.6427 959.8436,-136.8637 965.1116,-141.4732"/>
</g>
<!-- Node27 -->
<g id="node28" class="node">
<title>Node27</title>
<polygon fill="none" stroke="#bfbfbf" points="1494.5,-112.5 1494.5,-131.5 1574.5,-131.5 1574.5,-112.5 1494.5,-112.5"/>
<text text-anchor="middle" x="1534.5" y="-119.5" font-family="Helvetica,sans-Serif" font-size="10.00" fill="#000000">arrow/array.h</text>
</g>
<!-- Node1&#45;&gt;Node27 -->
<g id="edge34" class="edge">
<title>Node1&#45;&gt;Node27</title>
<path fill="none" stroke="#191970" d="M982.5083,-175.6769C1080.5222,-170.9957 1294.3444,-158.6466 1484.2844,-132.0192"/>
<polygon fill="#191970" stroke="#191970" points="1485.047,-135.4461 1494.4563,-130.5761 1484.0638,-128.5155 1485.047,-135.4461"/>
</g>
<!-- Node28 -->
<g id="node29" class="node">
<title>Node28</title>
<polygon fill="none" stroke="#bfbfbf" points="362.5,-112.5 362.5,-131.5 472.5,-131.5 472.5,-112.5 362.5,-112.5"/>
<text text-anchor="middle" x="417.5" y="-119.5" font-family="Helvetica,sans-Serif" font-size="10.00" fill="#000000">arrow/util/variant.h</text>
</g>
<!-- Node1&#45;&gt;Node28 -->
<g id="edge35" class="edge">
<title>Node1&#45;&gt;Node28</title>
<path fill="none" stroke="#191970" d="M874.3804,-173.3537C792.0974,-166.0862 630.3644,-151.0055 482.7812,-132.1107"/>
<polygon fill="#191970" stroke="#191970" points="482.9972,-128.6096 472.6317,-130.8022 482.1021,-135.5522 482.9972,-128.6096"/>
</g>
<!-- Node29 -->
<g id="node30" class="node">
<title>Node29</title>
<polygon fill="none" stroke="#bfbfbf" points="491,-112.5 491,-131.5 630,-131.5 630,-112.5 491,-112.5"/>
<text text-anchor="middle" x="560.5" y="-119.5" font-family="Helvetica,sans-Serif" font-size="10.00" fill="#000000">arrow/compute/context.h</text>
</g>
<!-- Node1&#45;&gt;Node29 -->
<g id="edge36" class="edge">
<title>Node1&#45;&gt;Node29</title>
<path fill="none" stroke="#191970" d="M874.2003,-169.737C810.3626,-160.0226 704.1454,-143.8591 633.2338,-133.0682"/>
<polygon fill="#191970" stroke="#191970" points="633.4497,-129.5608 623.0369,-131.5165 632.3965,-136.4812 633.4497,-129.5608"/>
</g>
<!-- Node30 -->
<g id="node31" class="node">
<title>Node30</title>
<polygon fill="none" stroke="#bfbfbf" points="648,-112.5 648,-131.5 781,-131.5 781,-112.5 648,-112.5"/>
<text text-anchor="middle" x="714.5" y="-119.5" font-family="Helvetica,sans-Serif" font-size="10.00" fill="#000000">arrow/compute/kernel.h</text>
</g>
<!-- Node1&#45;&gt;Node30 -->
<g id="edge37" class="edge">
<title>Node1&#45;&gt;Node30</title>
<path fill="none" stroke="#191970" d="M891.7121,-168.3733C855.4339,-158.8799 799.8764,-144.3415 760.6554,-134.0781"/>
<polygon fill="#191970" stroke="#191970" points="761.3682,-130.6468 750.8079,-131.5011 759.596,-137.4188 761.3682,-130.6468"/>
</g>
<!-- Node31 -->
<g id="node32" class="node">
<title>Node31</title>
<polygon fill="none" stroke="#bfbfbf" points="799.5,-112.5 799.5,-131.5 851.5,-131.5 851.5,-112.5 799.5,-112.5"/>
<text text-anchor="middle" x="825.5" y="-119.5" font-family="Helvetica,sans-Serif" font-size="10.00" fill="#000000">cassert</text>
</g>
<!-- Node1&#45;&gt;Node31 -->
<g id="edge39" class="edge">
<title>Node1&#45;&gt;Node31</title>
<path fill="none" stroke="#191970" d="M910.5588,-168.2455C894.46,-159.4928 870.6121,-146.527 852.2609,-136.5496"/>
<polygon fill="#191970" stroke="#191970" points="853.6929,-133.3444 843.2356,-131.6427 850.3493,-139.4942 853.6929,-133.3444"/>
</g>
<!-- Node3 -->
<g id="node4" class="node">
<title>Node3</title>
<polygon fill="none" stroke="#bfbfbf" points="42,-.5 42,-19.5 95,-19.5 95,-.5 42,-.5"/>
<text text-anchor="middle" x="68.5" y="-7.5" font-family="Helvetica,sans-Serif" font-size="10.00" fill="#000000">cstddef</text>
</g>
<!-- Node2&#45;&gt;Node3 -->
<g id="edge3" class="edge">
<title>Node2&#45;&gt;Node3</title>
<path fill="none" stroke="#191970" d="M123.8295,-56.2455C113.9339,-47.9746 99.5373,-35.9416 87.9099,-26.2232"/>
<polygon fill="#191970" stroke="#191970" points="89.9542,-23.3703 80.0368,-19.6427 85.465,-28.7413 89.9542,-23.3703"/>
</g>
<!-- Node4 -->
<g id="node5" class="node">
<title>Node4</title>
<polygon fill="none" stroke="#bfbfbf" points="113,-.5 113,-19.5 158,-19.5 158,-.5 113,-.5"/>
<text text-anchor="middle" x="135.5" y="-7.5" font-family="Helvetica,sans-Serif" font-size="10.00" fill="#000000">utility</text>
</g>
<!-- Node2&#45;&gt;Node4 -->
<g id="edge4" class="edge">
<title>Node2&#45;&gt;Node4</title>
<path fill="none" stroke="#191970" d="M135.5,-56.2455C135.5,-48.9382 135.5,-38.6944 135.5,-29.7046"/>
<polygon fill="#191970" stroke="#191970" points="139.0001,-29.6426 135.5,-19.6427 132.0001,-29.6427 139.0001,-29.6426"/>
</g>
<!-- Node5 -->
<g id="node6" class="node">
<title>Node5</title>
<polygon fill="none" stroke="#bfbfbf" points="176.5,-.5 176.5,-19.5 222.5,-19.5 222.5,-.5 176.5,-.5"/>
<text text-anchor="middle" x="199.5" y="-7.5" font-family="Helvetica,sans-Serif" font-size="10.00" fill="#000000">cstdio</text>
</g>
<!-- Node2&#45;&gt;Node5 -->
<g id="edge5" class="edge">
<title>Node2&#45;&gt;Node5</title>
<path fill="none" stroke="#191970" d="M146.6479,-56.2455C156.0087,-48.0549 169.5858,-36.1749 180.6349,-26.5069"/>
<polygon fill="#191970" stroke="#191970" points="183.2588,-28.8618 188.4798,-19.6427 178.6492,-23.5937 183.2588,-28.8618"/>
</g>
<!-- Node7&#45;&gt;Node2 -->
<g id="edge8" class="edge">
<title>Node7&#45;&gt;Node2</title>
<path fill="none" stroke="#191970" d="M143.7581,-112.2455C142.4533,-104.9382 140.624,-94.6944 139.0187,-85.7046"/>
<polygon fill="#191970" stroke="#191970" points="142.4254,-84.8717 137.2219,-75.6427 135.5344,-86.1022 142.4254,-84.8717"/>
</g>
<!-- Node7&#45;&gt;Node8 -->
<g id="edge9" class="edge">
<title>Node7&#45;&gt;Node8</title>
<path fill="none" stroke="#191970" d="M126.0746,-112.3733C108.0979,-103.4644 81.1559,-90.1127 60.791,-80.0203"/>
<polygon fill="#191970" stroke="#191970" points="62.1861,-76.8055 51.6719,-75.5011 59.0778,-83.0776 62.1861,-76.8055"/>
</g>
<!-- Node11 -->
<g id="node12" class="node">
<title>Node11</title>
<polygon fill="none" stroke="#bfbfbf" points="1876,-56.5 1876,-75.5 1945,-75.5 1945,-56.5 1876,-56.5"/>
<text text-anchor="middle" x="1910.5" y="-63.5" font-family="Helvetica,sans-Serif" font-size="10.00" fill="#000000">type_traits</text>
</g>
<!-- Node10&#45;&gt;Node11 -->
<g id="edge12" class="edge">
<title>Node10&#45;&gt;Node11</title>
<path fill="none" stroke="#191970" d="M1814.4411,-112.3733C1832.9786,-103.4241 1860.8028,-89.9917 1881.7413,-79.8835"/>
<polygon fill="#191970" stroke="#191970" points="1883.3352,-83.0006 1890.8191,-75.5011 1880.2919,-76.6967 1883.3352,-83.0006"/>
</g>
<!-- Node12&#45;&gt;Node2 -->
<g id="edge16" class="edge">
<title>Node12&#45;&gt;Node2</title>
<path fill="none" stroke="#191970" d="M1064.8627,-112.8499C1061.7008,-112.5414 1058.5687,-112.2557 1055.5,-112 678.4925,-80.5816 578.9699,-113.8587 198.3997,-75.9604"/>
<polygon fill="#191970" stroke="#191970" points="198.5096,-72.4538 188.2095,-74.9354 197.8089,-79.4187 198.5096,-72.4538"/>
</g>
<!-- Node12&#45;&gt;Node6 -->
<g id="edge17" class="edge">
<title>Node12&#45;&gt;Node6</title>
<path fill="none" stroke="#191970" d="M1064.8532,-112.9554C1061.6938,-112.6183 1058.5649,-112.2978 1055.5,-112 829.0569,-89.9954 768.8727,-98.256 538.7121,-76.0687"/>
<polygon fill="#191970" stroke="#191970" points="538.98,-72.5783 528.6881,-75.0936 538.3022,-79.5455 538.98,-72.5783"/>
</g>
<!-- Node12&#45;&gt;Node9 -->
<g id="edge15" class="edge">
<title>Node12&#45;&gt;Node9</title>
<path fill="none" stroke="#191970" d="M1064.859,-112.8932C1061.6981,-112.573 1058.5672,-112.273 1055.5,-112 759.1804,-85.6235 681.1208,-100.1078 381.1285,-76.0894"/>
<polygon fill="#191970" stroke="#191970" points="381.0696,-72.5733 370.82,-75.256 380.5054,-79.5506 381.0696,-72.5733"/>
</g>
<!-- Node13 -->
<g id="node14" class="node">
<title>Node13</title>
<g id="a_node14"><a xlink:href="../../dd/dc2/BasicOps_8h.html" target="_top" xlink:title="Framework/BasicOps.h">
<polygon fill="none" stroke="#000000" points="1066.5,-56.5 1066.5,-75.5 1194.5,-75.5 1194.5,-56.5 1066.5,-56.5"/>
<text text-anchor="middle" x="1130.5" y="-63.5" font-family="Helvetica,sans-Serif" font-size="10.00" fill="#000000">Framework/BasicOps.h</text>
</a>
</g>
</g>
<!-- Node12&#45;&gt;Node13 -->
<g id="edge14" class="edge">
<title>Node12&#45;&gt;Node13</title>
<path fill="none" stroke="#191970" d="M1134.6291,-112.2455C1133.9766,-104.9382 1133.062,-94.6944 1132.2593,-85.7046"/>
<polygon fill="#191970" stroke="#191970" points="1135.7365,-85.2918 1131.361,-75.6427 1128.7642,-85.9143 1135.7365,-85.2918"/>
</g>
<!-- Node14 -->
<g id="node15" class="node">
<title>Node14</title>
<polygon fill="none" stroke="#bfbfbf" points="547,-56.5 547,-75.5 648,-75.5 648,-56.5 547,-56.5"/>
<text text-anchor="middle" x="597.5" y="-63.5" font-family="Helvetica,sans-Serif" font-size="10.00" fill="#000000">arrow/type_fwd.h</text>
</g>
<!-- Node12&#45;&gt;Node14 -->
<g id="edge18" class="edge">
<title>Node12&#45;&gt;Node14</title>
<path fill="none" stroke="#191970" d="M1064.8451,-113.0345C1061.6879,-112.676 1058.5617,-112.3294 1055.5,-112 881.7526,-93.3081 834.8054,-98.6827 658.4536,-76.1771"/>
<polygon fill="#191970" stroke="#191970" points="658.6764,-72.677 648.3111,-74.8704 657.7819,-79.6196 658.6764,-72.677"/>
</g>
<!-- Node15 -->
<g id="node16" class="node">
<title>Node15</title>
<polygon fill="none" stroke="#bfbfbf" points="1212.5,-56.5 1212.5,-75.5 1358.5,-75.5 1358.5,-56.5 1212.5,-56.5"/>
<text text-anchor="middle" x="1285.5" y="-63.5" font-family="Helvetica,sans-Serif" font-size="10.00" fill="#000000">gandiva/gandiva_aliases.h</text>
</g>
<!-- Node12&#45;&gt;Node15 -->
<g id="edge19" class="edge">
<title>Node12&#45;&gt;Node15</title>
<path fill="none" stroke="#191970" d="M1161.2859,-112.3733C1185.9047,-103.1822 1223.19,-89.2624 1250.4875,-79.0713"/>
<polygon fill="#191970" stroke="#191970" points="1251.9063,-82.2777 1260.0506,-75.5011 1249.458,-75.7198 1251.9063,-82.2777"/>
</g>
<!-- Node16 -->
<g id="node17" class="node">
<title>Node16</title>
<polygon fill="none" stroke="#bfbfbf" points="1376.5,-56.5 1376.5,-75.5 1454.5,-75.5 1454.5,-56.5 1376.5,-56.5"/>
<text text-anchor="middle" x="1415.5" y="-63.5" font-family="Helvetica,sans-Serif" font-size="10.00" fill="#000000">arrow/type.h</text>
</g>
<!-- Node12&#45;&gt;Node16 -->
<g id="edge20" class="edge">
<title>Node12&#45;&gt;Node16</title>
<path fill="none" stroke="#191970" d="M1184.409,-112.4449C1229.178,-103.6665 1297.5436,-90.1812 1366.3254,-76.2253"/>
<polygon fill="#191970" stroke="#191970" points="1367.3709,-79.5845 1376.4738,-74.1633 1365.9771,-72.7246 1367.3709,-79.5845"/>
</g>
<!-- Node17 -->
<g id="node18" class="node">
<title>Node17</title>
<polygon fill="none" stroke="#bfbfbf" points="666,-56.5 666,-75.5 761,-75.5 761,-56.5 666,-56.5"/>
<text text-anchor="middle" x="713.5" y="-63.5" font-family="Helvetica,sans-Serif" font-size="10.00" fill="#000000">gandiva/arrow.h</text>
</g>
<!-- Node12&#45;&gt;Node17 -->
<g id="edge21" class="edge">
<title>Node12&#45;&gt;Node17</title>
<path fill="none" stroke="#191970" d="M1064.7231,-113.1238C971.206,-101.3902 814.0563,-81.6516 771.0208,-75.9022"/>
<polygon fill="#191970" stroke="#191970" points="771.4437,-72.4274 761.0577,-74.5204 770.4821,-79.361 771.4437,-72.4274"/>
</g>
<!-- Node12&#45;&gt;Node18 -->
<g id="edge22" class="edge">
<title>Node12&#45;&gt;Node18</title>
<path fill="none" stroke="#191970" d="M1206.306,-116.3109C1318.3709,-107.1577 1532.7543,-89.0044 1627.7358,-75.9355"/>
<polygon fill="#191970" stroke="#191970" points="1628.4958,-79.3627 1637.9025,-74.4879 1627.509,-72.4326 1628.4958,-79.3627"/>
</g>
<!-- Node12&#45;&gt;Node19 -->
<g id="edge23" class="edge">
<title>Node12&#45;&gt;Node19</title>
<path fill="none" stroke="#191970" d="M1205.6864,-112.4369C1278.0947,-102.571 1390.8501,-87.2078 1466.627,-76.8829"/>
<polygon fill="#191970" stroke="#191970" points="1467.1672,-80.3418 1476.6031,-75.5237 1466.2221,-73.4059 1467.1672,-80.3418"/>
</g>
<!-- Node20 -->
<g id="node21" class="node">
<title>Node20</title>
<polygon fill="none" stroke="#bfbfbf" points="779.5,-56.5 779.5,-75.5 871.5,-75.5 871.5,-56.5 779.5,-56.5"/>
<text text-anchor="middle" x="825.5" y="-63.5" font-family="Helvetica,sans-Serif" font-size="10.00" fill="#000000">gandiva/node.h</text>
</g>
<!-- Node12&#45;&gt;Node20 -->
<g id="edge24" class="edge">
<title>Node12&#45;&gt;Node20</title>
<path fill="none" stroke="#191970" d="M1082.2608,-112.4181C1032.8877,-103.5271 957.0785,-89.8629 881.8408,-76.2411"/>
<polygon fill="#191970" stroke="#191970" points="882.1763,-72.7451 871.7126,-74.4071 880.9289,-79.633 882.1763,-72.7451"/>
</g>
<!-- Node21 -->
<g id="node22" class="node">
<title>Node21</title>
<polygon fill="none" stroke="#bfbfbf" points="890,-56.5 890,-75.5 979,-75.5 979,-56.5 890,-56.5"/>
<text text-anchor="middle" x="934.5" y="-63.5" font-family="Helvetica,sans-Serif" font-size="10.00" fill="#000000">gandiva/filter.h</text>
</g>
<!-- Node12&#45;&gt;Node21 -->
<g id="edge25" class="edge">
<title>Node12&#45;&gt;Node21</title>
<path fill="none" stroke="#191970" d="M1100.9469,-112.3733C1067.0896,-102.9404 1015.354,-88.5265 978.5574,-78.2747"/>
<polygon fill="#191970" stroke="#191970" points="979.1747,-74.8135 968.6022,-75.5011 977.296,-81.5566 979.1747,-74.8135"/>
</g>
<!-- Node22 -->
<g id="node23" class="node">
<title>Node22</title>
<polygon fill="none" stroke="#bfbfbf" points="997,-56.5 997,-75.5 1048,-75.5 1048,-56.5 997,-56.5"/>
<text text-anchor="middle" x="1022.5" y="-63.5" font-family="Helvetica,sans-Serif" font-size="10.00" fill="#000000">variant</text>
</g>
<!-- Node12&#45;&gt;Node22 -->
<g id="edge26" class="edge">
<title>Node12&#45;&gt;Node22</title>
<path fill="none" stroke="#191970" d="M1116.0746,-112.3733C1098.0979,-103.4644 1071.1559,-90.1127 1050.791,-80.0203"/>
<polygon fill="#191970" stroke="#191970" points="1052.1861,-76.8055 1041.6719,-75.5011 1049.0778,-83.0776 1052.1861,-76.8055"/>
</g>
<!-- Node12&#45;&gt;Node23 -->
<g id="edge27" class="edge">
<title>Node12&#45;&gt;Node23</title>
<path fill="none" stroke="#191970" d="M1206.006,-117.4174C1351.8938,-107.805 1677.4869,-85.6297 1727.5,-76 1727.6,-75.9807 1727.7002,-75.9613 1727.8004,-75.9416"/>
<polygon fill="#191970" stroke="#191970" points="1728.3889,-79.4003 1737.2845,-73.6454 1726.7416,-72.5969 1728.3889,-79.4003"/>
</g>
<!-- Node12&#45;&gt;Node24 -->
<g id="edge28" class="edge">
<title>Node12&#45;&gt;Node24</title>
<path fill="none" stroke="#191970" d="M1206.2387,-117.3892C1360.1542,-107.3112 1716.8752,-83.6901 1789.0974,-75.6208"/>
<polygon fill="#191970" stroke="#191970" points="1789.6988,-79.072 1799.159,-74.3018 1788.7889,-72.1314 1789.6988,-79.072"/>
</g>
<!-- Node25&#45;&gt;Node18 -->
<g id="edge30" class="edge">
<title>Node25&#45;&gt;Node18</title>
<path fill="none" stroke="#191970" d="M1439.0899,-112.4257C1485.4937,-103.6161 1556.409,-90.084 1627.7757,-76.1304"/>
<polygon fill="#191970" stroke="#191970" points="1628.7049,-79.515 1637.8463,-74.1591 1627.3602,-72.6453 1628.7049,-79.515"/>
</g>
<!-- Node26&#45;&gt;Node14 -->
<g id="edge32" class="edge">
<title>Node26&#45;&gt;Node14</title>
<path fill="none" stroke="#191970" d="M907.9181,-112.5514C845.1348,-103.9064 749.9711,-90.5077 658.0501,-76.2152"/>
<polygon fill="#191970" stroke="#191970" points="658.4368,-72.7332 648.0167,-74.6494 657.3574,-79.6495 658.4368,-72.7332"/>
</g>
<!-- Node32&#45;&gt;Node10 -->
<g id="edge41" class="edge">
<title>Node32&#45;&gt;Node10</title>
<path fill="none" stroke="#191970" d="M1810.1905,-168.2455C1807.6567,-160.7776 1804.0823,-150.2427 1800.985,-141.1137"/>
<polygon fill="#191970" stroke="#191970" points="1804.2991,-139.9879 1797.7716,-131.6427 1797.6702,-142.237 1804.2991,-139.9879"/>
</g>
<!-- Node32&#45;&gt;Node11 -->
<g id="edge43" class="edge">
<title>Node32&#45;&gt;Node11</title>
<path fill="none" stroke="#191970" d="M1823.4692,-168.4199C1832.8029,-159.3103 1846.9968,-145.0928 1858.5,-132 1872.4007,-116.1784 1887.1613,-97.2107 1897.3907,-83.6777"/>
<polygon fill="#191970" stroke="#191970" points="1900.2057,-85.7576 1903.404,-75.657 1894.605,-81.5586 1900.2057,-85.7576"/>
</g>
<!-- Node32&#45;&gt;Node33 -->
<g id="edge42" class="edge">
<title>Node32&#45;&gt;Node33</title>
<path fill="none" stroke="#191970" d="M1832.9254,-168.3733C1850.9021,-159.4644 1877.8441,-146.1127 1898.209,-136.0203"/>
<polygon fill="#191970" stroke="#191970" points="1899.9222,-139.0776 1907.3281,-131.5011 1896.8139,-132.8055 1899.9222,-139.0776"/>
</g>
<!-- Node34&#45;&gt;Node9 -->
<g id="edge46" class="edge">
<title>Node34&#45;&gt;Node9</title>
<path fill="none" stroke="#191970" d="M556.8429,-174.8369C476.282,-170.1413 357.0525,-158.7857 320.5,-132 305.4571,-120.9766 297.1529,-100.9654 292.8004,-85.8577"/>
<polygon fill="#191970" stroke="#191970" points="296.133,-84.7598 290.2896,-75.9221 289.3464,-86.4749 296.133,-84.7598"/>
</g>
</g>
</svg>
