<?xml version="1.0" encoding="UTF-8" standalone="no"?>
<!DOCTYPE svg PUBLIC "-//W3C//DTD SVG 1.1//EN"
 "http://www.w3.org/Graphics/SVG/1.1/DTD/svg11.dtd">
<!-- Generated by graphviz version 2.40.1 (20161225.0304)
 -->
<!-- Title: o2::mergers::CustomMergeableTObject Pages: 1 -->
<svg width="236pt" height="237pt"
 viewBox="0.00 0.00 235.50 237.00" xmlns="http://www.w3.org/2000/svg" xmlns:xlink="http://www.w3.org/1999/xlink">
<g id="graph0" class="graph" transform="scale(1 1) rotate(0) translate(4 233)">
<title>o2::mergers::CustomMergeableTObject</title>
<!-- Node3 -->
<g id="node1" class="node">
<title>Node3</title>
<polygon fill="#bfbfbf" stroke="#000000" points="3,-.5 3,-112.5 173,-112.5 173,-.5 3,-.5"/>
<text text-anchor="start" x="11" y="-100.5" font-family="Helvetica,sans-Serif" font-size="10.00" fill="#000000">o2::mergers::CustomMergeable</text>
<text text-anchor="middle" x="88" y="-89.5" font-family="Helvetica,sans-Serif" font-size="10.00" fill="#000000">TObject</text>
<polyline fill="none" stroke="#000000" points="3,-82.5 173,-82.5 "/>
<text text-anchor="middle" x="88" y="-70.5" font-family="Helvetica,sans-Serif" font-size="10.00" fill="#000000"> </text>
<polyline fill="none" stroke="#000000" points="3,-63.5 173,-63.5 "/>
<text text-anchor="start" x="11" y="-51.5" font-family="Helvetica,sans-Serif" font-size="10.00" fill="#000000">+ CustomMergeableTObject()</text>
<text text-anchor="start" x="11" y="-40.5" font-family="Helvetica,sans-Serif" font-size="10.00" fill="#000000">+ ~CustomMergeableTObject()</text>
<text text-anchor="start" x="11" y="-29.5" font-family="Helvetica,sans-Serif" font-size="10.00" fill="#000000">+ merge()</text>
<text text-anchor="start" x="11" y="-18.5" font-family="Helvetica,sans-Serif" font-size="10.00" fill="#000000">+ getSecret()</text>
<text text-anchor="start" x="11" y="-7.5" font-family="Helvetica,sans-Serif" font-size="10.00" fill="#000000">+ GetName()</text>
</g>
<!-- Node4 -->
<g id="node2" class="node">
<title>Node4</title>
<g id="a_node2"><a xlink:href="../../d5/d0f/classTObject.html" target="_top" xlink:title="{TObject\n||}">
<polygon fill="none" stroke="#000000" points="0,-160.5 0,-217.5 54,-217.5 54,-160.5 0,-160.5"/>
<text text-anchor="middle" x="27" y="-205.5" font-family="Helvetica,sans-Serif" font-size="10.00" fill="#000000">TObject</text>
<polyline fill="none" stroke="#000000" points="0,-198.5 54,-198.5 "/>
<text text-anchor="middle" x="27" y="-186.5" font-family="Helvetica,sans-Serif" font-size="10.00" fill="#000000"> </text>
<polyline fill="none" stroke="#000000" points="0,-179.5 54,-179.5 "/>
<text text-anchor="middle" x="27" y="-167.5" font-family="Helvetica,sans-Serif" font-size="10.00" fill="#000000"> </text>
</a>
</g>
</g>
<!-- Node4&#45;&gt;Node3 -->
<g id="edge1" class="edge">
<title>Node4&#45;&gt;Node3</title>
<path fill="none" stroke="#191970" d="M44.4787,-151.034C49.9769,-139.0912 56.1702,-125.6386 62.1229,-112.7084"/>
<polygon fill="none" stroke="#191970" points="41.2388,-149.7022 40.2361,-160.2495 47.5973,-152.6295 41.2388,-149.7022"/>
</g>
<!-- Node5 -->
<g id="node3" class="node">
<title>Node5</title>
<g id="a_node3"><a xlink:href="../../d6/d00/classo2_1_1mergers_1_1MergeInterface.html" target="_top" xlink:title="An interface which allows to merge custom objects. ">
<polygon fill="none" stroke="#000000" points="72.5,-149.5 72.5,-228.5 227.5,-228.5 227.5,-149.5 72.5,-149.5"/>
<text text-anchor="middle" x="150" y="-216.5" font-family="Helvetica,sans-Serif" font-size="10.00" fill="#000000">o2::mergers::MergeInterface</text>
<polyline fill="none" stroke="#000000" points="72.5,-209.5 227.5,-209.5 "/>
<text text-anchor="middle" x="150" y="-197.5" font-family="Helvetica,sans-Serif" font-size="10.00" fill="#000000"> </text>
<polyline fill="none" stroke="#000000" points="72.5,-190.5 227.5,-190.5 "/>
<text text-anchor="start" x="80.5" y="-178.5" font-family="Helvetica,sans-Serif" font-size="10.00" fill="#000000">+ ~MergeInterface()</text>
<text text-anchor="start" x="80.5" y="-167.5" font-family="Helvetica,sans-Serif" font-size="10.00" fill="#000000">+ merge()</text>
<text text-anchor="start" x="80.5" y="-156.5" font-family="Helvetica,sans-Serif" font-size="10.00" fill="#000000">+ ClassDef()</text>
</a>
</g>
</g>
<!-- Node5&#45;&gt;Node3 -->
<g id="edge2" class="edge">
<title>Node5&#45;&gt;Node3</title>
<path fill="none" stroke="#191970" d="M127.156,-140.1801C122.999,-131.2962 118.6313,-121.9621 114.3821,-112.8811"/>
<polygon fill="none" stroke="#191970" points="123.9896,-141.6716 131.398,-149.2456 130.3298,-138.7048 123.9896,-141.6716"/>
</g>
</g>
</svg>
