<?xml version="1.0" encoding="UTF-8" standalone="no"?>
<!DOCTYPE svg PUBLIC "-//W3C//DTD SVG 1.1//EN"
 "http://www.w3.org/Graphics/SVG/1.1/DTD/svg11.dtd">
<!-- Generated by graphviz version 2.40.1 (20161225.0304)
 -->
<!-- Title: /home/travis/build/AliceO2Group/AliceO2/GPU/GPUTracking/Merger/GPUTPCGMTracksToTPCSeeds.cxx Pages: 1 -->
<svg width="2288pt" height="509pt"
 viewBox="0.00 0.00 2287.50 509.00" xmlns="http://www.w3.org/2000/svg" xmlns:xlink="http://www.w3.org/1999/xlink">
<g id="graph0" class="graph" transform="scale(1 1) rotate(0) translate(4 505)">
<title>/home/travis/build/AliceO2Group/AliceO2/GPU/GPUTracking/Merger/GPUTPCGMTracksToTPCSeeds.cxx</title>
<!-- Node0 -->
<g id="node1" class="node">
<title>Node0</title>
<polygon fill="#bfbfbf" stroke="#000000" points="1644.5,-448.5 1644.5,-500.5 1829.5,-500.5 1829.5,-448.5 1644.5,-448.5"/>
<text text-anchor="start" x="1652.5" y="-488.5" font-family="Helvetica,sans-Serif" font-size="10.00" fill="#000000">/home/travis/build</text>
<text text-anchor="start" x="1652.5" y="-477.5" font-family="Helvetica,sans-Serif" font-size="10.00" fill="#000000">/AliceO2Group/AliceO2</text>
<text text-anchor="start" x="1652.5" y="-466.5" font-family="Helvetica,sans-Serif" font-size="10.00" fill="#000000">/GPU/GPUTracking/Merger</text>
<text text-anchor="middle" x="1737" y="-455.5" font-family="Helvetica,sans-Serif" font-size="10.00" fill="#000000">/GPUTPCGMTracksToTPCSeeds.cxx</text>
</g>
<!-- Node1 -->
<g id="node2" class="node">
<title>Node1</title>
<g id="a_node2"><a xlink:href="../../d8/d68/GPUTPCGMTracksToTPCSeeds_8h.html" target="_top" xlink:title="GPUTPCGMTracksToTPCSeeds.h">
<polygon fill="none" stroke="#000000" points="1243,-392.5 1243,-411.5 1413,-411.5 1413,-392.5 1243,-392.5"/>
<text text-anchor="middle" x="1328" y="-399.5" font-family="Helvetica,sans-Serif" font-size="10.00" fill="#000000">GPUTPCGMTracksToTPCSeeds.h</text>
</a>
</g>
</g>
<!-- Node0&#45;&gt;Node1 -->
<g id="edge1" class="edge">
<title>Node0&#45;&gt;Node1</title>
<path fill="none" stroke="#191970" d="M1644.4471,-458.0939C1567.3426,-444.4263 1459.5485,-425.3185 1391.7804,-413.3058"/>
<polygon fill="#191970" stroke="#191970" points="1392.1273,-409.8128 1381.6699,-411.5136 1390.9055,-416.7054 1392.1273,-409.8128"/>
</g>
<!-- Node2 -->
<g id="node3" class="node">
<title>Node2</title>
<g id="a_node3"><a xlink:href="../../db/d31/GPUTPCGlobalMergerComponent_8h.html" target="_top" xlink:title="HLT TPC CA global merger component. ">
<polygon fill="none" stroke="#000000" points="311.5,-336.5 311.5,-355.5 498.5,-355.5 498.5,-336.5 311.5,-336.5"/>
<text text-anchor="middle" x="405" y="-343.5" font-family="Helvetica,sans-Serif" font-size="10.00" fill="#000000">GPUTPCGlobalMergerComponent.h</text>
</a>
</g>
</g>
<!-- Node0&#45;&gt;Node2 -->
<g id="edge2" class="edge">
<title>Node0&#45;&gt;Node2</title>
<path fill="none" stroke="#191970" d="M1644.4967,-459.9168C1589.8113,-449.7568 1519.786,-434.0404 1460,-412 1442.0928,-405.3984 1440.4323,-396.9496 1422,-392 1229.7606,-340.3782 725.6796,-368.1331 527,-356 521.0888,-355.639 515.0189,-355.2381 508.8948,-354.8103"/>
<polygon fill="#191970" stroke="#191970" points="508.7811,-351.2932 498.5559,-354.0671 508.2792,-358.2752 508.7811,-351.2932"/>
</g>
<!-- Node23 -->
<g id="node24" class="node">
<title>Node23</title>
<g id="a_node24"><a xlink:href="../../d4/dcf/GPUTPCGMMerger_8h.html" target="_top" xlink:title="GPUTPCGMMerger.h">
<polygon fill="none" stroke="#000000" points="1469,-392.5 1469,-411.5 1583,-411.5 1583,-392.5 1469,-392.5"/>
<text text-anchor="middle" x="1526" y="-399.5" font-family="Helvetica,sans-Serif" font-size="10.00" fill="#000000">GPUTPCGMMerger.h</text>
</a>
</g>
</g>
<!-- Node0&#45;&gt;Node23 -->
<g id="edge28" class="edge">
<title>Node0&#45;&gt;Node23</title>
<path fill="none" stroke="#191970" d="M1661.1223,-448.4283C1627.8711,-437.0031 1590.3478,-424.11 1563.2958,-414.8149"/>
<polygon fill="#191970" stroke="#191970" points="1564.4251,-411.5021 1553.8304,-411.5626 1562.1503,-418.1222 1564.4251,-411.5021"/>
</g>
<!-- Node40 -->
<g id="node41" class="node">
<title>Node40</title>
<g id="a_node41"><a xlink:href="../../df/ddc/GPULogging_8h.html" target="_top" xlink:title="GPULogging.h">
<polygon fill="none" stroke="#000000" points="2076.5,-336.5 2076.5,-355.5 2161.5,-355.5 2161.5,-336.5 2076.5,-336.5"/>
<text text-anchor="middle" x="2119" y="-343.5" font-family="Helvetica,sans-Serif" font-size="10.00" fill="#000000">GPULogging.h</text>
</a>
</g>
</g>
<!-- Node0&#45;&gt;Node40 -->
<g id="edge71" class="edge">
<title>Node0&#45;&gt;Node40</title>
<path fill="none" stroke="#191970" d="M1665.2843,-448.3893C1634.794,-433.4293 1610.3052,-413.4043 1630,-392 1662.6139,-356.5552 2014.2302,-362.1679 2062,-356 2063.4635,-355.811 2064.9467,-355.6108 2066.4425,-355.4013"/>
<polygon fill="#191970" stroke="#191970" points="2067.053,-358.849 2076.4227,-353.9035 2066.014,-351.9265 2067.053,-358.849"/>
</g>
<!-- Node41 -->
<g id="node42" class="node">
<title>Node41</title>
<polygon fill="none" stroke="#bfbfbf" points="1639.5,-392.5 1639.5,-411.5 1730.5,-411.5 1730.5,-392.5 1639.5,-392.5"/>
<text text-anchor="middle" x="1685" y="-399.5" font-family="Helvetica,sans-Serif" font-size="10.00" fill="#000000">AliTPCtracker.h</text>
</g>
<!-- Node0&#45;&gt;Node41 -->
<g id="edge73" class="edge">
<title>Node0&#45;&gt;Node41</title>
<path fill="none" stroke="#191970" d="M1718.2268,-448.3258C1711.404,-438.8132 1703.8599,-428.2951 1697.687,-419.6886"/>
<polygon fill="#191970" stroke="#191970" points="1700.5106,-417.6201 1691.8382,-411.534 1694.8224,-421.6999 1700.5106,-417.6201"/>
</g>
<!-- Node42 -->
<g id="node43" class="node">
<title>Node42</title>
<polygon fill="none" stroke="#bfbfbf" points="1749,-392.5 1749,-411.5 1831,-411.5 1831,-392.5 1749,-392.5"/>
<text text-anchor="middle" x="1790" y="-399.5" font-family="Helvetica,sans-Serif" font-size="10.00" fill="#000000">AliTPCtrack.h</text>
</g>
<!-- Node0&#45;&gt;Node42 -->
<g id="edge74" class="edge">
<title>Node0&#45;&gt;Node42</title>
<path fill="none" stroke="#191970" d="M1756.1342,-448.3258C1763.0883,-438.8132 1770.7774,-428.2951 1777.069,-419.6886"/>
<polygon fill="#191970" stroke="#191970" points="1779.9542,-421.6725 1783.0303,-411.534 1774.3032,-417.5414 1779.9542,-421.6725"/>
</g>
<!-- Node43 -->
<g id="node44" class="node">
<title>Node43</title>
<polygon fill="none" stroke="#bfbfbf" points="1849,-392.5 1849,-411.5 1929,-411.5 1929,-392.5 1849,-392.5"/>
<text text-anchor="middle" x="1889" y="-399.5" font-family="Helvetica,sans-Serif" font-size="10.00" fill="#000000">AliTPCseed.h</text>
</g>
<!-- Node0&#45;&gt;Node43 -->
<g id="edge75" class="edge">
<title>Node0&#45;&gt;Node43</title>
<path fill="none" stroke="#191970" d="M1791.8755,-448.3258C1814.8632,-437.3613 1840.6518,-425.0608 1859.8754,-415.8917"/>
<polygon fill="#191970" stroke="#191970" points="1861.4924,-418.9982 1869.0115,-411.534 1858.4788,-412.6801 1861.4924,-418.9982"/>
</g>
<!-- Node44 -->
<g id="node45" class="node">
<title>Node44</title>
<polygon fill="none" stroke="#bfbfbf" points="1947,-392.5 1947,-411.5 2069,-411.5 2069,-392.5 1947,-392.5"/>
<text text-anchor="middle" x="2008" y="-399.5" font-family="Helvetica,sans-Serif" font-size="10.00" fill="#000000">AliTPCtrackerSector.h</text>
</g>
<!-- Node0&#45;&gt;Node44 -->
<g id="edge76" class="edge">
<title>Node0&#45;&gt;Node44</title>
<path fill="none" stroke="#191970" d="M1829.5049,-449.7524C1874.3548,-437.7538 1926.2159,-423.8795 1962.4396,-414.1887"/>
<polygon fill="#191970" stroke="#191970" points="1963.4673,-417.5369 1972.223,-411.5713 1961.6582,-410.7747 1963.4673,-417.5369"/>
</g>
<!-- Node45 -->
<g id="node46" class="node">
<title>Node45</title>
<polygon fill="none" stroke="#bfbfbf" points="2087.5,-392.5 2087.5,-411.5 2160.5,-411.5 2160.5,-392.5 2087.5,-392.5"/>
<text text-anchor="middle" x="2124" y="-399.5" font-family="Helvetica,sans-Serif" font-size="10.00" fill="#000000">TObjArray.h</text>
</g>
<!-- Node0&#45;&gt;Node45 -->
<g id="edge77" class="edge">
<title>Node0&#45;&gt;Node45</title>
<path fill="none" stroke="#191970" d="M1829.7842,-458.3415C1896.0316,-446.6058 1987.4988,-430.0006 2077.5299,-412.0455"/>
<polygon fill="#191970" stroke="#191970" points="2078.2455,-415.4718 2087.3644,-410.0776 2076.872,-408.6079 2078.2455,-415.4718"/>
</g>
<!-- Node46 -->
<g id="node47" class="node">
<title>Node46</title>
<polygon fill="none" stroke="#bfbfbf" points="2178.5,-392.5 2178.5,-411.5 2279.5,-411.5 2279.5,-392.5 2178.5,-392.5"/>
<text text-anchor="middle" x="2229" y="-399.5" font-family="Helvetica,sans-Serif" font-size="10.00" fill="#000000">AliTPCclusterMI.h</text>
</g>
<!-- Node0&#45;&gt;Node46 -->
<g id="edge78" class="edge">
<title>Node0&#45;&gt;Node46</title>
<path fill="none" stroke="#191970" d="M1829.7834,-461.6634C1915.0148,-449.7364 2045.1093,-431.1914 2168.2825,-412.0863"/>
<polygon fill="#191970" stroke="#191970" points="2168.9298,-415.5278 2178.2733,-410.5331 2167.8543,-408.6109 2168.9298,-415.5278"/>
</g>
<!-- Node3 -->
<g id="node4" class="node">
<title>Node3</title>
<polygon fill="none" stroke="#bfbfbf" points="120,-280.5 120,-299.5 222,-299.5 222,-280.5 120,-280.5"/>
<text text-anchor="middle" x="171" y="-287.5" font-family="Helvetica,sans-Serif" font-size="10.00" fill="#000000">AliHLTProcessor.h</text>
</g>
<!-- Node2&#45;&gt;Node3 -->
<g id="edge3" class="edge">
<title>Node2&#45;&gt;Node3</title>
<path fill="none" stroke="#191970" d="M365.0398,-336.4369C325.1608,-326.8932 263.7861,-312.2052 220.7672,-301.9101"/>
<polygon fill="#191970" stroke="#191970" points="221.3354,-298.4473 210.7953,-299.5237 219.7061,-305.2551 221.3354,-298.4473"/>
</g>
<!-- Node4 -->
<g id="node5" class="node">
<title>Node4</title>
<polygon fill="none" stroke="#bfbfbf" points="240.5,-280.5 240.5,-299.5 407.5,-299.5 407.5,-280.5 240.5,-280.5"/>
<text text-anchor="middle" x="324" y="-287.5" font-family="Helvetica,sans-Serif" font-size="10.00" fill="#000000">AliHLTComponentBenchmark.h</text>
</g>
<!-- Node2&#45;&gt;Node4 -->
<g id="edge4" class="edge">
<title>Node2&#45;&gt;Node4</title>
<path fill="none" stroke="#191970" d="M390.8909,-336.2455C378.5791,-327.7337 360.5042,-315.2375 346.2462,-305.3801"/>
<polygon fill="#191970" stroke="#191970" points="348.1634,-302.4506 337.9474,-299.6427 344.1826,-308.2085 348.1634,-302.4506"/>
</g>
<!-- Node5 -->
<g id="node6" class="node">
<title>Node5</title>
<g id="a_node6"><a xlink:href="../../df/d13/GPUParam_8h.html" target="_top" xlink:title="GPUParam.h">
<polygon fill="none" stroke="#000000" points="425.5,-280.5 425.5,-299.5 502.5,-299.5 502.5,-280.5 425.5,-280.5"/>
<text text-anchor="middle" x="464" y="-287.5" font-family="Helvetica,sans-Serif" font-size="10.00" fill="#000000">GPUParam.h</text>
</a>
</g>
</g>
<!-- Node2&#45;&gt;Node5 -->
<g id="edge5" class="edge">
<title>Node2&#45;&gt;Node5</title>
<path fill="none" stroke="#191970" d="M415.277,-336.2455C423.8218,-328.1352 436.1778,-316.4075 446.3085,-306.7919"/>
<polygon fill="#191970" stroke="#191970" points="448.9972,-309.0655 453.8408,-299.6427 444.1782,-303.9884 448.9972,-309.0655"/>
</g>
<!-- Node6 -->
<g id="node7" class="node">
<title>Node6</title>
<g id="a_node7"><a xlink:href="../../df/d21/GPUCommonDef_8h.html" target="_top" xlink:title="GPUCommonDef.h">
<polygon fill="none" stroke="#000000" points="1309.5,-56.5 1309.5,-75.5 1416.5,-75.5 1416.5,-56.5 1309.5,-56.5"/>
<text text-anchor="middle" x="1363" y="-63.5" font-family="Helvetica,sans-Serif" font-size="10.00" fill="#000000">GPUCommonDef.h</text>
</a>
</g>
</g>
<!-- Node5&#45;&gt;Node6 -->
<g id="edge6" class="edge">
<title>Node5&#45;&gt;Node6</title>
<path fill="none" stroke="#191970" d="M426.0512,-280.4828C394.6452,-271.7482 353.6709,-258.0642 344,-244 338.9636,-236.6756 338.4293,-230.9268 344,-224 380.3592,-178.7896 796.6621,-120.8507 854,-112 1013.0608,-87.4472 1202.2593,-74.5941 1299.03,-69.1877"/>
<polygon fill="#191970" stroke="#191970" points="1299.4416,-72.6704 1309.2341,-68.6261 1299.0569,-65.681 1299.4416,-72.6704"/>
</g>
<!-- Node9 -->
<g id="node10" class="node">
<title>Node9</title>
<g id="a_node10"><a xlink:href="../../d6/da2/GPUCommonMath_8h.html" target="_top" xlink:title="GPUCommonMath.h">
<polygon fill="none" stroke="#000000" points="731.5,-168.5 731.5,-187.5 846.5,-187.5 846.5,-168.5 731.5,-168.5"/>
<text text-anchor="middle" x="789" y="-175.5" font-family="Helvetica,sans-Serif" font-size="10.00" fill="#000000">GPUCommonMath.h</text>
</a>
</g>
</g>
<!-- Node5&#45;&gt;Node9 -->
<g id="edge9" class="edge">
<title>Node5&#45;&gt;Node9</title>
<path fill="none" stroke="#191970" d="M496.8445,-280.4183C525.6555,-271.7455 568.5243,-258.1892 605,-244 625.0196,-236.2123 628.9886,-231.8088 649,-224 681.3709,-211.3684 718.8006,-199.192 746.8093,-190.5433"/>
<polygon fill="#191970" stroke="#191970" points="748.1383,-193.7969 756.6753,-187.5223 746.0887,-187.1036 748.1383,-193.7969"/>
</g>
<!-- Node12 -->
<g id="node13" class="node">
<title>Node12</title>
<g id="a_node13"><a xlink:href="../../d2/d6d/GPUDef_8h.html" target="_top" xlink:title="GPUDef.h">
<polygon fill="none" stroke="#000000" points="289.5,-112.5 289.5,-131.5 352.5,-131.5 352.5,-112.5 289.5,-112.5"/>
<text text-anchor="middle" x="321" y="-119.5" font-family="Helvetica,sans-Serif" font-size="10.00" fill="#000000">GPUDef.h</text>
</a>
</g>
</g>
<!-- Node5&#45;&gt;Node12 -->
<g id="edge13" class="edge">
<title>Node5&#45;&gt;Node12</title>
<path fill="none" stroke="#191970" d="M425.4323,-280.5278C381.0286,-269.3822 312.8998,-251.4519 303,-244 273.289,-221.6355 252.5654,-201.8332 268,-168 273.6889,-155.5296 284.6131,-145.1361 295.0726,-137.4023"/>
<polygon fill="#191970" stroke="#191970" points="297.3523,-140.0832 303.6242,-131.5442 293.3963,-134.3082 297.3523,-140.0832"/>
</g>
<!-- Node19 -->
<g id="node20" class="node">
<title>Node19</title>
<g id="a_node20"><a xlink:href="../../dd/dc6/GPUSettings_8h.html" target="_top" xlink:title="GPUSettings.h">
<polygon fill="none" stroke="#000000" points="353,-224.5 353,-243.5 439,-243.5 439,-224.5 353,-224.5"/>
<text text-anchor="middle" x="396" y="-231.5" font-family="Helvetica,sans-Serif" font-size="10.00" fill="#000000">GPUSettings.h</text>
</a>
</g>
</g>
<!-- Node5&#45;&gt;Node19 -->
<g id="edge21" class="edge">
<title>Node5&#45;&gt;Node19</title>
<path fill="none" stroke="#191970" d="M452.1553,-280.2455C442.112,-271.9746 427.5005,-259.9416 415.6996,-250.2232"/>
<polygon fill="#191970" stroke="#191970" points="417.6533,-247.298 407.709,-243.6427 413.2033,-252.7015 417.6533,-247.298"/>
</g>
<!-- Node20 -->
<g id="node21" class="node">
<title>Node20</title>
<g id="a_node21"><a xlink:href="../../d6/d1b/GPUTPCGeometry_8h.html" target="_top" xlink:title="GPUTPCGeometry.h">
<polygon fill="none" stroke="#000000" points="277.5,-168.5 277.5,-187.5 390.5,-187.5 390.5,-168.5 277.5,-168.5"/>
<text text-anchor="middle" x="334" y="-175.5" font-family="Helvetica,sans-Serif" font-size="10.00" fill="#000000">GPUTPCGeometry.h</text>
</a>
</g>
</g>
<!-- Node5&#45;&gt;Node20 -->
<g id="edge23" class="edge">
<title>Node5&#45;&gt;Node20</title>
<path fill="none" stroke="#191970" d="M425.4216,-280.9312C382.4311,-270.4389 317.9926,-253.4041 311,-244 300.428,-229.782 309.3985,-210.3116 319.0577,-196.206"/>
<polygon fill="#191970" stroke="#191970" points="322.1377,-197.9303 325.3063,-187.8204 316.5246,-193.7478 322.1377,-197.9303"/>
</g>
<!-- Node21 -->
<g id="node22" class="node">
<title>Node21</title>
<g id="a_node22"><a xlink:href="../../d9/d9c/GPUTPCGMPolynomialField_8h.html" target="_top" xlink:title="GPUTPCGMPolynomialField.h">
<polygon fill="none" stroke="#000000" points="691,-224.5 691,-243.5 849,-243.5 849,-224.5 691,-224.5"/>
<text text-anchor="middle" x="770" y="-231.5" font-family="Helvetica,sans-Serif" font-size="10.00" fill="#000000">GPUTPCGMPolynomialField.h</text>
</a>
</g>
</g>
<!-- Node5&#45;&gt;Node21 -->
<g id="edge25" class="edge">
<title>Node5&#45;&gt;Node21</title>
<path fill="none" stroke="#191970" d="M502.7551,-282.9076C554.4746,-273.4426 646.659,-256.5722 708.0698,-245.3336"/>
<polygon fill="#191970" stroke="#191970" points="708.8211,-248.7544 718.0277,-243.5113 707.5609,-241.8687 708.8211,-248.7544"/>
</g>
<!-- Node7 -->
<g id="node8" class="node">
<title>Node7</title>
<g id="a_node8"><a xlink:href="../../d5/d93/GPUCommonDefSettings_8h.html" target="_top" xlink:title="GPUCommonDefSettings.h">
<polygon fill="none" stroke="#000000" points="1212,-.5 1212,-19.5 1360,-19.5 1360,-.5 1212,-.5"/>
<text text-anchor="middle" x="1286" y="-7.5" font-family="Helvetica,sans-Serif" font-size="10.00" fill="#000000">GPUCommonDefSettings.h</text>
</a>
</g>
</g>
<!-- Node6&#45;&gt;Node7 -->
<g id="edge7" class="edge">
<title>Node6&#45;&gt;Node7</title>
<path fill="none" stroke="#191970" d="M1349.5876,-56.2455C1337.9943,-47.814 1321.0252,-35.4729 1307.5322,-25.6598"/>
<polygon fill="#191970" stroke="#191970" points="1309.4047,-22.6938 1299.2587,-19.6427 1305.2874,-28.355 1309.4047,-22.6938"/>
</g>
<!-- Node8 -->
<g id="node9" class="node">
<title>Node8</title>
<g id="a_node9"><a xlink:href="../../da/d5a/GPUCommonDefAPI_8h.html" target="_top" xlink:title="GPUCommonDefAPI.h">
<polygon fill="none" stroke="#000000" points="1378,-.5 1378,-19.5 1502,-19.5 1502,-.5 1378,-.5"/>
<text text-anchor="middle" x="1440" y="-7.5" font-family="Helvetica,sans-Serif" font-size="10.00" fill="#000000">GPUCommonDefAPI.h</text>
</a>
</g>
</g>
<!-- Node6&#45;&gt;Node8 -->
<g id="edge8" class="edge">
<title>Node6&#45;&gt;Node8</title>
<path fill="none" stroke="#191970" d="M1376.4124,-56.2455C1388.0057,-47.814 1404.9748,-35.4729 1418.4678,-25.6598"/>
<polygon fill="#191970" stroke="#191970" points="1420.7126,-28.355 1426.7413,-19.6427 1416.5953,-22.6938 1420.7126,-28.355"/>
</g>
<!-- Node9&#45;&gt;Node6 -->
<g id="edge10" class="edge">
<title>Node9&#45;&gt;Node6</title>
<path fill="none" stroke="#191970" d="M822.2564,-168.4793C871.7719,-154.565 967.9632,-128.5367 1051,-112 1136.3277,-95.007 1235.9373,-81.3864 1299.2227,-73.4987"/>
<polygon fill="#191970" stroke="#191970" points="1299.9505,-76.9355 1309.4456,-72.2351 1299.0917,-69.9884 1299.9505,-76.9355"/>
</g>
<!-- Node10 -->
<g id="node11" class="node">
<title>Node10</title>
<polygon fill="none" stroke="#bfbfbf" points="1060.5,-112.5 1060.5,-131.5 1107.5,-131.5 1107.5,-112.5 1060.5,-112.5"/>
<text text-anchor="middle" x="1084" y="-119.5" font-family="Helvetica,sans-Serif" font-size="10.00" fill="#000000">cmath</text>
</g>
<!-- Node9&#45;&gt;Node10 -->
<g id="edge11" class="edge">
<title>Node9&#45;&gt;Node10</title>
<path fill="none" stroke="#191970" d="M839.3771,-168.4369C899.5735,-157.0098 998.6205,-138.2076 1050.2777,-128.4015"/>
<polygon fill="#191970" stroke="#191970" points="1051.0795,-131.8119 1060.2513,-126.5082 1049.774,-124.9347 1051.0795,-131.8119"/>
</g>
<!-- Node11 -->
<g id="node12" class="node">
<title>Node11</title>
<polygon fill="none" stroke="#bfbfbf" points="1223,-112.5 1223,-131.5 1287,-131.5 1287,-112.5 1223,-112.5"/>
<text text-anchor="middle" x="1255" y="-119.5" font-family="Helvetica,sans-Serif" font-size="10.00" fill="#000000">algorithm</text>
</g>
<!-- Node9&#45;&gt;Node11 -->
<g id="edge12" class="edge">
<title>Node9&#45;&gt;Node11</title>
<path fill="none" stroke="#191970" d="M846.6081,-171.0771C941.5361,-159.6695 1128.6566,-137.1829 1212.5525,-127.101"/>
<polygon fill="#191970" stroke="#191970" points="1213.2244,-130.5455 1222.7354,-125.8773 1212.3892,-123.5955 1213.2244,-130.5455"/>
</g>
<!-- Node12&#45;&gt;Node6 -->
<g id="edge14" class="edge">
<title>Node12&#45;&gt;Node6</title>
<path fill="none" stroke="#191970" d="M352.5515,-114.411C357.3684,-113.4646 362.2999,-112.615 367,-112 548.388,-88.2662 1109.1951,-72.3665 1299.2562,-67.5433"/>
<polygon fill="#191970" stroke="#191970" points="1299.4572,-71.0394 1309.3657,-67.2883 1299.2806,-64.0416 1299.4572,-71.0394"/>
</g>
<!-- Node13 -->
<g id="node14" class="node">
<title>Node13</title>
<g id="a_node14"><a xlink:href="../../d2/d37/GPUDefConstantsAndSettings_8h.html" target="_top" xlink:title="GPUDefConstantsAndSettings.h">
<polygon fill="none" stroke="#000000" points="483.5,-56.5 483.5,-75.5 654.5,-75.5 654.5,-56.5 483.5,-56.5"/>
<text text-anchor="middle" x="569" y="-63.5" font-family="Helvetica,sans-Serif" font-size="10.00" fill="#000000">GPUDefConstantsAndSettings.h</text>
</a>
</g>
</g>
<!-- Node12&#45;&gt;Node13 -->
<g id="edge15" class="edge">
<title>Node12&#45;&gt;Node13</title>
<path fill="none" stroke="#191970" d="M352.6613,-114.8507C394.0752,-105.4991 467.1917,-88.989 516.8449,-77.777"/>
<polygon fill="#191970" stroke="#191970" points="517.7716,-81.1559 526.7551,-75.5392 516.2298,-74.3278 517.7716,-81.1559"/>
</g>
<!-- Node14 -->
<g id="node15" class="node">
<title>Node14</title>
<g id="a_node15"><a xlink:href="../../dc/de9/GPUDefGPUParameters_8h.html" target="_top" xlink:title="GPUDefGPUParameters.h">
<polygon fill="none" stroke="#000000" points="0,-56.5 0,-75.5 140,-75.5 140,-56.5 0,-56.5"/>
<text text-anchor="middle" x="70" y="-63.5" font-family="Helvetica,sans-Serif" font-size="10.00" fill="#000000">GPUDefGPUParameters.h</text>
</a>
</g>
</g>
<!-- Node12&#45;&gt;Node14 -->
<g id="edge16" class="edge">
<title>Node12&#45;&gt;Node14</title>
<path fill="none" stroke="#191970" d="M289.4648,-114.9643C247.7066,-105.6477 173.4729,-89.0856 123.0192,-77.829"/>
<polygon fill="#191970" stroke="#191970" points="123.4706,-74.3437 112.9484,-75.5821 121.9463,-81.1757 123.4706,-74.3437"/>
</g>
<!-- Node16 -->
<g id="node17" class="node">
<title>Node16</title>
<g id="a_node17"><a xlink:href="../../d3/d4c/GPUDefOpenCL12Templates_8h.html" target="_top" xlink:title="GPUDefOpenCL12Templates.h">
<polygon fill="none" stroke="#000000" points="158,-56.5 158,-75.5 322,-75.5 322,-56.5 158,-56.5"/>
<text text-anchor="middle" x="240" y="-63.5" font-family="Helvetica,sans-Serif" font-size="10.00" fill="#000000">GPUDefOpenCL12Templates.h</text>
</a>
</g>
</g>
<!-- Node12&#45;&gt;Node16 -->
<g id="edge18" class="edge">
<title>Node12&#45;&gt;Node16</title>
<path fill="none" stroke="#191970" d="M306.8909,-112.2455C294.5791,-103.7337 276.5042,-91.2375 262.2462,-81.3801"/>
<polygon fill="#191970" stroke="#191970" points="264.1634,-78.4506 253.9474,-75.6427 260.1826,-84.2085 264.1634,-78.4506"/>
</g>
<!-- Node17 -->
<g id="node18" class="node">
<title>Node17</title>
<g id="a_node18"><a xlink:href="../../d2/d45/GPUCommonRtypes_8h.html" target="_top" xlink:title="GPUCommonRtypes.h">
<polygon fill="none" stroke="#000000" points="340.5,-56.5 340.5,-75.5 465.5,-75.5 465.5,-56.5 340.5,-56.5"/>
<text text-anchor="middle" x="403" y="-63.5" font-family="Helvetica,sans-Serif" font-size="10.00" fill="#000000">GPUCommonRtypes.h</text>
</a>
</g>
</g>
<!-- Node12&#45;&gt;Node17 -->
<g id="edge19" class="edge">
<title>Node12&#45;&gt;Node17</title>
<path fill="none" stroke="#191970" d="M335.2833,-112.2455C347.747,-103.7337 366.0451,-91.2375 380.4792,-81.3801"/>
<polygon fill="#191970" stroke="#191970" points="382.5962,-84.1726 388.8804,-75.6427 378.6485,-78.392 382.5962,-84.1726"/>
</g>
<!-- Node15 -->
<g id="node16" class="node">
<title>Node15</title>
<g id="a_node16"><a xlink:href="../../d6/dff/GPUDefMacros_8h.html" target="_top" xlink:title="GPUDefMacros.h">
<polygon fill="none" stroke="#000000" points="21,-.5 21,-19.5 119,-19.5 119,-.5 21,-.5"/>
<text text-anchor="middle" x="70" y="-7.5" font-family="Helvetica,sans-Serif" font-size="10.00" fill="#000000">GPUDefMacros.h</text>
</a>
</g>
</g>
<!-- Node14&#45;&gt;Node15 -->
<g id="edge17" class="edge">
<title>Node14&#45;&gt;Node15</title>
<path fill="none" stroke="#191970" d="M70,-56.2455C70,-48.9382 70,-38.6944 70,-29.7046"/>
<polygon fill="#191970" stroke="#191970" points="73.5001,-29.6426 70,-19.6427 66.5001,-29.6427 73.5001,-29.6426"/>
</g>
<!-- Node18 -->
<g id="node19" class="node">
<title>Node18</title>
<polygon fill="none" stroke="#bfbfbf" points="373.5,-.5 373.5,-19.5 432.5,-19.5 432.5,-.5 373.5,-.5"/>
<text text-anchor="middle" x="403" y="-7.5" font-family="Helvetica,sans-Serif" font-size="10.00" fill="#000000">Rtypes.h</text>
</g>
<!-- Node17&#45;&gt;Node18 -->
<g id="edge20" class="edge">
<title>Node17&#45;&gt;Node18</title>
<path fill="none" stroke="#191970" d="M403,-56.2455C403,-48.9382 403,-38.6944 403,-29.7046"/>
<polygon fill="#191970" stroke="#191970" points="406.5001,-29.6426 403,-19.6427 399.5001,-29.6427 406.5001,-29.6426"/>
</g>
<!-- Node19&#45;&gt;Node9 -->
<g id="edge22" class="edge">
<title>Node19&#45;&gt;Node9</title>
<path fill="none" stroke="#191970" d="M439.0971,-225.5198C442.1067,-224.9868 445.0967,-224.4746 448,-224 542.3486,-208.5767 651.9967,-194.4602 720.945,-186.0439"/>
<polygon fill="#191970" stroke="#191970" points="721.7293,-189.4744 731.2339,-184.7935 720.8847,-182.5256 721.7293,-189.4744"/>
</g>
<!-- Node20&#45;&gt;Node6 -->
<g id="edge24" class="edge">
<title>Node20&#45;&gt;Node6</title>
<path fill="none" stroke="#191970" d="M340.9167,-168.1257C352.2672,-152.8539 376.4594,-124.0146 405,-112 486.8803,-77.5312 1098.0249,-68.5635 1299.087,-66.5338"/>
<polygon fill="#191970" stroke="#191970" points="1299.2328,-70.0326 1309.1978,-66.4341 1299.1637,-63.033 1299.2328,-70.0326"/>
</g>
<!-- Node22 -->
<g id="node23" class="node">
<title>Node22</title>
<g id="a_node23"><a xlink:href="../../da/dab/GPUTPCDef_8h.html" target="_top" xlink:title="GPUTPCDef.h">
<polygon fill="none" stroke="#000000" points="1021,-168.5 1021,-187.5 1103,-187.5 1103,-168.5 1021,-168.5"/>
<text text-anchor="middle" x="1062" y="-175.5" font-family="Helvetica,sans-Serif" font-size="10.00" fill="#000000">GPUTPCDef.h</text>
</a>
</g>
</g>
<!-- Node21&#45;&gt;Node22 -->
<g id="edge26" class="edge">
<title>Node21&#45;&gt;Node22</title>
<path fill="none" stroke="#191970" d="M819.8648,-224.4369C873.1177,-214.224 957.0879,-198.1201 1010.8346,-187.8125"/>
<polygon fill="#191970" stroke="#191970" points="1011.6717,-191.2159 1020.8335,-185.8949 1010.3532,-184.3412 1011.6717,-191.2159"/>
</g>
<!-- Node22&#45;&gt;Node12 -->
<g id="edge27" class="edge">
<title>Node22&#45;&gt;Node12</title>
<path fill="none" stroke="#191970" d="M1020.8394,-174.8893C891.3054,-165.1 492.9051,-134.9915 362.6697,-125.1491"/>
<polygon fill="#191970" stroke="#191970" points="362.9249,-121.6585 352.6895,-124.3949 362.3973,-128.6386 362.9249,-121.6585"/>
</g>
<!-- Node23&#45;&gt;Node5 -->
<g id="edge29" class="edge">
<title>Node23&#45;&gt;Node5</title>
<path fill="none" stroke="#191970" d="M1468.7054,-393.4343C1464.0748,-392.8933 1459.463,-392.4047 1455,-392 1260.3017,-374.3455 763.5163,-411.2878 576,-356 540.8007,-345.6218 505.1327,-321.8018 483.7913,-305.8017"/>
<polygon fill="#191970" stroke="#191970" points="485.8891,-302.9997 475.8247,-299.6893 481.628,-308.5534 485.8891,-302.9997"/>
</g>
<!-- Node23&#45;&gt;Node6 -->
<g id="edge62" class="edge">
<title>Node23&#45;&gt;Node6</title>
<path fill="none" stroke="#191970" d="M1583.0383,-395.7317C1594.9198,-394.4639 1607.366,-393.1637 1619,-392 1705.3827,-383.3591 1934.4054,-402.0486 2008,-356 2037.0772,-337.8062 2048,-324.3001 2048,-290 2048,-290 2048,-290 2048,-178 2048,-115.4121 1596.8539,-80.6461 1426.8136,-69.7654"/>
<polygon fill="#191970" stroke="#191970" points="1426.952,-66.2672 1416.7508,-69.1284 1426.5097,-73.2532 1426.952,-66.2672"/>
</g>
<!-- Node23&#45;&gt;Node10 -->
<g id="edge69" class="edge">
<title>Node23&#45;&gt;Node10</title>
<path fill="none" stroke="#191970" d="M1583.0482,-396.4841C1632.016,-390.4551 1703.842,-378.4926 1763,-356 1858.7699,-319.5871 2022.1287,-298.6976 1952,-224 1908.5646,-177.7347 1444.8341,-196.8878 1382,-188 1284.8972,-174.265 1172.4463,-145.8949 1117.5887,-131.2287"/>
<polygon fill="#191970" stroke="#191970" points="1118.2854,-127.7917 1107.7193,-128.5714 1116.4654,-134.551 1118.2854,-127.7917"/>
</g>
<!-- Node23&#45;&gt;Node22 -->
<g id="edge30" class="edge">
<title>Node23&#45;&gt;Node22</title>
<path fill="none" stroke="#191970" d="M1476.2803,-392.4276C1339.6904,-365.6305 966.6555,-288.8942 934,-244 910.619,-211.8561 965.6397,-194.1826 1010.7036,-185.4033"/>
<polygon fill="#191970" stroke="#191970" points="1011.517,-188.8125 1020.7191,-183.5615 1010.251,-181.9279 1011.517,-188.8125"/>
</g>
<!-- Node24 -->
<g id="node25" class="node">
<title>Node24</title>
<g id="a_node25"><a xlink:href="../../d8/dd4/GPUTPCGMBorderTrack_8h.html" target="_top" xlink:title="GPUTPCGMBorderTrack.h">
<polygon fill="none" stroke="#000000" points="457.5,-224.5 457.5,-243.5 596.5,-243.5 596.5,-224.5 457.5,-224.5"/>
<text text-anchor="middle" x="527" y="-231.5" font-family="Helvetica,sans-Serif" font-size="10.00" fill="#000000">GPUTPCGMBorderTrack.h</text>
</a>
</g>
</g>
<!-- Node23&#45;&gt;Node24 -->
<g id="edge31" class="edge">
<title>Node23&#45;&gt;Node24</title>
<path fill="none" stroke="#191970" d="M1468.696,-393.5321C1464.0676,-392.9692 1459.4588,-392.4489 1455,-392 1192.7284,-365.5976 1121.1037,-409.5344 863,-356 745.2416,-331.5752 613.2281,-274.2191 556.0207,-247.7852"/>
<polygon fill="#191970" stroke="#191970" points="557.4033,-244.5682 546.8604,-243.5203 554.4487,-250.9141 557.4033,-244.5682"/>
</g>
<!-- Node25 -->
<g id="node26" class="node">
<title>Node25</title>
<g id="a_node26"><a xlink:href="../../d8/dfd/GPUTPCGMMergedTrack_8h.html" target="_top" xlink:title="GPUTPCGMMergedTrack.h">
<polygon fill="none" stroke="#000000" points="1532.5,-336.5 1532.5,-355.5 1675.5,-355.5 1675.5,-336.5 1532.5,-336.5"/>
<text text-anchor="middle" x="1604" y="-343.5" font-family="Helvetica,sans-Serif" font-size="10.00" fill="#000000">GPUTPCGMMergedTrack.h</text>
</a>
</g>
</g>
<!-- Node23&#45;&gt;Node25 -->
<g id="edge34" class="edge">
<title>Node23&#45;&gt;Node25</title>
<path fill="none" stroke="#191970" d="M1539.5866,-392.2455C1551.3305,-383.814 1568.5199,-371.4729 1582.1882,-361.6598"/>
<polygon fill="#191970" stroke="#191970" points="1584.4871,-364.3179 1590.5691,-355.6427 1580.4046,-358.6316 1584.4871,-364.3179"/>
</g>
<!-- Node29 -->
<g id="node30" class="node">
<title>Node29</title>
<g id="a_node30"><a xlink:href="../../de/d4c/GPUTPCGMMergerTypes_8h.html" target="_top" xlink:title="GPUTPCGMMergerTypes.h">
<polygon fill="none" stroke="#000000" points="1303.5,-224.5 1303.5,-243.5 1446.5,-243.5 1446.5,-224.5 1303.5,-224.5"/>
<text text-anchor="middle" x="1375" y="-231.5" font-family="Helvetica,sans-Serif" font-size="10.00" fill="#000000">GPUTPCGMMergerTypes.h</text>
</a>
</g>
</g>
<!-- Node23&#45;&gt;Node29 -->
<g id="edge68" class="edge">
<title>Node23&#45;&gt;Node29</title>
<path fill="none" stroke="#191970" d="M1471.7249,-392.4773C1433.3759,-384.5154 1386.7854,-371.9104 1375,-356 1352.8271,-326.0664 1361.1203,-279.6801 1368.4837,-253.5757"/>
<polygon fill="#191970" stroke="#191970" points="1371.915,-254.3233 1371.491,-243.7369 1365.2207,-252.2771 1371.915,-254.3233"/>
</g>
<!-- Node31 -->
<g id="node32" class="node">
<title>Node31</title>
<g id="a_node32"><a xlink:href="../../d1/dc3/GPUTPCGMSliceTrack_8h.html" target="_top" xlink:title="GPUTPCGMSliceTrack.h">
<polygon fill="none" stroke="#000000" points="1384,-336.5 1384,-355.5 1514,-355.5 1514,-336.5 1384,-336.5"/>
<text text-anchor="middle" x="1449" y="-343.5" font-family="Helvetica,sans-Serif" font-size="10.00" fill="#000000">GPUTPCGMSliceTrack.h</text>
</a>
</g>
</g>
<!-- Node23&#45;&gt;Node31 -->
<g id="edge46" class="edge">
<title>Node23&#45;&gt;Node31</title>
<path fill="none" stroke="#191970" d="M1512.5876,-392.2455C1500.9943,-383.814 1484.0252,-371.4729 1470.5322,-361.6598"/>
<polygon fill="#191970" stroke="#191970" points="1472.4047,-358.6938 1462.2587,-355.6427 1468.2874,-364.355 1472.4047,-358.6938"/>
</g>
<!-- Node38 -->
<g id="node39" class="node">
<title>Node38</title>
<g id="a_node39"><a xlink:href="../../d6/d57/GPUProcessor_8h.html" target="_top" xlink:title="GPUProcessor.h">
<polygon fill="none" stroke="#000000" points="1391.5,-168.5 1391.5,-187.5 1484.5,-187.5 1484.5,-168.5 1391.5,-168.5"/>
<text text-anchor="middle" x="1438" y="-175.5" font-family="Helvetica,sans-Serif" font-size="10.00" fill="#000000">GPUProcessor.h</text>
</a>
</g>
</g>
<!-- Node23&#45;&gt;Node38 -->
<g id="edge63" class="edge">
<title>Node23&#45;&gt;Node38</title>
<path fill="none" stroke="#191970" d="M1583.0433,-395.7812C1594.9244,-394.5099 1607.3693,-393.1957 1619,-392 1659.7587,-387.8097 1958.4779,-386.3539 1986,-356 2025.4067,-312.5386 2025.8103,-267.092 1986,-224 1951.6617,-186.8311 1582.3862,-192.677 1532,-188 1519.9994,-186.8861 1507.1485,-185.5883 1494.9226,-184.3039"/>
<polygon fill="#191970" stroke="#191970" points="1495.1461,-180.808 1484.8324,-183.2324 1494.4068,-187.7689 1495.1461,-180.808"/>
</g>
<!-- Node39 -->
<g id="node40" class="node">
<title>Node39</title>
<polygon fill="none" stroke="#bfbfbf" points="1694,-336.5 1694,-355.5 1754,-355.5 1754,-336.5 1694,-336.5"/>
<text text-anchor="middle" x="1724" y="-343.5" font-family="Helvetica,sans-Serif" font-size="10.00" fill="#000000">iostream</text>
</g>
<!-- Node23&#45;&gt;Node39 -->
<g id="edge70" class="edge">
<title>Node23&#45;&gt;Node39</title>
<path fill="none" stroke="#191970" d="M1560.0374,-392.3733C1594.5011,-382.6259 1647.7699,-367.56 1684.1747,-357.2637"/>
<polygon fill="#191970" stroke="#191970" points="1685.2959,-360.584 1693.9659,-354.4945 1683.3908,-353.8482 1685.2959,-360.584"/>
</g>
<!-- Node24&#45;&gt;Node6 -->
<g id="edge32" class="edge">
<title>Node24&#45;&gt;Node6</title>
<path fill="none" stroke="#191970" d="M552.6186,-224.4562C589.6629,-210.8564 660.4932,-185.6017 722,-168 826.4727,-138.1026 852.9439,-130.6384 960,-112 1078.8471,-91.3088 1219.0964,-77.7111 1298.8853,-70.9787"/>
<polygon fill="#191970" stroke="#191970" points="1299.5849,-74.4326 1309.2593,-70.1134 1299.0029,-67.4569 1299.5849,-74.4326"/>
</g>
<!-- Node24&#45;&gt;Node9 -->
<g id="edge33" class="edge">
<title>Node24&#45;&gt;Node9</title>
<path fill="none" stroke="#191970" d="M571.7417,-224.4369C616.7694,-214.8127 686.2728,-199.957 734.4927,-189.6504"/>
<polygon fill="#191970" stroke="#191970" points="735.3953,-193.0366 744.4428,-187.5237 733.9321,-186.1912 735.3953,-193.0366"/>
</g>
<!-- Node26 -->
<g id="node27" class="node">
<title>Node26</title>
<g id="a_node27"><a xlink:href="../../d8/d33/GPUTPCGMTrackParam_8h.html" target="_top" xlink:title="GPUTPCGMTrackParam.h">
<polygon fill="none" stroke="#000000" points="1413.5,-280.5 1413.5,-299.5 1550.5,-299.5 1550.5,-280.5 1413.5,-280.5"/>
<text text-anchor="middle" x="1482" y="-287.5" font-family="Helvetica,sans-Serif" font-size="10.00" fill="#000000">GPUTPCGMTrackParam.h</text>
</a>
</g>
</g>
<!-- Node25&#45;&gt;Node26 -->
<g id="edge35" class="edge">
<title>Node25&#45;&gt;Node26</title>
<path fill="none" stroke="#191970" d="M1583.0275,-336.3733C1563.4433,-327.3838 1534.0039,-313.8706 1511.949,-303.7471"/>
<polygon fill="#191970" stroke="#191970" points="1513.2473,-300.4919 1502.6989,-299.5011 1510.3271,-306.8538 1513.2473,-300.4919"/>
</g>
<!-- Node27 -->
<g id="node28" class="node">
<title>Node27</title>
<g id="a_node28"><a xlink:href="../../d3/dcc/GPUTPCGMMergedTrackHit_8h.html" target="_top" xlink:title="GPUTPCGMMergedTrackHit.h">
<polygon fill="none" stroke="#000000" points="1786.5,-224.5 1786.5,-243.5 1943.5,-243.5 1943.5,-224.5 1786.5,-224.5"/>
<text text-anchor="middle" x="1865" y="-231.5" font-family="Helvetica,sans-Serif" font-size="10.00" fill="#000000">GPUTPCGMMergedTrackHit.h</text>
</a>
</g>
</g>
<!-- Node25&#45;&gt;Node27 -->
<g id="edge44" class="edge">
<title>Node25&#45;&gt;Node27</title>
<path fill="none" stroke="#191970" d="M1634.3619,-336.4655C1660.9764,-327.8231 1700.531,-314.2847 1734,-300 1771.1317,-284.1521 1812.5116,-262.6221 1838.6386,-248.5249"/>
<polygon fill="#191970" stroke="#191970" points="1840.4208,-251.54 1847.5381,-243.6918 1837.08,-245.3885 1840.4208,-251.54"/>
</g>
<!-- Node28 -->
<g id="node29" class="node">
<title>Node28</title>
<g id="a_node29"><a xlink:href="../../d3/d1f/GPUdEdxInfo_8h.html" target="_top" xlink:title="GPUdEdxInfo.h">
<polygon fill="none" stroke="#000000" points="1541.5,-224.5 1541.5,-243.5 1630.5,-243.5 1630.5,-224.5 1541.5,-224.5"/>
<text text-anchor="middle" x="1586" y="-231.5" font-family="Helvetica,sans-Serif" font-size="10.00" fill="#000000">GPUdEdxInfo.h</text>
</a>
</g>
</g>
<!-- Node25&#45;&gt;Node28 -->
<g id="edge45" class="edge">
<title>Node25&#45;&gt;Node28</title>
<path fill="none" stroke="#191970" d="M1602.4653,-336.4509C1599.5296,-318.184 1593.0642,-277.9553 1589.1657,-253.6976"/>
<polygon fill="#191970" stroke="#191970" points="1592.5733,-252.8428 1587.5308,-243.5249 1585.662,-253.9536 1592.5733,-252.8428"/>
</g>
<!-- Node26&#45;&gt;Node9 -->
<g id="edge39" class="edge">
<title>Node26&#45;&gt;Node9</title>
<path fill="none" stroke="#191970" d="M1413.4957,-287.177C1287.2778,-281.4917 1022.7959,-267.1892 934,-244 889.7604,-232.4468 842.192,-208.2929 814.0418,-192.6298"/>
<polygon fill="#191970" stroke="#191970" points="815.7004,-189.5469 805.2724,-187.6739 812.2564,-195.6411 815.7004,-189.5469"/>
</g>
<!-- Node26&#45;&gt;Node22 -->
<g id="edge36" class="edge">
<title>Node26&#45;&gt;Node22</title>
<path fill="none" stroke="#191970" d="M1481.0342,-280.0598C1479.0205,-265.2366 1472.944,-237.6269 1455,-224 1428.2838,-203.7114 1213.5246,-187.6024 1113.2442,-181.1071"/>
<polygon fill="#191970" stroke="#191970" points="1113.2444,-177.6 1103.0412,-180.4539 1112.7971,-184.5857 1113.2444,-177.6"/>
</g>
<!-- Node26&#45;&gt;Node27 -->
<g id="edge37" class="edge">
<title>Node26&#45;&gt;Node27</title>
<path fill="none" stroke="#191970" d="M1547.4049,-280.4369C1614.6048,-270.6113 1719.0969,-255.3331 1789.7021,-245.0096"/>
<polygon fill="#191970" stroke="#191970" points="1790.4765,-248.4337 1799.8649,-243.5237 1789.4637,-241.5073 1790.4765,-248.4337"/>
</g>
<!-- Node26&#45;&gt;Node28 -->
<g id="edge40" class="edge">
<title>Node26&#45;&gt;Node28</title>
<path fill="none" stroke="#191970" d="M1500.1154,-280.2455C1516.445,-271.4527 1540.671,-258.4079 1559.2339,-248.4125"/>
<polygon fill="#191970" stroke="#191970" points="1560.9468,-251.4654 1568.0922,-243.6427 1557.6281,-245.3021 1560.9468,-251.4654"/>
</g>
<!-- Node26&#45;&gt;Node29 -->
<g id="edge41" class="edge">
<title>Node26&#45;&gt;Node29</title>
<path fill="none" stroke="#191970" d="M1463.362,-280.2455C1446.5614,-271.4527 1421.6366,-258.4079 1402.5382,-248.4125"/>
<polygon fill="#191970" stroke="#191970" points="1403.9073,-245.1787 1393.4244,-243.6427 1400.6614,-251.3807 1403.9073,-245.1787"/>
</g>
<!-- Node30 -->
<g id="node31" class="node">
<title>Node30</title>
<polygon fill="none" stroke="#bfbfbf" points="1486.5,-112.5 1486.5,-131.5 1539.5,-131.5 1539.5,-112.5 1486.5,-112.5"/>
<text text-anchor="middle" x="1513" y="-119.5" font-family="Helvetica,sans-Serif" font-size="10.00" fill="#000000">cstddef</text>
</g>
<!-- Node26&#45;&gt;Node30 -->
<g id="edge43" class="edge">
<title>Node26&#45;&gt;Node30</title>
<path fill="none" stroke="#191970" d="M1483.7555,-280.4862C1488.6771,-253.8144 1502.683,-177.9117 1509.3658,-141.695"/>
<polygon fill="#191970" stroke="#191970" points="1512.8137,-142.297 1511.1865,-131.8279 1505.9299,-141.0267 1512.8137,-142.297"/>
</g>
<!-- Node27&#45;&gt;Node6 -->
<g id="edge38" class="edge">
<title>Node27&#45;&gt;Node6</title>
<path fill="none" stroke="#191970" d="M1845.5582,-224.4751C1799.2088,-202.0871 1678.148,-145.4873 1572,-112 1524.0463,-96.8717 1468.3815,-84.8824 1426.5619,-76.9415"/>
<polygon fill="#191970" stroke="#191970" points="1426.9852,-73.46 1416.512,-75.0603 1425.6973,-80.3405 1426.9852,-73.46"/>
</g>
<!-- Node29&#45;&gt;Node22 -->
<g id="edge42" class="edge">
<title>Node29&#45;&gt;Node22</title>
<path fill="none" stroke="#191970" d="M1321.549,-224.4369C1263.2406,-214.0047 1170.5768,-197.4259 1113.1795,-187.1567"/>
<polygon fill="#191970" stroke="#191970" points="1113.6975,-183.6939 1103.2374,-185.3779 1112.4646,-190.5845 1113.6975,-183.6939"/>
</g>
<!-- Node31&#45;&gt;Node9 -->
<g id="edge54" class="edge">
<title>Node31&#45;&gt;Node9</title>
<path fill="none" stroke="#191970" d="M1383.7099,-342.169C1206.747,-331.1244 728.078,-296.6113 682,-244 660.6811,-219.6584 699.9385,-201.3754 736.7612,-190.2972"/>
<polygon fill="#191970" stroke="#191970" points="737.8791,-193.6179 746.5296,-187.5008 735.9525,-186.8882 737.8791,-193.6179"/>
</g>
<!-- Node31&#45;&gt;Node26 -->
<g id="edge53" class="edge">
<title>Node31&#45;&gt;Node26</title>
<path fill="none" stroke="#191970" d="M1454.7482,-336.2455C1459.2435,-328.617 1465.6248,-317.7881 1471.0825,-308.5267"/>
<polygon fill="#191970" stroke="#191970" points="1474.2561,-310.035 1476.3177,-299.6427 1468.2253,-306.4811 1474.2561,-310.035"/>
</g>
<!-- Node32 -->
<g id="node33" class="node">
<title>Node32</title>
<g id="a_node33"><a xlink:href="../../d0/d88/GPUTPCTrack_8h.html" target="_top" xlink:title="GPUTPCTrack.h">
<polygon fill="none" stroke="#000000" points="1116.5,-280.5 1116.5,-299.5 1207.5,-299.5 1207.5,-280.5 1116.5,-280.5"/>
<text text-anchor="middle" x="1162" y="-287.5" font-family="Helvetica,sans-Serif" font-size="10.00" fill="#000000">GPUTPCTrack.h</text>
</a>
</g>
</g>
<!-- Node31&#45;&gt;Node32 -->
<g id="edge47" class="edge">
<title>Node31&#45;&gt;Node32</title>
<path fill="none" stroke="#191970" d="M1399.989,-336.4369C1349.4528,-326.5762 1270.7716,-311.2237 1217.8575,-300.899"/>
<polygon fill="#191970" stroke="#191970" points="1218.4475,-297.4482 1207.9623,-298.9682 1217.1069,-304.3187 1218.4475,-297.4482"/>
</g>
<!-- Node35 -->
<g id="node36" class="node">
<title>Node35</title>
<g id="a_node36"><a xlink:href="../../d5/d5c/GPUO2DataTypes_8h.html" target="_top" xlink:title="GPUO2DataTypes.h">
<polygon fill="none" stroke="#000000" points="1614.5,-280.5 1614.5,-299.5 1725.5,-299.5 1725.5,-280.5 1614.5,-280.5"/>
<text text-anchor="middle" x="1670" y="-287.5" font-family="Helvetica,sans-Serif" font-size="10.00" fill="#000000">GPUO2DataTypes.h</text>
</a>
</g>
</g>
<!-- Node31&#45;&gt;Node35 -->
<g id="edge55" class="edge">
<title>Node31&#45;&gt;Node35</title>
<path fill="none" stroke="#191970" d="M1486.7401,-336.4369C1524.2448,-326.9335 1581.8799,-312.3291 1622.4824,-302.0407"/>
<polygon fill="#191970" stroke="#191970" points="1623.5816,-305.3728 1632.4155,-299.5237 1621.8621,-298.5873 1623.5816,-305.3728"/>
</g>
<!-- Node32&#45;&gt;Node22 -->
<g id="edge50" class="edge">
<title>Node32&#45;&gt;Node22</title>
<path fill="none" stroke="#191970" d="M1153.4741,-280.4509C1136.5738,-261.5227 1098.6197,-219.014 1077.2928,-195.1279"/>
<polygon fill="#191970" stroke="#191970" points="1079.7753,-192.6532 1070.5044,-187.5249 1074.5538,-197.3154 1079.7753,-192.6532"/>
</g>
<!-- Node33 -->
<g id="node34" class="node">
<title>Node33</title>
<g id="a_node34"><a xlink:href="../../df/d00/GPUTPCBaseTrackParam_8h.html" target="_top" xlink:title="GPUTPCBaseTrackParam.h">
<polygon fill="none" stroke="#000000" points="1139,-224.5 1139,-243.5 1285,-243.5 1285,-224.5 1139,-224.5"/>
<text text-anchor="middle" x="1212" y="-231.5" font-family="Helvetica,sans-Serif" font-size="10.00" fill="#000000">GPUTPCBaseTrackParam.h</text>
</a>
</g>
</g>
<!-- Node32&#45;&gt;Node33 -->
<g id="edge48" class="edge">
<title>Node32&#45;&gt;Node33</title>
<path fill="none" stroke="#191970" d="M1170.7093,-280.2455C1177.8073,-272.2958 1188.0084,-260.8706 1196.495,-251.3656"/>
<polygon fill="#191970" stroke="#191970" points="1199.3411,-253.4331 1203.3905,-243.6427 1194.1195,-248.771 1199.3411,-253.4331"/>
</g>
<!-- Node34 -->
<g id="node35" class="node">
<title>Node34</title>
<g id="a_node35"><a xlink:href="../../d2/dd5/GPUTPCSliceOutCluster_8h.html" target="_top" xlink:title="GPUTPCSliceOutCluster.h">
<polygon fill="none" stroke="#000000" points="943,-224.5 943,-243.5 1083,-243.5 1083,-224.5 943,-224.5"/>
<text text-anchor="middle" x="1013" y="-231.5" font-family="Helvetica,sans-Serif" font-size="10.00" fill="#000000">GPUTPCSliceOutCluster.h</text>
</a>
</g>
</g>
<!-- Node32&#45;&gt;Node34 -->
<g id="edge51" class="edge">
<title>Node32&#45;&gt;Node34</title>
<path fill="none" stroke="#191970" d="M1136.386,-280.3733C1111.9313,-271.1822 1074.8946,-257.2624 1047.7791,-247.0713"/>
<polygon fill="#191970" stroke="#191970" points="1048.8719,-243.7431 1038.2798,-243.5011 1046.4091,-250.2956 1048.8719,-243.7431"/>
</g>
<!-- Node33&#45;&gt;Node22 -->
<g id="edge49" class="edge">
<title>Node33&#45;&gt;Node22</title>
<path fill="none" stroke="#191970" d="M1186.2141,-224.3733C1161.5953,-215.1822 1124.31,-201.2624 1097.0125,-191.0713"/>
<polygon fill="#191970" stroke="#191970" points="1098.042,-187.7198 1087.4494,-187.5011 1095.5937,-194.2777 1098.042,-187.7198"/>
</g>
<!-- Node34&#45;&gt;Node22 -->
<g id="edge52" class="edge">
<title>Node34&#45;&gt;Node22</title>
<path fill="none" stroke="#191970" d="M1021.5351,-224.2455C1028.4912,-216.2958 1038.4883,-204.8706 1046.8051,-195.3656"/>
<polygon fill="#191970" stroke="#191970" points="1049.6116,-197.4732 1053.5627,-187.6427 1044.3436,-192.8637 1049.6116,-197.4732"/>
</g>
<!-- Node35&#45;&gt;Node28 -->
<g id="edge61" class="edge">
<title>Node35&#45;&gt;Node28</title>
<path fill="none" stroke="#191970" d="M1655.3683,-280.2455C1642.6006,-271.7337 1623.8562,-259.2375 1609.0701,-249.3801"/>
<polygon fill="#191970" stroke="#191970" points="1610.726,-246.2775 1600.464,-243.6427 1606.8431,-252.1019 1610.726,-246.2775"/>
</g>
<!-- Node36 -->
<g id="node37" class="node">
<title>Node36</title>
<g id="a_node37"><a xlink:href="../../da/d28/GPUO2FakeClasses_8h.html" target="_top" xlink:title="GPUO2FakeClasses.h">
<polygon fill="none" stroke="#000000" points="1648,-224.5 1648,-243.5 1768,-243.5 1768,-224.5 1648,-224.5"/>
<text text-anchor="middle" x="1708" y="-231.5" font-family="Helvetica,sans-Serif" font-size="10.00" fill="#000000">GPUO2FakeClasses.h</text>
</a>
</g>
</g>
<!-- Node35&#45;&gt;Node36 -->
<g id="edge56" class="edge">
<title>Node35&#45;&gt;Node36</title>
<path fill="none" stroke="#191970" d="M1676.6191,-280.2455C1681.9046,-272.4564 1689.4541,-261.3308 1695.8238,-251.9439"/>
<polygon fill="#191970" stroke="#191970" points="1698.7379,-253.8827 1701.4568,-243.6427 1692.9455,-249.9522 1698.7379,-253.8827"/>
</g>
<!-- Node36&#45;&gt;Node6 -->
<g id="edge57" class="edge">
<title>Node36&#45;&gt;Node6</title>
<path fill="none" stroke="#191970" d="M1647.7917,-225.257C1644.8192,-224.8307 1641.876,-224.4098 1639,-224 1581.9081,-215.8643 1423.0892,-228.4643 1382,-188 1354.8711,-161.2837 1356.2418,-112.9077 1359.6238,-85.7909"/>
<polygon fill="#191970" stroke="#191970" points="1363.1308,-85.9983 1361.1192,-75.5962 1356.2049,-84.9823 1363.1308,-85.9983"/>
</g>
<!-- Node37 -->
<g id="node38" class="node">
<title>Node37</title>
<g id="a_node38"><a xlink:href="../../d4/dc5/GPUDataTypes_8h.html" target="_top" xlink:title="GPUDataTypes.h">
<polygon fill="none" stroke="#000000" points="1541,-168.5 1541,-187.5 1639,-187.5 1639,-168.5 1541,-168.5"/>
<text text-anchor="middle" x="1590" y="-175.5" font-family="Helvetica,sans-Serif" font-size="10.00" fill="#000000">GPUDataTypes.h</text>
</a>
</g>
</g>
<!-- Node36&#45;&gt;Node37 -->
<g id="edge58" class="edge">
<title>Node36&#45;&gt;Node37</title>
<path fill="none" stroke="#191970" d="M1687.7151,-224.3733C1668.8579,-215.4241 1640.554,-201.9917 1619.2545,-191.8835"/>
<polygon fill="#191970" stroke="#191970" points="1620.5551,-188.6266 1610.0202,-187.5011 1617.5539,-194.9506 1620.5551,-188.6266"/>
</g>
<!-- Node37&#45;&gt;Node6 -->
<g id="edge59" class="edge">
<title>Node37&#45;&gt;Node6</title>
<path fill="none" stroke="#191970" d="M1586.5296,-168.2637C1580.8265,-153.7069 1568.062,-126.4405 1548,-112 1528.6463,-98.0693 1472.4631,-85.2465 1427.0451,-76.6983"/>
<polygon fill="#191970" stroke="#191970" points="1427.4148,-73.2074 1416.9455,-74.8335 1426.1438,-80.0911 1427.4148,-73.2074"/>
</g>
<!-- Node37&#45;&gt;Node30 -->
<g id="edge60" class="edge">
<title>Node37&#45;&gt;Node30</title>
<path fill="none" stroke="#191970" d="M1576.5876,-168.2455C1564.9943,-159.814 1548.0252,-147.4729 1534.5322,-137.6598"/>
<polygon fill="#191970" stroke="#191970" points="1536.4047,-134.6938 1526.2587,-131.6427 1532.2874,-140.355 1536.4047,-134.6938"/>
</g>
<!-- Node38&#45;&gt;Node6 -->
<g id="edge64" class="edge">
<title>Node38&#45;&gt;Node6</title>
<path fill="none" stroke="#191970" d="M1431.6055,-168.4509C1419.0964,-149.7707 1391.2079,-108.1238 1375.1046,-84.0761"/>
<polygon fill="#191970" stroke="#191970" points="1377.8506,-81.8865 1369.3783,-75.5249 1372.0342,-85.7814 1377.8506,-81.8865"/>
</g>
<!-- Node38&#45;&gt;Node11 -->
<g id="edge67" class="edge">
<title>Node38&#45;&gt;Node11</title>
<path fill="none" stroke="#191970" d="M1406.5412,-168.3733C1375.9793,-159.021 1329.4174,-144.7725 1295.9739,-134.5385"/>
<polygon fill="#191970" stroke="#191970" points="1296.6348,-131.0806 1286.0483,-131.5011 1294.5864,-137.7742 1296.6348,-131.0806"/>
</g>
<!-- Node38&#45;&gt;Node12 -->
<g id="edge65" class="edge">
<title>Node38&#45;&gt;Node12</title>
<path fill="none" stroke="#191970" d="M1391.426,-175.665C1208.0292,-166.4706 537.2231,-132.8402 362.72,-124.0916"/>
<polygon fill="#191970" stroke="#191970" points="362.818,-120.5922 352.6552,-123.587 362.4674,-127.5834 362.818,-120.5922"/>
</g>
<!-- Node38&#45;&gt;Node30 -->
<g id="edge66" class="edge">
<title>Node38&#45;&gt;Node30</title>
<path fill="none" stroke="#191970" d="M1451.064,-168.2455C1462.3562,-159.814 1478.8845,-147.4729 1492.0271,-137.6598"/>
<polygon fill="#191970" stroke="#191970" points="1494.1669,-140.4301 1500.0857,-131.6427 1489.9789,-134.8211 1494.1669,-140.4301"/>
</g>
<!-- Node40&#45;&gt;Node6 -->
<g id="edge72" class="edge">
<title>Node40&#45;&gt;Node6</title>
<path fill="none" stroke="#191970" d="M2116.5643,-336.4856C2111.8637,-317.2608 2102,-272.351 2102,-234 2102,-234 2102,-234 2102,-178 2102,-143.6999 2091.3163,-129.8059 2062,-112 2008.5373,-79.5282 1589.5596,-69.5391 1427.0835,-66.8683"/>
<polygon fill="#191970" stroke="#191970" points="1426.8139,-63.3636 1416.759,-66.7028 1426.7016,-70.3627 1426.8139,-63.3636"/>
</g>
</g>
</svg>
