<?xml version="1.0" encoding="UTF-8" standalone="no"?>
<!DOCTYPE svg PUBLIC "-//W3C//DTD SVG 1.1//EN"
 "http://www.w3.org/Graphics/SVG/1.1/DTD/svg11.dtd">
<!-- Generated by graphviz version 2.40.1 (20161225.0304)
 -->
<!-- Title: /home/travis/build/AliceO2Group/AliceO2/Detectors/MUON/MCH/Raw/Decoder/src Pages: 1 -->
<svg width="242pt" height="367pt"
 viewBox="0.00 0.00 242.32 367.00" xmlns="http://www.w3.org/2000/svg" xmlns:xlink="http://www.w3.org/1999/xlink">
<g id="graph0" class="graph" transform="scale(1 1) rotate(0) translate(4 363)">
<title>/home/travis/build/AliceO2Group/AliceO2/Detectors/MUON/MCH/Raw/Decoder/src</title>
<g id="clust1" class="cluster">
<title>clusterdir_060542ae88c3eb8c9b22a30de881a7e9</title>
<g id="a_clust1"><a xlink:href="dir_060542ae88c3eb8c9b22a30de881a7e9.html" target="_top" xlink:title="Decoder">
<polygon fill="#ddddee" stroke="#000000" points="132.5,-280 132.5,-351 202.5,-351 202.5,-280 132.5,-280"/>
<text text-anchor="middle" x="167.5" y="-339" font-family="Helvetica,sans-Serif" font-size="10.00" fill="#000000">Decoder</text>
</a>
</g>
</g>
<!-- dir_5cf327fcf87e9e676182b837d15f78ab -->
<g id="node1" class="node">
<title>dir_5cf327fcf87e9e676182b837d15f78ab</title>
<g id="a_node1"><a xlink:href="dir_5cf327fcf87e9e676182b837d15f78ab.html" target="_top" xlink:title="src">
<polygon fill="#eeeeff" stroke="#000000" points="194.5,-324 140.5,-324 140.5,-288 194.5,-288 194.5,-324"/>
<text text-anchor="middle" x="167.5" y="-303.5" font-family="Helvetica,sans-Serif" font-size="10.00" fill="#000000">src</text>
</a>
</g>
</g>
<!-- dir_73a2990d2d1f2bd930bc27bf45f6b0c9 -->
<g id="node2" class="node">
<title>dir_73a2990d2d1f2bd930bc27bf45f6b0c9</title>
<g id="a_node2"><a xlink:href="dir_73a2990d2d1f2bd930bc27bf45f6b0c9.html" target="_top" xlink:title="testdata">
<polygon fill="none" stroke="#000000" points="57,-252 0,-252 0,-216 57,-216 57,-252"/>
<text text-anchor="middle" x="28.5" y="-231.5" font-family="Helvetica,sans-Serif" font-size="10.00" fill="#000000">testdata</text>
</a>
</g>
</g>
<!-- dir_5cf327fcf87e9e676182b837d15f78ab&#45;&gt;dir_73a2990d2d1f2bd930bc27bf45f6b0c9 -->
<g id="edge7" class="edge">
<title>dir_5cf327fcf87e9e676182b837d15f78ab&#45;&gt;dir_73a2990d2d1f2bd930bc27bf45f6b0c9</title>
<path fill="none" stroke="#000000" d="M140.3694,-291.9468C119.3054,-281.0359 89.8449,-265.7758 66.4439,-253.6544"/>
<polygon fill="#000000" stroke="#000000" points="67.9683,-250.5024 57.479,-249.0107 64.7487,-256.718 67.9683,-250.5024"/>
<g id="a_edge7&#45;headlabel"><a xlink:href="dir_000527_000537.html" target="_top" xlink:title="1">
<text text-anchor="middle" x="72.466" y="-247.1345" font-family="Helvetica,sans-Serif" font-size="10.00" fill="#000000">1</text>
</a>
</g>
</g>
<!-- dir_0cfbacb297625179725e3de4f30c0e94 -->
<g id="node3" class="node">
<title>dir_0cfbacb297625179725e3de4f30c0e94</title>
<g id="a_node3"><a xlink:href="dir_0cfbacb297625179725e3de4f30c0e94.html" target="_top" xlink:title="ElecMap">
<polygon fill="none" stroke="#ff0000" points="205,-180 148,-180 148,-144 205,-144 205,-180"/>
<text text-anchor="middle" x="176.5" y="-159.5" font-family="Helvetica,sans-Serif" font-size="10.00" fill="#000000">ElecMap</text>
</a>
</g>
</g>
<!-- dir_5cf327fcf87e9e676182b837d15f78ab&#45;&gt;dir_0cfbacb297625179725e3de4f30c0e94 -->
<g id="edge8" class="edge">
<title>dir_5cf327fcf87e9e676182b837d15f78ab&#45;&gt;dir_0cfbacb297625179725e3de4f30c0e94</title>
<path fill="none" stroke="#000000" d="M171.3413,-287.6001C173.3166,-277.2025 175.5123,-263.9346 176.5,-252 178.2049,-231.3997 178.1478,-208.056 177.6944,-190.3057"/>
<polygon fill="#000000" stroke="#000000" points="181.1927,-190.194 177.3826,-180.308 174.1961,-190.4123 181.1927,-190.194"/>
<g id="a_edge8&#45;headlabel"><a xlink:href="dir_000527_000407.html" target="_top" xlink:title="4">
<text text-anchor="middle" x="184.1425" y="-191.1984" font-family="Helvetica,sans-Serif" font-size="10.00" fill="#000000">4</text>
</a>
</g>
</g>
<!-- dir_55964488a5749f1fcba45aaf4e122cee -->
<g id="node4" class="node">
<title>dir_55964488a5749f1fcba45aaf4e122cee</title>
<g id="a_node4"><a xlink:href="dir_55964488a5749f1fcba45aaf4e122cee.html" target="_top" xlink:title="Common">
<polygon fill="none" stroke="#ff0000" points="130,-180 69,-180 69,-144 130,-144 130,-180"/>
<text text-anchor="middle" x="99.5" y="-159.5" font-family="Helvetica,sans-Serif" font-size="10.00" fill="#000000">Common</text>
</a>
</g>
</g>
<!-- dir_5cf327fcf87e9e676182b837d15f78ab&#45;&gt;dir_55964488a5749f1fcba45aaf4e122cee -->
<g id="edge9" class="edge">
<title>dir_5cf327fcf87e9e676182b837d15f78ab&#45;&gt;dir_55964488a5749f1fcba45aaf4e122cee</title>
<path fill="none" stroke="#000000" d="M140.1849,-290.0546C126.9568,-280.7596 112.2839,-267.757 104.5,-252 95.1139,-232.9996 94.2589,-208.9164 95.5359,-190.4449"/>
<polygon fill="#000000" stroke="#000000" points="99.0384,-190.5811 96.4857,-180.2984 92.0688,-189.9286 99.0384,-190.5811"/>
<g id="a_edge9&#45;headlabel"><a xlink:href="dir_000527_000519.html" target="_top" xlink:title="14">
<text text-anchor="middle" x="101.5303" y="-191.9247" font-family="Helvetica,sans-Serif" font-size="10.00" fill="#000000">14</text>
</a>
</g>
</g>
<!-- dir_cfadcf1c28477e06298c128044978e91 -->
<g id="node5" class="node">
<title>dir_cfadcf1c28477e06298c128044978e91</title>
<g id="a_node5"><a xlink:href="dir_cfadcf1c28477e06298c128044978e91.html" target="_top" xlink:title="ImplHelpers">
<polygon fill="none" stroke="#000000" points="209.5,-108 133.5,-108 133.5,-72 209.5,-72 209.5,-108"/>
<text text-anchor="middle" x="171.5" y="-87.5" font-family="Helvetica,sans-Serif" font-size="10.00" fill="#000000">ImplHelpers</text>
</a>
</g>
</g>
<!-- dir_5cf327fcf87e9e676182b837d15f78ab&#45;&gt;dir_cfadcf1c28477e06298c128044978e91 -->
<g id="edge10" class="edge">
<title>dir_5cf327fcf87e9e676182b837d15f78ab&#45;&gt;dir_cfadcf1c28477e06298c128044978e91</title>
<path fill="none" stroke="#000000" d="M180.1516,-287.8203C199.5173,-257.6387 232.4717,-195.4195 214.5,-144 210.9043,-133.7121 204.4372,-123.9193 197.5924,-115.568"/>
<polygon fill="#000000" stroke="#000000" points="200.2164,-113.2517 190.9956,-108.0337 194.9498,-117.863 200.2164,-113.2517"/>
<g id="a_edge10&#45;headlabel"><a xlink:href="dir_000527_000536.html" target="_top" xlink:title="11">
<text text-anchor="middle" x="204.7205" y="-111.5858" font-family="Helvetica,sans-Serif" font-size="10.00" fill="#000000">11</text>
</a>
</g>
</g>
<!-- dir_10dbadd582c5f56f2a579debde05dc79 -->
<g id="node6" class="node">
<title>dir_10dbadd582c5f56f2a579debde05dc79</title>
<g id="a_node6"><a xlink:href="dir_10dbadd582c5f56f2a579debde05dc79.html" target="_top" xlink:title="include">
<polygon fill="none" stroke="#ff0000" points="167.5,-252 113.5,-252 113.5,-216 167.5,-216 167.5,-252"/>
<text text-anchor="middle" x="140.5" y="-231.5" font-family="Helvetica,sans-Serif" font-size="10.00" fill="#000000">include</text>
</a>
</g>
</g>
<!-- dir_5cf327fcf87e9e676182b837d15f78ab&#45;&gt;dir_10dbadd582c5f56f2a579debde05dc79 -->
<g id="edge11" class="edge">
<title>dir_5cf327fcf87e9e676182b837d15f78ab&#45;&gt;dir_10dbadd582c5f56f2a579debde05dc79</title>
<path fill="none" stroke="#000000" d="M160.6868,-287.8314C157.7356,-279.9617 154.2142,-270.5712 150.945,-261.8533"/>
<polygon fill="#000000" stroke="#000000" points="154.1934,-260.5476 147.405,-252.4133 147.6391,-263.0055 154.1934,-260.5476"/>
<g id="a_edge11&#45;headlabel"><a xlink:href="dir_000527_000525.html" target="_top" xlink:title="11">
<text text-anchor="middle" x="158.114" y="-260.4164" font-family="Helvetica,sans-Serif" font-size="10.00" fill="#000000">11</text>
</a>
</g>
</g>
<!-- dir_2171f7ec022c5423887b07c69b2f5b48 -->
<g id="node7" class="node">
<title>dir_2171f7ec022c5423887b07c69b2f5b48</title>
<g id="a_node7"><a xlink:href="dir_2171f7ec022c5423887b07c69b2f5b48.html" target="_top" xlink:title="DataFormats">
<polygon fill="none" stroke="#ff0000" points="211.5,-36 131.5,-36 131.5,0 211.5,0 211.5,-36"/>
<text text-anchor="middle" x="171.5" y="-15.5" font-family="Helvetica,sans-Serif" font-size="10.00" fill="#000000">DataFormats</text>
</a>
</g>
</g>
<!-- dir_5cf327fcf87e9e676182b837d15f78ab&#45;&gt;dir_2171f7ec022c5423887b07c69b2f5b48 -->
<g id="edge12" class="edge">
<title>dir_5cf327fcf87e9e676182b837d15f78ab&#45;&gt;dir_2171f7ec022c5423887b07c69b2f5b48</title>
<path fill="none" stroke="#000000" d="M191.1361,-287.9684C201.8649,-278.4694 213.6598,-265.9097 220.5,-252 234.7566,-223.0086 228.2725,-212.2303 230.5,-180 233.8299,-131.8195 239.1004,-115.6814 218.5,-72 213.6293,-61.6721 206.2011,-51.8021 198.6784,-43.3916"/>
<polygon fill="#000000" stroke="#000000" points="201.2192,-40.9843 191.8139,-36.1066 196.1246,-45.7849 201.2192,-40.9843"/>
<g id="a_edge12&#45;headlabel"><a xlink:href="dir_000527_000076.html" target="_top" xlink:title="3">
<text text-anchor="middle" x="205.7507" y="-39.1533" font-family="Helvetica,sans-Serif" font-size="10.00" fill="#000000">3</text>
</a>
</g>
</g>
<!-- dir_73a2990d2d1f2bd930bc27bf45f6b0c9&#45;&gt;dir_55964488a5749f1fcba45aaf4e122cee -->
<g id="edge2" class="edge">
<title>dir_73a2990d2d1f2bd930bc27bf45f6b0c9&#45;&gt;dir_55964488a5749f1fcba45aaf4e122cee</title>
<path fill="none" stroke="#000000" d="M46.4163,-215.8314C54.8442,-207.2848 65.041,-196.9443 74.236,-187.6198"/>
<polygon fill="#000000" stroke="#000000" points="76.8131,-189.9912 81.3425,-180.4133 71.8289,-185.0761 76.8131,-189.9912"/>
<g id="a_edge2&#45;headlabel"><a xlink:href="dir_000537_000519.html" target="_top" xlink:title="2">
<text text-anchor="middle" x="76.3109" y="-192.0442" font-family="Helvetica,sans-Serif" font-size="10.00" fill="#000000">2</text>
</a>
</g>
</g>
<!-- dir_0cfbacb297625179725e3de4f30c0e94&#45;&gt;dir_cfadcf1c28477e06298c128044978e91 -->
<g id="edge1" class="edge">
<title>dir_0cfbacb297625179725e3de4f30c0e94&#45;&gt;dir_cfadcf1c28477e06298c128044978e91</title>
<path fill="none" stroke="#000000" d="M175.2383,-143.8314C174.7035,-136.131 174.0677,-126.9743 173.4734,-118.4166"/>
<polygon fill="#000000" stroke="#000000" points="176.9632,-118.1467 172.7787,-108.4133 169.98,-118.6317 176.9632,-118.1467"/>
<g id="a_edge1&#45;headlabel"><a xlink:href="dir_000407_000536.html" target="_top" xlink:title="2">
<text text-anchor="middle" x="180.0445" y="-119.0361" font-family="Helvetica,sans-Serif" font-size="10.00" fill="#000000">2</text>
</a>
</g>
</g>
<!-- dir_55964488a5749f1fcba45aaf4e122cee&#45;&gt;dir_cfadcf1c28477e06298c128044978e91 -->
<g id="edge3" class="edge">
<title>dir_55964488a5749f1fcba45aaf4e122cee&#45;&gt;dir_cfadcf1c28477e06298c128044978e91</title>
<path fill="none" stroke="#000000" d="M111.7162,-143.8314C119.5663,-135.1337 129.9496,-124.5783 139.9049,-115.1265"/>
<polygon fill="#000000" stroke="#000000" points="142.4508,-117.5384 147.3853,-108.1628 137.6812,-112.4148 142.4508,-117.5384"/>
<g id="a_edge3&#45;headlabel"><a xlink:href="dir_000519_000536.html" target="_top" xlink:title="3">
<text text-anchor="middle" x="141.7544" y="-119.5658" font-family="Helvetica,sans-Serif" font-size="10.00" fill="#000000">3</text>
</a>
</g>
</g>
<!-- dir_55964488a5749f1fcba45aaf4e122cee&#45;&gt;dir_2171f7ec022c5423887b07c69b2f5b48 -->
<g id="edge4" class="edge">
<title>dir_55964488a5749f1fcba45aaf4e122cee&#45;&gt;dir_2171f7ec022c5423887b07c69b2f5b48</title>
<path fill="none" stroke="#000000" d="M102.1023,-143.8658C105.3483,-125.0307 112.0535,-95.1354 124.5,-72 129.8548,-62.0467 137.3359,-52.3507 144.7571,-43.9852"/>
<polygon fill="#000000" stroke="#000000" points="147.5504,-46.1203 151.7825,-36.4074 142.4171,-41.3612 147.5504,-46.1203"/>
<g id="a_edge4&#45;headlabel"><a xlink:href="dir_000519_000076.html" target="_top" xlink:title="3">
<text text-anchor="middle" x="147.1887" y="-48.1867" font-family="Helvetica,sans-Serif" font-size="10.00" fill="#000000">3</text>
</a>
</g>
</g>
<!-- dir_cfadcf1c28477e06298c128044978e91&#45;&gt;dir_55964488a5749f1fcba45aaf4e122cee -->
<g id="edge5" class="edge">
<title>dir_cfadcf1c28477e06298c128044978e91&#45;&gt;dir_55964488a5749f1fcba45aaf4e122cee</title>
<path fill="none" stroke="#000000" d="M159.0627,-108.4133C151.2259,-117.0787 140.9215,-127.5464 131.0436,-136.9223"/>
<polygon fill="#000000" stroke="#000000" points="128.5561,-134.4561 123.621,-143.8314 133.3255,-139.5799 128.5561,-134.4561"/>
<g id="a_edge5&#45;headlabel"><a xlink:href="dir_000536_000519.html" target="_top" xlink:title="3">
<text text-anchor="middle" x="129.2528" y="-127.4287" font-family="Helvetica,sans-Serif" font-size="10.00" fill="#000000">3</text>
</a>
</g>
</g>
<!-- dir_cfadcf1c28477e06298c128044978e91&#45;&gt;dir_2171f7ec022c5423887b07c69b2f5b48 -->
<g id="edge6" class="edge">
<title>dir_cfadcf1c28477e06298c128044978e91&#45;&gt;dir_2171f7ec022c5423887b07c69b2f5b48</title>
<path fill="none" stroke="#000000" d="M171.5,-71.8314C171.5,-64.131 171.5,-54.9743 171.5,-46.4166"/>
<polygon fill="#000000" stroke="#000000" points="175.0001,-46.4132 171.5,-36.4133 168.0001,-46.4133 175.0001,-46.4132"/>
<g id="a_edge6&#45;headlabel"><a xlink:href="dir_000536_000076.html" target="_top" xlink:title="1">
<text text-anchor="middle" x="177.8393" y="-47.5079" font-family="Helvetica,sans-Serif" font-size="10.00" fill="#000000">1</text>
</a>
</g>
</g>
<!-- dir_10dbadd582c5f56f2a579debde05dc79&#45;&gt;dir_0cfbacb297625179725e3de4f30c0e94 -->
<g id="edge13" class="edge">
<title>dir_10dbadd582c5f56f2a579debde05dc79&#45;&gt;dir_0cfbacb297625179725e3de4f30c0e94</title>
<path fill="none" stroke="#000000" d="M149.5843,-215.8314C153.5615,-207.8771 158.3155,-198.369 162.7139,-189.5723"/>
<polygon fill="#000000" stroke="#000000" points="165.9517,-190.9228 167.2934,-180.4133 159.6907,-187.7923 165.9517,-190.9228"/>
<g id="a_edge13&#45;headlabel"><a xlink:href="dir_000525_000407.html" target="_top" xlink:title="2">
<text text-anchor="middle" x="166.8837" y="-192.9077" font-family="Helvetica,sans-Serif" font-size="10.00" fill="#000000">2</text>
</a>
</g>
</g>
<!-- dir_10dbadd582c5f56f2a579debde05dc79&#45;&gt;dir_55964488a5749f1fcba45aaf4e122cee -->
<g id="edge14" class="edge">
<title>dir_10dbadd582c5f56f2a579debde05dc79&#45;&gt;dir_55964488a5749f1fcba45aaf4e122cee</title>
<path fill="none" stroke="#000000" d="M130.154,-215.8314C125.5763,-207.7925 120.0948,-198.1666 115.0412,-189.2918"/>
<polygon fill="#000000" stroke="#000000" points="117.9752,-187.3712 109.9853,-180.4133 111.8923,-190.8351 117.9752,-187.3712"/>
<g id="a_edge14&#45;headlabel"><a xlink:href="dir_000525_000519.html" target="_top" xlink:title="1">
<text text-anchor="middle" x="122.2212" y="-186.5899" font-family="Helvetica,sans-Serif" font-size="10.00" fill="#000000">1</text>
</a>
</g>
</g>
</g>
</svg>
