<?xml version="1.0" encoding="UTF-8" standalone="no"?>
<!DOCTYPE svg PUBLIC "-//W3C//DTD SVG 1.1//EN"
 "http://www.w3.org/Graphics/SVG/1.1/DTD/svg11.dtd">
<!-- Generated by graphviz version 2.40.1 (20161225.0304)
 -->
<!-- Title: /home/travis/build/AliceO2Group/AliceO2/Detectors/MUON/MID/Raw Pages: 1 -->
<svg width="415pt" height="375pt"
 viewBox="0.00 0.00 414.79 375.00" xmlns="http://www.w3.org/2000/svg" xmlns:xlink="http://www.w3.org/1999/xlink">
<g id="graph0" class="graph" transform="scale(1 1) rotate(0) translate(4 371)">
<title>/home/travis/build/AliceO2Group/AliceO2/Detectors/MUON/MID/Raw</title>
<g id="clust1" class="cluster">
<title>clusterdir_9e24c537087392bd208449d0b48c466c</title>
<g id="a_clust1"><a xlink:href="dir_9e24c537087392bd208449d0b48c466c.html" target="_top" xlink:title="MID">
<polygon fill="#ddddee" stroke="#000000" points="96.7908,-200 96.7908,-359 398.7908,-359 398.7908,-200 96.7908,-200"/>
<text text-anchor="middle" x="247.7908" y="-347" font-family="Helvetica,sans-Serif" font-size="10.00" fill="#000000">MID</text>
</a>
</g>
</g>
<g id="clust2" class="cluster">
<title>clusterdir_55bb03bc4479a61c5f6db133927cb48c</title>
<g id="a_clust2"><a xlink:href="dir_55bb03bc4479a61c5f6db133927cb48c.html" target="_top">
<polygon fill="#eeeeff" stroke="#000000" points="104.7908,-208 104.7908,-332 390.7908,-332 390.7908,-208 104.7908,-208"/>
</a>
</g>
</g>
<!-- dir_55bb03bc4479a61c5f6db133927cb48c -->
<g id="node1" class="node">
<title>dir_55bb03bc4479a61c5f6db133927cb48c</title>
<text text-anchor="middle" x="355.7908" y="-303.5" font-family="Helvetica,sans-Serif" font-size="10.00" fill="#000000">Raw</text>
</g>
<!-- dir_7ac5f2ba0ee8aa1aaf8a95e15c52d8a1 -->
<g id="node2" class="node">
<title>dir_7ac5f2ba0ee8aa1aaf8a95e15c52d8a1</title>
<g id="a_node2"><a xlink:href="dir_7ac5f2ba0ee8aa1aaf8a95e15c52d8a1.html" target="_top" xlink:title="exe">
<polygon fill="#ffffff" stroke="#000000" points="310.7908,-324 256.7908,-324 256.7908,-288 310.7908,-288 310.7908,-324"/>
<text text-anchor="middle" x="283.7908" y="-303.5" font-family="Helvetica,sans-Serif" font-size="10.00" fill="#000000">exe</text>
</a>
</g>
</g>
<!-- dir_c79384bd87b5c57290ef89b923823ea3 -->
<g id="node3" class="node">
<title>dir_c79384bd87b5c57290ef89b923823ea3</title>
<g id="a_node3"><a xlink:href="dir_c79384bd87b5c57290ef89b923823ea3.html" target="_top" xlink:title="include">
<polygon fill="#ffffff" stroke="#ff0000" points="182.7908,-252 128.7908,-252 128.7908,-216 182.7908,-216 182.7908,-252"/>
<text text-anchor="middle" x="155.7908" y="-231.5" font-family="Helvetica,sans-Serif" font-size="10.00" fill="#000000">include</text>
</a>
</g>
</g>
<!-- dir_7ac5f2ba0ee8aa1aaf8a95e15c52d8a1&#45;&gt;dir_c79384bd87b5c57290ef89b923823ea3 -->
<g id="edge13" class="edge">
<title>dir_7ac5f2ba0ee8aa1aaf8a95e15c52d8a1&#45;&gt;dir_c79384bd87b5c57290ef89b923823ea3</title>
<path fill="none" stroke="#000000" d="M256.6453,-290.7307C237.7234,-280.0871 212.2815,-265.776 191.6855,-254.1908"/>
<polygon fill="#000000" stroke="#000000" points="193.3289,-251.0995 182.8972,-249.2473 189.897,-257.2005 193.3289,-251.0995"/>
<g id="a_edge13&#45;headlabel"><a xlink:href="dir_000552_000417.html" target="_top" xlink:title="5">
<text text-anchor="middle" x="197.8538" y="-247.8871" font-family="Helvetica,sans-Serif" font-size="10.00" fill="#000000">5</text>
</a>
</g>
</g>
<!-- dir_2171f7ec022c5423887b07c69b2f5b48 -->
<g id="node9" class="node">
<title>dir_2171f7ec022c5423887b07c69b2f5b48</title>
<g id="a_node9"><a xlink:href="dir_2171f7ec022c5423887b07c69b2f5b48.html" target="_top" xlink:title="DataFormats">
<polygon fill="none" stroke="#ff0000" points="220.7908,-108 140.7908,-108 140.7908,-72 220.7908,-72 220.7908,-108"/>
<text text-anchor="middle" x="180.7908" y="-87.5" font-family="Helvetica,sans-Serif" font-size="10.00" fill="#000000">DataFormats</text>
</a>
</g>
</g>
<!-- dir_7ac5f2ba0ee8aa1aaf8a95e15c52d8a1&#45;&gt;dir_2171f7ec022c5423887b07c69b2f5b48 -->
<g id="edge14" class="edge">
<title>dir_7ac5f2ba0ee8aa1aaf8a95e15c52d8a1&#45;&gt;dir_2171f7ec022c5423887b07c69b2f5b48</title>
<path fill="none" stroke="#000000" d="M282.5177,-287.6391C279.6077,-256.1077 270.3385,-190.5694 241.7908,-144 235.0919,-133.0721 225.4914,-123.114 215.8832,-114.8086"/>
<polygon fill="#000000" stroke="#000000" points="217.8245,-111.8741 207.874,-108.2358 213.3838,-117.2852 217.8245,-111.8741"/>
<g id="a_edge14&#45;headlabel"><a xlink:href="dir_000552_000076.html" target="_top" xlink:title="1">
<text text-anchor="middle" x="222.4044" y="-109.4597" font-family="Helvetica,sans-Serif" font-size="10.00" fill="#000000">1</text>
</a>
</g>
</g>
<!-- dir_26637d1bd82229bc9ed97f7e706be743 -->
<g id="node8" class="node">
<title>dir_26637d1bd82229bc9ed97f7e706be743</title>
<g id="a_node8"><a xlink:href="dir_26637d1bd82229bc9ed97f7e706be743.html" target="_top" xlink:title="Raw">
<polygon fill="none" stroke="#ff0000" points="139.7908,-180 85.7908,-180 85.7908,-144 139.7908,-144 139.7908,-180"/>
<text text-anchor="middle" x="112.7908" y="-159.5" font-family="Helvetica,sans-Serif" font-size="10.00" fill="#000000">Raw</text>
</a>
</g>
</g>
<!-- dir_c79384bd87b5c57290ef89b923823ea3&#45;&gt;dir_26637d1bd82229bc9ed97f7e706be743 -->
<g id="edge6" class="edge">
<title>dir_c79384bd87b5c57290ef89b923823ea3&#45;&gt;dir_26637d1bd82229bc9ed97f7e706be743</title>
<path fill="none" stroke="#000000" d="M144.9401,-215.8314C140.0886,-207.7079 134.2692,-197.9637 128.9229,-189.0118"/>
<polygon fill="#000000" stroke="#000000" points="131.92,-187.2041 123.7876,-180.4133 125.9102,-190.7933 131.92,-187.2041"/>
<g id="a_edge6&#45;headlabel"><a xlink:href="dir_000417_000553.html" target="_top" xlink:title="2">
<text text-anchor="middle" x="136.2007" y="-186.3344" font-family="Helvetica,sans-Serif" font-size="10.00" fill="#000000">2</text>
</a>
</g>
</g>
<!-- dir_c79384bd87b5c57290ef89b923823ea3&#45;&gt;dir_2171f7ec022c5423887b07c69b2f5b48 -->
<g id="edge7" class="edge">
<title>dir_c79384bd87b5c57290ef89b923823ea3&#45;&gt;dir_2171f7ec022c5423887b07c69b2f5b48</title>
<path fill="none" stroke="#000000" d="M158.9571,-215.7623C163.24,-191.0928 170.9193,-146.8598 175.9344,-117.9731"/>
<polygon fill="#000000" stroke="#000000" points="179.3881,-118.541 177.6503,-108.0896 172.4912,-117.3435 179.3881,-118.541"/>
<g id="a_edge7&#45;headlabel"><a xlink:href="dir_000417_000076.html" target="_top" xlink:title="15">
<text text-anchor="middle" x="181.5707" y="-120.0682" font-family="Helvetica,sans-Serif" font-size="10.00" fill="#000000">15</text>
</a>
</g>
</g>
<!-- dir_3f5a00ee602ccccc138b29f207c4fe38 -->
<g id="node4" class="node">
<title>dir_3f5a00ee602ccccc138b29f207c4fe38</title>
<g id="a_node4"><a xlink:href="dir_3f5a00ee602ccccc138b29f207c4fe38.html" target="_top" xlink:title="src">
<polygon fill="#ffffff" stroke="#000000" points="166.7908,-324 112.7908,-324 112.7908,-288 166.7908,-288 166.7908,-324"/>
<text text-anchor="middle" x="139.7908" y="-303.5" font-family="Helvetica,sans-Serif" font-size="10.00" fill="#000000">src</text>
</a>
</g>
</g>
<!-- dir_3f5a00ee602ccccc138b29f207c4fe38&#45;&gt;dir_c79384bd87b5c57290ef89b923823ea3 -->
<g id="edge1" class="edge">
<title>dir_3f5a00ee602ccccc138b29f207c4fe38&#45;&gt;dir_c79384bd87b5c57290ef89b923823ea3</title>
<path fill="none" stroke="#000000" d="M143.8283,-287.8314C145.5395,-280.131 147.5743,-270.9743 149.476,-262.4166"/>
<polygon fill="#000000" stroke="#000000" points="152.9463,-262.9344 151.699,-252.4133 146.1129,-261.4159 152.9463,-262.9344"/>
<g id="a_edge1&#45;headlabel"><a xlink:href="dir_000422_000417.html" target="_top" xlink:title="25">
<text text-anchor="middle" x="154.9382" y="-264.5593" font-family="Helvetica,sans-Serif" font-size="10.00" fill="#000000">25</text>
</a>
</g>
</g>
<!-- dir_b5547b1068d53f0f904ee5a2a84992af -->
<g id="node6" class="node">
<title>dir_b5547b1068d53f0f904ee5a2a84992af</title>
<g id="a_node6"><a xlink:href="dir_b5547b1068d53f0f904ee5a2a84992af.html" target="_top" xlink:title="Base">
<polygon fill="none" stroke="#ff0000" points="72.7908,-252 18.7908,-252 18.7908,-216 72.7908,-216 72.7908,-252"/>
<text text-anchor="middle" x="45.7908" y="-231.5" font-family="Helvetica,sans-Serif" font-size="10.00" fill="#000000">Base</text>
</a>
</g>
</g>
<!-- dir_3f5a00ee602ccccc138b29f207c4fe38&#45;&gt;dir_b5547b1068d53f0f904ee5a2a84992af -->
<g id="edge2" class="edge">
<title>dir_3f5a00ee602ccccc138b29f207c4fe38&#45;&gt;dir_b5547b1068d53f0f904ee5a2a84992af</title>
<path fill="none" stroke="#000000" d="M116.0706,-287.8314C104.3814,-278.8779 90.122,-267.9558 77.5099,-258.2955"/>
<polygon fill="#000000" stroke="#000000" points="79.5705,-255.4651 69.5034,-252.1628 75.3139,-261.0222 79.5705,-255.4651"/>
<g id="a_edge2&#45;headlabel"><a xlink:href="dir_000422_000545.html" target="_top" xlink:title="3">
<text text-anchor="middle" x="84.1506" y="-252.8968" font-family="Helvetica,sans-Serif" font-size="10.00" fill="#000000">3</text>
</a>
</g>
</g>
<!-- dir_bcbb2cf9a3d3d83e5515c82071a07177 -->
<g id="node7" class="node">
<title>dir_bcbb2cf9a3d3d83e5515c82071a07177</title>
<g id="a_node7"><a xlink:href="dir_bcbb2cf9a3d3d83e5515c82071a07177.html" target="_top" xlink:title="Framework">
<polygon fill="none" stroke="#ff0000" points="216.2908,-36 145.2908,-36 145.2908,0 216.2908,0 216.2908,-36"/>
<text text-anchor="middle" x="180.7908" y="-15.5" font-family="Helvetica,sans-Serif" font-size="10.00" fill="#000000">Framework</text>
</a>
</g>
</g>
<!-- dir_3f5a00ee602ccccc138b29f207c4fe38&#45;&gt;dir_bcbb2cf9a3d3d83e5515c82071a07177 -->
<g id="edge3" class="edge">
<title>dir_3f5a00ee602ccccc138b29f207c4fe38&#45;&gt;dir_bcbb2cf9a3d3d83e5515c82071a07177</title>
<path fill="none" stroke="#000000" d="M167.0427,-291.96C182.1553,-282.7026 199.8521,-269.1246 209.7908,-252 250.1948,-182.3829 258.7814,-147.0903 229.7908,-72 225.6716,-61.3306 218.3572,-51.4665 210.6159,-43.1681"/>
<polygon fill="#000000" stroke="#000000" points="213.0089,-40.6113 203.4658,-36.0091 208.0561,-45.558 213.0089,-40.6113"/>
<g id="a_edge3&#45;headlabel"><a xlink:href="dir_000422_000013.html" target="_top" xlink:title="2">
<text text-anchor="middle" x="217.558" y="-38.6483" font-family="Helvetica,sans-Serif" font-size="10.00" fill="#000000">2</text>
</a>
</g>
</g>
<!-- dir_3f5a00ee602ccccc138b29f207c4fe38&#45;&gt;dir_26637d1bd82229bc9ed97f7e706be743 -->
<g id="edge4" class="edge">
<title>dir_3f5a00ee602ccccc138b29f207c4fe38&#45;&gt;dir_26637d1bd82229bc9ed97f7e706be743</title>
<path fill="none" stroke="#000000" d="M112.6232,-303.391C81.7387,-298.8084 32.652,-286.2513 9.7908,-252 -3.0394,-232.7774 -3.4237,-218.9605 9.7908,-200 17.6909,-188.6649 49.6772,-177.981 75.935,-170.8462"/>
<polygon fill="#000000" stroke="#000000" points="76.8739,-174.2184 85.6558,-168.2915 75.0946,-167.4482 76.8739,-174.2184"/>
<g id="a_edge4&#45;headlabel"><a xlink:href="dir_000422_000553.html" target="_top" xlink:title="2">
<text text-anchor="middle" x="74.119" y="-175.378" font-family="Helvetica,sans-Serif" font-size="10.00" fill="#000000">2</text>
</a>
</g>
</g>
<!-- dir_3f5a00ee602ccccc138b29f207c4fe38&#45;&gt;dir_2171f7ec022c5423887b07c69b2f5b48 -->
<g id="edge5" class="edge">
<title>dir_3f5a00ee602ccccc138b29f207c4fe38&#45;&gt;dir_2171f7ec022c5423887b07c69b2f5b48</title>
<path fill="none" stroke="#000000" d="M164.3709,-287.7772C174.9391,-278.4022 186.1451,-266.0021 191.7908,-252 209.5785,-207.8841 199.1383,-151.5427 189.954,-118.2587"/>
<polygon fill="#000000" stroke="#000000" points="193.212,-116.9283 187.0536,-108.3071 186.4916,-118.8871 193.212,-116.9283"/>
<g id="a_edge5&#45;headlabel"><a xlink:href="dir_000422_000076.html" target="_top" xlink:title="2">
<text text-anchor="middle" x="196.9436" y="-117.0849" font-family="Helvetica,sans-Serif" font-size="10.00" fill="#000000">2</text>
</a>
</g>
</g>
<!-- dir_afdedb4ee6548c342d3449f0674fa36d -->
<g id="node5" class="node">
<title>dir_afdedb4ee6548c342d3449f0674fa36d</title>
<g id="a_node5"><a xlink:href="dir_afdedb4ee6548c342d3449f0674fa36d.html" target="_top" xlink:title="test">
<polygon fill="#ffffff" stroke="#000000" points="238.7908,-324 184.7908,-324 184.7908,-288 238.7908,-288 238.7908,-324"/>
<text text-anchor="middle" x="211.7908" y="-303.5" font-family="Helvetica,sans-Serif" font-size="10.00" fill="#000000">test</text>
</a>
</g>
</g>
<!-- dir_afdedb4ee6548c342d3449f0674fa36d&#45;&gt;dir_c79384bd87b5c57290ef89b923823ea3 -->
<g id="edge8" class="edge">
<title>dir_afdedb4ee6548c342d3449f0674fa36d&#45;&gt;dir_c79384bd87b5c57290ef89b923823ea3</title>
<path fill="none" stroke="#000000" d="M197.6597,-287.8314C191.2097,-279.5386 183.4463,-269.557 176.3656,-260.4533"/>
<polygon fill="#000000" stroke="#000000" points="179.0144,-258.158 170.1122,-252.4133 173.489,-262.4556 179.0144,-258.158"/>
<g id="a_edge8&#45;headlabel"><a xlink:href="dir_000557_000417.html" target="_top" xlink:title="12">
<text text-anchor="middle" x="183.4625" y="-256.7523" font-family="Helvetica,sans-Serif" font-size="10.00" fill="#000000">12</text>
</a>
</g>
</g>
<!-- dir_afdedb4ee6548c342d3449f0674fa36d&#45;&gt;dir_b5547b1068d53f0f904ee5a2a84992af -->
<g id="edge9" class="edge">
<title>dir_afdedb4ee6548c342d3449f0674fa36d&#45;&gt;dir_b5547b1068d53f0f904ee5a2a84992af</title>
<path fill="none" stroke="#000000" d="M184.7745,-292.2043C181.7597,-290.7508 178.7205,-289.3224 175.7908,-288 136.9003,-270.4451 126.1076,-268.578 86.7908,-252 85.403,-251.4148 83.9903,-250.8151 82.5646,-250.2064"/>
<polygon fill="#000000" stroke="#000000" points="83.6582,-246.8664 73.0898,-246.1178 80.8847,-253.2935 83.6582,-246.8664"/>
<g id="a_edge9&#45;headlabel"><a xlink:href="dir_000557_000545.html" target="_top" xlink:title="5">
<text text-anchor="middle" x="88.0835" y="-243.1836" font-family="Helvetica,sans-Serif" font-size="10.00" fill="#000000">5</text>
</a>
</g>
</g>
<!-- dir_afdedb4ee6548c342d3449f0674fa36d&#45;&gt;dir_bcbb2cf9a3d3d83e5515c82071a07177 -->
<g id="edge10" class="edge">
<title>dir_afdedb4ee6548c342d3449f0674fa36d&#45;&gt;dir_bcbb2cf9a3d3d83e5515c82071a07177</title>
<path fill="none" stroke="#000000" d="M225.0168,-287.9204C231.727,-277.8387 239.3728,-264.7702 243.7908,-252 270.0919,-175.9766 300.9494,-142.8183 262.7908,-72 254.6218,-56.8392 240.1291,-45.2344 225.5763,-36.7401"/>
<polygon fill="#000000" stroke="#000000" points="227.022,-33.5425 216.5634,-31.8491 223.6833,-39.695 227.022,-33.5425"/>
<g id="a_edge10&#45;headlabel"><a xlink:href="dir_000557_000013.html" target="_top" xlink:title="3">
<text text-anchor="middle" x="231.5356" y="-30.2614" font-family="Helvetica,sans-Serif" font-size="10.00" fill="#000000">3</text>
</a>
</g>
</g>
<!-- dir_afdedb4ee6548c342d3449f0674fa36d&#45;&gt;dir_26637d1bd82229bc9ed97f7e706be743 -->
<g id="edge11" class="edge">
<title>dir_afdedb4ee6548c342d3449f0674fa36d&#45;&gt;dir_26637d1bd82229bc9ed97f7e706be743</title>
<path fill="none" stroke="#000000" d="M184.3384,-291.5639C158.6741,-277.8047 123.7185,-258.2812 119.7908,-252 108.3462,-233.6977 107.1903,-209.0372 108.5648,-190.1582"/>
<polygon fill="#000000" stroke="#000000" points="112.0608,-190.3713 109.5734,-180.0726 105.0956,-189.6747 112.0608,-190.3713"/>
<g id="a_edge11&#45;headlabel"><a xlink:href="dir_000557_000553.html" target="_top" xlink:title="2">
<text text-anchor="middle" x="114.5284" y="-191.7306" font-family="Helvetica,sans-Serif" font-size="10.00" fill="#000000">2</text>
</a>
</g>
</g>
<!-- dir_afdedb4ee6548c342d3449f0674fa36d&#45;&gt;dir_2171f7ec022c5423887b07c69b2f5b48 -->
<g id="edge12" class="edge">
<title>dir_afdedb4ee6548c342d3449f0674fa36d&#45;&gt;dir_2171f7ec022c5423887b07c69b2f5b48</title>
<path fill="none" stroke="#000000" d="M217.9699,-287.8714C227.3891,-257.2373 242.4788,-193.7097 224.7908,-144 221.203,-133.9169 214.8374,-124.3517 208.0433,-116.1515"/>
<polygon fill="#000000" stroke="#000000" points="210.4504,-113.591 201.1934,-108.4375 205.2162,-118.2389 210.4504,-113.591"/>
<g id="a_edge12&#45;headlabel"><a xlink:href="dir_000557_000076.html" target="_top" xlink:title="4">
<text text-anchor="middle" x="214.9602" y="-111.8936" font-family="Helvetica,sans-Serif" font-size="10.00" fill="#000000">4</text>
</a>
</g>
</g>
<!-- dir_bcbb2cf9a3d3d83e5515c82071a07177&#45;&gt;dir_2171f7ec022c5423887b07c69b2f5b48 -->
<g id="edge15" class="edge">
<title>dir_bcbb2cf9a3d3d83e5515c82071a07177&#45;&gt;dir_2171f7ec022c5423887b07c69b2f5b48</title>
<path fill="none" stroke="#000000" d="M186.7668,-36.4133C187.4979,-44.0593 187.7111,-53.1084 187.4063,-61.5726"/>
<polygon fill="#000000" stroke="#000000" points="183.8956,-61.6264 186.7432,-71.8314 190.881,-62.078 183.8956,-61.6264"/>
<g id="a_edge15&#45;headlabel"><a xlink:href="dir_000013_000076.html" target="_top" xlink:title="82">
<text text-anchor="middle" x="181.294" y="-55.3562" font-family="Helvetica,sans-Serif" font-size="10.00" fill="#000000">82</text>
</a>
</g>
</g>
<!-- dir_26637d1bd82229bc9ed97f7e706be743&#45;&gt;dir_bcbb2cf9a3d3d83e5515c82071a07177 -->
<g id="edge16" class="edge">
<title>dir_26637d1bd82229bc9ed97f7e706be743&#45;&gt;dir_bcbb2cf9a3d3d83e5515c82071a07177</title>
<path fill="none" stroke="#000000" d="M113.8326,-143.8257C115.5362,-124.9578 120.0174,-95.0362 131.7908,-72 137.0839,-61.6434 144.8889,-51.7654 152.7211,-43.3563"/>
<polygon fill="#000000" stroke="#000000" points="155.3551,-45.6689 159.8503,-36.075 150.3534,-40.7716 155.3551,-45.6689"/>
<g id="a_edge16&#45;headlabel"><a xlink:href="dir_000553_000013.html" target="_top" xlink:title="25">
<text text-anchor="middle" x="154.869" y="-47.7237" font-family="Helvetica,sans-Serif" font-size="10.00" fill="#000000">25</text>
</a>
</g>
</g>
<!-- dir_26637d1bd82229bc9ed97f7e706be743&#45;&gt;dir_2171f7ec022c5423887b07c69b2f5b48 -->
<g id="edge17" class="edge">
<title>dir_26637d1bd82229bc9ed97f7e706be743&#45;&gt;dir_2171f7ec022c5423887b07c69b2f5b48</title>
<path fill="none" stroke="#000000" d="M129.9501,-143.8314C137.942,-135.3694 147.5946,-125.1489 156.3325,-115.8971"/>
<polygon fill="#000000" stroke="#000000" points="159.0788,-118.0866 163.4005,-108.4133 153.9897,-113.2802 159.0788,-118.0866"/>
<g id="a_edge17&#45;headlabel"><a xlink:href="dir_000553_000076.html" target="_top" xlink:title="15">
<text text-anchor="middle" x="158.6749" y="-120.1494" font-family="Helvetica,sans-Serif" font-size="10.00" fill="#000000">15</text>
</a>
</g>
</g>
<!-- dir_2171f7ec022c5423887b07c69b2f5b48&#45;&gt;dir_bcbb2cf9a3d3d83e5515c82071a07177 -->
<g id="edge18" class="edge">
<title>dir_2171f7ec022c5423887b07c69b2f5b48&#45;&gt;dir_bcbb2cf9a3d3d83e5515c82071a07177</title>
<path fill="none" stroke="#000000" d="M174.8384,-71.8314C174.088,-64.131 173.8671,-54.9743 174.1757,-46.4166"/>
<polygon fill="#000000" stroke="#000000" points="177.67,-46.6161 174.8148,-36.4133 170.6843,-46.1697 177.67,-46.6161"/>
<g id="a_edge18&#45;headlabel"><a xlink:href="dir_000076_000013.html" target="_top" xlink:title="7">
<text text-anchor="middle" x="180.2744" y="-47.8844" font-family="Helvetica,sans-Serif" font-size="10.00" fill="#000000">7</text>
</a>
</g>
</g>
</g>
</svg>
