<?xml version="1.0" encoding="UTF-8" standalone="no"?>
<!DOCTYPE svg PUBLIC "-//W3C//DTD SVG 1.1//EN"
 "http://www.w3.org/Graphics/SVG/1.1/DTD/svg11.dtd">
<!-- Generated by graphviz version 2.40.1 (20161225.0304)
 -->
<!-- Title: /home/travis/build/AliceO2Group/AliceO2/GPU/GPUTracking/dEdx Pages: 1 -->
<svg width="259pt" height="223pt"
 viewBox="0.00 0.00 259.44 223.00" xmlns="http://www.w3.org/2000/svg" xmlns:xlink="http://www.w3.org/1999/xlink">
<g id="graph0" class="graph" transform="scale(1 1) rotate(0) translate(4 219)">
<title>/home/travis/build/AliceO2Group/AliceO2/GPU/GPUTracking/dEdx</title>
<g id="clust1" class="cluster">
<title>clusterdir_77030b149987c946eb2e85728f65acc0</title>
<g id="a_clust1"><a xlink:href="dir_77030b149987c946eb2e85728f65acc0.html" target="_top" xlink:title="GPUTracking">
<polygon fill="#ddddee" stroke="#000000" points="63.4873,-136 63.4873,-207 141.4873,-207 141.4873,-136 63.4873,-136"/>
<text text-anchor="middle" x="102.4873" y="-195" font-family="Helvetica,sans-Serif" font-size="10.00" fill="#000000">GPUTracking</text>
</a>
</g>
</g>
<!-- dir_f24168b904cb028f219a4716c0405caf -->
<g id="node1" class="node">
<title>dir_f24168b904cb028f219a4716c0405caf</title>
<g id="a_node1"><a xlink:href="dir_f24168b904cb028f219a4716c0405caf.html" target="_top" xlink:title="dEdx">
<polygon fill="#eeeeff" stroke="#000000" points="129.4873,-180 75.4873,-180 75.4873,-144 129.4873,-144 129.4873,-180"/>
<text text-anchor="middle" x="102.4873" y="-159.5" font-family="Helvetica,sans-Serif" font-size="10.00" fill="#000000">dEdx</text>
</a>
</g>
</g>
<!-- dir_ba48ca66118492a4424f86e9da0f6902 -->
<g id="node2" class="node">
<title>dir_ba48ca66118492a4424f86e9da0f6902</title>
<g id="a_node2"><a xlink:href="dir_ba48ca66118492a4424f86e9da0f6902.html" target="_top" xlink:title="Common">
<polygon fill="none" stroke="#000000" points="169.9873,-36 108.9873,-36 108.9873,0 169.9873,0 169.9873,-36"/>
<text text-anchor="middle" x="139.4873" y="-15.5" font-family="Helvetica,sans-Serif" font-size="10.00" fill="#000000">Common</text>
</a>
</g>
</g>
<!-- dir_f24168b904cb028f219a4716c0405caf&#45;&gt;dir_ba48ca66118492a4424f86e9da0f6902 -->
<g id="edge8" class="edge">
<title>dir_f24168b904cb028f219a4716c0405caf&#45;&gt;dir_ba48ca66118492a4424f86e9da0f6902</title>
<path fill="none" stroke="#000000" d="M75.0944,-154.9273C52.2536,-147.4229 21.1612,-133.0902 6.4873,-108 -1.5903,-94.1886 -2.4485,-85.2722 6.4873,-72 26.932,-41.6336 67.7048,-28.3363 98.7455,-22.5177"/>
<polygon fill="#000000" stroke="#000000" points="99.5749,-25.9275 108.8558,-20.8173 98.4138,-19.0244 99.5749,-25.9275"/>
<g id="a_edge8&#45;headlabel"><a xlink:href="dir_000679_000668.html" target="_top" xlink:title="4">
<text text-anchor="middle" x="96.5009" y="-26.8236" font-family="Helvetica,sans-Serif" font-size="10.00" fill="#000000">4</text>
</a>
</g>
</g>
<!-- dir_ee87ad93049d1677c6ffb88a968be9d4 -->
<g id="node3" class="node">
<title>dir_ee87ad93049d1677c6ffb88a968be9d4</title>
<g id="a_node3"><a xlink:href="dir_ee87ad93049d1677c6ffb88a968be9d4.html" target="_top" xlink:title="TPCFastTransformation">
<polygon fill="none" stroke="#ff0000" points="143.4873,-108 15.4873,-108 15.4873,-72 143.4873,-72 143.4873,-108"/>
<text text-anchor="middle" x="79.4873" y="-87.5" font-family="Helvetica,sans-Serif" font-size="10.00" fill="#000000">TPCFastTransformation</text>
</a>
</g>
</g>
<!-- dir_f24168b904cb028f219a4716c0405caf&#45;&gt;dir_ee87ad93049d1677c6ffb88a968be9d4 -->
<g id="edge9" class="edge">
<title>dir_f24168b904cb028f219a4716c0405caf&#45;&gt;dir_ee87ad93049d1677c6ffb88a968be9d4</title>
<path fill="none" stroke="#000000" d="M96.6834,-143.8314C94.1965,-136.0463 91.2342,-126.7729 88.4747,-118.1347"/>
<polygon fill="#000000" stroke="#000000" points="91.7463,-116.874 85.3693,-108.4133 85.0783,-119.0041 91.7463,-116.874"/>
<g id="a_edge9&#45;headlabel"><a xlink:href="dir_000679_000698.html" target="_top" xlink:title="1">
<text text-anchor="middle" x="95.5447" y="-116.9342" font-family="Helvetica,sans-Serif" font-size="10.00" fill="#000000">1</text>
</a>
</g>
</g>
<!-- dir_442920581a03c66cf8c08ae559108050 -->
<g id="node4" class="node">
<title>dir_442920581a03c66cf8c08ae559108050</title>
<g id="a_node4"><a xlink:href="dir_442920581a03c66cf8c08ae559108050.html" target="_top" xlink:title="Base">
<polygon fill="none" stroke="#ff0000" points="226.4873,-180 172.4873,-180 172.4873,-144 226.4873,-144 226.4873,-180"/>
<text text-anchor="middle" x="199.4873" y="-159.5" font-family="Helvetica,sans-Serif" font-size="10.00" fill="#000000">Base</text>
</a>
</g>
</g>
<!-- dir_f24168b904cb028f219a4716c0405caf&#45;&gt;dir_442920581a03c66cf8c08ae559108050 -->
<g id="edge10" class="edge">
<title>dir_f24168b904cb028f219a4716c0405caf&#45;&gt;dir_442920581a03c66cf8c08ae559108050</title>
<path fill="none" stroke="#000000" d="M129.7685,-162C140.5004,-162 151.2322,-162 161.9641,-162"/>
<polygon fill="#000000" stroke="#000000" points="162.2534,-165.5001 172.2534,-162 162.2533,-158.5001 162.2534,-165.5001"/>
<g id="a_edge10&#45;headlabel"><a xlink:href="dir_000679_000670.html" target="_top" xlink:title="2">
<text text-anchor="middle" x="158.6588" y="-165.8393" font-family="Helvetica,sans-Serif" font-size="10.00" fill="#000000">2</text>
</a>
</g>
</g>
<!-- dir_b1a191f241d56beebc4ffdb42af892eb -->
<g id="node5" class="node">
<title>dir_b1a191f241d56beebc4ffdb42af892eb</title>
<g id="a_node5"><a xlink:href="dir_b1a191f241d56beebc4ffdb42af892eb.html" target="_top" xlink:title="SliceTracker">
<polygon fill="none" stroke="#000000" points="236.9873,-108 161.9873,-108 161.9873,-72 236.9873,-72 236.9873,-108"/>
<text text-anchor="middle" x="199.4873" y="-87.5" font-family="Helvetica,sans-Serif" font-size="10.00" fill="#000000">SliceTracker</text>
</a>
</g>
</g>
<!-- dir_f24168b904cb028f219a4716c0405caf&#45;&gt;dir_b1a191f241d56beebc4ffdb42af892eb -->
<g id="edge11" class="edge">
<title>dir_f24168b904cb028f219a4716c0405caf&#45;&gt;dir_b1a191f241d56beebc4ffdb42af892eb</title>
<path fill="none" stroke="#000000" d="M126.9645,-143.8314C139.0267,-134.8779 153.7412,-123.9558 166.7558,-114.2955"/>
<polygon fill="#000000" stroke="#000000" points="169.0743,-116.9335 175.0179,-108.1628 164.9021,-111.3127 169.0743,-116.9335"/>
<g id="a_edge11&#45;headlabel"><a xlink:href="dir_000679_000686.html" target="_top" xlink:title="2">
<text text-anchor="middle" x="167.8802" y="-118.8557" font-family="Helvetica,sans-Serif" font-size="10.00" fill="#000000">2</text>
</a>
</g>
</g>
<!-- dir_ee87ad93049d1677c6ffb88a968be9d4&#45;&gt;dir_ba48ca66118492a4424f86e9da0f6902 -->
<g id="edge1" class="edge">
<title>dir_ee87ad93049d1677c6ffb88a968be9d4&#45;&gt;dir_ba48ca66118492a4424f86e9da0f6902</title>
<path fill="none" stroke="#000000" d="M94.6278,-71.8314C101.6089,-63.454 110.0263,-53.3531 117.6748,-44.1749"/>
<polygon fill="#000000" stroke="#000000" points="120.4298,-46.3362 124.1429,-36.4133 115.0522,-41.8548 120.4298,-46.3362"/>
<g id="a_edge1&#45;headlabel"><a xlink:href="dir_000698_000668.html" target="_top" xlink:title="26">
<text text-anchor="middle" x="120.3098" y="-48.4152" font-family="Helvetica,sans-Serif" font-size="10.00" fill="#000000">26</text>
</a>
</g>
</g>
<!-- dir_442920581a03c66cf8c08ae559108050&#45;&gt;dir_f24168b904cb028f219a4716c0405caf -->
<g id="edge5" class="edge">
<title>dir_442920581a03c66cf8c08ae559108050&#45;&gt;dir_f24168b904cb028f219a4716c0405caf</title>
<path fill="none" stroke="#000000" d="M172.2534,-162C161.5215,-162 150.7897,-162 140.0578,-162"/>
<polygon fill="#000000" stroke="#000000" points="139.7685,-158.5001 129.7685,-162 139.7685,-165.5001 139.7685,-158.5001"/>
<g id="a_edge5&#45;headlabel"><a xlink:href="dir_000670_000679.html" target="_top" xlink:title="1">
<text text-anchor="middle" x="143.3631" y="-153.1607" font-family="Helvetica,sans-Serif" font-size="10.00" fill="#000000">1</text>
</a>
</g>
</g>
<!-- dir_442920581a03c66cf8c08ae559108050&#45;&gt;dir_ba48ca66118492a4424f86e9da0f6902 -->
<g id="edge2" class="edge">
<title>dir_442920581a03c66cf8c08ae559108050&#45;&gt;dir_ba48ca66118492a4424f86e9da0f6902</title>
<path fill="none" stroke="#000000" d="M220.5948,-143.6565C239.215,-125.1706 261.27,-96.0191 246.4873,-72 232.0295,-48.509 203.8539,-34.8667 180.0439,-27.1723"/>
<polygon fill="#000000" stroke="#000000" points="180.7427,-23.7286 170.1597,-24.2275 178.744,-30.4372 180.7427,-23.7286"/>
<g id="a_edge2&#45;headlabel"><a xlink:href="dir_000670_000668.html" target="_top" xlink:title="31">
<text text-anchor="middle" x="184.9984" y="-19.5338" font-family="Helvetica,sans-Serif" font-size="10.00" fill="#000000">31</text>
</a>
</g>
</g>
<!-- dir_442920581a03c66cf8c08ae559108050&#45;&gt;dir_ee87ad93049d1677c6ffb88a968be9d4 -->
<g id="edge3" class="edge">
<title>dir_442920581a03c66cf8c08ae559108050&#45;&gt;dir_ee87ad93049d1677c6ffb88a968be9d4</title>
<path fill="none" stroke="#000000" d="M172.2574,-145.6621C156.3582,-136.1226 136.0305,-123.926 118.458,-113.3824"/>
<polygon fill="#000000" stroke="#000000" points="119.9335,-110.1861 109.5578,-108.0423 116.332,-116.1886 119.9335,-110.1861"/>
<g id="a_edge3&#45;headlabel"><a xlink:href="dir_000670_000698.html" target="_top" xlink:title="2">
<text text-anchor="middle" x="124.4766" y="-107.1008" font-family="Helvetica,sans-Serif" font-size="10.00" fill="#000000">2</text>
</a>
</g>
</g>
<!-- dir_442920581a03c66cf8c08ae559108050&#45;&gt;dir_b1a191f241d56beebc4ffdb42af892eb -->
<g id="edge4" class="edge">
<title>dir_442920581a03c66cf8c08ae559108050&#45;&gt;dir_b1a191f241d56beebc4ffdb42af892eb</title>
<path fill="none" stroke="#000000" d="M193.5349,-143.8314C192.7844,-136.131 192.5635,-126.9743 192.8722,-118.4166"/>
<polygon fill="#000000" stroke="#000000" points="196.3665,-118.6161 193.5113,-108.4133 189.3807,-118.1697 196.3665,-118.6161"/>
<g id="a_edge4&#45;headlabel"><a xlink:href="dir_000670_000686.html" target="_top" xlink:title="34">
<text text-anchor="middle" x="198.9709" y="-119.8844" font-family="Helvetica,sans-Serif" font-size="10.00" fill="#000000">34</text>
</a>
</g>
</g>
<!-- dir_b1a191f241d56beebc4ffdb42af892eb&#45;&gt;dir_ba48ca66118492a4424f86e9da0f6902 -->
<g id="edge6" class="edge">
<title>dir_b1a191f241d56beebc4ffdb42af892eb&#45;&gt;dir_ba48ca66118492a4424f86e9da0f6902</title>
<path fill="none" stroke="#000000" d="M184.3467,-71.8314C177.3656,-63.454 168.9482,-53.3531 161.2997,-44.1749"/>
<polygon fill="#000000" stroke="#000000" points="163.9223,-41.8548 154.8316,-36.4133 158.5447,-46.3362 163.9223,-41.8548"/>
<g id="a_edge6&#45;headlabel"><a xlink:href="dir_000686_000668.html" target="_top" xlink:title="19">
<text text-anchor="middle" x="168.4047" y="-40.2986" font-family="Helvetica,sans-Serif" font-size="10.00" fill="#000000">19</text>
</a>
</g>
</g>
<!-- dir_b1a191f241d56beebc4ffdb42af892eb&#45;&gt;dir_442920581a03c66cf8c08ae559108050 -->
<g id="edge7" class="edge">
<title>dir_b1a191f241d56beebc4ffdb42af892eb&#45;&gt;dir_442920581a03c66cf8c08ae559108050</title>
<path fill="none" stroke="#000000" d="M205.4633,-108.4133C206.1944,-116.0593 206.4075,-125.1084 206.1027,-133.5726"/>
<polygon fill="#000000" stroke="#000000" points="202.592,-133.6264 205.4397,-143.8314 209.5775,-134.078 202.592,-133.6264"/>
<g id="a_edge7&#45;headlabel"><a xlink:href="dir_000686_000670.html" target="_top" xlink:title="30">
<text text-anchor="middle" x="199.9904" y="-127.3562" font-family="Helvetica,sans-Serif" font-size="10.00" fill="#000000">30</text>
</a>
</g>
</g>
</g>
</svg>
