<?xml version="1.0" encoding="UTF-8" standalone="no"?>
<!DOCTYPE svg PUBLIC "-//W3C//DTD SVG 1.1//EN"
 "http://www.w3.org/Graphics/SVG/1.1/DTD/svg11.dtd">
<!-- Generated by graphviz version 2.40.1 (20161225.0304)
 -->
<!-- Title: /home/travis/build/AliceO2Group/AliceO2/Detectors/GlobalTracking Pages: 1 -->
<!--zoomable 591 -->
<svg id="main" version="1.1" xmlns="http://www.w3.org/2000/svg" xmlns:xlink="http://www.w3.org/1999/xlink" xml:space="preserve" onload="init(evt)">
<style type="text/css"><![CDATA[
.edge:hover path { stroke: red; }
.edge:hover polygon { stroke: red; fill: red; }
]]></style>
<script type="text/javascript"><![CDATA[
var edges = document.getElementsByTagName('g');
if (edges && edges.length) {
  for (var i=0;i<edges.length;i++) {
    if (edges[i].id.substr(0,4)=='edge') {
      edges[i].setAttribute('class','edge');
    }
  }
}
]]></script>
        <defs>
                <circle id="rim" cx="0" cy="0" r="7"/>
                <circle id="rim2" cx="0" cy="0" r="3.5"/>
                <g id="zoomPlus">
                        <use xlink:href="#rim" fill="#404040">
                                <set attributeName="fill" to="#808080" begin="zoomplus.mouseover" end="zoomplus.mouseout"/>
                        </use>
                        <path d="M-4,0h8M0,-4v8" fill="none" stroke="white" stroke-width="1.5" pointer-events="none"/>
                </g>
                <g id="zoomMin">
                        <use xlink:href="#rim" fill="#404040">
                                <set attributeName="fill" to="#808080" begin="zoomminus.mouseover" end="zoomminus.mouseout"/>
                        </use>
                        <path d="M-4,0h8" fill="none" stroke="white" stroke-width="1.5" pointer-events="none"/>
                </g>
                <g id="dirArrow">
                        <path fill="none" stroke="white" stroke-width="1.5" d="M0,-3.0v7 M-2.5,-0.5L0,-3.0L2.5,-0.5"/>
                </g>
               <g id="resetDef">
                       <use xlink:href="#rim2" fill="#404040">
                               <set attributeName="fill" to="#808080" begin="reset.mouseover" end="reset.mouseout"/>
                       </use>
               </g>
        </defs>

<script type="text/javascript">
var viewWidth = 613;
var viewHeight = 591;
var sectionId = 'dynsection-0';
</script>
<script xlink:href="svgpan.js"/>
<svg id="graph" class="graph">
<g id="viewport">
<title>/home/travis/build/AliceO2Group/AliceO2/Detectors/GlobalTracking</title>
<g id="clust1" class="cluster">
<title>clusterdir_051dca18e802f8e9474f2e30d29c04e0</title>
<g id="a_clust1"><a xlink:href="dir_051dca18e802f8e9474f2e30d29c04e0.html" target="_top" xlink:title="Detectors">
<polygon fill="#ddddee" stroke="#000000" points="221.1657,-416 221.1657,-575 414.1657,-575 414.1657,-416 221.1657,-416"/>
<text text-anchor="middle" x="317.6657" y="-563" font-family="Helvetica,sans-Serif" font-size="10.00" fill="#000000">Detectors</text>
</a>
</g>
</g>
<g id="clust2" class="cluster">
<title>clusterdir_18e0e8b4b629c3c13e7ad1457bcd5f89</title>
<g id="a_clust2"><a xlink:href="dir_18e0e8b4b629c3c13e7ad1457bcd5f89.html" target="_top">
<polygon fill="#eeeeff" stroke="#000000" points="229.1657,-424 229.1657,-548 406.1657,-548 406.1657,-424 229.1657,-424"/>
</a>
</g>
</g>
<!-- dir_18e0e8b4b629c3c13e7ad1457bcd5f89 -->
<g id="node1" class="node">
<title>dir_18e0e8b4b629c3c13e7ad1457bcd5f89</title>
<text text-anchor="middle" x="354.1657" y="-519.5" font-family="Helvetica,sans-Serif" font-size="10.00" fill="#000000">GlobalTracking</text>
</g>
<!-- dir_6c932510dcafb55c77509e6f7d0d452e -->
<g id="node2" class="node">
<title>dir_6c932510dcafb55c77509e6f7d0d452e</title>
<g id="a_node2"><a xlink:href="dir_6c932510dcafb55c77509e6f7d0d452e.html" target="_top" xlink:title="include">
<polygon fill="#ffffff" stroke="#ff0000" points="291.1657,-468 237.1657,-468 237.1657,-432 291.1657,-432 291.1657,-468"/>
<text text-anchor="middle" x="264.1657" y="-447.5" font-family="Helvetica,sans-Serif" font-size="10.00" fill="#000000">include</text>
</a>
</g>
</g>
<!-- dir_4ab6b4cc6a7edbff49100e9123df213f -->
<g id="node4" class="node">
<title>dir_4ab6b4cc6a7edbff49100e9123df213f</title>
<g id="a_node4"><a xlink:href="dir_4ab6b4cc6a7edbff49100e9123df213f.html" target="_top" xlink:title="Common">
<polygon fill="none" stroke="#ff0000" points="352.6657,-396 291.6657,-396 291.6657,-360 352.6657,-360 352.6657,-396"/>
<text text-anchor="middle" x="322.1657" y="-375.5" font-family="Helvetica,sans-Serif" font-size="10.00" fill="#000000">Common</text>
</a>
</g>
</g>
<!-- dir_6c932510dcafb55c77509e6f7d0d452e&#45;&gt;dir_4ab6b4cc6a7edbff49100e9123df213f -->
<g id="edge9" class="edge">
<title>dir_6c932510dcafb55c77509e6f7d0d452e&#45;&gt;dir_4ab6b4cc6a7edbff49100e9123df213f</title>
<path fill="none" stroke="#000000" d="M278.8015,-431.8314C285.4818,-423.5386 293.5225,-413.557 300.856,-404.4533"/>
<polygon fill="#000000" stroke="#000000" points="303.7851,-406.3965 307.3328,-396.4133 298.3338,-402.0052 303.7851,-406.3965"/>
<g id="a_edge9&#45;headlabel"><a xlink:href="dir_000445_000027.html" target="_top" xlink:title="5">
<text text-anchor="middle" x="303.7412" y="-408.4769" font-family="Helvetica,sans-Serif" font-size="10.00" fill="#000000">5</text>
</a>
</g>
</g>
<!-- dir_37c90836491b695b472bf98d1be8336b -->
<g id="node6" class="node">
<title>dir_37c90836491b695b472bf98d1be8336b</title>
<g id="a_node6"><a xlink:href="dir_37c90836491b695b472bf98d1be8336b.html" target="_top" xlink:title="Base">
<polygon fill="none" stroke="#ff0000" points="333.1657,-36 279.1657,-36 279.1657,0 333.1657,0 333.1657,-36"/>
<text text-anchor="middle" x="306.1657" y="-15.5" font-family="Helvetica,sans-Serif" font-size="10.00" fill="#000000">Base</text>
</a>
</g>
</g>
<!-- dir_6c932510dcafb55c77509e6f7d0d452e&#45;&gt;dir_37c90836491b695b472bf98d1be8336b -->
<g id="edge10" class="edge">
<title>dir_6c932510dcafb55c77509e6f7d0d452e&#45;&gt;dir_37c90836491b695b472bf98d1be8336b</title>
<path fill="none" stroke="#000000" d="M236.8547,-446.4383C185.9209,-439.2613 79.2292,-421.5372 53.1657,-396 -4.7651,-339.2391 10.677,-296.1362 23.1657,-216 33.715,-148.3077 25.4401,-115.7441 78.1657,-72 106.9747,-48.0984 212.2033,-30.6536 269.0815,-22.7354"/>
<polygon fill="#000000" stroke="#000000" points="269.6743,-26.187 279.1099,-21.3683 268.7288,-19.2512 269.6743,-26.187"/>
<g id="a_edge10&#45;headlabel"><a xlink:href="dir_000445_000273.html" target="_top" xlink:title="1">
<text text-anchor="middle" x="266.4961" y="-26.9857" font-family="Helvetica,sans-Serif" font-size="10.00" fill="#000000">1</text>
</a>
</g>
</g>
<!-- dir_1306292b77b40360479b729ac9ee7efe -->
<g id="node7" class="node">
<title>dir_1306292b77b40360479b729ac9ee7efe</title>
<g id="a_node7"><a xlink:href="dir_1306292b77b40360479b729ac9ee7efe.html" target="_top" xlink:title="ITSMFT">
<polygon fill="none" stroke="#ff0000" points="141.1657,-108 87.1657,-108 87.1657,-72 141.1657,-72 141.1657,-108"/>
<text text-anchor="middle" x="114.1657" y="-87.5" font-family="Helvetica,sans-Serif" font-size="10.00" fill="#000000">ITSMFT</text>
</a>
</g>
</g>
<!-- dir_6c932510dcafb55c77509e6f7d0d452e&#45;&gt;dir_1306292b77b40360479b729ac9ee7efe -->
<g id="edge11" class="edge">
<title>dir_6c932510dcafb55c77509e6f7d0d452e&#45;&gt;dir_1306292b77b40360479b729ac9ee7efe</title>
<path fill="none" stroke="#000000" d="M236.7842,-445.8244C176.4091,-434.9038 37.1657,-399.5742 37.1657,-306 37.1657,-306 37.1657,-306 37.1657,-234 37.1657,-188.5253 67.3967,-143.5023 89.9741,-116.2188"/>
<polygon fill="#000000" stroke="#000000" points="92.8673,-118.2201 96.6932,-108.3402 87.5411,-113.6778 92.8673,-118.2201"/>
<g id="a_edge11&#45;headlabel"><a xlink:href="dir_000445_000043.html" target="_top" xlink:title="1">
<text text-anchor="middle" x="92.6951" y="-120.2976" font-family="Helvetica,sans-Serif" font-size="10.00" fill="#000000">1</text>
</a>
</g>
</g>
<!-- dir_577c839d346a264df4e9e588ca2a45dd -->
<g id="node8" class="node">
<title>dir_577c839d346a264df4e9e588ca2a45dd</title>
<g id="a_node8"><a xlink:href="dir_577c839d346a264df4e9e588ca2a45dd.html" target="_top" xlink:title="TOF">
<polygon fill="none" stroke="#ff0000" points="476.1657,-468 422.1657,-468 422.1657,-432 476.1657,-432 476.1657,-468"/>
<text text-anchor="middle" x="449.1657" y="-447.5" font-family="Helvetica,sans-Serif" font-size="10.00" fill="#000000">TOF</text>
</a>
</g>
</g>
<!-- dir_6c932510dcafb55c77509e6f7d0d452e&#45;&gt;dir_577c839d346a264df4e9e588ca2a45dd -->
<g id="edge12" class="edge">
<title>dir_6c932510dcafb55c77509e6f7d0d452e&#45;&gt;dir_577c839d346a264df4e9e588ca2a45dd</title>
<path fill="none" stroke="#000000" d="M291.2653,-450C331.4471,-450 371.629,-450 411.8108,-450"/>
<polygon fill="#000000" stroke="#000000" points="412.0266,-453.5001 422.0265,-450 412.0265,-446.5001 412.0266,-453.5001"/>
<g id="a_edge12&#45;headlabel"><a xlink:href="dir_000445_000132.html" target="_top" xlink:title="1">
<text text-anchor="middle" x="408.4319" y="-453.8393" font-family="Helvetica,sans-Serif" font-size="10.00" fill="#000000">1</text>
</a>
</g>
</g>
<!-- dir_f511f1e9c03c071966ae594f00bbc5e0 -->
<g id="node9" class="node">
<title>dir_f511f1e9c03c071966ae594f00bbc5e0</title>
<g id="a_node9"><a xlink:href="dir_f511f1e9c03c071966ae594f00bbc5e0.html" target="_top" xlink:title="GPU">
<polygon fill="none" stroke="#ff0000" points="235.1657,-324 181.1657,-324 181.1657,-288 235.1657,-288 235.1657,-324"/>
<text text-anchor="middle" x="208.1657" y="-303.5" font-family="Helvetica,sans-Serif" font-size="10.00" fill="#000000">GPU</text>
</a>
</g>
</g>
<!-- dir_6c932510dcafb55c77509e6f7d0d452e&#45;&gt;dir_f511f1e9c03c071966ae594f00bbc5e0 -->
<g id="edge13" class="edge">
<title>dir_6c932510dcafb55c77509e6f7d0d452e&#45;&gt;dir_f511f1e9c03c071966ae594f00bbc5e0</title>
<path fill="none" stroke="#000000" d="M257.0732,-431.7623C247.4375,-406.9846 230.1268,-362.4714 218.8966,-333.5939"/>
<polygon fill="#000000" stroke="#000000" points="222.0871,-332.1411 215.2005,-324.0896 215.563,-334.6783 222.0871,-332.1411"/>
<g id="a_edge13&#45;headlabel"><a xlink:href="dir_000445_000667.html" target="_top" xlink:title="1">
<text text-anchor="middle" x="226.0361" y="-331.9622" font-family="Helvetica,sans-Serif" font-size="10.00" fill="#000000">1</text>
</a>
</g>
</g>
<!-- dir_2171f7ec022c5423887b07c69b2f5b48 -->
<g id="node10" class="node">
<title>dir_2171f7ec022c5423887b07c69b2f5b48</title>
<g id="a_node10"><a xlink:href="dir_2171f7ec022c5423887b07c69b2f5b48.html" target="_top" xlink:title="DataFormats">
<polygon fill="none" stroke="#ff0000" points="346.1657,-180 266.1657,-180 266.1657,-144 346.1657,-144 346.1657,-180"/>
<text text-anchor="middle" x="306.1657" y="-159.5" font-family="Helvetica,sans-Serif" font-size="10.00" fill="#000000">DataFormats</text>
</a>
</g>
</g>
<!-- dir_6c932510dcafb55c77509e6f7d0d452e&#45;&gt;dir_2171f7ec022c5423887b07c69b2f5b48 -->
<g id="edge14" class="edge">
<title>dir_6c932510dcafb55c77509e6f7d0d452e&#45;&gt;dir_2171f7ec022c5423887b07c69b2f5b48</title>
<path fill="none" stroke="#000000" d="M266.793,-431.9843C273.8936,-383.2939 293.5079,-248.7961 302.074,-190.0573"/>
<polygon fill="#000000" stroke="#000000" points="305.5596,-190.4093 303.5394,-180.0089 298.6329,-189.3991 305.5596,-190.4093"/>
<g id="a_edge14&#45;headlabel"><a xlink:href="dir_000445_000076.html" target="_top" xlink:title="23">
<text text-anchor="middle" x="307.8505" y="-191.876" font-family="Helvetica,sans-Serif" font-size="10.00" fill="#000000">23</text>
</a>
</g>
</g>
<!-- dir_a4cf5706394b5fe2435fe6f83bdb2959 -->
<g id="node3" class="node">
<title>dir_a4cf5706394b5fe2435fe6f83bdb2959</title>
<g id="a_node3"><a xlink:href="dir_a4cf5706394b5fe2435fe6f83bdb2959.html" target="_top" xlink:title="src">
<polygon fill="#ffffff" stroke="#000000" points="291.1657,-540 237.1657,-540 237.1657,-504 291.1657,-504 291.1657,-540"/>
<text text-anchor="middle" x="264.1657" y="-519.5" font-family="Helvetica,sans-Serif" font-size="10.00" fill="#000000">src</text>
</a>
</g>
</g>
<!-- dir_a4cf5706394b5fe2435fe6f83bdb2959&#45;&gt;dir_6c932510dcafb55c77509e6f7d0d452e -->
<g id="edge1" class="edge">
<title>dir_a4cf5706394b5fe2435fe6f83bdb2959&#45;&gt;dir_6c932510dcafb55c77509e6f7d0d452e</title>
<path fill="none" stroke="#000000" d="M264.1657,-503.8314C264.1657,-496.131 264.1657,-486.9743 264.1657,-478.4166"/>
<polygon fill="#000000" stroke="#000000" points="267.6658,-478.4132 264.1657,-468.4133 260.6658,-478.4133 267.6658,-478.4132"/>
<g id="a_edge1&#45;headlabel"><a xlink:href="dir_000447_000445.html" target="_top" xlink:title="4">
<text text-anchor="middle" x="270.5049" y="-479.5079" font-family="Helvetica,sans-Serif" font-size="10.00" fill="#000000">4</text>
</a>
</g>
</g>
<!-- dir_a4cf5706394b5fe2435fe6f83bdb2959&#45;&gt;dir_4ab6b4cc6a7edbff49100e9123df213f -->
<g id="edge2" class="edge">
<title>dir_a4cf5706394b5fe2435fe6f83bdb2959&#45;&gt;dir_4ab6b4cc6a7edbff49100e9123df213f</title>
<path fill="none" stroke="#000000" d="M278.5276,-503.9377C285.925,-493.8611 294.5469,-480.7919 300.1657,-468 308.8717,-448.1795 314.5043,-424.3244 317.8888,-406.155"/>
<polygon fill="#000000" stroke="#000000" points="321.3569,-406.6405 319.628,-396.1877 314.461,-405.4372 321.3569,-406.6405"/>
<g id="a_edge2&#45;headlabel"><a xlink:href="dir_000447_000027.html" target="_top" xlink:title="13">
<text text-anchor="middle" x="323.5361" y="-408.1696" font-family="Helvetica,sans-Serif" font-size="10.00" fill="#000000">13</text>
</a>
</g>
</g>
<!-- dir_a597e8e061b11201a1dff411feb10d0b -->
<g id="node5" class="node">
<title>dir_a597e8e061b11201a1dff411feb10d0b</title>
<g id="a_node5"><a xlink:href="dir_a597e8e061b11201a1dff411feb10d0b.html" target="_top" xlink:title="TPC">
<polygon fill="none" stroke="#ff0000" points="401.1657,-252 347.1657,-252 347.1657,-216 401.1657,-216 401.1657,-252"/>
<text text-anchor="middle" x="374.1657" y="-231.5" font-family="Helvetica,sans-Serif" font-size="10.00" fill="#000000">TPC</text>
</a>
</g>
</g>
<!-- dir_a4cf5706394b5fe2435fe6f83bdb2959&#45;&gt;dir_a597e8e061b11201a1dff411feb10d0b -->
<g id="edge3" class="edge">
<title>dir_a4cf5706394b5fe2435fe6f83bdb2959&#45;&gt;dir_a597e8e061b11201a1dff411feb10d0b</title>
<path fill="none" stroke="#000000" d="M291.3523,-507.4497C294.2812,-506.1718 297.2549,-504.9902 300.1657,-504 379.4667,-477.0216 431.8916,-532.6403 485.1657,-468 539.7267,-401.7982 451.3058,-304.2996 402.7216,-258.926"/>
<polygon fill="#000000" stroke="#000000" points="405.0267,-256.2909 395.2942,-252.1042 400.2916,-261.4464 405.0267,-256.2909"/>
<g id="a_edge3&#45;headlabel"><a xlink:href="dir_000447_000049.html" target="_top" xlink:title="4">
<text text-anchor="middle" x="409.5947" y="-254.1313" font-family="Helvetica,sans-Serif" font-size="10.00" fill="#000000">4</text>
</a>
</g>
</g>
<!-- dir_a4cf5706394b5fe2435fe6f83bdb2959&#45;&gt;dir_37c90836491b695b472bf98d1be8336b -->
<g id="edge4" class="edge">
<title>dir_a4cf5706394b5fe2435fe6f83bdb2959&#45;&gt;dir_37c90836491b695b472bf98d1be8336b</title>
<path fill="none" stroke="#000000" d="M291.3126,-507.329C294.2493,-506.0747 297.2356,-504.9316 300.1657,-504 400.8617,-471.9852 444.0461,-521.4964 535.1657,-468 578.8654,-442.3438 605.1657,-428.6745 605.1657,-378 605.1657,-378 605.1657,-378 605.1657,-162 605.1657,-104.3988 422.765,-48.931 342.8909,-27.4029"/>
<polygon fill="#000000" stroke="#000000" points="343.7912,-24.0207 333.2273,-24.8293 341.9898,-30.7849 343.7912,-24.0207"/>
<g id="a_edge4&#45;headlabel"><a xlink:href="dir_000447_000273.html" target="_top" xlink:title="3">
<text text-anchor="middle" x="347.9954" y="-19.702" font-family="Helvetica,sans-Serif" font-size="10.00" fill="#000000">3</text>
</a>
</g>
</g>
<!-- dir_a4cf5706394b5fe2435fe6f83bdb2959&#45;&gt;dir_1306292b77b40360479b729ac9ee7efe -->
<g id="edge5" class="edge">
<title>dir_a4cf5706394b5fe2435fe6f83bdb2959&#45;&gt;dir_1306292b77b40360479b729ac9ee7efe</title>
<path fill="none" stroke="#000000" d="M236.9901,-513.2986C191.8393,-497.4264 101.5595,-459.4338 53.1657,-396 -14.7937,-306.9202 -17.5073,-236.1924 46.1657,-144 54.714,-131.6228 66.9292,-120.6904 78.6541,-111.9569"/>
<polygon fill="#000000" stroke="#000000" points="80.9193,-114.641 87.0456,-105.9969 76.8659,-108.934 80.9193,-114.641"/>
<g id="a_edge5&#45;headlabel"><a xlink:href="dir_000447_000043.html" target="_top" xlink:title="1">
<text text-anchor="middle" x="79.6328" y="-116.5373" font-family="Helvetica,sans-Serif" font-size="10.00" fill="#000000">1</text>
</a>
</g>
</g>
<!-- dir_a4cf5706394b5fe2435fe6f83bdb2959&#45;&gt;dir_577c839d346a264df4e9e588ca2a45dd -->
<g id="edge6" class="edge">
<title>dir_a4cf5706394b5fe2435fe6f83bdb2959&#45;&gt;dir_577c839d346a264df4e9e588ca2a45dd</title>
<path fill="none" stroke="#000000" d="M291.4901,-507.8172C294.3922,-506.4676 297.3219,-505.1688 300.1657,-504 347.7441,-484.4445 362.2876,-486.81 410.1657,-468 411.0159,-467.666 411.8741,-467.3227 412.7375,-466.9718"/>
<polygon fill="#000000" stroke="#000000" points="414.2376,-470.1372 422.0648,-462.9968 411.4932,-463.6975 414.2376,-470.1372"/>
<g id="a_edge6&#45;headlabel"><a xlink:href="dir_000447_000132.html" target="_top" xlink:title="1">
<text text-anchor="middle" x="412.0439" y="-471.6583" font-family="Helvetica,sans-Serif" font-size="10.00" fill="#000000">1</text>
</a>
</g>
</g>
<!-- dir_a4cf5706394b5fe2435fe6f83bdb2959&#45;&gt;dir_f511f1e9c03c071966ae594f00bbc5e0 -->
<g id="edge7" class="edge">
<title>dir_a4cf5706394b5fe2435fe6f83bdb2959&#45;&gt;dir_f511f1e9c03c071966ae594f00bbc5e0</title>
<path fill="none" stroke="#000000" d="M248.8328,-503.6956C241.3494,-493.7552 232.9491,-480.887 228.1657,-468 211.5979,-423.3647 208.1622,-367.5419 207.7578,-334.4405"/>
<polygon fill="#000000" stroke="#000000" points="211.2568,-334.1226 207.7223,-324.1348 204.2569,-334.1469 211.2568,-334.1226"/>
<g id="a_edge7&#45;headlabel"><a xlink:href="dir_000447_000667.html" target="_top" xlink:title="1">
<text text-anchor="middle" x="214.1084" y="-335.2075" font-family="Helvetica,sans-Serif" font-size="10.00" fill="#000000">1</text>
</a>
</g>
</g>
<!-- dir_a4cf5706394b5fe2435fe6f83bdb2959&#45;&gt;dir_2171f7ec022c5423887b07c69b2f5b48 -->
<g id="edge8" class="edge">
<title>dir_a4cf5706394b5fe2435fe6f83bdb2959&#45;&gt;dir_2171f7ec022c5423887b07c69b2f5b48</title>
<path fill="none" stroke="#000000" d="M291.3322,-507.3897C294.2651,-506.1235 297.2451,-504.9611 300.1657,-504 388.8671,-474.81 447.0578,-539.4636 507.1657,-468 582.3023,-378.6683 518.4298,-295.7226 433.1657,-216 411.6904,-195.9205 381.6227,-182.6834 356.1342,-174.3426"/>
<polygon fill="#000000" stroke="#000000" points="356.8449,-170.8985 346.2568,-171.2754 354.769,-177.5836 356.8449,-170.8985"/>
<g id="a_edge8&#45;headlabel"><a xlink:href="dir_000447_000076.html" target="_top" xlink:title="8">
<text text-anchor="middle" x="361.1199" y="-166.7529" font-family="Helvetica,sans-Serif" font-size="10.00" fill="#000000">8</text>
</a>
</g>
</g>
<!-- dir_4ab6b4cc6a7edbff49100e9123df213f&#45;&gt;dir_f511f1e9c03c071966ae594f00bbc5e0 -->
<g id="edge15" class="edge">
<title>dir_4ab6b4cc6a7edbff49100e9123df213f&#45;&gt;dir_f511f1e9c03c071966ae594f00bbc5e0</title>
<path fill="none" stroke="#000000" d="M291.4486,-362.1993C275.2968,-352.6991 255.6307,-340.424 239.4112,-329.7705"/>
<polygon fill="#000000" stroke="#000000" points="241.0648,-326.6671 230.7991,-324.0467 237.1901,-332.4969 241.0648,-326.6671"/>
<g id="a_edge15&#45;headlabel"><a xlink:href="dir_000027_000667.html" target="_top" xlink:title="3">
<text text-anchor="middle" x="245.6301" y="-323.7922" font-family="Helvetica,sans-Serif" font-size="10.00" fill="#000000">3</text>
</a>
</g>
</g>
<!-- dir_4ab6b4cc6a7edbff49100e9123df213f&#45;&gt;dir_2171f7ec022c5423887b07c69b2f5b48 -->
<g id="edge16" class="edge">
<title>dir_4ab6b4cc6a7edbff49100e9123df213f&#45;&gt;dir_2171f7ec022c5423887b07c69b2f5b48</title>
<path fill="none" stroke="#000000" d="M316.8831,-359.9555C310.6496,-322.3938 303.9516,-235.5541 303.5277,-190.4103"/>
<polygon fill="#000000" stroke="#000000" points="307.0283,-190.1542 303.5546,-180.1451 300.0283,-190.1358 307.0283,-190.1542"/>
<g id="a_edge16&#45;headlabel"><a xlink:href="dir_000027_000076.html" target="_top" xlink:title="2">
<text text-anchor="middle" x="309.8582" y="-191.2563" font-family="Helvetica,sans-Serif" font-size="10.00" fill="#000000">2</text>
</a>
</g>
</g>
<!-- dir_a597e8e061b11201a1dff411feb10d0b&#45;&gt;dir_4ab6b4cc6a7edbff49100e9123df213f -->
<g id="edge17" class="edge">
<title>dir_a597e8e061b11201a1dff411feb10d0b&#45;&gt;dir_4ab6b4cc6a7edbff49100e9123df213f</title>
<path fill="none" stroke="#000000" d="M367.6333,-252.0896C358.7143,-276.7884 342.6431,-321.2933 332.1926,-350.2331"/>
<polygon fill="#000000" stroke="#000000" points="328.8561,-349.168 328.7515,-359.7623 335.44,-351.5455 328.8561,-349.168"/>
<g id="a_edge17&#45;headlabel"><a xlink:href="dir_000049_000027.html" target="_top" xlink:title="38">
<text text-anchor="middle" x="327.4064" y="-342.3227" font-family="Helvetica,sans-Serif" font-size="10.00" fill="#000000">38</text>
</a>
</g>
</g>
<!-- dir_a597e8e061b11201a1dff411feb10d0b&#45;&gt;dir_37c90836491b695b472bf98d1be8336b -->
<g id="edge18" class="edge">
<title>dir_a597e8e061b11201a1dff411feb10d0b&#45;&gt;dir_37c90836491b695b472bf98d1be8336b</title>
<path fill="none" stroke="#000000" d="M371.1049,-215.891C367.8336,-197.5875 362.1605,-168.5749 355.1657,-144 345.8518,-111.2772 341.6144,-103.6632 329.1657,-72 325.7891,-63.4117 321.9231,-54.1419 318.3366,-45.7475"/>
<polygon fill="#000000" stroke="#000000" points="321.4746,-44.1854 314.3008,-36.3888 315.0468,-46.9573 321.4746,-44.1854"/>
<g id="a_edge18&#45;headlabel"><a xlink:href="dir_000049_000273.html" target="_top" xlink:title="3">
<text text-anchor="middle" x="325.5051" y="-43.8619" font-family="Helvetica,sans-Serif" font-size="10.00" fill="#000000">3</text>
</a>
</g>
</g>
<!-- dir_a597e8e061b11201a1dff411feb10d0b&#45;&gt;dir_f511f1e9c03c071966ae594f00bbc5e0 -->
<g id="edge19" class="edge">
<title>dir_a597e8e061b11201a1dff411feb10d0b&#45;&gt;dir_f511f1e9c03c071966ae594f00bbc5e0</title>
<path fill="none" stroke="#000000" d="M347.0817,-248.1289C319.2069,-260.9577 275.8481,-279.7533 244.9135,-292.4111"/>
<polygon fill="#000000" stroke="#000000" points="243.2952,-289.2903 235.3417,-296.2898 245.9242,-295.7779 243.2952,-289.2903"/>
<g id="a_edge19&#45;headlabel"><a xlink:href="dir_000049_000667.html" target="_top" xlink:title="23">
<text text-anchor="middle" x="245.5604" y="-282.809" font-family="Helvetica,sans-Serif" font-size="10.00" fill="#000000">23</text>
</a>
</g>
</g>
<!-- dir_a597e8e061b11201a1dff411feb10d0b&#45;&gt;dir_2171f7ec022c5423887b07c69b2f5b48 -->
<g id="edge20" class="edge">
<title>dir_a597e8e061b11201a1dff411feb10d0b&#45;&gt;dir_2171f7ec022c5423887b07c69b2f5b48</title>
<path fill="none" stroke="#000000" d="M357.0064,-215.8314C349.0145,-207.3694 339.3619,-197.1489 330.624,-187.8971"/>
<polygon fill="#000000" stroke="#000000" points="332.9668,-185.2802 323.556,-180.4133 327.8777,-190.0866 332.9668,-185.2802"/>
<g id="a_edge20&#45;headlabel"><a xlink:href="dir_000049_000076.html" target="_top" xlink:title="148">
<text text-anchor="middle" x="337.4991" y="-183.444" font-family="Helvetica,sans-Serif" font-size="10.00" fill="#000000">148</text>
</a>
</g>
</g>
<!-- dir_37c90836491b695b472bf98d1be8336b&#45;&gt;dir_4ab6b4cc6a7edbff49100e9123df213f -->
<g id="edge21" class="edge">
<title>dir_37c90836491b695b472bf98d1be8336b&#45;&gt;dir_4ab6b4cc6a7edbff49100e9123df213f</title>
<path fill="none" stroke="#000000" d="M323.9359,-36.4121C332.9082,-46.382 343.4881,-59.244 351.1657,-72 386.8318,-131.2582 396.8028,-148.1396 410.1657,-216 420.3143,-267.5375 392.3762,-281.0298 362.1657,-324 355.8246,-333.0192 348.7145,-342.738 342.2671,-351.4109"/>
<polygon fill="#000000" stroke="#000000" points="339.277,-349.5652 336.0936,-359.6705 344.8839,-353.756 339.277,-349.5652"/>
<g id="a_edge21&#45;headlabel"><a xlink:href="dir_000273_000027.html" target="_top" xlink:title="16">
<text text-anchor="middle" x="339.1548" y="-342.4862" font-family="Helvetica,sans-Serif" font-size="10.00" fill="#000000">16</text>
</a>
</g>
</g>
<!-- dir_37c90836491b695b472bf98d1be8336b&#45;&gt;dir_f511f1e9c03c071966ae594f00bbc5e0 -->
<g id="edge22" class="edge">
<title>dir_37c90836491b695b472bf98d1be8336b&#45;&gt;dir_f511f1e9c03c071966ae594f00bbc5e0</title>
<path fill="none" stroke="#000000" d="M297.3007,-36.1158C280.8384,-70.4339 245.3861,-147.6177 225.1657,-216 219.1631,-236.2997 214.8063,-259.8248 212.0068,-277.7312"/>
<polygon fill="#000000" stroke="#000000" points="208.5162,-277.409 210.501,-287.8163 215.4395,-278.4428 208.5162,-277.409"/>
<g id="a_edge22&#45;headlabel"><a xlink:href="dir_000273_000667.html" target="_top" xlink:title="14">
<text text-anchor="middle" x="206.2388" y="-270.9346" font-family="Helvetica,sans-Serif" font-size="10.00" fill="#000000">14</text>
</a>
</g>
</g>
<!-- dir_37c90836491b695b472bf98d1be8336b&#45;&gt;dir_2171f7ec022c5423887b07c69b2f5b48 -->
<g id="edge23" class="edge">
<title>dir_37c90836491b695b472bf98d1be8336b&#45;&gt;dir_2171f7ec022c5423887b07c69b2f5b48</title>
<path fill="none" stroke="#000000" d="M310.824,-36.0896C313.2926,-60.5727 313.5761,-104.5174 311.6746,-133.4713"/>
<polygon fill="#000000" stroke="#000000" points="308.1599,-133.5118 310.8388,-143.7623 315.1369,-134.0785 308.1599,-133.5118"/>
<g id="a_edge23&#45;headlabel"><a xlink:href="dir_000273_000076.html" target="_top" xlink:title="10">
<text text-anchor="middle" x="305.6208" y="-127.1992" font-family="Helvetica,sans-Serif" font-size="10.00" fill="#000000">10</text>
</a>
</g>
</g>
<!-- dir_1306292b77b40360479b729ac9ee7efe&#45;&gt;dir_4ab6b4cc6a7edbff49100e9123df213f -->
<g id="edge24" class="edge">
<title>dir_1306292b77b40360479b729ac9ee7efe&#45;&gt;dir_4ab6b4cc6a7edbff49100e9123df213f</title>
<path fill="none" stroke="#000000" d="M112.4329,-108.0667C109.2763,-152.5142 108.021,-267.6468 172.1657,-324 203.0302,-351.1155 248.5324,-364.9411 281.321,-371.7724"/>
<polygon fill="#000000" stroke="#000000" points="281.0005,-375.2757 291.4853,-373.7525 282.3391,-368.4048 281.0005,-375.2757"/>
<g id="a_edge24&#45;headlabel"><a xlink:href="dir_000043_000027.html" target="_top" xlink:title="79">
<text text-anchor="middle" x="276.9293" y="-374.8753" font-family="Helvetica,sans-Serif" font-size="10.00" fill="#000000">79</text>
</a>
</g>
</g>
<!-- dir_1306292b77b40360479b729ac9ee7efe&#45;&gt;dir_37c90836491b695b472bf98d1be8336b -->
<g id="edge25" class="edge">
<title>dir_1306292b77b40360479b729ac9ee7efe&#45;&gt;dir_37c90836491b695b472bf98d1be8336b</title>
<path fill="none" stroke="#000000" d="M141.4002,-77.7249C145.9731,-75.7556 150.6872,-73.7813 155.1657,-72 193.632,-56.7 238.355,-40.9559 269.0897,-30.4452"/>
<polygon fill="#000000" stroke="#000000" points="270.6086,-33.6254 278.9472,-27.0895 268.3528,-26.9988 270.6086,-33.6254"/>
<g id="a_edge25&#45;headlabel"><a xlink:href="dir_000043_000273.html" target="_top" xlink:title="23">
<text text-anchor="middle" x="268.1207" y="-34.9715" font-family="Helvetica,sans-Serif" font-size="10.00" fill="#000000">23</text>
</a>
</g>
</g>
<!-- dir_1306292b77b40360479b729ac9ee7efe&#45;&gt;dir_f511f1e9c03c071966ae594f00bbc5e0 -->
<g id="edge26" class="edge">
<title>dir_1306292b77b40360479b729ac9ee7efe&#45;&gt;dir_f511f1e9c03c071966ae594f00bbc5e0</title>
<path fill="none" stroke="#000000" d="M121.0871,-108.1536C127.8592,-139.372 137.4459,-204.4511 164.1657,-252 169.9795,-262.346 178.2906,-272.1149 186.2168,-280.4256"/>
<polygon fill="#000000" stroke="#000000" points="183.7943,-282.9538 193.305,-287.6226 188.7816,-278.0419 183.7943,-282.9538"/>
<g id="a_edge26&#45;headlabel"><a xlink:href="dir_000043_000667.html" target="_top" xlink:title="34">
<text text-anchor="middle" x="179.2491" y="-279.8851" font-family="Helvetica,sans-Serif" font-size="10.00" fill="#000000">34</text>
</a>
</g>
</g>
<!-- dir_1306292b77b40360479b729ac9ee7efe&#45;&gt;dir_2171f7ec022c5423887b07c69b2f5b48 -->
<g id="edge27" class="edge">
<title>dir_1306292b77b40360479b729ac9ee7efe&#45;&gt;dir_2171f7ec022c5423887b07c69b2f5b48</title>
<path fill="none" stroke="#000000" d="M141.3944,-98.5057C171.3393,-108.9079 219.8126,-126.8793 256.5036,-141.0534"/>
<polygon fill="#000000" stroke="#000000" points="255.4472,-144.3978 266.0361,-144.7542 257.9807,-137.8723 255.4472,-144.3978"/>
<g id="a_edge27&#45;headlabel"><a xlink:href="dir_000043_000076.html" target="_top" xlink:title="242">
<text text-anchor="middle" x="251.0687" y="-143.2437" font-family="Helvetica,sans-Serif" font-size="10.00" fill="#000000">242</text>
</a>
</g>
</g>
<!-- dir_577c839d346a264df4e9e588ca2a45dd&#45;&gt;dir_4ab6b4cc6a7edbff49100e9123df213f -->
<g id="edge28" class="edge">
<title>dir_577c839d346a264df4e9e588ca2a45dd&#45;&gt;dir_4ab6b4cc6a7edbff49100e9123df213f</title>
<path fill="none" stroke="#000000" d="M430.6607,-431.7941C424.4649,-426.2816 417.3092,-420.5017 410.1657,-416 395.3586,-406.6688 377.8653,-398.591 362.392,-392.3117"/>
<polygon fill="#000000" stroke="#000000" points="363.6479,-389.0447 353.0608,-388.6392 361.0842,-395.5584 363.6479,-389.0447"/>
<g id="a_edge28&#45;headlabel"><a xlink:href="dir_000132_000027.html" target="_top" xlink:title="14">
<text text-anchor="middle" x="368.0325" y="-385.219" font-family="Helvetica,sans-Serif" font-size="10.00" fill="#000000">14</text>
</a>
</g>
</g>
<!-- dir_577c839d346a264df4e9e588ca2a45dd&#45;&gt;dir_37c90836491b695b472bf98d1be8336b -->
<g id="edge29" class="edge">
<title>dir_577c839d346a264df4e9e588ca2a45dd&#45;&gt;dir_37c90836491b695b472bf98d1be8336b</title>
<path fill="none" stroke="#000000" d="M456.4095,-431.8366C460.1368,-421.513 464.2845,-408.2403 466.1657,-396 473.4724,-348.4575 469.3081,-335.0193 459.1657,-288 437.4803,-187.4687 440.6289,-152.1329 376.1657,-72 366.4729,-59.9511 353.5674,-49.0221 341.4792,-40.1979"/>
<polygon fill="#000000" stroke="#000000" points="343.4833,-37.3284 333.2906,-34.4371 339.4556,-43.0536 343.4833,-37.3284"/>
<g id="a_edge29&#45;headlabel"><a xlink:href="dir_000132_000273.html" target="_top" xlink:title="4">
<text text-anchor="middle" x="348.0569" y="-34.5745" font-family="Helvetica,sans-Serif" font-size="10.00" fill="#000000">4</text>
</a>
</g>
</g>
<!-- dir_577c839d346a264df4e9e588ca2a45dd&#45;&gt;dir_2171f7ec022c5423887b07c69b2f5b48 -->
<g id="edge30" class="edge">
<title>dir_577c839d346a264df4e9e588ca2a45dd&#45;&gt;dir_2171f7ec022c5423887b07c69b2f5b48</title>
<path fill="none" stroke="#000000" d="M451.2498,-431.8267C455.1028,-389.5551 458.9583,-283.1295 410.1657,-216 396.9568,-197.827 375.7916,-185.2843 355.9922,-176.8961"/>
<polygon fill="#000000" stroke="#000000" points="357.0093,-173.5344 346.4231,-173.1054 354.4312,-180.0423 357.0093,-173.5344"/>
<g id="a_edge30&#45;headlabel"><a xlink:href="dir_000132_000076.html" target="_top" xlink:title="59">
<text text-anchor="middle" x="361.3968" y="-169.7184" font-family="Helvetica,sans-Serif" font-size="10.00" fill="#000000">59</text>
</a>
</g>
</g>
<!-- dir_f511f1e9c03c071966ae594f00bbc5e0&#45;&gt;dir_4ab6b4cc6a7edbff49100e9123df213f -->
<g id="edge31" class="edge">
<title>dir_f511f1e9c03c071966ae594f00bbc5e0&#45;&gt;dir_4ab6b4cc6a7edbff49100e9123df213f</title>
<path fill="none" stroke="#000000" d="M235.5399,-319.845C252.1877,-329.5296 273.3789,-342.7142 290.6942,-354.0811"/>
<polygon fill="#000000" stroke="#000000" points="289.0847,-357.2137 299.351,-359.8314 292.9578,-351.3828 289.0847,-357.2137"/>
<g id="a_edge31&#45;headlabel"><a xlink:href="dir_000667_000027.html" target="_top" xlink:title="2">
<text text-anchor="middle" x="284.5195" y="-355.0899" font-family="Helvetica,sans-Serif" font-size="10.00" fill="#000000">2</text>
</a>
</g>
</g>
<!-- dir_f511f1e9c03c071966ae594f00bbc5e0&#45;&gt;dir_a597e8e061b11201a1dff411feb10d0b -->
<g id="edge32" class="edge">
<title>dir_f511f1e9c03c071966ae594f00bbc5e0&#45;&gt;dir_a597e8e061b11201a1dff411feb10d0b</title>
<path fill="none" stroke="#000000" d="M235.4582,-291.7751C263.3528,-278.943 306.599,-260.1983 337.4594,-247.5719"/>
<polygon fill="#000000" stroke="#000000" points="339.0549,-250.7019 347.0086,-243.7026 336.4261,-244.2142 339.0549,-250.7019"/>
<g id="a_edge32&#45;headlabel"><a xlink:href="dir_000667_000049.html" target="_top" xlink:title="3">
<text text-anchor="middle" x="336.7896" y="-252.1832" font-family="Helvetica,sans-Serif" font-size="10.00" fill="#000000">3</text>
</a>
</g>
</g>
<!-- dir_f511f1e9c03c071966ae594f00bbc5e0&#45;&gt;dir_1306292b77b40360479b729ac9ee7efe -->
<g id="edge33" class="edge">
<title>dir_f511f1e9c03c071966ae594f00bbc5e0&#45;&gt;dir_1306292b77b40360479b729ac9ee7efe</title>
<path fill="none" stroke="#000000" d="M181.1202,-290.905C168.4858,-281.0009 154.6602,-267.1164 146.1657,-252 122.0552,-209.0946 111.895,-151.9156 110.4027,-118.2205"/>
<polygon fill="#000000" stroke="#000000" points="113.9009,-118.087 110.216,-108.1536 106.9021,-118.2168 113.9009,-118.087"/>
<g id="a_edge33&#45;headlabel"><a xlink:href="dir_000667_000043.html" target="_top" xlink:title="7">
<text text-anchor="middle" x="116.8062" y="-119.1284" font-family="Helvetica,sans-Serif" font-size="10.00" fill="#000000">7</text>
</a>
</g>
</g>
<!-- dir_f511f1e9c03c071966ae594f00bbc5e0&#45;&gt;dir_2171f7ec022c5423887b07c69b2f5b48 -->
<g id="edge34" class="edge">
<title>dir_f511f1e9c03c071966ae594f00bbc5e0&#45;&gt;dir_2171f7ec022c5423887b07c69b2f5b48</title>
<path fill="none" stroke="#000000" d="M207.434,-287.6651C211.8794,-268.6663 224.0053,-238.6392 240.1657,-216 247.7272,-205.407 257.5769,-195.2043 267.4232,-186.5741"/>
<polygon fill="#000000" stroke="#000000" points="269.846,-189.1107 275.2752,-180.0127 265.3574,-183.7393 269.846,-189.1107"/>
<g id="a_edge34&#45;headlabel"><a xlink:href="dir_000667_000076.html" target="_top" xlink:title="12">
<text text-anchor="middle" x="268.9083" y="-191.0944" font-family="Helvetica,sans-Serif" font-size="10.00" fill="#000000">12</text>
</a>
</g>
</g>
<!-- dir_2171f7ec022c5423887b07c69b2f5b48&#45;&gt;dir_4ab6b4cc6a7edbff49100e9123df213f -->
<g id="edge35" class="edge">
<title>dir_2171f7ec022c5423887b07c69b2f5b48&#45;&gt;dir_4ab6b4cc6a7edbff49100e9123df213f</title>
<path fill="none" stroke="#000000" d="M311.4649,-180.1451C317.6992,-217.7945 324.3921,-304.6409 324.8047,-349.7103"/>
<polygon fill="#000000" stroke="#000000" points="321.3041,-349.9453 324.7749,-359.9555 328.3041,-349.9657 321.3041,-349.9453"/>
<g id="a_edge35&#45;headlabel"><a xlink:href="dir_000076_000027.html" target="_top" xlink:title="34">
<text text-anchor="middle" x="318.4752" y="-343.8425" font-family="Helvetica,sans-Serif" font-size="10.00" fill="#000000">34</text>
</a>
</g>
</g>
<!-- dir_2171f7ec022c5423887b07c69b2f5b48&#45;&gt;dir_37c90836491b695b472bf98d1be8336b -->
<g id="edge36" class="edge">
<title>dir_2171f7ec022c5423887b07c69b2f5b48&#45;&gt;dir_37c90836491b695b472bf98d1be8336b</title>
<path fill="none" stroke="#000000" d="M301.4925,-143.7623C299.0327,-119.201 298.7579,-75.2474 300.6682,-46.3541"/>
<polygon fill="#000000" stroke="#000000" points="304.1809,-46.3416 301.5074,-36.0896 297.2041,-45.7712 304.1809,-46.3416"/>
<g id="a_edge36&#45;headlabel"><a xlink:href="dir_000076_000273.html" target="_top" xlink:title="1">
<text text-anchor="middle" x="306.7179" y="-47.6556" font-family="Helvetica,sans-Serif" font-size="10.00" fill="#000000">1</text>
</a>
</g>
</g>
<!-- dir_2171f7ec022c5423887b07c69b2f5b48&#45;&gt;dir_1306292b77b40360479b729ac9ee7efe -->
<g id="edge37" class="edge">
<title>dir_2171f7ec022c5423887b07c69b2f5b48&#45;&gt;dir_1306292b77b40360479b729ac9ee7efe</title>
<path fill="none" stroke="#000000" d="M266.0558,-148.9613C232.0907,-136.8788 183.952,-118.8737 150.9603,-105.9413"/>
<polygon fill="#000000" stroke="#000000" points="151.8268,-102.5206 141.2402,-102.1029 149.2556,-109.0313 151.8268,-102.5206"/>
<g id="a_edge37&#45;headlabel"><a xlink:href="dir_000076_000043.html" target="_top" xlink:title="1">
<text text-anchor="middle" x="156.213" y="-98.7" font-family="Helvetica,sans-Serif" font-size="10.00" fill="#000000">1</text>
</a>
</g>
</g>
<!-- dir_2171f7ec022c5423887b07c69b2f5b48&#45;&gt;dir_f511f1e9c03c071966ae594f00bbc5e0 -->
<g id="edge38" class="edge">
<title>dir_2171f7ec022c5423887b07c69b2f5b48&#45;&gt;dir_f511f1e9c03c071966ae594f00bbc5e0</title>
<path fill="none" stroke="#000000" d="M291.3745,-180.0127C281.0066,-189.7772 267.7486,-202.5752 258.1657,-216 244.4041,-235.2787 233.5682,-259.9148 225.0926,-278.536"/>
<polygon fill="#000000" stroke="#000000" points="221.8916,-277.1194 220.8726,-287.6651 228.2456,-280.0566 221.8916,-277.1194"/>
<g id="a_edge38&#45;headlabel"><a xlink:href="dir_000076_000667.html" target="_top" xlink:title="15">
<text text-anchor="middle" x="220.8226" y="-270.1652" font-family="Helvetica,sans-Serif" font-size="10.00" fill="#000000">15</text>
</a>
</g>
</g>
</g>
</svg>
        <g id="navigator" transform="translate(0 0)" fill="#404254">
                <rect fill="#f2f5e9" fill-opacity="0.5" stroke="#606060" stroke-width=".5" x="0" y="0" width="60" height="60"/>
                <use id="zoomplus" xlink:href="#zoomPlus" x="17" y="9" onmousedown="handleZoom(evt,'in')"/>
                <use id="zoomminus" xlink:href="#zoomMin" x="42" y="9" onmousedown="handleZoom(evt,'out')"/>
                <use id="reset" xlink:href="#resetDef" x="30" y="36" onmousedown="handleReset()"/>
                <g id="arrowUp" xlink:href="#dirArrow" transform="translate(30 24)" onmousedown="handlePan(0,-1)">
                  <use xlink:href="#rim" fill="#404040">
                        <set attributeName="fill" to="#808080" begin="arrowUp.mouseover" end="arrowUp.mouseout"/>
                  </use>
                  <path fill="none" stroke="white" stroke-width="1.5" d="M0,-3.0v7 M-2.5,-0.5L0,-3.0L2.5,-0.5"/>
                </g>
                <g id="arrowRight" xlink:href="#dirArrow" transform="rotate(90) translate(36 -43)" onmousedown="handlePan(1,0)">
                  <use xlink:href="#rim" fill="#404040">
                        <set attributeName="fill" to="#808080" begin="arrowRight.mouseover" end="arrowRight.mouseout"/>
                  </use>
                  <path fill="none" stroke="white" stroke-width="1.5" d="M0,-3.0v7 M-2.5,-0.5L0,-3.0L2.5,-0.5"/>
                </g>
                <g id="arrowDown" xlink:href="#dirArrow" transform="rotate(180) translate(-30 -48)" onmousedown="handlePan(0,1)">
                  <use xlink:href="#rim" fill="#404040">
                        <set attributeName="fill" to="#808080" begin="arrowDown.mouseover" end="arrowDown.mouseout"/>
                  </use>
                  <path fill="none" stroke="white" stroke-width="1.5" d="M0,-3.0v7 M-2.5,-0.5L0,-3.0L2.5,-0.5"/>
                </g>
                <g id="arrowLeft" xlink:href="#dirArrow" transform="rotate(270) translate(-36 17)" onmousedown="handlePan(-1,0)">
                  <use xlink:href="#rim" fill="#404040">
                        <set attributeName="fill" to="#808080" begin="arrowLeft.mouseover" end="arrowLeft.mouseout"/>
                  </use>
                  <path fill="none" stroke="white" stroke-width="1.5" d="M0,-3.0v7 M-2.5,-0.5L0,-3.0L2.5,-0.5"/>
                </g>
        </g>
        <svg viewBox="0 0 15 15" width="100%" height="30px" preserveAspectRatio="xMaxYMin meet">
         <g id="arrow_out" transform="scale(0.3 0.3)">
          <a xlink:href="dir_18e0e8b4b629c3c13e7ad1457bcd5f89_dep_org.svg" target="_base">
           <rect id="button" ry="5" rx="5" y="6" x="6" height="38" width="38"
                fill="#f2f5e9" fill-opacity="0.5" stroke="#606060" stroke-width="1.0"/>
           <path id="arrow"
             d="M 11.500037,31.436501 C 11.940474,20.09759 22.043105,11.32322 32.158766,21.979434 L 37.068811,17.246167 C 37.068811,17.246167 37.088388,32 37.088388,32 L 22.160133,31.978069 C 22.160133,31.978069 26.997745,27.140456 26.997745,27.140456 C 18.528582,18.264221 13.291696,25.230495 11.500037,31.436501 z"
             style="fill:#404040;"/>
          </a>
         </g>
        </svg>
</svg>
