<?xml version="1.0" encoding="UTF-8" standalone="no"?>
<!DOCTYPE svg PUBLIC "-//W3C//DTD SVG 1.1//EN"
 "http://www.w3.org/Graphics/SVG/1.1/DTD/svg11.dtd">
<!-- Generated by graphviz version 2.40.1 (20161225.0304)
 -->
<!-- Title: /home/travis/build/AliceO2Group/AliceO2/Detectors/TPC/base Pages: 1 -->
<svg width="415pt" height="519pt"
 viewBox="0.00 0.00 415.00 519.00" xmlns="http://www.w3.org/2000/svg" xmlns:xlink="http://www.w3.org/1999/xlink">
<g id="graph0" class="graph" transform="scale(1 1) rotate(0) translate(4 515)">
<title>/home/travis/build/AliceO2Group/AliceO2/Detectors/TPC/base</title>
<g id="clust1" class="cluster">
<title>clusterdir_a597e8e061b11201a1dff411feb10d0b</title>
<g id="a_clust1"><a xlink:href="dir_a597e8e061b11201a1dff411feb10d0b.html" target="_top" xlink:title="TPC">
<polygon fill="#ddddee" stroke="#000000" points="169,-344 169,-503 399,-503 399,-344 169,-344"/>
<text text-anchor="middle" x="284" y="-491" font-family="Helvetica,sans-Serif" font-size="10.00" fill="#000000">TPC</text>
</a>
</g>
</g>
<g id="clust2" class="cluster">
<title>clusterdir_677b030cc750909e4cd27413873678d8</title>
<g id="a_clust2"><a xlink:href="dir_677b030cc750909e4cd27413873678d8.html" target="_top">
<polygon fill="#eeeeff" stroke="#000000" points="177,-352 177,-476 391,-476 391,-352 177,-352"/>
</a>
</g>
</g>
<!-- dir_677b030cc750909e4cd27413873678d8 -->
<g id="node1" class="node">
<title>dir_677b030cc750909e4cd27413873678d8</title>
<text text-anchor="middle" x="356" y="-447.5" font-family="Helvetica,sans-Serif" font-size="10.00" fill="#000000">base</text>
</g>
<!-- dir_8878d5c3559bc3ebfb711a18a96e91b8 -->
<g id="node2" class="node">
<title>dir_8878d5c3559bc3ebfb711a18a96e91b8</title>
<g id="a_node2"><a xlink:href="dir_8878d5c3559bc3ebfb711a18a96e91b8.html" target="_top" xlink:title="include">
<polygon fill="#ffffff" stroke="#ff0000" points="255,-396 201,-396 201,-360 255,-360 255,-396"/>
<text text-anchor="middle" x="228" y="-375.5" font-family="Helvetica,sans-Serif" font-size="10.00" fill="#000000">include</text>
</a>
</g>
</g>
<!-- dir_4ab6b4cc6a7edbff49100e9123df213f -->
<g id="node5" class="node">
<title>dir_4ab6b4cc6a7edbff49100e9123df213f</title>
<g id="a_node5"><a xlink:href="dir_4ab6b4cc6a7edbff49100e9123df213f.html" target="_top" xlink:title="Common">
<polygon fill="none" stroke="#ff0000" points="151.5,-324 90.5,-324 90.5,-288 151.5,-288 151.5,-324"/>
<text text-anchor="middle" x="121" y="-303.5" font-family="Helvetica,sans-Serif" font-size="10.00" fill="#000000">Common</text>
</a>
</g>
</g>
<!-- dir_8878d5c3559bc3ebfb711a18a96e91b8&#45;&gt;dir_4ab6b4cc6a7edbff49100e9123df213f -->
<g id="edge4" class="edge">
<title>dir_8878d5c3559bc3ebfb711a18a96e91b8&#45;&gt;dir_4ab6b4cc6a7edbff49100e9123df213f</title>
<path fill="none" stroke="#000000" d="M207.6806,-359.995C201.2458,-354.6119 193.9858,-348.8552 187,-344 178.6129,-338.1709 169.2777,-332.3995 160.3303,-327.1818"/>
<polygon fill="#000000" stroke="#000000" points="161.98,-324.0934 151.5617,-322.1671 158.5048,-330.1699 161.98,-324.0934"/>
<g id="a_edge4&#45;headlabel"><a xlink:href="dir_000051_000027.html" target="_top" xlink:title="8">
<text text-anchor="middle" x="166.5099" y="-320.9132" font-family="Helvetica,sans-Serif" font-size="10.00" fill="#000000">8</text>
</a>
</g>
</g>
<!-- dir_6af676bf18881990e4083e191d0e63e0 -->
<g id="node6" class="node">
<title>dir_6af676bf18881990e4083e191d0e63e0</title>
<g id="a_node6"><a xlink:href="dir_6af676bf18881990e4083e191d0e63e0.html" target="_top" xlink:title="CCDB">
<polygon fill="none" stroke="#ff0000" points="145,-396 91,-396 91,-360 145,-360 145,-396"/>
<text text-anchor="middle" x="118" y="-375.5" font-family="Helvetica,sans-Serif" font-size="10.00" fill="#000000">CCDB</text>
</a>
</g>
</g>
<!-- dir_8878d5c3559bc3ebfb711a18a96e91b8&#45;&gt;dir_6af676bf18881990e4083e191d0e63e0 -->
<g id="edge5" class="edge">
<title>dir_8878d5c3559bc3ebfb711a18a96e91b8&#45;&gt;dir_6af676bf18881990e4083e191d0e63e0</title>
<path fill="none" stroke="#000000" d="M200.7887,-378C185.5532,-378 170.3177,-378 155.0822,-378"/>
<polygon fill="#000000" stroke="#000000" points="155.0703,-374.5001 145.0703,-378 155.0703,-381.5001 155.0703,-374.5001"/>
<g id="a_edge5&#45;headlabel"><a xlink:href="dir_000051_000019.html" target="_top" xlink:title="2">
<text text-anchor="middle" x="158.6649" y="-369.1607" font-family="Helvetica,sans-Serif" font-size="10.00" fill="#000000">2</text>
</a>
</g>
</g>
<!-- dir_f511f1e9c03c071966ae594f00bbc5e0 -->
<g id="node7" class="node">
<title>dir_f511f1e9c03c071966ae594f00bbc5e0</title>
<g id="a_node7"><a xlink:href="dir_f511f1e9c03c071966ae594f00bbc5e0.html" target="_top" xlink:title="GPU">
<polygon fill="none" stroke="#ff0000" points="270,-252 216,-252 216,-216 270,-216 270,-252"/>
<text text-anchor="middle" x="243" y="-231.5" font-family="Helvetica,sans-Serif" font-size="10.00" fill="#000000">GPU</text>
</a>
</g>
</g>
<!-- dir_8878d5c3559bc3ebfb711a18a96e91b8&#45;&gt;dir_f511f1e9c03c071966ae594f00bbc5e0 -->
<g id="edge6" class="edge">
<title>dir_8878d5c3559bc3ebfb711a18a96e91b8&#45;&gt;dir_f511f1e9c03c071966ae594f00bbc5e0</title>
<path fill="none" stroke="#000000" d="M229.8998,-359.7623C232.4582,-335.201 237.0367,-291.2474 240.0465,-262.3541"/>
<polygon fill="#000000" stroke="#000000" points="243.5607,-262.3985 241.1157,-252.0896 236.5984,-261.6731 243.5607,-262.3985"/>
<g id="a_edge6&#45;headlabel"><a xlink:href="dir_000051_000667.html" target="_top" xlink:title="2">
<text text-anchor="middle" x="246.0123" y="-263.7679" font-family="Helvetica,sans-Serif" font-size="10.00" fill="#000000">2</text>
</a>
</g>
</g>
<!-- dir_bcbb2cf9a3d3d83e5515c82071a07177 -->
<g id="node8" class="node">
<title>dir_bcbb2cf9a3d3d83e5515c82071a07177</title>
<g id="a_node8"><a xlink:href="dir_bcbb2cf9a3d3d83e5515c82071a07177.html" target="_top" xlink:title="Framework">
<polygon fill="none" stroke="#ff0000" points="178.5,-36 107.5,-36 107.5,0 178.5,0 178.5,-36"/>
<text text-anchor="middle" x="143" y="-15.5" font-family="Helvetica,sans-Serif" font-size="10.00" fill="#000000">Framework</text>
</a>
</g>
</g>
<!-- dir_8878d5c3559bc3ebfb711a18a96e91b8&#45;&gt;dir_bcbb2cf9a3d3d83e5515c82071a07177 -->
<g id="edge7" class="edge">
<title>dir_8878d5c3559bc3ebfb711a18a96e91b8&#45;&gt;dir_bcbb2cf9a3d3d83e5515c82071a07177</title>
<path fill="none" stroke="#000000" d="M251.9169,-359.9693C262.809,-350.4706 274.8413,-337.9108 282,-324 304.0991,-281.0573 299.5865,-263.9712 294,-216 286.3934,-150.6817 301.6109,-122.9203 260,-72 242.0215,-49.9992 213.0857,-36.5374 188.4892,-28.5569"/>
<polygon fill="#000000" stroke="#000000" points="189.1951,-25.1136 178.6098,-25.5624 187.1646,-31.8127 189.1951,-25.1136"/>
<g id="a_edge7&#45;headlabel"><a xlink:href="dir_000051_000013.html" target="_top" xlink:title="1">
<text text-anchor="middle" x="193.4588" y="-20.9391" font-family="Helvetica,sans-Serif" font-size="10.00" fill="#000000">1</text>
</a>
</g>
</g>
<!-- dir_26637d1bd82229bc9ed97f7e706be743 -->
<g id="node9" class="node">
<title>dir_26637d1bd82229bc9ed97f7e706be743</title>
<g id="a_node9"><a xlink:href="dir_26637d1bd82229bc9ed97f7e706be743.html" target="_top" xlink:title="Raw">
<polygon fill="none" stroke="#ff0000" points="206,-180 152,-180 152,-144 206,-144 206,-180"/>
<text text-anchor="middle" x="179" y="-159.5" font-family="Helvetica,sans-Serif" font-size="10.00" fill="#000000">Raw</text>
</a>
</g>
</g>
<!-- dir_8878d5c3559bc3ebfb711a18a96e91b8&#45;&gt;dir_26637d1bd82229bc9ed97f7e706be743 -->
<g id="edge8" class="edge">
<title>dir_8878d5c3559bc3ebfb711a18a96e91b8&#45;&gt;dir_26637d1bd82229bc9ed97f7e706be743</title>
<path fill="none" stroke="#000000" d="M223.9066,-359.9555C215.3676,-322.3144 195.6025,-235.1867 185.3801,-190.1246"/>
<polygon fill="#000000" stroke="#000000" points="188.7419,-189.1229 183.1162,-180.1451 181.9154,-190.6716 188.7419,-189.1229"/>
<g id="a_edge8&#45;headlabel"><a xlink:href="dir_000051_000553.html" target="_top" xlink:title="1">
<text text-anchor="middle" x="192.306" y="-189.5004" font-family="Helvetica,sans-Serif" font-size="10.00" fill="#000000">1</text>
</a>
</g>
</g>
<!-- dir_2171f7ec022c5423887b07c69b2f5b48 -->
<g id="node10" class="node">
<title>dir_2171f7ec022c5423887b07c69b2f5b48</title>
<g id="a_node10"><a xlink:href="dir_2171f7ec022c5423887b07c69b2f5b48.html" target="_top" xlink:title="DataFormats">
<polygon fill="none" stroke="#ff0000" points="251,-108 171,-108 171,-72 251,-72 251,-108"/>
<text text-anchor="middle" x="211" y="-87.5" font-family="Helvetica,sans-Serif" font-size="10.00" fill="#000000">DataFormats</text>
</a>
</g>
</g>
<!-- dir_8878d5c3559bc3ebfb711a18a96e91b8&#45;&gt;dir_2171f7ec022c5423887b07c69b2f5b48 -->
<g id="edge9" class="edge">
<title>dir_8878d5c3559bc3ebfb711a18a96e91b8&#45;&gt;dir_2171f7ec022c5423887b07c69b2f5b48</title>
<path fill="none" stroke="#000000" d="M241.074,-359.7571C247.8283,-349.6276 255.7352,-336.5655 261,-324 279.8048,-279.1182 288.2595,-263.773 279,-216 272.4356,-182.1321 266.6661,-174.2054 250,-144 244.8043,-134.5834 238.2367,-124.882 231.9796,-116.3455"/>
<polygon fill="#000000" stroke="#000000" points="234.6978,-114.1367 225.8883,-108.2509 229.1045,-118.3458 234.6978,-114.1367"/>
<g id="a_edge9&#45;headlabel"><a xlink:href="dir_000051_000076.html" target="_top" xlink:title="13">
<text text-anchor="middle" x="239.1278" y="-112.8017" font-family="Helvetica,sans-Serif" font-size="10.00" fill="#000000">13</text>
</a>
</g>
</g>
<!-- dir_e043ce4ff46f8ac51f0381d61fc98f07 -->
<g id="node3" class="node">
<title>dir_e043ce4ff46f8ac51f0381d61fc98f07</title>
<g id="a_node3"><a xlink:href="dir_e043ce4ff46f8ac51f0381d61fc98f07.html" target="_top" xlink:title="src">
<polygon fill="#ffffff" stroke="#000000" points="311,-468 257,-468 257,-432 311,-432 311,-468"/>
<text text-anchor="middle" x="284" y="-447.5" font-family="Helvetica,sans-Serif" font-size="10.00" fill="#000000">src</text>
</a>
</g>
</g>
<!-- dir_e043ce4ff46f8ac51f0381d61fc98f07&#45;&gt;dir_8878d5c3559bc3ebfb711a18a96e91b8 -->
<g id="edge12" class="edge">
<title>dir_e043ce4ff46f8ac51f0381d61fc98f07&#45;&gt;dir_8878d5c3559bc3ebfb711a18a96e91b8</title>
<path fill="none" stroke="#000000" d="M269.8688,-431.8314C263.4189,-423.5386 255.6555,-413.557 248.5748,-404.4533"/>
<polygon fill="#000000" stroke="#000000" points="251.2236,-402.158 242.3214,-396.4133 245.6981,-406.4556 251.2236,-402.158"/>
<g id="a_edge12&#45;headlabel"><a xlink:href="dir_000154_000051.html" target="_top" xlink:title="36">
<text text-anchor="middle" x="255.6716" y="-400.7523" font-family="Helvetica,sans-Serif" font-size="10.00" fill="#000000">36</text>
</a>
</g>
</g>
<!-- dir_1a7fbcdc62c8ea7270ef7614154c8eb7 -->
<g id="node4" class="node">
<title>dir_1a7fbcdc62c8ea7270ef7614154c8eb7</title>
<g id="a_node4"><a xlink:href="dir_1a7fbcdc62c8ea7270ef7614154c8eb7.html" target="_top" xlink:title="test">
<polygon fill="#ffffff" stroke="#000000" points="239,-468 185,-468 185,-432 239,-432 239,-468"/>
<text text-anchor="middle" x="212" y="-447.5" font-family="Helvetica,sans-Serif" font-size="10.00" fill="#000000">test</text>
</a>
</g>
</g>
<!-- dir_1a7fbcdc62c8ea7270ef7614154c8eb7&#45;&gt;dir_8878d5c3559bc3ebfb711a18a96e91b8 -->
<g id="edge14" class="edge">
<title>dir_1a7fbcdc62c8ea7270ef7614154c8eb7&#45;&gt;dir_8878d5c3559bc3ebfb711a18a96e91b8</title>
<path fill="none" stroke="#000000" d="M216.0375,-431.8314C217.7487,-424.131 219.7835,-414.9743 221.6852,-406.4166"/>
<polygon fill="#000000" stroke="#000000" points="225.1554,-406.9344 223.9082,-396.4133 218.3221,-405.4159 225.1554,-406.9344"/>
<g id="a_edge14&#45;headlabel"><a xlink:href="dir_000579_000051.html" target="_top" xlink:title="18">
<text text-anchor="middle" x="227.1474" y="-408.5593" font-family="Helvetica,sans-Serif" font-size="10.00" fill="#000000">18</text>
</a>
</g>
</g>
<!-- dir_1a7fbcdc62c8ea7270ef7614154c8eb7&#45;&gt;dir_4ab6b4cc6a7edbff49100e9123df213f -->
<g id="edge13" class="edge">
<title>dir_1a7fbcdc62c8ea7270ef7614154c8eb7&#45;&gt;dir_4ab6b4cc6a7edbff49100e9123df213f</title>
<path fill="none" stroke="#000000" d="M203.4725,-431.677C193.0388,-409.9752 174.2476,-373.1012 154,-344 151.2148,-339.9969 148.0755,-335.9331 144.8688,-332.0253"/>
<polygon fill="#000000" stroke="#000000" points="147.4323,-329.6371 138.2842,-324.2927 142.1027,-334.1754 147.4323,-329.6371"/>
<g id="a_edge13&#45;headlabel"><a xlink:href="dir_000579_000027.html" target="_top" xlink:title="4">
<text text-anchor="middle" x="151.9244" y="-328.0331" font-family="Helvetica,sans-Serif" font-size="10.00" fill="#000000">4</text>
</a>
</g>
</g>
<!-- dir_1a7fbcdc62c8ea7270ef7614154c8eb7&#45;&gt;dir_2171f7ec022c5423887b07c69b2f5b48 -->
<g id="edge15" class="edge">
<title>dir_1a7fbcdc62c8ea7270ef7614154c8eb7&#45;&gt;dir_2171f7ec022c5423887b07c69b2f5b48</title>
<path fill="none" stroke="#000000" d="M234.2909,-431.798C244.7329,-422.1699 256.4966,-409.549 264,-396 303.2921,-325.05 305.4698,-296.2884 294,-216 289.286,-183.0017 290.9603,-172.0809 273,-144 265.8996,-132.8985 255.8572,-122.7813 245.9181,-114.3821"/>
<polygon fill="#000000" stroke="#000000" points="248.0115,-111.5741 238.0275,-108.0285 243.6213,-117.0263 248.0115,-111.5741"/>
<g id="a_edge15&#45;headlabel"><a xlink:href="dir_000579_000076.html" target="_top" xlink:title="2">
<text text-anchor="middle" x="252.5919" y="-109.117" font-family="Helvetica,sans-Serif" font-size="10.00" fill="#000000">2</text>
</a>
</g>
</g>
<!-- dir_4ab6b4cc6a7edbff49100e9123df213f&#45;&gt;dir_f511f1e9c03c071966ae594f00bbc5e0 -->
<g id="edge1" class="edge">
<title>dir_4ab6b4cc6a7edbff49100e9123df213f&#45;&gt;dir_f511f1e9c03c071966ae594f00bbc5e0</title>
<path fill="none" stroke="#000000" d="M145.8334,-287.8314C163.4079,-276.8265 187.1035,-262.8476 206.7561,-251.893"/>
<polygon fill="#000000" stroke="#000000" points="208.6782,-254.8302 215.7487,-246.9397 205.3009,-248.6988 208.6782,-254.8302"/>
<g id="a_edge1&#45;headlabel"><a xlink:href="dir_000027_000667.html" target="_top" xlink:title="3">
<text text-anchor="middle" x="206.8995" y="-256.5513" font-family="Helvetica,sans-Serif" font-size="10.00" fill="#000000">3</text>
</a>
</g>
</g>
<!-- dir_4ab6b4cc6a7edbff49100e9123df213f&#45;&gt;dir_bcbb2cf9a3d3d83e5515c82071a07177 -->
<g id="edge2" class="edge">
<title>dir_4ab6b4cc6a7edbff49100e9123df213f&#45;&gt;dir_bcbb2cf9a3d3d83e5515c82071a07177</title>
<path fill="none" stroke="#000000" d="M110.5112,-287.5478C108.121,-277.1338 106.6573,-263.867 106,-252 101.8525,-177.116 118.0003,-89.4981 130.8095,-45.7755"/>
<polygon fill="#000000" stroke="#000000" points="134.1799,-46.7239 133.8137,-36.1354 127.4969,-44.6412 134.1799,-46.7239"/>
<g id="a_edge2&#45;headlabel"><a xlink:href="dir_000027_000013.html" target="_top" xlink:title="2">
<text text-anchor="middle" x="135.8212" y="-48.5005" font-family="Helvetica,sans-Serif" font-size="10.00" fill="#000000">2</text>
</a>
</g>
</g>
<!-- dir_4ab6b4cc6a7edbff49100e9123df213f&#45;&gt;dir_2171f7ec022c5423887b07c69b2f5b48 -->
<g id="edge3" class="edge">
<title>dir_4ab6b4cc6a7edbff49100e9123df213f&#45;&gt;dir_2171f7ec022c5423887b07c69b2f5b48</title>
<path fill="none" stroke="#000000" d="M113.8108,-287.5986C108.116,-256.0061 107.6108,-190.3782 134,-144 140.7134,-132.2015 151.1172,-122.022 162.1764,-113.7823"/>
<polygon fill="#000000" stroke="#000000" points="164.4874,-116.439 170.7109,-107.8648 160.4988,-110.6865 164.4874,-116.439"/>
<g id="a_edge3&#45;headlabel"><a xlink:href="dir_000027_000076.html" target="_top" xlink:title="2">
<text text-anchor="middle" x="163.1512" y="-118.3205" font-family="Helvetica,sans-Serif" font-size="10.00" fill="#000000">2</text>
</a>
</g>
</g>
<!-- dir_6af676bf18881990e4083e191d0e63e0&#45;&gt;dir_4ab6b4cc6a7edbff49100e9123df213f -->
<g id="edge10" class="edge">
<title>dir_6af676bf18881990e4083e191d0e63e0&#45;&gt;dir_4ab6b4cc6a7edbff49100e9123df213f</title>
<path fill="none" stroke="#000000" d="M118.757,-359.8314C119.0779,-352.131 119.4594,-342.9743 119.816,-334.4166"/>
<polygon fill="#000000" stroke="#000000" points="123.3133,-334.5503 120.2328,-324.4133 116.3194,-334.2589 123.3133,-334.5503"/>
<g id="a_edge10&#45;headlabel"><a xlink:href="dir_000019_000027.html" target="_top" xlink:title="4">
<text text-anchor="middle" x="126.0006" y="-335.76" font-family="Helvetica,sans-Serif" font-size="10.00" fill="#000000">4</text>
</a>
</g>
</g>
<!-- dir_6af676bf18881990e4083e191d0e63e0&#45;&gt;dir_bcbb2cf9a3d3d83e5515c82071a07177 -->
<g id="edge11" class="edge">
<title>dir_6af676bf18881990e4083e191d0e63e0&#45;&gt;dir_bcbb2cf9a3d3d83e5515c82071a07177</title>
<path fill="none" stroke="#000000" d="M90.9284,-361.4684C56.0908,-337.8816 0,-291.0475 0,-234 0,-234 0,-234 0,-162 0,-105.3781 56.3548,-63.0978 98.3092,-39.467"/>
<polygon fill="#000000" stroke="#000000" points="100.1834,-42.4315 107.2839,-34.5681 96.8295,-36.2872 100.1834,-42.4315"/>
<g id="a_edge11&#45;headlabel"><a xlink:href="dir_000019_000013.html" target="_top" xlink:title="2">
<text text-anchor="middle" x="98.3885" y="-44.1459" font-family="Helvetica,sans-Serif" font-size="10.00" fill="#000000">2</text>
</a>
</g>
</g>
<!-- dir_f511f1e9c03c071966ae594f00bbc5e0&#45;&gt;dir_8878d5c3559bc3ebfb711a18a96e91b8 -->
<g id="edge16" class="edge">
<title>dir_f511f1e9c03c071966ae594f00bbc5e0&#45;&gt;dir_8878d5c3559bc3ebfb711a18a96e91b8</title>
<path fill="none" stroke="#000000" d="M245.6396,-252.0601C247.8332,-270.3256 250.0068,-299.3091 246,-324 244.582,-332.7379 241.9525,-341.9725 239.1329,-350.2864"/>
<polygon fill="#000000" stroke="#000000" points="235.7746,-349.2813 235.6679,-359.8756 242.358,-351.6601 235.7746,-349.2813"/>
<g id="a_edge16&#45;headlabel"><a xlink:href="dir_000667_000051.html" target="_top" xlink:title="3">
<text text-anchor="middle" x="234.3258" y="-342.4357" font-family="Helvetica,sans-Serif" font-size="10.00" fill="#000000">3</text>
</a>
</g>
</g>
<!-- dir_f511f1e9c03c071966ae594f00bbc5e0&#45;&gt;dir_4ab6b4cc6a7edbff49100e9123df213f -->
<g id="edge17" class="edge">
<title>dir_f511f1e9c03c071966ae594f00bbc5e0&#45;&gt;dir_4ab6b4cc6a7edbff49100e9123df213f</title>
<path fill="none" stroke="#000000" d="M218.3683,-252.0423C201.6859,-262.4947 179.4234,-275.6621 160.3442,-286.3727"/>
<polygon fill="#000000" stroke="#000000" points="158.5957,-283.3401 151.5537,-291.256 161.9951,-289.4593 158.5957,-283.3401"/>
<g id="a_edge17&#45;headlabel"><a xlink:href="dir_000667_000027.html" target="_top" xlink:title="2">
<text text-anchor="middle" x="160.3592" y="-276.6125" font-family="Helvetica,sans-Serif" font-size="10.00" fill="#000000">2</text>
</a>
</g>
</g>
<!-- dir_f511f1e9c03c071966ae594f00bbc5e0&#45;&gt;dir_26637d1bd82229bc9ed97f7e706be743 -->
<g id="edge18" class="edge">
<title>dir_f511f1e9c03c071966ae594f00bbc5e0&#45;&gt;dir_26637d1bd82229bc9ed97f7e706be743</title>
<path fill="none" stroke="#000000" d="M220.8977,-215.8314C212.6348,-207.454 203.4665,-197.3531 195.7452,-188.1749"/>
<polygon fill="#000000" stroke="#000000" points="198.4341,-185.9341 189.3913,-180.4133 193.0175,-190.3683 198.4341,-185.9341"/>
<g id="a_edge18&#45;headlabel"><a xlink:href="dir_000667_000553.html" target="_top" xlink:title="1">
<text text-anchor="middle" x="202.908" y="-184.4171" font-family="Helvetica,sans-Serif" font-size="10.00" fill="#000000">1</text>
</a>
</g>
</g>
<!-- dir_f511f1e9c03c071966ae594f00bbc5e0&#45;&gt;dir_2171f7ec022c5423887b07c69b2f5b48 -->
<g id="edge19" class="edge">
<title>dir_f511f1e9c03c071966ae594f00bbc5e0&#45;&gt;dir_2171f7ec022c5423887b07c69b2f5b48</title>
<path fill="none" stroke="#000000" d="M234.274,-215.7623C226.3561,-191.201 216.3139,-147.2474 211.8035,-118.3541"/>
<polygon fill="#000000" stroke="#000000" points="215.2187,-117.5055 210.3616,-108.0896 208.2868,-118.4793 215.2187,-117.5055"/>
<g id="a_edge19&#45;headlabel"><a xlink:href="dir_000667_000076.html" target="_top" xlink:title="12">
<text text-anchor="middle" x="218.5303" y="-118.1702" font-family="Helvetica,sans-Serif" font-size="10.00" fill="#000000">12</text>
</a>
</g>
</g>
<!-- dir_bcbb2cf9a3d3d83e5515c82071a07177&#45;&gt;dir_4ab6b4cc6a7edbff49100e9123df213f -->
<g id="edge20" class="edge">
<title>dir_bcbb2cf9a3d3d83e5515c82071a07177&#45;&gt;dir_4ab6b4cc6a7edbff49100e9123df213f</title>
<path fill="none" stroke="#000000" d="M143.4855,-36.1354C138.7198,-75.3678 119.52,-171.1127 124,-252 124.457,-260.2513 125.3039,-269.1793 125.8596,-277.3545"/>
<polygon fill="#000000" stroke="#000000" points="122.374,-277.7334 126.3651,-287.5478 129.3654,-277.3867 122.374,-277.7334"/>
<g id="a_edge20&#45;headlabel"><a xlink:href="dir_000013_000027.html" target="_top" xlink:title="8">
<text text-anchor="middle" x="119.3603" y="-271.7838" font-family="Helvetica,sans-Serif" font-size="10.00" fill="#000000">8</text>
</a>
</g>
</g>
<!-- dir_bcbb2cf9a3d3d83e5515c82071a07177&#45;&gt;dir_2171f7ec022c5423887b07c69b2f5b48 -->
<g id="edge21" class="edge">
<title>dir_bcbb2cf9a3d3d83e5515c82071a07177&#45;&gt;dir_2171f7ec022c5423887b07c69b2f5b48</title>
<path fill="none" stroke="#000000" d="M166.1056,-36.1628C174.9006,-44.6038 184.7127,-54.7956 192.9846,-64.0303"/>
<polygon fill="#000000" stroke="#000000" points="190.5806,-66.5987 199.7931,-71.8314 195.8545,-61.9958 190.5806,-66.5987"/>
<g id="a_edge21&#45;headlabel"><a xlink:href="dir_000013_000076.html" target="_top" xlink:title="82">
<text text-anchor="middle" x="186.0779" y="-63.2575" font-family="Helvetica,sans-Serif" font-size="10.00" fill="#000000">82</text>
</a>
</g>
</g>
<!-- dir_26637d1bd82229bc9ed97f7e706be743&#45;&gt;dir_4ab6b4cc6a7edbff49100e9123df213f -->
<g id="edge22" class="edge">
<title>dir_26637d1bd82229bc9ed97f7e706be743&#45;&gt;dir_4ab6b4cc6a7edbff49100e9123df213f</title>
<path fill="none" stroke="#000000" d="M171.7139,-180.0896C161.7658,-204.7884 143.8402,-249.2933 132.1839,-278.2331"/>
<polygon fill="#000000" stroke="#000000" points="128.8354,-277.1788 128.3457,-287.7623 135.3285,-279.7941 128.8354,-277.1788"/>
<g id="a_edge22&#45;headlabel"><a xlink:href="dir_000553_000027.html" target="_top" xlink:title="9">
<text text-anchor="middle" x="127.5446" y="-270.2837" font-family="Helvetica,sans-Serif" font-size="10.00" fill="#000000">9</text>
</a>
</g>
</g>
<!-- dir_26637d1bd82229bc9ed97f7e706be743&#45;&gt;dir_f511f1e9c03c071966ae594f00bbc5e0 -->
<g id="edge23" class="edge">
<title>dir_26637d1bd82229bc9ed97f7e706be743&#45;&gt;dir_f511f1e9c03c071966ae594f00bbc5e0</title>
<path fill="none" stroke="#000000" d="M201.3434,-180.4133C209.54,-188.7389 218.6014,-198.7282 226.2458,-207.8144"/>
<polygon fill="#000000" stroke="#000000" points="223.7623,-210.3063 232.8025,-215.8314 229.1809,-205.8747 223.7623,-210.3063"/>
<g id="a_edge23&#45;headlabel"><a xlink:href="dir_000553_000667.html" target="_top" xlink:title="2">
<text text-anchor="middle" x="219.2888" y="-206.8213" font-family="Helvetica,sans-Serif" font-size="10.00" fill="#000000">2</text>
</a>
</g>
</g>
<!-- dir_26637d1bd82229bc9ed97f7e706be743&#45;&gt;dir_bcbb2cf9a3d3d83e5515c82071a07177 -->
<g id="edge24" class="edge">
<title>dir_26637d1bd82229bc9ed97f7e706be743&#45;&gt;dir_bcbb2cf9a3d3d83e5515c82071a07177</title>
<path fill="none" stroke="#000000" d="M172.7316,-143.6343C169.3094,-133.2474 165.1421,-119.9788 162,-108 156.6061,-87.4364 151.6841,-63.9219 148.2018,-46.0864"/>
<polygon fill="#000000" stroke="#000000" points="151.5979,-45.2116 146.2768,-36.0499 144.7232,-46.5303 151.5979,-45.2116"/>
<g id="a_edge24&#45;headlabel"><a xlink:href="dir_000553_000013.html" target="_top" xlink:title="25">
<text text-anchor="middle" x="155.0634" y="-45.7071" font-family="Helvetica,sans-Serif" font-size="10.00" fill="#000000">25</text>
</a>
</g>
</g>
<!-- dir_26637d1bd82229bc9ed97f7e706be743&#45;&gt;dir_2171f7ec022c5423887b07c69b2f5b48 -->
<g id="edge25" class="edge">
<title>dir_26637d1bd82229bc9ed97f7e706be743&#45;&gt;dir_2171f7ec022c5423887b07c69b2f5b48</title>
<path fill="none" stroke="#000000" d="M187.075,-143.8314C190.6102,-135.8771 194.836,-126.369 198.7456,-117.5723"/>
<polygon fill="#000000" stroke="#000000" points="201.9532,-118.9729 202.8163,-108.4133 195.5565,-116.1299 201.9532,-118.9729"/>
<g id="a_edge25&#45;headlabel"><a xlink:href="dir_000553_000076.html" target="_top" xlink:title="15">
<text text-anchor="middle" x="203.0879" y="-120.9108" font-family="Helvetica,sans-Serif" font-size="10.00" fill="#000000">15</text>
</a>
</g>
</g>
<!-- dir_2171f7ec022c5423887b07c69b2f5b48&#45;&gt;dir_4ab6b4cc6a7edbff49100e9123df213f -->
<g id="edge26" class="edge">
<title>dir_2171f7ec022c5423887b07c69b2f5b48&#45;&gt;dir_4ab6b4cc6a7edbff49100e9123df213f</title>
<path fill="none" stroke="#000000" d="M186.8306,-108.1064C174.4094,-117.1548 160.3501,-129.3251 152,-144 128.1878,-185.849 126.2738,-243.3717 125.0733,-277.4189"/>
<polygon fill="#000000" stroke="#000000" points="121.5688,-277.4715 124.6818,-287.5986 128.5637,-277.7406 121.5688,-277.4715"/>
<g id="a_edge26&#45;headlabel"><a xlink:href="dir_000076_000027.html" target="_top" xlink:title="34">
<text text-anchor="middle" x="118.8697" y="-271.2704" font-family="Helvetica,sans-Serif" font-size="10.00" fill="#000000">34</text>
</a>
</g>
</g>
<!-- dir_2171f7ec022c5423887b07c69b2f5b48&#45;&gt;dir_f511f1e9c03c071966ae594f00bbc5e0 -->
<g id="edge27" class="edge">
<title>dir_2171f7ec022c5423887b07c69b2f5b48&#45;&gt;dir_f511f1e9c03c071966ae594f00bbc5e0</title>
<path fill="none" stroke="#000000" d="M219.6782,-108.0896C227.6223,-132.6805 237.7251,-176.905 242.2288,-205.8531"/>
<polygon fill="#000000" stroke="#000000" points="238.7636,-206.3462 243.6203,-215.7623 245.6956,-205.3727 238.7636,-206.3462"/>
<g id="a_edge27&#45;headlabel"><a xlink:href="dir_000076_000667.html" target="_top" xlink:title="15">
<text text-anchor="middle" x="235.4521" y="-200.6814" font-family="Helvetica,sans-Serif" font-size="10.00" fill="#000000">15</text>
</a>
</g>
</g>
<!-- dir_2171f7ec022c5423887b07c69b2f5b48&#45;&gt;dir_bcbb2cf9a3d3d83e5515c82071a07177 -->
<g id="edge28" class="edge">
<title>dir_2171f7ec022c5423887b07c69b2f5b48&#45;&gt;dir_bcbb2cf9a3d3d83e5515c82071a07177</title>
<path fill="none" stroke="#000000" d="M187.8883,-71.8314C179.16,-63.454 169.4306,-53.3531 161.1994,-44.1749"/>
<polygon fill="#000000" stroke="#000000" points="163.631,-41.6386 154.4143,-36.4133 158.3608,-46.2457 163.631,-41.6386"/>
<g id="a_edge28&#45;headlabel"><a xlink:href="dir_000076_000013.html" target="_top" xlink:title="7">
<text text-anchor="middle" x="168.1344" y="-39.9762" font-family="Helvetica,sans-Serif" font-size="10.00" fill="#000000">7</text>
</a>
</g>
</g>
</g>
</svg>
