<?xml version="1.0" encoding="UTF-8" standalone="no"?>
<!DOCTYPE svg PUBLIC "-//W3C//DTD SVG 1.1//EN"
 "http://www.w3.org/Graphics/SVG/1.1/DTD/svg11.dtd">
<!-- Generated by graphviz version 2.40.1 (20161225.0304)
 -->
<!-- Title: /home/travis/build/AliceO2Group/AliceO2/Detectors/MUON/MCH/Workflow/src Pages: 1 -->
<svg width="463pt" height="295pt"
 viewBox="0.00 0.00 463.00 295.00" xmlns="http://www.w3.org/2000/svg" xmlns:xlink="http://www.w3.org/1999/xlink">
<g id="graph0" class="graph" transform="scale(1 1) rotate(0) translate(4 291)">
<title>/home/travis/build/AliceO2Group/AliceO2/Detectors/MUON/MCH/Workflow/src</title>
<g id="clust1" class="cluster">
<title>clusterdir_04ece05d7c7fe751e39bd0511b9068fc</title>
<g id="a_clust1"><a xlink:href="dir_04ece05d7c7fe751e39bd0511b9068fc.html" target="_top" xlink:title="Workflow">
<polygon fill="#ddddee" stroke="#000000" points="183,-208 183,-279 253,-279 253,-208 183,-208"/>
<text text-anchor="middle" x="218" y="-267" font-family="Helvetica,sans-Serif" font-size="10.00" fill="#000000">Workflow</text>
</a>
</g>
</g>
<!-- dir_e2a306cbeddc37280b8dde7d223d74dd -->
<g id="node1" class="node">
<title>dir_e2a306cbeddc37280b8dde7d223d74dd</title>
<g id="a_node1"><a xlink:href="dir_e2a306cbeddc37280b8dde7d223d74dd.html" target="_top" xlink:title="src">
<polygon fill="#eeeeff" stroke="#000000" points="245,-252 191,-252 191,-216 245,-216 245,-252"/>
<text text-anchor="middle" x="218" y="-231.5" font-family="Helvetica,sans-Serif" font-size="10.00" fill="#000000">src</text>
</a>
</g>
</g>
<!-- dir_6229e1f1a243f5ed3f0013dfa4f13deb -->
<g id="node2" class="node">
<title>dir_6229e1f1a243f5ed3f0013dfa4f13deb</title>
<g id="a_node2"><a xlink:href="dir_6229e1f1a243f5ed3f0013dfa4f13deb.html" target="_top" xlink:title="PreClustering">
<polygon fill="none" stroke="#ff0000" points="125,-180 43,-180 43,-144 125,-144 125,-180"/>
<text text-anchor="middle" x="84" y="-159.5" font-family="Helvetica,sans-Serif" font-size="10.00" fill="#000000">PreClustering</text>
</a>
</g>
</g>
<!-- dir_e2a306cbeddc37280b8dde7d223d74dd&#45;&gt;dir_6229e1f1a243f5ed3f0013dfa4f13deb -->
<g id="edge3" class="edge">
<title>dir_e2a306cbeddc37280b8dde7d223d74dd&#45;&gt;dir_6229e1f1a243f5ed3f0013dfa4f13deb</title>
<path fill="none" stroke="#000000" d="M190.8831,-219.4297C172.4968,-209.5505 147.8103,-196.2861 126.7946,-184.9941"/>
<polygon fill="#000000" stroke="#000000" points="128.2037,-181.778 117.7382,-180.128 124.8905,-187.9443 128.2037,-181.778"/>
<g id="a_edge3&#45;headlabel"><a xlink:href="dir_000544_000515.html" target="_top" xlink:title="1">
<text text-anchor="middle" x="132.714" y="-178.4783" font-family="Helvetica,sans-Serif" font-size="10.00" fill="#000000">1</text>
</a>
</g>
</g>
<!-- dir_1155c84989a046e7de4bf0156dc4b34c -->
<g id="node3" class="node">
<title>dir_1155c84989a046e7de4bf0156dc4b34c</title>
<g id="a_node3"><a xlink:href="dir_1155c84989a046e7de4bf0156dc4b34c.html" target="_top" xlink:title="Base">
<polygon fill="none" stroke="#ff0000" points="54,-108 0,-108 0,-72 54,-72 54,-108"/>
<text text-anchor="middle" x="27" y="-87.5" font-family="Helvetica,sans-Serif" font-size="10.00" fill="#000000">Base</text>
</a>
</g>
</g>
<!-- dir_e2a306cbeddc37280b8dde7d223d74dd&#45;&gt;dir_1155c84989a046e7de4bf0156dc4b34c -->
<g id="edge4" class="edge">
<title>dir_e2a306cbeddc37280b8dde7d223d74dd&#45;&gt;dir_1155c84989a046e7de4bf0156dc4b34c</title>
<path fill="none" stroke="#000000" d="M190.8594,-229.8605C144.6646,-222.2227 53.8184,-204.4337 34,-180 20.1722,-162.952 19.38,-137.6181 21.4985,-118.1681"/>
<polygon fill="#000000" stroke="#000000" points="24.9935,-118.4459 22.9105,-108.0579 18.0608,-117.4776 24.9935,-118.4459"/>
<g id="a_edge4&#45;headlabel"><a xlink:href="dir_000544_000129.html" target="_top" xlink:title="8">
<text text-anchor="middle" x="27.3084" y="-119.8987" font-family="Helvetica,sans-Serif" font-size="10.00" fill="#000000">8</text>
</a>
</g>
</g>
<!-- dir_ade19310a6abca7155cb213ca0a7e06d -->
<g id="node4" class="node">
<title>dir_ade19310a6abca7155cb213ca0a7e06d</title>
<g id="a_node4"><a xlink:href="dir_ade19310a6abca7155cb213ca0a7e06d.html" target="_top" xlink:title="include">
<polygon fill="none" stroke="#ff0000" points="345,-180 291,-180 291,-144 345,-144 345,-180"/>
<text text-anchor="middle" x="318" y="-159.5" font-family="Helvetica,sans-Serif" font-size="10.00" fill="#000000">include</text>
</a>
</g>
</g>
<!-- dir_e2a306cbeddc37280b8dde7d223d74dd&#45;&gt;dir_ade19310a6abca7155cb213ca0a7e06d -->
<g id="edge5" class="edge">
<title>dir_e2a306cbeddc37280b8dde7d223d74dd&#45;&gt;dir_ade19310a6abca7155cb213ca0a7e06d</title>
<path fill="none" stroke="#000000" d="M243.2342,-215.8314C255.788,-206.7927 271.1283,-195.7476 284.6391,-186.0198"/>
<polygon fill="#000000" stroke="#000000" points="286.7036,-188.8463 292.7739,-180.1628 282.6134,-183.1655 286.7036,-188.8463"/>
<g id="a_edge5&#45;headlabel"><a xlink:href="dir_000544_000542.html" target="_top" xlink:title="4">
<text text-anchor="middle" x="285.4454" y="-190.7508" font-family="Helvetica,sans-Serif" font-size="10.00" fill="#000000">4</text>
</a>
</g>
</g>
<!-- dir_bcbb2cf9a3d3d83e5515c82071a07177 -->
<g id="node5" class="node">
<title>dir_bcbb2cf9a3d3d83e5515c82071a07177</title>
<g id="a_node5"><a xlink:href="dir_bcbb2cf9a3d3d83e5515c82071a07177.html" target="_top" xlink:title="Framework">
<polygon fill="none" stroke="#ff0000" points="351.5,-108 280.5,-108 280.5,-72 351.5,-72 351.5,-108"/>
<text text-anchor="middle" x="316" y="-87.5" font-family="Helvetica,sans-Serif" font-size="10.00" fill="#000000">Framework</text>
</a>
</g>
</g>
<!-- dir_e2a306cbeddc37280b8dde7d223d74dd&#45;&gt;dir_bcbb2cf9a3d3d83e5515c82071a07177 -->
<g id="edge6" class="edge">
<title>dir_e2a306cbeddc37280b8dde7d223d74dd&#45;&gt;dir_bcbb2cf9a3d3d83e5515c82071a07177</title>
<path fill="none" stroke="#000000" d="M245.2361,-231.9452C277.4227,-227.8906 329.6713,-215.8362 354,-180 367.4435,-160.1977 354.5189,-134.8792 340.2116,-116.1432"/>
<polygon fill="#000000" stroke="#000000" points="342.8667,-113.8605 333.85,-108.2971 337.4293,-118.269 342.8667,-113.8605"/>
<g id="a_edge6&#45;headlabel"><a xlink:href="dir_000544_000013.html" target="_top" xlink:title="79">
<text text-anchor="middle" x="347.3359" y="-112.3645" font-family="Helvetica,sans-Serif" font-size="10.00" fill="#000000">79</text>
</a>
</g>
</g>
<!-- dir_f8de85f281636d081fd2e7e06b0134d2 -->
<g id="node6" class="node">
<title>dir_f8de85f281636d081fd2e7e06b0134d2</title>
<g id="a_node6"><a xlink:href="dir_f8de85f281636d081fd2e7e06b0134d2.html" target="_top" xlink:title="Raw">
<polygon fill="none" stroke="#ff0000" points="455,-180 401,-180 401,-144 455,-144 455,-180"/>
<text text-anchor="middle" x="428" y="-159.5" font-family="Helvetica,sans-Serif" font-size="10.00" fill="#000000">Raw</text>
</a>
</g>
</g>
<!-- dir_e2a306cbeddc37280b8dde7d223d74dd&#45;&gt;dir_f8de85f281636d081fd2e7e06b0134d2 -->
<g id="edge7" class="edge">
<title>dir_e2a306cbeddc37280b8dde7d223d74dd&#45;&gt;dir_f8de85f281636d081fd2e7e06b0134d2</title>
<path fill="none" stroke="#000000" d="M245.2274,-226.2544C278.8789,-216.4637 337.7331,-198.6276 387,-180 388.4088,-179.4673 389.8393,-178.9122 391.28,-178.341"/>
<polygon fill="#000000" stroke="#000000" points="392.9069,-181.4561 400.8167,-174.4074 390.2377,-174.9849 392.9069,-181.4561"/>
<g id="a_edge7&#45;headlabel"><a xlink:href="dir_000544_000406.html" target="_top" xlink:title="8">
<text text-anchor="middle" x="390.6665" y="-182.9514" font-family="Helvetica,sans-Serif" font-size="10.00" fill="#000000">8</text>
</a>
</g>
</g>
<!-- dir_26637d1bd82229bc9ed97f7e706be743 -->
<g id="node7" class="node">
<title>dir_26637d1bd82229bc9ed97f7e706be743</title>
<g id="a_node7"><a xlink:href="dir_26637d1bd82229bc9ed97f7e706be743.html" target="_top" xlink:title="Raw">
<polygon fill="none" stroke="#ff0000" points="273,-180 219,-180 219,-144 273,-144 273,-180"/>
<text text-anchor="middle" x="246" y="-159.5" font-family="Helvetica,sans-Serif" font-size="10.00" fill="#000000">Raw</text>
</a>
</g>
</g>
<!-- dir_e2a306cbeddc37280b8dde7d223d74dd&#45;&gt;dir_26637d1bd82229bc9ed97f7e706be743 -->
<g id="edge8" class="edge">
<title>dir_e2a306cbeddc37280b8dde7d223d74dd&#45;&gt;dir_26637d1bd82229bc9ed97f7e706be743</title>
<path fill="none" stroke="#000000" d="M225.0656,-215.8314C228.126,-207.9617 231.7779,-198.5712 235.1682,-189.8533"/>
<polygon fill="#000000" stroke="#000000" points="238.4768,-191.0019 238.8393,-180.4133 231.9527,-188.4647 238.4768,-191.0019"/>
<g id="a_edge8&#45;headlabel"><a xlink:href="dir_000544_000553.html" target="_top" xlink:title="1">
<text text-anchor="middle" x="239.8202" y="-192.8812" font-family="Helvetica,sans-Serif" font-size="10.00" fill="#000000">1</text>
</a>
</g>
</g>
<!-- dir_2171f7ec022c5423887b07c69b2f5b48 -->
<g id="node8" class="node">
<title>dir_2171f7ec022c5423887b07c69b2f5b48</title>
<g id="a_node8"><a xlink:href="dir_2171f7ec022c5423887b07c69b2f5b48.html" target="_top" xlink:title="DataFormats">
<polygon fill="none" stroke="#ff0000" points="356,-36 276,-36 276,0 356,0 356,-36"/>
<text text-anchor="middle" x="316" y="-15.5" font-family="Helvetica,sans-Serif" font-size="10.00" fill="#000000">DataFormats</text>
</a>
</g>
</g>
<!-- dir_e2a306cbeddc37280b8dde7d223d74dd&#45;&gt;dir_2171f7ec022c5423887b07c69b2f5b48 -->
<g id="edge9" class="edge">
<title>dir_e2a306cbeddc37280b8dde7d223d74dd&#45;&gt;dir_2171f7ec022c5423887b07c69b2f5b48</title>
<path fill="none" stroke="#000000" d="M212.6009,-215.7161C208.0266,-197.2766 203.2021,-168.1604 210,-144 221.7881,-102.1041 257.0469,-65.4753 283.6898,-42.6671"/>
<polygon fill="#000000" stroke="#000000" points="286.2011,-45.1305 291.6461,-36.0419 281.7218,-39.7513 286.2011,-45.1305"/>
<g id="a_edge9&#45;headlabel"><a xlink:href="dir_000544_000076.html" target="_top" xlink:title="3">
<text text-anchor="middle" x="285.2556" y="-47.1125" font-family="Helvetica,sans-Serif" font-size="10.00" fill="#000000">3</text>
</a>
</g>
</g>
<!-- dir_b098e3604916eca5f90f2bb1c75b7880 -->
<g id="node9" class="node">
<title>dir_b098e3604916eca5f90f2bb1c75b7880</title>
<g id="a_node9"><a xlink:href="dir_b098e3604916eca5f90f2bb1c75b7880.html" target="_top" xlink:title="Mapping">
<polygon fill="none" stroke="#ff0000" points="152,-108 94,-108 94,-72 152,-72 152,-108"/>
<text text-anchor="middle" x="123" y="-87.5" font-family="Helvetica,sans-Serif" font-size="10.00" fill="#000000">Mapping</text>
</a>
</g>
</g>
<!-- dir_e2a306cbeddc37280b8dde7d223d74dd&#45;&gt;dir_b098e3604916eca5f90f2bb1c75b7880 -->
<g id="edge10" class="edge">
<title>dir_e2a306cbeddc37280b8dde7d223d74dd&#45;&gt;dir_b098e3604916eca5f90f2bb1c75b7880</title>
<path fill="none" stroke="#000000" d="M203.45,-215.87C195.3742,-205.5568 185.3121,-192.2834 177,-180 163.086,-159.4382 148.6865,-135.2696 138.2596,-117.1579"/>
<polygon fill="#000000" stroke="#000000" points="141.1928,-115.2363 133.1928,-108.29 135.1149,-118.709 141.1928,-115.2363"/>
<g id="a_edge10&#45;headlabel"><a xlink:href="dir_000544_000495.html" target="_top" xlink:title="4">
<text text-anchor="middle" x="145.4412" y="-114.4488" font-family="Helvetica,sans-Serif" font-size="10.00" fill="#000000">4</text>
</a>
</g>
</g>
<!-- dir_6229e1f1a243f5ed3f0013dfa4f13deb&#45;&gt;dir_1155c84989a046e7de4bf0156dc4b34c -->
<g id="edge1" class="edge">
<title>dir_6229e1f1a243f5ed3f0013dfa4f13deb&#45;&gt;dir_1155c84989a046e7de4bf0156dc4b34c</title>
<path fill="none" stroke="#000000" d="M69.6165,-143.8314C63.0514,-135.5386 55.1493,-125.557 47.9422,-116.4533"/>
<polygon fill="#000000" stroke="#000000" points="50.5284,-114.0813 41.5772,-108.4133 45.0401,-118.4262 50.5284,-114.0813"/>
<g id="a_edge1&#45;headlabel"><a xlink:href="dir_000515_000129.html" target="_top" xlink:title="2">
<text text-anchor="middle" x="54.9857" y="-112.6373" font-family="Helvetica,sans-Serif" font-size="10.00" fill="#000000">2</text>
</a>
</g>
</g>
<!-- dir_6229e1f1a243f5ed3f0013dfa4f13deb&#45;&gt;dir_b098e3604916eca5f90f2bb1c75b7880 -->
<g id="edge2" class="edge">
<title>dir_6229e1f1a243f5ed3f0013dfa4f13deb&#45;&gt;dir_b098e3604916eca5f90f2bb1c75b7880</title>
<path fill="none" stroke="#000000" d="M93.8413,-143.8314C98.1957,-135.7925 103.4098,-126.1666 108.2169,-117.2918"/>
<polygon fill="#000000" stroke="#000000" points="111.3408,-118.8732 113.0261,-108.4133 105.1857,-115.5392 111.3408,-118.8732"/>
<g id="a_edge2&#45;headlabel"><a xlink:href="dir_000515_000495.html" target="_top" xlink:title="2">
<text text-anchor="middle" x="112.1253" y="-120.8862" font-family="Helvetica,sans-Serif" font-size="10.00" fill="#000000">2</text>
</a>
</g>
</g>
<!-- dir_ade19310a6abca7155cb213ca0a7e06d&#45;&gt;dir_bcbb2cf9a3d3d83e5515c82071a07177 -->
<g id="edge11" class="edge">
<title>dir_ade19310a6abca7155cb213ca0a7e06d&#45;&gt;dir_bcbb2cf9a3d3d83e5515c82071a07177</title>
<path fill="none" stroke="#000000" d="M317.4953,-143.8314C317.2814,-136.131 317.0271,-126.9743 316.7894,-118.4166"/>
<polygon fill="#000000" stroke="#000000" points="320.2879,-118.3122 316.5115,-108.4133 313.2906,-118.5066 320.2879,-118.3122"/>
<g id="a_edge11&#45;headlabel"><a xlink:href="dir_000542_000013.html" target="_top" xlink:title="2">
<text text-anchor="middle" x="323.2258" y="-119.3266" font-family="Helvetica,sans-Serif" font-size="10.00" fill="#000000">2</text>
</a>
</g>
</g>
<!-- dir_bcbb2cf9a3d3d83e5515c82071a07177&#45;&gt;dir_2171f7ec022c5423887b07c69b2f5b48 -->
<g id="edge12" class="edge">
<title>dir_bcbb2cf9a3d3d83e5515c82071a07177&#45;&gt;dir_2171f7ec022c5423887b07c69b2f5b48</title>
<path fill="none" stroke="#000000" d="M310.0476,-71.8314C309.2972,-64.131 309.0763,-54.9743 309.3849,-46.4166"/>
<polygon fill="#000000" stroke="#000000" points="312.8792,-46.6161 310.024,-36.4133 305.8935,-46.1697 312.8792,-46.6161"/>
<g id="a_edge12&#45;headlabel"><a xlink:href="dir_000013_000076.html" target="_top" xlink:title="82">
<text text-anchor="middle" x="315.4836" y="-47.8844" font-family="Helvetica,sans-Serif" font-size="10.00" fill="#000000">82</text>
</a>
</g>
</g>
<!-- dir_f8de85f281636d081fd2e7e06b0134d2&#45;&gt;dir_2171f7ec022c5423887b07c69b2f5b48 -->
<g id="edge15" class="edge">
<title>dir_f8de85f281636d081fd2e7e06b0134d2&#45;&gt;dir_2171f7ec022c5423887b07c69b2f5b48</title>
<path fill="none" stroke="#000000" d="M414.6451,-143.9225C401.0705,-125.6434 379.344,-96.6496 360,-72 352.8714,-62.9161 344.9393,-53.0962 337.7948,-44.353"/>
<polygon fill="#000000" stroke="#000000" points="340.2863,-41.8716 331.2382,-36.3594 334.874,-46.3109 340.2863,-41.8716"/>
<g id="a_edge15&#45;headlabel"><a xlink:href="dir_000406_000076.html" target="_top" xlink:title="8">
<text text-anchor="middle" x="344.7612" y="-40.3502" font-family="Helvetica,sans-Serif" font-size="10.00" fill="#000000">8</text>
</a>
</g>
</g>
<!-- dir_26637d1bd82229bc9ed97f7e706be743&#45;&gt;dir_bcbb2cf9a3d3d83e5515c82071a07177 -->
<g id="edge13" class="edge">
<title>dir_26637d1bd82229bc9ed97f7e706be743&#45;&gt;dir_bcbb2cf9a3d3d83e5515c82071a07177</title>
<path fill="none" stroke="#000000" d="M263.664,-143.8314C271.9732,-135.2848 282.0264,-124.9443 291.0918,-115.6198"/>
<polygon fill="#000000" stroke="#000000" points="293.6369,-118.023 298.0982,-108.4133 288.6179,-113.1435 293.6369,-118.023"/>
<g id="a_edge13&#45;headlabel"><a xlink:href="dir_000553_000013.html" target="_top" xlink:title="25">
<text text-anchor="middle" x="293.1669" y="-120.0795" font-family="Helvetica,sans-Serif" font-size="10.00" fill="#000000">25</text>
</a>
</g>
</g>
<!-- dir_26637d1bd82229bc9ed97f7e706be743&#45;&gt;dir_2171f7ec022c5423887b07c69b2f5b48 -->
<g id="edge14" class="edge">
<title>dir_26637d1bd82229bc9ed97f7e706be743&#45;&gt;dir_2171f7ec022c5423887b07c69b2f5b48</title>
<path fill="none" stroke="#000000" d="M248.703,-143.9193C252.0311,-125.1278 258.8024,-95.2676 271,-72 276.2385,-62.0073 283.5624,-52.1892 290.7823,-43.723"/>
<polygon fill="#000000" stroke="#000000" points="293.5691,-45.8562 297.601,-36.0585 288.3392,-41.2033 293.5691,-45.8562"/>
<g id="a_edge14&#45;headlabel"><a xlink:href="dir_000553_000076.html" target="_top" xlink:title="15">
<text text-anchor="middle" x="293.3011" y="-47.929" font-family="Helvetica,sans-Serif" font-size="10.00" fill="#000000">15</text>
</a>
</g>
</g>
<!-- dir_2171f7ec022c5423887b07c69b2f5b48&#45;&gt;dir_bcbb2cf9a3d3d83e5515c82071a07177 -->
<g id="edge16" class="edge">
<title>dir_2171f7ec022c5423887b07c69b2f5b48&#45;&gt;dir_bcbb2cf9a3d3d83e5515c82071a07177</title>
<path fill="none" stroke="#000000" d="M321.976,-36.4133C322.7071,-44.0593 322.9203,-53.1084 322.6155,-61.5726"/>
<polygon fill="#000000" stroke="#000000" points="319.1048,-61.6264 321.9524,-71.8314 326.0902,-62.078 319.1048,-61.6264"/>
<g id="a_edge16&#45;headlabel"><a xlink:href="dir_000076_000013.html" target="_top" xlink:title="7">
<text text-anchor="middle" x="316.5032" y="-55.3562" font-family="Helvetica,sans-Serif" font-size="10.00" fill="#000000">7</text>
</a>
</g>
</g>
</g>
</svg>
