<?xml version="1.0" encoding="UTF-8" standalone="no"?>
<!DOCTYPE svg PUBLIC "-//W3C//DTD SVG 1.1//EN"
 "http://www.w3.org/Graphics/SVG/1.1/DTD/svg11.dtd">
<!-- Generated by graphviz version 2.40.1 (20161225.0304)
 -->
<!-- Title: /home/travis/build/AliceO2Group/AliceO2/Detectors/EMCAL/workflow/src Pages: 1 -->
<svg width="322pt" height="367pt"
 viewBox="0.00 0.00 322.36 367.00" xmlns="http://www.w3.org/2000/svg" xmlns:xlink="http://www.w3.org/1999/xlink">
<g id="graph0" class="graph" transform="scale(1 1) rotate(0) translate(4 363)">
<title>/home/travis/build/AliceO2Group/AliceO2/Detectors/EMCAL/workflow/src</title>
<g id="clust1" class="cluster">
<title>clusterdir_ee205545fda14b0cface4520402ad101</title>
<g id="a_clust1"><a xlink:href="dir_ee205545fda14b0cface4520402ad101.html" target="_top" xlink:title="workflow">
<polygon fill="#ddddee" stroke="#000000" points="94.3637,-280 94.3637,-351 164.3637,-351 164.3637,-280 94.3637,-280"/>
<text text-anchor="middle" x="129.3637" y="-339" font-family="Helvetica,sans-Serif" font-size="10.00" fill="#000000">workflow</text>
</a>
</g>
</g>
<!-- dir_fe570b66ee9607113976552ce149f8ae -->
<g id="node1" class="node">
<title>dir_fe570b66ee9607113976552ce149f8ae</title>
<g id="a_node1"><a xlink:href="dir_fe570b66ee9607113976552ce149f8ae.html" target="_top" xlink:title="src">
<polygon fill="#eeeeff" stroke="#000000" points="156.3637,-324 102.3637,-324 102.3637,-288 156.3637,-288 156.3637,-324"/>
<text text-anchor="middle" x="129.3637" y="-303.5" font-family="Helvetica,sans-Serif" font-size="10.00" fill="#000000">src</text>
</a>
</g>
</g>
<!-- dir_37c90836491b695b472bf98d1be8336b -->
<g id="node2" class="node">
<title>dir_37c90836491b695b472bf98d1be8336b</title>
<g id="a_node2"><a xlink:href="dir_37c90836491b695b472bf98d1be8336b.html" target="_top" xlink:title="Base">
<polygon fill="none" stroke="#ff0000" points="76.3637,-252 22.3637,-252 22.3637,-216 76.3637,-216 76.3637,-252"/>
<text text-anchor="middle" x="49.3637" y="-231.5" font-family="Helvetica,sans-Serif" font-size="10.00" fill="#000000">Base</text>
</a>
</g>
</g>
<!-- dir_fe570b66ee9607113976552ce149f8ae&#45;&gt;dir_37c90836491b695b472bf98d1be8336b -->
<g id="edge1" class="edge">
<title>dir_fe570b66ee9607113976552ce149f8ae&#45;&gt;dir_37c90836491b695b472bf98d1be8336b</title>
<path fill="none" stroke="#000000" d="M109.1763,-287.8314C99.5123,-279.1337 87.7841,-268.5783 77.282,-259.1265"/>
<polygon fill="#000000" stroke="#000000" points="79.3189,-256.251 69.5446,-252.1628 74.6362,-261.454 79.3189,-256.251"/>
<g id="a_edge1&#45;headlabel"><a xlink:href="dir_000398_000273.html" target="_top" xlink:title="1">
<text text-anchor="middle" x="83.8901" y="-254.0452" font-family="Helvetica,sans-Serif" font-size="10.00" fill="#000000">1</text>
</a>
</g>
</g>
<!-- dir_8ba487e25de5ee77e05e9dce7582cb98 -->
<g id="node3" class="node">
<title>dir_8ba487e25de5ee77e05e9dce7582cb98</title>
<g id="a_node3"><a xlink:href="dir_8ba487e25de5ee77e05e9dce7582cb98.html" target="_top" xlink:title="Algorithm">
<polygon fill="none" stroke="#ff0000" points="147.8637,-108 82.8637,-108 82.8637,-72 147.8637,-72 147.8637,-108"/>
<text text-anchor="middle" x="115.3637" y="-87.5" font-family="Helvetica,sans-Serif" font-size="10.00" fill="#000000">Algorithm</text>
</a>
</g>
</g>
<!-- dir_fe570b66ee9607113976552ce149f8ae&#45;&gt;dir_8ba487e25de5ee77e05e9dce7582cb98 -->
<g id="edge2" class="edge">
<title>dir_fe570b66ee9607113976552ce149f8ae&#45;&gt;dir_8ba487e25de5ee77e05e9dce7582cb98</title>
<path fill="none" stroke="#000000" d="M128.1941,-287.9555C125.7544,-250.3144 120.1073,-163.1867 117.1866,-118.1246"/>
<polygon fill="#000000" stroke="#000000" points="120.6793,-117.8977 116.5397,-108.1451 113.694,-118.3505 120.6793,-117.8977"/>
<g id="a_edge2&#45;headlabel"><a xlink:href="dir_000398_000000.html" target="_top" xlink:title="2">
<text text-anchor="middle" x="123.745" y="-118.8012" font-family="Helvetica,sans-Serif" font-size="10.00" fill="#000000">2</text>
</a>
</g>
</g>
<!-- dir_478733f24fb8878a4cdf7773310adedd -->
<g id="node4" class="node">
<title>dir_478733f24fb8878a4cdf7773310adedd</title>
<g id="a_node4"><a xlink:href="dir_478733f24fb8878a4cdf7773310adedd.html" target="_top" xlink:title="base">
<polygon fill="none" stroke="#ff0000" points="314.3637,-180 260.3637,-180 260.3637,-144 314.3637,-144 314.3637,-180"/>
<text text-anchor="middle" x="287.3637" y="-159.5" font-family="Helvetica,sans-Serif" font-size="10.00" fill="#000000">base</text>
</a>
</g>
</g>
<!-- dir_fe570b66ee9607113976552ce149f8ae&#45;&gt;dir_478733f24fb8878a4cdf7773310adedd -->
<g id="edge3" class="edge">
<title>dir_fe570b66ee9607113976552ce149f8ae&#45;&gt;dir_478733f24fb8878a4cdf7773310adedd</title>
<path fill="none" stroke="#000000" d="M156.4031,-301.3961C185.2485,-295.1133 230.4164,-281.1202 257.3637,-252 273.0317,-235.0686 280.5353,-209.7237 284.1183,-190.2398"/>
<polygon fill="#000000" stroke="#000000" points="287.6153,-190.5353 285.7325,-180.1091 280.7025,-189.4338 287.6153,-190.5353"/>
<g id="a_edge3&#45;headlabel"><a xlink:href="dir_000398_000199.html" target="_top" xlink:title="1">
<text text-anchor="middle" x="289.8537" y="-192.0318" font-family="Helvetica,sans-Serif" font-size="10.00" fill="#000000">1</text>
</a>
</g>
</g>
<!-- dir_bcbb2cf9a3d3d83e5515c82071a07177 -->
<g id="node5" class="node">
<title>dir_bcbb2cf9a3d3d83e5515c82071a07177</title>
<g id="a_node5"><a xlink:href="dir_bcbb2cf9a3d3d83e5515c82071a07177.html" target="_top" xlink:title="Framework">
<polygon fill="none" stroke="#ff0000" points="203.8637,-180 132.8637,-180 132.8637,-144 203.8637,-144 203.8637,-180"/>
<text text-anchor="middle" x="168.3637" y="-159.5" font-family="Helvetica,sans-Serif" font-size="10.00" fill="#000000">Framework</text>
</a>
</g>
</g>
<!-- dir_fe570b66ee9607113976552ce149f8ae&#45;&gt;dir_bcbb2cf9a3d3d83e5515c82071a07177 -->
<g id="edge4" class="edge">
<title>dir_fe570b66ee9607113976552ce149f8ae&#45;&gt;dir_bcbb2cf9a3d3d83e5515c82071a07177</title>
<path fill="none" stroke="#000000" d="M134.3031,-287.7623C140.9844,-263.0928 152.9642,-218.8598 160.7876,-189.9731"/>
<polygon fill="#000000" stroke="#000000" points="164.2285,-190.6569 163.4644,-180.0896 157.4719,-188.8269 164.2285,-190.6569"/>
<g id="a_edge4&#45;headlabel"><a xlink:href="dir_000398_000013.html" target="_top" xlink:title="12">
<text text-anchor="middle" x="166.0294" y="-192.3687" font-family="Helvetica,sans-Serif" font-size="10.00" fill="#000000">12</text>
</a>
</g>
</g>
<!-- dir_6dc85dba809f06ca1f8457b707bb34c8 -->
<g id="node6" class="node">
<title>dir_6dc85dba809f06ca1f8457b707bb34c8</title>
<g id="a_node6"><a xlink:href="dir_6dc85dba809f06ca1f8457b707bb34c8.html" target="_top" xlink:title="include">
<polygon fill="none" stroke="#ff0000" points="248.3637,-252 194.3637,-252 194.3637,-216 248.3637,-216 248.3637,-252"/>
<text text-anchor="middle" x="221.3637" y="-231.5" font-family="Helvetica,sans-Serif" font-size="10.00" fill="#000000">include</text>
</a>
</g>
</g>
<!-- dir_fe570b66ee9607113976552ce149f8ae&#45;&gt;dir_6dc85dba809f06ca1f8457b707bb34c8 -->
<g id="edge5" class="edge">
<title>dir_fe570b66ee9607113976552ce149f8ae&#45;&gt;dir_6dc85dba809f06ca1f8457b707bb34c8</title>
<path fill="none" stroke="#000000" d="M152.5792,-287.8314C163.9107,-278.9632 177.7101,-268.1637 189.9663,-258.5718"/>
<polygon fill="#000000" stroke="#000000" points="192.4376,-261.0822 198.1556,-252.1628 188.1235,-255.5697 192.4376,-261.0822"/>
<g id="a_edge5&#45;headlabel"><a xlink:href="dir_000398_000374.html" target="_top" xlink:title="12">
<text text-anchor="middle" x="191.3567" y="-263.0335" font-family="Helvetica,sans-Serif" font-size="10.00" fill="#000000">12</text>
</a>
</g>
</g>
<!-- dir_2171f7ec022c5423887b07c69b2f5b48 -->
<g id="node7" class="node">
<title>dir_2171f7ec022c5423887b07c69b2f5b48</title>
<g id="a_node7"><a xlink:href="dir_2171f7ec022c5423887b07c69b2f5b48.html" target="_top" xlink:title="DataFormats">
<polygon fill="none" stroke="#ff0000" points="155.3637,-36 75.3637,-36 75.3637,0 155.3637,0 155.3637,-36"/>
<text text-anchor="middle" x="115.3637" y="-15.5" font-family="Helvetica,sans-Serif" font-size="10.00" fill="#000000">DataFormats</text>
</a>
</g>
</g>
<!-- dir_fe570b66ee9607113976552ce149f8ae&#45;&gt;dir_2171f7ec022c5423887b07c69b2f5b48 -->
<g id="edge6" class="edge">
<title>dir_fe570b66ee9607113976552ce149f8ae&#45;&gt;dir_2171f7ec022c5423887b07c69b2f5b48</title>
<path fill="none" stroke="#000000" d="M102.2664,-301.8864C74.5338,-296.0756 32.8286,-282.532 13.3637,-252 -15.1283,-207.3086 3.7329,-159.5938 58.3637,-72 65.0702,-61.2469 74.4231,-51.1822 83.6157,-42.7241"/>
<polygon fill="#000000" stroke="#000000" points="86.0426,-45.2507 91.2382,-36.0173 81.4186,-39.9954 86.0426,-45.2507"/>
<g id="a_edge6&#45;headlabel"><a xlink:href="dir_000398_000076.html" target="_top" xlink:title="24">
<text text-anchor="middle" x="85.2194" y="-47.2568" font-family="Helvetica,sans-Serif" font-size="10.00" fill="#000000">24</text>
</a>
</g>
</g>
<!-- dir_37c90836491b695b472bf98d1be8336b&#45;&gt;dir_bcbb2cf9a3d3d83e5515c82071a07177 -->
<g id="edge7" class="edge">
<title>dir_37c90836491b695b472bf98d1be8336b&#45;&gt;dir_bcbb2cf9a3d3d83e5515c82071a07177</title>
<path fill="none" stroke="#000000" d="M76.3666,-217.6621C92.1333,-208.1226 112.2916,-195.926 129.7177,-185.3824"/>
<polygon fill="#000000" stroke="#000000" points="131.7997,-188.2136 138.5437,-180.0423 128.176,-182.2245 131.7997,-188.2136"/>
<g id="a_edge7&#45;headlabel"><a xlink:href="dir_000273_000013.html" target="_top" xlink:title="1">
<text text-anchor="middle" x="130.194" y="-190.0036" font-family="Helvetica,sans-Serif" font-size="10.00" fill="#000000">1</text>
</a>
</g>
</g>
<!-- dir_37c90836491b695b472bf98d1be8336b&#45;&gt;dir_2171f7ec022c5423887b07c69b2f5b48 -->
<g id="edge8" class="edge">
<title>dir_37c90836491b695b472bf98d1be8336b&#45;&gt;dir_2171f7ec022c5423887b07c69b2f5b48</title>
<path fill="none" stroke="#000000" d="M43.6066,-215.692C40.2895,-184.7935 43.4605,-120.8863 64.3637,-72 68.6099,-62.0693 75.1392,-52.3798 82.1971,-44.0134"/>
<polygon fill="#000000" stroke="#000000" points="84.9458,-46.1924 89.0687,-36.4326 79.7594,-41.4912 84.9458,-46.1924"/>
<g id="a_edge8&#45;headlabel"><a xlink:href="dir_000273_000076.html" target="_top" xlink:title="10">
<text text-anchor="middle" x="84.6354" y="-48.2625" font-family="Helvetica,sans-Serif" font-size="10.00" fill="#000000">10</text>
</a>
</g>
</g>
<!-- dir_8ba487e25de5ee77e05e9dce7582cb98&#45;&gt;dir_2171f7ec022c5423887b07c69b2f5b48 -->
<g id="edge9" class="edge">
<title>dir_8ba487e25de5ee77e05e9dce7582cb98&#45;&gt;dir_2171f7ec022c5423887b07c69b2f5b48</title>
<path fill="none" stroke="#000000" d="M109.4113,-71.8314C108.6609,-64.131 108.44,-54.9743 108.7486,-46.4166"/>
<polygon fill="#000000" stroke="#000000" points="112.2429,-46.6161 109.3877,-36.4133 105.2571,-46.1697 112.2429,-46.6161"/>
<g id="a_edge9&#45;headlabel"><a xlink:href="dir_000000_000076.html" target="_top" xlink:title="8">
<text text-anchor="middle" x="114.8473" y="-47.8844" font-family="Helvetica,sans-Serif" font-size="10.00" fill="#000000">8</text>
</a>
</g>
</g>
<!-- dir_478733f24fb8878a4cdf7773310adedd&#45;&gt;dir_2171f7ec022c5423887b07c69b2f5b48 -->
<g id="edge10" class="edge">
<title>dir_478733f24fb8878a4cdf7773310adedd&#45;&gt;dir_2171f7ec022c5423887b07c69b2f5b48</title>
<path fill="none" stroke="#000000" d="M283.3323,-143.7857C278.0299,-123.7524 266.8819,-91.7832 246.3637,-72 224.0464,-50.4822 191.9554,-37.0637 165.1219,-28.9848"/>
<polygon fill="#000000" stroke="#000000" points="166.0778,-25.6179 155.5015,-26.2448 164.1603,-32.3502 166.0778,-25.6179"/>
<g id="a_edge10&#45;headlabel"><a xlink:href="dir_000199_000076.html" target="_top" xlink:title="13">
<text text-anchor="middle" x="170.3126" y="-21.3718" font-family="Helvetica,sans-Serif" font-size="10.00" fill="#000000">13</text>
</a>
</g>
</g>
<!-- dir_bcbb2cf9a3d3d83e5515c82071a07177&#45;&gt;dir_8ba487e25de5ee77e05e9dce7582cb98 -->
<g id="edge11" class="edge">
<title>dir_bcbb2cf9a3d3d83e5515c82071a07177&#45;&gt;dir_8ba487e25de5ee77e05e9dce7582cb98</title>
<path fill="none" stroke="#000000" d="M154.9895,-143.8314C148.9474,-135.6232 141.6874,-125.7606 135.0416,-116.7323"/>
<polygon fill="#000000" stroke="#000000" points="137.6648,-114.3918 128.9179,-108.4133 132.0274,-118.5415 137.6648,-114.3918"/>
<g id="a_edge11&#45;headlabel"><a xlink:href="dir_000013_000000.html" target="_top" xlink:title="1">
<text text-anchor="middle" x="142.0823" y="-113.1035" font-family="Helvetica,sans-Serif" font-size="10.00" fill="#000000">1</text>
</a>
</g>
</g>
<!-- dir_bcbb2cf9a3d3d83e5515c82071a07177&#45;&gt;dir_2171f7ec022c5423887b07c69b2f5b48 -->
<g id="edge12" class="edge">
<title>dir_bcbb2cf9a3d3d83e5515c82071a07177&#45;&gt;dir_2171f7ec022c5423887b07c69b2f5b48</title>
<path fill="none" stroke="#000000" d="M161.867,-143.7104C159.2881,-125.0116 157.0353,-95.4637 147.3637,-72 143.3685,-62.3075 137.1907,-52.8232 131.2116,-44.5754"/>
<polygon fill="#000000" stroke="#000000" points="133.9435,-42.3842 125.1523,-36.4709 128.3371,-46.5758 133.9435,-42.3842"/>
<g id="a_edge12&#45;headlabel"><a xlink:href="dir_000013_000076.html" target="_top" xlink:title="82">
<text text-anchor="middle" x="138.3698" y="-41.063" font-family="Helvetica,sans-Serif" font-size="10.00" fill="#000000">82</text>
</a>
</g>
</g>
<!-- dir_6dc85dba809f06ca1f8457b707bb34c8&#45;&gt;dir_478733f24fb8878a4cdf7773310adedd -->
<g id="edge13" class="edge">
<title>dir_6dc85dba809f06ca1f8457b707bb34c8&#45;&gt;dir_478733f24fb8878a4cdf7773310adedd</title>
<path fill="none" stroke="#000000" d="M238.0183,-215.8314C245.7751,-207.3694 255.1438,-197.1489 263.6247,-187.8971"/>
<polygon fill="#000000" stroke="#000000" points="266.3076,-190.1499 270.4848,-180.4133 261.1475,-185.4198 266.3076,-190.1499"/>
<g id="a_edge13&#45;headlabel"><a xlink:href="dir_000374_000199.html" target="_top" xlink:title="3">
<text text-anchor="middle" x="265.9717" y="-192.2182" font-family="Helvetica,sans-Serif" font-size="10.00" fill="#000000">3</text>
</a>
</g>
</g>
<!-- dir_6dc85dba809f06ca1f8457b707bb34c8&#45;&gt;dir_bcbb2cf9a3d3d83e5515c82071a07177 -->
<g id="edge14" class="edge">
<title>dir_6dc85dba809f06ca1f8457b707bb34c8&#45;&gt;dir_bcbb2cf9a3d3d83e5515c82071a07177</title>
<path fill="none" stroke="#000000" d="M207.9895,-215.8314C201.9474,-207.6232 194.6874,-197.7606 188.0416,-188.7323"/>
<polygon fill="#000000" stroke="#000000" points="190.6648,-186.3918 181.9179,-180.4133 185.0274,-190.5415 190.6648,-186.3918"/>
<g id="a_edge14&#45;headlabel"><a xlink:href="dir_000374_000013.html" target="_top" xlink:title="14">
<text text-anchor="middle" x="195.0823" y="-185.1035" font-family="Helvetica,sans-Serif" font-size="10.00" fill="#000000">14</text>
</a>
</g>
</g>
<!-- dir_6dc85dba809f06ca1f8457b707bb34c8&#45;&gt;dir_2171f7ec022c5423887b07c69b2f5b48 -->
<g id="edge15" class="edge">
<title>dir_6dc85dba809f06ca1f8457b707bb34c8&#45;&gt;dir_2171f7ec022c5423887b07c69b2f5b48</title>
<path fill="none" stroke="#000000" d="M221.7694,-215.7694C221.5726,-183.5688 216.9602,-115.8885 184.3637,-72 175.9797,-60.7117 164.654,-50.5348 153.6042,-42.1386"/>
<polygon fill="#000000" stroke="#000000" points="155.4086,-39.1232 145.2614,-36.076 151.2935,-44.786 155.4086,-39.1232"/>
<g id="a_edge15&#45;headlabel"><a xlink:href="dir_000374_000076.html" target="_top" xlink:title="9">
<text text-anchor="middle" x="159.9855" y="-36.4394" font-family="Helvetica,sans-Serif" font-size="10.00" fill="#000000">9</text>
</a>
</g>
</g>
<!-- dir_2171f7ec022c5423887b07c69b2f5b48&#45;&gt;dir_37c90836491b695b472bf98d1be8336b -->
<g id="edge16" class="edge">
<title>dir_2171f7ec022c5423887b07c69b2f5b48&#45;&gt;dir_37c90836491b695b472bf98d1be8336b</title>
<path fill="none" stroke="#000000" d="M105.2147,-36.4326C97.5457,-46.2112 87.967,-58.8955 82.3637,-72 63.5018,-116.1122 59.078,-172.4548 55.6763,-205.74"/>
<polygon fill="#000000" stroke="#000000" points="52.1959,-205.3714 54.5908,-215.692 59.1546,-206.1305 52.1959,-205.3714"/>
<g id="a_edge16&#45;headlabel"><a xlink:href="dir_000076_000273.html" target="_top" xlink:title="1">
<text text-anchor="middle" x="49.763" y="-198.9901" font-family="Helvetica,sans-Serif" font-size="10.00" fill="#000000">1</text>
</a>
</g>
</g>
<!-- dir_2171f7ec022c5423887b07c69b2f5b48&#45;&gt;dir_8ba487e25de5ee77e05e9dce7582cb98 -->
<g id="edge17" class="edge">
<title>dir_2171f7ec022c5423887b07c69b2f5b48&#45;&gt;dir_8ba487e25de5ee77e05e9dce7582cb98</title>
<path fill="none" stroke="#000000" d="M121.3397,-36.4133C122.0708,-44.0593 122.284,-53.1084 121.9792,-61.5726"/>
<polygon fill="#000000" stroke="#000000" points="118.4685,-61.6264 121.3161,-71.8314 125.4539,-62.078 118.4685,-61.6264"/>
<g id="a_edge17&#45;headlabel"><a xlink:href="dir_000076_000000.html" target="_top" xlink:title="2">
<text text-anchor="middle" x="115.8669" y="-55.3562" font-family="Helvetica,sans-Serif" font-size="10.00" fill="#000000">2</text>
</a>
</g>
</g>
<!-- dir_2171f7ec022c5423887b07c69b2f5b48&#45;&gt;dir_bcbb2cf9a3d3d83e5515c82071a07177 -->
<g id="edge18" class="edge">
<title>dir_2171f7ec022c5423887b07c69b2f5b48&#45;&gt;dir_bcbb2cf9a3d3d83e5515c82071a07177</title>
<path fill="none" stroke="#000000" d="M141.2984,-36.4709C150.6354,-46.2592 159.9807,-58.9407 165.3637,-72 173.4486,-91.6142 176.3493,-115.4799 175.9743,-133.7058"/>
<polygon fill="#000000" stroke="#000000" points="172.4791,-133.5232 175.3895,-143.7104 179.4672,-133.9317 172.4791,-133.5232"/>
<g id="a_edge18&#45;headlabel"><a xlink:href="dir_000076_000013.html" target="_top" xlink:title="7">
<text text-anchor="middle" x="169.8544" y="-127.269" font-family="Helvetica,sans-Serif" font-size="10.00" fill="#000000">7</text>
</a>
</g>
</g>
</g>
</svg>
