<?xml version="1.0" encoding="UTF-8" standalone="no"?>
<!DOCTYPE svg PUBLIC "-//W3C//DTD SVG 1.1//EN"
 "http://www.w3.org/Graphics/SVG/1.1/DTD/svg11.dtd">
<!-- Generated by graphviz version 2.40.1 (20161225.0304)
 -->
<!-- Title: /home/travis/build/AliceO2Group/AliceO2/Detectors/TPC/reconstruction/include/TPCReconstruction Pages: 1 -->
<svg width="163pt" height="367pt"
 viewBox="0.00 0.00 163.42 367.00" xmlns="http://www.w3.org/2000/svg" xmlns:xlink="http://www.w3.org/1999/xlink">
<g id="graph0" class="graph" transform="scale(1 1) rotate(0) translate(4 363)">
<title>/home/travis/build/AliceO2Group/AliceO2/Detectors/TPC/reconstruction/include/TPCReconstruction</title>
<g id="clust1" class="cluster">
<title>clusterdir_396d171119822f66a36fe1ebf998d1a3</title>
<g id="a_clust1"><a xlink:href="dir_396d171119822f66a36fe1ebf998d1a3.html" target="_top" xlink:title="include">
<polygon fill="#ddddee" stroke="#000000" points="22.6204,-280 22.6204,-351 144.6204,-351 144.6204,-280 22.6204,-280"/>
<text text-anchor="middle" x="83.6204" y="-339" font-family="Helvetica,sans-Serif" font-size="10.00" fill="#000000">include</text>
</a>
</g>
</g>
<!-- dir_1dfaa3fb6e801ddc70b8194facd2138d -->
<g id="node1" class="node">
<title>dir_1dfaa3fb6e801ddc70b8194facd2138d</title>
<g id="a_node1"><a xlink:href="dir_1dfaa3fb6e801ddc70b8194facd2138d.html" target="_top" xlink:title="TPCReconstruction">
<polygon fill="#eeeeff" stroke="#000000" points="137.1204,-324 30.1204,-324 30.1204,-288 137.1204,-288 137.1204,-324"/>
<text text-anchor="middle" x="83.6204" y="-303.5" font-family="Helvetica,sans-Serif" font-size="10.00" fill="#000000">TPCReconstruction</text>
</a>
</g>
</g>
<!-- dir_677b030cc750909e4cd27413873678d8 -->
<g id="node2" class="node">
<title>dir_677b030cc750909e4cd27413873678d8</title>
<g id="a_node2"><a xlink:href="dir_677b030cc750909e4cd27413873678d8.html" target="_top" xlink:title="base">
<polygon fill="none" stroke="#ff0000" points="138.6204,-252 84.6204,-252 84.6204,-216 138.6204,-216 138.6204,-252"/>
<text text-anchor="middle" x="111.6204" y="-231.5" font-family="Helvetica,sans-Serif" font-size="10.00" fill="#000000">base</text>
</a>
</g>
</g>
<!-- dir_1dfaa3fb6e801ddc70b8194facd2138d&#45;&gt;dir_677b030cc750909e4cd27413873678d8 -->
<g id="edge9" class="edge">
<title>dir_1dfaa3fb6e801ddc70b8194facd2138d&#45;&gt;dir_677b030cc750909e4cd27413873678d8</title>
<path fill="none" stroke="#000000" d="M90.686,-287.8314C93.7464,-279.9617 97.3983,-270.5712 100.7886,-261.8533"/>
<polygon fill="#000000" stroke="#000000" points="104.0972,-263.0019 104.4597,-252.4133 97.5732,-260.4647 104.0972,-263.0019"/>
<g id="a_edge9&#45;headlabel"><a xlink:href="dir_000365_000050.html" target="_top" xlink:title="10">
<text text-anchor="middle" x="105.4406" y="-264.8812" font-family="Helvetica,sans-Serif" font-size="10.00" fill="#000000">10</text>
</a>
</g>
</g>
<!-- dir_4ab6b4cc6a7edbff49100e9123df213f -->
<g id="node3" class="node">
<title>dir_4ab6b4cc6a7edbff49100e9123df213f</title>
<g id="a_node3"><a xlink:href="dir_4ab6b4cc6a7edbff49100e9123df213f.html" target="_top" xlink:title="Common">
<polygon fill="none" stroke="#ff0000" points="74.1204,-180 13.1204,-180 13.1204,-144 74.1204,-144 74.1204,-180"/>
<text text-anchor="middle" x="43.6204" y="-159.5" font-family="Helvetica,sans-Serif" font-size="10.00" fill="#000000">Common</text>
</a>
</g>
</g>
<!-- dir_1dfaa3fb6e801ddc70b8194facd2138d&#45;&gt;dir_4ab6b4cc6a7edbff49100e9123df213f -->
<g id="edge10" class="edge">
<title>dir_1dfaa3fb6e801ddc70b8194facd2138d&#45;&gt;dir_4ab6b4cc6a7edbff49100e9123df213f</title>
<path fill="none" stroke="#000000" d="M78.5544,-287.7623C71.7018,-263.0928 59.4148,-218.8598 51.3907,-189.9731"/>
<polygon fill="#000000" stroke="#000000" points="54.6941,-188.788 48.6453,-180.0896 47.9495,-190.6616 54.6941,-188.788"/>
<g id="a_edge10&#45;headlabel"><a xlink:href="dir_000365_000027.html" target="_top" xlink:title="2">
<text text-anchor="middle" x="58.3918" y="-188.9916" font-family="Helvetica,sans-Serif" font-size="10.00" fill="#000000">2</text>
</a>
</g>
</g>
<!-- dir_f511f1e9c03c071966ae594f00bbc5e0 -->
<g id="node4" class="node">
<title>dir_f511f1e9c03c071966ae594f00bbc5e0</title>
<g id="a_node4"><a xlink:href="dir_f511f1e9c03c071966ae594f00bbc5e0.html" target="_top" xlink:title="GPU">
<polygon fill="none" stroke="#ff0000" points="130.6204,-108 76.6204,-108 76.6204,-72 130.6204,-72 130.6204,-108"/>
<text text-anchor="middle" x="103.6204" y="-87.5" font-family="Helvetica,sans-Serif" font-size="10.00" fill="#000000">GPU</text>
</a>
</g>
</g>
<!-- dir_1dfaa3fb6e801ddc70b8194facd2138d&#45;&gt;dir_f511f1e9c03c071966ae594f00bbc5e0 -->
<g id="edge11" class="edge">
<title>dir_1dfaa3fb6e801ddc70b8194facd2138d&#45;&gt;dir_f511f1e9c03c071966ae594f00bbc5e0</title>
<path fill="none" stroke="#000000" d="M115.0765,-287.9802C127.6517,-278.9479 140.7593,-266.7662 147.6204,-252 168.6119,-206.8231 141.9557,-149.7528 121.9217,-116.812"/>
<polygon fill="#000000" stroke="#000000" points="124.7827,-114.787 116.4918,-108.1908 118.8596,-118.5176 124.7827,-114.787"/>
<g id="a_edge11&#45;headlabel"><a xlink:href="dir_000365_000667.html" target="_top" xlink:title="1">
<text text-anchor="middle" x="129.1009" y="-113.8155" font-family="Helvetica,sans-Serif" font-size="10.00" fill="#000000">1</text>
</a>
</g>
</g>
<!-- dir_2171f7ec022c5423887b07c69b2f5b48 -->
<g id="node5" class="node">
<title>dir_2171f7ec022c5423887b07c69b2f5b48</title>
<g id="a_node5"><a xlink:href="dir_2171f7ec022c5423887b07c69b2f5b48.html" target="_top" xlink:title="DataFormats">
<polygon fill="none" stroke="#ff0000" points="111.6204,-36 31.6204,-36 31.6204,0 111.6204,0 111.6204,-36"/>
<text text-anchor="middle" x="71.6204" y="-15.5" font-family="Helvetica,sans-Serif" font-size="10.00" fill="#000000">DataFormats</text>
</a>
</g>
</g>
<!-- dir_1dfaa3fb6e801ddc70b8194facd2138d&#45;&gt;dir_2171f7ec022c5423887b07c69b2f5b48 -->
<g id="edge12" class="edge">
<title>dir_1dfaa3fb6e801ddc70b8194facd2138d&#45;&gt;dir_2171f7ec022c5423887b07c69b2f5b48</title>
<path fill="none" stroke="#000000" d="M67.1084,-287.6241C47.5271,-264.4737 15.9868,-222.5484 3.6204,-180 -10.7586,-130.527 23.4386,-75.8153 48.3713,-44.3145"/>
<polygon fill="#000000" stroke="#000000" points="51.1816,-46.4066 54.7922,-36.4459 45.7581,-41.9809 51.1816,-46.4066"/>
<g id="a_edge12&#45;headlabel"><a xlink:href="dir_000365_000076.html" target="_top" xlink:title="17">
<text text-anchor="middle" x="51.1088" y="-48.4867" font-family="Helvetica,sans-Serif" font-size="10.00" fill="#000000">17</text>
</a>
</g>
</g>
<!-- dir_677b030cc750909e4cd27413873678d8&#45;&gt;dir_4ab6b4cc6a7edbff49100e9123df213f -->
<g id="edge1" class="edge">
<title>dir_677b030cc750909e4cd27413873678d8&#45;&gt;dir_4ab6b4cc6a7edbff49100e9123df213f</title>
<path fill="none" stroke="#000000" d="M94.4611,-215.8314C86.4693,-207.3694 76.8166,-197.1489 68.0788,-187.8971"/>
<polygon fill="#000000" stroke="#000000" points="70.4215,-185.2802 61.0107,-180.4133 65.3324,-190.0866 70.4215,-185.2802"/>
<g id="a_edge1&#45;headlabel"><a xlink:href="dir_000050_000027.html" target="_top" xlink:title="12">
<text text-anchor="middle" x="74.9538" y="-183.444" font-family="Helvetica,sans-Serif" font-size="10.00" fill="#000000">12</text>
</a>
</g>
</g>
<!-- dir_677b030cc750909e4cd27413873678d8&#45;&gt;dir_f511f1e9c03c071966ae594f00bbc5e0 -->
<g id="edge2" class="edge">
<title>dir_677b030cc750909e4cd27413873678d8&#45;&gt;dir_f511f1e9c03c071966ae594f00bbc5e0</title>
<path fill="none" stroke="#000000" d="M105.934,-215.7623C102.1097,-191.201 99.3931,-147.2474 99.6982,-118.3541"/>
<polygon fill="#000000" stroke="#000000" points="103.2039,-118.1779 99.9671,-108.0896 96.2063,-117.9945 103.2039,-118.1779"/>
<g id="a_edge2&#45;headlabel"><a xlink:href="dir_000050_000667.html" target="_top" xlink:title="2">
<text text-anchor="middle" x="105.9482" y="-119.3456" font-family="Helvetica,sans-Serif" font-size="10.00" fill="#000000">2</text>
</a>
</g>
</g>
<!-- dir_677b030cc750909e4cd27413873678d8&#45;&gt;dir_2171f7ec022c5423887b07c69b2f5b48 -->
<g id="edge3" class="edge">
<title>dir_677b030cc750909e4cd27413873678d8&#45;&gt;dir_2171f7ec022c5423887b07c69b2f5b48</title>
<path fill="none" stroke="#000000" d="M121.5599,-215.7621C137.0528,-184.6941 162.8898,-120.1926 139.6204,-72 133.931,-60.2168 124.2827,-50.2163 114.0139,-42.144"/>
<polygon fill="#000000" stroke="#000000" points="115.8511,-39.152 105.7094,-36.0865 111.7259,-44.8073 115.8511,-39.152"/>
<g id="a_edge3&#45;headlabel"><a xlink:href="dir_000050_000076.html" target="_top" xlink:title="15">
<text text-anchor="middle" x="120.4284" y="-36.4764" font-family="Helvetica,sans-Serif" font-size="10.00" fill="#000000">15</text>
</a>
</g>
</g>
<!-- dir_4ab6b4cc6a7edbff49100e9123df213f&#45;&gt;dir_f511f1e9c03c071966ae594f00bbc5e0 -->
<g id="edge4" class="edge">
<title>dir_4ab6b4cc6a7edbff49100e9123df213f&#45;&gt;dir_f511f1e9c03c071966ae594f00bbc5e0</title>
<path fill="none" stroke="#000000" d="M52.8086,-143.8314C59.0356,-135.3694 67.3674,-125.1489 75.5315,-115.8971"/>
<polygon fill="#000000" stroke="#000000" points="78.1881,-118.1776 82.3,-108.4133 72.9964,-113.4822 78.1881,-118.1776"/>
<g id="a_edge4&#45;headlabel"><a xlink:href="dir_000027_000667.html" target="_top" xlink:title="3">
<text text-anchor="middle" x="77.8827" y="-120.2481" font-family="Helvetica,sans-Serif" font-size="10.00" fill="#000000">3</text>
</a>
</g>
</g>
<!-- dir_4ab6b4cc6a7edbff49100e9123df213f&#45;&gt;dir_2171f7ec022c5423887b07c69b2f5b48 -->
<g id="edge5" class="edge">
<title>dir_4ab6b4cc6a7edbff49100e9123df213f&#45;&gt;dir_2171f7ec022c5423887b07c69b2f5b48</title>
<path fill="none" stroke="#000000" d="M42.4935,-143.7623C44.8197,-119.0928 53.1542,-74.8598 60.7092,-45.9731"/>
<polygon fill="#000000" stroke="#000000" points="64.1503,-46.6609 63.4447,-36.0896 57.4039,-44.7936 64.1503,-46.6609"/>
<g id="a_edge5&#45;headlabel"><a xlink:href="dir_000027_000076.html" target="_top" xlink:title="2">
<text text-anchor="middle" x="65.9279" y="-48.3826" font-family="Helvetica,sans-Serif" font-size="10.00" fill="#000000">2</text>
</a>
</g>
</g>
<!-- dir_f511f1e9c03c071966ae594f00bbc5e0&#45;&gt;dir_677b030cc750909e4cd27413873678d8 -->
<g id="edge6" class="edge">
<title>dir_f511f1e9c03c071966ae594f00bbc5e0&#45;&gt;dir_677b030cc750909e4cd27413873678d8</title>
<path fill="none" stroke="#000000" d="M109.2837,-108.0896C113.1125,-132.5727 115.8374,-176.5174 115.5444,-205.4713"/>
<polygon fill="#000000" stroke="#000000" points="112.0381,-205.6758 115.2804,-215.7623 119.0358,-205.8554 112.0381,-205.6758"/>
<g id="a_edge6&#45;headlabel"><a xlink:href="dir_000667_000050.html" target="_top" xlink:title="3">
<text text-anchor="middle" x="109.2919" y="-199.5096" font-family="Helvetica,sans-Serif" font-size="10.00" fill="#000000">3</text>
</a>
</g>
</g>
<!-- dir_f511f1e9c03c071966ae594f00bbc5e0&#45;&gt;dir_4ab6b4cc6a7edbff49100e9123df213f -->
<g id="edge7" class="edge">
<title>dir_f511f1e9c03c071966ae594f00bbc5e0&#45;&gt;dir_4ab6b4cc6a7edbff49100e9123df213f</title>
<path fill="none" stroke="#000000" d="M94.252,-108.4133C87.9848,-116.9088 79.6345,-127.1366 71.4738,-136.3696"/>
<polygon fill="#000000" stroke="#000000" points="68.8338,-134.0706 64.7133,-143.8314 74.0214,-138.7706 68.8338,-134.0706"/>
<g id="a_edge7&#45;headlabel"><a xlink:href="dir_000667_000027.html" target="_top" xlink:title="2">
<text text-anchor="middle" x="69.1432" y="-127.0004" font-family="Helvetica,sans-Serif" font-size="10.00" fill="#000000">2</text>
</a>
</g>
</g>
<!-- dir_f511f1e9c03c071966ae594f00bbc5e0&#45;&gt;dir_2171f7ec022c5423887b07c69b2f5b48 -->
<g id="edge8" class="edge">
<title>dir_f511f1e9c03c071966ae594f00bbc5e0&#45;&gt;dir_2171f7ec022c5423887b07c69b2f5b48</title>
<path fill="none" stroke="#000000" d="M89.5931,-71.8314C85.3285,-63.9617 80.9411,-54.5712 77.4057,-45.8533"/>
<polygon fill="#000000" stroke="#000000" points="80.6449,-44.5239 73.8281,-36.4133 74.0992,-47.0046 80.6449,-44.5239"/>
<g id="a_edge8&#45;headlabel"><a xlink:href="dir_000667_000076.html" target="_top" xlink:title="12">
<text text-anchor="middle" x="84.5737" y="-44.379" font-family="Helvetica,sans-Serif" font-size="10.00" fill="#000000">12</text>
</a>
</g>
</g>
<!-- dir_2171f7ec022c5423887b07c69b2f5b48&#45;&gt;dir_4ab6b4cc6a7edbff49100e9123df213f -->
<g id="edge13" class="edge">
<title>dir_2171f7ec022c5423887b07c69b2f5b48&#45;&gt;dir_4ab6b4cc6a7edbff49100e9123df213f</title>
<path fill="none" stroke="#000000" d="M72.7613,-36.0896C70.4592,-60.6805 62.1351,-104.905 54.5771,-133.8531"/>
<polygon fill="#000000" stroke="#000000" points="51.1289,-133.1913 51.8398,-143.7623 57.8762,-135.0552 51.1289,-133.1913"/>
<g id="a_edge13&#45;headlabel"><a xlink:href="dir_000076_000027.html" target="_top" xlink:title="34">
<text text-anchor="middle" x="49.3492" y="-126.4705" font-family="Helvetica,sans-Serif" font-size="10.00" fill="#000000">34</text>
</a>
</g>
</g>
<!-- dir_2171f7ec022c5423887b07c69b2f5b48&#45;&gt;dir_f511f1e9c03c071966ae594f00bbc5e0 -->
<g id="edge14" class="edge">
<title>dir_2171f7ec022c5423887b07c69b2f5b48&#45;&gt;dir_f511f1e9c03c071966ae594f00bbc5e0</title>
<path fill="none" stroke="#000000" d="M85.7801,-36.4133C90.0471,-44.3141 94.4269,-53.7132 97.9446,-62.417"/>
<polygon fill="#000000" stroke="#000000" points="94.6921,-63.7115 101.4979,-71.8314 101.2411,-61.2396 94.6921,-63.7115"/>
<g id="a_edge14&#45;headlabel"><a xlink:href="dir_000076_000667.html" target="_top" xlink:title="15">
<text text-anchor="middle" x="90.7665" y="-58.851" font-family="Helvetica,sans-Serif" font-size="10.00" fill="#000000">15</text>
</a>
</g>
</g>
</g>
</svg>
