<?xml version="1.0" encoding="UTF-8" standalone="no"?>
<!DOCTYPE svg PUBLIC "-//W3C//DTD SVG 1.1//EN"
 "http://www.w3.org/Graphics/SVG/1.1/DTD/svg11.dtd">
<!-- Generated by graphviz version 2.40.1 (20161225.0304)
 -->
<!-- Title: /home/travis/build/AliceO2Group/AliceO2/Detectors/TPC/reconstruction Pages: 1 -->
<!--zoomable 519 -->
<svg id="main" version="1.1" xmlns="http://www.w3.org/2000/svg" xmlns:xlink="http://www.w3.org/1999/xlink" xml:space="preserve" onload="init(evt)">
<style type="text/css"><![CDATA[
.edge:hover path { stroke: red; }
.edge:hover polygon { stroke: red; fill: red; }
]]></style>
<script type="text/javascript"><![CDATA[
var edges = document.getElementsByTagName('g');
if (edges && edges.length) {
  for (var i=0;i<edges.length;i++) {
    if (edges[i].id.substr(0,4)=='edge') {
      edges[i].setAttribute('class','edge');
    }
  }
}
]]></script>
        <defs>
                <circle id="rim" cx="0" cy="0" r="7"/>
                <circle id="rim2" cx="0" cy="0" r="3.5"/>
                <g id="zoomPlus">
                        <use xlink:href="#rim" fill="#404040">
                                <set attributeName="fill" to="#808080" begin="zoomplus.mouseover" end="zoomplus.mouseout"/>
                        </use>
                        <path d="M-4,0h8M0,-4v8" fill="none" stroke="white" stroke-width="1.5" pointer-events="none"/>
                </g>
                <g id="zoomMin">
                        <use xlink:href="#rim" fill="#404040">
                                <set attributeName="fill" to="#808080" begin="zoomminus.mouseover" end="zoomminus.mouseout"/>
                        </use>
                        <path d="M-4,0h8" fill="none" stroke="white" stroke-width="1.5" pointer-events="none"/>
                </g>
                <g id="dirArrow">
                        <path fill="none" stroke="white" stroke-width="1.5" d="M0,-3.0v7 M-2.5,-0.5L0,-3.0L2.5,-0.5"/>
                </g>
               <g id="resetDef">
                       <use xlink:href="#rim2" fill="#404040">
                               <set attributeName="fill" to="#808080" begin="reset.mouseover" end="reset.mouseout"/>
                       </use>
               </g>
        </defs>

<script type="text/javascript">
var viewWidth = 564;
var viewHeight = 519;
var sectionId = 'dynsection-0';
</script>
<script xlink:href="svgpan.js"/>
<svg id="graph" class="graph">
<g id="viewport">
<title>/home/travis/build/AliceO2Group/AliceO2/Detectors/TPC/reconstruction</title>
<g id="clust1" class="cluster">
<title>clusterdir_a597e8e061b11201a1dff411feb10d0b</title>
<g id="a_clust1"><a xlink:href="dir_a597e8e061b11201a1dff411feb10d0b.html" target="_top" xlink:title="TPC">
<polygon fill="#ddddee" stroke="#000000" points="8,-344 8,-503 342,-503 342,-344 8,-344"/>
<text text-anchor="middle" x="175" y="-491" font-family="Helvetica,sans-Serif" font-size="10.00" fill="#000000">TPC</text>
</a>
</g>
</g>
<g id="clust2" class="cluster">
<title>clusterdir_a5de047958dd458e809773c6ffaa8478</title>
<g id="a_clust2"><a xlink:href="dir_a5de047958dd458e809773c6ffaa8478.html" target="_top">
<polygon fill="#eeeeff" stroke="#000000" points="16,-352 16,-476 334,-476 334,-352 16,-352"/>
</a>
</g>
</g>
<!-- dir_a5de047958dd458e809773c6ffaa8478 -->
<g id="node1" class="node">
<title>dir_a5de047958dd458e809773c6ffaa8478</title>
<text text-anchor="middle" x="283" y="-447.5" font-family="Helvetica,sans-Serif" font-size="10.00" fill="#000000">reconstruction</text>
</g>
<!-- dir_396d171119822f66a36fe1ebf998d1a3 -->
<g id="node2" class="node">
<title>dir_396d171119822f66a36fe1ebf998d1a3</title>
<g id="a_node2"><a xlink:href="dir_396d171119822f66a36fe1ebf998d1a3.html" target="_top" xlink:title="include">
<polygon fill="#ffffff" stroke="#ff0000" points="202,-396 148,-396 148,-360 202,-360 202,-396"/>
<text text-anchor="middle" x="175" y="-375.5" font-family="Helvetica,sans-Serif" font-size="10.00" fill="#000000">include</text>
</a>
</g>
</g>
<!-- dir_677b030cc750909e4cd27413873678d8 -->
<g id="node6" class="node">
<title>dir_677b030cc750909e4cd27413873678d8</title>
<g id="a_node6"><a xlink:href="dir_677b030cc750909e4cd27413873678d8.html" target="_top" xlink:title="base">
<polygon fill="none" stroke="#ff0000" points="404,-396 350,-396 350,-360 404,-360 404,-396"/>
<text text-anchor="middle" x="377" y="-375.5" font-family="Helvetica,sans-Serif" font-size="10.00" fill="#000000">base</text>
</a>
</g>
</g>
<!-- dir_396d171119822f66a36fe1ebf998d1a3&#45;&gt;dir_677b030cc750909e4cd27413873678d8 -->
<g id="edge11" class="edge">
<title>dir_396d171119822f66a36fe1ebf998d1a3&#45;&gt;dir_677b030cc750909e4cd27413873678d8</title>
<path fill="none" stroke="#000000" d="M202.2227,-378C248.0185,-378 293.8143,-378 339.6102,-378"/>
<polygon fill="#000000" stroke="#000000" points="339.6911,-381.5001 349.691,-378 339.691,-374.5001 339.6911,-381.5001"/>
<g id="a_edge11&#45;headlabel"><a xlink:href="dir_000364_000050.html" target="_top" xlink:title="10">
<text text-anchor="middle" x="336.0964" y="-381.8393" font-family="Helvetica,sans-Serif" font-size="10.00" fill="#000000">10</text>
</a>
</g>
</g>
<!-- dir_4ab6b4cc6a7edbff49100e9123df213f -->
<g id="node7" class="node">
<title>dir_4ab6b4cc6a7edbff49100e9123df213f</title>
<g id="a_node7"><a xlink:href="dir_4ab6b4cc6a7edbff49100e9123df213f.html" target="_top" xlink:title="Common">
<polygon fill="none" stroke="#ff0000" points="205.5,-324 144.5,-324 144.5,-288 205.5,-288 205.5,-324"/>
<text text-anchor="middle" x="175" y="-303.5" font-family="Helvetica,sans-Serif" font-size="10.00" fill="#000000">Common</text>
</a>
</g>
</g>
<!-- dir_396d171119822f66a36fe1ebf998d1a3&#45;&gt;dir_4ab6b4cc6a7edbff49100e9123df213f -->
<g id="edge12" class="edge">
<title>dir_396d171119822f66a36fe1ebf998d1a3&#45;&gt;dir_4ab6b4cc6a7edbff49100e9123df213f</title>
<path fill="none" stroke="#000000" d="M175,-359.8314C175,-352.131 175,-342.9743 175,-334.4166"/>
<polygon fill="#000000" stroke="#000000" points="178.5001,-334.4132 175,-324.4133 171.5001,-334.4133 178.5001,-334.4132"/>
<g id="a_edge12&#45;headlabel"><a xlink:href="dir_000364_000027.html" target="_top" xlink:title="2">
<text text-anchor="middle" x="181.3393" y="-335.5079" font-family="Helvetica,sans-Serif" font-size="10.00" fill="#000000">2</text>
</a>
</g>
</g>
<!-- dir_f511f1e9c03c071966ae594f00bbc5e0 -->
<g id="node8" class="node">
<title>dir_f511f1e9c03c071966ae594f00bbc5e0</title>
<g id="a_node8"><a xlink:href="dir_f511f1e9c03c071966ae594f00bbc5e0.html" target="_top" xlink:title="GPU">
<polygon fill="none" stroke="#ff0000" points="302,-252 248,-252 248,-216 302,-216 302,-252"/>
<text text-anchor="middle" x="275" y="-231.5" font-family="Helvetica,sans-Serif" font-size="10.00" fill="#000000">GPU</text>
</a>
</g>
</g>
<!-- dir_396d171119822f66a36fe1ebf998d1a3&#45;&gt;dir_f511f1e9c03c071966ae594f00bbc5e0 -->
<g id="edge13" class="edge">
<title>dir_396d171119822f66a36fe1ebf998d1a3&#45;&gt;dir_f511f1e9c03c071966ae594f00bbc5e0</title>
<path fill="none" stroke="#000000" d="M188.928,-359.6705C196.7232,-349.2949 206.5453,-336.0256 215,-324 229.7157,-303.069 245.7631,-278.9242 257.5563,-260.9156"/>
<polygon fill="#000000" stroke="#000000" points="260.7708,-262.3942 263.306,-252.1071 254.909,-258.5679 260.7708,-262.3942"/>
<g id="a_edge13&#45;headlabel"><a xlink:href="dir_000364_000667.html" target="_top" xlink:title="1">
<text text-anchor="middle" x="261.1836" y="-264.4562" font-family="Helvetica,sans-Serif" font-size="10.00" fill="#000000">1</text>
</a>
</g>
</g>
<!-- dir_2171f7ec022c5423887b07c69b2f5b48 -->
<g id="node11" class="node">
<title>dir_2171f7ec022c5423887b07c69b2f5b48</title>
<g id="a_node11"><a xlink:href="dir_2171f7ec022c5423887b07c69b2f5b48.html" target="_top" xlink:title="DataFormats">
<polygon fill="none" stroke="#ff0000" points="226,-108 146,-108 146,-72 226,-72 226,-108"/>
<text text-anchor="middle" x="186" y="-87.5" font-family="Helvetica,sans-Serif" font-size="10.00" fill="#000000">DataFormats</text>
</a>
</g>
</g>
<!-- dir_396d171119822f66a36fe1ebf998d1a3&#45;&gt;dir_2171f7ec022c5423887b07c69b2f5b48 -->
<g id="edge14" class="edge">
<title>dir_396d171119822f66a36fe1ebf998d1a3&#45;&gt;dir_2171f7ec022c5423887b07c69b2f5b48</title>
<path fill="none" stroke="#000000" d="M157.2892,-359.6517C149.1058,-349.8946 140.2696,-337.2041 136,-324 112.3636,-250.9025 148.9684,-161.3034 171.1141,-117.189"/>
<polygon fill="#000000" stroke="#000000" points="174.2574,-118.73 175.7259,-108.2374 168.0346,-115.5241 174.2574,-118.73"/>
<g id="a_edge14&#45;headlabel"><a xlink:href="dir_000364_000076.html" target="_top" xlink:title="17">
<text text-anchor="middle" x="175.1351" y="-120.7258" font-family="Helvetica,sans-Serif" font-size="10.00" fill="#000000">17</text>
</a>
</g>
</g>
<!-- dir_f9c1a6d4eb662f0614520771b81d0fc2 -->
<g id="node3" class="node">
<title>dir_f9c1a6d4eb662f0614520771b81d0fc2</title>
<g id="a_node3"><a xlink:href="dir_f9c1a6d4eb662f0614520771b81d0fc2.html" target="_top" xlink:title="run">
<polygon fill="#ffffff" stroke="#000000" points="150,-468 96,-468 96,-432 150,-432 150,-468"/>
<text text-anchor="middle" x="123" y="-447.5" font-family="Helvetica,sans-Serif" font-size="10.00" fill="#000000">run</text>
</a>
</g>
</g>
<!-- dir_f9c1a6d4eb662f0614520771b81d0fc2&#45;&gt;dir_396d171119822f66a36fe1ebf998d1a3 -->
<g id="edge2" class="edge">
<title>dir_f9c1a6d4eb662f0614520771b81d0fc2&#45;&gt;dir_396d171119822f66a36fe1ebf998d1a3</title>
<path fill="none" stroke="#000000" d="M136.1218,-431.8314C142.0499,-423.6232 149.1729,-413.7606 155.6933,-404.7323"/>
<polygon fill="#000000" stroke="#000000" points="158.684,-406.5693 161.7015,-396.4133 153.0092,-402.4708 158.684,-406.5693"/>
<g id="a_edge2&#45;headlabel"><a xlink:href="dir_000600_000364.html" target="_top" xlink:title="5">
<text text-anchor="middle" x="158.8811" y="-408.6457" font-family="Helvetica,sans-Serif" font-size="10.00" fill="#000000">5</text>
</a>
</g>
</g>
<!-- dir_f9c1a6d4eb662f0614520771b81d0fc2&#45;&gt;dir_677b030cc750909e4cd27413873678d8 -->
<g id="edge1" class="edge">
<title>dir_f9c1a6d4eb662f0614520771b81d0fc2&#45;&gt;dir_677b030cc750909e4cd27413873678d8</title>
<path fill="none" stroke="#000000" d="M150.193,-435.4685C153.1207,-434.187 156.0924,-432.9994 159,-432 235.7421,-405.6231 260.8553,-421.175 338,-396 338.7178,-395.7658 339.4398,-395.5219 340.1646,-395.2695"/>
<polygon fill="#000000" stroke="#000000" points="341.5659,-398.4801 349.6243,-391.6017 339.0353,-391.9535 341.5659,-398.4801"/>
<g id="a_edge1&#45;headlabel"><a xlink:href="dir_000600_000050.html" target="_top" xlink:title="2">
<text text-anchor="middle" x="339.2408" y="-399.9268" font-family="Helvetica,sans-Serif" font-size="10.00" fill="#000000">2</text>
</a>
</g>
</g>
<!-- dir_0c8c50542de1d83a040084fab225b0f7 -->
<g id="node4" class="node">
<title>dir_0c8c50542de1d83a040084fab225b0f7</title>
<g id="a_node4"><a xlink:href="dir_0c8c50542de1d83a040084fab225b0f7.html" target="_top" xlink:title="src">
<polygon fill="#ffffff" stroke="#000000" points="222,-468 168,-468 168,-432 222,-432 222,-468"/>
<text text-anchor="middle" x="195" y="-447.5" font-family="Helvetica,sans-Serif" font-size="10.00" fill="#000000">src</text>
</a>
</g>
</g>
<!-- dir_0c8c50542de1d83a040084fab225b0f7&#45;&gt;dir_396d171119822f66a36fe1ebf998d1a3 -->
<g id="edge26" class="edge">
<title>dir_0c8c50542de1d83a040084fab225b0f7&#45;&gt;dir_396d171119822f66a36fe1ebf998d1a3</title>
<path fill="none" stroke="#000000" d="M189.9532,-431.8314C187.7906,-424.0463 185.2147,-414.7729 182.8152,-406.1347"/>
<polygon fill="#000000" stroke="#000000" points="186.1636,-405.1117 180.1148,-396.4133 179.419,-406.9852 186.1636,-405.1117"/>
<g id="a_edge26&#45;headlabel"><a xlink:href="dir_000486_000364.html" target="_top" xlink:title="19">
<text text-anchor="middle" x="189.8613" y="-405.3153" font-family="Helvetica,sans-Serif" font-size="10.00" fill="#000000">19</text>
</a>
</g>
</g>
<!-- dir_0c8c50542de1d83a040084fab225b0f7&#45;&gt;dir_677b030cc750909e4cd27413873678d8 -->
<g id="edge25" class="edge">
<title>dir_0c8c50542de1d83a040084fab225b0f7&#45;&gt;dir_677b030cc750909e4cd27413873678d8</title>
<path fill="none" stroke="#000000" d="M222.3345,-435.8413C225.2346,-434.4871 228.1611,-433.1806 231,-432 277.3287,-412.734 291.376,-414.5401 338,-396 338.8489,-395.6625 339.7058,-395.316 340.568,-394.9622"/>
<polygon fill="#000000" stroke="#000000" points="342.0753,-398.1242 349.8875,-390.9674 339.3174,-391.6904 342.0753,-398.1242"/>
<g id="a_edge25&#45;headlabel"><a xlink:href="dir_000486_000050.html" target="_top" xlink:title="23">
<text text-anchor="middle" x="339.8901" y="-399.65" font-family="Helvetica,sans-Serif" font-size="10.00" fill="#000000">23</text>
</a>
</g>
</g>
<!-- dir_0c8c50542de1d83a040084fab225b0f7&#45;&gt;dir_f511f1e9c03c071966ae594f00bbc5e0 -->
<g id="edge27" class="edge">
<title>dir_0c8c50542de1d83a040084fab225b0f7&#45;&gt;dir_f511f1e9c03c071966ae594f00bbc5e0</title>
<path fill="none" stroke="#000000" d="M222.1898,-435.459C225.1181,-434.1793 228.0908,-432.9947 231,-432 309.0213,-405.3224 360.6564,-459.7115 413,-396 456.3443,-343.2423 365.1884,-282.2304 311.137,-252.3767"/>
<polygon fill="#000000" stroke="#000000" points="312.622,-249.2006 302.162,-247.5159 309.2884,-255.3559 312.622,-249.2006"/>
<g id="a_edge27&#45;headlabel"><a xlink:href="dir_000486_000667.html" target="_top" xlink:title="7">
<text text-anchor="middle" x="317.1349" y="-245.9158" font-family="Helvetica,sans-Serif" font-size="10.00" fill="#000000">7</text>
</a>
</g>
</g>
<!-- dir_bcbb2cf9a3d3d83e5515c82071a07177 -->
<g id="node9" class="node">
<title>dir_bcbb2cf9a3d3d83e5515c82071a07177</title>
<g id="a_node9"><a xlink:href="dir_bcbb2cf9a3d3d83e5515c82071a07177.html" target="_top" xlink:title="Framework">
<polygon fill="none" stroke="#ff0000" points="221.5,-36 150.5,-36 150.5,0 221.5,0 221.5,-36"/>
<text text-anchor="middle" x="186" y="-15.5" font-family="Helvetica,sans-Serif" font-size="10.00" fill="#000000">Framework</text>
</a>
</g>
</g>
<!-- dir_0c8c50542de1d83a040084fab225b0f7&#45;&gt;dir_bcbb2cf9a3d3d83e5515c82071a07177 -->
<g id="edge28" class="edge">
<title>dir_0c8c50542de1d83a040084fab225b0f7&#45;&gt;dir_bcbb2cf9a3d3d83e5515c82071a07177</title>
<path fill="none" stroke="#000000" d="M222.1547,-435.3533C225.0898,-434.0942 228.0737,-432.9433 231,-432 326.552,-401.197 363.2331,-438.8996 454,-396 508.6599,-370.1658 556,-366.4575 556,-306 556,-306 556,-306 556,-162 556,-93.1796 330.8844,-44.1083 231.8395,-25.8487"/>
<polygon fill="#000000" stroke="#000000" points="232.2781,-22.3712 221.8133,-24.0264 231.0262,-29.2583 232.2781,-22.3712"/>
<g id="a_edge28&#45;headlabel"><a xlink:href="dir_000486_000013.html" target="_top" xlink:title="1">
<text text-anchor="middle" x="236.3225" y="-17.7204" font-family="Helvetica,sans-Serif" font-size="10.00" fill="#000000">1</text>
</a>
</g>
</g>
<!-- dir_26637d1bd82229bc9ed97f7e706be743 -->
<g id="node10" class="node">
<title>dir_26637d1bd82229bc9ed97f7e706be743</title>
<g id="a_node10"><a xlink:href="dir_26637d1bd82229bc9ed97f7e706be743.html" target="_top" xlink:title="Raw">
<polygon fill="none" stroke="#ff0000" points="320,-180 266,-180 266,-144 320,-144 320,-180"/>
<text text-anchor="middle" x="293" y="-159.5" font-family="Helvetica,sans-Serif" font-size="10.00" fill="#000000">Raw</text>
</a>
</g>
</g>
<!-- dir_0c8c50542de1d83a040084fab225b0f7&#45;&gt;dir_26637d1bd82229bc9ed97f7e706be743 -->
<g id="edge29" class="edge">
<title>dir_0c8c50542de1d83a040084fab225b0f7&#45;&gt;dir_26637d1bd82229bc9ed97f7e706be743</title>
<path fill="none" stroke="#000000" d="M222.1715,-435.4049C225.1034,-434.1357 228.0819,-432.9684 231,-432 317.1353,-403.414 373.7575,-465.6007 432,-396 489.8055,-326.9215 384.452,-230.9722 326.8739,-186.4718"/>
<polygon fill="#000000" stroke="#000000" points="328.8276,-183.5603 318.7505,-180.2888 324.588,-189.1304 328.8276,-183.5603"/>
<g id="a_edge29&#45;headlabel"><a xlink:href="dir_000486_000553.html" target="_top" xlink:title="1">
<text text-anchor="middle" x="333.4075" y="-180.9781" font-family="Helvetica,sans-Serif" font-size="10.00" fill="#000000">1</text>
</a>
</g>
</g>
<!-- dir_0c8c50542de1d83a040084fab225b0f7&#45;&gt;dir_2171f7ec022c5423887b07c69b2f5b48 -->
<g id="edge30" class="edge">
<title>dir_0c8c50542de1d83a040084fab225b0f7&#45;&gt;dir_2171f7ec022c5423887b07c69b2f5b48</title>
<path fill="none" stroke="#000000" d="M170.0731,-431.8078C158.8911,-422.3567 146.5455,-409.8841 139,-396 123.4337,-367.3573 128.1255,-356.4491 125,-324 117.2996,-244.0546 105.5815,-216.084 141,-144 145.8939,-134.0398 152.9893,-124.3419 160.1045,-115.9767"/>
<polygon fill="#000000" stroke="#000000" points="162.8179,-118.1927 166.8612,-108.3997 157.5934,-113.5338 162.8179,-118.1927"/>
<g id="a_edge30&#45;headlabel"><a xlink:href="dir_000486_000076.html" target="_top" xlink:title="11">
<text text-anchor="middle" x="162.5446" y="-120.2652" font-family="Helvetica,sans-Serif" font-size="10.00" fill="#000000">11</text>
</a>
</g>
</g>
<!-- dir_064d7f478c030df51e47c94b08ab25b1 -->
<g id="node5" class="node">
<title>dir_064d7f478c030df51e47c94b08ab25b1</title>
<g id="a_node5"><a xlink:href="dir_064d7f478c030df51e47c94b08ab25b1.html" target="_top" xlink:title="test">
<polygon fill="#ffffff" stroke="#000000" points="78,-468 24,-468 24,-432 78,-432 78,-468"/>
<text text-anchor="middle" x="51" y="-447.5" font-family="Helvetica,sans-Serif" font-size="10.00" fill="#000000">test</text>
</a>
</g>
</g>
<!-- dir_064d7f478c030df51e47c94b08ab25b1&#45;&gt;dir_396d171119822f66a36fe1ebf998d1a3 -->
<g id="edge16" class="edge">
<title>dir_064d7f478c030df51e47c94b08ab25b1&#45;&gt;dir_396d171119822f66a36fe1ebf998d1a3</title>
<path fill="none" stroke="#000000" d="M78.2123,-434.1993C96.0604,-423.8359 119.5951,-410.1706 138.988,-398.9102"/>
<polygon fill="#000000" stroke="#000000" points="140.9607,-401.812 147.8512,-393.7638 137.4458,-395.7585 140.9607,-401.812"/>
<g id="a_edge16&#45;headlabel"><a xlink:href="dir_000601_000364.html" target="_top" xlink:title="6">
<text text-anchor="middle" x="139.2779" y="-403.5723" font-family="Helvetica,sans-Serif" font-size="10.00" fill="#000000">6</text>
</a>
</g>
</g>
<!-- dir_064d7f478c030df51e47c94b08ab25b1&#45;&gt;dir_677b030cc750909e4cd27413873678d8 -->
<g id="edge15" class="edge">
<title>dir_064d7f478c030df51e47c94b08ab25b1&#45;&gt;dir_677b030cc750909e4cd27413873678d8</title>
<path fill="none" stroke="#000000" d="M78.1378,-435.3002C81.0763,-434.0515 84.0655,-432.9176 87,-432 194.5616,-398.3674 229.9262,-427.9485 338,-396 338.7241,-395.786 339.4519,-395.5607 340.182,-395.3254"/>
<polygon fill="#000000" stroke="#000000" points="341.5264,-398.5599 349.6869,-391.8029 339.0938,-391.9961 341.5264,-398.5599"/>
<g id="a_edge15&#45;headlabel"><a xlink:href="dir_000601_000050.html" target="_top" xlink:title="8">
<text text-anchor="middle" x="339.1424" y="-399.9713" font-family="Helvetica,sans-Serif" font-size="10.00" fill="#000000">8</text>
</a>
</g>
</g>
<!-- dir_064d7f478c030df51e47c94b08ab25b1&#45;&gt;dir_f511f1e9c03c071966ae594f00bbc5e0 -->
<g id="edge17" class="edge">
<title>dir_064d7f478c030df51e47c94b08ab25b1&#45;&gt;dir_f511f1e9c03c071966ae594f00bbc5e0</title>
<path fill="none" stroke="#000000" d="M78.2847,-435.7181C81.1946,-434.3879 84.1369,-433.1207 87,-432 140.4386,-411.0823 168.4375,-434.4924 211,-396 250.0257,-360.7062 265.5672,-298.5499 271.5195,-262.3522"/>
<polygon fill="#000000" stroke="#000000" points="275.0486,-262.4196 273.0743,-252.0103 268.1264,-261.3788 275.0486,-262.4196"/>
<g id="a_edge17&#45;headlabel"><a xlink:href="dir_000601_000667.html" target="_top" xlink:title="4">
<text text-anchor="middle" x="277.322" y="-263.8963" font-family="Helvetica,sans-Serif" font-size="10.00" fill="#000000">4</text>
</a>
</g>
</g>
<!-- dir_064d7f478c030df51e47c94b08ab25b1&#45;&gt;dir_2171f7ec022c5423887b07c69b2f5b48 -->
<g id="edge18" class="edge">
<title>dir_064d7f478c030df51e47c94b08ab25b1&#45;&gt;dir_2171f7ec022c5423887b07c69b2f5b48</title>
<path fill="none" stroke="#000000" d="M51.3094,-431.9667C52.9322,-382.2957 62.8087,-240.7677 122,-144 128.8836,-132.7465 138.9284,-122.6861 149.0285,-114.3869"/>
<polygon fill="#000000" stroke="#000000" points="151.3393,-117.0237 157.0811,-108.1197 147.0399,-111.4996 151.3393,-117.0237"/>
<g id="a_edge18&#45;headlabel"><a xlink:href="dir_000601_000076.html" target="_top" xlink:title="9">
<text text-anchor="middle" x="150.2464" y="-118.9721" font-family="Helvetica,sans-Serif" font-size="10.00" fill="#000000">9</text>
</a>
</g>
</g>
<!-- dir_677b030cc750909e4cd27413873678d8&#45;&gt;dir_4ab6b4cc6a7edbff49100e9123df213f -->
<g id="edge3" class="edge">
<title>dir_677b030cc750909e4cd27413873678d8&#45;&gt;dir_4ab6b4cc6a7edbff49100e9123df213f</title>
<path fill="none" stroke="#000000" d="M359.7251,-359.7159C353.3882,-353.9329 345.8363,-348.0105 338,-344 299.2039,-324.145 249.9173,-314.5116 215.7493,-309.9379"/>
<polygon fill="#000000" stroke="#000000" points="216.0164,-306.4441 205.6591,-308.6752 215.1471,-313.3899 216.0164,-306.4441"/>
<g id="a_edge3&#45;headlabel"><a xlink:href="dir_000050_000027.html" target="_top" xlink:title="12">
<text text-anchor="middle" x="219.9357" y="-301.5731" font-family="Helvetica,sans-Serif" font-size="10.00" fill="#000000">12</text>
</a>
</g>
</g>
<!-- dir_677b030cc750909e4cd27413873678d8&#45;&gt;dir_f511f1e9c03c071966ae594f00bbc5e0 -->
<g id="edge4" class="edge">
<title>dir_677b030cc750909e4cd27413873678d8&#45;&gt;dir_f511f1e9c03c071966ae594f00bbc5e0</title>
<path fill="none" stroke="#000000" d="M359.4085,-359.7623C339.2012,-334.7682 307.032,-289.6924 288.6179,-260.8409"/>
<polygon fill="#000000" stroke="#000000" points="291.4195,-258.7192 283.1552,-252.0896 285.4814,-262.4259 291.4195,-258.7192"/>
<g id="a_edge4&#45;headlabel"><a xlink:href="dir_000050_000667.html" target="_top" xlink:title="2">
<text text-anchor="middle" x="295.7314" y="-257.7651" font-family="Helvetica,sans-Serif" font-size="10.00" fill="#000000">2</text>
</a>
</g>
</g>
<!-- dir_677b030cc750909e4cd27413873678d8&#45;&gt;dir_bcbb2cf9a3d3d83e5515c82071a07177 -->
<g id="edge5" class="edge">
<title>dir_677b030cc750909e4cd27413873678d8&#45;&gt;dir_bcbb2cf9a3d3d83e5515c82071a07177</title>
<path fill="none" stroke="#000000" d="M401.6711,-359.8169C432.1427,-335.0584 480,-287.6361 480,-234 480,-234 480,-234 480,-162 480,-107.3166 313.8873,-53.4797 231.3861,-30.1134"/>
<polygon fill="#000000" stroke="#000000" points="232.3296,-26.743 221.7562,-27.4169 230.4421,-33.4837 232.3296,-26.743"/>
<g id="a_edge5&#45;headlabel"><a xlink:href="dir_000050_000013.html" target="_top" xlink:title="1">
<text text-anchor="middle" x="236.5567" y="-22.4781" font-family="Helvetica,sans-Serif" font-size="10.00" fill="#000000">1</text>
</a>
</g>
</g>
<!-- dir_677b030cc750909e4cd27413873678d8&#45;&gt;dir_26637d1bd82229bc9ed97f7e706be743 -->
<g id="edge6" class="edge">
<title>dir_677b030cc750909e4cd27413873678d8&#45;&gt;dir_26637d1bd82229bc9ed97f7e706be743</title>
<path fill="none" stroke="#000000" d="M372.0309,-359.8612C366.8535,-341.5345 358.2213,-312.5043 349,-288 335.9747,-253.387 318.2757,-214.6624 306.2877,-189.3946"/>
<polygon fill="#000000" stroke="#000000" points="309.3088,-187.5991 301.8399,-180.0847 302.9926,-190.6166 309.3088,-187.5991"/>
<g id="a_edge6&#45;headlabel"><a xlink:href="dir_000050_000553.html" target="_top" xlink:title="1">
<text text-anchor="middle" x="313.4203" y="-187.1186" font-family="Helvetica,sans-Serif" font-size="10.00" fill="#000000">1</text>
</a>
</g>
</g>
<!-- dir_677b030cc750909e4cd27413873678d8&#45;&gt;dir_2171f7ec022c5423887b07c69b2f5b48 -->
<g id="edge7" class="edge">
<title>dir_677b030cc750909e4cd27413873678d8&#45;&gt;dir_2171f7ec022c5423887b07c69b2f5b48</title>
<path fill="none" stroke="#000000" d="M379.0091,-359.7351C382.7104,-316.3277 385.6467,-205.9964 329,-144 305.037,-117.774 267.033,-104.2101 236.225,-97.2372"/>
<polygon fill="#000000" stroke="#000000" points="236.5884,-93.7376 226.0836,-95.1164 235.1554,-100.5894 236.5884,-93.7376"/>
<g id="a_edge7&#45;headlabel"><a xlink:href="dir_000050_000076.html" target="_top" xlink:title="15">
<text text-anchor="middle" x="240.688" y="-89.1942" font-family="Helvetica,sans-Serif" font-size="10.00" fill="#000000">15</text>
</a>
</g>
</g>
<!-- dir_4ab6b4cc6a7edbff49100e9123df213f&#45;&gt;dir_f511f1e9c03c071966ae594f00bbc5e0 -->
<g id="edge8" class="edge">
<title>dir_4ab6b4cc6a7edbff49100e9123df213f&#45;&gt;dir_f511f1e9c03c071966ae594f00bbc5e0</title>
<path fill="none" stroke="#000000" d="M194.2818,-287.8314C207.0543,-277.9413 224.0365,-265.649 239.1812,-255.3087"/>
<polygon fill="#000000" stroke="#000000" points="241.4997,-257.9671 247.8402,-249.479 237.5903,-252.1605 241.4997,-257.9671"/>
<g id="a_edge8&#45;headlabel"><a xlink:href="dir_000027_000667.html" target="_top" xlink:title="3">
<text text-anchor="middle" x="240.1036" y="-259.8299" font-family="Helvetica,sans-Serif" font-size="10.00" fill="#000000">3</text>
</a>
</g>
</g>
<!-- dir_4ab6b4cc6a7edbff49100e9123df213f&#45;&gt;dir_bcbb2cf9a3d3d83e5515c82071a07177 -->
<g id="edge9" class="edge">
<title>dir_4ab6b4cc6a7edbff49100e9123df213f&#45;&gt;dir_bcbb2cf9a3d3d83e5515c82071a07177</title>
<path fill="none" stroke="#000000" d="M161.0275,-287.7274C137.8259,-247.4222 98.5014,-148.4061 128,-72 132.1612,-61.2218 139.5832,-51.2653 147.8199,-42.9146"/>
<polygon fill="#000000" stroke="#000000" points="150.2916,-45.3951 155.2064,-36.0091 145.5112,-40.2816 150.2916,-45.3951"/>
<g id="a_edge9&#45;headlabel"><a xlink:href="dir_000027_000013.html" target="_top" xlink:title="2">
<text text-anchor="middle" x="149.6048" y="-47.424" font-family="Helvetica,sans-Serif" font-size="10.00" fill="#000000">2</text>
</a>
</g>
</g>
<!-- dir_4ab6b4cc6a7edbff49100e9123df213f&#45;&gt;dir_2171f7ec022c5423887b07c69b2f5b48 -->
<g id="edge10" class="edge">
<title>dir_4ab6b4cc6a7edbff49100e9123df213f&#45;&gt;dir_2171f7ec022c5423887b07c69b2f5b48</title>
<path fill="none" stroke="#000000" d="M171.973,-287.9555C170.4315,-250.3144 174.6092,-163.1867 179.8439,-118.1246"/>
<polygon fill="#000000" stroke="#000000" points="183.3232,-118.5085 181.1208,-108.1451 176.3798,-117.6199 183.3232,-118.5085"/>
<g id="a_edge10&#45;headlabel"><a xlink:href="dir_000027_000076.html" target="_top" xlink:title="2">
<text text-anchor="middle" x="185.6834" y="-119.9343" font-family="Helvetica,sans-Serif" font-size="10.00" fill="#000000">2</text>
</a>
</g>
</g>
<!-- dir_f511f1e9c03c071966ae594f00bbc5e0&#45;&gt;dir_677b030cc750909e4cd27413873678d8 -->
<g id="edge19" class="edge">
<title>dir_f511f1e9c03c071966ae594f00bbc5e0&#45;&gt;dir_677b030cc750909e4cd27413873678d8</title>
<path fill="none" stroke="#000000" d="M292.4718,-252.0896C312.6316,-277.0041 344.8042,-322.0722 363.2727,-350.9877"/>
<polygon fill="#000000" stroke="#000000" points="360.4878,-353.136 368.7548,-359.7623 366.4245,-349.4269 360.4878,-353.136"/>
<g id="a_edge19&#45;headlabel"><a xlink:href="dir_000667_000050.html" target="_top" xlink:title="3">
<text text-anchor="middle" x="356.1753" y="-349.0918" font-family="Helvetica,sans-Serif" font-size="10.00" fill="#000000">3</text>
</a>
</g>
</g>
<!-- dir_f511f1e9c03c071966ae594f00bbc5e0&#45;&gt;dir_4ab6b4cc6a7edbff49100e9123df213f -->
<g id="edge20" class="edge">
<title>dir_f511f1e9c03c071966ae594f00bbc5e0&#45;&gt;dir_4ab6b4cc6a7edbff49100e9123df213f</title>
<path fill="none" stroke="#000000" d="M255.8157,-252.0931C243.8938,-261.3287 228.2782,-272.6739 213.9118,-282.57"/>
<polygon fill="#000000" stroke="#000000" points="211.9333,-279.6828 205.6348,-288.2022 215.8713,-285.47 211.9333,-279.6828"/>
<g id="a_edge20&#45;headlabel"><a xlink:href="dir_000667_000027.html" target="_top" xlink:title="2">
<text text-anchor="middle" x="213.3078" y="-272.8133" font-family="Helvetica,sans-Serif" font-size="10.00" fill="#000000">2</text>
</a>
</g>
</g>
<!-- dir_f511f1e9c03c071966ae594f00bbc5e0&#45;&gt;dir_26637d1bd82229bc9ed97f7e706be743 -->
<g id="edge21" class="edge">
<title>dir_f511f1e9c03c071966ae594f00bbc5e0&#45;&gt;dir_26637d1bd82229bc9ed97f7e706be743</title>
<path fill="none" stroke="#000000" d="M273.5898,-215.8314C274.7774,-208.0463 276.8783,-198.7729 279.3616,-190.1347"/>
<polygon fill="#000000" stroke="#000000" points="282.7576,-191.0027 282.4207,-180.4133 276.0804,-188.9016 282.7576,-191.0027"/>
<g id="a_edge21&#45;headlabel"><a xlink:href="dir_000667_000553.html" target="_top" xlink:title="1">
<text text-anchor="middle" x="284.387" y="-192.7838" font-family="Helvetica,sans-Serif" font-size="10.00" fill="#000000">1</text>
</a>
</g>
</g>
<!-- dir_f511f1e9c03c071966ae594f00bbc5e0&#45;&gt;dir_2171f7ec022c5423887b07c69b2f5b48 -->
<g id="edge22" class="edge">
<title>dir_f511f1e9c03c071966ae594f00bbc5e0&#45;&gt;dir_2171f7ec022c5423887b07c69b2f5b48</title>
<path fill="none" stroke="#000000" d="M259.0549,-215.7623C241.1818,-190.8764 213.2473,-146.0822 197.4008,-117.2165"/>
<polygon fill="#000000" stroke="#000000" points="200.323,-115.2588 192.5221,-108.0896 194.1496,-118.5587 200.323,-115.2588"/>
<g id="a_edge22&#45;headlabel"><a xlink:href="dir_000667_000076.html" target="_top" xlink:title="12">
<text text-anchor="middle" x="204.5215" y="-114.5904" font-family="Helvetica,sans-Serif" font-size="10.00" fill="#000000">12</text>
</a>
</g>
</g>
<!-- dir_bcbb2cf9a3d3d83e5515c82071a07177&#45;&gt;dir_4ab6b4cc6a7edbff49100e9123df213f -->
<g id="edge23" class="edge">
<title>dir_bcbb2cf9a3d3d83e5515c82071a07177&#45;&gt;dir_4ab6b4cc6a7edbff49100e9123df213f</title>
<path fill="none" stroke="#000000" d="M171.4436,-36.0091C162.2112,-45.5028 151.3802,-58.0645 146,-72 118.6331,-142.8846 150.5017,-233.2294 167.0257,-278.1003"/>
<polygon fill="#000000" stroke="#000000" points="163.8312,-279.554 170.5725,-287.7274 170.3996,-277.134 163.8312,-279.554"/>
<g id="a_edge23&#45;headlabel"><a xlink:href="dir_000013_000027.html" target="_top" xlink:title="8">
<text text-anchor="middle" x="159.9244" y="-274.6625" font-family="Helvetica,sans-Serif" font-size="10.00" fill="#000000">8</text>
</a>
</g>
</g>
<!-- dir_bcbb2cf9a3d3d83e5515c82071a07177&#45;&gt;dir_2171f7ec022c5423887b07c69b2f5b48 -->
<g id="edge24" class="edge">
<title>dir_bcbb2cf9a3d3d83e5515c82071a07177&#45;&gt;dir_2171f7ec022c5423887b07c69b2f5b48</title>
<path fill="none" stroke="#000000" d="M191.976,-36.4133C192.7071,-44.0593 192.9203,-53.1084 192.6155,-61.5726"/>
<polygon fill="#000000" stroke="#000000" points="189.1048,-61.6264 191.9524,-71.8314 196.0902,-62.078 189.1048,-61.6264"/>
<g id="a_edge24&#45;headlabel"><a xlink:href="dir_000013_000076.html" target="_top" xlink:title="82">
<text text-anchor="middle" x="186.5032" y="-55.3562" font-family="Helvetica,sans-Serif" font-size="10.00" fill="#000000">82</text>
</a>
</g>
</g>
<!-- dir_26637d1bd82229bc9ed97f7e706be743&#45;&gt;dir_4ab6b4cc6a7edbff49100e9123df213f -->
<g id="edge31" class="edge">
<title>dir_26637d1bd82229bc9ed97f7e706be743&#45;&gt;dir_4ab6b4cc6a7edbff49100e9123df213f</title>
<path fill="none" stroke="#000000" d="M273.4557,-180.0064C262.8243,-190.1721 249.6989,-203.3433 239,-216 221.8747,-236.259 204.566,-260.9087 192.2746,-279.2854"/>
<polygon fill="#000000" stroke="#000000" points="189.2686,-277.4857 186.6664,-287.756 195.1053,-281.35 189.2686,-277.4857"/>
<g id="a_edge31&#45;headlabel"><a xlink:href="dir_000553_000027.html" target="_top" xlink:title="9">
<text text-anchor="middle" x="188.8855" y="-270.421" font-family="Helvetica,sans-Serif" font-size="10.00" fill="#000000">9</text>
</a>
</g>
</g>
<!-- dir_26637d1bd82229bc9ed97f7e706be743&#45;&gt;dir_f511f1e9c03c071966ae594f00bbc5e0 -->
<g id="edge32" class="edge">
<title>dir_26637d1bd82229bc9ed97f7e706be743&#45;&gt;dir_f511f1e9c03c071966ae594f00bbc5e0</title>
<path fill="none" stroke="#000000" d="M294.3727,-180.4133C293.1661,-188.2292 291.0517,-197.5113 288.5604,-206.136"/>
<polygon fill="#000000" stroke="#000000" points="285.1725,-205.2414 285.4946,-215.8314 291.8468,-207.352 285.1725,-205.2414"/>
<g id="a_edge32&#45;headlabel"><a xlink:href="dir_000553_000667.html" target="_top" xlink:title="2">
<text text-anchor="middle" x="283.5491" y="-198.4581" font-family="Helvetica,sans-Serif" font-size="10.00" fill="#000000">2</text>
</a>
</g>
</g>
<!-- dir_26637d1bd82229bc9ed97f7e706be743&#45;&gt;dir_bcbb2cf9a3d3d83e5515c82071a07177 -->
<g id="edge33" class="edge">
<title>dir_26637d1bd82229bc9ed97f7e706be743&#45;&gt;dir_bcbb2cf9a3d3d83e5515c82071a07177</title>
<path fill="none" stroke="#000000" d="M282.4949,-143.8245C271.4652,-125.2165 253.223,-95.7399 235,-72 227.6819,-62.4664 219.0527,-52.5773 211.0913,-43.9075"/>
<polygon fill="#000000" stroke="#000000" points="213.4055,-41.2573 204.0243,-36.3334 208.2873,-46.0327 213.4055,-41.2573"/>
<g id="a_edge33&#45;headlabel"><a xlink:href="dir_000553_000013.html" target="_top" xlink:title="25">
<text text-anchor="middle" x="217.9337" y="-39.4485" font-family="Helvetica,sans-Serif" font-size="10.00" fill="#000000">25</text>
</a>
</g>
</g>
<!-- dir_26637d1bd82229bc9ed97f7e706be743&#45;&gt;dir_2171f7ec022c5423887b07c69b2f5b48 -->
<g id="edge34" class="edge">
<title>dir_26637d1bd82229bc9ed97f7e706be743&#45;&gt;dir_2171f7ec022c5423887b07c69b2f5b48</title>
<path fill="none" stroke="#000000" d="M265.9994,-143.8314C252.5669,-134.7927 236.1527,-123.7476 221.6961,-114.0198"/>
<polygon fill="#000000" stroke="#000000" points="223.2425,-110.8418 212.992,-108.1628 219.3346,-116.6494 223.2425,-110.8418"/>
<g id="a_edge34&#45;headlabel"><a xlink:href="dir_000553_000076.html" target="_top" xlink:title="15">
<text text-anchor="middle" x="227.8099" y="-107.9929" font-family="Helvetica,sans-Serif" font-size="10.00" fill="#000000">15</text>
</a>
</g>
</g>
<!-- dir_2171f7ec022c5423887b07c69b2f5b48&#45;&gt;dir_4ab6b4cc6a7edbff49100e9123df213f -->
<g id="edge35" class="edge">
<title>dir_2171f7ec022c5423887b07c69b2f5b48&#45;&gt;dir_4ab6b4cc6a7edbff49100e9123df213f</title>
<path fill="none" stroke="#000000" d="M189.0311,-108.1451C190.5624,-145.8741 186.3787,-233.0083 181.1422,-277.9956"/>
<polygon fill="#000000" stroke="#000000" points="177.6654,-277.5915 179.8648,-287.9555 184.6085,-278.482 177.6654,-277.5915"/>
<g id="a_edge35&#45;headlabel"><a xlink:href="dir_000076_000027.html" target="_top" xlink:title="34">
<text text-anchor="middle" x="175.3064" y="-271.1649" font-family="Helvetica,sans-Serif" font-size="10.00" fill="#000000">34</text>
</a>
</g>
</g>
<!-- dir_2171f7ec022c5423887b07c69b2f5b48&#45;&gt;dir_f511f1e9c03c071966ae594f00bbc5e0 -->
<g id="edge36" class="edge">
<title>dir_2171f7ec022c5423887b07c69b2f5b48&#45;&gt;dir_f511f1e9c03c071966ae594f00bbc5e0</title>
<path fill="none" stroke="#000000" d="M201.8387,-108.0896C219.6718,-132.8962 247.6101,-177.6824 263.5047,-206.6113"/>
<polygon fill="#000000" stroke="#000000" points="260.5973,-208.5965 268.4013,-215.7623 266.7693,-205.2939 260.5973,-208.5965"/>
<g id="a_edge36&#45;headlabel"><a xlink:href="dir_000076_000667.html" target="_top" xlink:title="15">
<text text-anchor="middle" x="256.398" y="-204.2666" font-family="Helvetica,sans-Serif" font-size="10.00" fill="#000000">15</text>
</a>
</g>
</g>
<!-- dir_2171f7ec022c5423887b07c69b2f5b48&#45;&gt;dir_bcbb2cf9a3d3d83e5515c82071a07177 -->
<g id="edge37" class="edge">
<title>dir_2171f7ec022c5423887b07c69b2f5b48&#45;&gt;dir_bcbb2cf9a3d3d83e5515c82071a07177</title>
<path fill="none" stroke="#000000" d="M180.0476,-71.8314C179.2972,-64.131 179.0763,-54.9743 179.3849,-46.4166"/>
<polygon fill="#000000" stroke="#000000" points="182.8792,-46.6161 180.024,-36.4133 175.8935,-46.1697 182.8792,-46.6161"/>
<g id="a_edge37&#45;headlabel"><a xlink:href="dir_000076_000013.html" target="_top" xlink:title="7">
<text text-anchor="middle" x="185.4836" y="-47.8844" font-family="Helvetica,sans-Serif" font-size="10.00" fill="#000000">7</text>
</a>
</g>
</g>
</g>
</svg>
        <g id="navigator" transform="translate(0 0)" fill="#404254">
                <rect fill="#f2f5e9" fill-opacity="0.5" stroke="#606060" stroke-width=".5" x="0" y="0" width="60" height="60"/>
                <use id="zoomplus" xlink:href="#zoomPlus" x="17" y="9" onmousedown="handleZoom(evt,'in')"/>
                <use id="zoomminus" xlink:href="#zoomMin" x="42" y="9" onmousedown="handleZoom(evt,'out')"/>
                <use id="reset" xlink:href="#resetDef" x="30" y="36" onmousedown="handleReset()"/>
                <g id="arrowUp" xlink:href="#dirArrow" transform="translate(30 24)" onmousedown="handlePan(0,-1)">
                  <use xlink:href="#rim" fill="#404040">
                        <set attributeName="fill" to="#808080" begin="arrowUp.mouseover" end="arrowUp.mouseout"/>
                  </use>
                  <path fill="none" stroke="white" stroke-width="1.5" d="M0,-3.0v7 M-2.5,-0.5L0,-3.0L2.5,-0.5"/>
                </g>
                <g id="arrowRight" xlink:href="#dirArrow" transform="rotate(90) translate(36 -43)" onmousedown="handlePan(1,0)">
                  <use xlink:href="#rim" fill="#404040">
                        <set attributeName="fill" to="#808080" begin="arrowRight.mouseover" end="arrowRight.mouseout"/>
                  </use>
                  <path fill="none" stroke="white" stroke-width="1.5" d="M0,-3.0v7 M-2.5,-0.5L0,-3.0L2.5,-0.5"/>
                </g>
                <g id="arrowDown" xlink:href="#dirArrow" transform="rotate(180) translate(-30 -48)" onmousedown="handlePan(0,1)">
                  <use xlink:href="#rim" fill="#404040">
                        <set attributeName="fill" to="#808080" begin="arrowDown.mouseover" end="arrowDown.mouseout"/>
                  </use>
                  <path fill="none" stroke="white" stroke-width="1.5" d="M0,-3.0v7 M-2.5,-0.5L0,-3.0L2.5,-0.5"/>
                </g>
                <g id="arrowLeft" xlink:href="#dirArrow" transform="rotate(270) translate(-36 17)" onmousedown="handlePan(-1,0)">
                  <use xlink:href="#rim" fill="#404040">
                        <set attributeName="fill" to="#808080" begin="arrowLeft.mouseover" end="arrowLeft.mouseout"/>
                  </use>
                  <path fill="none" stroke="white" stroke-width="1.5" d="M0,-3.0v7 M-2.5,-0.5L0,-3.0L2.5,-0.5"/>
                </g>
        </g>
        <svg viewBox="0 0 15 15" width="100%" height="30px" preserveAspectRatio="xMaxYMin meet">
         <g id="arrow_out" transform="scale(0.3 0.3)">
          <a xlink:href="dir_a5de047958dd458e809773c6ffaa8478_dep_org.svg" target="_base">
           <rect id="button" ry="5" rx="5" y="6" x="6" height="38" width="38"
                fill="#f2f5e9" fill-opacity="0.5" stroke="#606060" stroke-width="1.0"/>
           <path id="arrow"
             d="M 11.500037,31.436501 C 11.940474,20.09759 22.043105,11.32322 32.158766,21.979434 L 37.068811,17.246167 C 37.068811,17.246167 37.088388,32 37.088388,32 L 22.160133,31.978069 C 22.160133,31.978069 26.997745,27.140456 26.997745,27.140456 C 18.528582,18.264221 13.291696,25.230495 11.500037,31.436501 z"
             style="fill:#404040;"/>
          </a>
         </g>
        </svg>
</svg>
