<?xml version="1.0" encoding="UTF-8" standalone="no"?>
<!DOCTYPE svg PUBLIC "-//W3C//DTD SVG 1.1//EN"
 "http://www.w3.org/Graphics/SVG/1.1/DTD/svg11.dtd">
<!-- Generated by graphviz version 2.40.1 (20161225.0304)
 -->
<!-- Title: /home/travis/build/AliceO2Group/AliceO2/Detectors/TPC/simulation/run Pages: 1 -->
<!--zoomable 511 -->
<svg id="main" version="1.1" xmlns="http://www.w3.org/2000/svg" xmlns:xlink="http://www.w3.org/1999/xlink" xml:space="preserve" onload="init(evt)">
<style type="text/css"><![CDATA[
.edge:hover path { stroke: red; }
.edge:hover polygon { stroke: red; fill: red; }
]]></style>
<script type="text/javascript"><![CDATA[
var edges = document.getElementsByTagName('g');
if (edges && edges.length) {
  for (var i=0;i<edges.length;i++) {
    if (edges[i].id.substr(0,4)=='edge') {
      edges[i].setAttribute('class','edge');
    }
  }
}
]]></script>
        <defs>
                <circle id="rim" cx="0" cy="0" r="7"/>
                <circle id="rim2" cx="0" cy="0" r="3.5"/>
                <g id="zoomPlus">
                        <use xlink:href="#rim" fill="#404040">
                                <set attributeName="fill" to="#808080" begin="zoomplus.mouseover" end="zoomplus.mouseout"/>
                        </use>
                        <path d="M-4,0h8M0,-4v8" fill="none" stroke="white" stroke-width="1.5" pointer-events="none"/>
                </g>
                <g id="zoomMin">
                        <use xlink:href="#rim" fill="#404040">
                                <set attributeName="fill" to="#808080" begin="zoomminus.mouseover" end="zoomminus.mouseout"/>
                        </use>
                        <path d="M-4,0h8" fill="none" stroke="white" stroke-width="1.5" pointer-events="none"/>
                </g>
                <g id="dirArrow">
                        <path fill="none" stroke="white" stroke-width="1.5" d="M0,-3.0v7 M-2.5,-0.5L0,-3.0L2.5,-0.5"/>
                </g>
               <g id="resetDef">
                       <use xlink:href="#rim2" fill="#404040">
                               <set attributeName="fill" to="#808080" begin="reset.mouseover" end="reset.mouseout"/>
                       </use>
               </g>
        </defs>

<script type="text/javascript">
var viewWidth = 420;
var viewHeight = 511;
var sectionId = 'dynsection-0';
</script>
<script xlink:href="svgpan.js"/>
<svg id="graph" class="graph">
<g id="viewport">
<title>/home/travis/build/AliceO2Group/AliceO2/Detectors/TPC/simulation/run</title>
<g id="clust1" class="cluster">
<title>clusterdir_7f309bec8670bb3fb666e7e061b24659</title>
<g id="a_clust1"><a xlink:href="dir_7f309bec8670bb3fb666e7e061b24659.html" target="_top" xlink:title="simulation">
<polygon fill="#ddddee" stroke="#000000" points="146,-424 146,-495 216,-495 216,-424 146,-424"/>
<text text-anchor="middle" x="181" y="-483" font-family="Helvetica,sans-Serif" font-size="10.00" fill="#000000">simulation</text>
</a>
</g>
</g>
<!-- dir_685cddb227eacf501f568a534e55085f -->
<g id="node1" class="node">
<title>dir_685cddb227eacf501f568a534e55085f</title>
<g id="a_node1"><a xlink:href="dir_685cddb227eacf501f568a534e55085f.html" target="_top" xlink:title="run">
<polygon fill="#eeeeff" stroke="#000000" points="208,-468 154,-468 154,-432 208,-432 208,-468"/>
<text text-anchor="middle" x="181" y="-447.5" font-family="Helvetica,sans-Serif" font-size="10.00" fill="#000000">run</text>
</a>
</g>
</g>
<!-- dir_677b030cc750909e4cd27413873678d8 -->
<g id="node2" class="node">
<title>dir_677b030cc750909e4cd27413873678d8</title>
<g id="a_node2"><a xlink:href="dir_677b030cc750909e4cd27413873678d8.html" target="_top" xlink:title="base">
<polygon fill="none" stroke="#ff0000" points="283,-396 229,-396 229,-360 283,-360 283,-396"/>
<text text-anchor="middle" x="256" y="-375.5" font-family="Helvetica,sans-Serif" font-size="10.00" fill="#000000">base</text>
</a>
</g>
</g>
<!-- dir_685cddb227eacf501f568a534e55085f&#45;&gt;dir_677b030cc750909e4cd27413873678d8 -->
<g id="edge1" class="edge">
<title>dir_685cddb227eacf501f568a534e55085f&#45;&gt;dir_677b030cc750909e4cd27413873678d8</title>
<path fill="none" stroke="#000000" d="M199.9257,-431.8314C208.9857,-423.1337 219.9809,-412.5783 229.8265,-403.1265"/>
<polygon fill="#000000" stroke="#000000" points="232.2904,-405.613 237.0804,-396.1628 227.4426,-400.5633 232.2904,-405.613"/>
<g id="a_edge1&#45;headlabel"><a xlink:href="dir_000602_000050.html" target="_top" xlink:title="3">
<text text-anchor="middle" x="231.6636" y="-407.6506" font-family="Helvetica,sans-Serif" font-size="10.00" fill="#000000">3</text>
</a>
</g>
</g>
<!-- dir_4ab6b4cc6a7edbff49100e9123df213f -->
<g id="node3" class="node">
<title>dir_4ab6b4cc6a7edbff49100e9123df213f</title>
<g id="a_node3"><a xlink:href="dir_4ab6b4cc6a7edbff49100e9123df213f.html" target="_top" xlink:title="Common">
<polygon fill="none" stroke="#ff0000" points="172.5,-324 111.5,-324 111.5,-288 172.5,-288 172.5,-324"/>
<text text-anchor="middle" x="142" y="-303.5" font-family="Helvetica,sans-Serif" font-size="10.00" fill="#000000">Common</text>
</a>
</g>
</g>
<!-- dir_685cddb227eacf501f568a534e55085f&#45;&gt;dir_4ab6b4cc6a7edbff49100e9123df213f -->
<g id="edge2" class="edge">
<title>dir_685cddb227eacf501f568a534e55085f&#45;&gt;dir_4ab6b4cc6a7edbff49100e9123df213f</title>
<path fill="none" stroke="#000000" d="M176.0606,-431.7623C169.3793,-407.0928 157.3995,-362.8598 149.576,-333.9731"/>
<polygon fill="#000000" stroke="#000000" points="152.8918,-332.8269 146.8993,-324.0896 146.1352,-334.6569 152.8918,-332.8269"/>
<g id="a_edge2&#45;headlabel"><a xlink:href="dir_000602_000027.html" target="_top" xlink:title="1">
<text text-anchor="middle" x="156.5719" y="-333.0543" font-family="Helvetica,sans-Serif" font-size="10.00" fill="#000000">1</text>
</a>
</g>
</g>
<!-- dir_f511f1e9c03c071966ae594f00bbc5e0 -->
<g id="node4" class="node">
<title>dir_f511f1e9c03c071966ae594f00bbc5e0</title>
<g id="a_node4"><a xlink:href="dir_f511f1e9c03c071966ae594f00bbc5e0.html" target="_top" xlink:title="GPU">
<polygon fill="none" stroke="#ff0000" points="270,-252 216,-252 216,-216 270,-216 270,-252"/>
<text text-anchor="middle" x="243" y="-231.5" font-family="Helvetica,sans-Serif" font-size="10.00" fill="#000000">GPU</text>
</a>
</g>
</g>
<!-- dir_685cddb227eacf501f568a534e55085f&#45;&gt;dir_f511f1e9c03c071966ae594f00bbc5e0 -->
<g id="edge3" class="edge">
<title>dir_685cddb227eacf501f568a534e55085f&#45;&gt;dir_f511f1e9c03c071966ae594f00bbc5e0</title>
<path fill="none" stroke="#000000" d="M186.1794,-431.9555C197.0066,-394.235 222.0983,-306.8188 235.0089,-261.8399"/>
<polygon fill="#000000" stroke="#000000" points="238.3968,-262.7226 237.7917,-252.1451 231.6685,-260.7913 238.3968,-262.7226"/>
<g id="a_edge3&#45;headlabel"><a xlink:href="dir_000602_000667.html" target="_top" xlink:title="4">
<text text-anchor="middle" x="240.1342" y="-264.461" font-family="Helvetica,sans-Serif" font-size="10.00" fill="#000000">4</text>
</a>
</g>
</g>
<!-- dir_bcbb2cf9a3d3d83e5515c82071a07177 -->
<g id="node5" class="node">
<title>dir_bcbb2cf9a3d3d83e5515c82071a07177</title>
<g id="a_node5"><a xlink:href="dir_bcbb2cf9a3d3d83e5515c82071a07177.html" target="_top" xlink:title="Framework">
<polygon fill="none" stroke="#ff0000" points="212.5,-36 141.5,-36 141.5,0 212.5,0 212.5,-36"/>
<text text-anchor="middle" x="177" y="-15.5" font-family="Helvetica,sans-Serif" font-size="10.00" fill="#000000">Framework</text>
</a>
</g>
</g>
<!-- dir_685cddb227eacf501f568a534e55085f&#45;&gt;dir_bcbb2cf9a3d3d83e5515c82071a07177 -->
<g id="edge4" class="edge">
<title>dir_685cddb227eacf501f568a534e55085f&#45;&gt;dir_bcbb2cf9a3d3d83e5515c82071a07177</title>
<path fill="none" stroke="#000000" d="M153.7984,-444.0822C125.6126,-436.797 81.6179,-422.064 52,-396 17.3197,-365.4811 0,-352.1966 0,-306 0,-306 0,-306 0,-162 0,-94.1267 79.2849,-52.6031 131.7269,-32.5614"/>
<polygon fill="#000000" stroke="#000000" points="133.0145,-35.817 141.1814,-29.0677 130.5882,-29.251 133.0145,-35.817"/>
<g id="a_edge4&#45;headlabel"><a xlink:href="dir_000602_000013.html" target="_top" xlink:title="1">
<text text-anchor="middle" x="130.6269" y="-37.2262" font-family="Helvetica,sans-Serif" font-size="10.00" fill="#000000">1</text>
</a>
</g>
</g>
<!-- dir_26637d1bd82229bc9ed97f7e706be743 -->
<g id="node6" class="node">
<title>dir_26637d1bd82229bc9ed97f7e706be743</title>
<g id="a_node6"><a xlink:href="dir_26637d1bd82229bc9ed97f7e706be743.html" target="_top" xlink:title="Raw">
<polygon fill="none" stroke="#ff0000" points="288,-180 234,-180 234,-144 288,-144 288,-180"/>
<text text-anchor="middle" x="261" y="-159.5" font-family="Helvetica,sans-Serif" font-size="10.00" fill="#000000">Raw</text>
</a>
</g>
</g>
<!-- dir_685cddb227eacf501f568a534e55085f&#45;&gt;dir_26637d1bd82229bc9ed97f7e706be743 -->
<g id="edge5" class="edge">
<title>dir_685cddb227eacf501f568a534e55085f&#45;&gt;dir_26637d1bd82229bc9ed97f7e706be743</title>
<path fill="none" stroke="#000000" d="M208.3644,-445.124C234.851,-438.8003 273.6139,-424.9421 292,-396 334.9003,-328.4696 315.6692,-293.0145 294,-216 291.3339,-206.5243 286.4919,-197.067 281.3238,-188.7759"/>
<polygon fill="#000000" stroke="#000000" points="284.1303,-186.6757 275.6752,-180.2912 278.3034,-190.5549 284.1303,-186.6757"/>
<g id="a_edge5&#45;headlabel"><a xlink:href="dir_000602_000553.html" target="_top" xlink:title="3">
<text text-anchor="middle" x="288.4857" y="-185.5945" font-family="Helvetica,sans-Serif" font-size="10.00" fill="#000000">3</text>
</a>
</g>
</g>
<!-- dir_2171f7ec022c5423887b07c69b2f5b48 -->
<g id="node7" class="node">
<title>dir_2171f7ec022c5423887b07c69b2f5b48</title>
<g id="a_node7"><a xlink:href="dir_2171f7ec022c5423887b07c69b2f5b48.html" target="_top" xlink:title="DataFormats">
<polygon fill="none" stroke="#ff0000" points="217,-108 137,-108 137,-72 217,-72 217,-108"/>
<text text-anchor="middle" x="177" y="-87.5" font-family="Helvetica,sans-Serif" font-size="10.00" fill="#000000">DataFormats</text>
</a>
</g>
</g>
<!-- dir_685cddb227eacf501f568a534e55085f&#45;&gt;dir_2171f7ec022c5423887b07c69b2f5b48 -->
<g id="edge6" class="edge">
<title>dir_685cddb227eacf501f568a534e55085f&#45;&gt;dir_2171f7ec022c5423887b07c69b2f5b48</title>
<path fill="none" stroke="#000000" d="M153.7662,-437.7881C112.2761,-417.1066 38,-371.0045 38,-306 38,-306 38,-306 38,-234 38,-179.13 90.8897,-137.1607 131.4193,-113.0547"/>
<polygon fill="#000000" stroke="#000000" points="133.2019,-116.067 140.1155,-108.0388 129.7044,-110.0034 133.2019,-116.067"/>
<g id="a_edge6&#45;headlabel"><a xlink:href="dir_000602_000076.html" target="_top" xlink:title="3">
<text text-anchor="middle" x="131.5067" y="-117.8224" font-family="Helvetica,sans-Serif" font-size="10.00" fill="#000000">3</text>
</a>
</g>
</g>
<!-- dir_677b030cc750909e4cd27413873678d8&#45;&gt;dir_4ab6b4cc6a7edbff49100e9123df213f -->
<g id="edge7" class="edge">
<title>dir_677b030cc750909e4cd27413873678d8&#45;&gt;dir_4ab6b4cc6a7edbff49100e9123df213f</title>
<path fill="none" stroke="#000000" d="M228.9836,-360.937C214.2061,-351.6038 195.6698,-339.8967 179.5097,-329.6904"/>
<polygon fill="#000000" stroke="#000000" points="181.1392,-326.5799 170.8153,-324.1992 177.4013,-332.4984 181.1392,-326.5799"/>
<g id="a_edge7&#45;headlabel"><a xlink:href="dir_000050_000027.html" target="_top" xlink:title="12">
<text text-anchor="middle" x="185.6946" y="-323.5988" font-family="Helvetica,sans-Serif" font-size="10.00" fill="#000000">12</text>
</a>
</g>
</g>
<!-- dir_677b030cc750909e4cd27413873678d8&#45;&gt;dir_f511f1e9c03c071966ae594f00bbc5e0 -->
<g id="edge8" class="edge">
<title>dir_677b030cc750909e4cd27413873678d8&#45;&gt;dir_f511f1e9c03c071966ae594f00bbc5e0</title>
<path fill="none" stroke="#000000" d="M249.6804,-359.7623C245.0032,-335.201 240.7604,-291.2474 240.0623,-262.3541"/>
<polygon fill="#000000" stroke="#000000" points="243.56,-262.0594 239.9748,-252.0896 236.5603,-262.1191 243.56,-262.0594"/>
<g id="a_edge8&#45;headlabel"><a xlink:href="dir_000050_000667.html" target="_top" xlink:title="2">
<text text-anchor="middle" x="246.4298" y="-263.1297" font-family="Helvetica,sans-Serif" font-size="10.00" fill="#000000">2</text>
</a>
</g>
</g>
<!-- dir_677b030cc750909e4cd27413873678d8&#45;&gt;dir_bcbb2cf9a3d3d83e5515c82071a07177 -->
<g id="edge9" class="edge">
<title>dir_677b030cc750909e4cd27413873678d8&#45;&gt;dir_bcbb2cf9a3d3d83e5515c82071a07177</title>
<path fill="none" stroke="#000000" d="M283.1731,-367.5843C327.8682,-348.472 412,-303.2929 412,-234 412,-234 412,-234 412,-162 412,-74.1606 291.1573,-38.2512 222.7831,-24.9635"/>
<polygon fill="#000000" stroke="#000000" points="223.162,-21.4742 212.6914,-23.092 221.8856,-28.3568 223.162,-21.4742"/>
<g id="a_edge9&#45;headlabel"><a xlink:href="dir_000050_000013.html" target="_top" xlink:title="1">
<text text-anchor="middle" x="227.2141" y="-16.8379" font-family="Helvetica,sans-Serif" font-size="10.00" fill="#000000">1</text>
</a>
</g>
</g>
<!-- dir_677b030cc750909e4cd27413873678d8&#45;&gt;dir_26637d1bd82229bc9ed97f7e706be743 -->
<g id="edge10" class="edge">
<title>dir_677b030cc750909e4cd27413873678d8&#45;&gt;dir_26637d1bd82229bc9ed97f7e706be743</title>
<path fill="none" stroke="#000000" d="M262.8516,-359.7679C266.4562,-349.4228 270.6117,-336.1516 273,-324 282.2711,-276.8284 286.7006,-263.4533 279,-216 277.582,-207.2621 274.9525,-198.0275 272.1329,-189.7136"/>
<polygon fill="#000000" stroke="#000000" points="275.358,-188.3399 268.6679,-180.1244 268.7746,-190.7187 275.358,-188.3399"/>
<g id="a_edge10&#45;headlabel"><a xlink:href="dir_000050_000553.html" target="_top" xlink:title="1">
<text text-anchor="middle" x="279.2498" y="-188.2557" font-family="Helvetica,sans-Serif" font-size="10.00" fill="#000000">1</text>
</a>
</g>
</g>
<!-- dir_677b030cc750909e4cd27413873678d8&#45;&gt;dir_2171f7ec022c5423887b07c69b2f5b48 -->
<g id="edge11" class="edge">
<title>dir_677b030cc750909e4cd27413873678d8&#45;&gt;dir_2171f7ec022c5423887b07c69b2f5b48</title>
<path fill="none" stroke="#000000" d="M270.8191,-359.6872C277.9792,-349.7445 285.8935,-336.8768 290,-324 314.3248,-247.7243 340.4705,-211.2309 297,-144 281.5046,-120.035 252.5588,-106.6003 226.9787,-99.1253"/>
<polygon fill="#000000" stroke="#000000" points="227.5744,-95.6615 217.0092,-96.4529 225.7619,-102.4228 227.5744,-95.6615"/>
<g id="a_edge11&#45;headlabel"><a xlink:href="dir_000050_000076.html" target="_top" xlink:title="15">
<text text-anchor="middle" x="231.7815" y="-91.3496" font-family="Helvetica,sans-Serif" font-size="10.00" fill="#000000">15</text>
</a>
</g>
</g>
<!-- dir_4ab6b4cc6a7edbff49100e9123df213f&#45;&gt;dir_f511f1e9c03c071966ae594f00bbc5e0 -->
<g id="edge12" class="edge">
<title>dir_4ab6b4cc6a7edbff49100e9123df213f&#45;&gt;dir_f511f1e9c03c071966ae594f00bbc5e0</title>
<path fill="none" stroke="#000000" d="M161.5342,-287.8314C174.6564,-277.7785 192.1625,-265.2439 207.6384,-254.7999"/>
<polygon fill="#000000" stroke="#000000" points="209.6023,-257.6972 215.9865,-249.2418 205.7229,-251.8705 209.6023,-257.6972"/>
<g id="a_edge12&#45;headlabel"><a xlink:href="dir_000027_000667.html" target="_top" xlink:title="3">
<text text-anchor="middle" x="208.1837" y="-259.5526" font-family="Helvetica,sans-Serif" font-size="10.00" fill="#000000">3</text>
</a>
</g>
</g>
<!-- dir_4ab6b4cc6a7edbff49100e9123df213f&#45;&gt;dir_bcbb2cf9a3d3d83e5515c82071a07177 -->
<g id="edge13" class="edge">
<title>dir_4ab6b4cc6a7edbff49100e9123df213f&#45;&gt;dir_bcbb2cf9a3d3d83e5515c82071a07177</title>
<path fill="none" stroke="#000000" d="M131.2414,-287.9051C114.5944,-247.5424 89.7574,-147.7429 119,-72 123.1612,-61.2218 130.5832,-51.2653 138.8199,-42.9146"/>
<polygon fill="#000000" stroke="#000000" points="141.2916,-45.3951 146.2064,-36.0091 136.5112,-40.2816 141.2916,-45.3951"/>
<g id="a_edge13&#45;headlabel"><a xlink:href="dir_000027_000013.html" target="_top" xlink:title="2">
<text text-anchor="middle" x="140.6048" y="-47.424" font-family="Helvetica,sans-Serif" font-size="10.00" fill="#000000">2</text>
</a>
</g>
</g>
<!-- dir_4ab6b4cc6a7edbff49100e9123df213f&#45;&gt;dir_2171f7ec022c5423887b07c69b2f5b48 -->
<g id="edge14" class="edge">
<title>dir_4ab6b4cc6a7edbff49100e9123df213f&#45;&gt;dir_2171f7ec022c5423887b07c69b2f5b48</title>
<path fill="none" stroke="#000000" d="M140.978,-287.9555C143.6188,-250.3144 157.4774,-163.1867 167.7189,-118.1246"/>
<polygon fill="#000000" stroke="#000000" points="171.1835,-118.6848 170.1047,-108.1451 164.3754,-117.0572 171.1835,-118.6848"/>
<g id="a_edge14&#45;headlabel"><a xlink:href="dir_000027_000076.html" target="_top" xlink:title="2">
<text text-anchor="middle" x="173.1093" y="-120.3411" font-family="Helvetica,sans-Serif" font-size="10.00" fill="#000000">2</text>
</a>
</g>
</g>
<!-- dir_f511f1e9c03c071966ae594f00bbc5e0&#45;&gt;dir_677b030cc750909e4cd27413873678d8 -->
<g id="edge15" class="edge">
<title>dir_f511f1e9c03c071966ae594f00bbc5e0&#45;&gt;dir_677b030cc750909e4cd27413873678d8</title>
<path fill="none" stroke="#000000" d="M249.2914,-252.0896C253.9703,-276.5727 258.221,-320.5174 258.9334,-349.4713"/>
<polygon fill="#000000" stroke="#000000" points="255.4361,-349.7945 259.0267,-359.7623 262.4358,-349.731 255.4361,-349.7945"/>
<g id="a_edge15&#45;headlabel"><a xlink:href="dir_000667_000050.html" target="_top" xlink:title="3">
<text text-anchor="middle" x="252.5645" y="-343.7257" font-family="Helvetica,sans-Serif" font-size="10.00" fill="#000000">3</text>
</a>
</g>
</g>
<!-- dir_f511f1e9c03c071966ae594f00bbc5e0&#45;&gt;dir_4ab6b4cc6a7edbff49100e9123df213f -->
<g id="edge16" class="edge">
<title>dir_f511f1e9c03c071966ae594f00bbc5e0&#45;&gt;dir_4ab6b4cc6a7edbff49100e9123df213f</title>
<path fill="none" stroke="#000000" d="M223.4469,-252.1832C211.3376,-261.4592 195.5003,-272.8454 180.9703,-282.752"/>
<polygon fill="#000000" stroke="#000000" points="178.9433,-279.8974 172.6045,-288.3868 182.8538,-285.7033 178.9433,-279.8974"/>
<g id="a_edge16&#45;headlabel"><a xlink:href="dir_000667_000027.html" target="_top" xlink:title="2">
<text text-anchor="middle" x="180.3385" y="-273.0344" font-family="Helvetica,sans-Serif" font-size="10.00" fill="#000000">2</text>
</a>
</g>
</g>
<!-- dir_f511f1e9c03c071966ae594f00bbc5e0&#45;&gt;dir_26637d1bd82229bc9ed97f7e706be743 -->
<g id="edge17" class="edge">
<title>dir_f511f1e9c03c071966ae594f00bbc5e0&#45;&gt;dir_26637d1bd82229bc9ed97f7e706be743</title>
<path fill="none" stroke="#000000" d="M241.5898,-215.8314C242.7774,-208.0463 244.8783,-198.7729 247.3616,-190.1347"/>
<polygon fill="#000000" stroke="#000000" points="250.7576,-191.0027 250.4207,-180.4133 244.0804,-188.9016 250.7576,-191.0027"/>
<g id="a_edge17&#45;headlabel"><a xlink:href="dir_000667_000553.html" target="_top" xlink:title="1">
<text text-anchor="middle" x="252.387" y="-192.7838" font-family="Helvetica,sans-Serif" font-size="10.00" fill="#000000">1</text>
</a>
</g>
</g>
<!-- dir_f511f1e9c03c071966ae594f00bbc5e0&#45;&gt;dir_2171f7ec022c5423887b07c69b2f5b48 -->
<g id="edge18" class="edge">
<title>dir_f511f1e9c03c071966ae594f00bbc5e0&#45;&gt;dir_2171f7ec022c5423887b07c69b2f5b48</title>
<path fill="none" stroke="#000000" d="M229.9679,-215.7623C216.13,-190.9846 195.4703,-146.4714 184.2008,-117.5939"/>
<polygon fill="#000000" stroke="#000000" points="187.4242,-116.2215 180.6328,-108.0896 180.8707,-118.6818 187.4242,-116.2215"/>
<g id="a_edge18&#45;headlabel"><a xlink:href="dir_000667_000076.html" target="_top" xlink:title="12">
<text text-anchor="middle" x="191.3456" y="-116.0889" font-family="Helvetica,sans-Serif" font-size="10.00" fill="#000000">12</text>
</a>
</g>
</g>
<!-- dir_bcbb2cf9a3d3d83e5515c82071a07177&#45;&gt;dir_4ab6b4cc6a7edbff49100e9123df213f -->
<g id="edge19" class="edge">
<title>dir_bcbb2cf9a3d3d83e5515c82071a07177&#45;&gt;dir_4ab6b4cc6a7edbff49100e9123df213f</title>
<path fill="none" stroke="#000000" d="M162.4436,-36.0091C153.2112,-45.5028 142.3802,-58.0645 137,-72 109.9278,-142.1213 129.2056,-232.8609 138.6656,-277.9701"/>
<polygon fill="#000000" stroke="#000000" points="135.2678,-278.8224 140.7226,-287.9051 142.1224,-277.4032 135.2678,-278.8224"/>
<g id="a_edge19&#45;headlabel"><a xlink:href="dir_000013_000027.html" target="_top" xlink:title="8">
<text text-anchor="middle" x="131.7588" y="-273.3781" font-family="Helvetica,sans-Serif" font-size="10.00" fill="#000000">8</text>
</a>
</g>
</g>
<!-- dir_bcbb2cf9a3d3d83e5515c82071a07177&#45;&gt;dir_2171f7ec022c5423887b07c69b2f5b48 -->
<g id="edge20" class="edge">
<title>dir_bcbb2cf9a3d3d83e5515c82071a07177&#45;&gt;dir_2171f7ec022c5423887b07c69b2f5b48</title>
<path fill="none" stroke="#000000" d="M182.976,-36.4133C183.7071,-44.0593 183.9203,-53.1084 183.6155,-61.5726"/>
<polygon fill="#000000" stroke="#000000" points="180.1048,-61.6264 182.9524,-71.8314 187.0902,-62.078 180.1048,-61.6264"/>
<g id="a_edge20&#45;headlabel"><a xlink:href="dir_000013_000076.html" target="_top" xlink:title="82">
<text text-anchor="middle" x="177.5032" y="-55.3562" font-family="Helvetica,sans-Serif" font-size="10.00" fill="#000000">82</text>
</a>
</g>
</g>
<!-- dir_26637d1bd82229bc9ed97f7e706be743&#45;&gt;dir_4ab6b4cc6a7edbff49100e9123df213f -->
<g id="edge21" class="edge">
<title>dir_26637d1bd82229bc9ed97f7e706be743&#45;&gt;dir_4ab6b4cc6a7edbff49100e9123df213f</title>
<path fill="none" stroke="#000000" d="M241.4921,-180.0373C230.8718,-190.2124 217.7453,-203.3827 207,-216 189.7097,-236.3025 172.1223,-260.9487 159.6095,-279.3129"/>
<polygon fill="#000000" stroke="#000000" points="156.5904,-277.5299 153.898,-287.7769 162.3929,-281.4454 156.5904,-277.5299"/>
<g id="a_edge21&#45;headlabel"><a xlink:href="dir_000553_000027.html" target="_top" xlink:title="9">
<text text-anchor="middle" x="156.2475" y="-270.4621" font-family="Helvetica,sans-Serif" font-size="10.00" fill="#000000">9</text>
</a>
</g>
</g>
<!-- dir_26637d1bd82229bc9ed97f7e706be743&#45;&gt;dir_f511f1e9c03c071966ae594f00bbc5e0 -->
<g id="edge22" class="edge">
<title>dir_26637d1bd82229bc9ed97f7e706be743&#45;&gt;dir_f511f1e9c03c071966ae594f00bbc5e0</title>
<path fill="none" stroke="#000000" d="M262.3727,-180.4133C261.1661,-188.2292 259.0517,-197.5113 256.5604,-206.136"/>
<polygon fill="#000000" stroke="#000000" points="253.1725,-205.2414 253.4946,-215.8314 259.8468,-207.352 253.1725,-205.2414"/>
<g id="a_edge22&#45;headlabel"><a xlink:href="dir_000553_000667.html" target="_top" xlink:title="2">
<text text-anchor="middle" x="251.5491" y="-198.4581" font-family="Helvetica,sans-Serif" font-size="10.00" fill="#000000">2</text>
</a>
</g>
</g>
<!-- dir_26637d1bd82229bc9ed97f7e706be743&#45;&gt;dir_bcbb2cf9a3d3d83e5515c82071a07177 -->
<g id="edge23" class="edge">
<title>dir_26637d1bd82229bc9ed97f7e706be743&#45;&gt;dir_bcbb2cf9a3d3d83e5515c82071a07177</title>
<path fill="none" stroke="#000000" d="M256.087,-143.8509C250.5069,-125.0036 240.2858,-95.0985 226,-72 219.7802,-61.9434 211.576,-52.0365 203.6634,-43.5089"/>
<polygon fill="#000000" stroke="#000000" points="205.9966,-40.8856 196.544,-36.1004 200.9494,-45.736 205.9966,-40.8856"/>
<g id="a_edge23&#45;headlabel"><a xlink:href="dir_000553_000013.html" target="_top" xlink:title="25">
<text text-anchor="middle" x="210.5345" y="-39.0101" font-family="Helvetica,sans-Serif" font-size="10.00" fill="#000000">25</text>
</a>
</g>
</g>
<!-- dir_26637d1bd82229bc9ed97f7e706be743&#45;&gt;dir_2171f7ec022c5423887b07c69b2f5b48 -->
<g id="edge24" class="edge">
<title>dir_26637d1bd82229bc9ed97f7e706be743&#45;&gt;dir_2171f7ec022c5423887b07c69b2f5b48</title>
<path fill="none" stroke="#000000" d="M239.8033,-143.8314C229.5566,-135.0485 217.0997,-124.3712 205.9903,-114.8489"/>
<polygon fill="#000000" stroke="#000000" points="208.0603,-112.0134 198.19,-108.1628 203.5048,-117.3282 208.0603,-112.0134"/>
<g id="a_edge24&#45;headlabel"><a xlink:href="dir_000553_000076.html" target="_top" xlink:title="15">
<text text-anchor="middle" x="212.6373" y="-109.697" font-family="Helvetica,sans-Serif" font-size="10.00" fill="#000000">15</text>
</a>
</g>
</g>
<!-- dir_2171f7ec022c5423887b07c69b2f5b48&#45;&gt;dir_4ab6b4cc6a7edbff49100e9123df213f -->
<g id="edge25" class="edge">
<title>dir_2171f7ec022c5423887b07c69b2f5b48&#45;&gt;dir_4ab6b4cc6a7edbff49100e9123df213f</title>
<path fill="none" stroke="#000000" d="M178.015,-108.1451C175.3542,-145.8741 161.4889,-233.0083 151.2538,-277.9956"/>
<polygon fill="#000000" stroke="#000000" points="147.7938,-277.4154 148.8698,-287.9555 154.6015,-279.0449 147.7938,-277.4154"/>
<g id="a_edge25&#45;headlabel"><a xlink:href="dir_000076_000027.html" target="_top" xlink:title="34">
<text text-anchor="middle" x="145.8692" y="-270.7587" font-family="Helvetica,sans-Serif" font-size="10.00" fill="#000000">34</text>
</a>
</g>
</g>
<!-- dir_2171f7ec022c5423887b07c69b2f5b48&#45;&gt;dir_f511f1e9c03c071966ae594f00bbc5e0 -->
<g id="edge26" class="edge">
<title>dir_2171f7ec022c5423887b07c69b2f5b48&#45;&gt;dir_f511f1e9c03c071966ae594f00bbc5e0</title>
<path fill="none" stroke="#000000" d="M189.9494,-108.0896C203.76,-132.7884 224.4247,-177.2933 235.7317,-206.2331"/>
<polygon fill="#000000" stroke="#000000" points="232.519,-207.6336 239.3142,-215.7623 239.0712,-205.1702 232.519,-207.6336"/>
<g id="a_edge26&#45;headlabel"><a xlink:href="dir_000076_000667.html" target="_top" xlink:title="15">
<text text-anchor="middle" x="228.5964" y="-202.7681" font-family="Helvetica,sans-Serif" font-size="10.00" fill="#000000">15</text>
</a>
</g>
</g>
<!-- dir_2171f7ec022c5423887b07c69b2f5b48&#45;&gt;dir_bcbb2cf9a3d3d83e5515c82071a07177 -->
<g id="edge27" class="edge">
<title>dir_2171f7ec022c5423887b07c69b2f5b48&#45;&gt;dir_bcbb2cf9a3d3d83e5515c82071a07177</title>
<path fill="none" stroke="#000000" d="M171.0476,-71.8314C170.2972,-64.131 170.0763,-54.9743 170.3849,-46.4166"/>
<polygon fill="#000000" stroke="#000000" points="173.8792,-46.6161 171.024,-36.4133 166.8935,-46.1697 173.8792,-46.6161"/>
<g id="a_edge27&#45;headlabel"><a xlink:href="dir_000076_000013.html" target="_top" xlink:title="7">
<text text-anchor="middle" x="176.4836" y="-47.8844" font-family="Helvetica,sans-Serif" font-size="10.00" fill="#000000">7</text>
</a>
</g>
</g>
</g>
</svg>
        <g id="navigator" transform="translate(0 0)" fill="#404254">
                <rect fill="#f2f5e9" fill-opacity="0.5" stroke="#606060" stroke-width=".5" x="0" y="0" width="60" height="60"/>
                <use id="zoomplus" xlink:href="#zoomPlus" x="17" y="9" onmousedown="handleZoom(evt,'in')"/>
                <use id="zoomminus" xlink:href="#zoomMin" x="42" y="9" onmousedown="handleZoom(evt,'out')"/>
                <use id="reset" xlink:href="#resetDef" x="30" y="36" onmousedown="handleReset()"/>
                <g id="arrowUp" xlink:href="#dirArrow" transform="translate(30 24)" onmousedown="handlePan(0,-1)">
                  <use xlink:href="#rim" fill="#404040">
                        <set attributeName="fill" to="#808080" begin="arrowUp.mouseover" end="arrowUp.mouseout"/>
                  </use>
                  <path fill="none" stroke="white" stroke-width="1.5" d="M0,-3.0v7 M-2.5,-0.5L0,-3.0L2.5,-0.5"/>
                </g>
                <g id="arrowRight" xlink:href="#dirArrow" transform="rotate(90) translate(36 -43)" onmousedown="handlePan(1,0)">
                  <use xlink:href="#rim" fill="#404040">
                        <set attributeName="fill" to="#808080" begin="arrowRight.mouseover" end="arrowRight.mouseout"/>
                  </use>
                  <path fill="none" stroke="white" stroke-width="1.5" d="M0,-3.0v7 M-2.5,-0.5L0,-3.0L2.5,-0.5"/>
                </g>
                <g id="arrowDown" xlink:href="#dirArrow" transform="rotate(180) translate(-30 -48)" onmousedown="handlePan(0,1)">
                  <use xlink:href="#rim" fill="#404040">
                        <set attributeName="fill" to="#808080" begin="arrowDown.mouseover" end="arrowDown.mouseout"/>
                  </use>
                  <path fill="none" stroke="white" stroke-width="1.5" d="M0,-3.0v7 M-2.5,-0.5L0,-3.0L2.5,-0.5"/>
                </g>
                <g id="arrowLeft" xlink:href="#dirArrow" transform="rotate(270) translate(-36 17)" onmousedown="handlePan(-1,0)">
                  <use xlink:href="#rim" fill="#404040">
                        <set attributeName="fill" to="#808080" begin="arrowLeft.mouseover" end="arrowLeft.mouseout"/>
                  </use>
                  <path fill="none" stroke="white" stroke-width="1.5" d="M0,-3.0v7 M-2.5,-0.5L0,-3.0L2.5,-0.5"/>
                </g>
        </g>
        <svg viewBox="0 0 15 15" width="100%" height="30px" preserveAspectRatio="xMaxYMin meet">
         <g id="arrow_out" transform="scale(0.3 0.3)">
          <a xlink:href="dir_685cddb227eacf501f568a534e55085f_dep_org.svg" target="_base">
           <rect id="button" ry="5" rx="5" y="6" x="6" height="38" width="38"
                fill="#f2f5e9" fill-opacity="0.5" stroke="#606060" stroke-width="1.0"/>
           <path id="arrow"
             d="M 11.500037,31.436501 C 11.940474,20.09759 22.043105,11.32322 32.158766,21.979434 L 37.068811,17.246167 C 37.068811,17.246167 37.088388,32 37.088388,32 L 22.160133,31.978069 C 22.160133,31.978069 26.997745,27.140456 26.997745,27.140456 C 18.528582,18.264221 13.291696,25.230495 11.500037,31.436501 z"
             style="fill:#404040;"/>
          </a>
         </g>
        </svg>
</svg>
