<?xml version="1.0" encoding="UTF-8" standalone="no"?>
<!DOCTYPE svg PUBLIC "-//W3C//DTD SVG 1.1//EN"
 "http://www.w3.org/Graphics/SVG/1.1/DTD/svg11.dtd">
<!-- Generated by graphviz version 2.40.1 (20161225.0304)
 -->
<!-- Title: /home/travis/build/AliceO2Group/AliceO2/Detectors/TPC/base/include/TPCBase Pages: 1 -->
<svg width="344pt" height="511pt"
 viewBox="0.00 0.00 344.00 511.00" xmlns="http://www.w3.org/2000/svg" xmlns:xlink="http://www.w3.org/1999/xlink">
<g id="graph0" class="graph" transform="scale(1 1) rotate(0) translate(4 507)">
<title>/home/travis/build/AliceO2Group/AliceO2/Detectors/TPC/base/include/TPCBase</title>
<g id="clust1" class="cluster">
<title>clusterdir_8878d5c3559bc3ebfb711a18a96e91b8</title>
<g id="a_clust1"><a xlink:href="dir_8878d5c3559bc3ebfb711a18a96e91b8.html" target="_top" xlink:title="include">
<polygon fill="#ddddee" stroke="#000000" points="148,-424 148,-495 224,-495 224,-424 148,-424"/>
<text text-anchor="middle" x="186" y="-483" font-family="Helvetica,sans-Serif" font-size="10.00" fill="#000000">include</text>
</a>
</g>
</g>
<!-- dir_239a27e254c844c85fd0f03c74d81139 -->
<g id="node1" class="node">
<title>dir_239a27e254c844c85fd0f03c74d81139</title>
<g id="a_node1"><a xlink:href="dir_239a27e254c844c85fd0f03c74d81139.html" target="_top" xlink:title="TPCBase">
<polygon fill="#eeeeff" stroke="#000000" points="215.5,-468 156.5,-468 156.5,-432 215.5,-432 215.5,-468"/>
<text text-anchor="middle" x="186" y="-447.5" font-family="Helvetica,sans-Serif" font-size="10.00" fill="#000000">TPCBase</text>
</a>
</g>
</g>
<!-- dir_4ab6b4cc6a7edbff49100e9123df213f -->
<g id="node2" class="node">
<title>dir_4ab6b4cc6a7edbff49100e9123df213f</title>
<g id="a_node2"><a xlink:href="dir_4ab6b4cc6a7edbff49100e9123df213f.html" target="_top" xlink:title="Common">
<polygon fill="none" stroke="#ff0000" points="171.5,-324 110.5,-324 110.5,-288 171.5,-288 171.5,-324"/>
<text text-anchor="middle" x="141" y="-303.5" font-family="Helvetica,sans-Serif" font-size="10.00" fill="#000000">Common</text>
</a>
</g>
</g>
<!-- dir_239a27e254c844c85fd0f03c74d81139&#45;&gt;dir_4ab6b4cc6a7edbff49100e9123df213f -->
<g id="edge6" class="edge">
<title>dir_239a27e254c844c85fd0f03c74d81139&#45;&gt;dir_4ab6b4cc6a7edbff49100e9123df213f</title>
<path fill="none" stroke="#000000" d="M180.3007,-431.7623C172.5915,-407.0928 158.7687,-362.8598 149.7416,-333.9731"/>
<polygon fill="#000000" stroke="#000000" points="152.9765,-332.5904 146.653,-324.0896 146.2951,-334.6784 152.9765,-332.5904"/>
<g id="a_edge6&#45;headlabel"><a xlink:href="dir_000052_000027.html" target="_top" xlink:title="8">
<text text-anchor="middle" x="156.7586" y="-332.6746" font-family="Helvetica,sans-Serif" font-size="10.00" fill="#000000">8</text>
</a>
</g>
</g>
<!-- dir_6af676bf18881990e4083e191d0e63e0 -->
<g id="node3" class="node">
<title>dir_6af676bf18881990e4083e191d0e63e0</title>
<g id="a_node3"><a xlink:href="dir_6af676bf18881990e4083e191d0e63e0.html" target="_top" xlink:title="CCDB">
<polygon fill="none" stroke="#ff0000" points="139,-396 85,-396 85,-360 139,-360 139,-396"/>
<text text-anchor="middle" x="112" y="-375.5" font-family="Helvetica,sans-Serif" font-size="10.00" fill="#000000">CCDB</text>
</a>
</g>
</g>
<!-- dir_239a27e254c844c85fd0f03c74d81139&#45;&gt;dir_6af676bf18881990e4083e191d0e63e0 -->
<g id="edge7" class="edge">
<title>dir_239a27e254c844c85fd0f03c74d81139&#45;&gt;dir_6af676bf18881990e4083e191d0e63e0</title>
<path fill="none" stroke="#000000" d="M167.3267,-431.8314C158.4751,-423.219 147.7514,-412.7851 138.1105,-403.4048"/>
<polygon fill="#000000" stroke="#000000" points="140.2754,-400.6279 130.6674,-396.1628 135.3939,-405.645 140.2754,-400.6279"/>
<g id="a_edge7&#45;headlabel"><a xlink:href="dir_000052_000019.html" target="_top" xlink:title="2">
<text text-anchor="middle" x="144.8317" y="-398.5996" font-family="Helvetica,sans-Serif" font-size="10.00" fill="#000000">2</text>
</a>
</g>
</g>
<!-- dir_f511f1e9c03c071966ae594f00bbc5e0 -->
<g id="node4" class="node">
<title>dir_f511f1e9c03c071966ae594f00bbc5e0</title>
<g id="a_node4"><a xlink:href="dir_f511f1e9c03c071966ae594f00bbc5e0.html" target="_top" xlink:title="GPU">
<polygon fill="none" stroke="#ff0000" points="232,-252 178,-252 178,-216 232,-216 232,-252"/>
<text text-anchor="middle" x="205" y="-231.5" font-family="Helvetica,sans-Serif" font-size="10.00" fill="#000000">GPU</text>
</a>
</g>
</g>
<!-- dir_239a27e254c844c85fd0f03c74d81139&#45;&gt;dir_f511f1e9c03c071966ae594f00bbc5e0 -->
<g id="edge8" class="edge">
<title>dir_239a27e254c844c85fd0f03c74d81139&#45;&gt;dir_f511f1e9c03c071966ae594f00bbc5e0</title>
<path fill="none" stroke="#000000" d="M187.5872,-431.9555C190.8983,-394.3144 198.5623,-307.1867 202.5261,-262.1246"/>
<polygon fill="#000000" stroke="#000000" points="206.0141,-262.4133 203.4039,-252.1451 199.041,-261.7999 206.0141,-262.4133"/>
<g id="a_edge8&#45;headlabel"><a xlink:href="dir_000052_000667.html" target="_top" xlink:title="2">
<text text-anchor="middle" x="208.5276" y="-263.7429" font-family="Helvetica,sans-Serif" font-size="10.00" fill="#000000">2</text>
</a>
</g>
</g>
<!-- dir_bcbb2cf9a3d3d83e5515c82071a07177 -->
<g id="node5" class="node">
<title>dir_bcbb2cf9a3d3d83e5515c82071a07177</title>
<g id="a_node5"><a xlink:href="dir_bcbb2cf9a3d3d83e5515c82071a07177.html" target="_top" xlink:title="Framework">
<polygon fill="none" stroke="#ff0000" points="120.5,-36 49.5,-36 49.5,0 120.5,0 120.5,-36"/>
<text text-anchor="middle" x="85" y="-15.5" font-family="Helvetica,sans-Serif" font-size="10.00" fill="#000000">Framework</text>
</a>
</g>
</g>
<!-- dir_239a27e254c844c85fd0f03c74d81139&#45;&gt;dir_bcbb2cf9a3d3d83e5515c82071a07177 -->
<g id="edge9" class="edge">
<title>dir_239a27e254c844c85fd0f03c74d81139&#45;&gt;dir_bcbb2cf9a3d3d83e5515c82071a07177</title>
<path fill="none" stroke="#000000" d="M156.1159,-441.9497C103.538,-425.7682 0,-384.0008 0,-306 0,-306 0,-306 0,-162 0,-115.4968 33.281,-70.8088 58.193,-43.8723"/>
<polygon fill="#000000" stroke="#000000" points="60.9206,-46.0835 65.2856,-36.4296 55.8531,-41.2543 60.9206,-46.0835"/>
<g id="a_edge9&#45;headlabel"><a xlink:href="dir_000052_000013.html" target="_top" xlink:title="1">
<text text-anchor="middle" x="60.4961" y="-48.1444" font-family="Helvetica,sans-Serif" font-size="10.00" fill="#000000">1</text>
</a>
</g>
</g>
<!-- dir_26637d1bd82229bc9ed97f7e706be743 -->
<g id="node6" class="node">
<title>dir_26637d1bd82229bc9ed97f7e706be743</title>
<g id="a_node6"><a xlink:href="dir_26637d1bd82229bc9ed97f7e706be743.html" target="_top" xlink:title="Raw">
<polygon fill="none" stroke="#ff0000" points="288,-180 234,-180 234,-144 288,-144 288,-180"/>
<text text-anchor="middle" x="261" y="-159.5" font-family="Helvetica,sans-Serif" font-size="10.00" fill="#000000">Raw</text>
</a>
</g>
</g>
<!-- dir_239a27e254c844c85fd0f03c74d81139&#45;&gt;dir_26637d1bd82229bc9ed97f7e706be743 -->
<g id="edge10" class="edge">
<title>dir_239a27e254c844c85fd0f03c74d81139&#45;&gt;dir_26637d1bd82229bc9ed97f7e706be743</title>
<path fill="none" stroke="#000000" d="M195.7207,-431.8467C213.3503,-397.7767 249.9768,-321.4197 263,-252 266.8363,-231.5508 266.1418,-208.0318 264.5914,-190.1655"/>
<polygon fill="#000000" stroke="#000000" points="268.063,-189.7067 263.578,-180.108 261.0983,-190.4085 268.063,-189.7067"/>
<g id="a_edge10&#45;headlabel"><a xlink:href="dir_000052_000553.html" target="_top" xlink:title="1">
<text text-anchor="middle" x="271.2482" y="-190.4985" font-family="Helvetica,sans-Serif" font-size="10.00" fill="#000000">1</text>
</a>
</g>
</g>
<!-- dir_2171f7ec022c5423887b07c69b2f5b48 -->
<g id="node7" class="node">
<title>dir_2171f7ec022c5423887b07c69b2f5b48</title>
<g id="a_node7"><a xlink:href="dir_2171f7ec022c5423887b07c69b2f5b48.html" target="_top" xlink:title="DataFormats">
<polygon fill="none" stroke="#ff0000" points="217,-108 137,-108 137,-72 217,-72 217,-108"/>
<text text-anchor="middle" x="177" y="-87.5" font-family="Helvetica,sans-Serif" font-size="10.00" fill="#000000">DataFormats</text>
</a>
</g>
</g>
<!-- dir_239a27e254c844c85fd0f03c74d81139&#45;&gt;dir_2171f7ec022c5423887b07c69b2f5b48 -->
<g id="edge11" class="edge">
<title>dir_239a27e254c844c85fd0f03c74d81139&#45;&gt;dir_2171f7ec022c5423887b07c69b2f5b48</title>
<path fill="none" stroke="#000000" d="M215.6352,-437.6655C259.3498,-417.2602 336,-372.0619 336,-306 336,-306 336,-306 336,-234 336,-190.4059 327.61,-175.0399 297,-144 277.8258,-124.5565 250.3956,-111.4973 226.5994,-103.0995"/>
<polygon fill="#000000" stroke="#000000" points="227.5955,-99.7422 217.0016,-99.8894 225.375,-106.3807 227.5955,-99.7422"/>
<g id="a_edge11&#45;headlabel"><a xlink:href="dir_000052_000076.html" target="_top" xlink:title="13">
<text text-anchor="middle" x="231.905" y="-95.6897" font-family="Helvetica,sans-Serif" font-size="10.00" fill="#000000">13</text>
</a>
</g>
</g>
<!-- dir_4ab6b4cc6a7edbff49100e9123df213f&#45;&gt;dir_f511f1e9c03c071966ae594f00bbc5e0 -->
<g id="edge1" class="edge">
<title>dir_4ab6b4cc6a7edbff49100e9123df213f&#45;&gt;dir_f511f1e9c03c071966ae594f00bbc5e0</title>
<path fill="none" stroke="#000000" d="M151.1975,-287.8314C157.8946,-279.3694 166.7943,-269.1489 175.4724,-259.8971"/>
<polygon fill="#000000" stroke="#000000" points="178.2563,-262.0511 182.6566,-252.4133 173.2065,-257.2034 178.2563,-262.0511"/>
<g id="a_edge1&#45;headlabel"><a xlink:href="dir_000027_000667.html" target="_top" xlink:title="3">
<text text-anchor="middle" x="177.8152" y="-264.1105" font-family="Helvetica,sans-Serif" font-size="10.00" fill="#000000">3</text>
</a>
</g>
</g>
<!-- dir_4ab6b4cc6a7edbff49100e9123df213f&#45;&gt;dir_bcbb2cf9a3d3d83e5515c82071a07177 -->
<g id="edge2" class="edge">
<title>dir_4ab6b4cc6a7edbff49100e9123df213f&#45;&gt;dir_bcbb2cf9a3d3d83e5515c82071a07177</title>
<path fill="none" stroke="#000000" d="M134.0103,-287.9843C120.4464,-239.2939 94.0542,-104.7961 86.2494,-46.0573"/>
<polygon fill="#000000" stroke="#000000" points="89.7083,-45.5078 85.0157,-36.0089 82.7605,-46.3609 89.7083,-45.5078"/>
<g id="a_edge2&#45;headlabel"><a xlink:href="dir_000027_000013.html" target="_top" xlink:title="2">
<text text-anchor="middle" x="92.9644" y="-46.2296" font-family="Helvetica,sans-Serif" font-size="10.00" fill="#000000">2</text>
</a>
</g>
</g>
<!-- dir_4ab6b4cc6a7edbff49100e9123df213f&#45;&gt;dir_2171f7ec022c5423887b07c69b2f5b48 -->
<g id="edge3" class="edge">
<title>dir_4ab6b4cc6a7edbff49100e9123df213f&#45;&gt;dir_2171f7ec022c5423887b07c69b2f5b48</title>
<path fill="none" stroke="#000000" d="M140.0615,-287.9555C142.8766,-250.3144 157.1385,-163.1867 167.5887,-118.1246"/>
<polygon fill="#000000" stroke="#000000" points="171.0534,-118.6894 170.0207,-108.1451 164.2525,-117.032 171.0534,-118.6894"/>
<g id="a_edge3&#45;headlabel"><a xlink:href="dir_000027_000076.html" target="_top" xlink:title="2">
<text text-anchor="middle" x="172.9609" y="-120.3541" font-family="Helvetica,sans-Serif" font-size="10.00" fill="#000000">2</text>
</a>
</g>
</g>
<!-- dir_6af676bf18881990e4083e191d0e63e0&#45;&gt;dir_4ab6b4cc6a7edbff49100e9123df213f -->
<g id="edge4" class="edge">
<title>dir_6af676bf18881990e4083e191d0e63e0&#45;&gt;dir_4ab6b4cc6a7edbff49100e9123df213f</title>
<path fill="none" stroke="#000000" d="M119.3179,-359.8314C122.4876,-351.9617 126.27,-342.5712 129.7813,-333.8533"/>
<polygon fill="#000000" stroke="#000000" points="133.0939,-334.9968 133.5835,-324.4133 126.6008,-332.3815 133.0939,-334.9968"/>
<g id="a_edge4&#45;headlabel"><a xlink:href="dir_000019_000027.html" target="_top" xlink:title="4">
<text text-anchor="middle" x="134.3847" y="-336.8919" font-family="Helvetica,sans-Serif" font-size="10.00" fill="#000000">4</text>
</a>
</g>
</g>
<!-- dir_6af676bf18881990e4083e191d0e63e0&#45;&gt;dir_bcbb2cf9a3d3d83e5515c82071a07177 -->
<g id="edge5" class="edge">
<title>dir_6af676bf18881990e4083e191d0e63e0&#45;&gt;dir_bcbb2cf9a3d3d83e5515c82071a07177</title>
<path fill="none" stroke="#000000" d="M95.577,-359.9758C73.776,-334.1064 38,-284.032 38,-234 38,-234 38,-234 38,-162 38,-119.6562 56.5932,-73.6118 70.3906,-45.273"/>
<polygon fill="#000000" stroke="#000000" points="73.6755,-46.5304 75.0325,-36.0228 67.4191,-43.3907 73.6755,-46.5304"/>
<g id="a_edge5&#45;headlabel"><a xlink:href="dir_000019_000013.html" target="_top" xlink:title="2">
<text text-anchor="middle" x="74.601" y="-48.5166" font-family="Helvetica,sans-Serif" font-size="10.00" fill="#000000">2</text>
</a>
</g>
</g>
<!-- dir_f511f1e9c03c071966ae594f00bbc5e0&#45;&gt;dir_4ab6b4cc6a7edbff49100e9123df213f -->
<g id="edge12" class="edge">
<title>dir_f511f1e9c03c071966ae594f00bbc5e0&#45;&gt;dir_4ab6b4cc6a7edbff49100e9123df213f</title>
<path fill="none" stroke="#000000" d="M194.6087,-252.4133C187.8694,-260.9088 178.9509,-271.1366 170.2773,-280.3696"/>
<polygon fill="#000000" stroke="#000000" points="167.5106,-278.1972 163.1023,-287.8314 172.5564,-283.049 167.5106,-278.1972"/>
<g id="a_edge12&#45;headlabel"><a xlink:href="dir_000667_000027.html" target="_top" xlink:title="2">
<text text-anchor="middle" x="167.9555" y="-271.1382" font-family="Helvetica,sans-Serif" font-size="10.00" fill="#000000">2</text>
</a>
</g>
</g>
<!-- dir_f511f1e9c03c071966ae594f00bbc5e0&#45;&gt;dir_26637d1bd82229bc9ed97f7e706be743 -->
<g id="edge13" class="edge">
<title>dir_f511f1e9c03c071966ae594f00bbc5e0&#45;&gt;dir_26637d1bd82229bc9ed97f7e706be743</title>
<path fill="none" stroke="#000000" d="M213.1788,-215.8314C218.8781,-207.454 226.5446,-197.3531 234.1203,-188.1749"/>
<polygon fill="#000000" stroke="#000000" points="236.9041,-190.3038 240.7026,-180.4133 231.5653,-185.7763 236.9041,-190.3038"/>
<g id="a_edge13&#45;headlabel"><a xlink:href="dir_000667_000553.html" target="_top" xlink:title="1">
<text text-anchor="middle" x="236.7446" y="-192.3817" font-family="Helvetica,sans-Serif" font-size="10.00" fill="#000000">1</text>
</a>
</g>
</g>
<!-- dir_f511f1e9c03c071966ae594f00bbc5e0&#45;&gt;dir_2171f7ec022c5423887b07c69b2f5b48 -->
<g id="edge14" class="edge">
<title>dir_f511f1e9c03c071966ae594f00bbc5e0&#45;&gt;dir_2171f7ec022c5423887b07c69b2f5b48</title>
<path fill="none" stroke="#000000" d="M196.7806,-215.7623C189.545,-191.201 180.7237,-147.2474 177.0159,-118.3541"/>
<polygon fill="#000000" stroke="#000000" points="180.457,-117.6347 175.8591,-108.0896 173.5011,-118.4187 180.457,-117.6347"/>
<g id="a_edge14&#45;headlabel"><a xlink:href="dir_000667_000076.html" target="_top" xlink:title="12">
<text text-anchor="middle" x="183.6809" y="-118.3888" font-family="Helvetica,sans-Serif" font-size="10.00" fill="#000000">12</text>
</a>
</g>
</g>
<!-- dir_bcbb2cf9a3d3d83e5515c82071a07177&#45;&gt;dir_4ab6b4cc6a7edbff49100e9123df213f -->
<g id="edge15" class="edge">
<title>dir_bcbb2cf9a3d3d83e5515c82071a07177&#45;&gt;dir_4ab6b4cc6a7edbff49100e9123df213f</title>
<path fill="none" stroke="#000000" d="M91.9878,-36.0089C105.5505,-84.6912 131.943,-219.1886 139.7495,-277.9345"/>
<polygon fill="#000000" stroke="#000000" points="136.2908,-278.4855 140.9836,-287.9843 143.2386,-277.6323 136.2908,-278.4855"/>
<g id="a_edge15&#45;headlabel"><a xlink:href="dir_000013_000027.html" target="_top" xlink:title="8">
<text text-anchor="middle" x="133.0347" y="-272.7637" font-family="Helvetica,sans-Serif" font-size="10.00" fill="#000000">8</text>
</a>
</g>
</g>
<!-- dir_bcbb2cf9a3d3d83e5515c82071a07177&#45;&gt;dir_2171f7ec022c5423887b07c69b2f5b48 -->
<g id="edge16" class="edge">
<title>dir_bcbb2cf9a3d3d83e5515c82071a07177&#45;&gt;dir_2171f7ec022c5423887b07c69b2f5b48</title>
<path fill="none" stroke="#000000" d="M114.1599,-36.1628C126.3549,-45.0301 140.3163,-55.8295 152.0331,-65.4219"/>
<polygon fill="#000000" stroke="#000000" points="149.8111,-68.1261 159.7369,-71.8314 154.2881,-62.745 149.8111,-68.1261"/>
<g id="a_edge16&#45;headlabel"><a xlink:href="dir_000013_000076.html" target="_top" xlink:title="82">
<text text-anchor="middle" x="145.2319" y="-65.5098" font-family="Helvetica,sans-Serif" font-size="10.00" fill="#000000">82</text>
</a>
</g>
</g>
<!-- dir_26637d1bd82229bc9ed97f7e706be743&#45;&gt;dir_4ab6b4cc6a7edbff49100e9123df213f -->
<g id="edge17" class="edge">
<title>dir_26637d1bd82229bc9ed97f7e706be743&#45;&gt;dir_4ab6b4cc6a7edbff49100e9123df213f</title>
<path fill="none" stroke="#000000" d="M261.2513,-180.0447C260.629,-199.6328 256.9234,-230.9301 241,-252 226.2116,-271.5681 202.2052,-284.8652 181.4205,-293.3674"/>
<polygon fill="#000000" stroke="#000000" points="179.915,-290.1964 171.8372,-297.052 182.4271,-296.7301 179.915,-290.1964"/>
<g id="a_edge17&#45;headlabel"><a xlink:href="dir_000553_000027.html" target="_top" xlink:title="9">
<text text-anchor="middle" x="182.2513" y="-283.7563" font-family="Helvetica,sans-Serif" font-size="10.00" fill="#000000">9</text>
</a>
</g>
</g>
<!-- dir_26637d1bd82229bc9ed97f7e706be743&#45;&gt;dir_f511f1e9c03c071966ae594f00bbc5e0 -->
<g id="edge18" class="edge">
<title>dir_26637d1bd82229bc9ed97f7e706be743&#45;&gt;dir_f511f1e9c03c071966ae594f00bbc5e0</title>
<path fill="none" stroke="#000000" d="M252.6546,-180.4133C246.9172,-188.8239 239.2326,-198.9323 231.6589,-208.0923"/>
<polygon fill="#000000" stroke="#000000" points="228.8912,-205.9444 225.0836,-215.8314 234.2257,-210.4768 228.8912,-205.9444"/>
<g id="a_edge18&#45;headlabel"><a xlink:href="dir_000553_000667.html" target="_top" xlink:title="2">
<text text-anchor="middle" x="229.0549" y="-198.8666" font-family="Helvetica,sans-Serif" font-size="10.00" fill="#000000">2</text>
</a>
</g>
</g>
<!-- dir_26637d1bd82229bc9ed97f7e706be743&#45;&gt;dir_bcbb2cf9a3d3d83e5515c82071a07177 -->
<g id="edge19" class="edge">
<title>dir_26637d1bd82229bc9ed97f7e706be743&#45;&gt;dir_bcbb2cf9a3d3d83e5515c82071a07177</title>
<path fill="none" stroke="#000000" d="M258.3794,-143.7282C254.5886,-123.6433 245.7292,-91.628 226,-72 200.2887,-46.4206 161.1829,-32.7172 130.6716,-25.5245"/>
<polygon fill="#000000" stroke="#000000" points="131.2041,-22.058 120.6855,-23.3271 129.6997,-28.8944 131.2041,-22.058"/>
<g id="a_edge19&#45;headlabel"><a xlink:href="dir_000553_000013.html" target="_top" xlink:title="25">
<text text-anchor="middle" x="135.3248" y="-17.5575" font-family="Helvetica,sans-Serif" font-size="10.00" fill="#000000">25</text>
</a>
</g>
</g>
<!-- dir_26637d1bd82229bc9ed97f7e706be743&#45;&gt;dir_2171f7ec022c5423887b07c69b2f5b48 -->
<g id="edge20" class="edge">
<title>dir_26637d1bd82229bc9ed97f7e706be743&#45;&gt;dir_2171f7ec022c5423887b07c69b2f5b48</title>
<path fill="none" stroke="#000000" d="M239.8033,-143.8314C229.5566,-135.0485 217.0997,-124.3712 205.9903,-114.8489"/>
<polygon fill="#000000" stroke="#000000" points="208.0603,-112.0134 198.19,-108.1628 203.5048,-117.3282 208.0603,-112.0134"/>
<g id="a_edge20&#45;headlabel"><a xlink:href="dir_000553_000076.html" target="_top" xlink:title="15">
<text text-anchor="middle" x="212.6373" y="-109.697" font-family="Helvetica,sans-Serif" font-size="10.00" fill="#000000">15</text>
</a>
</g>
</g>
<!-- dir_2171f7ec022c5423887b07c69b2f5b48&#45;&gt;dir_4ab6b4cc6a7edbff49100e9123df213f -->
<g id="edge21" class="edge">
<title>dir_2171f7ec022c5423887b07c69b2f5b48&#45;&gt;dir_4ab6b4cc6a7edbff49100e9123df213f</title>
<path fill="none" stroke="#000000" d="M177.931,-108.1451C175.0955,-145.8741 160.8268,-233.0083 150.3834,-277.9956"/>
<polygon fill="#000000" stroke="#000000" points="146.9235,-277.4108 147.9533,-287.9555 153.724,-279.0701 146.9235,-277.4108"/>
<g id="a_edge21&#45;headlabel"><a xlink:href="dir_000076_000027.html" target="_top" xlink:title="34">
<text text-anchor="middle" x="145.0171" y="-270.7457" font-family="Helvetica,sans-Serif" font-size="10.00" fill="#000000">34</text>
</a>
</g>
</g>
<!-- dir_2171f7ec022c5423887b07c69b2f5b48&#45;&gt;dir_f511f1e9c03c071966ae594f00bbc5e0 -->
<g id="edge22" class="edge">
<title>dir_2171f7ec022c5423887b07c69b2f5b48&#45;&gt;dir_f511f1e9c03c071966ae594f00bbc5e0</title>
<path fill="none" stroke="#000000" d="M185.1757,-108.0896C192.4049,-132.5727 201.2333,-176.5174 204.9617,-205.4713"/>
<polygon fill="#000000" stroke="#000000" points="201.524,-206.2196 206.127,-215.7623 208.4795,-205.432 201.524,-206.2196"/>
<g id="a_edge22&#45;headlabel"><a xlink:href="dir_000076_000667.html" target="_top" xlink:title="15">
<text text-anchor="middle" x="198.2984" y="-200.4673" font-family="Helvetica,sans-Serif" font-size="10.00" fill="#000000">15</text>
</a>
</g>
</g>
<!-- dir_2171f7ec022c5423887b07c69b2f5b48&#45;&gt;dir_bcbb2cf9a3d3d83e5515c82071a07177 -->
<g id="edge23" class="edge">
<title>dir_2171f7ec022c5423887b07c69b2f5b48&#45;&gt;dir_bcbb2cf9a3d3d83e5515c82071a07177</title>
<path fill="none" stroke="#000000" d="M147.8321,-71.8314C135.6364,-62.9632 121.6751,-52.1637 109.9592,-42.5718"/>
<polygon fill="#000000" stroke="#000000" points="112.182,-39.8682 102.2562,-36.1628 107.7049,-45.2493 112.182,-39.8682"/>
<g id="a_edge23&#45;headlabel"><a xlink:href="dir_000076_000013.html" target="_top" xlink:title="7">
<text text-anchor="middle" x="116.7612" y="-37.4847" font-family="Helvetica,sans-Serif" font-size="10.00" fill="#000000">7</text>
</a>
</g>
</g>
</g>
</svg>
