<?xml version="1.0" encoding="UTF-8" standalone="no"?>
<!DOCTYPE svg PUBLIC "-//W3C//DTD SVG 1.1//EN"
 "http://www.w3.org/Graphics/SVG/1.1/DTD/svg11.dtd">
<!-- Generated by graphviz version 2.40.1 (20161225.0304)
 -->
<!-- Title: /home/travis/build/AliceO2Group/AliceO2/Detectors/MUON/MID/Raw/test Pages: 1 -->
<svg width="222pt" height="367pt"
 viewBox="0.00 0.00 222.21 367.00" xmlns="http://www.w3.org/2000/svg" xmlns:xlink="http://www.w3.org/1999/xlink">
<g id="graph0" class="graph" transform="scale(1 1) rotate(0) translate(4 363)">
<title>/home/travis/build/AliceO2Group/AliceO2/Detectors/MUON/MID/Raw/test</title>
<g id="clust1" class="cluster">
<title>clusterdir_55bb03bc4479a61c5f6db133927cb48c</title>
<g id="a_clust1"><a xlink:href="dir_55bb03bc4479a61c5f6db133927cb48c.html" target="_top" xlink:title="Raw">
<polygon fill="#ddddee" stroke="#000000" points="119,-280 119,-351 189,-351 189,-280 119,-280"/>
<text text-anchor="middle" x="154" y="-339" font-family="Helvetica,sans-Serif" font-size="10.00" fill="#000000">Raw</text>
</a>
</g>
</g>
<!-- dir_afdedb4ee6548c342d3449f0674fa36d -->
<g id="node1" class="node">
<title>dir_afdedb4ee6548c342d3449f0674fa36d</title>
<g id="a_node1"><a xlink:href="dir_afdedb4ee6548c342d3449f0674fa36d.html" target="_top" xlink:title="test">
<polygon fill="#eeeeff" stroke="#000000" points="181,-324 127,-324 127,-288 181,-288 181,-324"/>
<text text-anchor="middle" x="154" y="-303.5" font-family="Helvetica,sans-Serif" font-size="10.00" fill="#000000">test</text>
</a>
</g>
</g>
<!-- dir_c79384bd87b5c57290ef89b923823ea3 -->
<g id="node2" class="node">
<title>dir_c79384bd87b5c57290ef89b923823ea3</title>
<g id="a_node2"><a xlink:href="dir_c79384bd87b5c57290ef89b923823ea3.html" target="_top" xlink:title="include">
<polygon fill="none" stroke="#ff0000" points="54,-252 0,-252 0,-216 54,-216 54,-252"/>
<text text-anchor="middle" x="27" y="-231.5" font-family="Helvetica,sans-Serif" font-size="10.00" fill="#000000">include</text>
</a>
</g>
</g>
<!-- dir_afdedb4ee6548c342d3449f0674fa36d&#45;&gt;dir_c79384bd87b5c57290ef89b923823ea3 -->
<g id="edge3" class="edge">
<title>dir_afdedb4ee6548c342d3449f0674fa36d&#45;&gt;dir_c79384bd87b5c57290ef89b923823ea3</title>
<path fill="none" stroke="#000000" d="M126.7553,-290.5542C108.1732,-280.0195 83.362,-265.9532 63.1328,-254.4848"/>
<polygon fill="#000000" stroke="#000000" points="64.625,-251.3074 54.1996,-249.4203 61.1727,-257.3969 64.625,-251.3074"/>
<g id="a_edge3&#45;headlabel"><a xlink:href="dir_000557_000417.html" target="_top" xlink:title="12">
<text text-anchor="middle" x="69.1524" y="-248.1102" font-family="Helvetica,sans-Serif" font-size="10.00" fill="#000000">12</text>
</a>
</g>
</g>
<!-- dir_b5547b1068d53f0f904ee5a2a84992af -->
<g id="node3" class="node">
<title>dir_b5547b1068d53f0f904ee5a2a84992af</title>
<g id="a_node3"><a xlink:href="dir_b5547b1068d53f0f904ee5a2a84992af.html" target="_top" xlink:title="Base">
<polygon fill="none" stroke="#ff0000" points="126,-252 72,-252 72,-216 126,-216 126,-252"/>
<text text-anchor="middle" x="99" y="-231.5" font-family="Helvetica,sans-Serif" font-size="10.00" fill="#000000">Base</text>
</a>
</g>
</g>
<!-- dir_afdedb4ee6548c342d3449f0674fa36d&#45;&gt;dir_b5547b1068d53f0f904ee5a2a84992af -->
<g id="edge4" class="edge">
<title>dir_afdedb4ee6548c342d3449f0674fa36d&#45;&gt;dir_b5547b1068d53f0f904ee5a2a84992af</title>
<path fill="none" stroke="#000000" d="M140.1212,-287.8314C133.7864,-279.5386 126.1616,-269.557 119.2074,-260.4533"/>
<polygon fill="#000000" stroke="#000000" points="121.9175,-258.2353 113.0657,-252.4133 116.3548,-262.4847 121.9175,-258.2353"/>
<g id="a_edge4&#45;headlabel"><a xlink:href="dir_000557_000545.html" target="_top" xlink:title="5">
<text text-anchor="middle" x="126.3558" y="-256.8683" font-family="Helvetica,sans-Serif" font-size="10.00" fill="#000000">5</text>
</a>
</g>
</g>
<!-- dir_bcbb2cf9a3d3d83e5515c82071a07177 -->
<g id="node4" class="node">
<title>dir_bcbb2cf9a3d3d83e5515c82071a07177</title>
<g id="a_node4"><a xlink:href="dir_bcbb2cf9a3d3d83e5515c82071a07177.html" target="_top" xlink:title="Framework">
<polygon fill="none" stroke="#ff0000" points="201.5,-108 130.5,-108 130.5,-72 201.5,-72 201.5,-108"/>
<text text-anchor="middle" x="166" y="-87.5" font-family="Helvetica,sans-Serif" font-size="10.00" fill="#000000">Framework</text>
</a>
</g>
</g>
<!-- dir_afdedb4ee6548c342d3449f0674fa36d&#45;&gt;dir_bcbb2cf9a3d3d83e5515c82071a07177 -->
<g id="edge5" class="edge">
<title>dir_afdedb4ee6548c342d3449f0674fa36d&#45;&gt;dir_bcbb2cf9a3d3d83e5515c82071a07177</title>
<path fill="none" stroke="#000000" d="M155.7853,-287.6584C158.0952,-263.1496 162.0535,-218.3523 164,-180 165.0431,-159.4476 165.5423,-136.2278 165.7811,-118.5216"/>
<polygon fill="#000000" stroke="#000000" points="169.2835,-118.3222 165.8987,-108.2826 162.284,-118.2417 169.2835,-118.3222"/>
<g id="a_edge5&#45;headlabel"><a xlink:href="dir_000557_000013.html" target="_top" xlink:title="3">
<text text-anchor="middle" x="172.0814" y="-119.4492" font-family="Helvetica,sans-Serif" font-size="10.00" fill="#000000">3</text>
</a>
</g>
</g>
<!-- dir_26637d1bd82229bc9ed97f7e706be743 -->
<g id="node5" class="node">
<title>dir_26637d1bd82229bc9ed97f7e706be743</title>
<g id="a_node5"><a xlink:href="dir_26637d1bd82229bc9ed97f7e706be743.html" target="_top" xlink:title="Raw">
<polygon fill="none" stroke="#ff0000" points="155,-180 101,-180 101,-144 155,-144 155,-180"/>
<text text-anchor="middle" x="128" y="-159.5" font-family="Helvetica,sans-Serif" font-size="10.00" fill="#000000">Raw</text>
</a>
</g>
</g>
<!-- dir_afdedb4ee6548c342d3449f0674fa36d&#45;&gt;dir_26637d1bd82229bc9ed97f7e706be743 -->
<g id="edge6" class="edge">
<title>dir_afdedb4ee6548c342d3449f0674fa36d&#45;&gt;dir_26637d1bd82229bc9ed97f7e706be743</title>
<path fill="none" stroke="#000000" d="M150.7071,-287.7623C146.2529,-263.0928 138.2663,-218.8598 133.0507,-189.9731"/>
<polygon fill="#000000" stroke="#000000" points="136.4874,-189.3086 131.2662,-180.0896 129.5988,-190.5524 136.4874,-189.3086"/>
<g id="a_edge6&#45;headlabel"><a xlink:href="dir_000557_000553.html" target="_top" xlink:title="2">
<text text-anchor="middle" x="139.9201" y="-189.8415" font-family="Helvetica,sans-Serif" font-size="10.00" fill="#000000">2</text>
</a>
</g>
</g>
<!-- dir_2171f7ec022c5423887b07c69b2f5b48 -->
<g id="node6" class="node">
<title>dir_2171f7ec022c5423887b07c69b2f5b48</title>
<g id="a_node6"><a xlink:href="dir_2171f7ec022c5423887b07c69b2f5b48.html" target="_top" xlink:title="DataFormats">
<polygon fill="none" stroke="#ff0000" points="206,-36 126,-36 126,0 206,0 206,-36"/>
<text text-anchor="middle" x="166" y="-15.5" font-family="Helvetica,sans-Serif" font-size="10.00" fill="#000000">DataFormats</text>
</a>
</g>
</g>
<!-- dir_afdedb4ee6548c342d3449f0674fa36d&#45;&gt;dir_2171f7ec022c5423887b07c69b2f5b48 -->
<g id="edge7" class="edge">
<title>dir_afdedb4ee6548c342d3449f0674fa36d&#45;&gt;dir_2171f7ec022c5423887b07c69b2f5b48</title>
<path fill="none" stroke="#000000" d="M161.7742,-287.7111C166.0113,-277.3483 171.1585,-264.0781 175,-252 194.9948,-189.1334 202.9396,-173.4754 211,-108 212.9549,-92.1199 216.4468,-87.0443 211,-72 207.2851,-61.7392 200.6748,-52.0579 193.6452,-43.8033"/>
<polygon fill="#000000" stroke="#000000" points="196.18,-41.3886 186.8578,-36.3539 191.0056,-46.1031 196.18,-41.3886"/>
<g id="a_edge7&#45;headlabel"><a xlink:href="dir_000557_000076.html" target="_top" xlink:title="4">
<text text-anchor="middle" x="200.6997" y="-39.6334" font-family="Helvetica,sans-Serif" font-size="10.00" fill="#000000">4</text>
</a>
</g>
</g>
<!-- dir_c79384bd87b5c57290ef89b923823ea3&#45;&gt;dir_26637d1bd82229bc9ed97f7e706be743 -->
<g id="edge1" class="edge">
<title>dir_c79384bd87b5c57290ef89b923823ea3&#45;&gt;dir_26637d1bd82229bc9ed97f7e706be743</title>
<path fill="none" stroke="#000000" d="M52.4866,-215.8314C65.1659,-206.7927 80.6596,-195.7476 94.3055,-186.0198"/>
<polygon fill="#000000" stroke="#000000" points="96.4105,-188.8176 102.5216,-180.1628 92.3471,-183.1176 96.4105,-188.8176"/>
<g id="a_edge1&#45;headlabel"><a xlink:href="dir_000417_000553.html" target="_top" xlink:title="2">
<text text-anchor="middle" x="95.1316" y="-190.7161" font-family="Helvetica,sans-Serif" font-size="10.00" fill="#000000">2</text>
</a>
</g>
</g>
<!-- dir_c79384bd87b5c57290ef89b923823ea3&#45;&gt;dir_2171f7ec022c5423887b07c69b2f5b48 -->
<g id="edge2" class="edge">
<title>dir_c79384bd87b5c57290ef89b923823ea3&#45;&gt;dir_2171f7ec022c5423887b07c69b2f5b48</title>
<path fill="none" stroke="#000000" d="M34.6007,-215.7574C47.9894,-184.6825 77.727,-120.1709 113,-72 120.383,-61.9174 129.5978,-51.8712 138.2635,-43.2268"/>
<polygon fill="#000000" stroke="#000000" points="140.943,-45.5035 145.6776,-36.0254 136.0657,-40.4823 140.943,-45.5035"/>
<g id="a_edge2&#45;headlabel"><a xlink:href="dir_000417_000076.html" target="_top" xlink:title="15">
<text text-anchor="middle" x="140.3428" y="-47.5447" font-family="Helvetica,sans-Serif" font-size="10.00" fill="#000000">15</text>
</a>
</g>
</g>
<!-- dir_bcbb2cf9a3d3d83e5515c82071a07177&#45;&gt;dir_2171f7ec022c5423887b07c69b2f5b48 -->
<g id="edge8" class="edge">
<title>dir_bcbb2cf9a3d3d83e5515c82071a07177&#45;&gt;dir_2171f7ec022c5423887b07c69b2f5b48</title>
<path fill="none" stroke="#000000" d="M160.0476,-71.8314C159.2972,-64.131 159.0763,-54.9743 159.3849,-46.4166"/>
<polygon fill="#000000" stroke="#000000" points="162.8792,-46.6161 160.024,-36.4133 155.8935,-46.1697 162.8792,-46.6161"/>
<g id="a_edge8&#45;headlabel"><a xlink:href="dir_000013_000076.html" target="_top" xlink:title="82">
<text text-anchor="middle" x="165.4836" y="-47.8844" font-family="Helvetica,sans-Serif" font-size="10.00" fill="#000000">82</text>
</a>
</g>
</g>
<!-- dir_26637d1bd82229bc9ed97f7e706be743&#45;&gt;dir_bcbb2cf9a3d3d83e5515c82071a07177 -->
<g id="edge9" class="edge">
<title>dir_26637d1bd82229bc9ed97f7e706be743&#45;&gt;dir_bcbb2cf9a3d3d83e5515c82071a07177</title>
<path fill="none" stroke="#000000" d="M137.589,-143.8314C141.8317,-135.7925 146.9121,-126.1666 151.596,-117.2918"/>
<polygon fill="#000000" stroke="#000000" points="154.7096,-118.8908 156.2819,-108.4133 148.5189,-115.6235 154.7096,-118.8908"/>
<g id="a_edge9&#45;headlabel"><a xlink:href="dir_000553_000013.html" target="_top" xlink:title="25">
<text text-anchor="middle" x="155.5428" y="-120.895" font-family="Helvetica,sans-Serif" font-size="10.00" fill="#000000">25</text>
</a>
</g>
</g>
<!-- dir_26637d1bd82229bc9ed97f7e706be743&#45;&gt;dir_2171f7ec022c5423887b07c69b2f5b48 -->
<g id="edge10" class="edge">
<title>dir_26637d1bd82229bc9ed97f7e706be743&#45;&gt;dir_2171f7ec022c5423887b07c69b2f5b48</title>
<path fill="none" stroke="#000000" d="M122.2749,-143.8184C117.3935,-125.2056 112.4103,-95.7251 121,-72 124.7149,-61.7392 131.3252,-52.0579 138.3548,-43.8033"/>
<polygon fill="#000000" stroke="#000000" points="140.9944,-46.1031 145.1422,-36.3539 135.82,-41.3886 140.9944,-46.1031"/>
<g id="a_edge10&#45;headlabel"><a xlink:href="dir_000553_000076.html" target="_top" xlink:title="15">
<text text-anchor="middle" x="140.6722" y="-48.1724" font-family="Helvetica,sans-Serif" font-size="10.00" fill="#000000">15</text>
</a>
</g>
</g>
<!-- dir_2171f7ec022c5423887b07c69b2f5b48&#45;&gt;dir_bcbb2cf9a3d3d83e5515c82071a07177 -->
<g id="edge11" class="edge">
<title>dir_2171f7ec022c5423887b07c69b2f5b48&#45;&gt;dir_bcbb2cf9a3d3d83e5515c82071a07177</title>
<path fill="none" stroke="#000000" d="M171.976,-36.4133C172.7071,-44.0593 172.9203,-53.1084 172.6155,-61.5726"/>
<polygon fill="#000000" stroke="#000000" points="169.1048,-61.6264 171.9524,-71.8314 176.0902,-62.078 169.1048,-61.6264"/>
<g id="a_edge11&#45;headlabel"><a xlink:href="dir_000076_000013.html" target="_top" xlink:title="7">
<text text-anchor="middle" x="166.5032" y="-55.3562" font-family="Helvetica,sans-Serif" font-size="10.00" fill="#000000">7</text>
</a>
</g>
</g>
</g>
</svg>
