<?xml version="1.0" encoding="UTF-8" standalone="no"?>
<!DOCTYPE svg PUBLIC "-//W3C//DTD SVG 1.1//EN"
 "http://www.w3.org/Graphics/SVG/1.1/DTD/svg11.dtd">
<!-- Generated by graphviz version 2.40.1 (20161225.0304)
 -->
<!-- Title: /home/travis/build/AliceO2Group/AliceO2/Detectors/MUON/MCH/Raw/Common Pages: 1 -->
<svg width="342pt" height="251pt"
 viewBox="0.00 0.00 342.00 251.46" xmlns="http://www.w3.org/2000/svg" xmlns:xlink="http://www.w3.org/1999/xlink">
<g id="graph0" class="graph" transform="scale(1 1) rotate(0) translate(4 247.4614)">
<title>/home/travis/build/AliceO2Group/AliceO2/Detectors/MUON/MCH/Raw/Common</title>
<g id="clust1" class="cluster">
<title>clusterdir_f8de85f281636d081fd2e7e06b0134d2</title>
<g id="a_clust1"><a xlink:href="dir_f8de85f281636d081fd2e7e06b0134d2.html" target="_top" xlink:title="Raw">
<polygon fill="#ddddee" stroke="#000000" points="8,-56 8,-215 246,-215 246,-56 8,-56"/>
<text text-anchor="middle" x="127" y="-203" font-family="Helvetica,sans-Serif" font-size="10.00" fill="#000000">Raw</text>
</a>
</g>
</g>
<g id="clust2" class="cluster">
<title>clusterdir_55964488a5749f1fcba45aaf4e122cee</title>
<g id="a_clust2"><a xlink:href="dir_55964488a5749f1fcba45aaf4e122cee.html" target="_top">
<polygon fill="#eeeeff" stroke="#000000" points="16,-64 16,-188 238,-188 238,-64 16,-64"/>
</a>
</g>
</g>
<!-- dir_55964488a5749f1fcba45aaf4e122cee -->
<g id="node1" class="node">
<title>dir_55964488a5749f1fcba45aaf4e122cee</title>
<text text-anchor="middle" x="199" y="-159.5" font-family="Helvetica,sans-Serif" font-size="10.00" fill="#000000">Common</text>
</g>
<!-- dir_25e82fe885c297bddd3063384098a5b3 -->
<g id="node2" class="node">
<title>dir_25e82fe885c297bddd3063384098a5b3</title>
<g id="a_node2"><a xlink:href="dir_25e82fe885c297bddd3063384098a5b3.html" target="_top" xlink:title="include">
<polygon fill="#ffffff" stroke="#ff0000" points="150,-108 96,-108 96,-72 150,-72 150,-108"/>
<text text-anchor="middle" x="123" y="-87.5" font-family="Helvetica,sans-Serif" font-size="10.00" fill="#000000">include</text>
</a>
</g>
</g>
<!-- dir_803cb5aa750ec34c4f7040bb44311d6b -->
<g id="node3" class="node">
<title>dir_803cb5aa750ec34c4f7040bb44311d6b</title>
<g id="a_node3"><a xlink:href="dir_803cb5aa750ec34c4f7040bb44311d6b.html" target="_top" xlink:title="src">
<polygon fill="#ffffff" stroke="#000000" points="78,-180 24,-180 24,-144 78,-144 78,-180"/>
<text text-anchor="middle" x="51" y="-159.5" font-family="Helvetica,sans-Serif" font-size="10.00" fill="#000000">src</text>
</a>
</g>
</g>
<!-- dir_803cb5aa750ec34c4f7040bb44311d6b&#45;&gt;dir_25e82fe885c297bddd3063384098a5b3 -->
<g id="edge10" class="edge">
<title>dir_803cb5aa750ec34c4f7040bb44311d6b&#45;&gt;dir_25e82fe885c297bddd3063384098a5b3</title>
<path fill="none" stroke="#000000" d="M69.1686,-143.8314C77.7152,-135.2848 88.0557,-124.9443 97.3802,-115.6198"/>
<polygon fill="#000000" stroke="#000000" points="99.9905,-117.9592 104.5867,-108.4133 95.0408,-113.0095 99.9905,-117.9592"/>
<g id="a_edge10&#45;headlabel"><a xlink:href="dir_000522_000520.html" target="_top" xlink:title="5">
<text text-anchor="middle" x="99.4564" y="-120.0087" font-family="Helvetica,sans-Serif" font-size="10.00" fill="#000000">5</text>
</a>
</g>
</g>
<!-- dir_cfadcf1c28477e06298c128044978e91 -->
<g id="node5" class="node">
<title>dir_cfadcf1c28477e06298c128044978e91</title>
<g id="a_node5"><a xlink:href="dir_cfadcf1c28477e06298c128044978e91.html" target="_top" xlink:title="ImplHelpers">
<polygon fill="none" stroke="#000000" points="330,-180 254,-180 254,-144 330,-144 330,-180"/>
<text text-anchor="middle" x="292" y="-159.5" font-family="Helvetica,sans-Serif" font-size="10.00" fill="#000000">ImplHelpers</text>
</a>
</g>
</g>
<!-- dir_803cb5aa750ec34c4f7040bb44311d6b&#45;&gt;dir_cfadcf1c28477e06298c128044978e91 -->
<g id="edge8" class="edge">
<title>dir_803cb5aa750ec34c4f7040bb44311d6b&#45;&gt;dir_cfadcf1c28477e06298c128044978e91</title>
<path fill="none" stroke="#000000" d="M56.7294,-180.0384C63.2342,-197.1355 75.6695,-221.8155 96,-233 122.6744,-247.6745 205.4388,-245.9323 233,-233 252.2845,-223.9513 267.4485,-205.1596 277.5722,-189.1812"/>
<polygon fill="#000000" stroke="#000000" points="280.8179,-190.5728 282.9435,-180.1934 274.8091,-186.9818 280.8179,-190.5728"/>
<g id="a_edge8&#45;headlabel"><a xlink:href="dir_000522_000536.html" target="_top" xlink:title="3">
<text text-anchor="middle" x="281.4111" y="-192.6149" font-family="Helvetica,sans-Serif" font-size="10.00" fill="#000000">3</text>
</a>
</g>
</g>
<!-- dir_4ab6b4cc6a7edbff49100e9123df213f -->
<g id="node6" class="node">
<title>dir_4ab6b4cc6a7edbff49100e9123df213f</title>
<g id="a_node6"><a xlink:href="dir_4ab6b4cc6a7edbff49100e9123df213f.html" target="_top" xlink:title="Common">
<polygon fill="none" stroke="#ff0000" points="324.5,-36 263.5,-36 263.5,0 324.5,0 324.5,-36"/>
<text text-anchor="middle" x="294" y="-15.5" font-family="Helvetica,sans-Serif" font-size="10.00" fill="#000000">Common</text>
</a>
</g>
</g>
<!-- dir_803cb5aa750ec34c4f7040bb44311d6b&#45;&gt;dir_4ab6b4cc6a7edbff49100e9123df213f -->
<g id="edge9" class="edge">
<title>dir_803cb5aa750ec34c4f7040bb44311d6b&#45;&gt;dir_4ab6b4cc6a7edbff49100e9123df213f</title>
<path fill="none" stroke="#000000" d="M51.7661,-143.966C53.8062,-120.077 61.1148,-78.3607 87,-56 111.3666,-34.9512 200.2995,-24.8736 253.3442,-20.6375"/>
<polygon fill="#000000" stroke="#000000" points="253.7402,-24.1176 263.4449,-19.8667 253.2075,-17.1379 253.7402,-24.1176"/>
<g id="a_edge9&#45;headlabel"><a xlink:href="dir_000522_000027.html" target="_top" xlink:title="1">
<text text-anchor="middle" x="250.3721" y="-24.722" font-family="Helvetica,sans-Serif" font-size="10.00" fill="#000000">1</text>
</a>
</g>
</g>
<!-- dir_2171f7ec022c5423887b07c69b2f5b48 -->
<g id="node7" class="node">
<title>dir_2171f7ec022c5423887b07c69b2f5b48</title>
<g id="a_node7"><a xlink:href="dir_2171f7ec022c5423887b07c69b2f5b48.html" target="_top" xlink:title="DataFormats">
<polygon fill="none" stroke="#ff0000" points="334,-108 254,-108 254,-72 334,-72 334,-108"/>
<text text-anchor="middle" x="294" y="-87.5" font-family="Helvetica,sans-Serif" font-size="10.00" fill="#000000">DataFormats</text>
</a>
</g>
</g>
<!-- dir_803cb5aa750ec34c4f7040bb44311d6b&#45;&gt;dir_2171f7ec022c5423887b07c69b2f5b48 -->
<g id="edge11" class="edge">
<title>dir_803cb5aa750ec34c4f7040bb44311d6b&#45;&gt;dir_2171f7ec022c5423887b07c69b2f5b48</title>
<path fill="none" stroke="#000000" d="M78.2243,-147.5573C81.1459,-146.2584 84.1075,-145.0425 87,-144 153.533,-120.02 174.046,-127.5941 242,-108 242.7229,-107.7916 243.4505,-107.5789 244.1818,-107.3625"/>
<polygon fill="#000000" stroke="#000000" points="245.3062,-110.6784 253.8219,-104.375 243.234,-103.9921 245.3062,-110.6784"/>
<g id="a_edge11&#45;headlabel"><a xlink:href="dir_000522_000076.html" target="_top" xlink:title="2">
<text text-anchor="middle" x="242.7131" y="-111.9544" font-family="Helvetica,sans-Serif" font-size="10.00" fill="#000000">2</text>
</a>
</g>
</g>
<!-- dir_14a2e9409ba96a0e46f93991bfb2d17b -->
<g id="node4" class="node">
<title>dir_14a2e9409ba96a0e46f93991bfb2d17b</title>
<g id="a_node4"><a xlink:href="dir_14a2e9409ba96a0e46f93991bfb2d17b.html" target="_top" xlink:title="test">
<polygon fill="#ffffff" stroke="#000000" points="150,-180 96,-180 96,-144 150,-144 150,-180"/>
<text text-anchor="middle" x="123" y="-159.5" font-family="Helvetica,sans-Serif" font-size="10.00" fill="#000000">test</text>
</a>
</g>
</g>
<!-- dir_14a2e9409ba96a0e46f93991bfb2d17b&#45;&gt;dir_25e82fe885c297bddd3063384098a5b3 -->
<g id="edge5" class="edge">
<title>dir_14a2e9409ba96a0e46f93991bfb2d17b&#45;&gt;dir_25e82fe885c297bddd3063384098a5b3</title>
<path fill="none" stroke="#000000" d="M123,-143.8314C123,-136.131 123,-126.9743 123,-118.4166"/>
<polygon fill="#000000" stroke="#000000" points="126.5001,-118.4132 123,-108.4133 119.5001,-118.4133 126.5001,-118.4132"/>
<g id="a_edge5&#45;headlabel"><a xlink:href="dir_000523_000520.html" target="_top" xlink:title="4">
<text text-anchor="middle" x="129.3393" y="-119.5079" font-family="Helvetica,sans-Serif" font-size="10.00" fill="#000000">4</text>
</a>
</g>
</g>
<!-- dir_14a2e9409ba96a0e46f93991bfb2d17b&#45;&gt;dir_2171f7ec022c5423887b07c69b2f5b48 -->
<g id="edge6" class="edge">
<title>dir_14a2e9409ba96a0e46f93991bfb2d17b&#45;&gt;dir_2171f7ec022c5423887b07c69b2f5b48</title>
<path fill="none" stroke="#000000" d="M150.3792,-148.4173C153.6069,-146.8943 156.8663,-145.3917 160,-144 187.6438,-131.7237 218.9788,-119.0304 244.393,-109.0372"/>
<polygon fill="#000000" stroke="#000000" points="245.787,-112.2502 253.8233,-105.3459 243.2355,-105.7318 245.787,-112.2502"/>
<g id="a_edge6&#45;headlabel"><a xlink:href="dir_000523_000076.html" target="_top" xlink:title="1">
<text text-anchor="middle" x="243.4746" y="-113.7043" font-family="Helvetica,sans-Serif" font-size="10.00" fill="#000000">1</text>
</a>
</g>
</g>
<!-- dir_cfadcf1c28477e06298c128044978e91&#45;&gt;dir_55964488a5749f1fcba45aaf4e122cee -->
<g id="edge1" class="edge">
<title>dir_cfadcf1c28477e06298c128044978e91&#45;&gt;dir_55964488a5749f1fcba45aaf4e122cee</title>
<path fill="none" stroke="#000000" d="M253.9236,-162C249.22,-162 244.5163,-162 239.8127,-162"/>
<polygon fill="#000000" stroke="#000000" points="239.5157,-158.5001 229.5156,-162 239.5156,-165.5001 239.5157,-158.5001"/>
<g id="a_edge1&#45;headlabel"><a xlink:href="dir_000536_000519.html" target="_top" xlink:title="3">
<text text-anchor="middle" x="243.1102" y="-153.1607" font-family="Helvetica,sans-Serif" font-size="10.00" fill="#000000">3</text>
</a>
</g>
</g>
<!-- dir_cfadcf1c28477e06298c128044978e91&#45;&gt;dir_25e82fe885c297bddd3063384098a5b3 -->
<g id="edge2" class="edge">
<title>dir_cfadcf1c28477e06298c128044978e91&#45;&gt;dir_25e82fe885c297bddd3063384098a5b3</title>
<path fill="none" stroke="#000000" d="M253.6513,-145.6621C225.4258,-133.637 187.2902,-117.3899 159.5086,-105.554"/>
<polygon fill="#000000" stroke="#000000" points="160.7186,-102.2651 150.1469,-101.5655 157.975,-108.705 160.7186,-102.2651"/>
<g id="a_edge2&#45;headlabel"><a xlink:href="dir_000536_000520.html" target="_top" xlink:title="3">
<text text-anchor="middle" x="165.1385" y="-98.5619" font-family="Helvetica,sans-Serif" font-size="10.00" fill="#000000">3</text>
</a>
</g>
</g>
<!-- dir_cfadcf1c28477e06298c128044978e91&#45;&gt;dir_2171f7ec022c5423887b07c69b2f5b48 -->
<g id="edge3" class="edge">
<title>dir_cfadcf1c28477e06298c128044978e91&#45;&gt;dir_2171f7ec022c5423887b07c69b2f5b48</title>
<path fill="none" stroke="#000000" d="M292.5047,-143.8314C292.7186,-136.131 292.9729,-126.9743 293.2106,-118.4166"/>
<polygon fill="#000000" stroke="#000000" points="296.7094,-118.5066 293.4885,-108.4133 289.7121,-118.3122 296.7094,-118.5066"/>
<g id="a_edge3&#45;headlabel"><a xlink:href="dir_000536_000076.html" target="_top" xlink:title="1">
<text text-anchor="middle" x="299.4479" y="-119.6787" font-family="Helvetica,sans-Serif" font-size="10.00" fill="#000000">1</text>
</a>
</g>
</g>
<!-- dir_4ab6b4cc6a7edbff49100e9123df213f&#45;&gt;dir_2171f7ec022c5423887b07c69b2f5b48 -->
<g id="edge4" class="edge">
<title>dir_4ab6b4cc6a7edbff49100e9123df213f&#45;&gt;dir_2171f7ec022c5423887b07c69b2f5b48</title>
<path fill="none" stroke="#000000" d="M299.976,-36.4133C300.7071,-44.0593 300.9203,-53.1084 300.6155,-61.5726"/>
<polygon fill="#000000" stroke="#000000" points="297.1048,-61.6264 299.9524,-71.8314 304.0902,-62.078 297.1048,-61.6264"/>
<g id="a_edge4&#45;headlabel"><a xlink:href="dir_000027_000076.html" target="_top" xlink:title="2">
<text text-anchor="middle" x="294.5032" y="-55.3562" font-family="Helvetica,sans-Serif" font-size="10.00" fill="#000000">2</text>
</a>
</g>
</g>
<!-- dir_2171f7ec022c5423887b07c69b2f5b48&#45;&gt;dir_4ab6b4cc6a7edbff49100e9123df213f -->
<g id="edge7" class="edge">
<title>dir_2171f7ec022c5423887b07c69b2f5b48&#45;&gt;dir_4ab6b4cc6a7edbff49100e9123df213f</title>
<path fill="none" stroke="#000000" d="M288.0476,-71.8314C287.2972,-64.131 287.0763,-54.9743 287.3849,-46.4166"/>
<polygon fill="#000000" stroke="#000000" points="290.8792,-46.6161 288.024,-36.4133 283.8935,-46.1697 290.8792,-46.6161"/>
<g id="a_edge7&#45;headlabel"><a xlink:href="dir_000076_000027.html" target="_top" xlink:title="34">
<text text-anchor="middle" x="293.4836" y="-47.8844" font-family="Helvetica,sans-Serif" font-size="10.00" fill="#000000">34</text>
</a>
</g>
</g>
</g>
</svg>
