<?xml version="1.0" encoding="UTF-8" standalone="no"?>
<!DOCTYPE svg PUBLIC "-//W3C//DTD SVG 1.1//EN"
 "http://www.w3.org/Graphics/SVG/1.1/DTD/svg11.dtd">
<!-- Generated by graphviz version 2.40.1 (20161225.0304)
 -->
<!-- Title: /home/travis/build/AliceO2Group/AliceO2/Utilities/Mergers Pages: 1 -->
<svg width="256pt" height="303pt"
 viewBox="0.00 0.00 256.00 303.00" xmlns="http://www.w3.org/2000/svg" xmlns:xlink="http://www.w3.org/1999/xlink">
<g id="graph0" class="graph" transform="scale(1 1) rotate(0) translate(4 299)">
<title>/home/travis/build/AliceO2Group/AliceO2/Utilities/Mergers</title>
<g id="clust1" class="cluster">
<title>clusterdir_b05a5fa85f84bfc9013183c9d87f9a36</title>
<g id="a_clust1"><a xlink:href="dir_b05a5fa85f84bfc9013183c9d87f9a36.html" target="_top" xlink:title="Utilities">
<polygon fill="#ddddee" stroke="#000000" points="8,-128 8,-287 240,-287 240,-128 8,-128"/>
<text text-anchor="middle" x="124" y="-275" font-family="Helvetica,sans-Serif" font-size="10.00" fill="#000000">Utilities</text>
</a>
</g>
</g>
<g id="clust2" class="cluster">
<title>clusterdir_6b130aa431c809d0d74568b67af7c9fa</title>
<g id="a_clust2"><a xlink:href="dir_6b130aa431c809d0d74568b67af7c9fa.html" target="_top">
<polygon fill="#eeeeff" stroke="#000000" points="16,-136 16,-260 232,-260 232,-136 16,-136"/>
</a>
</g>
</g>
<!-- dir_6b130aa431c809d0d74568b67af7c9fa -->
<g id="node1" class="node">
<title>dir_6b130aa431c809d0d74568b67af7c9fa</title>
<text text-anchor="middle" x="196" y="-231.5" font-family="Helvetica,sans-Serif" font-size="10.00" fill="#000000">Mergers</text>
</g>
<!-- dir_54d051ade5e6bd04623ba91b90a1a5a2 -->
<g id="node2" class="node">
<title>dir_54d051ade5e6bd04623ba91b90a1a5a2</title>
<g id="a_node2"><a xlink:href="dir_54d051ade5e6bd04623ba91b90a1a5a2.html" target="_top" xlink:title="include">
<polygon fill="#ffffff" stroke="#ff0000" points="78,-180 24,-180 24,-144 78,-144 78,-180"/>
<text text-anchor="middle" x="51" y="-159.5" font-family="Helvetica,sans-Serif" font-size="10.00" fill="#000000">include</text>
</a>
</g>
</g>
<!-- dir_bcbb2cf9a3d3d83e5515c82071a07177 -->
<g id="node5" class="node">
<title>dir_bcbb2cf9a3d3d83e5515c82071a07177</title>
<g id="a_node5"><a xlink:href="dir_bcbb2cf9a3d3d83e5515c82071a07177.html" target="_top" xlink:title="Framework">
<polygon fill="none" stroke="#ff0000" points="147.5,-108 76.5,-108 76.5,-72 147.5,-72 147.5,-108"/>
<text text-anchor="middle" x="112" y="-87.5" font-family="Helvetica,sans-Serif" font-size="10.00" fill="#000000">Framework</text>
</a>
</g>
</g>
<!-- dir_54d051ade5e6bd04623ba91b90a1a5a2&#45;&gt;dir_bcbb2cf9a3d3d83e5515c82071a07177 -->
<g id="edge4" class="edge">
<title>dir_54d051ade5e6bd04623ba91b90a1a5a2&#45;&gt;dir_bcbb2cf9a3d3d83e5515c82071a07177</title>
<path fill="none" stroke="#000000" d="M66.3929,-143.8314C73.4904,-135.454 82.048,-125.3531 89.824,-116.1749"/>
<polygon fill="#000000" stroke="#000000" points="92.6061,-118.3056 96.3999,-108.4133 87.2652,-113.7807 92.6061,-118.3056"/>
<g id="a_edge4&#45;headlabel"><a xlink:href="dir_000727_000013.html" target="_top" xlink:title="5">
<text text-anchor="middle" x="92.4488" y="-120.3836" font-family="Helvetica,sans-Serif" font-size="10.00" fill="#000000">5</text>
</a>
</g>
</g>
<!-- dir_3c2296e268495769673bb51457adc987 -->
<g id="node3" class="node">
<title>dir_3c2296e268495769673bb51457adc987</title>
<g id="a_node3"><a xlink:href="dir_3c2296e268495769673bb51457adc987.html" target="_top" xlink:title="src">
<polygon fill="#ffffff" stroke="#000000" points="150,-252 96,-252 96,-216 150,-216 150,-252"/>
<text text-anchor="middle" x="123" y="-231.5" font-family="Helvetica,sans-Serif" font-size="10.00" fill="#000000">src</text>
</a>
</g>
</g>
<!-- dir_3c2296e268495769673bb51457adc987&#45;&gt;dir_54d051ade5e6bd04623ba91b90a1a5a2 -->
<g id="edge1" class="edge">
<title>dir_3c2296e268495769673bb51457adc987&#45;&gt;dir_54d051ade5e6bd04623ba91b90a1a5a2</title>
<path fill="none" stroke="#000000" d="M104.8314,-215.8314C96.2848,-207.2848 85.9443,-196.9443 76.6198,-187.6198"/>
<polygon fill="#000000" stroke="#000000" points="78.9592,-185.0095 69.4133,-180.4133 74.0095,-189.9592 78.9592,-185.0095"/>
<g id="a_edge1&#45;headlabel"><a xlink:href="dir_000729_000727.html" target="_top" xlink:title="21">
<text text-anchor="middle" x="83.5087" y="-183.0436" font-family="Helvetica,sans-Serif" font-size="10.00" fill="#000000">21</text>
</a>
</g>
</g>
<!-- dir_3c2296e268495769673bb51457adc987&#45;&gt;dir_bcbb2cf9a3d3d83e5515c82071a07177 -->
<g id="edge2" class="edge">
<title>dir_3c2296e268495769673bb51457adc987&#45;&gt;dir_bcbb2cf9a3d3d83e5515c82071a07177</title>
<path fill="none" stroke="#000000" d="M123.4699,-215.923C123.7931,-194.7665 123.6379,-158.7143 120,-128 119.6114,-124.7194 119.0785,-121.3025 118.4708,-117.9217"/>
<polygon fill="#000000" stroke="#000000" points="121.891,-117.1758 116.4924,-108.0596 115.0277,-118.5527 121.891,-117.1758"/>
<g id="a_edge2&#45;headlabel"><a xlink:href="dir_000729_000013.html" target="_top" xlink:title="11">
<text text-anchor="middle" x="125.3817" y="-117.6418" font-family="Helvetica,sans-Serif" font-size="10.00" fill="#000000">11</text>
</a>
</g>
</g>
<!-- dir_2171f7ec022c5423887b07c69b2f5b48 -->
<g id="node6" class="node">
<title>dir_2171f7ec022c5423887b07c69b2f5b48</title>
<g id="a_node6"><a xlink:href="dir_2171f7ec022c5423887b07c69b2f5b48.html" target="_top" xlink:title="DataFormats">
<polygon fill="none" stroke="#ff0000" points="152,-36 72,-36 72,0 152,0 152,-36"/>
<text text-anchor="middle" x="112" y="-15.5" font-family="Helvetica,sans-Serif" font-size="10.00" fill="#000000">DataFormats</text>
</a>
</g>
</g>
<!-- dir_3c2296e268495769673bb51457adc987&#45;&gt;dir_2171f7ec022c5423887b07c69b2f5b48 -->
<g id="edge3" class="edge">
<title>dir_3c2296e268495769673bb51457adc987&#45;&gt;dir_2171f7ec022c5423887b07c69b2f5b48</title>
<path fill="none" stroke="#000000" d="M133.3177,-215.5601C149.0028,-185.0044 175.1965,-122.2596 157,-72 153.2851,-61.7392 146.6748,-52.0579 139.6452,-43.8033"/>
<polygon fill="#000000" stroke="#000000" points="142.18,-41.3886 132.8578,-36.3539 137.0056,-46.1031 142.18,-41.3886"/>
<g id="a_edge3&#45;headlabel"><a xlink:href="dir_000729_000076.html" target="_top" xlink:title="1">
<text text-anchor="middle" x="146.6997" y="-39.6334" font-family="Helvetica,sans-Serif" font-size="10.00" fill="#000000">1</text>
</a>
</g>
</g>
<!-- dir_86be7fd0bd143f0b0d363ee8147593c6 -->
<g id="node4" class="node">
<title>dir_86be7fd0bd143f0b0d363ee8147593c6</title>
<g id="a_node4"><a xlink:href="dir_86be7fd0bd143f0b0d363ee8147593c6.html" target="_top" xlink:title="test">
<polygon fill="#ffffff" stroke="#000000" points="78,-252 24,-252 24,-216 78,-216 78,-252"/>
<text text-anchor="middle" x="51" y="-231.5" font-family="Helvetica,sans-Serif" font-size="10.00" fill="#000000">test</text>
</a>
</g>
</g>
<!-- dir_86be7fd0bd143f0b0d363ee8147593c6&#45;&gt;dir_54d051ade5e6bd04623ba91b90a1a5a2 -->
<g id="edge5" class="edge">
<title>dir_86be7fd0bd143f0b0d363ee8147593c6&#45;&gt;dir_54d051ade5e6bd04623ba91b90a1a5a2</title>
<path fill="none" stroke="#000000" d="M51,-215.8314C51,-208.131 51,-198.9743 51,-190.4166"/>
<polygon fill="#000000" stroke="#000000" points="54.5001,-190.4132 51,-180.4133 47.5001,-190.4133 54.5001,-190.4132"/>
<g id="a_edge5&#45;headlabel"><a xlink:href="dir_000730_000727.html" target="_top" xlink:title="8">
<text text-anchor="middle" x="57.3393" y="-191.5079" font-family="Helvetica,sans-Serif" font-size="10.00" fill="#000000">8</text>
</a>
</g>
</g>
<!-- dir_86be7fd0bd143f0b0d363ee8147593c6&#45;&gt;dir_bcbb2cf9a3d3d83e5515c82071a07177 -->
<g id="edge6" class="edge">
<title>dir_86be7fd0bd143f0b0d363ee8147593c6&#45;&gt;dir_bcbb2cf9a3d3d83e5515c82071a07177</title>
<path fill="none" stroke="#000000" d="M65.2033,-215.8665C72.5543,-205.7691 81.1824,-192.7027 87,-180 96.0879,-160.1568 102.53,-136.3028 106.5965,-118.1397"/>
<polygon fill="#000000" stroke="#000000" points="110.0585,-118.6861 108.7182,-108.1764 103.212,-117.2281 110.0585,-118.6861"/>
<g id="a_edge6&#45;headlabel"><a xlink:href="dir_000730_000013.html" target="_top" xlink:title="16">
<text text-anchor="middle" x="112.0869" y="-120.2933" font-family="Helvetica,sans-Serif" font-size="10.00" fill="#000000">16</text>
</a>
</g>
</g>
<!-- dir_bcbb2cf9a3d3d83e5515c82071a07177&#45;&gt;dir_2171f7ec022c5423887b07c69b2f5b48 -->
<g id="edge7" class="edge">
<title>dir_bcbb2cf9a3d3d83e5515c82071a07177&#45;&gt;dir_2171f7ec022c5423887b07c69b2f5b48</title>
<path fill="none" stroke="#000000" d="M106.0476,-71.8314C105.2972,-64.131 105.0763,-54.9743 105.3849,-46.4166"/>
<polygon fill="#000000" stroke="#000000" points="108.8792,-46.6161 106.024,-36.4133 101.8935,-46.1697 108.8792,-46.6161"/>
<g id="a_edge7&#45;headlabel"><a xlink:href="dir_000013_000076.html" target="_top" xlink:title="82">
<text text-anchor="middle" x="111.4836" y="-47.8844" font-family="Helvetica,sans-Serif" font-size="10.00" fill="#000000">82</text>
</a>
</g>
</g>
<!-- dir_2171f7ec022c5423887b07c69b2f5b48&#45;&gt;dir_bcbb2cf9a3d3d83e5515c82071a07177 -->
<g id="edge8" class="edge">
<title>dir_2171f7ec022c5423887b07c69b2f5b48&#45;&gt;dir_bcbb2cf9a3d3d83e5515c82071a07177</title>
<path fill="none" stroke="#000000" d="M117.976,-36.4133C118.7071,-44.0593 118.9203,-53.1084 118.6155,-61.5726"/>
<polygon fill="#000000" stroke="#000000" points="115.1048,-61.6264 117.9524,-71.8314 122.0902,-62.078 115.1048,-61.6264"/>
<g id="a_edge8&#45;headlabel"><a xlink:href="dir_000076_000013.html" target="_top" xlink:title="7">
<text text-anchor="middle" x="112.5032" y="-55.3562" font-family="Helvetica,sans-Serif" font-size="10.00" fill="#000000">7</text>
</a>
</g>
</g>
</g>
</svg>
