<?xml version="1.0" encoding="UTF-8" standalone="no"?>
<!DOCTYPE svg PUBLIC "-//W3C//DTD SVG 1.1//EN"
 "http://www.w3.org/Graphics/SVG/1.1/DTD/svg11.dtd">
<!-- Generated by graphviz version 2.40.1 (20161225.0304)
 -->
<!-- Title: /home/travis/build/AliceO2Group/AliceO2/GPU Pages: 1 -->
<svg width="470pt" height="276pt"
 viewBox="0.00 0.00 470.44 276.00" xmlns="http://www.w3.org/2000/svg" xmlns:xlink="http://www.w3.org/1999/xlink">
<g id="graph0" class="graph" transform="scale(1 1) rotate(0) translate(4 272)">
<title>/home/travis/build/AliceO2Group/AliceO2/GPU</title>
<g id="clust1" class="cluster">
<title>clusterdir_f511f1e9c03c071966ae594f00bbc5e0</title>
<g id="a_clust1"><a xlink:href="dir_f511f1e9c03c071966ae594f00bbc5e0.html" target="_top">
<polygon fill="#eeeeff" stroke="#000000" points="14.1709,-8 14.1709,-204 322.1709,-204 322.1709,-8 14.1709,-8"/>
</a>
</g>
</g>
<!-- dir_f511f1e9c03c071966ae594f00bbc5e0 -->
<g id="node1" class="node">
<title>dir_f511f1e9c03c071966ae594f00bbc5e0</title>
<text text-anchor="middle" x="287.1709" y="-175.5" font-family="Helvetica,sans-Serif" font-size="10.00" fill="#000000">GPU</text>
</g>
<!-- dir_ba48ca66118492a4424f86e9da0f6902 -->
<g id="node2" class="node">
<title>dir_ba48ca66118492a4424f86e9da0f6902</title>
<g id="a_node2"><a xlink:href="dir_ba48ca66118492a4424f86e9da0f6902.html" target="_top" xlink:title="Common">
<polygon fill="#ffffff" stroke="#000000" points="215.6709,-52 154.6709,-52 154.6709,-16 215.6709,-16 215.6709,-52"/>
<text text-anchor="middle" x="185.1709" y="-31.5" font-family="Helvetica,sans-Serif" font-size="10.00" fill="#000000">Common</text>
</a>
</g>
</g>
<!-- dir_77030b149987c946eb2e85728f65acc0 -->
<g id="node3" class="node">
<title>dir_77030b149987c946eb2e85728f65acc0</title>
<g id="a_node3"><a xlink:href="dir_77030b149987c946eb2e85728f65acc0.html" target="_top" xlink:title="GPUTracking">
<polygon fill="#ffffff" stroke="#ff0000" points="100.1709,-196 22.1709,-196 22.1709,-160 100.1709,-160 100.1709,-196"/>
<text text-anchor="middle" x="61.1709" y="-175.5" font-family="Helvetica,sans-Serif" font-size="10.00" fill="#000000">GPUTracking</text>
</a>
</g>
</g>
<!-- dir_77030b149987c946eb2e85728f65acc0&#45;&gt;dir_ba48ca66118492a4424f86e9da0f6902 -->
<g id="edge10" class="edge">
<title>dir_77030b149987c946eb2e85728f65acc0&#45;&gt;dir_ba48ca66118492a4424f86e9da0f6902</title>
<path fill="none" stroke="#000000" d="M68.7892,-159.6743C77.395,-140.4108 92.7645,-109.9166 112.1709,-88 122.0941,-76.7933 134.699,-66.4709 146.6311,-57.9186"/>
<polygon fill="#000000" stroke="#000000" points="148.9245,-60.5877 155.1526,-52.0167 144.939,-54.8331 148.9245,-60.5877"/>
<g id="a_edge10&#45;headlabel"><a xlink:href="dir_000669_000668.html" target="_top" xlink:title="111">
<text text-anchor="middle" x="147.586" y="-62.4684" font-family="Helvetica,sans-Serif" font-size="10.00" fill="#000000">111</text>
</a>
</g>
</g>
<!-- dir_ee87ad93049d1677c6ffb88a968be9d4 -->
<g id="node4" class="node">
<title>dir_ee87ad93049d1677c6ffb88a968be9d4</title>
<g id="a_node4"><a xlink:href="dir_ee87ad93049d1677c6ffb88a968be9d4.html" target="_top" xlink:title="TPCFastTransformation">
<polygon fill="#ffffff" stroke="#ff0000" points="249.1709,-124 121.1709,-124 121.1709,-88 249.1709,-88 249.1709,-124"/>
<text text-anchor="middle" x="185.1709" y="-103.5" font-family="Helvetica,sans-Serif" font-size="10.00" fill="#000000">TPCFastTransformation</text>
</a>
</g>
</g>
<!-- dir_77030b149987c946eb2e85728f65acc0&#45;&gt;dir_ee87ad93049d1677c6ffb88a968be9d4 -->
<g id="edge14" class="edge">
<title>dir_77030b149987c946eb2e85728f65acc0&#45;&gt;dir_ee87ad93049d1677c6ffb88a968be9d4</title>
<path fill="none" stroke="#000000" d="M92.4613,-159.8314C108.4686,-150.5368 128.1295,-139.1208 145.2203,-129.1971"/>
<polygon fill="#000000" stroke="#000000" points="147.0001,-132.211 153.8905,-124.1628 143.4851,-126.1575 147.0001,-132.211"/>
<g id="a_edge14&#45;headlabel"><a xlink:href="dir_000669_000698.html" target="_top" xlink:title="14">
<text text-anchor="middle" x="145.3172" y="-133.9713" font-family="Helvetica,sans-Serif" font-size="10.00" fill="#000000">14</text>
</a>
</g>
</g>
<!-- dir_4ab6b4cc6a7edbff49100e9123df213f -->
<g id="node6" class="node">
<title>dir_4ab6b4cc6a7edbff49100e9123df213f</title>
<g id="a_node6"><a xlink:href="dir_4ab6b4cc6a7edbff49100e9123df213f.html" target="_top" xlink:title="Common">
<polygon fill="none" stroke="#ff0000" points="406.6709,-268 345.6709,-268 345.6709,-232 406.6709,-232 406.6709,-268"/>
<text text-anchor="middle" x="376.1709" y="-247.5" font-family="Helvetica,sans-Serif" font-size="10.00" fill="#000000">Common</text>
</a>
</g>
</g>
<!-- dir_77030b149987c946eb2e85728f65acc0&#45;&gt;dir_4ab6b4cc6a7edbff49100e9123df213f -->
<g id="edge11" class="edge">
<title>dir_77030b149987c946eb2e85728f65acc0&#45;&gt;dir_4ab6b4cc6a7edbff49100e9123df213f</title>
<path fill="none" stroke="#000000" d="M91.6107,-196.0425C97.6129,-199.053 103.9747,-201.8808 110.1709,-204 187.2883,-230.3748 282.3837,-242.1436 335.4435,-246.9794"/>
<polygon fill="#000000" stroke="#000000" points="335.2104,-250.4723 345.4772,-247.8564 335.82,-243.4989 335.2104,-250.4723"/>
<g id="a_edge11&#45;headlabel"><a xlink:href="dir_000669_000027.html" target="_top" xlink:title="2">
<text text-anchor="middle" x="331.3823" y="-250.4879" font-family="Helvetica,sans-Serif" font-size="10.00" fill="#000000">2</text>
</a>
</g>
</g>
<!-- dir_051dca18e802f8e9474f2e30d29c04e0 -->
<g id="node7" class="node">
<title>dir_051dca18e802f8e9474f2e30d29c04e0</title>
<g id="a_node7"><a xlink:href="dir_051dca18e802f8e9474f2e30d29c04e0.html" target="_top" xlink:title="Detectors">
<polygon fill="none" stroke="#ff0000" points="394.1709,-124 330.1709,-124 330.1709,-88 394.1709,-88 394.1709,-124"/>
<text text-anchor="middle" x="362.1709" y="-103.5" font-family="Helvetica,sans-Serif" font-size="10.00" fill="#000000">Detectors</text>
</a>
</g>
</g>
<!-- dir_77030b149987c946eb2e85728f65acc0&#45;&gt;dir_051dca18e802f8e9474f2e30d29c04e0 -->
<g id="edge12" class="edge">
<title>dir_77030b149987c946eb2e85728f65acc0&#45;&gt;dir_051dca18e802f8e9474f2e30d29c04e0</title>
<path fill="none" stroke="#000000" d="M100.3807,-160.2111C100.6447,-160.1399 100.9081,-160.0695 101.1709,-160 195.2591,-135.1119 224.6173,-154.0969 317.1709,-124 318.367,-123.611 319.573,-123.1878 320.7845,-122.737"/>
<polygon fill="#000000" stroke="#000000" points="322.2263,-125.928 330.1133,-118.8537 319.5362,-119.4655 322.2263,-125.928"/>
<g id="a_edge12&#45;headlabel"><a xlink:href="dir_000669_000039.html" target="_top" xlink:title="11">
<text text-anchor="middle" x="319.9988" y="-127.4306" font-family="Helvetica,sans-Serif" font-size="10.00" fill="#000000">11</text>
</a>
</g>
</g>
<!-- dir_b05a5fa85f84bfc9013183c9d87f9a36 -->
<g id="node8" class="node">
<title>dir_b05a5fa85f84bfc9013183c9d87f9a36</title>
<g id="a_node8"><a xlink:href="dir_b05a5fa85f84bfc9013183c9d87f9a36.html" target="_top" xlink:title="Utilities">
<polygon fill="none" stroke="#ff0000" points="438.6709,-52 383.6709,-52 383.6709,-16 438.6709,-16 438.6709,-52"/>
<text text-anchor="middle" x="411.1709" y="-31.5" font-family="Helvetica,sans-Serif" font-size="10.00" fill="#000000">Utilities</text>
</a>
</g>
</g>
<!-- dir_77030b149987c946eb2e85728f65acc0&#45;&gt;dir_b05a5fa85f84bfc9013183c9d87f9a36 -->
<g id="edge13" class="edge">
<title>dir_77030b149987c946eb2e85728f65acc0&#45;&gt;dir_b05a5fa85f84bfc9013183c9d87f9a36</title>
<path fill="none" stroke="#000000" d="M100.3528,-163.162C103.6586,-162.0458 106.9629,-160.976 110.1709,-160 174.9359,-140.297 195.4348,-149.4342 258.1709,-124 264.3201,-121.507 331.4604,-81.6241 374.7329,-55.7951"/>
<polygon fill="#000000" stroke="#000000" points="376.783,-58.6475 383.574,-50.5153 373.1939,-52.6376 376.783,-58.6475"/>
<g id="a_edge13&#45;headlabel"><a xlink:href="dir_000669_000531.html" target="_top" xlink:title="4">
<text text-anchor="middle" x="375.1526" y="-60.4281" font-family="Helvetica,sans-Serif" font-size="10.00" fill="#000000">4</text>
</a>
</g>
</g>
<!-- dir_2171f7ec022c5423887b07c69b2f5b48 -->
<g id="node9" class="node">
<title>dir_2171f7ec022c5423887b07c69b2f5b48</title>
<g id="a_node9"><a xlink:href="dir_2171f7ec022c5423887b07c69b2f5b48.html" target="_top" xlink:title="DataFormats">
<polygon fill="none" stroke="#ff0000" points="450.1709,-196 370.1709,-196 370.1709,-160 450.1709,-160 450.1709,-196"/>
<text text-anchor="middle" x="410.1709" y="-175.5" font-family="Helvetica,sans-Serif" font-size="10.00" fill="#000000">DataFormats</text>
</a>
</g>
</g>
<!-- dir_77030b149987c946eb2e85728f65acc0&#45;&gt;dir_2171f7ec022c5423887b07c69b2f5b48 -->
<g id="edge15" class="edge">
<title>dir_77030b149987c946eb2e85728f65acc0&#45;&gt;dir_2171f7ec022c5423887b07c69b2f5b48</title>
<path fill="none" stroke="#000000" d="M81.0203,-196.1776C91.5363,-204.5742 105.1564,-213.636 119.1709,-218 167.5465,-233.0637 298.5176,-232.1408 347.1709,-218 358.7178,-214.644 370.1728,-208.4637 380.0849,-201.9482"/>
<polygon fill="#000000" stroke="#000000" points="382.1457,-204.7784 388.3619,-196.1987 378.1522,-199.0293 382.1457,-204.7784"/>
<g id="a_edge15&#45;headlabel"><a xlink:href="dir_000669_000076.html" target="_top" xlink:title="12">
<text text-anchor="middle" x="380.8133" y="-206.6609" font-family="Helvetica,sans-Serif" font-size="10.00" fill="#000000">12</text>
</a>
</g>
</g>
<!-- dir_ee87ad93049d1677c6ffb88a968be9d4&#45;&gt;dir_ba48ca66118492a4424f86e9da0f6902 -->
<g id="edge18" class="edge">
<title>dir_ee87ad93049d1677c6ffb88a968be9d4&#45;&gt;dir_ba48ca66118492a4424f86e9da0f6902</title>
<path fill="none" stroke="#000000" d="M185.1709,-87.8314C185.1709,-80.131 185.1709,-70.9743 185.1709,-62.4166"/>
<polygon fill="#000000" stroke="#000000" points="188.671,-62.4132 185.1709,-52.4133 181.671,-62.4133 188.671,-62.4132"/>
<g id="a_edge18&#45;headlabel"><a xlink:href="dir_000698_000668.html" target="_top" xlink:title="26">
<text text-anchor="middle" x="191.5102" y="-63.5079" font-family="Helvetica,sans-Serif" font-size="10.00" fill="#000000">26</text>
</a>
</g>
</g>
<!-- dir_b6e85bae24327ddb72672a171c2687f3 -->
<g id="node5" class="node">
<title>dir_b6e85bae24327ddb72672a171c2687f3</title>
<g id="a_node5"><a xlink:href="dir_b6e85bae24327ddb72672a171c2687f3.html" target="_top" xlink:title="TPCSpaceChargeBase">
<polygon fill="#ffffff" stroke="#ff0000" points="241.6709,-196 118.6709,-196 118.6709,-160 241.6709,-160 241.6709,-196"/>
<text text-anchor="middle" x="180.1709" y="-175.5" font-family="Helvetica,sans-Serif" font-size="10.00" fill="#000000">TPCSpaceChargeBase</text>
</a>
</g>
</g>
<!-- dir_4ab6b4cc6a7edbff49100e9123df213f&#45;&gt;dir_ba48ca66118492a4424f86e9da0f6902 -->
<g id="edge1" class="edge">
<title>dir_4ab6b4cc6a7edbff49100e9123df213f&#45;&gt;dir_ba48ca66118492a4424f86e9da0f6902</title>
<path fill="none" stroke="#000000" d="M345.578,-248.4024C262.0854,-243.7321 35.0637,-228.8421 13.1709,-204 -39.2159,-144.5556 79.1059,-80.3695 144.9185,-50.737"/>
<polygon fill="#000000" stroke="#000000" points="146.4928,-53.8678 154.221,-46.6204 143.66,-47.4666 146.4928,-53.8678"/>
<g id="a_edge1&#45;headlabel"><a xlink:href="dir_000027_000668.html" target="_top" xlink:title="3">
<text text-anchor="middle" x="144.3546" y="-55.4188" font-family="Helvetica,sans-Serif" font-size="10.00" fill="#000000">3</text>
</a>
</g>
</g>
<!-- dir_4ab6b4cc6a7edbff49100e9123df213f&#45;&gt;dir_2171f7ec022c5423887b07c69b2f5b48 -->
<g id="edge2" class="edge">
<title>dir_4ab6b4cc6a7edbff49100e9123df213f&#45;&gt;dir_2171f7ec022c5423887b07c69b2f5b48</title>
<path fill="none" stroke="#000000" d="M378.7982,-231.8314C381.8109,-223.7925 386.1501,-214.1666 390.7118,-205.2918"/>
<polygon fill="#000000" stroke="#000000" points="393.8338,-206.8763 395.4998,-196.4133 387.6726,-203.5537 393.8338,-206.8763"/>
<g id="a_edge2&#45;headlabel"><a xlink:href="dir_000027_000076.html" target="_top" xlink:title="2">
<text text-anchor="middle" x="394.6267" y="-208.8878" font-family="Helvetica,sans-Serif" font-size="10.00" fill="#000000">2</text>
</a>
</g>
</g>
<!-- dir_051dca18e802f8e9474f2e30d29c04e0&#45;&gt;dir_ba48ca66118492a4424f86e9da0f6902 -->
<g id="edge3" class="edge">
<title>dir_051dca18e802f8e9474f2e30d29c04e0&#45;&gt;dir_ba48ca66118492a4424f86e9da0f6902</title>
<path fill="none" stroke="#000000" d="M330.0569,-89.7481C328.749,-89.1481 327.45,-88.5631 326.1709,-88 292.6921,-73.2617 253.8155,-58.5457 225.3738,-48.207"/>
<polygon fill="#000000" stroke="#000000" points="226.3691,-44.8453 215.7747,-44.7398 223.991,-51.4289 226.3691,-44.8453"/>
<g id="a_edge3&#45;headlabel"><a xlink:href="dir_000039_000668.html" target="_top" xlink:title="51">
<text text-anchor="middle" x="230.7144" y="-40.896" font-family="Helvetica,sans-Serif" font-size="10.00" fill="#000000">51</text>
</a>
</g>
</g>
<!-- dir_051dca18e802f8e9474f2e30d29c04e0&#45;&gt;dir_77030b149987c946eb2e85728f65acc0 -->
<g id="edge5" class="edge">
<title>dir_051dca18e802f8e9474f2e30d29c04e0&#45;&gt;dir_77030b149987c946eb2e85728f65acc0</title>
<path fill="none" stroke="#000000" d="M334.8999,-124.088C242.5599,-154.0599 213.1672,-135.1362 119.1709,-160 116.1044,-160.8111 112.9605,-161.737 109.7947,-162.7309"/>
<polygon fill="#000000" stroke="#000000" points="108.685,-159.4114 100.2869,-165.8707 110.88,-166.0583 108.685,-159.4114"/>
<g id="a_edge5&#45;headlabel"><a xlink:href="dir_000039_000669.html" target="_top" xlink:title="24">
<text text-anchor="middle" x="111.208" y="-153.0882" font-family="Helvetica,sans-Serif" font-size="10.00" fill="#000000">24</text>
</a>
</g>
</g>
<!-- dir_051dca18e802f8e9474f2e30d29c04e0&#45;&gt;dir_ee87ad93049d1677c6ffb88a968be9d4 -->
<g id="edge7" class="edge">
<title>dir_051dca18e802f8e9474f2e30d29c04e0&#45;&gt;dir_ee87ad93049d1677c6ffb88a968be9d4</title>
<path fill="none" stroke="#000000" d="M330.034,-106C306.5367,-106 283.0393,-106 259.542,-106"/>
<polygon fill="#000000" stroke="#000000" points="259.4717,-102.5001 249.4717,-106 259.4717,-109.5001 259.4717,-102.5001"/>
<g id="a_edge7&#45;headlabel"><a xlink:href="dir_000039_000698.html" target="_top" xlink:title="7">
<text text-anchor="middle" x="263.0663" y="-97.1607" font-family="Helvetica,sans-Serif" font-size="10.00" fill="#000000">7</text>
</a>
</g>
</g>
<!-- dir_051dca18e802f8e9474f2e30d29c04e0&#45;&gt;dir_b6e85bae24327ddb72672a171c2687f3 -->
<g id="edge8" class="edge">
<title>dir_051dca18e802f8e9474f2e30d29c04e0&#45;&gt;dir_b6e85bae24327ddb72672a171c2687f3</title>
<path fill="none" stroke="#000000" d="M330.0651,-122.2707C328.7549,-122.8655 327.4532,-123.4443 326.1709,-124 299.3458,-135.6257 269.1206,-147.0687 243.1592,-156.4075"/>
<polygon fill="#000000" stroke="#000000" points="241.6749,-153.2209 233.4339,-159.8796 244.0286,-159.8134 241.6749,-153.2209"/>
<g id="a_edge8&#45;headlabel"><a xlink:href="dir_000039_000701.html" target="_top" xlink:title="1">
<text text-anchor="middle" x="244.1055" y="-146.8384" font-family="Helvetica,sans-Serif" font-size="10.00" fill="#000000">1</text>
</a>
</g>
</g>
<!-- dir_051dca18e802f8e9474f2e30d29c04e0&#45;&gt;dir_4ab6b4cc6a7edbff49100e9123df213f -->
<g id="edge4" class="edge">
<title>dir_051dca18e802f8e9474f2e30d29c04e0&#45;&gt;dir_4ab6b4cc6a7edbff49100e9123df213f</title>
<path fill="none" stroke="#000000" d="M360.1794,-124.1957C358.4334,-143.9732 356.7912,-176.4416 361.1709,-204 362.1338,-210.0586 363.768,-216.404 365.6122,-222.3796"/>
<polygon fill="#000000" stroke="#000000" points="362.3316,-223.6052 368.8327,-231.971 368.9676,-221.377 362.3316,-223.6052"/>
<g id="a_edge4&#45;headlabel"><a xlink:href="dir_000039_000027.html" target="_top" xlink:title="261">
<text text-anchor="middle" x="358.4959" y="-218.6013" font-family="Helvetica,sans-Serif" font-size="10.00" fill="#000000">261</text>
</a>
</g>
</g>
<!-- dir_051dca18e802f8e9474f2e30d29c04e0&#45;&gt;dir_b05a5fa85f84bfc9013183c9d87f9a36 -->
<g id="edge6" class="edge">
<title>dir_051dca18e802f8e9474f2e30d29c04e0&#45;&gt;dir_b05a5fa85f84bfc9013183c9d87f9a36</title>
<path fill="none" stroke="#000000" d="M374.5357,-87.8314C380.1218,-79.6232 386.8339,-69.7606 392.9781,-60.7323"/>
<polygon fill="#000000" stroke="#000000" points="395.9069,-62.6496 398.6397,-52.4133 390.1199,-58.7112 395.9069,-62.6496"/>
<g id="a_edge6&#45;headlabel"><a xlink:href="dir_000039_000531.html" target="_top" xlink:title="5">
<text text-anchor="middle" x="396.2318" y="-64.7187" font-family="Helvetica,sans-Serif" font-size="10.00" fill="#000000">5</text>
</a>
</g>
</g>
<!-- dir_051dca18e802f8e9474f2e30d29c04e0&#45;&gt;dir_2171f7ec022c5423887b07c69b2f5b48 -->
<g id="edge9" class="edge">
<title>dir_051dca18e802f8e9474f2e30d29c04e0&#45;&gt;dir_2171f7ec022c5423887b07c69b2f5b48</title>
<path fill="none" stroke="#000000" d="M380.4224,-124.4133C386.5747,-132.484 393.1921,-142.1182 398.7158,-150.9775"/>
<polygon fill="#000000" stroke="#000000" points="395.8744,-153.0455 404.0109,-159.8314 401.882,-149.4526 395.8744,-153.0455"/>
<g id="a_edge9&#45;headlabel"><a xlink:href="dir_000039_000076.html" target="_top" xlink:title="973">
<text text-anchor="middle" x="391.5927" y="-148.9178" font-family="Helvetica,sans-Serif" font-size="10.00" fill="#000000">973</text>
</a>
</g>
</g>
<!-- dir_b05a5fa85f84bfc9013183c9d87f9a36&#45;&gt;dir_4ab6b4cc6a7edbff49100e9123df213f -->
<g id="edge16" class="edge">
<title>dir_b05a5fa85f84bfc9013183c9d87f9a36&#45;&gt;dir_4ab6b4cc6a7edbff49100e9123df213f</title>
<path fill="none" stroke="#000000" d="M428.3007,-52.0068C436.6411,-61.8658 445.9694,-74.7509 451.1709,-88 454.0903,-95.4363 468.7344,-187.7657 459.1709,-204 449.7342,-220.0191 432.4881,-230.854 416.1517,-237.9624"/>
<polygon fill="#000000" stroke="#000000" points="414.6975,-234.7742 406.7041,-241.7281 417.2893,-241.2767 414.6975,-234.7742"/>
<g id="a_edge16&#45;headlabel"><a xlink:href="dir_000531_000027.html" target="_top" xlink:title="1">
<text text-anchor="middle" x="416.9853" y="-228.3059" font-family="Helvetica,sans-Serif" font-size="10.00" fill="#000000">1</text>
</a>
</g>
</g>
<!-- dir_b05a5fa85f84bfc9013183c9d87f9a36&#45;&gt;dir_2171f7ec022c5423887b07c69b2f5b48 -->
<g id="edge17" class="edge">
<title>dir_b05a5fa85f84bfc9013183c9d87f9a36&#45;&gt;dir_2171f7ec022c5423887b07c69b2f5b48</title>
<path fill="none" stroke="#000000" d="M422.0589,-52.2867C427.4639,-62.4291 433.4154,-75.4895 436.1709,-88 439.6125,-103.6255 439.7307,-108.401 436.1709,-124 434.0853,-133.1394 430.2474,-142.534 426.149,-150.8724"/>
<polygon fill="#000000" stroke="#000000" points="423.0292,-149.2853 421.4905,-159.7678 429.2304,-152.5328 423.0292,-149.2853"/>
<g id="a_edge17&#45;headlabel"><a xlink:href="dir_000531_000076.html" target="_top" xlink:title="47">
<text text-anchor="middle" x="422.1816" y="-142.2838" font-family="Helvetica,sans-Serif" font-size="10.00" fill="#000000">47</text>
</a>
</g>
</g>
<!-- dir_2171f7ec022c5423887b07c69b2f5b48&#45;&gt;dir_ba48ca66118492a4424f86e9da0f6902 -->
<g id="edge19" class="edge">
<title>dir_2171f7ec022c5423887b07c69b2f5b48&#45;&gt;dir_ba48ca66118492a4424f86e9da0f6902</title>
<path fill="none" stroke="#000000" d="M414.4187,-159.8109C417.9376,-139.8001 419.9864,-107.851 403.1709,-88 380.5724,-61.3221 282.6517,-45.5213 226.0313,-38.4502"/>
<polygon fill="#000000" stroke="#000000" points="226.3156,-34.9591 215.9672,-37.2308 225.4736,-41.9083 226.3156,-34.9591"/>
<g id="a_edge19&#45;headlabel"><a xlink:href="dir_000076_000668.html" target="_top" xlink:title="15">
<text text-anchor="middle" x="230.2256" y="-30.0727" font-family="Helvetica,sans-Serif" font-size="10.00" fill="#000000">15</text>
</a>
</g>
</g>
<!-- dir_2171f7ec022c5423887b07c69b2f5b48&#45;&gt;dir_4ab6b4cc6a7edbff49100e9123df213f -->
<g id="edge20" class="edge">
<title>dir_2171f7ec022c5423887b07c69b2f5b48&#45;&gt;dir_4ab6b4cc6a7edbff49100e9123df213f</title>
<path fill="none" stroke="#000000" d="M407.4518,-196.4133C404.4123,-204.484 400.0575,-214.1182 395.4914,-222.9775"/>
<polygon fill="#000000" stroke="#000000" points="392.3816,-221.3703 390.7029,-231.8314 398.5388,-224.7004 392.3816,-221.3703"/>
<g id="a_edge20&#45;headlabel"><a xlink:href="dir_000076_000027.html" target="_top" xlink:title="34">
<text text-anchor="middle" x="391.5941" y="-214.3579" font-family="Helvetica,sans-Serif" font-size="10.00" fill="#000000">34</text>
</a>
</g>
</g>
<!-- dir_2171f7ec022c5423887b07c69b2f5b48&#45;&gt;dir_051dca18e802f8e9474f2e30d29c04e0 -->
<g id="edge21" class="edge">
<title>dir_2171f7ec022c5423887b07c69b2f5b48&#45;&gt;dir_051dca18e802f8e9474f2e30d29c04e0</title>
<path fill="none" stroke="#000000" d="M392.1061,-159.8314C385.8988,-151.7079 379.2003,-141.9637 373.6194,-133.0118"/>
<polygon fill="#000000" stroke="#000000" points="376.6108,-131.1945 368.4704,-124.4133 370.6052,-134.7908 376.6108,-131.1945"/>
<g id="a_edge21&#45;headlabel"><a xlink:href="dir_000076_000039.html" target="_top" xlink:title="14">
<text text-anchor="middle" x="380.8934" y="-130.3198" font-family="Helvetica,sans-Serif" font-size="10.00" fill="#000000">14</text>
</a>
</g>
</g>
</g>
</svg>
