<?xml version="1.0" encoding="UTF-8" standalone="no"?>
<!DOCTYPE svg PUBLIC "-//W3C//DTD SVG 1.1//EN"
 "http://www.w3.org/Graphics/SVG/1.1/DTD/svg11.dtd">
<!-- Generated by graphviz version 2.40.1 (20161225.0304)
 -->
<!-- Title: /home/travis/build/AliceO2Group/AliceO2/Detectors/TPC/reconstruction/src Pages: 1 -->
<!--zoomable 511 -->
<svg id="main" version="1.1" xmlns="http://www.w3.org/2000/svg" xmlns:xlink="http://www.w3.org/1999/xlink" xml:space="preserve" onload="init(evt)">
<style type="text/css"><![CDATA[
.edge:hover path { stroke: red; }
.edge:hover polygon { stroke: red; fill: red; }
]]></style>
<script type="text/javascript"><![CDATA[
var edges = document.getElementsByTagName('g');
if (edges && edges.length) {
  for (var i=0;i<edges.length;i++) {
    if (edges[i].id.substr(0,4)=='edge') {
      edges[i].setAttribute('class','edge');
    }
  }
}
]]></script>
        <defs>
                <circle id="rim" cx="0" cy="0" r="7"/>
                <circle id="rim2" cx="0" cy="0" r="3.5"/>
                <g id="zoomPlus">
                        <use xlink:href="#rim" fill="#404040">
                                <set attributeName="fill" to="#808080" begin="zoomplus.mouseover" end="zoomplus.mouseout"/>
                        </use>
                        <path d="M-4,0h8M0,-4v8" fill="none" stroke="white" stroke-width="1.5" pointer-events="none"/>
                </g>
                <g id="zoomMin">
                        <use xlink:href="#rim" fill="#404040">
                                <set attributeName="fill" to="#808080" begin="zoomminus.mouseover" end="zoomminus.mouseout"/>
                        </use>
                        <path d="M-4,0h8" fill="none" stroke="white" stroke-width="1.5" pointer-events="none"/>
                </g>
                <g id="dirArrow">
                        <path fill="none" stroke="white" stroke-width="1.5" d="M0,-3.0v7 M-2.5,-0.5L0,-3.0L2.5,-0.5"/>
                </g>
               <g id="resetDef">
                       <use xlink:href="#rim2" fill="#404040">
                               <set attributeName="fill" to="#808080" begin="reset.mouseover" end="reset.mouseout"/>
                       </use>
               </g>
        </defs>

<script type="text/javascript">
var viewWidth = 291;
var viewHeight = 511;
var sectionId = 'dynsection-0';
</script>
<script xlink:href="svgpan.js"/>
<svg id="graph" class="graph">
<g id="viewport">
<title>/home/travis/build/AliceO2Group/AliceO2/Detectors/TPC/reconstruction/src</title>
<g id="clust1" class="cluster">
<title>clusterdir_a5de047958dd458e809773c6ffaa8478</title>
<g id="a_clust1"><a xlink:href="dir_a5de047958dd458e809773c6ffaa8478.html" target="_top" xlink:title="reconstruction">
<polygon fill="#ddddee" stroke="#000000" points="135.7562,-424 135.7562,-495 221.7562,-495 221.7562,-424 135.7562,-424"/>
<text text-anchor="middle" x="178.7562" y="-483" font-family="Helvetica,sans-Serif" font-size="10.00" fill="#000000">reconstruction</text>
</a>
</g>
</g>
<!-- dir_0c8c50542de1d83a040084fab225b0f7 -->
<g id="node1" class="node">
<title>dir_0c8c50542de1d83a040084fab225b0f7</title>
<g id="a_node1"><a xlink:href="dir_0c8c50542de1d83a040084fab225b0f7.html" target="_top" xlink:title="src">
<polygon fill="#eeeeff" stroke="#000000" points="205.7562,-468 151.7562,-468 151.7562,-432 205.7562,-432 205.7562,-468"/>
<text text-anchor="middle" x="178.7562" y="-447.5" font-family="Helvetica,sans-Serif" font-size="10.00" fill="#000000">src</text>
</a>
</g>
</g>
<!-- dir_677b030cc750909e4cd27413873678d8 -->
<g id="node2" class="node">
<title>dir_677b030cc750909e4cd27413873678d8</title>
<g id="a_node2"><a xlink:href="dir_677b030cc750909e4cd27413873678d8.html" target="_top" xlink:title="base">
<polygon fill="none" stroke="#ff0000" points="102.7562,-324 48.7562,-324 48.7562,-288 102.7562,-288 102.7562,-324"/>
<text text-anchor="middle" x="75.7562" y="-303.5" font-family="Helvetica,sans-Serif" font-size="10.00" fill="#000000">base</text>
</a>
</g>
</g>
<!-- dir_0c8c50542de1d83a040084fab225b0f7&#45;&gt;dir_677b030cc750909e4cd27413873678d8 -->
<g id="edge12" class="edge">
<title>dir_0c8c50542de1d83a040084fab225b0f7&#45;&gt;dir_677b030cc750909e4cd27413873678d8</title>
<path fill="none" stroke="#000000" d="M151.4277,-435.8088C135.7644,-426.4176 116.871,-412.7542 104.7562,-396 91.5074,-377.6776 84.1203,-353.0186 80.1226,-334.1454"/>
<polygon fill="#000000" stroke="#000000" points="83.5099,-333.2247 78.1881,-324.0634 76.6353,-334.5438 83.5099,-333.2247"/>
<g id="a_edge12&#45;headlabel"><a xlink:href="dir_000486_000050.html" target="_top" xlink:title="23">
<text text-anchor="middle" x="86.9756" y="-333.7199" font-family="Helvetica,sans-Serif" font-size="10.00" fill="#000000">23</text>
</a>
</g>
</g>
<!-- dir_396d171119822f66a36fe1ebf998d1a3 -->
<g id="node3" class="node">
<title>dir_396d171119822f66a36fe1ebf998d1a3</title>
<g id="a_node3"><a xlink:href="dir_396d171119822f66a36fe1ebf998d1a3.html" target="_top" xlink:title="include">
<polygon fill="none" stroke="#ff0000" points="167.7562,-396 113.7562,-396 113.7562,-360 167.7562,-360 167.7562,-396"/>
<text text-anchor="middle" x="140.7562" y="-375.5" font-family="Helvetica,sans-Serif" font-size="10.00" fill="#000000">include</text>
</a>
</g>
</g>
<!-- dir_0c8c50542de1d83a040084fab225b0f7&#45;&gt;dir_396d171119822f66a36fe1ebf998d1a3 -->
<g id="edge13" class="edge">
<title>dir_0c8c50542de1d83a040084fab225b0f7&#45;&gt;dir_396d171119822f66a36fe1ebf998d1a3</title>
<path fill="none" stroke="#000000" d="M169.1672,-431.8314C164.9244,-423.7925 159.8441,-414.1666 155.1602,-405.2918"/>
<polygon fill="#000000" stroke="#000000" points="158.2373,-403.6235 150.4743,-396.4133 152.0466,-406.8908 158.2373,-403.6235"/>
<g id="a_edge13&#45;headlabel"><a xlink:href="dir_000486_000364.html" target="_top" xlink:title="19">
<text text-anchor="middle" x="162.4261" y="-402.9772" font-family="Helvetica,sans-Serif" font-size="10.00" fill="#000000">19</text>
</a>
</g>
</g>
<!-- dir_f511f1e9c03c071966ae594f00bbc5e0 -->
<g id="node4" class="node">
<title>dir_f511f1e9c03c071966ae594f00bbc5e0</title>
<g id="a_node4"><a xlink:href="dir_f511f1e9c03c071966ae594f00bbc5e0.html" target="_top" xlink:title="GPU">
<polygon fill="none" stroke="#ff0000" points="121.7562,-252 67.7562,-252 67.7562,-216 121.7562,-216 121.7562,-252"/>
<text text-anchor="middle" x="94.7562" y="-231.5" font-family="Helvetica,sans-Serif" font-size="10.00" fill="#000000">GPU</text>
</a>
</g>
</g>
<!-- dir_0c8c50542de1d83a040084fab225b0f7&#45;&gt;dir_f511f1e9c03c071966ae594f00bbc5e0 -->
<g id="edge14" class="edge">
<title>dir_0c8c50542de1d83a040084fab225b0f7&#45;&gt;dir_f511f1e9c03c071966ae594f00bbc5e0</title>
<path fill="none" stroke="#000000" d="M181.111,-431.9769C182.8948,-413.4903 183.9613,-384.1088 176.7562,-360 165.3245,-321.7487 138.2777,-284.2235 118.358,-260.2135"/>
<polygon fill="#000000" stroke="#000000" points="120.7858,-257.6652 111.6466,-252.3055 115.4487,-262.1946 120.7858,-257.6652"/>
<g id="a_edge14&#45;headlabel"><a xlink:href="dir_000486_000667.html" target="_top" xlink:title="7">
<text text-anchor="middle" x="125.2765" y="-256.0686" font-family="Helvetica,sans-Serif" font-size="10.00" fill="#000000">7</text>
</a>
</g>
</g>
<!-- dir_bcbb2cf9a3d3d83e5515c82071a07177 -->
<g id="node5" class="node">
<title>dir_bcbb2cf9a3d3d83e5515c82071a07177</title>
<g id="a_node5"><a xlink:href="dir_bcbb2cf9a3d3d83e5515c82071a07177.html" target="_top" xlink:title="Framework">
<polygon fill="none" stroke="#ff0000" points="142.2562,-36 71.2562,-36 71.2562,0 142.2562,0 142.2562,-36"/>
<text text-anchor="middle" x="106.7562" y="-15.5" font-family="Helvetica,sans-Serif" font-size="10.00" fill="#000000">Framework</text>
</a>
</g>
</g>
<!-- dir_0c8c50542de1d83a040084fab225b0f7&#45;&gt;dir_bcbb2cf9a3d3d83e5515c82071a07177 -->
<g id="edge15" class="edge">
<title>dir_0c8c50542de1d83a040084fab225b0f7&#45;&gt;dir_bcbb2cf9a3d3d83e5515c82071a07177</title>
<path fill="none" stroke="#000000" d="M203.6668,-431.8707C234.4343,-407.171 282.7562,-359.8129 282.7562,-306 282.7562,-306 282.7562,-306 282.7562,-162 282.7562,-94.3572 203.9193,-52.7555 151.7735,-32.6371"/>
<polygon fill="#000000" stroke="#000000" points="152.965,-29.346 142.3724,-29.1291 150.5178,-35.9043 152.965,-29.346"/>
<g id="a_edge15&#45;headlabel"><a xlink:href="dir_000486_000013.html" target="_top" xlink:title="1">
<text text-anchor="middle" x="157.3254" y="-25.4425" font-family="Helvetica,sans-Serif" font-size="10.00" fill="#000000">1</text>
</a>
</g>
</g>
<!-- dir_26637d1bd82229bc9ed97f7e706be743 -->
<g id="node6" class="node">
<title>dir_26637d1bd82229bc9ed97f7e706be743</title>
<g id="a_node6"><a xlink:href="dir_26637d1bd82229bc9ed97f7e706be743.html" target="_top" xlink:title="Raw">
<polygon fill="none" stroke="#ff0000" points="65.7562,-180 11.7562,-180 11.7562,-144 65.7562,-144 65.7562,-180"/>
<text text-anchor="middle" x="38.7562" y="-159.5" font-family="Helvetica,sans-Serif" font-size="10.00" fill="#000000">Raw</text>
</a>
</g>
</g>
<!-- dir_0c8c50542de1d83a040084fab225b0f7&#45;&gt;dir_26637d1bd82229bc9ed97f7e706be743 -->
<g id="edge16" class="edge">
<title>dir_0c8c50542de1d83a040084fab225b0f7&#45;&gt;dir_26637d1bd82229bc9ed97f7e706be743</title>
<path fill="none" stroke="#000000" d="M151.3827,-438.9514C130.9829,-429.7187 103.3769,-415.0089 83.7562,-396 56.8215,-369.9052 50.025,-360.069 39.7562,-324 26.8866,-278.7959 30.3927,-223.5778 34.3792,-190.6814"/>
<polygon fill="#000000" stroke="#000000" points="37.8938,-190.7984 35.7266,-180.4276 30.9535,-189.8864 37.8938,-190.7984"/>
<g id="a_edge16&#45;headlabel"><a xlink:href="dir_000486_000553.html" target="_top" xlink:title="1">
<text text-anchor="middle" x="40.2407" y="-192.2323" font-family="Helvetica,sans-Serif" font-size="10.00" fill="#000000">1</text>
</a>
</g>
</g>
<!-- dir_2171f7ec022c5423887b07c69b2f5b48 -->
<g id="node7" class="node">
<title>dir_2171f7ec022c5423887b07c69b2f5b48</title>
<g id="a_node7"><a xlink:href="dir_2171f7ec022c5423887b07c69b2f5b48.html" target="_top" xlink:title="DataFormats">
<polygon fill="none" stroke="#ff0000" points="146.7562,-108 66.7562,-108 66.7562,-72 146.7562,-72 146.7562,-108"/>
<text text-anchor="middle" x="106.7562" y="-87.5" font-family="Helvetica,sans-Serif" font-size="10.00" fill="#000000">DataFormats</text>
</a>
</g>
</g>
<!-- dir_0c8c50542de1d83a040084fab225b0f7&#45;&gt;dir_2171f7ec022c5423887b07c69b2f5b48 -->
<g id="edge17" class="edge">
<title>dir_0c8c50542de1d83a040084fab225b0f7&#45;&gt;dir_2171f7ec022c5423887b07c69b2f5b48</title>
<path fill="none" stroke="#000000" d="M193.4037,-431.6749C212.8479,-405.4479 244.7562,-354.9514 244.7562,-306 244.7562,-306 244.7562,-306 244.7562,-234 244.7562,-179.4347 192.4669,-137.4825 152.2622,-113.2906"/>
<polygon fill="#000000" stroke="#000000" points="153.7771,-110.1224 143.3754,-108.1087 150.251,-116.1695 153.7771,-110.1224"/>
<g id="a_edge17&#45;headlabel"><a xlink:href="dir_000486_000076.html" target="_top" xlink:title="11">
<text text-anchor="middle" x="158.3125" y="-106.9803" font-family="Helvetica,sans-Serif" font-size="10.00" fill="#000000">11</text>
</a>
</g>
</g>
<!-- dir_677b030cc750909e4cd27413873678d8&#45;&gt;dir_f511f1e9c03c071966ae594f00bbc5e0 -->
<g id="edge1" class="edge">
<title>dir_677b030cc750909e4cd27413873678d8&#45;&gt;dir_f511f1e9c03c071966ae594f00bbc5e0</title>
<path fill="none" stroke="#000000" d="M74.5983,-287.8314C75.894,-280.0463 78.1237,-270.7729 80.727,-262.1347"/>
<polygon fill="#000000" stroke="#000000" points="84.1247,-263.0061 83.9211,-252.4133 77.4745,-260.8211 84.1247,-263.0061"/>
<g id="a_edge1&#45;headlabel"><a xlink:href="dir_000050_000667.html" target="_top" xlink:title="2">
<text text-anchor="middle" x="85.7002" y="-264.8074" font-family="Helvetica,sans-Serif" font-size="10.00" fill="#000000">2</text>
</a>
</g>
</g>
<!-- dir_677b030cc750909e4cd27413873678d8&#45;&gt;dir_bcbb2cf9a3d3d83e5515c82071a07177 -->
<g id="edge2" class="edge">
<title>dir_677b030cc750909e4cd27413873678d8&#45;&gt;dir_bcbb2cf9a3d3d83e5515c82071a07177</title>
<path fill="none" stroke="#000000" d="M58.3719,-287.8217C32.6243,-258.6393 -11.1884,-199.0219 2.7562,-144 11.6969,-108.7224 18.6751,-100.1373 41.7562,-72 50.6537,-61.1534 61.9735,-50.8754 72.6645,-42.2547"/>
<polygon fill="#000000" stroke="#000000" points="74.941,-44.9177 80.6669,-36.0034 70.6317,-39.4013 74.941,-44.9177"/>
<g id="a_edge2&#45;headlabel"><a xlink:href="dir_000050_000013.html" target="_top" xlink:title="1">
<text text-anchor="middle" x="73.8561" y="-46.8681" font-family="Helvetica,sans-Serif" font-size="10.00" fill="#000000">1</text>
</a>
</g>
</g>
<!-- dir_677b030cc750909e4cd27413873678d8&#45;&gt;dir_26637d1bd82229bc9ed97f7e706be743 -->
<g id="edge3" class="edge">
<title>dir_677b030cc750909e4cd27413873678d8&#45;&gt;dir_26637d1bd82229bc9ed97f7e706be743</title>
<path fill="none" stroke="#000000" d="M69.5369,-287.6213C66.1301,-277.2303 61.9618,-263.962 58.7562,-252 53.2406,-231.418 48.053,-207.9043 44.3439,-190.0737"/>
<polygon fill="#000000" stroke="#000000" points="47.7242,-189.1343 42.2877,-180.0406 40.8667,-190.5397 47.7242,-189.1343"/>
<g id="a_edge3&#45;headlabel"><a xlink:href="dir_000050_000553.html" target="_top" xlink:title="1">
<text text-anchor="middle" x="51.2272" y="-189.5857" font-family="Helvetica,sans-Serif" font-size="10.00" fill="#000000">1</text>
</a>
</g>
</g>
<!-- dir_677b030cc750909e4cd27413873678d8&#45;&gt;dir_2171f7ec022c5423887b07c69b2f5b48 -->
<g id="edge4" class="edge">
<title>dir_677b030cc750909e4cd27413873678d8&#45;&gt;dir_2171f7ec022c5423887b07c69b2f5b48</title>
<path fill="none" stroke="#000000" d="M102.0125,-287.8151C113.0984,-278.5285 124.802,-266.1902 130.7562,-252 149.3991,-207.5695 132.8419,-150.971 119.5187,-117.7854"/>
<polygon fill="#000000" stroke="#000000" points="122.6261,-116.145 115.5303,-108.2774 116.1711,-118.8528 122.6261,-116.145"/>
<g id="a_edge4&#45;headlabel"><a xlink:href="dir_000050_000076.html" target="_top" xlink:title="15">
<text text-anchor="middle" x="126.6348" y="-115.8615" font-family="Helvetica,sans-Serif" font-size="10.00" fill="#000000">15</text>
</a>
</g>
</g>
<!-- dir_396d171119822f66a36fe1ebf998d1a3&#45;&gt;dir_677b030cc750909e4cd27413873678d8 -->
<g id="edge5" class="edge">
<title>dir_396d171119822f66a36fe1ebf998d1a3&#45;&gt;dir_677b030cc750909e4cd27413873678d8</title>
<path fill="none" stroke="#000000" d="M124.354,-359.8314C116.7147,-351.3694 107.4878,-341.1489 99.1355,-331.8971"/>
<polygon fill="#000000" stroke="#000000" points="101.6783,-329.4906 92.3793,-324.4133 96.4824,-334.1813 101.6783,-329.4906"/>
<g id="a_edge5&#45;headlabel"><a xlink:href="dir_000364_000050.html" target="_top" xlink:title="10">
<text text-anchor="middle" x="106.1945" y="-327.7561" font-family="Helvetica,sans-Serif" font-size="10.00" fill="#000000">10</text>
</a>
</g>
</g>
<!-- dir_396d171119822f66a36fe1ebf998d1a3&#45;&gt;dir_f511f1e9c03c071966ae594f00bbc5e0 -->
<g id="edge6" class="edge">
<title>dir_396d171119822f66a36fe1ebf998d1a3&#45;&gt;dir_f511f1e9c03c071966ae594f00bbc5e0</title>
<path fill="none" stroke="#000000" d="M134.9303,-359.7623C127.0497,-335.0928 112.9197,-290.8598 103.692,-261.9731"/>
<polygon fill="#000000" stroke="#000000" points="106.9119,-260.5503 100.5348,-252.0896 100.2438,-262.6805 106.9119,-260.5503"/>
<g id="a_edge6&#45;headlabel"><a xlink:href="dir_000364_000667.html" target="_top" xlink:title="1">
<text text-anchor="middle" x="110.7103" y="-260.6105" font-family="Helvetica,sans-Serif" font-size="10.00" fill="#000000">1</text>
</a>
</g>
</g>
<!-- dir_396d171119822f66a36fe1ebf998d1a3&#45;&gt;dir_2171f7ec022c5423887b07c69b2f5b48 -->
<g id="edge7" class="edge">
<title>dir_396d171119822f66a36fe1ebf998d1a3&#45;&gt;dir_2171f7ec022c5423887b07c69b2f5b48</title>
<path fill="none" stroke="#000000" d="M145.5594,-359.7373C155.2534,-319.4518 174.0906,-220.4726 147.7562,-144 144.3068,-133.9833 138.2154,-124.3355 131.7658,-116.0351"/>
<polygon fill="#000000" stroke="#000000" points="134.3606,-113.6811 125.2816,-108.2201 128.9735,-118.1509 134.3606,-113.6811"/>
<g id="a_edge7&#45;headlabel"><a xlink:href="dir_000364_000076.html" target="_top" xlink:title="17">
<text text-anchor="middle" x="138.8409" y="-112.1344" font-family="Helvetica,sans-Serif" font-size="10.00" fill="#000000">17</text>
</a>
</g>
</g>
<!-- dir_f511f1e9c03c071966ae594f00bbc5e0&#45;&gt;dir_677b030cc750909e4cd27413873678d8 -->
<g id="edge8" class="edge">
<title>dir_f511f1e9c03c071966ae594f00bbc5e0&#45;&gt;dir_677b030cc750909e4cd27413873678d8</title>
<path fill="none" stroke="#000000" d="M95.8731,-252.4133C94.558,-260.2292 92.3147,-269.5113 89.7036,-278.136"/>
<polygon fill="#000000" stroke="#000000" points="86.3142,-277.2382 86.5031,-287.8314 92.9614,-279.4325 86.3142,-277.2382"/>
<g id="a_edge8&#45;headlabel"><a xlink:href="dir_000667_000050.html" target="_top" xlink:title="3">
<text text-anchor="middle" x="84.7448" y="-270.4348" font-family="Helvetica,sans-Serif" font-size="10.00" fill="#000000">3</text>
</a>
</g>
</g>
<!-- dir_f511f1e9c03c071966ae594f00bbc5e0&#45;&gt;dir_26637d1bd82229bc9ed97f7e706be743 -->
<g id="edge9" class="edge">
<title>dir_f511f1e9c03c071966ae594f00bbc5e0&#45;&gt;dir_26637d1bd82229bc9ed97f7e706be743</title>
<path fill="none" stroke="#000000" d="M74.6726,-215.8314C67.4886,-207.6232 59.6194,-197.7606 53.0008,-188.7323"/>
<polygon fill="#000000" stroke="#000000" points="55.7412,-186.5459 47.1016,-180.4133 50.0311,-190.5951 55.7412,-186.5459"/>
<g id="a_edge9&#45;headlabel"><a xlink:href="dir_000667_000553.html" target="_top" xlink:title="1">
<text text-anchor="middle" x="60.1365" y="-185.3357" font-family="Helvetica,sans-Serif" font-size="10.00" fill="#000000">1</text>
</a>
</g>
</g>
<!-- dir_f511f1e9c03c071966ae594f00bbc5e0&#45;&gt;dir_2171f7ec022c5423887b07c69b2f5b48 -->
<g id="edge10" class="edge">
<title>dir_f511f1e9c03c071966ae594f00bbc5e0&#45;&gt;dir_2171f7ec022c5423887b07c69b2f5b48</title>
<path fill="none" stroke="#000000" d="M91.6028,-215.7623C91.188,-191.0928 94.6078,-146.8598 98.9531,-117.9731"/>
<polygon fill="#000000" stroke="#000000" points="102.4089,-118.5272 100.5904,-108.0896 95.503,-117.3831 102.4089,-118.5272"/>
<g id="a_edge10&#45;headlabel"><a xlink:href="dir_000667_000076.html" target="_top" xlink:title="12">
<text text-anchor="middle" x="104.6226" y="-120.0375" font-family="Helvetica,sans-Serif" font-size="10.00" fill="#000000">12</text>
</a>
</g>
</g>
<!-- dir_bcbb2cf9a3d3d83e5515c82071a07177&#45;&gt;dir_2171f7ec022c5423887b07c69b2f5b48 -->
<g id="edge11" class="edge">
<title>dir_bcbb2cf9a3d3d83e5515c82071a07177&#45;&gt;dir_2171f7ec022c5423887b07c69b2f5b48</title>
<path fill="none" stroke="#000000" d="M112.7322,-36.4133C113.4633,-44.0593 113.6765,-53.1084 113.3717,-61.5726"/>
<polygon fill="#000000" stroke="#000000" points="109.861,-61.6264 112.7086,-71.8314 116.8464,-62.078 109.861,-61.6264"/>
<g id="a_edge11&#45;headlabel"><a xlink:href="dir_000013_000076.html" target="_top" xlink:title="82">
<text text-anchor="middle" x="107.2594" y="-55.3562" font-family="Helvetica,sans-Serif" font-size="10.00" fill="#000000">82</text>
</a>
</g>
</g>
<!-- dir_26637d1bd82229bc9ed97f7e706be743&#45;&gt;dir_f511f1e9c03c071966ae594f00bbc5e0 -->
<g id="edge18" class="edge">
<title>dir_26637d1bd82229bc9ed97f7e706be743&#45;&gt;dir_f511f1e9c03c071966ae594f00bbc5e0</title>
<path fill="none" stroke="#000000" d="M59.0536,-180.4133C66.251,-188.654 74.1145,-198.5245 80.708,-207.536"/>
<polygon fill="#000000" stroke="#000000" points="77.9443,-209.6897 86.5774,-215.8314 83.6586,-205.6465 77.9443,-209.6897"/>
<g id="a_edge18&#45;headlabel"><a xlink:href="dir_000553_000667.html" target="_top" xlink:title="2">
<text text-anchor="middle" x="73.5504" y="-205.8952" font-family="Helvetica,sans-Serif" font-size="10.00" fill="#000000">2</text>
</a>
</g>
</g>
<!-- dir_26637d1bd82229bc9ed97f7e706be743&#45;&gt;dir_bcbb2cf9a3d3d83e5515c82071a07177 -->
<g id="edge19" class="edge">
<title>dir_26637d1bd82229bc9ed97f7e706be743&#45;&gt;dir_bcbb2cf9a3d3d83e5515c82071a07177</title>
<path fill="none" stroke="#000000" d="M39.798,-143.8257C41.5015,-124.9578 45.9828,-95.0362 57.7562,-72 63.0493,-61.6434 70.8543,-51.7654 78.6865,-43.3563"/>
<polygon fill="#000000" stroke="#000000" points="81.3205,-45.6689 85.8157,-36.075 76.3188,-40.7716 81.3205,-45.6689"/>
<g id="a_edge19&#45;headlabel"><a xlink:href="dir_000553_000013.html" target="_top" xlink:title="25">
<text text-anchor="middle" x="80.8344" y="-47.7237" font-family="Helvetica,sans-Serif" font-size="10.00" fill="#000000">25</text>
</a>
</g>
</g>
<!-- dir_26637d1bd82229bc9ed97f7e706be743&#45;&gt;dir_2171f7ec022c5423887b07c69b2f5b48 -->
<g id="edge20" class="edge">
<title>dir_26637d1bd82229bc9ed97f7e706be743&#45;&gt;dir_2171f7ec022c5423887b07c69b2f5b48</title>
<path fill="none" stroke="#000000" d="M55.9155,-143.8314C63.9073,-135.3694 73.56,-125.1489 82.2978,-115.8971"/>
<polygon fill="#000000" stroke="#000000" points="85.0442,-118.0866 89.3659,-108.4133 79.9551,-113.2802 85.0442,-118.0866"/>
<g id="a_edge20&#45;headlabel"><a xlink:href="dir_000553_000076.html" target="_top" xlink:title="15">
<text text-anchor="middle" x="84.6402" y="-120.1494" font-family="Helvetica,sans-Serif" font-size="10.00" fill="#000000">15</text>
</a>
</g>
</g>
<!-- dir_2171f7ec022c5423887b07c69b2f5b48&#45;&gt;dir_f511f1e9c03c071966ae594f00bbc5e0 -->
<g id="edge21" class="edge">
<title>dir_2171f7ec022c5423887b07c69b2f5b48&#45;&gt;dir_f511f1e9c03c071966ae594f00bbc5e0</title>
<path fill="none" stroke="#000000" d="M109.907,-108.0896C110.3373,-132.6805 106.927,-176.905 102.5854,-205.8531"/>
<polygon fill="#000000" stroke="#000000" points="99.1252,-205.3257 100.9492,-215.7623 106.0317,-206.4662 99.1252,-205.3257"/>
<g id="a_edge21&#45;headlabel"><a xlink:href="dir_000076_000667.html" target="_top" xlink:title="15">
<text text-anchor="middle" x="96.9094" y="-198.8165" font-family="Helvetica,sans-Serif" font-size="10.00" fill="#000000">15</text>
</a>
</g>
</g>
<!-- dir_2171f7ec022c5423887b07c69b2f5b48&#45;&gt;dir_bcbb2cf9a3d3d83e5515c82071a07177 -->
<g id="edge22" class="edge">
<title>dir_2171f7ec022c5423887b07c69b2f5b48&#45;&gt;dir_bcbb2cf9a3d3d83e5515c82071a07177</title>
<path fill="none" stroke="#000000" d="M100.8038,-71.8314C100.0534,-64.131 99.8325,-54.9743 100.1411,-46.4166"/>
<polygon fill="#000000" stroke="#000000" points="103.6354,-46.6161 100.7802,-36.4133 96.6497,-46.1697 103.6354,-46.6161"/>
<g id="a_edge22&#45;headlabel"><a xlink:href="dir_000076_000013.html" target="_top" xlink:title="7">
<text text-anchor="middle" x="106.2398" y="-47.8844" font-family="Helvetica,sans-Serif" font-size="10.00" fill="#000000">7</text>
</a>
</g>
</g>
</g>
</svg>
        <g id="navigator" transform="translate(0 0)" fill="#404254">
                <rect fill="#f2f5e9" fill-opacity="0.5" stroke="#606060" stroke-width=".5" x="0" y="0" width="60" height="60"/>
                <use id="zoomplus" xlink:href="#zoomPlus" x="17" y="9" onmousedown="handleZoom(evt,'in')"/>
                <use id="zoomminus" xlink:href="#zoomMin" x="42" y="9" onmousedown="handleZoom(evt,'out')"/>
                <use id="reset" xlink:href="#resetDef" x="30" y="36" onmousedown="handleReset()"/>
                <g id="arrowUp" xlink:href="#dirArrow" transform="translate(30 24)" onmousedown="handlePan(0,-1)">
                  <use xlink:href="#rim" fill="#404040">
                        <set attributeName="fill" to="#808080" begin="arrowUp.mouseover" end="arrowUp.mouseout"/>
                  </use>
                  <path fill="none" stroke="white" stroke-width="1.5" d="M0,-3.0v7 M-2.5,-0.5L0,-3.0L2.5,-0.5"/>
                </g>
                <g id="arrowRight" xlink:href="#dirArrow" transform="rotate(90) translate(36 -43)" onmousedown="handlePan(1,0)">
                  <use xlink:href="#rim" fill="#404040">
                        <set attributeName="fill" to="#808080" begin="arrowRight.mouseover" end="arrowRight.mouseout"/>
                  </use>
                  <path fill="none" stroke="white" stroke-width="1.5" d="M0,-3.0v7 M-2.5,-0.5L0,-3.0L2.5,-0.5"/>
                </g>
                <g id="arrowDown" xlink:href="#dirArrow" transform="rotate(180) translate(-30 -48)" onmousedown="handlePan(0,1)">
                  <use xlink:href="#rim" fill="#404040">
                        <set attributeName="fill" to="#808080" begin="arrowDown.mouseover" end="arrowDown.mouseout"/>
                  </use>
                  <path fill="none" stroke="white" stroke-width="1.5" d="M0,-3.0v7 M-2.5,-0.5L0,-3.0L2.5,-0.5"/>
                </g>
                <g id="arrowLeft" xlink:href="#dirArrow" transform="rotate(270) translate(-36 17)" onmousedown="handlePan(-1,0)">
                  <use xlink:href="#rim" fill="#404040">
                        <set attributeName="fill" to="#808080" begin="arrowLeft.mouseover" end="arrowLeft.mouseout"/>
                  </use>
                  <path fill="none" stroke="white" stroke-width="1.5" d="M0,-3.0v7 M-2.5,-0.5L0,-3.0L2.5,-0.5"/>
                </g>
        </g>
        <svg viewBox="0 0 15 15" width="100%" height="30px" preserveAspectRatio="xMaxYMin meet">
         <g id="arrow_out" transform="scale(0.3 0.3)">
          <a xlink:href="dir_0c8c50542de1d83a040084fab225b0f7_dep_org.svg" target="_base">
           <rect id="button" ry="5" rx="5" y="6" x="6" height="38" width="38"
                fill="#f2f5e9" fill-opacity="0.5" stroke="#606060" stroke-width="1.0"/>
           <path id="arrow"
             d="M 11.500037,31.436501 C 11.940474,20.09759 22.043105,11.32322 32.158766,21.979434 L 37.068811,17.246167 C 37.068811,17.246167 37.088388,32 37.088388,32 L 22.160133,31.978069 C 22.160133,31.978069 26.997745,27.140456 26.997745,27.140456 C 18.528582,18.264221 13.291696,25.230495 11.500037,31.436501 z"
             style="fill:#404040;"/>
          </a>
         </g>
        </svg>
</svg>
