<?xml version="1.0" encoding="UTF-8" standalone="no"?>
<!DOCTYPE svg PUBLIC "-//W3C//DTD SVG 1.1//EN"
 "http://www.w3.org/Graphics/SVG/1.1/DTD/svg11.dtd">
<!-- Generated by graphviz version 2.40.1 (20161225.0304)
 -->
<!-- Title: /home/travis/build/AliceO2Group/AliceO2/Detectors/MUON/MCH/Workflow Pages: 1 -->
<svg width="487pt" height="303pt"
 viewBox="0.00 0.00 487.16 303.00" xmlns="http://www.w3.org/2000/svg" xmlns:xlink="http://www.w3.org/1999/xlink">
<g id="graph0" class="graph" transform="scale(1 1) rotate(0) translate(4 299)">
<title>/home/travis/build/AliceO2Group/AliceO2/Detectors/MUON/MCH/Workflow</title>
<g id="clust1" class="cluster">
<title>clusterdir_061f7088060f41729027f6c2fce0273e</title>
<g id="a_clust1"><a xlink:href="dir_061f7088060f41729027f6c2fce0273e.html" target="_top" xlink:title="MCH">
<polygon fill="#ddddee" stroke="#000000" points="251.1554,-128 251.1554,-287 417.1554,-287 417.1554,-128 251.1554,-128"/>
<text text-anchor="middle" x="334.1554" y="-275" font-family="Helvetica,sans-Serif" font-size="10.00" fill="#000000">MCH</text>
</a>
</g>
</g>
<g id="clust2" class="cluster">
<title>clusterdir_04ece05d7c7fe751e39bd0511b9068fc</title>
<g id="a_clust2"><a xlink:href="dir_04ece05d7c7fe751e39bd0511b9068fc.html" target="_top">
<polygon fill="#eeeeff" stroke="#000000" points="259.1554,-136 259.1554,-260 409.1554,-260 409.1554,-136 259.1554,-136"/>
</a>
</g>
</g>
<!-- dir_04ece05d7c7fe751e39bd0511b9068fc -->
<g id="node1" class="node">
<title>dir_04ece05d7c7fe751e39bd0511b9068fc</title>
<text text-anchor="middle" x="370.1554" y="-231.5" font-family="Helvetica,sans-Serif" font-size="10.00" fill="#000000">Workflow</text>
</g>
<!-- dir_ade19310a6abca7155cb213ca0a7e06d -->
<g id="node2" class="node">
<title>dir_ade19310a6abca7155cb213ca0a7e06d</title>
<g id="a_node2"><a xlink:href="dir_ade19310a6abca7155cb213ca0a7e06d.html" target="_top" xlink:title="include">
<polygon fill="#ffffff" stroke="#ff0000" points="321.1554,-180 267.1554,-180 267.1554,-144 321.1554,-144 321.1554,-180"/>
<text text-anchor="middle" x="294.1554" y="-159.5" font-family="Helvetica,sans-Serif" font-size="10.00" fill="#000000">include</text>
</a>
</g>
</g>
<!-- dir_bcbb2cf9a3d3d83e5515c82071a07177 -->
<g id="node6" class="node">
<title>dir_bcbb2cf9a3d3d83e5515c82071a07177</title>
<g id="a_node6"><a xlink:href="dir_bcbb2cf9a3d3d83e5515c82071a07177.html" target="_top" xlink:title="Framework">
<polygon fill="none" stroke="#ff0000" points="325.6554,-108 254.6554,-108 254.6554,-72 325.6554,-72 325.6554,-108"/>
<text text-anchor="middle" x="290.1554" y="-87.5" font-family="Helvetica,sans-Serif" font-size="10.00" fill="#000000">Framework</text>
</a>
</g>
</g>
<!-- dir_ade19310a6abca7155cb213ca0a7e06d&#45;&gt;dir_bcbb2cf9a3d3d83e5515c82071a07177 -->
<g id="edge11" class="edge">
<title>dir_ade19310a6abca7155cb213ca0a7e06d&#45;&gt;dir_bcbb2cf9a3d3d83e5515c82071a07177</title>
<path fill="none" stroke="#000000" d="M293.146,-143.8314C292.7182,-136.131 292.2095,-126.9743 291.7341,-118.4166"/>
<polygon fill="#000000" stroke="#000000" points="295.2277,-118.2037 291.1783,-108.4133 288.2385,-118.592 295.2277,-118.2037"/>
<g id="a_edge11&#45;headlabel"><a xlink:href="dir_000542_000013.html" target="_top" xlink:title="2">
<text text-anchor="middle" x="298.2619" y="-119.1353" font-family="Helvetica,sans-Serif" font-size="10.00" fill="#000000">2</text>
</a>
</g>
</g>
<!-- dir_e2a306cbeddc37280b8dde7d223d74dd -->
<g id="node3" class="node">
<title>dir_e2a306cbeddc37280b8dde7d223d74dd</title>
<g id="a_node3"><a xlink:href="dir_e2a306cbeddc37280b8dde7d223d74dd.html" target="_top" xlink:title="src">
<polygon fill="#ffffff" stroke="#000000" points="321.1554,-252 267.1554,-252 267.1554,-216 321.1554,-216 321.1554,-252"/>
<text text-anchor="middle" x="294.1554" y="-231.5" font-family="Helvetica,sans-Serif" font-size="10.00" fill="#000000">src</text>
</a>
</g>
</g>
<!-- dir_e2a306cbeddc37280b8dde7d223d74dd&#45;&gt;dir_ade19310a6abca7155cb213ca0a7e06d -->
<g id="edge5" class="edge">
<title>dir_e2a306cbeddc37280b8dde7d223d74dd&#45;&gt;dir_ade19310a6abca7155cb213ca0a7e06d</title>
<path fill="none" stroke="#000000" d="M294.1554,-215.8314C294.1554,-208.131 294.1554,-198.9743 294.1554,-190.4166"/>
<polygon fill="#000000" stroke="#000000" points="297.6555,-190.4132 294.1554,-180.4133 290.6555,-190.4133 297.6555,-190.4132"/>
<g id="a_edge5&#45;headlabel"><a xlink:href="dir_000544_000542.html" target="_top" xlink:title="4">
<text text-anchor="middle" x="300.4946" y="-191.5079" font-family="Helvetica,sans-Serif" font-size="10.00" fill="#000000">4</text>
</a>
</g>
</g>
<!-- dir_6229e1f1a243f5ed3f0013dfa4f13deb -->
<g id="node4" class="node">
<title>dir_6229e1f1a243f5ed3f0013dfa4f13deb</title>
<g id="a_node4"><a xlink:href="dir_6229e1f1a243f5ed3f0013dfa4f13deb.html" target="_top" xlink:title="PreClustering">
<polygon fill="none" stroke="#ff0000" points="133.1554,-180 51.1554,-180 51.1554,-144 133.1554,-144 133.1554,-180"/>
<text text-anchor="middle" x="92.1554" y="-159.5" font-family="Helvetica,sans-Serif" font-size="10.00" fill="#000000">PreClustering</text>
</a>
</g>
</g>
<!-- dir_e2a306cbeddc37280b8dde7d223d74dd&#45;&gt;dir_6229e1f1a243f5ed3f0013dfa4f13deb -->
<g id="edge3" class="edge">
<title>dir_e2a306cbeddc37280b8dde7d223d74dd&#45;&gt;dir_6229e1f1a243f5ed3f0013dfa4f13deb</title>
<path fill="none" stroke="#000000" d="M266.9127,-224.2898C235.2434,-213.0017 182.3011,-194.1312 142.9708,-180.1124"/>
<polygon fill="#000000" stroke="#000000" points="143.8807,-176.7211 133.2861,-176.6605 141.5305,-183.3148 143.8807,-176.7211"/>
<g id="a_edge3&#45;headlabel"><a xlink:href="dir_000544_000515.html" target="_top" xlink:title="1">
<text text-anchor="middle" x="148.2199" y="-172.7535" font-family="Helvetica,sans-Serif" font-size="10.00" fill="#000000">1</text>
</a>
</g>
</g>
<!-- dir_1155c84989a046e7de4bf0156dc4b34c -->
<g id="node5" class="node">
<title>dir_1155c84989a046e7de4bf0156dc4b34c</title>
<g id="a_node5"><a xlink:href="dir_1155c84989a046e7de4bf0156dc4b34c.html" target="_top" xlink:title="Base">
<polygon fill="none" stroke="#ff0000" points="82.1554,-108 28.1554,-108 28.1554,-72 82.1554,-72 82.1554,-108"/>
<text text-anchor="middle" x="55.1554" y="-87.5" font-family="Helvetica,sans-Serif" font-size="10.00" fill="#000000">Base</text>
</a>
</g>
</g>
<!-- dir_e2a306cbeddc37280b8dde7d223d74dd&#45;&gt;dir_1155c84989a046e7de4bf0156dc4b34c -->
<g id="edge4" class="edge">
<title>dir_e2a306cbeddc37280b8dde7d223d74dd&#45;&gt;dir_1155c84989a046e7de4bf0156dc4b34c</title>
<path fill="none" stroke="#000000" d="M266.8491,-232.342C207.5812,-228.1148 70.2141,-214.7083 42.1554,-180 28.146,-162.6705 33.5377,-137.0898 41.1949,-117.6253"/>
<polygon fill="#000000" stroke="#000000" points="44.4473,-118.9217 45.1874,-108.3527 38.018,-116.1534 44.4473,-118.9217"/>
<g id="a_edge4&#45;headlabel"><a xlink:href="dir_000544_000129.html" target="_top" xlink:title="8">
<text text-anchor="middle" x="45.6337" y="-120.8461" font-family="Helvetica,sans-Serif" font-size="10.00" fill="#000000">8</text>
</a>
</g>
</g>
<!-- dir_e2a306cbeddc37280b8dde7d223d74dd&#45;&gt;dir_bcbb2cf9a3d3d83e5515c82071a07177 -->
<g id="edge6" class="edge">
<title>dir_e2a306cbeddc37280b8dde7d223d74dd&#45;&gt;dir_bcbb2cf9a3d3d83e5515c82071a07177</title>
<path fill="none" stroke="#000000" d="M310.1459,-215.9169C317.8092,-206.0371 326.1719,-193.1563 330.1554,-180 336.8526,-157.8805 339.2726,-149.2368 330.1554,-128 328.2259,-123.5056 325.4747,-119.2923 322.3064,-115.4268"/>
<polygon fill="#000000" stroke="#000000" points="324.7392,-112.9043 315.3467,-108.002 319.632,-117.6915 324.7392,-112.9043"/>
<g id="a_edge6&#45;headlabel"><a xlink:href="dir_000544_000013.html" target="_top" xlink:title="79">
<text text-anchor="middle" x="329.269" y="-111.0852" font-family="Helvetica,sans-Serif" font-size="10.00" fill="#000000">79</text>
</a>
</g>
</g>
<!-- dir_f8de85f281636d081fd2e7e06b0134d2 -->
<g id="node7" class="node">
<title>dir_f8de85f281636d081fd2e7e06b0134d2</title>
<g id="a_node7"><a xlink:href="dir_f8de85f281636d081fd2e7e06b0134d2.html" target="_top" xlink:title="Raw">
<polygon fill="none" stroke="#ff0000" points="479.1554,-180 425.1554,-180 425.1554,-144 479.1554,-144 479.1554,-180"/>
<text text-anchor="middle" x="452.1554" y="-159.5" font-family="Helvetica,sans-Serif" font-size="10.00" fill="#000000">Raw</text>
</a>
</g>
</g>
<!-- dir_e2a306cbeddc37280b8dde7d223d74dd&#45;&gt;dir_f8de85f281636d081fd2e7e06b0134d2 -->
<g id="edge7" class="edge">
<title>dir_e2a306cbeddc37280b8dde7d223d74dd&#45;&gt;dir_f8de85f281636d081fd2e7e06b0134d2</title>
<path fill="none" stroke="#000000" d="M321.2054,-220.2777C324.2138,-218.8104 327.2423,-217.3588 330.1554,-216 366.5954,-199.0026 376.4542,-196.4261 413.1554,-180 413.9892,-179.6268 414.8325,-179.2481 415.6825,-178.8653"/>
<polygon fill="#000000" stroke="#000000" points="417.2608,-181.9926 424.9169,-174.6691 414.3648,-175.6197 417.2608,-181.9926"/>
<g id="a_edge7&#45;headlabel"><a xlink:href="dir_000544_000406.html" target="_top" xlink:title="8">
<text text-anchor="middle" x="415.1628" y="-183.5646" font-family="Helvetica,sans-Serif" font-size="10.00" fill="#000000">8</text>
</a>
</g>
</g>
<!-- dir_26637d1bd82229bc9ed97f7e706be743 -->
<g id="node8" class="node">
<title>dir_26637d1bd82229bc9ed97f7e706be743</title>
<g id="a_node8"><a xlink:href="dir_26637d1bd82229bc9ed97f7e706be743.html" target="_top" xlink:title="Raw">
<polygon fill="none" stroke="#ff0000" points="243.1554,-180 189.1554,-180 189.1554,-144 243.1554,-144 243.1554,-180"/>
<text text-anchor="middle" x="216.1554" y="-159.5" font-family="Helvetica,sans-Serif" font-size="10.00" fill="#000000">Raw</text>
</a>
</g>
</g>
<!-- dir_e2a306cbeddc37280b8dde7d223d74dd&#45;&gt;dir_26637d1bd82229bc9ed97f7e706be743 -->
<g id="edge8" class="edge">
<title>dir_e2a306cbeddc37280b8dde7d223d74dd&#45;&gt;dir_26637d1bd82229bc9ed97f7e706be743</title>
<path fill="none" stroke="#000000" d="M274.4727,-215.8314C265.0503,-207.1337 253.6152,-196.5783 243.3758,-187.1265"/>
<polygon fill="#000000" stroke="#000000" points="245.5538,-184.3738 235.8318,-180.1628 240.8058,-189.5175 245.5538,-184.3738"/>
<g id="a_edge8&#45;headlabel"><a xlink:href="dir_000544_000553.html" target="_top" xlink:title="1">
<text text-anchor="middle" x="250.1209" y="-182.2257" font-family="Helvetica,sans-Serif" font-size="10.00" fill="#000000">1</text>
</a>
</g>
</g>
<!-- dir_2171f7ec022c5423887b07c69b2f5b48 -->
<g id="node9" class="node">
<title>dir_2171f7ec022c5423887b07c69b2f5b48</title>
<g id="a_node9"><a xlink:href="dir_2171f7ec022c5423887b07c69b2f5b48.html" target="_top" xlink:title="DataFormats">
<polygon fill="none" stroke="#ff0000" points="330.1554,-36 250.1554,-36 250.1554,0 330.1554,0 330.1554,-36"/>
<text text-anchor="middle" x="290.1554" y="-15.5" font-family="Helvetica,sans-Serif" font-size="10.00" fill="#000000">DataFormats</text>
</a>
</g>
</g>
<!-- dir_e2a306cbeddc37280b8dde7d223d74dd&#45;&gt;dir_2171f7ec022c5423887b07c69b2f5b48 -->
<g id="edge9" class="edge">
<title>dir_e2a306cbeddc37280b8dde7d223d74dd&#45;&gt;dir_2171f7ec022c5423887b07c69b2f5b48</title>
<path fill="none" stroke="#000000" d="M266.8681,-232.2782C206.1089,-227.8592 62.4761,-213.9839 30.1554,-180 -3.0951,-145.0385 -11.4468,-109.3016 19.1554,-72 46.5618,-38.5937 169.5855,-25.4632 240.0892,-20.6148"/>
<polygon fill="#000000" stroke="#000000" points="240.3434,-24.1057 250.0926,-19.9581 239.8848,-17.1207 240.3434,-24.1057"/>
<g id="a_edge9&#45;headlabel"><a xlink:href="dir_000544_000076.html" target="_top" xlink:title="3">
<text text-anchor="middle" x="236.9425" y="-24.6742" font-family="Helvetica,sans-Serif" font-size="10.00" fill="#000000">3</text>
</a>
</g>
</g>
<!-- dir_b098e3604916eca5f90f2bb1c75b7880 -->
<g id="node10" class="node">
<title>dir_b098e3604916eca5f90f2bb1c75b7880</title>
<g id="a_node10"><a xlink:href="dir_b098e3604916eca5f90f2bb1c75b7880.html" target="_top" xlink:title="Mapping">
<polygon fill="none" stroke="#ff0000" points="180.1554,-108 122.1554,-108 122.1554,-72 180.1554,-72 180.1554,-108"/>
<text text-anchor="middle" x="151.1554" y="-87.5" font-family="Helvetica,sans-Serif" font-size="10.00" fill="#000000">Mapping</text>
</a>
</g>
</g>
<!-- dir_e2a306cbeddc37280b8dde7d223d74dd&#45;&gt;dir_b098e3604916eca5f90f2bb1c75b7880 -->
<g id="edge10" class="edge">
<title>dir_e2a306cbeddc37280b8dde7d223d74dd&#45;&gt;dir_b098e3604916eca5f90f2bb1c75b7880</title>
<path fill="none" stroke="#000000" d="M266.859,-227.7543C241.05,-220.4852 202.973,-206.0121 180.1554,-180 165.0844,-162.819 157.8287,-137.708 154.3452,-118.3731"/>
<polygon fill="#000000" stroke="#000000" points="157.7751,-117.6521 152.7724,-108.3128 150.8591,-118.7334 157.7751,-117.6521"/>
<g id="a_edge10&#45;headlabel"><a xlink:href="dir_000544_000495.html" target="_top" xlink:title="4">
<text text-anchor="middle" x="161.1355" y="-118.265" font-family="Helvetica,sans-Serif" font-size="10.00" fill="#000000">4</text>
</a>
</g>
</g>
<!-- dir_6229e1f1a243f5ed3f0013dfa4f13deb&#45;&gt;dir_1155c84989a046e7de4bf0156dc4b34c -->
<g id="edge1" class="edge">
<title>dir_6229e1f1a243f5ed3f0013dfa4f13deb&#45;&gt;dir_1155c84989a046e7de4bf0156dc4b34c</title>
<path fill="none" stroke="#000000" d="M82.8187,-143.8314C78.7311,-135.8771 73.845,-126.369 69.3245,-117.5723"/>
<polygon fill="#000000" stroke="#000000" points="72.3015,-115.7078 64.6177,-108.4133 66.0755,-118.9074 72.3015,-115.7078"/>
<g id="a_edge1&#45;headlabel"><a xlink:href="dir_000515_000129.html" target="_top" xlink:title="2">
<text text-anchor="middle" x="76.4698" y="-115.1073" font-family="Helvetica,sans-Serif" font-size="10.00" fill="#000000">2</text>
</a>
</g>
</g>
<!-- dir_6229e1f1a243f5ed3f0013dfa4f13deb&#45;&gt;dir_b098e3604916eca5f90f2bb1c75b7880 -->
<g id="edge2" class="edge">
<title>dir_6229e1f1a243f5ed3f0013dfa4f13deb&#45;&gt;dir_b098e3604916eca5f90f2bb1c75b7880</title>
<path fill="none" stroke="#000000" d="M107.0436,-143.8314C113.9083,-135.454 122.1854,-125.3531 129.7065,-116.1749"/>
<polygon fill="#000000" stroke="#000000" points="132.4356,-118.3665 136.0667,-108.4133 127.0213,-113.9297 132.4356,-118.3665"/>
<g id="a_edge2&#45;headlabel"><a xlink:href="dir_000515_000495.html" target="_top" xlink:title="2">
<text text-anchor="middle" x="132.3534" y="-120.4464" font-family="Helvetica,sans-Serif" font-size="10.00" fill="#000000">2</text>
</a>
</g>
</g>
<!-- dir_bcbb2cf9a3d3d83e5515c82071a07177&#45;&gt;dir_2171f7ec022c5423887b07c69b2f5b48 -->
<g id="edge12" class="edge">
<title>dir_bcbb2cf9a3d3d83e5515c82071a07177&#45;&gt;dir_2171f7ec022c5423887b07c69b2f5b48</title>
<path fill="none" stroke="#000000" d="M284.203,-71.8314C283.4525,-64.131 283.2316,-54.9743 283.5403,-46.4166"/>
<polygon fill="#000000" stroke="#000000" points="287.0346,-46.6161 284.1794,-36.4133 280.0488,-46.1697 287.0346,-46.6161"/>
<g id="a_edge12&#45;headlabel"><a xlink:href="dir_000013_000076.html" target="_top" xlink:title="82">
<text text-anchor="middle" x="289.639" y="-47.8844" font-family="Helvetica,sans-Serif" font-size="10.00" fill="#000000">82</text>
</a>
</g>
</g>
<!-- dir_f8de85f281636d081fd2e7e06b0134d2&#45;&gt;dir_2171f7ec022c5423887b07c69b2f5b48 -->
<g id="edge15" class="edge">
<title>dir_f8de85f281636d081fd2e7e06b0134d2&#45;&gt;dir_2171f7ec022c5423887b07c69b2f5b48</title>
<path fill="none" stroke="#000000" d="M431.638,-143.7623C402.911,-118.2272 350.6034,-71.7316 318.2698,-42.9906"/>
<polygon fill="#000000" stroke="#000000" points="320.3056,-40.1173 310.5062,-36.0896 315.655,-45.3492 320.3056,-40.1173"/>
<g id="a_edge15&#45;headlabel"><a xlink:href="dir_000406_000076.html" target="_top" xlink:title="8">
<text text-anchor="middle" x="324.8785" y="-37.8834" font-family="Helvetica,sans-Serif" font-size="10.00" fill="#000000">8</text>
</a>
</g>
</g>
<!-- dir_26637d1bd82229bc9ed97f7e706be743&#45;&gt;dir_bcbb2cf9a3d3d83e5515c82071a07177 -->
<g id="edge13" class="edge">
<title>dir_26637d1bd82229bc9ed97f7e706be743&#45;&gt;dir_bcbb2cf9a3d3d83e5515c82071a07177</title>
<path fill="none" stroke="#000000" d="M234.8287,-143.8314C243.6803,-135.219 254.404,-124.7851 264.0448,-115.4048"/>
<polygon fill="#000000" stroke="#000000" points="266.7615,-117.645 271.488,-108.1628 261.88,-112.6279 266.7615,-117.645"/>
<g id="a_edge13&#45;headlabel"><a xlink:href="dir_000553_000013.html" target="_top" xlink:title="25">
<text text-anchor="middle" x="266.1651" y="-119.6866" font-family="Helvetica,sans-Serif" font-size="10.00" fill="#000000">25</text>
</a>
</g>
</g>
<!-- dir_26637d1bd82229bc9ed97f7e706be743&#45;&gt;dir_2171f7ec022c5423887b07c69b2f5b48 -->
<g id="edge14" class="edge">
<title>dir_26637d1bd82229bc9ed97f7e706be743&#45;&gt;dir_2171f7ec022c5423887b07c69b2f5b48</title>
<path fill="none" stroke="#000000" d="M220.1195,-143.9649C224.7009,-125.2106 233.2996,-95.3804 246.1554,-72 251.5423,-62.2029 258.7771,-52.4392 265.8224,-43.9625"/>
<polygon fill="#000000" stroke="#000000" points="268.5746,-46.1303 272.4526,-36.2706 263.2725,-41.5599 268.5746,-46.1303"/>
<g id="a_edge14&#45;headlabel"><a xlink:href="dir_000553_000076.html" target="_top" xlink:title="15">
<text text-anchor="middle" x="268.3783" y="-48.2067" font-family="Helvetica,sans-Serif" font-size="10.00" fill="#000000">15</text>
</a>
</g>
</g>
<!-- dir_2171f7ec022c5423887b07c69b2f5b48&#45;&gt;dir_bcbb2cf9a3d3d83e5515c82071a07177 -->
<g id="edge16" class="edge">
<title>dir_2171f7ec022c5423887b07c69b2f5b48&#45;&gt;dir_bcbb2cf9a3d3d83e5515c82071a07177</title>
<path fill="none" stroke="#000000" d="M296.1314,-36.4133C296.8625,-44.0593 297.0756,-53.1084 296.7708,-61.5726"/>
<polygon fill="#000000" stroke="#000000" points="293.2602,-61.6264 296.1078,-71.8314 300.2456,-62.078 293.2602,-61.6264"/>
<g id="a_edge16&#45;headlabel"><a xlink:href="dir_000076_000013.html" target="_top" xlink:title="7">
<text text-anchor="middle" x="290.6586" y="-55.3562" font-family="Helvetica,sans-Serif" font-size="10.00" fill="#000000">7</text>
</a>
</g>
</g>
</g>
</svg>
