<?xml version="1.0" encoding="UTF-8" standalone="no"?>
<!DOCTYPE svg PUBLIC "-//W3C//DTD SVG 1.1//EN"
 "http://www.w3.org/Graphics/SVG/1.1/DTD/svg11.dtd">
<!-- Generated by graphviz version 2.40.1 (20161225.0304)
 -->
<!-- Title: /home/travis/build/AliceO2Group/AliceO2/GPU/GPUTracking/TPCClusterFinder Pages: 1 -->
<svg width="244pt" height="439pt"
 viewBox="0.00 0.00 243.55 439.00" xmlns="http://www.w3.org/2000/svg" xmlns:xlink="http://www.w3.org/1999/xlink">
<g id="graph0" class="graph" transform="scale(1 1) rotate(0) translate(4 435)">
<title>/home/travis/build/AliceO2Group/AliceO2/GPU/GPUTracking/TPCClusterFinder</title>
<g id="clust1" class="cluster">
<title>clusterdir_77030b149987c946eb2e85728f65acc0</title>
<g id="a_clust1"><a xlink:href="dir_77030b149987c946eb2e85728f65acc0.html" target="_top" xlink:title="GPUTracking">
<polygon fill="#ddddee" stroke="#000000" points="58,-352 58,-423 174,-423 174,-352 58,-352"/>
<text text-anchor="middle" x="116" y="-411" font-family="Helvetica,sans-Serif" font-size="10.00" fill="#000000">GPUTracking</text>
</a>
</g>
</g>
<!-- dir_2add44c2e86b1ce794c82f89c520272d -->
<g id="node1" class="node">
<title>dir_2add44c2e86b1ce794c82f89c520272d</title>
<g id="a_node1"><a xlink:href="dir_2add44c2e86b1ce794c82f89c520272d.html" target="_top" xlink:title="TPCClusterFinder">
<polygon fill="#eeeeff" stroke="#000000" points="165.5,-396 66.5,-396 66.5,-360 165.5,-360 165.5,-396"/>
<text text-anchor="middle" x="116" y="-375.5" font-family="Helvetica,sans-Serif" font-size="10.00" fill="#000000">TPCClusterFinder</text>
</a>
</g>
</g>
<!-- dir_ba48ca66118492a4424f86e9da0f6902 -->
<g id="node2" class="node">
<title>dir_ba48ca66118492a4424f86e9da0f6902</title>
<g id="a_node2"><a xlink:href="dir_ba48ca66118492a4424f86e9da0f6902.html" target="_top" xlink:title="Common">
<polygon fill="none" stroke="#000000" points="142.5,-36 81.5,-36 81.5,0 142.5,0 142.5,-36"/>
<text text-anchor="middle" x="112" y="-15.5" font-family="Helvetica,sans-Serif" font-size="10.00" fill="#000000">Common</text>
</a>
</g>
</g>
<!-- dir_2add44c2e86b1ce794c82f89c520272d&#45;&gt;dir_ba48ca66118492a4424f86e9da0f6902 -->
<g id="edge10" class="edge">
<title>dir_2add44c2e86b1ce794c82f89c520272d&#45;&gt;dir_ba48ca66118492a4424f86e9da0f6902</title>
<path fill="none" stroke="#000000" d="M87.3258,-359.9184C52.9749,-335.7745 0,-289.5374 0,-234 0,-234 0,-234 0,-162 0,-111.3429 43.7201,-67.7739 76.5289,-42.2104"/>
<polygon fill="#000000" stroke="#000000" points="78.7365,-44.9291 84.6017,-36.1058 74.5144,-39.3457 78.7365,-44.9291"/>
<g id="a_edge10&#45;headlabel"><a xlink:href="dir_000695_000668.html" target="_top" xlink:title="9">
<text text-anchor="middle" x="77.5819" y="-46.8618" font-family="Helvetica,sans-Serif" font-size="10.00" fill="#000000">9</text>
</a>
</g>
</g>
<!-- dir_4ab6b4cc6a7edbff49100e9123df213f -->
<g id="node3" class="node">
<title>dir_4ab6b4cc6a7edbff49100e9123df213f</title>
<g id="a_node3"><a xlink:href="dir_4ab6b4cc6a7edbff49100e9123df213f.html" target="_top" xlink:title="Common">
<polygon fill="none" stroke="#ff0000" points="146.5,-324 85.5,-324 85.5,-288 146.5,-288 146.5,-324"/>
<text text-anchor="middle" x="116" y="-303.5" font-family="Helvetica,sans-Serif" font-size="10.00" fill="#000000">Common</text>
</a>
</g>
</g>
<!-- dir_2add44c2e86b1ce794c82f89c520272d&#45;&gt;dir_4ab6b4cc6a7edbff49100e9123df213f -->
<g id="edge11" class="edge">
<title>dir_2add44c2e86b1ce794c82f89c520272d&#45;&gt;dir_4ab6b4cc6a7edbff49100e9123df213f</title>
<path fill="none" stroke="#000000" d="M116,-359.8314C116,-352.131 116,-342.9743 116,-334.4166"/>
<polygon fill="#000000" stroke="#000000" points="119.5001,-334.4132 116,-324.4133 112.5001,-334.4133 119.5001,-334.4132"/>
<g id="a_edge11&#45;headlabel"><a xlink:href="dir_000695_000027.html" target="_top" xlink:title="1">
<text text-anchor="middle" x="122.3393" y="-335.5079" font-family="Helvetica,sans-Serif" font-size="10.00" fill="#000000">1</text>
</a>
</g>
</g>
<!-- dir_051dca18e802f8e9474f2e30d29c04e0 -->
<g id="node4" class="node">
<title>dir_051dca18e802f8e9474f2e30d29c04e0</title>
<g id="a_node4"><a xlink:href="dir_051dca18e802f8e9474f2e30d29c04e0.html" target="_top" xlink:title="Detectors">
<polygon fill="none" stroke="#ff0000" points="161,-180 97,-180 97,-144 161,-144 161,-180"/>
<text text-anchor="middle" x="129" y="-159.5" font-family="Helvetica,sans-Serif" font-size="10.00" fill="#000000">Detectors</text>
</a>
</g>
</g>
<!-- dir_2add44c2e86b1ce794c82f89c520272d&#45;&gt;dir_051dca18e802f8e9474f2e30d29c04e0 -->
<g id="edge12" class="edge">
<title>dir_2add44c2e86b1ce794c82f89c520272d&#45;&gt;dir_051dca18e802f8e9474f2e30d29c04e0</title>
<path fill="none" stroke="#000000" d="M97.8424,-359.7286C89.451,-349.9911 80.3877,-337.2949 76,-324 70.9856,-308.8061 72.8357,-303.684 76,-288 83.2414,-252.1082 101.0057,-213.7119 113.9784,-188.8672"/>
<polygon fill="#000000" stroke="#000000" points="117.0673,-190.513 118.6838,-180.0422 110.8905,-187.2196 117.0673,-190.513"/>
<g id="a_edge12&#45;headlabel"><a xlink:href="dir_000695_000039.html" target="_top" xlink:title="3">
<text text-anchor="middle" x="117.8815" y="-192.5208" font-family="Helvetica,sans-Serif" font-size="10.00" fill="#000000">3</text>
</a>
</g>
</g>
<!-- dir_442920581a03c66cf8c08ae559108050 -->
<g id="node5" class="node">
<title>dir_442920581a03c66cf8c08ae559108050</title>
<g id="a_node5"><a xlink:href="dir_442920581a03c66cf8c08ae559108050.html" target="_top" xlink:title="Base">
<polygon fill="none" stroke="#ff0000" points="194,-108 140,-108 140,-72 194,-72 194,-108"/>
<text text-anchor="middle" x="167" y="-87.5" font-family="Helvetica,sans-Serif" font-size="10.00" fill="#000000">Base</text>
</a>
</g>
</g>
<!-- dir_2add44c2e86b1ce794c82f89c520272d&#45;&gt;dir_442920581a03c66cf8c08ae559108050 -->
<g id="edge13" class="edge">
<title>dir_2add44c2e86b1ce794c82f89c520272d&#45;&gt;dir_442920581a03c66cf8c08ae559108050</title>
<path fill="none" stroke="#000000" d="M142.2877,-359.8901C171.0426,-338.1962 215.1526,-298.8517 231,-252 247.4549,-203.3523 213.9139,-147.9571 189.4679,-116.1749"/>
<polygon fill="#000000" stroke="#000000" points="192.1314,-113.9007 183.1743,-108.2419 186.6475,-118.2513 192.1314,-113.9007"/>
<g id="a_edge13&#45;headlabel"><a xlink:href="dir_000695_000670.html" target="_top" xlink:title="26">
<text text-anchor="middle" x="196.5897" y="-112.4521" font-family="Helvetica,sans-Serif" font-size="10.00" fill="#000000">26</text>
</a>
</g>
</g>
<!-- dir_2171f7ec022c5423887b07c69b2f5b48 -->
<g id="node6" class="node">
<title>dir_2171f7ec022c5423887b07c69b2f5b48</title>
<g id="a_node6"><a xlink:href="dir_2171f7ec022c5423887b07c69b2f5b48.html" target="_top" xlink:title="DataFormats">
<polygon fill="none" stroke="#ff0000" points="222,-252 142,-252 142,-216 222,-216 222,-252"/>
<text text-anchor="middle" x="182" y="-231.5" font-family="Helvetica,sans-Serif" font-size="10.00" fill="#000000">DataFormats</text>
</a>
</g>
</g>
<!-- dir_2add44c2e86b1ce794c82f89c520272d&#45;&gt;dir_2171f7ec022c5423887b07c69b2f5b48 -->
<g id="edge14" class="edge">
<title>dir_2add44c2e86b1ce794c82f89c520272d&#45;&gt;dir_2171f7ec022c5423887b07c69b2f5b48</title>
<path fill="none" stroke="#000000" d="M131.3518,-359.9912C139.305,-349.9302 148.6535,-336.859 155,-324 164.7168,-304.3123 171.6793,-280.4504 176.0979,-262.2446"/>
<polygon fill="#000000" stroke="#000000" points="179.5653,-262.7846 178.4072,-252.2533 172.7451,-261.2083 179.5653,-262.7846"/>
<g id="a_edge14&#45;headlabel"><a xlink:href="dir_000695_000076.html" target="_top" xlink:title="5">
<text text-anchor="middle" x="181.5223" y="-264.4263" font-family="Helvetica,sans-Serif" font-size="10.00" fill="#000000">5</text>
</a>
</g>
</g>
<!-- dir_4ab6b4cc6a7edbff49100e9123df213f&#45;&gt;dir_ba48ca66118492a4424f86e9da0f6902 -->
<g id="edge1" class="edge">
<title>dir_4ab6b4cc6a7edbff49100e9123df213f&#45;&gt;dir_ba48ca66118492a4424f86e9da0f6902</title>
<path fill="none" stroke="#000000" d="M110.6495,-287.8472C103.7922,-263.5475 92.279,-218.9809 88,-180 82.821,-132.8209 94.6015,-78.2866 103.4255,-46.0508"/>
<polygon fill="#000000" stroke="#000000" points="106.7996,-46.9813 106.1614,-36.4057 100.0653,-45.0711 106.7996,-46.9813"/>
<g id="a_edge1&#45;headlabel"><a xlink:href="dir_000027_000668.html" target="_top" xlink:title="3">
<text text-anchor="middle" x="108.5503" y="-48.7143" font-family="Helvetica,sans-Serif" font-size="10.00" fill="#000000">3</text>
</a>
</g>
</g>
<!-- dir_4ab6b4cc6a7edbff49100e9123df213f&#45;&gt;dir_2171f7ec022c5423887b07c69b2f5b48 -->
<g id="edge2" class="edge">
<title>dir_4ab6b4cc6a7edbff49100e9123df213f&#45;&gt;dir_2171f7ec022c5423887b07c69b2f5b48</title>
<path fill="none" stroke="#000000" d="M126.7022,-287.8314C133.7575,-279.219 143.145,-268.7851 152.2291,-259.4048"/>
<polygon fill="#000000" stroke="#000000" points="154.8506,-261.7317 159.3989,-252.1628 149.8761,-256.8068 154.8506,-261.7317"/>
<g id="a_edge2&#45;headlabel"><a xlink:href="dir_000027_000076.html" target="_top" xlink:title="2">
<text text-anchor="middle" x="154.3393" y="-263.7837" font-family="Helvetica,sans-Serif" font-size="10.00" fill="#000000">2</text>
</a>
</g>
</g>
<!-- dir_051dca18e802f8e9474f2e30d29c04e0&#45;&gt;dir_ba48ca66118492a4424f86e9da0f6902 -->
<g id="edge3" class="edge">
<title>dir_051dca18e802f8e9474f2e30d29c04e0&#45;&gt;dir_ba48ca66118492a4424f86e9da0f6902</title>
<path fill="none" stroke="#000000" d="M126.8469,-143.7623C123.9473,-119.201 118.7584,-75.2474 115.3474,-46.3541"/>
<polygon fill="#000000" stroke="#000000" points="118.7839,-45.6103 114.1356,-36.0896 111.8322,-46.431 118.7839,-45.6103"/>
<g id="a_edge3&#45;headlabel"><a xlink:href="dir_000039_000668.html" target="_top" xlink:title="51">
<text text-anchor="middle" x="122.025" y="-46.3473" font-family="Helvetica,sans-Serif" font-size="10.00" fill="#000000">51</text>
</a>
</g>
</g>
<!-- dir_051dca18e802f8e9474f2e30d29c04e0&#45;&gt;dir_4ab6b4cc6a7edbff49100e9123df213f -->
<g id="edge4" class="edge">
<title>dir_051dca18e802f8e9474f2e30d29c04e0&#45;&gt;dir_4ab6b4cc6a7edbff49100e9123df213f</title>
<path fill="none" stroke="#000000" d="M127.3669,-180.0896C125.1566,-204.5727 121.1894,-248.5174 118.5755,-277.4713"/>
<polygon fill="#000000" stroke="#000000" points="115.0598,-277.4881 117.6465,-287.7623 122.0315,-278.1175 115.0598,-277.4881"/>
<g id="a_edge4&#45;headlabel"><a xlink:href="dir_000039_000027.html" target="_top" xlink:title="261">
<text text-anchor="middle" x="112.5552" y="-271.1528" font-family="Helvetica,sans-Serif" font-size="10.00" fill="#000000">261</text>
</a>
</g>
</g>
<!-- dir_051dca18e802f8e9474f2e30d29c04e0&#45;&gt;dir_442920581a03c66cf8c08ae559108050 -->
<g id="edge5" class="edge">
<title>dir_051dca18e802f8e9474f2e30d29c04e0&#45;&gt;dir_442920581a03c66cf8c08ae559108050</title>
<path fill="none" stroke="#000000" d="M132.6366,-143.8314C136.1324,-135.7079 141.0727,-125.9637 146.1844,-117.0118"/>
<polygon fill="#000000" stroke="#000000" points="149.1955,-118.7958 151.3059,-108.4133 143.1815,-115.2137 149.1955,-118.7958"/>
<g id="a_edge5&#45;headlabel"><a xlink:href="dir_000039_000670.html" target="_top" xlink:title="7">
<text text-anchor="middle" x="149.7954" y="-120.837" font-family="Helvetica,sans-Serif" font-size="10.00" fill="#000000">7</text>
</a>
</g>
</g>
<!-- dir_051dca18e802f8e9474f2e30d29c04e0&#45;&gt;dir_2171f7ec022c5423887b07c69b2f5b48 -->
<g id="edge6" class="edge">
<title>dir_051dca18e802f8e9474f2e30d29c04e0&#45;&gt;dir_2171f7ec022c5423887b07c69b2f5b48</title>
<path fill="none" stroke="#000000" d="M148.5302,-180.4133C155.3136,-188.569 162.6828,-198.3212 168.8618,-207.257"/>
<polygon fill="#000000" stroke="#000000" points="166.1189,-209.4525 174.5783,-215.8314 171.9432,-205.5694 166.1189,-209.4525"/>
<g id="a_edge6&#45;headlabel"><a xlink:href="dir_000039_000076.html" target="_top" xlink:title="973">
<text text-anchor="middle" x="161.7626" y="-205.5366" font-family="Helvetica,sans-Serif" font-size="10.00" fill="#000000">973</text>
</a>
</g>
</g>
<!-- dir_442920581a03c66cf8c08ae559108050&#45;&gt;dir_ba48ca66118492a4424f86e9da0f6902 -->
<g id="edge7" class="edge">
<title>dir_442920581a03c66cf8c08ae559108050&#45;&gt;dir_ba48ca66118492a4424f86e9da0f6902</title>
<path fill="none" stroke="#000000" d="M153.1212,-71.8314C146.7864,-63.5386 139.1616,-53.557 132.2074,-44.4533"/>
<polygon fill="#000000" stroke="#000000" points="134.9175,-42.2353 126.0657,-36.4133 129.3548,-46.4847 134.9175,-42.2353"/>
<g id="a_edge7&#45;headlabel"><a xlink:href="dir_000670_000668.html" target="_top" xlink:title="31">
<text text-anchor="middle" x="139.3558" y="-40.8683" font-family="Helvetica,sans-Serif" font-size="10.00" fill="#000000">31</text>
</a>
</g>
</g>
<!-- dir_442920581a03c66cf8c08ae559108050&#45;&gt;dir_051dca18e802f8e9474f2e30d29c04e0 -->
<g id="edge8" class="edge">
<title>dir_442920581a03c66cf8c08ae559108050&#45;&gt;dir_051dca18e802f8e9474f2e30d29c04e0</title>
<path fill="none" stroke="#000000" d="M163.2579,-108.4133C159.77,-116.484 154.88,-126.1182 149.8218,-134.9775"/>
<polygon fill="#000000" stroke="#000000" points="146.6576,-133.45 144.5414,-143.8314 152.6696,-137.0355 146.6576,-133.45"/>
<g id="a_edge8&#45;headlabel"><a xlink:href="dir_000670_000039.html" target="_top" xlink:title="1">
<text text-anchor="middle" x="146.0602" y="-126.4085" font-family="Helvetica,sans-Serif" font-size="10.00" fill="#000000">1</text>
</a>
</g>
</g>
<!-- dir_442920581a03c66cf8c08ae559108050&#45;&gt;dir_2171f7ec022c5423887b07c69b2f5b48 -->
<g id="edge9" class="edge">
<title>dir_442920581a03c66cf8c08ae559108050&#45;&gt;dir_2171f7ec022c5423887b07c69b2f5b48</title>
<path fill="none" stroke="#000000" d="M168.8843,-108.0896C171.4347,-132.5727 176.0122,-176.5174 179.0283,-205.4713"/>
<polygon fill="#000000" stroke="#000000" points="175.5829,-206.1788 180.1002,-215.7623 182.5453,-205.4535 175.5829,-206.1788"/>
<g id="a_edge9&#45;headlabel"><a xlink:href="dir_000670_000076.html" target="_top" xlink:title="4">
<text text-anchor="middle" x="172.3866" y="-200.3976" font-family="Helvetica,sans-Serif" font-size="10.00" fill="#000000">4</text>
</a>
</g>
</g>
<!-- dir_2171f7ec022c5423887b07c69b2f5b48&#45;&gt;dir_ba48ca66118492a4424f86e9da0f6902 -->
<g id="edge15" class="edge">
<title>dir_2171f7ec022c5423887b07c69b2f5b48&#45;&gt;dir_ba48ca66118492a4424f86e9da0f6902</title>
<path fill="none" stroke="#000000" d="M191.2422,-215.589C205.6901,-183.982 229.3821,-118.3328 203,-72 192.0354,-52.7438 171.2007,-39.6453 152.2312,-31.1769"/>
<polygon fill="#000000" stroke="#000000" points="153.4105,-27.8768 142.8328,-27.2737 150.7257,-34.3415 153.4105,-27.8768"/>
<g id="a_edge15&#45;headlabel"><a xlink:href="dir_000076_000668.html" target="_top" xlink:title="15">
<text text-anchor="middle" x="157.8192" y="-24.1333" font-family="Helvetica,sans-Serif" font-size="10.00" fill="#000000">15</text>
</a>
</g>
</g>
<!-- dir_2171f7ec022c5423887b07c69b2f5b48&#45;&gt;dir_4ab6b4cc6a7edbff49100e9123df213f -->
<g id="edge16" class="edge">
<title>dir_2171f7ec022c5423887b07c69b2f5b48&#45;&gt;dir_4ab6b4cc6a7edbff49100e9123df213f</title>
<path fill="none" stroke="#000000" d="M171.0972,-252.4133C164.0522,-260.9938 154.7351,-271.3414 145.7214,-280.6463"/>
<polygon fill="#000000" stroke="#000000" points="143.156,-278.2628 138.607,-287.8314 148.1301,-283.188 143.156,-278.2628"/>
<g id="a_edge16&#45;headlabel"><a xlink:href="dir_000076_000027.html" target="_top" xlink:title="34">
<text text-anchor="middle" x="143.6676" y="-271.2108" font-family="Helvetica,sans-Serif" font-size="10.00" fill="#000000">34</text>
</a>
</g>
</g>
<!-- dir_2171f7ec022c5423887b07c69b2f5b48&#45;&gt;dir_051dca18e802f8e9474f2e30d29c04e0 -->
<g id="edge17" class="edge">
<title>dir_2171f7ec022c5423887b07c69b2f5b48&#45;&gt;dir_051dca18e802f8e9474f2e30d29c04e0</title>
<path fill="none" stroke="#000000" d="M162.6735,-215.8314C155.8315,-207.6232 148.3732,-197.7606 142.1308,-188.7323"/>
<polygon fill="#000000" stroke="#000000" points="145.0409,-186.7877 136.5782,-180.4133 139.2187,-190.6738 145.0409,-186.7877"/>
<g id="a_edge17&#45;headlabel"><a xlink:href="dir_000076_000039.html" target="_top" xlink:title="14">
<text text-anchor="middle" x="149.398" y="-185.7013" font-family="Helvetica,sans-Serif" font-size="10.00" fill="#000000">14</text>
</a>
</g>
</g>
</g>
</svg>
