<?xml version="1.0" encoding="UTF-8" standalone="no"?>
<!DOCTYPE svg PUBLIC "-//W3C//DTD SVG 1.1//EN"
 "http://www.w3.org/Graphics/SVG/1.1/DTD/svg11.dtd">
<!-- Generated by graphviz version 2.40.1 (20161225.0304)
 -->
<!-- Title: /home/travis/build/AliceO2Group/AliceO2/Detectors/EMCAL/workflow Pages: 1 -->
<svg width="337pt" height="591pt"
 viewBox="0.00 0.00 336.92 591.00" xmlns="http://www.w3.org/2000/svg" xmlns:xlink="http://www.w3.org/1999/xlink">
<g id="graph0" class="graph" transform="scale(1 1) rotate(0) translate(4 587)">
<title>/home/travis/build/AliceO2Group/AliceO2/Detectors/EMCAL/workflow</title>
<g id="clust1" class="cluster">
<title>clusterdir_088378b58cb1ba39db48039cbd66d10f</title>
<g id="a_clust1"><a xlink:href="dir_088378b58cb1ba39db48039cbd66d10f.html" target="_top" xlink:title="EMCAL">
<polygon fill="#ddddee" stroke="#000000" points="78.9242,-416 78.9242,-575 244.9242,-575 244.9242,-416 78.9242,-416"/>
<text text-anchor="middle" x="161.9242" y="-563" font-family="Helvetica,sans-Serif" font-size="10.00" fill="#000000">EMCAL</text>
</a>
</g>
</g>
<g id="clust2" class="cluster">
<title>clusterdir_ee205545fda14b0cface4520402ad101</title>
<g id="a_clust2"><a xlink:href="dir_ee205545fda14b0cface4520402ad101.html" target="_top">
<polygon fill="#eeeeff" stroke="#000000" points="86.9242,-424 86.9242,-548 236.9242,-548 236.9242,-424 86.9242,-424"/>
</a>
</g>
</g>
<!-- dir_ee205545fda14b0cface4520402ad101 -->
<g id="node1" class="node">
<title>dir_ee205545fda14b0cface4520402ad101</title>
<text text-anchor="middle" x="197.9242" y="-519.5" font-family="Helvetica,sans-Serif" font-size="10.00" fill="#000000">workflow</text>
</g>
<!-- dir_6dc85dba809f06ca1f8457b707bb34c8 -->
<g id="node2" class="node">
<title>dir_6dc85dba809f06ca1f8457b707bb34c8</title>
<g id="a_node2"><a xlink:href="dir_6dc85dba809f06ca1f8457b707bb34c8.html" target="_top" xlink:title="include">
<polygon fill="#ffffff" stroke="#ff0000" points="148.9242,-468 94.9242,-468 94.9242,-432 148.9242,-432 148.9242,-468"/>
<text text-anchor="middle" x="121.9242" y="-447.5" font-family="Helvetica,sans-Serif" font-size="10.00" fill="#000000">include</text>
</a>
</g>
</g>
<!-- dir_43247e9473992ee8ffdfc874c5267163 -->
<g id="node4" class="node">
<title>dir_43247e9473992ee8ffdfc874c5267163</title>
<g id="a_node4"><a xlink:href="dir_43247e9473992ee8ffdfc874c5267163.html" target="_top" xlink:title="reconstruction">
<polygon fill="none" stroke="#ff0000" points="110.9242,-396 24.9242,-396 24.9242,-360 110.9242,-360 110.9242,-396"/>
<text text-anchor="middle" x="67.9242" y="-375.5" font-family="Helvetica,sans-Serif" font-size="10.00" fill="#000000">reconstruction</text>
</a>
</g>
</g>
<!-- dir_6dc85dba809f06ca1f8457b707bb34c8&#45;&gt;dir_43247e9473992ee8ffdfc874c5267163 -->
<g id="edge15" class="edge">
<title>dir_6dc85dba809f06ca1f8457b707bb34c8&#45;&gt;dir_43247e9473992ee8ffdfc874c5267163</title>
<path fill="none" stroke="#000000" d="M108.2977,-431.8314C102.0782,-423.5386 94.592,-413.557 87.7642,-404.4533"/>
<polygon fill="#000000" stroke="#000000" points="90.5342,-402.3133 81.7342,-396.4133 84.9342,-406.5133 90.5342,-402.3133"/>
<g id="a_edge15&#45;headlabel"><a xlink:href="dir_000374_000241.html" target="_top" xlink:title="2">
<text text-anchor="middle" x="94.9623" y="-400.9854" font-family="Helvetica,sans-Serif" font-size="10.00" fill="#000000">2</text>
</a>
</g>
</g>
<!-- dir_478733f24fb8878a4cdf7773310adedd -->
<g id="node7" class="node">
<title>dir_478733f24fb8878a4cdf7773310adedd</title>
<g id="a_node7"><a xlink:href="dir_478733f24fb8878a4cdf7773310adedd.html" target="_top" xlink:title="base">
<polygon fill="none" stroke="#ff0000" points="157.9242,-324 103.9242,-324 103.9242,-288 157.9242,-288 157.9242,-324"/>
<text text-anchor="middle" x="130.9242" y="-303.5" font-family="Helvetica,sans-Serif" font-size="10.00" fill="#000000">base</text>
</a>
</g>
</g>
<!-- dir_6dc85dba809f06ca1f8457b707bb34c8&#45;&gt;dir_478733f24fb8878a4cdf7773310adedd -->
<g id="edge16" class="edge">
<title>dir_6dc85dba809f06ca1f8457b707bb34c8&#45;&gt;dir_478733f24fb8878a4cdf7773310adedd</title>
<path fill="none" stroke="#000000" d="M123.0641,-431.7623C124.5991,-407.201 127.3462,-363.2474 129.1521,-334.3541"/>
<polygon fill="#000000" stroke="#000000" points="132.6629,-334.2885 129.7936,-324.0896 125.6765,-333.8518 132.6629,-334.2885"/>
<g id="a_edge16&#45;headlabel"><a xlink:href="dir_000374_000199.html" target="_top" xlink:title="3">
<text text-anchor="middle" x="135.2725" y="-335.5532" font-family="Helvetica,sans-Serif" font-size="10.00" fill="#000000">3</text>
</a>
</g>
</g>
<!-- dir_bcbb2cf9a3d3d83e5515c82071a07177 -->
<g id="node8" class="node">
<title>dir_bcbb2cf9a3d3d83e5515c82071a07177</title>
<g id="a_node8"><a xlink:href="dir_bcbb2cf9a3d3d83e5515c82071a07177.html" target="_top" xlink:title="Framework">
<polygon fill="none" stroke="#ff0000" points="172.4242,-108 101.4242,-108 101.4242,-72 172.4242,-72 172.4242,-108"/>
<text text-anchor="middle" x="136.9242" y="-87.5" font-family="Helvetica,sans-Serif" font-size="10.00" fill="#000000">Framework</text>
</a>
</g>
</g>
<!-- dir_6dc85dba809f06ca1f8457b707bb34c8&#45;&gt;dir_bcbb2cf9a3d3d83e5515c82071a07177 -->
<g id="edge17" class="edge">
<title>dir_6dc85dba809f06ca1f8457b707bb34c8&#45;&gt;dir_bcbb2cf9a3d3d83e5515c82071a07177</title>
<path fill="none" stroke="#000000" d="M143.494,-431.9468C170.9672,-406.7991 214.9242,-358.3785 214.9242,-306 214.9242,-306 214.9242,-306 214.9242,-234 214.9242,-193.1184 216.1962,-179.5015 195.9242,-144 189.6842,-133.0722 180.4684,-123.1142 171.1656,-114.8088"/>
<polygon fill="#000000" stroke="#000000" points="173.2898,-112.0213 163.3943,-108.2359 168.7693,-117.366 173.2898,-112.0213"/>
<g id="a_edge17&#45;headlabel"><a xlink:href="dir_000374_000013.html" target="_top" xlink:title="14">
<text text-anchor="middle" x="177.8679" y="-109.6748" font-family="Helvetica,sans-Serif" font-size="10.00" fill="#000000">14</text>
</a>
</g>
</g>
<!-- dir_2171f7ec022c5423887b07c69b2f5b48 -->
<g id="node9" class="node">
<title>dir_2171f7ec022c5423887b07c69b2f5b48</title>
<g id="a_node9"><a xlink:href="dir_2171f7ec022c5423887b07c69b2f5b48.html" target="_top" xlink:title="DataFormats">
<polygon fill="none" stroke="#ff0000" points="125.9242,-252 45.9242,-252 45.9242,-216 125.9242,-216 125.9242,-252"/>
<text text-anchor="middle" x="85.9242" y="-231.5" font-family="Helvetica,sans-Serif" font-size="10.00" fill="#000000">DataFormats</text>
</a>
</g>
</g>
<!-- dir_6dc85dba809f06ca1f8457b707bb34c8&#45;&gt;dir_2171f7ec022c5423887b07c69b2f5b48 -->
<g id="edge18" class="edge">
<title>dir_6dc85dba809f06ca1f8457b707bb34c8&#45;&gt;dir_2171f7ec022c5423887b07c69b2f5b48</title>
<path fill="none" stroke="#000000" d="M94.7122,-444.5503C69.3566,-437.8715 32.9754,-423.8227 15.9242,-396 -11.7915,-350.7758 29.9909,-292.6319 59.9496,-259.7242"/>
<polygon fill="#000000" stroke="#000000" points="62.6058,-262.0082 66.885,-252.316 57.4956,-257.2242 62.6058,-262.0082"/>
<g id="a_edge18&#45;headlabel"><a xlink:href="dir_000374_000076.html" target="_top" xlink:title="9">
<text text-anchor="middle" x="62.2219" y="-264.0728" font-family="Helvetica,sans-Serif" font-size="10.00" fill="#000000">9</text>
</a>
</g>
</g>
<!-- dir_fe570b66ee9607113976552ce149f8ae -->
<g id="node3" class="node">
<title>dir_fe570b66ee9607113976552ce149f8ae</title>
<g id="a_node3"><a xlink:href="dir_fe570b66ee9607113976552ce149f8ae.html" target="_top" xlink:title="src">
<polygon fill="#ffffff" stroke="#000000" points="148.9242,-540 94.9242,-540 94.9242,-504 148.9242,-504 148.9242,-540"/>
<text text-anchor="middle" x="121.9242" y="-519.5" font-family="Helvetica,sans-Serif" font-size="10.00" fill="#000000">src</text>
</a>
</g>
</g>
<!-- dir_fe570b66ee9607113976552ce149f8ae&#45;&gt;dir_6dc85dba809f06ca1f8457b707bb34c8 -->
<g id="edge7" class="edge">
<title>dir_fe570b66ee9607113976552ce149f8ae&#45;&gt;dir_6dc85dba809f06ca1f8457b707bb34c8</title>
<path fill="none" stroke="#000000" d="M121.9242,-503.8314C121.9242,-496.131 121.9242,-486.9743 121.9242,-478.4166"/>
<polygon fill="#000000" stroke="#000000" points="125.4243,-478.4132 121.9242,-468.4133 118.4243,-478.4133 125.4243,-478.4132"/>
<g id="a_edge7&#45;headlabel"><a xlink:href="dir_000398_000374.html" target="_top" xlink:title="12">
<text text-anchor="middle" x="128.2635" y="-479.5079" font-family="Helvetica,sans-Serif" font-size="10.00" fill="#000000">12</text>
</a>
</g>
</g>
<!-- dir_37c90836491b695b472bf98d1be8336b -->
<g id="node5" class="node">
<title>dir_37c90836491b695b472bf98d1be8336b</title>
<g id="a_node5"><a xlink:href="dir_37c90836491b695b472bf98d1be8336b.html" target="_top" xlink:title="Base">
<polygon fill="none" stroke="#ff0000" points="186.9242,-180 132.9242,-180 132.9242,-144 186.9242,-144 186.9242,-180"/>
<text text-anchor="middle" x="159.9242" y="-159.5" font-family="Helvetica,sans-Serif" font-size="10.00" fill="#000000">Base</text>
</a>
</g>
</g>
<!-- dir_fe570b66ee9607113976552ce149f8ae&#45;&gt;dir_37c90836491b695b472bf98d1be8336b -->
<g id="edge3" class="edge">
<title>dir_fe570b66ee9607113976552ce149f8ae&#45;&gt;dir_37c90836491b695b472bf98d1be8336b</title>
<path fill="none" stroke="#000000" d="M149.0675,-507.9146C187.4382,-485.8281 252.9242,-439.1728 252.9242,-378 252.9242,-378 252.9242,-378 252.9242,-306 252.9242,-258.1228 216.1977,-213.5525 188.9038,-187.04"/>
<polygon fill="#000000" stroke="#000000" points="191.1709,-184.3671 181.494,-180.0532 186.3686,-189.4601 191.1709,-184.3671"/>
<g id="a_edge3&#45;headlabel"><a xlink:href="dir_000398_000273.html" target="_top" xlink:title="1">
<text text-anchor="middle" x="195.734" y="-182.2673" font-family="Helvetica,sans-Serif" font-size="10.00" fill="#000000">1</text>
</a>
</g>
</g>
<!-- dir_8ba487e25de5ee77e05e9dce7582cb98 -->
<g id="node6" class="node">
<title>dir_8ba487e25de5ee77e05e9dce7582cb98</title>
<g id="a_node6"><a xlink:href="dir_8ba487e25de5ee77e05e9dce7582cb98.html" target="_top" xlink:title="Algorithm">
<polygon fill="none" stroke="#ff0000" points="132.4242,-36 67.4242,-36 67.4242,0 132.4242,0 132.4242,-36"/>
<text text-anchor="middle" x="99.9242" y="-15.5" font-family="Helvetica,sans-Serif" font-size="10.00" fill="#000000">Algorithm</text>
</a>
</g>
</g>
<!-- dir_fe570b66ee9607113976552ce149f8ae&#45;&gt;dir_8ba487e25de5ee77e05e9dce7582cb98 -->
<g id="edge4" class="edge">
<title>dir_fe570b66ee9607113976552ce149f8ae&#45;&gt;dir_8ba487e25de5ee77e05e9dce7582cb98</title>
<path fill="none" stroke="#000000" d="M149.2275,-507.765C152.1337,-506.4256 155.0702,-505.1435 157.9242,-504 208.4273,-483.7655 232.0924,-501.5476 274.9242,-468 311.6482,-439.2363 328.9242,-424.6476 328.9242,-378 328.9242,-378 328.9242,-378 328.9242,-162 328.9242,-75.0708 209.2068,-38.5669 142.8923,-25.0147"/>
<polygon fill="#000000" stroke="#000000" points="143.2196,-21.5127 132.7343,-23.0326 141.8788,-28.3831 143.2196,-21.5127"/>
<g id="a_edge4&#45;headlabel"><a xlink:href="dir_000398_000000.html" target="_top" xlink:title="2">
<text text-anchor="middle" x="147.2914" y="-16.9143" font-family="Helvetica,sans-Serif" font-size="10.00" fill="#000000">2</text>
</a>
</g>
</g>
<!-- dir_fe570b66ee9607113976552ce149f8ae&#45;&gt;dir_478733f24fb8878a4cdf7773310adedd -->
<g id="edge5" class="edge">
<title>dir_fe570b66ee9607113976552ce149f8ae&#45;&gt;dir_478733f24fb8878a4cdf7773310adedd</title>
<path fill="none" stroke="#000000" d="M137.9147,-503.9169C145.578,-494.0371 153.9408,-481.1563 157.9242,-468 171.8519,-422.0001 155.7323,-366.3417 143.0962,-333.6874"/>
<polygon fill="#000000" stroke="#000000" points="146.3084,-332.2943 139.3236,-324.328 139.816,-334.9113 146.3084,-332.2943"/>
<g id="a_edge5&#45;headlabel"><a xlink:href="dir_000398_000199.html" target="_top" xlink:title="1">
<text text-anchor="middle" x="150.2856" y="-332.0668" font-family="Helvetica,sans-Serif" font-size="10.00" fill="#000000">1</text>
</a>
</g>
</g>
<!-- dir_fe570b66ee9607113976552ce149f8ae&#45;&gt;dir_bcbb2cf9a3d3d83e5515c82071a07177 -->
<g id="edge6" class="edge">
<title>dir_fe570b66ee9607113976552ce149f8ae&#45;&gt;dir_bcbb2cf9a3d3d83e5515c82071a07177</title>
<path fill="none" stroke="#000000" d="M148.9866,-508.3041C151.9927,-506.8318 155.0173,-505.3718 157.9242,-504 193.5516,-487.1866 209.6348,-494.3464 238.9242,-468 273.27,-437.1052 290.9242,-424.1966 290.9242,-378 290.9242,-378 290.9242,-378 290.9242,-234 290.9242,-173.73 227.2157,-131.4184 181.7519,-108.8971"/>
<polygon fill="#000000" stroke="#000000" points="183.1718,-105.6964 172.642,-104.5247 180.1429,-112.0071 183.1718,-105.6964"/>
<g id="a_edge6&#45;headlabel"><a xlink:href="dir_000398_000013.html" target="_top" xlink:title="12">
<text text-anchor="middle" x="187.641" y="-102.192" font-family="Helvetica,sans-Serif" font-size="10.00" fill="#000000">12</text>
</a>
</g>
</g>
<!-- dir_fe570b66ee9607113976552ce149f8ae&#45;&gt;dir_2171f7ec022c5423887b07c69b2f5b48 -->
<g id="edge8" class="edge">
<title>dir_fe570b66ee9607113976552ce149f8ae&#45;&gt;dir_2171f7ec022c5423887b07c69b2f5b48</title>
<path fill="none" stroke="#000000" d="M95.5074,-503.8327C66.4729,-482.0861 21.4885,-442.6934 2.9242,-396 -6.0944,-373.3163 10.2484,-292.5052 12.9242,-288 19.9807,-276.1192 30.7635,-266.0435 41.8935,-257.9296"/>
<polygon fill="#000000" stroke="#000000" points="44.1317,-260.6394 50.4164,-252.1099 40.1843,-254.8586 44.1317,-260.6394"/>
<g id="a_edge8&#45;headlabel"><a xlink:href="dir_000398_000076.html" target="_top" xlink:title="24">
<text text-anchor="middle" x="42.7643" y="-262.5112" font-family="Helvetica,sans-Serif" font-size="10.00" fill="#000000">24</text>
</a>
</g>
</g>
<!-- dir_43247e9473992ee8ffdfc874c5267163&#45;&gt;dir_478733f24fb8878a4cdf7773310adedd -->
<g id="edge1" class="edge">
<title>dir_43247e9473992ee8ffdfc874c5267163&#45;&gt;dir_478733f24fb8878a4cdf7773310adedd</title>
<path fill="none" stroke="#000000" d="M83.8218,-359.8314C91.152,-351.454 99.9902,-341.3531 108.0211,-332.1749"/>
<polygon fill="#000000" stroke="#000000" points="110.8615,-334.2438 114.8126,-324.4133 105.5935,-329.6343 110.8615,-334.2438"/>
<g id="a_edge1&#45;headlabel"><a xlink:href="dir_000241_000199.html" target="_top" xlink:title="5">
<text text-anchor="middle" x="110.6313" y="-336.3187" font-family="Helvetica,sans-Serif" font-size="10.00" fill="#000000">5</text>
</a>
</g>
</g>
<!-- dir_43247e9473992ee8ffdfc874c5267163&#45;&gt;dir_2171f7ec022c5423887b07c69b2f5b48 -->
<g id="edge2" class="edge">
<title>dir_43247e9473992ee8ffdfc874c5267163&#45;&gt;dir_2171f7ec022c5423887b07c69b2f5b48</title>
<path fill="none" stroke="#000000" d="M70.2039,-359.7623C73.2741,-335.201 78.7683,-291.2474 82.3799,-262.3541"/>
<polygon fill="#000000" stroke="#000000" points="85.8955,-262.4465 83.663,-252.0896 78.9496,-261.5782 85.8955,-262.4465"/>
<g id="a_edge2&#45;headlabel"><a xlink:href="dir_000241_000076.html" target="_top" xlink:title="22">
<text text-anchor="middle" x="88.2671" y="-263.8655" font-family="Helvetica,sans-Serif" font-size="10.00" fill="#000000">22</text>
</a>
</g>
</g>
<!-- dir_37c90836491b695b472bf98d1be8336b&#45;&gt;dir_bcbb2cf9a3d3d83e5515c82071a07177 -->
<g id="edge9" class="edge">
<title>dir_37c90836491b695b472bf98d1be8336b&#45;&gt;dir_bcbb2cf9a3d3d83e5515c82071a07177</title>
<path fill="none" stroke="#000000" d="M154.1203,-143.8314C151.6335,-136.0463 148.6711,-126.7729 145.9117,-118.1347"/>
<polygon fill="#000000" stroke="#000000" points="149.1833,-116.874 142.8062,-108.4133 142.5152,-119.0041 149.1833,-116.874"/>
<g id="a_edge9&#45;headlabel"><a xlink:href="dir_000273_000013.html" target="_top" xlink:title="1">
<text text-anchor="middle" x="152.9817" y="-116.9342" font-family="Helvetica,sans-Serif" font-size="10.00" fill="#000000">1</text>
</a>
</g>
</g>
<!-- dir_37c90836491b695b472bf98d1be8336b&#45;&gt;dir_2171f7ec022c5423887b07c69b2f5b48 -->
<g id="edge10" class="edge">
<title>dir_37c90836491b695b472bf98d1be8336b&#45;&gt;dir_2171f7ec022c5423887b07c69b2f5b48</title>
<path fill="none" stroke="#000000" d="M146.9755,-180.4133C138.8979,-189.0787 128.3027,-199.5464 118.1644,-208.9223"/>
<polygon fill="#000000" stroke="#000000" points="115.6039,-206.5196 110.5499,-215.8314 120.3076,-211.7037 115.6039,-206.5196"/>
<g id="a_edge10&#45;headlabel"><a xlink:href="dir_000273_000076.html" target="_top" xlink:title="10">
<text text-anchor="middle" x="116.358" y="-199.5015" font-family="Helvetica,sans-Serif" font-size="10.00" fill="#000000">10</text>
</a>
</g>
</g>
<!-- dir_8ba487e25de5ee77e05e9dce7582cb98&#45;&gt;dir_2171f7ec022c5423887b07c69b2f5b48 -->
<g id="edge11" class="edge">
<title>dir_8ba487e25de5ee77e05e9dce7582cb98&#45;&gt;dir_2171f7ec022c5423887b07c69b2f5b48</title>
<path fill="none" stroke="#000000" d="M104.6065,-36.4337C103.977,-46.8419 102.0219,-60.1091 100.9242,-72 96.6011,-118.8326 95.3653,-173.5531 92.525,-205.9077"/>
<polygon fill="#000000" stroke="#000000" points="89.0307,-205.6743 91.4935,-215.979 95.9942,-206.3876 89.0307,-205.6743"/>
<g id="a_edge11&#45;headlabel"><a xlink:href="dir_000000_000076.html" target="_top" xlink:title="8">
<text text-anchor="middle" x="86.5723" y="-199.3092" font-family="Helvetica,sans-Serif" font-size="10.00" fill="#000000">8</text>
</a>
</g>
</g>
<!-- dir_478733f24fb8878a4cdf7773310adedd&#45;&gt;dir_2171f7ec022c5423887b07c69b2f5b48 -->
<g id="edge12" class="edge">
<title>dir_478733f24fb8878a4cdf7773310adedd&#45;&gt;dir_2171f7ec022c5423887b07c69b2f5b48</title>
<path fill="none" stroke="#000000" d="M119.5688,-287.8314C114.4916,-279.7079 108.4015,-269.9637 102.8066,-261.0118"/>
<polygon fill="#000000" stroke="#000000" points="105.7005,-259.0383 97.4325,-252.4133 99.7645,-262.7483 105.7005,-259.0383"/>
<g id="a_edge12&#45;headlabel"><a xlink:href="dir_000199_000076.html" target="_top" xlink:title="13">
<text text-anchor="middle" x="110.0133" y="-258.0817" font-family="Helvetica,sans-Serif" font-size="10.00" fill="#000000">13</text>
</a>
</g>
</g>
<!-- dir_bcbb2cf9a3d3d83e5515c82071a07177&#45;&gt;dir_8ba487e25de5ee77e05e9dce7582cb98 -->
<g id="edge13" class="edge">
<title>dir_bcbb2cf9a3d3d83e5515c82071a07177&#45;&gt;dir_8ba487e25de5ee77e05e9dce7582cb98</title>
<path fill="none" stroke="#000000" d="M127.5875,-71.8314C123.4999,-63.8771 118.6138,-54.369 114.0933,-45.5723"/>
<polygon fill="#000000" stroke="#000000" points="117.0703,-43.7078 109.3866,-36.4133 110.8443,-46.9074 117.0703,-43.7078"/>
<g id="a_edge13&#45;headlabel"><a xlink:href="dir_000013_000000.html" target="_top" xlink:title="1">
<text text-anchor="middle" x="121.2386" y="-43.1073" font-family="Helvetica,sans-Serif" font-size="10.00" fill="#000000">1</text>
</a>
</g>
</g>
<!-- dir_bcbb2cf9a3d3d83e5515c82071a07177&#45;&gt;dir_2171f7ec022c5423887b07c69b2f5b48 -->
<g id="edge14" class="edge">
<title>dir_bcbb2cf9a3d3d83e5515c82071a07177&#45;&gt;dir_2171f7ec022c5423887b07c69b2f5b48</title>
<path fill="none" stroke="#000000" d="M135.1758,-108.0896C128.9186,-132.7884 113.4231,-177.2933 101.2165,-206.2331"/>
<polygon fill="#000000" stroke="#000000" points="97.8498,-205.1972 97.0566,-215.7623 104.2651,-207.9978 97.8498,-205.1972"/>
<g id="a_edge14&#45;headlabel"><a xlink:href="dir_000013_000076.html" target="_top" xlink:title="82">
<text text-anchor="middle" x="96.6857" y="-198.2669" font-family="Helvetica,sans-Serif" font-size="10.00" fill="#000000">82</text>
</a>
</g>
</g>
<!-- dir_2171f7ec022c5423887b07c69b2f5b48&#45;&gt;dir_37c90836491b695b472bf98d1be8336b -->
<g id="edge19" class="edge">
<title>dir_2171f7ec022c5423887b07c69b2f5b48&#45;&gt;dir_37c90836491b695b472bf98d1be8336b</title>
<path fill="none" stroke="#000000" d="M98.6451,-215.8314C106.7367,-207.1337 117.4133,-196.5783 127.6312,-187.1265"/>
<polygon fill="#000000" stroke="#000000" points="130.2516,-189.4749 135.305,-180.1628 125.5475,-184.2911 130.2516,-189.4749"/>
<g id="a_edge19&#45;headlabel"><a xlink:href="dir_000076_000273.html" target="_top" xlink:title="1">
<text text-anchor="middle" x="129.4977" y="-191.493" font-family="Helvetica,sans-Serif" font-size="10.00" fill="#000000">1</text>
</a>
</g>
</g>
<!-- dir_2171f7ec022c5423887b07c69b2f5b48&#45;&gt;dir_8ba487e25de5ee77e05e9dce7582cb98 -->
<g id="edge20" class="edge">
<title>dir_2171f7ec022c5423887b07c69b2f5b48&#45;&gt;dir_8ba487e25de5ee77e05e9dce7582cb98</title>
<path fill="none" stroke="#000000" d="M80.3973,-215.979C77.1254,-186.0255 78.1124,-124.1267 82.9242,-72 83.696,-63.6392 84.8917,-54.598 86.4985,-46.3486"/>
<polygon fill="#000000" stroke="#000000" points="89.9486,-46.9609 88.7527,-36.4337 83.1228,-45.4089 89.9486,-46.9609"/>
<g id="a_edge20&#45;headlabel"><a xlink:href="dir_000076_000000.html" target="_top" xlink:title="2">
<text text-anchor="middle" x="91.9204" y="-48.5955" font-family="Helvetica,sans-Serif" font-size="10.00" fill="#000000">2</text>
</a>
</g>
</g>
<!-- dir_2171f7ec022c5423887b07c69b2f5b48&#45;&gt;dir_bcbb2cf9a3d3d83e5515c82071a07177 -->
<g id="edge21" class="edge">
<title>dir_2171f7ec022c5423887b07c69b2f5b48&#45;&gt;dir_bcbb2cf9a3d3d83e5515c82071a07177</title>
<path fill="none" stroke="#000000" d="M87.7102,-215.7623C94.0042,-190.9846 109.5115,-146.4714 121.705,-117.5939"/>
<polygon fill="#000000" stroke="#000000" points="125.0611,-118.6544 125.8592,-108.0896 118.647,-115.8508 125.0611,-118.6544"/>
<g id="a_edge21&#45;headlabel"><a xlink:href="dir_000076_000013.html" target="_top" xlink:title="7">
<text text-anchor="middle" x="126.2231" y="-120.5852" font-family="Helvetica,sans-Serif" font-size="10.00" fill="#000000">7</text>
</a>
</g>
</g>
</g>
</svg>
