<?xml version="1.0" encoding="UTF-8" standalone="no"?>
<!DOCTYPE svg PUBLIC "-//W3C//DTD SVG 1.1//EN"
 "http://www.w3.org/Graphics/SVG/1.1/DTD/svg11.dtd">
<!-- Generated by graphviz version 2.40.1 (20161225.0304)
 -->
<!-- Title: /home/travis/build/AliceO2Group/AliceO2/Detectors/MUON/MCH Pages: 1 -->
<!--zoomable 447 -->
<svg id="main" version="1.1" xmlns="http://www.w3.org/2000/svg" xmlns:xlink="http://www.w3.org/1999/xlink" xml:space="preserve" onload="init(evt)">
<style type="text/css"><![CDATA[
.edge:hover path { stroke: red; }
.edge:hover polygon { stroke: red; fill: red; }
]]></style>
<script type="text/javascript"><![CDATA[
var edges = document.getElementsByTagName('g');
if (edges && edges.length) {
  for (var i=0;i<edges.length;i++) {
    if (edges[i].id.substr(0,4)=='edge') {
      edges[i].setAttribute('class','edge');
    }
  }
}
]]></script>
        <defs>
                <circle id="rim" cx="0" cy="0" r="7"/>
                <circle id="rim2" cx="0" cy="0" r="3.5"/>
                <g id="zoomPlus">
                        <use xlink:href="#rim" fill="#404040">
                                <set attributeName="fill" to="#808080" begin="zoomplus.mouseover" end="zoomplus.mouseout"/>
                        </use>
                        <path d="M-4,0h8M0,-4v8" fill="none" stroke="white" stroke-width="1.5" pointer-events="none"/>
                </g>
                <g id="zoomMin">
                        <use xlink:href="#rim" fill="#404040">
                                <set attributeName="fill" to="#808080" begin="zoomminus.mouseover" end="zoomminus.mouseout"/>
                        </use>
                        <path d="M-4,0h8" fill="none" stroke="white" stroke-width="1.5" pointer-events="none"/>
                </g>
                <g id="dirArrow">
                        <path fill="none" stroke="white" stroke-width="1.5" d="M0,-3.0v7 M-2.5,-0.5L0,-3.0L2.5,-0.5"/>
                </g>
               <g id="resetDef">
                       <use xlink:href="#rim2" fill="#404040">
                               <set attributeName="fill" to="#808080" begin="reset.mouseover" end="reset.mouseout"/>
                       </use>
               </g>
        </defs>

<script type="text/javascript">
var viewWidth = 664;
var viewHeight = 447;
var sectionId = 'dynsection-0';
</script>
<script xlink:href="svgpan.js"/>
<svg id="graph" class="graph">
<g id="viewport">
<title>/home/travis/build/AliceO2Group/AliceO2/Detectors/MUON/MCH</title>
<g id="clust1" class="cluster">
<title>clusterdir_1cc233fd3b1202b9dad36810b41b97af</title>
<g id="a_clust1"><a xlink:href="dir_1cc233fd3b1202b9dad36810b41b97af.html" target="_top" xlink:title="MUON">
<polygon fill="#ddddee" stroke="#000000" points="258,-128 258,-431 648,-431 648,-128 258,-128"/>
<text text-anchor="middle" x="453" y="-419" font-family="Helvetica,sans-Serif" font-size="10.00" fill="#000000">MUON</text>
</a>
</g>
</g>
<g id="clust2" class="cluster">
<title>clusterdir_061f7088060f41729027f6c2fce0273e</title>
<g id="a_clust2"><a xlink:href="dir_061f7088060f41729027f6c2fce0273e.html" target="_top">
<polygon fill="#eeeeff" stroke="#000000" points="266,-136 266,-404 640,-404 640,-136 266,-136"/>
</a>
</g>
</g>
<!-- dir_061f7088060f41729027f6c2fce0273e -->
<g id="node1" class="node">
<title>dir_061f7088060f41729027f6c2fce0273e</title>
<text text-anchor="middle" x="552" y="-375.5" font-family="Helvetica,sans-Serif" font-size="10.00" fill="#000000">MCH</text>
</g>
<!-- dir_1155c84989a046e7de4bf0156dc4b34c -->
<g id="node2" class="node">
<title>dir_1155c84989a046e7de4bf0156dc4b34c</title>
<g id="a_node2"><a xlink:href="dir_1155c84989a046e7de4bf0156dc4b34c.html" target="_top" xlink:title="Base">
<polygon fill="#ffffff" stroke="#ff0000" points="457,-252 403,-252 403,-216 457,-216 457,-252"/>
<text text-anchor="middle" x="430" y="-231.5" font-family="Helvetica,sans-Serif" font-size="10.00" fill="#000000">Base</text>
</a>
</g>
</g>
<!-- dir_f53aaea7b1f4a3d2e21e52645ea2576d -->
<g id="node3" class="node">
<title>dir_f53aaea7b1f4a3d2e21e52645ea2576d</title>
<g id="a_node3"><a xlink:href="dir_f53aaea7b1f4a3d2e21e52645ea2576d.html" target="_top" xlink:title="Contour">
<polygon fill="#ffffff" stroke="#ff0000" points="383.5,-180 328.5,-180 328.5,-144 383.5,-144 383.5,-180"/>
<text text-anchor="middle" x="356" y="-159.5" font-family="Helvetica,sans-Serif" font-size="10.00" fill="#000000">Contour</text>
</a>
</g>
</g>
<!-- dir_b098e3604916eca5f90f2bb1c75b7880 -->
<g id="node4" class="node">
<title>dir_b098e3604916eca5f90f2bb1c75b7880</title>
<g id="a_node4"><a xlink:href="dir_b098e3604916eca5f90f2bb1c75b7880.html" target="_top" xlink:title="Mapping">
<polygon fill="#ffffff" stroke="#ff0000" points="385,-252 327,-252 327,-216 385,-216 385,-252"/>
<text text-anchor="middle" x="356" y="-231.5" font-family="Helvetica,sans-Serif" font-size="10.00" fill="#000000">Mapping</text>
</a>
</g>
</g>
<!-- dir_b098e3604916eca5f90f2bb1c75b7880&#45;&gt;dir_f53aaea7b1f4a3d2e21e52645ea2576d -->
<g id="edge39" class="edge">
<title>dir_b098e3604916eca5f90f2bb1c75b7880&#45;&gt;dir_f53aaea7b1f4a3d2e21e52645ea2576d</title>
<path fill="none" stroke="#000000" d="M356,-215.8314C356,-208.131 356,-198.9743 356,-190.4166"/>
<polygon fill="#000000" stroke="#000000" points="359.5001,-190.4132 356,-180.4133 352.5001,-190.4133 359.5001,-190.4132"/>
<g id="a_edge39&#45;headlabel"><a xlink:href="dir_000495_000261.html" target="_top" xlink:title="13">
<text text-anchor="middle" x="362.3393" y="-191.5079" font-family="Helvetica,sans-Serif" font-size="10.00" fill="#000000">13</text>
</a>
</g>
</g>
<!-- dir_6229e1f1a243f5ed3f0013dfa4f13deb -->
<g id="node5" class="node">
<title>dir_6229e1f1a243f5ed3f0013dfa4f13deb</title>
<g id="a_node5"><a xlink:href="dir_6229e1f1a243f5ed3f0013dfa4f13deb.html" target="_top" xlink:title="PreClustering">
<polygon fill="#ffffff" stroke="#ff0000" points="464,-324 382,-324 382,-288 464,-288 464,-324"/>
<text text-anchor="middle" x="423" y="-303.5" font-family="Helvetica,sans-Serif" font-size="10.00" fill="#000000">PreClustering</text>
</a>
</g>
</g>
<!-- dir_6229e1f1a243f5ed3f0013dfa4f13deb&#45;&gt;dir_1155c84989a046e7de4bf0156dc4b34c -->
<g id="edge1" class="edge">
<title>dir_6229e1f1a243f5ed3f0013dfa4f13deb&#45;&gt;dir_1155c84989a046e7de4bf0156dc4b34c</title>
<path fill="none" stroke="#000000" d="M424.7664,-287.8314C425.515,-280.131 426.4053,-270.9743 427.2373,-262.4166"/>
<polygon fill="#000000" stroke="#000000" points="430.7256,-262.7051 428.2098,-252.4133 423.7585,-262.0276 430.7256,-262.7051"/>
<g id="a_edge1&#45;headlabel"><a xlink:href="dir_000515_000129.html" target="_top" xlink:title="2">
<text text-anchor="middle" x="433.2038" y="-264.0575" font-family="Helvetica,sans-Serif" font-size="10.00" fill="#000000">2</text>
</a>
</g>
</g>
<!-- dir_6229e1f1a243f5ed3f0013dfa4f13deb&#45;&gt;dir_b098e3604916eca5f90f2bb1c75b7880 -->
<g id="edge2" class="edge">
<title>dir_6229e1f1a243f5ed3f0013dfa4f13deb&#45;&gt;dir_b098e3604916eca5f90f2bb1c75b7880</title>
<path fill="none" stroke="#000000" d="M406.0931,-287.8314C398.2187,-279.3694 388.708,-269.1489 380.0987,-259.8971"/>
<polygon fill="#000000" stroke="#000000" points="382.5092,-257.3497 373.1346,-252.4133 377.3847,-262.1183 382.5092,-257.3497"/>
<g id="a_edge2&#45;headlabel"><a xlink:href="dir_000515_000495.html" target="_top" xlink:title="2">
<text text-anchor="middle" x="387.0364" y="-255.547" font-family="Helvetica,sans-Serif" font-size="10.00" fill="#000000">2</text>
</a>
</g>
</g>
<!-- dir_f8de85f281636d081fd2e7e06b0134d2 -->
<g id="node6" class="node">
<title>dir_f8de85f281636d081fd2e7e06b0134d2</title>
<g id="a_node6"><a xlink:href="dir_f8de85f281636d081fd2e7e06b0134d2.html" target="_top" xlink:title="Raw">
<polygon fill="#ffffff" stroke="#ff0000" points="536,-324 482,-324 482,-288 536,-288 536,-324"/>
<text text-anchor="middle" x="509" y="-303.5" font-family="Helvetica,sans-Serif" font-size="10.00" fill="#000000">Raw</text>
</a>
</g>
</g>
<!-- dir_4ab6b4cc6a7edbff49100e9123df213f -->
<g id="node10" class="node">
<title>dir_4ab6b4cc6a7edbff49100e9123df213f</title>
<g id="a_node10"><a xlink:href="dir_4ab6b4cc6a7edbff49100e9123df213f.html" target="_top" xlink:title="Common">
<polygon fill="none" stroke="#ff0000" points="194.5,-252 133.5,-252 133.5,-216 194.5,-216 194.5,-252"/>
<text text-anchor="middle" x="164" y="-231.5" font-family="Helvetica,sans-Serif" font-size="10.00" fill="#000000">Common</text>
</a>
</g>
</g>
<!-- dir_f8de85f281636d081fd2e7e06b0134d2&#45;&gt;dir_4ab6b4cc6a7edbff49100e9123df213f -->
<g id="edge34" class="edge">
<title>dir_f8de85f281636d081fd2e7e06b0134d2&#45;&gt;dir_4ab6b4cc6a7edbff49100e9123df213f</title>
<path fill="none" stroke="#000000" d="M481.8474,-291.347C478.9118,-290.0891 475.9273,-288.9403 473,-288 376.1624,-256.8942 346.9609,-270.7856 247,-252 233.143,-249.3959 218.0572,-246.2257 204.5942,-243.2757"/>
<polygon fill="#000000" stroke="#000000" points="205.1828,-239.8213 194.6625,-241.0758 203.6689,-246.6556 205.1828,-239.8213"/>
<g id="a_edge34&#45;headlabel"><a xlink:href="dir_000406_000027.html" target="_top" xlink:title="1">
<text text-anchor="middle" x="209.3063" y="-235.3265" font-family="Helvetica,sans-Serif" font-size="10.00" fill="#000000">1</text>
</a>
</g>
</g>
<!-- dir_2171f7ec022c5423887b07c69b2f5b48 -->
<g id="node15" class="node">
<title>dir_2171f7ec022c5423887b07c69b2f5b48</title>
<g id="a_node15"><a xlink:href="dir_2171f7ec022c5423887b07c69b2f5b48.html" target="_top" xlink:title="DataFormats">
<polygon fill="none" stroke="#ff0000" points="267,-108 187,-108 187,-72 267,-72 267,-108"/>
<text text-anchor="middle" x="227" y="-87.5" font-family="Helvetica,sans-Serif" font-size="10.00" fill="#000000">DataFormats</text>
</a>
</g>
</g>
<!-- dir_f8de85f281636d081fd2e7e06b0134d2&#45;&gt;dir_2171f7ec022c5423887b07c69b2f5b48 -->
<g id="edge35" class="edge">
<title>dir_f8de85f281636d081fd2e7e06b0134d2&#45;&gt;dir_2171f7ec022c5423887b07c69b2f5b48</title>
<path fill="none" stroke="#000000" d="M503.1176,-287.7794C490.0383,-250.5317 454.7281,-165.9876 393,-128 373.8096,-116.1902 318.6182,-104.9717 277.1022,-97.8274"/>
<polygon fill="#000000" stroke="#000000" points="277.5829,-94.3591 267.1397,-96.1453 276.4174,-101.2614 277.5829,-94.3591"/>
<g id="a_edge35&#45;headlabel"><a xlink:href="dir_000406_000076.html" target="_top" xlink:title="8">
<text text-anchor="middle" x="281.6" y="-89.6578" font-family="Helvetica,sans-Serif" font-size="10.00" fill="#000000">8</text>
</a>
</g>
</g>
<!-- dir_e4cb5181a3c884468a78a261ced84e7b -->
<g id="node7" class="node">
<title>dir_e4cb5181a3c884468a78a261ced84e7b</title>
<g id="a_node7"><a xlink:href="dir_e4cb5181a3c884468a78a261ced84e7b.html" target="_top" xlink:title="Simulation">
<polygon fill="#ffffff" stroke="#ff0000" points="343.5,-324 274.5,-324 274.5,-288 343.5,-288 343.5,-324"/>
<text text-anchor="middle" x="309" y="-303.5" font-family="Helvetica,sans-Serif" font-size="10.00" fill="#000000">Simulation</text>
</a>
</g>
</g>
<!-- dir_e4cb5181a3c884468a78a261ced84e7b&#45;&gt;dir_1155c84989a046e7de4bf0156dc4b34c -->
<g id="edge14" class="edge">
<title>dir_e4cb5181a3c884468a78a261ced84e7b&#45;&gt;dir_1155c84989a046e7de4bf0156dc4b34c</title>
<path fill="none" stroke="#000000" d="M339.5334,-287.8314C356.1072,-277.9692 376.6952,-265.7186 394.0419,-255.3965"/>
<polygon fill="#000000" stroke="#000000" points="395.9754,-258.3189 402.7793,-250.1975 392.3958,-252.3033 395.9754,-258.3189"/>
<g id="a_edge14&#45;headlabel"><a xlink:href="dir_000202_000129.html" target="_top" xlink:title="6">
<text text-anchor="middle" x="394.3381" y="-260.097" font-family="Helvetica,sans-Serif" font-size="10.00" fill="#000000">6</text>
</a>
</g>
</g>
<!-- dir_e4cb5181a3c884468a78a261ced84e7b&#45;&gt;dir_b098e3604916eca5f90f2bb1c75b7880 -->
<g id="edge18" class="edge">
<title>dir_e4cb5181a3c884468a78a261ced84e7b&#45;&gt;dir_b098e3604916eca5f90f2bb1c75b7880</title>
<path fill="none" stroke="#000000" d="M320.8601,-287.8314C326.1629,-279.7079 332.5237,-269.9637 338.3673,-261.0118"/>
<polygon fill="#000000" stroke="#000000" points="341.4448,-262.7003 343.9802,-252.4133 335.5831,-258.8739 341.4448,-262.7003"/>
<g id="a_edge18&#45;headlabel"><a xlink:href="dir_000202_000495.html" target="_top" xlink:title="3">
<text text-anchor="middle" x="341.8575" y="-264.7623" font-family="Helvetica,sans-Serif" font-size="10.00" fill="#000000">3</text>
</a>
</g>
</g>
<!-- dir_e4cb5181a3c884468a78a261ced84e7b&#45;&gt;dir_4ab6b4cc6a7edbff49100e9123df213f -->
<g id="edge13" class="edge">
<title>dir_e4cb5181a3c884468a78a261ced84e7b&#45;&gt;dir_4ab6b4cc6a7edbff49100e9123df213f</title>
<path fill="none" stroke="#000000" d="M274.2689,-288.7542C253.0089,-278.1975 225.7373,-264.6558 203.6348,-253.6807"/>
<polygon fill="#000000" stroke="#000000" points="205.0246,-250.4631 194.5114,-249.1505 201.9114,-256.7328 205.0246,-250.4631"/>
<g id="a_edge13&#45;headlabel"><a xlink:href="dir_000202_000027.html" target="_top" xlink:title="2">
<text text-anchor="middle" x="209.5069" y="-247.0187" font-family="Helvetica,sans-Serif" font-size="10.00" fill="#000000">2</text>
</a>
</g>
</g>
<!-- dir_37c90836491b695b472bf98d1be8336b -->
<g id="node11" class="node">
<title>dir_37c90836491b695b472bf98d1be8336b</title>
<g id="a_node11"><a xlink:href="dir_37c90836491b695b472bf98d1be8336b.html" target="_top" xlink:title="Base">
<polygon fill="none" stroke="#ff0000" points="254,-36 200,-36 200,0 254,0 254,-36"/>
<text text-anchor="middle" x="227" y="-15.5" font-family="Helvetica,sans-Serif" font-size="10.00" fill="#000000">Base</text>
</a>
</g>
</g>
<!-- dir_e4cb5181a3c884468a78a261ced84e7b&#45;&gt;dir_37c90836491b695b472bf98d1be8336b -->
<g id="edge15" class="edge">
<title>dir_e4cb5181a3c884468a78a261ced84e7b&#45;&gt;dir_37c90836491b695b472bf98d1be8336b</title>
<path fill="none" stroke="#000000" d="M343.6305,-296.3932C387.5943,-283.8529 458.6543,-262.2945 466,-252 475.2935,-238.9757 471.43,-231.0504 466,-216 432.0491,-121.8969 321.6329,-60.1448 263.5221,-33.3156"/>
<polygon fill="#000000" stroke="#000000" points="264.8796,-30.0884 254.3255,-29.16 261.9971,-36.4674 264.8796,-30.0884"/>
<g id="a_edge15&#45;headlabel"><a xlink:href="dir_000202_000273.html" target="_top" xlink:title="5">
<text text-anchor="middle" x="269.3245" y="-26.4811" font-family="Helvetica,sans-Serif" font-size="10.00" fill="#000000">5</text>
</a>
</g>
</g>
<!-- dir_f01815b857f9009bea48e2cb39492245 -->
<g id="node12" class="node">
<title>dir_f01815b857f9009bea48e2cb39492245</title>
<g id="a_node12"><a xlink:href="dir_f01815b857f9009bea48e2cb39492245.html" target="_top" xlink:title="Passive">
<polygon fill="none" stroke="#ff0000" points="54,-108 0,-108 0,-72 54,-72 54,-108"/>
<text text-anchor="middle" x="27" y="-87.5" font-family="Helvetica,sans-Serif" font-size="10.00" fill="#000000">Passive</text>
</a>
</g>
</g>
<!-- dir_e4cb5181a3c884468a78a261ced84e7b&#45;&gt;dir_f01815b857f9009bea48e2cb39492245 -->
<g id="edge16" class="edge">
<title>dir_e4cb5181a3c884468a78a261ced84e7b&#45;&gt;dir_f01815b857f9009bea48e2cb39492245</title>
<path fill="none" stroke="#000000" d="M274.277,-297.2696C228.5113,-285.5221 150.6826,-264.6445 124,-252 72.8666,-227.7687 45.3731,-230.0623 19,-180 8.9447,-160.9126 12.0024,-136.3584 16.9858,-117.7201"/>
<polygon fill="#000000" stroke="#000000" points="20.3667,-118.6302 19.8814,-108.0464 13.6607,-116.6228 20.3667,-118.6302"/>
<g id="a_edge16&#45;headlabel"><a xlink:href="dir_000202_000563.html" target="_top" xlink:title="6">
<text text-anchor="middle" x="22.056" y="-120.388" font-family="Helvetica,sans-Serif" font-size="10.00" fill="#000000">6</text>
</a>
</g>
</g>
<!-- dir_e4cb5181a3c884468a78a261ced84e7b&#45;&gt;dir_2171f7ec022c5423887b07c69b2f5b48 -->
<g id="edge17" class="edge">
<title>dir_e4cb5181a3c884468a78a261ced84e7b&#45;&gt;dir_2171f7ec022c5423887b07c69b2f5b48</title>
<path fill="none" stroke="#000000" d="M302.1498,-287.9555C287.7998,-250.1556 254.5044,-162.4506 237.4612,-117.5564"/>
<polygon fill="#000000" stroke="#000000" points="240.7098,-116.2518 233.8884,-108.1451 234.1655,-118.7363 240.7098,-116.2518"/>
<g id="a_edge17&#45;headlabel"><a xlink:href="dir_000202_000076.html" target="_top" xlink:title="10">
<text text-anchor="middle" x="244.6399" y="-116.1047" font-family="Helvetica,sans-Serif" font-size="10.00" fill="#000000">10</text>
</a>
</g>
</g>
<!-- dir_09445408fa345a18838fb91740d089d0 -->
<g id="node8" class="node">
<title>dir_09445408fa345a18838fb91740d089d0</title>
<g id="a_node8"><a xlink:href="dir_09445408fa345a18838fb91740d089d0.html" target="_top" xlink:title="Tracking">
<polygon fill="#ffffff" stroke="#ff0000" points="611.5,-324 554.5,-324 554.5,-288 611.5,-288 611.5,-324"/>
<text text-anchor="middle" x="583" y="-303.5" font-family="Helvetica,sans-Serif" font-size="10.00" fill="#000000">Tracking</text>
</a>
</g>
</g>
<!-- dir_09445408fa345a18838fb91740d089d0&#45;&gt;dir_1155c84989a046e7de4bf0156dc4b34c -->
<g id="edge9" class="edge">
<title>dir_09445408fa345a18838fb91740d089d0&#45;&gt;dir_1155c84989a046e7de4bf0156dc4b34c</title>
<path fill="none" stroke="#000000" d="M554.371,-292.4263C551.2097,-290.9312 548.0371,-289.4324 545,-288 518.8163,-275.6512 489.2527,-261.7705 466.6574,-251.1746"/>
<polygon fill="#000000" stroke="#000000" points="467.9705,-247.9248 457.4305,-246.8487 464.999,-254.2628 467.9705,-247.9248"/>
<g id="a_edge9&#45;headlabel"><a xlink:href="dir_000116_000129.html" target="_top" xlink:title="11">
<text text-anchor="middle" x="472.4304" y="-244.3799" font-family="Helvetica,sans-Serif" font-size="10.00" fill="#000000">11</text>
</a>
</g>
</g>
<!-- dir_09445408fa345a18838fb91740d089d0&#45;&gt;dir_4ab6b4cc6a7edbff49100e9123df213f -->
<g id="edge8" class="edge">
<title>dir_09445408fa345a18838fb91740d089d0&#45;&gt;dir_4ab6b4cc6a7edbff49100e9123df213f</title>
<path fill="none" stroke="#000000" d="M554.3303,-291.2469C551.2333,-290.0085 548.0857,-288.8917 545,-288 416.8361,-250.9657 378.5538,-274.1614 247,-252 233.0963,-249.6578 217.9988,-246.5539 204.5393,-243.5841"/>
<polygon fill="#000000" stroke="#000000" points="205.1369,-240.1312 194.6129,-241.3541 203.6025,-246.961 205.1369,-240.1312"/>
<g id="a_edge8&#45;headlabel"><a xlink:href="dir_000116_000027.html" target="_top" xlink:title="6">
<text text-anchor="middle" x="209.2664" y="-235.6488" font-family="Helvetica,sans-Serif" font-size="10.00" fill="#000000">6</text>
</a>
</g>
</g>
<!-- dir_09445408fa345a18838fb91740d089d0&#45;&gt;dir_37c90836491b695b472bf98d1be8336b -->
<g id="edge10" class="edge">
<title>dir_09445408fa345a18838fb91740d089d0&#45;&gt;dir_37c90836491b695b472bf98d1be8336b</title>
<path fill="none" stroke="#000000" d="M572.4769,-287.8256C545.5745,-243.1326 469.5477,-127.4838 373,-72 338.0537,-51.9172 294.2731,-36.9065 263.8123,-27.8742"/>
<polygon fill="#000000" stroke="#000000" points="264.6036,-24.4596 254.0248,-25.0415 262.6575,-31.1837 264.6036,-24.4596"/>
<g id="a_edge10&#45;headlabel"><a xlink:href="dir_000116_000273.html" target="_top" xlink:title="1">
<text text-anchor="middle" x="268.8458" y="-20.2315" font-family="Helvetica,sans-Serif" font-size="10.00" fill="#000000">1</text>
</a>
</g>
</g>
<!-- dir_bcbb2cf9a3d3d83e5515c82071a07177 -->
<g id="node13" class="node">
<title>dir_bcbb2cf9a3d3d83e5515c82071a07177</title>
<g id="a_node13"><a xlink:href="dir_bcbb2cf9a3d3d83e5515c82071a07177.html" target="_top" xlink:title="Framework">
<polygon fill="none" stroke="#ff0000" points="117.5,-180 46.5,-180 46.5,-144 117.5,-144 117.5,-180"/>
<text text-anchor="middle" x="82" y="-159.5" font-family="Helvetica,sans-Serif" font-size="10.00" fill="#000000">Framework</text>
</a>
</g>
</g>
<!-- dir_09445408fa345a18838fb91740d089d0&#45;&gt;dir_bcbb2cf9a3d3d83e5515c82071a07177 -->
<g id="edge11" class="edge">
<title>dir_09445408fa345a18838fb91740d089d0&#45;&gt;dir_bcbb2cf9a3d3d83e5515c82071a07177</title>
<path fill="none" stroke="#000000" d="M554.2952,-291.3642C551.2051,-290.103 548.0687,-288.9487 545,-288 447.4074,-257.8295 416.6953,-278.3403 318,-252 249.6265,-233.7522 173.6713,-202.745 126.865,-182.3171"/>
<polygon fill="#000000" stroke="#000000" points="128.1813,-179.0725 117.6182,-178.2533 125.3649,-185.481 128.1813,-179.0725"/>
<g id="a_edge11&#45;headlabel"><a xlink:href="dir_000116_000013.html" target="_top" xlink:title="64">
<text text-anchor="middle" x="132.6145" y="-175.4194" font-family="Helvetica,sans-Serif" font-size="10.00" fill="#000000">64</text>
</a>
</g>
</g>
<!-- dir_09445408fa345a18838fb91740d089d0&#45;&gt;dir_2171f7ec022c5423887b07c69b2f5b48 -->
<g id="edge12" class="edge">
<title>dir_09445408fa345a18838fb91740d089d0&#45;&gt;dir_2171f7ec022c5423887b07c69b2f5b48</title>
<path fill="none" stroke="#000000" d="M573.4285,-287.809C553.0279,-250.9975 501.4815,-167.8019 433,-128 407.1338,-112.9664 329.4249,-101.5606 277.1964,-95.3292"/>
<polygon fill="#000000" stroke="#000000" points="277.4516,-91.8353 267.1133,-94.1524 276.6401,-98.7881 277.4516,-91.8353"/>
<g id="a_edge12&#45;headlabel"><a xlink:href="dir_000116_000076.html" target="_top" xlink:title="1">
<text text-anchor="middle" x="281.3511" y="-86.9318" font-family="Helvetica,sans-Serif" font-size="10.00" fill="#000000">1</text>
</a>
</g>
</g>
<!-- dir_04ece05d7c7fe751e39bd0511b9068fc -->
<g id="node9" class="node">
<title>dir_04ece05d7c7fe751e39bd0511b9068fc</title>
<g id="a_node9"><a xlink:href="dir_04ece05d7c7fe751e39bd0511b9068fc.html" target="_top" xlink:title="Workflow">
<polygon fill="#ffffff" stroke="#ff0000" points="454,-396 392,-396 392,-360 454,-360 454,-396"/>
<text text-anchor="middle" x="423" y="-375.5" font-family="Helvetica,sans-Serif" font-size="10.00" fill="#000000">Workflow</text>
</a>
</g>
</g>
<!-- dir_04ece05d7c7fe751e39bd0511b9068fc&#45;&gt;dir_1155c84989a046e7de4bf0156dc4b34c -->
<g id="edge22" class="edge">
<title>dir_04ece05d7c7fe751e39bd0511b9068fc&#45;&gt;dir_1155c84989a046e7de4bf0156dc4b34c</title>
<path fill="none" stroke="#000000" d="M454.0666,-371.6772C507.1834,-360.5584 610.754,-337.4146 621,-324 663.7689,-268.0048 534.6317,-245.3579 467.6269,-237.5488"/>
<polygon fill="#000000" stroke="#000000" points="467.7671,-234.043 457.4424,-236.42 466.9959,-241.0004 467.7671,-234.043"/>
<g id="a_edge22&#45;headlabel"><a xlink:href="dir_000541_000129.html" target="_top" xlink:title="8">
<text text-anchor="middle" x="471.6525" y="-229.1168" font-family="Helvetica,sans-Serif" font-size="10.00" fill="#000000">8</text>
</a>
</g>
</g>
<!-- dir_04ece05d7c7fe751e39bd0511b9068fc&#45;&gt;dir_b098e3604916eca5f90f2bb1c75b7880 -->
<g id="edge27" class="edge">
<title>dir_04ece05d7c7fe751e39bd0511b9068fc&#45;&gt;dir_b098e3604916eca5f90f2bb1c75b7880</title>
<path fill="none" stroke="#000000" d="M401.2467,-359.8224C391.1278,-350.2004 379.8427,-337.5774 373,-324 363.3087,-304.7702 359.1135,-280.7003 357.3115,-262.2922"/>
<polygon fill="#000000" stroke="#000000" points="360.7896,-261.8766 356.5037,-252.1874 353.8118,-262.4346 360.7896,-261.8766"/>
<g id="a_edge27&#45;headlabel"><a xlink:href="dir_000541_000495.html" target="_top" xlink:title="4">
<text text-anchor="middle" x="363.9062" y="-262.7336" font-family="Helvetica,sans-Serif" font-size="10.00" fill="#000000">4</text>
</a>
</g>
</g>
<!-- dir_04ece05d7c7fe751e39bd0511b9068fc&#45;&gt;dir_6229e1f1a243f5ed3f0013dfa4f13deb -->
<g id="edge21" class="edge">
<title>dir_04ece05d7c7fe751e39bd0511b9068fc&#45;&gt;dir_6229e1f1a243f5ed3f0013dfa4f13deb</title>
<path fill="none" stroke="#000000" d="M423,-359.8314C423,-352.131 423,-342.9743 423,-334.4166"/>
<polygon fill="#000000" stroke="#000000" points="426.5001,-334.4132 423,-324.4133 419.5001,-334.4133 426.5001,-334.4132"/>
<g id="a_edge21&#45;headlabel"><a xlink:href="dir_000541_000515.html" target="_top" xlink:title="1">
<text text-anchor="middle" x="429.3393" y="-335.5079" font-family="Helvetica,sans-Serif" font-size="10.00" fill="#000000">1</text>
</a>
</g>
</g>
<!-- dir_04ece05d7c7fe751e39bd0511b9068fc&#45;&gt;dir_f8de85f281636d081fd2e7e06b0134d2 -->
<g id="edge24" class="edge">
<title>dir_04ece05d7c7fe751e39bd0511b9068fc&#45;&gt;dir_f8de85f281636d081fd2e7e06b0134d2</title>
<path fill="none" stroke="#000000" d="M444.7014,-359.8314C455.1921,-351.0485 467.9455,-340.3712 479.3194,-330.8489"/>
<polygon fill="#000000" stroke="#000000" points="481.8847,-333.2659 487.3055,-324.1628 477.3911,-327.8986 481.8847,-333.2659"/>
<g id="a_edge24&#45;headlabel"><a xlink:href="dir_000541_000406.html" target="_top" xlink:title="8">
<text text-anchor="middle" x="480.9511" y="-335.2504" font-family="Helvetica,sans-Serif" font-size="10.00" fill="#000000">8</text>
</a>
</g>
</g>
<!-- dir_04ece05d7c7fe751e39bd0511b9068fc&#45;&gt;dir_bcbb2cf9a3d3d83e5515c82071a07177 -->
<g id="edge23" class="edge">
<title>dir_04ece05d7c7fe751e39bd0511b9068fc&#45;&gt;dir_bcbb2cf9a3d3d83e5515c82071a07177</title>
<path fill="none" stroke="#000000" d="M391.5748,-374.3301C330.0438,-366.7103 196.2531,-347.8766 157,-324 121.8933,-302.6455 116.2195,-289.3093 99,-252 89.9761,-232.4481 85.7422,-208.3969 83.7557,-190.0778"/>
<polygon fill="#000000" stroke="#000000" points="87.2327,-189.6667 82.8266,-180.0315 80.2625,-190.3114 87.2327,-189.6667"/>
<g id="a_edge23&#45;headlabel"><a xlink:href="dir_000541_000013.html" target="_top" xlink:title="81">
<text text-anchor="middle" x="90.3909" y="-190.4846" font-family="Helvetica,sans-Serif" font-size="10.00" fill="#000000">81</text>
</a>
</g>
</g>
<!-- dir_26637d1bd82229bc9ed97f7e706be743 -->
<g id="node14" class="node">
<title>dir_26637d1bd82229bc9ed97f7e706be743</title>
<g id="a_node14"><a xlink:href="dir_26637d1bd82229bc9ed97f7e706be743.html" target="_top" xlink:title="Raw">
<polygon fill="none" stroke="#ff0000" points="220,-324 166,-324 166,-288 220,-288 220,-324"/>
<text text-anchor="middle" x="193" y="-303.5" font-family="Helvetica,sans-Serif" font-size="10.00" fill="#000000">Raw</text>
</a>
</g>
</g>
<!-- dir_04ece05d7c7fe751e39bd0511b9068fc&#45;&gt;dir_26637d1bd82229bc9ed97f7e706be743 -->
<g id="edge25" class="edge">
<title>dir_04ece05d7c7fe751e39bd0511b9068fc&#45;&gt;dir_26637d1bd82229bc9ed97f7e706be743</title>
<path fill="none" stroke="#000000" d="M391.9812,-368.2898C349.9167,-355.1217 274.8907,-331.6354 229.9579,-317.5694"/>
<polygon fill="#000000" stroke="#000000" points="230.8957,-314.1956 220.3068,-314.5482 228.8044,-320.8759 230.8957,-314.1956"/>
<g id="a_edge25&#45;headlabel"><a xlink:href="dir_000541_000553.html" target="_top" xlink:title="1">
<text text-anchor="middle" x="235.1744" y="-310.0598" font-family="Helvetica,sans-Serif" font-size="10.00" fill="#000000">1</text>
</a>
</g>
</g>
<!-- dir_04ece05d7c7fe751e39bd0511b9068fc&#45;&gt;dir_2171f7ec022c5423887b07c69b2f5b48 -->
<g id="edge26" class="edge">
<title>dir_04ece05d7c7fe751e39bd0511b9068fc&#45;&gt;dir_2171f7ec022c5423887b07c69b2f5b48</title>
<path fill="none" stroke="#000000" d="M454.1611,-372.0382C509.2663,-361.186 619.1575,-338.0339 630,-324 639.7821,-311.3386 635.933,-302.8593 630,-288 593.6293,-196.9082 564.9712,-173.3493 478,-128 443.9892,-110.2658 340.192,-99.0802 277.23,-93.7365"/>
<polygon fill="#000000" stroke="#000000" points="277.3683,-90.236 267.1134,-92.8982 276.7902,-97.2121 277.3683,-90.236"/>
<g id="a_edge26&#45;headlabel"><a xlink:href="dir_000541_000076.html" target="_top" xlink:title="3">
<text text-anchor="middle" x="281.1851" y="-85.2032" font-family="Helvetica,sans-Serif" font-size="10.00" fill="#000000">3</text>
</a>
</g>
</g>
<!-- dir_4ab6b4cc6a7edbff49100e9123df213f&#45;&gt;dir_bcbb2cf9a3d3d83e5515c82071a07177 -->
<g id="edge3" class="edge">
<title>dir_4ab6b4cc6a7edbff49100e9123df213f&#45;&gt;dir_bcbb2cf9a3d3d83e5515c82071a07177</title>
<path fill="none" stroke="#000000" d="M137.3555,-215.8314C126.6023,-207.1337 114.4088,-196.5783 104.1478,-187.1265"/>
<polygon fill="#000000" stroke="#000000" points="106.4188,-184.4579 96.7336,-180.1628 101.6265,-189.5602 106.4188,-184.4579"/>
<g id="a_edge3&#45;headlabel"><a xlink:href="dir_000027_000013.html" target="_top" xlink:title="2">
<text text-anchor="middle" x="110.9827" y="-182.3492" font-family="Helvetica,sans-Serif" font-size="10.00" fill="#000000">2</text>
</a>
</g>
</g>
<!-- dir_4ab6b4cc6a7edbff49100e9123df213f&#45;&gt;dir_2171f7ec022c5423887b07c69b2f5b48 -->
<g id="edge4" class="edge">
<title>dir_4ab6b4cc6a7edbff49100e9123df213f&#45;&gt;dir_2171f7ec022c5423887b07c69b2f5b48</title>
<path fill="none" stroke="#000000" d="M167.3058,-215.7623C175.7011,-190.8764 195.0494,-146.0822 209.6723,-117.2165"/>
<polygon fill="#000000" stroke="#000000" points="212.9108,-118.5753 214.4275,-108.0896 206.7029,-115.3409 212.9108,-118.5753"/>
<g id="a_edge4&#45;headlabel"><a xlink:href="dir_000027_000076.html" target="_top" xlink:title="2">
<text text-anchor="middle" x="213.7679" y="-120.5751" font-family="Helvetica,sans-Serif" font-size="10.00" fill="#000000">2</text>
</a>
</g>
</g>
<!-- dir_37c90836491b695b472bf98d1be8336b&#45;&gt;dir_4ab6b4cc6a7edbff49100e9123df213f -->
<g id="edge5" class="edge">
<title>dir_37c90836491b695b472bf98d1be8336b&#45;&gt;dir_4ab6b4cc6a7edbff49100e9123df213f</title>
<path fill="none" stroke="#000000" d="M204.8441,-36.2225C194.8532,-45.7667 183.9756,-58.3093 178,-72 158.8938,-115.7739 158.9271,-172.4468 161.1467,-205.8491"/>
<polygon fill="#000000" stroke="#000000" points="157.658,-206.1319 161.9227,-215.8305 164.6369,-205.5893 157.658,-206.1319"/>
<g id="a_edge5&#45;headlabel"><a xlink:href="dir_000273_000027.html" target="_top" xlink:title="16">
<text text-anchor="middle" x="154.5487" y="-200.2681" font-family="Helvetica,sans-Serif" font-size="10.00" fill="#000000">16</text>
</a>
</g>
</g>
<!-- dir_37c90836491b695b472bf98d1be8336b&#45;&gt;dir_bcbb2cf9a3d3d83e5515c82071a07177 -->
<g id="edge6" class="edge">
<title>dir_37c90836491b695b472bf98d1be8336b&#45;&gt;dir_bcbb2cf9a3d3d83e5515c82071a07177</title>
<path fill="none" stroke="#000000" d="M199.8243,-28.6284C179.2629,-37.7257 151.3561,-52.4537 132,-72 114.3281,-89.8455 100.9927,-115.2138 92.5571,-134.4711"/>
<polygon fill="#000000" stroke="#000000" points="89.2374,-133.3368 88.5954,-143.9122 95.6922,-136.0454 89.2374,-133.3368"/>
<g id="a_edge6&#45;headlabel"><a xlink:href="dir_000273_000013.html" target="_top" xlink:title="1">
<text text-anchor="middle" x="88.0101" y="-126.4236" font-family="Helvetica,sans-Serif" font-size="10.00" fill="#000000">1</text>
</a>
</g>
</g>
<!-- dir_37c90836491b695b472bf98d1be8336b&#45;&gt;dir_2171f7ec022c5423887b07c69b2f5b48 -->
<g id="edge7" class="edge">
<title>dir_37c90836491b695b472bf98d1be8336b&#45;&gt;dir_2171f7ec022c5423887b07c69b2f5b48</title>
<path fill="none" stroke="#000000" d="M232.976,-36.4133C233.7071,-44.0593 233.9203,-53.1084 233.6155,-61.5726"/>
<polygon fill="#000000" stroke="#000000" points="230.1048,-61.6264 232.9524,-71.8314 237.0902,-62.078 230.1048,-61.6264"/>
<g id="a_edge7&#45;headlabel"><a xlink:href="dir_000273_000076.html" target="_top" xlink:title="10">
<text text-anchor="middle" x="227.5032" y="-55.3562" font-family="Helvetica,sans-Serif" font-size="10.00" fill="#000000">10</text>
</a>
</g>
</g>
<!-- dir_f01815b857f9009bea48e2cb39492245&#45;&gt;dir_4ab6b4cc6a7edbff49100e9123df213f -->
<g id="edge19" class="edge">
<title>dir_f01815b857f9009bea48e2cb39492245&#45;&gt;dir_4ab6b4cc6a7edbff49100e9123df213f</title>
<path fill="none" stroke="#000000" d="M24.0224,-108.1429C21.8368,-127.817 21.5149,-159.1892 37,-180 57.4706,-207.5109 94.7484,-221.139 123.6417,-227.8084"/>
<polygon fill="#000000" stroke="#000000" points="122.9626,-231.2422 133.4706,-229.8886 124.4121,-224.3938 122.9626,-231.2422"/>
<g id="a_edge19&#45;headlabel"><a xlink:href="dir_000563_000027.html" target="_top" xlink:title="5">
<text text-anchor="middle" x="118.8581" y="-230.7757" font-family="Helvetica,sans-Serif" font-size="10.00" fill="#000000">5</text>
</a>
</g>
</g>
<!-- dir_f01815b857f9009bea48e2cb39492245&#45;&gt;dir_37c90836491b695b472bf98d1be8336b -->
<g id="edge20" class="edge">
<title>dir_f01815b857f9009bea48e2cb39492245&#45;&gt;dir_37c90836491b695b472bf98d1be8336b</title>
<path fill="none" stroke="#000000" d="M54.3898,-80.1397C89.6973,-67.429 151.2063,-45.2857 190.468,-31.1515"/>
<polygon fill="#000000" stroke="#000000" points="191.7177,-34.4216 199.941,-27.7412 189.3466,-27.8354 191.7177,-34.4216"/>
<g id="a_edge20&#45;headlabel"><a xlink:href="dir_000563_000273.html" target="_top" xlink:title="19">
<text text-anchor="middle" x="189.2972" y="-35.8105" font-family="Helvetica,sans-Serif" font-size="10.00" fill="#000000">19</text>
</a>
</g>
</g>
<!-- dir_bcbb2cf9a3d3d83e5515c82071a07177&#45;&gt;dir_4ab6b4cc6a7edbff49100e9123df213f -->
<g id="edge28" class="edge">
<title>dir_bcbb2cf9a3d3d83e5515c82071a07177&#45;&gt;dir_4ab6b4cc6a7edbff49100e9123df213f</title>
<path fill="none" stroke="#000000" d="M108.6373,-180.1628C119.3899,-188.8596 131.5834,-199.4149 141.8454,-208.8672"/>
<polygon fill="#000000" stroke="#000000" points="139.575,-211.5365 149.2603,-215.8314 144.3673,-206.4341 139.575,-211.5365"/>
<g id="a_edge28&#45;headlabel"><a xlink:href="dir_000013_000027.html" target="_top" xlink:title="8">
<text text-anchor="middle" x="135.0111" y="-208.6452" font-family="Helvetica,sans-Serif" font-size="10.00" fill="#000000">8</text>
</a>
</g>
</g>
<!-- dir_bcbb2cf9a3d3d83e5515c82071a07177&#45;&gt;dir_f01815b857f9009bea48e2cb39492245 -->
<g id="edge29" class="edge">
<title>dir_bcbb2cf9a3d3d83e5515c82071a07177&#45;&gt;dir_f01815b857f9009bea48e2cb39492245</title>
<path fill="none" stroke="#000000" d="M68.1212,-143.8314C61.7864,-135.5386 54.1616,-125.557 47.2074,-116.4533"/>
<polygon fill="#000000" stroke="#000000" points="49.9175,-114.2353 41.0657,-108.4133 44.3548,-118.4847 49.9175,-114.2353"/>
<g id="a_edge29&#45;headlabel"><a xlink:href="dir_000013_000563.html" target="_top" xlink:title="2">
<text text-anchor="middle" x="54.3558" y="-112.8683" font-family="Helvetica,sans-Serif" font-size="10.00" fill="#000000">2</text>
</a>
</g>
</g>
<!-- dir_bcbb2cf9a3d3d83e5515c82071a07177&#45;&gt;dir_2171f7ec022c5423887b07c69b2f5b48 -->
<g id="edge30" class="edge">
<title>dir_bcbb2cf9a3d3d83e5515c82071a07177&#45;&gt;dir_2171f7ec022c5423887b07c69b2f5b48</title>
<path fill="none" stroke="#000000" d="M112.6372,-143.8314C131.5685,-133.953 156.1974,-121.6781 177.7865,-111.3455"/>
<polygon fill="#000000" stroke="#000000" points="179.2978,-114.5024 186.8273,-107.0487 176.2931,-108.1801 179.2978,-114.5024"/>
<g id="a_edge30&#45;headlabel"><a xlink:href="dir_000013_000076.html" target="_top" xlink:title="82">
<text text-anchor="middle" x="177.2699" y="-116.1097" font-family="Helvetica,sans-Serif" font-size="10.00" fill="#000000">82</text>
</a>
</g>
</g>
<!-- dir_26637d1bd82229bc9ed97f7e706be743&#45;&gt;dir_4ab6b4cc6a7edbff49100e9123df213f -->
<g id="edge31" class="edge">
<title>dir_26637d1bd82229bc9ed97f7e706be743&#45;&gt;dir_4ab6b4cc6a7edbff49100e9123df213f</title>
<path fill="none" stroke="#000000" d="M185.6821,-287.8314C182.5124,-279.9617 178.73,-270.5712 175.2187,-261.8533"/>
<polygon fill="#000000" stroke="#000000" points="178.3992,-260.3815 171.4165,-252.4133 171.9061,-262.9968 178.3992,-260.3815"/>
<g id="a_edge31&#45;headlabel"><a xlink:href="dir_000553_000027.html" target="_top" xlink:title="9">
<text text-anchor="middle" x="182.3758" y="-260.155" font-family="Helvetica,sans-Serif" font-size="10.00" fill="#000000">9</text>
</a>
</g>
</g>
<!-- dir_26637d1bd82229bc9ed97f7e706be743&#45;&gt;dir_bcbb2cf9a3d3d83e5515c82071a07177 -->
<g id="edge32" class="edge">
<title>dir_26637d1bd82229bc9ed97f7e706be743&#45;&gt;dir_bcbb2cf9a3d3d83e5515c82071a07177</title>
<path fill="none" stroke="#000000" d="M165.9077,-289.2781C152.027,-279.6838 135.6435,-266.6458 124,-252 109.1742,-233.3514 98.1175,-208.6161 91.0801,-189.7966"/>
<polygon fill="#000000" stroke="#000000" points="94.3432,-188.5272 87.6766,-180.2926 87.753,-190.8872 94.3432,-188.5272"/>
<g id="a_edge32&#45;headlabel"><a xlink:href="dir_000553_000013.html" target="_top" xlink:title="25">
<text text-anchor="middle" x="98.2281" y="-188.4541" font-family="Helvetica,sans-Serif" font-size="10.00" fill="#000000">25</text>
</a>
</g>
</g>
<!-- dir_26637d1bd82229bc9ed97f7e706be743&#45;&gt;dir_2171f7ec022c5423887b07c69b2f5b48 -->
<g id="edge33" class="edge">
<title>dir_26637d1bd82229bc9ed97f7e706be743&#45;&gt;dir_2171f7ec022c5423887b07c69b2f5b48</title>
<path fill="none" stroke="#000000" d="M198.4711,-287.8444C205.5288,-263.5414 217.5447,-218.9714 223,-180 225.8865,-159.3797 226.8526,-135.8675 227.115,-118.0472"/>
<polygon fill="#000000" stroke="#000000" points="230.615,-118.0499 227.1979,-108.0212 223.6153,-117.9919 230.615,-118.0499"/>
<g id="a_edge33&#45;headlabel"><a xlink:href="dir_000553_000076.html" target="_top" xlink:title="15">
<text text-anchor="middle" x="233.4246" y="-119.1678" font-family="Helvetica,sans-Serif" font-size="10.00" fill="#000000">15</text>
</a>
</g>
</g>
<!-- dir_2171f7ec022c5423887b07c69b2f5b48&#45;&gt;dir_4ab6b4cc6a7edbff49100e9123df213f -->
<g id="edge36" class="edge">
<title>dir_2171f7ec022c5423887b07c69b2f5b48&#45;&gt;dir_4ab6b4cc6a7edbff49100e9123df213f</title>
<path fill="none" stroke="#000000" d="M223.7441,-108.0896C215.3924,-132.8962 196.0565,-177.6824 181.415,-206.6113"/>
<polygon fill="#000000" stroke="#000000" points="178.1643,-205.2759 176.6522,-215.7623 184.3737,-208.5077 178.1643,-205.2759"/>
<g id="a_edge36&#45;headlabel"><a xlink:href="dir_000076_000027.html" target="_top" xlink:title="34">
<text text-anchor="middle" x="177.3053" y="-198.2765" font-family="Helvetica,sans-Serif" font-size="10.00" fill="#000000">34</text>
</a>
</g>
</g>
<!-- dir_2171f7ec022c5423887b07c69b2f5b48&#45;&gt;dir_37c90836491b695b472bf98d1be8336b -->
<g id="edge37" class="edge">
<title>dir_2171f7ec022c5423887b07c69b2f5b48&#45;&gt;dir_37c90836491b695b472bf98d1be8336b</title>
<path fill="none" stroke="#000000" d="M221.0476,-71.8314C220.2972,-64.131 220.0763,-54.9743 220.3849,-46.4166"/>
<polygon fill="#000000" stroke="#000000" points="223.8792,-46.6161 221.024,-36.4133 216.8935,-46.1697 223.8792,-46.6161"/>
<g id="a_edge37&#45;headlabel"><a xlink:href="dir_000076_000273.html" target="_top" xlink:title="1">
<text text-anchor="middle" x="226.4836" y="-47.8844" font-family="Helvetica,sans-Serif" font-size="10.00" fill="#000000">1</text>
</a>
</g>
</g>
<!-- dir_2171f7ec022c5423887b07c69b2f5b48&#45;&gt;dir_bcbb2cf9a3d3d83e5515c82071a07177 -->
<g id="edge38" class="edge">
<title>dir_2171f7ec022c5423887b07c69b2f5b48&#45;&gt;dir_bcbb2cf9a3d3d83e5515c82071a07177</title>
<path fill="none" stroke="#000000" d="M196.5172,-108.088C176.2444,-118.6698 149.3889,-132.0224 126.7336,-142.7915"/>
<polygon fill="#000000" stroke="#000000" points="125.1885,-139.6504 117.6368,-147.0816 128.1744,-145.9816 125.1885,-139.6504"/>
<g id="a_edge38&#45;headlabel"><a xlink:href="dir_000076_000013.html" target="_top" xlink:title="7">
<text text-anchor="middle" x="127.2286" y="-133.0491" font-family="Helvetica,sans-Serif" font-size="10.00" fill="#000000">7</text>
</a>
</g>
</g>
</g>
</svg>
        <g id="navigator" transform="translate(0 0)" fill="#404254">
                <rect fill="#f2f5e9" fill-opacity="0.5" stroke="#606060" stroke-width=".5" x="0" y="0" width="60" height="60"/>
                <use id="zoomplus" xlink:href="#zoomPlus" x="17" y="9" onmousedown="handleZoom(evt,'in')"/>
                <use id="zoomminus" xlink:href="#zoomMin" x="42" y="9" onmousedown="handleZoom(evt,'out')"/>
                <use id="reset" xlink:href="#resetDef" x="30" y="36" onmousedown="handleReset()"/>
                <g id="arrowUp" xlink:href="#dirArrow" transform="translate(30 24)" onmousedown="handlePan(0,-1)">
                  <use xlink:href="#rim" fill="#404040">
                        <set attributeName="fill" to="#808080" begin="arrowUp.mouseover" end="arrowUp.mouseout"/>
                  </use>
                  <path fill="none" stroke="white" stroke-width="1.5" d="M0,-3.0v7 M-2.5,-0.5L0,-3.0L2.5,-0.5"/>
                </g>
                <g id="arrowRight" xlink:href="#dirArrow" transform="rotate(90) translate(36 -43)" onmousedown="handlePan(1,0)">
                  <use xlink:href="#rim" fill="#404040">
                        <set attributeName="fill" to="#808080" begin="arrowRight.mouseover" end="arrowRight.mouseout"/>
                  </use>
                  <path fill="none" stroke="white" stroke-width="1.5" d="M0,-3.0v7 M-2.5,-0.5L0,-3.0L2.5,-0.5"/>
                </g>
                <g id="arrowDown" xlink:href="#dirArrow" transform="rotate(180) translate(-30 -48)" onmousedown="handlePan(0,1)">
                  <use xlink:href="#rim" fill="#404040">
                        <set attributeName="fill" to="#808080" begin="arrowDown.mouseover" end="arrowDown.mouseout"/>
                  </use>
                  <path fill="none" stroke="white" stroke-width="1.5" d="M0,-3.0v7 M-2.5,-0.5L0,-3.0L2.5,-0.5"/>
                </g>
                <g id="arrowLeft" xlink:href="#dirArrow" transform="rotate(270) translate(-36 17)" onmousedown="handlePan(-1,0)">
                  <use xlink:href="#rim" fill="#404040">
                        <set attributeName="fill" to="#808080" begin="arrowLeft.mouseover" end="arrowLeft.mouseout"/>
                  </use>
                  <path fill="none" stroke="white" stroke-width="1.5" d="M0,-3.0v7 M-2.5,-0.5L0,-3.0L2.5,-0.5"/>
                </g>
        </g>
        <svg viewBox="0 0 15 15" width="100%" height="30px" preserveAspectRatio="xMaxYMin meet">
         <g id="arrow_out" transform="scale(0.3 0.3)">
          <a xlink:href="dir_061f7088060f41729027f6c2fce0273e_dep_org.svg" target="_base">
           <rect id="button" ry="5" rx="5" y="6" x="6" height="38" width="38"
                fill="#f2f5e9" fill-opacity="0.5" stroke="#606060" stroke-width="1.0"/>
           <path id="arrow"
             d="M 11.500037,31.436501 C 11.940474,20.09759 22.043105,11.32322 32.158766,21.979434 L 37.068811,17.246167 C 37.068811,17.246167 37.088388,32 37.088388,32 L 22.160133,31.978069 C 22.160133,31.978069 26.997745,27.140456 26.997745,27.140456 C 18.528582,18.264221 13.291696,25.230495 11.500037,31.436501 z"
             style="fill:#404040;"/>
          </a>
         </g>
        </svg>
</svg>
