<?xml version="1.0" encoding="UTF-8" standalone="no"?>
<!DOCTYPE svg PUBLIC "-//W3C//DTD SVG 1.1//EN"
 "http://www.w3.org/Graphics/SVG/1.1/DTD/svg11.dtd">
<!-- Generated by graphviz version 2.40.1 (20161225.0304)
 -->
<!-- Title: /home/travis/build/AliceO2Group/AliceO2/Detectors/MUON/MCH/Raw Pages: 1 -->
<svg width="438pt" height="447pt"
 viewBox="0.00 0.00 438.00 447.00" xmlns="http://www.w3.org/2000/svg" xmlns:xlink="http://www.w3.org/1999/xlink">
<g id="graph0" class="graph" transform="scale(1 1) rotate(0) translate(4 443)">
<title>/home/travis/build/AliceO2Group/AliceO2/Detectors/MUON/MCH/Raw</title>
<g id="clust1" class="cluster">
<title>clusterdir_061f7088060f41729027f6c2fce0273e</title>
<g id="a_clust1"><a xlink:href="dir_061f7088060f41729027f6c2fce0273e.html" target="_top" xlink:title="MCH">
<polygon fill="#ddddee" stroke="#000000" points="8,-56 8,-431 294,-431 294,-56 8,-56"/>
<text text-anchor="middle" x="151" y="-419" font-family="Helvetica,sans-Serif" font-size="10.00" fill="#000000">MCH</text>
</a>
</g>
</g>
<g id="clust2" class="cluster">
<title>clusterdir_f8de85f281636d081fd2e7e06b0134d2</title>
<g id="a_clust2"><a xlink:href="dir_f8de85f281636d081fd2e7e06b0134d2.html" target="_top">
<polygon fill="#eeeeff" stroke="#000000" points="16,-64 16,-404 286,-404 286,-64 16,-64"/>
</a>
</g>
</g>
<!-- dir_f8de85f281636d081fd2e7e06b0134d2 -->
<g id="node1" class="node">
<title>dir_f8de85f281636d081fd2e7e06b0134d2</title>
<text text-anchor="middle" x="251" y="-375.5" font-family="Helvetica,sans-Serif" font-size="10.00" fill="#000000">Raw</text>
</g>
<!-- dir_55964488a5749f1fcba45aaf4e122cee -->
<g id="node2" class="node">
<title>dir_55964488a5749f1fcba45aaf4e122cee</title>
<g id="a_node2"><a xlink:href="dir_55964488a5749f1fcba45aaf4e122cee.html" target="_top" xlink:title="Common">
<polygon fill="#ffffff" stroke="#ff0000" points="277.5,-180 216.5,-180 216.5,-144 277.5,-144 277.5,-180"/>
<text text-anchor="middle" x="247" y="-159.5" font-family="Helvetica,sans-Serif" font-size="10.00" fill="#000000">Common</text>
</a>
</g>
</g>
<!-- dir_cfadcf1c28477e06298c128044978e91 -->
<g id="node6" class="node">
<title>dir_cfadcf1c28477e06298c128044978e91</title>
<g id="a_node6"><a xlink:href="dir_cfadcf1c28477e06298c128044978e91.html" target="_top" xlink:title="ImplHelpers">
<polygon fill="#ffffff" stroke="#000000" points="235,-108 159,-108 159,-72 235,-72 235,-108"/>
<text text-anchor="middle" x="197" y="-87.5" font-family="Helvetica,sans-Serif" font-size="10.00" fill="#000000">ImplHelpers</text>
</a>
</g>
</g>
<!-- dir_55964488a5749f1fcba45aaf4e122cee&#45;&gt;dir_cfadcf1c28477e06298c128044978e91 -->
<g id="edge8" class="edge">
<title>dir_55964488a5749f1fcba45aaf4e122cee&#45;&gt;dir_cfadcf1c28477e06298c128044978e91</title>
<path fill="none" stroke="#000000" d="M228.4305,-143.8314C221.9975,-135.7079 215.0284,-125.9637 209.1988,-117.0118"/>
<polygon fill="#000000" stroke="#000000" points="212.0866,-115.0288 203.811,-108.4133 206.1549,-118.7456 212.0866,-115.0288"/>
<g id="a_edge8&#45;headlabel"><a xlink:href="dir_000519_000536.html" target="_top" xlink:title="3">
<text text-anchor="middle" x="216.4012" y="-114.0673" font-family="Helvetica,sans-Serif" font-size="10.00" fill="#000000">3</text>
</a>
</g>
</g>
<!-- dir_4ab6b4cc6a7edbff49100e9123df213f -->
<g id="node9" class="node">
<title>dir_4ab6b4cc6a7edbff49100e9123df213f</title>
<g id="a_node9"><a xlink:href="dir_4ab6b4cc6a7edbff49100e9123df213f.html" target="_top" xlink:title="Common">
<polygon fill="none" stroke="#ff0000" points="363.5,-108 302.5,-108 302.5,-72 363.5,-72 363.5,-108"/>
<text text-anchor="middle" x="333" y="-87.5" font-family="Helvetica,sans-Serif" font-size="10.00" fill="#000000">Common</text>
</a>
</g>
</g>
<!-- dir_55964488a5749f1fcba45aaf4e122cee&#45;&gt;dir_4ab6b4cc6a7edbff49100e9123df213f -->
<g id="edge9" class="edge">
<title>dir_55964488a5749f1fcba45aaf4e122cee&#45;&gt;dir_4ab6b4cc6a7edbff49100e9123df213f</title>
<path fill="none" stroke="#000000" d="M268.7014,-143.8314C279.1921,-135.0485 291.9455,-124.3712 303.3194,-114.8489"/>
<polygon fill="#000000" stroke="#000000" points="305.8847,-117.2659 311.3055,-108.1628 301.3911,-111.8986 305.8847,-117.2659"/>
<g id="a_edge9&#45;headlabel"><a xlink:href="dir_000519_000027.html" target="_top" xlink:title="1">
<text text-anchor="middle" x="304.9511" y="-119.2504" font-family="Helvetica,sans-Serif" font-size="10.00" fill="#000000">1</text>
</a>
</g>
</g>
<!-- dir_2171f7ec022c5423887b07c69b2f5b48 -->
<g id="node10" class="node">
<title>dir_2171f7ec022c5423887b07c69b2f5b48</title>
<g id="a_node10"><a xlink:href="dir_2171f7ec022c5423887b07c69b2f5b48.html" target="_top" xlink:title="DataFormats">
<polygon fill="none" stroke="#ff0000" points="373,-36 293,-36 293,0 373,0 373,-36"/>
<text text-anchor="middle" x="333" y="-15.5" font-family="Helvetica,sans-Serif" font-size="10.00" fill="#000000">DataFormats</text>
</a>
</g>
</g>
<!-- dir_55964488a5749f1fcba45aaf4e122cee&#45;&gt;dir_2171f7ec022c5423887b07c69b2f5b48 -->
<g id="edge10" class="edge">
<title>dir_55964488a5749f1fcba45aaf4e122cee&#45;&gt;dir_2171f7ec022c5423887b07c69b2f5b48</title>
<path fill="none" stroke="#000000" d="M252.7316,-143.6606C260.1423,-121.618 274.4552,-84.0919 294,-56 297.0268,-51.6495 300.5983,-47.3821 304.3308,-43.37"/>
<polygon fill="#000000" stroke="#000000" points="307.0622,-45.5856 311.6059,-36.0145 302.0853,-40.6631 307.0622,-45.5856"/>
<g id="a_edge10&#45;headlabel"><a xlink:href="dir_000519_000076.html" target="_top" xlink:title="3">
<text text-anchor="middle" x="306.5531" y="-47.6378" font-family="Helvetica,sans-Serif" font-size="10.00" fill="#000000">3</text>
</a>
</g>
</g>
<!-- dir_060542ae88c3eb8c9b22a30de881a7e9 -->
<g id="node3" class="node">
<title>dir_060542ae88c3eb8c9b22a30de881a7e9</title>
<g id="a_node3"><a xlink:href="dir_060542ae88c3eb8c9b22a30de881a7e9.html" target="_top" xlink:title="Decoder">
<polygon fill="#ffffff" stroke="#ff0000" points="251.5,-324 194.5,-324 194.5,-288 251.5,-288 251.5,-324"/>
<text text-anchor="middle" x="223" y="-303.5" font-family="Helvetica,sans-Serif" font-size="10.00" fill="#000000">Decoder</text>
</a>
</g>
</g>
<!-- dir_060542ae88c3eb8c9b22a30de881a7e9&#45;&gt;dir_55964488a5749f1fcba45aaf4e122cee -->
<g id="edge16" class="edge">
<title>dir_060542ae88c3eb8c9b22a30de881a7e9&#45;&gt;dir_55964488a5749f1fcba45aaf4e122cee</title>
<path fill="none" stroke="#000000" d="M230.8274,-287.8676C234.9091,-277.5537 239.5501,-264.2804 242,-252 246.0758,-231.5697 247.2647,-208.0499 247.467,-190.1786"/>
<polygon fill="#000000" stroke="#000000" points="250.967,-190.1237 247.4846,-180.1176 243.967,-190.1114 250.967,-190.1237"/>
<g id="a_edge16&#45;headlabel"><a xlink:href="dir_000524_000519.html" target="_top" xlink:title="15">
<text text-anchor="middle" x="253.8001" y="-191.2232" font-family="Helvetica,sans-Serif" font-size="10.00" fill="#000000">15</text>
</a>
</g>
</g>
<!-- dir_0cfbacb297625179725e3de4f30c0e94 -->
<g id="node4" class="node">
<title>dir_0cfbacb297625179725e3de4f30c0e94</title>
<g id="a_node4"><a xlink:href="dir_0cfbacb297625179725e3de4f30c0e94.html" target="_top" xlink:title="ElecMap">
<polygon fill="#ffffff" stroke="#ff0000" points="101.5,-252 44.5,-252 44.5,-216 101.5,-216 101.5,-252"/>
<text text-anchor="middle" x="73" y="-231.5" font-family="Helvetica,sans-Serif" font-size="10.00" fill="#000000">ElecMap</text>
</a>
</g>
</g>
<!-- dir_060542ae88c3eb8c9b22a30de881a7e9&#45;&gt;dir_0cfbacb297625179725e3de4f30c0e94 -->
<g id="edge15" class="edge">
<title>dir_060542ae88c3eb8c9b22a30de881a7e9&#45;&gt;dir_0cfbacb297625179725e3de4f30c0e94</title>
<path fill="none" stroke="#000000" d="M194.4331,-292.2879C170.7374,-280.9139 136.8468,-264.6465 110.8873,-252.1859"/>
<polygon fill="#000000" stroke="#000000" points="112.2455,-248.9555 101.7156,-247.7835 109.2163,-255.2662 112.2455,-248.9555"/>
<g id="a_edge15&#45;headlabel"><a xlink:href="dir_000524_000407.html" target="_top" xlink:title="6">
<text text-anchor="middle" x="116.7147" y="-245.4513" font-family="Helvetica,sans-Serif" font-size="10.00" fill="#000000">6</text>
</a>
</g>
</g>
<!-- dir_060542ae88c3eb8c9b22a30de881a7e9&#45;&gt;dir_cfadcf1c28477e06298c128044978e91 -->
<g id="edge17" class="edge">
<title>dir_060542ae88c3eb8c9b22a30de881a7e9&#45;&gt;dir_cfadcf1c28477e06298c128044978e91</title>
<path fill="none" stroke="#000000" d="M224.7082,-287.5244C225.5864,-277.1031 226.5622,-263.8368 227,-252 227.5914,-236.0109 230.8469,-231.5307 227,-216 222.6502,-198.439 213.409,-197.2642 208,-180 201.7348,-160.0029 199.011,-136.4658 197.8397,-118.478"/>
<polygon fill="#000000" stroke="#000000" points="201.3267,-118.1385 197.3037,-108.3372 194.3365,-118.508 201.3267,-118.1385"/>
<g id="a_edge17&#45;headlabel"><a xlink:href="dir_000524_000536.html" target="_top" xlink:title="11">
<text text-anchor="middle" x="204.3517" y="-119.0783" font-family="Helvetica,sans-Serif" font-size="10.00" fill="#000000">11</text>
</a>
</g>
</g>
<!-- dir_73a2990d2d1f2bd930bc27bf45f6b0c9 -->
<g id="node7" class="node">
<title>dir_73a2990d2d1f2bd930bc27bf45f6b0c9</title>
<g id="a_node7"><a xlink:href="dir_73a2990d2d1f2bd930bc27bf45f6b0c9.html" target="_top" xlink:title="testdata">
<polygon fill="#ffffff" stroke="#000000" points="217.5,-252 160.5,-252 160.5,-216 217.5,-216 217.5,-252"/>
<text text-anchor="middle" x="189" y="-231.5" font-family="Helvetica,sans-Serif" font-size="10.00" fill="#000000">testdata</text>
</a>
</g>
</g>
<!-- dir_060542ae88c3eb8c9b22a30de881a7e9&#45;&gt;dir_73a2990d2d1f2bd930bc27bf45f6b0c9 -->
<g id="edge14" class="edge">
<title>dir_060542ae88c3eb8c9b22a30de881a7e9&#45;&gt;dir_73a2990d2d1f2bd930bc27bf45f6b0c9</title>
<path fill="none" stroke="#000000" d="M214.4204,-287.8314C210.6642,-279.8771 206.1743,-270.369 202.0202,-261.5723"/>
<polygon fill="#000000" stroke="#000000" points="205.1301,-259.9612 197.6952,-252.4133 198.8004,-262.9503 205.1301,-259.9612"/>
<g id="a_edge14&#45;headlabel"><a xlink:href="dir_000524_000537.html" target="_top" xlink:title="1">
<text text-anchor="middle" x="209.2324" y="-259.4993" font-family="Helvetica,sans-Serif" font-size="10.00" fill="#000000">1</text>
</a>
</g>
</g>
<!-- dir_060542ae88c3eb8c9b22a30de881a7e9&#45;&gt;dir_2171f7ec022c5423887b07c69b2f5b48 -->
<g id="edge18" class="edge">
<title>dir_060542ae88c3eb8c9b22a30de881a7e9&#45;&gt;dir_2171f7ec022c5423887b07c69b2f5b48</title>
<path fill="none" stroke="#000000" d="M243.6618,-287.7786C278.3849,-255.611 347.1758,-184.8532 373,-108 380.3613,-86.0926 382.1172,-77.2368 373,-56 371.0705,-51.5056 368.3193,-47.2923 365.151,-43.4268"/>
<polygon fill="#000000" stroke="#000000" points="367.5838,-40.9043 358.1914,-36.002 362.4767,-45.6915 367.5838,-40.9043"/>
<g id="a_edge18&#45;headlabel"><a xlink:href="dir_000524_000076.html" target="_top" xlink:title="3">
<text text-anchor="middle" x="372.1136" y="-39.0852" font-family="Helvetica,sans-Serif" font-size="10.00" fill="#000000">3</text>
</a>
</g>
</g>
<!-- dir_0cfbacb297625179725e3de4f30c0e94&#45;&gt;dir_cfadcf1c28477e06298c128044978e91 -->
<g id="edge7" class="edge">
<title>dir_0cfbacb297625179725e3de4f30c0e94&#45;&gt;dir_cfadcf1c28477e06298c128044978e91</title>
<path fill="none" stroke="#000000" d="M78.461,-215.7978C84.9817,-196.3591 97.3968,-165.4582 116,-144 126.1646,-132.2754 139.4569,-122.015 152.326,-113.6766"/>
<polygon fill="#000000" stroke="#000000" points="154.4729,-116.4635 161.1241,-108.2165 150.7817,-110.5157 154.4729,-116.4635"/>
<g id="a_edge7&#45;headlabel"><a xlink:href="dir_000407_000536.html" target="_top" xlink:title="2">
<text text-anchor="middle" x="152.9158" y="-118.2713" font-family="Helvetica,sans-Serif" font-size="10.00" fill="#000000">2</text>
</a>
</g>
</g>
<!-- dir_934398cf98861ce15dff28db7cb4f35f -->
<g id="node5" class="node">
<title>dir_934398cf98861ce15dff28db7cb4f35f</title>
<g id="a_node5"><a xlink:href="dir_934398cf98861ce15dff28db7cb4f35f.html" target="_top" xlink:title="Encoder">
<polygon fill="#ffffff" stroke="#ff0000" points="164,-324 108,-324 108,-288 164,-288 164,-324"/>
<text text-anchor="middle" x="136" y="-303.5" font-family="Helvetica,sans-Serif" font-size="10.00" fill="#000000">Encoder</text>
</a>
</g>
</g>
<!-- dir_934398cf98861ce15dff28db7cb4f35f&#45;&gt;dir_55964488a5749f1fcba45aaf4e122cee -->
<g id="edge21" class="edge">
<title>dir_934398cf98861ce15dff28db7cb4f35f&#45;&gt;dir_55964488a5749f1fcba45aaf4e122cee</title>
<path fill="none" stroke="#000000" d="M134.8965,-287.7207C134.6416,-268.216 136.9851,-237.259 152,-216 165.2618,-197.2231 187.2529,-184.1234 206.7386,-175.5332"/>
<polygon fill="#000000" stroke="#000000" points="208.1553,-178.7348 216.0538,-171.6734 205.4756,-172.268 208.1553,-178.7348"/>
<g id="a_edge21&#45;headlabel"><a xlink:href="dir_000528_000519.html" target="_top" xlink:title="19">
<text text-anchor="middle" x="205.9213" y="-180.2338" font-family="Helvetica,sans-Serif" font-size="10.00" fill="#000000">19</text>
</a>
</g>
</g>
<!-- dir_934398cf98861ce15dff28db7cb4f35f&#45;&gt;dir_0cfbacb297625179725e3de4f30c0e94 -->
<g id="edge20" class="edge">
<title>dir_934398cf98861ce15dff28db7cb4f35f&#45;&gt;dir_0cfbacb297625179725e3de4f30c0e94</title>
<path fill="none" stroke="#000000" d="M120.1024,-287.8314C112.7722,-279.454 103.934,-269.3531 95.9031,-260.1749"/>
<polygon fill="#000000" stroke="#000000" points="98.3307,-257.6343 89.1116,-252.4133 93.0627,-262.2438 98.3307,-257.6343"/>
<g id="a_edge20&#45;headlabel"><a xlink:href="dir_000528_000407.html" target="_top" xlink:title="2">
<text text-anchor="middle" x="102.8345" y="-255.9698" font-family="Helvetica,sans-Serif" font-size="10.00" fill="#000000">2</text>
</a>
</g>
</g>
<!-- dir_934398cf98861ce15dff28db7cb4f35f&#45;&gt;dir_cfadcf1c28477e06298c128044978e91 -->
<g id="edge22" class="edge">
<title>dir_934398cf98861ce15dff28db7cb4f35f&#45;&gt;dir_cfadcf1c28477e06298c128044978e91</title>
<path fill="none" stroke="#000000" d="M132.9434,-287.7907C130.4723,-269.4092 128.2548,-240.3372 134,-216 142.6198,-179.486 163.5308,-141.4891 178.9074,-116.8977"/>
<polygon fill="#000000" stroke="#000000" points="182.0557,-118.471 184.4925,-108.1602 176.1576,-114.7009 182.0557,-118.471"/>
<g id="a_edge22&#45;headlabel"><a xlink:href="dir_000528_000536.html" target="_top" xlink:title="16">
<text text-anchor="middle" x="182.512" y="-120.5289" font-family="Helvetica,sans-Serif" font-size="10.00" fill="#000000">16</text>
</a>
</g>
</g>
<!-- dir_934398cf98861ce15dff28db7cb4f35f&#45;&gt;dir_73a2990d2d1f2bd930bc27bf45f6b0c9 -->
<g id="edge19" class="edge">
<title>dir_934398cf98861ce15dff28db7cb4f35f&#45;&gt;dir_73a2990d2d1f2bd930bc27bf45f6b0c9</title>
<path fill="none" stroke="#000000" d="M149.3741,-287.8314C155.4162,-279.6232 162.6763,-269.7606 169.3221,-260.7323"/>
<polygon fill="#000000" stroke="#000000" points="172.3363,-262.5415 175.4458,-252.4133 166.6989,-258.3918 172.3363,-262.5415"/>
<g id="a_edge19&#45;headlabel"><a xlink:href="dir_000528_000537.html" target="_top" xlink:title="1">
<text text-anchor="middle" x="172.4919" y="-264.6195" font-family="Helvetica,sans-Serif" font-size="10.00" fill="#000000">1</text>
</a>
</g>
</g>
<!-- dir_cfadcf1c28477e06298c128044978e91&#45;&gt;dir_55964488a5749f1fcba45aaf4e122cee -->
<g id="edge11" class="edge">
<title>dir_cfadcf1c28477e06298c128044978e91&#45;&gt;dir_55964488a5749f1fcba45aaf4e122cee</title>
<path fill="none" stroke="#000000" d="M215.763,-108.4133C222.2066,-116.569 229.1694,-126.3212 234.9761,-135.257"/>
<polygon fill="#000000" stroke="#000000" points="232.0671,-137.2065 240.3353,-143.8314 238.0031,-133.4964 232.0671,-137.2065"/>
<g id="a_edge11&#45;headlabel"><a xlink:href="dir_000536_000519.html" target="_top" xlink:title="3">
<text text-anchor="middle" x="227.7543" y="-133.1632" font-family="Helvetica,sans-Serif" font-size="10.00" fill="#000000">3</text>
</a>
</g>
</g>
<!-- dir_cfadcf1c28477e06298c128044978e91&#45;&gt;dir_2171f7ec022c5423887b07c69b2f5b48 -->
<g id="edge12" class="edge">
<title>dir_cfadcf1c28477e06298c128044978e91&#45;&gt;dir_2171f7ec022c5423887b07c69b2f5b48</title>
<path fill="none" stroke="#000000" d="M226.854,-71.9091C235.8224,-66.6352 245.74,-60.9603 255,-56 264.6578,-50.8266 275.1241,-45.5254 285.1598,-40.5867"/>
<polygon fill="#000000" stroke="#000000" points="286.7667,-43.6972 294.2198,-36.1671 283.6976,-37.4058 286.7667,-43.6972"/>
<g id="a_edge12&#45;headlabel"><a xlink:href="dir_000536_000076.html" target="_top" xlink:title="1">
<text text-anchor="middle" x="284.7808" y="-45.3249" font-family="Helvetica,sans-Serif" font-size="10.00" fill="#000000">1</text>
</a>
</g>
</g>
<!-- dir_73a2990d2d1f2bd930bc27bf45f6b0c9&#45;&gt;dir_55964488a5749f1fcba45aaf4e122cee -->
<g id="edge6" class="edge">
<title>dir_73a2990d2d1f2bd930bc27bf45f6b0c9&#45;&gt;dir_55964488a5749f1fcba45aaf4e122cee</title>
<path fill="none" stroke="#000000" d="M203.6358,-215.8314C210.3161,-207.5386 218.3568,-197.557 225.6904,-188.4533"/>
<polygon fill="#000000" stroke="#000000" points="228.6194,-190.3965 232.1671,-180.4133 223.1681,-186.0052 228.6194,-190.3965"/>
<g id="a_edge6&#45;headlabel"><a xlink:href="dir_000537_000519.html" target="_top" xlink:title="2">
<text text-anchor="middle" x="228.5755" y="-192.4769" font-family="Helvetica,sans-Serif" font-size="10.00" fill="#000000">2</text>
</a>
</g>
</g>
<!-- dir_2bb804cc1feaa9aef5aea768203368cd -->
<g id="node8" class="node">
<title>dir_2bb804cc1feaa9aef5aea768203368cd</title>
<g id="a_node8"><a xlink:href="dir_2bb804cc1feaa9aef5aea768203368cd.html" target="_top" xlink:title="Tools">
<polygon fill="#ffffff" stroke="#000000" points="206,-396 152,-396 152,-360 206,-360 206,-396"/>
<text text-anchor="middle" x="179" y="-375.5" font-family="Helvetica,sans-Serif" font-size="10.00" fill="#000000">Tools</text>
</a>
</g>
</g>
<!-- dir_2bb804cc1feaa9aef5aea768203368cd&#45;&gt;dir_55964488a5749f1fcba45aaf4e122cee -->
<g id="edge2" class="edge">
<title>dir_2bb804cc1feaa9aef5aea768203368cd&#45;&gt;dir_55964488a5749f1fcba45aaf4e122cee</title>
<path fill="none" stroke="#000000" d="M206.4147,-363.6811C227.8256,-351.8596 254.9358,-335.2545 261,-324 283.8144,-281.6588 270.0606,-223.9219 258.3078,-190.0359"/>
<polygon fill="#000000" stroke="#000000" points="261.482,-188.5241 254.7673,-180.3287 254.9058,-190.9227 261.482,-188.5241"/>
<g id="a_edge2&#45;headlabel"><a xlink:href="dir_000538_000519.html" target="_top" xlink:title="1">
<text text-anchor="middle" x="265.381" y="-188.4282" font-family="Helvetica,sans-Serif" font-size="10.00" fill="#000000">1</text>
</a>
</g>
</g>
<!-- dir_2bb804cc1feaa9aef5aea768203368cd&#45;&gt;dir_060542ae88c3eb8c9b22a30de881a7e9 -->
<g id="edge4" class="edge">
<title>dir_2bb804cc1feaa9aef5aea768203368cd&#45;&gt;dir_060542ae88c3eb8c9b22a30de881a7e9</title>
<path fill="none" stroke="#000000" d="M190.1031,-359.8314C195.0674,-351.7079 201.0222,-341.9637 206.4928,-333.0118"/>
<polygon fill="#000000" stroke="#000000" points="209.5194,-334.7712 211.7474,-324.4133 203.5464,-331.121 209.5194,-334.7712"/>
<g id="a_edge4&#45;headlabel"><a xlink:href="dir_000538_000524.html" target="_top" xlink:title="1">
<text text-anchor="middle" x="210.0677" y="-336.8189" font-family="Helvetica,sans-Serif" font-size="10.00" fill="#000000">1</text>
</a>
</g>
</g>
<!-- dir_2bb804cc1feaa9aef5aea768203368cd&#45;&gt;dir_0cfbacb297625179725e3de4f30c0e94 -->
<g id="edge1" class="edge">
<title>dir_2bb804cc1feaa9aef5aea768203368cd&#45;&gt;dir_0cfbacb297625179725e3de4f30c0e94</title>
<path fill="none" stroke="#000000" d="M151.9688,-365.8752C134.4705,-356.7215 112.509,-342.5614 99,-324 85.8181,-305.888 79.2944,-281.213 76.08,-262.2801"/>
<polygon fill="#000000" stroke="#000000" points="79.5084,-261.5386 74.5789,-252.1604 72.5842,-262.5658 79.5084,-261.5386"/>
<g id="a_edge1&#45;headlabel"><a xlink:href="dir_000538_000407.html" target="_top" xlink:title="1">
<text text-anchor="middle" x="82.8443" y="-262.1778" font-family="Helvetica,sans-Serif" font-size="10.00" fill="#000000">1</text>
</a>
</g>
</g>
<!-- dir_2bb804cc1feaa9aef5aea768203368cd&#45;&gt;dir_cfadcf1c28477e06298c128044978e91 -->
<g id="edge3" class="edge">
<title>dir_2bb804cc1feaa9aef5aea768203368cd&#45;&gt;dir_cfadcf1c28477e06298c128044978e91</title>
<path fill="none" stroke="#000000" d="M151.6102,-368.1207C129.7253,-359.1846 99.2957,-344.3097 78,-324 40.6123,-288.3434 18.6622,-265.0134 35,-216 47.6491,-178.0527 58.2899,-169.6299 89,-144 106.9233,-129.0416 129.6904,-116.8786 149.6953,-107.9097"/>
<polygon fill="#000000" stroke="#000000" points="151.1805,-111.0806 158.9619,-103.8903 148.3949,-104.6587 151.1805,-111.0806"/>
<g id="a_edge3&#45;headlabel"><a xlink:href="dir_000538_000536.html" target="_top" xlink:title="1">
<text text-anchor="middle" x="149.0125" y="-112.6158" font-family="Helvetica,sans-Serif" font-size="10.00" fill="#000000">1</text>
</a>
</g>
</g>
<!-- dir_2bb804cc1feaa9aef5aea768203368cd&#45;&gt;dir_2171f7ec022c5423887b07c69b2f5b48 -->
<g id="edge5" class="edge">
<title>dir_2bb804cc1feaa9aef5aea768203368cd&#45;&gt;dir_2171f7ec022c5423887b07c69b2f5b48</title>
<path fill="none" stroke="#000000" d="M206.3392,-363.9277C271.3929,-330.2353 430,-246.7794 430,-234 430,-234 430,-234 430,-162 430,-111.6462 421.3406,-95.4116 390,-56 385.968,-50.9296 381.0713,-46.2966 375.8604,-42.1443"/>
<polygon fill="#000000" stroke="#000000" points="377.6296,-39.102 367.4925,-36.0214 373.496,-44.7512 377.6296,-39.102"/>
<g id="a_edge5&#45;headlabel"><a xlink:href="dir_000538_000076.html" target="_top" xlink:title="1">
<text text-anchor="middle" x="382.2071" y="-36.4332" font-family="Helvetica,sans-Serif" font-size="10.00" fill="#000000">1</text>
</a>
</g>
</g>
<!-- dir_4ab6b4cc6a7edbff49100e9123df213f&#45;&gt;dir_2171f7ec022c5423887b07c69b2f5b48 -->
<g id="edge13" class="edge">
<title>dir_4ab6b4cc6a7edbff49100e9123df213f&#45;&gt;dir_2171f7ec022c5423887b07c69b2f5b48</title>
<path fill="none" stroke="#000000" d="M327.0476,-71.8314C326.2972,-64.131 326.0763,-54.9743 326.3849,-46.4166"/>
<polygon fill="#000000" stroke="#000000" points="329.8792,-46.6161 327.024,-36.4133 322.8935,-46.1697 329.8792,-46.6161"/>
<g id="a_edge13&#45;headlabel"><a xlink:href="dir_000027_000076.html" target="_top" xlink:title="2">
<text text-anchor="middle" x="332.4836" y="-47.8844" font-family="Helvetica,sans-Serif" font-size="10.00" fill="#000000">2</text>
</a>
</g>
</g>
<!-- dir_2171f7ec022c5423887b07c69b2f5b48&#45;&gt;dir_4ab6b4cc6a7edbff49100e9123df213f -->
<g id="edge23" class="edge">
<title>dir_2171f7ec022c5423887b07c69b2f5b48&#45;&gt;dir_4ab6b4cc6a7edbff49100e9123df213f</title>
<path fill="none" stroke="#000000" d="M338.976,-36.4133C339.7071,-44.0593 339.9203,-53.1084 339.6155,-61.5726"/>
<polygon fill="#000000" stroke="#000000" points="336.1048,-61.6264 338.9524,-71.8314 343.0902,-62.078 336.1048,-61.6264"/>
<g id="a_edge23&#45;headlabel"><a xlink:href="dir_000076_000027.html" target="_top" xlink:title="34">
<text text-anchor="middle" x="333.5032" y="-55.3562" font-family="Helvetica,sans-Serif" font-size="10.00" fill="#000000">34</text>
</a>
</g>
</g>
</g>
</svg>
