<?xml version="1.0" encoding="UTF-8" standalone="no"?>
<!DOCTYPE svg PUBLIC "-//W3C//DTD SVG 1.1//EN"
 "http://www.w3.org/Graphics/SVG/1.1/DTD/svg11.dtd">
<!-- Generated by graphviz version 2.40.1 (20161225.0304)
 -->
<!-- Title: Graphical Class Hierarchy Pages: 1 -->
<svg width="571pt" height="1089pt"
 viewBox="0.00 0.00 571.00 1089.00" xmlns="http://www.w3.org/2000/svg" xmlns:xlink="http://www.w3.org/1999/xlink">
<g id="graph0" class="graph" transform="scale(1 1) rotate(0) translate(4 1085)">
<title>Graphical Class Hierarchy</title>
<!-- Node115 -->
<g id="node1" class="node">
<title>Node115</title>
<polygon fill="none" stroke="#bfbfbf" points="0,-492 0,-511 63,-511 63,-492 0,-492"/>
<text text-anchor="middle" x="31.5" y="-499" font-family="Helvetica,sans-Serif" font-size="10.00" fill="#000000">true_type</text>
</g>
<!-- Node0 -->
<g id="node2" class="node">
<title>Node0</title>
<g id="a_node2"><a xlink:href="dd/dde/structnlohmann_1_1detail_1_1conjunction.html" target="_top" xlink:title="nlohmann::detail::conjunction\l\&lt; is_complete_type\&lt; CompatibleType\l \&gt;, is_compatible_complete_type\l\&lt; BasicJsonType, CompatibleType \&gt; \&gt;">
<polygon fill="none" stroke="#000000" points="130.5,-1028.5 130.5,-1080.5 334.5,-1080.5 334.5,-1028.5 130.5,-1028.5"/>
<text text-anchor="start" x="138.5" y="-1068.5" font-family="Helvetica,sans-Serif" font-size="10.00" fill="#000000">nlohmann::detail::conjunction</text>
<text text-anchor="start" x="138.5" y="-1057.5" font-family="Helvetica,sans-Serif" font-size="10.00" fill="#000000">&lt; is_complete_type&lt; CompatibleType</text>
<text text-anchor="start" x="138.5" y="-1046.5" font-family="Helvetica,sans-Serif" font-size="10.00" fill="#000000"> &gt;, is_compatible_complete_type</text>
<text text-anchor="middle" x="232.5" y="-1035.5" font-family="Helvetica,sans-Serif" font-size="10.00" fill="#000000">&lt; BasicJsonType, CompatibleType &gt; &gt;</text>
</a>
</g>
</g>
<!-- Node115&#45;&gt;Node0 -->
<g id="edge1" class="edge">
<title>Node115&#45;&gt;Node0</title>
<path fill="none" stroke="#191970" d="M32.7743,-521.179C38.7749,-611.2296 65.3383,-981.2736 99,-1019.5 107.5508,-1029.2103 118.4343,-1036.3815 130.2859,-1041.6525"/>
<polygon fill="#191970" stroke="#191970" points="36.2538,-520.7516 32.1048,-511.0029 29.2689,-521.2111 36.2538,-520.7516"/>
</g>
<!-- Node118 -->
<g id="node4" class="node">
<title>Node118</title>
<g id="a_node4"><a xlink:href="dd/dde/structnlohmann_1_1detail_1_1conjunction.html" target="_top" xlink:title="nlohmann::detail::conjunction\l\&lt;... \&gt;">
<polygon fill="none" stroke="#000000" points="152,-979.5 152,-1009.5 313,-1009.5 313,-979.5 152,-979.5"/>
<text text-anchor="start" x="160" y="-997.5" font-family="Helvetica,sans-Serif" font-size="10.00" fill="#000000">nlohmann::detail::conjunction</text>
<text text-anchor="middle" x="232.5" y="-986.5" font-family="Helvetica,sans-Serif" font-size="10.00" fill="#000000">&lt;... &gt;</text>
</a>
</g>
</g>
<!-- Node115&#45;&gt;Node118 -->
<g id="edge3" class="edge">
<title>Node115&#45;&gt;Node118</title>
<path fill="none" stroke="#191970" d="M33.018,-521.4519C39.6736,-606.5727 67.3575,-936.5038 99,-969.5 112.8727,-983.9662 132.2507,-991.582 151.9488,-995.3018"/>
<polygon fill="#191970" stroke="#191970" points="36.4951,-521.0191 32.2352,-511.3184 29.5159,-521.5583 36.4951,-521.0191"/>
</g>
<!-- Node119 -->
<g id="node5" class="node">
<title>Node119</title>
<g id="a_node5"><a xlink:href="d8/d25/structnlohmann_1_1detail_1_1is__basic__json_3_01NLOHMANN__BASIC__JSON__TPL_01_4.html" target="_top" xlink:title="nlohmann::detail::is\l_basic_json\&lt; NLOHMANN\l_BASIC_JSON_TPL \&gt;">
<polygon fill="none" stroke="#000000" points="161.5,-919 161.5,-960 303.5,-960 303.5,-919 161.5,-919"/>
<text text-anchor="start" x="169.5" y="-948" font-family="Helvetica,sans-Serif" font-size="10.00" fill="#000000">nlohmann::detail::is</text>
<text text-anchor="start" x="169.5" y="-937" font-family="Helvetica,sans-Serif" font-size="10.00" fill="#000000">_basic_json&lt; NLOHMANN</text>
<text text-anchor="middle" x="232.5" y="-926" font-family="Helvetica,sans-Serif" font-size="10.00" fill="#000000">_BASIC_JSON_TPL &gt;</text>
</a>
</g>
</g>
<!-- Node115&#45;&gt;Node119 -->
<g id="edge4" class="edge">
<title>Node115&#45;&gt;Node119</title>
<path fill="none" stroke="#191970" d="M31.9454,-521.2297C34.0184,-594.8764 45.0694,-852.399 99,-909.5 115.0664,-926.5109 138.5332,-934.8727 161.327,-938.7228"/>
<polygon fill="#191970" stroke="#191970" points="35.4396,-520.9546 31.6846,-511.0475 28.4419,-521.1339 35.4396,-520.9546"/>
</g>
<!-- Node120 -->
<g id="node6" class="node">
<title>Node120</title>
<g id="a_node6"><a xlink:href="dd/dcd/structnlohmann_1_1detail_1_1is__complete__type_3_01T_00_01decltype_07void_07sizeof_07T_08_08_08_4.html" target="_top" xlink:title="nlohmann::detail::is\l_complete_type\&lt; T, decltype\l(void(sizeof(T)))\&gt;">
<polygon fill="none" stroke="#000000" points="152.5,-859 152.5,-900 312.5,-900 312.5,-859 152.5,-859"/>
<text text-anchor="start" x="160.5" y="-888" font-family="Helvetica,sans-Serif" font-size="10.00" fill="#000000">nlohmann::detail::is</text>
<text text-anchor="start" x="160.5" y="-877" font-family="Helvetica,sans-Serif" font-size="10.00" fill="#000000">_complete_type&lt; T, decltype</text>
<text text-anchor="middle" x="232.5" y="-866" font-family="Helvetica,sans-Serif" font-size="10.00" fill="#000000">(void(sizeof(T)))&gt;</text>
</a>
</g>
</g>
<!-- Node115&#45;&gt;Node120 -->
<g id="edge5" class="edge">
<title>Node115&#45;&gt;Node120</title>
<path fill="none" stroke="#191970" d="M32.5421,-521.3412C36.457,-588.0823 52.5139,-802.9392 99,-850.5 113.0914,-864.9172 132.5429,-872.9576 152.2416,-877.2663"/>
<polygon fill="#191970" stroke="#191970" points="36.0339,-521.0952 31.981,-511.3062 29.0448,-521.486 36.0339,-521.0952"/>
</g>
<!-- Node121 -->
<g id="node7" class="node">
<title>Node121</title>
<g id="a_node7"><a xlink:href="d0/d7f/structo2_1_1framework_1_1has__root__dictionary_3_01T_00_01std_1_1conditional__t_3_01false_00_01c3a7047afd30b3fd4df3d429b8c4e1a22.html" target="_top" xlink:title="o2::framework::has\l_root_dictionary\&lt; T,\l std::conditional_t\&lt;\l false, class_member_checker\l\&lt; decltype(std::declval\&lt; T\l \&gt;().Class())\&gt;, void \&gt; \&gt;">
<polygon fill="none" stroke="#000000" points="150.5,-766.5 150.5,-840.5 314.5,-840.5 314.5,-766.5 150.5,-766.5"/>
<text text-anchor="start" x="158.5" y="-828.5" font-family="Helvetica,sans-Serif" font-size="10.00" fill="#000000">o2::framework::has</text>
<text text-anchor="start" x="158.5" y="-817.5" font-family="Helvetica,sans-Serif" font-size="10.00" fill="#000000">_root_dictionary&lt; T,</text>
<text text-anchor="start" x="158.5" y="-806.5" font-family="Helvetica,sans-Serif" font-size="10.00" fill="#000000"> std::conditional_t&lt;</text>
<text text-anchor="start" x="158.5" y="-795.5" font-family="Helvetica,sans-Serif" font-size="10.00" fill="#000000"> false, class_member_checker</text>
<text text-anchor="start" x="158.5" y="-784.5" font-family="Helvetica,sans-Serif" font-size="10.00" fill="#000000">&lt; decltype(std::declval&lt; T</text>
<text text-anchor="middle" x="232.5" y="-773.5" font-family="Helvetica,sans-Serif" font-size="10.00" fill="#000000"> &gt;().Class())&gt;, void &gt; &gt;</text>
</a>
</g>
</g>
<!-- Node115&#45;&gt;Node121 -->
<g id="edge6" class="edge">
<title>Node115&#45;&gt;Node121</title>
<path fill="none" stroke="#191970" d="M34.2997,-521.194C42.2789,-574.768 66.6617,-721.4746 99,-756.5 112.668,-771.3038 131.2771,-781.4461 150.2595,-788.3943"/>
<polygon fill="#191970" stroke="#191970" points="37.7559,-520.6393 32.849,-511.2492 30.8292,-521.6497 37.7559,-520.6393"/>
</g>
<!-- Node122 -->
<g id="node8" class="node">
<title>Node122</title>
<g id="a_node8"><a xlink:href="da/da0/structo2_1_1framework_1_1is__boost__serializable__base_3_01Type_00_01Archive_00_01std_1_1void__td3dce5790dbc08a548e1efe654c16a22.html" target="_top" xlink:title="o2::framework::is_boost\l_serializable_base\&lt; Type,\l Archive, std::void_t\&lt; decltype\l(std::declval\&lt; Type &amp; \&gt;().serialize\l(std::declval\&lt; Archive &amp; \&gt;(), 0))\&gt; \&gt;">
<polygon fill="none" stroke="#000000" points="136,-684 136,-747 329,-747 329,-684 136,-684"/>
<text text-anchor="start" x="144" y="-735" font-family="Helvetica,sans-Serif" font-size="10.00" fill="#000000">o2::framework::is_boost</text>
<text text-anchor="start" x="144" y="-724" font-family="Helvetica,sans-Serif" font-size="10.00" fill="#000000">_serializable_base&lt; Type,</text>
<text text-anchor="start" x="144" y="-713" font-family="Helvetica,sans-Serif" font-size="10.00" fill="#000000"> Archive, std::void_t&lt; decltype</text>
<text text-anchor="start" x="144" y="-702" font-family="Helvetica,sans-Serif" font-size="10.00" fill="#000000">(std::declval&lt; Type &amp; &gt;().serialize</text>
<text text-anchor="middle" x="232.5" y="-691" font-family="Helvetica,sans-Serif" font-size="10.00" fill="#000000">(std::declval&lt; Archive &amp; &gt;(), 0))&gt; &gt;</text>
</a>
</g>
</g>
<!-- Node115&#45;&gt;Node122 -->
<g id="edge7" class="edge">
<title>Node115&#45;&gt;Node122</title>
<path fill="none" stroke="#191970" d="M33.6647,-521.5325C38.6089,-557.4001 54.019,-632.7317 99,-674.5 109.5713,-684.3163 122.4403,-691.7843 135.9678,-697.4654"/>
<polygon fill="#191970" stroke="#191970" points="37.1081,-520.8592 32.4029,-511.3665 30.1614,-521.7215 37.1081,-520.8592"/>
</g>
<!-- Node123 -->
<g id="node9" class="node">
<title>Node123</title>
<g id="a_node9"><a xlink:href="d5/d30/structo2_1_1framework_1_1is__bounded__array_3_01std_1_1array_3_01T_00_01N_01_4_01_4.html" target="_top" xlink:title="o2::framework::is_bounded\l_array\&lt; std::array\&lt; T, N \&gt; \&gt;">
<polygon fill="none" stroke="#000000" points="153.5,-634.5 153.5,-664.5 311.5,-664.5 311.5,-634.5 153.5,-634.5"/>
<text text-anchor="start" x="161.5" y="-652.5" font-family="Helvetica,sans-Serif" font-size="10.00" fill="#000000">o2::framework::is_bounded</text>
<text text-anchor="middle" x="232.5" y="-641.5" font-family="Helvetica,sans-Serif" font-size="10.00" fill="#000000">_array&lt; std::array&lt; T, N &gt; &gt;</text>
</a>
</g>
</g>
<!-- Node115&#45;&gt;Node123 -->
<g id="edge8" class="edge">
<title>Node115&#45;&gt;Node123</title>
<path fill="none" stroke="#191970" d="M36.3429,-520.9275C44.3669,-548.8144 63.2045,-599.6694 99,-625.5 114.7541,-636.8684 134.2189,-643.4021 153.3665,-647.0364"/>
<polygon fill="#191970" stroke="#191970" points="39.6887,-519.8917 33.7048,-511.1485 32.9303,-521.7149 39.6887,-519.8917"/>
</g>
<!-- Node124 -->
<g id="node10" class="node">
<title>Node124</title>
<g id="a_node10"><a xlink:href="d1/d33/structo2_1_1framework_1_1is__bounded__array_3_01T[N]_4.html" target="_top" xlink:title="o2::framework::is_bounded\l_array\&lt; T[N]\&gt;">
<polygon fill="none" stroke="#000000" points="158,-585.5 158,-615.5 307,-615.5 307,-585.5 158,-585.5"/>
<text text-anchor="start" x="166" y="-603.5" font-family="Helvetica,sans-Serif" font-size="10.00" fill="#000000">o2::framework::is_bounded</text>
<text text-anchor="middle" x="232.5" y="-592.5" font-family="Helvetica,sans-Serif" font-size="10.00" fill="#000000">_array&lt; T[N]&gt;</text>
</a>
</g>
</g>
<!-- Node115&#45;&gt;Node124 -->
<g id="edge9" class="edge">
<title>Node115&#45;&gt;Node124</title>
<path fill="none" stroke="#191970" d="M42.9093,-519.6486C54.7522,-536.8773 74.9027,-562.0775 99,-575.5 116.8189,-585.4254 137.8378,-591.4976 157.8598,-595.1874"/>
<polygon fill="#191970" stroke="#191970" points="45.6439,-517.4381 37.2124,-511.0225 39.8028,-521.2958 45.6439,-517.4381"/>
</g>
<!-- Node125 -->
<g id="node11" class="node">
<title>Node125</title>
<g id="a_node11"><a xlink:href="de/d5c/structo2_1_1framework_1_1is__container_3_01T_00_01std_1_1conditional__t_3_01false_00_01class__mef60b0640f3a7413451971b3764fe2133.html" target="_top" xlink:title="o2::framework::is_container\l\&lt; T, std::conditional_t\l\&lt; false, class_member_checker\l\&lt; typename T::value_type, typename\l T::size_type, typename T::allocator\l_type, typename T::iterator, typename\l T::const_iterator, decltype(std::declval\l\&lt; T \&gt;().size()), decltype(std::declval\&lt;\l T \&gt;().begin()), decltype(std::declval\&lt; T\l \&gt;().end()), decltype(std::declval\&lt; T \&gt;().cbegin\l()), decltype(std::declval\&lt; T \&gt;().cend())\&gt;, void \&gt; \&gt;">
<polygon fill="none" stroke="#000000" points="99,-437 99,-566 366,-566 366,-437 99,-437"/>
<text text-anchor="start" x="107" y="-554" font-family="Helvetica,sans-Serif" font-size="10.00" fill="#000000">o2::framework::is_container</text>
<text text-anchor="start" x="107" y="-543" font-family="Helvetica,sans-Serif" font-size="10.00" fill="#000000">&lt; T, std::conditional_t</text>
<text text-anchor="start" x="107" y="-532" font-family="Helvetica,sans-Serif" font-size="10.00" fill="#000000">&lt; false, class_member_checker</text>
<text text-anchor="start" x="107" y="-521" font-family="Helvetica,sans-Serif" font-size="10.00" fill="#000000">&lt; typename T::value_type, typename</text>
<text text-anchor="start" x="107" y="-510" font-family="Helvetica,sans-Serif" font-size="10.00" fill="#000000"> T::size_type, typename T::allocator</text>
<text text-anchor="start" x="107" y="-499" font-family="Helvetica,sans-Serif" font-size="10.00" fill="#000000">_type, typename T::iterator, typename</text>
<text text-anchor="start" x="107" y="-488" font-family="Helvetica,sans-Serif" font-size="10.00" fill="#000000"> T::const_iterator, decltype(std::declval</text>
<text text-anchor="start" x="107" y="-477" font-family="Helvetica,sans-Serif" font-size="10.00" fill="#000000">&lt; T &gt;().size()), decltype(std::declval&lt;</text>
<text text-anchor="start" x="107" y="-466" font-family="Helvetica,sans-Serif" font-size="10.00" fill="#000000"> T &gt;().begin()), decltype(std::declval&lt; T</text>
<text text-anchor="start" x="107" y="-455" font-family="Helvetica,sans-Serif" font-size="10.00" fill="#000000"> &gt;().end()), decltype(std::declval&lt; T &gt;().cbegin</text>
<text text-anchor="middle" x="232.5" y="-444" font-family="Helvetica,sans-Serif" font-size="10.00" fill="#000000">()), decltype(std::declval&lt; T &gt;().cend())&gt;, void &gt; &gt;</text>
</a>
</g>
</g>
<!-- Node115&#45;&gt;Node125 -->
<g id="edge10" class="edge">
<title>Node115&#45;&gt;Node125</title>
<path fill="none" stroke="#191970" d="M73.509,-501.5C81.3099,-501.5 89.8321,-501.5 98.7478,-501.5"/>
<polygon fill="#191970" stroke="#191970" points="73.3491,-498.0001 63.349,-501.5 73.349,-505.0001 73.3491,-498.0001"/>
</g>
<!-- Node126 -->
<g id="node12" class="node">
<title>Node126</title>
<g id="a_node12"><a xlink:href="df/ddf/structo2_1_1framework_1_1is__forced__non__messageable_3_01T_00_01typename_01std_1_1enable__if_3_9497e1cc58c5001cfb1a9a57a11a8068.html" target="_top" xlink:title="o2::framework::is_forced\l_non_messageable\&lt; T, typename\l std::enable_if\&lt; std::is_same\l\&lt; typename T::non_messageable,\l MarkAsNonMessageable \&gt;::value\l \&gt;::type \&gt;">
<polygon fill="none" stroke="#000000" points="141,-343.5 141,-417.5 324,-417.5 324,-343.5 141,-343.5"/>
<text text-anchor="start" x="149" y="-405.5" font-family="Helvetica,sans-Serif" font-size="10.00" fill="#000000">o2::framework::is_forced</text>
<text text-anchor="start" x="149" y="-394.5" font-family="Helvetica,sans-Serif" font-size="10.00" fill="#000000">_non_messageable&lt; T, typename</text>
<text text-anchor="start" x="149" y="-383.5" font-family="Helvetica,sans-Serif" font-size="10.00" fill="#000000"> std::enable_if&lt; std::is_same</text>
<text text-anchor="start" x="149" y="-372.5" font-family="Helvetica,sans-Serif" font-size="10.00" fill="#000000">&lt; typename T::non_messageable,</text>
<text text-anchor="start" x="149" y="-361.5" font-family="Helvetica,sans-Serif" font-size="10.00" fill="#000000"> MarkAsNonMessageable &gt;::value</text>
<text text-anchor="middle" x="232.5" y="-350.5" font-family="Helvetica,sans-Serif" font-size="10.00" fill="#000000"> &gt;::type &gt;</text>
</a>
</g>
</g>
<!-- Node115&#45;&gt;Node126 -->
<g id="edge11" class="edge">
<title>Node115&#45;&gt;Node126</title>
<path fill="none" stroke="#191970" d="M43.7787,-483.6019C56.0231,-466.9713 76.2466,-442.5674 99,-427.5 111.8043,-419.021 126.3137,-411.8807 140.9324,-405.9308"/>
<polygon fill="#191970" stroke="#191970" points="40.7931,-481.7602 37.8317,-491.9328 46.4904,-485.8273 40.7931,-481.7602"/>
</g>
<!-- Node127 -->
<g id="node13" class="node">
<title>Node127</title>
<g id="a_node13"><a xlink:href="d2/dd2/structo2_1_1framework_1_1is__messageable_3_01o2_1_1itsmft_1_1Cluster_01_4.html" target="_top" xlink:title="o2::framework::is_messageable\l\&lt; o2::itsmft::Cluster \&gt;">
<polygon fill="none" stroke="#000000" points="146,-294.5 146,-324.5 319,-324.5 319,-294.5 146,-294.5"/>
<text text-anchor="start" x="154" y="-312.5" font-family="Helvetica,sans-Serif" font-size="10.00" fill="#000000">o2::framework::is_messageable</text>
<text text-anchor="middle" x="232.5" y="-301.5" font-family="Helvetica,sans-Serif" font-size="10.00" fill="#000000">&lt; o2::itsmft::Cluster &gt;</text>
</a>
</g>
</g>
<!-- Node115&#45;&gt;Node127 -->
<g id="edge12" class="edge">
<title>Node115&#45;&gt;Node127</title>
<path fill="none" stroke="#191970" d="M33.4492,-481.6482C38.0483,-446.2015 52.9252,-372.2108 99,-334.5 112.3205,-323.5975 128.8996,-316.88 145.7958,-312.8473"/>
<polygon fill="#191970" stroke="#191970" points="29.9578,-481.3729 32.2906,-491.7077 36.9119,-482.1739 29.9578,-481.3729"/>
</g>
<!-- Node128 -->
<g id="node14" class="node">
<title>Node128</title>
<g id="a_node14"><a xlink:href="dd/dc9/structo2_1_1framework_1_1is__messageable_3_01o2_1_1mft_1_1TrackMFT_01_4.html" target="_top" xlink:title="o2::framework::is_messageable\l\&lt; o2::mft::TrackMFT \&gt;">
<polygon fill="none" stroke="#000000" points="146,-245.5 146,-275.5 319,-275.5 319,-245.5 146,-245.5"/>
<text text-anchor="start" x="154" y="-263.5" font-family="Helvetica,sans-Serif" font-size="10.00" fill="#000000">o2::framework::is_messageable</text>
<text text-anchor="middle" x="232.5" y="-252.5" font-family="Helvetica,sans-Serif" font-size="10.00" fill="#000000">&lt; o2::mft::TrackMFT &gt;</text>
</a>
</g>
</g>
<!-- Node115&#45;&gt;Node128 -->
<g id="edge13" class="edge">
<title>Node115&#45;&gt;Node128</title>
<path fill="none" stroke="#191970" d="M34.9981,-481.7747C43.9344,-433.6369 69.0251,-312.1377 99,-285.5 112.0431,-273.909 128.7006,-266.9302 145.793,-262.8655"/>
<polygon fill="#191970" stroke="#191970" points="31.5115,-481.3861 33.1662,-491.8509 38.3986,-482.6383 31.5115,-481.3861"/>
</g>
<!-- Node129 -->
<g id="node15" class="node">
<title>Node129</title>
<g id="a_node15"><a xlink:href="d5/d34/structo2_1_1framework_1_1is__messageable_3_01o2_1_1tof_1_1Cluster_01_4.html" target="_top" xlink:title="o2::framework::is_messageable\l\&lt; o2::tof::Cluster \&gt;">
<polygon fill="none" stroke="#000000" points="146,-196.5 146,-226.5 319,-226.5 319,-196.5 146,-196.5"/>
<text text-anchor="start" x="154" y="-214.5" font-family="Helvetica,sans-Serif" font-size="10.00" fill="#000000">o2::framework::is_messageable</text>
<text text-anchor="middle" x="232.5" y="-203.5" font-family="Helvetica,sans-Serif" font-size="10.00" fill="#000000">&lt; o2::tof::Cluster &gt;</text>
</a>
</g>
</g>
<!-- Node115&#45;&gt;Node129 -->
<g id="edge14" class="edge">
<title>Node115&#45;&gt;Node129</title>
<path fill="none" stroke="#191970" d="M33.7753,-481.8632C40.6024,-426.4243 62.7119,-270.527 99,-236.5 111.8146,-224.4839 128.4769,-217.3442 145.662,-213.2605"/>
<polygon fill="#191970" stroke="#191970" points="30.2971,-481.4727 32.5822,-491.8182 37.2474,-482.3057 30.2971,-481.4727"/>
</g>
<!-- Node130 -->
<g id="node16" class="node">
<title>Node130</title>
<g id="a_node16"><a xlink:href="d2/dc9/structo2_1_1framework_1_1is__messageable_3_01o2_1_1zdc_1_1RecEvent_01_4.html" target="_top" xlink:title="o2::framework::is_messageable\l\&lt; o2::zdc::RecEvent \&gt;">
<polygon fill="none" stroke="#000000" points="146,-147.5 146,-177.5 319,-177.5 319,-147.5 146,-147.5"/>
<text text-anchor="start" x="154" y="-165.5" font-family="Helvetica,sans-Serif" font-size="10.00" fill="#000000">o2::framework::is_messageable</text>
<text text-anchor="middle" x="232.5" y="-154.5" font-family="Helvetica,sans-Serif" font-size="10.00" fill="#000000">&lt; o2::zdc::RecEvent &gt;</text>
</a>
</g>
</g>
<!-- Node115&#45;&gt;Node130 -->
<g id="edge15" class="edge">
<title>Node115&#45;&gt;Node130</title>
<path fill="none" stroke="#191970" d="M32.9563,-481.6065C37.939,-419.1994 56.4086,-228.9723 99,-187.5 111.6705,-175.1624 128.3753,-167.9081 145.663,-163.8175"/>
<polygon fill="#191970" stroke="#191970" points="29.4567,-481.4683 32.1801,-491.7071 36.4361,-482.0047 29.4567,-481.4683"/>
</g>
<!-- Node131 -->
<g id="node17" class="node">
<title>Node131</title>
<g id="a_node17"><a xlink:href="d4/d04/structo2_1_1framework_1_1is__specialization_3_01Ref_3_01Args_8_8_8_01_4_00_01Ref_01_4.html" target="_top" xlink:title="o2::framework::is_specialization\l\&lt; Ref\&lt; Args... \&gt;, Ref \&gt;">
<polygon fill="none" stroke="#000000" points="145,-98.5 145,-128.5 320,-128.5 320,-98.5 145,-98.5"/>
<text text-anchor="start" x="153" y="-116.5" font-family="Helvetica,sans-Serif" font-size="10.00" fill="#000000">o2::framework::is_specialization</text>
<text text-anchor="middle" x="232.5" y="-105.5" font-family="Helvetica,sans-Serif" font-size="10.00" fill="#000000">&lt; Ref&lt; Args... &gt;, Ref &gt;</text>
</a>
</g>
</g>
<!-- Node115&#45;&gt;Node131 -->
<g id="edge16" class="edge">
<title>Node115&#45;&gt;Node131</title>
<path fill="none" stroke="#191970" d="M32.324,-481.7249C35.5944,-413.2248 49.9707,-187.5916 99,-138.5 111.3306,-126.1537 127.6874,-118.8562 144.7125,-114.7203"/>
<polygon fill="#191970" stroke="#191970" points="28.8161,-481.824 31.8634,-491.9711 35.809,-482.1384 28.8161,-481.824"/>
</g>
<!-- Node132 -->
<g id="node18" class="node">
<title>Node132</title>
<g id="a_node18"><a xlink:href="db/d8e/structo2_1_1soa_1_1is__index_3_01Ref_3_01Args_8_8_8_01_4_00_01Ref_01_4.html" target="_top" xlink:title="o2::soa::is_index\&lt;\l Ref\&lt; Args... \&gt;, Ref \&gt;">
<polygon fill="none" stroke="#000000" points="171.5,-49.5 171.5,-79.5 293.5,-79.5 293.5,-49.5 171.5,-49.5"/>
<text text-anchor="start" x="179.5" y="-67.5" font-family="Helvetica,sans-Serif" font-size="10.00" fill="#000000">o2::soa::is_index&lt;</text>
<text text-anchor="middle" x="232.5" y="-56.5" font-family="Helvetica,sans-Serif" font-size="10.00" fill="#000000"> Ref&lt; Args... &gt;, Ref &gt;</text>
</a>
</g>
</g>
<!-- Node115&#45;&gt;Node132 -->
<g id="edge17" class="edge">
<title>Node115&#45;&gt;Node132</title>
<path fill="none" stroke="#191970" d="M31.8506,-481.5161C33.5833,-406.9295 43.5723,-146.202 99,-89.5 117.5434,-70.5303 145.5702,-63.4052 171.1644,-61.3778"/>
<polygon fill="#191970" stroke="#191970" points="28.3449,-481.7587 31.6377,-491.8288 35.3434,-481.9032 28.3449,-481.7587"/>
</g>
<!-- Node133 -->
<g id="node19" class="node">
<title>Node133</title>
<g id="a_node19"><a xlink:href="dc/d6e/structstd_1_1is__trivially__copyable_3_01Point3D_3_01T_01_4_01_4.html" target="_top" xlink:title="std::is_trivially_copyable\l\&lt; Point3D\&lt; T \&gt; \&gt;">
<polygon fill="none" stroke="#000000" points="163.5,-.5 163.5,-30.5 301.5,-30.5 301.5,-.5 163.5,-.5"/>
<text text-anchor="start" x="171.5" y="-18.5" font-family="Helvetica,sans-Serif" font-size="10.00" fill="#000000">std::is_trivially_copyable</text>
<text text-anchor="middle" x="232.5" y="-7.5" font-family="Helvetica,sans-Serif" font-size="10.00" fill="#000000">&lt; Point3D&lt; T &gt; &gt;</text>
</a>
</g>
</g>
<!-- Node115&#45;&gt;Node133 -->
<g id="edge18" class="edge">
<title>Node115&#45;&gt;Node133</title>
<path fill="none" stroke="#191970" d="M33.0397,-481.8454C39.7849,-397.9929 67.7862,-72.9793 99,-40.5 115.5841,-23.2435 140.0037,-15.7408 163.4385,-12.9703"/>
<polygon fill="#191970" stroke="#191970" points="29.5497,-481.5819 32.246,-491.8279 36.5277,-482.1367 29.5497,-481.5819"/>
</g>
<!-- Node1 -->
<g id="node3" class="node">
<title>Node1</title>
<g id="a_node3"><a xlink:href="d3/d71/structnlohmann_1_1detail_1_1is__compatible__type.html" target="_top" xlink:title="nlohmann::detail::is\l_compatible_type\&lt; BasicJson\lType, CompatibleType \&gt;">
<polygon fill="none" stroke="#000000" points="402,-1034 402,-1075 563,-1075 563,-1034 402,-1034"/>
<text text-anchor="start" x="410" y="-1063" font-family="Helvetica,sans-Serif" font-size="10.00" fill="#000000">nlohmann::detail::is</text>
<text text-anchor="start" x="410" y="-1052" font-family="Helvetica,sans-Serif" font-size="10.00" fill="#000000">_compatible_type&lt; BasicJson</text>
<text text-anchor="middle" x="482.5" y="-1041" font-family="Helvetica,sans-Serif" font-size="10.00" fill="#000000">Type, CompatibleType &gt;</text>
</a>
</g>
</g>
<!-- Node0&#45;&gt;Node1 -->
<g id="edge2" class="edge">
<title>Node0&#45;&gt;Node1</title>
<path fill="none" stroke="#191970" d="M344.5832,-1054.5C363.87,-1054.5 383.5714,-1054.5 401.8243,-1054.5"/>
<polygon fill="#191970" stroke="#191970" points="344.5452,-1051.0001 334.5451,-1054.5 344.5451,-1058.0001 344.5452,-1051.0001"/>
</g>
</g>
</svg>
