<?xml version="1.0" encoding="UTF-8" standalone="no"?>
<!DOCTYPE svg PUBLIC "-//W3C//DTD SVG 1.1//EN"
 "http://www.w3.org/Graphics/SVG/1.1/DTD/svg11.dtd">
<!-- Generated by graphviz version 2.40.1 (20161225.0304)
 -->
<!-- Title: Graphical Class Hierarchy Pages: 1 -->
<svg width="544pt" height="290pt"
 viewBox="0.00 0.00 544.00 290.00" xmlns="http://www.w3.org/2000/svg" xmlns:xlink="http://www.w3.org/1999/xlink">
<g id="graph0" class="graph" transform="scale(1 1) rotate(0) translate(4 286)">
<title>Graphical Class Hierarchy</title>
<!-- Node0 -->
<g id="node1" class="node">
<title>Node0</title>
<g id="a_node1"><a xlink:href="de/dac/structo2_1_1soa_1_1CombinationsIndexPolicyBase.html" target="_top" xlink:title="o2::soa::CombinationsIndex\lPolicyBase\&lt; Ts... \&gt;">
<polygon fill="none" stroke="#000000" points="0,-98.5 0,-128.5 152,-128.5 152,-98.5 0,-98.5"/>
<text text-anchor="start" x="8" y="-116.5" font-family="Helvetica,sans-Serif" font-size="10.00" fill="#000000">o2::soa::CombinationsIndex</text>
<text text-anchor="middle" x="76" y="-105.5" font-family="Helvetica,sans-Serif" font-size="10.00" fill="#000000">PolicyBase&lt; Ts... &gt;</text>
</a>
</g>
</g>
<!-- Node1 -->
<g id="node2" class="node">
<title>Node1</title>
<g id="a_node2"><a xlink:href="d0/d11/structo2_1_1soa_1_1CombinationsBlockIndexPolicyBase.html" target="_top" xlink:title="o2::soa::CombinationsBlock\lIndexPolicyBase\&lt; T, Ts... \&gt;">
<polygon fill="none" stroke="#000000" points="192,-196.5 192,-226.5 344,-226.5 344,-196.5 192,-196.5"/>
<text text-anchor="start" x="200" y="-214.5" font-family="Helvetica,sans-Serif" font-size="10.00" fill="#000000">o2::soa::CombinationsBlock</text>
<text text-anchor="middle" x="268" y="-203.5" font-family="Helvetica,sans-Serif" font-size="10.00" fill="#000000">IndexPolicyBase&lt; T, Ts... &gt;</text>
</a>
</g>
</g>
<!-- Node0&#45;&gt;Node1 -->
<g id="edge1" class="edge">
<title>Node0&#45;&gt;Node1</title>
<path fill="none" stroke="#191970" d="M103.8372,-134.7541C125.763,-150.7076 157.6006,-172.179 188,-186.5 195.7666,-190.1588 204.2025,-193.459 212.5867,-196.3716"/>
<polygon fill="#191970" stroke="#191970" points="105.782,-131.8396 95.6561,-128.7223 101.628,-137.4738 105.782,-131.8396"/>
</g>
<!-- Node5 -->
<g id="node6" class="node">
<title>Node5</title>
<g id="a_node6"><a xlink:href="d0/d11/structo2_1_1soa_1_1CombinationsBlockIndexPolicyBase.html" target="_top" xlink:title="o2::soa::CombinationsBlock\lIndexPolicyBase\&lt; T, Ts \&gt;">
<polygon fill="none" stroke="#000000" points="192,-147.5 192,-177.5 344,-177.5 344,-147.5 192,-147.5"/>
<text text-anchor="start" x="200" y="-165.5" font-family="Helvetica,sans-Serif" font-size="10.00" fill="#000000">o2::soa::CombinationsBlock</text>
<text text-anchor="middle" x="268" y="-154.5" font-family="Helvetica,sans-Serif" font-size="10.00" fill="#000000">IndexPolicyBase&lt; T, Ts &gt;</text>
</a>
</g>
</g>
<!-- Node0&#45;&gt;Node5 -->
<g id="edge5" class="edge">
<title>Node0&#45;&gt;Node5</title>
<path fill="none" stroke="#191970" d="M144.7666,-131.0498C165.8506,-136.4306 188.8452,-142.299 209.2003,-147.4938"/>
<polygon fill="#191970" stroke="#191970" points="145.4661,-127.6162 134.9111,-128.5346 143.7351,-134.3988 145.4661,-127.6162"/>
</g>
<!-- Node6 -->
<g id="node7" class="node">
<title>Node6</title>
<g id="a_node7"><a xlink:href="d0/db2/structo2_1_1soa_1_1CombinationsFullIndexPolicy.html" target="_top" xlink:title="o2::soa::CombinationsFull\lIndexPolicy\&lt; Ts \&gt;">
<polygon fill="none" stroke="#000000" points="197,-98.5 197,-128.5 339,-128.5 339,-98.5 197,-98.5"/>
<text text-anchor="start" x="205" y="-116.5" font-family="Helvetica,sans-Serif" font-size="10.00" fill="#000000">o2::soa::CombinationsFull</text>
<text text-anchor="middle" x="268" y="-105.5" font-family="Helvetica,sans-Serif" font-size="10.00" fill="#000000">IndexPolicy&lt; Ts &gt;</text>
</a>
</g>
</g>
<!-- Node0&#45;&gt;Node6 -->
<g id="edge6" class="edge">
<title>Node0&#45;&gt;Node6</title>
<path fill="none" stroke="#191970" d="M162.2766,-113.5C173.865,-113.5 185.6444,-113.5 196.9299,-113.5"/>
<polygon fill="#191970" stroke="#191970" points="162.1593,-110.0001 152.1592,-113.5 162.1592,-117.0001 162.1593,-110.0001"/>
</g>
<!-- Node7 -->
<g id="node8" class="node">
<title>Node7</title>
<g id="a_node8"><a xlink:href="de/ddd/structo2_1_1soa_1_1CombinationsStrictlyUpperIndexPolicy.html" target="_top" xlink:title="o2::soa::CombinationsStrictly\lUpperIndexPolicy\&lt; Ts \&gt;">
<polygon fill="none" stroke="#000000" points="188,-49.5 188,-79.5 348,-79.5 348,-49.5 188,-49.5"/>
<text text-anchor="start" x="196" y="-67.5" font-family="Helvetica,sans-Serif" font-size="10.00" fill="#000000">o2::soa::CombinationsStrictly</text>
<text text-anchor="middle" x="268" y="-56.5" font-family="Helvetica,sans-Serif" font-size="10.00" fill="#000000">UpperIndexPolicy&lt; Ts &gt;</text>
</a>
</g>
</g>
<!-- Node0&#45;&gt;Node7 -->
<g id="edge7" class="edge">
<title>Node0&#45;&gt;Node7</title>
<path fill="none" stroke="#191970" d="M144.7666,-95.9502C165.8506,-90.5694 188.8452,-84.701 209.2003,-79.5062"/>
<polygon fill="#191970" stroke="#191970" points="143.7351,-92.6012 134.9111,-98.4654 145.4661,-99.3838 143.7351,-92.6012"/>
</g>
<!-- Node8 -->
<g id="node9" class="node">
<title>Node8</title>
<g id="a_node9"><a xlink:href="d4/d13/structo2_1_1soa_1_1CombinationsUpperIndexPolicy.html" target="_top" xlink:title="o2::soa::CombinationsUpper\lIndexPolicy\&lt; Ts \&gt;">
<polygon fill="none" stroke="#000000" points="190.5,-.5 190.5,-30.5 345.5,-30.5 345.5,-.5 190.5,-.5"/>
<text text-anchor="start" x="198.5" y="-18.5" font-family="Helvetica,sans-Serif" font-size="10.00" fill="#000000">o2::soa::CombinationsUpper</text>
<text text-anchor="middle" x="268" y="-7.5" font-family="Helvetica,sans-Serif" font-size="10.00" fill="#000000">IndexPolicy&lt; Ts &gt;</text>
</a>
</g>
</g>
<!-- Node0&#45;&gt;Node8 -->
<g id="edge8" class="edge">
<title>Node0&#45;&gt;Node8</title>
<path fill="none" stroke="#191970" d="M103.3464,-92.1285C125.2342,-75.8606 157.2523,-53.8878 188,-39.5 195.0922,-36.1814 202.7519,-33.1949 210.4242,-30.5481"/>
<polygon fill="#191970" stroke="#191970" points="101.0714,-89.4602 95.1922,-98.2741 105.2846,-95.0504 101.0714,-89.4602"/>
</g>
<!-- Node2 -->
<g id="node3" class="node">
<title>Node2</title>
<g id="a_node3"><a xlink:href="d3/d63/structo2_1_1soa_1_1CombinationsBlockFullIndexPolicy.html" target="_top" xlink:title="o2::soa::CombinationsBlock\lFullIndexPolicy\&lt; T, Ts \&gt;">
<polygon fill="none" stroke="#000000" points="384,-251.5 384,-281.5 536,-281.5 536,-251.5 384,-251.5"/>
<text text-anchor="start" x="392" y="-269.5" font-family="Helvetica,sans-Serif" font-size="10.00" fill="#000000">o2::soa::CombinationsBlock</text>
<text text-anchor="middle" x="460" y="-258.5" font-family="Helvetica,sans-Serif" font-size="10.00" fill="#000000">FullIndexPolicy&lt; T, Ts &gt;</text>
</a>
</g>
</g>
<!-- Node1&#45;&gt;Node2 -->
<g id="edge2" class="edge">
<title>Node1&#45;&gt;Node2</title>
<path fill="none" stroke="#191970" d="M330.2121,-229.3212C355.2006,-236.4793 383.69,-244.6404 407.5986,-251.4892"/>
<polygon fill="#191970" stroke="#191970" points="331.0421,-225.9182 320.4648,-226.529 329.1143,-232.6476 331.0421,-225.9182"/>
</g>
<!-- Node3 -->
<g id="node4" class="node">
<title>Node3</title>
<g id="a_node4"><a xlink:href="d6/d38/structo2_1_1soa_1_1CombinationsBlockStrictlyUpperIndexPolicy.html" target="_top" xlink:title="o2::soa::CombinationsBlock\lStrictlyUpperIndexPolicy\l\&lt; T, Ts \&gt;">
<polygon fill="none" stroke="#000000" points="384,-191 384,-232 536,-232 536,-191 384,-191"/>
<text text-anchor="start" x="392" y="-220" font-family="Helvetica,sans-Serif" font-size="10.00" fill="#000000">o2::soa::CombinationsBlock</text>
<text text-anchor="start" x="392" y="-209" font-family="Helvetica,sans-Serif" font-size="10.00" fill="#000000">StrictlyUpperIndexPolicy</text>
<text text-anchor="middle" x="460" y="-198" font-family="Helvetica,sans-Serif" font-size="10.00" fill="#000000">&lt; T, Ts &gt;</text>
</a>
</g>
</g>
<!-- Node1&#45;&gt;Node3 -->
<g id="edge3" class="edge">
<title>Node1&#45;&gt;Node3</title>
<path fill="none" stroke="#191970" d="M354.3663,-211.5C364.2254,-211.5 374.2215,-211.5 383.9329,-211.5"/>
<polygon fill="#191970" stroke="#191970" points="354.1593,-208.0001 344.1592,-211.5 354.1592,-215.0001 354.1593,-208.0001"/>
</g>
<!-- Node4 -->
<g id="node5" class="node">
<title>Node4</title>
<g id="a_node5"><a xlink:href="d1/d4d/structo2_1_1soa_1_1CombinationsBlockUpperIndexPolicy.html" target="_top" xlink:title="o2::soa::CombinationsBlock\lUpperIndexPolicy\&lt; T, Ts \&gt;">
<polygon fill="none" stroke="#000000" points="384,-141.5 384,-171.5 536,-171.5 536,-141.5 384,-141.5"/>
<text text-anchor="start" x="392" y="-159.5" font-family="Helvetica,sans-Serif" font-size="10.00" fill="#000000">o2::soa::CombinationsBlock</text>
<text text-anchor="middle" x="460" y="-148.5" font-family="Helvetica,sans-Serif" font-size="10.00" fill="#000000">UpperIndexPolicy&lt; T, Ts &gt;</text>
</a>
</g>
</g>
<!-- Node1&#45;&gt;Node4 -->
<g id="edge4" class="edge">
<title>Node1&#45;&gt;Node4</title>
<path fill="none" stroke="#191970" d="M330.2121,-193.6788C355.2006,-186.5207 383.69,-178.3596 407.5986,-171.5108"/>
<polygon fill="#191970" stroke="#191970" points="329.1143,-190.3524 320.4648,-196.471 331.0421,-197.0818 329.1143,-190.3524"/>
</g>
</g>
</svg>
