<?xml version="1.0" encoding="UTF-8" standalone="no"?>
<!DOCTYPE svg PUBLIC "-//W3C//DTD SVG 1.1//EN"
 "http://www.w3.org/Graphics/SVG/1.1/DTD/svg11.dtd">
<!-- Generated by graphviz version 2.40.1 (20161225.0304)
 -->
<!-- Title: Graphical Class Hierarchy Pages: 1 -->
<svg width="698pt" height="1039pt"
 viewBox="0.00 0.00 698.00 1038.50" xmlns="http://www.w3.org/2000/svg" xmlns:xlink="http://www.w3.org/1999/xlink">
<g id="graph0" class="graph" transform="scale(1 1) rotate(0) translate(4 1034.5)">
<title>Graphical Class Hierarchy</title>
<!-- Node1510 -->
<g id="node1" class="node">
<title>Node1510</title>
<polygon fill="none" stroke="#bfbfbf" points="0,-437 0,-456 68,-456 68,-437 0,-437"/>
<text text-anchor="middle" x="34" y="-444" font-family="Helvetica,sans-Serif" font-size="10.00" fill="#000000">false_type</text>
</g>
<!-- Node0 -->
<g id="node2" class="node">
<title>Node0</title>
<g id="a_node2"><a xlink:href="d3/de1/structo2_1_1framework_1_1has__root__dictionary.html" target="_top" xlink:title="o2::framework::has\l_root_dictionary\&lt; T\l::value_type \&gt;">
<polygon fill="none" stroke="#000000" points="146.5,-960 146.5,-1001 259.5,-1001 259.5,-960 146.5,-960"/>
<text text-anchor="start" x="154.5" y="-989" font-family="Helvetica,sans-Serif" font-size="10.00" fill="#000000">o2::framework::has</text>
<text text-anchor="start" x="154.5" y="-978" font-family="Helvetica,sans-Serif" font-size="10.00" fill="#000000">_root_dictionary&lt; T</text>
<text text-anchor="middle" x="203" y="-967" font-family="Helvetica,sans-Serif" font-size="10.00" fill="#000000">::value_type &gt;</text>
</a>
</g>
</g>
<!-- Node1510&#45;&gt;Node0 -->
<g id="edge1" class="edge">
<title>Node1510&#45;&gt;Node0</title>
<path fill="none" stroke="#191970" d="M34.8364,-466.4833C38.483,-545.9545 55.0652,-838.9849 104,-915.5 116.2411,-934.6403 136.3597,-949.3675 155.2747,-959.9253"/>
<polygon fill="#191970" stroke="#191970" points="38.3272,-466.1949 34.39,-456.3588 31.334,-466.5033 38.3272,-466.1949"/>
</g>
<!-- Node1513 -->
<g id="node4" class="node">
<title>Node1513</title>
<g id="a_node4"><a xlink:href="d5/dbf/structo2_1_1framework_1_1is__boost__serializable__base.html" target="_top" xlink:title="o2::framework::is_boost\l_serializable_base\&lt; Type,\l Archive \&gt;">
<polygon fill="none" stroke="#000000" points="131.5,-865 131.5,-906 274.5,-906 274.5,-865 131.5,-865"/>
<text text-anchor="start" x="139.5" y="-894" font-family="Helvetica,sans-Serif" font-size="10.00" fill="#000000">o2::framework::is_boost</text>
<text text-anchor="start" x="139.5" y="-883" font-family="Helvetica,sans-Serif" font-size="10.00" fill="#000000">_serializable_base&lt; Type,</text>
<text text-anchor="middle" x="203" y="-872" font-family="Helvetica,sans-Serif" font-size="10.00" fill="#000000"> Archive &gt;</text>
</a>
</g>
</g>
<!-- Node1510&#45;&gt;Node1513 -->
<g id="edge3" class="edge">
<title>Node1510&#45;&gt;Node1513</title>
<path fill="none" stroke="#191970" d="M34.7463,-466.5768C37.8857,-540.3821 52.3514,-795.4486 104,-854.5 111.3514,-862.9051 120.9489,-869.0573 131.2732,-873.5548"/>
<polygon fill="#191970" stroke="#191970" points="38.234,-466.1971 34.3357,-456.3455 31.2396,-466.4779 38.234,-466.1971"/>
</g>
<!-- Node1517 -->
<g id="node8" class="node">
<title>Node1517</title>
<g id="a_node8"><a xlink:href="d5/dbf/structo2_1_1framework_1_1is__boost__serializable__base.html" target="_top" xlink:title="o2::framework::is_boost\l_serializable_base\&lt; Type,\l boost::archive::binary\l_oarchive \&gt;">
<polygon fill="none" stroke="#000000" points="131.5,-793.5 131.5,-845.5 274.5,-845.5 274.5,-793.5 131.5,-793.5"/>
<text text-anchor="start" x="139.5" y="-833.5" font-family="Helvetica,sans-Serif" font-size="10.00" fill="#000000">o2::framework::is_boost</text>
<text text-anchor="start" x="139.5" y="-822.5" font-family="Helvetica,sans-Serif" font-size="10.00" fill="#000000">_serializable_base&lt; Type,</text>
<text text-anchor="start" x="139.5" y="-811.5" font-family="Helvetica,sans-Serif" font-size="10.00" fill="#000000"> boost::archive::binary</text>
<text text-anchor="middle" x="203" y="-800.5" font-family="Helvetica,sans-Serif" font-size="10.00" fill="#000000">_oarchive &gt;</text>
</a>
</g>
</g>
<!-- Node1510&#45;&gt;Node1517 -->
<g id="edge7" class="edge">
<title>Node1510&#45;&gt;Node1517</title>
<path fill="none" stroke="#191970" d="M35.6067,-466.2733C41.2357,-530.977 62.0372,-735.0151 104,-783.5 111.4204,-792.0737 121.0534,-798.6061 131.392,-803.5831"/>
<polygon fill="#191970" stroke="#191970" points="39.0844,-465.8595 34.7556,-456.1893 32.1092,-466.4483 39.0844,-465.8595"/>
</g>
<!-- Node1520 -->
<g id="node11" class="node">
<title>Node1520</title>
<g id="a_node11"><a xlink:href="d4/df6/structnlohmann_1_1detail_1_1is__basic__json.html" target="_top" xlink:title="nlohmann::detail::is\l_basic_json\&lt; typename \&gt;">
<polygon fill="none" stroke="#000000" points="130.5,-744.5 130.5,-774.5 275.5,-774.5 275.5,-744.5 130.5,-744.5"/>
<text text-anchor="start" x="138.5" y="-762.5" font-family="Helvetica,sans-Serif" font-size="10.00" fill="#000000">nlohmann::detail::is</text>
<text text-anchor="middle" x="203" y="-751.5" font-family="Helvetica,sans-Serif" font-size="10.00" fill="#000000">_basic_json&lt; typename &gt;</text>
</a>
</g>
</g>
<!-- Node1510&#45;&gt;Node1520 -->
<g id="edge10" class="edge">
<title>Node1510&#45;&gt;Node1520</title>
<path fill="none" stroke="#191970" d="M36.1468,-466.1558C42.9241,-524.6384 65.7122,-695.8691 104,-734.5 111.3625,-741.9285 120.5899,-747.2608 130.4314,-751.0686"/>
<polygon fill="#191970" stroke="#191970" points="39.6041,-465.5798 35.005,-456.0352 32.6482,-466.3646 39.6041,-465.5798"/>
</g>
<!-- Node1521 -->
<g id="node12" class="node">
<title>Node1521</title>
<g id="a_node12"><a xlink:href="dd/d13/structnlohmann_1_1detail_1_1is__compatible__integer__type__impl.html" target="_top" xlink:title="nlohmann::detail::is\l_compatible_integer_type\l_impl\&lt; bool, typename, typename \&gt;">
<polygon fill="none" stroke="#000000" points="104,-684 104,-725 302,-725 302,-684 104,-684"/>
<text text-anchor="start" x="112" y="-713" font-family="Helvetica,sans-Serif" font-size="10.00" fill="#000000">nlohmann::detail::is</text>
<text text-anchor="start" x="112" y="-702" font-family="Helvetica,sans-Serif" font-size="10.00" fill="#000000">_compatible_integer_type</text>
<text text-anchor="middle" x="203" y="-691" font-family="Helvetica,sans-Serif" font-size="10.00" fill="#000000">_impl&lt; bool, typename, typename &gt;</text>
</a>
</g>
</g>
<!-- Node1510&#45;&gt;Node1521 -->
<g id="edge11" class="edge">
<title>Node1510&#45;&gt;Node1521</title>
<path fill="none" stroke="#191970" d="M37.6723,-466.3501C47.221,-515.9642 74.1699,-643.5401 104,-673.5 107.9394,-677.4565 112.3764,-680.9094 117.1327,-683.9225"/>
<polygon fill="#191970" stroke="#191970" points="41.0612,-465.434 35.7645,-456.2581 34.183,-466.7343 41.0612,-465.434"/>
</g>
<!-- Node1522 -->
<g id="node13" class="node">
<title>Node1522</title>
<g id="a_node13"><a xlink:href="dc/da5/structnlohmann_1_1detail_1_1is__compatible__object__type__impl.html" target="_top" xlink:title="nlohmann::detail::is\l_compatible_object_type\l_impl\&lt; B, RealType, Compatible\lObjectType \&gt;">
<polygon fill="none" stroke="#000000" points="116.5,-612.5 116.5,-664.5 289.5,-664.5 289.5,-612.5 116.5,-612.5"/>
<text text-anchor="start" x="124.5" y="-652.5" font-family="Helvetica,sans-Serif" font-size="10.00" fill="#000000">nlohmann::detail::is</text>
<text text-anchor="start" x="124.5" y="-641.5" font-family="Helvetica,sans-Serif" font-size="10.00" fill="#000000">_compatible_object_type</text>
<text text-anchor="start" x="124.5" y="-630.5" font-family="Helvetica,sans-Serif" font-size="10.00" fill="#000000">_impl&lt; B, RealType, Compatible</text>
<text text-anchor="middle" x="203" y="-619.5" font-family="Helvetica,sans-Serif" font-size="10.00" fill="#000000">ObjectType &gt;</text>
</a>
</g>
</g>
<!-- Node1510&#45;&gt;Node1522 -->
<g id="edge12" class="edge">
<title>Node1510&#45;&gt;Node1522</title>
<path fill="none" stroke="#191970" d="M37.6583,-466.1755C44.7401,-498.9181 63.3507,-564.7154 104,-602.5 107.8847,-606.1109 112.1596,-609.3657 116.6866,-612.2987"/>
<polygon fill="#191970" stroke="#191970" points="41.0282,-465.1814 35.6169,-456.0727 34.1669,-466.5678 41.0282,-465.1814"/>
</g>
<!-- Node1523 -->
<g id="node14" class="node">
<title>Node1523</title>
<g id="a_node14"><a xlink:href="d2/db3/structnlohmann_1_1detail_1_1is__complete__type.html" target="_top" xlink:title="nlohmann::detail::is\l_complete_type\&lt; T, typename \&gt;">
<polygon fill="none" stroke="#000000" points="113.5,-563.5 113.5,-593.5 292.5,-593.5 292.5,-563.5 113.5,-563.5"/>
<text text-anchor="start" x="121.5" y="-581.5" font-family="Helvetica,sans-Serif" font-size="10.00" fill="#000000">nlohmann::detail::is</text>
<text text-anchor="middle" x="203" y="-570.5" font-family="Helvetica,sans-Serif" font-size="10.00" fill="#000000">_complete_type&lt; T, typename &gt;</text>
</a>
</g>
</g>
<!-- Node1510&#45;&gt;Node1523 -->
<g id="edge13" class="edge">
<title>Node1510&#45;&gt;Node1523</title>
<path fill="none" stroke="#191970" d="M41.3806,-465.7725C51.6723,-490.0131 72.6684,-531.1599 104,-553.5 109.4848,-557.4108 115.5227,-560.7114 121.8285,-563.4968"/>
<polygon fill="#191970" stroke="#191970" points="44.516,-464.1904 37.5161,-456.2374 38.0286,-466.8198 44.516,-464.1904"/>
</g>
<!-- Node1524 -->
<g id="node15" class="node">
<title>Node1524</title>
<g id="a_node15"><a xlink:href="da/d82/structo2_1_1framework_1_1always__static__assert.html" target="_top" xlink:title="o2::framework::always\l_static_assert\&lt; T \&gt;">
<polygon fill="none" stroke="#000000" points="139,-514.5 139,-544.5 267,-544.5 267,-514.5 139,-514.5"/>
<text text-anchor="start" x="147" y="-532.5" font-family="Helvetica,sans-Serif" font-size="10.00" fill="#000000">o2::framework::always</text>
<text text-anchor="middle" x="203" y="-521.5" font-family="Helvetica,sans-Serif" font-size="10.00" fill="#000000">_static_assert&lt; T &gt;</text>
</a>
</g>
</g>
<!-- Node1510&#45;&gt;Node1524 -->
<g id="edge14" class="edge">
<title>Node1510&#45;&gt;Node1524</title>
<path fill="none" stroke="#191970" d="M50.353,-463.714C63.6421,-476.7331 83.4876,-494.0898 104,-504.5 114.8283,-509.9955 126.95,-514.34 138.8976,-517.756"/>
<polygon fill="#191970" stroke="#191970" points="52.5027,-460.9108 42.9786,-456.2693 47.5295,-465.837 52.5027,-460.9108"/>
</g>
<!-- Node1525 -->
<g id="node16" class="node">
<title>Node1525</title>
<g id="a_node16"><a xlink:href="d7/df3/structo2_1_1framework_1_1has__messageable__value__type.html" target="_top" xlink:title="o2::framework::has\l_messageable_value_type\l\&lt; T, _ \&gt;">
<polygon fill="none" stroke="#000000" points="130,-454 130,-495 276,-495 276,-454 130,-454"/>
<text text-anchor="start" x="138" y="-483" font-family="Helvetica,sans-Serif" font-size="10.00" fill="#000000">o2::framework::has</text>
<text text-anchor="start" x="138" y="-472" font-family="Helvetica,sans-Serif" font-size="10.00" fill="#000000">_messageable_value_type</text>
<text text-anchor="middle" x="203" y="-461" font-family="Helvetica,sans-Serif" font-size="10.00" fill="#000000">&lt; T, _ &gt;</text>
</a>
</g>
</g>
<!-- Node1510&#45;&gt;Node1525 -->
<g id="edge15" class="edge">
<title>Node1510&#45;&gt;Node1525</title>
<path fill="none" stroke="#191970" d="M78.1844,-453.8205C93.965,-456.435 112.1957,-459.4555 129.765,-462.3664"/>
<polygon fill="#191970" stroke="#191970" points="78.6373,-450.3479 68.1997,-452.1662 77.4931,-457.2538 78.6373,-450.3479"/>
</g>
<!-- Node1526 -->
<g id="node17" class="node">
<title>Node1526</title>
<g id="a_node17"><a xlink:href="d3/de1/structo2_1_1framework_1_1has__root__dictionary.html" target="_top" xlink:title="o2::framework::has\l_root_dictionary\&lt; T, _ \&gt;">
<polygon fill="none" stroke="#000000" points="135.5,-404.5 135.5,-434.5 270.5,-434.5 270.5,-404.5 135.5,-404.5"/>
<text text-anchor="start" x="143.5" y="-422.5" font-family="Helvetica,sans-Serif" font-size="10.00" fill="#000000">o2::framework::has</text>
<text text-anchor="middle" x="203" y="-411.5" font-family="Helvetica,sans-Serif" font-size="10.00" fill="#000000">_root_dictionary&lt; T, _ &gt;</text>
</a>
</g>
</g>
<!-- Node1510&#45;&gt;Node1526 -->
<g id="edge16" class="edge">
<title>Node1510&#45;&gt;Node1526</title>
<path fill="none" stroke="#191970" d="M78.106,-439.4535C95.5765,-436.6623 116.0595,-433.3899 135.3262,-430.3118"/>
<polygon fill="#191970" stroke="#191970" points="77.5222,-436.0023 68.1997,-441.0361 78.6266,-442.9146 77.5222,-436.0023"/>
</g>
<!-- Node1527 -->
<g id="node18" class="node">
<title>Node1527</title>
<g id="a_node18"><a xlink:href="d5/dbf/structo2_1_1framework_1_1is__boost__serializable__base.html" target="_top" xlink:title="o2::framework::is_boost\l_serializable_base\&lt; Type,\l Archive, typename \&gt;">
<polygon fill="none" stroke="#000000" points="131.5,-344 131.5,-385 274.5,-385 274.5,-344 131.5,-344"/>
<text text-anchor="start" x="139.5" y="-373" font-family="Helvetica,sans-Serif" font-size="10.00" fill="#000000">o2::framework::is_boost</text>
<text text-anchor="start" x="139.5" y="-362" font-family="Helvetica,sans-Serif" font-size="10.00" fill="#000000">_serializable_base&lt; Type,</text>
<text text-anchor="middle" x="203" y="-351" font-family="Helvetica,sans-Serif" font-size="10.00" fill="#000000"> Archive, typename &gt;</text>
</a>
</g>
</g>
<!-- Node1510&#45;&gt;Node1527 -->
<g id="edge17" class="edge">
<title>Node1510&#45;&gt;Node1527</title>
<path fill="none" stroke="#191970" d="M52.2076,-430.2075C65.6964,-418.8557 84.9651,-404.0872 104,-394.5 112.5813,-390.1779 121.8996,-386.3521 131.2721,-383.0039"/>
<polygon fill="#191970" stroke="#191970" points="49.8987,-427.5769 44.6096,-436.7571 54.4692,-432.8789 49.8987,-427.5769"/>
</g>
<!-- Node1528 -->
<g id="node19" class="node">
<title>Node1528</title>
<g id="a_node19"><a xlink:href="d5/dc1/structo2_1_1framework_1_1is__bounded__array.html" target="_top" xlink:title="o2::framework::is_bounded\l_array\&lt; T \&gt;">
<polygon fill="none" stroke="#000000" points="128.5,-294.5 128.5,-324.5 277.5,-324.5 277.5,-294.5 128.5,-294.5"/>
<text text-anchor="start" x="136.5" y="-312.5" font-family="Helvetica,sans-Serif" font-size="10.00" fill="#000000">o2::framework::is_bounded</text>
<text text-anchor="middle" x="203" y="-301.5" font-family="Helvetica,sans-Serif" font-size="10.00" fill="#000000">_array&lt; T &gt;</text>
</a>
</g>
</g>
<!-- Node1510&#45;&gt;Node1528 -->
<g id="edge18" class="edge">
<title>Node1510&#45;&gt;Node1528</title>
<path fill="none" stroke="#191970" d="M40.7013,-427.4332C50.5596,-402.2303 71.4087,-358.2516 104,-334.5 111.3064,-329.1753 119.6308,-324.98 128.2776,-321.6753"/>
<polygon fill="#191970" stroke="#191970" points="37.3593,-426.3784 37.1471,-436.9711 43.9187,-428.8228 37.3593,-426.3784"/>
</g>
<!-- Node1529 -->
<g id="node20" class="node">
<title>Node1529</title>
<g id="a_node20"><a xlink:href="dc/d9b/structo2_1_1framework_1_1is__container.html" target="_top" xlink:title="o2::framework::is_container\l\&lt; T, _ \&gt;">
<polygon fill="none" stroke="#000000" points="126.5,-245.5 126.5,-275.5 279.5,-275.5 279.5,-245.5 126.5,-245.5"/>
<text text-anchor="start" x="134.5" y="-263.5" font-family="Helvetica,sans-Serif" font-size="10.00" fill="#000000">o2::framework::is_container</text>
<text text-anchor="middle" x="203" y="-252.5" font-family="Helvetica,sans-Serif" font-size="10.00" fill="#000000">&lt; T, _ &gt;</text>
</a>
</g>
</g>
<!-- Node1510&#45;&gt;Node1529 -->
<g id="edge19" class="edge">
<title>Node1510&#45;&gt;Node1529</title>
<path fill="none" stroke="#191970" d="M36.8073,-426.5088C42.73,-392.0902 59.8019,-321.7565 104,-284.5 110.6258,-278.9148 118.3422,-274.5884 126.4889,-271.2436"/>
<polygon fill="#191970" stroke="#191970" points="33.2999,-426.2822 35.2031,-436.7047 40.2149,-427.3702 33.2999,-426.2822"/>
</g>
<!-- Node1530 -->
<g id="node21" class="node">
<title>Node1530</title>
<g id="a_node21"><a xlink:href="da/dee/structo2_1_1framework_1_1is__forced__non__messageable.html" target="_top" xlink:title="o2::framework::is_forced\l_non_messageable\&lt; T, _ \&gt;">
<polygon fill="none" stroke="#000000" points="128,-196.5 128,-226.5 278,-226.5 278,-196.5 128,-196.5"/>
<text text-anchor="start" x="136" y="-214.5" font-family="Helvetica,sans-Serif" font-size="10.00" fill="#000000">o2::framework::is_forced</text>
<text text-anchor="middle" x="203" y="-203.5" font-family="Helvetica,sans-Serif" font-size="10.00" fill="#000000">_non_messageable&lt; T, _ &gt;</text>
</a>
</g>
</g>
<!-- Node1510&#45;&gt;Node1530 -->
<g id="edge20" class="edge">
<title>Node1510&#45;&gt;Node1530</title>
<path fill="none" stroke="#191970" d="M37.9543,-426.993C47.8716,-379.94 75.0857,-262.1223 104,-235.5 110.8955,-229.1511 119.1792,-224.4023 127.9807,-220.8632"/>
<polygon fill="#191970" stroke="#191970" points="34.5112,-426.3597 35.9106,-436.8617 41.3658,-427.7793 34.5112,-426.3597"/>
</g>
<!-- Node1531 -->
<g id="node22" class="node">
<title>Node1531</title>
<g id="a_node22"><a xlink:href="dd/dca/structo2_1_1framework_1_1is__messageable_3_01gsl_1_1span_3_01T_01_4_01_4.html" target="_top" xlink:title="o2::framework::is_messageable\l\&lt; gsl::span\&lt; T \&gt; \&gt;">
<polygon fill="none" stroke="#000000" points="116.5,-147.5 116.5,-177.5 289.5,-177.5 289.5,-147.5 116.5,-147.5"/>
<text text-anchor="start" x="124.5" y="-165.5" font-family="Helvetica,sans-Serif" font-size="10.00" fill="#000000">o2::framework::is_messageable</text>
<text text-anchor="middle" x="203" y="-154.5" font-family="Helvetica,sans-Serif" font-size="10.00" fill="#000000">&lt; gsl::span&lt; T &gt; &gt;</text>
</a>
</g>
</g>
<!-- Node1510&#45;&gt;Node1531 -->
<g id="edge21" class="edge">
<title>Node1510&#45;&gt;Node1531</title>
<path fill="none" stroke="#191970" d="M36.714,-426.607C44.582,-371.8219 69.0834,-220.549 104,-186.5 107.6719,-182.9193 111.7823,-179.8419 116.1848,-177.1997"/>
<polygon fill="#191970" stroke="#191970" points="33.2135,-426.3667 35.2898,-436.7561 40.1456,-427.3395 33.2135,-426.3667"/>
</g>
<!-- Node1532 -->
<g id="node23" class="node">
<title>Node1532</title>
<g id="a_node23"><a xlink:href="d2/d79/structo2_1_1framework_1_1is__span.html" target="_top" xlink:title="o2::framework::is_span\l\&lt; T, _ \&gt;">
<polygon fill="none" stroke="#000000" points="137.5,-98.5 137.5,-128.5 268.5,-128.5 268.5,-98.5 137.5,-98.5"/>
<text text-anchor="start" x="145.5" y="-116.5" font-family="Helvetica,sans-Serif" font-size="10.00" fill="#000000">o2::framework::is_span</text>
<text text-anchor="middle" x="203" y="-105.5" font-family="Helvetica,sans-Serif" font-size="10.00" fill="#000000">&lt; T, _ &gt;</text>
</a>
</g>
</g>
<!-- Node1510&#45;&gt;Node1532 -->
<g id="edge22" class="edge">
<title>Node1510&#45;&gt;Node1532</title>
<path fill="none" stroke="#191970" d="M35.7998,-426.6219C41.7729,-365.0593 62.9317,-179.1915 104,-137.5 113.06,-128.3026 125.003,-122.399 137.4482,-118.6587"/>
<polygon fill="#191970" stroke="#191970" points="32.2846,-426.6202 34.8329,-436.904 39.2539,-427.2756 32.2846,-426.6202"/>
</g>
<!-- Node1533 -->
<g id="node24" class="node">
<title>Node1533</title>
<g id="a_node24"><a xlink:href="d8/d85/structo2_1_1framework_1_1is__specialization.html" target="_top" xlink:title="o2::framework::is_specialization\l\&lt; T, Ref \&gt;">
<polygon fill="none" stroke="#000000" points="115.5,-49.5 115.5,-79.5 290.5,-79.5 290.5,-49.5 115.5,-49.5"/>
<text text-anchor="start" x="123.5" y="-67.5" font-family="Helvetica,sans-Serif" font-size="10.00" fill="#000000">o2::framework::is_specialization</text>
<text text-anchor="middle" x="203" y="-56.5" font-family="Helvetica,sans-Serif" font-size="10.00" fill="#000000">&lt; T, Ref &gt;</text>
</a>
</g>
</g>
<!-- Node1510&#45;&gt;Node1533 -->
<g id="edge23" class="edge">
<title>Node1510&#45;&gt;Node1533</title>
<path fill="none" stroke="#191970" d="M35.1305,-426.6349C39.3937,-358.8211 56.7297,-137.934 104,-88.5 107.4223,-84.921 111.2803,-81.8379 115.4378,-79.1848"/>
<polygon fill="#191970" stroke="#191970" points="31.6257,-426.6123 34.5187,-436.8045 38.613,-427.0328 31.6257,-426.6123"/>
</g>
<!-- Node1534 -->
<g id="node25" class="node">
<title>Node1534</title>
<g id="a_node25"><a xlink:href="d9/d11/structo2_1_1soa_1_1is__index.html" target="_top" xlink:title="o2::soa::is_index\&lt;\l T, Ref \&gt;">
<polygon fill="none" stroke="#000000" points="149.5,-.5 149.5,-30.5 256.5,-30.5 256.5,-.5 149.5,-.5"/>
<text text-anchor="start" x="157.5" y="-18.5" font-family="Helvetica,sans-Serif" font-size="10.00" fill="#000000">o2::soa::is_index&lt;</text>
<text text-anchor="middle" x="203" y="-7.5" font-family="Helvetica,sans-Serif" font-size="10.00" fill="#000000"> T, Ref &gt;</text>
</a>
</g>
</g>
<!-- Node1510&#45;&gt;Node1534 -->
<g id="edge24" class="edge">
<title>Node1510&#45;&gt;Node1534</title>
<path fill="none" stroke="#191970" d="M34.6121,-426.8403C37.3005,-353.4516 50.4416,-96.8021 104,-39.5 115.714,-26.9673 132.7644,-20.4863 149.4254,-17.2703"/>
<polygon fill="#191970" stroke="#191970" points="31.109,-426.873 34.2657,-436.9866 38.1049,-427.1119 31.109,-426.873"/>
</g>
<!-- Node1 -->
<g id="node3" class="node">
<title>Node1</title>
<g id="a_node3"><a xlink:href="d5/d6d/classo2_1_1framework_1_1has__root__dictionary_3_01T_00_01typename_01std_1_1enable__if_3_01is__co3a14f09bcf42c805e484bfdd1c1dadfb.html" target="_top" xlink:title="o2::framework::has\l_root_dictionary\&lt; T,\l typename std::enable\l_if\&lt; is_container\&lt; T \&gt;\l::value \&gt;::type \&gt;">
<polygon fill="none" stroke="#000000" points="353,-967 353,-1030 481,-1030 481,-967 353,-967"/>
<text text-anchor="start" x="361" y="-1018" font-family="Helvetica,sans-Serif" font-size="10.00" fill="#000000">o2::framework::has</text>
<text text-anchor="start" x="361" y="-1007" font-family="Helvetica,sans-Serif" font-size="10.00" fill="#000000">_root_dictionary&lt; T,</text>
<text text-anchor="start" x="361" y="-996" font-family="Helvetica,sans-Serif" font-size="10.00" fill="#000000"> typename std::enable</text>
<text text-anchor="start" x="361" y="-985" font-family="Helvetica,sans-Serif" font-size="10.00" fill="#000000">_if&lt; is_container&lt; T &gt;</text>
<text text-anchor="middle" x="417" y="-974" font-family="Helvetica,sans-Serif" font-size="10.00" fill="#000000">::value &gt;::type &gt;</text>
</a>
</g>
</g>
<!-- Node0&#45;&gt;Node1 -->
<g id="edge2" class="edge">
<title>Node0&#45;&gt;Node1</title>
<path fill="none" stroke="#191970" d="M269.495,-986.093C296.1034,-988.3311 326.6323,-990.899 352.9877,-993.1158"/>
<polygon fill="#191970" stroke="#191970" points="269.7641,-982.6034 259.5059,-985.2528 269.1773,-989.5788 269.7641,-982.6034"/>
</g>
<!-- Node1514 -->
<g id="node5" class="node">
<title>Node1514</title>
<g id="a_node5"><a xlink:href="d2/d70/structo2_1_1framework_1_1is__boost__serializable.html" target="_top" xlink:title="o2::framework::is_boost\l_serializable\&lt; Type::value\l_type, Archive \&gt;">
<polygon fill="none" stroke="#000000" points="344.5,-907 344.5,-948 489.5,-948 489.5,-907 344.5,-907"/>
<text text-anchor="start" x="352.5" y="-936" font-family="Helvetica,sans-Serif" font-size="10.00" fill="#000000">o2::framework::is_boost</text>
<text text-anchor="start" x="352.5" y="-925" font-family="Helvetica,sans-Serif" font-size="10.00" fill="#000000">_serializable&lt; Type::value</text>
<text text-anchor="middle" x="417" y="-914" font-family="Helvetica,sans-Serif" font-size="10.00" fill="#000000">_type, Archive &gt;</text>
</a>
</g>
</g>
<!-- Node1513&#45;&gt;Node1514 -->
<g id="edge4" class="edge">
<title>Node1513&#45;&gt;Node1514</title>
<path fill="none" stroke="#191970" d="M284.4365,-901.4829C304.1653,-905.3549 325.1257,-909.4686 344.4158,-913.2545"/>
<polygon fill="#191970" stroke="#191970" points="285.0433,-898.0353 274.5564,-899.5438 283.6951,-904.9042 285.0433,-898.0353"/>
</g>
<!-- Node1516 -->
<g id="node7" class="node">
<title>Node1516</title>
<g id="a_node7"><a xlink:href="d2/d70/structo2_1_1framework_1_1is__boost__serializable.html" target="_top" xlink:title="o2::framework::is_boost\l_serializable\&lt; Type, Archive,\l typename \&gt;">
<polygon fill="none" stroke="#000000" points="338,-847 338,-888 496,-888 496,-847 338,-847"/>
<text text-anchor="start" x="346" y="-876" font-family="Helvetica,sans-Serif" font-size="10.00" fill="#000000">o2::framework::is_boost</text>
<text text-anchor="start" x="346" y="-865" font-family="Helvetica,sans-Serif" font-size="10.00" fill="#000000">_serializable&lt; Type, Archive,</text>
<text text-anchor="middle" x="417" y="-854" font-family="Helvetica,sans-Serif" font-size="10.00" fill="#000000"> typename &gt;</text>
</a>
</g>
</g>
<!-- Node1513&#45;&gt;Node1516 -->
<g id="edge6" class="edge">
<title>Node1513&#45;&gt;Node1516</title>
<path fill="none" stroke="#191970" d="M284.6834,-878.6294C302.0951,-877.1649 320.4556,-875.6206 337.7734,-874.1639"/>
<polygon fill="#191970" stroke="#191970" points="284.2278,-875.1553 274.5564,-879.4812 284.8146,-882.1307 284.2278,-875.1553"/>
</g>
<!-- Node1515 -->
<g id="node6" class="node">
<title>Node1515</title>
<g id="a_node6"><a xlink:href="d8/ddd/structo2_1_1framework_1_1is__boost__serializable_3_01Type_00_01Archive_00_01std_1_1void__t_3_01t52f9ef0f32611a33ca82db27a4fb33ed.html" target="_top" xlink:title="o2::framework::is_boost\l_serializable\&lt; Type, Archive,\l std::void_t\&lt; typename Type\l::value_type \&gt; \&gt;">
<polygon fill="none" stroke="#000000" points="532,-901.5 532,-953.5 690,-953.5 690,-901.5 532,-901.5"/>
<text text-anchor="start" x="540" y="-941.5" font-family="Helvetica,sans-Serif" font-size="10.00" fill="#000000">o2::framework::is_boost</text>
<text text-anchor="start" x="540" y="-930.5" font-family="Helvetica,sans-Serif" font-size="10.00" fill="#000000">_serializable&lt; Type, Archive,</text>
<text text-anchor="start" x="540" y="-919.5" font-family="Helvetica,sans-Serif" font-size="10.00" fill="#000000"> std::void_t&lt; typename Type</text>
<text text-anchor="middle" x="611" y="-908.5" font-family="Helvetica,sans-Serif" font-size="10.00" fill="#000000">::value_type &gt; &gt;</text>
</a>
</g>
</g>
<!-- Node1514&#45;&gt;Node1515 -->
<g id="edge5" class="edge">
<title>Node1514&#45;&gt;Node1515</title>
<path fill="none" stroke="#191970" d="M499.6301,-927.5C510.2743,-927.5 521.1547,-927.5 531.743,-927.5"/>
<polygon fill="#191970" stroke="#191970" points="499.5144,-924.0001 489.5143,-927.5 499.5143,-931.0001 499.5144,-924.0001"/>
</g>
<!-- Node1518 -->
<g id="node9" class="node">
<title>Node1518</title>
<g id="a_node9"><a xlink:href="d2/d70/structo2_1_1framework_1_1is__boost__serializable.html" target="_top" xlink:title="o2::framework::is_boost\l_serializable\&lt; Type::value\l_type, boost::archive::binary\l_oarchive \&gt;">
<polygon fill="none" stroke="#000000" points="339.5,-775.5 339.5,-827.5 494.5,-827.5 494.5,-775.5 339.5,-775.5"/>
<text text-anchor="start" x="347.5" y="-815.5" font-family="Helvetica,sans-Serif" font-size="10.00" fill="#000000">o2::framework::is_boost</text>
<text text-anchor="start" x="347.5" y="-804.5" font-family="Helvetica,sans-Serif" font-size="10.00" fill="#000000">_serializable&lt; Type::value</text>
<text text-anchor="start" x="347.5" y="-793.5" font-family="Helvetica,sans-Serif" font-size="10.00" fill="#000000">_type, boost::archive::binary</text>
<text text-anchor="middle" x="417" y="-782.5" font-family="Helvetica,sans-Serif" font-size="10.00" fill="#000000">_oarchive &gt;</text>
</a>
</g>
</g>
<!-- Node1517&#45;&gt;Node1518 -->
<g id="edge8" class="edge">
<title>Node1517&#45;&gt;Node1518</title>
<path fill="none" stroke="#191970" d="M284.6791,-812.6298C302.5909,-811.1232 321.5071,-809.5321 339.2594,-808.0389"/>
<polygon fill="#191970" stroke="#191970" points="284.2278,-809.1553 274.5564,-813.4812 284.8146,-816.1307 284.2278,-809.1553"/>
</g>
<!-- Node1519 -->
<g id="node10" class="node">
<title>Node1519</title>
<g id="a_node10"><a xlink:href="da/d5c/structo2_1_1framework_1_1is__boost__serializable_3_01Type_00_01boost_1_1archive_1_1binary__oarchf8a18e484fa159a1d92458bf9fe69b23.html" target="_top" xlink:title="o2::framework::is_boost\l_serializable\&lt; Type, boost\l::archive::binary_oarchive,\l std::void_t\&lt; typename Type\l::value_type \&gt; \&gt;">
<polygon fill="none" stroke="#000000" points="532.5,-770 532.5,-833 689.5,-833 689.5,-770 532.5,-770"/>
<text text-anchor="start" x="540.5" y="-821" font-family="Helvetica,sans-Serif" font-size="10.00" fill="#000000">o2::framework::is_boost</text>
<text text-anchor="start" x="540.5" y="-810" font-family="Helvetica,sans-Serif" font-size="10.00" fill="#000000">_serializable&lt; Type, boost</text>
<text text-anchor="start" x="540.5" y="-799" font-family="Helvetica,sans-Serif" font-size="10.00" fill="#000000">::archive::binary_oarchive,</text>
<text text-anchor="start" x="540.5" y="-788" font-family="Helvetica,sans-Serif" font-size="10.00" fill="#000000"> std::void_t&lt; typename Type</text>
<text text-anchor="middle" x="611" y="-777" font-family="Helvetica,sans-Serif" font-size="10.00" fill="#000000">::value_type &gt; &gt;</text>
</a>
</g>
</g>
<!-- Node1518&#45;&gt;Node1519 -->
<g id="edge9" class="edge">
<title>Node1518&#45;&gt;Node1519</title>
<path fill="none" stroke="#191970" d="M504.5128,-801.5C513.7879,-801.5 523.1799,-801.5 532.3451,-801.5"/>
<polygon fill="#191970" stroke="#191970" points="504.5103,-798.0001 494.5103,-801.5 504.5103,-805.0001 504.5103,-798.0001"/>
</g>
</g>
</svg>
