<?xml version="1.0" encoding="UTF-8" standalone="no"?>
<!DOCTYPE svg PUBLIC "-//W3C//DTD SVG 1.1//EN"
 "http://www.w3.org/Graphics/SVG/1.1/DTD/svg11.dtd">
<!-- Generated by graphviz version 2.40.1 (20161225.0304)
 -->
<!-- Title: /home/travis/build/AliceO2Group/AliceO2/Detectors/MUON/MCH/Raw/Decoder/include/MCHRawDecoder/PageDecoder.h Pages: 1 -->
<!--zoomable 350 -->
<svg id="main" version="1.1" xmlns="http://www.w3.org/2000/svg" xmlns:xlink="http://www.w3.org/1999/xlink" xml:space="preserve" onload="init(evt)">
<style type="text/css"><![CDATA[
.edge:hover path { stroke: red; }
.edge:hover polygon { stroke: red; fill: red; }
]]></style>
<script type="text/javascript"><![CDATA[
var edges = document.getElementsByTagName('g');
if (edges && edges.length) {
  for (var i=0;i<edges.length;i++) {
    if (edges[i].id.substr(0,4)=='edge') {
      edges[i].setAttribute('class','edge');
    }
  }
}
]]></script>
        <defs>
                <circle id="rim" cx="0" cy="0" r="7"/>
                <circle id="rim2" cx="0" cy="0" r="3.5"/>
                <g id="zoomPlus">
                        <use xlink:href="#rim" fill="#404040">
                                <set attributeName="fill" to="#808080" begin="zoomplus.mouseover" end="zoomplus.mouseout"/>
                        </use>
                        <path d="M-4,0h8M0,-4v8" fill="none" stroke="white" stroke-width="1.5" pointer-events="none"/>
                </g>
                <g id="zoomMin">
                        <use xlink:href="#rim" fill="#404040">
                                <set attributeName="fill" to="#808080" begin="zoomminus.mouseover" end="zoomminus.mouseout"/>
                        </use>
                        <path d="M-4,0h8" fill="none" stroke="white" stroke-width="1.5" pointer-events="none"/>
                </g>
                <g id="dirArrow">
                        <path fill="none" stroke="white" stroke-width="1.5" d="M0,-3.0v7 M-2.5,-0.5L0,-3.0L2.5,-0.5"/>
                </g>
               <g id="resetDef">
                       <use xlink:href="#rim2" fill="#404040">
                               <set attributeName="fill" to="#808080" begin="reset.mouseover" end="reset.mouseout"/>
                       </use>
               </g>
        </defs>

<script type="text/javascript">
var viewWidth = 1064;
var viewHeight = 350;
var sectionId = 'dynsection-1';
</script>
<script xlink:href="../../svgpan.js"/>
<svg id="graph" class="graph">
<g id="viewport">
<title>/home/travis/build/AliceO2Group/AliceO2/Detectors/MUON/MCH/Raw/Decoder/include/MCHRawDecoder/PageDecoder.h</title>
<!-- Node20 -->
<g id="node1" class="node">
<title>Node20</title>
<polygon fill="#bfbfbf" stroke="#000000" points="401.5207,-278.5 401.5207,-341.5 586.5207,-341.5 586.5207,-278.5 401.5207,-278.5"/>
<text text-anchor="start" x="409.5207" y="-329.5" font-family="Helvetica,sans-Serif" font-size="10.00" fill="#000000">/home/travis/build</text>
<text text-anchor="start" x="409.5207" y="-318.5" font-family="Helvetica,sans-Serif" font-size="10.00" fill="#000000">/AliceO2Group/AliceO2</text>
<text text-anchor="start" x="409.5207" y="-307.5" font-family="Helvetica,sans-Serif" font-size="10.00" fill="#000000">/Detectors/MUON/MCH/Raw</text>
<text text-anchor="start" x="409.5207" y="-296.5" font-family="Helvetica,sans-Serif" font-size="10.00" fill="#000000">/Decoder/include/MCHRawDecoder</text>
<text text-anchor="middle" x="494.0207" y="-285.5" font-family="Helvetica,sans-Serif" font-size="10.00" fill="#000000">/PageDecoder.h</text>
</g>
<!-- Node21 -->
<g id="node2" class="node">
<title>Node21</title>
<g id="a_node2"><a xlink:href="../../d0/da1/PayloadDecoder_8h.html" target="_top" xlink:title="/home/travis/build\l/AliceO2Group/AliceO2\l/Detectors/MUON/MCH/Raw\l/Decoder/src/PayloadDecoder.h">
<polygon fill="none" stroke="#000000" points="234.5207,-189.5 234.5207,-241.5 401.5207,-241.5 401.5207,-189.5 234.5207,-189.5"/>
<text text-anchor="start" x="242.5207" y="-229.5" font-family="Helvetica,sans-Serif" font-size="10.00" fill="#000000">/home/travis/build</text>
<text text-anchor="start" x="242.5207" y="-218.5" font-family="Helvetica,sans-Serif" font-size="10.00" fill="#000000">/AliceO2Group/AliceO2</text>
<text text-anchor="start" x="242.5207" y="-207.5" font-family="Helvetica,sans-Serif" font-size="10.00" fill="#000000">/Detectors/MUON/MCH/Raw</text>
<text text-anchor="middle" x="318.0207" y="-196.5" font-family="Helvetica,sans-Serif" font-size="10.00" fill="#000000">/Decoder/src/PayloadDecoder.h</text>
</a>
</g>
</g>
<!-- Node20&#45;&gt;Node21 -->
<g id="edge1" class="edge">
<title>Node20&#45;&gt;Node21</title>
<path fill="none" stroke="#191970" d="M425.9621,-273.4572C406.203,-262.8479 385.028,-251.4784 366.7124,-241.6442"/>
<polygon fill="#191970" stroke="#191970" points="424.4596,-276.623 434.9256,-278.27 427.771,-270.4558 424.4596,-276.623"/>
</g>
<!-- Node23 -->
<g id="node4" class="node">
<title>Node23</title>
<g id="a_node4"><a xlink:href="../../df/dcf/PageDecoder_8cxx.html" target="_top" xlink:title="/home/travis/build\l/AliceO2Group/AliceO2\l/Detectors/MUON/MCH/Raw\l/Decoder/src/PageDecoder.cxx">
<polygon fill="none" stroke="#000000" points="17.0207,-6 17.0207,-58 181.0207,-58 181.0207,-6 17.0207,-6"/>
<text text-anchor="start" x="25.0207" y="-46" font-family="Helvetica,sans-Serif" font-size="10.00" fill="#000000">/home/travis/build</text>
<text text-anchor="start" x="25.0207" y="-35" font-family="Helvetica,sans-Serif" font-size="10.00" fill="#000000">/AliceO2Group/AliceO2</text>
<text text-anchor="start" x="25.0207" y="-24" font-family="Helvetica,sans-Serif" font-size="10.00" fill="#000000">/Detectors/MUON/MCH/Raw</text>
<text text-anchor="middle" x="99.0207" y="-13" font-family="Helvetica,sans-Serif" font-size="10.00" fill="#000000">/Decoder/src/PageDecoder.cxx</text>
</a>
</g>
</g>
<!-- Node20&#45;&gt;Node23 -->
<g id="edge8" class="edge">
<title>Node20&#45;&gt;Node23</title>
<path fill="none" stroke="#191970" d="M391.3704,-291.9797C262.2328,-266.8937 52.082,-217.2035 9.0207,-153 -4.1002,-133.4371 -1.4763,-121.0874 9.0207,-100 17.5731,-82.8192 32.7666,-68.8273 48.2634,-58.1007"/>
<polygon fill="#191970" stroke="#191970" points="390.8126,-295.4365 401.294,-293.89 392.1359,-288.5627 390.8126,-295.4365"/>
</g>
<!-- Node24 -->
<g id="node5" class="node">
<title>Node24</title>
<g id="a_node5"><a xlink:href="../../d6/d95/testPageDecoder_8cxx.html" target="_top" xlink:title="/home/travis/build\l/AliceO2Group/AliceO2\l/Detectors/MUON/MCH/Raw\l/Decoder/src/testPageDecoder.cxx">
<polygon fill="none" stroke="#000000" points="199.0207,-6 199.0207,-58 381.0207,-58 381.0207,-6 199.0207,-6"/>
<text text-anchor="start" x="207.0207" y="-46" font-family="Helvetica,sans-Serif" font-size="10.00" fill="#000000">/home/travis/build</text>
<text text-anchor="start" x="207.0207" y="-35" font-family="Helvetica,sans-Serif" font-size="10.00" fill="#000000">/AliceO2Group/AliceO2</text>
<text text-anchor="start" x="207.0207" y="-24" font-family="Helvetica,sans-Serif" font-size="10.00" fill="#000000">/Detectors/MUON/MCH/Raw</text>
<text text-anchor="middle" x="290.0207" y="-13" font-family="Helvetica,sans-Serif" font-size="10.00" fill="#000000">/Decoder/src/testPageDecoder.cxx</text>
</a>
</g>
</g>
<!-- Node20&#45;&gt;Node24 -->
<g id="edge9" class="edge">
<title>Node20&#45;&gt;Node24</title>
<path fill="none" stroke="#191970" d="M487.0309,-268.4403C477.2986,-214.8038 458.4305,-125.3525 437.0207,-100 426.0899,-87.0563 392.8799,-71.2317 360.7863,-58.1061"/>
<polygon fill="#191970" stroke="#191970" points="483.5947,-269.108 488.797,-278.3377 490.4859,-267.8783 483.5947,-269.108"/>
</g>
<!-- Node26 -->
<g id="node7" class="node">
<title>Node26</title>
<g id="a_node7"><a xlink:href="../../d8/dcb/testUserLogicEndpointDecoder_8cxx.html" target="_top" xlink:title="/home/travis/build\l/AliceO2Group/AliceO2\l/Detectors/MUON/MCH/Raw\l/Decoder/src/testUserLogicEndpoint\lDecoder.cxx">
<polygon fill="none" stroke="#000000" points="399.0207,-.5 399.0207,-63.5 589.0207,-63.5 589.0207,-.5 399.0207,-.5"/>
<text text-anchor="start" x="407.0207" y="-51.5" font-family="Helvetica,sans-Serif" font-size="10.00" fill="#000000">/home/travis/build</text>
<text text-anchor="start" x="407.0207" y="-40.5" font-family="Helvetica,sans-Serif" font-size="10.00" fill="#000000">/AliceO2Group/AliceO2</text>
<text text-anchor="start" x="407.0207" y="-29.5" font-family="Helvetica,sans-Serif" font-size="10.00" fill="#000000">/Detectors/MUON/MCH/Raw</text>
<text text-anchor="start" x="407.0207" y="-18.5" font-family="Helvetica,sans-Serif" font-size="10.00" fill="#000000">/Decoder/src/testUserLogicEndpoint</text>
<text text-anchor="middle" x="494.0207" y="-7.5" font-family="Helvetica,sans-Serif" font-size="10.00" fill="#000000">Decoder.cxx</text>
</a>
</g>
</g>
<!-- Node20&#45;&gt;Node26 -->
<g id="edge10" class="edge">
<title>Node20&#45;&gt;Node26</title>
<path fill="none" stroke="#191970" d="M494.0207,-268.0882C494.0207,-212.0174 494.0207,-113.8405 494.0207,-63.5899"/>
<polygon fill="#191970" stroke="#191970" points="490.5208,-268.3805 494.0207,-278.3805 497.5208,-268.3806 490.5208,-268.3805"/>
</g>
<!-- Node27 -->
<g id="node8" class="node">
<title>Node27</title>
<g id="a_node8"><a xlink:href="../../d4/dbc/rawdump_8cxx.html" target="_top" xlink:title="/home/travis/build\l/AliceO2Group/AliceO2\l/Detectors/MUON/MCH/Raw\l/Tools/rawdump.cxx">
<polygon fill="none" stroke="#000000" points="522.0207,-189.5 522.0207,-241.5 672.0207,-241.5 672.0207,-189.5 522.0207,-189.5"/>
<text text-anchor="start" x="530.0207" y="-229.5" font-family="Helvetica,sans-Serif" font-size="10.00" fill="#000000">/home/travis/build</text>
<text text-anchor="start" x="530.0207" y="-218.5" font-family="Helvetica,sans-Serif" font-size="10.00" fill="#000000">/AliceO2Group/AliceO2</text>
<text text-anchor="start" x="530.0207" y="-207.5" font-family="Helvetica,sans-Serif" font-size="10.00" fill="#000000">/Detectors/MUON/MCH/Raw</text>
<text text-anchor="middle" x="597.0207" y="-196.5" font-family="Helvetica,sans-Serif" font-size="10.00" fill="#000000">/Tools/rawdump.cxx</text>
</a>
</g>
</g>
<!-- Node20&#45;&gt;Node27 -->
<g id="edge11" class="edge">
<title>Node20&#45;&gt;Node27</title>
<path fill="none" stroke="#191970" d="M536.0474,-271.4415C546.9703,-261.42 558.4821,-250.8582 568.5249,-241.6442"/>
<polygon fill="#191970" stroke="#191970" points="533.6071,-268.9305 528.6047,-278.27 538.3395,-274.0885 533.6071,-268.9305"/>
</g>
<!-- Node28 -->
<g id="node9" class="node">
<title>Node28</title>
<g id="a_node9"><a xlink:href="../../d0/d75/DataDecoderSpec_8cxx.html" target="_top" xlink:title="/home/travis/build\l/AliceO2Group/AliceO2\l/Detectors/MUON/MCH/Workflow\l/src/DataDecoderSpec.cxx">
<polygon fill="none" stroke="#000000" points="690.0207,-189.5 690.0207,-241.5 864.0207,-241.5 864.0207,-189.5 690.0207,-189.5"/>
<text text-anchor="start" x="698.0207" y="-229.5" font-family="Helvetica,sans-Serif" font-size="10.00" fill="#000000">/home/travis/build</text>
<text text-anchor="start" x="698.0207" y="-218.5" font-family="Helvetica,sans-Serif" font-size="10.00" fill="#000000">/AliceO2Group/AliceO2</text>
<text text-anchor="start" x="698.0207" y="-207.5" font-family="Helvetica,sans-Serif" font-size="10.00" fill="#000000">/Detectors/MUON/MCH/Workflow</text>
<text text-anchor="middle" x="777.0207" y="-196.5" font-family="Helvetica,sans-Serif" font-size="10.00" fill="#000000">/src/DataDecoderSpec.cxx</text>
</a>
</g>
</g>
<!-- Node20&#45;&gt;Node28 -->
<g id="edge12" class="edge">
<title>Node20&#45;&gt;Node28</title>
<path fill="none" stroke="#191970" d="M596.5714,-275.756C630.2979,-264.494 667.2259,-252.1629 698.8409,-241.606"/>
<polygon fill="#191970" stroke="#191970" points="595.0621,-272.57 586.6855,-279.0572 597.2792,-279.2096 595.0621,-272.57"/>
</g>
<!-- Node29 -->
<g id="node10" class="node">
<title>Node29</title>
<g id="a_node10"><a xlink:href="../../db/d1c/file-to-digits-workflow_8cxx.html" target="_top" xlink:title="/home/travis/build\l/AliceO2Group/AliceO2\l/Detectors/MUON/MCH/Workflow\l/src/file&#45;to&#45;digits&#45;workflow.cxx">
<polygon fill="none" stroke="#000000" points="882.0207,-189.5 882.0207,-241.5 1056.0207,-241.5 1056.0207,-189.5 882.0207,-189.5"/>
<text text-anchor="start" x="890.0207" y="-229.5" font-family="Helvetica,sans-Serif" font-size="10.00" fill="#000000">/home/travis/build</text>
<text text-anchor="start" x="890.0207" y="-218.5" font-family="Helvetica,sans-Serif" font-size="10.00" fill="#000000">/AliceO2Group/AliceO2</text>
<text text-anchor="start" x="890.0207" y="-207.5" font-family="Helvetica,sans-Serif" font-size="10.00" fill="#000000">/Detectors/MUON/MCH/Workflow</text>
<text text-anchor="middle" x="969.0207" y="-196.5" font-family="Helvetica,sans-Serif" font-size="10.00" fill="#000000">/src/file&#45;to&#45;digits&#45;workflow.cxx</text>
</a>
</g>
</g>
<!-- Node20&#45;&gt;Node29 -->
<g id="edge13" class="edge">
<title>Node20&#45;&gt;Node29</title>
<path fill="none" stroke="#191970" d="M596.9076,-294.1628C673.4311,-281.7491 780.2207,-263.0866 873.0207,-242 875.9712,-241.3296 878.967,-240.6269 881.988,-239.8997"/>
<polygon fill="#191970" stroke="#191970" points="596.1017,-290.7475 586.7874,-295.7967 597.2175,-297.658 596.1017,-290.7475"/>
</g>
<!-- Node22 -->
<g id="node3" class="node">
<title>Node22</title>
<g id="a_node3"><a xlink:href="../../da/db7/BareGBTDecoder_8h.html" target="_top" xlink:title="/home/travis/build\l/AliceO2Group/AliceO2\l/Detectors/MUON/MCH/Raw\l/Decoder/src/BareGBTDecoder.h">
<polygon fill="none" stroke="#000000" points="18.0207,-100.5 18.0207,-152.5 190.0207,-152.5 190.0207,-100.5 18.0207,-100.5"/>
<text text-anchor="start" x="26.0207" y="-140.5" font-family="Helvetica,sans-Serif" font-size="10.00" fill="#000000">/home/travis/build</text>
<text text-anchor="start" x="26.0207" y="-129.5" font-family="Helvetica,sans-Serif" font-size="10.00" fill="#000000">/AliceO2Group/AliceO2</text>
<text text-anchor="start" x="26.0207" y="-118.5" font-family="Helvetica,sans-Serif" font-size="10.00" fill="#000000">/Detectors/MUON/MCH/Raw</text>
<text text-anchor="middle" x="104.0207" y="-107.5" font-family="Helvetica,sans-Serif" font-size="10.00" fill="#000000">/Decoder/src/BareGBTDecoder.h</text>
</a>
</g>
</g>
<!-- Node21&#45;&gt;Node22 -->
<g id="edge2" class="edge">
<title>Node21&#45;&gt;Node22</title>
<path fill="none" stroke="#191970" d="M245.9521,-185.5276C220.2845,-174.8527 191.6047,-162.9251 166.7807,-152.6011"/>
<polygon fill="#191970" stroke="#191970" points="244.6822,-188.79 255.2596,-189.3984 247.3703,-182.3267 244.6822,-188.79"/>
</g>
<!-- Node25 -->
<g id="node6" class="node">
<title>Node25</title>
<g id="a_node6"><a xlink:href="../../db/d18/UserLogicEndpointDecoder_8h.html" target="_top" xlink:title="/home/travis/build\l/AliceO2Group/AliceO2\l/Detectors/MUON/MCH/Raw\l/Decoder/src/UserLogicEndpointDecoder.h">
<polygon fill="none" stroke="#000000" points="208.0207,-100.5 208.0207,-152.5 428.0207,-152.5 428.0207,-100.5 208.0207,-100.5"/>
<text text-anchor="start" x="216.0207" y="-140.5" font-family="Helvetica,sans-Serif" font-size="10.00" fill="#000000">/home/travis/build</text>
<text text-anchor="start" x="216.0207" y="-129.5" font-family="Helvetica,sans-Serif" font-size="10.00" fill="#000000">/AliceO2Group/AliceO2</text>
<text text-anchor="start" x="216.0207" y="-118.5" font-family="Helvetica,sans-Serif" font-size="10.00" fill="#000000">/Detectors/MUON/MCH/Raw</text>
<text text-anchor="middle" x="318.0207" y="-107.5" font-family="Helvetica,sans-Serif" font-size="10.00" fill="#000000">/Decoder/src/UserLogicEndpointDecoder.h</text>
</a>
</g>
</g>
<!-- Node21&#45;&gt;Node25 -->
<g id="edge5" class="edge">
<title>Node21&#45;&gt;Node25</title>
<path fill="none" stroke="#191970" d="M318.0207,-179.1155C318.0207,-170.2061 318.0207,-160.8475 318.0207,-152.5341"/>
<polygon fill="#191970" stroke="#191970" points="314.5208,-179.2784 318.0207,-189.2784 321.5208,-179.2785 314.5208,-179.2784"/>
</g>
<!-- Node22&#45;&gt;Node23 -->
<g id="edge3" class="edge">
<title>Node22&#45;&gt;Node23</title>
<path fill="none" stroke="#191970" d="M102.0982,-90.1645C101.537,-79.5577 100.9347,-68.1746 100.413,-58.3157"/>
<polygon fill="#191970" stroke="#191970" points="98.6176,-90.6262 102.6412,-100.4273 105.6078,-90.2563 98.6176,-90.6262"/>
</g>
<!-- Node22&#45;&gt;Node24 -->
<g id="edge4" class="edge">
<title>Node22&#45;&gt;Node24</title>
<path fill="none" stroke="#191970" d="M164.3391,-95.8544C188.288,-83.6868 215.5498,-69.836 238.5479,-58.1515"/>
<polygon fill="#191970" stroke="#191970" points="162.6683,-92.7773 155.3384,-100.4273 165.8391,-99.0181 162.6683,-92.7773"/>
</g>
<!-- Node25&#45;&gt;Node23 -->
<g id="edge6" class="edge">
<title>Node25&#45;&gt;Node23</title>
<path fill="none" stroke="#191970" d="M248.1166,-96.3359C219.652,-84.0532 187.062,-69.9904 159.6257,-58.1515"/>
<polygon fill="#191970" stroke="#191970" points="247.0299,-99.6789 257.5982,-100.4273 249.8033,-93.2517 247.0299,-99.6789"/>
</g>
<!-- Node25&#45;&gt;Node26 -->
<g id="edge7" class="edge">
<title>Node25&#45;&gt;Node26</title>
<path fill="none" stroke="#191970" d="M375.5016,-95.6367C394.6659,-85.3468 416.0342,-73.8734 435.292,-63.5333"/>
<polygon fill="#191970" stroke="#191970" points="373.734,-92.6131 366.5794,-100.4273 377.0454,-98.7803 373.734,-92.6131"/>
</g>
</g>
</svg>
        <g id="navigator" transform="translate(0 0)" fill="#404254">
                <rect fill="#f2f5e9" fill-opacity="0.5" stroke="#606060" stroke-width=".5" x="0" y="0" width="60" height="60"/>
                <use id="zoomplus" xlink:href="#zoomPlus" x="17" y="9" onmousedown="handleZoom(evt,'in')"/>
                <use id="zoomminus" xlink:href="#zoomMin" x="42" y="9" onmousedown="handleZoom(evt,'out')"/>
                <use id="reset" xlink:href="#resetDef" x="30" y="36" onmousedown="handleReset()"/>
                <g id="arrowUp" xlink:href="#dirArrow" transform="translate(30 24)" onmousedown="handlePan(0,-1)">
                  <use xlink:href="#rim" fill="#404040">
                        <set attributeName="fill" to="#808080" begin="arrowUp.mouseover" end="arrowUp.mouseout"/>
                  </use>
                  <path fill="none" stroke="white" stroke-width="1.5" d="M0,-3.0v7 M-2.5,-0.5L0,-3.0L2.5,-0.5"/>
                </g>
                <g id="arrowRight" xlink:href="#dirArrow" transform="rotate(90) translate(36 -43)" onmousedown="handlePan(1,0)">
                  <use xlink:href="#rim" fill="#404040">
                        <set attributeName="fill" to="#808080" begin="arrowRight.mouseover" end="arrowRight.mouseout"/>
                  </use>
                  <path fill="none" stroke="white" stroke-width="1.5" d="M0,-3.0v7 M-2.5,-0.5L0,-3.0L2.5,-0.5"/>
                </g>
                <g id="arrowDown" xlink:href="#dirArrow" transform="rotate(180) translate(-30 -48)" onmousedown="handlePan(0,1)">
                  <use xlink:href="#rim" fill="#404040">
                        <set attributeName="fill" to="#808080" begin="arrowDown.mouseover" end="arrowDown.mouseout"/>
                  </use>
                  <path fill="none" stroke="white" stroke-width="1.5" d="M0,-3.0v7 M-2.5,-0.5L0,-3.0L2.5,-0.5"/>
                </g>
                <g id="arrowLeft" xlink:href="#dirArrow" transform="rotate(270) translate(-36 17)" onmousedown="handlePan(-1,0)">
                  <use xlink:href="#rim" fill="#404040">
                        <set attributeName="fill" to="#808080" begin="arrowLeft.mouseover" end="arrowLeft.mouseout"/>
                  </use>
                  <path fill="none" stroke="white" stroke-width="1.5" d="M0,-3.0v7 M-2.5,-0.5L0,-3.0L2.5,-0.5"/>
                </g>
        </g>
        <svg viewBox="0 0 15 15" width="100%" height="30px" preserveAspectRatio="xMaxYMin meet">
         <g id="arrow_out" transform="scale(0.3 0.3)">
          <a xlink:href="PageDecoder_8h__dep__incl_org.svg" target="_base">
           <rect id="button" ry="5" rx="5" y="6" x="6" height="38" width="38"
                fill="#f2f5e9" fill-opacity="0.5" stroke="#606060" stroke-width="1.0"/>
           <path id="arrow"
             d="M 11.500037,31.436501 C 11.940474,20.09759 22.043105,11.32322 32.158766,21.979434 L 37.068811,17.246167 C 37.068811,17.246167 37.088388,32 37.088388,32 L 22.160133,31.978069 C 22.160133,31.978069 26.997745,27.140456 26.997745,27.140456 C 18.528582,18.264221 13.291696,25.230495 11.500037,31.436501 z"
             style="fill:#404040;"/>
          </a>
         </g>
        </svg>
</svg>
