<?xml version="1.0" encoding="UTF-8" standalone="no"?>
<!DOCTYPE svg PUBLIC "-//W3C//DTD SVG 1.1//EN"
 "http://www.w3.org/Graphics/SVG/1.1/DTD/svg11.dtd">
<!-- Generated by graphviz version 2.40.1 (20161225.0304)
 -->
<!-- Title: /home/travis/build/AliceO2Group/AliceO2/Detectors/MUON/MCH/Raw/Tools/rawdump.cxx Pages: 1 -->
<!--zoomable 296 -->
<svg id="main" version="1.1" xmlns="http://www.w3.org/2000/svg" xmlns:xlink="http://www.w3.org/1999/xlink" xml:space="preserve" onload="init(evt)">
<style type="text/css"><![CDATA[
.edge:hover path { stroke: red; }
.edge:hover polygon { stroke: red; fill: red; }
]]></style>
<script type="text/javascript"><![CDATA[
var edges = document.getElementsByTagName('g');
if (edges && edges.length) {
  for (var i=0;i<edges.length;i++) {
    if (edges[i].id.substr(0,4)=='edge') {
      edges[i].setAttribute('class','edge');
    }
  }
}
]]></script>
        <defs>
                <circle id="rim" cx="0" cy="0" r="7"/>
                <circle id="rim2" cx="0" cy="0" r="3.5"/>
                <g id="zoomPlus">
                        <use xlink:href="#rim" fill="#404040">
                                <set attributeName="fill" to="#808080" begin="zoomplus.mouseover" end="zoomplus.mouseout"/>
                        </use>
                        <path d="M-4,0h8M0,-4v8" fill="none" stroke="white" stroke-width="1.5" pointer-events="none"/>
                </g>
                <g id="zoomMin">
                        <use xlink:href="#rim" fill="#404040">
                                <set attributeName="fill" to="#808080" begin="zoomminus.mouseover" end="zoomminus.mouseout"/>
                        </use>
                        <path d="M-4,0h8" fill="none" stroke="white" stroke-width="1.5" pointer-events="none"/>
                </g>
                <g id="dirArrow">
                        <path fill="none" stroke="white" stroke-width="1.5" d="M0,-3.0v7 M-2.5,-0.5L0,-3.0L2.5,-0.5"/>
                </g>
               <g id="resetDef">
                       <use xlink:href="#rim2" fill="#404040">
                               <set attributeName="fill" to="#808080" begin="reset.mouseover" end="reset.mouseout"/>
                       </use>
               </g>
        </defs>

<script type="text/javascript">
var viewWidth = 2276;
var viewHeight = 296;
var sectionId = 'dynsection-0';
</script>
<script xlink:href="../../svgpan.js"/>
<svg id="graph" class="graph">
<g id="viewport">
<title>/home/travis/build/AliceO2Group/AliceO2/Detectors/MUON/MCH/Raw/Tools/rawdump.cxx</title>
<!-- Node0 -->
<g id="node1" class="node">
<title>Node0</title>
<polygon fill="#bfbfbf" stroke="#000000" points="1412.916,-235.5 1412.916,-287.5 1562.916,-287.5 1562.916,-235.5 1412.916,-235.5"/>
<text text-anchor="start" x="1420.916" y="-275.5" font-family="Helvetica,sans-Serif" font-size="10.00" fill="#000000">/home/travis/build</text>
<text text-anchor="start" x="1420.916" y="-264.5" font-family="Helvetica,sans-Serif" font-size="10.00" fill="#000000">/AliceO2Group/AliceO2</text>
<text text-anchor="start" x="1420.916" y="-253.5" font-family="Helvetica,sans-Serif" font-size="10.00" fill="#000000">/Detectors/MUON/MCH/Raw</text>
<text text-anchor="middle" x="1487.916" y="-242.5" font-family="Helvetica,sans-Serif" font-size="10.00" fill="#000000">/Tools/rawdump.cxx</text>
</g>
<!-- Node1 -->
<g id="node2" class="node">
<title>Node1</title>
<g id="a_node2"><a xlink:href="../../d1/d53/DumpBuffer_8h.html" target="_top" xlink:title="DumpBuffer.h">
<polygon fill="none" stroke="#000000" points="614.416,-179.5 614.416,-198.5 697.416,-198.5 697.416,-179.5 614.416,-179.5"/>
<text text-anchor="middle" x="655.916" y="-186.5" font-family="Helvetica,sans-Serif" font-size="10.00" fill="#000000">DumpBuffer.h</text>
</a>
</g>
</g>
<!-- Node0&#45;&gt;Node1 -->
<g id="edge1" class="edge">
<title>Node0&#45;&gt;Node1</title>
<path fill="none" stroke="#191970" d="M1412.6141,-254.9382C1245.9805,-240.4179 849.5796,-205.8757 707.6081,-193.5044"/>
<polygon fill="#191970" stroke="#191970" points="707.7013,-189.9994 697.4352,-192.618 707.0936,-196.9729 707.7013,-189.9994"/>
</g>
<!-- Node2 -->
<g id="node3" class="node">
<title>Node2</title>
<polygon fill="none" stroke="#bfbfbf" points="1065.416,-56.5 1065.416,-75.5 1122.416,-75.5 1122.416,-56.5 1065.416,-56.5"/>
<text text-anchor="middle" x="1093.916" y="-63.5" font-family="Helvetica,sans-Serif" font-size="10.00" fill="#000000">gsl/span</text>
</g>
<!-- Node0&#45;&gt;Node2 -->
<g id="edge61" class="edge">
<title>Node0&#45;&gt;Node2</title>
<path fill="none" stroke="#191970" d="M1412.737,-253.5825C1293.6278,-239.2905 1070.2464,-204.7738 1023.916,-143 1015.6493,-131.9778 1017.3747,-124.1259 1023.916,-112 1031.489,-97.9617 1045.4233,-87.5084 1058.8774,-80.1453"/>
<polygon fill="#191970" stroke="#191970" points="1060.674,-83.1593 1068.031,-75.5353 1057.5254,-76.9074 1060.674,-83.1593"/>
</g>
<!-- Node3 -->
<g id="node4" class="node">
<title>Node3</title>
<polygon fill="none" stroke="#bfbfbf" points="147.916,-.5 147.916,-19.5 207.916,-19.5 207.916,-.5 147.916,-.5"/>
<text text-anchor="middle" x="177.916" y="-7.5" font-family="Helvetica,sans-Serif" font-size="10.00" fill="#000000">iostream</text>
</g>
<!-- Node0&#45;&gt;Node3 -->
<g id="edge62" class="edge">
<title>Node0&#45;&gt;Node3</title>
<path fill="none" stroke="#191970" d="M1412.5991,-260.8526C1237.804,-258.5294 791.3255,-247.8727 421.916,-199 300.4208,-182.9262 268.4473,-180.9463 151.916,-143 83.2602,-120.6435 43.0527,-136.6775 3.916,-76 -.902,-68.5301 -1.507,-63.043 3.916,-56 20.1321,-34.9398 91.6447,-21.5553 137.7935,-14.9458"/>
<polygon fill="#191970" stroke="#191970" points="138.3683,-18.3998 147.7942,-13.5621 137.4088,-11.4658 138.3683,-18.3998"/>
</g>
<!-- Node4 -->
<g id="node5" class="node">
<title>Node4</title>
<polygon fill="none" stroke="#bfbfbf" points="867.416,-.5 867.416,-19.5 946.416,-19.5 946.416,-.5 867.416,-.5"/>
<text text-anchor="middle" x="906.916" y="-7.5" font-family="Helvetica,sans-Serif" font-size="10.00" fill="#000000">fmt/format.h</text>
</g>
<!-- Node0&#45;&gt;Node4 -->
<g id="edge59" class="edge">
<title>Node0&#45;&gt;Node4</title>
<path fill="none" stroke="#191970" d="M1412.6935,-255.716C1309.5562,-246.8535 1130.3659,-227.8491 1071.916,-199 1039.7844,-183.1408 1033.7846,-172.8193 1013.916,-143 990.8967,-108.4519 1006.3586,-88.0038 979.916,-56 968.88,-42.643 952.9146,-31.9655 938.7269,-24.2729"/>
<polygon fill="#191970" stroke="#191970" points="940.2242,-21.1073 929.73,-19.6506 937.0253,-27.3336 940.2242,-21.1073"/>
</g>
<!-- Node10 -->
<g id="node11" class="node">
<title>Node10</title>
<polygon fill="none" stroke="#bfbfbf" points="1285.916,-.5 1285.916,-19.5 1335.916,-19.5 1335.916,-.5 1285.916,-.5"/>
<text text-anchor="middle" x="1310.916" y="-7.5" font-family="Helvetica,sans-Serif" font-size="10.00" fill="#000000">cstdint</text>
</g>
<!-- Node0&#45;&gt;Node10 -->
<g id="edge67" class="edge">
<title>Node0&#45;&gt;Node10</title>
<path fill="none" stroke="#191970" d="M1504.1018,-235.4235C1521.9913,-202.9003 1544.7176,-147.2892 1515.916,-112 1465.4321,-50.1446 1402.035,-126.1593 1339.916,-76 1325.6551,-64.4848 1318.22,-44.5445 1314.4681,-29.5875"/>
<polygon fill="#191970" stroke="#191970" points="1317.8791,-28.8018 1312.3421,-19.7689 1311.0377,-30.2831 1317.8791,-28.8018"/>
</g>
<!-- Node12 -->
<g id="node13" class="node">
<title>Node12</title>
<polygon fill="none" stroke="#bfbfbf" points="22.916,-56.5 22.916,-75.5 66.916,-75.5 66.916,-56.5 22.916,-56.5"/>
<text text-anchor="middle" x="44.916" y="-63.5" font-family="Helvetica,sans-Serif" font-size="10.00" fill="#000000">string</text>
</g>
<!-- Node0&#45;&gt;Node12 -->
<g id="edge69" class="edge">
<title>Node0&#45;&gt;Node12</title>
<path fill="none" stroke="#191970" d="M1412.7091,-258.3451C1260.0603,-251.4637 903.055,-232.9378 604.916,-199 445.7759,-180.8848 403.7633,-183.9394 248.916,-143 185.4869,-126.2303 114.4414,-96.8753 75.1637,-79.6616"/>
<polygon fill="#191970" stroke="#191970" points="76.4477,-76.4026 65.8863,-75.5619 73.6183,-82.8053 76.4477,-76.4026"/>
</g>
<!-- Node16 -->
<g id="node17" class="node">
<title>Node16</title>
<g id="a_node17"><a xlink:href="../../d4/d78/DataFormats_2Headers_2include_2Headers_2RAWDataHeader_8h.html" target="_top" xlink:title="Headers/RAWDataHeader.h">
<polygon fill="none" stroke="#000000" points="1032.416,-118 1032.416,-137 1181.416,-137 1181.416,-118 1032.416,-118"/>
<text text-anchor="middle" x="1106.916" y="-125" font-family="Helvetica,sans-Serif" font-size="10.00" fill="#000000">Headers/RAWDataHeader.h</text>
</a>
</g>
</g>
<!-- Node0&#45;&gt;Node16 -->
<g id="edge24" class="edge">
<title>Node0&#45;&gt;Node16</title>
<path fill="none" stroke="#191970" d="M1412.8269,-242.4701C1370.6847,-231.1447 1317.3906,-215.7426 1270.916,-199 1222.5854,-181.5888 1168.2515,-156.8315 1135.844,-141.4873"/>
<polygon fill="#191970" stroke="#191970" points="1137.0546,-138.1872 1126.5214,-137.0461 1134.044,-144.5067 1137.0546,-138.1872"/>
</g>
<!-- Node17 -->
<g id="node18" class="node">
<title>Node17</title>
<g id="a_node18"><a xlink:href="../../d0/d64/DataFormats_8h.html" target="_top" xlink:title="MCHRawCommon/DataFormats.h">
<polygon fill="none" stroke="#000000" points="759.416,-118 759.416,-137 938.416,-137 938.416,-118 759.416,-118"/>
<text text-anchor="middle" x="848.916" y="-125" font-family="Helvetica,sans-Serif" font-size="10.00" fill="#000000">MCHRawCommon/DataFormats.h</text>
</a>
</g>
</g>
<!-- Node0&#45;&gt;Node17 -->
<g id="edge25" class="edge">
<title>Node0&#45;&gt;Node17</title>
<path fill="none" stroke="#191970" d="M1412.9028,-257.2034C1286.1594,-249.2029 1035.37,-229.9692 952.916,-199 919.3535,-186.3941 886.2079,-160.693 866.6575,-143.7864"/>
<polygon fill="#191970" stroke="#191970" points="868.958,-141.1485 859.1495,-137.1429 864.3193,-146.3909 868.958,-141.1485"/>
</g>
<!-- Node18 -->
<g id="node19" class="node">
<title>Node18</title>
<g id="a_node19"><a xlink:href="../../dc/d36/PageDecoder_8h.html" target="_top" xlink:title="MCHRawDecoder/PageDecoder.h">
<polygon fill="none" stroke="#000000" points="1279.916,-179.5 1279.916,-198.5 1455.916,-198.5 1455.916,-179.5 1279.916,-179.5"/>
<text text-anchor="middle" x="1367.916" y="-186.5" font-family="Helvetica,sans-Serif" font-size="10.00" fill="#000000">MCHRawDecoder/PageDecoder.h</text>
</a>
</g>
</g>
<!-- Node0&#45;&gt;Node18 -->
<g id="edge26" class="edge">
<title>Node0&#45;&gt;Node18</title>
<path fill="none" stroke="#191970" d="M1444.5933,-235.3258C1427.0251,-224.7118 1407.3849,-212.8458 1392.3801,-203.7804"/>
<polygon fill="#191970" stroke="#191970" points="1394.0655,-200.7095 1383.6964,-198.534 1390.4457,-206.7009 1394.0655,-200.7095"/>
</g>
<!-- Node19 -->
<g id="node20" class="node">
<title>Node19</title>
<polygon fill="none" stroke="#bfbfbf" points="1468.916,-118 1468.916,-137 1506.916,-137 1506.916,-118 1468.916,-118"/>
<text text-anchor="middle" x="1487.916" y="-125" font-family="Helvetica,sans-Serif" font-size="10.00" fill="#000000">map</text>
</g>
<!-- Node0&#45;&gt;Node19 -->
<g id="edge68" class="edge">
<title>Node0&#45;&gt;Node19</title>
<path fill="none" stroke="#191970" d="M1487.916,-235.3453C1487.916,-209.5564 1487.916,-170.7118 1487.916,-147.3578"/>
<polygon fill="#191970" stroke="#191970" points="1491.4161,-147.2626 1487.916,-137.2626 1484.4161,-147.2627 1491.4161,-147.2626"/>
</g>
<!-- Node24 -->
<g id="node25" class="node">
<title>Node24</title>
<polygon fill="none" stroke="#bfbfbf" points="2012.916,-.5 2012.916,-19.5 2068.916,-19.5 2068.916,-.5 2012.916,-.5"/>
<text text-anchor="middle" x="2040.916" y="-7.5" font-family="Helvetica,sans-Serif" font-size="10.00" fill="#000000">optional</text>
</g>
<!-- Node0&#45;&gt;Node24 -->
<g id="edge66" class="edge">
<title>Node0&#45;&gt;Node24</title>
<path fill="none" stroke="#191970" d="M1525.1235,-235.4338C1552.8441,-217.146 1592.2553,-193.4668 1629.916,-179 1837.6535,-99.201 1979.6742,-248.786 2119.916,-76 2137.0169,-54.9307 2106.0419,-35.6368 2078.0038,-23.424"/>
<polygon fill="#191970" stroke="#191970" points="2079.2596,-20.1559 2068.6815,-19.5614 2076.5801,-26.6228 2079.2596,-20.1559"/>
</g>
<!-- Node25 -->
<g id="node26" class="node">
<title>Node25</title>
<g id="a_node26"><a xlink:href="../../d2/d71/MUON_2MCH_2Raw_2ElecMap_2include_2MCHRawElecMap_2Mapper_8h.html" target="_top" xlink:title="MCHRawElecMap/Mapper.h">
<polygon fill="none" stroke="#000000" points="1562.916,-118 1562.916,-137 1710.916,-137 1710.916,-118 1562.916,-118"/>
<text text-anchor="middle" x="1636.916" y="-125" font-family="Helvetica,sans-Serif" font-size="10.00" fill="#000000">MCHRawElecMap/Mapper.h</text>
</a>
</g>
</g>
<!-- Node0&#45;&gt;Node25 -->
<g id="edge57" class="edge">
<title>Node0&#45;&gt;Node25</title>
<path fill="none" stroke="#191970" d="M1516.9984,-235.3453C1547.108,-208.2669 1593.2227,-166.7947 1618.5973,-143.9745"/>
<polygon fill="#191970" stroke="#191970" points="1620.9655,-146.552 1626.0605,-137.2626 1616.2847,-141.3472 1620.9655,-146.552"/>
</g>
<!-- Node31 -->
<g id="node32" class="node">
<title>Node31</title>
<polygon fill="none" stroke="#bfbfbf" points="1638.916,-179.5 1638.916,-198.5 1788.916,-198.5 1788.916,-179.5 1638.916,-179.5"/>
<text text-anchor="middle" x="1713.916" y="-186.5" font-family="Helvetica,sans-Serif" font-size="10.00" fill="#000000">boost/program_options.hpp</text>
</g>
<!-- Node0&#45;&gt;Node31 -->
<g id="edge58" class="edge">
<title>Node0&#45;&gt;Node31</title>
<path fill="none" stroke="#191970" d="M1563.1707,-237.3585C1600.318,-225.4418 1643.6137,-211.5527 1674.2499,-201.7247"/>
<polygon fill="#191970" stroke="#191970" points="1675.6742,-204.9436 1684.1271,-198.5562 1673.536,-198.2781 1675.6742,-204.9436"/>
</g>
<!-- Node32 -->
<g id="node33" class="node">
<title>Node32</title>
<polygon fill="none" stroke="#bfbfbf" points="1806.416,-179.5 1806.416,-198.5 1861.416,-198.5 1861.416,-179.5 1806.416,-179.5"/>
<text text-anchor="middle" x="1833.916" y="-186.5" font-family="Helvetica,sans-Serif" font-size="10.00" fill="#000000">fstream</text>
</g>
<!-- Node0&#45;&gt;Node32 -->
<g id="edge60" class="edge">
<title>Node0&#45;&gt;Node32</title>
<path fill="none" stroke="#191970" d="M1563.1016,-247.9111C1623.7495,-236.5885 1711.4272,-219.4082 1796.265,-199.2902"/>
<polygon fill="#191970" stroke="#191970" points="1797.1459,-202.6783 1806.0595,-196.9513 1795.52,-195.8698 1797.1459,-202.6783"/>
</g>
<!-- Node33 -->
<g id="node34" class="node">
<title>Node33</title>
<polygon fill="none" stroke="#bfbfbf" points="1879.916,-179.5 1879.916,-198.5 2001.916,-198.5 2001.916,-179.5 1879.916,-179.5"/>
<text text-anchor="middle" x="1940.916" y="-186.5" font-family="Helvetica,sans-Serif" font-size="10.00" fill="#000000">rapidjson/document.h</text>
</g>
<!-- Node0&#45;&gt;Node33 -->
<g id="edge63" class="edge">
<title>Node0&#45;&gt;Node33</title>
<path fill="none" stroke="#191970" d="M1562.9738,-249.4874C1648.7493,-235.7596 1788.0017,-213.473 1871.3926,-200.1268"/>
<polygon fill="#191970" stroke="#191970" points="1871.9568,-203.5811 1881.278,-198.5447 1870.8505,-196.6691 1871.9568,-203.5811"/>
</g>
<!-- Node34 -->
<g id="node35" class="node">
<title>Node34</title>
<polygon fill="none" stroke="#bfbfbf" points="2020.416,-179.5 2020.416,-198.5 2149.416,-198.5 2149.416,-179.5 2020.416,-179.5"/>
<text text-anchor="middle" x="2084.916" y="-186.5" font-family="Helvetica,sans-Serif" font-size="10.00" fill="#000000">rapidjson/stringbuffer.h</text>
</g>
<!-- Node0&#45;&gt;Node34 -->
<g id="edge64" class="edge">
<title>Node0&#45;&gt;Node34</title>
<path fill="none" stroke="#191970" d="M1563.3107,-252.8589C1662.9118,-241.3608 1844.093,-220.16 2009.9529,-199.1068"/>
<polygon fill="#191970" stroke="#191970" points="2010.8713,-202.5183 2020.3498,-197.7847 2009.9882,-195.5742 2010.8713,-202.5183"/>
</g>
<!-- Node35 -->
<g id="node36" class="node">
<title>Node35</title>
<polygon fill="none" stroke="#bfbfbf" points="2167.416,-179.5 2167.416,-198.5 2268.416,-198.5 2268.416,-179.5 2167.416,-179.5"/>
<text text-anchor="middle" x="2217.916" y="-186.5" font-family="Helvetica,sans-Serif" font-size="10.00" fill="#000000">rapidjson/writer.h</text>
</g>
<!-- Node0&#45;&gt;Node35 -->
<g id="edge65" class="edge">
<title>Node0&#45;&gt;Node35</title>
<path fill="none" stroke="#191970" d="M1563.0913,-256.3469C1685.5095,-247.5474 1935.717,-227.8633 2156.9253,-199.1895"/>
<polygon fill="#191970" stroke="#191970" points="2157.6408,-202.6259 2167.1037,-197.8611 2156.7348,-195.6848 2157.6408,-202.6259"/>
</g>
<!-- Node1&#45;&gt;Node2 -->
<g id="edge2" class="edge">
<title>Node1&#45;&gt;Node2</title>
<path fill="none" stroke="#191970" d="M667.5872,-179.4034C692.4313,-158.994 748.4914,-113.0458 750.916,-112 757.874,-108.9988 966.9917,-82.1462 1055.2332,-70.9097"/>
<polygon fill="#191970" stroke="#191970" points="1055.8952,-74.3537 1065.3734,-69.6194 1055.0116,-67.4097 1055.8952,-74.3537"/>
</g>
<!-- Node1&#45;&gt;Node3 -->
<g id="edge3" class="edge">
<title>Node1&#45;&gt;Node3</title>
<path fill="none" stroke="#191970" d="M614.2611,-186.571C540.1891,-181.7471 380.9367,-169.0947 248.916,-143 142.3709,-121.9407 79.3427,-162.6874 13.916,-76 -20.0084,-31.0517 78.9442,-16.6306 137.7265,-12.0673"/>
<polygon fill="#191970" stroke="#191970" points="138.1164,-15.5485 147.8427,-11.3475 137.6195,-8.5661 138.1164,-15.5485"/>
</g>
<!-- Node1&#45;&gt;Node4 -->
<g id="edge4" class="edge">
<title>Node1&#45;&gt;Node4</title>
<path fill="none" stroke="#191970" d="M651.5446,-179.4152C645.1085,-163.7123 635.3334,-132.2323 649.916,-112 679.5003,-70.954 711.3752,-95.8482 757.916,-76 775.4715,-68.5131 778.6378,-64.1063 795.916,-56 821.2499,-44.1143 850.5129,-32.0539 872.6307,-23.2656"/>
<polygon fill="#191970" stroke="#191970" points="873.9273,-26.5167 881.9445,-19.5902 871.3578,-20.0053 873.9273,-26.5167"/>
</g>
<!-- Node5 -->
<g id="node6" class="node">
<title>Node5</title>
<polygon fill="none" stroke="#bfbfbf" points="350.416,-.5 350.416,-19.5 397.416,-19.5 397.416,-.5 350.416,-.5"/>
<text text-anchor="middle" x="373.916" y="-7.5" font-family="Helvetica,sans-Serif" font-size="10.00" fill="#000000">vector</text>
</g>
<!-- Node1&#45;&gt;Node5 -->
<g id="edge5" class="edge">
<title>Node1&#45;&gt;Node5</title>
<path fill="none" stroke="#191970" d="M614.045,-184.2647C556.714,-177.1669 457.4096,-162.4934 426.916,-143 395.8329,-123.1298 390.4271,-110.7053 377.916,-76 372.5631,-61.1513 371.8065,-43.2132 372.2529,-29.7881"/>
<polygon fill="#191970" stroke="#191970" points="375.7507,-29.9254 372.8364,-19.7393 368.7625,-29.5196 375.7507,-29.9254"/>
</g>
<!-- Node6 -->
<g id="node7" class="node">
<title>Node6</title>
<g id="a_node7"><a xlink:href="../../d5/d49/SampaHeader_8h.html" target="_top" xlink:title="MCHRawCommon/SampaHeader.h">
<polygon fill="none" stroke="#000000" points="85.416,-56.5 85.416,-75.5 270.416,-75.5 270.416,-56.5 85.416,-56.5"/>
<text text-anchor="middle" x="177.916" y="-63.5" font-family="Helvetica,sans-Serif" font-size="10.00" fill="#000000">MCHRawCommon/SampaHeader.h</text>
</a>
</g>
</g>
<!-- Node1&#45;&gt;Node6 -->
<g id="edge6" class="edge">
<title>Node1&#45;&gt;Node6</title>
<path fill="none" stroke="#191970" d="M614.3512,-185.1247C537.3538,-177.6412 375.5007,-160.3984 321.916,-143 276.1299,-128.1337 227.7285,-99.1116 200.3255,-81.2535"/>
<polygon fill="#191970" stroke="#191970" points="202.143,-78.2593 191.8715,-75.6618 198.2813,-84.0977 202.143,-78.2593"/>
</g>
<!-- Node8 -->
<g id="node9" class="node">
<title>Node8</title>
<polygon fill="none" stroke="#bfbfbf" points="658.916,-118 658.916,-137 702.916,-137 702.916,-118 658.916,-118"/>
<text text-anchor="middle" x="680.916" y="-125" font-family="Helvetica,sans-Serif" font-size="10.00" fill="#000000">limits</text>
</g>
<!-- Node1&#45;&gt;Node8 -->
<g id="edge9" class="edge">
<title>Node1&#45;&gt;Node8</title>
<path fill="none" stroke="#191970" d="M659.8223,-179.3906C663.3606,-170.6862 668.6796,-157.6015 673.091,-146.7494"/>
<polygon fill="#191970" stroke="#191970" points="676.4312,-147.8268 676.9547,-137.2449 669.9465,-145.1907 676.4312,-147.8268"/>
</g>
<!-- Node9 -->
<g id="node10" class="node">
<title>Node9</title>
<g id="a_node10"><a xlink:href="../../dc/d3a/RDHManip_8h.html" target="_top" xlink:title="MCHRawCommon/RDHManip.h">
<polygon fill="none" stroke="#000000" points="436.416,-118 436.416,-137 603.416,-137 603.416,-118 436.416,-118"/>
<text text-anchor="middle" x="519.916" y="-125" font-family="Helvetica,sans-Serif" font-size="10.00" fill="#000000">MCHRawCommon/RDHManip.h</text>
</a>
</g>
</g>
<!-- Node1&#45;&gt;Node9 -->
<g id="edge10" class="edge">
<title>Node1&#45;&gt;Node9</title>
<path fill="none" stroke="#191970" d="M634.666,-179.3906C612.0105,-169.1457 575.9362,-152.8326 550.2869,-141.2339"/>
<polygon fill="#191970" stroke="#191970" points="551.5706,-137.9732 541.0168,-137.0419 548.6863,-144.3514 551.5706,-137.9732"/>
</g>
<!-- Node1&#45;&gt;Node16 -->
<g id="edge21" class="edge">
<title>Node1&#45;&gt;Node16</title>
<path fill="none" stroke="#191970" d="M697.5366,-183.3245C772.3035,-173.129 930.5178,-151.5543 1026.8877,-138.4129"/>
<polygon fill="#191970" stroke="#191970" points="1027.4449,-141.8694 1036.8803,-137.0503 1026.4991,-134.9336 1027.4449,-141.8694"/>
</g>
<!-- Node1&#45;&gt;Node17 -->
<g id="edge23" class="edge">
<title>Node1&#45;&gt;Node17</title>
<path fill="none" stroke="#191970" d="M686.0723,-179.3906C719.2145,-168.8298 772.5922,-151.8208 809.1402,-140.1747"/>
<polygon fill="#191970" stroke="#191970" points="810.5062,-143.4129 818.9715,-137.0419 808.3809,-136.7433 810.5062,-143.4129"/>
</g>
<!-- Node6&#45;&gt;Node3 -->
<g id="edge8" class="edge">
<title>Node6&#45;&gt;Node3</title>
<path fill="none" stroke="#191970" d="M177.916,-56.2455C177.916,-48.9382 177.916,-38.6944 177.916,-29.7046"/>
<polygon fill="#191970" stroke="#191970" points="181.4161,-29.6426 177.916,-19.6427 174.4161,-29.6427 181.4161,-29.6426"/>
</g>
<!-- Node7 -->
<g id="node8" class="node">
<title>Node7</title>
<polygon fill="none" stroke="#bfbfbf" points="255.416,-.5 255.416,-19.5 304.416,-19.5 304.416,-.5 255.416,-.5"/>
<text text-anchor="middle" x="279.916" y="-7.5" font-family="Helvetica,sans-Serif" font-size="10.00" fill="#000000">cstdlib</text>
</g>
<!-- Node6&#45;&gt;Node7 -->
<g id="edge7" class="edge">
<title>Node6&#45;&gt;Node7</title>
<path fill="none" stroke="#191970" d="M195.683,-56.2455C211.6255,-47.4928 235.2419,-34.527 253.4149,-24.5496"/>
<polygon fill="#191970" stroke="#191970" points="255.2712,-27.5233 262.3526,-19.6427 251.9023,-21.3873 255.2712,-27.5233"/>
</g>
<!-- Node9&#45;&gt;Node2 -->
<g id="edge13" class="edge">
<title>Node9&#45;&gt;Node2</title>
<path fill="none" stroke="#191970" d="M597.566,-117.9866C614.795,-115.9469 632.9698,-113.8504 649.916,-112 811.0829,-94.402 851.7861,-93.9336 1012.916,-76 1026.5835,-74.4788 1041.5301,-72.6737 1054.8214,-71.0187"/>
<polygon fill="#191970" stroke="#191970" points="1055.5838,-74.4505 1065.0698,-69.7318 1054.7117,-67.505 1055.5838,-74.4505"/>
</g>
<!-- Node9&#45;&gt;Node3 -->
<g id="edge14" class="edge">
<title>Node9&#45;&gt;Node3</title>
<path fill="none" stroke="#191970" d="M492.2184,-117.984C431.1372,-96.9985 284.8081,-46.7246 215.5171,-22.9185"/>
<polygon fill="#191970" stroke="#191970" points="216.4668,-19.544 205.8721,-19.6048 214.1923,-26.1642 216.4668,-19.544"/>
</g>
<!-- Node9&#45;&gt;Node5 -->
<g id="edge17" class="edge">
<title>Node9&#45;&gt;Node5</title>
<path fill="none" stroke="#191970" d="M468.868,-117.9435C442.823,-110.592 412.575,-97.8386 392.916,-76 381.5855,-63.4133 376.9791,-44.4773 375.1232,-30.1117"/>
<polygon fill="#191970" stroke="#191970" points="378.5723,-29.4064 374.1487,-19.7793 371.6033,-30.0638 378.5723,-29.4064"/>
</g>
<!-- Node9&#45;&gt;Node10 -->
<g id="edge11" class="edge">
<title>Node9&#45;&gt;Node10</title>
<path fill="none" stroke="#191970" d="M598.6147,-117.9883C615.5344,-115.9793 633.3178,-113.8948 649.916,-112 796.5008,-95.2662 834.7998,-102.6156 979.916,-76 1014.6937,-69.6215 1022.3847,-63.6002 1056.916,-56 1134.5926,-38.9036 1226.6461,-23.4033 1275.809,-15.5031"/>
<polygon fill="#191970" stroke="#191970" points="1276.5927,-18.9223 1285.9156,-13.8891 1275.4888,-12.0099 1276.5927,-18.9223"/>
</g>
<!-- Node11 -->
<g id="node12" class="node">
<title>Node11</title>
<polygon fill="none" stroke="#bfbfbf" points="1179.416,-56.5 1179.416,-75.5 1244.416,-75.5 1244.416,-56.5 1179.416,-56.5"/>
<text text-anchor="middle" x="1211.916" y="-63.5" font-family="Helvetica,sans-Serif" font-size="10.00" fill="#000000">functional</text>
</g>
<!-- Node9&#45;&gt;Node11 -->
<g id="edge12" class="edge">
<title>Node9&#45;&gt;Node11</title>
<path fill="none" stroke="#191970" d="M595.1283,-117.9607C613.0652,-115.8441 632.1567,-113.7211 649.916,-112 863.7332,-91.2785 918.1586,-97.3291 1131.916,-76 1143.981,-74.7961 1157.0409,-73.262 1169.041,-71.7589"/>
<polygon fill="#191970" stroke="#191970" points="1169.7853,-75.1924 1179.2621,-70.4551 1168.8996,-68.2487 1169.7853,-75.1924"/>
</g>
<!-- Node9&#45;&gt;Node12 -->
<g id="edge15" class="edge">
<title>Node9&#45;&gt;Node12</title>
<path fill="none" stroke="#191970" d="M436.0541,-122.7007C348.4589,-116.5752 207.116,-103.5567 77.2494,-75.9305"/>
<polygon fill="#191970" stroke="#191970" points="77.6378,-72.4337 67.124,-73.7415 76.1586,-79.2756 77.6378,-72.4337"/>
</g>
<!-- Node13 -->
<g id="node14" class="node">
<title>Node13</title>
<polygon fill="none" stroke="#bfbfbf" points="402.416,-56.5 402.416,-75.5 475.416,-75.5 475.416,-56.5 402.416,-56.5"/>
<text text-anchor="middle" x="438.916" y="-63.5" font-family="Helvetica,sans-Serif" font-size="10.00" fill="#000000">string_view</text>
</g>
<!-- Node9&#45;&gt;Node13 -->
<g id="edge16" class="edge">
<title>Node9&#45;&gt;Node13</title>
<path fill="none" stroke="#191970" d="M507.2598,-117.8906C494.5392,-108.2324 474.7156,-93.1812 459.6876,-81.771"/>
<polygon fill="#191970" stroke="#191970" points="461.5644,-78.8015 451.4834,-75.5419 457.3314,-84.3766 461.5644,-78.8015"/>
</g>
<!-- Node14 -->
<g id="node15" class="node">
<title>Node14</title>
<g id="a_node15"><a xlink:href="../../dd/d9a/RDHFields_8h.html" target="_top" xlink:title="MCHRawCommon/RDHFields.h">
<polygon fill="none" stroke="#000000" points="804.916,-56.5 804.916,-75.5 970.916,-75.5 970.916,-56.5 804.916,-56.5"/>
<text text-anchor="middle" x="887.916" y="-63.5" font-family="Helvetica,sans-Serif" font-size="10.00" fill="#000000">MCHRawCommon/RDHFields.h</text>
</a>
</g>
</g>
<!-- Node9&#45;&gt;Node14 -->
<g id="edge18" class="edge">
<title>Node9&#45;&gt;Node14</title>
<path fill="none" stroke="#191970" d="M577.0122,-117.9581C642.9162,-106.9443 751.1692,-88.8531 820.9776,-77.1867"/>
<polygon fill="#191970" stroke="#191970" points="821.7024,-80.6142 830.9886,-75.5137 820.5485,-73.71 821.7024,-80.6142"/>
</g>
<!-- Node15 -->
<g id="node16" class="node">
<title>Node15</title>
<polygon fill="none" stroke="#bfbfbf" points="493.416,-56.5 493.416,-75.5 546.416,-75.5 546.416,-56.5 493.416,-56.5"/>
<text text-anchor="middle" x="519.916" y="-63.5" font-family="Helvetica,sans-Serif" font-size="10.00" fill="#000000">cstddef</text>
</g>
<!-- Node9&#45;&gt;Node15 -->
<g id="edge20" class="edge">
<title>Node9&#45;&gt;Node15</title>
<path fill="none" stroke="#191970" d="M519.916,-117.8906C519.916,-109.3657 519.916,-96.6392 519.916,-85.9235"/>
<polygon fill="#191970" stroke="#191970" points="523.4161,-85.7448 519.916,-75.7449 516.4161,-85.7449 523.4161,-85.7448"/>
</g>
<!-- Node14&#45;&gt;Node10 -->
<g id="edge19" class="edge">
<title>Node14&#45;&gt;Node10</title>
<path fill="none" stroke="#191970" d="M960.1517,-56.4369C1051.9488,-44.2841 1206.7538,-23.7898 1275.8198,-14.6463"/>
<polygon fill="#191970" stroke="#191970" points="1276.3042,-18.1128 1285.7583,-13.3306 1275.3854,-11.1734 1276.3042,-18.1128"/>
</g>
<!-- Node16&#45;&gt;Node10 -->
<g id="edge22" class="edge">
<title>Node16&#45;&gt;Node10</title>
<path fill="none" stroke="#191970" d="M1113.1675,-117.6949C1123.4219,-102.3731 1145.2598,-72.7753 1170.916,-56 1203.1914,-34.8968 1245.9936,-22.6974 1275.7378,-16.2327"/>
<polygon fill="#191970" stroke="#191970" points="1276.5902,-19.6306 1285.6754,-14.1801 1275.1741,-12.7753 1276.5902,-19.6306"/>
</g>
<!-- Node18&#45;&gt;Node2 -->
<g id="edge28" class="edge">
<title>Node18&#45;&gt;Node2</title>
<path fill="none" stroke="#191970" d="M1330.8976,-179.4755C1303.3033,-171.6274 1265.1522,-159.169 1233.916,-143 1212.9932,-132.1696 1211.199,-123.9859 1190.916,-112 1170.1888,-99.7516 1145.6817,-88.1519 1126.4866,-79.6648"/>
<polygon fill="#191970" stroke="#191970" points="1127.822,-76.4288 1117.2564,-75.6416 1125.0249,-82.8458 1127.822,-76.4288"/>
</g>
<!-- Node18&#45;&gt;Node11 -->
<g id="edge27" class="edge">
<title>Node18&#45;&gt;Node11</title>
<path fill="none" stroke="#191970" d="M1335.5757,-179.4223C1314.1877,-171.9507 1286.4172,-159.9698 1265.916,-143 1246.2544,-126.7251 1230.4699,-101.6154 1221.1587,-84.5287"/>
<polygon fill="#191970" stroke="#191970" points="1224.1829,-82.759 1216.444,-75.5229 1217.9813,-86.0057 1224.1829,-82.759"/>
</g>
<!-- Node18&#45;&gt;Node19 -->
<g id="edge29" class="edge">
<title>Node18&#45;&gt;Node19</title>
<path fill="none" stroke="#191970" d="M1388.0533,-179.483C1407.0139,-170.4179 1436.1254,-156.2306 1460.916,-143 1461.5776,-142.6469 1462.2468,-142.2865 1462.9209,-141.9208"/>
<polygon fill="#191970" stroke="#191970" points="1464.7014,-144.9353 1471.7303,-137.0079 1461.2919,-138.8218 1464.7014,-144.9353"/>
</g>
<!-- Node20 -->
<g id="node21" class="node">
<title>Node20</title>
<g id="a_node21"><a xlink:href="../../dd/d58/SampaChannelHandler_8h.html" target="_top" xlink:title="MCHRawDecoder/SampaChannel\lHandler.h">
<polygon fill="none" stroke="#000000" points="1274.416,-112.5 1274.416,-142.5 1451.416,-142.5 1451.416,-112.5 1274.416,-112.5"/>
<text text-anchor="start" x="1282.416" y="-130.5" font-family="Helvetica,sans-Serif" font-size="10.00" fill="#000000">MCHRawDecoder/SampaChannel</text>
<text text-anchor="middle" x="1362.916" y="-119.5" font-family="Helvetica,sans-Serif" font-size="10.00" fill="#000000">Handler.h</text>
</a>
</g>
</g>
<!-- Node18&#45;&gt;Node20 -->
<g id="edge30" class="edge">
<title>Node18&#45;&gt;Node20</title>
<path fill="none" stroke="#191970" d="M1367.1348,-179.3906C1366.5521,-172.2234 1365.7279,-162.0862 1364.9624,-152.671"/>
<polygon fill="#191970" stroke="#191970" points="1368.4381,-152.2281 1364.1391,-142.5446 1361.4611,-152.7954 1368.4381,-152.2281"/>
</g>
<!-- Node18&#45;&gt;Node25 -->
<g id="edge41" class="edge">
<title>Node18&#45;&gt;Node25</title>
<path fill="none" stroke="#191970" d="M1409.6521,-179.4581C1456.9675,-168.6406 1534.1452,-150.9959 1585.2296,-139.3168"/>
<polygon fill="#191970" stroke="#191970" points="1586.1136,-142.7051 1595.082,-137.0643 1584.5534,-135.8811 1586.1136,-142.7051"/>
</g>
<!-- Node20&#45;&gt;Node11 -->
<g id="edge31" class="edge">
<title>Node20&#45;&gt;Node11</title>
<path fill="none" stroke="#191970" d="M1325.9773,-112.4554C1301.114,-102.329 1268.6242,-89.0964 1244.6824,-79.3453"/>
<polygon fill="#191970" stroke="#191970" points="1245.8972,-76.0609 1235.3156,-75.5303 1243.2568,-82.5438 1245.8972,-76.0609"/>
</g>
<!-- Node21 -->
<g id="node22" class="node">
<title>Node21</title>
<g id="a_node22"><a xlink:href="../../d0/d5b/SampaCluster_8h.html" target="_top" xlink:title="MCHRawCommon/SampaCluster.h">
<polygon fill="none" stroke="#000000" points="564.916,-56.5 564.916,-75.5 748.916,-75.5 748.916,-56.5 564.916,-56.5"/>
<text text-anchor="middle" x="656.916" y="-63.5" font-family="Helvetica,sans-Serif" font-size="10.00" fill="#000000">MCHRawCommon/SampaCluster.h</text>
</a>
</g>
</g>
<!-- Node20&#45;&gt;Node21 -->
<g id="edge32" class="edge">
<title>Node20&#45;&gt;Node21</title>
<path fill="none" stroke="#191970" d="M1274.094,-119.4283C1247.3591,-117.017 1217.9451,-114.382 1190.916,-112 1040.7326,-98.7645 866.7495,-83.8565 759.2511,-74.6948"/>
<polygon fill="#191970" stroke="#191970" points="759.3197,-71.188 749.0587,-73.8263 758.7254,-78.1627 759.3197,-71.188"/>
</g>
<!-- Node22 -->
<g id="node23" class="node">
<title>Node22</title>
<g id="a_node23"><a xlink:href="../../d4/d09/DsElecId_8h.html" target="_top" xlink:title="MCHRawElecMap/DsElecId.h">
<polygon fill="none" stroke="#000000" points="1857.416,-56.5 1857.416,-75.5 2012.416,-75.5 2012.416,-56.5 1857.416,-56.5"/>
<text text-anchor="middle" x="1934.916" y="-63.5" font-family="Helvetica,sans-Serif" font-size="10.00" fill="#000000">MCHRawElecMap/DsElecId.h</text>
</a>
</g>
</g>
<!-- Node20&#45;&gt;Node22 -->
<g id="edge37" class="edge">
<title>Node20&#45;&gt;Node22</title>
<path fill="none" stroke="#191970" d="M1451.4286,-113.1096C1454.2894,-112.7234 1457.1242,-112.3522 1459.916,-112 1628.5512,-90.7268 1673.9835,-93.7655 1847.1756,-76.0528"/>
<polygon fill="#191970" stroke="#191970" points="1847.5489,-79.533 1857.1371,-75.0256 1846.8308,-72.5699 1847.5489,-79.533"/>
</g>
<!-- Node21&#45;&gt;Node3 -->
<g id="edge35" class="edge">
<title>Node21&#45;&gt;Node3</title>
<path fill="none" stroke="#191970" d="M564.5795,-56.587C481.2092,-47.8688 355.2165,-34.1491 245.916,-20 236.8881,-18.8313 227.2021,-17.4711 218.0519,-16.1373"/>
<polygon fill="#191970" stroke="#191970" points="218.4165,-12.6533 208.0124,-14.6543 217.3935,-19.5782 218.4165,-12.6533"/>
</g>
<!-- Node21&#45;&gt;Node4 -->
<g id="edge36" class="edge">
<title>Node21&#45;&gt;Node4</title>
<path fill="none" stroke="#191970" d="M699.6085,-56.4369C743.3934,-46.6291 811.4325,-31.3883 857.5159,-21.0656"/>
<polygon fill="#191970" stroke="#191970" points="858.294,-24.4781 867.2871,-18.8769 856.7639,-17.6474 858.294,-24.4781"/>
</g>
<!-- Node21&#45;&gt;Node5 -->
<g id="edge34" class="edge">
<title>Node21&#45;&gt;Node5</title>
<path fill="none" stroke="#191970" d="M608.5881,-56.4369C551.4031,-45.1211 457.6707,-26.5734 407.7281,-16.6907"/>
<polygon fill="#191970" stroke="#191970" points="408.2536,-13.2269 397.7644,-14.7191 406.8948,-20.0938 408.2536,-13.2269"/>
</g>
<!-- Node21&#45;&gt;Node7 -->
<g id="edge33" class="edge">
<title>Node21&#45;&gt;Node7</title>
<path fill="none" stroke="#191970" d="M589.057,-56.4806C525.0308,-47.4138 426.3842,-33.2253 340.916,-20 332.396,-18.6816 323.2163,-17.2059 314.6298,-15.8014"/>
<polygon fill="#191970" stroke="#191970" points="314.9705,-12.3105 304.5347,-14.139 313.833,-19.2175 314.9705,-12.3105"/>
</g>
<!-- Node22&#45;&gt;Node10 -->
<g id="edge38" class="edge">
<title>Node22&#45;&gt;Node10</title>
<path fill="none" stroke="#191970" d="M1857.1399,-56.9471C1854.0254,-56.6204 1850.9416,-56.3034 1847.916,-56 1658.8861,-37.044 1431.9218,-19.2219 1346.0931,-12.6584"/>
<polygon fill="#191970" stroke="#191970" points="1346.3404,-9.1672 1336.1032,-11.8966 1345.8081,-16.1469 1346.3404,-9.1672"/>
</g>
<!-- Node23 -->
<g id="node24" class="node">
<title>Node23</title>
<polygon fill="none" stroke="#bfbfbf" points="1735.416,-.5 1735.416,-19.5 1784.416,-19.5 1784.416,-.5 1735.416,-.5"/>
<text text-anchor="middle" x="1759.916" y="-7.5" font-family="Helvetica,sans-Serif" font-size="10.00" fill="#000000">iosfwd</text>
</g>
<!-- Node22&#45;&gt;Node23 -->
<g id="edge39" class="edge">
<title>Node22&#45;&gt;Node23</title>
<path fill="none" stroke="#191970" d="M1904.8324,-56.3733C1874.1453,-46.5534 1826.5892,-31.3354 1794.3991,-21.0346"/>
<polygon fill="#191970" stroke="#191970" points="1795.1195,-17.5903 1784.5285,-17.876 1792.986,-24.2573 1795.1195,-17.5903"/>
</g>
<!-- Node22&#45;&gt;Node24 -->
<g id="edge40" class="edge">
<title>Node22&#45;&gt;Node24</title>
<path fill="none" stroke="#191970" d="M1953.3798,-56.2455C1970.0234,-47.4527 1994.7153,-34.4079 2013.6352,-24.4125"/>
<polygon fill="#191970" stroke="#191970" points="2015.4568,-27.4086 2022.6638,-19.6427 2012.1869,-21.2193 2015.4568,-27.4086"/>
</g>
<!-- Node25&#45;&gt;Node2 -->
<g id="edge56" class="edge">
<title>Node25&#45;&gt;Node2</title>
<path fill="none" stroke="#191970" d="M1564.6489,-117.9613C1548.6123,-115.923 1531.6938,-113.8335 1515.916,-112 1362.7807,-94.2046 1324.0358,-93.9288 1170.916,-76 1158.364,-74.5303 1144.6788,-72.7959 1132.3738,-71.1878"/>
<polygon fill="#191970" stroke="#191970" points="1132.7891,-67.7124 1122.4174,-69.8753 1131.8742,-74.6523 1132.7891,-67.7124"/>
</g>
<!-- Node25&#45;&gt;Node4 -->
<g id="edge54" class="edge">
<title>Node25&#45;&gt;Node4</title>
<path fill="none" stroke="#191970" d="M1576.1479,-117.9994C1515.9856,-108.3498 1421.3354,-92.5126 1339.916,-76 1301.4568,-68.2001 1292.5232,-63.0312 1253.916,-56 1148.7113,-36.84 1024.1859,-22.2861 956.6077,-15.0587"/>
<polygon fill="#191970" stroke="#191970" points="956.9743,-11.578 946.6609,-14.004 956.2361,-18.539 956.9743,-11.578"/>
</g>
<!-- Node25&#45;&gt;Node10 -->
<g id="edge46" class="edge">
<title>Node25&#45;&gt;Node10</title>
<path fill="none" stroke="#191970" d="M1584.9191,-117.9888C1508.0612,-103.8679 1372.6253,-78.7202 1367.916,-76 1348.1566,-64.5866 1331.9063,-43.7354 1321.8822,-28.5154"/>
<polygon fill="#191970" stroke="#191970" points="1324.7535,-26.5065 1316.4697,-19.9013 1318.8264,-30.2307 1324.7535,-26.5065"/>
</g>
<!-- Node25&#45;&gt;Node11 -->
<g id="edge42" class="edge">
<title>Node25&#45;&gt;Node11</title>
<path fill="none" stroke="#191970" d="M1570.9761,-117.9581C1482.7949,-105.1978 1328.9639,-82.9375 1254.5909,-72.1753"/>
<polygon fill="#191970" stroke="#191970" points="1255.0372,-68.7035 1244.639,-70.7352 1254.0346,-75.6314 1255.0372,-68.7035"/>
</g>
<!-- Node25&#45;&gt;Node22 -->
<g id="edge50" class="edge">
<title>Node25&#45;&gt;Node22</title>
<path fill="none" stroke="#191970" d="M1683.1515,-117.9581C1735.8955,-107.073 1822.1359,-89.2751 1878.7152,-77.5985"/>
<polygon fill="#191970" stroke="#191970" points="1879.4858,-81.0133 1888.572,-75.5643 1878.071,-74.1578 1879.4858,-81.0133"/>
</g>
<!-- Node25&#45;&gt;Node24 -->
<g id="edge43" class="edge">
<title>Node25&#45;&gt;Node24</title>
<path fill="none" stroke="#191970" d="M1711.1748,-121.9257C1816.4231,-113.3743 1998.8414,-95.9031 2021.916,-76 2035.0108,-64.705 2039.3666,-45.0249 2040.6823,-30.0857"/>
<polygon fill="#191970" stroke="#191970" points="2044.1925,-29.9636 2041.1903,-19.8031 2037.2011,-29.6182 2044.1925,-29.9636"/>
</g>
<!-- Node26 -->
<g id="node27" class="node">
<title>Node26</title>
<polygon fill="none" stroke="#bfbfbf" points="1546.916,-56.5 1546.916,-75.5 1578.916,-75.5 1578.916,-56.5 1546.916,-56.5"/>
<text text-anchor="middle" x="1562.916" y="-63.5" font-family="Helvetica,sans-Serif" font-size="10.00" fill="#000000">set</text>
</g>
<!-- Node25&#45;&gt;Node26 -->
<g id="edge44" class="edge">
<title>Node25&#45;&gt;Node26</title>
<path fill="none" stroke="#191970" d="M1625.3535,-117.8906C1613.9082,-108.3786 1596.1687,-93.6357 1582.519,-82.2917"/>
<polygon fill="#191970" stroke="#191970" points="1584.5694,-79.4447 1574.6415,-75.7449 1580.0952,-84.8283 1584.5694,-79.4447"/>
</g>
<!-- Node27 -->
<g id="node28" class="node">
<title>Node27</title>
<polygon fill="none" stroke="#bfbfbf" points="1597.416,-56.5 1597.416,-75.5 1662.416,-75.5 1662.416,-56.5 1597.416,-56.5"/>
<text text-anchor="middle" x="1629.916" y="-63.5" font-family="Helvetica,sans-Serif" font-size="10.00" fill="#000000">stdexcept</text>
</g>
<!-- Node25&#45;&gt;Node27 -->
<g id="edge45" class="edge">
<title>Node25&#45;&gt;Node27</title>
<path fill="none" stroke="#191970" d="M1635.8223,-117.8906C1634.8519,-109.3657 1633.4034,-96.6392 1632.1837,-85.9235"/>
<polygon fill="#191970" stroke="#191970" points="1635.6337,-85.2849 1631.0252,-75.7449 1628.6786,-86.0766 1635.6337,-85.2849"/>
</g>
<!-- Node28 -->
<g id="node29" class="node">
<title>Node28</title>
<g id="a_node29"><a xlink:href="../../d5/dcd/DsDetId_8h.html" target="_top" xlink:title="MCHRawElecMap/DsDetId.h">
<polygon fill="none" stroke="#000000" points="1376.916,-56.5 1376.916,-75.5 1528.916,-75.5 1528.916,-56.5 1376.916,-56.5"/>
<text text-anchor="middle" x="1452.916" y="-63.5" font-family="Helvetica,sans-Serif" font-size="10.00" fill="#000000">MCHRawElecMap/DsDetId.h</text>
</a>
</g>
</g>
<!-- Node25&#45;&gt;Node28 -->
<g id="edge47" class="edge">
<title>Node25&#45;&gt;Node28</title>
<path fill="none" stroke="#191970" d="M1608.166,-117.8906C1576.7043,-107.3749 1526.1152,-90.466 1491.2846,-78.8243"/>
<polygon fill="#191970" stroke="#191970" points="1492.0579,-75.3925 1481.4641,-75.5419 1489.8389,-82.0315 1492.0579,-75.3925"/>
</g>
<!-- Node29 -->
<g id="node30" class="node">
<title>Node29</title>
<g id="a_node30"><a xlink:href="../../d8/d97/FeeLinkId_8h.html" target="_top" xlink:title="MCHRawElecMap/FeeLinkId.h">
<polygon fill="none" stroke="#000000" points="1680.916,-56.5 1680.916,-75.5 1838.916,-75.5 1838.916,-56.5 1680.916,-56.5"/>
<text text-anchor="middle" x="1759.916" y="-63.5" font-family="Helvetica,sans-Serif" font-size="10.00" fill="#000000">MCHRawElecMap/FeeLinkId.h</text>
</a>
</g>
</g>
<!-- Node25&#45;&gt;Node29 -->
<g id="edge51" class="edge">
<title>Node25&#45;&gt;Node29</title>
<path fill="none" stroke="#191970" d="M1656.1348,-117.8906C1676.4441,-107.7359 1708.6767,-91.6196 1731.8328,-80.0416"/>
<polygon fill="#191970" stroke="#191970" points="1733.4532,-83.1446 1740.8322,-75.5419 1730.3227,-76.8836 1733.4532,-83.1446"/>
</g>
<!-- Node30 -->
<g id="node31" class="node">
<title>Node30</title>
<polygon fill="none" stroke="#bfbfbf" points="2068.916,-56.5 2068.916,-75.5 2110.916,-75.5 2110.916,-56.5 2068.916,-56.5"/>
<text text-anchor="middle" x="2089.916" y="-63.5" font-family="Helvetica,sans-Serif" font-size="10.00" fill="#000000">array</text>
</g>
<!-- Node25&#45;&gt;Node30 -->
<g id="edge55" class="edge">
<title>Node25&#45;&gt;Node30</title>
<path fill="none" stroke="#191970" d="M1711.0968,-121.873C1795.1021,-114.6899 1935.7909,-100.2029 2054.916,-76 2056.1701,-75.7452 2057.4448,-75.4681 2058.7289,-75.1739"/>
<polygon fill="#191970" stroke="#191970" points="2059.7472,-78.5264 2068.5749,-72.6679 2058.0205,-71.7427 2059.7472,-78.5264"/>
</g>
<!-- Node28&#45;&gt;Node10 -->
<g id="edge48" class="edge">
<title>Node28&#45;&gt;Node10</title>
<path fill="none" stroke="#191970" d="M1428.5053,-56.3733C1405.3018,-47.2226 1370.2122,-33.3844 1344.4018,-23.2057"/>
<polygon fill="#191970" stroke="#191970" points="1345.5949,-19.9139 1335.0081,-19.5011 1343.0268,-26.4258 1345.5949,-19.9139"/>
</g>
<!-- Node28&#45;&gt;Node23 -->
<g id="edge49" class="edge">
<title>Node28&#45;&gt;Node23</title>
<path fill="none" stroke="#191970" d="M1505.3424,-56.4369C1568.1182,-44.9859 1671.494,-26.1291 1725.158,-16.3402"/>
<polygon fill="#191970" stroke="#191970" points="1725.9917,-19.746 1735.2013,-14.5082 1724.7355,-12.8596 1725.9917,-19.746"/>
</g>
<!-- Node29&#45;&gt;Node10 -->
<g id="edge52" class="edge">
<title>Node29&#45;&gt;Node10</title>
<path fill="none" stroke="#191970" d="M1683.495,-56.4686C1585.1919,-44.2081 1418.5137,-23.4198 1346.1692,-14.3968"/>
<polygon fill="#191970" stroke="#191970" points="1346.5556,-10.918 1336.1993,-13.1534 1345.6892,-17.8642 1346.5556,-10.918"/>
</g>
<!-- Node29&#45;&gt;Node23 -->
<g id="edge53" class="edge">
<title>Node29&#45;&gt;Node23</title>
<path fill="none" stroke="#191970" d="M1759.916,-56.2455C1759.916,-48.9382 1759.916,-38.6944 1759.916,-29.7046"/>
<polygon fill="#191970" stroke="#191970" points="1763.4161,-29.6426 1759.916,-19.6427 1756.4161,-29.6427 1763.4161,-29.6426"/>
</g>
</g>
</svg>
        <g id="navigator" transform="translate(0 0)" fill="#404254">
                <rect fill="#f2f5e9" fill-opacity="0.5" stroke="#606060" stroke-width=".5" x="0" y="0" width="60" height="60"/>
                <use id="zoomplus" xlink:href="#zoomPlus" x="17" y="9" onmousedown="handleZoom(evt,'in')"/>
                <use id="zoomminus" xlink:href="#zoomMin" x="42" y="9" onmousedown="handleZoom(evt,'out')"/>
                <use id="reset" xlink:href="#resetDef" x="30" y="36" onmousedown="handleReset()"/>
                <g id="arrowUp" xlink:href="#dirArrow" transform="translate(30 24)" onmousedown="handlePan(0,-1)">
                  <use xlink:href="#rim" fill="#404040">
                        <set attributeName="fill" to="#808080" begin="arrowUp.mouseover" end="arrowUp.mouseout"/>
                  </use>
                  <path fill="none" stroke="white" stroke-width="1.5" d="M0,-3.0v7 M-2.5,-0.5L0,-3.0L2.5,-0.5"/>
                </g>
                <g id="arrowRight" xlink:href="#dirArrow" transform="rotate(90) translate(36 -43)" onmousedown="handlePan(1,0)">
                  <use xlink:href="#rim" fill="#404040">
                        <set attributeName="fill" to="#808080" begin="arrowRight.mouseover" end="arrowRight.mouseout"/>
                  </use>
                  <path fill="none" stroke="white" stroke-width="1.5" d="M0,-3.0v7 M-2.5,-0.5L0,-3.0L2.5,-0.5"/>
                </g>
                <g id="arrowDown" xlink:href="#dirArrow" transform="rotate(180) translate(-30 -48)" onmousedown="handlePan(0,1)">
                  <use xlink:href="#rim" fill="#404040">
                        <set attributeName="fill" to="#808080" begin="arrowDown.mouseover" end="arrowDown.mouseout"/>
                  </use>
                  <path fill="none" stroke="white" stroke-width="1.5" d="M0,-3.0v7 M-2.5,-0.5L0,-3.0L2.5,-0.5"/>
                </g>
                <g id="arrowLeft" xlink:href="#dirArrow" transform="rotate(270) translate(-36 17)" onmousedown="handlePan(-1,0)">
                  <use xlink:href="#rim" fill="#404040">
                        <set attributeName="fill" to="#808080" begin="arrowLeft.mouseover" end="arrowLeft.mouseout"/>
                  </use>
                  <path fill="none" stroke="white" stroke-width="1.5" d="M0,-3.0v7 M-2.5,-0.5L0,-3.0L2.5,-0.5"/>
                </g>
        </g>
        <svg viewBox="0 0 15 15" width="100%" height="30px" preserveAspectRatio="xMaxYMin meet">
         <g id="arrow_out" transform="scale(0.3 0.3)">
          <a xlink:href="rawdump_8cxx__incl_org.svg" target="_base">
           <rect id="button" ry="5" rx="5" y="6" x="6" height="38" width="38"
                fill="#f2f5e9" fill-opacity="0.5" stroke="#606060" stroke-width="1.0"/>
           <path id="arrow"
             d="M 11.500037,31.436501 C 11.940474,20.09759 22.043105,11.32322 32.158766,21.979434 L 37.068811,17.246167 C 37.068811,17.246167 37.088388,32 37.088388,32 L 22.160133,31.978069 C 22.160133,31.978069 26.997745,27.140456 26.997745,27.140456 C 18.528582,18.264221 13.291696,25.230495 11.500037,31.436501 z"
             style="fill:#404040;"/>
          </a>
         </g>
        </svg>
</svg>
