<?xml version="1.0" encoding="UTF-8" standalone="no"?>
<!DOCTYPE svg PUBLIC "-//W3C//DTD SVG 1.1//EN"
 "http://www.w3.org/Graphics/SVG/1.1/DTD/svg11.dtd">
<!-- Generated by graphviz version 2.40.1 (20161225.0304)
 -->
<!-- Title: /home/travis/build/AliceO2Group/AliceO2/GPU/TPCFastTransformation/SplineHelper1D.h Pages: 1 -->
<svg width="731pt" height="239pt"
 viewBox="0.00 0.00 731.00 239.00" xmlns="http://www.w3.org/2000/svg" xmlns:xlink="http://www.w3.org/1999/xlink">
<g id="graph0" class="graph" transform="scale(1 1) rotate(0) translate(4 235)">
<title>/home/travis/build/AliceO2Group/AliceO2/GPU/TPCFastTransformation/SplineHelper1D.h</title>
<!-- Node19 -->
<g id="node1" class="node">
<title>Node19</title>
<polygon fill="#bfbfbf" stroke="#000000" points="294.5,-178.5 294.5,-230.5 449.5,-230.5 449.5,-178.5 294.5,-178.5"/>
<text text-anchor="start" x="302.5" y="-218.5" font-family="Helvetica,sans-Serif" font-size="10.00" fill="#000000">/home/travis/build</text>
<text text-anchor="start" x="302.5" y="-207.5" font-family="Helvetica,sans-Serif" font-size="10.00" fill="#000000">/AliceO2Group/AliceO2</text>
<text text-anchor="start" x="302.5" y="-196.5" font-family="Helvetica,sans-Serif" font-size="10.00" fill="#000000">/GPU/TPCFastTransformation</text>
<text text-anchor="middle" x="372" y="-185.5" font-family="Helvetica,sans-Serif" font-size="10.00" fill="#000000">/SplineHelper1D.h</text>
</g>
<!-- Node20 -->
<g id="node2" class="node">
<title>Node20</title>
<g id="a_node2"><a xlink:href="../../d5/d69/Spline1D_8cxx.html" target="_top" xlink:title="Implementation of Spline1D class. ">
<polygon fill="none" stroke="#000000" points="121.5,-89.5 121.5,-141.5 276.5,-141.5 276.5,-89.5 121.5,-89.5"/>
<text text-anchor="start" x="129.5" y="-129.5" font-family="Helvetica,sans-Serif" font-size="10.00" fill="#000000">/home/travis/build</text>
<text text-anchor="start" x="129.5" y="-118.5" font-family="Helvetica,sans-Serif" font-size="10.00" fill="#000000">/AliceO2Group/AliceO2</text>
<text text-anchor="start" x="129.5" y="-107.5" font-family="Helvetica,sans-Serif" font-size="10.00" fill="#000000">/GPU/TPCFastTransformation</text>
<text text-anchor="middle" x="199" y="-96.5" font-family="Helvetica,sans-Serif" font-size="10.00" fill="#000000">/Spline1D.cxx</text>
</a>
</g>
</g>
<!-- Node19&#45;&gt;Node20 -->
<g id="edge1" class="edge">
<title>Node19&#45;&gt;Node20</title>
<path fill="none" stroke="#191970" d="M311.8675,-173.5648C291.5573,-163.1162 269.1027,-151.5644 249.6057,-141.5341"/>
<polygon fill="#191970" stroke="#191970" points="310.5366,-176.816 321.03,-178.2784 313.7388,-170.5914 310.5366,-176.816"/>
</g>
<!-- Node21 -->
<g id="node3" class="node">
<title>Node21</title>
<g id="a_node3"><a xlink:href="../../d0/d1e/SplineHelper2D_8h.html" target="_top" xlink:title="Definition of SplineHelper2D class. ">
<polygon fill="none" stroke="#000000" points="294.5,-89.5 294.5,-141.5 449.5,-141.5 449.5,-89.5 294.5,-89.5"/>
<text text-anchor="start" x="302.5" y="-129.5" font-family="Helvetica,sans-Serif" font-size="10.00" fill="#000000">/home/travis/build</text>
<text text-anchor="start" x="302.5" y="-118.5" font-family="Helvetica,sans-Serif" font-size="10.00" fill="#000000">/AliceO2Group/AliceO2</text>
<text text-anchor="start" x="302.5" y="-107.5" font-family="Helvetica,sans-Serif" font-size="10.00" fill="#000000">/GPU/TPCFastTransformation</text>
<text text-anchor="middle" x="372" y="-96.5" font-family="Helvetica,sans-Serif" font-size="10.00" fill="#000000">/SplineHelper2D.h</text>
</a>
</g>
</g>
<!-- Node19&#45;&gt;Node21 -->
<g id="edge2" class="edge">
<title>Node19&#45;&gt;Node21</title>
<path fill="none" stroke="#191970" d="M372,-168.1155C372,-159.2061 372,-149.8475 372,-141.5341"/>
<polygon fill="#191970" stroke="#191970" points="368.5001,-168.2784 372,-178.2784 375.5001,-168.2785 368.5001,-168.2784"/>
</g>
<!-- Node26 -->
<g id="node8" class="node">
<title>Node26</title>
<g id="a_node8"><a xlink:href="../../d3/dd5/SplineHelper1D_8cxx.html" target="_top" xlink:title="Implementation of SplineHelper1D class. ">
<polygon fill="none" stroke="#000000" points="467.5,-89.5 467.5,-141.5 622.5,-141.5 622.5,-89.5 467.5,-89.5"/>
<text text-anchor="start" x="475.5" y="-129.5" font-family="Helvetica,sans-Serif" font-size="10.00" fill="#000000">/home/travis/build</text>
<text text-anchor="start" x="475.5" y="-118.5" font-family="Helvetica,sans-Serif" font-size="10.00" fill="#000000">/AliceO2Group/AliceO2</text>
<text text-anchor="start" x="475.5" y="-107.5" font-family="Helvetica,sans-Serif" font-size="10.00" fill="#000000">/GPU/TPCFastTransformation</text>
<text text-anchor="middle" x="545" y="-96.5" font-family="Helvetica,sans-Serif" font-size="10.00" fill="#000000">/SplineHelper1D.cxx</text>
</a>
</g>
</g>
<!-- Node19&#45;&gt;Node26 -->
<g id="edge7" class="edge">
<title>Node19&#45;&gt;Node26</title>
<path fill="none" stroke="#191970" d="M432.1325,-173.5648C452.4427,-163.1162 474.8973,-151.5644 494.3943,-141.5341"/>
<polygon fill="#191970" stroke="#191970" points="430.2612,-170.5914 422.97,-178.2784 433.4634,-176.816 430.2612,-170.5914"/>
</g>
<!-- Node22 -->
<g id="node4" class="node">
<title>Node22</title>
<g id="a_node4"><a xlink:href="../../d5/dc0/TPCFastTransformHelperO2_8cxx.html" target="_top" xlink:title="/home/travis/build\l/AliceO2Group/AliceO2\l/Detectors/TPC/reconstruction\l/src/TPCFastTransformHelperO2.cxx">
<polygon fill="none" stroke="#000000" points="0,-.5 0,-52.5 190,-52.5 190,-.5 0,-.5"/>
<text text-anchor="start" x="8" y="-40.5" font-family="Helvetica,sans-Serif" font-size="10.00" fill="#000000">/home/travis/build</text>
<text text-anchor="start" x="8" y="-29.5" font-family="Helvetica,sans-Serif" font-size="10.00" fill="#000000">/AliceO2Group/AliceO2</text>
<text text-anchor="start" x="8" y="-18.5" font-family="Helvetica,sans-Serif" font-size="10.00" fill="#000000">/Detectors/TPC/reconstruction</text>
<text text-anchor="middle" x="95" y="-7.5" font-family="Helvetica,sans-Serif" font-size="10.00" fill="#000000">/src/TPCFastTransformHelperO2.cxx</text>
</a>
</g>
</g>
<!-- Node21&#45;&gt;Node22 -->
<g id="edge3" class="edge">
<title>Node21&#45;&gt;Node22</title>
<path fill="none" stroke="#191970" d="M284.8309,-87.4926C250.1483,-76.3491 210.4635,-63.5984 176.376,-52.6461"/>
<polygon fill="#191970" stroke="#191970" points="283.8804,-90.8634 294.4717,-90.5902 286.0217,-84.1989 283.8804,-90.8634"/>
</g>
<!-- Node23 -->
<g id="node5" class="node">
<title>Node23</title>
<g id="a_node5"><a xlink:href="../../d0/d29/Spline2D_8cxx.html" target="_top" xlink:title="Implementation of Spline2D class. ">
<polygon fill="none" stroke="#000000" points="208.5,-.5 208.5,-52.5 363.5,-52.5 363.5,-.5 208.5,-.5"/>
<text text-anchor="start" x="216.5" y="-40.5" font-family="Helvetica,sans-Serif" font-size="10.00" fill="#000000">/home/travis/build</text>
<text text-anchor="start" x="216.5" y="-29.5" font-family="Helvetica,sans-Serif" font-size="10.00" fill="#000000">/AliceO2Group/AliceO2</text>
<text text-anchor="start" x="216.5" y="-18.5" font-family="Helvetica,sans-Serif" font-size="10.00" fill="#000000">/GPU/TPCFastTransformation</text>
<text text-anchor="middle" x="286" y="-7.5" font-family="Helvetica,sans-Serif" font-size="10.00" fill="#000000">/Spline2D.cxx</text>
</a>
</g>
</g>
<!-- Node21&#45;&gt;Node23 -->
<g id="edge4" class="edge">
<title>Node21&#45;&gt;Node23</title>
<path fill="none" stroke="#191970" d="M339.632,-82.0029C330.2107,-72.2529 320.0629,-61.7511 311.1566,-52.5341"/>
<polygon fill="#191970" stroke="#191970" points="337.1965,-84.5193 346.6623,-89.2784 342.2304,-79.6551 337.1965,-84.5193"/>
</g>
<!-- Node24 -->
<g id="node6" class="node">
<title>Node24</title>
<g id="a_node6"><a xlink:href="../../d9/da8/SplineHelper2D_8cxx.html" target="_top" xlink:title="/home/travis/build\l/AliceO2Group/AliceO2\l/GPU/TPCFastTransformation\l/SplineHelper2D.cxx">
<polygon fill="none" stroke="#000000" points="381.5,-.5 381.5,-52.5 536.5,-52.5 536.5,-.5 381.5,-.5"/>
<text text-anchor="start" x="389.5" y="-40.5" font-family="Helvetica,sans-Serif" font-size="10.00" fill="#000000">/home/travis/build</text>
<text text-anchor="start" x="389.5" y="-29.5" font-family="Helvetica,sans-Serif" font-size="10.00" fill="#000000">/AliceO2Group/AliceO2</text>
<text text-anchor="start" x="389.5" y="-18.5" font-family="Helvetica,sans-Serif" font-size="10.00" fill="#000000">/GPU/TPCFastTransformation</text>
<text text-anchor="middle" x="459" y="-7.5" font-family="Helvetica,sans-Serif" font-size="10.00" fill="#000000">/SplineHelper2D.cxx</text>
</a>
</g>
</g>
<!-- Node21&#45;&gt;Node24 -->
<g id="edge5" class="edge">
<title>Node21&#45;&gt;Node24</title>
<path fill="none" stroke="#191970" d="M404.7444,-82.0029C414.2752,-72.2529 424.541,-61.7511 433.5509,-52.5341"/>
<polygon fill="#191970" stroke="#191970" points="402.1198,-79.6808 397.6323,-89.2784 407.1255,-84.5741 402.1198,-79.6808"/>
</g>
<!-- Node25 -->
<g id="node7" class="node">
<title>Node25</title>
<g id="a_node7"><a xlink:href="../../d5/dd1/TPCFastTransformManager_8cxx.html" target="_top" xlink:title="Implementation of TPCFastTransformManager class. ">
<polygon fill="none" stroke="#000000" points="555,-.5 555,-52.5 723,-52.5 723,-.5 555,-.5"/>
<text text-anchor="start" x="563" y="-40.5" font-family="Helvetica,sans-Serif" font-size="10.00" fill="#000000">/home/travis/build</text>
<text text-anchor="start" x="563" y="-29.5" font-family="Helvetica,sans-Serif" font-size="10.00" fill="#000000">/AliceO2Group/AliceO2</text>
<text text-anchor="start" x="563" y="-18.5" font-family="Helvetica,sans-Serif" font-size="10.00" fill="#000000">/GPU/TPCFastTransformation</text>
<text text-anchor="middle" x="639" y="-7.5" font-family="Helvetica,sans-Serif" font-size="10.00" fill="#000000">/TPCFastTransformManager.cxx</text>
</a>
</g>
</g>
<!-- Node21&#45;&gt;Node25 -->
<g id="edge6" class="edge">
<title>Node21&#45;&gt;Node25</title>
<path fill="none" stroke="#191970" d="M459.1487,-86.4504C491.8892,-75.5369 528.8763,-63.2079 560.7578,-52.5807"/>
<polygon fill="#191970" stroke="#191970" points="457.9661,-83.1552 449.5861,-89.638 460.1798,-89.796 457.9661,-83.1552"/>
</g>
</g>
</svg>
