<?xml version="1.0" encoding="UTF-8" standalone="no"?>
<!DOCTYPE svg PUBLIC "-//W3C//DTD SVG 1.1//EN"
 "http://www.w3.org/Graphics/SVG/1.1/DTD/svg11.dtd">
<!-- Generated by graphviz version 2.40.1 (20161225.0304)
 -->
<!-- Title: /home/travis/build/AliceO2Group/AliceO2/Detectors/MUON/MID/Raw/include/MIDRaw/DecodedDataAggregator.h Pages: 1 -->
<svg width="988pt" height="296pt"
 viewBox="0.00 0.00 988.00 296.00" xmlns="http://www.w3.org/2000/svg" xmlns:xlink="http://www.w3.org/1999/xlink">
<g id="graph0" class="graph" transform="scale(1 1) rotate(0) translate(4 292)">
<title>/home/travis/build/AliceO2Group/AliceO2/Detectors/MUON/MID/Raw/include/MIDRaw/DecodedDataAggregator.h</title>
<!-- Node0 -->
<g id="node1" class="node">
<title>Node0</title>
<polygon fill="#bfbfbf" stroke="#000000" points="120,-235.5 120,-287.5 349,-287.5 349,-235.5 120,-235.5"/>
<text text-anchor="start" x="128" y="-275.5" font-family="Helvetica,sans-Serif" font-size="10.00" fill="#000000">/home/travis/build</text>
<text text-anchor="start" x="128" y="-264.5" font-family="Helvetica,sans-Serif" font-size="10.00" fill="#000000">/AliceO2Group/AliceO2</text>
<text text-anchor="start" x="128" y="-253.5" font-family="Helvetica,sans-Serif" font-size="10.00" fill="#000000">/Detectors/MUON/MID/Raw</text>
<text text-anchor="middle" x="234.5" y="-242.5" font-family="Helvetica,sans-Serif" font-size="10.00" fill="#000000">/include/MIDRaw/DecodedDataAggregator.h</text>
</g>
<!-- Node1 -->
<g id="node2" class="node">
<title>Node1</title>
<polygon fill="none" stroke="#bfbfbf" points="0,-179.5 0,-198.5 47,-198.5 47,-179.5 0,-179.5"/>
<text text-anchor="middle" x="23.5" y="-186.5" font-family="Helvetica,sans-Serif" font-size="10.00" fill="#000000">vector</text>
</g>
<!-- Node0&#45;&gt;Node1 -->
<g id="edge1" class="edge">
<title>Node0&#45;&gt;Node1</title>
<path fill="none" stroke="#191970" d="M158.6223,-235.4283C123.8407,-223.4772 84.3847,-209.9201 57.1286,-200.5549"/>
<polygon fill="#191970" stroke="#191970" points="57.9097,-197.1224 47.315,-197.1829 55.6349,-203.7425 57.9097,-197.1224"/>
</g>
<!-- Node2 -->
<g id="node3" class="node">
<title>Node2</title>
<polygon fill="none" stroke="#bfbfbf" points="136.5,-118 136.5,-137 174.5,-137 174.5,-118 136.5,-118"/>
<text text-anchor="middle" x="155.5" y="-125" font-family="Helvetica,sans-Serif" font-size="10.00" fill="#000000">map</text>
</g>
<!-- Node0&#45;&gt;Node2 -->
<g id="edge2" class="edge">
<title>Node0&#45;&gt;Node2</title>
<path fill="none" stroke="#191970" d="M136.5913,-235.4075C119.9178,-226.5552 104.7125,-214.7431 94.5,-199 80.7638,-177.8249 105.8998,-156.1341 127.9464,-142.2821"/>
<polygon fill="#191970" stroke="#191970" points="129.9727,-145.1491 136.7733,-137.0249 126.3907,-139.1349 129.9727,-145.1491"/>
</g>
<!-- Node3 -->
<g id="node4" class="node">
<title>Node3</title>
<polygon fill="none" stroke="#bfbfbf" points="103.5,-179.5 103.5,-198.5 151.5,-198.5 151.5,-179.5 103.5,-179.5"/>
<text text-anchor="middle" x="127.5" y="-186.5" font-family="Helvetica,sans-Serif" font-size="10.00" fill="#000000">gsl/gsl</text>
</g>
<!-- Node0&#45;&gt;Node3 -->
<g id="edge3" class="edge">
<title>Node0&#45;&gt;Node3</title>
<path fill="none" stroke="#191970" d="M195.8705,-235.3258C180.5012,-224.912 163.3533,-213.2931 150.0755,-204.2965"/>
<polygon fill="#191970" stroke="#191970" points="151.8128,-201.2459 141.5709,-198.534 147.8862,-207.0409 151.8128,-201.2459"/>
</g>
<!-- Node4 -->
<g id="node5" class="node">
<title>Node4</title>
<g id="a_node5"><a xlink:href="../../d3/d53/ColumnData_8h.html" target="_top" xlink:title="Strip pattern (aka digits) ">
<polygon fill="none" stroke="#000000" points="318,-179.5 318,-198.5 489,-198.5 489,-179.5 318,-179.5"/>
<text text-anchor="middle" x="403.5" y="-186.5" font-family="Helvetica,sans-Serif" font-size="10.00" fill="#000000">DataFormatsMID/ColumnData.h</text>
</a>
</g>
</g>
<!-- Node0&#45;&gt;Node4 -->
<g id="edge4" class="edge">
<title>Node0&#45;&gt;Node4</title>
<path fill="none" stroke="#191970" d="M295.5129,-235.3258C321.4217,-224.2111 350.5305,-211.7236 371.9922,-202.5167"/>
<polygon fill="#191970" stroke="#191970" points="373.4657,-205.6931 381.2759,-198.534 370.706,-199.26 373.4657,-205.6931"/>
</g>
<!-- Node8 -->
<g id="node9" class="node">
<title>Node8</title>
<g id="a_node9"><a xlink:href="../../d2/df9/MUON_2MID_2include_2DataFormatsMID_2ROFRecord_8h.html" target="_top" xlink:title="Definition of the MID event record. ">
<polygon fill="none" stroke="#000000" points="662,-179.5 662,-198.5 825,-198.5 825,-179.5 662,-179.5"/>
<text text-anchor="middle" x="743.5" y="-186.5" font-family="Helvetica,sans-Serif" font-size="10.00" fill="#000000">DataFormatsMID/ROFRecord.h</text>
</a>
</g>
</g>
<!-- Node0&#45;&gt;Node8 -->
<g id="edge8" class="edge">
<title>Node0&#45;&gt;Node8</title>
<path fill="none" stroke="#191970" d="M349.0467,-245.1844C445.9541,-231.3813 582.152,-211.9818 666.5114,-199.966"/>
<polygon fill="#191970" stroke="#191970" points="667.1296,-203.4133 676.5361,-198.5381 666.1424,-196.4833 667.1296,-203.4133"/>
</g>
<!-- Node15 -->
<g id="node16" class="node">
<title>Node15</title>
<g id="a_node16"><a xlink:href="../../db/d83/CrateMapper_8h.html" target="_top" xlink:title="Mapper to convert the RO Ids to a format suitable for O2. ">
<polygon fill="none" stroke="#000000" points="169.5,-179.5 169.5,-198.5 299.5,-198.5 299.5,-179.5 169.5,-179.5"/>
<text text-anchor="middle" x="234.5" y="-186.5" font-family="Helvetica,sans-Serif" font-size="10.00" fill="#000000">MIDRaw/CrateMapper.h</text>
</a>
</g>
</g>
<!-- Node0&#45;&gt;Node15 -->
<g id="edge16" class="edge">
<title>Node0&#45;&gt;Node15</title>
<path fill="none" stroke="#191970" d="M234.5,-235.3258C234.5,-226.5142 234.5,-216.8397 234.5,-208.621"/>
<polygon fill="#191970" stroke="#191970" points="238.0001,-208.534 234.5,-198.534 231.0001,-208.534 238.0001,-208.534"/>
</g>
<!-- Node16 -->
<g id="node17" class="node">
<title>Node16</title>
<g id="a_node17"><a xlink:href="../../d3/d4a/LocalBoardRO_8h.html" target="_top" xlink:title="Structure to store the FEE local board information. ">
<polygon fill="none" stroke="#000000" points="507.5,-179.5 507.5,-198.5 643.5,-198.5 643.5,-179.5 507.5,-179.5"/>
<text text-anchor="middle" x="575.5" y="-186.5" font-family="Helvetica,sans-Serif" font-size="10.00" fill="#000000">MIDRaw/LocalBoardRO.h</text>
</a>
</g>
</g>
<!-- Node0&#45;&gt;Node16 -->
<g id="edge19" class="edge">
<title>Node0&#45;&gt;Node16</title>
<path fill="none" stroke="#191970" d="M349.4716,-237.0559C407.1735,-224.7879 474.4003,-210.4948 520.445,-200.7052"/>
<polygon fill="#191970" stroke="#191970" points="521.4619,-204.0674 530.5154,-198.5642 520.0061,-197.2204 521.4619,-204.0674"/>
</g>
<!-- Node5 -->
<g id="node6" class="node">
<title>Node5</title>
<polygon fill="none" stroke="#bfbfbf" points="442.5,-56.5 442.5,-75.5 492.5,-75.5 492.5,-56.5 442.5,-56.5"/>
<text text-anchor="middle" x="467.5" y="-63.5" font-family="Helvetica,sans-Serif" font-size="10.00" fill="#000000">cstdint</text>
</g>
<!-- Node4&#45;&gt;Node5 -->
<g id="edge5" class="edge">
<title>Node4&#45;&gt;Node5</title>
<path fill="none" stroke="#191970" d="M413.743,-179.2752C422.4546,-170.5108 434.7506,-156.9003 442.5,-143 452.6761,-124.7469 459.465,-101.7218 463.3684,-85.6254"/>
<polygon fill="#191970" stroke="#191970" points="466.8135,-86.2594 465.616,-75.7325 459.9875,-84.7085 466.8135,-86.2594"/>
</g>
<!-- Node6 -->
<g id="node7" class="node">
<title>Node6</title>
<polygon fill="none" stroke="#bfbfbf" points="373.5,-118 373.5,-137 433.5,-137 433.5,-118 373.5,-118"/>
<text text-anchor="middle" x="403.5" y="-125" font-family="Helvetica,sans-Serif" font-size="10.00" fill="#000000">iostream</text>
</g>
<!-- Node4&#45;&gt;Node6 -->
<g id="edge6" class="edge">
<title>Node4&#45;&gt;Node6</title>
<path fill="none" stroke="#191970" d="M403.5,-179.3906C403.5,-170.8657 403.5,-158.1392 403.5,-147.4235"/>
<polygon fill="#191970" stroke="#191970" points="407.0001,-147.2448 403.5,-137.2449 400.0001,-147.2449 407.0001,-147.2448"/>
</g>
<!-- Node7 -->
<g id="node8" class="node">
<title>Node7</title>
<polygon fill="none" stroke="#bfbfbf" points="494.5,-118 494.5,-137 536.5,-137 536.5,-118 494.5,-118"/>
<text text-anchor="middle" x="515.5" y="-125" font-family="Helvetica,sans-Serif" font-size="10.00" fill="#000000">array</text>
</g>
<!-- Node4&#45;&gt;Node7 -->
<g id="edge7" class="edge">
<title>Node4&#45;&gt;Node7</title>
<path fill="none" stroke="#191970" d="M421,-179.3906C439.2465,-169.3713 468.0624,-153.5483 489.0806,-142.0071"/>
<polygon fill="#191970" stroke="#191970" points="491.042,-144.923 498.1229,-137.0419 487.6728,-138.7872 491.042,-144.923"/>
</g>
<!-- Node9 -->
<g id="node10" class="node">
<title>Node9</title>
<g id="a_node10"><a xlink:href="../../d9/d80/InteractionRecord_8h.html" target="_top" xlink:title="CommonDataFormat/Interaction\lRecord.h">
<polygon fill="none" stroke="#000000" points="629.5,-112.5 629.5,-142.5 803.5,-142.5 803.5,-112.5 629.5,-112.5"/>
<text text-anchor="start" x="637.5" y="-130.5" font-family="Helvetica,sans-Serif" font-size="10.00" fill="#000000">CommonDataFormat/Interaction</text>
<text text-anchor="middle" x="716.5" y="-119.5" font-family="Helvetica,sans-Serif" font-size="10.00" fill="#000000">Record.h</text>
</a>
</g>
</g>
<!-- Node8&#45;&gt;Node9 -->
<g id="edge9" class="edge">
<title>Node8&#45;&gt;Node9</title>
<path fill="none" stroke="#191970" d="M739.2813,-179.3906C736.0331,-171.9922 731.3957,-161.4291 727.1517,-151.7623"/>
<polygon fill="#191970" stroke="#191970" points="730.3297,-150.2941 723.1049,-142.5446 723.9201,-153.108 730.3297,-150.2941"/>
</g>
<!-- Node9&#45;&gt;Node5 -->
<g id="edge14" class="edge">
<title>Node9&#45;&gt;Node5</title>
<path fill="none" stroke="#191970" d="M652.8485,-112.4878C610.6921,-102.4344 554.212,-88.7537 504.5,-76 503.7749,-75.814 503.0421,-75.625 502.3036,-75.4337"/>
<polygon fill="#191970" stroke="#191970" points="503.1164,-72.0284 492.5546,-72.8648 501.3327,-78.7974 503.1164,-72.0284"/>
</g>
<!-- Node10 -->
<g id="node11" class="node">
<title>Node10</title>
<g id="a_node11"><a xlink:href="../../d2/d45/GPUCommonRtypes_8h.html" target="_top" xlink:title="GPUCommonRtypes.h">
<polygon fill="none" stroke="#000000" points="855,-56.5 855,-75.5 980,-75.5 980,-56.5 855,-56.5"/>
<text text-anchor="middle" x="917.5" y="-63.5" font-family="Helvetica,sans-Serif" font-size="10.00" fill="#000000">GPUCommonRtypes.h</text>
</a>
</g>
</g>
<!-- Node9&#45;&gt;Node10 -->
<g id="edge10" class="edge">
<title>Node9&#45;&gt;Node10</title>
<path fill="none" stroke="#191970" d="M765.6701,-112.4554C799.6488,-102.059 844.3281,-88.3884 876.4086,-78.5727"/>
<polygon fill="#191970" stroke="#191970" points="877.8138,-81.803 886.3521,-75.5303 875.7657,-75.1094 877.8138,-81.803"/>
</g>
<!-- Node12 -->
<g id="node13" class="node">
<title>Node12</title>
<polygon fill="none" stroke="#bfbfbf" points="514,-56.5 514,-75.5 563,-75.5 563,-56.5 514,-56.5"/>
<text text-anchor="middle" x="538.5" y="-63.5" font-family="Helvetica,sans-Serif" font-size="10.00" fill="#000000">iosfwd</text>
</g>
<!-- Node9&#45;&gt;Node12 -->
<g id="edge12" class="edge">
<title>Node9&#45;&gt;Node12</title>
<path fill="none" stroke="#191970" d="M672.9563,-112.4554C642.1135,-101.7991 601.3148,-87.7029 572.78,-77.8439"/>
<polygon fill="#191970" stroke="#191970" points="573.8295,-74.5036 563.2348,-74.546 571.5436,-81.1198 573.8295,-74.5036"/>
</g>
<!-- Node13 -->
<g id="node14" class="node">
<title>Node13</title>
<polygon fill="none" stroke="#bfbfbf" points="581,-56.5 581,-75.5 628,-75.5 628,-56.5 581,-56.5"/>
<text text-anchor="middle" x="604.5" y="-63.5" font-family="Helvetica,sans-Serif" font-size="10.00" fill="#000000">cmath</text>
</g>
<!-- Node9&#45;&gt;Node13 -->
<g id="edge13" class="edge">
<title>Node9&#45;&gt;Node13</title>
<path fill="none" stroke="#191970" d="M689.1017,-112.4554C671.3978,-102.734 648.4805,-90.15 630.9642,-80.5317"/>
<polygon fill="#191970" stroke="#191970" points="632.3061,-77.2756 621.856,-75.5303 628.9369,-83.4115 632.3061,-77.2756"/>
</g>
<!-- Node14 -->
<g id="node15" class="node">
<title>Node14</title>
<g id="a_node15"><a xlink:href="../../d4/dc6/LHCConstants_8h.html" target="_top" xlink:title="Header to collect LHC related constants. ">
<polygon fill="none" stroke="#000000" points="646.5,-56.5 646.5,-75.5 836.5,-75.5 836.5,-56.5 646.5,-56.5"/>
<text text-anchor="middle" x="741.5" y="-63.5" font-family="Helvetica,sans-Serif" font-size="10.00" fill="#000000">CommonConstants/LHCConstants.h</text>
</a>
</g>
</g>
<!-- Node9&#45;&gt;Node14 -->
<g id="edge15" class="edge">
<title>Node9&#45;&gt;Node14</title>
<path fill="none" stroke="#191970" d="M722.6798,-112.2977C726.0054,-104.1166 730.1411,-93.943 733.6879,-85.2179"/>
<polygon fill="#191970" stroke="#191970" points="736.9737,-86.4288 737.4972,-75.8469 730.489,-83.7927 736.9737,-86.4288"/>
</g>
<!-- Node11 -->
<g id="node12" class="node">
<title>Node11</title>
<polygon fill="none" stroke="#bfbfbf" points="888,-.5 888,-19.5 947,-19.5 947,-.5 888,-.5"/>
<text text-anchor="middle" x="917.5" y="-7.5" font-family="Helvetica,sans-Serif" font-size="10.00" fill="#000000">Rtypes.h</text>
</g>
<!-- Node10&#45;&gt;Node11 -->
<g id="edge11" class="edge">
<title>Node10&#45;&gt;Node11</title>
<path fill="none" stroke="#191970" d="M917.5,-56.2455C917.5,-48.9382 917.5,-38.6944 917.5,-29.7046"/>
<polygon fill="#191970" stroke="#191970" points="921.0001,-29.6426 917.5,-19.6427 914.0001,-29.6427 921.0001,-29.6426"/>
</g>
<!-- Node15&#45;&gt;Node2 -->
<g id="edge18" class="edge">
<title>Node15&#45;&gt;Node2</title>
<path fill="none" stroke="#191970" d="M222.1563,-179.3906C209.7497,-169.7324 190.4157,-154.6812 175.7587,-143.271"/>
<polygon fill="#191970" stroke="#191970" points="177.7979,-140.423 167.7571,-137.0419 173.4979,-145.9466 177.7979,-140.423"/>
</g>
<!-- Node15&#45;&gt;Node5 -->
<g id="edge17" class="edge">
<title>Node15&#45;&gt;Node5</title>
<path fill="none" stroke="#191970" d="M249.3922,-179.4161C273.2276,-164.2523 321.6304,-134.176 364.5,-112 387.3713,-100.1689 413.9197,-88.3563 434.3347,-79.6643"/>
<polygon fill="#191970" stroke="#191970" points="435.9682,-82.7739 443.8209,-75.6615 433.2468,-76.3245 435.9682,-82.7739"/>
</g>
<!-- Node16&#45;&gt;Node5 -->
<g id="edge20" class="edge">
<title>Node16&#45;&gt;Node5</title>
<path fill="none" stroke="#191970" d="M573.8752,-179.4367C570.7909,-163.7648 562.7875,-132.3283 545.5,-112 533.7765,-98.2144 516.8257,-87.5257 501.7187,-79.9361"/>
<polygon fill="#191970" stroke="#191970" points="503.1485,-76.7405 492.614,-75.611 500.1448,-83.0634 503.1485,-76.7405"/>
</g>
<!-- Node16&#45;&gt;Node7 -->
<g id="edge21" class="edge">
<title>Node16&#45;&gt;Node7</title>
<path fill="none" stroke="#191970" d="M566.125,-179.3906C557.0201,-170.0581 543.0026,-155.6902 532.0243,-144.4374"/>
<polygon fill="#191970" stroke="#191970" points="534.4957,-141.9586 525.0072,-137.2449 529.4852,-146.8468 534.4957,-141.9586"/>
</g>
</g>
</svg>
