<?xml version="1.0" encoding="UTF-8" standalone="no"?>
<!DOCTYPE svg PUBLIC "-//W3C//DTD SVG 1.1//EN"
 "http://www.w3.org/Graphics/SVG/1.1/DTD/svg11.dtd">
<!-- Generated by graphviz version 2.40.1 (20161225.0304)
 -->
<!-- Title: /home/travis/build/AliceO2Group/AliceO2/DataFormats/Detectors/TPC/include/DataFormatsTPC/dEdxInfo.h Pages: 1 -->
<svg width="3067pt" height="472pt"
 viewBox="0.00 0.00 3067.00 472.00" xmlns="http://www.w3.org/2000/svg" xmlns:xlink="http://www.w3.org/1999/xlink">
<g id="graph0" class="graph" transform="scale(1 1) rotate(0) translate(4 468)">
<title>/home/travis/build/AliceO2Group/AliceO2/DataFormats/Detectors/TPC/include/DataFormatsTPC/dEdxInfo.h</title>
<!-- Node3 -->
<g id="node1" class="node">
<title>Node3</title>
<polygon fill="#bfbfbf" stroke="#000000" points="1870,-400.5 1870,-463.5 2031,-463.5 2031,-400.5 1870,-400.5"/>
<text text-anchor="start" x="1878" y="-451.5" font-family="Helvetica,sans-Serif" font-size="10.00" fill="#000000">/home/travis/build</text>
<text text-anchor="start" x="1878" y="-440.5" font-family="Helvetica,sans-Serif" font-size="10.00" fill="#000000">/AliceO2Group/AliceO2</text>
<text text-anchor="start" x="1878" y="-429.5" font-family="Helvetica,sans-Serif" font-size="10.00" fill="#000000">/DataFormats/Detectors</text>
<text text-anchor="start" x="1878" y="-418.5" font-family="Helvetica,sans-Serif" font-size="10.00" fill="#000000">/TPC/include/DataFormatsTPC</text>
<text text-anchor="middle" x="1950.5" y="-407.5" font-family="Helvetica,sans-Serif" font-size="10.00" fill="#000000">/dEdxInfo.h</text>
</g>
<!-- Node4 -->
<g id="node2" class="node">
<title>Node4</title>
<g id="a_node2"><a xlink:href="../../d5/dc9/TrackTPC_8h.html" target="_top" xlink:title="/home/travis/build\l/AliceO2Group/AliceO2\l/DataFormats/Detectors\l/TPC/include/DataFormatsTPC\l/TrackTPC.h">
<polygon fill="none" stroke="#000000" points="1816,-300.5 1816,-363.5 1977,-363.5 1977,-300.5 1816,-300.5"/>
<text text-anchor="start" x="1824" y="-351.5" font-family="Helvetica,sans-Serif" font-size="10.00" fill="#000000">/home/travis/build</text>
<text text-anchor="start" x="1824" y="-340.5" font-family="Helvetica,sans-Serif" font-size="10.00" fill="#000000">/AliceO2Group/AliceO2</text>
<text text-anchor="start" x="1824" y="-329.5" font-family="Helvetica,sans-Serif" font-size="10.00" fill="#000000">/DataFormats/Detectors</text>
<text text-anchor="start" x="1824" y="-318.5" font-family="Helvetica,sans-Serif" font-size="10.00" fill="#000000">/TPC/include/DataFormatsTPC</text>
<text text-anchor="middle" x="1896.5" y="-307.5" font-family="Helvetica,sans-Serif" font-size="10.00" fill="#000000">/TrackTPC.h</text>
</a>
</g>
</g>
<!-- Node3&#45;&gt;Node4 -->
<g id="edge1" class="edge">
<title>Node3&#45;&gt;Node4</title>
<path fill="none" stroke="#191970" d="M1928.5556,-391.3622C1923.5923,-382.1709 1918.3926,-372.5418 1913.6601,-363.778"/>
<polygon fill="#191970" stroke="#191970" points="1925.5828,-393.2233 1933.4141,-400.3594 1931.7422,-389.8973 1925.5828,-393.2233"/>
</g>
<!-- Node24 -->
<g id="node22" class="node">
<title>Node24</title>
<g id="a_node22"><a xlink:href="../../d2/d14/Detectors_2TPC_2qc_2src_2PID_8cxx.html" target="_top" xlink:title="/home/travis/build\l/AliceO2Group/AliceO2\l/Detectors/TPC/qc/src\l/PID.cxx">
<polygon fill="none" stroke="#000000" points="2932,-206 2932,-258 3059,-258 3059,-206 2932,-206"/>
<text text-anchor="start" x="2940" y="-246" font-family="Helvetica,sans-Serif" font-size="10.00" fill="#000000">/home/travis/build</text>
<text text-anchor="start" x="2940" y="-235" font-family="Helvetica,sans-Serif" font-size="10.00" fill="#000000">/AliceO2Group/AliceO2</text>
<text text-anchor="start" x="2940" y="-224" font-family="Helvetica,sans-Serif" font-size="10.00" fill="#000000">/Detectors/TPC/qc/src</text>
<text text-anchor="middle" x="2995.5" y="-213" font-family="Helvetica,sans-Serif" font-size="10.00" fill="#000000">/PID.cxx</text>
</a>
</g>
</g>
<!-- Node3&#45;&gt;Node24 -->
<g id="edge41" class="edge">
<title>Node3&#45;&gt;Node24</title>
<path fill="none" stroke="#191970" d="M2041.3399,-423.8803C2215.5235,-406.664 2607.2601,-359.9566 2923.5,-264 2929.1286,-262.2921 2934.8976,-260.2552 2940.6012,-258.0478"/>
<polygon fill="#191970" stroke="#191970" points="2040.8031,-420.4161 2031.1919,-424.8742 2041.4854,-427.3827 2040.8031,-420.4161"/>
</g>
<!-- Node5 -->
<g id="node3" class="node">
<title>Node5</title>
<g id="a_node3"><a xlink:href="../../d6/da8/TrackTPC_8cxx.html" target="_top" xlink:title="Implementation of the TPC track. ">
<polygon fill="none" stroke="#000000" points="2781,-206 2781,-258 2914,-258 2914,-206 2781,-206"/>
<text text-anchor="start" x="2789" y="-246" font-family="Helvetica,sans-Serif" font-size="10.00" fill="#000000">/home/travis/build</text>
<text text-anchor="start" x="2789" y="-235" font-family="Helvetica,sans-Serif" font-size="10.00" fill="#000000">/AliceO2Group/AliceO2</text>
<text text-anchor="start" x="2789" y="-224" font-family="Helvetica,sans-Serif" font-size="10.00" fill="#000000">/DataFormats/Detectors</text>
<text text-anchor="middle" x="2847.5" y="-213" font-family="Helvetica,sans-Serif" font-size="10.00" fill="#000000">/TPC/src/TrackTPC.cxx</text>
</a>
</g>
</g>
<!-- Node4&#45;&gt;Node5 -->
<g id="edge2" class="edge">
<title>Node4&#45;&gt;Node5</title>
<path fill="none" stroke="#191970" d="M1987.1787,-326.6368C2195.8058,-314.057 2697.7029,-282.3339 2772.5,-264 2778.8248,-262.4497 2785.2981,-260.4233 2791.6625,-258.1421"/>
<polygon fill="#191970" stroke="#191970" points="1986.9393,-323.1448 1977.1676,-327.2393 1987.3599,-330.1322 1986.9393,-323.1448"/>
</g>
<!-- Node6 -->
<g id="node4" class="node">
<title>Node6</title>
<g id="a_node4"><a xlink:href="../../d0/d74/MatchTOF_8h.html" target="_top" xlink:title="Class to perform TOF matching to global tracks. ">
<polygon fill="none" stroke="#000000" points="99.5,-106 99.5,-158 287.5,-158 287.5,-106 99.5,-106"/>
<text text-anchor="start" x="107.5" y="-146" font-family="Helvetica,sans-Serif" font-size="10.00" fill="#000000">/home/travis/build</text>
<text text-anchor="start" x="107.5" y="-135" font-family="Helvetica,sans-Serif" font-size="10.00" fill="#000000">/AliceO2Group/AliceO2</text>
<text text-anchor="start" x="107.5" y="-124" font-family="Helvetica,sans-Serif" font-size="10.00" fill="#000000">/Detectors/GlobalTracking</text>
<text text-anchor="middle" x="193.5" y="-113" font-family="Helvetica,sans-Serif" font-size="10.00" fill="#000000">/include/GlobalTracking/MatchTOF.h</text>
</a>
</g>
</g>
<!-- Node4&#45;&gt;Node6 -->
<g id="edge3" class="edge">
<title>Node4&#45;&gt;Node6</title>
<path fill="none" stroke="#191970" d="M1805.6796,-330.6035C1472.9585,-325.1777 336.5566,-303.7994 270.5,-264 231.6407,-240.5871 210.3389,-189.5563 200.4773,-158.2498"/>
<polygon fill="#191970" stroke="#191970" points="1805.7044,-334.1043 1815.7599,-330.767 1805.818,-327.1052 1805.7044,-334.1043"/>
</g>
<!-- Node9 -->
<g id="node7" class="node">
<title>Node9</title>
<g id="a_node7"><a xlink:href="../../d3/dac/MatchTPCITS_8h.html" target="_top" xlink:title="Class to perform TPC ITS matching. ">
<polygon fill="none" stroke="#000000" points="280,-206 280,-258 485,-258 485,-206 280,-206"/>
<text text-anchor="start" x="288" y="-246" font-family="Helvetica,sans-Serif" font-size="10.00" fill="#000000">/home/travis/build</text>
<text text-anchor="start" x="288" y="-235" font-family="Helvetica,sans-Serif" font-size="10.00" fill="#000000">/AliceO2Group/AliceO2</text>
<text text-anchor="start" x="288" y="-224" font-family="Helvetica,sans-Serif" font-size="10.00" fill="#000000">/Detectors/GlobalTracking</text>
<text text-anchor="middle" x="382.5" y="-213" font-family="Helvetica,sans-Serif" font-size="10.00" fill="#000000">/include/GlobalTracking/MatchTPCITS.h</text>
</a>
</g>
</g>
<!-- Node4&#45;&gt;Node9 -->
<g id="edge6" class="edge">
<title>Node4&#45;&gt;Node9</title>
<path fill="none" stroke="#191970" d="M1805.7681,-330.1702C1537.747,-324.3553 752.5375,-304.2657 499.5,-264 489.7255,-262.4446 479.5963,-260.3817 469.5723,-258.0501"/>
<polygon fill="#191970" stroke="#191970" points="1805.7753,-333.671 1815.8484,-330.3874 1805.9262,-326.6727 1805.7753,-333.671"/>
</g>
<!-- Node13 -->
<g id="node11" class="node">
<title>Node13</title>
<g id="a_node11"><a xlink:href="../../d6/d73/TPCITSMatchingSpec_8cxx.html" target="_top" xlink:title="/home/travis/build\l/AliceO2Group/AliceO2\l/Detectors/GlobalTrackingWorkflow\l/src/TPCITSMatchingSpec.cxx">
<polygon fill="none" stroke="#000000" points="388,-6 388,-58 575,-58 575,-6 388,-6"/>
<text text-anchor="start" x="396" y="-46" font-family="Helvetica,sans-Serif" font-size="10.00" fill="#000000">/home/travis/build</text>
<text text-anchor="start" x="396" y="-35" font-family="Helvetica,sans-Serif" font-size="10.00" fill="#000000">/AliceO2Group/AliceO2</text>
<text text-anchor="start" x="396" y="-24" font-family="Helvetica,sans-Serif" font-size="10.00" fill="#000000">/Detectors/GlobalTrackingWorkflow</text>
<text text-anchor="middle" x="481.5" y="-13" font-family="Helvetica,sans-Serif" font-size="10.00" fill="#000000">/src/TPCITSMatchingSpec.cxx</text>
</a>
</g>
</g>
<!-- Node4&#45;&gt;Node13 -->
<g id="edge13" class="edge">
<title>Node4&#45;&gt;Node13</title>
<path fill="none" stroke="#191970" d="M1805.5636,-328.9456C1644.3056,-322.6602 1297.956,-305.2451 1008.5,-264 794.0574,-233.4437 696.0949,-304.8113 531.5,-164 515.0668,-149.9414 497.5262,-92.5227 488.2166,-58.2161"/>
<polygon fill="#191970" stroke="#191970" points="1805.788,-332.4567 1815.9152,-329.3436 1806.0571,-325.4619 1805.788,-332.4567"/>
</g>
<!-- Node14 -->
<g id="node12" class="node">
<title>Node14</title>
<g id="a_node12"><a xlink:href="../../d8/d85/TPCInterpolationSpec_8cxx.html" target="_top" xlink:title="/home/travis/build\l/AliceO2Group/AliceO2\l/Detectors/GlobalTrackingWorkflow\l/tpcinterpolationworkflow/src\l/TPCInterpolationSpec.cxx">
<polygon fill="none" stroke="#000000" points="1162,-.5 1162,-63.5 1349,-63.5 1349,-.5 1162,-.5"/>
<text text-anchor="start" x="1170" y="-51.5" font-family="Helvetica,sans-Serif" font-size="10.00" fill="#000000">/home/travis/build</text>
<text text-anchor="start" x="1170" y="-40.5" font-family="Helvetica,sans-Serif" font-size="10.00" fill="#000000">/AliceO2Group/AliceO2</text>
<text text-anchor="start" x="1170" y="-29.5" font-family="Helvetica,sans-Serif" font-size="10.00" fill="#000000">/Detectors/GlobalTrackingWorkflow</text>
<text text-anchor="start" x="1170" y="-18.5" font-family="Helvetica,sans-Serif" font-size="10.00" fill="#000000">/tpcinterpolationworkflow/src</text>
<text text-anchor="middle" x="1255.5" y="-7.5" font-family="Helvetica,sans-Serif" font-size="10.00" fill="#000000">/TPCInterpolationSpec.cxx</text>
</a>
</g>
</g>
<!-- Node4&#45;&gt;Node14 -->
<g id="edge14" class="edge">
<title>Node4&#45;&gt;Node14</title>
<path fill="none" stroke="#191970" d="M1805.6402,-330.4228C1664.6771,-326.4672 1401.2941,-312.5991 1322.5,-264 1277.176,-236.0448 1272.0066,-214.9441 1256.5,-164 1246.4232,-130.8945 1247.886,-90.9183 1250.7811,-63.6946"/>
<polygon fill="#191970" stroke="#191970" points="1805.8975,-333.931 1815.9882,-330.7016 1806.0861,-326.9335 1805.8975,-333.931"/>
</g>
<!-- Node15 -->
<g id="node13" class="node">
<title>Node15</title>
<g id="a_node13"><a xlink:href="../../dc/d42/CalibPadGainTracks_8h.html" target="_top" xlink:title="/home/travis/build\l/AliceO2Group/AliceO2\l/Detectors/TPC/calibration\l/include/TPCCalibration/CalibPad\lGainTracks.h">
<polygon fill="none" stroke="#000000" points="1568,-200.5 1568,-263.5 1743,-263.5 1743,-200.5 1568,-200.5"/>
<text text-anchor="start" x="1576" y="-251.5" font-family="Helvetica,sans-Serif" font-size="10.00" fill="#000000">/home/travis/build</text>
<text text-anchor="start" x="1576" y="-240.5" font-family="Helvetica,sans-Serif" font-size="10.00" fill="#000000">/AliceO2Group/AliceO2</text>
<text text-anchor="start" x="1576" y="-229.5" font-family="Helvetica,sans-Serif" font-size="10.00" fill="#000000">/Detectors/TPC/calibration</text>
<text text-anchor="start" x="1576" y="-218.5" font-family="Helvetica,sans-Serif" font-size="10.00" fill="#000000">/include/TPCCalibration/CalibPad</text>
<text text-anchor="middle" x="1655.5" y="-207.5" font-family="Helvetica,sans-Serif" font-size="10.00" fill="#000000">GainTracks.h</text>
</a>
</g>
</g>
<!-- Node4&#45;&gt;Node15 -->
<g id="edge15" class="edge">
<title>Node4&#45;&gt;Node15</title>
<path fill="none" stroke="#191970" d="M1811.1227,-296.5737C1785.1407,-285.7928 1756.7716,-274.0214 1731.4554,-263.5168"/>
<polygon fill="#191970" stroke="#191970" points="1809.999,-299.8968 1820.5769,-300.4966 1812.6819,-293.4313 1809.999,-299.8968"/>
</g>
<!-- Node17 -->
<g id="node15" class="node">
<title>Node17</title>
<g id="a_node15"><a xlink:href="../../d3/d0c/TrackInterpolation_8h.html" target="_top" xlink:title="Definition of the TrackInterpolation class. ">
<polygon fill="none" stroke="#000000" points="1332,-200.5 1332,-263.5 1511,-263.5 1511,-200.5 1332,-200.5"/>
<text text-anchor="start" x="1340" y="-251.5" font-family="Helvetica,sans-Serif" font-size="10.00" fill="#000000">/home/travis/build</text>
<text text-anchor="start" x="1340" y="-240.5" font-family="Helvetica,sans-Serif" font-size="10.00" fill="#000000">/AliceO2Group/AliceO2</text>
<text text-anchor="start" x="1340" y="-229.5" font-family="Helvetica,sans-Serif" font-size="10.00" fill="#000000">/Detectors/TPC/calibration</text>
<text text-anchor="start" x="1340" y="-218.5" font-family="Helvetica,sans-Serif" font-size="10.00" fill="#000000">/SpacePoints/include/SpacePoints</text>
<text text-anchor="middle" x="1421.5" y="-207.5" font-family="Helvetica,sans-Serif" font-size="10.00" fill="#000000">/TrackInterpolation.h</text>
</a>
</g>
</g>
<!-- Node4&#45;&gt;Node17 -->
<g id="edge17" class="edge">
<title>Node4&#45;&gt;Node17</title>
<path fill="none" stroke="#191970" d="M1805.9995,-318.4555C1730.4915,-306.4291 1620.3119,-287.1908 1525.5,-264 1520.8208,-262.8555 1516.0418,-261.6214 1511.2295,-260.3271"/>
<polygon fill="#191970" stroke="#191970" points="1805.5315,-321.9249 1815.9558,-320.0315 1806.626,-315.011 1805.5315,-321.9249"/>
</g>
<!-- Node23 -->
<g id="node21" class="node">
<title>Node23</title>
<g id="a_node21"><a xlink:href="../../d4/d15/TrackInterpolation_8cxx.html" target="_top" xlink:title="Implementation of the TrackInterpolation class. ">
<polygon fill="none" stroke="#000000" points="1668,-106 1668,-158 1875,-158 1875,-106 1668,-106"/>
<text text-anchor="start" x="1676" y="-146" font-family="Helvetica,sans-Serif" font-size="10.00" fill="#000000">/home/travis/build</text>
<text text-anchor="start" x="1676" y="-135" font-family="Helvetica,sans-Serif" font-size="10.00" fill="#000000">/AliceO2Group/AliceO2</text>
<text text-anchor="start" x="1676" y="-124" font-family="Helvetica,sans-Serif" font-size="10.00" fill="#000000">/Detectors/TPC/calibration</text>
<text text-anchor="middle" x="1771.5" y="-113" font-family="Helvetica,sans-Serif" font-size="10.00" fill="#000000">/SpacePoints/src/TrackInterpolation.cxx</text>
</a>
</g>
</g>
<!-- Node4&#45;&gt;Node23 -->
<g id="edge25" class="edge">
<title>Node4&#45;&gt;Node23</title>
<path fill="none" stroke="#191970" d="M1805.6871,-326.402C1716.4202,-318.7799 1589.2179,-301.5134 1558.5,-264 1540.4791,-241.9925 1541.7217,-222.969 1558.5,-200 1562.4927,-194.5341 1625.3822,-174.8333 1681.7945,-158.0344"/>
<polygon fill="#191970" stroke="#191970" points="1805.5768,-329.9047 1815.8313,-327.2409 1806.1538,-322.9285 1805.5768,-329.9047"/>
</g>
<!-- Node4&#45;&gt;Node24 -->
<g id="edge26" class="edge">
<title>Node4&#45;&gt;Node24</title>
<path fill="none" stroke="#191970" d="M1987.3393,-326.8529C2230.0686,-312.9832 2878.4473,-275.1288 2923.5,-264 2929.7415,-262.4582 2936.1181,-260.404 2942.3698,-258.0774"/>
<polygon fill="#191970" stroke="#191970" points="1986.9182,-323.3711 1977.134,-327.4355 1987.3173,-330.3597 1986.9182,-323.3711"/>
</g>
<!-- Node25 -->
<g id="node23" class="node">
<title>Node25</title>
<g id="a_node23"><a xlink:href="../../d2/d68/TrackCuts_8cxx.html" target="_top" xlink:title="/home/travis/build\l/AliceO2Group/AliceO2\l/Detectors/TPC/qc/src\l/TrackCuts.cxx">
<polygon fill="none" stroke="#000000" points="1761,-206 1761,-258 1888,-258 1888,-206 1761,-206"/>
<text text-anchor="start" x="1769" y="-246" font-family="Helvetica,sans-Serif" font-size="10.00" fill="#000000">/home/travis/build</text>
<text text-anchor="start" x="1769" y="-235" font-family="Helvetica,sans-Serif" font-size="10.00" fill="#000000">/AliceO2Group/AliceO2</text>
<text text-anchor="start" x="1769" y="-224" font-family="Helvetica,sans-Serif" font-size="10.00" fill="#000000">/Detectors/TPC/qc/src</text>
<text text-anchor="middle" x="1824.5" y="-213" font-family="Helvetica,sans-Serif" font-size="10.00" fill="#000000">/TrackCuts.cxx</text>
</a>
</g>
</g>
<!-- Node4&#45;&gt;Node25 -->
<g id="edge27" class="edge">
<title>Node4&#45;&gt;Node25</title>
<path fill="none" stroke="#191970" d="M1867.8259,-292.1749C1859.5665,-280.7035 1850.77,-268.486 1843.2761,-258.078"/>
<polygon fill="#191970" stroke="#191970" points="1865.0353,-294.2891 1873.7188,-300.3594 1870.716,-290.1989 1865.0353,-294.2891"/>
</g>
<!-- Node26 -->
<g id="node24" class="node">
<title>Node26</title>
<g id="a_node24"><a xlink:href="../../db/d71/Tracks_8cxx.html" target="_top" xlink:title="/home/travis/build\l/AliceO2Group/AliceO2\l/Detectors/TPC/qc/src\l/Tracks.cxx">
<polygon fill="none" stroke="#000000" points="1906,-206 1906,-258 2033,-258 2033,-206 1906,-206"/>
<text text-anchor="start" x="1914" y="-246" font-family="Helvetica,sans-Serif" font-size="10.00" fill="#000000">/home/travis/build</text>
<text text-anchor="start" x="1914" y="-235" font-family="Helvetica,sans-Serif" font-size="10.00" fill="#000000">/AliceO2Group/AliceO2</text>
<text text-anchor="start" x="1914" y="-224" font-family="Helvetica,sans-Serif" font-size="10.00" fill="#000000">/Detectors/TPC/qc/src</text>
<text text-anchor="middle" x="1969.5" y="-213" font-family="Helvetica,sans-Serif" font-size="10.00" fill="#000000">/Tracks.cxx</text>
</a>
</g>
</g>
<!-- Node4&#45;&gt;Node26 -->
<g id="edge28" class="edge">
<title>Node4&#45;&gt;Node26</title>
<path fill="none" stroke="#191970" d="M1925.5724,-292.1749C1933.9464,-280.7035 1942.8652,-268.486 1950.4631,-258.078"/>
<polygon fill="#191970" stroke="#191970" points="1922.6669,-290.2188 1919.5977,-300.3594 1928.3207,-294.3461 1922.6669,-290.2188"/>
</g>
<!-- Node27 -->
<g id="node25" class="node">
<title>Node27</title>
<g id="a_node25"><a xlink:href="../../d3/d64/GPUCATracking_8h.html" target="_top" xlink:title="Wrapper class for TPC CA Tracker algorithm. ">
<polygon fill="none" stroke="#000000" points="2051,-200.5 2051,-263.5 2212,-263.5 2212,-200.5 2051,-200.5"/>
<text text-anchor="start" x="2059" y="-251.5" font-family="Helvetica,sans-Serif" font-size="10.00" fill="#000000">/home/travis/build</text>
<text text-anchor="start" x="2059" y="-240.5" font-family="Helvetica,sans-Serif" font-size="10.00" fill="#000000">/AliceO2Group/AliceO2</text>
<text text-anchor="start" x="2059" y="-229.5" font-family="Helvetica,sans-Serif" font-size="10.00" fill="#000000">/Detectors/TPC/reconstruction</text>
<text text-anchor="start" x="2059" y="-218.5" font-family="Helvetica,sans-Serif" font-size="10.00" fill="#000000">/include/TPCReconstruction</text>
<text text-anchor="middle" x="2131.5" y="-207.5" font-family="Helvetica,sans-Serif" font-size="10.00" fill="#000000">/GPUCATracking.h</text>
</a>
</g>
</g>
<!-- Node4&#45;&gt;Node27 -->
<g id="edge29" class="edge">
<title>Node4&#45;&gt;Node27</title>
<path fill="none" stroke="#191970" d="M1979.7518,-296.5737C2005.0869,-285.7928 2032.7497,-274.0214 2057.4356,-263.5168"/>
<polygon fill="#191970" stroke="#191970" points="1978.364,-293.3605 1970.5329,-300.4966 1981.1049,-299.8016 1978.364,-293.3605"/>
</g>
<!-- Node29 -->
<g id="node27" class="node">
<title>Node29</title>
<g id="a_node27"><a xlink:href="../../d1/df6/testGPUCATracking_8cxx.html" target="_top" xlink:title="This task tests the TPC CA Tracking library. ">
<polygon fill="none" stroke="#000000" points="2397,-106 2397,-158 2558,-158 2558,-106 2397,-106"/>
<text text-anchor="start" x="2405" y="-146" font-family="Helvetica,sans-Serif" font-size="10.00" fill="#000000">/home/travis/build</text>
<text text-anchor="start" x="2405" y="-135" font-family="Helvetica,sans-Serif" font-size="10.00" fill="#000000">/AliceO2Group/AliceO2</text>
<text text-anchor="start" x="2405" y="-124" font-family="Helvetica,sans-Serif" font-size="10.00" fill="#000000">/Detectors/TPC/reconstruction</text>
<text text-anchor="middle" x="2477.5" y="-113" font-family="Helvetica,sans-Serif" font-size="10.00" fill="#000000">/test/testGPUCATracking.cxx</text>
</a>
</g>
</g>
<!-- Node4&#45;&gt;Node29 -->
<g id="edge33" class="edge">
<title>Node4&#45;&gt;Node29</title>
<path fill="none" stroke="#191970" d="M1987.2683,-321.2907C2069.9278,-310.0775 2184.5477,-290.4152 2221.5,-264 2248.4116,-244.7624 2233.2367,-220.1137 2259.5,-200 2306.7574,-163.8081 2331.7888,-182.0819 2388.5,-164 2394.2882,-162.1545 2400.2624,-160.174 2406.248,-158.136"/>
<polygon fill="#191970" stroke="#191970" points="1986.8017,-317.8219 1977.3537,-322.6162 1987.7293,-324.7601 1986.8017,-317.8219"/>
</g>
<!-- Node31 -->
<g id="node29" class="node">
<title>Node31</title>
<g id="a_node29"><a xlink:href="../../d5/daf/TPC_2workflow_2include_2TPCWorkflow_2TrackReaderSpec_8h.html" target="_top" xlink:title="/home/travis/build\l/AliceO2Group/AliceO2\l/Detectors/TPC/workflow\l/include/TPCWorkflow/TrackReader\lSpec.h">
<polygon fill="none" stroke="#000000" points="746.5,-100.5 746.5,-163.5 930.5,-163.5 930.5,-100.5 746.5,-100.5"/>
<text text-anchor="start" x="754.5" y="-151.5" font-family="Helvetica,sans-Serif" font-size="10.00" fill="#000000">/home/travis/build</text>
<text text-anchor="start" x="754.5" y="-140.5" font-family="Helvetica,sans-Serif" font-size="10.00" fill="#000000">/AliceO2Group/AliceO2</text>
<text text-anchor="start" x="754.5" y="-129.5" font-family="Helvetica,sans-Serif" font-size="10.00" fill="#000000">/Detectors/TPC/workflow</text>
<text text-anchor="start" x="754.5" y="-118.5" font-family="Helvetica,sans-Serif" font-size="10.00" fill="#000000">/include/TPCWorkflow/TrackReader</text>
<text text-anchor="middle" x="838.5" y="-107.5" font-family="Helvetica,sans-Serif" font-size="10.00" fill="#000000">Spec.h</text>
</a>
</g>
</g>
<!-- Node4&#45;&gt;Node31 -->
<g id="edge34" class="edge">
<title>Node4&#45;&gt;Node31</title>
<path fill="none" stroke="#191970" d="M1805.6026,-329.3792C1675.4683,-324.1479 1429.1717,-308.7327 1224.5,-264 1113.7949,-239.8045 990.6899,-194.2909 913.9291,-163.5581"/>
<polygon fill="#191970" stroke="#191970" points="1805.7874,-332.889 1815.9165,-329.7822 1806.0608,-325.8943 1805.7874,-332.889"/>
</g>
<!-- Node33 -->
<g id="node31" class="node">
<title>Node33</title>
<g id="a_node31"><a xlink:href="../../d0/d80/TPC_2workflow_2src_2RecoWorkflow_8cxx.html" target="_top" xlink:title="/home/travis/build\l/AliceO2Group/AliceO2\l/Detectors/TPC/workflow\l/src/RecoWorkflow.cxx">
<polygon fill="none" stroke="#000000" points="2268.5,-206 2268.5,-258 2404.5,-258 2404.5,-206 2268.5,-206"/>
<text text-anchor="start" x="2276.5" y="-246" font-family="Helvetica,sans-Serif" font-size="10.00" fill="#000000">/home/travis/build</text>
<text text-anchor="start" x="2276.5" y="-235" font-family="Helvetica,sans-Serif" font-size="10.00" fill="#000000">/AliceO2Group/AliceO2</text>
<text text-anchor="start" x="2276.5" y="-224" font-family="Helvetica,sans-Serif" font-size="10.00" fill="#000000">/Detectors/TPC/workflow</text>
<text text-anchor="middle" x="2336.5" y="-213" font-family="Helvetica,sans-Serif" font-size="10.00" fill="#000000">/src/RecoWorkflow.cxx</text>
</a>
</g>
</g>
<!-- Node4&#45;&gt;Node33 -->
<g id="edge38" class="edge">
<title>Node4&#45;&gt;Node33</title>
<path fill="none" stroke="#191970" d="M1987.2044,-319.5057C2060.2287,-308.3193 2165.0709,-289.7049 2254.5,-264 2260.5217,-262.2692 2266.7179,-260.2719 2272.8782,-258.138"/>
<polygon fill="#191970" stroke="#191970" points="1986.479,-316.0756 1977.1165,-321.0348 1987.5281,-322.9966 1986.479,-316.0756"/>
</g>
<!-- Node34 -->
<g id="node32" class="node">
<title>Node34</title>
<g id="a_node32"><a xlink:href="../../d5/df5/DataInterpreterTPC_8cxx.html" target="_top" xlink:title="converting TPC data to Event Visualisation primitives ">
<polygon fill="none" stroke="#000000" points="2423,-206 2423,-258 2584,-258 2584,-206 2423,-206"/>
<text text-anchor="start" x="2431" y="-246" font-family="Helvetica,sans-Serif" font-size="10.00" fill="#000000">/home/travis/build</text>
<text text-anchor="start" x="2431" y="-235" font-family="Helvetica,sans-Serif" font-size="10.00" fill="#000000">/AliceO2Group/AliceO2</text>
<text text-anchor="start" x="2431" y="-224" font-family="Helvetica,sans-Serif" font-size="10.00" fill="#000000">/EventVisualisation/Detectors</text>
<text text-anchor="middle" x="2503.5" y="-213" font-family="Helvetica,sans-Serif" font-size="10.00" fill="#000000">/src/DataInterpreterTPC.cxx</text>
</a>
</g>
</g>
<!-- Node4&#45;&gt;Node34 -->
<g id="edge39" class="edge">
<title>Node4&#45;&gt;Node34</title>
<path fill="none" stroke="#191970" d="M1987.3269,-325.8773C2091.4112,-317.5237 2266.5646,-299.3658 2413.5,-264 2420.4328,-262.3313 2427.5759,-260.3204 2434.6629,-258.1293"/>
<polygon fill="#191970" stroke="#191970" points="1986.8625,-322.403 1977.1691,-326.6795 1987.4137,-329.3813 1986.8625,-322.403"/>
</g>
<!-- Node35 -->
<g id="node33" class="node">
<title>Node35</title>
<g id="a_node33"><a xlink:href="../../df/d85/DataReaderTPC_8cxx.html" target="_top" xlink:title="TPC Detector&#45;specific reading from file(s) ">
<polygon fill="none" stroke="#000000" points="2602,-206 2602,-258 2763,-258 2763,-206 2602,-206"/>
<text text-anchor="start" x="2610" y="-246" font-family="Helvetica,sans-Serif" font-size="10.00" fill="#000000">/home/travis/build</text>
<text text-anchor="start" x="2610" y="-235" font-family="Helvetica,sans-Serif" font-size="10.00" fill="#000000">/AliceO2Group/AliceO2</text>
<text text-anchor="start" x="2610" y="-224" font-family="Helvetica,sans-Serif" font-size="10.00" fill="#000000">/EventVisualisation/Detectors</text>
<text text-anchor="middle" x="2682.5" y="-213" font-family="Helvetica,sans-Serif" font-size="10.00" fill="#000000">/src/DataReaderTPC.cxx</text>
</a>
</g>
</g>
<!-- Node4&#45;&gt;Node35 -->
<g id="edge40" class="edge">
<title>Node4&#45;&gt;Node35</title>
<path fill="none" stroke="#191970" d="M1987.6791,-325.925C2149.4943,-314.6742 2480.4763,-289.4174 2593.5,-264 2600.7089,-262.3788 2608.1334,-260.3388 2615.475,-258.0773"/>
<polygon fill="#191970" stroke="#191970" points="1987.0037,-322.4633 1977.2694,-326.6457 1987.4872,-329.4466 1987.0037,-322.4633"/>
</g>
<!-- Node7 -->
<g id="node5" class="node">
<title>Node7</title>
<g id="a_node5"><a xlink:href="../../db/d6a/MatchTOF_8cxx.html" target="_top" xlink:title="/home/travis/build\l/AliceO2Group/AliceO2\l/Detectors/GlobalTracking\l/src/MatchTOF.cxx">
<polygon fill="none" stroke="#000000" points="227.5,-6 227.5,-58 369.5,-58 369.5,-6 227.5,-6"/>
<text text-anchor="start" x="235.5" y="-46" font-family="Helvetica,sans-Serif" font-size="10.00" fill="#000000">/home/travis/build</text>
<text text-anchor="start" x="235.5" y="-35" font-family="Helvetica,sans-Serif" font-size="10.00" fill="#000000">/AliceO2Group/AliceO2</text>
<text text-anchor="start" x="235.5" y="-24" font-family="Helvetica,sans-Serif" font-size="10.00" fill="#000000">/Detectors/GlobalTracking</text>
<text text-anchor="middle" x="298.5" y="-13" font-family="Helvetica,sans-Serif" font-size="10.00" fill="#000000">/src/MatchTOF.cxx</text>
</a>
</g>
</g>
<!-- Node6&#45;&gt;Node7 -->
<g id="edge4" class="edge">
<title>Node6&#45;&gt;Node7</title>
<path fill="none" stroke="#191970" d="M228.298,-98.8591C242.1679,-85.6496 257.9047,-70.6622 270.9586,-58.2299"/>
<polygon fill="#191970" stroke="#191970" points="225.641,-96.5562 220.8134,-105.9872 230.4686,-101.6251 225.641,-96.5562"/>
</g>
<!-- Node8 -->
<g id="node6" class="node">
<title>Node8</title>
<g id="a_node6"><a xlink:href="../../d8/d84/RecoWorkflowSpec_8cxx.html" target="_top" xlink:title="/home/travis/build\l/AliceO2Group/AliceO2\l/Detectors/GlobalTrackingWorkflow\l/tofworkflow/src/RecoWorkflowSpec.cxx">
<polygon fill="none" stroke="#000000" points="0,-6 0,-58 209,-58 209,-6 0,-6"/>
<text text-anchor="start" x="8" y="-46" font-family="Helvetica,sans-Serif" font-size="10.00" fill="#000000">/home/travis/build</text>
<text text-anchor="start" x="8" y="-35" font-family="Helvetica,sans-Serif" font-size="10.00" fill="#000000">/AliceO2Group/AliceO2</text>
<text text-anchor="start" x="8" y="-24" font-family="Helvetica,sans-Serif" font-size="10.00" fill="#000000">/Detectors/GlobalTrackingWorkflow</text>
<text text-anchor="middle" x="104.5" y="-13" font-family="Helvetica,sans-Serif" font-size="10.00" fill="#000000">/tofworkflow/src/RecoWorkflowSpec.cxx</text>
</a>
</g>
</g>
<!-- Node6&#45;&gt;Node8 -->
<g id="edge5" class="edge">
<title>Node6&#45;&gt;Node8</title>
<path fill="none" stroke="#191970" d="M163.6776,-98.4917C152.0014,-85.3723 138.8069,-70.5471 127.8446,-58.2299"/>
<polygon fill="#191970" stroke="#191970" points="161.0858,-100.8441 170.3486,-105.9872 166.3148,-96.1903 161.0858,-100.8441"/>
</g>
<!-- Node9&#45;&gt;Node6 -->
<g id="edge7" class="edge">
<title>Node9&#45;&gt;Node6</title>
<path fill="none" stroke="#191970" d="M324.2969,-201.2047C298.1823,-187.3875 267.707,-171.263 242.746,-158.0561"/>
<polygon fill="#191970" stroke="#191970" points="322.86,-204.4041 333.3359,-205.9872 326.1337,-198.2168 322.86,-204.4041"/>
</g>
<!-- Node9&#45;&gt;Node7 -->
<g id="edge8" class="edge">
<title>Node9&#45;&gt;Node7</title>
<path fill="none" stroke="#191970" d="M354.6913,-197.5415C347.3349,-187.2068 339.939,-175.5395 334.5,-164 318.0935,-129.1918 308.0352,-85.5781 302.8607,-58.2424"/>
<polygon fill="#191970" stroke="#191970" points="352.0751,-199.892 360.8175,-205.8772 357.7157,-195.7466 352.0751,-199.892"/>
</g>
<!-- Node10 -->
<g id="node8" class="node">
<title>Node10</title>
<g id="a_node8"><a xlink:href="../../dc/d59/MatchTPCITS_8cxx.html" target="_top" xlink:title="/home/travis/build\l/AliceO2Group/AliceO2\l/Detectors/GlobalTracking\l/src/MatchTPCITS.cxx">
<polygon fill="none" stroke="#000000" points="343.5,-106 343.5,-158 485.5,-158 485.5,-106 343.5,-106"/>
<text text-anchor="start" x="351.5" y="-146" font-family="Helvetica,sans-Serif" font-size="10.00" fill="#000000">/home/travis/build</text>
<text text-anchor="start" x="351.5" y="-135" font-family="Helvetica,sans-Serif" font-size="10.00" fill="#000000">/AliceO2Group/AliceO2</text>
<text text-anchor="start" x="351.5" y="-124" font-family="Helvetica,sans-Serif" font-size="10.00" fill="#000000">/Detectors/GlobalTracking</text>
<text text-anchor="middle" x="414.5" y="-113" font-family="Helvetica,sans-Serif" font-size="10.00" fill="#000000">/src/MatchTPCITS.cxx</text>
</a>
</g>
</g>
<!-- Node9&#45;&gt;Node10 -->
<g id="edge9" class="edge">
<title>Node9&#45;&gt;Node10</title>
<path fill="none" stroke="#191970" d="M393.9338,-196.2694C397.9504,-183.7176 402.386,-169.8564 406.1064,-158.2299"/>
<polygon fill="#191970" stroke="#191970" points="390.5384,-195.3962 390.8241,-205.9872 397.2054,-197.5297 390.5384,-195.3962"/>
</g>
<!-- Node11 -->
<g id="node9" class="node">
<title>Node11</title>
<g id="a_node9"><a xlink:href="../../da/d20/TPCITSMatchingSpec_8h.html" target="_top" xlink:title="/home/travis/build\l/AliceO2Group/AliceO2\l/Detectors/GlobalTrackingWorkflow\l/include/GlobalTrackingWorkflow\l/TPCITSMatchingSpec.h">
<polygon fill="none" stroke="#000000" points="541,-100.5 541,-163.5 728,-163.5 728,-100.5 541,-100.5"/>
<text text-anchor="start" x="549" y="-151.5" font-family="Helvetica,sans-Serif" font-size="10.00" fill="#000000">/home/travis/build</text>
<text text-anchor="start" x="549" y="-140.5" font-family="Helvetica,sans-Serif" font-size="10.00" fill="#000000">/AliceO2Group/AliceO2</text>
<text text-anchor="start" x="549" y="-129.5" font-family="Helvetica,sans-Serif" font-size="10.00" fill="#000000">/Detectors/GlobalTrackingWorkflow</text>
<text text-anchor="start" x="549" y="-118.5" font-family="Helvetica,sans-Serif" font-size="10.00" fill="#000000">/include/GlobalTrackingWorkflow</text>
<text text-anchor="middle" x="634.5" y="-107.5" font-family="Helvetica,sans-Serif" font-size="10.00" fill="#000000">/TPCITSMatchingSpec.h</text>
</a>
</g>
</g>
<!-- Node9&#45;&gt;Node11 -->
<g id="edge10" class="edge">
<title>Node9&#45;&gt;Node11</title>
<path fill="none" stroke="#191970" d="M457.4167,-202.2711C488.1286,-190.0839 523.7149,-175.9623 554.8954,-163.5891"/>
<polygon fill="#191970" stroke="#191970" points="456.0561,-199.0455 448.0522,-205.9872 458.6381,-205.5519 456.0561,-199.0455"/>
</g>
<!-- Node12 -->
<g id="node10" class="node">
<title>Node12</title>
<g id="a_node10"><a xlink:href="../../d5/db4/MatchTPCITSWorkflow_8cxx.html" target="_top" xlink:title="/home/travis/build\l/AliceO2Group/AliceO2\l/Detectors/GlobalTrackingWorkflow\l/src/MatchTPCITSWorkflow.cxx">
<polygon fill="none" stroke="#000000" points="593,-6 593,-58 780,-58 780,-6 593,-6"/>
<text text-anchor="start" x="601" y="-46" font-family="Helvetica,sans-Serif" font-size="10.00" fill="#000000">/home/travis/build</text>
<text text-anchor="start" x="601" y="-35" font-family="Helvetica,sans-Serif" font-size="10.00" fill="#000000">/AliceO2Group/AliceO2</text>
<text text-anchor="start" x="601" y="-24" font-family="Helvetica,sans-Serif" font-size="10.00" fill="#000000">/Detectors/GlobalTrackingWorkflow</text>
<text text-anchor="middle" x="686.5" y="-13" font-family="Helvetica,sans-Serif" font-size="10.00" fill="#000000">/src/MatchTPCITSWorkflow.cxx</text>
</a>
</g>
</g>
<!-- Node11&#45;&gt;Node12 -->
<g id="edge11" class="edge">
<title>Node11&#45;&gt;Node12</title>
<path fill="none" stroke="#191970" d="M655.7313,-91.1707C661.5435,-79.9933 667.6849,-68.1829 672.9395,-58.078"/>
<polygon fill="#191970" stroke="#191970" points="652.4614,-89.8724 650.9531,-100.3594 658.672,-93.1019 652.4614,-89.8724"/>
</g>
<!-- Node11&#45;&gt;Node13 -->
<g id="edge12" class="edge">
<title>Node11&#45;&gt;Node13</title>
<path fill="none" stroke="#191970" d="M577.6346,-94.8331C558.9368,-82.6123 538.5605,-69.2944 521.3993,-58.078"/>
<polygon fill="#191970" stroke="#191970" points="575.8043,-97.818 586.0898,-100.3594 579.634,-91.9586 575.8043,-97.818"/>
</g>
<!-- Node16 -->
<g id="node14" class="node">
<title>Node16</title>
<g id="a_node14"><a xlink:href="../../d9/da6/CalibPadGainTracks_8cxx.html" target="_top" xlink:title="/home/travis/build\l/AliceO2Group/AliceO2\l/Detectors/TPC/calibration\l/src/CalibPadGainTracks.cxx">
<polygon fill="none" stroke="#000000" points="1893.5,-106 1893.5,-158 2045.5,-158 2045.5,-106 1893.5,-106"/>
<text text-anchor="start" x="1901.5" y="-146" font-family="Helvetica,sans-Serif" font-size="10.00" fill="#000000">/home/travis/build</text>
<text text-anchor="start" x="1901.5" y="-135" font-family="Helvetica,sans-Serif" font-size="10.00" fill="#000000">/AliceO2Group/AliceO2</text>
<text text-anchor="start" x="1901.5" y="-124" font-family="Helvetica,sans-Serif" font-size="10.00" fill="#000000">/Detectors/TPC/calibration</text>
<text text-anchor="middle" x="1969.5" y="-113" font-family="Helvetica,sans-Serif" font-size="10.00" fill="#000000">/src/CalibPadGainTracks.cxx</text>
</a>
</g>
</g>
<!-- Node15&#45;&gt;Node16 -->
<g id="edge16" class="edge">
<title>Node15&#45;&gt;Node16</title>
<path fill="none" stroke="#191970" d="M1752.8406,-199.6617C1811.4245,-182.3545 1828.5518,-181.6763 1883.5,-164 1889.2628,-162.1462 1895.2097,-160.1376 1901.159,-158.0611"/>
<polygon fill="#191970" stroke="#191970" points="1751.6459,-196.3658 1743.0702,-202.5873 1753.654,-203.0716 1751.6459,-196.3658"/>
</g>
<!-- Node18 -->
<g id="node16" class="node">
<title>Node18</title>
<g id="a_node16"><a xlink:href="../../dc/d50/TPCInterpolationSpec_8h.html" target="_top" xlink:title="/home/travis/build\l/AliceO2Group/AliceO2\l/Detectors/GlobalTrackingWorkflow\l/tpcinterpolationworkflow/include\l/TPCInterpolationWorkflow/TPCInterpolationSpec.h">
<polygon fill="none" stroke="#000000" points="948.5,-100.5 948.5,-163.5 1210.5,-163.5 1210.5,-100.5 948.5,-100.5"/>
<text text-anchor="start" x="956.5" y="-151.5" font-family="Helvetica,sans-Serif" font-size="10.00" fill="#000000">/home/travis/build</text>
<text text-anchor="start" x="956.5" y="-140.5" font-family="Helvetica,sans-Serif" font-size="10.00" fill="#000000">/AliceO2Group/AliceO2</text>
<text text-anchor="start" x="956.5" y="-129.5" font-family="Helvetica,sans-Serif" font-size="10.00" fill="#000000">/Detectors/GlobalTrackingWorkflow</text>
<text text-anchor="start" x="956.5" y="-118.5" font-family="Helvetica,sans-Serif" font-size="10.00" fill="#000000">/tpcinterpolationworkflow/include</text>
<text text-anchor="middle" x="1079.5" y="-107.5" font-family="Helvetica,sans-Serif" font-size="10.00" fill="#000000">/TPCInterpolationWorkflow/TPCInterpolationSpec.h</text>
</a>
</g>
</g>
<!-- Node17&#45;&gt;Node18 -->
<g id="edge18" class="edge">
<title>Node17&#45;&gt;Node18</title>
<path fill="none" stroke="#191970" d="M1321.9126,-202.8809C1279.6931,-190.536 1230.3938,-176.121 1187.3185,-163.5259"/>
<polygon fill="#191970" stroke="#191970" points="1321.0631,-206.279 1331.6435,-205.7262 1323.0277,-199.5603 1321.0631,-206.279"/>
</g>
<!-- Node20 -->
<g id="node18" class="node">
<title>Node20</title>
<g id="a_node18"><a xlink:href="../../d2/d27/TPCResidualWriterSpec_8cxx.html" target="_top" xlink:title="/home/travis/build\l/AliceO2Group/AliceO2\l/Detectors/GlobalTrackingWorkflow\l/tpcinterpolationworkflow/src\l/TPCResidualWriterSpec.cxx">
<polygon fill="none" stroke="#000000" points="1266,-100.5 1266,-163.5 1453,-163.5 1453,-100.5 1266,-100.5"/>
<text text-anchor="start" x="1274" y="-151.5" font-family="Helvetica,sans-Serif" font-size="10.00" fill="#000000">/home/travis/build</text>
<text text-anchor="start" x="1274" y="-140.5" font-family="Helvetica,sans-Serif" font-size="10.00" fill="#000000">/AliceO2Group/AliceO2</text>
<text text-anchor="start" x="1274" y="-129.5" font-family="Helvetica,sans-Serif" font-size="10.00" fill="#000000">/Detectors/GlobalTrackingWorkflow</text>
<text text-anchor="start" x="1274" y="-118.5" font-family="Helvetica,sans-Serif" font-size="10.00" fill="#000000">/tpcinterpolationworkflow/src</text>
<text text-anchor="middle" x="1359.5" y="-107.5" font-family="Helvetica,sans-Serif" font-size="10.00" fill="#000000">/TPCResidualWriterSpec.cxx</text>
</a>
</g>
</g>
<!-- Node17&#45;&gt;Node20 -->
<g id="edge21" class="edge">
<title>Node17&#45;&gt;Node20</title>
<path fill="none" stroke="#191970" d="M1396.4826,-191.6493C1390.7304,-182.3716 1384.6925,-172.6331 1379.2024,-163.778"/>
<polygon fill="#191970" stroke="#191970" points="1393.6387,-193.7046 1401.8828,-200.3594 1399.588,-190.016 1393.6387,-193.7046"/>
</g>
<!-- Node21 -->
<g id="node19" class="node">
<title>Node21</title>
<g id="a_node19"><a xlink:href="../../da/ddb/TrackResiduals_8h.html" target="_top" xlink:title="Definition of the TrackResiduals class. ">
<polygon fill="none" stroke="#000000" points="1471,-100.5 1471,-163.5 1650,-163.5 1650,-100.5 1471,-100.5"/>
<text text-anchor="start" x="1479" y="-151.5" font-family="Helvetica,sans-Serif" font-size="10.00" fill="#000000">/home/travis/build</text>
<text text-anchor="start" x="1479" y="-140.5" font-family="Helvetica,sans-Serif" font-size="10.00" fill="#000000">/AliceO2Group/AliceO2</text>
<text text-anchor="start" x="1479" y="-129.5" font-family="Helvetica,sans-Serif" font-size="10.00" fill="#000000">/Detectors/TPC/calibration</text>
<text text-anchor="start" x="1479" y="-118.5" font-family="Helvetica,sans-Serif" font-size="10.00" fill="#000000">/SpacePoints/include/SpacePoints</text>
<text text-anchor="middle" x="1560.5" y="-107.5" font-family="Helvetica,sans-Serif" font-size="10.00" fill="#000000">/TrackResiduals.h</text>
</a>
</g>
</g>
<!-- Node17&#45;&gt;Node21 -->
<g id="edge22" class="edge">
<title>Node17&#45;&gt;Node21</title>
<path fill="none" stroke="#191970" d="M1473.6215,-194.5025C1487.6794,-184.3889 1502.751,-173.546 1516.3285,-163.778"/>
<polygon fill="#191970" stroke="#191970" points="1471.554,-191.6782 1465.4805,-200.3594 1475.642,-197.3605 1471.554,-191.6782"/>
</g>
<!-- Node17&#45;&gt;Node23 -->
<g id="edge24" class="edge">
<title>Node17&#45;&gt;Node23</title>
<path fill="none" stroke="#191970" d="M1521.0452,-201.2936C1522.5398,-200.8577 1524.0255,-200.4263 1525.5,-200 1584.3293,-182.9929 1599.4828,-180.3431 1658.5,-164 1665.4757,-162.0683 1672.6898,-160.0569 1679.9419,-158.0252"/>
<polygon fill="#191970" stroke="#191970" points="1519.6797,-198.0469 1511.0736,-204.2264 1521.6549,-204.7624 1519.6797,-198.0469"/>
</g>
<!-- Node18&#45;&gt;Node14 -->
<g id="edge19" class="edge">
<title>Node18&#45;&gt;Node14</title>
<path fill="none" stroke="#191970" d="M1144.0453,-95.3265C1162.3594,-84.9208 1182.1356,-73.6843 1199.8729,-63.6063"/>
<polygon fill="#191970" stroke="#191970" points="1142.153,-92.3761 1135.1875,-100.3594 1145.6111,-98.4623 1142.153,-92.3761"/>
</g>
<!-- Node19 -->
<g id="node17" class="node">
<title>Node19</title>
<g id="a_node17"><a xlink:href="../../d1/d67/TrackInterpolationWorkflow_8cxx.html" target="_top" xlink:title="/home/travis/build\l/AliceO2Group/AliceO2\l/Detectors/GlobalTrackingWorkflow\l/tpcinterpolationworkflow/src\l/TrackInterpolationWorkflow.cxx">
<polygon fill="none" stroke="#000000" points="957,-.5 957,-63.5 1144,-63.5 1144,-.5 957,-.5"/>
<text text-anchor="start" x="965" y="-51.5" font-family="Helvetica,sans-Serif" font-size="10.00" fill="#000000">/home/travis/build</text>
<text text-anchor="start" x="965" y="-40.5" font-family="Helvetica,sans-Serif" font-size="10.00" fill="#000000">/AliceO2Group/AliceO2</text>
<text text-anchor="start" x="965" y="-29.5" font-family="Helvetica,sans-Serif" font-size="10.00" fill="#000000">/Detectors/GlobalTrackingWorkflow</text>
<text text-anchor="start" x="965" y="-18.5" font-family="Helvetica,sans-Serif" font-size="10.00" fill="#000000">/tpcinterpolationworkflow/src</text>
<text text-anchor="middle" x="1050.5" y="-7.5" font-family="Helvetica,sans-Serif" font-size="10.00" fill="#000000">/TrackInterpolationWorkflow.cxx</text>
</a>
</g>
</g>
<!-- Node18&#45;&gt;Node19 -->
<g id="edge20" class="edge">
<title>Node18&#45;&gt;Node19</title>
<path fill="none" stroke="#191970" d="M1067.4648,-90.4993C1064.8753,-81.5699 1062.1777,-72.268 1059.7156,-63.778"/>
<polygon fill="#191970" stroke="#191970" points="1064.1774,-91.7299 1070.3242,-100.3594 1070.9004,-89.7802 1064.1774,-91.7299"/>
</g>
<!-- Node22 -->
<g id="node20" class="node">
<title>Node22</title>
<g id="a_node20"><a xlink:href="../../d9/df0/TrackResiduals_8cxx.html" target="_top" xlink:title="Implementation of the TrackResiduals class. ">
<polygon fill="none" stroke="#000000" points="1465,-6 1465,-58 1656,-58 1656,-6 1465,-6"/>
<text text-anchor="start" x="1473" y="-46" font-family="Helvetica,sans-Serif" font-size="10.00" fill="#000000">/home/travis/build</text>
<text text-anchor="start" x="1473" y="-35" font-family="Helvetica,sans-Serif" font-size="10.00" fill="#000000">/AliceO2Group/AliceO2</text>
<text text-anchor="start" x="1473" y="-24" font-family="Helvetica,sans-Serif" font-size="10.00" fill="#000000">/Detectors/TPC/calibration</text>
<text text-anchor="middle" x="1560.5" y="-13" font-family="Helvetica,sans-Serif" font-size="10.00" fill="#000000">/SpacePoints/src/TrackResiduals.cxx</text>
</a>
</g>
</g>
<!-- Node21&#45;&gt;Node22 -->
<g id="edge23" class="edge">
<title>Node21&#45;&gt;Node22</title>
<path fill="none" stroke="#191970" d="M1560.5,-90.1631C1560.5,-79.2863 1560.5,-67.8798 1560.5,-58.078"/>
<polygon fill="#191970" stroke="#191970" points="1557.0001,-90.3593 1560.5,-100.3594 1564.0001,-90.3594 1557.0001,-90.3593"/>
</g>
<!-- Node28 -->
<g id="node26" class="node">
<title>Node28</title>
<g id="a_node26"><a xlink:href="../../d4/d2e/GPUCATracking_8cxx.html" target="_top" xlink:title="/home/travis/build\l/AliceO2Group/AliceO2\l/Detectors/TPC/reconstruction\l/src/GPUCATracking.cxx">
<polygon fill="none" stroke="#000000" points="2218,-106 2218,-158 2379,-158 2379,-106 2218,-106"/>
<text text-anchor="start" x="2226" y="-146" font-family="Helvetica,sans-Serif" font-size="10.00" fill="#000000">/home/travis/build</text>
<text text-anchor="start" x="2226" y="-135" font-family="Helvetica,sans-Serif" font-size="10.00" fill="#000000">/AliceO2Group/AliceO2</text>
<text text-anchor="start" x="2226" y="-124" font-family="Helvetica,sans-Serif" font-size="10.00" fill="#000000">/Detectors/TPC/reconstruction</text>
<text text-anchor="middle" x="2298.5" y="-113" font-family="Helvetica,sans-Serif" font-size="10.00" fill="#000000">/src/GPUCATracking.cxx</text>
</a>
</g>
</g>
<!-- Node27&#45;&gt;Node28 -->
<g id="edge30" class="edge">
<title>Node27&#45;&gt;Node28</title>
<path fill="none" stroke="#191970" d="M2193.0176,-195.1631C2213.5765,-182.8524 2236.0495,-169.3955 2254.9498,-158.078"/>
<polygon fill="#191970" stroke="#191970" points="2191.1212,-192.2191 2184.3398,-200.3594 2194.7174,-198.2247 2191.1212,-192.2191"/>
</g>
<!-- Node27&#45;&gt;Node29 -->
<g id="edge31" class="edge">
<title>Node27&#45;&gt;Node29</title>
<path fill="none" stroke="#191970" d="M2222.0696,-201.2536C2223.5555,-200.827 2225.0331,-200.4088 2226.5,-200 2297.549,-180.1999 2317.6552,-184.5186 2388.5,-164 2394.6509,-162.2185 2400.9933,-160.2372 2407.3261,-158.1582"/>
<polygon fill="#191970" stroke="#191970" points="2220.7679,-197.9885 2212.1688,-204.1777 2222.7507,-204.7018 2220.7679,-197.9885"/>
</g>
<!-- Node30 -->
<g id="node28" class="node">
<title>Node30</title>
<g id="a_node28"><a xlink:href="../../da/d78/CATrackerSpec_8cxx.html" target="_top" xlink:title="Processor spec for running TPC CA tracking. ">
<polygon fill="none" stroke="#000000" points="2063.5,-106 2063.5,-158 2199.5,-158 2199.5,-106 2063.5,-106"/>
<text text-anchor="start" x="2071.5" y="-146" font-family="Helvetica,sans-Serif" font-size="10.00" fill="#000000">/home/travis/build</text>
<text text-anchor="start" x="2071.5" y="-135" font-family="Helvetica,sans-Serif" font-size="10.00" fill="#000000">/AliceO2Group/AliceO2</text>
<text text-anchor="start" x="2071.5" y="-124" font-family="Helvetica,sans-Serif" font-size="10.00" fill="#000000">/Detectors/TPC/workflow</text>
<text text-anchor="middle" x="2131.5" y="-113" font-family="Helvetica,sans-Serif" font-size="10.00" fill="#000000">/src/CATrackerSpec.cxx</text>
</a>
</g>
</g>
<!-- Node27&#45;&gt;Node30 -->
<g id="edge32" class="edge">
<title>Node27&#45;&gt;Node30</title>
<path fill="none" stroke="#191970" d="M2131.5,-190.1631C2131.5,-179.2863 2131.5,-167.8798 2131.5,-158.078"/>
<polygon fill="#191970" stroke="#191970" points="2128.0001,-190.3593 2131.5,-200.3594 2135.0001,-190.3594 2128.0001,-190.3593"/>
</g>
<!-- Node31&#45;&gt;Node12 -->
<g id="edge35" class="edge">
<title>Node31&#45;&gt;Node12</title>
<path fill="none" stroke="#191970" d="M782.0063,-94.8331C763.4307,-82.6123 743.1876,-69.2944 726.1385,-58.078"/>
<polygon fill="#191970" stroke="#191970" points="780.1284,-97.7871 790.4063,-100.3594 783.9757,-91.9392 780.1284,-97.7871"/>
</g>
<!-- Node31&#45;&gt;Node19 -->
<g id="edge36" class="edge">
<title>Node31&#45;&gt;Node19</title>
<path fill="none" stroke="#191970" d="M914.507,-96.1476C937.1155,-85.4833 961.7076,-73.8832 983.6845,-63.5168"/>
<polygon fill="#191970" stroke="#191970" points="912.8383,-93.0649 905.2871,-100.4966 915.8246,-99.3959 912.8383,-93.0649"/>
</g>
<!-- Node32 -->
<g id="node30" class="node">
<title>Node32</title>
<g id="a_node30"><a xlink:href="../../d4/d3e/TPC_2workflow_2src_2TrackReaderSpec_8cxx.html" target="_top" xlink:title="/home/travis/build\l/AliceO2Group/AliceO2\l/Detectors/TPC/workflow\l/src/TrackReaderSpec.cxx">
<polygon fill="none" stroke="#000000" points="798.5,-6 798.5,-58 938.5,-58 938.5,-6 798.5,-6"/>
<text text-anchor="start" x="806.5" y="-46" font-family="Helvetica,sans-Serif" font-size="10.00" fill="#000000">/home/travis/build</text>
<text text-anchor="start" x="806.5" y="-35" font-family="Helvetica,sans-Serif" font-size="10.00" fill="#000000">/AliceO2Group/AliceO2</text>
<text text-anchor="start" x="806.5" y="-24" font-family="Helvetica,sans-Serif" font-size="10.00" fill="#000000">/Detectors/TPC/workflow</text>
<text text-anchor="middle" x="868.5" y="-13" font-family="Helvetica,sans-Serif" font-size="10.00" fill="#000000">/src/TrackReaderSpec.cxx</text>
</a>
</g>
</g>
<!-- Node31&#45;&gt;Node32 -->
<g id="edge37" class="edge">
<title>Node31&#45;&gt;Node32</title>
<path fill="none" stroke="#191970" d="M850.9502,-90.4993C854.2435,-79.5216 857.7058,-67.9808 860.6766,-58.078"/>
<polygon fill="#191970" stroke="#191970" points="847.5133,-89.7754 847.9922,-100.3594 854.2181,-91.7868 847.5133,-89.7754"/>
</g>
</g>
</svg>
