<?xml version="1.0" encoding="UTF-8" standalone="no"?>
<!DOCTYPE svg PUBLIC "-//W3C//DTD SVG 1.1//EN"
 "http://www.w3.org/Graphics/SVG/1.1/DTD/svg11.dtd">
<!-- Generated by graphviz version 2.40.1 (20161225.0304)
 -->
<!-- Title: /home/travis/build/AliceO2Group/AliceO2/DataFormats/Detectors/TPC/include/DataFormatsTPC/Helpers.h Pages: 1 -->
<svg width="1184pt" height="361pt"
 viewBox="0.00 0.00 1183.50 361.00" xmlns="http://www.w3.org/2000/svg" xmlns:xlink="http://www.w3.org/1999/xlink">
<g id="graph0" class="graph" transform="scale(1 1) rotate(0) translate(4 357)">
<title>/home/travis/build/AliceO2Group/AliceO2/DataFormats/Detectors/TPC/include/DataFormatsTPC/Helpers.h</title>
<!-- Node5 -->
<g id="node1" class="node">
<title>Node5</title>
<polygon fill="#bfbfbf" stroke="#000000" points="425,-289.5 425,-352.5 586,-352.5 586,-289.5 425,-289.5"/>
<text text-anchor="start" x="433" y="-340.5" font-family="Helvetica,sans-Serif" font-size="10.00" fill="#000000">/home/travis/build</text>
<text text-anchor="start" x="433" y="-329.5" font-family="Helvetica,sans-Serif" font-size="10.00" fill="#000000">/AliceO2Group/AliceO2</text>
<text text-anchor="start" x="433" y="-318.5" font-family="Helvetica,sans-Serif" font-size="10.00" fill="#000000">/DataFormats/Detectors</text>
<text text-anchor="start" x="433" y="-307.5" font-family="Helvetica,sans-Serif" font-size="10.00" fill="#000000">/TPC/include/DataFormatsTPC</text>
<text text-anchor="middle" x="505.5" y="-296.5" font-family="Helvetica,sans-Serif" font-size="10.00" fill="#000000">/Helpers.h</text>
</g>
<!-- Node6 -->
<g id="node2" class="node">
<title>Node6</title>
<g id="a_node2"><a xlink:href="../../d4/d67/DataFormats_2Detectors_2TPC_2src_2Helpers_8cxx.html" target="_top" xlink:title="/home/travis/build\l/AliceO2Group/AliceO2\l/DataFormats/Detectors\l/TPC/src/Helpers.cxx">
<polygon fill="none" stroke="#000000" points="72,-195 72,-247 205,-247 205,-195 72,-195"/>
<text text-anchor="start" x="80" y="-235" font-family="Helvetica,sans-Serif" font-size="10.00" fill="#000000">/home/travis/build</text>
<text text-anchor="start" x="80" y="-224" font-family="Helvetica,sans-Serif" font-size="10.00" fill="#000000">/AliceO2Group/AliceO2</text>
<text text-anchor="start" x="80" y="-213" font-family="Helvetica,sans-Serif" font-size="10.00" fill="#000000">/DataFormats/Detectors</text>
<text text-anchor="middle" x="138.5" y="-202" font-family="Helvetica,sans-Serif" font-size="10.00" fill="#000000">/TPC/src/Helpers.cxx</text>
</a>
</g>
</g>
<!-- Node5&#45;&gt;Node6 -->
<g id="edge1" class="edge">
<title>Node5&#45;&gt;Node6</title>
<path fill="none" stroke="#191970" d="M414.8266,-302.9096C358.1366,-290.7479 283.9119,-273.2667 219.5,-253 213.7308,-251.1848 207.7869,-249.1555 201.8638,-247.0235"/>
<polygon fill="#191970" stroke="#191970" points="414.3327,-306.3828 424.8423,-305.0421 415.7905,-299.5363 414.3327,-306.3828"/>
</g>
<!-- Node7 -->
<g id="node3" class="node">
<title>Node7</title>
<g id="a_node3"><a xlink:href="../../de/d64/TPC_2reconstruction_2include_2TPCReconstruction_2ClustererTask_8h.html" target="_top" xlink:title="/home/travis/build\l/AliceO2Group/AliceO2\l/Detectors/TPC/reconstruction\l/include/TPCReconstruction\l/ClustererTask.h">
<polygon fill="none" stroke="#000000" points="0,-89.5 0,-152.5 161,-152.5 161,-89.5 0,-89.5"/>
<text text-anchor="start" x="8" y="-140.5" font-family="Helvetica,sans-Serif" font-size="10.00" fill="#000000">/home/travis/build</text>
<text text-anchor="start" x="8" y="-129.5" font-family="Helvetica,sans-Serif" font-size="10.00" fill="#000000">/AliceO2Group/AliceO2</text>
<text text-anchor="start" x="8" y="-118.5" font-family="Helvetica,sans-Serif" font-size="10.00" fill="#000000">/Detectors/TPC/reconstruction</text>
<text text-anchor="start" x="8" y="-107.5" font-family="Helvetica,sans-Serif" font-size="10.00" fill="#000000">/include/TPCReconstruction</text>
<text text-anchor="middle" x="80.5" y="-96.5" font-family="Helvetica,sans-Serif" font-size="10.00" fill="#000000">/ClustererTask.h</text>
</a>
</g>
</g>
<!-- Node5&#45;&gt;Node7 -->
<g id="edge2" class="edge">
<title>Node5&#45;&gt;Node7</title>
<path fill="none" stroke="#191970" d="M414.5449,-303.9707C352.9538,-291.0662 278.2731,-272.3113 252.5,-253 225.8431,-233.0265 237.916,-211.6581 213.5,-189 198.0076,-174.623 178.8995,-162.5082 160.0483,-152.6722"/>
<polygon fill="#191970" stroke="#191970" points="414.1972,-307.4728 424.6989,-306.0706 415.6149,-300.6178 414.1972,-307.4728"/>
</g>
<!-- Node9 -->
<g id="node5" class="node">
<title>Node9</title>
<g id="a_node5"><a xlink:href="../../de/df6/HwClusterer_8h.html" target="_top" xlink:title="Class for TPC HW cluster finding. ">
<polygon fill="none" stroke="#000000" points="262,-189.5 262,-252.5 423,-252.5 423,-189.5 262,-189.5"/>
<text text-anchor="start" x="270" y="-240.5" font-family="Helvetica,sans-Serif" font-size="10.00" fill="#000000">/home/travis/build</text>
<text text-anchor="start" x="270" y="-229.5" font-family="Helvetica,sans-Serif" font-size="10.00" fill="#000000">/AliceO2Group/AliceO2</text>
<text text-anchor="start" x="270" y="-218.5" font-family="Helvetica,sans-Serif" font-size="10.00" fill="#000000">/Detectors/TPC/reconstruction</text>
<text text-anchor="start" x="270" y="-207.5" font-family="Helvetica,sans-Serif" font-size="10.00" fill="#000000">/include/TPCReconstruction</text>
<text text-anchor="middle" x="342.5" y="-196.5" font-family="Helvetica,sans-Serif" font-size="10.00" fill="#000000">/HwClusterer.h</text>
</a>
</g>
</g>
<!-- Node5&#45;&gt;Node9 -->
<g id="edge4" class="edge">
<title>Node5&#45;&gt;Node9</title>
<path fill="none" stroke="#191970" d="M445.2593,-284.0425C428.428,-273.7166 410.2961,-262.5927 394.0183,-252.6063"/>
<polygon fill="#191970" stroke="#191970" points="443.5717,-287.1133 453.9258,-289.3594 447.2323,-281.1467 443.5717,-287.1133"/>
</g>
<!-- Node11 -->
<g id="node7" class="node">
<title>Node11</title>
<g id="a_node7"><a xlink:href="../../df/d47/testTPCHwClusterer_8cxx.html" target="_top" xlink:title="This task tests the TPC HwClusterer. ">
<polygon fill="none" stroke="#000000" points="513,-95 513,-147 674,-147 674,-95 513,-95"/>
<text text-anchor="start" x="521" y="-135" font-family="Helvetica,sans-Serif" font-size="10.00" fill="#000000">/home/travis/build</text>
<text text-anchor="start" x="521" y="-124" font-family="Helvetica,sans-Serif" font-size="10.00" fill="#000000">/AliceO2Group/AliceO2</text>
<text text-anchor="start" x="521" y="-113" font-family="Helvetica,sans-Serif" font-size="10.00" fill="#000000">/Detectors/TPC/reconstruction</text>
<text text-anchor="middle" x="593.5" y="-102" font-family="Helvetica,sans-Serif" font-size="10.00" fill="#000000">/test/testTPCHwClusterer.cxx</text>
</a>
</g>
</g>
<!-- Node5&#45;&gt;Node11 -->
<g id="edge10" class="edge">
<title>Node5&#45;&gt;Node11</title>
<path fill="none" stroke="#191970" d="M479.7828,-280.3452C466.0437,-253.0333 455.0228,-217.0478 471.5,-189 482.1244,-170.9149 499.4978,-157.2879 517.8463,-147.1709"/>
<polygon fill="#191970" stroke="#191970" points="476.7302,-282.0596 484.5106,-289.2511 482.913,-278.7773 476.7302,-282.0596"/>
</g>
<!-- Node13 -->
<g id="node9" class="node">
<title>Node13</title>
<g id="a_node9"><a xlink:href="../../d1/df6/testGPUCATracking_8cxx.html" target="_top" xlink:title="This task tests the TPC CA Tracking library. ">
<polygon fill="none" stroke="#000000" points="480,-195 480,-247 641,-247 641,-195 480,-195"/>
<text text-anchor="start" x="488" y="-235" font-family="Helvetica,sans-Serif" font-size="10.00" fill="#000000">/home/travis/build</text>
<text text-anchor="start" x="488" y="-224" font-family="Helvetica,sans-Serif" font-size="10.00" fill="#000000">/AliceO2Group/AliceO2</text>
<text text-anchor="start" x="488" y="-213" font-family="Helvetica,sans-Serif" font-size="10.00" fill="#000000">/Detectors/TPC/reconstruction</text>
<text text-anchor="middle" x="560.5" y="-202" font-family="Helvetica,sans-Serif" font-size="10.00" fill="#000000">/test/testGPUCATracking.cxx</text>
</a>
</g>
</g>
<!-- Node5&#45;&gt;Node13 -->
<g id="edge9" class="edge">
<title>Node5&#45;&gt;Node13</title>
<path fill="none" stroke="#191970" d="M527.7718,-280.5058C533.9737,-269.2297 540.5438,-257.284 546.1571,-247.078"/>
<polygon fill="#191970" stroke="#191970" points="524.6548,-278.9105 522.9023,-289.3594 530.7883,-282.2839 524.6548,-278.9105"/>
</g>
<!-- Node14 -->
<g id="node10" class="node">
<title>Node14</title>
<g id="a_node10"><a xlink:href="../../df/d6c/convertDigitsToRawZS_8cxx.html" target="_top" xlink:title="/home/travis/build\l/AliceO2Group/AliceO2\l/Detectors/TPC/simulation\l/run/convertDigitsToRawZS.cxx">
<polygon fill="none" stroke="#000000" points="659.5,-195 659.5,-247 827.5,-247 827.5,-195 659.5,-195"/>
<text text-anchor="start" x="667.5" y="-235" font-family="Helvetica,sans-Serif" font-size="10.00" fill="#000000">/home/travis/build</text>
<text text-anchor="start" x="667.5" y="-224" font-family="Helvetica,sans-Serif" font-size="10.00" fill="#000000">/AliceO2Group/AliceO2</text>
<text text-anchor="start" x="667.5" y="-213" font-family="Helvetica,sans-Serif" font-size="10.00" fill="#000000">/Detectors/TPC/simulation</text>
<text text-anchor="middle" x="743.5" y="-202" font-family="Helvetica,sans-Serif" font-size="10.00" fill="#000000">/run/convertDigitsToRawZS.cxx</text>
</a>
</g>
</g>
<!-- Node5&#45;&gt;Node14 -->
<g id="edge11" class="edge">
<title>Node5&#45;&gt;Node14</title>
<path fill="none" stroke="#191970" d="M589.7228,-285.6123C619.8806,-272.9409 653.3053,-258.8969 681.2683,-247.1478"/>
<polygon fill="#191970" stroke="#191970" points="588.3415,-282.3962 580.478,-289.4966 591.0531,-288.8497 588.3415,-282.3962"/>
</g>
<!-- Node15 -->
<g id="node11" class="node">
<title>Node15</title>
<g id="a_node11"><a xlink:href="../../da/d78/CATrackerSpec_8cxx.html" target="_top" xlink:title="Processor spec for running TPC CA tracking. ">
<polygon fill="none" stroke="#000000" points="845.5,-195 845.5,-247 981.5,-247 981.5,-195 845.5,-195"/>
<text text-anchor="start" x="853.5" y="-235" font-family="Helvetica,sans-Serif" font-size="10.00" fill="#000000">/home/travis/build</text>
<text text-anchor="start" x="853.5" y="-224" font-family="Helvetica,sans-Serif" font-size="10.00" fill="#000000">/AliceO2Group/AliceO2</text>
<text text-anchor="start" x="853.5" y="-213" font-family="Helvetica,sans-Serif" font-size="10.00" fill="#000000">/Detectors/TPC/workflow</text>
<text text-anchor="middle" x="913.5" y="-202" font-family="Helvetica,sans-Serif" font-size="10.00" fill="#000000">/src/CATrackerSpec.cxx</text>
</a>
</g>
</g>
<!-- Node5&#45;&gt;Node15 -->
<g id="edge12" class="edge">
<title>Node5&#45;&gt;Node15</title>
<path fill="none" stroke="#191970" d="M596.301,-307.1665C663.4778,-295.7747 756.7604,-277.513 836.5,-253 842.1733,-251.2559 848.0045,-249.2497 853.7974,-247.1101"/>
<polygon fill="#191970" stroke="#191970" points="595.4504,-303.7602 586.1672,-308.8665 596.6085,-310.6638 595.4504,-303.7602"/>
</g>
<!-- Node16 -->
<g id="node12" class="node">
<title>Node16</title>
<g id="a_node12"><a xlink:href="../../d9/d7b/ClusterDecoderRawSpec_8cxx.html" target="_top" xlink:title="Processor spec for decoder of TPC raw cluster data. ">
<polygon fill="none" stroke="#000000" points="999.5,-195 999.5,-247 1175.5,-247 1175.5,-195 999.5,-195"/>
<text text-anchor="start" x="1007.5" y="-235" font-family="Helvetica,sans-Serif" font-size="10.00" fill="#000000">/home/travis/build</text>
<text text-anchor="start" x="1007.5" y="-224" font-family="Helvetica,sans-Serif" font-size="10.00" fill="#000000">/AliceO2Group/AliceO2</text>
<text text-anchor="start" x="1007.5" y="-213" font-family="Helvetica,sans-Serif" font-size="10.00" fill="#000000">/Detectors/TPC/workflow</text>
<text text-anchor="middle" x="1087.5" y="-202" font-family="Helvetica,sans-Serif" font-size="10.00" fill="#000000">/src/ClusterDecoderRawSpec.cxx</text>
</a>
</g>
</g>
<!-- Node5&#45;&gt;Node16 -->
<g id="edge13" class="edge">
<title>Node5&#45;&gt;Node16</title>
<path fill="none" stroke="#191970" d="M596.3034,-313.1771C694.4241,-303.5879 854.9416,-284.5938 990.5,-253 997.9262,-251.2692 1005.5943,-249.2171 1013.2136,-247.0003"/>
<polygon fill="#191970" stroke="#191970" points="595.7418,-309.7149 586.1245,-314.1599 596.4146,-316.6825 595.7418,-309.7149"/>
</g>
<!-- Node8 -->
<g id="node4" class="node">
<title>Node8</title>
<g id="a_node4"><a xlink:href="../../d8/d0f/TPC_2reconstruction_2src_2ClustererTask_8cxx.html" target="_top" xlink:title="/home/travis/build\l/AliceO2Group/AliceO2\l/Detectors/TPC/reconstruction\l/src/ClustererTask.cxx">
<polygon fill="none" stroke="#000000" points="0,-.5 0,-52.5 161,-52.5 161,-.5 0,-.5"/>
<text text-anchor="start" x="8" y="-40.5" font-family="Helvetica,sans-Serif" font-size="10.00" fill="#000000">/home/travis/build</text>
<text text-anchor="start" x="8" y="-29.5" font-family="Helvetica,sans-Serif" font-size="10.00" fill="#000000">/AliceO2Group/AliceO2</text>
<text text-anchor="start" x="8" y="-18.5" font-family="Helvetica,sans-Serif" font-size="10.00" fill="#000000">/Detectors/TPC/reconstruction</text>
<text text-anchor="middle" x="80.5" y="-7.5" font-family="Helvetica,sans-Serif" font-size="10.00" fill="#000000">/src/ClustererTask.cxx</text>
</a>
</g>
</g>
<!-- Node7&#45;&gt;Node8 -->
<g id="edge3" class="edge">
<title>Node7&#45;&gt;Node8</title>
<path fill="none" stroke="#191970" d="M80.5,-79.2457C80.5,-70.2008 80.5,-60.8836 80.5,-52.6442"/>
<polygon fill="#191970" stroke="#191970" points="77.0001,-79.2699 80.5,-89.27 84.0001,-79.27 77.0001,-79.2699"/>
</g>
<!-- Node9&#45;&gt;Node7 -->
<g id="edge5" class="edge">
<title>Node9&#45;&gt;Node7</title>
<path fill="none" stroke="#191970" d="M252.2899,-186.5687C222.7832,-175.3066 190.2096,-162.8739 161.4309,-151.8896"/>
<polygon fill="#191970" stroke="#191970" points="251.1628,-189.8847 261.7535,-190.1807 253.659,-183.3449 251.1628,-189.8847"/>
</g>
<!-- Node10 -->
<g id="node6" class="node">
<title>Node10</title>
<g id="a_node6"><a xlink:href="../../d4/d6c/HwClusterer_8cxx.html" target="_top" xlink:title="Hwclusterer for the TPC. ">
<polygon fill="none" stroke="#000000" points="179,-95 179,-147 340,-147 340,-95 179,-95"/>
<text text-anchor="start" x="187" y="-135" font-family="Helvetica,sans-Serif" font-size="10.00" fill="#000000">/home/travis/build</text>
<text text-anchor="start" x="187" y="-124" font-family="Helvetica,sans-Serif" font-size="10.00" fill="#000000">/AliceO2Group/AliceO2</text>
<text text-anchor="start" x="187" y="-113" font-family="Helvetica,sans-Serif" font-size="10.00" fill="#000000">/Detectors/TPC/reconstruction</text>
<text text-anchor="middle" x="259.5" y="-102" font-family="Helvetica,sans-Serif" font-size="10.00" fill="#000000">/src/HwClusterer.cxx</text>
</a>
</g>
</g>
<!-- Node9&#45;&gt;Node10 -->
<g id="edge6" class="edge">
<title>Node9&#45;&gt;Node10</title>
<path fill="none" stroke="#191970" d="M309.7223,-181.5088C300.121,-169.9409 289.8673,-157.5871 281.1447,-147.078"/>
<polygon fill="#191970" stroke="#191970" points="307.1584,-183.8999 316.2383,-189.3594 312.5447,-179.4292 307.1584,-183.8999"/>
</g>
<!-- Node9&#45;&gt;Node11 -->
<g id="edge7" class="edge">
<title>Node9&#45;&gt;Node11</title>
<path fill="none" stroke="#191970" d="M430.9121,-185.7761C462.8243,-173.062 498.2516,-158.9476 527.869,-147.1478"/>
<polygon fill="#191970" stroke="#191970" points="429.5679,-182.544 421.5735,-189.4966 432.1587,-189.0469 429.5679,-182.544"/>
</g>
<!-- Node12 -->
<g id="node8" class="node">
<title>Node12</title>
<g id="a_node8"><a xlink:href="../../d5/d17/TPC_2workflow_2src_2ClustererSpec_8cxx.html" target="_top" xlink:title="/home/travis/build\l/AliceO2Group/AliceO2\l/Detectors/TPC/workflow\l/src/ClustererSpec.cxx">
<polygon fill="none" stroke="#000000" points="358.5,-95 358.5,-147 494.5,-147 494.5,-95 358.5,-95"/>
<text text-anchor="start" x="366.5" y="-135" font-family="Helvetica,sans-Serif" font-size="10.00" fill="#000000">/home/travis/build</text>
<text text-anchor="start" x="366.5" y="-124" font-family="Helvetica,sans-Serif" font-size="10.00" fill="#000000">/AliceO2Group/AliceO2</text>
<text text-anchor="start" x="366.5" y="-113" font-family="Helvetica,sans-Serif" font-size="10.00" fill="#000000">/Detectors/TPC/workflow</text>
<text text-anchor="middle" x="426.5" y="-102" font-family="Helvetica,sans-Serif" font-size="10.00" fill="#000000">/src/ClustererSpec.cxx</text>
</a>
</g>
</g>
<!-- Node9&#45;&gt;Node12 -->
<g id="edge8" class="edge">
<title>Node9&#45;&gt;Node12</title>
<path fill="none" stroke="#191970" d="M375.6726,-181.5088C385.3896,-169.9409 395.7668,-157.5871 404.5945,-147.078"/>
<polygon fill="#191970" stroke="#191970" points="372.8301,-179.4511 369.0781,-189.3594 378.1901,-183.9535 372.8301,-179.4511"/>
</g>
</g>
</svg>
