<?xml version="1.0" encoding="UTF-8" standalone="no"?>
<!DOCTYPE svg PUBLIC "-//W3C//DTD SVG 1.1//EN"
 "http://www.w3.org/Graphics/SVG/1.1/DTD/svg11.dtd">
<!-- Generated by graphviz version 2.40.1 (20161225.0304)
 -->
<!-- Title: /home/travis/build/AliceO2Group/AliceO2/Detectors/TPC/calibration/include/TPCCalibration/CalibPulser.h Pages: 1 -->
<svg width="3623pt" height="844pt"
 viewBox="0.00 0.00 3623.00 844.00" xmlns="http://www.w3.org/2000/svg" xmlns:xlink="http://www.w3.org/1999/xlink">
<g id="graph0" class="graph" transform="scale(1 1) rotate(0) translate(4 840)">
<title>/home/travis/build/AliceO2Group/AliceO2/Detectors/TPC/calibration/include/TPCCalibration/CalibPulser.h</title>
<!-- Node0 -->
<g id="node1" class="node">
<title>Node0</title>
<polygon fill="#bfbfbf" stroke="#000000" points="200,-783.5 200,-835.5 396,-835.5 396,-783.5 200,-783.5"/>
<text text-anchor="start" x="208" y="-823.5" font-family="Helvetica,sans-Serif" font-size="10.00" fill="#000000">/home/travis/build</text>
<text text-anchor="start" x="208" y="-812.5" font-family="Helvetica,sans-Serif" font-size="10.00" fill="#000000">/AliceO2Group/AliceO2</text>
<text text-anchor="start" x="208" y="-801.5" font-family="Helvetica,sans-Serif" font-size="10.00" fill="#000000">/Detectors/TPC/calibration</text>
<text text-anchor="middle" x="298" y="-790.5" font-family="Helvetica,sans-Serif" font-size="10.00" fill="#000000">/include/TPCCalibration/CalibPulser.h</text>
</g>
<!-- Node1 -->
<g id="node2" class="node">
<title>Node1</title>
<polygon fill="none" stroke="#bfbfbf" points="1140.5,-358.5 1140.5,-377.5 1187.5,-377.5 1187.5,-358.5 1140.5,-358.5"/>
<text text-anchor="middle" x="1164" y="-365.5" font-family="Helvetica,sans-Serif" font-size="10.00" fill="#000000">vector</text>
</g>
<!-- Node0&#45;&gt;Node1 -->
<g id="edge1" class="edge">
<title>Node0&#45;&gt;Node1</title>
<path fill="none" stroke="#191970" d="M396.2804,-795.3996C465.5166,-784.5549 560.0999,-767.8994 642,-747 718.6704,-727.4351 736.4248,-717.4515 811,-691 877.283,-667.4897 895.6852,-665.6171 959,-635 1055.3246,-588.4203 1109.7037,-595.963 1159,-501 1177.9007,-464.5903 1172.9905,-414.7142 1168.2052,-387.5615"/>
<polygon fill="#191970" stroke="#191970" points="1171.6378,-386.8773 1166.297,-377.7271 1164.7659,-388.2107 1171.6378,-386.8773"/>
</g>
<!-- Node2 -->
<g id="node3" class="node">
<title>Node2</title>
<polygon fill="none" stroke="#bfbfbf" points="1092,-476 1092,-495 1150,-495 1150,-476 1092,-476"/>
<text text-anchor="middle" x="1121" y="-483" font-family="Helvetica,sans-Serif" font-size="10.00" fill="#000000">memory</text>
</g>
<!-- Node0&#45;&gt;Node2 -->
<g id="edge2" class="edge">
<title>Node0&#45;&gt;Node2</title>
<path fill="none" stroke="#191970" d="M396.0671,-792.6207C543.8526,-763.9728 828.6095,-696.0661 1038,-568 1066.4291,-550.6123 1092.5012,-521.6381 1107.566,-503.0626"/>
<polygon fill="#191970" stroke="#191970" points="1110.4005,-505.1208 1113.8608,-495.107 1104.9111,-500.7773 1110.4005,-505.1208"/>
</g>
<!-- Node3 -->
<g id="node4" class="node">
<title>Node3</title>
<polygon fill="none" stroke="#bfbfbf" points="161.5,-727.5 161.5,-746.5 212.5,-746.5 212.5,-727.5 161.5,-727.5"/>
<text text-anchor="middle" x="187" y="-734.5" font-family="Helvetica,sans-Serif" font-size="10.00" fill="#000000">TH2S.h</text>
</g>
<!-- Node0&#45;&gt;Node3 -->
<g id="edge3" class="edge">
<title>Node0&#45;&gt;Node3</title>
<path fill="none" stroke="#191970" d="M257.9265,-783.3258C241.8293,-772.8119 223.8514,-761.0696 210.0232,-752.0377"/>
<polygon fill="#191970" stroke="#191970" points="211.8832,-749.0721 201.5969,-746.534 208.0553,-754.9328 211.8832,-749.0721"/>
</g>
<!-- Node4 -->
<g id="node5" class="node">
<title>Node4</title>
<g id="a_node5"><a xlink:href="../../d1/d73/Defs_8h.html" target="_top" xlink:title="Common definitions for 2D coordinates. ">
<polygon fill="none" stroke="#000000" points="321.5,-190.5 321.5,-209.5 454.5,-209.5 454.5,-190.5 321.5,-190.5"/>
<text text-anchor="middle" x="388" y="-197.5" font-family="Helvetica,sans-Serif" font-size="10.00" fill="#000000">DataFormatsTPC/Defs.h</text>
</a>
</g>
</g>
<!-- Node0&#45;&gt;Node4 -->
<g id="edge4" class="edge">
<title>Node0&#45;&gt;Node4</title>
<path fill="none" stroke="#191970" d="M199.5978,-786.7738C112.797,-763.782 0,-725.3686 0,-681 0,-681 0,-681 0,-312 0,-270.5164 28.8959,-264.552 66,-246 107.7769,-225.1116 230.0172,-212.0111 311.287,-205.3558"/>
<polygon fill="#191970" stroke="#191970" points="311.7927,-208.8265 321.4804,-204.5371 311.2323,-201.849 311.7927,-208.8265"/>
</g>
<!-- Node18 -->
<g id="node19" class="node">
<title>Node18</title>
<g id="a_node19"><a xlink:href="../../d6/d2b/TPC_2base_2include_2TPCBase_2CalDet_8h.html" target="_top" xlink:title="TPCBase/CalDet.h">
<polygon fill="none" stroke="#000000" points="658,-610 658,-629 762,-629 762,-610 658,-610"/>
<text text-anchor="middle" x="710" y="-617" font-family="Helvetica,sans-Serif" font-size="10.00" fill="#000000">TPCBase/CalDet.h</text>
</a>
</g>
</g>
<!-- Node0&#45;&gt;Node18 -->
<g id="edge19" class="edge">
<title>Node0&#45;&gt;Node18</title>
<path fill="none" stroke="#191970" d="M354.423,-783.4797C442.8554,-742.6978 611.0775,-665.1196 679.7065,-633.4703"/>
<polygon fill="#191970" stroke="#191970" points="681.4729,-636.51 689.0881,-629.1439 678.5414,-630.1534 681.4729,-636.51"/>
</g>
<!-- Node31 -->
<g id="node32" class="node">
<title>Node31</title>
<g id="a_node32"><a xlink:href="../../da/d61/PadROCPos_8h.html" target="_top" xlink:title="TPCBase/PadROCPos.h">
<polygon fill="none" stroke="#000000" points="104.5,-414.5 104.5,-433.5 231.5,-433.5 231.5,-414.5 104.5,-414.5"/>
<text text-anchor="middle" x="168" y="-421.5" font-family="Helvetica,sans-Serif" font-size="10.00" fill="#000000">TPCBase/PadROCPos.h</text>
</a>
</g>
</g>
<!-- Node0&#45;&gt;Node31 -->
<g id="edge76" class="edge">
<title>Node0&#45;&gt;Node31</title>
<path fill="none" stroke="#191970" d="M207.8866,-783.454C161.2664,-763.8731 114,-731.5549 114,-681 114,-681 114,-681 114,-552.5 114,-510.4148 138.922,-466.2058 154.9044,-442.1816"/>
<polygon fill="#191970" stroke="#191970" points="157.9321,-443.9559 160.7173,-433.7337 152.1653,-439.9879 157.9321,-443.9559"/>
</g>
<!-- Node34 -->
<g id="node35" class="node">
<title>Node34</title>
<g id="a_node35"><a xlink:href="../../df/d26/CRU_8h.html" target="_top" xlink:title="TPCBase/CRU.h">
<polygon fill="none" stroke="#000000" points="397,-358.5 397,-377.5 489,-377.5 489,-358.5 397,-358.5"/>
<text text-anchor="middle" x="443" y="-365.5" font-family="Helvetica,sans-Serif" font-size="10.00" fill="#000000">TPCBase/CRU.h</text>
</a>
</g>
</g>
<!-- Node0&#45;&gt;Node34 -->
<g id="edge75" class="edge">
<title>Node0&#45;&gt;Node34</title>
<path fill="none" stroke="#191970" d="M294.2228,-783.4792C285.8318,-715.6534 272.4159,-530.6296 355,-414 365.5763,-399.0636 382.5147,-388.6045 398.7195,-381.478"/>
<polygon fill="#191970" stroke="#191970" points="400.1747,-384.6647 408.1223,-377.6584 397.5402,-378.1793 400.1747,-384.6647"/>
</g>
<!-- Node42 -->
<g id="node43" class="node">
<title>Node42</title>
<g id="a_node43"><a xlink:href="../../d7/dd7/CalibRawBase_8h.html" target="_top" xlink:title="TPCCalibration/CalibRawBase.h">
<polygon fill="none" stroke="#000000" points="1169,-727.5 1169,-746.5 1339,-746.5 1339,-727.5 1169,-727.5"/>
<text text-anchor="middle" x="1254" y="-734.5" font-family="Helvetica,sans-Serif" font-size="10.00" fill="#000000">TPCCalibration/CalibRawBase.h</text>
</a>
</g>
</g>
<!-- Node0&#45;&gt;Node42 -->
<g id="edge77" class="edge">
<title>Node0&#45;&gt;Node42</title>
<path fill="none" stroke="#191970" d="M396.2617,-802.0481C580.7431,-788.0577 976.713,-758.0286 1158.8148,-744.2185"/>
<polygon fill="#191970" stroke="#191970" points="1159.2041,-747.6992 1168.9107,-743.4529 1158.6747,-740.7192 1159.2041,-747.6992"/>
</g>
<!-- Node5 -->
<g id="node6" class="node">
<title>Node5</title>
<polygon fill="none" stroke="#bfbfbf" points="1192.5,-134.5 1192.5,-153.5 1239.5,-153.5 1239.5,-134.5 1192.5,-134.5"/>
<text text-anchor="middle" x="1216" y="-141.5" font-family="Helvetica,sans-Serif" font-size="10.00" fill="#000000">cmath</text>
</g>
<!-- Node4&#45;&gt;Node5 -->
<g id="edge5" class="edge">
<title>Node4&#45;&gt;Node5</title>
<path fill="none" stroke="#191970" d="M454.6948,-190.9214C457.838,-190.5889 460.9519,-190.2792 464,-190 771.572,-161.832 851.0512,-188.2993 1158,-154 1165.9081,-153.1163 1174.372,-151.8449 1182.3219,-150.5034"/>
<polygon fill="#191970" stroke="#191970" points="1183.1476,-153.9119 1192.3867,-148.7263 1181.9304,-147.0185 1183.1476,-153.9119"/>
</g>
<!-- Node6 -->
<g id="node7" class="node">
<title>Node6</title>
<g id="a_node7"><a xlink:href="../../d2/dd0/Cartesian2D_8h.html" target="_top" xlink:title="MathUtils/Cartesian2D.h">
<polygon fill="none" stroke="#000000" points="442.5,-73 442.5,-92 577.5,-92 577.5,-73 442.5,-73"/>
<text text-anchor="middle" x="510" y="-80" font-family="Helvetica,sans-Serif" font-size="10.00" fill="#000000">MathUtils/Cartesian2D.h</text>
</a>
</g>
</g>
<!-- Node4&#45;&gt;Node6 -->
<g id="edge6" class="edge">
<title>Node4&#45;&gt;Node6</title>
<path fill="none" stroke="#191970" d="M397.9838,-190.3845C418.7163,-170.4167 466.6583,-124.243 492.5912,-99.2667"/>
<polygon fill="#191970" stroke="#191970" points="495.1035,-101.7063 499.8783,-92.2484 490.2476,-96.6645 495.1035,-101.7063"/>
</g>
<!-- Node9 -->
<g id="node10" class="node">
<title>Node9</title>
<g id="a_node10"><a xlink:href="../../dd/d76/Cartesian3D_8h.html" target="_top" xlink:title="MathUtils/Cartesian3D.h">
<polygon fill="none" stroke="#000000" points="1013.5,-134.5 1013.5,-153.5 1148.5,-153.5 1148.5,-134.5 1013.5,-134.5"/>
<text text-anchor="middle" x="1081" y="-141.5" font-family="Helvetica,sans-Serif" font-size="10.00" fill="#000000">MathUtils/Cartesian3D.h</text>
</a>
</g>
</g>
<!-- Node4&#45;&gt;Node9 -->
<g id="edge9" class="edge">
<title>Node4&#45;&gt;Node9</title>
<path fill="none" stroke="#191970" d="M454.7031,-191.0069C457.8441,-190.6515 460.9552,-190.3136 464,-190 657.4375,-170.0791 885.8449,-155.3289 1003.0261,-148.3986"/>
<polygon fill="#191970" stroke="#191970" points="1003.5509,-151.8739 1013.3281,-147.7926 1003.1397,-144.886 1003.5509,-151.8739"/>
</g>
<!-- Node7 -->
<g id="node8" class="node">
<title>Node7</title>
<polygon fill="none" stroke="#bfbfbf" points="331,-.5 331,-30.5 495,-30.5 495,-.5 331,-.5"/>
<text text-anchor="start" x="339" y="-18.5" font-family="Helvetica,sans-Serif" font-size="10.00" fill="#000000">Math/GenVector/Displacement</text>
<text text-anchor="middle" x="413" y="-7.5" font-family="Helvetica,sans-Serif" font-size="10.00" fill="#000000">Vector2D.h</text>
</g>
<!-- Node6&#45;&gt;Node7 -->
<g id="edge7" class="edge">
<title>Node6&#45;&gt;Node7</title>
<path fill="none" stroke="#191970" d="M496.1023,-72.9005C482.3265,-63.3853 460.7795,-48.5023 443.0779,-36.2755"/>
<polygon fill="#191970" stroke="#191970" points="444.9651,-33.3253 434.7479,-30.5218 440.9868,-39.0849 444.9651,-33.3253"/>
</g>
<!-- Node8 -->
<g id="node9" class="node">
<title>Node8</title>
<polygon fill="none" stroke="#bfbfbf" points="513.5,-6 513.5,-25 702.5,-25 702.5,-6 513.5,-6"/>
<text text-anchor="middle" x="608" y="-13" font-family="Helvetica,sans-Serif" font-size="10.00" fill="#000000">Math/GenVector/PositionVector2D.h</text>
</g>
<!-- Node6&#45;&gt;Node8 -->
<g id="edge8" class="edge">
<title>Node6&#45;&gt;Node8</title>
<path fill="none" stroke="#191970" d="M524.041,-72.9005C540.1238,-61.9052 566.6906,-43.7422 585.6316,-30.7927"/>
<polygon fill="#191970" stroke="#191970" points="587.7052,-33.6148 593.985,-25.0817 583.7545,-27.8362 587.7052,-33.6148"/>
</g>
<!-- Node9&#45;&gt;Node6 -->
<g id="edge18" class="edge">
<title>Node9&#45;&gt;Node6</title>
<path fill="none" stroke="#191970" d="M1013.3496,-137.2561C926.7677,-128.5531 772.1565,-112.7703 640,-98 623.1,-96.1112 604.9746,-94.0025 587.7836,-91.9638"/>
<polygon fill="#191970" stroke="#191970" points="588.1298,-88.4804 577.7861,-90.7738 587.3023,-95.4313 588.1298,-88.4804"/>
</g>
<!-- Node10 -->
<g id="node11" class="node">
<title>Node10</title>
<polygon fill="none" stroke="#bfbfbf" points="1127,-67.5 1127,-97.5 1291,-97.5 1291,-67.5 1127,-67.5"/>
<text text-anchor="start" x="1135" y="-85.5" font-family="Helvetica,sans-Serif" font-size="10.00" fill="#000000">Math/GenVector/Displacement</text>
<text text-anchor="middle" x="1209" y="-74.5" font-family="Helvetica,sans-Serif" font-size="10.00" fill="#000000">Vector3D.h</text>
</g>
<!-- Node9&#45;&gt;Node10 -->
<g id="edge10" class="edge">
<title>Node9&#45;&gt;Node10</title>
<path fill="none" stroke="#191970" d="M1101,-134.3906C1119.045,-125.7205 1146.1352,-112.7046 1168.6688,-101.8779"/>
<polygon fill="#191970" stroke="#191970" points="1170.1899,-105.0302 1177.6877,-97.5446 1167.1583,-98.7206 1170.1899,-105.0302"/>
</g>
<!-- Node11 -->
<g id="node12" class="node">
<title>Node11</title>
<polygon fill="none" stroke="#bfbfbf" points="1309.5,-73 1309.5,-92 1498.5,-92 1498.5,-73 1309.5,-73"/>
<text text-anchor="middle" x="1404" y="-80" font-family="Helvetica,sans-Serif" font-size="10.00" fill="#000000">Math/GenVector/PositionVector3D.h</text>
</g>
<!-- Node9&#45;&gt;Node11 -->
<g id="edge11" class="edge">
<title>Node9&#45;&gt;Node11</title>
<path fill="none" stroke="#191970" d="M1131.1144,-134.4581C1188.6038,-123.512 1282.8082,-105.5752 1344.1132,-93.9026"/>
<polygon fill="#191970" stroke="#191970" points="1344.865,-97.3224 1354.0338,-92.0137 1343.5556,-90.446 1344.865,-97.3224"/>
</g>
<!-- Node12 -->
<g id="node13" class="node">
<title>Node12</title>
<polygon fill="none" stroke="#bfbfbf" points="1517,-73 1517,-92 1677,-92 1677,-73 1517,-73"/>
<text text-anchor="middle" x="1597" y="-80" font-family="Helvetica,sans-Serif" font-size="10.00" fill="#000000">Math/GenVector/Rotation3D.h</text>
</g>
<!-- Node9&#45;&gt;Node12 -->
<g id="edge12" class="edge">
<title>Node9&#45;&gt;Node12</title>
<path fill="none" stroke="#191970" d="M1148.8815,-137.2321C1251.2738,-126.9305 1440.4431,-107.5114 1508,-98 1517.0103,-96.7314 1526.5076,-95.2418 1535.8084,-93.6964"/>
<polygon fill="#191970" stroke="#191970" points="1536.5162,-97.1265 1545.7913,-92.0055 1535.3472,-90.2248 1536.5162,-97.1265"/>
</g>
<!-- Node13 -->
<g id="node14" class="node">
<title>Node13</title>
<polygon fill="none" stroke="#bfbfbf" points="649,-73 649,-92 817,-92 817,-73 649,-73"/>
<text text-anchor="middle" x="733" y="-80" font-family="Helvetica,sans-Serif" font-size="10.00" fill="#000000">Math/GenVector/Transform3D.h</text>
</g>
<!-- Node9&#45;&gt;Node13 -->
<g id="edge13" class="edge">
<title>Node9&#45;&gt;Node13</title>
<path fill="none" stroke="#191970" d="M1027.0068,-134.4581C964.8123,-123.4668 862.7343,-105.4272 796.7067,-93.7585"/>
<polygon fill="#191970" stroke="#191970" points="797.29,-90.3074 786.8335,-92.0137 796.0718,-97.2006 797.29,-90.3074"/>
</g>
<!-- Node14 -->
<g id="node15" class="node">
<title>Node14</title>
<polygon fill="none" stroke="#bfbfbf" points="835.5,-73 835.5,-92 1008.5,-92 1008.5,-73 835.5,-73"/>
<text text-anchor="middle" x="922" y="-80" font-family="Helvetica,sans-Serif" font-size="10.00" fill="#000000">Math/GenVector/Translation3D.h</text>
</g>
<!-- Node9&#45;&gt;Node14 -->
<g id="edge14" class="edge">
<title>Node9&#45;&gt;Node14</title>
<path fill="none" stroke="#191970" d="M1056.1563,-134.3906C1029.3193,-124.0103 986.3767,-107.4004 956.3247,-95.7766"/>
<polygon fill="#191970" stroke="#191970" points="957.2586,-92.3851 946.6693,-92.0419 954.7333,-98.9138 957.2586,-92.3851"/>
</g>
<!-- Node15 -->
<g id="node16" class="node">
<title>Node15</title>
<polygon fill="none" stroke="#bfbfbf" points="3547.5,-73 3547.5,-92 3606.5,-92 3606.5,-73 3547.5,-73"/>
<text text-anchor="middle" x="3577" y="-80" font-family="Helvetica,sans-Serif" font-size="10.00" fill="#000000">Rtypes.h</text>
</g>
<!-- Node9&#45;&gt;Node15 -->
<g id="edge15" class="edge">
<title>Node9&#45;&gt;Node15</title>
<path fill="none" stroke="#191970" d="M1148.5369,-136.7096C1160.3453,-135.6446 1172.5219,-134.6797 1184,-134 1668.8263,-105.2886 3263.411,-86.072 3536.9063,-82.9487"/>
<polygon fill="#191970" stroke="#191970" points="3537.1951,-86.4458 3547.1546,-82.8322 3537.1154,-79.4462 3537.1951,-86.4458"/>
</g>
<!-- Node16 -->
<g id="node17" class="node">
<title>Node16</title>
<polygon fill="none" stroke="#bfbfbf" points="1027,-73 1027,-92 1109,-92 1109,-73 1027,-73"/>
<text text-anchor="middle" x="1068" y="-80" font-family="Helvetica,sans-Serif" font-size="10.00" fill="#000000">TGeoMatrix.h</text>
</g>
<!-- Node9&#45;&gt;Node16 -->
<g id="edge16" class="edge">
<title>Node9&#45;&gt;Node16</title>
<path fill="none" stroke="#191970" d="M1078.9688,-134.3906C1077.1478,-125.776 1074.4198,-112.8708 1072.1401,-102.0858"/>
<polygon fill="#191970" stroke="#191970" points="1075.5524,-101.3048 1070.0599,-92.2449 1068.7038,-102.7525 1075.5524,-101.3048"/>
</g>
<!-- Node17 -->
<g id="node18" class="node">
<title>Node17</title>
<polygon fill="none" stroke="#bfbfbf" points="1987.5,-73 1987.5,-92 2036.5,-92 2036.5,-73 1987.5,-73"/>
<text text-anchor="middle" x="2012" y="-80" font-family="Helvetica,sans-Serif" font-size="10.00" fill="#000000">iosfwd</text>
</g>
<!-- Node9&#45;&gt;Node17 -->
<g id="edge17" class="edge">
<title>Node9&#45;&gt;Node17</title>
<path fill="none" stroke="#191970" d="M1148.5642,-137.1025C1160.3695,-135.9939 1172.538,-134.9126 1184,-134 1491.034,-109.5544 1862.8986,-90.0126 1977.0251,-84.2404"/>
<polygon fill="#191970" stroke="#191970" points="1977.4429,-87.7239 1987.2541,-83.7251 1977.0907,-80.7328 1977.4429,-87.7239"/>
</g>
<!-- Node18&#45;&gt;Node1 -->
<g id="edge21" class="edge">
<title>Node18&#45;&gt;Node1</title>
<path fill="none" stroke="#191970" d="M762.4669,-615.4893C814.1813,-609.9787 894.4608,-597.179 958,-568 969.0877,-562.9082 1035.9267,-509.1571 1045,-501 1075.6239,-473.4686 1081.5806,-464.7242 1109,-434 1123.3383,-417.9335 1138.9971,-398.9972 1149.9266,-385.538"/>
<polygon fill="#191970" stroke="#191970" points="1152.8025,-387.5477 1156.3645,-377.5696 1147.3575,-383.1486 1152.8025,-387.5477"/>
</g>
<!-- Node18&#45;&gt;Node2 -->
<g id="edge20" class="edge">
<title>Node18&#45;&gt;Node2</title>
<path fill="none" stroke="#191970" d="M762.2436,-617.0359C822.1629,-612.6983 922.3826,-600.7632 1002,-568 1012.5718,-563.6496 1068.1995,-523.8299 1099.5177,-501.142"/>
<polygon fill="#191970" stroke="#191970" points="1101.6113,-503.9472 1107.6487,-495.2408 1097.4997,-498.2819 1101.6113,-503.9472"/>
</g>
<!-- Node18&#45;&gt;Node4 -->
<g id="edge27" class="edge">
<title>Node18&#45;&gt;Node4</title>
<path fill="none" stroke="#191970" d="M657.8477,-614.7387C506.1892,-599.4677 76,-545.4468 76,-424 76,-424 76,-424 76,-312 76,-261.4698 222.8018,-227.5632 315.0099,-211.25"/>
<polygon fill="#191970" stroke="#191970" points="315.6096,-214.6983 324.8621,-209.5369 314.4104,-207.8018 315.6096,-214.6983"/>
</g>
<!-- Node19 -->
<g id="node20" class="node">
<title>Node19</title>
<polygon fill="none" stroke="#bfbfbf" points="364,-414.5 364,-433.5 408,-433.5 408,-414.5 364,-414.5"/>
<text text-anchor="middle" x="386" y="-421.5" font-family="Helvetica,sans-Serif" font-size="10.00" fill="#000000">string</text>
</g>
<!-- Node18&#45;&gt;Node19 -->
<g id="edge22" class="edge">
<title>Node18&#45;&gt;Node19</title>
<path fill="none" stroke="#191970" d="M672.4972,-609.999C640.6137,-601.2148 594.0833,-586.7033 556,-568 507.9806,-544.4169 496.5134,-535.9384 456,-501 434.7595,-482.6824 413.5371,-458.2633 400.1226,-441.8799"/>
<polygon fill="#191970" stroke="#191970" points="402.5243,-439.2824 393.5228,-433.6945 397.0749,-443.6762 402.5243,-439.2824"/>
</g>
<!-- Node20 -->
<g id="node21" class="node">
<title>Node20</title>
<polygon fill="none" stroke="#bfbfbf" points="934.5,-476 934.5,-495 1035.5,-495 1035.5,-476 934.5,-476"/>
<text text-anchor="middle" x="985" y="-483" font-family="Helvetica,sans-Serif" font-size="10.00" fill="#000000">boost/format.hpp</text>
</g>
<!-- Node18&#45;&gt;Node20 -->
<g id="edge23" class="edge">
<title>Node18&#45;&gt;Node20</title>
<path fill="none" stroke="#191970" d="M762.0384,-611.948C818.4633,-602.9723 904.0791,-586.8191 931,-568 953.6104,-552.1942 969.1533,-523.5944 977.5666,-504.5724"/>
<polygon fill="#191970" stroke="#191970" points="980.8849,-505.7086 981.5067,-495.132 974.425,-503.0124 980.8849,-505.7086"/>
</g>
<!-- Node21 -->
<g id="node22" class="node">
<title>Node21</title>
<polygon fill="none" stroke="#bfbfbf" points="712,-543 712,-562 852,-562 852,-543 712,-543"/>
<text text-anchor="middle" x="782" y="-550" font-family="Helvetica,sans-Serif" font-size="10.00" fill="#000000">boost/range/combine.hpp</text>
</g>
<!-- Node18&#45;&gt;Node21 -->
<g id="edge24" class="edge">
<title>Node18&#45;&gt;Node21</title>
<path fill="none" stroke="#191970" d="M720.3158,-609.9005C731.7575,-599.2535 750.4215,-581.8856 764.2273,-569.0385"/>
<polygon fill="#191970" stroke="#191970" points="766.7669,-571.4562 771.7033,-562.0817 761.9983,-566.3317 766.7669,-571.4562"/>
</g>
<!-- Node22 -->
<g id="node23" class="node">
<title>Node22</title>
<polygon fill="none" stroke="#bfbfbf" points="870,-543 870,-562 922,-562 922,-543 870,-543"/>
<text text-anchor="middle" x="896" y="-550" font-family="Helvetica,sans-Serif" font-size="10.00" fill="#000000">cassert</text>
</g>
<!-- Node18&#45;&gt;Node22 -->
<g id="edge25" class="edge">
<title>Node18&#45;&gt;Node22</title>
<path fill="none" stroke="#191970" d="M740.6536,-609.9226C771.365,-600.1224 819.8561,-584.0906 861,-568 862.5744,-567.3843 864.1814,-566.7379 865.7991,-566.073"/>
<polygon fill="#191970" stroke="#191970" points="867.1954,-569.2827 875.0273,-562.1475 864.4552,-562.8412 867.1954,-569.2827"/>
</g>
<!-- Node23 -->
<g id="node24" class="node">
<title>Node23</title>
<polygon fill="none" stroke="#bfbfbf" points="1490.5,-414.5 1490.5,-433.5 1565.5,-433.5 1565.5,-414.5 1490.5,-414.5"/>
<text text-anchor="middle" x="1528" y="-421.5" font-family="Helvetica,sans-Serif" font-size="10.00" fill="#000000">FairLogger.h</text>
</g>
<!-- Node18&#45;&gt;Node23 -->
<g id="edge26" class="edge">
<title>Node18&#45;&gt;Node23</title>
<path fill="none" stroke="#191970" d="M762.0897,-613.4472C827.1188,-605.4048 941.5435,-589.6491 1038,-568 1209.325,-529.5471 1408.8015,-464.4172 1490.3571,-436.8923"/>
<polygon fill="#191970" stroke="#191970" points="1491.8137,-440.0944 1500.1629,-433.572 1489.5686,-433.4642 1491.8137,-440.0944"/>
</g>
<!-- Node24 -->
<g id="node25" class="node">
<title>Node24</title>
<g id="a_node25"><a xlink:href="../../d5/d1d/TPC_2base_2include_2TPCBase_2Mapper_8h.html" target="_top" xlink:title="TPCBase/Mapper.h">
<polygon fill="none" stroke="#000000" points="508.5,-476 508.5,-495 615.5,-495 615.5,-476 508.5,-476"/>
<text text-anchor="middle" x="562" y="-483" font-family="Helvetica,sans-Serif" font-size="10.00" fill="#000000">TPCBase/Mapper.h</text>
</a>
</g>
</g>
<!-- Node18&#45;&gt;Node24 -->
<g id="edge28" class="edge">
<title>Node18&#45;&gt;Node24</title>
<path fill="none" stroke="#191970" d="M657.7081,-613.0677C628.3,-606.6302 593.4826,-593.7535 573,-568 558.9223,-550.2997 557.9468,-523.4047 559.3145,-505.1744"/>
<polygon fill="#191970" stroke="#191970" points="562.8085,-505.4139 560.3728,-495.1029 555.8469,-504.6823 562.8085,-505.4139"/>
</g>
<!-- Node29 -->
<g id="node30" class="node">
<title>Node29</title>
<g id="a_node30"><a xlink:href="../../d3/dd6/Sector_8h.html" target="_top" xlink:title="TPCBase/Sector.h">
<polygon fill="none" stroke="#000000" points="435.5,-246.5 435.5,-265.5 536.5,-265.5 536.5,-246.5 435.5,-246.5"/>
<text text-anchor="middle" x="486" y="-253.5" font-family="Helvetica,sans-Serif" font-size="10.00" fill="#000000">TPCBase/Sector.h</text>
</a>
</g>
</g>
<!-- Node18&#45;&gt;Node29 -->
<g id="edge64" class="edge">
<title>Node18&#45;&gt;Node29</title>
<path fill="none" stroke="#191970" d="M657.57,-614.0856C612.8363,-607.8116 547.8712,-594.6897 497,-568 420.1588,-527.685 388.2073,-514.1695 355,-434 326.7704,-365.8477 414.8247,-299.6686 460.4268,-270.9364"/>
<polygon fill="#191970" stroke="#191970" points="462.5115,-273.7633 469.1955,-265.5428 458.8441,-267.8009 462.5115,-273.7633"/>
</g>
<!-- Node32 -->
<g id="node33" class="node">
<title>Node32</title>
<g id="a_node33"><a xlink:href="../../dc/d14/ROC_8h.html" target="_top" xlink:title="TPCBase/ROC.h">
<polygon fill="none" stroke="#000000" points="211,-302.5 211,-321.5 303,-321.5 303,-302.5 211,-302.5"/>
<text text-anchor="middle" x="257" y="-309.5" font-family="Helvetica,sans-Serif" font-size="10.00" fill="#000000">TPCBase/ROC.h</text>
</a>
</g>
</g>
<!-- Node18&#45;&gt;Node32 -->
<g id="edge63" class="edge">
<title>Node18&#45;&gt;Node32</title>
<path fill="none" stroke="#191970" d="M657.7069,-612.2003C607.2543,-604.3107 529.1566,-589.8539 464,-568 397.8389,-545.8092 368.5671,-552.9733 322,-501 277.304,-451.115 263.0558,-369.0018 258.7507,-331.6249"/>
<polygon fill="#191970" stroke="#191970" points="262.2188,-331.1347 257.7111,-321.5466 255.2557,-331.853 262.2188,-331.1347"/>
</g>
<!-- Node38 -->
<g id="node39" class="node">
<title>Node38</title>
<g id="a_node39"><a xlink:href="../../db/d9b/CalArray_8h.html" target="_top" xlink:title="TPCBase/CalArray.h">
<polygon fill="none" stroke="#000000" points="582,-543 582,-562 694,-562 694,-543 582,-543"/>
<text text-anchor="middle" x="638" y="-550" font-family="Helvetica,sans-Serif" font-size="10.00" fill="#000000">TPCBase/CalArray.h</text>
</a>
</g>
</g>
<!-- Node18&#45;&gt;Node38 -->
<g id="edge65" class="edge">
<title>Node18&#45;&gt;Node38</title>
<path fill="none" stroke="#191970" d="M699.6842,-609.9005C688.2425,-599.2535 669.5785,-581.8856 655.7727,-569.0385"/>
<polygon fill="#191970" stroke="#191970" points="658.0017,-566.3317 648.2967,-562.0817 653.2331,-571.4562 658.0017,-566.3317"/>
</g>
<!-- Node24&#45;&gt;Node1 -->
<g id="edge30" class="edge">
<title>Node24&#45;&gt;Node1</title>
<path fill="none" stroke="#191970" d="M596.4599,-475.9953C605.6725,-473.7367 615.6645,-471.5389 625,-470 809.8564,-439.5279 865.7936,-488.6398 1045,-434 1064.3712,-428.0938 1111.1689,-400.4968 1139.9694,-382.9111"/>
<polygon fill="#191970" stroke="#191970" points="1141.9397,-385.8085 1148.6303,-377.5934 1138.277,-379.8431 1141.9397,-385.8085"/>
</g>
<!-- Node24&#45;&gt;Node4 -->
<g id="edge34" class="edge">
<title>Node24&#45;&gt;Node4</title>
<path fill="none" stroke="#191970" d="M541.248,-475.8697C498.8908,-455.7396 405.0344,-408.5474 388,-378 359.4801,-326.8561 373.1813,-253.8995 382.2252,-219.4437"/>
<polygon fill="#191970" stroke="#191970" points="385.6315,-220.2582 384.9385,-209.6861 378.8874,-218.3829 385.6315,-220.2582"/>
</g>
<!-- Node24&#45;&gt;Node5 -->
<g id="edge33" class="edge">
<title>Node24&#45;&gt;Node5</title>
<path fill="none" stroke="#191970" d="M596.4533,-475.955C605.6659,-473.6967 615.6596,-471.5091 625,-470 824.8198,-437.7153 883.4501,-486.2542 1079,-434 1144.2952,-416.552 1216,-435.5863 1216,-368 1216,-368 1216,-368 1216,-256 1216,-223.7116 1216,-186.1872 1216,-163.8048"/>
<polygon fill="#191970" stroke="#191970" points="1219.5001,-163.5883 1216,-153.5884 1212.5001,-163.5884 1219.5001,-163.5883"/>
</g>
<!-- Node24&#45;&gt;Node19 -->
<g id="edge32" class="edge">
<title>Node24&#45;&gt;Node19</title>
<path fill="none" stroke="#191970" d="M534.5,-475.8906C502.8706,-464.8383 451.0308,-446.7238 417.7226,-435.0849"/>
<polygon fill="#191970" stroke="#191970" points="418.6183,-431.6904 408.0234,-431.6957 416.3091,-438.2986 418.6183,-431.6904"/>
</g>
<!-- Node25 -->
<g id="node26" class="node">
<title>Node25</title>
<polygon fill="none" stroke="#bfbfbf" points="1396,-414.5 1396,-433.5 1434,-433.5 1434,-414.5 1396,-414.5"/>
<text text-anchor="middle" x="1415" y="-421.5" font-family="Helvetica,sans-Serif" font-size="10.00" fill="#000000">map</text>
</g>
<!-- Node24&#45;&gt;Node25 -->
<g id="edge29" class="edge">
<title>Node24&#45;&gt;Node25</title>
<path fill="none" stroke="#191970" d="M595.4386,-475.9971C604.9203,-473.6517 615.3026,-471.4099 625,-470 958.3201,-421.5379 1050.0809,-491.2761 1382,-434 1383.2941,-433.7767 1384.6088,-433.5182 1385.931,-433.2322"/>
<polygon fill="#191970" stroke="#191970" points="1387.1923,-436.5213 1395.9976,-430.629 1385.4397,-429.7442 1387.1923,-436.5213"/>
</g>
<!-- Node26 -->
<g id="node27" class="node">
<title>Node26</title>
<polygon fill="none" stroke="#bfbfbf" points="1848,-414.5 1848,-433.5 1890,-433.5 1890,-414.5 1848,-414.5"/>
<text text-anchor="middle" x="1869" y="-421.5" font-family="Helvetica,sans-Serif" font-size="10.00" fill="#000000">array</text>
</g>
<!-- Node24&#45;&gt;Node26 -->
<g id="edge31" class="edge">
<title>Node24&#45;&gt;Node26</title>
<path fill="none" stroke="#191970" d="M595.429,-475.9301C604.9106,-473.5841 615.2953,-471.3587 625,-470 655.9686,-465.6643 1648.2622,-431.5518 1837.8645,-425.0637"/>
<polygon fill="#191970" stroke="#191970" points="1838.1116,-428.5574 1847.9861,-424.7175 1837.8723,-421.5615 1838.1116,-428.5574"/>
</g>
<!-- Node27 -->
<g id="node28" class="node">
<title>Node27</title>
<g id="a_node28"><a xlink:href="../../de/d41/PadPos_8h.html" target="_top" xlink:title="TPCBase/PadPos.h">
<polygon fill="none" stroke="#000000" points="837,-302.5 837,-321.5 943,-321.5 943,-302.5 837,-302.5"/>
<text text-anchor="middle" x="890" y="-309.5" font-family="Helvetica,sans-Serif" font-size="10.00" fill="#000000">TPCBase/PadPos.h</text>
</a>
</g>
</g>
<!-- Node24&#45;&gt;Node27 -->
<g id="edge35" class="edge">
<title>Node24&#45;&gt;Node27</title>
<path fill="none" stroke="#191970" d="M598.5237,-475.9414C607.1716,-473.8374 616.3853,-471.7247 625,-470 676.1574,-459.758 818.1323,-468.8034 857,-434 886.035,-408.0011 890.6653,-359.347 890.779,-331.9927"/>
<polygon fill="#191970" stroke="#191970" points="894.2738,-331.6425 890.6092,-321.7016 887.2747,-331.758 894.2738,-331.6425"/>
</g>
<!-- Node28 -->
<g id="node29" class="node">
<title>Node28</title>
<g id="a_node29"><a xlink:href="../../dd/d0b/PadSecPos_8h.html" target="_top" xlink:title="TPCBase/PadSecPos.h">
<polygon fill="none" stroke="#000000" points="621.5,-358.5 621.5,-377.5 744.5,-377.5 744.5,-358.5 621.5,-358.5"/>
<text text-anchor="middle" x="683" y="-365.5" font-family="Helvetica,sans-Serif" font-size="10.00" fill="#000000">TPCBase/PadSecPos.h</text>
</a>
</g>
</g>
<!-- Node24&#45;&gt;Node28 -->
<g id="edge36" class="edge">
<title>Node24&#45;&gt;Node28</title>
<path fill="none" stroke="#191970" d="M594.1808,-475.8977C615.8347,-467.9076 643.5192,-454.485 661,-434 672.1356,-420.9507 677.6868,-402.0655 680.4225,-387.8367"/>
<polygon fill="#191970" stroke="#191970" points="683.9326,-388.0533 682.0657,-377.6243 677.0215,-386.9412 683.9326,-388.0533"/>
</g>
<!-- Node24&#45;&gt;Node29 -->
<g id="edge62" class="edge">
<title>Node24&#45;&gt;Node29</title>
<path fill="none" stroke="#191970" d="M554.9003,-475.7076C547.9252,-465.6771 537.4212,-449.4133 531,-434 508.083,-378.9901 494.6383,-309.3934 489.0532,-275.8543"/>
<polygon fill="#191970" stroke="#191970" points="492.4443,-274.8963 487.4029,-265.5779 485.5329,-276.0064 492.4443,-274.8963"/>
</g>
<!-- Node24&#45;&gt;Node31 -->
<g id="edge41" class="edge">
<title>Node24&#45;&gt;Node31</title>
<path fill="none" stroke="#191970" d="M508.4534,-477.1418C438.681,-466.251 316.4729,-447.1753 239.0206,-435.0857"/>
<polygon fill="#191970" stroke="#191970" points="239.2879,-431.5851 228.8677,-433.5009 238.2083,-438.5014 239.2879,-431.5851"/>
</g>
<!-- Node33 -->
<g id="node34" class="node">
<title>Node33</title>
<g id="a_node34"><a xlink:href="../../d3/d54/DigitPos_8h.html" target="_top" xlink:title="TPCBase/DigitPos.h">
<polygon fill="none" stroke="#000000" points="540,-414.5 540,-433.5 652,-433.5 652,-414.5 540,-414.5"/>
<text text-anchor="middle" x="596" y="-421.5" font-family="Helvetica,sans-Serif" font-size="10.00" fill="#000000">TPCBase/DigitPos.h</text>
</a>
</g>
</g>
<!-- Node24&#45;&gt;Node33 -->
<g id="edge47" class="edge">
<title>Node24&#45;&gt;Node33</title>
<path fill="none" stroke="#191970" d="M567.3125,-475.8906C572.2239,-467.0068 579.6579,-453.5601 585.7275,-442.5811"/>
<polygon fill="#191970" stroke="#191970" points="588.8373,-444.1899 590.6126,-433.7449 582.7112,-440.8031 588.8373,-444.1899"/>
</g>
<!-- Node35 -->
<g id="node36" class="node">
<title>Node35</title>
<g id="a_node36"><a xlink:href="../../d1/d1f/FECInfo_8h.html" target="_top" xlink:title="TPCBase/FECInfo.h">
<polygon fill="none" stroke="#000000" points="1597,-246.5 1597,-265.5 1705,-265.5 1705,-246.5 1597,-246.5"/>
<text text-anchor="middle" x="1651" y="-253.5" font-family="Helvetica,sans-Serif" font-size="10.00" fill="#000000">TPCBase/FECInfo.h</text>
</a>
</g>
</g>
<!-- Node24&#45;&gt;Node35 -->
<g id="edge55" class="edge">
<title>Node24&#45;&gt;Node35</title>
<path fill="none" stroke="#191970" d="M595.7771,-475.9918C605.1701,-473.6761 615.4225,-471.4508 625,-470 891.3262,-429.6569 967.7117,-495.3359 1230,-434 1387.2838,-397.2193 1560.6116,-306.3943 1625.0322,-270.7218"/>
<polygon fill="#191970" stroke="#191970" points="1627.0461,-273.6061 1634.0753,-265.6788 1623.6368,-267.4925 1627.0461,-273.6061"/>
</g>
<!-- Node36 -->
<g id="node37" class="node">
<title>Node36</title>
<g id="a_node37"><a xlink:href="../../da/d9d/PadRegionInfo_8h.html" target="_top" xlink:title="TPCBase/PadRegionInfo.h">
<polygon fill="none" stroke="#000000" points="708,-414.5 708,-433.5 848,-433.5 848,-414.5 708,-414.5"/>
<text text-anchor="middle" x="778" y="-421.5" font-family="Helvetica,sans-Serif" font-size="10.00" fill="#000000">TPCBase/PadRegionInfo.h</text>
</a>
</g>
</g>
<!-- Node24&#45;&gt;Node36 -->
<g id="edge57" class="edge">
<title>Node24&#45;&gt;Node36</title>
<path fill="none" stroke="#191970" d="M595.75,-475.8906C633.2381,-465.2169 693.8597,-447.9566 734.7886,-436.3033"/>
<polygon fill="#191970" stroke="#191970" points="735.8277,-439.6466 744.487,-433.5419 733.9108,-432.9141 735.8277,-439.6466"/>
</g>
<!-- Node37 -->
<g id="node38" class="node">
<title>Node37</title>
<g id="a_node38"><a xlink:href="../../d6/d42/PartitionInfo_8h.html" target="_top" xlink:title="TPCBase/PartitionInfo.h">
<polygon fill="none" stroke="#000000" points="904.5,-414.5 904.5,-433.5 1035.5,-433.5 1035.5,-414.5 904.5,-414.5"/>
<text text-anchor="middle" x="970" y="-421.5" font-family="Helvetica,sans-Serif" font-size="10.00" fill="#000000">TPCBase/PartitionInfo.h</text>
</a>
</g>
</g>
<!-- Node24&#45;&gt;Node37 -->
<g id="edge61" class="edge">
<title>Node24&#45;&gt;Node37</title>
<path fill="none" stroke="#191970" d="M597.8335,-475.9691C606.6734,-473.8159 616.146,-471.6743 625,-470 650.8146,-465.1184 800.7772,-445.6398 894.2947,-433.65"/>
<polygon fill="#191970" stroke="#191970" points="894.8095,-437.1127 904.2837,-432.3702 893.9199,-430.1695 894.8095,-437.1127"/>
</g>
<!-- Node28&#45;&gt;Node27 -->
<g id="edge40" class="edge">
<title>Node28&#45;&gt;Node27</title>
<path fill="none" stroke="#191970" d="M718.5846,-358.3733C753.6016,-348.9001 807.1881,-334.4032 845.1125,-324.1435"/>
<polygon fill="#191970" stroke="#191970" points="846.1408,-327.4912 854.8798,-321.5011 844.3127,-320.7341 846.1408,-327.4912"/>
</g>
<!-- Node28&#45;&gt;Node29 -->
<g id="edge37" class="edge">
<title>Node28&#45;&gt;Node29</title>
<path fill="none" stroke="#191970" d="M666.2039,-358.4509C631.6747,-338.8201 552.533,-293.8259 511.5875,-270.5472"/>
<polygon fill="#191970" stroke="#191970" points="513.1767,-267.4247 502.7536,-265.5249 509.717,-273.51 513.1767,-267.4247"/>
</g>
<!-- Node29&#45;&gt;Node4 -->
<g id="edge39" class="edge">
<title>Node29&#45;&gt;Node4</title>
<path fill="none" stroke="#191970" d="M468.9297,-246.2455C453.753,-237.5731 431.3379,-224.7645 413.9437,-214.825"/>
<polygon fill="#191970" stroke="#191970" points="415.2936,-211.5653 404.8747,-209.6427 411.8206,-217.643 415.2936,-211.5653"/>
</g>
<!-- Node30 -->
<g id="node31" class="node">
<title>Node30</title>
<g id="a_node31"><a xlink:href="../../d0/dda/DataFormats_2Detectors_2TPC_2include_2DataFormatsTPC_2Constants_8h.html" target="_top" xlink:title="DataFormatsTPC/Constants.h">
<polygon fill="none" stroke="#000000" points="472.5,-190.5 472.5,-209.5 631.5,-209.5 631.5,-190.5 472.5,-190.5"/>
<text text-anchor="middle" x="552" y="-197.5" font-family="Helvetica,sans-Serif" font-size="10.00" fill="#000000">DataFormatsTPC/Constants.h</text>
</a>
</g>
</g>
<!-- Node29&#45;&gt;Node30 -->
<g id="edge38" class="edge">
<title>Node29&#45;&gt;Node30</title>
<path fill="none" stroke="#191970" d="M497.4963,-246.2455C507.2442,-237.9746 521.4259,-225.9416 532.8798,-216.2232"/>
<polygon fill="#191970" stroke="#191970" points="535.2747,-218.7813 540.6354,-209.6427 530.7459,-213.4437 535.2747,-218.7813"/>
</g>
<!-- Node31&#45;&gt;Node4 -->
<g id="edge42" class="edge">
<title>Node31&#45;&gt;Node4</title>
<path fill="none" stroke="#191970" d="M168.231,-414.3209C169.2401,-392.0885 174.5383,-336.6277 202,-302 238.6225,-255.821 302.1444,-227.5173 344.6225,-212.7864"/>
<polygon fill="#191970" stroke="#191970" points="345.7778,-216.0906 354.1432,-209.589 343.5492,-209.4548 345.7778,-216.0906"/>
</g>
<!-- Node31&#45;&gt;Node27 -->
<g id="edge46" class="edge">
<title>Node31&#45;&gt;Node27</title>
<path fill="none" stroke="#191970" d="M231.6649,-415.7726C298.1934,-407.0235 405.5615,-392.4766 498,-378 549.2536,-369.9733 561.8554,-366.6939 613,-358 686.2944,-345.5409 770.5679,-331.6011 826.7271,-322.3665"/>
<polygon fill="#191970" stroke="#191970" points="827.5771,-325.7738 836.8771,-320.6984 826.4418,-318.8665 827.5771,-325.7738"/>
</g>
<!-- Node31&#45;&gt;Node32 -->
<g id="edge43" class="edge">
<title>Node31&#45;&gt;Node32</title>
<path fill="none" stroke="#191970" d="M175.5881,-414.4509C190.5636,-395.6054 224.1138,-353.3849 243.1399,-329.4419"/>
<polygon fill="#191970" stroke="#191970" points="245.9499,-331.5315 249.4311,-321.5249 240.4695,-327.1765 245.9499,-331.5315"/>
</g>
<!-- Node32&#45;&gt;Node4 -->
<g id="edge44" class="edge">
<title>Node32&#45;&gt;Node4</title>
<path fill="none" stroke="#191970" d="M268.169,-302.4509C290.5983,-283.2747 341.3357,-239.8962 369.0532,-216.1988"/>
<polygon fill="#191970" stroke="#191970" points="371.5329,-218.6835 376.8593,-209.5249 366.9841,-213.363 371.5329,-218.6835"/>
</g>
<!-- Node32&#45;&gt;Node29 -->
<g id="edge45" class="edge">
<title>Node32&#45;&gt;Node29</title>
<path fill="none" stroke="#191970" d="M296.1063,-302.4369C335.1332,-292.8932 395.1965,-278.2052 437.2962,-267.9101"/>
<polygon fill="#191970" stroke="#191970" points="438.1726,-271.299 447.055,-265.5237 436.5098,-264.4993 438.1726,-271.299"/>
</g>
<!-- Node33&#45;&gt;Node4 -->
<g id="edge48" class="edge">
<title>Node33&#45;&gt;Node4</title>
<path fill="none" stroke="#191970" d="M596.3207,-414.3172C596.7517,-384.6895 593.89,-294.3455 546,-246 532.296,-232.1657 488.3858,-220.0215 450.3244,-211.6901"/>
<polygon fill="#191970" stroke="#191970" points="450.7966,-208.2122 440.2865,-209.5495 449.3366,-215.0583 450.7966,-208.2122"/>
</g>
<!-- Node33&#45;&gt;Node27 -->
<g id="edge53" class="edge">
<title>Node33&#45;&gt;Node27</title>
<path fill="none" stroke="#191970" d="M635.5667,-414.4593C667.8987,-406.1944 714.5414,-393.1939 754,-378 793.2631,-362.8814 836.6842,-340.8159 863.6585,-326.4329"/>
<polygon fill="#191970" stroke="#191970" points="865.6651,-329.3278 872.8141,-321.5086 862.3493,-323.163 865.6651,-329.3278"/>
</g>
<!-- Node33&#45;&gt;Node28 -->
<g id="edge54" class="edge">
<title>Node33&#45;&gt;Node28</title>
<path fill="none" stroke="#191970" d="M611.1542,-414.2455C624.5027,-405.6534 644.1586,-393.0014 659.5383,-383.1018"/>
<polygon fill="#191970" stroke="#191970" points="661.5051,-385.9982 668.0194,-377.6427 657.7164,-380.1121 661.5051,-385.9982"/>
</g>
<!-- Node33&#45;&gt;Node34 -->
<g id="edge49" class="edge">
<title>Node33&#45;&gt;Node34</title>
<path fill="none" stroke="#191970" d="M569.6984,-414.3733C544.5872,-405.1822 506.5562,-391.2624 478.7128,-381.0713"/>
<polygon fill="#191970" stroke="#191970" points="479.5522,-377.6516 468.9584,-377.5011 477.1462,-384.2251 479.5522,-377.6516"/>
</g>
<!-- Node34&#45;&gt;Node4 -->
<g id="edge50" class="edge">
<title>Node34&#45;&gt;Node4</title>
<path fill="none" stroke="#191970" d="M439.8854,-358.4862C431.1535,-331.8144 406.3044,-255.9117 394.4478,-219.695"/>
<polygon fill="#191970" stroke="#191970" points="397.6551,-218.2426 391.2175,-209.8279 391.0026,-220.4205 397.6551,-218.2426"/>
</g>
<!-- Node34&#45;&gt;Node29 -->
<g id="edge51" class="edge">
<title>Node34&#45;&gt;Node29</title>
<path fill="none" stroke="#191970" d="M446.6662,-358.4509C453.7428,-340.0186 469.4045,-299.2254 478.6888,-275.043"/>
<polygon fill="#191970" stroke="#191970" points="482.0263,-276.115 482.3431,-265.5249 475.4914,-273.606 482.0263,-276.115"/>
</g>
<!-- Node34&#45;&gt;Node32 -->
<g id="edge52" class="edge">
<title>Node34&#45;&gt;Node32</title>
<path fill="none" stroke="#191970" d="M411.0255,-358.3733C379.8287,-348.9807 332.229,-334.6496 298.2068,-324.4064"/>
<polygon fill="#191970" stroke="#191970" points="299.1418,-321.0327 288.5573,-321.5011 297.1237,-327.7355 299.1418,-321.0327"/>
</g>
<!-- Node35&#45;&gt;Node17 -->
<g id="edge56" class="edge">
<title>Node35&#45;&gt;Node17</title>
<path fill="none" stroke="#191970" d="M1670.9231,-246.4248C1731.2035,-217.4534 1911.8492,-130.6334 1982.8688,-96.5007"/>
<polygon fill="#191970" stroke="#191970" points="1984.6415,-99.5321 1992.1384,-92.0457 1981.6092,-93.2229 1984.6415,-99.5321"/>
</g>
<!-- Node36&#45;&gt;Node1 -->
<g id="edge58" class="edge">
<title>Node36&#45;&gt;Node1</title>
<path fill="none" stroke="#191970" d="M843.9172,-414.4369C926.9328,-402.3932 1066.4174,-382.1571 1130.2576,-372.8953"/>
<polygon fill="#191970" stroke="#191970" points="1130.7996,-376.3534 1140.1935,-371.4538 1129.7945,-369.4259 1130.7996,-376.3534"/>
</g>
<!-- Node36&#45;&gt;Node4 -->
<g id="edge59" class="edge">
<title>Node36&#45;&gt;Node4</title>
<path fill="none" stroke="#191970" d="M776.6037,-414.4785C774.1594,-400.6795 767.9691,-374.9265 754,-358 692.3362,-283.2815 656.3959,-283.3318 567,-246 529.9464,-230.5264 486.3434,-219.1885 451.4493,-211.6406"/>
<polygon fill="#191970" stroke="#191970" points="451.8925,-208.1571 441.3851,-209.5158 450.4465,-215.0061 451.8925,-208.1571"/>
</g>
<!-- Node36&#45;&gt;Node27 -->
<g id="edge60" class="edge">
<title>Node36&#45;&gt;Node27</title>
<path fill="none" stroke="#191970" d="M788.1378,-414.1828C797.6924,-404.9056 812.3859,-390.5748 825,-378 841.5665,-361.4851 860.2912,-342.4305 873.3735,-329.0537"/>
<polygon fill="#191970" stroke="#191970" points="875.8815,-331.4951 880.3653,-321.8958 870.8739,-326.6038 875.8815,-331.4951"/>
</g>
<!-- Node38&#45;&gt;Node1 -->
<g id="edge68" class="edge">
<title>Node38&#45;&gt;Node1</title>
<path fill="none" stroke="#191970" d="M677.7369,-542.9345C738.3362,-528.3286 847.0887,-502.0361 849,-501 866.6907,-491.4095 864.0357,-479.0677 882,-470 961.4569,-429.8929 997.7478,-470.3325 1079,-434 1105.4336,-422.18 1131.0151,-400.4816 1147.0878,-385.198"/>
<polygon fill="#191970" stroke="#191970" points="1149.874,-387.369 1154.5802,-377.8767 1144.9817,-382.3624 1149.874,-387.369"/>
</g>
<!-- Node38&#45;&gt;Node2 -->
<g id="edge67" class="edge">
<title>Node38&#45;&gt;Node2</title>
<path fill="none" stroke="#191970" d="M674.27,-542.9759C683.5846,-540.7715 693.6234,-538.6046 703,-537 853.6499,-511.22 893.9464,-524.2983 1045,-501 1057.0433,-499.1425 1070.0687,-496.6614 1081.877,-494.2297"/>
<polygon fill="#191970" stroke="#191970" points="1082.8212,-497.6077 1091.8855,-492.1224 1081.3789,-490.7579 1082.8212,-497.6077"/>
</g>
<!-- Node38&#45;&gt;Node19 -->
<g id="edge69" class="edge">
<title>Node38&#45;&gt;Node19</title>
<path fill="none" stroke="#191970" d="M605.4822,-542.9762C576.8608,-533.9898 534.4917,-519.1975 500,-501 478.8424,-489.8374 475.7761,-483.4593 456,-470 440.6646,-459.563 423.2316,-448.1058 409.5992,-439.2366"/>
<polygon fill="#191970" stroke="#191970" points="411.135,-436.0609 400.8409,-433.5541 407.3249,-441.9332 411.135,-436.0609"/>
</g>
<!-- Node38&#45;&gt;Node20 -->
<g id="edge72" class="edge">
<title>Node38&#45;&gt;Node20</title>
<path fill="none" stroke="#191970" d="M676.0531,-542.9566C684.8746,-540.8748 694.2439,-538.7681 703,-537 798.8285,-517.6499 824.1715,-520.3501 920,-501 925.4726,-499.8949 931.1847,-498.6576 936.8528,-497.3768"/>
<polygon fill="#191970" stroke="#191970" points="937.9921,-500.7058 946.9469,-495.0434 936.4155,-493.8856 937.9921,-500.7058"/>
</g>
<!-- Node38&#45;&gt;Node23 -->
<g id="edge73" class="edge">
<title>Node38&#45;&gt;Node23</title>
<path fill="none" stroke="#191970" d="M677.1324,-542.9301C685.6466,-540.9146 694.6152,-538.8423 703,-537 782.258,-519.5857 807.452,-533.0576 882,-501 903.9759,-491.5498 903.4609,-478.0147 926,-470 1034.511,-431.4147 1328.334,-444.7312 1443,-434 1455.1358,-432.8643 1468.2217,-431.4296 1480.4029,-430.0042"/>
<polygon fill="#191970" stroke="#191970" points="1480.8656,-433.4739 1490.3815,-428.8158 1480.0378,-426.523 1480.8656,-433.4739"/>
</g>
<!-- Node38&#45;&gt;Node24 -->
<g id="edge74" class="edge">
<title>Node38&#45;&gt;Node24</title>
<path fill="none" stroke="#191970" d="M627.1111,-542.9005C615.0338,-532.2535 595.3329,-514.8856 580.76,-502.0385"/>
<polygon fill="#191970" stroke="#191970" points="582.6846,-499.0692 572.8687,-495.0817 578.0555,-504.3201 582.6846,-499.0692"/>
</g>
<!-- Node39 -->
<g id="node40" class="node">
<title>Node39</title>
<polygon fill="none" stroke="#bfbfbf" points="634,-476 634,-495 678,-495 678,-476 634,-476"/>
<text text-anchor="middle" x="656" y="-483" font-family="Helvetica,sans-Serif" font-size="10.00" fill="#000000">Vc/Vc</text>
</g>
<!-- Node38&#45;&gt;Node39 -->
<g id="edge66" class="edge">
<title>Node38&#45;&gt;Node39</title>
<path fill="none" stroke="#191970" d="M640.579,-542.9005C643.2255,-533.0495 647.4177,-517.4451 650.7636,-504.9912"/>
<polygon fill="#191970" stroke="#191970" points="654.2113,-505.6473 653.4258,-495.0817 647.451,-503.8311 654.2113,-505.6473"/>
</g>
<!-- Node40 -->
<g id="node41" class="node">
<title>Node40</title>
<polygon fill="none" stroke="#bfbfbf" points="696,-476 696,-495 752,-495 752,-476 696,-476"/>
<text text-anchor="middle" x="724" y="-483" font-family="Helvetica,sans-Serif" font-size="10.00" fill="#000000">numeric</text>
</g>
<!-- Node38&#45;&gt;Node40 -->
<g id="edge70" class="edge">
<title>Node38&#45;&gt;Node40</title>
<path fill="none" stroke="#191970" d="M650.3217,-542.9005C664.2435,-532.0544 687.1176,-514.2339 703.69,-501.3229"/>
<polygon fill="#191970" stroke="#191970" points="705.9636,-503.9885 711.7012,-495.0817 701.6615,-498.4664 705.9636,-503.9885"/>
</g>
<!-- Node41 -->
<g id="node42" class="node">
<title>Node41</title>
<polygon fill="none" stroke="#bfbfbf" points="770.5,-476 770.5,-495 839.5,-495 839.5,-476 770.5,-476"/>
<text text-anchor="middle" x="805" y="-483" font-family="Helvetica,sans-Serif" font-size="10.00" fill="#000000">type_traits</text>
</g>
<!-- Node38&#45;&gt;Node41 -->
<g id="edge71" class="edge">
<title>Node38&#45;&gt;Node41</title>
<path fill="none" stroke="#191970" d="M661.927,-542.9005C690.6975,-531.3579 739.1564,-511.9163 771.6017,-498.8993"/>
<polygon fill="#191970" stroke="#191970" points="773.1397,-502.0535 781.1174,-495.0817 770.5332,-495.5569 773.1397,-502.0535"/>
</g>
<!-- Node42&#45;&gt;Node1 -->
<g id="edge79" class="edge">
<title>Node42&#45;&gt;Node1</title>
<path fill="none" stroke="#191970" d="M1258.051,-727.4116C1262.9676,-714.3963 1269.9107,-690.5216 1264,-671 1258.4276,-652.5955 1247.505,-652.7046 1240,-635 1200.7719,-542.4588 1229.3129,-507.3298 1192,-414 1188.1166,-404.2866 1182.279,-394.2766 1176.9372,-386.0849"/>
<polygon fill="#191970" stroke="#191970" points="1179.7662,-384.0209 1171.2475,-377.7215 1173.9786,-387.9583 1179.7662,-384.0209"/>
</g>
<!-- Node42&#45;&gt;Node2 -->
<g id="edge80" class="edge">
<title>Node42&#45;&gt;Node2</title>
<path fill="none" stroke="#191970" d="M1202.6518,-727.4847C1165.3472,-719.4058 1119.4731,-706.6439 1108,-691 1066.4687,-634.3709 1096.3317,-543.6438 1112.4738,-504.4958"/>
<polygon fill="#191970" stroke="#191970" points="1115.6935,-505.8681 1116.4118,-495.2977 1109.2584,-503.1131 1115.6935,-505.8681"/>
</g>
<!-- Node42&#45;&gt;Node4 -->
<g id="edge86" class="edge">
<title>Node42&#45;&gt;Node4</title>
<path fill="none" stroke="#191970" d="M1168.546,-735.011C1056.6847,-731.2871 854.8667,-720.7151 685,-691 479.9201,-655.125 427.9333,-641.115 233,-568 132.1259,-530.1644 38,-531.7363 38,-424 38,-424 38,-424 38,-312 38,-265.9062 76.0884,-265.1848 118,-246 151.5682,-230.6343 243.7507,-216.985 311.0913,-208.6232"/>
<polygon fill="#191970" stroke="#191970" points="311.7544,-212.0682 321.2544,-207.3777 310.9029,-205.1202 311.7544,-212.0682"/>
</g>
<!-- Node42&#45;&gt;Node15 -->
<g id="edge84" class="edge">
<title>Node42&#45;&gt;Node15</title>
<path fill="none" stroke="#191970" d="M1339.0581,-736.6393C1580.388,-735.1741 2290.0032,-727.8065 2878,-691 3042.2253,-680.7201 3615,-784.0467 3615,-619.5 3615,-619.5 3615,-619.5 3615,-200 3615,-163.7454 3598.4195,-124.1181 3587.163,-101.3929"/>
<polygon fill="#191970" stroke="#191970" points="3590.1292,-99.5073 3582.4445,-92.2137 3583.9035,-102.7076 3590.1292,-99.5073"/>
</g>
<!-- Node42&#45;&gt;Node24 -->
<g id="edge87" class="edge">
<title>Node42&#45;&gt;Node24</title>
<path fill="none" stroke="#191970" d="M1168.7463,-727.4687C1025.1158,-710.6088 741.5132,-673.6421 649,-635 601.9931,-615.3655 579.2185,-613.3438 556,-568 545.864,-548.2052 550.1865,-522.1699 555.1841,-504.6876"/>
<polygon fill="#191970" stroke="#191970" points="558.5569,-505.6305 558.2598,-495.0399 551.8877,-503.5043 558.5569,-505.6305"/>
</g>
<!-- Node42&#45;&gt;Node31 -->
<g id="edge88" class="edge">
<title>Node42&#45;&gt;Node31</title>
<path fill="none" stroke="#191970" d="M1168.8126,-732.7774C1074.9367,-727.1542 919.769,-714.9907 788,-691 693.3898,-673.7747 669.2461,-668.2181 579,-635 448.778,-587.0674 419.3791,-566.4115 297,-501 259.5095,-480.9614 217.4683,-455.2276 191.867,-439.1727"/>
<polygon fill="#191970" stroke="#191970" points="193.5443,-436.0928 183.2176,-433.7241 189.8132,-442.0156 193.5443,-436.0928"/>
</g>
<!-- Node43 -->
<g id="node44" class="node">
<title>Node43</title>
<polygon fill="none" stroke="#bfbfbf" points="1017,-671.5 1017,-690.5 1061,-690.5 1061,-671.5 1017,-671.5"/>
<text text-anchor="middle" x="1039" y="-678.5" font-family="Helvetica,sans-Serif" font-size="10.00" fill="#000000">limits</text>
</g>
<!-- Node42&#45;&gt;Node43 -->
<g id="edge78" class="edge">
<title>Node42&#45;&gt;Node43</title>
<path fill="none" stroke="#191970" d="M1215.8827,-727.4325C1179.606,-718.273 1123.511,-703.9696 1075,-691 1073.731,-690.6607 1072.4375,-690.3126 1071.1314,-689.959"/>
<polygon fill="#191970" stroke="#191970" points="1071.6356,-686.4683 1061.0662,-687.2024 1069.7865,-693.2197 1071.6356,-686.4683"/>
</g>
<!-- Node44 -->
<g id="node45" class="node">
<title>Node44</title>
<polygon fill="none" stroke="#bfbfbf" points="2245,-414.5 2245,-433.5 2309,-433.5 2309,-414.5 2245,-414.5"/>
<text text-anchor="middle" x="2277" y="-421.5" font-family="Helvetica,sans-Serif" font-size="10.00" fill="#000000">algorithm</text>
</g>
<!-- Node42&#45;&gt;Node44 -->
<g id="edge81" class="edge">
<title>Node42&#45;&gt;Node44</title>
<path fill="none" stroke="#191970" d="M1339.0265,-734.3923C1643.87,-724.4905 2664,-686.3602 2664,-619.5 2664,-619.5 2664,-619.5 2664,-552.5 2664,-506.8989 2642.3674,-493.0144 2603,-470 2494.0941,-406.333 2443.6016,-456.2679 2319.1074,-434.8194"/>
<polygon fill="#191970" stroke="#191970" points="2319.6937,-431.3686 2309.2244,-432.9945 2318.4226,-438.2522 2319.6937,-431.3686"/>
</g>
<!-- Node45 -->
<g id="node46" class="node">
<title>Node45</title>
<polygon fill="none" stroke="#bfbfbf" points="3124.5,-414.5 3124.5,-433.5 3181.5,-433.5 3181.5,-414.5 3124.5,-414.5"/>
<text text-anchor="middle" x="3153" y="-421.5" font-family="Helvetica,sans-Serif" font-size="10.00" fill="#000000">gsl/span</text>
</g>
<!-- Node42&#45;&gt;Node45 -->
<g id="edge82" class="edge">
<title>Node42&#45;&gt;Node45</title>
<path fill="none" stroke="#191970" d="M1339.4382,-736.2767C1608.5556,-733.6849 2436.5792,-723.2332 2703,-691 2855.0033,-672.6097 3040,-772.6118 3040,-619.5 3040,-619.5 3040,-619.5 3040,-552.5 3040,-500.4984 3092.8309,-459.5326 3126.2452,-438.8232"/>
<polygon fill="#191970" stroke="#191970" points="3128.3115,-441.6655 3135.0948,-433.5269 3124.7167,-435.659 3128.3115,-441.6655"/>
</g>
<!-- Node46 -->
<g id="node47" class="node">
<title>Node46</title>
<polygon fill="none" stroke="#bfbfbf" points="1117,-671.5 1117,-690.5 1177,-690.5 1177,-671.5 1117,-671.5"/>
<text text-anchor="middle" x="1147" y="-678.5" font-family="Helvetica,sans-Serif" font-size="10.00" fill="#000000">TString.h</text>
</g>
<!-- Node42&#45;&gt;Node46 -->
<g id="edge83" class="edge">
<title>Node42&#45;&gt;Node46</title>
<path fill="none" stroke="#191970" d="M1235.362,-727.2455C1218.5614,-718.4527 1193.6366,-705.4079 1174.5382,-695.4125"/>
<polygon fill="#191970" stroke="#191970" points="1175.9073,-692.1787 1165.4244,-690.6427 1172.6614,-698.3807 1175.9073,-692.1787"/>
</g>
<!-- Node47 -->
<g id="node48" class="node">
<title>Node47</title>
<polygon fill="none" stroke="#bfbfbf" points="1195.5,-671.5 1195.5,-690.5 1254.5,-690.5 1254.5,-671.5 1195.5,-671.5"/>
<text text-anchor="middle" x="1225" y="-678.5" font-family="Helvetica,sans-Serif" font-size="10.00" fill="#000000">TChain.h</text>
</g>
<!-- Node42&#45;&gt;Node47 -->
<g id="edge85" class="edge">
<title>Node42&#45;&gt;Node47</title>
<path fill="none" stroke="#191970" d="M1248.9486,-727.2455C1244.9981,-719.617 1239.3903,-708.7881 1234.5942,-699.5267"/>
<polygon fill="#191970" stroke="#191970" points="1237.7001,-697.9131 1229.9935,-690.6427 1231.4841,-701.1321 1237.7001,-697.9131"/>
</g>
<!-- Node48 -->
<g id="node49" class="node">
<title>Node48</title>
<g id="a_node49"><a xlink:href="../../db/d52/GBTFrameContainer_8h.html" target="_top" xlink:title="Container class for the GBT Frames. ">
<polygon fill="none" stroke="#000000" points="1897.5,-537.5 1897.5,-567.5 2058.5,-567.5 2058.5,-537.5 1897.5,-537.5"/>
<text text-anchor="start" x="1905.5" y="-555.5" font-family="Helvetica,sans-Serif" font-size="10.00" fill="#000000">TPCReconstruction/GBTFrame</text>
<text text-anchor="middle" x="1978" y="-544.5" font-family="Helvetica,sans-Serif" font-size="10.00" fill="#000000">Container.h</text>
</a>
</g>
</g>
<!-- Node42&#45;&gt;Node48 -->
<g id="edge89" class="edge">
<title>Node42&#45;&gt;Node48</title>
<path fill="none" stroke="#191970" d="M1321.1942,-727.4982C1374.6028,-719.4061 1451.033,-706.6201 1517,-691 1666.6013,-655.5765 1839.2559,-599.5419 1924.575,-570.8124"/>
<polygon fill="#191970" stroke="#191970" points="1925.9371,-574.0466 1934.2918,-567.5312 1923.6976,-567.4146 1925.9371,-574.0466"/>
</g>
<!-- Node66 -->
<g id="node67" class="node">
<title>Node66</title>
<g id="a_node67"><a xlink:href="../../d3/d11/RawReader_8h.html" target="_top" xlink:title="TPCReconstruction/RawReader.h">
<polygon fill="none" stroke="#000000" points="1311.5,-671.5 1311.5,-690.5 1484.5,-690.5 1484.5,-671.5 1311.5,-671.5"/>
<text text-anchor="middle" x="1398" y="-678.5" font-family="Helvetica,sans-Serif" font-size="10.00" fill="#000000">TPCReconstruction/RawReader.h</text>
</a>
</g>
</g>
<!-- Node42&#45;&gt;Node66 -->
<g id="edge127" class="edge">
<title>Node42&#45;&gt;Node66</title>
<path fill="none" stroke="#191970" d="M1278.7545,-727.3733C1302.2849,-718.2226 1337.8687,-704.3844 1364.0426,-694.2057"/>
<polygon fill="#191970" stroke="#191970" points="1365.5171,-697.3877 1373.5685,-690.5011 1362.9799,-690.8636 1365.5171,-697.3877"/>
</g>
<!-- Node69 -->
<g id="node70" class="node">
<title>Node69</title>
<g id="a_node70"><a xlink:href="../../d6/dbe/RawReaderEventSync_8h.html" target="_top" xlink:title="TPCReconstruction/RawReader\lEventSync.h">
<polygon fill="none" stroke="#000000" points="1456.5,-604.5 1456.5,-634.5 1621.5,-634.5 1621.5,-604.5 1456.5,-604.5"/>
<text text-anchor="start" x="1464.5" y="-622.5" font-family="Helvetica,sans-Serif" font-size="10.00" fill="#000000">TPCReconstruction/RawReader</text>
<text text-anchor="middle" x="1539" y="-611.5" font-family="Helvetica,sans-Serif" font-size="10.00" fill="#000000">EventSync.h</text>
</a>
</g>
</g>
<!-- Node42&#45;&gt;Node69 -->
<g id="edge159" class="edge">
<title>Node42&#45;&gt;Node69</title>
<path fill="none" stroke="#191970" d="M1339.2849,-727.905C1397.7533,-720.3269 1469.0823,-708.0185 1494,-691 1510.6499,-679.6284 1522.3942,-659.8522 1529.7003,-643.9768"/>
<polygon fill="#191970" stroke="#191970" points="1532.9514,-645.276 1533.6801,-634.7062 1526.5191,-642.5146 1532.9514,-645.276"/>
</g>
<!-- Node70 -->
<g id="node71" class="node">
<title>Node70</title>
<g id="a_node71"><a xlink:href="../../df/d86/RawReaderCRU_8h.html" target="_top" xlink:title="TPCReconstruction/RawReader\lCRU.h">
<polygon fill="none" stroke="#000000" points="2692.5,-470.5 2692.5,-500.5 2857.5,-500.5 2857.5,-470.5 2692.5,-470.5"/>
<text text-anchor="start" x="2700.5" y="-488.5" font-family="Helvetica,sans-Serif" font-size="10.00" fill="#000000">TPCReconstruction/RawReader</text>
<text text-anchor="middle" x="2775" y="-477.5" font-family="Helvetica,sans-Serif" font-size="10.00" fill="#000000">CRU.h</text>
</a>
</g>
</g>
<!-- Node42&#45;&gt;Node70 -->
<g id="edge139" class="edge">
<title>Node42&#45;&gt;Node70</title>
<path fill="none" stroke="#191970" d="M1339.1727,-736.6866C1637.738,-735.2728 2621.9165,-727.8273 2678,-691 2740.9115,-649.6891 2763.926,-555.8297 2771.5698,-510.6805"/>
<polygon fill="#191970" stroke="#191970" points="2775.0648,-510.9851 2773.1608,-500.5627 2768.1498,-509.8976 2775.0648,-510.9851"/>
</g>
<!-- Node48&#45;&gt;Node1 -->
<g id="edge118" class="edge">
<title>Node48&#45;&gt;Node1</title>
<path fill="none" stroke="#191970" d="M1897.4455,-548.0934C1767.5704,-540.3839 1523.0432,-523.1393 1490,-501 1453.4892,-476.5374 1478.7828,-439.5157 1443,-414 1404.191,-386.3264 1263.7222,-374.1681 1198.1529,-369.9102"/>
<polygon fill="#191970" stroke="#191970" points="1198.1279,-366.4019 1187.929,-369.2712 1197.6912,-373.3882 1198.1279,-366.4019"/>
</g>
<!-- Node48&#45;&gt;Node17 -->
<g id="edge124" class="edge">
<title>Node48&#45;&gt;Node17</title>
<path fill="none" stroke="#191970" d="M2058.8347,-550.9033C2331.9344,-545.3052 3210.2335,-525.5711 3335,-501 3419.9808,-484.2642 3456.5167,-495.0051 3518,-434 3574.5474,-377.8924 3539,-335.6598 3539,-256 3539,-256 3539,-256 3539,-200 3539,-122.5433 2273.5056,-88.7351 2046.6141,-83.2961"/>
<polygon fill="#191970" stroke="#191970" points="2046.6843,-79.7969 2036.604,-83.0585 2046.5181,-86.7949 2046.6843,-79.7969"/>
</g>
<!-- Node48&#45;&gt;Node23 -->
<g id="edge126" class="edge">
<title>Node48&#45;&gt;Node23</title>
<path fill="none" stroke="#191970" d="M1897.3557,-549.5633C1768.2481,-544.0232 1526.9453,-529.8973 1501,-501 1486.0098,-484.3043 1499.9047,-458.7922 1512.6798,-441.7646"/>
<polygon fill="#191970" stroke="#191970" points="1515.5944,-443.7236 1519.0993,-433.7253 1510.1244,-439.3557 1515.5944,-443.7236"/>
</g>
<!-- Node48&#45;&gt;Node24 -->
<g id="edge100" class="edge">
<title>Node48&#45;&gt;Node24</title>
<path fill="none" stroke="#191970" d="M1897.2732,-549.8805C1615.3282,-540.6724 688.1046,-509.8698 625,-501 618.6317,-500.1049 611.9705,-498.8381 605.4636,-497.4099"/>
<polygon fill="#191970" stroke="#191970" points="605.9643,-493.9326 595.43,-495.063 604.37,-500.7487 605.9643,-493.9326"/>
</g>
<!-- Node48&#45;&gt;Node26 -->
<g id="edge120" class="edge">
<title>Node48&#45;&gt;Node26</title>
<path fill="none" stroke="#191970" d="M1933.5064,-537.3028C1915.9062,-529.1517 1897.0421,-517.3447 1885,-501 1872.7608,-484.3878 1869.3961,-460.5552 1868.6934,-443.8162"/>
<polygon fill="#191970" stroke="#191970" points="1872.1894,-443.4891 1868.5558,-433.5369 1865.1901,-443.5829 1872.1894,-443.4891"/>
</g>
<!-- Node49 -->
<g id="node50" class="node">
<title>Node49</title>
<g id="a_node50"><a xlink:href="../../d0/d4f/Detectors_2TPC_2base_2include_2TPCBase_2Digit_8h.html" target="_top" xlink:title="TPCBase/Digit.h">
<polygon fill="none" stroke="#000000" points="3230.5,-476 3230.5,-495 3325.5,-495 3325.5,-476 3230.5,-476"/>
<text text-anchor="middle" x="3278" y="-483" font-family="Helvetica,sans-Serif" font-size="10.00" fill="#000000">TPCBase/Digit.h</text>
</a>
</g>
</g>
<!-- Node48&#45;&gt;Node49 -->
<g id="edge90" class="edge">
<title>Node48&#45;&gt;Node49</title>
<path fill="none" stroke="#191970" d="M2058.8296,-548.3342C2300.218,-535.8934 3011.9533,-499.2116 3220.1646,-488.4807"/>
<polygon fill="#191970" stroke="#191970" points="3220.4678,-491.9699 3230.2743,-487.9597 3220.1074,-484.9791 3220.4678,-491.9699"/>
</g>
<!-- Node56 -->
<g id="node57" class="node">
<title>Node56</title>
<g id="a_node57"><a xlink:href="../../d5/d41/AdcClockMonitor_8h.html" target="_top" xlink:title="Class to monitor the ADC smapling clock contained in the GBT frame. ">
<polygon fill="none" stroke="#000000" points="2404.5,-470.5 2404.5,-500.5 2559.5,-500.5 2559.5,-470.5 2404.5,-470.5"/>
<text text-anchor="start" x="2412.5" y="-488.5" font-family="Helvetica,sans-Serif" font-size="10.00" fill="#000000">TPCReconstruction/AdcClock</text>
<text text-anchor="middle" x="2482" y="-477.5" font-family="Helvetica,sans-Serif" font-size="10.00" fill="#000000">Monitor.h</text>
</a>
</g>
</g>
<!-- Node48&#45;&gt;Node56 -->
<g id="edge101" class="edge">
<title>Node48&#45;&gt;Node56</title>
<path fill="none" stroke="#191970" d="M2058.7057,-543.9066C2140.8034,-534.8575 2271.9294,-519.56 2394.2955,-501.2165"/>
<polygon fill="#191970" stroke="#191970" points="2394.8507,-504.6724 2404.2166,-499.7196 2393.8063,-497.7508 2394.8507,-504.6724"/>
</g>
<!-- Node57 -->
<g id="node58" class="node">
<title>Node57</title>
<polygon fill="none" stroke="#bfbfbf" points="2097,-414.5 2097,-433.5 2153,-433.5 2153,-414.5 2097,-414.5"/>
<text text-anchor="middle" x="2125" y="-421.5" font-family="Helvetica,sans-Serif" font-size="10.00" fill="#000000">iomanip</text>
</g>
<!-- Node48&#45;&gt;Node57 -->
<g id="edge125" class="edge">
<title>Node48&#45;&gt;Node57</title>
<path fill="none" stroke="#191970" d="M2058.6703,-551.3919C2212.4211,-548.4385 2535.2033,-537.8698 2569,-501 2578.3099,-490.8436 2578.3022,-480.1635 2569,-470 2538.4234,-436.5922 2207.613,-441.7905 2163,-434 2162.8992,-433.9824 2162.7983,-433.9647 2162.6972,-433.9468"/>
<polygon fill="#191970" stroke="#191970" points="2163.6067,-430.5609 2153.1048,-431.9616 2162.188,-437.4156 2163.6067,-430.5609"/>
</g>
<!-- Node58 -->
<g id="node59" class="node">
<title>Node58</title>
<g id="a_node59"><a xlink:href="../../dc/dea/GBTFrame_8h.html" target="_top" xlink:title="GBT Frame object. ">
<polygon fill="none" stroke="#000000" points="2080,-476 2080,-495 2250,-495 2250,-476 2080,-476"/>
<text text-anchor="middle" x="2165" y="-483" font-family="Helvetica,sans-Serif" font-size="10.00" fill="#000000">TPCReconstruction/GBTFrame.h</text>
</a>
</g>
</g>
<!-- Node48&#45;&gt;Node58 -->
<g id="edge105" class="edge">
<title>Node48&#45;&gt;Node58</title>
<path fill="none" stroke="#191970" d="M2019.9665,-537.4639C2052.7118,-525.7316 2097.7208,-509.6054 2128.8752,-498.4431"/>
<polygon fill="#191970" stroke="#191970" points="2130.2369,-501.6732 2138.4703,-495.0053 2127.8758,-495.0834 2130.2369,-501.6732"/>
</g>
<!-- Node59 -->
<g id="node60" class="node">
<title>Node59</title>
<g id="a_node60"><a xlink:href="../../df/dc4/HalfSAMPAData_8h.html" target="_top" xlink:title="Class for data from one half SAMPA. ">
<polygon fill="none" stroke="#000000" points="1642,-476 1642,-495 1838,-495 1838,-476 1642,-476"/>
<text text-anchor="middle" x="1740" y="-483" font-family="Helvetica,sans-Serif" font-size="10.00" fill="#000000">TPCReconstruction/HalfSAMPAData.h</text>
</a>
</g>
</g>
<!-- Node48&#45;&gt;Node59 -->
<g id="edge110" class="edge">
<title>Node48&#45;&gt;Node59</title>
<path fill="none" stroke="#191970" d="M1924.5882,-537.4639C1882.0101,-525.4776 1823.1409,-508.9052 1783.4274,-497.7254"/>
<polygon fill="#191970" stroke="#191970" points="1784.3394,-494.3461 1773.765,-495.0053 1782.4424,-501.0842 1784.3394,-494.3461"/>
</g>
<!-- Node60 -->
<g id="node61" class="node">
<title>Node60</title>
<g id="a_node61"><a xlink:href="../../d1/df0/SyncPatternMonitor_8h.html" target="_top" xlink:title="Class to monitor the data stream and detect synchronization patterns. ">
<polygon fill="none" stroke="#000000" points="1894,-470.5 1894,-500.5 2062,-500.5 2062,-470.5 1894,-470.5"/>
<text text-anchor="start" x="1902" y="-488.5" font-family="Helvetica,sans-Serif" font-size="10.00" fill="#000000">TPCReconstruction/SyncPattern</text>
<text text-anchor="middle" x="1978" y="-477.5" font-family="Helvetica,sans-Serif" font-size="10.00" fill="#000000">Monitor.h</text>
</a>
</g>
</g>
<!-- Node48&#45;&gt;Node60 -->
<g id="edge112" class="edge">
<title>Node48&#45;&gt;Node60</title>
<path fill="none" stroke="#191970" d="M1978,-537.2967C1978,-529.5013 1978,-519.7991 1978,-510.9064"/>
<polygon fill="#191970" stroke="#191970" points="1981.5001,-510.6431 1978,-500.6432 1974.5001,-510.6432 1981.5001,-510.6431"/>
</g>
<!-- Node61 -->
<g id="node62" class="node">
<title>Node61</title>
<polygon fill="none" stroke="#bfbfbf" points="2268.5,-476 2268.5,-495 2321.5,-495 2321.5,-476 2268.5,-476"/>
<text text-anchor="middle" x="2295" y="-483" font-family="Helvetica,sans-Serif" font-size="10.00" fill="#000000">iterator</text>
</g>
<!-- Node48&#45;&gt;Node61 -->
<g id="edge117" class="edge">
<title>Node48&#45;&gt;Node61</title>
<path fill="none" stroke="#191970" d="M2058.7796,-542.6202C2115.566,-534.4871 2192.8975,-521.008 2259,-501 2261.1696,-500.3433 2263.3842,-499.595 2265.5952,-498.7902"/>
<polygon fill="#191970" stroke="#191970" points="2267.1151,-501.9525 2275.1162,-495.0076 2264.5305,-495.4471 2267.1151,-501.9525"/>
</g>
<!-- Node62 -->
<g id="node63" class="node">
<title>Node62</title>
<polygon fill="none" stroke="#bfbfbf" points="2339.5,-476 2339.5,-495 2386.5,-495 2386.5,-476 2339.5,-476"/>
<text text-anchor="middle" x="2363" y="-483" font-family="Helvetica,sans-Serif" font-size="10.00" fill="#000000">queue</text>
</g>
<!-- Node48&#45;&gt;Node62 -->
<g id="edge119" class="edge">
<title>Node48&#45;&gt;Node62</title>
<path fill="none" stroke="#191970" d="M2058.7476,-547.766C2131.3115,-541.8657 2240.1213,-528.9101 2331,-501 2332.8588,-500.4291 2334.7447,-499.7641 2336.6228,-499.0367"/>
<polygon fill="#191970" stroke="#191970" points="2338.0289,-502.2418 2345.7877,-495.0271 2335.2232,-495.8287 2338.0289,-502.2418"/>
</g>
<!-- Node63 -->
<g id="node64" class="node">
<title>Node63</title>
<polygon fill="none" stroke="#bfbfbf" points="1510,-476 1510,-495 1558,-495 1558,-476 1510,-476"/>
<text text-anchor="middle" x="1534" y="-483" font-family="Helvetica,sans-Serif" font-size="10.00" fill="#000000">mutex</text>
</g>
<!-- Node48&#45;&gt;Node63 -->
<g id="edge121" class="edge">
<title>Node48&#45;&gt;Node63</title>
<path fill="none" stroke="#191970" d="M1897.3254,-549.8552C1813.3459,-545.384 1678.7272,-533.3556 1567,-501 1565.0848,-500.4454 1563.1414,-499.7926 1561.2055,-499.0741"/>
<polygon fill="#191970" stroke="#191970" points="1562.3305,-495.75 1551.7565,-495.0858 1559.6083,-502.1991 1562.3305,-495.75"/>
</g>
<!-- Node64 -->
<g id="node65" class="node">
<title>Node64</title>
<polygon fill="none" stroke="#bfbfbf" points="1576,-476 1576,-495 1624,-495 1624,-476 1576,-476"/>
<text text-anchor="middle" x="1600" y="-483" font-family="Helvetica,sans-Serif" font-size="10.00" fill="#000000">thread</text>
</g>
<!-- Node48&#45;&gt;Node64 -->
<g id="edge122" class="edge">
<title>Node48&#45;&gt;Node64</title>
<path fill="none" stroke="#191970" d="M1897.4213,-547.13C1826.5613,-540.8469 1721.2551,-527.6874 1633,-501 1631.0915,-500.4229 1629.153,-499.7531 1627.2209,-499.0222"/>
<polygon fill="#191970" stroke="#191970" points="1628.3525,-495.7001 1617.7805,-495.0046 1625.6113,-502.1411 1628.3525,-495.7001"/>
</g>
<!-- Node65 -->
<g id="node66" class="node">
<title>Node65</title>
<polygon fill="none" stroke="#bfbfbf" points="2171.5,-414.5 2171.5,-433.5 2226.5,-433.5 2226.5,-414.5 2171.5,-414.5"/>
<text text-anchor="middle" x="2199" y="-421.5" font-family="Helvetica,sans-Serif" font-size="10.00" fill="#000000">fstream</text>
</g>
<!-- Node48&#45;&gt;Node65 -->
<g id="edge123" class="edge">
<title>Node48&#45;&gt;Node65</title>
<path fill="none" stroke="#191970" d="M2058.5552,-551.6085C2215.7189,-549.0287 2551.0134,-539.0754 2586,-501 2595.3222,-490.8548 2595.2305,-480.2286 2586,-470 2535.5613,-414.1072 2329.0303,-445.6827 2236.8968,-433.6183"/>
<polygon fill="#191970" stroke="#191970" points="2237.1929,-430.1219 2226.7697,-432.0215 2236.1025,-437.0364 2237.1929,-430.1219"/>
</g>
<!-- Node50 -->
<g id="node51" class="node">
<title>Node50</title>
<g id="a_node51"><a xlink:href="../../d2/d45/GPUCommonRtypes_8h.html" target="_top" xlink:title="GPUCommonRtypes.h">
<polygon fill="none" stroke="#000000" points="3404.5,-358.5 3404.5,-377.5 3529.5,-377.5 3529.5,-358.5 3404.5,-358.5"/>
<text text-anchor="middle" x="3467" y="-365.5" font-family="Helvetica,sans-Serif" font-size="10.00" fill="#000000">GPUCommonRtypes.h</text>
</a>
</g>
</g>
<!-- Node49&#45;&gt;Node50 -->
<g id="edge91" class="edge">
<title>Node49&#45;&gt;Node50</title>
<path fill="none" stroke="#191970" d="M3325.5684,-481.3929C3384.665,-475.1906 3480.3764,-461.1592 3502,-434 3514.1329,-418.7611 3499.9834,-398.6866 3486.2138,-384.6953"/>
<polygon fill="#191970" stroke="#191970" points="3488.4305,-381.9733 3478.7724,-377.6175 3483.6062,-387.0454 3488.4305,-381.9733"/>
</g>
<!-- Node51 -->
<g id="node52" class="node">
<title>Node51</title>
<g id="a_node52"><a xlink:href="../../df/d21/GPUCommonDef_8h.html" target="_top" xlink:title="GPUCommonDef.h">
<polygon fill="none" stroke="#000000" points="3260.5,-358.5 3260.5,-377.5 3367.5,-377.5 3367.5,-358.5 3260.5,-358.5"/>
<text text-anchor="middle" x="3314" y="-365.5" font-family="Helvetica,sans-Serif" font-size="10.00" fill="#000000">GPUCommonDef.h</text>
</a>
</g>
</g>
<!-- Node49&#45;&gt;Node51 -->
<g id="edge93" class="edge">
<title>Node49&#45;&gt;Node51</title>
<path fill="none" stroke="#191970" d="M3280.2934,-475.7016C3283.6059,-461.8483 3290.094,-435.7943 3297,-414 3299.821,-405.0974 3303.3455,-395.3789 3306.4528,-387.178"/>
<polygon fill="#191970" stroke="#191970" points="3309.7455,-388.3671 3310.0812,-377.7776 3303.215,-385.8464 3309.7455,-388.3671"/>
</g>
<!-- Node54 -->
<g id="node55" class="node">
<title>Node54</title>
<g id="a_node55"><a xlink:href="../../df/d5d/common_2include_2CommonDataFormat_2TimeStamp_8h.html" target="_top" xlink:title="CommonDataFormat/TimeStamp.h">
<polygon fill="none" stroke="#000000" points="3305.5,-414.5 3305.5,-433.5 3492.5,-433.5 3492.5,-414.5 3305.5,-414.5"/>
<text text-anchor="middle" x="3399" y="-421.5" font-family="Helvetica,sans-Serif" font-size="10.00" fill="#000000">CommonDataFormat/TimeStamp.h</text>
</a>
</g>
</g>
<!-- Node49&#45;&gt;Node54 -->
<g id="edge96" class="edge">
<title>Node49&#45;&gt;Node54</title>
<path fill="none" stroke="#191970" d="M3296.9063,-475.8906C3316.7966,-465.7811 3348.3123,-449.7628 3371.0692,-438.1962"/>
<polygon fill="#191970" stroke="#191970" points="3372.8978,-441.193 3380.2265,-433.5419 3369.726,-434.9528 3372.8978,-441.193"/>
</g>
<!-- Node55 -->
<g id="node56" class="node">
<title>Node55</title>
<polygon fill="none" stroke="#bfbfbf" points="3200,-414.5 3200,-433.5 3250,-433.5 3250,-414.5 3200,-414.5"/>
<text text-anchor="middle" x="3225" y="-421.5" font-family="Helvetica,sans-Serif" font-size="10.00" fill="#000000">climits</text>
</g>
<!-- Node49&#45;&gt;Node55 -->
<g id="edge99" class="edge">
<title>Node49&#45;&gt;Node55</title>
<path fill="none" stroke="#191970" d="M3269.7188,-475.8906C3261.8307,-466.7376 3249.7686,-452.7409 3240.1588,-441.59"/>
<polygon fill="#191970" stroke="#191970" points="3242.5775,-439.0352 3233.398,-433.7449 3237.2749,-443.6049 3242.5775,-439.0352"/>
</g>
<!-- Node50&#45;&gt;Node15 -->
<g id="edge92" class="edge">
<title>Node50&#45;&gt;Node15</title>
<path fill="none" stroke="#191970" d="M3487.9491,-358.4375C3519.8646,-342.2626 3577,-306.284 3577,-256 3577,-256 3577,-256 3577,-200 3577,-165.6399 3577,-125.628 3577,-102.2764"/>
<polygon fill="#191970" stroke="#191970" points="3580.5001,-102.2489 3577,-92.2489 3573.5001,-102.249 3580.5001,-102.2489"/>
</g>
<!-- Node52 -->
<g id="node53" class="node">
<title>Node52</title>
<g id="a_node53"><a xlink:href="../../d5/d93/GPUCommonDefSettings_8h.html" target="_top" xlink:title="GPUCommonDefSettings.h">
<polygon fill="none" stroke="#000000" points="3154,-302.5 3154,-321.5 3302,-321.5 3302,-302.5 3154,-302.5"/>
<text text-anchor="middle" x="3228" y="-309.5" font-family="Helvetica,sans-Serif" font-size="10.00" fill="#000000">GPUCommonDefSettings.h</text>
</a>
</g>
</g>
<!-- Node51&#45;&gt;Node52 -->
<g id="edge94" class="edge">
<title>Node51&#45;&gt;Node52</title>
<path fill="none" stroke="#191970" d="M3299.0199,-358.2455C3285.8249,-349.6534 3266.3949,-337.0014 3251.1921,-327.1018"/>
<polygon fill="#191970" stroke="#191970" points="3253.0983,-324.1665 3242.8084,-321.6427 3249.2785,-330.0325 3253.0983,-324.1665"/>
</g>
<!-- Node53 -->
<g id="node54" class="node">
<title>Node53</title>
<g id="a_node54"><a xlink:href="../../da/d5a/GPUCommonDefAPI_8h.html" target="_top" xlink:title="GPUCommonDefAPI.h">
<polygon fill="none" stroke="#000000" points="3320,-302.5 3320,-321.5 3444,-321.5 3444,-302.5 3320,-302.5"/>
<text text-anchor="middle" x="3382" y="-309.5" font-family="Helvetica,sans-Serif" font-size="10.00" fill="#000000">GPUCommonDefAPI.h</text>
</a>
</g>
</g>
<!-- Node51&#45;&gt;Node53 -->
<g id="edge95" class="edge">
<title>Node51&#45;&gt;Node53</title>
<path fill="none" stroke="#191970" d="M3325.8447,-358.2455C3335.888,-349.9746 3350.4995,-337.9416 3362.3004,-328.2232"/>
<polygon fill="#191970" stroke="#191970" points="3364.7967,-330.7015 3370.291,-321.6427 3360.3467,-325.298 3364.7967,-330.7015"/>
</g>
<!-- Node54&#45;&gt;Node50 -->
<g id="edge97" class="edge">
<title>Node54&#45;&gt;Node50</title>
<path fill="none" stroke="#191970" d="M3410.8447,-414.2455C3420.888,-405.9746 3435.4995,-393.9416 3447.3004,-384.2232"/>
<polygon fill="#191970" stroke="#191970" points="3449.7967,-386.7015 3455.291,-377.6427 3445.3467,-381.298 3449.7967,-386.7015"/>
</g>
<!-- Node54&#45;&gt;Node51 -->
<g id="edge98" class="edge">
<title>Node54&#45;&gt;Node51</title>
<path fill="none" stroke="#191970" d="M3384.1941,-414.2455C3371.2744,-405.7337 3352.3069,-393.2375 3337.3448,-383.3801"/>
<polygon fill="#191970" stroke="#191970" points="3338.9124,-380.2216 3328.6362,-377.6427 3335.0613,-386.067 3338.9124,-380.2216"/>
</g>
<!-- Node56&#45;&gt;Node17 -->
<g id="edge103" class="edge">
<title>Node56&#45;&gt;Node17</title>
<path fill="none" stroke="#191970" d="M2404.2199,-471.2586C2401.4477,-470.822 2398.7012,-470.4009 2396,-470 2327.8362,-459.8837 2133.8113,-485.4778 2088,-434 2082.0907,-427.3598 2087.4684,-422.873 2088,-414 2092.2298,-343.3985 2107,-326.7281 2107,-256 2107,-256 2107,-256 2107,-200 2107,-155.262 2064.839,-117.9849 2036.6909,-98.0828"/>
<polygon fill="#191970" stroke="#191970" points="2038.3512,-94.979 2028.1155,-92.2441 2034.4116,-100.7652 2038.3512,-94.979"/>
</g>
<!-- Node56&#45;&gt;Node23 -->
<g id="edge102" class="edge">
<title>Node56&#45;&gt;Node23</title>
<path fill="none" stroke="#191970" d="M2404.2493,-471.0361C2401.4688,-470.6625 2398.7126,-470.3151 2396,-470 2235.1819,-451.3209 1734.162,-431.6383 1576.2073,-425.7567"/>
<polygon fill="#191970" stroke="#191970" points="1575.9938,-422.2465 1565.8709,-425.3734 1575.7343,-429.2417 1575.9938,-422.2465"/>
</g>
<!-- Node56&#45;&gt;Node57 -->
<g id="edge104" class="edge">
<title>Node56&#45;&gt;Node57</title>
<path fill="none" stroke="#191970" d="M2404.1995,-471.3878C2401.4331,-470.9147 2398.6933,-470.4507 2396,-470 2292.6527,-452.7056 2265.5836,-455.3623 2163,-434 2162.8998,-433.9791 2162.7995,-433.9582 2162.6991,-433.9371"/>
<polygon fill="#191970" stroke="#191970" points="2163.6726,-430.5694 2153.1444,-431.7551 2162.1141,-437.3937 2163.6726,-430.5694"/>
</g>
<!-- Node58&#45;&gt;Node1 -->
<g id="edge108" class="edge">
<title>Node58&#45;&gt;Node1</title>
<path fill="none" stroke="#191970" d="M2137.0619,-475.9985C2089.0442,-460.1208 1987.4802,-428.5102 1899,-414 1761.2335,-391.4071 1323.639,-373.8855 1198.0187,-369.2242"/>
<polygon fill="#191970" stroke="#191970" points="1197.967,-365.72 1187.845,-368.8496 1197.7094,-372.7153 1197.967,-365.72"/>
</g>
<!-- Node58&#45;&gt;Node17 -->
<g id="edge106" class="edge">
<title>Node58&#45;&gt;Node17</title>
<path fill="none" stroke="#191970" d="M2127.3838,-475.9384C2103.7521,-468.1786 2074.2127,-455.0056 2055,-434 2033.9342,-410.9684 2031,-399.2125 2031,-368 2031,-368 2031,-368 2031,-312 2031,-234.1295 2020.0015,-141.9018 2014.7406,-102.2405"/>
<polygon fill="#191970" stroke="#191970" points="2018.1772,-101.536 2013.3664,-92.0964 2011.2405,-102.4757 2018.1772,-101.536"/>
</g>
<!-- Node58&#45;&gt;Node26 -->
<g id="edge109" class="edge">
<title>Node58&#45;&gt;Node26</title>
<path fill="none" stroke="#191970" d="M2118.633,-475.9921C2068.6144,-465.7163 1986.6378,-448.8195 1916,-434 1910.8257,-432.9145 1905.3328,-431.7535 1899.9963,-430.6211"/>
<polygon fill="#191970" stroke="#191970" points="1900.5609,-427.1629 1890.0515,-428.5057 1899.1044,-434.0097 1900.5609,-427.1629"/>
</g>
<!-- Node58&#45;&gt;Node57 -->
<g id="edge107" class="edge">
<title>Node58&#45;&gt;Node57</title>
<path fill="none" stroke="#191970" d="M2158.75,-475.8906C2152.9135,-466.917 2144.0491,-453.2879 2136.8694,-442.2491"/>
<polygon fill="#191970" stroke="#191970" points="2139.7245,-440.2194 2131.3381,-433.7449 2133.8564,-444.0361 2139.7245,-440.2194"/>
</g>
<!-- Node59&#45;&gt;Node26 -->
<g id="edge111" class="edge">
<title>Node59&#45;&gt;Node26</title>
<path fill="none" stroke="#191970" d="M1760.1563,-475.8906C1781.551,-465.6908 1815.562,-449.4763 1839.8702,-437.8875"/>
<polygon fill="#191970" stroke="#191970" points="1841.4648,-441.0047 1848.9853,-433.5419 1838.4524,-434.686 1841.4648,-441.0047"/>
</g>
<!-- Node60&#45;&gt;Node17 -->
<g id="edge114" class="edge">
<title>Node60&#45;&gt;Node17</title>
<path fill="none" stroke="#191970" d="M1977.1517,-470.2955C1975.9775,-447.9046 1974,-404.74 1974,-368 1974,-368 1974,-368 1974,-200 1974,-163.7454 1990.5805,-124.1181 2001.837,-101.3929"/>
<polygon fill="#191970" stroke="#191970" points="2005.0965,-102.7076 2006.5555,-92.2137 1998.8708,-99.5073 2005.0965,-102.7076"/>
</g>
<!-- Node60&#45;&gt;Node23 -->
<g id="edge113" class="edge">
<title>Node60&#45;&gt;Node23</title>
<path fill="none" stroke="#191970" d="M1893.8863,-474.0045C1800.1038,-461.1875 1651.6793,-440.9028 1575.9237,-430.5496"/>
<polygon fill="#191970" stroke="#191970" points="1576.1117,-427.0428 1565.7298,-429.1564 1575.1638,-433.9783 1576.1117,-427.0428"/>
</g>
<!-- Node60&#45;&gt;Node26 -->
<g id="edge116" class="edge">
<title>Node60&#45;&gt;Node26</title>
<path fill="none" stroke="#191970" d="M1951.3356,-470.4554C1934.1059,-460.734 1911.8025,-448.15 1894.7554,-438.5317"/>
<polygon fill="#191970" stroke="#191970" points="1896.3204,-435.3961 1885.8911,-433.5303 1892.8806,-441.4926 1896.3204,-435.3961"/>
</g>
<!-- Node60&#45;&gt;Node57 -->
<g id="edge115" class="edge">
<title>Node60&#45;&gt;Node57</title>
<path fill="none" stroke="#191970" d="M2013.9602,-470.4554C2038.0573,-460.374 2069.513,-447.2139 2092.7903,-437.4755"/>
<polygon fill="#191970" stroke="#191970" points="2094.3459,-440.6187 2102.2202,-433.5303 2091.6442,-434.1611 2094.3459,-440.6187"/>
</g>
<!-- Node66&#45;&gt;Node1 -->
<g id="edge129" class="edge">
<title>Node66&#45;&gt;Node1</title>
<path fill="none" stroke="#191970" d="M1394.3628,-671.4059C1377.9244,-628.4407 1309.5725,-454.0754 1268,-414 1248.4015,-395.1072 1219.7448,-383.2216 1197.4729,-376.2756"/>
<polygon fill="#191970" stroke="#191970" points="1198.3254,-372.8783 1187.7446,-373.4243 1196.3565,-379.5957 1198.3254,-372.8783"/>
</g>
<!-- Node66&#45;&gt;Node2 -->
<g id="edge131" class="edge">
<title>Node66&#45;&gt;Node2</title>
<path fill="none" stroke="#191970" d="M1333.0042,-671.4269C1302.8442,-664.7351 1267.6397,-653.5427 1240,-635 1188.2951,-600.3127 1148.4412,-536.1291 1130.8533,-504.3449"/>
<polygon fill="#191970" stroke="#191970" points="1133.7693,-502.3787 1125.9385,-495.2423 1127.6098,-505.7045 1133.7693,-502.3787"/>
</g>
<!-- Node66&#45;&gt;Node18 -->
<g id="edge135" class="edge">
<title>Node66&#45;&gt;Node18</title>
<path fill="none" stroke="#191970" d="M1311.2129,-673.2421C1170.3148,-660.6473 895.1896,-636.054 772.1083,-625.0518"/>
<polygon fill="#191970" stroke="#191970" points="772.3667,-621.5611 762.0948,-624.1567 771.7434,-628.5333 772.3667,-621.5611"/>
</g>
<!-- Node66&#45;&gt;Node19 -->
<g id="edge128" class="edge">
<title>Node66&#45;&gt;Node19</title>
<path fill="none" stroke="#191970" d="M1311.1556,-674.3152C1295.4632,-673.1654 1279.2465,-672.0151 1264,-671 990.8036,-652.8113 915.1592,-699.2369 649,-635 535.1143,-607.5139 491.9185,-595.0045 422,-501 408.707,-483.1278 398.5745,-459.5631 392.4967,-443.2314"/>
<polygon fill="#191970" stroke="#191970" points="395.7463,-441.9236 389.0957,-433.6762 389.1516,-444.2709 395.7463,-441.9236"/>
</g>
<!-- Node66&#45;&gt;Node25 -->
<g id="edge130" class="edge">
<title>Node66&#45;&gt;Node25</title>
<path fill="none" stroke="#191970" d="M1396.0623,-671.1921C1391.7275,-647.8665 1382.0772,-587.2739 1388,-537 1391.9548,-503.4312 1402.3015,-465.3898 1408.9772,-443.1158"/>
<polygon fill="#191970" stroke="#191970" points="1412.3291,-444.1233 1411.9154,-433.5366 1405.6368,-442.0706 1412.3291,-444.1233"/>
</g>
<!-- Node66&#45;&gt;Node27 -->
<g id="edge134" class="edge">
<title>Node66&#45;&gt;Node27</title>
<path fill="none" stroke="#191970" d="M1340.0046,-671.4146C1316.6214,-664.8035 1291.1709,-653.6792 1274,-635 1187.5245,-540.9282 1292.7106,-442.658 1197,-358 1161.8919,-326.9461 1032.7632,-316.8553 953.5875,-313.577"/>
<polygon fill="#191970" stroke="#191970" points="953.3663,-310.0659 943.2381,-313.1754 953.0948,-317.0606 953.3663,-310.0659"/>
</g>
<!-- Node67 -->
<g id="node68" class="node">
<title>Node67</title>
<polygon fill="none" stroke="#bfbfbf" points="1396.5,-543 1396.5,-562 1441.5,-562 1441.5,-543 1396.5,-543"/>
<text text-anchor="middle" x="1419" y="-550" font-family="Helvetica,sans-Serif" font-size="10.00" fill="#000000">utility</text>
</g>
<!-- Node66&#45;&gt;Node67 -->
<g id="edge132" class="edge">
<title>Node66&#45;&gt;Node67</title>
<path fill="none" stroke="#191970" d="M1399.5784,-671.3416C1402.9989,-650.4114 1411.155,-600.504 1415.7354,-572.4762"/>
<polygon fill="#191970" stroke="#191970" points="1419.2445,-572.7041 1417.4033,-562.2705 1412.3362,-571.575 1419.2445,-572.7041"/>
</g>
<!-- Node68 -->
<g id="node69" class="node">
<title>Node68</title>
<polygon fill="none" stroke="#bfbfbf" points="1282.5,-610 1282.5,-629 1323.5,-629 1323.5,-610 1282.5,-610"/>
<text text-anchor="middle" x="1303" y="-617" font-family="Helvetica,sans-Serif" font-size="10.00" fill="#000000">tuple</text>
</g>
<!-- Node66&#45;&gt;Node68 -->
<g id="edge133" class="edge">
<title>Node66&#45;&gt;Node68</title>
<path fill="none" stroke="#191970" d="M1383.1563,-671.3906C1367.9582,-661.5519 1344.1152,-646.1167 1326.3794,-634.6351"/>
<polygon fill="#191970" stroke="#191970" points="1328.0361,-631.5382 1317.7395,-629.0419 1324.232,-637.4144 1328.0361,-631.5382"/>
</g>
<!-- Node66&#45;&gt;Node69 -->
<g id="edge136" class="edge">
<title>Node66&#45;&gt;Node69</title>
<path fill="none" stroke="#191970" d="M1420.0313,-671.3906C1440.0857,-662.6435 1470.2818,-649.4728 1495.2334,-638.5897"/>
<polygon fill="#191970" stroke="#191970" points="1496.7408,-641.7507 1504.5075,-634.5446 1493.9422,-635.3345 1496.7408,-641.7507"/>
</g>
<!-- Node69&#45;&gt;Node25 -->
<g id="edge137" class="edge">
<title>Node69&#45;&gt;Node25</title>
<path fill="none" stroke="#191970" d="M1519.3678,-604.1751C1494.4117,-583.5517 1451.9418,-544.407 1430,-501 1420.9029,-483.0034 1417.3111,-460.0669 1415.8995,-443.9246"/>
<polygon fill="#191970" stroke="#191970" points="1419.3648,-443.285 1415.2094,-433.5391 1412.3802,-443.7492 1419.3648,-443.285"/>
</g>
<!-- Node69&#45;&gt;Node67 -->
<g id="edge138" class="edge">
<title>Node69&#45;&gt;Node67</title>
<path fill="none" stroke="#191970" d="M1512.0697,-604.4639C1492.0259,-593.2728 1464.8217,-578.0838 1445.0035,-567.0186"/>
<polygon fill="#191970" stroke="#191970" points="1446.6386,-563.923 1436.2011,-562.1039 1443.2261,-570.0349 1446.6386,-563.923"/>
</g>
<!-- Node70&#45;&gt;Node1 -->
<g id="edge144" class="edge">
<title>Node70&#45;&gt;Node1</title>
<path fill="none" stroke="#191970" d="M2692.4858,-472.0537C2687.5878,-471.3367 2682.7312,-470.6463 2678,-470 2537.5103,-450.808 2497.4967,-472.397 2361,-434 2340.7103,-428.2925 2338.485,-418.9609 2318,-414 2290.0574,-407.2331 1385.382,-375.6508 1197.8311,-369.1657"/>
<polygon fill="#191970" stroke="#191970" points="1197.8458,-365.6643 1187.7309,-368.8168 1197.604,-372.6601 1197.8458,-365.6643"/>
</g>
<!-- Node70&#45;&gt;Node5 -->
<g id="edge148" class="edge">
<title>Node70&#45;&gt;Node5</title>
<path fill="none" stroke="#191970" d="M2692.2391,-475.9206C2606.7063,-465.5125 2479.2194,-448.4374 2432,-434 2412.2285,-427.9548 2409.3637,-421.2459 2390,-414 1955.6974,-251.4846 1393.0328,-167.9424 1250.146,-148.4845"/>
<polygon fill="#191970" stroke="#191970" points="1250.2212,-144.963 1239.8429,-147.094 1249.2849,-151.9001 1250.2212,-144.963"/>
</g>
<!-- Node70&#45;&gt;Node25 -->
<g id="edge145" class="edge">
<title>Node70&#45;&gt;Node25</title>
<path fill="none" stroke="#191970" d="M2692.3564,-478.485C2654.7447,-475.4975 2609.6472,-472.2013 2569,-470 2086.3313,-443.8602 1963.392,-477.75 1482,-434 1469.625,-432.8753 1456.0522,-430.9756 1444.3782,-429.1322"/>
<polygon fill="#191970" stroke="#191970" points="1444.714,-425.6407 1434.2799,-427.479 1443.583,-432.5487 1444.714,-425.6407"/>
</g>
<!-- Node70&#45;&gt;Node26 -->
<g id="edge146" class="edge">
<title>Node70&#45;&gt;Node26</title>
<path fill="none" stroke="#191970" d="M2692.3181,-479.0989C2654.6989,-476.2328 2609.606,-472.8618 2569,-470 2310.7971,-451.8027 1998.848,-432.1153 1900.3578,-425.9543"/>
<polygon fill="#191970" stroke="#191970" points="1900.3943,-422.4498 1890.1954,-425.3192 1899.9576,-429.4362 1900.3943,-422.4498"/>
</g>
<!-- Node70&#45;&gt;Node27 -->
<g id="edge157" class="edge">
<title>Node70&#45;&gt;Node27</title>
<path fill="none" stroke="#191970" d="M2692.4738,-472.1395C2687.5788,-471.4009 2682.7261,-470.6824 2678,-470 2554.2551,-452.1338 2519.5241,-467.2555 2399,-434 2377.5098,-428.0703 2374.655,-419.2963 2353,-414 2081.2954,-347.5476 1198.2819,-320.0271 953.4534,-313.5613"/>
<polygon fill="#191970" stroke="#191970" points="953.3905,-310.0585 943.3023,-313.2956 953.2073,-317.0561 953.3905,-310.0585"/>
</g>
<!-- Node70&#45;&gt;Node31 -->
<g id="edge158" class="edge">
<title>Node70&#45;&gt;Node31</title>
<path fill="none" stroke="#191970" d="M2692.3723,-478.1666C2654.7637,-475.1162 2609.6643,-471.8588 2569,-470 1585.8965,-425.0606 1338.5328,-468.282 355,-434 317.751,-432.7017 276.3627,-430.5608 242.0122,-428.5923"/>
<polygon fill="#191970" stroke="#191970" points="241.7759,-425.0728 231.59,-427.9881 241.3707,-432.0611 241.7759,-425.0728"/>
</g>
<!-- Node70&#45;&gt;Node34 -->
<g id="edge154" class="edge">
<title>Node70&#45;&gt;Node34</title>
<path fill="none" stroke="#191970" d="M2692.371,-478.1931C2654.7622,-475.148 2609.663,-471.8874 2569,-470 2455.8819,-464.7496 638.1084,-470.7569 531,-434 502.1271,-424.0916 475.0022,-400.8256 458.6989,-384.7457"/>
<polygon fill="#191970" stroke="#191970" points="461.1077,-382.2033 451.6045,-377.5192 456.1125,-387.1072 461.1077,-382.2033"/>
</g>
<!-- Node70&#45;&gt;Node44 -->
<g id="edge150" class="edge">
<title>Node70&#45;&gt;Node44</title>
<path fill="none" stroke="#191970" d="M2692.4948,-471.986C2687.5945,-471.286 2682.735,-470.6179 2678,-470 2520.7462,-449.4797 2479.6225,-458.884 2323,-434 2321.7288,-433.798 2320.4398,-433.5831 2319.1402,-433.3574"/>
<polygon fill="#191970" stroke="#191970" points="2319.5589,-429.8747 2309.0832,-431.4589 2318.2603,-436.7532 2319.5589,-429.8747"/>
</g>
<!-- Node70&#45;&gt;Node45 -->
<g id="edge152" class="edge">
<title>Node70&#45;&gt;Node45</title>
<path fill="none" stroke="#191970" d="M2857.8116,-475.6806C2924.7894,-467.1193 3021.653,-453.3412 3114.5486,-434.1364"/>
<polygon fill="#191970" stroke="#191970" points="3115.3231,-437.5503 3124.3947,-432.0771 3113.89,-430.6985 3115.3231,-437.5503"/>
</g>
<!-- Node70&#45;&gt;Node57 -->
<g id="edge143" class="edge">
<title>Node70&#45;&gt;Node57</title>
<path fill="none" stroke="#191970" d="M2692.2939,-477.9622C2663.697,-475.3898 2631.4438,-472.5262 2602,-470 2406.9506,-453.265 2355.9582,-467.0377 2163,-434 2162.8991,-433.9827 2162.7982,-433.9653 2162.6971,-433.9478"/>
<polygon fill="#191970" stroke="#191970" points="2163.6001,-430.5601 2153.1012,-431.9827 2162.1957,-437.4178 2163.6001,-430.5601"/>
</g>
<!-- Node70&#45;&gt;Node65 -->
<g id="edge141" class="edge">
<title>Node70&#45;&gt;Node65</title>
<path fill="none" stroke="#191970" d="M2692.2184,-475.6584C2674.97,-473.7025 2656.8983,-471.7227 2640,-470 2463.9025,-452.0477 2415.2174,-465.1453 2236.7466,-433.8366"/>
<polygon fill="#191970" stroke="#191970" points="2237.2203,-430.3661 2226.7622,-432.0629 2235.9958,-437.2582 2237.2203,-430.3661"/>
</g>
<!-- Node71 -->
<g id="node72" class="node">
<title>Node71</title>
<polygon fill="none" stroke="#bfbfbf" points="2880,-414.5 2880,-433.5 2940,-433.5 2940,-414.5 2880,-414.5"/>
<text text-anchor="middle" x="2910" y="-421.5" font-family="Helvetica,sans-Serif" font-size="10.00" fill="#000000">iostream</text>
</g>
<!-- Node70&#45;&gt;Node71 -->
<g id="edge140" class="edge">
<title>Node70&#45;&gt;Node71</title>
<path fill="none" stroke="#191970" d="M2808.0247,-470.4554C2829.957,-460.464 2858.5273,-447.4487 2879.8453,-437.7372"/>
<polygon fill="#191970" stroke="#191970" points="2881.4306,-440.8611 2889.0798,-433.5303 2878.5286,-434.4909 2881.4306,-440.8611"/>
</g>
<!-- Node72 -->
<g id="node73" class="node">
<title>Node72</title>
<polygon fill="none" stroke="#bfbfbf" points="2917,-358.5 2917,-377.5 2967,-377.5 2967,-358.5 2917,-358.5"/>
<text text-anchor="middle" x="2942" y="-365.5" font-family="Helvetica,sans-Serif" font-size="10.00" fill="#000000">cstdint</text>
</g>
<!-- Node70&#45;&gt;Node72 -->
<g id="edge142" class="edge">
<title>Node70&#45;&gt;Node72</title>
<path fill="none" stroke="#191970" d="M2794.5817,-470.3284C2813.7909,-455.586 2844.0407,-432.7432 2871,-414 2886.4321,-403.271 2904.1772,-391.774 2918.0667,-382.9578"/>
<polygon fill="#191970" stroke="#191970" points="2919.9871,-385.8845 2926.5743,-377.5863 2916.25,-379.9655 2919.9871,-385.8845"/>
</g>
<!-- Node73 -->
<g id="node74" class="node">
<title>Node73</title>
<polygon fill="none" stroke="#bfbfbf" points="2441,-414.5 2441,-433.5 2485,-433.5 2485,-414.5 2441,-414.5"/>
<text text-anchor="middle" x="2463" y="-421.5" font-family="Helvetica,sans-Serif" font-size="10.00" fill="#000000">bitset</text>
</g>
<!-- Node70&#45;&gt;Node73 -->
<g id="edge147" class="edge">
<title>Node70&#45;&gt;Node73</title>
<path fill="none" stroke="#191970" d="M2692.307,-471.4301C2623.642,-459.5357 2531.526,-443.0311 2495,-434 2494.9011,-433.9756 2494.8021,-433.951 2494.7029,-433.9263"/>
<polygon fill="#191970" stroke="#191970" points="2495.8521,-430.6123 2485.2824,-431.3413 2493.9997,-437.3628 2495.8521,-430.6123"/>
</g>
<!-- Node74 -->
<g id="node75" class="node">
<title>Node74</title>
<polygon fill="none" stroke="#bfbfbf" points="2503.5,-414.5 2503.5,-433.5 2576.5,-433.5 2576.5,-414.5 2503.5,-414.5"/>
<text text-anchor="middle" x="2540" y="-421.5" font-family="Helvetica,sans-Serif" font-size="10.00" fill="#000000">string_view</text>
</g>
<!-- Node70&#45;&gt;Node74 -->
<g id="edge149" class="edge">
<title>Node70&#45;&gt;Node74</title>
<path fill="none" stroke="#191970" d="M2717.5125,-470.4554C2677.0983,-459.8789 2623.7364,-445.914 2586.1071,-436.0663"/>
<polygon fill="#191970" stroke="#191970" points="2586.977,-432.6762 2576.4167,-433.5303 2585.2047,-439.4481 2586.977,-432.6762"/>
</g>
<!-- Node75 -->
<g id="node76" class="node">
<title>Node75</title>
<polygon fill="none" stroke="#bfbfbf" points="2594.5,-414.5 2594.5,-433.5 2659.5,-433.5 2659.5,-414.5 2594.5,-414.5"/>
<text text-anchor="middle" x="2627" y="-421.5" font-family="Helvetica,sans-Serif" font-size="10.00" fill="#000000">functional</text>
</g>
<!-- Node70&#45;&gt;Node75 -->
<g id="edge151" class="edge">
<title>Node70&#45;&gt;Node75</title>
<path fill="none" stroke="#191970" d="M2738.7951,-470.4554C2714.5342,-460.374 2682.8644,-447.2139 2659.4288,-437.4755"/>
<polygon fill="#191970" stroke="#191970" points="2660.5123,-434.1356 2649.9347,-433.5303 2657.8261,-440.5997 2660.5123,-434.1356"/>
</g>
<!-- Node76 -->
<g id="node77" class="node">
<title>Node76</title>
<g id="a_node77"><a xlink:href="../../d7/df8/Types_8h.html" target="_top" xlink:title="MemoryResources/Types.h">
<polygon fill="none" stroke="#000000" points="2678,-414.5 2678,-433.5 2824,-433.5 2824,-414.5 2678,-414.5"/>
<text text-anchor="middle" x="2751" y="-421.5" font-family="Helvetica,sans-Serif" font-size="10.00" fill="#000000">MemoryResources/Types.h</text>
</a>
</g>
</g>
<!-- Node70&#45;&gt;Node76 -->
<g id="edge153" class="edge">
<title>Node70&#45;&gt;Node76</title>
<path fill="none" stroke="#191970" d="M2769.0674,-470.2977C2765.8748,-462.1166 2761.9046,-451.943 2758.4996,-443.2179"/>
<polygon fill="#191970" stroke="#191970" points="2761.7387,-441.8903 2754.8427,-433.8469 2755.2177,-444.4351 2761.7387,-441.8903"/>
</g>
<!-- Node77 -->
<g id="node78" class="node">
<title>Node77</title>
<g id="a_node78"><a xlink:href="../../d4/d78/DataFormats_2Headers_2include_2Headers_2RAWDataHeader_8h.html" target="_top" xlink:title="Headers/RAWDataHeader.h">
<polygon fill="none" stroke="#000000" points="2957.5,-414.5 2957.5,-433.5 3106.5,-433.5 3106.5,-414.5 2957.5,-414.5"/>
<text text-anchor="middle" x="3032" y="-421.5" font-family="Helvetica,sans-Serif" font-size="10.00" fill="#000000">Headers/RAWDataHeader.h</text>
</a>
</g>
</g>
<!-- Node70&#45;&gt;Node77 -->
<g id="edge155" class="edge">
<title>Node70&#45;&gt;Node77</title>
<path fill="none" stroke="#191970" d="M2837.8693,-470.4554C2882.349,-459.8114 2941.17,-445.7356 2982.3624,-435.8783"/>
<polygon fill="#191970" stroke="#191970" points="2983.2633,-439.2616 2992.1741,-433.5303 2981.6341,-432.4538 2983.2633,-439.2616"/>
</g>
<!-- Node77&#45;&gt;Node72 -->
<g id="edge156" class="edge">
<title>Node77&#45;&gt;Node72</title>
<path fill="none" stroke="#191970" d="M3016.3232,-414.2455C3002.5144,-405.6534 2982.1807,-393.0014 2966.2708,-383.1018"/>
<polygon fill="#191970" stroke="#191970" points="2967.8368,-379.954 2957.4972,-377.6427 2964.1387,-385.8974 2967.8368,-379.954"/>
</g>
</g>
</svg>
