<?xml version="1.0" encoding="UTF-8" standalone="no"?>
<!DOCTYPE svg PUBLIC "-//W3C//DTD SVG 1.1//EN"
 "http://www.w3.org/Graphics/SVG/1.1/DTD/svg11.dtd">
<!-- Generated by graphviz version 2.40.1 (20161225.0304)
 -->
<!-- Title: /home/travis/build/AliceO2Group/AliceO2/Detectors/EMCAL/base/include/EMCALBase/GeometryBase.h Pages: 1 -->
<svg width="2322pt" height="439pt"
 viewBox="0.00 0.00 2322.18 439.00" xmlns="http://www.w3.org/2000/svg" xmlns:xlink="http://www.w3.org/1999/xlink">
<g id="graph0" class="graph" transform="scale(1 1) rotate(0) translate(4 435)">
<title>/home/travis/build/AliceO2Group/AliceO2/Detectors/EMCAL/base/include/EMCALBase/GeometryBase.h</title>
<!-- Node2 -->
<g id="node1" class="node">
<title>Node2</title>
<polygon fill="#bfbfbf" stroke="#000000" points="1902.5,-378.5 1902.5,-430.5 2102.5,-430.5 2102.5,-378.5 1902.5,-378.5"/>
<text text-anchor="start" x="1910.5" y="-418.5" font-family="Helvetica,sans-Serif" font-size="10.00" fill="#000000">/home/travis/build</text>
<text text-anchor="start" x="1910.5" y="-407.5" font-family="Helvetica,sans-Serif" font-size="10.00" fill="#000000">/AliceO2Group/AliceO2</text>
<text text-anchor="start" x="1910.5" y="-396.5" font-family="Helvetica,sans-Serif" font-size="10.00" fill="#000000">/Detectors/EMCAL/base</text>
<text text-anchor="middle" x="2002.5" y="-385.5" font-family="Helvetica,sans-Serif" font-size="10.00" fill="#000000">/include/EMCALBase/GeometryBase.h</text>
</g>
<!-- Node3 -->
<g id="node2" class="node">
<title>Node3</title>
<g id="a_node2"><a xlink:href="../../dd/da8/EMCAL_2base_2include_2EMCALBase_2Geometry_8h.html" target="_top" xlink:title="/home/travis/build\l/AliceO2Group/AliceO2\l/Detectors/EMCAL/base\l/include/EMCALBase/Geometry.h">
<polygon fill="none" stroke="#000000" points="1074.5,-289.5 1074.5,-341.5 1248.5,-341.5 1248.5,-289.5 1074.5,-289.5"/>
<text text-anchor="start" x="1082.5" y="-329.5" font-family="Helvetica,sans-Serif" font-size="10.00" fill="#000000">/home/travis/build</text>
<text text-anchor="start" x="1082.5" y="-318.5" font-family="Helvetica,sans-Serif" font-size="10.00" fill="#000000">/AliceO2Group/AliceO2</text>
<text text-anchor="start" x="1082.5" y="-307.5" font-family="Helvetica,sans-Serif" font-size="10.00" fill="#000000">/Detectors/EMCAL/base</text>
<text text-anchor="middle" x="1161.5" y="-296.5" font-family="Helvetica,sans-Serif" font-size="10.00" fill="#000000">/include/EMCALBase/Geometry.h</text>
</a>
</g>
</g>
<!-- Node2&#45;&gt;Node3 -->
<g id="edge1" class="edge">
<title>Node2&#45;&gt;Node3</title>
<path fill="none" stroke="#191970" d="M1892.1274,-392.8197C1722.8871,-374.9096 1402.7281,-341.0283 1248.6536,-324.7231"/>
<polygon fill="#191970" stroke="#191970" points="1891.9949,-396.3251 1902.3077,-393.897 1892.7316,-389.364 1891.9949,-396.3251"/>
</g>
<!-- Node20 -->
<g id="node19" class="node">
<title>Node20</title>
<g id="a_node19"><a xlink:href="../../d8/d19/EMCAL_2simulation_2include_2EMCALSimulation_2Digitizer_8h.html" target="_top" xlink:title="/home/travis/build\l/AliceO2Group/AliceO2\l/Detectors/EMCAL/simulation\l/include/EMCALSimulation/Digitizer.h">
<polygon fill="none" stroke="#000000" points="1903.5,-195 1903.5,-247 2099.5,-247 2099.5,-195 1903.5,-195"/>
<text text-anchor="start" x="1911.5" y="-235" font-family="Helvetica,sans-Serif" font-size="10.00" fill="#000000">/home/travis/build</text>
<text text-anchor="start" x="1911.5" y="-224" font-family="Helvetica,sans-Serif" font-size="10.00" fill="#000000">/AliceO2Group/AliceO2</text>
<text text-anchor="start" x="1911.5" y="-213" font-family="Helvetica,sans-Serif" font-size="10.00" fill="#000000">/Detectors/EMCAL/simulation</text>
<text text-anchor="middle" x="2001.5" y="-202" font-family="Helvetica,sans-Serif" font-size="10.00" fill="#000000">/include/EMCALSimulation/Digitizer.h</text>
</a>
</g>
</g>
<!-- Node2&#45;&gt;Node20 -->
<g id="edge42" class="edge">
<title>Node2&#45;&gt;Node20</title>
<path fill="none" stroke="#191970" d="M2080.5255,-373.0224C2092.5174,-364.7316 2103.2897,-354.5032 2110.5,-342 2122.2674,-321.5943 2121.9275,-309.598 2110.5,-289 2100.5993,-271.1541 2083.8513,-257.3782 2066.4155,-247.0428"/>
<polygon fill="#191970" stroke="#191970" points="2078.583,-370.1102 2072.0573,-378.4568 2082.3637,-376.0015 2078.583,-370.1102"/>
</g>
<!-- Node22 -->
<g id="node21" class="node">
<title>Node22</title>
<g id="a_node21"><a xlink:href="../../df/df1/EMCAL_2simulation_2src_2DigitizerTask_8cxx.html" target="_top" xlink:title="/home/travis/build\l/AliceO2Group/AliceO2\l/Detectors/EMCAL/simulation\l/src/DigitizerTask.cxx">
<polygon fill="none" stroke="#000000" points="1810.5,-.5 1810.5,-52.5 1968.5,-52.5 1968.5,-.5 1810.5,-.5"/>
<text text-anchor="start" x="1818.5" y="-40.5" font-family="Helvetica,sans-Serif" font-size="10.00" fill="#000000">/home/travis/build</text>
<text text-anchor="start" x="1818.5" y="-29.5" font-family="Helvetica,sans-Serif" font-size="10.00" fill="#000000">/AliceO2Group/AliceO2</text>
<text text-anchor="start" x="1818.5" y="-18.5" font-family="Helvetica,sans-Serif" font-size="10.00" fill="#000000">/Detectors/EMCAL/simulation</text>
<text text-anchor="middle" x="1889.5" y="-7.5" font-family="Helvetica,sans-Serif" font-size="10.00" fill="#000000">/src/DigitizerTask.cxx</text>
</a>
</g>
</g>
<!-- Node2&#45;&gt;Node22 -->
<g id="edge44" class="edge">
<title>Node2&#45;&gt;Node22</title>
<path fill="none" stroke="#191970" d="M2109.6561,-374.8875C2170.3455,-352.0913 2241.3559,-313.9097 2278.5,-253 2316.4749,-190.728 2331.8735,-144.4586 2284.5,-89 2264.2637,-65.31 2078.207,-44.1139 1968.8162,-33.5614"/>
<polygon fill="#191970" stroke="#191970" points="2108.2005,-371.6931 2100.0112,-378.4152 2110.605,-378.2671 2108.2005,-371.6931"/>
</g>
<!-- Node23 -->
<g id="node22" class="node">
<title>Node23</title>
<g id="a_node22"><a xlink:href="../../de/d7d/EMCAL_2simulation_2src_2Digitizer_8cxx.html" target="_top" xlink:title="/home/travis/build\l/AliceO2Group/AliceO2\l/Detectors/EMCAL/simulation\l/src/Digitizer.cxx">
<polygon fill="none" stroke="#000000" points="1671.5,-95 1671.5,-147 1829.5,-147 1829.5,-95 1671.5,-95"/>
<text text-anchor="start" x="1679.5" y="-135" font-family="Helvetica,sans-Serif" font-size="10.00" fill="#000000">/home/travis/build</text>
<text text-anchor="start" x="1679.5" y="-124" font-family="Helvetica,sans-Serif" font-size="10.00" fill="#000000">/AliceO2Group/AliceO2</text>
<text text-anchor="start" x="1679.5" y="-113" font-family="Helvetica,sans-Serif" font-size="10.00" fill="#000000">/Detectors/EMCAL/simulation</text>
<text text-anchor="middle" x="1750.5" y="-102" font-family="Helvetica,sans-Serif" font-size="10.00" fill="#000000">/src/Digitizer.cxx</text>
</a>
</g>
</g>
<!-- Node2&#45;&gt;Node23 -->
<g id="edge43" class="edge">
<title>Node2&#45;&gt;Node23</title>
<path fill="none" stroke="#191970" d="M1930.4569,-373.1423C1917.2881,-364.6611 1904.7941,-354.3314 1895.5,-342 1853.2628,-285.9601 1897.5588,-245.9088 1856.5,-189 1844.0273,-171.7124 1825.6795,-157.7294 1807.7411,-147.0415"/>
<polygon fill="#191970" stroke="#191970" points="1928.8191,-376.2427 1939.1813,-378.4511 1932.458,-370.2628 1928.8191,-376.2427"/>
</g>
<!-- Node29 -->
<g id="node28" class="node">
<title>Node29</title>
<g id="a_node28"><a xlink:href="../../d8/d3d/EMCAL_2simulation_2include_2EMCALSimulation_2Detector_8h.html" target="_top" xlink:title="/home/travis/build\l/AliceO2Group/AliceO2\l/Detectors/EMCAL/simulation\l/include/EMCALSimulation/Detector.h">
<polygon fill="none" stroke="#000000" points="1904,-289.5 1904,-341.5 2101,-341.5 2101,-289.5 1904,-289.5"/>
<text text-anchor="start" x="1912" y="-329.5" font-family="Helvetica,sans-Serif" font-size="10.00" fill="#000000">/home/travis/build</text>
<text text-anchor="start" x="1912" y="-318.5" font-family="Helvetica,sans-Serif" font-size="10.00" fill="#000000">/AliceO2Group/AliceO2</text>
<text text-anchor="start" x="1912" y="-307.5" font-family="Helvetica,sans-Serif" font-size="10.00" fill="#000000">/Detectors/EMCAL/simulation</text>
<text text-anchor="middle" x="2002.5" y="-296.5" font-family="Helvetica,sans-Serif" font-size="10.00" fill="#000000">/include/EMCALSimulation/Detector.h</text>
</a>
</g>
</g>
<!-- Node2&#45;&gt;Node29 -->
<g id="edge37" class="edge">
<title>Node2&#45;&gt;Node29</title>
<path fill="none" stroke="#191970" d="M2002.5,-368.1155C2002.5,-359.2061 2002.5,-349.8475 2002.5,-341.5341"/>
<polygon fill="#191970" stroke="#191970" points="1999.0001,-368.2784 2002.5,-378.2784 2006.0001,-368.2785 1999.0001,-368.2784"/>
</g>
<!-- Node4 -->
<g id="node3" class="node">
<title>Node4</title>
<g id="a_node3"><a xlink:href="../../d0/d55/ClusterFactory_8h.html" target="_top" xlink:title="/home/travis/build\l/AliceO2Group/AliceO2\l/Detectors/EMCAL/base\l/include/EMCALBase/ClusterFactory.h">
<polygon fill="none" stroke="#000000" points="1001,-195 1001,-247 1196,-247 1196,-195 1001,-195"/>
<text text-anchor="start" x="1009" y="-235" font-family="Helvetica,sans-Serif" font-size="10.00" fill="#000000">/home/travis/build</text>
<text text-anchor="start" x="1009" y="-224" font-family="Helvetica,sans-Serif" font-size="10.00" fill="#000000">/AliceO2Group/AliceO2</text>
<text text-anchor="start" x="1009" y="-213" font-family="Helvetica,sans-Serif" font-size="10.00" fill="#000000">/Detectors/EMCAL/base</text>
<text text-anchor="middle" x="1098.5" y="-202" font-family="Helvetica,sans-Serif" font-size="10.00" fill="#000000">/include/EMCALBase/ClusterFactory.h</text>
</a>
</g>
</g>
<!-- Node3&#45;&gt;Node4 -->
<g id="edge2" class="edge">
<title>Node3&#45;&gt;Node4</title>
<path fill="none" stroke="#191970" d="M1138.3767,-280.8151C1130.9983,-269.7475 1122.9587,-257.6881 1116.0438,-247.3157"/>
<polygon fill="#191970" stroke="#191970" points="1135.659,-283.0483 1144.1182,-289.4273 1141.4833,-279.1653 1135.659,-283.0483"/>
</g>
<!-- Node5 -->
<g id="node4" class="node">
<title>Node5</title>
<g id="a_node4"><a xlink:href="../../d0/d21/ClusterFactory_8cxx.html" target="_top" xlink:title="/home/travis/build\l/AliceO2Group/AliceO2\l/Detectors/EMCAL/base\l/src/ClusterFactory.cxx">
<polygon fill="none" stroke="#000000" points="1224,-95 1224,-147 1353,-147 1353,-95 1224,-95"/>
<text text-anchor="start" x="1232" y="-135" font-family="Helvetica,sans-Serif" font-size="10.00" fill="#000000">/home/travis/build</text>
<text text-anchor="start" x="1232" y="-124" font-family="Helvetica,sans-Serif" font-size="10.00" fill="#000000">/AliceO2Group/AliceO2</text>
<text text-anchor="start" x="1232" y="-113" font-family="Helvetica,sans-Serif" font-size="10.00" fill="#000000">/Detectors/EMCAL/base</text>
<text text-anchor="middle" x="1288.5" y="-102" font-family="Helvetica,sans-Serif" font-size="10.00" fill="#000000">/src/ClusterFactory.cxx</text>
</a>
</g>
</g>
<!-- Node3&#45;&gt;Node5 -->
<g id="edge7" class="edge">
<title>Node3&#45;&gt;Node5</title>
<path fill="none" stroke="#191970" d="M1186.5877,-281.0329C1192.9213,-272.0178 1199.5962,-262.2353 1205.5,-253 1223.1967,-225.3172 1225.0622,-216.8465 1242.5,-189 1251.2749,-174.9872 1261.5424,-159.7116 1270.1481,-147.1947"/>
<polygon fill="#191970" stroke="#191970" points="1183.5853,-279.2162 1180.6561,-289.3981 1189.2955,-283.2652 1183.5853,-279.2162"/>
</g>
<!-- Node6 -->
<g id="node5" class="node">
<title>Node6</title>
<g id="a_node5"><a xlink:href="../../d3/dd3/AnalysisClusterSpec_8h.html" target="_top" xlink:title="/home/travis/build\l/AliceO2Group/AliceO2\l/Detectors/EMCAL/workflow\l/include/EMCALWorkflow/AnalysisCluster\lSpec.h">
<polygon fill="none" stroke="#000000" points="991.5,-89.5 991.5,-152.5 1205.5,-152.5 1205.5,-89.5 991.5,-89.5"/>
<text text-anchor="start" x="999.5" y="-140.5" font-family="Helvetica,sans-Serif" font-size="10.00" fill="#000000">/home/travis/build</text>
<text text-anchor="start" x="999.5" y="-129.5" font-family="Helvetica,sans-Serif" font-size="10.00" fill="#000000">/AliceO2Group/AliceO2</text>
<text text-anchor="start" x="999.5" y="-118.5" font-family="Helvetica,sans-Serif" font-size="10.00" fill="#000000">/Detectors/EMCAL/workflow</text>
<text text-anchor="start" x="999.5" y="-107.5" font-family="Helvetica,sans-Serif" font-size="10.00" fill="#000000">/include/EMCALWorkflow/AnalysisCluster</text>
<text text-anchor="middle" x="1098.5" y="-96.5" font-family="Helvetica,sans-Serif" font-size="10.00" fill="#000000">Spec.h</text>
</a>
</g>
</g>
<!-- Node3&#45;&gt;Node6 -->
<g id="edge34" class="edge">
<title>Node3&#45;&gt;Node6</title>
<path fill="none" stroke="#191970" d="M1064.7987,-290.1592C1032.3345,-279.5558 1001.9369,-266.5516 992.5,-253 976.2451,-229.6577 978.8579,-213.9595 992.5,-189 1000.5743,-174.2273 1013.3812,-162.1894 1027.3432,-152.5776"/>
<polygon fill="#191970" stroke="#191970" points="1063.8644,-293.5347 1074.4548,-293.2273 1065.9842,-286.8634 1063.8644,-293.5347"/>
</g>
<!-- Node7 -->
<g id="node6" class="node">
<title>Node7</title>
<g id="a_node6"><a xlink:href="../../d2/d75/AnalysisClusterSpec_8cxx.html" target="_top" xlink:title="/home/travis/build\l/AliceO2Group/AliceO2\l/Detectors/EMCAL/workflow\l/src/AnalysisClusterSpec.cxx">
<polygon fill="none" stroke="#000000" points="1220.5,-.5 1220.5,-52.5 1376.5,-52.5 1376.5,-.5 1220.5,-.5"/>
<text text-anchor="start" x="1228.5" y="-40.5" font-family="Helvetica,sans-Serif" font-size="10.00" fill="#000000">/home/travis/build</text>
<text text-anchor="start" x="1228.5" y="-29.5" font-family="Helvetica,sans-Serif" font-size="10.00" fill="#000000">/AliceO2Group/AliceO2</text>
<text text-anchor="start" x="1228.5" y="-18.5" font-family="Helvetica,sans-Serif" font-size="10.00" fill="#000000">/Detectors/EMCAL/workflow</text>
<text text-anchor="middle" x="1298.5" y="-7.5" font-family="Helvetica,sans-Serif" font-size="10.00" fill="#000000">/src/AnalysisClusterSpec.cxx</text>
</a>
</g>
</g>
<!-- Node3&#45;&gt;Node7 -->
<g id="edge36" class="edge">
<title>Node3&#45;&gt;Node7</title>
<path fill="none" stroke="#191970" d="M1258.7609,-304.3461C1322.8635,-294.7625 1398.5352,-278.4019 1418.5,-253 1469.9227,-187.573 1382.1899,-96.8739 1331.1607,-52.7344"/>
<polygon fill="#191970" stroke="#191970" points="1257.9747,-300.9236 1248.5825,-305.8264 1258.9821,-307.8507 1257.9747,-300.9236"/>
</g>
<!-- Node9 -->
<g id="node8" class="node">
<title>Node9</title>
<g id="a_node8"><a xlink:href="../../de/d49/EMCAL_2base_2src_2Geometry_8cxx.html" target="_top" xlink:title="/home/travis/build\l/AliceO2Group/AliceO2\l/Detectors/EMCAL/base\l/src/Geometry.cxx">
<polygon fill="none" stroke="#000000" points="1504,-195 1504,-247 1633,-247 1633,-195 1504,-195"/>
<text text-anchor="start" x="1512" y="-235" font-family="Helvetica,sans-Serif" font-size="10.00" fill="#000000">/home/travis/build</text>
<text text-anchor="start" x="1512" y="-224" font-family="Helvetica,sans-Serif" font-size="10.00" fill="#000000">/AliceO2Group/AliceO2</text>
<text text-anchor="start" x="1512" y="-213" font-family="Helvetica,sans-Serif" font-size="10.00" fill="#000000">/Detectors/EMCAL/base</text>
<text text-anchor="middle" x="1568.5" y="-202" font-family="Helvetica,sans-Serif" font-size="10.00" fill="#000000">/src/Geometry.cxx</text>
</a>
</g>
</g>
<!-- Node3&#45;&gt;Node9 -->
<g id="edge8" class="edge">
<title>Node3&#45;&gt;Node9</title>
<path fill="none" stroke="#191970" d="M1258.5518,-302.1395C1324.4739,-291.8193 1413.2065,-275.4829 1489.5,-253 1495.4616,-251.2432 1501.5934,-249.2015 1507.6792,-247.0157"/>
<polygon fill="#191970" stroke="#191970" points="1257.932,-298.6936 1248.5846,-303.6813 1259.0021,-305.6113 1257.932,-298.6936"/>
</g>
<!-- Node10 -->
<g id="node9" class="node">
<title>Node10</title>
<g id="a_node9"><a xlink:href="../../df/d2e/ShishKebabTrd1Module_8cxx.html" target="_top" xlink:title="/home/travis/build\l/AliceO2Group/AliceO2\l/Detectors/EMCAL/base\l/src/ShishKebabTrd1Module.cxx">
<polygon fill="none" stroke="#000000" points="0,-195 0,-247 169,-247 169,-195 0,-195"/>
<text text-anchor="start" x="8" y="-235" font-family="Helvetica,sans-Serif" font-size="10.00" fill="#000000">/home/travis/build</text>
<text text-anchor="start" x="8" y="-224" font-family="Helvetica,sans-Serif" font-size="10.00" fill="#000000">/AliceO2Group/AliceO2</text>
<text text-anchor="start" x="8" y="-213" font-family="Helvetica,sans-Serif" font-size="10.00" fill="#000000">/Detectors/EMCAL/base</text>
<text text-anchor="middle" x="84.5" y="-202" font-family="Helvetica,sans-Serif" font-size="10.00" fill="#000000">/src/ShishKebabTrd1Module.cxx</text>
</a>
</g>
</g>
<!-- Node3&#45;&gt;Node10 -->
<g id="edge9" class="edge">
<title>Node3&#45;&gt;Node10</title>
<path fill="none" stroke="#191970" d="M1064.1761,-312.5842C850.4907,-305.6501 346.0093,-286.2253 178.5,-253 170.5524,-251.4236 162.3547,-249.3474 154.2665,-247.0081"/>
<polygon fill="#191970" stroke="#191970" points="1064.3305,-316.0909 1074.438,-312.9149 1064.556,-309.0946 1064.3305,-316.0909"/>
</g>
<!-- Node11 -->
<g id="node10" class="node">
<title>Node11</title>
<g id="a_node10"><a xlink:href="../../d2/d39/EMCAL_2calib_2src_2BadChannelMap_8cxx.html" target="_top" xlink:title="/home/travis/build\l/AliceO2Group/AliceO2\l/Detectors/EMCAL/calib\l/src/BadChannelMap.cxx">
<polygon fill="none" stroke="#000000" points="187.5,-195 187.5,-247 323.5,-247 323.5,-195 187.5,-195"/>
<text text-anchor="start" x="195.5" y="-235" font-family="Helvetica,sans-Serif" font-size="10.00" fill="#000000">/home/travis/build</text>
<text text-anchor="start" x="195.5" y="-224" font-family="Helvetica,sans-Serif" font-size="10.00" fill="#000000">/AliceO2Group/AliceO2</text>
<text text-anchor="start" x="195.5" y="-213" font-family="Helvetica,sans-Serif" font-size="10.00" fill="#000000">/Detectors/EMCAL/calib</text>
<text text-anchor="middle" x="255.5" y="-202" font-family="Helvetica,sans-Serif" font-size="10.00" fill="#000000">/src/BadChannelMap.cxx</text>
</a>
</g>
</g>
<!-- Node3&#45;&gt;Node11 -->
<g id="edge10" class="edge">
<title>Node3&#45;&gt;Node11</title>
<path fill="none" stroke="#191970" d="M1064.0127,-312.0375C875.7909,-304.7124 468.8791,-285.5888 332.5,-253 326.0232,-251.4523 319.3878,-249.4276 312.86,-247.1473"/>
<polygon fill="#191970" stroke="#191970" points="1064.0491,-315.5415 1074.1767,-312.4299 1064.3192,-308.5467 1064.0491,-315.5415"/>
</g>
<!-- Node12 -->
<g id="node11" class="node">
<title>Node12</title>
<g id="a_node11"><a xlink:href="../../d8/d60/testBadChannelMap_8cxx.html" target="_top" xlink:title="/home/travis/build\l/AliceO2Group/AliceO2\l/Detectors/EMCAL/calib\l/test/testBadChannelMap.cxx">
<polygon fill="none" stroke="#000000" points="342,-195 342,-247 501,-247 501,-195 342,-195"/>
<text text-anchor="start" x="350" y="-235" font-family="Helvetica,sans-Serif" font-size="10.00" fill="#000000">/home/travis/build</text>
<text text-anchor="start" x="350" y="-224" font-family="Helvetica,sans-Serif" font-size="10.00" fill="#000000">/AliceO2Group/AliceO2</text>
<text text-anchor="start" x="350" y="-213" font-family="Helvetica,sans-Serif" font-size="10.00" fill="#000000">/Detectors/EMCAL/calib</text>
<text text-anchor="middle" x="421.5" y="-202" font-family="Helvetica,sans-Serif" font-size="10.00" fill="#000000">/test/testBadChannelMap.cxx</text>
</a>
</g>
</g>
<!-- Node3&#45;&gt;Node12 -->
<g id="edge11" class="edge">
<title>Node3&#45;&gt;Node12</title>
<path fill="none" stroke="#191970" d="M1064.3919,-309.1594C909.4646,-298.5406 613.3566,-276.0477 510.5,-253 503.2899,-251.3844 495.8646,-249.348 488.5225,-247.0887"/>
<polygon fill="#191970" stroke="#191970" points="1064.1739,-312.6526 1074.389,-309.8416 1064.6505,-305.6688 1064.1739,-312.6526"/>
</g>
<!-- Node13 -->
<g id="node12" class="node">
<title>Node13</title>
<g id="a_node12"><a xlink:href="../../dc/d1a/testGainCalibration_8cxx.html" target="_top" xlink:title="/home/travis/build\l/AliceO2Group/AliceO2\l/Detectors/EMCAL/calib\l/test/testGainCalibration.cxx">
<polygon fill="none" stroke="#000000" points="519.5,-195 519.5,-247 675.5,-247 675.5,-195 519.5,-195"/>
<text text-anchor="start" x="527.5" y="-235" font-family="Helvetica,sans-Serif" font-size="10.00" fill="#000000">/home/travis/build</text>
<text text-anchor="start" x="527.5" y="-224" font-family="Helvetica,sans-Serif" font-size="10.00" fill="#000000">/AliceO2Group/AliceO2</text>
<text text-anchor="start" x="527.5" y="-213" font-family="Helvetica,sans-Serif" font-size="10.00" fill="#000000">/Detectors/EMCAL/calib</text>
<text text-anchor="middle" x="597.5" y="-202" font-family="Helvetica,sans-Serif" font-size="10.00" fill="#000000">/test/testGainCalibration.cxx</text>
</a>
</g>
</g>
<!-- Node3&#45;&gt;Node13 -->
<g id="edge12" class="edge">
<title>Node3&#45;&gt;Node13</title>
<path fill="none" stroke="#191970" d="M1064.4113,-308.4425C968.2473,-300.0998 817.2731,-283.3479 689.5,-253 682.3429,-251.3001 674.9617,-249.2539 667.6393,-247.0283"/>
<polygon fill="#191970" stroke="#191970" points="1064.1497,-311.9328 1074.4114,-309.2969 1064.7457,-304.9582 1064.1497,-311.9328"/>
</g>
<!-- Node14 -->
<g id="node13" class="node">
<title>Node14</title>
<g id="a_node13"><a xlink:href="../../da/d9a/EMCAL_2reconstruction_2include_2EMCALReconstruction_2Clusterizer_8h.html" target="_top" xlink:title="/home/travis/build\l/AliceO2Group/AliceO2\l/Detectors/EMCAL/reconstruction\l/include/EMCALReconstruction\l/Clusterizer.h">
<polygon fill="none" stroke="#000000" points="731.5,-189.5 731.5,-252.5 907.5,-252.5 907.5,-189.5 731.5,-189.5"/>
<text text-anchor="start" x="739.5" y="-240.5" font-family="Helvetica,sans-Serif" font-size="10.00" fill="#000000">/home/travis/build</text>
<text text-anchor="start" x="739.5" y="-229.5" font-family="Helvetica,sans-Serif" font-size="10.00" fill="#000000">/AliceO2Group/AliceO2</text>
<text text-anchor="start" x="739.5" y="-218.5" font-family="Helvetica,sans-Serif" font-size="10.00" fill="#000000">/Detectors/EMCAL/reconstruction</text>
<text text-anchor="start" x="739.5" y="-207.5" font-family="Helvetica,sans-Serif" font-size="10.00" fill="#000000">/include/EMCALReconstruction</text>
<text text-anchor="middle" x="819.5" y="-196.5" font-family="Helvetica,sans-Serif" font-size="10.00" fill="#000000">/Clusterizer.h</text>
</a>
</g>
</g>
<!-- Node3&#45;&gt;Node14 -->
<g id="edge13" class="edge">
<title>Node3&#45;&gt;Node14</title>
<path fill="none" stroke="#191970" d="M1064.5008,-291.3973C1020.6844,-280.2125 968.3456,-266.4392 921.5,-253 916.9509,-251.6949 912.296,-250.3324 907.6015,-248.9367"/>
<polygon fill="#191970" stroke="#191970" points="1063.7356,-294.8141 1074.29,-293.8893 1065.4626,-288.0304 1063.7356,-294.8141"/>
</g>
<!-- Node15 -->
<g id="node14" class="node">
<title>Node15</title>
<g id="a_node14"><a xlink:href="../../d8/dc0/ClusterizerTask_8h.html" target="_top" xlink:title="Definition of the EMCAL clusterizer task. ">
<polygon fill="none" stroke="#000000" points="393.5,-89.5 393.5,-152.5 569.5,-152.5 569.5,-89.5 393.5,-89.5"/>
<text text-anchor="start" x="401.5" y="-140.5" font-family="Helvetica,sans-Serif" font-size="10.00" fill="#000000">/home/travis/build</text>
<text text-anchor="start" x="401.5" y="-129.5" font-family="Helvetica,sans-Serif" font-size="10.00" fill="#000000">/AliceO2Group/AliceO2</text>
<text text-anchor="start" x="401.5" y="-118.5" font-family="Helvetica,sans-Serif" font-size="10.00" fill="#000000">/Detectors/EMCAL/reconstruction</text>
<text text-anchor="start" x="401.5" y="-107.5" font-family="Helvetica,sans-Serif" font-size="10.00" fill="#000000">/include/EMCALReconstruction</text>
<text text-anchor="middle" x="481.5" y="-96.5" font-family="Helvetica,sans-Serif" font-size="10.00" fill="#000000">/ClusterizerTask.h</text>
</a>
</g>
</g>
<!-- Node3&#45;&gt;Node15 -->
<g id="edge21" class="edge">
<title>Node3&#45;&gt;Node15</title>
<path fill="none" stroke="#191970" d="M1064,-311.3377C952.0506,-304.901 776.8436,-289.2447 722.5,-253 694.979,-234.6447 710.2411,-209.7778 684.5,-189 683.2482,-187.9896 623.9332,-168.169 569.7476,-150.1872"/>
<polygon fill="#191970" stroke="#191970" points="1064.1141,-314.8495 1074.2942,-311.9139 1064.5054,-307.8604 1064.1141,-314.8495"/>
</g>
<!-- Node18 -->
<g id="node17" class="node">
<title>Node18</title>
<g id="a_node17"><a xlink:href="../../d2/dd1/EMCAL_2workflow_2include_2EMCALWorkflow_2ClusterizerSpec_8h.html" target="_top" xlink:title="/home/travis/build\l/AliceO2Group/AliceO2\l/Detectors/EMCAL/workflow\l/include/EMCALWorkflow/Clusterizer\lSpec.h">
<polygon fill="none" stroke="#000000" points="782,-89.5 782,-152.5 973,-152.5 973,-89.5 782,-89.5"/>
<text text-anchor="start" x="790" y="-140.5" font-family="Helvetica,sans-Serif" font-size="10.00" fill="#000000">/home/travis/build</text>
<text text-anchor="start" x="790" y="-129.5" font-family="Helvetica,sans-Serif" font-size="10.00" fill="#000000">/AliceO2Group/AliceO2</text>
<text text-anchor="start" x="790" y="-118.5" font-family="Helvetica,sans-Serif" font-size="10.00" fill="#000000">/Detectors/EMCAL/workflow</text>
<text text-anchor="start" x="790" y="-107.5" font-family="Helvetica,sans-Serif" font-size="10.00" fill="#000000">/include/EMCALWorkflow/Clusterizer</text>
<text text-anchor="middle" x="877.5" y="-96.5" font-family="Helvetica,sans-Serif" font-size="10.00" fill="#000000">Spec.h</text>
</a>
</g>
</g>
<!-- Node3&#45;&gt;Node18 -->
<g id="edge35" class="edge">
<title>Node3&#45;&gt;Node18</title>
<path fill="none" stroke="#191970" d="M1064.7354,-294.7641C1034.6194,-285.2877 1002.5193,-271.8338 976.5,-253 939.8365,-226.4615 910.7184,-182.4 893.7977,-152.5544"/>
<polygon fill="#191970" stroke="#191970" points="1063.848,-298.1524 1074.4333,-297.7029 1065.8781,-291.4532 1063.848,-298.1524"/>
</g>
<!-- Node3&#45;&gt;Node20 -->
<g id="edge22" class="edge">
<title>Node3&#45;&gt;Node20</title>
<path fill="none" stroke="#191970" d="M1258.9134,-310.6673C1393.7798,-303.0846 1644.7198,-285.7546 1856.5,-253 1871.6585,-250.6555 1887.6035,-247.6722 1903.1507,-244.4737"/>
<polygon fill="#191970" stroke="#191970" points="1258.4021,-307.1902 1248.6119,-311.2402 1258.7908,-314.1794 1258.4021,-307.1902"/>
</g>
<!-- Node3&#45;&gt;Node22 -->
<g id="edge32" class="edge">
<title>Node3&#45;&gt;Node22</title>
<path fill="none" stroke="#191970" d="M1258.8685,-300.2058C1326.2962,-288.3844 1409.1693,-271.0394 1439.5,-253 1471.9848,-233.6795 1463.6458,-209.3434 1495.5,-189 1543.5054,-158.3418 1572.3616,-186.4019 1618.5,-153 1646.4602,-132.7582 1634.3782,-109.0167 1662.5,-89 1668.8169,-84.5037 1747.4082,-63.3767 1810.3695,-46.9154"/>
<polygon fill="#191970" stroke="#191970" points="1257.8714,-296.8263 1248.6157,-301.9821 1259.0664,-303.7236 1257.8714,-296.8263"/>
</g>
<!-- Node3&#45;&gt;Node23 -->
<g id="edge31" class="edge">
<title>Node3&#45;&gt;Node23</title>
<path fill="none" stroke="#191970" d="M1258.6233,-312.7879C1380.5633,-307.7139 1581.2238,-293.3303 1642.5,-253 1670.1325,-234.813 1660.0132,-214.9733 1680.5,-189 1692.2518,-174.1009 1707.1193,-159.2229 1720.1268,-147.1993"/>
<polygon fill="#191970" stroke="#191970" points="1258.3818,-309.2947 1248.5307,-313.1941 1258.6634,-316.289 1258.3818,-309.2947"/>
</g>
<!-- Node27 -->
<g id="node26" class="node">
<title>Node27</title>
<g id="a_node26"><a xlink:href="../../da/d98/EMCAL_2simulation_2src_2Detector_8cxx.html" target="_top" xlink:title="/home/travis/build\l/AliceO2Group/AliceO2\l/Detectors/EMCAL/simulation\l/src/Detector.cxx">
<polygon fill="none" stroke="#000000" points="1689.5,-195 1689.5,-247 1847.5,-247 1847.5,-195 1689.5,-195"/>
<text text-anchor="start" x="1697.5" y="-235" font-family="Helvetica,sans-Serif" font-size="10.00" fill="#000000">/home/travis/build</text>
<text text-anchor="start" x="1697.5" y="-224" font-family="Helvetica,sans-Serif" font-size="10.00" fill="#000000">/AliceO2Group/AliceO2</text>
<text text-anchor="start" x="1697.5" y="-213" font-family="Helvetica,sans-Serif" font-size="10.00" fill="#000000">/Detectors/EMCAL/simulation</text>
<text text-anchor="middle" x="1768.5" y="-202" font-family="Helvetica,sans-Serif" font-size="10.00" fill="#000000">/src/Detector.cxx</text>
</a>
</g>
</g>
<!-- Node3&#45;&gt;Node27 -->
<g id="edge30" class="edge">
<title>Node3&#45;&gt;Node27</title>
<path fill="none" stroke="#191970" d="M1259.0483,-309.7684C1363.2253,-302.2286 1532.6452,-285.8762 1675.5,-253 1682.8216,-251.315 1690.3737,-249.264 1697.8608,-247.0224"/>
<polygon fill="#191970" stroke="#191970" points="1258.5881,-306.2922 1248.8615,-310.4926 1259.0846,-313.2746 1258.5881,-306.2922"/>
</g>
<!-- Node28 -->
<g id="node27" class="node">
<title>Node28</title>
<g id="a_node27"><a xlink:href="../../d3/deb/RawWriter_8cxx.html" target="_top" xlink:title="/home/travis/build\l/AliceO2Group/AliceO2\l/Detectors/EMCAL/simulation\l/src/RawWriter.cxx">
<polygon fill="none" stroke="#000000" points="1251.5,-195 1251.5,-247 1409.5,-247 1409.5,-195 1251.5,-195"/>
<text text-anchor="start" x="1259.5" y="-235" font-family="Helvetica,sans-Serif" font-size="10.00" fill="#000000">/home/travis/build</text>
<text text-anchor="start" x="1259.5" y="-224" font-family="Helvetica,sans-Serif" font-size="10.00" fill="#000000">/AliceO2Group/AliceO2</text>
<text text-anchor="start" x="1259.5" y="-213" font-family="Helvetica,sans-Serif" font-size="10.00" fill="#000000">/Detectors/EMCAL/simulation</text>
<text text-anchor="middle" x="1330.5" y="-202" font-family="Helvetica,sans-Serif" font-size="10.00" fill="#000000">/src/RawWriter.cxx</text>
</a>
</g>
</g>
<!-- Node3&#45;&gt;Node28 -->
<g id="edge33" class="edge">
<title>Node3&#45;&gt;Node28</title>
<path fill="none" stroke="#191970" d="M1216.8813,-284.5324C1238.5017,-272.4429 1263.0197,-258.7331 1283.7317,-247.1515"/>
<polygon fill="#191970" stroke="#191970" points="1215.1473,-281.4919 1208.1274,-289.4273 1218.5637,-287.6016 1215.1473,-281.4919"/>
</g>
<!-- Node4&#45;&gt;Node5 -->
<g id="edge3" class="edge">
<title>Node4&#45;&gt;Node5</title>
<path fill="none" stroke="#191970" d="M1157.0111,-190.2047C1183.2638,-176.3875 1213.9004,-160.263 1238.9935,-147.0561"/>
<polygon fill="#191970" stroke="#191970" points="1155.1433,-187.2325 1147.9243,-194.9872 1158.4036,-193.4269 1155.1433,-187.2325"/>
</g>
<!-- Node4&#45;&gt;Node6 -->
<g id="edge4" class="edge">
<title>Node4&#45;&gt;Node6</title>
<path fill="none" stroke="#191970" d="M1098.5,-184.8138C1098.5,-174.2664 1098.5,-162.829 1098.5,-152.5891"/>
<polygon fill="#191970" stroke="#191970" points="1095.0001,-184.9872 1098.5,-194.9872 1102.0001,-184.9873 1095.0001,-184.9872"/>
</g>
<!-- Node6&#45;&gt;Node7 -->
<g id="edge5" class="edge">
<title>Node6&#45;&gt;Node7</title>
<path fill="none" stroke="#191970" d="M1174.7017,-84.9947C1197.5408,-74.2032 1222.1383,-62.5809 1243.343,-52.5617"/>
<polygon fill="#191970" stroke="#191970" points="1172.9214,-81.9648 1165.3752,-89.4015 1175.9119,-88.2938 1172.9214,-81.9648"/>
</g>
<!-- Node8 -->
<g id="node7" class="node">
<title>Node8</title>
<g id="a_node7"><a xlink:href="../../d2/dbf/EMCAL_2workflow_2src_2RecoWorkflow_8cxx.html" target="_top" xlink:title="/home/travis/build\l/AliceO2Group/AliceO2\l/Detectors/EMCAL/workflow\l/src/RecoWorkflow.cxx">
<polygon fill="none" stroke="#000000" points="997.5,-.5 997.5,-52.5 1147.5,-52.5 1147.5,-.5 997.5,-.5"/>
<text text-anchor="start" x="1005.5" y="-40.5" font-family="Helvetica,sans-Serif" font-size="10.00" fill="#000000">/home/travis/build</text>
<text text-anchor="start" x="1005.5" y="-29.5" font-family="Helvetica,sans-Serif" font-size="10.00" fill="#000000">/AliceO2Group/AliceO2</text>
<text text-anchor="start" x="1005.5" y="-18.5" font-family="Helvetica,sans-Serif" font-size="10.00" fill="#000000">/Detectors/EMCAL/workflow</text>
<text text-anchor="middle" x="1072.5" y="-7.5" font-family="Helvetica,sans-Serif" font-size="10.00" fill="#000000">/src/RecoWorkflow.cxx</text>
</a>
</g>
</g>
<!-- Node6&#45;&gt;Node8 -->
<g id="edge6" class="edge">
<title>Node6&#45;&gt;Node8</title>
<path fill="none" stroke="#191970" d="M1087.0923,-79.5374C1084.5787,-70.4013 1081.9844,-60.9722 1079.6931,-52.6442"/>
<polygon fill="#191970" stroke="#191970" points="1083.7426,-80.5567 1089.77,-89.27 1090.4918,-78.6998 1083.7426,-80.5567"/>
</g>
<!-- Node14&#45;&gt;Node6 -->
<g id="edge17" class="edge">
<title>Node14&#45;&gt;Node6</title>
<path fill="none" stroke="#191970" d="M917.1535,-185.9988C947.5532,-175.1028 980.8746,-163.1596 1010.5682,-152.5168"/>
<polygon fill="#191970" stroke="#191970" points="915.6271,-182.8278 907.3944,-189.4966 917.9889,-189.4173 915.6271,-182.8278"/>
</g>
<!-- Node14&#45;&gt;Node15 -->
<g id="edge14" class="edge">
<title>Node14&#45;&gt;Node15</title>
<path fill="none" stroke="#191970" d="M721.7945,-190.2369C720.3541,-189.8194 718.9219,-189.4069 717.5,-189 656.1465,-171.443 639.7232,-171.006 578.5,-153 575.6079,-152.1494 572.6721,-151.2707 569.7113,-150.3713"/>
<polygon fill="#191970" stroke="#191970" points="720.8197,-193.5984 731.4006,-193.056 722.7908,-186.8816 720.8197,-193.5984"/>
</g>
<!-- Node17 -->
<g id="node16" class="node">
<title>Node17</title>
<g id="a_node16"><a xlink:href="../../d2/d78/EMCAL_2reconstruction_2src_2Clusterizer_8cxx.html" target="_top" xlink:title="/home/travis/build\l/AliceO2Group/AliceO2\l/Detectors/EMCAL/reconstruction\l/src/Clusterizer.cxx">
<polygon fill="none" stroke="#000000" points="587.5,-95 587.5,-147 763.5,-147 763.5,-95 587.5,-95"/>
<text text-anchor="start" x="595.5" y="-135" font-family="Helvetica,sans-Serif" font-size="10.00" fill="#000000">/home/travis/build</text>
<text text-anchor="start" x="595.5" y="-124" font-family="Helvetica,sans-Serif" font-size="10.00" fill="#000000">/AliceO2Group/AliceO2</text>
<text text-anchor="start" x="595.5" y="-113" font-family="Helvetica,sans-Serif" font-size="10.00" fill="#000000">/Detectors/EMCAL/reconstruction</text>
<text text-anchor="middle" x="675.5" y="-102" font-family="Helvetica,sans-Serif" font-size="10.00" fill="#000000">/src/Clusterizer.cxx</text>
</a>
</g>
</g>
<!-- Node14&#45;&gt;Node17 -->
<g id="edge16" class="edge">
<title>Node14&#45;&gt;Node17</title>
<path fill="none" stroke="#191970" d="M765.5037,-183.5025C748.0364,-171.3725 729.0585,-158.1934 713.0523,-147.078"/>
<polygon fill="#191970" stroke="#191970" points="763.7274,-186.5302 773.9375,-189.3594 767.7202,-180.7806 763.7274,-186.5302"/>
</g>
<!-- Node14&#45;&gt;Node18 -->
<g id="edge18" class="edge">
<title>Node14&#45;&gt;Node18</title>
<path fill="none" stroke="#191970" d="M842.9034,-180.6493C848.2845,-171.3716 853.9328,-161.6331 859.0687,-152.778"/>
<polygon fill="#191970" stroke="#191970" points="839.8412,-178.953 837.8516,-189.3594 845.8964,-182.4651 839.8412,-178.953"/>
</g>
<!-- Node16 -->
<g id="node15" class="node">
<title>Node16</title>
<g id="a_node15"><a xlink:href="../../d6/da0/ClusterizerTask_8cxx.html" target="_top" xlink:title="Implementation of the EMCAL cluster finder task. ">
<polygon fill="none" stroke="#000000" points="393.5,-.5 393.5,-52.5 569.5,-52.5 569.5,-.5 393.5,-.5"/>
<text text-anchor="start" x="401.5" y="-40.5" font-family="Helvetica,sans-Serif" font-size="10.00" fill="#000000">/home/travis/build</text>
<text text-anchor="start" x="401.5" y="-29.5" font-family="Helvetica,sans-Serif" font-size="10.00" fill="#000000">/AliceO2Group/AliceO2</text>
<text text-anchor="start" x="401.5" y="-18.5" font-family="Helvetica,sans-Serif" font-size="10.00" fill="#000000">/Detectors/EMCAL/reconstruction</text>
<text text-anchor="middle" x="481.5" y="-7.5" font-family="Helvetica,sans-Serif" font-size="10.00" fill="#000000">/src/ClusterizerTask.cxx</text>
</a>
</g>
</g>
<!-- Node15&#45;&gt;Node16 -->
<g id="edge15" class="edge">
<title>Node15&#45;&gt;Node16</title>
<path fill="none" stroke="#191970" d="M481.5,-79.2457C481.5,-70.2008 481.5,-60.8836 481.5,-52.6442"/>
<polygon fill="#191970" stroke="#191970" points="478.0001,-79.2699 481.5,-89.27 485.0001,-79.27 478.0001,-79.2699"/>
</g>
<!-- Node18&#45;&gt;Node8 -->
<g id="edge20" class="edge">
<title>Node18&#45;&gt;Node8</title>
<path fill="none" stroke="#191970" d="M951.7967,-84.9947C974.0648,-74.2032 998.0473,-62.5809 1018.7219,-52.5617"/>
<polygon fill="#191970" stroke="#191970" points="950.1759,-81.8908 942.7033,-89.4015 953.2286,-88.19 950.1759,-81.8908"/>
</g>
<!-- Node19 -->
<g id="node18" class="node">
<title>Node19</title>
<g id="a_node18"><a xlink:href="../../d7/d67/EMCAL_2workflow_2src_2ClusterizerSpec_8cxx.html" target="_top" xlink:title="/home/travis/build\l/AliceO2Group/AliceO2\l/Detectors/EMCAL/workflow\l/src/ClusterizerSpec.cxx">
<polygon fill="none" stroke="#000000" points="802.5,-.5 802.5,-52.5 952.5,-52.5 952.5,-.5 802.5,-.5"/>
<text text-anchor="start" x="810.5" y="-40.5" font-family="Helvetica,sans-Serif" font-size="10.00" fill="#000000">/home/travis/build</text>
<text text-anchor="start" x="810.5" y="-29.5" font-family="Helvetica,sans-Serif" font-size="10.00" fill="#000000">/AliceO2Group/AliceO2</text>
<text text-anchor="start" x="810.5" y="-18.5" font-family="Helvetica,sans-Serif" font-size="10.00" fill="#000000">/Detectors/EMCAL/workflow</text>
<text text-anchor="middle" x="877.5" y="-7.5" font-family="Helvetica,sans-Serif" font-size="10.00" fill="#000000">/src/ClusterizerSpec.cxx</text>
</a>
</g>
</g>
<!-- Node18&#45;&gt;Node19 -->
<g id="edge19" class="edge">
<title>Node18&#45;&gt;Node19</title>
<path fill="none" stroke="#191970" d="M877.5,-79.2457C877.5,-70.2008 877.5,-60.8836 877.5,-52.6442"/>
<polygon fill="#191970" stroke="#191970" points="874.0001,-79.2699 877.5,-89.27 881.0001,-79.27 874.0001,-79.2699"/>
</g>
<!-- Node21 -->
<g id="node20" class="node">
<title>Node21</title>
<g id="a_node20"><a xlink:href="../../d6/d0e/EMCAL_2simulation_2include_2EMCALSimulation_2DigitizerTask_8h.html" target="_top" xlink:title="/home/travis/build\l/AliceO2Group/AliceO2\l/Detectors/EMCAL/simulation\l/include/EMCALSimulation/DigitizerTask.h">
<polygon fill="none" stroke="#000000" points="1885.5,-95 1885.5,-147 2103.5,-147 2103.5,-95 1885.5,-95"/>
<text text-anchor="start" x="1893.5" y="-135" font-family="Helvetica,sans-Serif" font-size="10.00" fill="#000000">/home/travis/build</text>
<text text-anchor="start" x="1893.5" y="-124" font-family="Helvetica,sans-Serif" font-size="10.00" fill="#000000">/AliceO2Group/AliceO2</text>
<text text-anchor="start" x="1893.5" y="-113" font-family="Helvetica,sans-Serif" font-size="10.00" fill="#000000">/Detectors/EMCAL/simulation</text>
<text text-anchor="middle" x="1994.5" y="-102" font-family="Helvetica,sans-Serif" font-size="10.00" fill="#000000">/include/EMCALSimulation/DigitizerTask.h</text>
</a>
</g>
</g>
<!-- Node20&#45;&gt;Node21 -->
<g id="edge23" class="edge">
<title>Node20&#45;&gt;Node21</title>
<path fill="none" stroke="#191970" d="M1998.9727,-184.8962C1998.101,-172.4433 1997.1419,-158.7413 1996.3361,-147.2299"/>
<polygon fill="#191970" stroke="#191970" points="1995.4893,-185.2561 1999.6791,-194.9872 2002.4722,-184.7672 1995.4893,-185.2561"/>
</g>
<!-- Node20&#45;&gt;Node22 -->
<g id="edge26" class="edge">
<title>Node20&#45;&gt;Node22</title>
<path fill="none" stroke="#191970" d="M1914.352,-189.5999C1899.2494,-180.1817 1885.5218,-168.1783 1876.5,-153 1858.2257,-122.2555 1868.2857,-79.7649 1878.1374,-52.706"/>
<polygon fill="#191970" stroke="#191970" points="1912.9741,-192.8475 1923.3778,-194.851 1916.4943,-186.797 1912.9741,-192.8475"/>
</g>
<!-- Node20&#45;&gt;Node23 -->
<g id="edge25" class="edge">
<title>Node20&#45;&gt;Node23</title>
<path fill="none" stroke="#191970" d="M1926.9177,-191.2859C1891.6484,-177.2344 1849.9186,-160.609 1815.9007,-147.0561"/>
<polygon fill="#191970" stroke="#191970" points="1925.6226,-194.5375 1936.2079,-194.9872 1928.2135,-188.0346 1925.6226,-194.5375"/>
</g>
<!-- Node24 -->
<g id="node23" class="node">
<title>Node24</title>
<g id="a_node23"><a xlink:href="../../df/d81/EMCALDigitizerSpec_8h.html" target="_top" xlink:title="/home/travis/build\l/AliceO2Group/AliceO2\l/Steer/DigitizerWorkflow\l/src/EMCALDigitizerSpec.h">
<polygon fill="none" stroke="#000000" points="1466,-95 1466,-147 1609,-147 1609,-95 1466,-95"/>
<text text-anchor="start" x="1474" y="-135" font-family="Helvetica,sans-Serif" font-size="10.00" fill="#000000">/home/travis/build</text>
<text text-anchor="start" x="1474" y="-124" font-family="Helvetica,sans-Serif" font-size="10.00" fill="#000000">/AliceO2Group/AliceO2</text>
<text text-anchor="start" x="1474" y="-113" font-family="Helvetica,sans-Serif" font-size="10.00" fill="#000000">/Steer/DigitizerWorkflow</text>
<text text-anchor="middle" x="1537.5" y="-102" font-family="Helvetica,sans-Serif" font-size="10.00" fill="#000000">/src/EMCALDigitizerSpec.h</text>
</a>
</g>
</g>
<!-- Node20&#45;&gt;Node24 -->
<g id="edge27" class="edge">
<title>Node20&#45;&gt;Node24</title>
<path fill="none" stroke="#191970" d="M1893.3811,-196.7192C1880.9568,-194.0538 1868.4608,-191.4289 1856.5,-189 1770.5598,-171.5483 1748.1366,-171.8848 1662.5,-153 1645.1089,-149.1649 1626.4644,-144.6256 1609.0221,-140.1895"/>
<polygon fill="#191970" stroke="#191970" points="1892.8049,-200.1754 1903.3181,-198.8625 1894.2808,-193.3327 1892.8049,-200.1754"/>
</g>
<!-- Node21&#45;&gt;Node22 -->
<g id="edge24" class="edge">
<title>Node21&#45;&gt;Node22</title>
<path fill="none" stroke="#191970" d="M1957.7791,-87.9512C1944.9952,-76.4457 1930.8351,-63.7016 1918.7396,-52.8157"/>
<polygon fill="#191970" stroke="#191970" points="1955.756,-90.8392 1965.5303,-94.9273 1960.4388,-85.6361 1955.756,-90.8392"/>
</g>
<!-- Node25 -->
<g id="node24" class="node">
<title>Node25</title>
<g id="a_node24"><a xlink:href="../../d5/d9b/EMCALDigitizerSpec_8cxx.html" target="_top" xlink:title="/home/travis/build\l/AliceO2Group/AliceO2\l/Steer/DigitizerWorkflow\l/src/EMCALDigitizerSpec.cxx">
<polygon fill="none" stroke="#000000" points="1427,-.5 1427,-52.5 1582,-52.5 1582,-.5 1427,-.5"/>
<text text-anchor="start" x="1435" y="-40.5" font-family="Helvetica,sans-Serif" font-size="10.00" fill="#000000">/home/travis/build</text>
<text text-anchor="start" x="1435" y="-29.5" font-family="Helvetica,sans-Serif" font-size="10.00" fill="#000000">/AliceO2Group/AliceO2</text>
<text text-anchor="start" x="1435" y="-18.5" font-family="Helvetica,sans-Serif" font-size="10.00" fill="#000000">/Steer/DigitizerWorkflow</text>
<text text-anchor="middle" x="1504.5" y="-7.5" font-family="Helvetica,sans-Serif" font-size="10.00" fill="#000000">/src/EMCALDigitizerSpec.cxx</text>
</a>
</g>
</g>
<!-- Node24&#45;&gt;Node25 -->
<g id="edge28" class="edge">
<title>Node24&#45;&gt;Node25</title>
<path fill="none" stroke="#191970" d="M1525.0425,-85.3263C1521.2733,-74.5326 1517.2041,-62.88 1513.6896,-52.8157"/>
<polygon fill="#191970" stroke="#191970" points="1521.794,-86.6403 1528.3952,-94.9273 1528.4027,-84.3325 1521.794,-86.6403"/>
</g>
<!-- Node26 -->
<g id="node25" class="node">
<title>Node26</title>
<g id="a_node25"><a xlink:href="../../d2/dd7/SimpleDigitizerWorkflow_8cxx.html" target="_top" xlink:title="/home/travis/build\l/AliceO2Group/AliceO2\l/Steer/DigitizerWorkflow\l/src/SimpleDigitizerWorkflow.cxx">
<polygon fill="none" stroke="#000000" points="1600.5,-.5 1600.5,-52.5 1776.5,-52.5 1776.5,-.5 1600.5,-.5"/>
<text text-anchor="start" x="1608.5" y="-40.5" font-family="Helvetica,sans-Serif" font-size="10.00" fill="#000000">/home/travis/build</text>
<text text-anchor="start" x="1608.5" y="-29.5" font-family="Helvetica,sans-Serif" font-size="10.00" fill="#000000">/AliceO2Group/AliceO2</text>
<text text-anchor="start" x="1608.5" y="-18.5" font-family="Helvetica,sans-Serif" font-size="10.00" fill="#000000">/Steer/DigitizerWorkflow</text>
<text text-anchor="middle" x="1688.5" y="-7.5" font-family="Helvetica,sans-Serif" font-size="10.00" fill="#000000">/src/SimpleDigitizerWorkflow.cxx</text>
</a>
</g>
</g>
<!-- Node24&#45;&gt;Node26 -->
<g id="edge29" class="edge">
<title>Node24&#45;&gt;Node26</title>
<path fill="none" stroke="#191970" d="M1587.7567,-89.5479C1606.8839,-77.5776 1628.4537,-64.0786 1646.713,-52.6515"/>
<polygon fill="#191970" stroke="#191970" points="1585.7812,-86.6553 1579.1611,-94.9273 1589.4948,-92.5891 1585.7812,-86.6553"/>
</g>
<!-- Node29&#45;&gt;Node27 -->
<g id="edge38" class="edge">
<title>Node29&#45;&gt;Node27</title>
<path fill="none" stroke="#191970" d="M1928.6004,-285.6559C1897.9997,-273.298 1862.8265,-259.0934 1833.2561,-247.1515"/>
<polygon fill="#191970" stroke="#191970" points="1927.356,-288.928 1937.939,-289.4273 1929.9773,-282.4373 1927.356,-288.928"/>
</g>
<!-- Node30 -->
<g id="node29" class="node">
<title>Node30</title>
<g id="a_node29"><a xlink:href="../../db/d50/O2HitMerger_8h.html" target="_top" xlink:title="/home/travis/build\l/AliceO2Group/AliceO2\l/run/O2HitMerger.h">
<polygon fill="none" stroke="#000000" points="2124,-200.5 2124,-241.5 2251,-241.5 2251,-200.5 2124,-200.5"/>
<text text-anchor="start" x="2132" y="-229.5" font-family="Helvetica,sans-Serif" font-size="10.00" fill="#000000">/home/travis/build</text>
<text text-anchor="start" x="2132" y="-218.5" font-family="Helvetica,sans-Serif" font-size="10.00" fill="#000000">/AliceO2Group/AliceO2</text>
<text text-anchor="middle" x="2187.5" y="-207.5" font-family="Helvetica,sans-Serif" font-size="10.00" fill="#000000">/run/O2HitMerger.h</text>
</a>
</g>
</g>
<!-- Node29&#45;&gt;Node30 -->
<g id="edge39" class="edge">
<title>Node29&#45;&gt;Node30</title>
<path fill="none" stroke="#191970" d="M2062.7385,-284.7295C2090.4046,-270.5974 2122.4726,-254.2167 2147.1688,-241.6016"/>
<polygon fill="#191970" stroke="#191970" points="2060.8551,-281.7614 2053.5418,-289.4273 2064.0394,-287.9952 2060.8551,-281.7614"/>
</g>
<!-- Node30&#45;&gt;Node30 -->
<g id="edge40" class="edge">
<title>Node30&#45;&gt;Node30</title>
<path fill="none" stroke="#191970" d="M2260.6757,-233.8946C2265.8451,-230.9609 2269,-226.6627 2269,-221 2269,-212.3711 2261.6744,-206.9106 2251.058,-204.6186"/>
<polygon fill="#191970" stroke="#191970" points="2259.2663,-230.6826 2251.058,-237.3814 2261.6522,-237.2634 2259.2663,-230.6826"/>
</g>
<!-- Node31 -->
<g id="node30" class="node">
<title>Node31</title>
<g id="a_node30"><a xlink:href="../../d9/d16/O2HitMergerRunner_8cxx.html" target="_top" xlink:title="/home/travis/build\l/AliceO2Group/AliceO2\l/run/O2HitMergerRunner.cxx">
<polygon fill="none" stroke="#000000" points="2122,-100.5 2122,-141.5 2275,-141.5 2275,-100.5 2122,-100.5"/>
<text text-anchor="start" x="2130" y="-129.5" font-family="Helvetica,sans-Serif" font-size="10.00" fill="#000000">/home/travis/build</text>
<text text-anchor="start" x="2130" y="-118.5" font-family="Helvetica,sans-Serif" font-size="10.00" fill="#000000">/AliceO2Group/AliceO2</text>
<text text-anchor="middle" x="2198.5" y="-107.5" font-family="Helvetica,sans-Serif" font-size="10.00" fill="#000000">/run/O2HitMergerRunner.cxx</text>
</a>
</g>
</g>
<!-- Node30&#45;&gt;Node31 -->
<g id="edge41" class="edge">
<title>Node30&#45;&gt;Node31</title>
<path fill="none" stroke="#191970" d="M2190.9133,-189.9703C2192.6407,-174.2668 2194.6905,-155.6321 2196.2237,-141.6935"/>
<polygon fill="#191970" stroke="#191970" points="2187.3937,-189.9572 2189.7792,-200.2799 2194.3517,-190.7226 2187.3937,-189.9572"/>
</g>
</g>
</svg>
