<?xml version="1.0" encoding="UTF-8" standalone="no"?>
<!DOCTYPE svg PUBLIC "-//W3C//DTD SVG 1.1//EN"
 "http://www.w3.org/Graphics/SVG/1.1/DTD/svg11.dtd">
<!-- Generated by graphviz version 2.40.1 (20161225.0304)
 -->
<!-- Title: /home/travis/build/AliceO2Group/AliceO2/GPU/TPCFastTransformation/TPCFastSpaceChargeCorrection.cxx Pages: 1 -->
<svg width="831pt" height="397pt"
 viewBox="0.00 0.00 831.17 397.00" xmlns="http://www.w3.org/2000/svg" xmlns:xlink="http://www.w3.org/1999/xlink">
<g id="graph0" class="graph" transform="scale(1 1) rotate(0) translate(4 393)">
<title>/home/travis/build/AliceO2Group/AliceO2/GPU/TPCFastTransformation/TPCFastSpaceChargeCorrection.cxx</title>
<!-- Node0 -->
<g id="node1" class="node">
<title>Node0</title>
<polygon fill="#bfbfbf" stroke="#000000" points="522,-336.5 522,-388.5 714,-388.5 714,-336.5 522,-336.5"/>
<text text-anchor="start" x="530" y="-376.5" font-family="Helvetica,sans-Serif" font-size="10.00" fill="#000000">/home/travis/build</text>
<text text-anchor="start" x="530" y="-365.5" font-family="Helvetica,sans-Serif" font-size="10.00" fill="#000000">/AliceO2Group/AliceO2</text>
<text text-anchor="start" x="530" y="-354.5" font-family="Helvetica,sans-Serif" font-size="10.00" fill="#000000">/GPU/TPCFastTransformation</text>
<text text-anchor="middle" x="618" y="-343.5" font-family="Helvetica,sans-Serif" font-size="10.00" fill="#000000">/TPCFastSpaceChargeCorrection.cxx</text>
</g>
<!-- Node1 -->
<g id="node2" class="node">
<title>Node1</title>
<g id="a_node2"><a xlink:href="../../d8/d93/TPCFastSpaceChargeCorrection_8h.html" target="_top" xlink:title="Definition of TPCFastSpaceChargeCorrection class. ">
<polygon fill="none" stroke="#000000" points="325,-280.5 325,-299.5 503,-299.5 503,-280.5 325,-280.5"/>
<text text-anchor="middle" x="414" y="-287.5" font-family="Helvetica,sans-Serif" font-size="10.00" fill="#000000">TPCFastSpaceChargeCorrection.h</text>
</a>
</g>
</g>
<!-- Node0&#45;&gt;Node1 -->
<g id="edge1" class="edge">
<title>Node0&#45;&gt;Node1</title>
<path fill="none" stroke="#191970" d="M544.6395,-336.4283C512.6325,-325.0532 476.5311,-312.2231 450.4032,-302.9374"/>
<polygon fill="#191970" stroke="#191970" points="451.5018,-299.6135 440.9071,-299.5626 449.1577,-306.2093 451.5018,-299.6135"/>
</g>
<!-- Node15 -->
<g id="node16" class="node">
<title>Node15</title>
<polygon fill="none" stroke="#bfbfbf" points="679,-.5 679,-19.5 739,-19.5 739,-.5 679,-.5"/>
<text text-anchor="middle" x="709" y="-7.5" font-family="Helvetica,sans-Serif" font-size="10.00" fill="#000000">iostream</text>
</g>
<!-- Node0&#45;&gt;Node15 -->
<g id="edge26" class="edge">
<title>Node0&#45;&gt;Node15</title>
<path fill="none" stroke="#191970" d="M714.1974,-340.8058C767.4597,-322.4893 823,-289.9707 823,-234 823,-234 823,-234 823,-122 823,-91.4754 823.6664,-79.345 804,-56 789.8242,-39.1726 768.0475,-28.0108 748.9183,-20.9018"/>
<polygon fill="#191970" stroke="#191970" points="749.8054,-17.5053 739.2107,-17.5452 747.5179,-24.121 749.8054,-17.5053"/>
</g>
<!-- Node2 -->
<g id="node3" class="node">
<title>Node2</title>
<g id="a_node3"><a xlink:href="../../dd/d27/Spline2D_8h.html" target="_top" xlink:title="Definition of Spline2D class. ">
<polygon fill="none" stroke="#000000" points="379.5,-224.5 379.5,-243.5 448.5,-243.5 448.5,-224.5 379.5,-224.5"/>
<text text-anchor="middle" x="414" y="-231.5" font-family="Helvetica,sans-Serif" font-size="10.00" fill="#000000">Spline2D.h</text>
</a>
</g>
</g>
<!-- Node1&#45;&gt;Node2 -->
<g id="edge2" class="edge">
<title>Node1&#45;&gt;Node2</title>
<path fill="none" stroke="#191970" d="M414,-280.2455C414,-272.9382 414,-262.6944 414,-253.7046"/>
<polygon fill="#191970" stroke="#191970" points="417.5001,-253.6426 414,-243.6427 410.5001,-253.6427 417.5001,-253.6426"/>
</g>
<!-- Node4 -->
<g id="node5" class="node">
<title>Node4</title>
<g id="a_node5"><a xlink:href="../../df/d21/GPUCommonDef_8h.html" target="_top" xlink:title="GPUCommonDef.h">
<polygon fill="none" stroke="#000000" points="117.5,-56.5 117.5,-75.5 224.5,-75.5 224.5,-56.5 117.5,-56.5"/>
<text text-anchor="middle" x="171" y="-63.5" font-family="Helvetica,sans-Serif" font-size="10.00" fill="#000000">GPUCommonDef.h</text>
</a>
</g>
</g>
<!-- Node1&#45;&gt;Node4 -->
<g id="edge25" class="edge">
<title>Node1&#45;&gt;Node4</title>
<path fill="none" stroke="#191970" d="M387.7542,-280.4995C338.1967,-261.0737 231.3169,-211.7876 181,-132 172.4033,-118.3682 170.1955,-100.0711 169.9722,-86.1996"/>
<polygon fill="#191970" stroke="#191970" points="173.4788,-85.8479 170.1547,-75.788 166.4799,-85.7251 173.4788,-85.8479"/>
</g>
<!-- Node7 -->
<g id="node8" class="node">
<title>Node7</title>
<g id="a_node8"><a xlink:href="../../db/dff/FlatObject_8h.html" target="_top" xlink:title="Definition of FlatObject class. ">
<polygon fill="none" stroke="#000000" points="477.5,-112.5 477.5,-131.5 552.5,-131.5 552.5,-112.5 477.5,-112.5"/>
<text text-anchor="middle" x="515" y="-119.5" font-family="Helvetica,sans-Serif" font-size="10.00" fill="#000000">FlatObject.h</text>
</a>
</g>
</g>
<!-- Node1&#45;&gt;Node7 -->
<g id="edge24" class="edge">
<title>Node1&#45;&gt;Node7</title>
<path fill="none" stroke="#191970" d="M425.188,-280.2566C434.7804,-271.4803 448.5134,-257.8627 458,-244 480.8868,-210.5556 498.914,-166.4651 508.1689,-141.4811"/>
<polygon fill="#191970" stroke="#191970" points="511.5816,-142.3355 511.6885,-131.7412 504.9982,-139.9565 511.5816,-142.3355"/>
</g>
<!-- Node18 -->
<g id="node19" class="node">
<title>Node18</title>
<g id="a_node19"><a xlink:href="../../d5/dde/TPCFastTransformGeo_8h.html" target="_top" xlink:title="Definition of TPCFastTransformGeo class. ">
<polygon fill="none" stroke="#000000" points="206,-112.5 206,-131.5 338,-131.5 338,-112.5 206,-112.5"/>
<text text-anchor="middle" x="272" y="-119.5" font-family="Helvetica,sans-Serif" font-size="10.00" fill="#000000">TPCFastTransformGeo.h</text>
</a>
</g>
</g>
<!-- Node1&#45;&gt;Node18 -->
<g id="edge21" class="edge">
<title>Node1&#45;&gt;Node18</title>
<path fill="none" stroke="#191970" d="M404.3071,-280.3598C395.2195,-271.2078 381.3672,-256.9616 370,-244 338.5498,-208.1386 304.1436,-164.0834 285.6287,-139.9408"/>
<polygon fill="#191970" stroke="#191970" points="288.2018,-137.5436 279.35,-131.7215 282.6391,-141.7929 288.2018,-137.5436"/>
</g>
<!-- Node3 -->
<g id="node4" class="node">
<title>Node3</title>
<g id="a_node4"><a xlink:href="../../de/da6/Spline1D_8h.html" target="_top" xlink:title="Definition of Spline1D class. ">
<polygon fill="none" stroke="#000000" points="379.5,-168.5 379.5,-187.5 448.5,-187.5 448.5,-168.5 379.5,-168.5"/>
<text text-anchor="middle" x="414" y="-175.5" font-family="Helvetica,sans-Serif" font-size="10.00" fill="#000000">Spline1D.h</text>
</a>
</g>
</g>
<!-- Node2&#45;&gt;Node3 -->
<g id="edge3" class="edge">
<title>Node2&#45;&gt;Node3</title>
<path fill="none" stroke="#191970" d="M414,-224.2455C414,-216.9382 414,-206.6944 414,-197.7046"/>
<polygon fill="#191970" stroke="#191970" points="417.5001,-197.6426 414,-187.6427 410.5001,-197.6427 417.5001,-197.6426"/>
</g>
<!-- Node2&#45;&gt;Node4 -->
<g id="edge20" class="edge">
<title>Node2&#45;&gt;Node4</title>
<path fill="none" stroke="#191970" d="M379.1592,-226.2088C331.8437,-213.9306 247.4036,-185.7442 197,-132 184.9159,-119.115 178.2109,-99.949 174.6508,-85.5857"/>
<polygon fill="#191970" stroke="#191970" points="178.0507,-84.7488 172.5044,-75.7216 171.2107,-86.2372 178.0507,-84.7488"/>
</g>
<!-- Node2&#45;&gt;Node7 -->
<g id="edge19" class="edge">
<title>Node2&#45;&gt;Node7</title>
<path fill="none" stroke="#191970" d="M423.588,-224.2662C432.6015,-215.048 446.4037,-200.7571 458,-188 472.7028,-171.8254 488.9511,-152.9029 500.3254,-139.4763"/>
<polygon fill="#191970" stroke="#191970" points="503.256,-141.4305 507.0308,-131.531 497.9064,-136.9158 503.256,-141.4305"/>
</g>
<!-- Node3&#45;&gt;Node4 -->
<g id="edge4" class="edge">
<title>Node3&#45;&gt;Node4</title>
<path fill="none" stroke="#191970" d="M406.918,-168.3243C395.8005,-153.8465 372.8362,-126.682 347,-112 326.812,-100.5278 271.7477,-87.0579 228.5335,-77.6703"/>
<polygon fill="#191970" stroke="#191970" points="229.1847,-74.2304 218.6728,-75.5537 227.7156,-81.0745 229.1847,-74.2304"/>
</g>
<!-- Node3&#45;&gt;Node7 -->
<g id="edge7" class="edge">
<title>Node3&#45;&gt;Node7</title>
<path fill="none" stroke="#191970" d="M431.5929,-168.2455C447.379,-159.4928 470.7639,-146.527 488.7587,-136.5496"/>
<polygon fill="#191970" stroke="#191970" points="490.5603,-139.5528 497.6087,-131.6427 487.1659,-133.4308 490.5603,-139.5528"/>
</g>
<!-- Node17 -->
<g id="node18" class="node">
<title>Node17</title>
<polygon fill="none" stroke="#bfbfbf" points="394.5,-112.5 394.5,-131.5 459.5,-131.5 459.5,-112.5 394.5,-112.5"/>
<text text-anchor="middle" x="427" y="-119.5" font-family="Helvetica,sans-Serif" font-size="10.00" fill="#000000">functional</text>
</g>
<!-- Node3&#45;&gt;Node17 -->
<g id="edge18" class="edge">
<title>Node3&#45;&gt;Node17</title>
<path fill="none" stroke="#191970" d="M416.2644,-168.2455C417.9794,-160.8579 420.3912,-150.4689 422.4944,-141.4087"/>
<polygon fill="#191970" stroke="#191970" points="425.9095,-142.1751 424.7615,-131.6427 419.0908,-140.5922 425.9095,-142.1751"/>
</g>
<!-- Node5 -->
<g id="node6" class="node">
<title>Node5</title>
<g id="a_node6"><a xlink:href="../../d5/d93/GPUCommonDefSettings_8h.html" target="_top" xlink:title="GPUCommonDefSettings.h">
<polygon fill="none" stroke="#000000" points="142,-.5 142,-19.5 290,-19.5 290,-.5 142,-.5"/>
<text text-anchor="middle" x="216" y="-7.5" font-family="Helvetica,sans-Serif" font-size="10.00" fill="#000000">GPUCommonDefSettings.h</text>
</a>
</g>
</g>
<!-- Node4&#45;&gt;Node5 -->
<g id="edge5" class="edge">
<title>Node4&#45;&gt;Node5</title>
<path fill="none" stroke="#191970" d="M178.8384,-56.2455C185.162,-48.3761 194.2224,-37.101 201.8136,-27.6542"/>
<polygon fill="#191970" stroke="#191970" points="204.7158,-29.6302 208.2514,-19.6427 199.2592,-25.2454 204.7158,-29.6302"/>
</g>
<!-- Node6 -->
<g id="node7" class="node">
<title>Node6</title>
<g id="a_node7"><a xlink:href="../../da/d5a/GPUCommonDefAPI_8h.html" target="_top" xlink:title="GPUCommonDefAPI.h">
<polygon fill="none" stroke="#000000" points="0,-.5 0,-19.5 124,-19.5 124,-.5 0,-.5"/>
<text text-anchor="middle" x="62" y="-7.5" font-family="Helvetica,sans-Serif" font-size="10.00" fill="#000000">GPUCommonDefAPI.h</text>
</a>
</g>
</g>
<!-- Node4&#45;&gt;Node6 -->
<g id="edge6" class="edge">
<title>Node4&#45;&gt;Node6</title>
<path fill="none" stroke="#191970" d="M152.0136,-56.2455C134.8208,-47.4125 109.2762,-34.2887 89.7868,-24.2758"/>
<polygon fill="#191970" stroke="#191970" points="91.263,-21.0993 80.7688,-19.6427 88.0641,-27.3257 91.263,-21.0993"/>
</g>
<!-- Node7&#45;&gt;Node4 -->
<g id="edge12" class="edge">
<title>Node7&#45;&gt;Node4</title>
<path fill="none" stroke="#191970" d="M477.3828,-113.6233C474.5502,-113.0536 471.7323,-112.5058 469,-112 368.2475,-93.35 340.0882,-92.3289 234.7125,-76.096"/>
<polygon fill="#191970" stroke="#191970" points="235.0313,-72.6037 224.6131,-74.5302 233.9588,-79.5211 235.0313,-72.6037"/>
</g>
<!-- Node8 -->
<g id="node9" class="node">
<title>Node8</title>
<polygon fill="none" stroke="#bfbfbf" points="603.5,-56.5 603.5,-75.5 656.5,-75.5 656.5,-56.5 603.5,-56.5"/>
<text text-anchor="middle" x="630" y="-63.5" font-family="Helvetica,sans-Serif" font-size="10.00" fill="#000000">cstddef</text>
</g>
<!-- Node7&#45;&gt;Node8 -->
<g id="edge8" class="edge">
<title>Node7&#45;&gt;Node8</title>
<path fill="none" stroke="#191970" d="M534.7692,-112.3733C553.1469,-103.4241 580.7312,-89.9917 601.4893,-79.8835"/>
<polygon fill="#191970" stroke="#191970" points="603.0304,-83.026 610.4888,-75.5011 599.9657,-76.7325 603.0304,-83.026"/>
</g>
<!-- Node9 -->
<g id="node10" class="node">
<title>Node9</title>
<polygon fill="none" stroke="#bfbfbf" points="243,-56.5 243,-75.5 301,-75.5 301,-56.5 243,-56.5"/>
<text text-anchor="middle" x="272" y="-63.5" font-family="Helvetica,sans-Serif" font-size="10.00" fill="#000000">memory</text>
</g>
<!-- Node7&#45;&gt;Node9 -->
<g id="edge9" class="edge">
<title>Node7&#45;&gt;Node9</title>
<path fill="none" stroke="#191970" d="M477.4424,-113.7453C431.1707,-103.5478 354.2549,-86.5005 310.9962,-76.1652"/>
<polygon fill="#191970" stroke="#191970" points="311.5608,-72.701 301.0184,-73.7532 309.916,-79.505 311.5608,-72.701"/>
</g>
<!-- Node10 -->
<g id="node11" class="node">
<title>Node10</title>
<polygon fill="none" stroke="#bfbfbf" points="675,-56.5 675,-75.5 725,-75.5 725,-56.5 675,-56.5"/>
<text text-anchor="middle" x="700" y="-63.5" font-family="Helvetica,sans-Serif" font-size="10.00" fill="#000000">cstring</text>
</g>
<!-- Node7&#45;&gt;Node10 -->
<g id="edge10" class="edge">
<title>Node7&#45;&gt;Node10</title>
<path fill="none" stroke="#191970" d="M546.8026,-112.3733C579.6646,-102.4259 630.8257,-86.9393 664.864,-76.6358"/>
<polygon fill="#191970" stroke="#191970" points="666.2816,-79.8636 674.8387,-73.6164 664.2535,-73.1638 666.2816,-79.8636"/>
</g>
<!-- Node11 -->
<g id="node12" class="node">
<title>Node11</title>
<polygon fill="none" stroke="#bfbfbf" points="743,-56.5 743,-75.5 795,-75.5 795,-56.5 743,-56.5"/>
<text text-anchor="middle" x="769" y="-63.5" font-family="Helvetica,sans-Serif" font-size="10.00" fill="#000000">cassert</text>
</g>
<!-- Node7&#45;&gt;Node11 -->
<g id="edge11" class="edge">
<title>Node7&#45;&gt;Node11</title>
<path fill="none" stroke="#191970" d="M552.7747,-114.9149C594.5175,-106.8986 663.937,-93.0166 732.5644,-76.2341"/>
<polygon fill="#191970" stroke="#191970" points="733.8106,-79.5316 742.6806,-73.7373 732.1332,-72.7355 733.8106,-79.5316"/>
</g>
<!-- Node12 -->
<g id="node13" class="node">
<title>Node12</title>
<g id="a_node13"><a xlink:href="../../d2/d45/GPUCommonRtypes_8h.html" target="_top" xlink:title="GPUCommonRtypes.h">
<polygon fill="none" stroke="#000000" points="319.5,-56.5 319.5,-75.5 444.5,-75.5 444.5,-56.5 319.5,-56.5"/>
<text text-anchor="middle" x="382" y="-63.5" font-family="Helvetica,sans-Serif" font-size="10.00" fill="#000000">GPUCommonRtypes.h</text>
</a>
</g>
</g>
<!-- Node7&#45;&gt;Node12 -->
<g id="edge13" class="edge">
<title>Node7&#45;&gt;Node12</title>
<path fill="none" stroke="#191970" d="M492.1365,-112.3733C470.595,-103.3032 438.1162,-89.6279 414.0044,-79.4755"/>
<polygon fill="#191970" stroke="#191970" points="415.1397,-76.156 404.5652,-75.5011 412.4233,-82.6075 415.1397,-76.156"/>
</g>
<!-- Node14 -->
<g id="node15" class="node">
<title>Node14</title>
<g id="a_node15"><a xlink:href="../../df/d5b/GPUCommonLogger_8h.html" target="_top" xlink:title="GPUCommonLogger.h">
<polygon fill="none" stroke="#000000" points="462.5,-56.5 462.5,-75.5 585.5,-75.5 585.5,-56.5 462.5,-56.5"/>
<text text-anchor="middle" x="524" y="-63.5" font-family="Helvetica,sans-Serif" font-size="10.00" fill="#000000">GPUCommonLogger.h</text>
</a>
</g>
</g>
<!-- Node7&#45;&gt;Node14 -->
<g id="edge15" class="edge">
<title>Node7&#45;&gt;Node14</title>
<path fill="none" stroke="#191970" d="M516.5677,-112.2455C517.7421,-104.9382 519.3884,-94.6944 520.8332,-85.7046"/>
<polygon fill="#191970" stroke="#191970" points="524.3191,-86.0714 522.4503,-75.6427 517.4078,-84.9606 524.3191,-86.0714"/>
</g>
<!-- Node13 -->
<g id="node14" class="node">
<title>Node13</title>
<polygon fill="none" stroke="#bfbfbf" points="352.5,-.5 352.5,-19.5 411.5,-19.5 411.5,-.5 352.5,-.5"/>
<text text-anchor="middle" x="382" y="-7.5" font-family="Helvetica,sans-Serif" font-size="10.00" fill="#000000">Rtypes.h</text>
</g>
<!-- Node12&#45;&gt;Node13 -->
<g id="edge14" class="edge">
<title>Node12&#45;&gt;Node13</title>
<path fill="none" stroke="#191970" d="M382,-56.2455C382,-48.9382 382,-38.6944 382,-29.7046"/>
<polygon fill="#191970" stroke="#191970" points="385.5001,-29.6426 382,-19.6427 378.5001,-29.6427 385.5001,-29.6426"/>
</g>
<!-- Node14&#45;&gt;Node15 -->
<g id="edge16" class="edge">
<title>Node14&#45;&gt;Node15</title>
<path fill="none" stroke="#191970" d="M555.8026,-56.3733C587.2078,-46.8668 635.3256,-32.3015 669.2392,-22.0357"/>
<polygon fill="#191970" stroke="#191970" points="670.2803,-25.3775 678.8374,-19.1303 668.2522,-18.6777 670.2803,-25.3775"/>
</g>
<!-- Node16 -->
<g id="node17" class="node">
<title>Node16</title>
<polygon fill="none" stroke="#bfbfbf" points="501,-.5 501,-19.5 547,-19.5 547,-.5 501,-.5"/>
<text text-anchor="middle" x="524" y="-7.5" font-family="Helvetica,sans-Serif" font-size="10.00" fill="#000000">cstdio</text>
</g>
<!-- Node14&#45;&gt;Node16 -->
<g id="edge17" class="edge">
<title>Node14&#45;&gt;Node16</title>
<path fill="none" stroke="#191970" d="M524,-56.2455C524,-48.9382 524,-38.6944 524,-29.7046"/>
<polygon fill="#191970" stroke="#191970" points="527.5001,-29.6426 524,-19.6427 520.5001,-29.6427 527.5001,-29.6426"/>
</g>
<!-- Node18&#45;&gt;Node4 -->
<g id="edge22" class="edge">
<title>Node18&#45;&gt;Node4</title>
<path fill="none" stroke="#191970" d="M254.4071,-112.2455C238.621,-103.4928 215.2361,-90.527 197.2413,-80.5496"/>
<polygon fill="#191970" stroke="#191970" points="198.8341,-77.4308 188.3913,-75.6427 195.4397,-83.5528 198.8341,-77.4308"/>
</g>
<!-- Node18&#45;&gt;Node9 -->
<g id="edge23" class="edge">
<title>Node18&#45;&gt;Node9</title>
<path fill="none" stroke="#191970" d="M272,-112.2455C272,-104.9382 272,-94.6944 272,-85.7046"/>
<polygon fill="#191970" stroke="#191970" points="275.5001,-85.6426 272,-75.6427 268.5001,-85.6427 275.5001,-85.6426"/>
</g>
</g>
</svg>
