<?xml version="1.0" encoding="UTF-8" standalone="no"?>
<!DOCTYPE svg PUBLIC "-//W3C//DTD SVG 1.1//EN"
 "http://www.w3.org/Graphics/SVG/1.1/DTD/svg11.dtd">
<!-- Generated by graphviz version 2.40.1 (20161225.0304)
 -->
<!-- Title: /home/travis/build/AliceO2Group/AliceO2/GPU/TPCFastTransformation/SplineHelper2D.cxx Pages: 1 -->
<svg width="837pt" height="397pt"
 viewBox="0.00 0.00 837.00 397.00" xmlns="http://www.w3.org/2000/svg" xmlns:xlink="http://www.w3.org/1999/xlink">
<g id="graph0" class="graph" transform="scale(1 1) rotate(0) translate(4 393)">
<title>/home/travis/build/AliceO2Group/AliceO2/GPU/TPCFastTransformation/SplineHelper2D.cxx</title>
<!-- Node0 -->
<g id="node1" class="node">
<title>Node0</title>
<polygon fill="#bfbfbf" stroke="#000000" points="379.5,-336.5 379.5,-388.5 534.5,-388.5 534.5,-336.5 379.5,-336.5"/>
<text text-anchor="start" x="387.5" y="-376.5" font-family="Helvetica,sans-Serif" font-size="10.00" fill="#000000">/home/travis/build</text>
<text text-anchor="start" x="387.5" y="-365.5" font-family="Helvetica,sans-Serif" font-size="10.00" fill="#000000">/AliceO2Group/AliceO2</text>
<text text-anchor="start" x="387.5" y="-354.5" font-family="Helvetica,sans-Serif" font-size="10.00" fill="#000000">/GPU/TPCFastTransformation</text>
<text text-anchor="middle" x="457" y="-343.5" font-family="Helvetica,sans-Serif" font-size="10.00" fill="#000000">/SplineHelper2D.cxx</text>
</g>
<!-- Node1 -->
<g id="node2" class="node">
<title>Node1</title>
<g id="a_node2"><a xlink:href="../../d0/d1e/SplineHelper2D_8h.html" target="_top" xlink:title="Definition of SplineHelper2D class. ">
<polygon fill="none" stroke="#000000" points="228.5,-280.5 228.5,-299.5 329.5,-299.5 329.5,-280.5 228.5,-280.5"/>
<text text-anchor="middle" x="279" y="-287.5" font-family="Helvetica,sans-Serif" font-size="10.00" fill="#000000">SplineHelper2D.h</text>
</a>
</g>
</g>
<!-- Node0&#45;&gt;Node1 -->
<g id="edge1" class="edge">
<title>Node0&#45;&gt;Node1</title>
<path fill="none" stroke="#191970" d="M392.9894,-336.4283C365.5538,-325.2536 334.6705,-312.6748 311.9768,-303.4316"/>
<polygon fill="#191970" stroke="#191970" points="313.0593,-300.0933 302.4778,-299.5626 310.4188,-306.5762 313.0593,-300.0933"/>
</g>
<!-- Node22 -->
<g id="node23" class="node">
<title>Node22</title>
<polygon fill="none" stroke="#bfbfbf" points="348,-280.5 348,-299.5 404,-299.5 404,-280.5 348,-280.5"/>
<text text-anchor="middle" x="376" y="-287.5" font-family="Helvetica,sans-Serif" font-size="10.00" fill="#000000">TMath.h</text>
</g>
<!-- Node0&#45;&gt;Node22 -->
<g id="edge36" class="edge">
<title>Node0&#45;&gt;Node22</title>
<path fill="none" stroke="#191970" d="M427.7571,-336.3258C416.5699,-326.3126 404.1378,-315.1851 394.2624,-306.346"/>
<polygon fill="#191970" stroke="#191970" points="396.4373,-303.5954 386.6518,-299.534 391.7688,-308.8113 396.4373,-303.5954"/>
</g>
<!-- Node23 -->
<g id="node24" class="node">
<title>Node23</title>
<polygon fill="none" stroke="#bfbfbf" points="422,-280.5 422,-299.5 492,-299.5 492,-280.5 422,-280.5"/>
<text text-anchor="middle" x="457" y="-287.5" font-family="Helvetica,sans-Serif" font-size="10.00" fill="#000000">TMatrixD.h</text>
</g>
<!-- Node0&#45;&gt;Node23 -->
<g id="edge37" class="edge">
<title>Node0&#45;&gt;Node23</title>
<path fill="none" stroke="#191970" d="M457,-336.3258C457,-327.5142 457,-317.8397 457,-309.621"/>
<polygon fill="#191970" stroke="#191970" points="460.5001,-309.534 457,-299.534 453.5001,-309.534 460.5001,-309.534"/>
</g>
<!-- Node24 -->
<g id="node25" class="node">
<title>Node24</title>
<polygon fill="none" stroke="#bfbfbf" points="510,-280.5 510,-299.5 580,-299.5 580,-280.5 510,-280.5"/>
<text text-anchor="middle" x="545" y="-287.5" font-family="Helvetica,sans-Serif" font-size="10.00" fill="#000000">TVectorD.h</text>
</g>
<!-- Node0&#45;&gt;Node24 -->
<g id="edge38" class="edge">
<title>Node0&#45;&gt;Node24</title>
<path fill="none" stroke="#191970" d="M488.77,-336.3258C501.0456,-326.2124 514.7008,-314.9624 525.4804,-306.0815"/>
<polygon fill="#191970" stroke="#191970" points="527.9352,-308.594 533.4277,-299.534 523.4841,-303.1913 527.9352,-308.594"/>
</g>
<!-- Node25 -->
<g id="node26" class="node">
<title>Node25</title>
<polygon fill="none" stroke="#bfbfbf" points="598,-280.5 598,-299.5 684,-299.5 684,-280.5 598,-280.5"/>
<text text-anchor="middle" x="641" y="-287.5" font-family="Helvetica,sans-Serif" font-size="10.00" fill="#000000">TDecompBK.h</text>
</g>
<!-- Node0&#45;&gt;Node25 -->
<g id="edge39" class="edge">
<title>Node0&#45;&gt;Node25</title>
<path fill="none" stroke="#191970" d="M523.1683,-336.4283C551.6559,-325.2035 583.7393,-312.5619 607.2267,-303.3074"/>
<polygon fill="#191970" stroke="#191970" points="608.7101,-306.4849 616.7308,-299.5626 606.1439,-299.9722 608.7101,-306.4849"/>
</g>
<!-- Node2 -->
<g id="node3" class="node">
<title>Node2</title>
<polygon fill="none" stroke="#bfbfbf" points="39.5,-168.5 39.5,-187.5 86.5,-187.5 86.5,-168.5 39.5,-168.5"/>
<text text-anchor="middle" x="63" y="-175.5" font-family="Helvetica,sans-Serif" font-size="10.00" fill="#000000">cmath</text>
</g>
<!-- Node1&#45;&gt;Node2 -->
<g id="edge2" class="edge">
<title>Node1&#45;&gt;Node2</title>
<path fill="none" stroke="#191970" d="M256.2475,-280.3643C235.5857,-271.4432 204.3982,-257.549 178,-244 146.1405,-227.6479 110.535,-206.7973 87.5013,-192.9539"/>
<polygon fill="#191970" stroke="#191970" points="89.1085,-189.8358 78.7393,-187.6612 85.4891,-195.8275 89.1085,-189.8358"/>
</g>
<!-- Node3 -->
<g id="node4" class="node">
<title>Node3</title>
<polygon fill="none" stroke="#bfbfbf" points="104.5,-168.5 104.5,-187.5 151.5,-187.5 151.5,-168.5 104.5,-168.5"/>
<text text-anchor="middle" x="128" y="-175.5" font-family="Helvetica,sans-Serif" font-size="10.00" fill="#000000">vector</text>
</g>
<!-- Node1&#45;&gt;Node3 -->
<g id="edge3" class="edge">
<title>Node1&#45;&gt;Node3</title>
<path fill="none" stroke="#191970" d="M262.3311,-280.4044C247.2465,-271.5104 224.6096,-257.6333 206,-244 184.75,-228.4323 161.907,-208.7171 146.4696,-194.9047"/>
<polygon fill="#191970" stroke="#191970" points="148.4806,-192.0048 138.7123,-187.9022 143.7901,-197.2009 148.4806,-192.0048"/>
</g>
<!-- Node4 -->
<g id="node5" class="node">
<title>Node4</title>
<g id="a_node5"><a xlink:href="../../df/d21/GPUCommonDef_8h.html" target="_top" xlink:title="GPUCommonDef.h">
<polygon fill="none" stroke="#000000" points="636.5,-56.5 636.5,-75.5 743.5,-75.5 743.5,-56.5 636.5,-56.5"/>
<text text-anchor="middle" x="690" y="-63.5" font-family="Helvetica,sans-Serif" font-size="10.00" fill="#000000">GPUCommonDef.h</text>
</a>
</g>
</g>
<!-- Node1&#45;&gt;Node4 -->
<g id="edge4" class="edge">
<title>Node1&#45;&gt;Node4</title>
<path fill="none" stroke="#191970" d="M329.6194,-281.5511C400.3722,-269.6219 521.2262,-248.76 530,-244 601.4133,-205.2566 657.0759,-121.8583 679.3885,-84.6192"/>
<polygon fill="#191970" stroke="#191970" points="682.5172,-86.2029 684.5586,-75.8066 676.4795,-82.6608 682.5172,-86.2029"/>
</g>
<!-- Node7 -->
<g id="node8" class="node">
<title>Node7</title>
<polygon fill="none" stroke="#bfbfbf" points="8.5,-.5 8.5,-19.5 67.5,-19.5 67.5,-.5 8.5,-.5"/>
<text text-anchor="middle" x="38" y="-7.5" font-family="Helvetica,sans-Serif" font-size="10.00" fill="#000000">Rtypes.h</text>
</g>
<!-- Node1&#45;&gt;Node7 -->
<g id="edge7" class="edge">
<title>Node1&#45;&gt;Node7</title>
<path fill="none" stroke="#191970" d="M228.4752,-280.4795C148.0751,-263.8694 0,-226.6715 0,-178 0,-178 0,-178 0,-122 0,-87.6118 16.2634,-50.2832 27.511,-28.5791"/>
<polygon fill="#191970" stroke="#191970" points="30.7317,-29.9804 32.393,-19.5166 24.569,-26.6605 30.7317,-29.9804"/>
</g>
<!-- Node8 -->
<g id="node9" class="node">
<title>Node8</title>
<polygon fill="none" stroke="#bfbfbf" points="170,-168.5 170,-187.5 230,-187.5 230,-168.5 170,-168.5"/>
<text text-anchor="middle" x="200" y="-175.5" font-family="Helvetica,sans-Serif" font-size="10.00" fill="#000000">TString.h</text>
</g>
<!-- Node1&#45;&gt;Node8 -->
<g id="edge8" class="edge">
<title>Node1&#45;&gt;Node8</title>
<path fill="none" stroke="#191970" d="M260.9893,-280.4236C247.5478,-272.3933 229.723,-259.7241 219,-244 209.5645,-230.1638 204.7632,-211.6432 202.3513,-197.7432"/>
<polygon fill="#191970" stroke="#191970" points="205.8018,-197.1496 200.8864,-187.764 198.876,-198.1663 205.8018,-197.1496"/>
</g>
<!-- Node9 -->
<g id="node10" class="node">
<title>Node9</title>
<g id="a_node10"><a xlink:href="../../de/da6/Spline1D_8h.html" target="_top" xlink:title="Definition of Spline1D class. ">
<polygon fill="none" stroke="#000000" points="400.5,-168.5 400.5,-187.5 469.5,-187.5 469.5,-168.5 400.5,-168.5"/>
<text text-anchor="middle" x="435" y="-175.5" font-family="Helvetica,sans-Serif" font-size="10.00" fill="#000000">Spline1D.h</text>
</a>
</g>
</g>
<!-- Node1&#45;&gt;Node9 -->
<g id="edge9" class="edge">
<title>Node1&#45;&gt;Node9</title>
<path fill="none" stroke="#191970" d="M313.2722,-280.3972C335.5796,-272.9736 364.4297,-261.0572 386,-244 402.3712,-231.0541 416.0292,-211.3594 424.731,-196.8521"/>
<polygon fill="#191970" stroke="#191970" points="427.9933,-198.1993 429.9359,-187.784 421.9222,-194.7146 427.9933,-198.1993"/>
</g>
<!-- Node19 -->
<g id="node20" class="node">
<title>Node19</title>
<polygon fill="none" stroke="#bfbfbf" points="314.5,-112.5 314.5,-131.5 379.5,-131.5 379.5,-112.5 314.5,-112.5"/>
<text text-anchor="middle" x="347" y="-119.5" font-family="Helvetica,sans-Serif" font-size="10.00" fill="#000000">functional</text>
</g>
<!-- Node1&#45;&gt;Node19 -->
<g id="edge35" class="edge">
<title>Node1&#45;&gt;Node19</title>
<path fill="none" stroke="#191970" d="M298.5049,-280.4338C312.1003,-272.638 329.302,-260.2637 338,-244 355.3715,-211.5186 353.3359,-167.0517 350.216,-141.7482"/>
<polygon fill="#191970" stroke="#191970" points="353.6437,-140.991 348.7721,-131.5826 346.7133,-141.9755 353.6437,-140.991"/>
</g>
<!-- Node20 -->
<g id="node21" class="node">
<title>Node20</title>
<g id="a_node21"><a xlink:href="../../dd/d27/Spline2D_8h.html" target="_top" xlink:title="Definition of Spline2D class. ">
<polygon fill="none" stroke="#000000" points="451.5,-224.5 451.5,-243.5 520.5,-243.5 520.5,-224.5 451.5,-224.5"/>
<text text-anchor="middle" x="486" y="-231.5" font-family="Helvetica,sans-Serif" font-size="10.00" fill="#000000">Spline2D.h</text>
</a>
</g>
</g>
<!-- Node1&#45;&gt;Node20 -->
<g id="edge23" class="edge">
<title>Node1&#45;&gt;Node20</title>
<path fill="none" stroke="#191970" d="M314.5846,-280.3733C349.7077,-270.8714 403.5131,-256.3153 441.4568,-246.0503"/>
<polygon fill="#191970" stroke="#191970" points="442.4853,-249.398 451.2243,-243.4079 440.6573,-242.6409 442.4853,-249.398"/>
</g>
<!-- Node21 -->
<g id="node22" class="node">
<title>Node21</title>
<g id="a_node22"><a xlink:href="../../d2/da7/SplineHelper1D_8h.html" target="_top" xlink:title="Definition of SplineHelper1D class. ">
<polygon fill="none" stroke="#000000" points="228.5,-224.5 228.5,-243.5 329.5,-243.5 329.5,-224.5 228.5,-224.5"/>
<text text-anchor="middle" x="279" y="-231.5" font-family="Helvetica,sans-Serif" font-size="10.00" fill="#000000">SplineHelper1D.h</text>
</a>
</g>
</g>
<!-- Node1&#45;&gt;Node21 -->
<g id="edge27" class="edge">
<title>Node1&#45;&gt;Node21</title>
<path fill="none" stroke="#191970" d="M279,-280.2455C279,-272.9382 279,-262.6944 279,-253.7046"/>
<polygon fill="#191970" stroke="#191970" points="282.5001,-253.6426 279,-243.6427 275.5001,-253.6427 282.5001,-253.6426"/>
</g>
<!-- Node5 -->
<g id="node6" class="node">
<title>Node5</title>
<g id="a_node6"><a xlink:href="../../d5/d93/GPUCommonDefSettings_8h.html" target="_top" xlink:title="GPUCommonDefSettings.h">
<polygon fill="none" stroke="#000000" points="539,-.5 539,-19.5 687,-19.5 687,-.5 539,-.5"/>
<text text-anchor="middle" x="613" y="-7.5" font-family="Helvetica,sans-Serif" font-size="10.00" fill="#000000">GPUCommonDefSettings.h</text>
</a>
</g>
</g>
<!-- Node4&#45;&gt;Node5 -->
<g id="edge5" class="edge">
<title>Node4&#45;&gt;Node5</title>
<path fill="none" stroke="#191970" d="M676.5876,-56.2455C664.9943,-47.814 648.0252,-35.4729 634.5322,-25.6598"/>
<polygon fill="#191970" stroke="#191970" points="636.4047,-22.6938 626.2587,-19.6427 632.2874,-28.355 636.4047,-22.6938"/>
</g>
<!-- Node6 -->
<g id="node7" class="node">
<title>Node6</title>
<g id="a_node7"><a xlink:href="../../da/d5a/GPUCommonDefAPI_8h.html" target="_top" xlink:title="GPUCommonDefAPI.h">
<polygon fill="none" stroke="#000000" points="705,-.5 705,-19.5 829,-19.5 829,-.5 705,-.5"/>
<text text-anchor="middle" x="767" y="-7.5" font-family="Helvetica,sans-Serif" font-size="10.00" fill="#000000">GPUCommonDefAPI.h</text>
</a>
</g>
</g>
<!-- Node4&#45;&gt;Node6 -->
<g id="edge6" class="edge">
<title>Node4&#45;&gt;Node6</title>
<path fill="none" stroke="#191970" d="M703.4124,-56.2455C715.0057,-47.814 731.9748,-35.4729 745.4678,-25.6598"/>
<polygon fill="#191970" stroke="#191970" points="747.7126,-28.355 753.7413,-19.6427 743.5953,-22.6938 747.7126,-28.355"/>
</g>
<!-- Node9&#45;&gt;Node4 -->
<g id="edge10" class="edge">
<title>Node9&#45;&gt;Node4</title>
<path fill="none" stroke="#191970" d="M456.7412,-168.4509C502.0009,-148.5722 606.4758,-102.6852 658.8637,-79.6756"/>
<polygon fill="#191970" stroke="#191970" points="660.5656,-82.7508 668.3139,-75.5249 657.7506,-76.3418 660.5656,-82.7508"/>
</g>
<!-- Node10 -->
<g id="node11" class="node">
<title>Node10</title>
<g id="a_node11"><a xlink:href="../../db/dff/FlatObject_8h.html" target="_top" xlink:title="Definition of FlatObject class. ">
<polygon fill="none" stroke="#000000" points="397.5,-112.5 397.5,-131.5 472.5,-131.5 472.5,-112.5 397.5,-112.5"/>
<text text-anchor="middle" x="435" y="-119.5" font-family="Helvetica,sans-Serif" font-size="10.00" fill="#000000">FlatObject.h</text>
</a>
</g>
</g>
<!-- Node9&#45;&gt;Node10 -->
<g id="edge11" class="edge">
<title>Node9&#45;&gt;Node10</title>
<path fill="none" stroke="#191970" d="M435,-168.2455C435,-160.9382 435,-150.6944 435,-141.7046"/>
<polygon fill="#191970" stroke="#191970" points="438.5001,-141.6426 435,-131.6427 431.5001,-141.6427 438.5001,-141.6426"/>
</g>
<!-- Node9&#45;&gt;Node19 -->
<g id="edge22" class="edge">
<title>Node9&#45;&gt;Node19</title>
<path fill="none" stroke="#191970" d="M419.6716,-168.2455C406.1697,-159.6534 386.2878,-147.0014 370.7314,-137.1018"/>
<polygon fill="#191970" stroke="#191970" points="372.4685,-134.0587 362.1528,-131.6427 368.7103,-139.9643 372.4685,-134.0587"/>
</g>
<!-- Node10&#45;&gt;Node4 -->
<g id="edge16" class="edge">
<title>Node10&#45;&gt;Node4</title>
<path fill="none" stroke="#191970" d="M472.6261,-113.737C516.0457,-104.2017 587.7583,-88.4531 636.8569,-77.6706"/>
<polygon fill="#191970" stroke="#191970" points="637.6495,-81.0801 646.666,-75.5165 636.148,-74.243 637.6495,-81.0801"/>
</g>
<!-- Node11 -->
<g id="node12" class="node">
<title>Node11</title>
<polygon fill="none" stroke="#bfbfbf" points="420.5,-56.5 420.5,-75.5 473.5,-75.5 473.5,-56.5 420.5,-56.5"/>
<text text-anchor="middle" x="447" y="-63.5" font-family="Helvetica,sans-Serif" font-size="10.00" fill="#000000">cstddef</text>
</g>
<!-- Node10&#45;&gt;Node11 -->
<g id="edge12" class="edge">
<title>Node10&#45;&gt;Node11</title>
<path fill="none" stroke="#191970" d="M437.0902,-112.2455C438.6561,-104.9382 440.8512,-94.6944 442.7776,-85.7046"/>
<polygon fill="#191970" stroke="#191970" points="446.2607,-86.1541 444.9337,-75.6427 439.416,-84.6873 446.2607,-86.1541"/>
</g>
<!-- Node12 -->
<g id="node13" class="node">
<title>Node12</title>
<polygon fill="none" stroke="#bfbfbf" points="492,-56.5 492,-75.5 550,-75.5 550,-56.5 492,-56.5"/>
<text text-anchor="middle" x="521" y="-63.5" font-family="Helvetica,sans-Serif" font-size="10.00" fill="#000000">memory</text>
</g>
<!-- Node10&#45;&gt;Node12 -->
<g id="edge13" class="edge">
<title>Node10&#45;&gt;Node12</title>
<path fill="none" stroke="#191970" d="M449.9801,-112.2455C463.1751,-103.6534 482.6051,-91.0014 497.8079,-81.1018"/>
<polygon fill="#191970" stroke="#191970" points="499.7215,-84.0325 506.1916,-75.6427 495.9017,-78.1665 499.7215,-84.0325"/>
</g>
<!-- Node13 -->
<g id="node14" class="node">
<title>Node13</title>
<polygon fill="none" stroke="#bfbfbf" points="568,-56.5 568,-75.5 618,-75.5 618,-56.5 568,-56.5"/>
<text text-anchor="middle" x="593" y="-63.5" font-family="Helvetica,sans-Serif" font-size="10.00" fill="#000000">cstring</text>
</g>
<!-- Node10&#45;&gt;Node13 -->
<g id="edge14" class="edge">
<title>Node10&#45;&gt;Node13</title>
<path fill="none" stroke="#191970" d="M462.1612,-112.3733C488.6803,-102.9741 529.1526,-88.6295 558.0572,-78.3848"/>
<polygon fill="#191970" stroke="#191970" points="559.5007,-81.5866 567.7569,-74.9469 557.1622,-74.9887 559.5007,-81.5866"/>
</g>
<!-- Node14 -->
<g id="node15" class="node">
<title>Node14</title>
<polygon fill="none" stroke="#bfbfbf" points="66,-56.5 66,-75.5 118,-75.5 118,-56.5 66,-56.5"/>
<text text-anchor="middle" x="92" y="-63.5" font-family="Helvetica,sans-Serif" font-size="10.00" fill="#000000">cassert</text>
</g>
<!-- Node10&#45;&gt;Node14 -->
<g id="edge15" class="edge">
<title>Node10&#45;&gt;Node14</title>
<path fill="none" stroke="#191970" d="M397.3368,-113.7352C394.1838,-113.1198 391.0404,-112.5324 388,-112 275.8107,-92.3545 243.3444,-99.71 128.1854,-76.011"/>
<polygon fill="#191970" stroke="#191970" points="128.7784,-72.5593 118.2736,-73.9374 127.3449,-79.411 128.7784,-72.5593"/>
</g>
<!-- Node15 -->
<g id="node16" class="node">
<title>Node15</title>
<g id="a_node16"><a xlink:href="../../d2/d45/GPUCommonRtypes_8h.html" target="_top" xlink:title="GPUCommonRtypes.h">
<polygon fill="none" stroke="#000000" points="136.5,-56.5 136.5,-75.5 261.5,-75.5 261.5,-56.5 136.5,-56.5"/>
<text text-anchor="middle" x="199" y="-63.5" font-family="Helvetica,sans-Serif" font-size="10.00" fill="#000000">GPUCommonRtypes.h</text>
</a>
</g>
</g>
<!-- Node10&#45;&gt;Node15 -->
<g id="edge17" class="edge">
<title>Node10&#45;&gt;Node15</title>
<path fill="none" stroke="#191970" d="M397.3441,-113.0647C357.2615,-103.5536 293.6246,-88.4533 249.2786,-77.9305"/>
<polygon fill="#191970" stroke="#191970" points="249.825,-74.463 239.287,-75.5596 248.2088,-81.2739 249.825,-74.463"/>
</g>
<!-- Node16 -->
<g id="node17" class="node">
<title>Node16</title>
<g id="a_node17"><a xlink:href="../../df/d5b/GPUCommonLogger_8h.html" target="_top" xlink:title="GPUCommonLogger.h">
<polygon fill="none" stroke="#000000" points="279.5,-56.5 279.5,-75.5 402.5,-75.5 402.5,-56.5 279.5,-56.5"/>
<text text-anchor="middle" x="341" y="-63.5" font-family="Helvetica,sans-Serif" font-size="10.00" fill="#000000">GPUCommonLogger.h</text>
</a>
</g>
</g>
<!-- Node10&#45;&gt;Node16 -->
<g id="edge19" class="edge">
<title>Node10&#45;&gt;Node16</title>
<path fill="none" stroke="#191970" d="M418.6264,-112.2455C404.0692,-103.5731 382.569,-90.7645 365.8848,-80.825"/>
<polygon fill="#191970" stroke="#191970" points="367.5683,-77.7539 357.1859,-75.6427 363.9856,-83.7676 367.5683,-77.7539"/>
</g>
<!-- Node15&#45;&gt;Node7 -->
<g id="edge18" class="edge">
<title>Node15&#45;&gt;Node7</title>
<path fill="none" stroke="#191970" d="M171.3231,-56.3733C144.6672,-47.1016 104.1762,-33.0178 74.8116,-22.804"/>
<polygon fill="#191970" stroke="#191970" points="75.9105,-19.4807 65.3157,-19.5011 73.6109,-26.0921 75.9105,-19.4807"/>
</g>
<!-- Node17 -->
<g id="node18" class="node">
<title>Node17</title>
<polygon fill="none" stroke="#bfbfbf" points="275,-.5 275,-19.5 335,-19.5 335,-.5 275,-.5"/>
<text text-anchor="middle" x="305" y="-7.5" font-family="Helvetica,sans-Serif" font-size="10.00" fill="#000000">iostream</text>
</g>
<!-- Node16&#45;&gt;Node17 -->
<g id="edge20" class="edge">
<title>Node16&#45;&gt;Node17</title>
<path fill="none" stroke="#191970" d="M334.7293,-56.2455C329.7736,-48.5367 322.717,-37.5598 316.7224,-28.2348"/>
<polygon fill="#191970" stroke="#191970" points="319.5506,-26.1618 311.1989,-19.6427 313.6624,-29.9471 319.5506,-26.1618"/>
</g>
<!-- Node18 -->
<g id="node19" class="node">
<title>Node18</title>
<polygon fill="none" stroke="#bfbfbf" points="353,-.5 353,-19.5 399,-19.5 399,-.5 353,-.5"/>
<text text-anchor="middle" x="376" y="-7.5" font-family="Helvetica,sans-Serif" font-size="10.00" fill="#000000">cstdio</text>
</g>
<!-- Node16&#45;&gt;Node18 -->
<g id="edge21" class="edge">
<title>Node16&#45;&gt;Node18</title>
<path fill="none" stroke="#191970" d="M347.0965,-56.2455C351.9145,-48.5367 358.7751,-37.5598 364.6032,-28.2348"/>
<polygon fill="#191970" stroke="#191970" points="367.6413,-29.9777 369.9733,-19.6427 361.7053,-26.2677 367.6413,-29.9777"/>
</g>
<!-- Node20&#45;&gt;Node4 -->
<g id="edge26" class="edge">
<title>Node20&#45;&gt;Node4</title>
<path fill="none" stroke="#191970" d="M497.5524,-224.4862C530.9867,-196.9521 628.1288,-116.9528 670.1949,-82.31"/>
<polygon fill="#191970" stroke="#191970" points="672.5718,-84.8868 678.0661,-75.8279 668.1218,-79.4832 672.5718,-84.8868"/>
</g>
<!-- Node20&#45;&gt;Node9 -->
<g id="edge24" class="edge">
<title>Node20&#45;&gt;Node9</title>
<path fill="none" stroke="#191970" d="M477.1165,-224.2455C469.8034,-216.2155 459.2609,-204.6394 450.5533,-195.0781"/>
<polygon fill="#191970" stroke="#191970" points="453.1028,-192.6795 443.7817,-187.6427 447.9273,-197.3928 453.1028,-192.6795"/>
</g>
<!-- Node20&#45;&gt;Node10 -->
<g id="edge25" class="edge">
<title>Node20&#45;&gt;Node10</title>
<path fill="none" stroke="#191970" d="M486.8771,-224.0819C487.6433,-210.6928 487.5355,-186.3961 479,-168 473.7295,-156.6407 464.5043,-146.325 455.8579,-138.3546"/>
<polygon fill="#191970" stroke="#191970" points="458.0607,-135.6322 448.2101,-131.7314 453.4782,-140.9238 458.0607,-135.6322"/>
</g>
<!-- Node21&#45;&gt;Node2 -->
<g id="edge28" class="edge">
<title>Node21&#45;&gt;Node2</title>
<path fill="none" stroke="#191970" d="M237.8956,-224.4445C202.606,-216.0798 150.1756,-203.2716 96.4147,-188.3"/>
<polygon fill="#191970" stroke="#191970" points="97.2938,-184.9116 86.7201,-185.5803 95.403,-191.6514 97.2938,-184.9116"/>
</g>
<!-- Node21&#45;&gt;Node3 -->
<g id="edge29" class="edge">
<title>Node21&#45;&gt;Node3</title>
<path fill="none" stroke="#191970" d="M253.0422,-224.3733C227.6585,-214.9594 188.8981,-200.5847 161.2655,-190.3369"/>
<polygon fill="#191970" stroke="#191970" points="162.227,-186.9606 151.6339,-186.7649 159.7929,-193.5238 162.227,-186.9606"/>
</g>
<!-- Node21&#45;&gt;Node4 -->
<g id="edge30" class="edge">
<title>Node21&#45;&gt;Node4</title>
<path fill="none" stroke="#191970" d="M293.3949,-224.3765C314.283,-210.6797 354.4961,-185.308 391,-168 423.5263,-152.5779 508.9233,-123.601 543,-112 578.2123,-100.0124 618.5588,-87.471 648.0641,-78.5168"/>
<polygon fill="#191970" stroke="#191970" points="649.463,-81.7503 658.0221,-75.5059 647.4371,-75.0499 649.463,-81.7503"/>
</g>
<!-- Node21&#45;&gt;Node7 -->
<g id="edge31" class="edge">
<title>Node21&#45;&gt;Node7</title>
<path fill="none" stroke="#191970" d="M275.1959,-224.3356C269.2823,-210.3585 256.6958,-184.3859 239,-168 172.4964,-106.4192 114.8003,-145.8144 57,-76 46.2,-62.9552 41.5355,-44.0695 39.5227,-29.8394"/>
<polygon fill="#191970" stroke="#191970" points="42.9726,-29.1881 38.4105,-19.6258 36.0137,-29.9459 42.9726,-29.1881"/>
</g>
<!-- Node21&#45;&gt;Node8 -->
<g id="edge32" class="edge">
<title>Node21&#45;&gt;Node8</title>
<path fill="none" stroke="#191970" d="M265.2393,-224.2455C253.3448,-215.814 235.935,-203.4729 222.0915,-193.6598"/>
<polygon fill="#191970" stroke="#191970" points="223.7854,-190.5704 213.6031,-187.6427 219.7372,-196.2811 223.7854,-190.5704"/>
</g>
<!-- Node21&#45;&gt;Node9 -->
<g id="edge33" class="edge">
<title>Node21&#45;&gt;Node9</title>
<path fill="none" stroke="#191970" d="M305.8174,-224.3733C331.5332,-215.1419 370.538,-201.1402 398.9599,-190.9375"/>
<polygon fill="#191970" stroke="#191970" points="400.3032,-194.174 408.5326,-187.5011 397.9381,-187.5857 400.3032,-194.174"/>
</g>
<!-- Node21&#45;&gt;Node19 -->
<g id="edge34" class="edge">
<title>Node21&#45;&gt;Node19</title>
<path fill="none" stroke="#191970" d="M284.7976,-224.4509C296.1392,-205.7707 321.4249,-164.1238 336.0252,-140.0761"/>
<polygon fill="#191970" stroke="#191970" points="339.019,-141.8892 341.217,-131.5249 333.0354,-138.2563 339.019,-141.8892"/>
</g>
</g>
</svg>
