<?xml version="1.0" encoding="UTF-8" standalone="no"?>
<!DOCTYPE svg PUBLIC "-//W3C//DTD SVG 1.1//EN"
 "http://www.w3.org/Graphics/SVG/1.1/DTD/svg11.dtd">
<!-- Generated by graphviz version 2.40.1 (20161225.0304)
 -->
<!-- Title: /home/travis/build/AliceO2Group/AliceO2/Framework/Core/include/Framework/DeviceInfo.h Pages: 1 -->
<svg width="1448pt" height="229pt"
 viewBox="0.00 0.00 1447.50 229.00" xmlns="http://www.w3.org/2000/svg" xmlns:xlink="http://www.w3.org/1999/xlink">
<g id="graph0" class="graph" transform="scale(1 1) rotate(0) translate(4 225)">
<title>/home/travis/build/AliceO2Group/AliceO2/Framework/Core/include/Framework/DeviceInfo.h</title>
<!-- Node0 -->
<g id="node1" class="node">
<title>Node0</title>
<polygon fill="#bfbfbf" stroke="#000000" points="826.5,-168.5 826.5,-220.5 964.5,-220.5 964.5,-168.5 826.5,-168.5"/>
<text text-anchor="start" x="834.5" y="-208.5" font-family="Helvetica,sans-Serif" font-size="10.00" fill="#000000">/home/travis/build</text>
<text text-anchor="start" x="834.5" y="-197.5" font-family="Helvetica,sans-Serif" font-size="10.00" fill="#000000">/AliceO2Group/AliceO2</text>
<text text-anchor="start" x="834.5" y="-186.5" font-family="Helvetica,sans-Serif" font-size="10.00" fill="#000000">/Framework/Core/include</text>
<text text-anchor="middle" x="895.5" y="-175.5" font-family="Helvetica,sans-Serif" font-size="10.00" fill="#000000">/Framework/DeviceInfo.h</text>
</g>
<!-- Node1 -->
<g id="node2" class="node">
<title>Node1</title>
<g id="a_node2"><a xlink:href="../../d8/d4a/LogParsingHelpers_8h.html" target="_top" xlink:title="Framework/LogParsingHelpers.h">
<polygon fill="none" stroke="#000000" points="1094,-112.5 1094,-131.5 1267,-131.5 1267,-112.5 1094,-112.5"/>
<text text-anchor="middle" x="1180.5" y="-119.5" font-family="Helvetica,sans-Serif" font-size="10.00" fill="#000000">Framework/LogParsingHelpers.h</text>
</a>
</g>
</g>
<!-- Node0&#45;&gt;Node1 -->
<g id="edge1" class="edge">
<title>Node0&#45;&gt;Node1</title>
<path fill="none" stroke="#191970" d="M964.8544,-176.8572C1017.0457,-163.5805 1087.1971,-145.7349 1133.1098,-134.0554"/>
<polygon fill="#191970" stroke="#191970" points="1133.9797,-137.4457 1142.8082,-131.5883 1132.2539,-130.6617 1133.9797,-137.4457"/>
</g>
<!-- Node2 -->
<g id="node3" class="node">
<title>Node2</title>
<polygon fill="none" stroke="#bfbfbf" points="485.5,-.5 485.5,-19.5 529.5,-19.5 529.5,-.5 485.5,-.5"/>
<text text-anchor="middle" x="507.5" y="-7.5" font-family="Helvetica,sans-Serif" font-size="10.00" fill="#000000">string</text>
</g>
<!-- Node0&#45;&gt;Node2 -->
<g id="edge27" class="edge">
<title>Node0&#45;&gt;Node2</title>
<path fill="none" stroke="#191970" d="M964.6493,-187.9834C1068.958,-177.4473 1256.5669,-155.4694 1276.5,-132 1294.1997,-111.1602 1275.163,-71.0335 1254.5,-56 1225.1881,-34.6739 679.215,-15.5697 539.7294,-11.0225"/>
<polygon fill="#191970" stroke="#191970" points="539.7797,-7.5223 529.6717,-10.6969 539.5532,-14.5187 539.7797,-7.5223"/>
</g>
<!-- Node4 -->
<g id="node5" class="node">
<title>Node4</title>
<g id="a_node5"><a xlink:href="../../d0/d2c/Metric2DViewIndex_8h.html" target="_top" xlink:title="Framework/Metric2DViewIndex.h">
<polygon fill="none" stroke="#000000" points="76,-112.5 76,-131.5 253,-131.5 253,-112.5 76,-112.5"/>
<text text-anchor="middle" x="164.5" y="-119.5" font-family="Helvetica,sans-Serif" font-size="10.00" fill="#000000">Framework/Metric2DViewIndex.h</text>
</a>
</g>
</g>
<!-- Node0&#45;&gt;Node4 -->
<g id="edge4" class="edge">
<title>Node0&#45;&gt;Node4</title>
<path fill="none" stroke="#191970" d="M826.4001,-187.6467C696.1087,-174.7245 413.7429,-146.7197 263.3853,-131.8074"/>
<polygon fill="#191970" stroke="#191970" points="263.5302,-128.3046 253.2335,-130.8005 262.8393,-135.2705 263.5302,-128.3046"/>
</g>
<!-- Node6 -->
<g id="node7" class="node">
<title>Node6</title>
<polygon fill="none" stroke="#bfbfbf" points="0,-56.5 0,-75.5 53,-75.5 53,-56.5 0,-56.5"/>
<text text-anchor="middle" x="26.5" y="-63.5" font-family="Helvetica,sans-Serif" font-size="10.00" fill="#000000">cstddef</text>
</g>
<!-- Node0&#45;&gt;Node6 -->
<g id="edge26" class="edge">
<title>Node0&#45;&gt;Node6</title>
<path fill="none" stroke="#191970" d="M826.4179,-192.8912C638.975,-188.025 130.5379,-171.3141 66.5,-132 49.4295,-121.5201 38.6553,-100.7719 32.6452,-85.3225"/>
<polygon fill="#191970" stroke="#191970" points="35.8629,-83.9236 29.2267,-75.6646 29.2641,-86.2594 35.8629,-83.9236"/>
</g>
<!-- Node7 -->
<g id="node8" class="node">
<title>Node7</title>
<polygon fill="none" stroke="#bfbfbf" points="193,-56.5 193,-75.5 240,-75.5 240,-56.5 193,-56.5"/>
<text text-anchor="middle" x="216.5" y="-63.5" font-family="Helvetica,sans-Serif" font-size="10.00" fill="#000000">vector</text>
</g>
<!-- Node0&#45;&gt;Node7 -->
<g id="edge28" class="edge">
<title>Node0&#45;&gt;Node7</title>
<path fill="none" stroke="#191970" d="M826.3026,-190.0963C697.7548,-181.3642 427.0405,-160.2332 337.5,-132 300.4299,-120.3113 261.6866,-96.8833 238.3186,-81.3198"/>
<polygon fill="#191970" stroke="#191970" points="240.1054,-78.3025 229.8654,-75.5835 236.1747,-84.0948 240.1054,-78.3025"/>
</g>
<!-- Node8 -->
<g id="node9" class="node">
<title>Node8</title>
<g id="a_node9"><a xlink:href="../../de/d56/Variant_8h.html" target="_top" xlink:title="Framework/Variant.h">
<polygon fill="none" stroke="#000000" points="837,-112.5 837,-131.5 954,-131.5 954,-112.5 837,-112.5"/>
<text text-anchor="middle" x="895.5" y="-119.5" font-family="Helvetica,sans-Serif" font-size="10.00" fill="#000000">Framework/Variant.h</text>
</a>
</g>
</g>
<!-- Node0&#45;&gt;Node8 -->
<g id="edge9" class="edge">
<title>Node0&#45;&gt;Node8</title>
<path fill="none" stroke="#191970" d="M895.5,-168.3258C895.5,-159.5142 895.5,-149.8397 895.5,-141.621"/>
<polygon fill="#191970" stroke="#191970" points="899.0001,-141.534 895.5,-131.534 892.0001,-141.534 899.0001,-141.534"/>
</g>
<!-- Node16 -->
<g id="node17" class="node">
<title>Node16</title>
<g id="a_node17"><a xlink:href="../../d9/de0/DeviceState_8h.html" target="_top" xlink:title="Framework/DeviceState.h">
<polygon fill="none" stroke="#000000" points="346.5,-112.5 346.5,-131.5 488.5,-131.5 488.5,-112.5 346.5,-112.5"/>
<text text-anchor="middle" x="417.5" y="-119.5" font-family="Helvetica,sans-Serif" font-size="10.00" fill="#000000">Framework/DeviceState.h</text>
</a>
</g>
</g>
<!-- Node0&#45;&gt;Node16 -->
<g id="edge19" class="edge">
<title>Node0&#45;&gt;Node16</title>
<path fill="none" stroke="#191970" d="M826.2501,-183.9966C736.7202,-170.4173 581.5067,-146.8755 490.2857,-133.0397"/>
<polygon fill="#191970" stroke="#191970" points="490.7152,-129.5649 480.3034,-131.5256 489.6655,-136.4857 490.7152,-129.5649"/>
</g>
<!-- Node20 -->
<g id="node21" class="node">
<title>Node20</title>
<polygon fill="none" stroke="#bfbfbf" points="1323.5,-112.5 1323.5,-131.5 1379.5,-131.5 1379.5,-112.5 1323.5,-112.5"/>
<text text-anchor="middle" x="1351.5" y="-119.5" font-family="Helvetica,sans-Serif" font-size="10.00" fill="#000000">unistd.h</text>
</g>
<!-- Node0&#45;&gt;Node20 -->
<g id="edge29" class="edge">
<title>Node0&#45;&gt;Node20</title>
<path fill="none" stroke="#191970" d="M964.6613,-185.8644C1047.1108,-175.1536 1188.9073,-155.4162 1309.5,-132 1310.7417,-131.7589 1312.0021,-131.5061 1313.2735,-131.2443"/>
<polygon fill="#191970" stroke="#191970" points="1314.0782,-134.6512 1323.1036,-129.102 1312.5877,-127.8117 1314.0782,-134.6512"/>
</g>
<!-- Node21 -->
<g id="node22" class="node">
<title>Node21</title>
<polygon fill="none" stroke="#bfbfbf" points="1397.5,-112.5 1397.5,-131.5 1439.5,-131.5 1439.5,-112.5 1397.5,-112.5"/>
<text text-anchor="middle" x="1418.5" y="-119.5" font-family="Helvetica,sans-Serif" font-size="10.00" fill="#000000">array</text>
</g>
<!-- Node0&#45;&gt;Node21 -->
<g id="edge30" class="edge">
<title>Node0&#45;&gt;Node21</title>
<path fill="none" stroke="#191970" d="M964.8316,-190.0056C1058.8644,-182.9612 1231.9659,-166.6317 1387.1461,-131.9353"/>
<polygon fill="#191970" stroke="#191970" points="1388.3625,-135.2484 1397.3406,-129.6232 1386.8142,-128.4217 1388.3625,-135.2484"/>
</g>
<!-- Node1&#45;&gt;Node2 -->
<g id="edge2" class="edge">
<title>Node1&#45;&gt;Node2</title>
<path fill="none" stroke="#191970" d="M1199.3363,-112.426C1222.5722,-99.4271 1256.878,-75.5709 1238.5,-56 1214.2663,-30.1934 678.9125,-14.473 540.1238,-10.8217"/>
<polygon fill="#191970" stroke="#191970" points="539.8263,-7.3129 529.7387,-10.5517 539.6443,-14.3106 539.8263,-7.3129"/>
</g>
<!-- Node3 -->
<g id="node4" class="node">
<title>Node3</title>
<polygon fill="none" stroke="#bfbfbf" points="1156,-56.5 1156,-75.5 1229,-75.5 1229,-56.5 1156,-56.5"/>
<text text-anchor="middle" x="1192.5" y="-63.5" font-family="Helvetica,sans-Serif" font-size="10.00" fill="#000000">string_view</text>
</g>
<!-- Node1&#45;&gt;Node3 -->
<g id="edge3" class="edge">
<title>Node1&#45;&gt;Node3</title>
<path fill="none" stroke="#191970" d="M1182.5902,-112.2455C1184.1561,-104.9382 1186.3512,-94.6944 1188.2776,-85.7046"/>
<polygon fill="#191970" stroke="#191970" points="1191.7607,-86.1541 1190.4337,-75.6427 1184.916,-84.6873 1191.7607,-86.1541"/>
</g>
<!-- Node4&#45;&gt;Node2 -->
<g id="edge7" class="edge">
<title>Node4&#45;&gt;Node2</title>
<path fill="none" stroke="#191970" d="M164.2401,-112.2135C164.4297,-97.5911 167.1245,-70.2401 183.5,-56 205.3035,-37.0396 397.0528,-19.1652 474.883,-12.6239"/>
<polygon fill="#191970" stroke="#191970" points="475.4036,-16.0928 485.0796,-11.7772 474.8242,-9.1168 475.4036,-16.0928"/>
</g>
<!-- Node5 -->
<g id="node6" class="node">
<title>Node5</title>
<polygon fill="none" stroke="#bfbfbf" points="71,-56.5 71,-75.5 136,-75.5 136,-56.5 71,-56.5"/>
<text text-anchor="middle" x="103.5" y="-63.5" font-family="Helvetica,sans-Serif" font-size="10.00" fill="#000000">functional</text>
</g>
<!-- Node4&#45;&gt;Node5 -->
<g id="edge5" class="edge">
<title>Node4&#45;&gt;Node5</title>
<path fill="none" stroke="#191970" d="M153.8746,-112.2455C144.9527,-104.0549 132.012,-92.1749 121.4808,-82.5069"/>
<polygon fill="#191970" stroke="#191970" points="123.7371,-79.8271 114.0036,-75.6427 119.0032,-84.9837 123.7371,-79.8271"/>
</g>
<!-- Node4&#45;&gt;Node6 -->
<g id="edge6" class="edge">
<title>Node4&#45;&gt;Node6</title>
<path fill="none" stroke="#191970" d="M140.777,-112.3733C118.3263,-103.2629 84.4261,-89.5062 59.3745,-79.3404"/>
<polygon fill="#191970" stroke="#191970" points="60.4957,-76.0182 49.9135,-75.5011 57.8635,-82.5045 60.4957,-76.0182"/>
</g>
<!-- Node4&#45;&gt;Node7 -->
<g id="edge8" class="edge">
<title>Node4&#45;&gt;Node7</title>
<path fill="none" stroke="#191970" d="M173.5577,-112.2455C181.0142,-104.2155 191.7634,-92.6394 200.6417,-83.0781"/>
<polygon fill="#191970" stroke="#191970" points="203.3063,-85.3522 207.5461,-75.6427 198.1768,-80.589 203.3063,-85.3522"/>
</g>
<!-- Node8&#45;&gt;Node2 -->
<g id="edge18" class="edge">
<title>Node8&#45;&gt;Node2</title>
<path fill="none" stroke="#191970" d="M836.8531,-115.8025C764.4094,-107.6159 645.6936,-92.3158 604.5,-76 588.6313,-69.7148 551.9688,-43.3736 528.5384,-25.9292"/>
<polygon fill="#191970" stroke="#191970" points="530.3788,-22.9347 520.2773,-19.7395 526.1814,-28.5367 530.3788,-22.9347"/>
</g>
<!-- Node8&#45;&gt;Node3 -->
<g id="edge17" class="edge">
<title>Node8&#45;&gt;Node3</title>
<path fill="none" stroke="#191970" d="M951.1696,-112.4658C1000.0129,-103.9585 1073.2138,-90.8662 1145.4966,-76.3568"/>
<polygon fill="#191970" stroke="#191970" points="1146.5773,-79.7094 1155.6873,-74.3004 1145.1926,-72.8477 1146.5773,-79.7094"/>
</g>
<!-- Node9 -->
<g id="node10" class="node">
<title>Node9</title>
<polygon fill="none" stroke="#bfbfbf" points="715,-56.5 715,-75.5 784,-75.5 784,-56.5 715,-56.5"/>
<text text-anchor="middle" x="749.5" y="-63.5" font-family="Helvetica,sans-Serif" font-size="10.00" fill="#000000">type_traits</text>
</g>
<!-- Node8&#45;&gt;Node9 -->
<g id="edge10" class="edge">
<title>Node8&#45;&gt;Node9</title>
<path fill="none" stroke="#191970" d="M870.4017,-112.3733C846.5445,-103.2226 810.4665,-89.3844 783.929,-79.2057"/>
<polygon fill="#191970" stroke="#191970" points="784.861,-75.8145 774.2708,-75.5011 782.3541,-82.3503 784.861,-75.8145"/>
</g>
<!-- Node10 -->
<g id="node11" class="node">
<title>Node10</title>
<polygon fill="none" stroke="#bfbfbf" points="802.5,-56.5 802.5,-75.5 852.5,-75.5 852.5,-56.5 802.5,-56.5"/>
<text text-anchor="middle" x="827.5" y="-63.5" font-family="Helvetica,sans-Serif" font-size="10.00" fill="#000000">cstring</text>
</g>
<!-- Node8&#45;&gt;Node10 -->
<g id="edge11" class="edge">
<title>Node8&#45;&gt;Node10</title>
<path fill="none" stroke="#191970" d="M883.6553,-112.2455C873.612,-103.9746 859.0005,-91.9416 847.1996,-82.2232"/>
<polygon fill="#191970" stroke="#191970" points="849.1533,-79.298 839.209,-75.6427 844.7033,-84.7015 849.1533,-79.298"/>
</g>
<!-- Node11 -->
<g id="node12" class="node">
<title>Node11</title>
<polygon fill="none" stroke="#bfbfbf" points="870.5,-56.5 870.5,-75.5 920.5,-75.5 920.5,-56.5 870.5,-56.5"/>
<text text-anchor="middle" x="895.5" y="-63.5" font-family="Helvetica,sans-Serif" font-size="10.00" fill="#000000">cstdint</text>
</g>
<!-- Node8&#45;&gt;Node11 -->
<g id="edge12" class="edge">
<title>Node8&#45;&gt;Node11</title>
<path fill="none" stroke="#191970" d="M895.5,-112.2455C895.5,-104.9382 895.5,-94.6944 895.5,-85.7046"/>
<polygon fill="#191970" stroke="#191970" points="899.0001,-85.6426 895.5,-75.6427 892.0001,-85.6427 899.0001,-85.6426"/>
</g>
<!-- Node12 -->
<g id="node13" class="node">
<title>Node12</title>
<polygon fill="none" stroke="#bfbfbf" points="939,-56.5 939,-75.5 988,-75.5 988,-56.5 939,-56.5"/>
<text text-anchor="middle" x="963.5" y="-63.5" font-family="Helvetica,sans-Serif" font-size="10.00" fill="#000000">cstdlib</text>
</g>
<!-- Node8&#45;&gt;Node12 -->
<g id="edge13" class="edge">
<title>Node8&#45;&gt;Node12</title>
<path fill="none" stroke="#191970" d="M907.3447,-112.2455C917.388,-103.9746 931.9995,-91.9416 943.8004,-82.2232"/>
<polygon fill="#191970" stroke="#191970" points="946.2967,-84.7015 951.791,-75.6427 941.8467,-79.298 946.2967,-84.7015"/>
</g>
<!-- Node13 -->
<g id="node14" class="node">
<title>Node13</title>
<polygon fill="none" stroke="#bfbfbf" points="1006,-56.5 1006,-75.5 1071,-75.5 1071,-56.5 1006,-56.5"/>
<text text-anchor="middle" x="1038.5" y="-63.5" font-family="Helvetica,sans-Serif" font-size="10.00" fill="#000000">stdexcept</text>
</g>
<!-- Node8&#45;&gt;Node13 -->
<g id="edge14" class="edge">
<title>Node8&#45;&gt;Node13</title>
<path fill="none" stroke="#191970" d="M920.0826,-112.3733C943.4496,-103.2226 978.7862,-89.3844 1004.7784,-79.2057"/>
<polygon fill="#191970" stroke="#191970" points="1006.203,-82.4066 1014.2382,-75.5011 1003.6505,-75.8886 1006.203,-82.4066"/>
</g>
<!-- Node14 -->
<g id="node15" class="node">
<title>Node14</title>
<polygon fill="none" stroke="#bfbfbf" points="1089,-56.5 1089,-75.5 1138,-75.5 1138,-56.5 1089,-56.5"/>
<text text-anchor="middle" x="1113.5" y="-63.5" font-family="Helvetica,sans-Serif" font-size="10.00" fill="#000000">iosfwd</text>
</g>
<!-- Node8&#45;&gt;Node14 -->
<g id="edge15" class="edge">
<title>Node8&#45;&gt;Node14</title>
<path fill="none" stroke="#191970" d="M936.4374,-112.4487C971.8988,-104.0348 1024.7909,-91.1513 1078.9141,-76.3554"/>
<polygon fill="#191970" stroke="#191970" points="1079.9597,-79.6978 1088.6728,-73.6701 1078.1026,-72.9487 1079.9597,-79.6978"/>
</g>
<!-- Node15 -->
<g id="node16" class="node">
<title>Node15</title>
<polygon fill="none" stroke="#bfbfbf" points="614,-56.5 614,-75.5 697,-75.5 697,-56.5 614,-56.5"/>
<text text-anchor="middle" x="655.5" y="-63.5" font-family="Helvetica,sans-Serif" font-size="10.00" fill="#000000">initializer_list</text>
</g>
<!-- Node8&#45;&gt;Node15 -->
<g id="edge16" class="edge">
<title>Node8&#45;&gt;Node15</title>
<path fill="none" stroke="#191970" d="M854.5152,-112.4369C813.5274,-102.8731 750.3996,-88.1432 706.2643,-77.845"/>
<polygon fill="#191970" stroke="#191970" points="706.8495,-74.3876 696.3157,-75.5237 705.2588,-81.2045 706.8495,-74.3876"/>
</g>
<!-- Node16&#45;&gt;Node2 -->
<g id="edge23" class="edge">
<title>Node16&#45;&gt;Node2</title>
<path fill="none" stroke="#191970" d="M356.3333,-112.4844C311.9804,-102.9438 263.6373,-85.3682 287.5,-56 310.7901,-27.3364 419.9301,-15.9112 475.2214,-11.9034"/>
<polygon fill="#191970" stroke="#191970" points="475.4666,-15.3949 485.2034,-11.2183 474.9872,-8.4114 475.4666,-15.3949"/>
</g>
<!-- Node16&#45;&gt;Node7 -->
<g id="edge22" class="edge">
<title>Node16&#45;&gt;Node7</title>
<path fill="none" stroke="#191970" d="M382.9469,-112.3733C345.7038,-101.9971 286.8281,-85.5939 249.9994,-75.3332"/>
<polygon fill="#191970" stroke="#191970" points="250.8052,-71.9244 240.2327,-72.6121 248.9264,-78.6676 250.8052,-71.9244"/>
</g>
<!-- Node17 -->
<g id="node18" class="node">
<title>Node17</title>
<g id="a_node18"><a xlink:href="../../dd/de5/ChannelInfo_8h.html" target="_top" xlink:title="Framework/ChannelInfo.h">
<polygon fill="none" stroke="#000000" points="360,-56.5 360,-75.5 501,-75.5 501,-56.5 360,-56.5"/>
<text text-anchor="middle" x="430.5" y="-63.5" font-family="Helvetica,sans-Serif" font-size="10.00" fill="#000000">Framework/ChannelInfo.h</text>
</a>
</g>
</g>
<!-- Node16&#45;&gt;Node17 -->
<g id="edge20" class="edge">
<title>Node16&#45;&gt;Node17</title>
<path fill="none" stroke="#191970" d="M419.7644,-112.2455C421.4794,-104.8579 423.8912,-94.4689 425.9944,-85.4087"/>
<polygon fill="#191970" stroke="#191970" points="429.4095,-86.1751 428.2615,-75.6427 422.5908,-84.5922 429.4095,-86.1751"/>
</g>
<!-- Node18 -->
<g id="node19" class="node">
<title>Node18</title>
<polygon fill="none" stroke="#bfbfbf" points="519.5,-56.5 519.5,-75.5 557.5,-75.5 557.5,-56.5 519.5,-56.5"/>
<text text-anchor="middle" x="538.5" y="-63.5" font-family="Helvetica,sans-Serif" font-size="10.00" fill="#000000">map</text>
</g>
<!-- Node16&#45;&gt;Node18 -->
<g id="edge24" class="edge">
<title>Node16&#45;&gt;Node18</title>
<path fill="none" stroke="#191970" d="M438.3006,-112.3733C458.0774,-103.2204 487.9873,-89.3778 509.9822,-79.1983"/>
<polygon fill="#191970" stroke="#191970" points="511.5631,-82.3234 519.1683,-74.9469 508.623,-75.9707 511.5631,-82.3234"/>
</g>
<!-- Node19 -->
<g id="node20" class="node">
<title>Node19</title>
<polygon fill="none" stroke="#bfbfbf" points="297,-56.5 297,-75.5 342,-75.5 342,-56.5 297,-56.5"/>
<text text-anchor="middle" x="319.5" y="-63.5" font-family="Helvetica,sans-Serif" font-size="10.00" fill="#000000">utility</text>
</g>
<!-- Node16&#45;&gt;Node19 -->
<g id="edge25" class="edge">
<title>Node16&#45;&gt;Node19</title>
<path fill="none" stroke="#191970" d="M400.4297,-112.2455C385.253,-103.5731 362.8379,-90.7645 345.4437,-80.825"/>
<polygon fill="#191970" stroke="#191970" points="346.7936,-77.5653 336.3747,-75.6427 343.3206,-83.643 346.7936,-77.5653"/>
</g>
<!-- Node17&#45;&gt;Node2 -->
<g id="edge21" class="edge">
<title>Node17&#45;&gt;Node2</title>
<path fill="none" stroke="#191970" d="M443.9124,-56.2455C455.5057,-47.814 472.4748,-35.4729 485.9678,-25.6598"/>
<polygon fill="#191970" stroke="#191970" points="488.2126,-28.355 494.2413,-19.6427 484.0953,-22.6938 488.2126,-28.355"/>
</g>
</g>
</svg>
