<?xml version="1.0" encoding="UTF-8" standalone="no"?>
<!DOCTYPE svg PUBLIC "-//W3C//DTD SVG 1.1//EN"
 "http://www.w3.org/Graphics/SVG/1.1/DTD/svg11.dtd">
<!-- Generated by graphviz version 2.40.1 (20161225.0304)
 -->
<!-- Title: /home/travis/build/AliceO2Group/AliceO2/Detectors/MUON/MCH/Raw/Encoder/Payload/testGBTEncoder.cxx Pages: 1 -->
<svg width="2440pt" height="341pt"
 viewBox="0.00 0.00 2440.36 341.00" xmlns="http://www.w3.org/2000/svg" xmlns:xlink="http://www.w3.org/1999/xlink">
<g id="graph0" class="graph" transform="scale(1 1) rotate(0) translate(4 337)">
<title>/home/travis/build/AliceO2Group/AliceO2/Detectors/MUON/MCH/Raw/Encoder/Payload/testGBTEncoder.cxx</title>
<!-- Node0 -->
<g id="node1" class="node">
<title>Node0</title>
<polygon fill="#bfbfbf" stroke="#000000" points="991.3593,-280.5 991.3593,-332.5 1191.3593,-332.5 1191.3593,-280.5 991.3593,-280.5"/>
<text text-anchor="start" x="999.3593" y="-320.5" font-family="Helvetica,sans-Serif" font-size="10.00" fill="#000000">/home/travis/build</text>
<text text-anchor="start" x="999.3593" y="-309.5" font-family="Helvetica,sans-Serif" font-size="10.00" fill="#000000">/AliceO2Group/AliceO2</text>
<text text-anchor="start" x="999.3593" y="-298.5" font-family="Helvetica,sans-Serif" font-size="10.00" fill="#000000">/Detectors/MUON/MCH/Raw</text>
<text text-anchor="middle" x="1091.3593" y="-287.5" font-family="Helvetica,sans-Serif" font-size="10.00" fill="#000000">/Encoder/Payload/testGBTEncoder.cxx</text>
</g>
<!-- Node1 -->
<g id="node2" class="node">
<title>Node1</title>
<polygon fill="none" stroke="#bfbfbf" points="458.3593,-224.5 458.3593,-243.5 590.3593,-243.5 590.3593,-224.5 458.3593,-224.5"/>
<text text-anchor="middle" x="524.3593" y="-231.5" font-family="Helvetica,sans-Serif" font-size="10.00" fill="#000000">boost/test/unit_test.hpp</text>
</g>
<!-- Node0&#45;&gt;Node1 -->
<g id="edge1" class="edge">
<title>Node0&#45;&gt;Node1</title>
<path fill="none" stroke="#191970" d="M991.2963,-293.7053C879.7235,-279.439 701.7219,-256.6786 600.7786,-243.7714"/>
<polygon fill="#191970" stroke="#191970" points="601.02,-240.2739 590.6569,-242.4772 600.1322,-247.2174 601.02,-240.2739"/>
</g>
<!-- Node2 -->
<g id="node3" class="node">
<title>Node2</title>
<g id="a_node3"><a xlink:href="../../df/d23/BareElinkEncoder_8h.html" target="_top" xlink:title="BareElinkEncoder.h">
<polygon fill="none" stroke="#000000" points="800.3593,-168.5 800.3593,-187.5 910.3593,-187.5 910.3593,-168.5 800.3593,-168.5"/>
<text text-anchor="middle" x="855.3593" y="-175.5" font-family="Helvetica,sans-Serif" font-size="10.00" fill="#000000">BareElinkEncoder.h</text>
</a>
</g>
</g>
<!-- Node0&#45;&gt;Node2 -->
<g id="edge2" class="edge">
<title>Node0&#45;&gt;Node2</title>
<path fill="none" stroke="#191970" d="M1063.3133,-280.2677C1043.1382,-262.4911 1014.6104,-239.5009 986.3593,-224 959.9611,-209.5157 928.1336,-198.2141 902.461,-190.4379"/>
<polygon fill="#191970" stroke="#191970" points="903.1714,-186.9985 892.5898,-187.5284 901.1922,-193.7129 903.1714,-186.9985"/>
</g>
<!-- Node19 -->
<g id="node20" class="node">
<title>Node19</title>
<polygon fill="none" stroke="#bfbfbf" points="21.8593,-112.5 21.8593,-131.5 92.8593,-131.5 92.8593,-112.5 21.8593,-112.5"/>
<text text-anchor="middle" x="57.3593" y="-119.5" font-family="Helvetica,sans-Serif" font-size="10.00" fill="#000000">fmt/printf.h</text>
</g>
<!-- Node0&#45;&gt;Node19 -->
<g id="edge62" class="edge">
<title>Node0&#45;&gt;Node19</title>
<path fill="none" stroke="#191970" d="M991.2924,-289.5045C779.2843,-253.3935 289.6948,-169.4304 102.8697,-132.2324"/>
<polygon fill="#191970" stroke="#191970" points="103.3617,-128.7615 92.8687,-130.2273 101.9856,-135.6249 103.3617,-128.7615"/>
</g>
<!-- Node20 -->
<g id="node21" class="node">
<title>Node20</title>
<g id="a_node21"><a xlink:href="../../d8/d97/UserLogicElinkEncoder_8h.html" target="_top" xlink:title="UserLogicElinkEncoder.h">
<polygon fill="none" stroke="#000000" points="646.3593,-168.5 646.3593,-187.5 782.3593,-187.5 782.3593,-168.5 646.3593,-168.5"/>
<text text-anchor="middle" x="714.3593" y="-175.5" font-family="Helvetica,sans-Serif" font-size="10.00" fill="#000000">UserLogicElinkEncoder.h</text>
</a>
</g>
</g>
<!-- Node0&#45;&gt;Node20 -->
<g id="edge35" class="edge">
<title>Node0&#45;&gt;Node20</title>
<path fill="none" stroke="#191970" d="M991.0975,-296.5804C932.7576,-288.0484 859.002,-272.4062 798.3593,-244 772.3295,-231.8072 747.0295,-210.1874 731.1159,-195.0238"/>
<polygon fill="#191970" stroke="#191970" points="733.2922,-192.2566 723.6957,-187.7669 728.3978,-197.2612 733.2922,-192.2566"/>
</g>
<!-- Node21 -->
<g id="node22" class="node">
<title>Node21</title>
<g id="a_node22"><a xlink:href="../../d7/d42/MoveBuffer_8h.html" target="_top" xlink:title="MoveBuffer.h">
<polygon fill="none" stroke="#000000" points="1032.3593,-112.5 1032.3593,-131.5 1112.3593,-131.5 1112.3593,-112.5 1032.3593,-112.5"/>
<text text-anchor="middle" x="1072.3593" y="-119.5" font-family="Helvetica,sans-Serif" font-size="10.00" fill="#000000">MoveBuffer.h</text>
</a>
</g>
</g>
<!-- Node0&#45;&gt;Node21 -->
<g id="edge67" class="edge">
<title>Node0&#45;&gt;Node21</title>
<path fill="none" stroke="#191970" d="M1088.6774,-280.457C1084.8358,-243.1535 1077.8505,-175.3224 1074.4,-141.8167"/>
<polygon fill="#191970" stroke="#191970" points="1077.8811,-141.4523 1073.3751,-131.8635 1070.9179,-142.1694 1077.8811,-141.4523"/>
</g>
<!-- Node22 -->
<g id="node23" class="node">
<title>Node22</title>
<g id="a_node23"><a xlink:href="../../d8/d2e/BareElinkEncoderMerger_8h.html" target="_top" xlink:title="BareElinkEncoderMerger.h">
<polygon fill="none" stroke="#000000" points="1622.3593,-168.5 1622.3593,-187.5 1766.3593,-187.5 1766.3593,-168.5 1622.3593,-168.5"/>
<text text-anchor="middle" x="1694.3593" y="-175.5" font-family="Helvetica,sans-Serif" font-size="10.00" fill="#000000">BareElinkEncoderMerger.h</text>
</a>
</g>
</g>
<!-- Node0&#45;&gt;Node22 -->
<g id="edge49" class="edge">
<title>Node0&#45;&gt;Node22</title>
<path fill="none" stroke="#191970" d="M1123.3783,-280.3797C1150.5648,-258.768 1187.8687,-230.5859 1205.3593,-224 1242.3624,-210.0669 1482.4368,-192.1767 1611.9001,-183.3773"/>
<polygon fill="#191970" stroke="#191970" points="1612.4277,-186.8497 1622.1686,-182.6826 1611.9551,-179.8656 1612.4277,-186.8497"/>
</g>
<!-- Node24 -->
<g id="node25" class="node">
<title>Node24</title>
<g id="a_node25"><a xlink:href="../../d8/dc5/UserLogicElinkEncoderMerger_8h.html" target="_top" xlink:title="UserLogicElinkEncoderMerger.h">
<polygon fill="none" stroke="#000000" points="807.3593,-224.5 807.3593,-243.5 977.3593,-243.5 977.3593,-224.5 807.3593,-224.5"/>
<text text-anchor="middle" x="892.3593" y="-231.5" font-family="Helvetica,sans-Serif" font-size="10.00" fill="#000000">UserLogicElinkEncoderMerger.h</text>
</a>
</g>
</g>
<!-- Node0&#45;&gt;Node24 -->
<g id="edge57" class="edge">
<title>Node0&#45;&gt;Node24</title>
<path fill="none" stroke="#191970" d="M1019.7969,-280.4283C988.7118,-269.1033 953.668,-256.3361 928.2077,-247.0604"/>
<polygon fill="#191970" stroke="#191970" points="929.2009,-243.6972 918.6069,-243.5626 926.8047,-250.2743 929.2009,-243.6972"/>
</g>
<!-- Node25 -->
<g id="node26" class="node">
<title>Node25</title>
<polygon fill="none" stroke="#bfbfbf" points="2390.3593,-56.5 2390.3593,-75.5 2432.3593,-75.5 2432.3593,-56.5 2390.3593,-56.5"/>
<text text-anchor="middle" x="2411.3593" y="-63.5" font-family="Helvetica,sans-Serif" font-size="10.00" fill="#000000">array</text>
</g>
<!-- Node0&#45;&gt;Node25 -->
<g id="edge61" class="edge">
<title>Node0&#45;&gt;Node25</title>
<path fill="none" stroke="#191970" d="M1191.5288,-300.6736C1485.3375,-282.5799 2329.3336,-223.0504 2410.3593,-132 2421.2867,-119.7207 2420.2827,-100.4816 2417.2872,-85.937"/>
<polygon fill="#191970" stroke="#191970" points="2420.6028,-84.7693 2414.7729,-75.9226 2413.8135,-86.4739 2420.6028,-84.7693"/>
</g>
<!-- Node26 -->
<g id="node27" class="node">
<title>Node26</title>
<g id="a_node27"><a xlink:href="../../de/d1f/RefBuffers_8h.html" target="_top" xlink:title="RefBuffers.h">
<polygon fill="none" stroke="#000000" points="2170.3593,-112.5 2170.3593,-131.5 2246.3593,-131.5 2246.3593,-112.5 2170.3593,-112.5"/>
<text text-anchor="middle" x="2208.3593" y="-119.5" font-family="Helvetica,sans-Serif" font-size="10.00" fill="#000000">RefBuffers.h</text>
</a>
</g>
</g>
<!-- Node0&#45;&gt;Node26 -->
<g id="edge63" class="edge">
<title>Node0&#45;&gt;Node26</title>
<path fill="none" stroke="#191970" d="M1191.4686,-289.9645C1423.5618,-251.6286 1991.4292,-157.8313 2160.2599,-129.9448"/>
<polygon fill="#191970" stroke="#191970" points="2161.037,-133.364 2170.3329,-128.281 2159.8961,-126.4575 2161.037,-133.364"/>
</g>
<!-- Node28 -->
<g id="node29" class="node">
<title>Node28</title>
<polygon fill="none" stroke="#bfbfbf" points="1214.3593,-224.5 1214.3593,-243.5 1318.3593,-243.5 1318.3593,-224.5 1214.3593,-224.5"/>
<text text-anchor="middle" x="1266.3593" y="-231.5" font-family="Helvetica,sans-Serif" font-size="10.00" fill="#000000">boost/mpl/list.hpp</text>
</g>
<!-- Node0&#45;&gt;Node28 -->
<g id="edge66" class="edge">
<title>Node0&#45;&gt;Node28</title>
<path fill="none" stroke="#191970" d="M1154.5383,-280.3258C1181.4878,-269.161 1211.7809,-256.6111 1234.0327,-247.3924"/>
<polygon fill="#191970" stroke="#191970" points="1235.4472,-250.595 1243.3462,-243.534 1232.768,-244.128 1235.4472,-250.595"/>
</g>
<!-- Node29 -->
<g id="node30" class="node">
<title>Node29</title>
<g id="a_node30"><a xlink:href="../../d4/d54/GBTEncoder_8h.html" target="_top" xlink:title="GBTEncoder.h">
<polygon fill="none" stroke="#000000" points="1396.3593,-168.5 1396.3593,-187.5 1480.3593,-187.5 1480.3593,-168.5 1396.3593,-168.5"/>
<text text-anchor="middle" x="1438.3593" y="-175.5" font-family="Helvetica,sans-Serif" font-size="10.00" fill="#000000">GBTEncoder.h</text>
</a>
</g>
</g>
<!-- Node0&#45;&gt;Node29 -->
<g id="edge68" class="edge">
<title>Node0&#45;&gt;Node29</title>
<path fill="none" stroke="#191970" d="M1109.9136,-280.2586C1124.6429,-261.5089 1146.9381,-237.3286 1172.3593,-224 1208.6065,-204.9953 1319.2084,-190.5111 1385.836,-183.2252"/>
<polygon fill="#191970" stroke="#191970" points="1386.5651,-186.6671 1396.1336,-182.1181 1385.8167,-179.7072 1386.5651,-186.6671"/>
</g>
<!-- Node34 -->
<g id="node35" class="node">
<title>Node34</title>
<g id="a_node35"><a xlink:href="../../d1/d53/DumpBuffer_8h.html" target="_top" xlink:title="DumpBuffer.h">
<polygon fill="none" stroke="#000000" points="1223.8593,-168.5 1223.8593,-187.5 1306.8593,-187.5 1306.8593,-168.5 1223.8593,-168.5"/>
<text text-anchor="middle" x="1265.3593" y="-175.5" font-family="Helvetica,sans-Serif" font-size="10.00" fill="#000000">DumpBuffer.h</text>
</a>
</g>
</g>
<!-- Node0&#45;&gt;Node34 -->
<g id="edge85" class="edge">
<title>Node0&#45;&gt;Node34</title>
<path fill="none" stroke="#191970" d="M1099.3184,-280.1551C1106.0122,-262.0933 1117.2702,-238.8081 1134.3593,-224 1156.7314,-204.614 1187.7867,-193.2417 1214.0454,-186.6557"/>
<polygon fill="#191970" stroke="#191970" points="1214.9085,-190.0483 1223.8463,-184.3591 1213.3115,-183.2329 1214.9085,-190.0483"/>
</g>
<!-- Node3 -->
<g id="node4" class="node">
<title>Node3</title>
<g id="a_node4"><a xlink:href="../../df/d0f/ElinkEncoder_8h.html" target="_top" xlink:title="ElinkEncoder.h">
<polygon fill="none" stroke="#000000" points="1650.3593,-112.5 1650.3593,-131.5 1738.3593,-131.5 1738.3593,-112.5 1650.3593,-112.5"/>
<text text-anchor="middle" x="1694.3593" y="-119.5" font-family="Helvetica,sans-Serif" font-size="10.00" fill="#000000">ElinkEncoder.h</text>
</a>
</g>
</g>
<!-- Node2&#45;&gt;Node3 -->
<g id="edge3" class="edge">
<title>Node2&#45;&gt;Node3</title>
<path fill="none" stroke="#191970" d="M910.4482,-177.2695C1037.511,-175.0491 1361.0138,-166.3344 1639.8511,-132.1862"/>
<polygon fill="#191970" stroke="#191970" points="1640.6737,-135.6112 1650.1677,-130.9085 1639.8133,-128.6643 1640.6737,-135.6112"/>
</g>
<!-- Node4 -->
<g id="node5" class="node">
<title>Node4</title>
<polygon fill="none" stroke="#bfbfbf" points="1181.8593,-56.5 1181.8593,-75.5 1228.8593,-75.5 1228.8593,-56.5 1181.8593,-56.5"/>
<text text-anchor="middle" x="1205.3593" y="-63.5" font-family="Helvetica,sans-Serif" font-size="10.00" fill="#000000">vector</text>
</g>
<!-- Node2&#45;&gt;Node4 -->
<g id="edge34" class="edge">
<title>Node2&#45;&gt;Node4</title>
<path fill="none" stroke="#191970" d="M883.4175,-168.422C908.921,-159.5398 947.4764,-145.6702 980.3593,-132 999.8217,-123.9091 1003.499,-119.0579 1023.3593,-112 1037.3359,-107.033 1123.474,-85.8676 1172.0721,-74.0542"/>
<polygon fill="#191970" stroke="#191970" points="1172.9412,-77.4449 1181.8332,-71.6845 1171.2897,-70.6425 1172.9412,-77.4449"/>
</g>
<!-- Node6 -->
<g id="node7" class="node">
<title>Node6</title>
<polygon fill="none" stroke="#bfbfbf" points="1805.8593,-56.5 1805.8593,-75.5 1862.8593,-75.5 1862.8593,-56.5 1805.8593,-56.5"/>
<text text-anchor="middle" x="1834.3593" y="-63.5" font-family="Helvetica,sans-Serif" font-size="10.00" fill="#000000">gsl/span</text>
</g>
<!-- Node2&#45;&gt;Node6 -->
<g id="edge32" class="edge">
<title>Node2&#45;&gt;Node6</title>
<path fill="none" stroke="#191970" d="M910.6778,-176.0458C1099.3387,-169.2641 1708.0106,-146.375 1747.3593,-132 1762.2279,-126.5682 1794.7181,-100.139 1815.5136,-82.4175"/>
<polygon fill="#191970" stroke="#191970" points="1818.0652,-84.8395 1823.3663,-75.6662 1813.5017,-79.5315 1818.0652,-84.8395"/>
</g>
<!-- Node7 -->
<g id="node8" class="node">
<title>Node7</title>
<g id="a_node8"><a xlink:href="../../dc/d46/Assertions_8h.html" target="_top" xlink:title="Assertions.h">
<polygon fill="none" stroke="#000000" points="110.8593,-112.5 110.8593,-131.5 187.8593,-131.5 187.8593,-112.5 110.8593,-112.5"/>
<text text-anchor="middle" x="149.3593" y="-119.5" font-family="Helvetica,sans-Serif" font-size="10.00" fill="#000000">Assertions.h</text>
</a>
</g>
</g>
<!-- Node2&#45;&gt;Node7 -->
<g id="edge7" class="edge">
<title>Node2&#45;&gt;Node7</title>
<path fill="none" stroke="#191970" d="M800.2449,-169.0519C797.2428,-168.6696 794.2662,-168.3152 791.3593,-168 530.6217,-139.7249 462.6195,-164.3768 202.3593,-132 200.9074,-131.8194 199.4353,-131.6236 197.9509,-131.4151"/>
<polygon fill="#191970" stroke="#191970" points="198.4765,-127.9548 188.0584,-129.8818 197.4044,-134.8722 198.4765,-127.9548"/>
</g>
<!-- Node8 -->
<g id="node9" class="node">
<title>Node8</title>
<polygon fill="none" stroke="#bfbfbf" points="184.8593,-56.5 184.8593,-75.5 263.8593,-75.5 263.8593,-56.5 184.8593,-56.5"/>
<text text-anchor="middle" x="224.3593" y="-63.5" font-family="Helvetica,sans-Serif" font-size="10.00" fill="#000000">fmt/format.h</text>
</g>
<!-- Node2&#45;&gt;Node8 -->
<g id="edge30" class="edge">
<title>Node2&#45;&gt;Node8</title>
<path fill="none" stroke="#191970" d="M800.2433,-169.0666C797.2416,-168.6805 794.2655,-168.3213 791.3593,-168 730.3782,-161.2575 287.32,-171.4824 240.3593,-132 227.271,-120.9959 223.8772,-101.2771 223.3943,-86.2497"/>
<polygon fill="#191970" stroke="#191970" points="226.897,-85.9232 223.48,-75.8946 219.8972,-85.8652 226.897,-85.9232"/>
</g>
<!-- Node9 -->
<g id="node10" class="node">
<title>Node9</title>
<g id="a_node10"><a xlink:href="../../d8/d8a/BitSet_8h.html" target="_top" xlink:title="BitSet.h">
<polygon fill="none" stroke="#000000" points="882.8593,-112.5 882.8593,-131.5 937.8593,-131.5 937.8593,-112.5 882.8593,-112.5"/>
<text text-anchor="middle" x="910.3593" y="-119.5" font-family="Helvetica,sans-Serif" font-size="10.00" fill="#000000">BitSet.h</text>
</a>
</g>
</g>
<!-- Node2&#45;&gt;Node9 -->
<g id="edge9" class="edge">
<title>Node2&#45;&gt;Node9</title>
<path fill="none" stroke="#191970" d="M864.9396,-168.2455C872.9051,-160.1352 884.4234,-148.4075 893.8672,-138.7919"/>
<polygon fill="#191970" stroke="#191970" points="896.3788,-141.2297 900.8888,-131.6427 891.3846,-136.3247 896.3788,-141.2297"/>
</g>
<!-- Node11 -->
<g id="node12" class="node">
<title>Node11</title>
<polygon fill="none" stroke="#bfbfbf" points="786.3593,-56.5 786.3593,-75.5 846.3593,-75.5 846.3593,-56.5 786.3593,-56.5"/>
<text text-anchor="middle" x="816.3593" y="-63.5" font-family="Helvetica,sans-Serif" font-size="10.00" fill="#000000">iostream</text>
</g>
<!-- Node2&#45;&gt;Node11 -->
<g id="edge33" class="edge">
<title>Node2&#45;&gt;Node11</title>
<path fill="none" stroke="#191970" d="M837.9835,-168.4558C825.5004,-160.5215 809.6411,-147.9621 802.3593,-132 795.541,-117.0539 800.3955,-98.675 806.1793,-85.1105"/>
<polygon fill="#191970" stroke="#191970" points="809.4674,-86.3463 810.6055,-75.8127 803.147,-83.3374 809.4674,-86.3463"/>
</g>
<!-- Node14 -->
<g id="node15" class="node">
<title>Node14</title>
<g id="a_node15"><a xlink:href="../../d0/d64/DataFormats_8h.html" target="_top" xlink:title="MCHRawCommon/DataFormats.h">
<polygon fill="none" stroke="#000000" points="1130.8593,-112.5 1130.8593,-131.5 1309.8593,-131.5 1309.8593,-112.5 1130.8593,-112.5"/>
<text text-anchor="middle" x="1220.3593" y="-119.5" font-family="Helvetica,sans-Serif" font-size="10.00" fill="#000000">MCHRawCommon/DataFormats.h</text>
</a>
</g>
</g>
<!-- Node2&#45;&gt;Node14 -->
<g id="edge16" class="edge">
<title>Node2&#45;&gt;Node14</title>
<path fill="none" stroke="#191970" d="M910.3987,-169.5556C973.7976,-159.8286 1078.1863,-143.8128 1148.0833,-133.0889"/>
<polygon fill="#191970" stroke="#191970" points="1148.7831,-136.5226 1158.1367,-131.5465 1147.7215,-129.6036 1148.7831,-136.5226"/>
</g>
<!-- Node15 -->
<g id="node16" class="node">
<title>Node15</title>
<g id="a_node16"><a xlink:href="../../d0/d5b/SampaCluster_8h.html" target="_top" xlink:title="MCHRawCommon/SampaCluster.h">
<polygon fill="none" stroke="#000000" points="566.3593,-112.5 566.3593,-131.5 750.3593,-131.5 750.3593,-112.5 566.3593,-112.5"/>
<text text-anchor="middle" x="658.3593" y="-119.5" font-family="Helvetica,sans-Serif" font-size="10.00" fill="#000000">MCHRawCommon/SampaCluster.h</text>
</a>
</g>
</g>
<!-- Node2&#45;&gt;Node15 -->
<g id="edge17" class="edge">
<title>Node2&#45;&gt;Node15</title>
<path fill="none" stroke="#191970" d="M821.4938,-168.3733C788.3103,-158.9404 737.6043,-144.5265 701.5399,-134.2747"/>
<polygon fill="#191970" stroke="#191970" points="702.3589,-130.8689 691.7829,-131.5011 700.4448,-137.6021 702.3589,-130.8689"/>
</g>
<!-- Node16 -->
<g id="node17" class="node">
<title>Node16</title>
<g id="a_node17"><a xlink:href="../../d5/d49/SampaHeader_8h.html" target="_top" xlink:title="MCHRawCommon/SampaHeader.h">
<polygon fill="none" stroke="#000000" points="362.8593,-112.5 362.8593,-131.5 547.8593,-131.5 547.8593,-112.5 362.8593,-112.5"/>
<text text-anchor="middle" x="455.3593" y="-119.5" font-family="Helvetica,sans-Serif" font-size="10.00" fill="#000000">MCHRawCommon/SampaHeader.h</text>
</a>
</g>
</g>
<!-- Node2&#45;&gt;Node16 -->
<g id="edge22" class="edge">
<title>Node2&#45;&gt;Node16</title>
<path fill="none" stroke="#191970" d="M800.2114,-169.3153C797.2179,-168.8651 794.2523,-168.424 791.3593,-168 705.0573,-155.3512 606.1188,-141.9373 538.0702,-132.8796"/>
<polygon fill="#191970" stroke="#191970" points="538.2146,-129.3681 527.8405,-131.5198 537.2921,-136.3071 538.2146,-129.3681"/>
</g>
<!-- Node17 -->
<g id="node18" class="node">
<title>Node17</title>
<g id="a_node18"><a xlink:href="../../dd/d02/NofBits_8h.html" target="_top" xlink:title="NofBits.h">
<polygon fill="none" stroke="#000000" points="282.3593,-112.5 282.3593,-131.5 344.3593,-131.5 344.3593,-112.5 282.3593,-112.5"/>
<text text-anchor="middle" x="313.3593" y="-119.5" font-family="Helvetica,sans-Serif" font-size="10.00" fill="#000000">NofBits.h</text>
</a>
</g>
</g>
<!-- Node2&#45;&gt;Node17 -->
<g id="edge25" class="edge">
<title>Node2&#45;&gt;Node17</title>
<path fill="none" stroke="#191970" d="M800.2366,-169.1256C797.2366,-168.7243 794.2627,-168.3457 791.3593,-168 600.626,-145.2913 547.8213,-163.1765 354.6079,-131.9713"/>
<polygon fill="#191970" stroke="#191970" points="355.1354,-128.5112 344.7011,-130.3485 354.0038,-135.4191 355.1354,-128.5112"/>
</g>
<!-- Node2&#45;&gt;Node19 -->
<g id="edge31" class="edge">
<title>Node2&#45;&gt;Node19</title>
<path fill="none" stroke="#191970" d="M800.2483,-169.0205C797.2453,-168.6463 794.2676,-168.3023 791.3593,-168 489.2019,-136.5957 407.2851,-173.376 103.2681,-132.0658"/>
<polygon fill="#191970" stroke="#191970" points="103.669,-128.5881 93.2852,-130.6923 102.7148,-135.5227 103.669,-128.5881"/>
</g>
<!-- Node3&#45;&gt;Node4 -->
<g id="edge4" class="edge">
<title>Node3&#45;&gt;Node4</title>
<path fill="none" stroke="#191970" d="M1650.1484,-113.2325C1647.5167,-112.7932 1644.9055,-112.3781 1642.3593,-112 1492.7606,-89.7831 1312.7882,-74.3894 1239.2026,-68.5747"/>
<polygon fill="#191970" stroke="#191970" points="1239.3766,-65.0777 1229.134,-67.7867 1238.8303,-72.0564 1239.3766,-65.0777"/>
</g>
<!-- Node5 -->
<g id="node6" class="node">
<title>Node5</title>
<polygon fill="none" stroke="#bfbfbf" points="1669.3593,-.5 1669.3593,-19.5 1719.3593,-19.5 1719.3593,-.5 1669.3593,-.5"/>
<text text-anchor="middle" x="1694.3593" y="-7.5" font-family="Helvetica,sans-Serif" font-size="10.00" fill="#000000">cstdint</text>
</g>
<!-- Node3&#45;&gt;Node5 -->
<g id="edge5" class="edge">
<title>Node3&#45;&gt;Node5</title>
<path fill="none" stroke="#191970" d="M1694.3593,-112.4509C1694.3593,-94.184 1694.3593,-53.9553 1694.3593,-29.6976"/>
<polygon fill="#191970" stroke="#191970" points="1697.8594,-29.5249 1694.3593,-19.5249 1690.8594,-29.5249 1697.8594,-29.5249"/>
</g>
<!-- Node3&#45;&gt;Node6 -->
<g id="edge6" class="edge">
<title>Node3&#45;&gt;Node6</title>
<path fill="none" stroke="#191970" d="M1718.4262,-112.3733C1741.2021,-103.2629 1775.5937,-89.5062 1801.0083,-79.3404"/>
<polygon fill="#191970" stroke="#191970" points="1802.6216,-82.4648 1810.6065,-75.5011 1800.0218,-75.9654 1802.6216,-82.4648"/>
</g>
<!-- Node7&#45;&gt;Node8 -->
<g id="edge8" class="edge">
<title>Node7&#45;&gt;Node8</title>
<path fill="none" stroke="#191970" d="M162.4233,-112.2455C173.7155,-103.814 190.2438,-91.4729 203.3864,-81.6598"/>
<polygon fill="#191970" stroke="#191970" points="205.5262,-84.4301 211.445,-75.6427 201.3382,-78.8211 205.5262,-84.4301"/>
</g>
<!-- Node9&#45;&gt;Node4 -->
<g id="edge15" class="edge">
<title>Node9&#45;&gt;Node4</title>
<path fill="none" stroke="#191970" d="M937.8659,-115.1847C942.6846,-114.067 947.6595,-112.9613 952.3593,-112 1045.1333,-93.0237 1069.5359,-94.7329 1162.3593,-76 1165.4162,-75.3831 1168.5875,-74.7097 1171.7598,-74.0133"/>
<polygon fill="#191970" stroke="#191970" points="1172.7754,-77.3721 1181.7566,-71.7518 1171.2308,-70.5446 1172.7754,-77.3721"/>
</g>
<!-- Node9&#45;&gt;Node6 -->
<g id="edge11" class="edge">
<title>Node9&#45;&gt;Node6</title>
<path fill="none" stroke="#191970" d="M938.1969,-119.2101C961.0535,-116.998 994.2772,-113.9623 1023.3593,-112 1363.6785,-89.0373 1455.3874,-128.4753 1795.9186,-75.9165"/>
<polygon fill="#191970" stroke="#191970" points="1796.4669,-79.3733 1805.8086,-74.3751 1795.3889,-72.4568 1796.4669,-79.3733"/>
</g>
<!-- Node10 -->
<g id="node11" class="node">
<title>Node10</title>
<polygon fill="none" stroke="#bfbfbf" points="532.8593,-56.5 532.8593,-75.5 581.8593,-75.5 581.8593,-56.5 532.8593,-56.5"/>
<text text-anchor="middle" x="557.3593" y="-63.5" font-family="Helvetica,sans-Serif" font-size="10.00" fill="#000000">cstdlib</text>
</g>
<!-- Node9&#45;&gt;Node10 -->
<g id="edge10" class="edge">
<title>Node9&#45;&gt;Node10</title>
<path fill="none" stroke="#191970" d="M882.4184,-114.9899C877.7391,-113.9188 872.9226,-112.879 868.3593,-112 768.7109,-92.8052 649.7606,-77.2278 592.1085,-70.1382"/>
<polygon fill="#191970" stroke="#191970" points="592.4256,-66.6511 582.0753,-68.9143 591.5779,-73.5995 592.4256,-66.6511"/>
</g>
<!-- Node9&#45;&gt;Node11 -->
<g id="edge12" class="edge">
<title>Node9&#45;&gt;Node11</title>
<path fill="none" stroke="#191970" d="M893.9858,-112.2455C879.4285,-103.5731 857.9283,-90.7645 841.2441,-80.825"/>
<polygon fill="#191970" stroke="#191970" points="842.9276,-77.7539 832.5452,-75.6427 839.3449,-83.7676 842.9276,-77.7539"/>
</g>
<!-- Node12 -->
<g id="node13" class="node">
<title>Node12</title>
<polygon fill="none" stroke="#bfbfbf" points="1109.3593,-56.5 1109.3593,-75.5 1153.3593,-75.5 1153.3593,-56.5 1109.3593,-56.5"/>
<text text-anchor="middle" x="1131.3593" y="-63.5" font-family="Helvetica,sans-Serif" font-size="10.00" fill="#000000">string</text>
</g>
<!-- Node9&#45;&gt;Node12 -->
<g id="edge13" class="edge">
<title>Node9&#45;&gt;Node12</title>
<path fill="none" stroke="#191970" d="M937.9023,-115.0208C978.9296,-104.6247 1055.9128,-85.1177 1099.3745,-74.1048"/>
<polygon fill="#191970" stroke="#191970" points="1100.3112,-77.4781 1109.1451,-71.6289 1098.5918,-70.6925 1100.3112,-77.4781"/>
</g>
<!-- Node13 -->
<g id="node14" class="node">
<title>Node13</title>
<polygon fill="none" stroke="#bfbfbf" points="873.8593,-56.5 873.8593,-75.5 946.8593,-75.5 946.8593,-56.5 873.8593,-56.5"/>
<text text-anchor="middle" x="910.3593" y="-63.5" font-family="Helvetica,sans-Serif" font-size="10.00" fill="#000000">string_view</text>
</g>
<!-- Node9&#45;&gt;Node13 -->
<g id="edge14" class="edge">
<title>Node9&#45;&gt;Node13</title>
<path fill="none" stroke="#191970" d="M910.3593,-112.2455C910.3593,-104.9382 910.3593,-94.6944 910.3593,-85.7046"/>
<polygon fill="#191970" stroke="#191970" points="913.8594,-85.6426 910.3593,-75.6427 906.8594,-85.6427 913.8594,-85.6426"/>
</g>
<!-- Node15&#45;&gt;Node4 -->
<g id="edge19" class="edge">
<title>Node15&#45;&gt;Node4</title>
<path fill="none" stroke="#191970" d="M750.8037,-117.3832C852.2496,-111.4298 1019.6641,-98.9925 1162.3593,-76 1165.4381,-75.5039 1168.6244,-74.9129 1171.8063,-74.2697"/>
<polygon fill="#191970" stroke="#191970" points="1172.7916,-77.6373 1181.8179,-72.0896 1171.3021,-70.7975 1172.7916,-77.6373"/>
</g>
<!-- Node15&#45;&gt;Node8 -->
<g id="edge21" class="edge">
<title>Node15&#45;&gt;Node8</title>
<path fill="none" stroke="#191970" d="M568.429,-112.4802C491.723,-104.0198 378.5892,-90.7358 280.3593,-76 278.2991,-75.6909 276.1983,-75.3649 274.0774,-75.0268"/>
<polygon fill="#191970" stroke="#191970" points="274.5212,-71.5528 264.0842,-73.3751 273.3796,-78.4591 274.5212,-71.5528"/>
</g>
<!-- Node15&#45;&gt;Node10 -->
<g id="edge18" class="edge">
<title>Node15&#45;&gt;Node10</title>
<path fill="none" stroke="#191970" d="M640.7664,-112.2455C624.9803,-103.4928 601.5954,-90.527 583.6006,-80.5496"/>
<polygon fill="#191970" stroke="#191970" points="585.1934,-77.4308 574.7506,-75.6427 581.799,-83.5528 585.1934,-77.4308"/>
</g>
<!-- Node15&#45;&gt;Node11 -->
<g id="edge20" class="edge">
<title>Node15&#45;&gt;Node11</title>
<path fill="none" stroke="#191970" d="M685.5205,-112.3733C711.566,-103.1419 751.0709,-89.1402 779.8572,-78.9375"/>
<polygon fill="#191970" stroke="#191970" points="781.2963,-82.1408 789.5526,-75.5011 778.9578,-75.5429 781.2963,-82.1408"/>
</g>
<!-- Node16&#45;&gt;Node10 -->
<g id="edge23" class="edge">
<title>Node16&#45;&gt;Node10</title>
<path fill="none" stroke="#191970" d="M473.1264,-112.2455C489.0688,-103.4928 512.6852,-90.527 530.8582,-80.5496"/>
<polygon fill="#191970" stroke="#191970" points="532.7145,-83.5233 539.7959,-75.6427 529.3456,-77.3873 532.7145,-83.5233"/>
</g>
<!-- Node16&#45;&gt;Node11 -->
<g id="edge24" class="edge">
<title>Node16&#45;&gt;Node11</title>
<path fill="none" stroke="#191970" d="M517.0072,-112.4369C591.0218,-100.9554 713.0323,-82.0286 775.9906,-72.2622"/>
<polygon fill="#191970" stroke="#191970" points="776.5926,-75.7107 785.9378,-70.7191 775.5195,-68.7935 776.5926,-75.7107"/>
</g>
<!-- Node17&#45;&gt;Node8 -->
<g id="edge29" class="edge">
<title>Node17&#45;&gt;Node8</title>
<path fill="none" stroke="#191970" d="M297.8567,-112.2455C284.2014,-103.6534 264.0936,-91.0014 248.3604,-81.1018"/>
<polygon fill="#191970" stroke="#191970" points="250.0122,-78.006 239.6843,-75.6427 246.2842,-83.9307 250.0122,-78.006"/>
</g>
<!-- Node17&#45;&gt;Node10 -->
<g id="edge26" class="edge">
<title>Node17&#45;&gt;Node10</title>
<path fill="none" stroke="#191970" d="M344.7854,-114.0704C347.682,-113.3616 350.5737,-112.6622 353.3593,-112 412.8218,-97.8651 482.2966,-82.4283 522.9016,-73.5143"/>
<polygon fill="#191970" stroke="#191970" points="523.8047,-76.8995 532.8236,-71.3399 522.3061,-70.0618 523.8047,-76.8995"/>
</g>
<!-- Node17&#45;&gt;Node13 -->
<g id="edge27" class="edge">
<title>Node17&#45;&gt;Node13</title>
<path fill="none" stroke="#191970" d="M344.696,-113.62C347.6114,-113.0057 350.5318,-112.4513 353.3593,-112 574.2471,-76.7419 633.4407,-104.048 855.3593,-76 858.0643,-75.6581 860.838,-75.2708 863.6327,-74.8522"/>
<polygon fill="#191970" stroke="#191970" points="864.4418,-78.2672 873.7596,-73.2246 863.3309,-71.3559 864.4418,-78.2672"/>
</g>
<!-- Node18 -->
<g id="node19" class="node">
<title>Node18</title>
<polygon fill="none" stroke="#bfbfbf" points="289.8593,-56.5 289.8593,-75.5 336.8593,-75.5 336.8593,-56.5 289.8593,-56.5"/>
<text text-anchor="middle" x="313.3593" y="-63.5" font-family="Helvetica,sans-Serif" font-size="10.00" fill="#000000">cmath</text>
</g>
<!-- Node17&#45;&gt;Node18 -->
<g id="edge28" class="edge">
<title>Node17&#45;&gt;Node18</title>
<path fill="none" stroke="#191970" d="M313.3593,-112.2455C313.3593,-104.9382 313.3593,-94.6944 313.3593,-85.7046"/>
<polygon fill="#191970" stroke="#191970" points="316.8594,-85.6426 313.3593,-75.6427 309.8594,-85.6427 316.8594,-85.6426"/>
</g>
<!-- Node20&#45;&gt;Node3 -->
<g id="edge36" class="edge">
<title>Node20&#45;&gt;Node3</title>
<path fill="none" stroke="#191970" d="M782.7597,-168.8035C785.6629,-168.5122 788.5388,-168.2423 791.3593,-168 1165.2151,-135.8771 1264.6077,-175.1624 1640.1191,-132.122"/>
<polygon fill="#191970" stroke="#191970" points="1640.6427,-135.5848 1650.1736,-130.9575 1639.8373,-128.6313 1640.6427,-135.5848"/>
</g>
<!-- Node20&#45;&gt;Node4 -->
<g id="edge47" class="edge">
<title>Node20&#45;&gt;Node4</title>
<path fill="none" stroke="#191970" d="M774.2718,-168.4658C832.1901,-158.8278 915.563,-143.7232 946.3593,-132 962.7439,-125.7629 963.9732,-118.2334 980.3593,-112 1057.4275,-82.6827 1081.7473,-93.3411 1162.3593,-76 1165.4081,-75.3442 1168.5739,-74.6442 1171.7426,-73.9307"/>
<polygon fill="#191970" stroke="#191970" points="1172.7674,-77.2867 1181.7339,-71.6429 1171.205,-70.4633 1172.7674,-77.2867"/>
</g>
<!-- Node20&#45;&gt;Node7 -->
<g id="edge37" class="edge">
<title>Node20&#45;&gt;Node7</title>
<path fill="none" stroke="#191970" d="M645.9244,-169.458C641.3358,-168.9458 636.7819,-168.4546 632.3593,-168 441.585,-148.3886 392.3939,-157.8129 202.3593,-132 200.9095,-131.8031 199.4393,-131.5929 197.9565,-131.3719"/>
<polygon fill="#191970" stroke="#191970" points="198.5008,-127.9146 188.0716,-129.7805 197.3881,-134.8256 198.5008,-127.9146"/>
</g>
<!-- Node20&#45;&gt;Node10 -->
<g id="edge46" class="edge">
<title>Node20&#45;&gt;Node10</title>
<path fill="none" stroke="#191970" d="M646.3168,-176.0287C474.247,-170.7141 33.8325,-154.9263 12.3593,-132 6.2829,-125.5124 6.344,-118.5444 12.3593,-112 29.6899,-93.145 404.9534,-73.3965 522.4866,-67.6545"/>
<polygon fill="#191970" stroke="#191970" points="522.9032,-71.1385 532.7219,-67.1581 522.5641,-64.1467 522.9032,-71.1385"/>
</g>
<!-- Node20&#45;&gt;Node14 -->
<g id="edge40" class="edge">
<title>Node20&#45;&gt;Node14</title>
<path fill="none" stroke="#191970" d="M782.3692,-169.0839C785.4067,-168.712 788.4143,-168.3491 791.3593,-168 852.8812,-160.7076 1014.0095,-143.6338 1120.3372,-132.4637"/>
<polygon fill="#191970" stroke="#191970" points="1120.871,-135.927 1130.4507,-131.4017 1120.1399,-128.9652 1120.871,-135.927"/>
</g>
<!-- Node20&#45;&gt;Node15 -->
<g id="edge38" class="edge">
<title>Node20&#45;&gt;Node15</title>
<path fill="none" stroke="#191970" d="M704.6049,-168.2455C696.4945,-160.1352 684.7668,-148.4075 675.1512,-138.7919"/>
<polygon fill="#191970" stroke="#191970" points="677.548,-136.2389 668.002,-131.6427 672.5982,-141.1887 677.548,-136.2389"/>
</g>
<!-- Node20&#45;&gt;Node16 -->
<g id="edge39" class="edge">
<title>Node20&#45;&gt;Node16</title>
<path fill="none" stroke="#191970" d="M670.1299,-168.4369C625.6178,-158.8127 556.9103,-143.957 509.2424,-133.6504"/>
<polygon fill="#191970" stroke="#191970" points="509.9201,-130.2161 499.4063,-131.5237 508.4407,-137.058 509.9201,-130.2161"/>
</g>
<!-- Node20&#45;&gt;Node17 -->
<g id="edge45" class="edge">
<title>Node20&#45;&gt;Node17</title>
<path fill="none" stroke="#191970" d="M646.0896,-169.512C554.6833,-158.1196 399.554,-138.6792 354.7497,-131.87"/>
<polygon fill="#191970" stroke="#191970" points="355.1617,-128.3908 344.7249,-130.2138 354.0206,-135.2971 355.1617,-128.3908"/>
</g>
<!-- Node20&#45;&gt;Node19 -->
<g id="edge48" class="edge">
<title>Node20&#45;&gt;Node19</title>
<path fill="none" stroke="#191970" d="M645.9324,-169.3768C641.3419,-168.8842 636.7854,-168.4196 632.3593,-168 400.208,-145.9909 337.1746,-165.7394 103.469,-132.1276"/>
<polygon fill="#191970" stroke="#191970" points="103.6917,-128.6232 93.2918,-130.646 102.6832,-135.5502 103.6917,-128.6232"/>
</g>
<!-- Node20&#45;&gt;Node21 -->
<g id="edge41" class="edge">
<title>Node20&#45;&gt;Node21</title>
<path fill="none" stroke="#191970" d="M775.4949,-168.4369C845.1597,-157.5396 957.701,-139.9354 1022.3548,-129.8219"/>
<polygon fill="#191970" stroke="#191970" points="1022.9673,-133.2688 1032.3062,-128.2653 1021.8854,-126.3529 1022.9673,-133.2688"/>
</g>
<!-- Node21&#45;&gt;Node4 -->
<g id="edge42" class="edge">
<title>Node21&#45;&gt;Node4</title>
<path fill="none" stroke="#191970" d="M1095.2228,-112.3733C1116.7643,-103.3032 1149.2431,-89.6279 1173.3549,-79.4755"/>
<polygon fill="#191970" stroke="#191970" points="1174.936,-82.6075 1182.7941,-75.5011 1172.2196,-76.156 1174.936,-82.6075"/>
</g>
<!-- Node21&#45;&gt;Node6 -->
<g id="edge44" class="edge">
<title>Node21&#45;&gt;Node6</title>
<path fill="none" stroke="#191970" d="M1112.3931,-113.4653C1115.7548,-112.9095 1119.1096,-112.4095 1122.3593,-112 1417.0815,-74.8651 1498.8741,-122.3651 1795.6106,-75.9728"/>
<polygon fill="#191970" stroke="#191970" points="1796.4774,-79.3791 1805.8055,-74.3554 1795.3806,-72.4656 1796.4774,-79.3791"/>
</g>
<!-- Node21&#45;&gt;Node11 -->
<g id="edge43" class="edge">
<title>Node21&#45;&gt;Node11</title>
<path fill="none" stroke="#191970" d="M1032.0777,-113.1884C984.0653,-102.6857 904.3265,-85.2428 856.4142,-74.762"/>
<polygon fill="#191970" stroke="#191970" points="856.9236,-71.2908 846.4067,-72.5729 855.4277,-78.1291 856.9236,-71.2908"/>
</g>
<!-- Node22&#45;&gt;Node3 -->
<g id="edge50" class="edge">
<title>Node22&#45;&gt;Node3</title>
<path fill="none" stroke="#191970" d="M1694.3593,-168.2455C1694.3593,-160.9382 1694.3593,-150.6944 1694.3593,-141.7046"/>
<polygon fill="#191970" stroke="#191970" points="1697.8594,-141.6426 1694.3593,-131.6427 1690.8594,-141.6427 1697.8594,-141.6426"/>
</g>
<!-- Node22&#45;&gt;Node6 -->
<g id="edge56" class="edge">
<title>Node22&#45;&gt;Node6</title>
<path fill="none" stroke="#191970" d="M1766.4204,-175.4336C1882.4178,-170.5531 2099.9859,-158.0136 2123.3593,-132 2129.3002,-125.388 2129.1296,-118.7614 2123.3593,-112 2107.2751,-93.1532 1947.8928,-76.319 1872.9412,-69.3737"/>
<polygon fill="#191970" stroke="#191970" points="1873.2264,-65.8852 1862.9492,-68.4601 1872.589,-72.8562 1873.2264,-65.8852"/>
</g>
<!-- Node22&#45;&gt;Node14 -->
<g id="edge55" class="edge">
<title>Node22&#45;&gt;Node14</title>
<path fill="none" stroke="#191970" d="M1622.1111,-169.4643C1538.6786,-159.6073 1401.3316,-143.3807 1310.8555,-132.6915"/>
<polygon fill="#191970" stroke="#191970" points="1311.2249,-129.2109 1300.8833,-131.5134 1310.4036,-136.1626 1311.2249,-129.2109"/>
</g>
<!-- Node23 -->
<g id="node24" class="node">
<title>Node23</title>
<g id="a_node24"><a xlink:href="../../da/d93/ElinkEncoderMerger_8h.html" target="_top" xlink:title="ElinkEncoderMerger.h">
<polygon fill="none" stroke="#000000" points="1992.3593,-112.5 1992.3593,-131.5 2114.3593,-131.5 2114.3593,-112.5 1992.3593,-112.5"/>
<text text-anchor="middle" x="2053.3593" y="-119.5" font-family="Helvetica,sans-Serif" font-size="10.00" fill="#000000">ElinkEncoderMerger.h</text>
</a>
</g>
</g>
<!-- Node22&#45;&gt;Node23 -->
<g id="edge51" class="edge">
<title>Node22&#45;&gt;Node23</title>
<path fill="none" stroke="#191970" d="M1755.6657,-168.4369C1818.5256,-158.6314 1916.1977,-143.3957 1982.3725,-133.0731"/>
<polygon fill="#191970" stroke="#191970" points="1982.9647,-136.5232 1992.3058,-131.5237 1981.8858,-129.6068 1982.9647,-136.5232"/>
</g>
<!-- Node23&#45;&gt;Node4 -->
<g id="edge54" class="edge">
<title>Node23&#45;&gt;Node4</title>
<path fill="none" stroke="#191970" d="M1992.2726,-116.0191C1976.9624,-114.6095 1960.5663,-113.1764 1945.3593,-112 1673.2885,-90.9527 1344.3561,-73.2189 1239.3175,-67.7444"/>
<polygon fill="#191970" stroke="#191970" points="1239.1875,-64.2331 1229.0194,-67.2097 1238.8244,-71.2236 1239.1875,-64.2331"/>
</g>
<!-- Node23&#45;&gt;Node5 -->
<g id="edge53" class="edge">
<title>Node23&#45;&gt;Node5</title>
<path fill="none" stroke="#191970" d="M2029.314,-112.3871C1994.8784,-98.8146 1929.374,-73.7165 1872.3593,-56 1823.3948,-40.785 1765.7909,-26.5518 1729.6709,-18.0594"/>
<polygon fill="#191970" stroke="#191970" points="1730.1651,-14.5807 1719.6314,-15.7168 1728.5745,-21.3976 1730.1651,-14.5807"/>
</g>
<!-- Node23&#45;&gt;Node6 -->
<g id="edge52" class="edge">
<title>Node23&#45;&gt;Node6</title>
<path fill="none" stroke="#191970" d="M2015.7119,-112.3733C1975.8015,-102.1679 1913.0906,-86.1322 1872.8592,-75.8447"/>
<polygon fill="#191970" stroke="#191970" points="1873.6981,-72.4467 1863.1427,-73.3601 1871.9639,-79.2285 1873.6981,-72.4467"/>
</g>
<!-- Node24&#45;&gt;Node8 -->
<g id="edge60" class="edge">
<title>Node24&#45;&gt;Node8</title>
<path fill="none" stroke="#191970" d="M806.9744,-230.5358C594.8793,-221.0581 57.2896,-191.3582 4.3593,-132 -1.5566,-125.3657 -1.2461,-118.8987 4.3593,-112 25.367,-86.1455 116.2221,-74.3162 174.4047,-69.3047"/>
<polygon fill="#191970" stroke="#191970" points="174.8296,-72.7817 184.5093,-68.4742 174.2561,-65.8052 174.8296,-72.7817"/>
</g>
<!-- Node24&#45;&gt;Node14 -->
<g id="edge59" class="edge">
<title>Node24&#45;&gt;Node14</title>
<path fill="none" stroke="#191970" d="M920.3244,-224.4509C979.267,-204.3242 1116.2887,-157.5363 1182.7996,-134.8253"/>
<polygon fill="#191970" stroke="#191970" points="1184.1325,-138.0686 1192.465,-131.5249 1181.8705,-131.4442 1184.1325,-138.0686"/>
</g>
<!-- Node24&#45;&gt;Node20 -->
<g id="edge58" class="edge">
<title>Node24&#45;&gt;Node20</title>
<path fill="none" stroke="#191970" d="M861.76,-224.3733C832.0332,-215.021 786.7434,-200.7725 754.2137,-190.5385"/>
<polygon fill="#191970" stroke="#191970" points="755.1488,-187.1636 744.5593,-187.5011 753.048,-193.8409 755.1488,-187.1636"/>
</g>
<!-- Node26&#45;&gt;Node6 -->
<g id="edge65" class="edge">
<title>Node26&#45;&gt;Node6</title>
<path fill="none" stroke="#191970" d="M2170.3419,-114.4703C2165.639,-113.6034 2160.8928,-112.7593 2156.3593,-112 2054.6944,-94.9729 1934.2968,-78.84 1873.5712,-70.9832"/>
<polygon fill="#191970" stroke="#191970" points="1873.6607,-67.4659 1863.2953,-69.6592 1872.766,-74.4085 1873.6607,-67.4659"/>
</g>
<!-- Node27 -->
<g id="node28" class="node">
<title>Node27</title>
<polygon fill="none" stroke="#bfbfbf" points="2011.8593,-56.5 2011.8593,-75.5 2064.8593,-75.5 2064.8593,-56.5 2011.8593,-56.5"/>
<text text-anchor="middle" x="2038.3593" y="-63.5" font-family="Helvetica,sans-Serif" font-size="10.00" fill="#000000">cstddef</text>
</g>
<!-- Node26&#45;&gt;Node27 -->
<g id="edge64" class="edge">
<title>Node26&#45;&gt;Node27</title>
<path fill="none" stroke="#191970" d="M2179.1353,-112.3733C2150.1816,-102.8356 2105.7691,-88.2056 2074.5891,-77.9345"/>
<polygon fill="#191970" stroke="#191970" points="2075.5601,-74.5694 2064.9671,-74.7649 2073.3699,-81.218 2075.5601,-74.5694"/>
</g>
<!-- Node29&#45;&gt;Node3 -->
<g id="edge82" class="edge">
<title>Node29&#45;&gt;Node3</title>
<path fill="none" stroke="#191970" d="M1480.6325,-168.7527C1524.5176,-159.1529 1593.2845,-144.1101 1640.9118,-133.6916"/>
<polygon fill="#191970" stroke="#191970" points="1641.7165,-137.0985 1650.7375,-131.5423 1640.2205,-130.2602 1641.7165,-137.0985"/>
</g>
<!-- Node29&#45;&gt;Node4 -->
<g id="edge70" class="edge">
<title>Node29&#45;&gt;Node4</title>
<path fill="none" stroke="#191970" d="M1438.4905,-168.3564C1438.1327,-153.9205 1435.2213,-126.81 1419.3593,-112 1393.5794,-87.9298 1292.6713,-74.5808 1239.1398,-69.0605"/>
<polygon fill="#191970" stroke="#191970" points="1239.3994,-65.5691 1229.1015,-68.06 1238.705,-72.5346 1239.3994,-65.5691"/>
</g>
<!-- Node29&#45;&gt;Node6 -->
<g id="edge84" class="edge">
<title>Node29&#45;&gt;Node6</title>
<path fill="none" stroke="#191970" d="M1480.686,-175.572C1574.4704,-169.8129 1793.4647,-154.1317 1818.3593,-132 1831.1388,-120.6388 1834.5737,-100.9675 1835.1503,-86.0483"/>
<polygon fill="#191970" stroke="#191970" points="1838.6502,-85.7792 1835.1415,-75.7822 1831.6502,-85.7852 1838.6502,-85.7792"/>
</g>
<!-- Node29&#45;&gt;Node7 -->
<g id="edge80" class="edge">
<title>Node29&#45;&gt;Node7</title>
<path fill="none" stroke="#191970" d="M1396.3293,-174.0618C1372.8252,-171.9834 1342.985,-169.5499 1316.3593,-168 853.3115,-141.0465 736.4247,-158.6494 273.3593,-132 248.4906,-130.5688 220.8608,-128.3974 198.0057,-126.4433"/>
<polygon fill="#191970" stroke="#191970" points="198.1328,-122.9413 187.8678,-125.5642 197.528,-129.9151 198.1328,-122.9413"/>
</g>
<!-- Node29&#45;&gt;Node10 -->
<g id="edge71" class="edge">
<title>Node29&#45;&gt;Node10</title>
<path fill="none" stroke="#191970" d="M1396.2956,-174.5449C1372.7811,-172.6152 1342.9417,-170.1695 1316.3593,-168 1119.476,-151.9312 1068.867,-160.2482 873.3593,-132 819.016,-124.1481 662.7383,-89.651 592.4026,-73.8968"/>
<polygon fill="#191970" stroke="#191970" points="592.7992,-70.3988 582.2755,-71.6249 591.2668,-77.2291 592.7992,-70.3988"/>
</g>
<!-- Node29&#45;&gt;Node14 -->
<g id="edge73" class="edge">
<title>Node29&#45;&gt;Node14</title>
<path fill="none" stroke="#191970" d="M1400.8838,-168.3733C1363.849,-158.8598 1307.0912,-144.2797 1267.1232,-134.0127"/>
<polygon fill="#191970" stroke="#191970" points="1267.9022,-130.5993 1257.3458,-131.5011 1266.1605,-137.3792 1267.9022,-130.5993"/>
</g>
<!-- Node29&#45;&gt;Node15 -->
<g id="edge72" class="edge">
<title>Node29&#45;&gt;Node15</title>
<path fill="none" stroke="#191970" d="M1396.3048,-174.4279C1372.7931,-172.4622 1342.9535,-170.0194 1316.3593,-168 1119.8568,-153.0785 890.2008,-137.4315 760.7613,-128.7771"/>
<polygon fill="#191970" stroke="#191970" points="760.6794,-125.2639 750.4683,-128.0895 760.2128,-132.2484 760.6794,-125.2639"/>
</g>
<!-- Node29&#45;&gt;Node19 -->
<g id="edge75" class="edge">
<title>Node29&#45;&gt;Node19</title>
<path fill="none" stroke="#191970" d="M1396.3322,-174.0111C1372.829,-171.9172 1342.9887,-169.4849 1316.3593,-168 780.3841,-138.1138 639.0657,-199.3973 103.587,-132.0655"/>
<polygon fill="#191970" stroke="#191970" points="103.6369,-128.5439 93.2763,-130.7593 102.7571,-135.4884 103.6369,-128.5439"/>
</g>
<!-- Node29&#45;&gt;Node21 -->
<g id="edge81" class="edge">
<title>Node29&#45;&gt;Node21</title>
<path fill="none" stroke="#191970" d="M1396.3329,-172.6012C1335.6804,-164.6467 1220.1488,-148.8844 1122.3593,-132 1122.2584,-131.9826 1122.1575,-131.9651 1122.0564,-131.9476"/>
<polygon fill="#191970" stroke="#191970" points="1122.9046,-128.5443 1112.4416,-130.2102 1121.6598,-135.4327 1122.9046,-128.5443"/>
</g>
<!-- Node29&#45;&gt;Node23 -->
<g id="edge83" class="edge">
<title>Node29&#45;&gt;Node23</title>
<path fill="none" stroke="#191970" d="M1480.4362,-175.1005C1571.4112,-168.6809 1793.1629,-152.2228 1978.3593,-132 1979.4693,-131.8788 1980.5882,-131.7546 1981.7143,-131.6278"/>
<polygon fill="#191970" stroke="#191970" points="1982.4683,-135.0635 1991.9932,-130.4239 1981.654,-128.111 1982.4683,-135.0635"/>
</g>
<!-- Node29&#45;&gt;Node25 -->
<g id="edge69" class="edge">
<title>Node29&#45;&gt;Node25</title>
<path fill="none" stroke="#191970" d="M1480.4309,-175.4691C1515.875,-173.3673 1567.925,-170.3519 1613.3593,-168 1656.4591,-165.7689 2354.9424,-158.0393 2389.3593,-132 2403.6207,-121.2101 2408.7446,-100.8235 2410.5301,-85.5505"/>
<polygon fill="#191970" stroke="#191970" points="2414.0221,-85.7888 2411.3232,-75.5435 2407.044,-85.2357 2414.0221,-85.7888"/>
</g>
<!-- Node30 -->
<g id="node31" class="node">
<title>Node30</title>
<polygon fill="none" stroke="#bfbfbf" points="1722.8593,-56.5 1722.8593,-75.5 1787.8593,-75.5 1787.8593,-56.5 1722.8593,-56.5"/>
<text text-anchor="middle" x="1755.3593" y="-63.5" font-family="Helvetica,sans-Serif" font-size="10.00" fill="#000000">functional</text>
</g>
<!-- Node29&#45;&gt;Node30 -->
<g id="edge74" class="edge">
<title>Node29&#45;&gt;Node30</title>
<path fill="none" stroke="#191970" d="M1480.4944,-175.7136C1599.3577,-169.0626 1929.7315,-149.1099 1945.3593,-132 1951.354,-125.4368 1950.8557,-118.9859 1945.3593,-112 1944.7774,-111.2604 1853.7065,-89.443 1797.8772,-76.1247"/>
<polygon fill="#191970" stroke="#191970" points="1798.4317,-72.6589 1787.8926,-73.7438 1796.808,-79.468 1798.4317,-72.6589"/>
</g>
<!-- Node31 -->
<g id="node32" class="node">
<title>Node31</title>
<polygon fill="none" stroke="#bfbfbf" points="1870.8593,-112.5 1870.8593,-131.5 1935.8593,-131.5 1935.8593,-112.5 1870.8593,-112.5"/>
<text text-anchor="middle" x="1903.3593" y="-119.5" font-family="Helvetica,sans-Serif" font-size="10.00" fill="#000000">stdexcept</text>
</g>
<!-- Node29&#45;&gt;Node31 -->
<g id="edge76" class="edge">
<title>Node29&#45;&gt;Node31</title>
<path fill="none" stroke="#191970" d="M1480.3734,-174.7764C1555.9232,-168.6687 1719.5886,-154.0191 1856.3593,-132 1857.8264,-131.7638 1859.3169,-131.5121 1860.8204,-131.2481"/>
<polygon fill="#191970" stroke="#191970" points="1861.6435,-134.6547 1870.8224,-129.3634 1860.3472,-127.7757 1861.6435,-134.6547"/>
</g>
<!-- Node32 -->
<g id="node33" class="node">
<title>Node32</title>
<g id="a_node33"><a xlink:href="../../d7/dee/MakeArray_8h.html" target="_top" xlink:title="MakeArray.h">
<polygon fill="none" stroke="#000000" points="2302.8593,-112.5 2302.8593,-131.5 2379.8593,-131.5 2379.8593,-112.5 2302.8593,-112.5"/>
<text text-anchor="middle" x="2341.3593" y="-119.5" font-family="Helvetica,sans-Serif" font-size="10.00" fill="#000000">MakeArray.h</text>
</a>
</g>
</g>
<!-- Node29&#45;&gt;Node32 -->
<g id="edge77" class="edge">
<title>Node29&#45;&gt;Node32</title>
<path fill="none" stroke="#191970" d="M1480.4353,-175.5507C1515.882,-173.4981 1567.9335,-170.5092 1613.3593,-168 1913.3284,-151.4303 1990.0893,-167.9304 2288.3593,-132 2289.8119,-131.825 2291.2846,-131.6341 2292.7696,-131.43"/>
<polygon fill="#191970" stroke="#191970" points="2293.3085,-134.8883 2302.6645,-129.9169 2292.2503,-127.9688 2293.3085,-134.8883"/>
</g>
<!-- Node32&#45;&gt;Node25 -->
<g id="edge78" class="edge">
<title>Node32&#45;&gt;Node25</title>
<path fill="none" stroke="#191970" d="M2353.5524,-112.2455C2363.9914,-103.8943 2379.2248,-91.7076 2391.4333,-81.9408"/>
<polygon fill="#191970" stroke="#191970" points="2393.6837,-84.6227 2399.306,-75.6427 2389.3108,-79.1566 2393.6837,-84.6227"/>
</g>
<!-- Node33 -->
<g id="node34" class="node">
<title>Node33</title>
<polygon fill="none" stroke="#bfbfbf" points="2302.8593,-56.5 2302.8593,-75.5 2371.8593,-75.5 2371.8593,-56.5 2302.8593,-56.5"/>
<text text-anchor="middle" x="2337.3593" y="-63.5" font-family="Helvetica,sans-Serif" font-size="10.00" fill="#000000">type_traits</text>
</g>
<!-- Node32&#45;&gt;Node33 -->
<g id="edge79" class="edge">
<title>Node32&#45;&gt;Node33</title>
<path fill="none" stroke="#191970" d="M2340.6626,-112.2455C2340.1406,-104.9382 2339.4089,-94.6944 2338.7668,-85.7046"/>
<polygon fill="#191970" stroke="#191970" points="2342.2517,-85.3679 2338.0481,-75.6427 2335.2695,-85.8667 2342.2517,-85.3679"/>
</g>
<!-- Node34&#45;&gt;Node4 -->
<g id="edge89" class="edge">
<title>Node34&#45;&gt;Node4</title>
<path fill="none" stroke="#191970" d="M1283.2257,-168.3805C1303.9887,-155.9075 1333.6863,-133.2305 1319.3593,-112 1301.5479,-85.6062 1265.7773,-74.3528 1239.0301,-69.557"/>
<polygon fill="#191970" stroke="#191970" points="1239.3408,-66.063 1228.9187,-67.9682 1238.2542,-72.9781 1239.3408,-66.063"/>
</g>
<!-- Node34&#45;&gt;Node6 -->
<g id="edge86" class="edge">
<title>Node34&#45;&gt;Node6</title>
<path fill="none" stroke="#191970" d="M1307.0191,-174.4924C1428.6621,-164.2234 1775.1287,-134.7703 1780.3593,-132 1800.2947,-121.4414 1815.6296,-100.0696 1824.7778,-84.4976"/>
<polygon fill="#191970" stroke="#191970" points="1827.868,-86.142 1829.6602,-75.6998 1821.7474,-82.7453 1827.868,-86.142"/>
</g>
<!-- Node34&#45;&gt;Node8 -->
<g id="edge88" class="edge">
<title>Node34&#45;&gt;Node8</title>
<path fill="none" stroke="#191970" d="M1223.733,-176.5552C1038.1857,-170.0546 294.6647,-143.3435 273.3593,-132 254.346,-121.8768 240.7194,-100.7475 232.7371,-85.1095"/>
<polygon fill="#191970" stroke="#191970" points="235.7634,-83.3235 228.3067,-75.797 229.4422,-86.3308 235.7634,-83.3235"/>
</g>
<!-- Node34&#45;&gt;Node11 -->
<g id="edge87" class="edge">
<title>Node34&#45;&gt;Node11</title>
<path fill="none" stroke="#191970" d="M1223.675,-176.8919C1135.5216,-173.945 933.3657,-163.8239 873.3593,-132 852.9785,-121.1912 836.6656,-99.867 826.7986,-84.3746"/>
<polygon fill="#191970" stroke="#191970" points="829.679,-82.3739 821.5092,-75.6281 823.6891,-85.9963 829.679,-82.3739"/>
</g>
<!-- Node34&#45;&gt;Node14 -->
<g id="edge105" class="edge">
<title>Node34&#45;&gt;Node14</title>
<path fill="none" stroke="#191970" d="M1257.5209,-168.2455C1251.1973,-160.3761 1242.1369,-149.101 1234.5457,-139.6542"/>
<polygon fill="#191970" stroke="#191970" points="1237.1001,-137.2454 1228.1079,-131.6427 1231.6435,-141.6302 1237.1001,-137.2454"/>
</g>
<!-- Node34&#45;&gt;Node16 -->
<g id="edge90" class="edge">
<title>Node34&#45;&gt;Node16</title>
<path fill="none" stroke="#191970" d="M1223.8277,-175.7795C1115.9822,-169.9113 817.9591,-153.0431 557.925,-132.0207"/>
<polygon fill="#191970" stroke="#191970" points="558.1639,-128.5287 547.9134,-131.2077 557.5972,-135.5057 558.1639,-128.5287"/>
</g>
<!-- Node35 -->
<g id="node36" class="node">
<title>Node35</title>
<polygon fill="none" stroke="#bfbfbf" points="1366.3593,-112.5 1366.3593,-131.5 1410.3593,-131.5 1410.3593,-112.5 1366.3593,-112.5"/>
<text text-anchor="middle" x="1388.3593" y="-119.5" font-family="Helvetica,sans-Serif" font-size="10.00" fill="#000000">limits</text>
</g>
<!-- Node34&#45;&gt;Node35 -->
<g id="edge91" class="edge">
<title>Node34&#45;&gt;Node35</title>
<path fill="none" stroke="#191970" d="M1286.5038,-168.3733C1306.2485,-159.3838 1335.9292,-145.8706 1358.1648,-135.7471"/>
<polygon fill="#191970" stroke="#191970" points="1359.8399,-138.8302 1367.4908,-131.5011 1356.9393,-132.4594 1359.8399,-138.8302"/>
</g>
<!-- Node36 -->
<g id="node37" class="node">
<title>Node36</title>
<g id="a_node37"><a xlink:href="../../dc/d3a/RDHManip_8h.html" target="_top" xlink:title="MCHRawCommon/RDHManip.h">
<polygon fill="none" stroke="#000000" points="1465.8593,-112.5 1465.8593,-131.5 1632.8593,-131.5 1632.8593,-112.5 1465.8593,-112.5"/>
<text text-anchor="middle" x="1549.3593" y="-119.5" font-family="Helvetica,sans-Serif" font-size="10.00" fill="#000000">MCHRawCommon/RDHManip.h</text>
</a>
</g>
</g>
<!-- Node34&#45;&gt;Node36 -->
<g id="edge92" class="edge">
<title>Node34&#45;&gt;Node36</title>
<path fill="none" stroke="#191970" d="M1306.9595,-169.7971C1355.5487,-160.2162 1436.2478,-144.3037 1491.0651,-133.4946"/>
<polygon fill="#191970" stroke="#191970" points="1491.8519,-136.907 1500.9859,-131.5384 1490.4977,-130.0392 1491.8519,-136.907"/>
</g>
<!-- Node38 -->
<g id="node39" class="node">
<title>Node38</title>
<g id="a_node39"><a xlink:href="../../d4/d78/DataFormats_2Headers_2include_2Headers_2RAWDataHeader_8h.html" target="_top" xlink:title="Headers/RAWDataHeader.h">
<polygon fill="none" stroke="#000000" points="2117.8593,-56.5 2117.8593,-75.5 2266.8593,-75.5 2266.8593,-56.5 2117.8593,-56.5"/>
<text text-anchor="middle" x="2192.3593" y="-63.5" font-family="Helvetica,sans-Serif" font-size="10.00" fill="#000000">Headers/RAWDataHeader.h</text>
</a>
</g>
</g>
<!-- Node34&#45;&gt;Node38 -->
<g id="edge103" class="edge">
<title>Node34&#45;&gt;Node38</title>
<path fill="none" stroke="#191970" d="M1307.1129,-174.1584C1330.6612,-172.0971 1360.6331,-169.6489 1387.3593,-168 1435.5314,-165.028 2221.9463,-166.8275 2255.3593,-132 2272.3765,-114.2624 2245.6158,-93.7783 2221.8972,-80.3945"/>
<polygon fill="#191970" stroke="#191970" points="2223.5175,-77.2919 2213.0533,-75.6332 2220.1992,-83.4554 2223.5175,-77.2919"/>
</g>
<!-- Node36&#45;&gt;Node4 -->
<g id="edge99" class="edge">
<title>Node36&#45;&gt;Node4</title>
<path fill="none" stroke="#191970" d="M1490.6145,-112.4369C1418.1732,-100.6441 1297.4825,-80.9968 1239.0734,-71.4883"/>
<polygon fill="#191970" stroke="#191970" points="1239.35,-67.9874 1228.9176,-69.8351 1238.2253,-74.8964 1239.35,-67.9874"/>
</g>
<!-- Node36&#45;&gt;Node5 -->
<g id="edge93" class="edge">
<title>Node36&#45;&gt;Node5</title>
<path fill="none" stroke="#191970" d="M1530.2204,-112.4066C1507.542,-99.776 1474.7944,-76.7385 1491.3593,-56 1511.9311,-30.2451 1606.273,-17.837 1658.7973,-12.8324"/>
<polygon fill="#191970" stroke="#191970" points="1659.3785,-16.2941 1669.0198,-11.9015 1658.7436,-9.3229 1659.3785,-16.2941"/>
</g>
<!-- Node36&#45;&gt;Node6 -->
<g id="edge95" class="edge">
<title>Node36&#45;&gt;Node6</title>
<path fill="none" stroke="#191970" d="M1608.008,-112.4927C1656.1683,-104.3736 1726.3407,-91.8327 1795.9212,-76.2065"/>
<polygon fill="#191970" stroke="#191970" points="1796.7549,-79.6064 1805.7331,-73.9812 1795.2066,-72.7797 1796.7549,-79.6064"/>
</g>
<!-- Node36&#45;&gt;Node11 -->
<g id="edge96" class="edge">
<title>Node36&#45;&gt;Node11</title>
<path fill="none" stroke="#191970" d="M1465.8012,-115.4236C1450.3612,-114.2507 1434.3746,-113.0645 1419.3593,-112 1172.7931,-94.5206 1109.2925,-109.2895 864.3593,-76 861.8131,-75.6539 859.1999,-75.2504 856.571,-74.8079"/>
<polygon fill="#191970" stroke="#191970" points="856.9301,-71.3152 846.4616,-72.946 855.6622,-78.1994 856.9301,-71.3152"/>
</g>
<!-- Node36&#45;&gt;Node12 -->
<g id="edge97" class="edge">
<title>Node36&#45;&gt;Node12</title>
<path fill="none" stroke="#191970" d="M1465.699,-114.4761C1389.2352,-106.9577 1273.2029,-93.9354 1173.3593,-76 1170.1132,-75.4169 1166.7423,-74.7388 1163.3853,-74.0156"/>
<polygon fill="#191970" stroke="#191970" points="1164.0227,-70.5712 1153.4948,-71.7607 1162.4666,-77.3961 1164.0227,-70.5712"/>
</g>
<!-- Node36&#45;&gt;Node13 -->
<g id="edge98" class="edge">
<title>Node36&#45;&gt;Node13</title>
<path fill="none" stroke="#191970" d="M1465.8212,-114.679C1329.7883,-102.7575 1064.815,-79.536 957.3394,-70.1172"/>
<polygon fill="#191970" stroke="#191970" points="957.4046,-66.6096 947.1372,-69.2231 956.7934,-73.5829 957.4046,-66.6096"/>
</g>
<!-- Node36&#45;&gt;Node27 -->
<g id="edge102" class="edge">
<title>Node36&#45;&gt;Node27</title>
<path fill="none" stroke="#191970" d="M1632.5885,-112.4686C1740.3891,-100.1234 1923.6896,-79.1319 2001.5849,-70.2114"/>
<polygon fill="#191970" stroke="#191970" points="2002.321,-73.65 2011.8578,-69.0349 2001.5245,-66.6955 2002.321,-73.65"/>
</g>
<!-- Node36&#45;&gt;Node30 -->
<g id="edge94" class="edge">
<title>Node36&#45;&gt;Node30</title>
<path fill="none" stroke="#191970" d="M1584.772,-112.3733C1620.359,-102.6991 1675.2182,-87.7859 1713.069,-77.4964"/>
<polygon fill="#191970" stroke="#191970" points="1714.0512,-80.8565 1722.7828,-74.8557 1712.2149,-74.1016 1714.0512,-80.8565"/>
</g>
<!-- Node37 -->
<g id="node38" class="node">
<title>Node37</title>
<g id="a_node38"><a xlink:href="../../dd/d9a/RDHFields_8h.html" target="_top" xlink:title="MCHRawCommon/RDHFields.h">
<polygon fill="none" stroke="#000000" points="1500.3593,-56.5 1500.3593,-75.5 1666.3593,-75.5 1666.3593,-56.5 1500.3593,-56.5"/>
<text text-anchor="middle" x="1583.3593" y="-63.5" font-family="Helvetica,sans-Serif" font-size="10.00" fill="#000000">MCHRawCommon/RDHFields.h</text>
</a>
</g>
</g>
<!-- Node36&#45;&gt;Node37 -->
<g id="edge100" class="edge">
<title>Node36&#45;&gt;Node37</title>
<path fill="none" stroke="#191970" d="M1555.2817,-112.2455C1559.962,-104.5367 1566.6266,-93.5598 1572.2882,-84.2348"/>
<polygon fill="#191970" stroke="#191970" points="1575.3068,-86.007 1577.5048,-75.6427 1569.3232,-82.3741 1575.3068,-86.007"/>
</g>
<!-- Node37&#45;&gt;Node5 -->
<g id="edge101" class="edge">
<title>Node37&#45;&gt;Node5</title>
<path fill="none" stroke="#191970" d="M1602.4409,-56.3733C1620.0995,-47.4644 1646.5646,-34.1127 1666.5691,-24.0203"/>
<polygon fill="#191970" stroke="#191970" points="1668.1751,-27.1303 1675.5267,-19.5011 1665.0221,-20.8806 1668.1751,-27.1303"/>
</g>
<!-- Node38&#45;&gt;Node5 -->
<g id="edge104" class="edge">
<title>Node38&#45;&gt;Node5</title>
<path fill="none" stroke="#191970" d="M2117.8037,-57.6162C2008.7383,-45.3519 1809.9397,-22.997 1729.5205,-13.9539"/>
<polygon fill="#191970" stroke="#191970" points="1729.7517,-10.4579 1719.4232,-12.8184 1728.9695,-17.4141 1729.7517,-10.4579"/>
</g>
</g>
</svg>
