<?xml version="1.0" encoding="UTF-8" standalone="no"?>
<!DOCTYPE svg PUBLIC "-//W3C//DTD SVG 1.1//EN"
 "http://www.w3.org/Graphics/SVG/1.1/DTD/svg11.dtd">
<!-- Generated by graphviz version 2.40.1 (20161225.0304)
 -->
<!-- Title: o2::header::BaseHeader Pages: 1 -->
<!--zoomable 876 -->
<svg id="main" version="1.1" xmlns="http://www.w3.org/2000/svg" xmlns:xlink="http://www.w3.org/1999/xlink" xml:space="preserve" onload="init(evt)">
<style type="text/css"><![CDATA[
.edge:hover path { stroke: red; }
.edge:hover polygon { stroke: red; fill: red; }
]]></style>
<script type="text/javascript"><![CDATA[
var edges = document.getElementsByTagName('g');
if (edges && edges.length) {
  for (var i=0;i<edges.length;i++) {
    if (edges[i].id.substr(0,4)=='edge') {
      edges[i].setAttribute('class','edge');
    }
  }
}
]]></script>
        <defs>
                <circle id="rim" cx="0" cy="0" r="7"/>
                <circle id="rim2" cx="0" cy="0" r="3.5"/>
                <g id="zoomPlus">
                        <use xlink:href="#rim" fill="#404040">
                                <set attributeName="fill" to="#808080" begin="zoomplus.mouseover" end="zoomplus.mouseout"/>
                        </use>
                        <path d="M-4,0h8M0,-4v8" fill="none" stroke="white" stroke-width="1.5" pointer-events="none"/>
                </g>
                <g id="zoomMin">
                        <use xlink:href="#rim" fill="#404040">
                                <set attributeName="fill" to="#808080" begin="zoomminus.mouseover" end="zoomminus.mouseout"/>
                        </use>
                        <path d="M-4,0h8" fill="none" stroke="white" stroke-width="1.5" pointer-events="none"/>
                </g>
                <g id="dirArrow">
                        <path fill="none" stroke="white" stroke-width="1.5" d="M0,-3.0v7 M-2.5,-0.5L0,-3.0L2.5,-0.5"/>
                </g>
               <g id="resetDef">
                       <use xlink:href="#rim2" fill="#404040">
                               <set attributeName="fill" to="#808080" begin="reset.mouseover" end="reset.mouseout"/>
                       </use>
               </g>
        </defs>

<script type="text/javascript">
var viewWidth = 903;
var viewHeight = 876;
var sectionId = 'dynsection-1';
</script>
<script xlink:href="../../svgpan.js"/>
<svg id="graph" class="graph">
<g id="viewport">
<title>o2::header::BaseHeader</title>
<!-- Node14 -->
<g id="node1" class="node">
<title>Node14</title>
<polygon fill="#bfbfbf" stroke="#000000" points="469.3378,-.5 469.3378,-145.5 603.3378,-145.5 603.3378,-.5 469.3378,-.5"/>
<text text-anchor="middle" x="536.3378" y="-133.5" font-family="Helvetica,sans-Serif" font-size="10.00" fill="#000000">o2::header::BaseHeader</text>
<polyline fill="none" stroke="#000000" points="469.3378,-126.5 603.3378,-126.5 "/>
<text text-anchor="middle" x="536.3378" y="-114.5" font-family="Helvetica,sans-Serif" font-size="10.00" fill="#000000"> </text>
<polyline fill="none" stroke="#000000" points="469.3378,-107.5 603.3378,-107.5 "/>
<text text-anchor="start" x="477.3378" y="-95.5" font-family="Helvetica,sans-Serif" font-size="10.00" fill="#000000">+ BaseHeader()</text>
<text text-anchor="start" x="477.3378" y="-84.5" font-family="Helvetica,sans-Serif" font-size="10.00" fill="#000000">+ BaseHeader()</text>
<text text-anchor="start" x="477.3378" y="-73.5" font-family="Helvetica,sans-Serif" font-size="10.00" fill="#000000">+ BaseHeader()</text>
<text text-anchor="start" x="477.3378" y="-62.5" font-family="Helvetica,sans-Serif" font-size="10.00" fill="#000000">+ size()</text>
<text text-anchor="start" x="477.3378" y="-51.5" font-family="Helvetica,sans-Serif" font-size="10.00" fill="#000000">+ data()</text>
<text text-anchor="start" x="477.3378" y="-40.5" font-family="Helvetica,sans-Serif" font-size="10.00" fill="#000000">+ next()</text>
<text text-anchor="start" x="477.3378" y="-29.5" font-family="Helvetica,sans-Serif" font-size="10.00" fill="#000000">+ next()</text>
<text text-anchor="start" x="477.3378" y="-18.5" font-family="Helvetica,sans-Serif" font-size="10.00" fill="#000000">+ get()</text>
<text text-anchor="start" x="477.3378" y="-7.5" font-family="Helvetica,sans-Serif" font-size="10.00" fill="#000000">+ get()</text>
</g>
<!-- Node15 -->
<g id="node2" class="node">
<title>Node15</title>
<g id="a_node2"><a xlink:href="../../d9/db3/structo2_1_1header_1_1Descriptor.html" target="_top" xlink:title="{o2::header::Descriptor\l\&lt; gSizeHeaderDescriptionString \&gt;\n||+ Descriptor()\l+ Descriptor()\l+ Descriptor()\l+ Descriptor()\l+ operator=()\l+ operator ItgType()\l+ runtimeInit()\l+ operator==()\l+ operator==()\l+ operator\&lt;()\l+ operator!=()\l+ operator!=()\l+ as()\l+ print()\l}">
<polygon fill="none" stroke="#000000" points="279.8378,-259.5 279.8378,-470.5 464.8378,-470.5 464.8378,-259.5 279.8378,-259.5"/>
<text text-anchor="start" x="287.8378" y="-458.5" font-family="Helvetica,sans-Serif" font-size="10.00" fill="#000000">o2::header::Descriptor</text>
<text text-anchor="middle" x="372.3378" y="-447.5" font-family="Helvetica,sans-Serif" font-size="10.00" fill="#000000">&lt; gSizeHeaderDescriptionString &gt;</text>
<polyline fill="none" stroke="#000000" points="279.8378,-440.5 464.8378,-440.5 "/>
<text text-anchor="middle" x="372.3378" y="-428.5" font-family="Helvetica,sans-Serif" font-size="10.00" fill="#000000"> </text>
<polyline fill="none" stroke="#000000" points="279.8378,-421.5 464.8378,-421.5 "/>
<text text-anchor="start" x="287.8378" y="-409.5" font-family="Helvetica,sans-Serif" font-size="10.00" fill="#000000">+ Descriptor()</text>
<text text-anchor="start" x="287.8378" y="-398.5" font-family="Helvetica,sans-Serif" font-size="10.00" fill="#000000">+ Descriptor()</text>
<text text-anchor="start" x="287.8378" y="-387.5" font-family="Helvetica,sans-Serif" font-size="10.00" fill="#000000">+ Descriptor()</text>
<text text-anchor="start" x="287.8378" y="-376.5" font-family="Helvetica,sans-Serif" font-size="10.00" fill="#000000">+ Descriptor()</text>
<text text-anchor="start" x="287.8378" y="-365.5" font-family="Helvetica,sans-Serif" font-size="10.00" fill="#000000">+ operator=()</text>
<text text-anchor="start" x="287.8378" y="-354.5" font-family="Helvetica,sans-Serif" font-size="10.00" fill="#000000">+ operator ItgType()</text>
<text text-anchor="start" x="287.8378" y="-343.5" font-family="Helvetica,sans-Serif" font-size="10.00" fill="#000000">+ runtimeInit()</text>
<text text-anchor="start" x="287.8378" y="-332.5" font-family="Helvetica,sans-Serif" font-size="10.00" fill="#000000">+ operator==()</text>
<text text-anchor="start" x="287.8378" y="-321.5" font-family="Helvetica,sans-Serif" font-size="10.00" fill="#000000">+ operator==()</text>
<text text-anchor="start" x="287.8378" y="-310.5" font-family="Helvetica,sans-Serif" font-size="10.00" fill="#000000">+ operator&lt;()</text>
<text text-anchor="start" x="287.8378" y="-299.5" font-family="Helvetica,sans-Serif" font-size="10.00" fill="#000000">+ operator!=()</text>
<text text-anchor="start" x="287.8378" y="-288.5" font-family="Helvetica,sans-Serif" font-size="10.00" fill="#000000">+ operator!=()</text>
<text text-anchor="start" x="287.8378" y="-277.5" font-family="Helvetica,sans-Serif" font-size="10.00" fill="#000000">+ as()</text>
<text text-anchor="start" x="287.8378" y="-266.5" font-family="Helvetica,sans-Serif" font-size="10.00" fill="#000000">+ print()</text>
</a>
</g>
</g>
<!-- Node15&#45;&gt;Node14 -->
<g id="edge1" class="edge">
<title>Node15&#45;&gt;Node14</title>
<path fill="none" stroke="#404040" d="M416.4413,-259.4617C430.9724,-228.004 448.117,-193.9489 466.3378,-164 468.0278,-161.2223 469.7866,-158.4291 471.5986,-155.6336"/>
<polygon fill="none" stroke="#404040" points="471.6894,-155.4979 471.7029,-148.2867 478.3644,-145.5256 478.351,-152.7367 471.6894,-155.4979"/>
<text text-anchor="middle" x="499.3378" y="-200" font-family="Helvetica,sans-Serif" font-size="10.00" fill="#000000"> +description</text>
</g>
<!-- Node16 -->
<g id="node3" class="node">
<title>Node16</title>
<polygon fill="none" stroke="#bfbfbf" points="556.8378,-810.5 556.8378,-867.5 595.8378,-867.5 595.8378,-810.5 556.8378,-810.5"/>
<text text-anchor="middle" x="576.3378" y="-855.5" font-family="Helvetica,sans-Serif" font-size="10.00" fill="#000000">Type</text>
<polyline fill="none" stroke="#bfbfbf" points="556.8378,-848.5 595.8378,-848.5 "/>
<text text-anchor="middle" x="576.3378" y="-836.5" font-family="Helvetica,sans-Serif" font-size="10.00" fill="#000000"> </text>
<polyline fill="none" stroke="#bfbfbf" points="556.8378,-829.5 595.8378,-829.5 "/>
<text text-anchor="middle" x="576.3378" y="-817.5" font-family="Helvetica,sans-Serif" font-size="10.00" fill="#000000"> </text>
</g>
<!-- Node16&#45;&gt;Node15 -->
<g id="edge2" class="edge">
<title>Node16&#45;&gt;Node15</title>
<path fill="none" stroke="#404040" d="M595.9856,-830.0661C624.5093,-815.8666 676.2751,-785.1635 697.3378,-741 737.8981,-655.9548 753.3968,-604.7313 697.3378,-529 661.1188,-480.0709 625.399,-503.7529 566.3378,-489 529.2316,-479.7312 513.554,-489.1102 475.7384,-471.0339"/>
<polygon fill="none" stroke="#404040" points="475.6968,-471.0124 468.5296,-471.8074 465.0392,-465.4973 472.2063,-464.7023 475.6968,-471.0124"/>
<text text-anchor="middle" x="745.8378" y="-632.5" font-family="Helvetica,sans-Serif" font-size="10.00" fill="#000000"> +itg</text>
</g>
<!-- Node20 -->
<g id="node7" class="node">
<title>Node20</title>
<g id="a_node7"><a xlink:href="../../d9/db3/structo2_1_1header_1_1Descriptor.html" target="_top" xlink:title="{o2::header::Descriptor\l\&lt; N, PrinterPolicy \&gt;\n||+ Descriptor()\l+ Descriptor()\l+ Descriptor()\l+ operator=()\l+ operator ItgType()\l+ Descriptor()\l+ runtimeInit()\l+ operator==()\l+ operator\&lt;()\l+ operator!=()\l+ operator==()\l+ operator!=()\l+ as()\l+ print()\l}">
<polygon fill="none" stroke="#000000" points="316.8378,-529.5 316.8378,-740.5 441.8378,-740.5 441.8378,-529.5 316.8378,-529.5"/>
<text text-anchor="start" x="324.8378" y="-728.5" font-family="Helvetica,sans-Serif" font-size="10.00" fill="#000000">o2::header::Descriptor</text>
<text text-anchor="middle" x="379.3378" y="-717.5" font-family="Helvetica,sans-Serif" font-size="10.00" fill="#000000">&lt; N, PrinterPolicy &gt;</text>
<polyline fill="none" stroke="#000000" points="316.8378,-710.5 441.8378,-710.5 "/>
<text text-anchor="middle" x="379.3378" y="-698.5" font-family="Helvetica,sans-Serif" font-size="10.00" fill="#000000"> </text>
<polyline fill="none" stroke="#000000" points="316.8378,-691.5 441.8378,-691.5 "/>
<text text-anchor="start" x="324.8378" y="-679.5" font-family="Helvetica,sans-Serif" font-size="10.00" fill="#000000">+ Descriptor()</text>
<text text-anchor="start" x="324.8378" y="-668.5" font-family="Helvetica,sans-Serif" font-size="10.00" fill="#000000">+ Descriptor()</text>
<text text-anchor="start" x="324.8378" y="-657.5" font-family="Helvetica,sans-Serif" font-size="10.00" fill="#000000">+ Descriptor()</text>
<text text-anchor="start" x="324.8378" y="-646.5" font-family="Helvetica,sans-Serif" font-size="10.00" fill="#000000">+ operator=()</text>
<text text-anchor="start" x="324.8378" y="-635.5" font-family="Helvetica,sans-Serif" font-size="10.00" fill="#000000">+ operator ItgType()</text>
<text text-anchor="start" x="324.8378" y="-624.5" font-family="Helvetica,sans-Serif" font-size="10.00" fill="#000000">+ Descriptor()</text>
<text text-anchor="start" x="324.8378" y="-613.5" font-family="Helvetica,sans-Serif" font-size="10.00" fill="#000000">+ runtimeInit()</text>
<text text-anchor="start" x="324.8378" y="-602.5" font-family="Helvetica,sans-Serif" font-size="10.00" fill="#000000">+ operator==()</text>
<text text-anchor="start" x="324.8378" y="-591.5" font-family="Helvetica,sans-Serif" font-size="10.00" fill="#000000">+ operator&lt;()</text>
<text text-anchor="start" x="324.8378" y="-580.5" font-family="Helvetica,sans-Serif" font-size="10.00" fill="#000000">+ operator!=()</text>
<text text-anchor="start" x="324.8378" y="-569.5" font-family="Helvetica,sans-Serif" font-size="10.00" fill="#000000">+ operator==()</text>
<text text-anchor="start" x="324.8378" y="-558.5" font-family="Helvetica,sans-Serif" font-size="10.00" fill="#000000">+ operator!=()</text>
<text text-anchor="start" x="324.8378" y="-547.5" font-family="Helvetica,sans-Serif" font-size="10.00" fill="#000000">+ as()</text>
<text text-anchor="start" x="324.8378" y="-536.5" font-family="Helvetica,sans-Serif" font-size="10.00" fill="#000000">+ print()</text>
</a>
</g>
</g>
<!-- Node16&#45;&gt;Node20 -->
<g id="edge7" class="edge">
<title>Node16&#45;&gt;Node20</title>
<path fill="none" stroke="#404040" d="M556.7536,-825.4411C531.8636,-807.686 488.298,-774.8218 456.3378,-741 454.2191,-738.7578 452.1087,-736.4557 450.0117,-734.1063"/>
<polygon fill="none" stroke="#404040" points="449.8473,-733.916 442.8977,-731.9918 442.0009,-724.8366 448.9506,-726.7608 449.8473,-733.916"/>
<text text-anchor="middle" x="521.8378" y="-773" font-family="Helvetica,sans-Serif" font-size="10.00" fill="#000000"> +itg</text>
</g>
<!-- Node22 -->
<g id="node9" class="node">
<title>Node22</title>
<g id="a_node9"><a xlink:href="../../d9/db3/structo2_1_1header_1_1Descriptor.html" target="_top" xlink:title="{o2::header::Descriptor\l\&lt; gSizeSerializationMethodString \&gt;\n||+ Descriptor()\l+ Descriptor()\l+ Descriptor()\l+ Descriptor()\l+ operator=()\l+ operator ItgType()\l+ runtimeInit()\l+ operator==()\l+ operator==()\l+ operator\&lt;()\l+ operator!=()\l+ operator!=()\l+ as()\l+ print()\l}">
<polygon fill="none" stroke="#000000" points="70.8378,-259.5 70.8378,-470.5 261.8378,-470.5 261.8378,-259.5 70.8378,-259.5"/>
<text text-anchor="start" x="78.8378" y="-458.5" font-family="Helvetica,sans-Serif" font-size="10.00" fill="#000000">o2::header::Descriptor</text>
<text text-anchor="middle" x="166.3378" y="-447.5" font-family="Helvetica,sans-Serif" font-size="10.00" fill="#000000">&lt; gSizeSerializationMethodString &gt;</text>
<polyline fill="none" stroke="#000000" points="70.8378,-440.5 261.8378,-440.5 "/>
<text text-anchor="middle" x="166.3378" y="-428.5" font-family="Helvetica,sans-Serif" font-size="10.00" fill="#000000"> </text>
<polyline fill="none" stroke="#000000" points="70.8378,-421.5 261.8378,-421.5 "/>
<text text-anchor="start" x="78.8378" y="-409.5" font-family="Helvetica,sans-Serif" font-size="10.00" fill="#000000">+ Descriptor()</text>
<text text-anchor="start" x="78.8378" y="-398.5" font-family="Helvetica,sans-Serif" font-size="10.00" fill="#000000">+ Descriptor()</text>
<text text-anchor="start" x="78.8378" y="-387.5" font-family="Helvetica,sans-Serif" font-size="10.00" fill="#000000">+ Descriptor()</text>
<text text-anchor="start" x="78.8378" y="-376.5" font-family="Helvetica,sans-Serif" font-size="10.00" fill="#000000">+ Descriptor()</text>
<text text-anchor="start" x="78.8378" y="-365.5" font-family="Helvetica,sans-Serif" font-size="10.00" fill="#000000">+ operator=()</text>
<text text-anchor="start" x="78.8378" y="-354.5" font-family="Helvetica,sans-Serif" font-size="10.00" fill="#000000">+ operator ItgType()</text>
<text text-anchor="start" x="78.8378" y="-343.5" font-family="Helvetica,sans-Serif" font-size="10.00" fill="#000000">+ runtimeInit()</text>
<text text-anchor="start" x="78.8378" y="-332.5" font-family="Helvetica,sans-Serif" font-size="10.00" fill="#000000">+ operator==()</text>
<text text-anchor="start" x="78.8378" y="-321.5" font-family="Helvetica,sans-Serif" font-size="10.00" fill="#000000">+ operator==()</text>
<text text-anchor="start" x="78.8378" y="-310.5" font-family="Helvetica,sans-Serif" font-size="10.00" fill="#000000">+ operator&lt;()</text>
<text text-anchor="start" x="78.8378" y="-299.5" font-family="Helvetica,sans-Serif" font-size="10.00" fill="#000000">+ operator!=()</text>
<text text-anchor="start" x="78.8378" y="-288.5" font-family="Helvetica,sans-Serif" font-size="10.00" fill="#000000">+ operator!=()</text>
<text text-anchor="start" x="78.8378" y="-277.5" font-family="Helvetica,sans-Serif" font-size="10.00" fill="#000000">+ as()</text>
<text text-anchor="start" x="78.8378" y="-266.5" font-family="Helvetica,sans-Serif" font-size="10.00" fill="#000000">+ print()</text>
</a>
</g>
</g>
<!-- Node16&#45;&gt;Node22 -->
<g id="edge14" class="edge">
<title>Node16&#45;&gt;Node22</title>
<path fill="none" stroke="#404040" d="M575.0501,-810.272C571.5277,-737.4482 560.7483,-549.896 542.3378,-529 519.6764,-503.279 500.4774,-519.7682 467.3378,-511 433.3431,-502.0055 425.6902,-496.5136 391.3378,-489 342.1519,-478.242 322.1324,-493.1501 273.0366,-471.1621"/>
<polygon fill="none" stroke="#404040" points="272.9069,-471.0996 265.765,-472.0966 262.0978,-465.8876 269.2397,-464.8906 272.9069,-471.0996"/>
<text text-anchor="middle" x="582.8378" y="-632.5" font-family="Helvetica,sans-Serif" font-size="10.00" fill="#000000"> +itg</text>
</g>
<!-- Node17 -->
<g id="node4" class="node">
<title>Node17</title>
<polygon fill="none" stroke="#bfbfbf" points="83.3378,-810.5 83.3378,-867.5 121.3378,-867.5 121.3378,-810.5 83.3378,-810.5"/>
<text text-anchor="middle" x="102.3378" y="-855.5" font-family="Helvetica,sans-Serif" font-size="10.00" fill="#000000">char</text>
<polyline fill="none" stroke="#bfbfbf" points="83.3378,-848.5 121.3378,-848.5 "/>
<text text-anchor="middle" x="102.3378" y="-836.5" font-family="Helvetica,sans-Serif" font-size="10.00" fill="#000000"> </text>
<polyline fill="none" stroke="#bfbfbf" points="83.3378,-829.5 121.3378,-829.5 "/>
<text text-anchor="middle" x="102.3378" y="-817.5" font-family="Helvetica,sans-Serif" font-size="10.00" fill="#000000"> </text>
</g>
<!-- Node17&#45;&gt;Node14 -->
<g id="edge11" class="edge">
<title>Node17&#45;&gt;Node14</title>
<path fill="none" stroke="#404040" d="M88.3958,-810.4276C45.9745,-718.9338 -70.8187,-429.2444 61.3378,-259 157.815,-134.7178 349.1395,-93.3554 457.2099,-79.6786"/>
<polygon fill="none" stroke="#404040" points="457.41,-79.6546 462.8878,-74.9648 469.3237,-78.2175 463.8458,-82.9073 457.41,-79.6546"/>
<text text-anchor="middle" x="37.3378" y="-497.5" font-family="Helvetica,sans-Serif" font-size="10.00" fill="#000000"> +magicString</text>
</g>
<!-- Node17&#45;&gt;Node15 -->
<g id="edge3" class="edge">
<title>Node17&#45;&gt;Node15</title>
<path fill="none" stroke="#404040" d="M121.6494,-821.6041C140.3727,-803.4802 167.8635,-773.2653 181.3378,-741 199.6084,-697.2497 172.9259,-563.603 205.3378,-529 236.2094,-496.0416 269.6442,-538.6636 305.3378,-511 315.9936,-502.7415 325.0141,-492.3961 332.6369,-481.0464"/>
<polygon fill="none" stroke="#404040" points="332.6458,-481.032 332.417,-473.8245 338.982,-470.8411 339.2109,-478.0486 332.6458,-481.032"/>
<text text-anchor="middle" x="217.8378" y="-632.5" font-family="Helvetica,sans-Serif" font-size="10.00" fill="#000000"> +str</text>
</g>
<!-- Node17&#45;&gt;Node20 -->
<g id="edge8" class="edge">
<title>Node17&#45;&gt;Node20</title>
<path fill="none" stroke="#404040" d="M121.5805,-829.2148C151.6891,-813.9547 211.8267,-783.6787 263.3378,-759 280.5544,-750.7516 287.5839,-753.1147 302.3378,-741 304.1836,-739.4844 306.0075,-737.9148 307.8082,-736.2982"/>
<polygon fill="none" stroke="#404040" points="307.9512,-736.1611 309.5134,-729.1212 316.6126,-727.8556 315.0504,-734.8955 307.9512,-736.1611"/>
<text text-anchor="middle" x="275.8378" y="-773" font-family="Helvetica,sans-Serif" font-size="10.00" fill="#000000"> +str</text>
</g>
<!-- Node17&#45;&gt;Node22 -->
<g id="edge15" class="edge">
<title>Node17&#45;&gt;Node22</title>
<path fill="none" stroke="#404040" d="M95.6563,-810.3304C83.9146,-755.0761 62.9378,-630.3433 86.3378,-529 89.951,-513.3519 95.2703,-497.47 101.4784,-482.0606"/>
<polygon fill="none" stroke="#404040" points="101.5037,-482.0001 100.1352,-474.9201 106.1443,-470.9337 107.5128,-478.0138 101.5037,-482.0001"/>
<text text-anchor="middle" x="98.8378" y="-632.5" font-family="Helvetica,sans-Serif" font-size="10.00" fill="#000000"> +str</text>
</g>
<!-- Node18 -->
<g id="node5" class="node">
<title>Node18</title>
<polygon fill="none" stroke="#bfbfbf" points="463.8378,-810.5 463.8378,-867.5 492.8378,-867.5 492.8378,-810.5 463.8378,-810.5"/>
<text text-anchor="middle" x="478.3378" y="-855.5" font-family="Helvetica,sans-Serif" font-size="10.00" fill="#000000">int</text>
<polyline fill="none" stroke="#bfbfbf" points="463.8378,-848.5 492.8378,-848.5 "/>
<text text-anchor="middle" x="478.3378" y="-836.5" font-family="Helvetica,sans-Serif" font-size="10.00" fill="#000000"> </text>
<polyline fill="none" stroke="#bfbfbf" points="463.8378,-829.5 492.8378,-829.5 "/>
<text text-anchor="middle" x="478.3378" y="-817.5" font-family="Helvetica,sans-Serif" font-size="10.00" fill="#000000"> </text>
</g>
<!-- Node18&#45;&gt;Node15 -->
<g id="edge4" class="edge">
<title>Node18&#45;&gt;Node15</title>
<path fill="none" stroke="#404040" d="M492.8633,-832.7411C520.1702,-820.0662 578.4654,-788.4728 601.3378,-741 642.2348,-656.1162 651.0716,-609.0274 601.3378,-529 580.1451,-494.8984 557.0664,-505.2192 520.3378,-489 503.0006,-481.344 494.9216,-482.5785 475.1918,-470.9007"/>
<polygon fill="none" stroke="#404040" points="474.9686,-470.7581 467.7588,-470.8963 464.8582,-464.2943 472.068,-464.1561 474.9686,-470.7581"/>
<text text-anchor="middle" x="664.3378" y="-643.5" font-family="Helvetica,sans-Serif" font-size="10.00" fill="#000000"> +arraySize</text>
<text text-anchor="middle" x="664.3378" y="-632.5" font-family="Helvetica,sans-Serif" font-size="10.00" fill="#000000">+size</text>
<text text-anchor="middle" x="664.3378" y="-621.5" font-family="Helvetica,sans-Serif" font-size="10.00" fill="#000000">+bitcount</text>
</g>
<!-- Node18&#45;&gt;Node20 -->
<g id="edge9" class="edge">
<title>Node18&#45;&gt;Node20</title>
<path fill="none" stroke="#404040" d="M463.5458,-833.5865C446.8143,-826.6498 420.1104,-812.9579 406.3378,-792 398.5061,-780.0823 392.7338,-766.5963 388.5092,-752.6571"/>
<polygon fill="none" stroke="#404040" points="388.4527,-752.4481 383.0223,-747.7035 385.3133,-740.866 390.7437,-745.6106 388.4527,-752.4481"/>
<text text-anchor="middle" x="435.3378" y="-784" font-family="Helvetica,sans-Serif" font-size="10.00" fill="#000000"> +arraySize</text>
<text text-anchor="middle" x="435.3378" y="-773" font-family="Helvetica,sans-Serif" font-size="10.00" fill="#000000">+size</text>
<text text-anchor="middle" x="435.3378" y="-762" font-family="Helvetica,sans-Serif" font-size="10.00" fill="#000000">+bitcount</text>
</g>
<!-- Node18&#45;&gt;Node22 -->
<g id="edge16" class="edge">
<title>Node18&#45;&gt;Node22</title>
<path fill="none" stroke="#404040" d="M479.7025,-810.428C482.371,-742.171 485.3428,-572.1021 451.3378,-529 427.189,-498.3908 323.9323,-493.2774 272.9865,-470.6942"/>
<polygon fill="none" stroke="#404040" points="272.7612,-470.5781 265.5952,-471.3836 262.0955,-465.0786 269.2615,-464.2732 272.7612,-470.5781"/>
<text text-anchor="middle" x="509.3378" y="-643.5" font-family="Helvetica,sans-Serif" font-size="10.00" fill="#000000"> +arraySize</text>
<text text-anchor="middle" x="509.3378" y="-632.5" font-family="Helvetica,sans-Serif" font-size="10.00" fill="#000000">+size</text>
<text text-anchor="middle" x="509.3378" y="-621.5" font-family="Helvetica,sans-Serif" font-size="10.00" fill="#000000">+bitcount</text>
</g>
<!-- Node19 -->
<g id="node6" class="node">
<title>Node19</title>
<polygon fill="none" stroke="#bfbfbf" points="210.8378,-810.5 210.8378,-867.5 317.8378,-867.5 317.8378,-810.5 210.8378,-810.5"/>
<text text-anchor="middle" x="264.3378" y="-855.5" font-family="Helvetica,sans-Serif" font-size="10.00" fill="#000000">anonymous:+@38</text>
<polyline fill="none" stroke="#bfbfbf" points="210.8378,-848.5 317.8378,-848.5 "/>
<text text-anchor="middle" x="264.3378" y="-836.5" font-family="Helvetica,sans-Serif" font-size="10.00" fill="#000000"> </text>
<polyline fill="none" stroke="#bfbfbf" points="210.8378,-829.5 317.8378,-829.5 "/>
<text text-anchor="middle" x="264.3378" y="-817.5" font-family="Helvetica,sans-Serif" font-size="10.00" fill="#000000"> </text>
</g>
<!-- Node19&#45;&gt;Node15 -->
<g id="edge5" class="edge">
<title>Node19&#45;&gt;Node15</title>
<path fill="none" stroke="#404040" d="M255.2826,-810.1607C238.5444,-750.6968 210.0115,-613.0115 274.3378,-529 291.0048,-507.2326 314.2953,-530.7227 333.3378,-511 341.4529,-502.5951 347.9248,-492.6965 353.0797,-482.0781"/>
<polygon fill="none" stroke="#404040" points="353.2049,-481.79 351.9283,-474.6928 357.9885,-470.7846 359.2652,-477.8819 353.2049,-481.79"/>
<text text-anchor="middle" x="291.3378" y="-632.5" font-family="Helvetica,sans-Serif" font-size="10.00" fill="#000000"> +@38</text>
</g>
<!-- Node19&#45;&gt;Node20 -->
<g id="edge10" class="edge">
<title>Node19&#45;&gt;Node20</title>
<path fill="none" stroke="#404040" d="M280.5706,-810.2045C289.6035,-794.1809 301.5081,-773.0632 313.9144,-751.0555"/>
<polygon fill="none" stroke="#404040" points="313.9442,-751.0026 313.4062,-743.8115 319.8371,-740.5491 320.3751,-747.7401 313.9442,-751.0026"/>
<text text-anchor="middle" x="325.3378" y="-773" font-family="Helvetica,sans-Serif" font-size="10.00" fill="#000000"> +@38</text>
</g>
<!-- Node19&#45;&gt;Node22 -->
<g id="edge17" class="edge">
<title>Node19&#45;&gt;Node22</title>
<path fill="none" stroke="#404040" d="M243.5637,-810.4943C230.1727,-793.7224 211.5304,-773.1045 191.3378,-759 174.0164,-746.901 159.1147,-758.5421 147.3378,-741 119.8683,-700.0833 131.3543,-576.9012 145.4331,-482.5707"/>
<polygon fill="none" stroke="#404040" points="145.4442,-482.4975 142.3931,-475.9636 147.2509,-470.6343 150.3019,-477.1681 145.4442,-482.4975"/>
<text text-anchor="middle" x="164.3378" y="-632.5" font-family="Helvetica,sans-Serif" font-size="10.00" fill="#000000"> +@38</text>
</g>
<!-- Node20&#45;&gt;Node15 -->
<g id="edge6" class="edge">
<title>Node20&#45;&gt;Node15</title>
<path fill="none" stroke="#ffa500" d="M385.0524,-519.1324C385.0262,-508.9404 384.8102,-498.7847 384.3378,-489 384.051,-483.0591 383.6874,-476.9637 383.2667,-470.8155"/>
<polygon fill="#ffa500" stroke="#ffa500" points="381.5519,-519.3123 385.0179,-529.3241 388.5518,-519.3361 381.5519,-519.3123"/>
<text text-anchor="start" x="384.3378" y="-503" font-family="Helvetica,sans-Serif" font-size="10.00" fill="#000000"> &lt; gSizeHeaderDescription</text>
<text text-anchor="middle" x="450.3378" y="-492" font-family="Helvetica,sans-Serif" font-size="10.00" fill="#000000">String &gt;</text>
</g>
<!-- Node20&#45;&gt;Node22 -->
<g id="edge18" class="edge">
<title>Node20&#45;&gt;Node22</title>
<path fill="none" stroke="#ffa500" d="M308.8111,-533.3326C306.6973,-531.8069 304.5394,-530.3592 302.3378,-529 260.5584,-503.2057 228.3889,-545.3843 193.3378,-511 182.021,-499.8985 174.5834,-485.7049 169.8142,-470.5455"/>
<polygon fill="#ffa500" stroke="#ffa500" points="306.7233,-536.1434 316.7448,-539.5813 311.0545,-530.6442 306.7233,-536.1434"/>
<text text-anchor="start" x="193.3378" y="-503" font-family="Helvetica,sans-Serif" font-size="10.00" fill="#000000"> &lt; gSizeSerializationMethod</text>
<text text-anchor="middle" x="262.3378" y="-492" font-family="Helvetica,sans-Serif" font-size="10.00" fill="#000000">String &gt;</text>
</g>
<!-- Node21 -->
<g id="node8" class="node">
<title>Node21</title>
<polygon fill="none" stroke="#bfbfbf" points="482.8378,-336.5 482.8378,-393.5 589.8378,-393.5 589.8378,-336.5 482.8378,-336.5"/>
<text text-anchor="middle" x="536.3378" y="-381.5" font-family="Helvetica,sans-Serif" font-size="10.00" fill="#000000">anonymous:+@40</text>
<polyline fill="none" stroke="#bfbfbf" points="482.8378,-374.5 589.8378,-374.5 "/>
<text text-anchor="middle" x="536.3378" y="-362.5" font-family="Helvetica,sans-Serif" font-size="10.00" fill="#000000"> </text>
<polyline fill="none" stroke="#bfbfbf" points="482.8378,-355.5 589.8378,-355.5 "/>
<text text-anchor="middle" x="536.3378" y="-343.5" font-family="Helvetica,sans-Serif" font-size="10.00" fill="#000000"> </text>
</g>
<!-- Node21&#45;&gt;Node14 -->
<g id="edge12" class="edge">
<title>Node21&#45;&gt;Node14</title>
<path fill="none" stroke="#404040" d="M536.3378,-336.4702C536.3378,-295.4549 536.3378,-218.1305 536.3378,-157.8149"/>
<polygon fill="none" stroke="#404040" points="536.3379,-157.6085 532.3379,-151.6085 536.3378,-145.6085 540.3379,-151.6085 536.3379,-157.6085"/>
<text text-anchor="middle" x="553.3378" y="-200" font-family="Helvetica,sans-Serif" font-size="10.00" fill="#000000"> +@40</text>
</g>
<!-- Node22&#45;&gt;Node14 -->
<g id="edge13" class="edge">
<title>Node22&#45;&gt;Node14</title>
<path fill="none" stroke="#404040" d="M248.9328,-259.4127C278.2672,-226.2017 313.0688,-191.1489 349.3378,-164 382.3312,-139.3031 423.0802,-118.5381 458.109,-103.1088"/>
<polygon fill="none" stroke="#404040" points="458.2484,-103.0486 462.1695,-96.9967 469.2639,-98.2885 465.3428,-104.3404 458.2484,-103.0486"/>
<text text-anchor="middle" x="385.3378" y="-200" font-family="Helvetica,sans-Serif" font-size="10.00" fill="#000000"> +serialization</text>
</g>
<!-- Node23 -->
<g id="node10" class="node">
<title>Node23</title>
<g id="a_node10"><a xlink:href="../../d3/d87/classuint32__t.html" target="_top" xlink:title="{uint32_t\n||}">
<polygon fill="none" stroke="#000000" points="608.3378,-336.5 608.3378,-393.5 664.3378,-393.5 664.3378,-336.5 608.3378,-336.5"/>
<text text-anchor="middle" x="636.3378" y="-381.5" font-family="Helvetica,sans-Serif" font-size="10.00" fill="#000000">uint32_t</text>
<polyline fill="none" stroke="#000000" points="608.3378,-374.5 664.3378,-374.5 "/>
<text text-anchor="middle" x="636.3378" y="-362.5" font-family="Helvetica,sans-Serif" font-size="10.00" fill="#000000"> </text>
<polyline fill="none" stroke="#000000" points="608.3378,-355.5 664.3378,-355.5 "/>
<text text-anchor="middle" x="636.3378" y="-343.5" font-family="Helvetica,sans-Serif" font-size="10.00" fill="#000000"> </text>
</a>
</g>
</g>
<!-- Node23&#45;&gt;Node14 -->
<g id="edge19" class="edge">
<title>Node23&#45;&gt;Node14</title>
<path fill="none" stroke="#404040" d="M626.1951,-336.035C617.4966,-310.967 604.7562,-273.7015 594.3378,-241 583.4959,-206.969 582.8682,-197.8039 571.3378,-164 570.5796,-161.7772 569.8008,-159.5279 569.0058,-157.2617"/>
<polygon fill="none" stroke="#404040" points="568.9592,-157.1314 563.1718,-152.8296 564.9168,-145.8328 570.7042,-150.1346 568.9592,-157.1314"/>
<text text-anchor="middle" x="639.8378" y="-233" font-family="Helvetica,sans-Serif" font-size="10.00" fill="#000000"> +headerVersion</text>
<text text-anchor="middle" x="639.8378" y="-222" font-family="Helvetica,sans-Serif" font-size="10.00" fill="#000000">+headerSize</text>
<text text-anchor="middle" x="639.8378" y="-211" font-family="Helvetica,sans-Serif" font-size="10.00" fill="#000000">+sMagicString</text>
<text text-anchor="middle" x="639.8378" y="-200" font-family="Helvetica,sans-Serif" font-size="10.00" fill="#000000">+flagsNextHeader</text>
<text text-anchor="middle" x="639.8378" y="-189" font-family="Helvetica,sans-Serif" font-size="10.00" fill="#000000">+magicStringInt</text>
<text text-anchor="middle" x="639.8378" y="-178" font-family="Helvetica,sans-Serif" font-size="10.00" fill="#000000">+flagsUnused</text>
<text text-anchor="middle" x="639.8378" y="-167" font-family="Helvetica,sans-Serif" font-size="10.00" fill="#000000">+flags</text>
</g>
<!-- Node24 -->
<g id="node11" class="node">
<title>Node24</title>
<polygon fill="none" stroke="#bfbfbf" points="685.8378,-336.5 685.8378,-393.5 728.8378,-393.5 728.8378,-336.5 685.8378,-336.5"/>
<text text-anchor="middle" x="707.3378" y="-381.5" font-family="Helvetica,sans-Serif" font-size="10.00" fill="#000000">const</text>
<polyline fill="none" stroke="#bfbfbf" points="685.8378,-374.5 728.8378,-374.5 "/>
<text text-anchor="middle" x="707.3378" y="-362.5" font-family="Helvetica,sans-Serif" font-size="10.00" fill="#000000"> </text>
<polyline fill="none" stroke="#bfbfbf" points="685.8378,-355.5 728.8378,-355.5 "/>
<text text-anchor="middle" x="707.3378" y="-343.5" font-family="Helvetica,sans-Serif" font-size="10.00" fill="#000000"> </text>
</g>
<!-- Node24&#45;&gt;Node14 -->
<g id="edge20" class="edge">
<title>Node24&#45;&gt;Node14</title>
<path fill="none" stroke="#404040" d="M707.2551,-336.2722C706.6188,-287.7068 703.0739,-191.9302 685.3378,-164 668.629,-137.6876 641.3021,-117.8308 614.5834,-103.4889"/>
<polygon fill="none" stroke="#404040" points="614.2871,-103.3374 607.1237,-104.1661 603.6036,-97.8725 610.767,-97.0438 614.2871,-103.3374"/>
<text text-anchor="middle" x="757.8378" y="-211" font-family="Helvetica,sans-Serif" font-size="10.00" fill="#000000"> +sHeaderType</text>
<text text-anchor="middle" x="757.8378" y="-200" font-family="Helvetica,sans-Serif" font-size="10.00" fill="#000000">+sSerializationMethod</text>
<text text-anchor="middle" x="757.8378" y="-189" font-family="Helvetica,sans-Serif" font-size="10.00" fill="#000000">+sVersion</text>
</g>
<!-- Node25 -->
<g id="node12" class="node">
<title>Node25</title>
<polygon fill="none" stroke="#bfbfbf" points="787.8378,-336.5 787.8378,-393.5 894.8378,-393.5 894.8378,-336.5 787.8378,-336.5"/>
<text text-anchor="middle" x="841.3378" y="-381.5" font-family="Helvetica,sans-Serif" font-size="10.00" fill="#000000">anonymous:+@42</text>
<polyline fill="none" stroke="#bfbfbf" points="787.8378,-374.5 894.8378,-374.5 "/>
<text text-anchor="middle" x="841.3378" y="-362.5" font-family="Helvetica,sans-Serif" font-size="10.00" fill="#000000"> </text>
<polyline fill="none" stroke="#bfbfbf" points="787.8378,-355.5 894.8378,-355.5 "/>
<text text-anchor="middle" x="841.3378" y="-343.5" font-family="Helvetica,sans-Serif" font-size="10.00" fill="#000000"> </text>
</g>
<!-- Node25&#45;&gt;Node14 -->
<g id="edge21" class="edge">
<title>Node25&#45;&gt;Node14</title>
<path fill="none" stroke="#404040" d="M846.7167,-336.3568C852.9825,-293.7091 857.8525,-213.2665 817.3378,-164 791.4211,-132.4849 689.1366,-104.986 615.4466,-88.6888"/>
<polygon fill="none" stroke="#404040" points="615.1492,-88.6241 608.4358,-91.2567 603.4236,-86.0723 610.137,-83.4397 615.1492,-88.6241"/>
<text text-anchor="middle" x="864.3378" y="-200" font-family="Helvetica,sans-Serif" font-size="10.00" fill="#000000"> +@42</text>
</g>
</g>
</svg>
        <g id="navigator" transform="translate(0 0)" fill="#404254">
                <rect fill="#f2f5e9" fill-opacity="0.5" stroke="#606060" stroke-width=".5" x="0" y="0" width="60" height="60"/>
                <use id="zoomplus" xlink:href="#zoomPlus" x="17" y="9" onmousedown="handleZoom(evt,'in')"/>
                <use id="zoomminus" xlink:href="#zoomMin" x="42" y="9" onmousedown="handleZoom(evt,'out')"/>
                <use id="reset" xlink:href="#resetDef" x="30" y="36" onmousedown="handleReset()"/>
                <g id="arrowUp" xlink:href="#dirArrow" transform="translate(30 24)" onmousedown="handlePan(0,-1)">
                  <use xlink:href="#rim" fill="#404040">
                        <set attributeName="fill" to="#808080" begin="arrowUp.mouseover" end="arrowUp.mouseout"/>
                  </use>
                  <path fill="none" stroke="white" stroke-width="1.5" d="M0,-3.0v7 M-2.5,-0.5L0,-3.0L2.5,-0.5"/>
                </g>
                <g id="arrowRight" xlink:href="#dirArrow" transform="rotate(90) translate(36 -43)" onmousedown="handlePan(1,0)">
                  <use xlink:href="#rim" fill="#404040">
                        <set attributeName="fill" to="#808080" begin="arrowRight.mouseover" end="arrowRight.mouseout"/>
                  </use>
                  <path fill="none" stroke="white" stroke-width="1.5" d="M0,-3.0v7 M-2.5,-0.5L0,-3.0L2.5,-0.5"/>
                </g>
                <g id="arrowDown" xlink:href="#dirArrow" transform="rotate(180) translate(-30 -48)" onmousedown="handlePan(0,1)">
                  <use xlink:href="#rim" fill="#404040">
                        <set attributeName="fill" to="#808080" begin="arrowDown.mouseover" end="arrowDown.mouseout"/>
                  </use>
                  <path fill="none" stroke="white" stroke-width="1.5" d="M0,-3.0v7 M-2.5,-0.5L0,-3.0L2.5,-0.5"/>
                </g>
                <g id="arrowLeft" xlink:href="#dirArrow" transform="rotate(270) translate(-36 17)" onmousedown="handlePan(-1,0)">
                  <use xlink:href="#rim" fill="#404040">
                        <set attributeName="fill" to="#808080" begin="arrowLeft.mouseover" end="arrowLeft.mouseout"/>
                  </use>
                  <path fill="none" stroke="white" stroke-width="1.5" d="M0,-3.0v7 M-2.5,-0.5L0,-3.0L2.5,-0.5"/>
                </g>
        </g>
        <svg viewBox="0 0 15 15" width="100%" height="30px" preserveAspectRatio="xMaxYMin meet">
         <g id="arrow_out" transform="scale(0.3 0.3)">
          <a xlink:href="structo2_1_1header_1_1BaseHeader__coll__graph_org.svg" target="_base">
           <rect id="button" ry="5" rx="5" y="6" x="6" height="38" width="38"
                fill="#f2f5e9" fill-opacity="0.5" stroke="#606060" stroke-width="1.0"/>
           <path id="arrow"
             d="M 11.500037,31.436501 C 11.940474,20.09759 22.043105,11.32322 32.158766,21.979434 L 37.068811,17.246167 C 37.068811,17.246167 37.088388,32 37.088388,32 L 22.160133,31.978069 C 22.160133,31.978069 26.997745,27.140456 26.997745,27.140456 C 18.528582,18.264221 13.291696,25.230495 11.500037,31.436501 z"
             style="fill:#404040;"/>
          </a>
         </g>
        </svg>
</svg>
