<?xml version="1.0" encoding="UTF-8" standalone="no"?>
<!DOCTYPE svg PUBLIC "-//W3C//DTD SVG 1.1//EN"
 "http://www.w3.org/Graphics/SVG/1.1/DTD/svg11.dtd">
<!-- Generated by graphviz version 2.40.1 (20161225.0304)
 -->
<!-- Title: /home/travis/build/AliceO2Group/AliceO2/Detectors/MUON/MID/Raw/src/ColumnDataToLocalBoard.cxx Pages: 1 -->
<svg width="1056pt" height="240pt"
 viewBox="0.00 0.00 1055.50 240.00" xmlns="http://www.w3.org/2000/svg" xmlns:xlink="http://www.w3.org/1999/xlink">
<g id="graph0" class="graph" transform="scale(1 1) rotate(0) translate(4 236)">
<title>/home/travis/build/AliceO2Group/AliceO2/Detectors/MUON/MID/Raw/src/ColumnDataToLocalBoard.cxx</title>
<!-- Node0 -->
<g id="node1" class="node">
<title>Node0</title>
<polygon fill="#bfbfbf" stroke="#000000" points="757,-179.5 757,-231.5 939,-231.5 939,-179.5 757,-179.5"/>
<text text-anchor="start" x="765" y="-219.5" font-family="Helvetica,sans-Serif" font-size="10.00" fill="#000000">/home/travis/build</text>
<text text-anchor="start" x="765" y="-208.5" font-family="Helvetica,sans-Serif" font-size="10.00" fill="#000000">/AliceO2Group/AliceO2</text>
<text text-anchor="start" x="765" y="-197.5" font-family="Helvetica,sans-Serif" font-size="10.00" fill="#000000">/Detectors/MUON/MID/Raw</text>
<text text-anchor="middle" x="848" y="-186.5" font-family="Helvetica,sans-Serif" font-size="10.00" fill="#000000">/src/ColumnDataToLocalBoard.cxx</text>
</g>
<!-- Node1 -->
<g id="node2" class="node">
<title>Node1</title>
<g id="a_node2"><a xlink:href="../../d2/db5/ColumnDataToLocalBoard_8h.html" target="_top" xlink:title="Converter from ColumnData to raw local boards. ">
<polygon fill="none" stroke="#000000" points="297,-112.5 297,-142.5 453,-142.5 453,-112.5 297,-112.5"/>
<text text-anchor="start" x="305" y="-130.5" font-family="Helvetica,sans-Serif" font-size="10.00" fill="#000000">MIDRaw/ColumnDataToLocal</text>
<text text-anchor="middle" x="375" y="-119.5" font-family="Helvetica,sans-Serif" font-size="10.00" fill="#000000">Board.h</text>
</a>
</g>
</g>
<!-- Node0&#45;&gt;Node1 -->
<g id="edge1" class="edge">
<title>Node0&#45;&gt;Node1</title>
<path fill="none" stroke="#191970" d="M756.8008,-190.4608C672.1876,-176.5077 547.0615,-155.8738 463.3674,-142.0722"/>
<polygon fill="#191970" stroke="#191970" points="463.8079,-138.5977 453.3716,-140.4239 462.6689,-145.5044 463.8079,-138.5977"/>
</g>
<!-- Node12 -->
<g id="node13" class="node">
<title>Node12</title>
<g id="a_node13"><a xlink:href="../../dc/de4/DetectorParameters_8h.html" target="_top" xlink:title="Useful detector parameters for MID. ">
<polygon fill="none" stroke="#000000" points="878.5,-118 878.5,-137 1047.5,-137 1047.5,-118 878.5,-118"/>
<text text-anchor="middle" x="963" y="-125" font-family="Helvetica,sans-Serif" font-size="10.00" fill="#000000">MIDBase/DetectorParameters.h</text>
</a>
</g>
</g>
<!-- Node0&#45;&gt;Node12 -->
<g id="edge16" class="edge">
<title>Node0&#45;&gt;Node12</title>
<path fill="none" stroke="#191970" d="M886.6133,-179.3101C904.5044,-167.1753 925.1398,-153.1791 940.4494,-142.7952"/>
<polygon fill="#191970" stroke="#191970" points="942.4757,-145.65 948.787,-137.1401 938.5464,-139.8568 942.4757,-145.65"/>
</g>
<!-- Node14 -->
<g id="node15" class="node">
<title>Node14</title>
<g id="a_node15"><a xlink:href="../../d2/da5/CrateParameters_8h.html" target="_top" xlink:title="MID RO crate parameters. ">
<polygon fill="none" stroke="#000000" points="773,-56.5 773,-75.5 923,-75.5 923,-56.5 773,-56.5"/>
<text text-anchor="middle" x="848" y="-63.5" font-family="Helvetica,sans-Serif" font-size="10.00" fill="#000000">MIDRaw/CrateParameters.h</text>
</a>
</g>
</g>
<!-- Node0&#45;&gt;Node14 -->
<g id="edge19" class="edge">
<title>Node0&#45;&gt;Node14</title>
<path fill="none" stroke="#191970" d="M848,-179.2611C848,-152.1435 848,-110.4164 848,-85.8996"/>
<polygon fill="#191970" stroke="#191970" points="851.5001,-85.6727 848,-75.6727 844.5001,-85.6728 851.5001,-85.6727"/>
</g>
<!-- Node2 -->
<g id="node3" class="node">
<title>Node2</title>
<polygon fill="none" stroke="#bfbfbf" points="472,-.5 472,-19.5 522,-19.5 522,-.5 472,-.5"/>
<text text-anchor="middle" x="497" y="-7.5" font-family="Helvetica,sans-Serif" font-size="10.00" fill="#000000">cstdint</text>
</g>
<!-- Node1&#45;&gt;Node2 -->
<g id="edge2" class="edge">
<title>Node1&#45;&gt;Node2</title>
<path fill="none" stroke="#191970" d="M381.8717,-112.3755C389.4988,-96.8266 403.0047,-72.605 420,-56 433.3744,-42.9327 451.1432,-32.0034 466.2413,-24.0813"/>
<polygon fill="#191970" stroke="#191970" points="467.8817,-27.174 475.2337,-19.5452 464.729,-20.9241 467.8817,-27.174"/>
</g>
<!-- Node3 -->
<g id="node4" class="node">
<title>Node3</title>
<polygon fill="none" stroke="#bfbfbf" points="148.5,-56.5 148.5,-75.5 195.5,-75.5 195.5,-56.5 148.5,-56.5"/>
<text text-anchor="middle" x="172" y="-63.5" font-family="Helvetica,sans-Serif" font-size="10.00" fill="#000000">vector</text>
</g>
<!-- Node1&#45;&gt;Node3 -->
<g id="edge3" class="edge">
<title>Node1&#45;&gt;Node3</title>
<path fill="none" stroke="#191970" d="M325.3406,-112.4554C288.1641,-101.1926 238.3043,-86.0873 205.679,-76.2033"/>
<polygon fill="#191970" stroke="#191970" points="206.3152,-72.7389 195.7299,-73.1891 204.2856,-79.4383 206.3152,-72.7389"/>
</g>
<!-- Node4 -->
<g id="node5" class="node">
<title>Node4</title>
<polygon fill="none" stroke="#bfbfbf" points="213.5,-56.5 213.5,-75.5 306.5,-75.5 306.5,-56.5 213.5,-56.5"/>
<text text-anchor="middle" x="260" y="-63.5" font-family="Helvetica,sans-Serif" font-size="10.00" fill="#000000">unordered_map</text>
</g>
<!-- Node1&#45;&gt;Node4 -->
<g id="edge4" class="edge">
<title>Node1&#45;&gt;Node4</title>
<path fill="none" stroke="#191970" d="M346.8678,-112.4554C328.5214,-102.644 304.7223,-89.9167 286.6749,-80.2653"/>
<polygon fill="#191970" stroke="#191970" points="288.2897,-77.1598 277.8209,-75.5303 284.9886,-83.3326 288.2897,-77.1598"/>
</g>
<!-- Node5 -->
<g id="node6" class="node">
<title>Node5</title>
<polygon fill="none" stroke="#bfbfbf" points="325,-56.5 325,-75.5 373,-75.5 373,-56.5 325,-56.5"/>
<text text-anchor="middle" x="349" y="-63.5" font-family="Helvetica,sans-Serif" font-size="10.00" fill="#000000">gsl/gsl</text>
</g>
<!-- Node1&#45;&gt;Node5 -->
<g id="edge5" class="edge">
<title>Node1&#45;&gt;Node5</title>
<path fill="none" stroke="#191970" d="M368.573,-112.2977C365.1143,-104.1166 360.8133,-93.943 357.1246,-85.2179"/>
<polygon fill="#191970" stroke="#191970" points="360.2807,-83.6947 353.1629,-75.8469 353.8332,-86.4205 360.2807,-83.6947"/>
</g>
<!-- Node6 -->
<g id="node7" class="node">
<title>Node6</title>
<g id="a_node7"><a xlink:href="../../d3/d53/ColumnData_8h.html" target="_top" xlink:title="Strip pattern (aka digits) ">
<polygon fill="none" stroke="#000000" points="583.5,-56.5 583.5,-75.5 754.5,-75.5 754.5,-56.5 583.5,-56.5"/>
<text text-anchor="middle" x="669" y="-63.5" font-family="Helvetica,sans-Serif" font-size="10.00" fill="#000000">DataFormatsMID/ColumnData.h</text>
</a>
</g>
</g>
<!-- Node1&#45;&gt;Node6 -->
<g id="edge6" class="edge">
<title>Node1&#45;&gt;Node6</title>
<path fill="none" stroke="#191970" d="M446.9205,-112.4554C498.2342,-101.7214 566.2326,-87.4973 613.4072,-77.6291"/>
<polygon fill="#191970" stroke="#191970" points="614.369,-81.0038 623.4404,-75.5303 612.9356,-74.1521 614.369,-81.0038"/>
</g>
<!-- Node9 -->
<g id="node10" class="node">
<title>Node9</title>
<g id="a_node10"><a xlink:href="../../db/d83/CrateMapper_8h.html" target="_top" xlink:title="Mapper to convert the RO Ids to a format suitable for O2. ">
<polygon fill="none" stroke="#000000" points="0,-56.5 0,-75.5 130,-75.5 130,-56.5 0,-56.5"/>
<text text-anchor="middle" x="65" y="-63.5" font-family="Helvetica,sans-Serif" font-size="10.00" fill="#000000">MIDRaw/CrateMapper.h</text>
</a>
</g>
</g>
<!-- Node1&#45;&gt;Node9 -->
<g id="edge10" class="edge">
<title>Node1&#45;&gt;Node9</title>
<path fill="none" stroke="#191970" d="M299.1655,-112.4554C244.8323,-101.6764 172.7587,-87.3779 122.9937,-77.5052"/>
<polygon fill="#191970" stroke="#191970" points="123.5289,-74.0432 113.039,-75.5303 122.1667,-80.9094 123.5289,-74.0432"/>
</g>
<!-- Node11 -->
<g id="node12" class="node">
<title>Node11</title>
<g id="a_node12"><a xlink:href="../../d3/d4a/LocalBoardRO_8h.html" target="_top" xlink:title="Structure to store the FEE local board information. ">
<polygon fill="none" stroke="#000000" points="429,-56.5 429,-75.5 565,-75.5 565,-56.5 429,-56.5"/>
<text text-anchor="middle" x="497" y="-63.5" font-family="Helvetica,sans-Serif" font-size="10.00" fill="#000000">MIDRaw/LocalBoardRO.h</text>
</a>
</g>
</g>
<!-- Node1&#45;&gt;Node11 -->
<g id="edge13" class="edge">
<title>Node1&#45;&gt;Node11</title>
<path fill="none" stroke="#191970" d="M404.8446,-112.4554C424.397,-102.599 449.7872,-89.7999 468.9645,-80.1327"/>
<polygon fill="#191970" stroke="#191970" points="470.7402,-83.1571 478.0943,-75.5303 467.5892,-76.9064 470.7402,-83.1571"/>
</g>
<!-- Node6&#45;&gt;Node2 -->
<g id="edge7" class="edge">
<title>Node6&#45;&gt;Node2</title>
<path fill="none" stroke="#191970" d="M639.4321,-56.3733C609.6178,-46.6663 563.6026,-31.6846 531.9888,-21.3917"/>
<polygon fill="#191970" stroke="#191970" points="532.8618,-17.9951 522.2695,-18.2273 530.6946,-24.6512 532.8618,-17.9951"/>
</g>
<!-- Node7 -->
<g id="node8" class="node">
<title>Node7</title>
<polygon fill="none" stroke="#bfbfbf" points="639,-.5 639,-19.5 699,-19.5 699,-.5 639,-.5"/>
<text text-anchor="middle" x="669" y="-7.5" font-family="Helvetica,sans-Serif" font-size="10.00" fill="#000000">iostream</text>
</g>
<!-- Node6&#45;&gt;Node7 -->
<g id="edge8" class="edge">
<title>Node6&#45;&gt;Node7</title>
<path fill="none" stroke="#191970" d="M669,-56.2455C669,-48.9382 669,-38.6944 669,-29.7046"/>
<polygon fill="#191970" stroke="#191970" points="672.5001,-29.6426 669,-19.6427 665.5001,-29.6427 672.5001,-29.6426"/>
</g>
<!-- Node8 -->
<g id="node9" class="node">
<title>Node8</title>
<polygon fill="none" stroke="#bfbfbf" points="772,-.5 772,-19.5 814,-19.5 814,-.5 772,-.5"/>
<text text-anchor="middle" x="793" y="-7.5" font-family="Helvetica,sans-Serif" font-size="10.00" fill="#000000">array</text>
</g>
<!-- Node6&#45;&gt;Node8 -->
<g id="edge9" class="edge">
<title>Node6&#45;&gt;Node8</title>
<path fill="none" stroke="#191970" d="M690.3164,-56.3733C710.2216,-47.3838 740.1436,-33.8706 762.56,-23.7471"/>
<polygon fill="#191970" stroke="#191970" points="764.2887,-26.8068 771.9618,-19.5011 761.4075,-20.4272 764.2887,-26.8068"/>
</g>
<!-- Node9&#45;&gt;Node2 -->
<g id="edge11" class="edge">
<title>Node9&#45;&gt;Node2</title>
<path fill="none" stroke="#191970" d="M130.3669,-57.1431C133.2842,-56.7552 136.1724,-56.3727 139,-56 257.2889,-40.4081 397.6562,-22.5636 461.8268,-14.4421"/>
<polygon fill="#191970" stroke="#191970" points="462.3369,-17.9055 471.8186,-13.1782 461.4584,-10.9609 462.3369,-17.9055"/>
</g>
<!-- Node10 -->
<g id="node11" class="node">
<title>Node10</title>
<polygon fill="none" stroke="#bfbfbf" points="46,-.5 46,-19.5 84,-19.5 84,-.5 46,-.5"/>
<text text-anchor="middle" x="65" y="-7.5" font-family="Helvetica,sans-Serif" font-size="10.00" fill="#000000">map</text>
</g>
<!-- Node9&#45;&gt;Node10 -->
<g id="edge12" class="edge">
<title>Node9&#45;&gt;Node10</title>
<path fill="none" stroke="#191970" d="M65,-56.2455C65,-48.9382 65,-38.6944 65,-29.7046"/>
<polygon fill="#191970" stroke="#191970" points="68.5001,-29.6426 65,-19.6427 61.5001,-29.6427 68.5001,-29.6426"/>
</g>
<!-- Node11&#45;&gt;Node2 -->
<g id="edge14" class="edge">
<title>Node11&#45;&gt;Node2</title>
<path fill="none" stroke="#191970" d="M497,-56.2455C497,-48.9382 497,-38.6944 497,-29.7046"/>
<polygon fill="#191970" stroke="#191970" points="500.5001,-29.6426 497,-19.6427 493.5001,-29.6427 500.5001,-29.6426"/>
</g>
<!-- Node11&#45;&gt;Node8 -->
<g id="edge15" class="edge">
<title>Node11&#45;&gt;Node8</title>
<path fill="none" stroke="#191970" d="M547.5479,-56.4369C608.9013,-44.8295 710.4769,-25.6125 761.581,-15.9441"/>
<polygon fill="#191970" stroke="#191970" points="762.5123,-19.3301 771.6873,-14.0321 761.211,-12.4521 762.5123,-19.3301"/>
</g>
<!-- Node12&#45;&gt;Node8 -->
<g id="edge17" class="edge">
<title>Node12&#45;&gt;Node8</title>
<path fill="none" stroke="#191970" d="M973.1204,-117.8579C987.2042,-103.271 1009.3472,-75.2563 994,-56 973.118,-29.7992 875.3101,-17.3205 824.2362,-12.505"/>
<polygon fill="#191970" stroke="#191970" points="824.3651,-9.0025 814.0914,-11.5915 823.7372,-15.9743 824.3651,-9.0025"/>
</g>
<!-- Node13 -->
<g id="node14" class="node">
<title>Node13</title>
<polygon fill="none" stroke="#bfbfbf" points="941,-56.5 941,-75.5 985,-75.5 985,-56.5 941,-56.5"/>
<text text-anchor="middle" x="963" y="-63.5" font-family="Helvetica,sans-Serif" font-size="10.00" fill="#000000">string</text>
</g>
<!-- Node12&#45;&gt;Node13 -->
<g id="edge18" class="edge">
<title>Node12&#45;&gt;Node13</title>
<path fill="none" stroke="#191970" d="M963,-117.8906C963,-109.3657 963,-96.6392 963,-85.9235"/>
<polygon fill="#191970" stroke="#191970" points="966.5001,-85.7448 963,-75.7449 959.5001,-85.7449 966.5001,-85.7448"/>
</g>
<!-- Node14&#45;&gt;Node2 -->
<g id="edge20" class="edge">
<title>Node14&#45;&gt;Node2</title>
<path fill="none" stroke="#191970" d="M788.0598,-56.4369C714.5452,-44.7081 592.3318,-25.2096 532.3751,-15.6439"/>
<polygon fill="#191970" stroke="#191970" points="532.6994,-12.1514 522.2728,-14.0321 531.5965,-19.064 532.6994,-12.1514"/>
</g>
<!-- Node14&#45;&gt;Node8 -->
<g id="edge21" class="edge">
<title>Node14&#45;&gt;Node8</title>
<path fill="none" stroke="#191970" d="M838.4197,-56.2455C830.4542,-48.1352 818.9359,-36.4075 809.4921,-26.7919"/>
<polygon fill="#191970" stroke="#191970" points="811.9747,-24.3247 802.4705,-19.6427 806.9805,-29.2297 811.9747,-24.3247"/>
</g>
</g>
</svg>
