<?xml version="1.0" encoding="UTF-8" standalone="no"?>
<!DOCTYPE svg PUBLIC "-//W3C//DTD SVG 1.1//EN"
 "http://www.w3.org/Graphics/SVG/1.1/DTD/svg11.dtd">
<!-- Generated by graphviz version 2.40.1 (20161225.0304)
 -->
<!-- Title: /home/travis/build/AliceO2Group/AliceO2/Detectors/MUON/MCH/Raw/Decoder/src/testUserLogicElinkDecoder.cxx Pages: 1 -->
<!--zoomable 307 -->
<svg id="main" version="1.1" xmlns="http://www.w3.org/2000/svg" xmlns:xlink="http://www.w3.org/1999/xlink" xml:space="preserve" onload="init(evt)">
<style type="text/css"><![CDATA[
.edge:hover path { stroke: red; }
.edge:hover polygon { stroke: red; fill: red; }
]]></style>
<script type="text/javascript"><![CDATA[
var edges = document.getElementsByTagName('g');
if (edges && edges.length) {
  for (var i=0;i<edges.length;i++) {
    if (edges[i].id.substr(0,4)=='edge') {
      edges[i].setAttribute('class','edge');
    }
  }
}
]]></script>
        <defs>
                <circle id="rim" cx="0" cy="0" r="7"/>
                <circle id="rim2" cx="0" cy="0" r="3.5"/>
                <g id="zoomPlus">
                        <use xlink:href="#rim" fill="#404040">
                                <set attributeName="fill" to="#808080" begin="zoomplus.mouseover" end="zoomplus.mouseout"/>
                        </use>
                        <path d="M-4,0h8M0,-4v8" fill="none" stroke="white" stroke-width="1.5" pointer-events="none"/>
                </g>
                <g id="zoomMin">
                        <use xlink:href="#rim" fill="#404040">
                                <set attributeName="fill" to="#808080" begin="zoomminus.mouseover" end="zoomminus.mouseout"/>
                        </use>
                        <path d="M-4,0h8" fill="none" stroke="white" stroke-width="1.5" pointer-events="none"/>
                </g>
                <g id="dirArrow">
                        <path fill="none" stroke="white" stroke-width="1.5" d="M0,-3.0v7 M-2.5,-0.5L0,-3.0L2.5,-0.5"/>
                </g>
               <g id="resetDef">
                       <use xlink:href="#rim2" fill="#404040">
                               <set attributeName="fill" to="#808080" begin="reset.mouseover" end="reset.mouseout"/>
                       </use>
               </g>
        </defs>

<script type="text/javascript">
var viewWidth = 1956;
var viewHeight = 307;
var sectionId = 'dynsection-0';
</script>
<script xlink:href="../../svgpan.js"/>
<svg id="graph" class="graph">
<g id="viewport">
<title>/home/travis/build/AliceO2Group/AliceO2/Detectors/MUON/MCH/Raw/Decoder/src/testUserLogicElinkDecoder.cxx</title>
<!-- Node0 -->
<g id="node1" class="node">
<title>Node0</title>
<polygon fill="#bfbfbf" stroke="#000000" points="906.5,-235.5 906.5,-298.5 1077.5,-298.5 1077.5,-235.5 906.5,-235.5"/>
<text text-anchor="start" x="914.5" y="-286.5" font-family="Helvetica,sans-Serif" font-size="10.00" fill="#000000">/home/travis/build</text>
<text text-anchor="start" x="914.5" y="-275.5" font-family="Helvetica,sans-Serif" font-size="10.00" fill="#000000">/AliceO2Group/AliceO2</text>
<text text-anchor="start" x="914.5" y="-264.5" font-family="Helvetica,sans-Serif" font-size="10.00" fill="#000000">/Detectors/MUON/MCH/Raw</text>
<text text-anchor="start" x="914.5" y="-253.5" font-family="Helvetica,sans-Serif" font-size="10.00" fill="#000000">/Decoder/src/testUserLogicElink</text>
<text text-anchor="middle" x="992" y="-242.5" font-family="Helvetica,sans-Serif" font-size="10.00" fill="#000000">Decoder.cxx</text>
</g>
<!-- Node1 -->
<g id="node2" class="node">
<title>Node1</title>
<polygon fill="none" stroke="#bfbfbf" points="0,-179.5 0,-198.5 132,-198.5 132,-179.5 0,-179.5"/>
<text text-anchor="middle" x="66" y="-186.5" font-family="Helvetica,sans-Serif" font-size="10.00" fill="#000000">boost/test/unit_test.hpp</text>
</g>
<!-- Node0&#45;&gt;Node1 -->
<g id="edge1" class="edge">
<title>Node0&#45;&gt;Node1</title>
<path fill="none" stroke="#191970" d="M906.3256,-261.3692C753.436,-251.0409 423.5833,-227.4908 146,-199 144.8861,-198.8857 143.7637,-198.7687 142.6344,-198.6494"/>
<polygon fill="#191970" stroke="#191970" points="142.6503,-195.1303 132.3285,-197.5199 141.8876,-202.0886 142.6503,-195.1303"/>
</g>
<!-- Node2 -->
<g id="node3" class="node">
<title>Node2</title>
<polygon fill="none" stroke="#bfbfbf" points="358,-.5 358,-19.5 418,-19.5 418,-.5 358,-.5"/>
<text text-anchor="middle" x="388" y="-7.5" font-family="Helvetica,sans-Serif" font-size="10.00" fill="#000000">iostream</text>
</g>
<!-- Node0&#45;&gt;Node2 -->
<g id="edge2" class="edge">
<title>Node0&#45;&gt;Node2</title>
<path fill="none" stroke="#191970" d="M906.3051,-260.3554C706.7948,-243.9983 224.6878,-199.011 179,-143 152.9587,-111.0746 178.2758,-81.0301 211,-56 232.2906,-39.7153 302.495,-24.9011 347.8281,-16.7019"/>
<polygon fill="#191970" stroke="#191970" points="348.6994,-20.102 357.9341,-14.9087 347.4764,-13.2097 348.6994,-20.102"/>
</g>
<!-- Node3 -->
<g id="node4" class="node">
<title>Node3</title>
<polygon fill="none" stroke="#bfbfbf" points="1518.5,-179.5 1518.5,-198.5 1573.5,-198.5 1573.5,-179.5 1518.5,-179.5"/>
<text text-anchor="middle" x="1546" y="-186.5" font-family="Helvetica,sans-Serif" font-size="10.00" fill="#000000">fstream</text>
</g>
<!-- Node0&#45;&gt;Node3 -->
<g id="edge3" class="edge">
<title>Node0&#45;&gt;Node3</title>
<path fill="none" stroke="#191970" d="M1077.8543,-259.4553C1178.8878,-249.7395 1351.7228,-230.5038 1507.9221,-199.2201"/>
<polygon fill="#191970" stroke="#191970" points="1509.0791,-202.5569 1518.1857,-197.142 1507.69,-195.6961 1509.0791,-202.5569"/>
</g>
<!-- Node4 -->
<g id="node5" class="node">
<title>Node4</title>
<polygon fill="none" stroke="#bfbfbf" points="1149.5,-118 1149.5,-137 1220.5,-137 1220.5,-118 1149.5,-118"/>
<text text-anchor="middle" x="1185" y="-125" font-family="Helvetica,sans-Serif" font-size="10.00" fill="#000000">fmt/printf.h</text>
</g>
<!-- Node0&#45;&gt;Node4 -->
<g id="edge4" class="edge">
<title>Node0&#45;&gt;Node4</title>
<path fill="none" stroke="#191970" d="M1035.7947,-235.3453C1075.4748,-206.6646 1132.3053,-165.5876 1163.1161,-143.3176"/>
<polygon fill="#191970" stroke="#191970" points="1165.3839,-145.9971 1171.4382,-137.3024 1161.2833,-140.3238 1165.3839,-145.9971"/>
</g>
<!-- Node5 -->
<g id="node6" class="node">
<title>Node5</title>
<g id="a_node6"><a xlink:href="../../db/de7/UserLogicElinkDecoder_8h.html" target="_top" xlink:title="UserLogicElinkDecoder.h">
<polygon fill="none" stroke="#000000" points="1268.5,-179.5 1268.5,-198.5 1405.5,-198.5 1405.5,-179.5 1268.5,-179.5"/>
<text text-anchor="middle" x="1337" y="-186.5" font-family="Helvetica,sans-Serif" font-size="10.00" fill="#000000">UserLogicElinkDecoder.h</text>
</a>
</g>
</g>
<!-- Node0&#45;&gt;Node5 -->
<g id="edge5" class="edge">
<title>Node0&#45;&gt;Node5</title>
<path fill="none" stroke="#191970" d="M1077.7242,-247.6189C1142.7271,-232.9226 1229.9592,-213.2005 1284.8281,-200.7954"/>
<polygon fill="#191970" stroke="#191970" points="1285.7021,-204.1862 1294.6841,-198.5671 1284.1584,-197.3585 1285.7021,-204.1862"/>
</g>
<!-- Node7 -->
<g id="node8" class="node">
<title>Node7</title>
<g id="a_node8"><a xlink:href="../../d0/d64/DataFormats_8h.html" target="_top" xlink:title="MCHRawCommon/DataFormats.h">
<polygon fill="none" stroke="#000000" points="952.5,-118 952.5,-137 1131.5,-137 1131.5,-118 952.5,-118"/>
<text text-anchor="middle" x="1042" y="-125" font-family="Helvetica,sans-Serif" font-size="10.00" fill="#000000">MCHRawCommon/DataFormats.h</text>
</a>
</g>
</g>
<!-- Node0&#45;&gt;Node7 -->
<g id="edge59" class="edge">
<title>Node0&#45;&gt;Node7</title>
<path fill="none" stroke="#191970" d="M1003.3458,-235.3453C1013.0962,-208.1417 1026.8438,-169.7858 1035.0452,-146.9039"/>
<polygon fill="#191970" stroke="#191970" points="1038.4072,-147.897 1038.4866,-137.3024 1031.8177,-145.5351 1038.4072,-147.897"/>
</g>
<!-- Node8 -->
<g id="node9" class="node">
<title>Node8</title>
<g id="a_node9"><a xlink:href="../../d5/d49/SampaHeader_8h.html" target="_top" xlink:title="MCHRawCommon/SampaHeader.h">
<polygon fill="none" stroke="#000000" points="749.5,-118 749.5,-137 934.5,-137 934.5,-118 749.5,-118"/>
<text text-anchor="middle" x="842" y="-125" font-family="Helvetica,sans-Serif" font-size="10.00" fill="#000000">MCHRawCommon/SampaHeader.h</text>
</a>
</g>
</g>
<!-- Node0&#45;&gt;Node8 -->
<g id="edge31" class="edge">
<title>Node0&#45;&gt;Node8</title>
<path fill="none" stroke="#191970" d="M957.9627,-235.3453C927.5203,-207.0339 884.0896,-166.6433 859.9431,-144.1871"/>
<polygon fill="#191970" stroke="#191970" points="862.2465,-141.5496 852.5402,-137.3024 857.4794,-146.6755 862.2465,-141.5496"/>
</g>
<!-- Node22 -->
<g id="node23" class="node">
<title>Node22</title>
<g id="a_node23"><a xlink:href="../../dc/d46/Assertions_8h.html" target="_top" xlink:title="Assertions.h">
<polygon fill="none" stroke="#000000" points="1423.5,-179.5 1423.5,-198.5 1500.5,-198.5 1500.5,-179.5 1423.5,-179.5"/>
<text text-anchor="middle" x="1462" y="-186.5" font-family="Helvetica,sans-Serif" font-size="10.00" fill="#000000">Assertions.h</text>
</a>
</g>
</g>
<!-- Node0&#45;&gt;Node22 -->
<g id="edge32" class="edge">
<title>Node0&#45;&gt;Node22</title>
<path fill="none" stroke="#191970" d="M1077.6916,-254.5159C1161.0416,-242.0775 1291.4616,-221.8344 1413.414,-199.2356"/>
<polygon fill="#191970" stroke="#191970" points="1414.1118,-202.6659 1423.3022,-197.3945 1412.8304,-195.7842 1414.1118,-202.6659"/>
</g>
<!-- Node23 -->
<g id="node24" class="node">
<title>Node23</title>
<g id="a_node24"><a xlink:href="../../d7/d42/MoveBuffer_8h.html" target="_top" xlink:title="MoveBuffer.h">
<polygon fill="none" stroke="#000000" points="188,-118 188,-137 268,-137 268,-118 188,-118"/>
<text text-anchor="middle" x="228" y="-125" font-family="Helvetica,sans-Serif" font-size="10.00" fill="#000000">MoveBuffer.h</text>
</a>
</g>
</g>
<!-- Node0&#45;&gt;Node23 -->
<g id="edge34" class="edge">
<title>Node0&#45;&gt;Node23</title>
<path fill="none" stroke="#191970" d="M906.3447,-255.4685C772.2245,-236.6447 504.9221,-196.0336 282,-143 277.8368,-142.0096 273.5145,-140.9033 269.2099,-139.7501"/>
<polygon fill="#191970" stroke="#191970" points="269.8521,-136.2965 259.2811,-137.0063 267.9875,-143.0436 269.8521,-136.2965"/>
</g>
<!-- Node25 -->
<g id="node26" class="node">
<title>Node25</title>
<g id="a_node26"><a xlink:href="../../d1/d53/DumpBuffer_8h.html" target="_top" xlink:title="DumpBuffer.h">
<polygon fill="none" stroke="#000000" points="586.5,-179.5 586.5,-198.5 669.5,-198.5 669.5,-179.5 586.5,-179.5"/>
<text text-anchor="middle" x="628" y="-186.5" font-family="Helvetica,sans-Serif" font-size="10.00" fill="#000000">DumpBuffer.h</text>
</a>
</g>
</g>
<!-- Node0&#45;&gt;Node25 -->
<g id="edge38" class="edge">
<title>Node0&#45;&gt;Node25</title>
<path fill="none" stroke="#191970" d="M906.198,-248.6139C835.8618,-233.5418 738.626,-212.7056 679.7001,-200.0786"/>
<polygon fill="#191970" stroke="#191970" points="680.382,-196.6453 669.8706,-197.9723 678.9152,-203.4899 680.382,-196.6453"/>
</g>
<!-- Node5&#45;&gt;Node2 -->
<g id="edge27" class="edge">
<title>Node5&#45;&gt;Node2</title>
<path fill="none" stroke="#191970" d="M1326.2539,-179.3228C1307.8292,-163.1995 1268.4662,-130.7612 1230,-112 1150.1072,-73.0337 1125.4966,-71.6708 1038,-56 919.9226,-34.8521 551.4199,-17.1749 428.4231,-11.7306"/>
<polygon fill="#191970" stroke="#191970" points="428.4507,-8.2286 418.3066,-11.286 428.1432,-15.2218 428.4507,-8.2286"/>
</g>
<!-- Node5&#45;&gt;Node4 -->
<g id="edge25" class="edge">
<title>Node5&#45;&gt;Node4</title>
<path fill="none" stroke="#191970" d="M1313.25,-179.3906C1287.7061,-169.0554 1246.8991,-152.5447 1218.189,-140.9284"/>
<polygon fill="#191970" stroke="#191970" points="1219.166,-137.5481 1208.5832,-137.0419 1216.5404,-144.0371 1219.166,-137.5481"/>
</g>
<!-- Node6 -->
<g id="node7" class="node">
<title>Node6</title>
<g id="a_node7"><a xlink:href="../../d4/deb/Debug_8h.html" target="_top" xlink:title="Debug.h">
<polygon fill="none" stroke="#000000" points="1535.5,-118 1535.5,-137 1592.5,-137 1592.5,-118 1535.5,-118"/>
<text text-anchor="middle" x="1564" y="-125" font-family="Helvetica,sans-Serif" font-size="10.00" fill="#000000">Debug.h</text>
</a>
</g>
</g>
<!-- Node5&#45;&gt;Node6 -->
<g id="edge6" class="edge">
<title>Node5&#45;&gt;Node6</title>
<path fill="none" stroke="#191970" d="M1384.5338,-179.481C1423.0857,-171.2726 1478.6091,-158.3385 1526,-143 1528.148,-142.3048 1530.3465,-141.5442 1532.55,-140.7451"/>
<polygon fill="#191970" stroke="#191970" points="1534.0209,-143.9295 1542.1022,-137.078 1531.5121,-137.3945 1534.0209,-143.9295"/>
</g>
<!-- Node5&#45;&gt;Node7 -->
<g id="edge7" class="edge">
<title>Node5&#45;&gt;Node7</title>
<path fill="none" stroke="#191970" d="M1291.2299,-179.4581C1239.1251,-168.5956 1153.9981,-150.8488 1097.9833,-139.1711"/>
<polygon fill="#191970" stroke="#191970" points="1098.3813,-135.6789 1087.8775,-137.0643 1096.9527,-142.5316 1098.3813,-135.6789"/>
</g>
<!-- Node5&#45;&gt;Node8 -->
<g id="edge8" class="edge">
<title>Node5&#45;&gt;Node8</title>
<path fill="none" stroke="#191970" d="M1268.2216,-181.7299C1189.517,-173.2343 1056.8031,-158.3707 943,-143 932.8748,-141.6325 922.1934,-140.0957 911.7186,-138.5351"/>
<polygon fill="#191970" stroke="#191970" points="912.1736,-135.0643 901.7639,-137.0364 911.1314,-141.9863 912.1736,-135.0643"/>
</g>
<!-- Node10 -->
<g id="node11" class="node">
<title>Node10</title>
<g id="a_node11"><a xlink:href="../../dd/d58/SampaChannelHandler_8h.html" target="_top" xlink:title="MCHRawDecoder/SampaChannel\lHandler.h">
<polygon fill="none" stroke="#000000" points="1648.5,-112.5 1648.5,-142.5 1825.5,-142.5 1825.5,-112.5 1648.5,-112.5"/>
<text text-anchor="start" x="1656.5" y="-130.5" font-family="Helvetica,sans-Serif" font-size="10.00" fill="#000000">MCHRawDecoder/SampaChannel</text>
<text text-anchor="middle" x="1737" y="-119.5" font-family="Helvetica,sans-Serif" font-size="10.00" fill="#000000">Handler.h</text>
</a>
</g>
</g>
<!-- Node5&#45;&gt;Node10 -->
<g id="edge11" class="edge">
<title>Node5&#45;&gt;Node10</title>
<path fill="none" stroke="#191970" d="M1399.0611,-179.4581C1463.009,-169.6261 1563.6398,-154.1541 1638.4793,-142.6476"/>
<polygon fill="#191970" stroke="#191970" points="1639.0462,-146.1016 1648.3981,-141.1225 1637.9824,-139.1829 1639.0462,-146.1016"/>
</g>
<!-- Node11 -->
<g id="node12" class="node">
<title>Node11</title>
<polygon fill="none" stroke="#bfbfbf" points="1404.5,-56.5 1404.5,-75.5 1469.5,-75.5 1469.5,-56.5 1404.5,-56.5"/>
<text text-anchor="middle" x="1437" y="-63.5" font-family="Helvetica,sans-Serif" font-size="10.00" fill="#000000">functional</text>
</g>
<!-- Node5&#45;&gt;Node11 -->
<g id="edge26" class="edge">
<title>Node5&#45;&gt;Node11</title>
<path fill="none" stroke="#191970" d="M1404.4628,-179.4846C1480.8484,-168.3864 1595.6117,-150.5927 1602,-143 1610.8702,-132.4574 1610.3322,-122.9728 1602,-112 1598.1908,-106.9835 1527.1351,-88.4546 1479.5231,-76.4988"/>
<polygon fill="#191970" stroke="#191970" points="1480.3022,-73.0859 1469.7517,-74.0546 1478.6035,-79.8767 1480.3022,-73.0859"/>
</g>
<!-- Node13 -->
<g id="node14" class="node">
<title>Node13</title>
<polygon fill="none" stroke="#bfbfbf" points="1054.5,-.5 1054.5,-19.5 1101.5,-19.5 1101.5,-.5 1054.5,-.5"/>
<text text-anchor="middle" x="1078" y="-7.5" font-family="Helvetica,sans-Serif" font-size="10.00" fill="#000000">vector</text>
</g>
<!-- Node5&#45;&gt;Node13 -->
<g id="edge29" class="edge">
<title>Node5&#45;&gt;Node13</title>
<path fill="none" stroke="#191970" d="M1329.9578,-179.3739C1323.4046,-170.2318 1313.5432,-155.9923 1306,-143 1284.3437,-105.6992 1296.5995,-83.0448 1263,-56 1239.87,-37.3823 1158.281,-22.2649 1111.5432,-14.8873"/>
<polygon fill="#191970" stroke="#191970" points="1111.9944,-11.4155 1101.5773,-13.348 1110.9258,-18.3335 1111.9944,-11.4155"/>
</g>
<!-- Node14 -->
<g id="node15" class="node">
<title>Node14</title>
<polygon fill="none" stroke="#bfbfbf" points="1600.5,-.5 1600.5,-19.5 1679.5,-19.5 1679.5,-.5 1600.5,-.5"/>
<text text-anchor="middle" x="1640" y="-7.5" font-family="Helvetica,sans-Serif" font-size="10.00" fill="#000000">fmt/format.h</text>
</g>
<!-- Node5&#45;&gt;Node14 -->
<g id="edge24" class="edge">
<title>Node5&#45;&gt;Node14</title>
<path fill="none" stroke="#191970" d="M1405.885,-180.0092C1408.9642,-179.6576 1412.0135,-179.3193 1415,-179 1461.5724,-174.0209 1803.3265,-177.5046 1835,-143 1844.3171,-132.8502 1842.1359,-123.7858 1835,-112 1832.5966,-108.0305 1721.4739,-51.3104 1668.0765,-24.214"/>
<polygon fill="#191970" stroke="#191970" points="1669.6205,-21.0727 1659.1187,-19.6715 1666.4545,-27.3159 1669.6205,-21.0727"/>
</g>
<!-- Node15 -->
<g id="node16" class="node">
<title>Node15</title>
<g id="a_node16"><a xlink:href="../../d4/d09/DsElecId_8h.html" target="_top" xlink:title="MCHRawElecMap/DsElecId.h">
<polygon fill="none" stroke="#000000" points="1779.5,-56.5 1779.5,-75.5 1934.5,-75.5 1934.5,-56.5 1779.5,-56.5"/>
<text text-anchor="middle" x="1857" y="-63.5" font-family="Helvetica,sans-Serif" font-size="10.00" fill="#000000">MCHRawElecMap/DsElecId.h</text>
</a>
</g>
</g>
<!-- Node5&#45;&gt;Node15 -->
<g id="edge22" class="edge">
<title>Node5&#45;&gt;Node15</title>
<path fill="none" stroke="#191970" d="M1405.8827,-179.9866C1408.9625,-179.6411 1412.0125,-179.3103 1415,-179 1465.1117,-173.7951 1832.8185,-180.0121 1867,-143 1881.2968,-127.5193 1874.4049,-102.2339 1866.8704,-84.89"/>
<polygon fill="#191970" stroke="#191970" points="1869.9701,-83.2583 1862.5152,-75.73 1863.6483,-86.2641 1869.9701,-83.2583"/>
</g>
<!-- Node19 -->
<g id="node20" class="node">
<title>Node19</title>
<polygon fill="none" stroke="#bfbfbf" points="1315,-118 1315,-137 1359,-137 1359,-118 1315,-118"/>
<text text-anchor="middle" x="1337" y="-125" font-family="Helvetica,sans-Serif" font-size="10.00" fill="#000000">bitset</text>
</g>
<!-- Node5&#45;&gt;Node19 -->
<g id="edge23" class="edge">
<title>Node5&#45;&gt;Node19</title>
<path fill="none" stroke="#191970" d="M1337,-179.3906C1337,-170.8657 1337,-158.1392 1337,-147.4235"/>
<polygon fill="#191970" stroke="#191970" points="1340.5001,-147.2448 1337,-137.2449 1333.5001,-147.2449 1340.5001,-147.2448"/>
</g>
<!-- Node20 -->
<g id="node21" class="node">
<title>Node20</title>
<polygon fill="none" stroke="#bfbfbf" points="1377.5,-118 1377.5,-137 1442.5,-137 1442.5,-118 1377.5,-118"/>
<text text-anchor="middle" x="1410" y="-125" font-family="Helvetica,sans-Serif" font-size="10.00" fill="#000000">stdexcept</text>
</g>
<!-- Node5&#45;&gt;Node20 -->
<g id="edge28" class="edge">
<title>Node5&#45;&gt;Node20</title>
<path fill="none" stroke="#191970" d="M1348.4063,-179.3906C1359.6969,-169.8786 1377.1967,-155.1357 1390.6619,-143.7917"/>
<polygon fill="#191970" stroke="#191970" points="1393.0402,-146.3646 1398.4329,-137.2449 1388.5301,-141.0111 1393.0402,-146.3646"/>
</g>
<!-- Node21 -->
<g id="node22" class="node">
<title>Node21</title>
<polygon fill="none" stroke="#bfbfbf" points="1461,-118 1461,-137 1517,-137 1517,-118 1461,-118"/>
<text text-anchor="middle" x="1489" y="-125" font-family="Helvetica,sans-Serif" font-size="10.00" fill="#000000">sstream</text>
</g>
<!-- Node5&#45;&gt;Node21 -->
<g id="edge30" class="edge">
<title>Node5&#45;&gt;Node21</title>
<path fill="none" stroke="#191970" d="M1361.2761,-179.4217C1384.5825,-170.1948 1420.7571,-155.7917 1452,-143 1453.5952,-142.3469 1455.2278,-141.6752 1456.8756,-140.9946"/>
<polygon fill="#191970" stroke="#191970" points="1458.435,-144.1368 1466.3259,-137.0669 1455.7484,-137.6728 1458.435,-144.1368"/>
</g>
<!-- Node8&#45;&gt;Node2 -->
<g id="edge10" class="edge">
<title>Node8&#45;&gt;Node2</title>
<path fill="none" stroke="#191970" d="M903.0094,-117.9434C949.0294,-109.343 1006.6074,-95.1173 1021,-76 1026.3463,-68.8986 1027.0533,-62.5092 1021,-56 1000.7518,-34.227 564.5286,-16.4644 428.2836,-11.4312"/>
<polygon fill="#191970" stroke="#191970" points="428.3801,-7.9325 418.2586,-11.0639 428.1237,-14.9278 428.3801,-7.9325"/>
</g>
<!-- Node9 -->
<g id="node10" class="node">
<title>Node9</title>
<polygon fill="none" stroke="#bfbfbf" points="1315.5,-.5 1315.5,-19.5 1364.5,-19.5 1364.5,-.5 1315.5,-.5"/>
<text text-anchor="middle" x="1340" y="-7.5" font-family="Helvetica,sans-Serif" font-size="10.00" fill="#000000">cstdlib</text>
</g>
<!-- Node8&#45;&gt;Node9 -->
<g id="edge9" class="edge">
<title>Node8&#45;&gt;Node9</title>
<path fill="none" stroke="#191970" d="M882.3316,-117.984C977.7744,-95.4649 1216.1564,-39.2201 1305.4788,-18.1451"/>
<polygon fill="#191970" stroke="#191970" points="1306.4405,-21.5143 1315.3695,-15.8114 1304.833,-14.7014 1306.4405,-21.5143"/>
</g>
<!-- Node10&#45;&gt;Node11 -->
<g id="edge12" class="edge">
<title>Node10&#45;&gt;Node11</title>
<path fill="none" stroke="#191970" d="M1657.8012,-112.4716C1609.173,-103.0611 1545.3803,-90.3903 1479.666,-76.086"/>
<polygon fill="#191970" stroke="#191970" points="1480.0492,-72.5871 1469.5323,-73.8703 1478.554,-79.4256 1480.0492,-72.5871"/>
</g>
<!-- Node12 -->
<g id="node13" class="node">
<title>Node12</title>
<g id="a_node13"><a xlink:href="../../d0/d5b/SampaCluster_8h.html" target="_top" xlink:title="MCHRawCommon/SampaCluster.h">
<polygon fill="none" stroke="#000000" points="1488,-56.5 1488,-75.5 1672,-75.5 1672,-56.5 1488,-56.5"/>
<text text-anchor="middle" x="1580" y="-63.5" font-family="Helvetica,sans-Serif" font-size="10.00" fill="#000000">MCHRawCommon/SampaCluster.h</text>
</a>
</g>
</g>
<!-- Node10&#45;&gt;Node12 -->
<g id="edge13" class="edge">
<title>Node10&#45;&gt;Node12</title>
<path fill="none" stroke="#191970" d="M1698.5935,-112.4554C1672.6274,-102.284 1638.661,-88.9787 1613.737,-79.2155"/>
<polygon fill="#191970" stroke="#191970" points="1614.9171,-75.9188 1604.3294,-75.5303 1612.364,-82.4366 1614.9171,-75.9188"/>
</g>
<!-- Node10&#45;&gt;Node15 -->
<g id="edge18" class="edge">
<title>Node10&#45;&gt;Node15</title>
<path fill="none" stroke="#191970" d="M1766.3553,-112.4554C1785.5873,-102.599 1810.5612,-89.7999 1829.4241,-80.1327"/>
<polygon fill="#191970" stroke="#191970" points="1831.1013,-83.206 1838.4043,-75.5303 1827.9086,-76.9765 1831.1013,-83.206"/>
</g>
<!-- Node12&#45;&gt;Node2 -->
<g id="edge16" class="edge">
<title>Node12&#45;&gt;Node2</title>
<path fill="none" stroke="#191970" d="M1487.8197,-56.6564C1484.8461,-56.4243 1481.9002,-56.2045 1479,-56 1268.5324,-41.1558 599.2528,-17.3487 428.1431,-11.3875"/>
<polygon fill="#191970" stroke="#191970" points="428.175,-7.8866 418.0594,-11.0368 427.9316,-14.8823 428.175,-7.8866"/>
</g>
<!-- Node12&#45;&gt;Node9 -->
<g id="edge14" class="edge">
<title>Node12&#45;&gt;Node9</title>
<path fill="none" stroke="#191970" d="M1539.0152,-56.4369C1492.6601,-45.6207 1417.9871,-28.197 1374.4955,-18.0489"/>
<polygon fill="#191970" stroke="#191970" points="1375.2011,-14.6196 1364.6673,-15.7557 1373.6104,-21.4365 1375.2011,-14.6196"/>
</g>
<!-- Node12&#45;&gt;Node13 -->
<g id="edge15" class="edge">
<title>Node12&#45;&gt;Node13</title>
<path fill="none" stroke="#191970" d="M1494.5582,-56.4686C1382.0205,-43.9146 1189.3327,-22.4196 1111.7895,-13.7694"/>
<polygon fill="#191970" stroke="#191970" points="1111.9588,-10.2666 1101.6324,-12.6363 1111.1827,-17.2235 1111.9588,-10.2666"/>
</g>
<!-- Node12&#45;&gt;Node14 -->
<g id="edge17" class="edge">
<title>Node12&#45;&gt;Node14</title>
<path fill="none" stroke="#191970" d="M1590.4512,-56.2455C1599.2269,-48.0549 1611.9554,-36.1749 1622.314,-26.5069"/>
<polygon fill="#191970" stroke="#191970" points="1624.7461,-29.0246 1629.6686,-19.6427 1619.9699,-23.9072 1624.7461,-29.0246"/>
</g>
<!-- Node16 -->
<g id="node17" class="node">
<title>Node16</title>
<polygon fill="none" stroke="#bfbfbf" points="696,-.5 696,-19.5 746,-19.5 746,-.5 696,-.5"/>
<text text-anchor="middle" x="721" y="-7.5" font-family="Helvetica,sans-Serif" font-size="10.00" fill="#000000">cstdint</text>
</g>
<!-- Node15&#45;&gt;Node16 -->
<g id="edge19" class="edge">
<title>Node15&#45;&gt;Node16</title>
<path fill="none" stroke="#191970" d="M1779.4678,-61.4459C1748.8026,-59.6836 1713.2439,-57.6885 1681,-56 1319.9394,-37.0926 882.3232,-17.2366 756.4244,-11.5837"/>
<polygon fill="#191970" stroke="#191970" points="756.367,-8.0777 746.2201,-11.126 756.0532,-15.0707 756.367,-8.0777"/>
</g>
<!-- Node17 -->
<g id="node18" class="node">
<title>Node17</title>
<polygon fill="none" stroke="#bfbfbf" points="1867.5,-.5 1867.5,-19.5 1916.5,-19.5 1916.5,-.5 1867.5,-.5"/>
<text text-anchor="middle" x="1892" y="-7.5" font-family="Helvetica,sans-Serif" font-size="10.00" fill="#000000">iosfwd</text>
</g>
<!-- Node15&#45;&gt;Node17 -->
<g id="edge20" class="edge">
<title>Node15&#45;&gt;Node17</title>
<path fill="none" stroke="#191970" d="M1863.0965,-56.2455C1867.9145,-48.5367 1874.7751,-37.5598 1880.6032,-28.2348"/>
<polygon fill="#191970" stroke="#191970" points="1883.6413,-29.9777 1885.9733,-19.6427 1877.7053,-26.2677 1883.6413,-29.9777"/>
</g>
<!-- Node18 -->
<g id="node19" class="node">
<title>Node18</title>
<polygon fill="none" stroke="#bfbfbf" points="1793,-.5 1793,-19.5 1849,-19.5 1849,-.5 1793,-.5"/>
<text text-anchor="middle" x="1821" y="-7.5" font-family="Helvetica,sans-Serif" font-size="10.00" fill="#000000">optional</text>
</g>
<!-- Node15&#45;&gt;Node18 -->
<g id="edge21" class="edge">
<title>Node15&#45;&gt;Node18</title>
<path fill="none" stroke="#191970" d="M1850.7293,-56.2455C1845.7736,-48.5367 1838.717,-37.5598 1832.7224,-28.2348"/>
<polygon fill="#191970" stroke="#191970" points="1835.5506,-26.1618 1827.1989,-19.6427 1829.6624,-29.9471 1835.5506,-26.1618"/>
</g>
<!-- Node22&#45;&gt;Node14 -->
<g id="edge33" class="edge">
<title>Node22&#45;&gt;Node14</title>
<path fill="none" stroke="#191970" d="M1500.7067,-180.5559C1503.8434,-179.9877 1506.9703,-179.4596 1510,-179 1592.7695,-166.444 1810.4468,-181.0823 1885,-143 1920.3348,-124.9507 1929.9856,-113.1203 1944,-76 1947.1396,-67.684 1949.7962,-62.7392 1944,-56 1927.6652,-37.0075 1771.8233,-21.1343 1689.8548,-14.0181"/>
<polygon fill="#191970" stroke="#191970" points="1690.0217,-10.5197 1679.7595,-13.1536 1689.4244,-17.4942 1690.0217,-10.5197"/>
</g>
<!-- Node23&#45;&gt;Node2 -->
<g id="edge36" class="edge">
<title>Node23&#45;&gt;Node2</title>
<path fill="none" stroke="#191970" d="M223.3454,-117.5543C217.098,-102.5707 208.2753,-74.0451 222,-56 237.1681,-36.0571 303.6011,-22.5133 347.6889,-15.5358"/>
<polygon fill="#191970" stroke="#191970" points="348.4683,-18.9574 357.8235,-13.9844 347.409,-12.038 348.4683,-18.9574"/>
</g>
<!-- Node23&#45;&gt;Node13 -->
<g id="edge35" class="edge">
<title>Node23&#45;&gt;Node13</title>
<path fill="none" stroke="#191970" d="M233.2987,-117.9239C242.8273,-101.7842 264.543,-69.5976 293,-56 327.3615,-39.581 898.3592,-16.8314 1044.2669,-11.2658"/>
<polygon fill="#191970" stroke="#191970" points="1044.5473,-14.7577 1054.4072,-10.8806 1044.2815,-7.7628 1044.5473,-14.7577"/>
</g>
<!-- Node24 -->
<g id="node25" class="node">
<title>Node24</title>
<polygon fill="none" stroke="#bfbfbf" points="302.5,-56.5 302.5,-75.5 359.5,-75.5 359.5,-56.5 302.5,-56.5"/>
<text text-anchor="middle" x="331" y="-63.5" font-family="Helvetica,sans-Serif" font-size="10.00" fill="#000000">gsl/span</text>
</g>
<!-- Node23&#45;&gt;Node24 -->
<g id="edge37" class="edge">
<title>Node23&#45;&gt;Node24</title>
<path fill="none" stroke="#191970" d="M244.0938,-117.8906C260.7228,-107.9616 286.8976,-92.333 306.1794,-80.8201"/>
<polygon fill="#191970" stroke="#191970" points="308.2276,-83.6736 315.0193,-75.5419 304.639,-77.6634 308.2276,-83.6736"/>
</g>
<!-- Node25&#45;&gt;Node2 -->
<g id="edge40" class="edge">
<title>Node25&#45;&gt;Node2</title>
<path fill="none" stroke="#191970" d="M586.3349,-186.1129C517.3903,-180.7091 383.1834,-167.3531 343,-143 304.8601,-119.8854 269.3131,-93.7871 293,-56 305.128,-36.6526 327.9577,-25.2412 348.1973,-18.6242"/>
<polygon fill="#191970" stroke="#191970" points="349.2803,-21.9537 357.8669,-15.7471 347.284,-15.2443 349.2803,-21.9537"/>
</g>
<!-- Node25&#45;&gt;Node7 -->
<g id="edge58" class="edge">
<title>Node25&#45;&gt;Node7</title>
<path fill="none" stroke="#191970" d="M669.5498,-183.0714C729.8307,-174.4386 845.0477,-157.8197 943,-143 952.3195,-141.59 962.1286,-140.0826 971.8026,-138.5821"/>
<polygon fill="#191970" stroke="#191970" points="972.4658,-142.0211 981.8089,-137.0253 971.3897,-135.1043 972.4658,-142.0211"/>
</g>
<!-- Node25&#45;&gt;Node8 -->
<g id="edge43" class="edge">
<title>Node25&#45;&gt;Node8</title>
<path fill="none" stroke="#191970" d="M661.4375,-179.3906C698.5,-168.7395 758.3849,-151.5296 798.9312,-139.8772"/>
<polygon fill="#191970" stroke="#191970" points="800.153,-143.1679 808.7973,-137.0419 798.2196,-136.4402 800.153,-143.1679"/>
</g>
<!-- Node25&#45;&gt;Node13 -->
<g id="edge42" class="edge">
<title>Node25&#45;&gt;Node13</title>
<path fill="none" stroke="#191970" d="M634.5899,-179.3686C646.813,-162.3887 674.7983,-127.4644 708,-112 845.7471,-47.8415 924.7542,-164.8879 1048,-76 1063.1149,-65.0988 1070.7811,-44.7297 1074.5588,-29.4912"/>
<polygon fill="#191970" stroke="#191970" points="1078.0246,-30.0189 1076.6731,-19.5107 1071.1765,-28.5681 1078.0246,-30.0189"/>
</g>
<!-- Node25&#45;&gt;Node14 -->
<g id="edge41" class="edge">
<title>Node25&#45;&gt;Node14</title>
<path fill="none" stroke="#191970" d="M644.8533,-179.36C660.1149,-170.4361 683.0432,-156.54 702,-143 719.7363,-130.3317 719.8935,-120.4137 740,-112 876.5088,-54.877 923.947,-92.5252 1071,-76 1263.0875,-54.414 1491.5024,-27.5592 1590.346,-15.8803"/>
<polygon fill="#191970" stroke="#191970" points="1590.8258,-19.3481 1600.3458,-14.6983 1590.0041,-12.3965 1590.8258,-19.3481"/>
</g>
<!-- Node25&#45;&gt;Node24 -->
<g id="edge39" class="edge">
<title>Node25&#45;&gt;Node24</title>
<path fill="none" stroke="#191970" d="M586.27,-179.6864C553.6736,-171.7584 507.587,-159.1001 469,-143 426.872,-125.4225 381.2118,-98.1676 354.4062,-81.2396"/>
<polygon fill="#191970" stroke="#191970" points="356.0606,-78.1435 345.7477,-75.7154 352.2955,-84.0447 356.0606,-78.1435"/>
</g>
<!-- Node26 -->
<g id="node27" class="node">
<title>Node26</title>
<polygon fill="none" stroke="#bfbfbf" points="352,-118 352,-137 396,-137 396,-118 352,-118"/>
<text text-anchor="middle" x="374" y="-125" font-family="Helvetica,sans-Serif" font-size="10.00" fill="#000000">limits</text>
</g>
<!-- Node25&#45;&gt;Node26 -->
<g id="edge44" class="edge">
<title>Node25&#45;&gt;Node26</title>
<path fill="none" stroke="#191970" d="M586.3862,-182.7484C542.0434,-175.504 470.0965,-162.0693 410,-143 407.8921,-142.3311 405.7391,-141.5823 403.5866,-140.7845"/>
<polygon fill="#191970" stroke="#191970" points="404.8776,-137.5314 394.2928,-137.0704 402.2799,-144.0315 404.8776,-137.5314"/>
</g>
<!-- Node27 -->
<g id="node28" class="node">
<title>Node27</title>
<g id="a_node28"><a xlink:href="../../dc/d3a/RDHManip_8h.html" target="_top" xlink:title="MCHRawCommon/RDHManip.h">
<polygon fill="none" stroke="#000000" points="489.5,-118 489.5,-137 656.5,-137 656.5,-118 489.5,-118"/>
<text text-anchor="middle" x="573" y="-125" font-family="Helvetica,sans-Serif" font-size="10.00" fill="#000000">MCHRawCommon/RDHManip.h</text>
</a>
</g>
</g>
<!-- Node25&#45;&gt;Node27 -->
<g id="edge45" class="edge">
<title>Node25&#45;&gt;Node27</title>
<path fill="none" stroke="#191970" d="M619.4063,-179.3906C611.1403,-170.1478 598.4574,-155.966 588.4383,-144.7628"/>
<polygon fill="#191970" stroke="#191970" points="590.99,-142.3657 581.7149,-137.2449 585.7722,-147.0321 590.99,-142.3657"/>
</g>
<!-- Node32 -->
<g id="node33" class="node">
<title>Node32</title>
<g id="a_node33"><a xlink:href="../../d4/d78/DataFormats_2Headers_2include_2Headers_2RAWDataHeader_8h.html" target="_top" xlink:title="Headers/RAWDataHeader.h">
<polygon fill="none" stroke="#000000" points="415.5,-56.5 415.5,-75.5 564.5,-75.5 564.5,-56.5 415.5,-56.5"/>
<text text-anchor="middle" x="490" y="-63.5" font-family="Helvetica,sans-Serif" font-size="10.00" fill="#000000">Headers/RAWDataHeader.h</text>
</a>
</g>
</g>
<!-- Node25&#45;&gt;Node32 -->
<g id="edge56" class="edge">
<title>Node25&#45;&gt;Node32</title>
<path fill="none" stroke="#191970" d="M586.1889,-181.6845C547.0443,-173.8833 492.7238,-160.2789 480,-143 467.6879,-126.2802 473.8121,-101.8046 480.6441,-84.9593"/>
<polygon fill="#191970" stroke="#191970" points="483.9447,-86.152 484.831,-75.5943 477.5543,-83.2949 483.9447,-86.152"/>
</g>
<!-- Node27&#45;&gt;Node2 -->
<g id="edge49" class="edge">
<title>Node27&#45;&gt;Node2</title>
<path fill="none" stroke="#191970" d="M524.4089,-117.9401C481.2451,-108.5092 422.5094,-93.0614 406,-76 394.1535,-63.7575 389.9313,-44.514 388.5087,-29.9583"/>
<polygon fill="#191970" stroke="#191970" points="391.9995,-29.6988 387.8867,-19.9348 385.0129,-30.1324 391.9995,-29.6988"/>
</g>
<!-- Node27&#45;&gt;Node11 -->
<g id="edge47" class="edge">
<title>Node27&#45;&gt;Node11</title>
<path fill="none" stroke="#191970" d="M656.6354,-119.2971C683.2682,-116.803 712.8604,-114.1547 740,-112 987.4422,-92.3552 1284.7761,-74.7176 1394.0364,-68.4359"/>
<polygon fill="#191970" stroke="#191970" points="1394.5338,-71.9133 1404.317,-67.8465 1394.133,-64.9248 1394.5338,-71.9133"/>
</g>
<!-- Node27&#45;&gt;Node13 -->
<g id="edge52" class="edge">
<title>Node27&#45;&gt;Node13</title>
<path fill="none" stroke="#191970" d="M629.0873,-117.9878C642.4722,-115.8701 656.7262,-113.7398 670,-112 747.7442,-101.8098 951.4631,-112.2302 1021,-76 1041.4592,-65.3403 1057.7572,-43.9877 1067.5993,-28.4479"/>
<polygon fill="#191970" stroke="#191970" points="1070.7226,-30.0453 1072.8726,-19.6709 1064.7223,-26.4402 1070.7226,-30.0453"/>
</g>
<!-- Node27&#45;&gt;Node16 -->
<g id="edge46" class="edge">
<title>Node27&#45;&gt;Node16</title>
<path fill="none" stroke="#191970" d="M637.4778,-117.9672C684.7774,-109.5014 743.2276,-95.4464 758,-76 769.867,-60.3783 755.2961,-40.5217 741.0951,-26.6878"/>
<polygon fill="#191970" stroke="#191970" points="743.1625,-23.8364 733.414,-19.687 738.4471,-29.01 743.1625,-23.8364"/>
</g>
<!-- Node27&#45;&gt;Node24 -->
<g id="edge48" class="edge">
<title>Node27&#45;&gt;Node24</title>
<path fill="none" stroke="#191970" d="M535.453,-117.9581C490.2792,-106.478 414.8483,-87.3086 369.3288,-75.7406"/>
<polygon fill="#191970" stroke="#191970" points="370.0941,-72.3239 359.5401,-73.253 368.37,-79.1082 370.0941,-72.3239"/>
</g>
<!-- Node28 -->
<g id="node29" class="node">
<title>Node28</title>
<polygon fill="none" stroke="#bfbfbf" points="968,-56.5 968,-75.5 1012,-75.5 1012,-56.5 968,-56.5"/>
<text text-anchor="middle" x="990" y="-63.5" font-family="Helvetica,sans-Serif" font-size="10.00" fill="#000000">string</text>
</g>
<!-- Node27&#45;&gt;Node28 -->
<g id="edge50" class="edge">
<title>Node27&#45;&gt;Node28</title>
<path fill="none" stroke="#191970" d="M630.3975,-117.9963C643.4065,-115.9348 657.1684,-113.8266 670,-112 797.7086,-93.8201 831.936,-103.347 958,-76 958.0995,-75.9784 958.1992,-75.9566 958.299,-75.9347"/>
<polygon fill="#191970" stroke="#191970" points="958.9399,-79.3837 967.7565,-73.5085 957.2004,-72.6033 958.9399,-79.3837"/>
</g>
<!-- Node29 -->
<g id="node30" class="node">
<title>Node29</title>
<polygon fill="none" stroke="#bfbfbf" points="805.5,-56.5 805.5,-75.5 878.5,-75.5 878.5,-56.5 805.5,-56.5"/>
<text text-anchor="middle" x="842" y="-63.5" font-family="Helvetica,sans-Serif" font-size="10.00" fill="#000000">string_view</text>
</g>
<!-- Node27&#45;&gt;Node29 -->
<g id="edge51" class="edge">
<title>Node27&#45;&gt;Node29</title>
<path fill="none" stroke="#191970" d="M614.7361,-117.9581C663.7117,-106.7611 744.682,-88.2493 795.5921,-76.61"/>
<polygon fill="#191970" stroke="#191970" points="796.3866,-80.0187 805.355,-74.378 794.8264,-73.1948 796.3866,-80.0187"/>
</g>
<!-- Node30 -->
<g id="node31" class="node">
<title>Node30</title>
<g id="a_node31"><a xlink:href="../../dd/d9a/RDHFields_8h.html" target="_top" xlink:title="MCHRawCommon/RDHFields.h">
<polygon fill="none" stroke="#000000" points="583,-56.5 583,-75.5 749,-75.5 749,-56.5 583,-56.5"/>
<text text-anchor="middle" x="666" y="-63.5" font-family="Helvetica,sans-Serif" font-size="10.00" fill="#000000">MCHRawCommon/RDHFields.h</text>
</a>
</g>
</g>
<!-- Node27&#45;&gt;Node30 -->
<g id="edge53" class="edge">
<title>Node27&#45;&gt;Node30</title>
<path fill="none" stroke="#191970" d="M587.5313,-117.8906C602.4094,-108.0519 625.7504,-92.6167 643.1128,-81.1351"/>
<polygon fill="#191970" stroke="#191970" points="645.1602,-83.9773 651.5708,-75.5419 641.299,-78.1385 645.1602,-83.9773"/>
</g>
<!-- Node31 -->
<g id="node32" class="node">
<title>Node31</title>
<polygon fill="none" stroke="#bfbfbf" points="896.5,-56.5 896.5,-75.5 949.5,-75.5 949.5,-56.5 896.5,-56.5"/>
<text text-anchor="middle" x="923" y="-63.5" font-family="Helvetica,sans-Serif" font-size="10.00" fill="#000000">cstddef</text>
</g>
<!-- Node27&#45;&gt;Node31 -->
<g id="edge55" class="edge">
<title>Node27&#45;&gt;Node31</title>
<path fill="none" stroke="#191970" d="M632.0258,-117.9882C710.9642,-105.2456 845.0013,-83.5244 886.36,-75.7544"/>
<polygon fill="#191970" stroke="#191970" points="887.2284,-79.15 896.3443,-73.751 885.8512,-72.2868 887.2284,-79.15"/>
</g>
<!-- Node30&#45;&gt;Node16 -->
<g id="edge54" class="edge">
<title>Node30&#45;&gt;Node16</title>
<path fill="none" stroke="#191970" d="M675.5803,-56.2455C683.5458,-48.1352 695.0641,-36.4075 704.5079,-26.7919"/>
<polygon fill="#191970" stroke="#191970" points="707.0195,-29.2297 711.5295,-19.6427 702.0253,-24.3247 707.0195,-29.2297"/>
</g>
<!-- Node32&#45;&gt;Node16 -->
<g id="edge57" class="edge">
<title>Node32&#45;&gt;Node16</title>
<path fill="none" stroke="#191970" d="M529.4478,-56.4369C573.4943,-45.759 644.1045,-28.6413 686.1783,-18.4416"/>
<polygon fill="#191970" stroke="#191970" points="687.0788,-21.8248 695.9727,-16.0672 685.4295,-15.0218 687.0788,-21.8248"/>
</g>
</g>
</svg>
        <g id="navigator" transform="translate(0 0)" fill="#404254">
                <rect fill="#f2f5e9" fill-opacity="0.5" stroke="#606060" stroke-width=".5" x="0" y="0" width="60" height="60"/>
                <use id="zoomplus" xlink:href="#zoomPlus" x="17" y="9" onmousedown="handleZoom(evt,'in')"/>
                <use id="zoomminus" xlink:href="#zoomMin" x="42" y="9" onmousedown="handleZoom(evt,'out')"/>
                <use id="reset" xlink:href="#resetDef" x="30" y="36" onmousedown="handleReset()"/>
                <g id="arrowUp" xlink:href="#dirArrow" transform="translate(30 24)" onmousedown="handlePan(0,-1)">
                  <use xlink:href="#rim" fill="#404040">
                        <set attributeName="fill" to="#808080" begin="arrowUp.mouseover" end="arrowUp.mouseout"/>
                  </use>
                  <path fill="none" stroke="white" stroke-width="1.5" d="M0,-3.0v7 M-2.5,-0.5L0,-3.0L2.5,-0.5"/>
                </g>
                <g id="arrowRight" xlink:href="#dirArrow" transform="rotate(90) translate(36 -43)" onmousedown="handlePan(1,0)">
                  <use xlink:href="#rim" fill="#404040">
                        <set attributeName="fill" to="#808080" begin="arrowRight.mouseover" end="arrowRight.mouseout"/>
                  </use>
                  <path fill="none" stroke="white" stroke-width="1.5" d="M0,-3.0v7 M-2.5,-0.5L0,-3.0L2.5,-0.5"/>
                </g>
                <g id="arrowDown" xlink:href="#dirArrow" transform="rotate(180) translate(-30 -48)" onmousedown="handlePan(0,1)">
                  <use xlink:href="#rim" fill="#404040">
                        <set attributeName="fill" to="#808080" begin="arrowDown.mouseover" end="arrowDown.mouseout"/>
                  </use>
                  <path fill="none" stroke="white" stroke-width="1.5" d="M0,-3.0v7 M-2.5,-0.5L0,-3.0L2.5,-0.5"/>
                </g>
                <g id="arrowLeft" xlink:href="#dirArrow" transform="rotate(270) translate(-36 17)" onmousedown="handlePan(-1,0)">
                  <use xlink:href="#rim" fill="#404040">
                        <set attributeName="fill" to="#808080" begin="arrowLeft.mouseover" end="arrowLeft.mouseout"/>
                  </use>
                  <path fill="none" stroke="white" stroke-width="1.5" d="M0,-3.0v7 M-2.5,-0.5L0,-3.0L2.5,-0.5"/>
                </g>
        </g>
        <svg viewBox="0 0 15 15" width="100%" height="30px" preserveAspectRatio="xMaxYMin meet">
         <g id="arrow_out" transform="scale(0.3 0.3)">
          <a xlink:href="testUserLogicElinkDecoder_8cxx__incl_org.svg" target="_base">
           <rect id="button" ry="5" rx="5" y="6" x="6" height="38" width="38"
                fill="#f2f5e9" fill-opacity="0.5" stroke="#606060" stroke-width="1.0"/>
           <path id="arrow"
             d="M 11.500037,31.436501 C 11.940474,20.09759 22.043105,11.32322 32.158766,21.979434 L 37.068811,17.246167 C 37.068811,17.246167 37.088388,32 37.088388,32 L 22.160133,31.978069 C 22.160133,31.978069 26.997745,27.140456 26.997745,27.140456 C 18.528582,18.264221 13.291696,25.230495 11.500037,31.436501 z"
             style="fill:#404040;"/>
          </a>
         </g>
        </svg>
</svg>
