<?xml version="1.0" encoding="UTF-8" standalone="no"?>
<!DOCTYPE svg PUBLIC "-//W3C//DTD SVG 1.1//EN"
 "http://www.w3.org/Graphics/SVG/1.1/DTD/svg11.dtd">
<!-- Generated by graphviz version 2.40.1 (20161225.0304)
 -->
<!-- Title: /home/travis/build/AliceO2Group/AliceO2/Detectors/MUON/MCH/Raw/Decoder/src/Debug.h Pages: 1 -->
<svg width="502pt" height="350pt"
 viewBox="0.00 0.00 502.00 350.00" xmlns="http://www.w3.org/2000/svg" xmlns:xlink="http://www.w3.org/1999/xlink">
<g id="graph0" class="graph" transform="scale(1 1) rotate(0) translate(4 346)">
<title>/home/travis/build/AliceO2Group/AliceO2/Detectors/MUON/MCH/Raw/Decoder/src/Debug.h</title>
<!-- Node1 -->
<g id="node1" class="node">
<title>Node1</title>
<polygon fill="#bfbfbf" stroke="#000000" points="119.5,-289.5 119.5,-341.5 269.5,-341.5 269.5,-289.5 119.5,-289.5"/>
<text text-anchor="start" x="127.5" y="-329.5" font-family="Helvetica,sans-Serif" font-size="10.00" fill="#000000">/home/travis/build</text>
<text text-anchor="start" x="127.5" y="-318.5" font-family="Helvetica,sans-Serif" font-size="10.00" fill="#000000">/AliceO2Group/AliceO2</text>
<text text-anchor="start" x="127.5" y="-307.5" font-family="Helvetica,sans-Serif" font-size="10.00" fill="#000000">/Detectors/MUON/MCH/Raw</text>
<text text-anchor="middle" x="194.5" y="-296.5" font-family="Helvetica,sans-Serif" font-size="10.00" fill="#000000">/Decoder/src/Debug.h</text>
</g>
<!-- Node2 -->
<g id="node2" class="node">
<title>Node2</title>
<g id="a_node2"><a xlink:href="../../d7/d50/DecoderLogic_8cxx.html" target="_top" xlink:title="/home/travis/build\l/AliceO2Group/AliceO2\l/Detectors/MUON/MCH/Raw\l/Decoder/src/DecoderLogic.cxx">
<polygon fill="none" stroke="#000000" points="0,-200.5 0,-252.5 167,-252.5 167,-200.5 0,-200.5"/>
<text text-anchor="start" x="8" y="-240.5" font-family="Helvetica,sans-Serif" font-size="10.00" fill="#000000">/home/travis/build</text>
<text text-anchor="start" x="8" y="-229.5" font-family="Helvetica,sans-Serif" font-size="10.00" fill="#000000">/AliceO2Group/AliceO2</text>
<text text-anchor="start" x="8" y="-218.5" font-family="Helvetica,sans-Serif" font-size="10.00" fill="#000000">/Detectors/MUON/MCH/Raw</text>
<text text-anchor="middle" x="83.5" y="-207.5" font-family="Helvetica,sans-Serif" font-size="10.00" fill="#000000">/Decoder/src/DecoderLogic.cxx</text>
</a>
</g>
</g>
<!-- Node1&#45;&gt;Node2 -->
<g id="edge1" class="edge">
<title>Node1&#45;&gt;Node2</title>
<path fill="none" stroke="#191970" d="M153.7931,-282.8612C141.3345,-272.8718 127.803,-262.0222 115.9696,-252.5341"/>
<polygon fill="#191970" stroke="#191970" points="151.8054,-285.7535 161.7967,-289.2784 156.1843,-280.2922 151.8054,-285.7535"/>
</g>
<!-- Node3 -->
<g id="node3" class="node">
<title>Node3</title>
<g id="a_node3"><a xlink:href="../../db/de7/UserLogicElinkDecoder_8h.html" target="_top" xlink:title="/home/travis/build\l/AliceO2Group/AliceO2\l/Detectors/MUON/MCH/Raw\l/Decoder/src/UserLogicElinkDecoder.h">
<polygon fill="none" stroke="#000000" points="223,-200.5 223,-252.5 424,-252.5 424,-200.5 223,-200.5"/>
<text text-anchor="start" x="231" y="-240.5" font-family="Helvetica,sans-Serif" font-size="10.00" fill="#000000">/home/travis/build</text>
<text text-anchor="start" x="231" y="-229.5" font-family="Helvetica,sans-Serif" font-size="10.00" fill="#000000">/AliceO2Group/AliceO2</text>
<text text-anchor="start" x="231" y="-218.5" font-family="Helvetica,sans-Serif" font-size="10.00" fill="#000000">/Detectors/MUON/MCH/Raw</text>
<text text-anchor="middle" x="323.5" y="-207.5" font-family="Helvetica,sans-Serif" font-size="10.00" fill="#000000">/Decoder/src/UserLogicElinkDecoder.h</text>
</a>
</g>
</g>
<!-- Node1&#45;&gt;Node3 -->
<g id="edge2" class="edge">
<title>Node1&#45;&gt;Node3</title>
<path fill="none" stroke="#191970" d="M240.982,-283.431C255.6871,-273.2856 271.7508,-262.203 285.7651,-252.5341"/>
<polygon fill="#191970" stroke="#191970" points="238.7501,-280.7187 232.5065,-289.2784 242.7253,-286.4805 238.7501,-280.7187"/>
</g>
<!-- Node4 -->
<g id="node4" class="node">
<title>Node4</title>
<g id="a_node4"><a xlink:href="../../db/d18/UserLogicEndpointDecoder_8h.html" target="_top" xlink:title="/home/travis/build\l/AliceO2Group/AliceO2\l/Detectors/MUON/MCH/Raw\l/Decoder/src/UserLogicEndpointDecoder.h">
<polygon fill="none" stroke="#000000" points="84.5,-106 84.5,-158 304.5,-158 304.5,-106 84.5,-106"/>
<text text-anchor="start" x="92.5" y="-146" font-family="Helvetica,sans-Serif" font-size="10.00" fill="#000000">/home/travis/build</text>
<text text-anchor="start" x="92.5" y="-135" font-family="Helvetica,sans-Serif" font-size="10.00" fill="#000000">/AliceO2Group/AliceO2</text>
<text text-anchor="start" x="92.5" y="-124" font-family="Helvetica,sans-Serif" font-size="10.00" fill="#000000">/Detectors/MUON/MCH/Raw</text>
<text text-anchor="middle" x="194.5" y="-113" font-family="Helvetica,sans-Serif" font-size="10.00" fill="#000000">/Decoder/src/UserLogicEndpointDecoder.h</text>
</a>
</g>
</g>
<!-- Node1&#45;&gt;Node4 -->
<g id="edge7" class="edge">
<title>Node1&#45;&gt;Node4</title>
<path fill="none" stroke="#191970" d="M194.5,-279.2071C194.5,-243.5371 194.5,-189.9692 194.5,-158.2423"/>
<polygon fill="#191970" stroke="#191970" points="191.0001,-279.2089 194.5,-289.2089 198.0001,-279.209 191.0001,-279.2089"/>
</g>
<!-- Node3&#45;&gt;Node4 -->
<g id="edge3" class="edge">
<title>Node3&#45;&gt;Node4</title>
<path fill="none" stroke="#191970" d="M279.7151,-194.425C263.6665,-182.6685 245.7037,-169.5097 230.423,-158.3157"/>
<polygon fill="#191970" stroke="#191970" points="277.7733,-197.3412 287.9087,-200.4273 281.91,-191.6942 277.7733,-197.3412"/>
</g>
<!-- Node7 -->
<g id="node7" class="node">
<title>Node7</title>
<g id="a_node7"><a xlink:href="../../d5/d93/testUserLogicElinkDecoder_8cxx.html" target="_top" xlink:title="/home/travis/build\l/AliceO2Group/AliceO2\l/Detectors/MUON/MCH/Raw\l/Decoder/src/testUserLogicElink\lDecoder.cxx">
<polygon fill="none" stroke="#000000" points="323,-100.5 323,-163.5 494,-163.5 494,-100.5 323,-100.5"/>
<text text-anchor="start" x="331" y="-151.5" font-family="Helvetica,sans-Serif" font-size="10.00" fill="#000000">/home/travis/build</text>
<text text-anchor="start" x="331" y="-140.5" font-family="Helvetica,sans-Serif" font-size="10.00" fill="#000000">/AliceO2Group/AliceO2</text>
<text text-anchor="start" x="331" y="-129.5" font-family="Helvetica,sans-Serif" font-size="10.00" fill="#000000">/Detectors/MUON/MCH/Raw</text>
<text text-anchor="start" x="331" y="-118.5" font-family="Helvetica,sans-Serif" font-size="10.00" fill="#000000">/Decoder/src/testUserLogicElink</text>
<text text-anchor="middle" x="408.5" y="-107.5" font-family="Helvetica,sans-Serif" font-size="10.00" fill="#000000">Decoder.cxx</text>
</a>
</g>
</g>
<!-- Node3&#45;&gt;Node7 -->
<g id="edge6" class="edge">
<title>Node3&#45;&gt;Node7</title>
<path fill="none" stroke="#191970" d="M353.8918,-192.7114C362.3911,-183.2622 371.5953,-173.0294 379.982,-163.7054"/>
<polygon fill="#191970" stroke="#191970" points="351.0369,-190.6518 346.9516,-200.4273 356.2414,-195.333 351.0369,-190.6518"/>
</g>
<!-- Node5 -->
<g id="node5" class="node">
<title>Node5</title>
<g id="a_node5"><a xlink:href="../../df/dcf/PageDecoder_8cxx.html" target="_top" xlink:title="/home/travis/build\l/AliceO2Group/AliceO2\l/Detectors/MUON/MCH/Raw\l/Decoder/src/PageDecoder.cxx">
<polygon fill="none" stroke="#000000" points="15.5,-6 15.5,-58 179.5,-58 179.5,-6 15.5,-6"/>
<text text-anchor="start" x="23.5" y="-46" font-family="Helvetica,sans-Serif" font-size="10.00" fill="#000000">/home/travis/build</text>
<text text-anchor="start" x="23.5" y="-35" font-family="Helvetica,sans-Serif" font-size="10.00" fill="#000000">/AliceO2Group/AliceO2</text>
<text text-anchor="start" x="23.5" y="-24" font-family="Helvetica,sans-Serif" font-size="10.00" fill="#000000">/Detectors/MUON/MCH/Raw</text>
<text text-anchor="middle" x="97.5" y="-13" font-family="Helvetica,sans-Serif" font-size="10.00" fill="#000000">/Decoder/src/PageDecoder.cxx</text>
</a>
</g>
</g>
<!-- Node4&#45;&gt;Node5 -->
<g id="edge4" class="edge">
<title>Node4&#45;&gt;Node5</title>
<path fill="none" stroke="#191970" d="M161.997,-98.4917C149.2712,-85.3723 134.8906,-70.5471 122.943,-58.2299"/>
<polygon fill="#191970" stroke="#191970" points="159.7927,-101.2462 169.2676,-105.9872 164.8173,-96.3724 159.7927,-101.2462"/>
</g>
<!-- Node6 -->
<g id="node6" class="node">
<title>Node6</title>
<g id="a_node6"><a xlink:href="../../d8/dcb/testUserLogicEndpointDecoder_8cxx.html" target="_top" xlink:title="/home/travis/build\l/AliceO2Group/AliceO2\l/Detectors/MUON/MCH/Raw\l/Decoder/src/testUserLogicEndpoint\lDecoder.cxx">
<polygon fill="none" stroke="#000000" points="197.5,-.5 197.5,-63.5 387.5,-63.5 387.5,-.5 197.5,-.5"/>
<text text-anchor="start" x="205.5" y="-51.5" font-family="Helvetica,sans-Serif" font-size="10.00" fill="#000000">/home/travis/build</text>
<text text-anchor="start" x="205.5" y="-40.5" font-family="Helvetica,sans-Serif" font-size="10.00" fill="#000000">/AliceO2Group/AliceO2</text>
<text text-anchor="start" x="205.5" y="-29.5" font-family="Helvetica,sans-Serif" font-size="10.00" fill="#000000">/Detectors/MUON/MCH/Raw</text>
<text text-anchor="start" x="205.5" y="-18.5" font-family="Helvetica,sans-Serif" font-size="10.00" fill="#000000">/Decoder/src/testUserLogicEndpoint</text>
<text text-anchor="middle" x="292.5" y="-7.5" font-family="Helvetica,sans-Serif" font-size="10.00" fill="#000000">Decoder.cxx</text>
</a>
</g>
</g>
<!-- Node4&#45;&gt;Node6 -->
<g id="edge5" class="edge">
<title>Node4&#45;&gt;Node6</title>
<path fill="none" stroke="#191970" d="M227.0801,-98.755C238.187,-87.4214 250.5668,-74.789 261.5426,-63.5891"/>
<polygon fill="#191970" stroke="#191970" points="224.4921,-96.3953 219.9925,-105.9872 229.4916,-101.2948 224.4921,-96.3953"/>
</g>
</g>
</svg>
