<?xml version="1.0" encoding="UTF-8" standalone="no"?>
<!DOCTYPE svg PUBLIC "-//W3C//DTD SVG 1.1//EN"
 "http://www.w3.org/Graphics/SVG/1.1/DTD/svg11.dtd">
<!-- Generated by graphviz version 2.40.1 (20161225.0304)
 -->
<!-- Title: /home/travis/build/AliceO2Group/AliceO2/Detectors/MUON/MCH/Raw/Common/include/MCHRawCommon/SampaHeader.h Pages: 1 -->
<svg width="2485pt" height="372pt"
 viewBox="0.00 0.00 2485.00 372.00" xmlns="http://www.w3.org/2000/svg" xmlns:xlink="http://www.w3.org/1999/xlink">
<g id="graph0" class="graph" transform="scale(1 1) rotate(0) translate(4 368)">
<title>/home/travis/build/AliceO2Group/AliceO2/Detectors/MUON/MCH/Raw/Common/include/MCHRawCommon/SampaHeader.h</title>
<!-- Node3 -->
<g id="node1" class="node">
<title>Node3</title>
<polygon fill="#bfbfbf" stroke="#000000" points="1296,-300.5 1296,-363.5 1489,-363.5 1489,-300.5 1296,-300.5"/>
<text text-anchor="start" x="1304" y="-351.5" font-family="Helvetica,sans-Serif" font-size="10.00" fill="#000000">/home/travis/build</text>
<text text-anchor="start" x="1304" y="-340.5" font-family="Helvetica,sans-Serif" font-size="10.00" fill="#000000">/AliceO2Group/AliceO2</text>
<text text-anchor="start" x="1304" y="-329.5" font-family="Helvetica,sans-Serif" font-size="10.00" fill="#000000">/Detectors/MUON/MCH/Raw</text>
<text text-anchor="start" x="1304" y="-318.5" font-family="Helvetica,sans-Serif" font-size="10.00" fill="#000000">/Common/include/MCHRawCommon</text>
<text text-anchor="middle" x="1392.5" y="-307.5" font-family="Helvetica,sans-Serif" font-size="10.00" fill="#000000">/SampaHeader.h</text>
</g>
<!-- Node4 -->
<g id="node2" class="node">
<title>Node4</title>
<g id="a_node2"><a xlink:href="../../d1/d5b/SampaHeader_8cxx.html" target="_top" xlink:title="/home/travis/build\l/AliceO2Group/AliceO2\l/Detectors/MUON/MCH/Raw\l/Common/src/SampaHeader.cxx">
<polygon fill="none" stroke="#000000" points="0,-206 0,-258 173,-258 173,-206 0,-206"/>
<text text-anchor="start" x="8" y="-246" font-family="Helvetica,sans-Serif" font-size="10.00" fill="#000000">/home/travis/build</text>
<text text-anchor="start" x="8" y="-235" font-family="Helvetica,sans-Serif" font-size="10.00" fill="#000000">/AliceO2Group/AliceO2</text>
<text text-anchor="start" x="8" y="-224" font-family="Helvetica,sans-Serif" font-size="10.00" fill="#000000">/Detectors/MUON/MCH/Raw</text>
<text text-anchor="middle" x="86.5" y="-213" font-family="Helvetica,sans-Serif" font-size="10.00" fill="#000000">/Common/src/SampaHeader.cxx</text>
</a>
</g>
</g>
<!-- Node3&#45;&gt;Node4 -->
<g id="edge1" class="edge">
<title>Node3&#45;&gt;Node4</title>
<path fill="none" stroke="#191970" d="M1285.9631,-329.6355C1031.2106,-323.3973 392.4224,-304.1426 182.5,-264 174.3899,-262.4491 166.0219,-260.3891 157.764,-258.0592"/>
<polygon fill="#191970" stroke="#191970" points="1285.8837,-333.1345 1295.9658,-329.8786 1286.0538,-326.1366 1285.8837,-333.1345"/>
</g>
<!-- Node5 -->
<g id="node3" class="node">
<title>Node5</title>
<g id="a_node3"><a xlink:href="../../d7/df6/benchSampaHeader_8cxx.html" target="_top" xlink:title="/home/travis/build\l/AliceO2Group/AliceO2\l/Detectors/MUON/MCH/Raw\l/Common/test/benchSampaHeader.cxx">
<polygon fill="none" stroke="#000000" points="191.5,-206 191.5,-258 397.5,-258 397.5,-206 191.5,-206"/>
<text text-anchor="start" x="199.5" y="-246" font-family="Helvetica,sans-Serif" font-size="10.00" fill="#000000">/home/travis/build</text>
<text text-anchor="start" x="199.5" y="-235" font-family="Helvetica,sans-Serif" font-size="10.00" fill="#000000">/AliceO2Group/AliceO2</text>
<text text-anchor="start" x="199.5" y="-224" font-family="Helvetica,sans-Serif" font-size="10.00" fill="#000000">/Detectors/MUON/MCH/Raw</text>
<text text-anchor="middle" x="294.5" y="-213" font-family="Helvetica,sans-Serif" font-size="10.00" fill="#000000">/Common/test/benchSampaHeader.cxx</text>
</a>
</g>
</g>
<!-- Node3&#45;&gt;Node5 -->
<g id="edge2" class="edge">
<title>Node3&#45;&gt;Node5</title>
<path fill="none" stroke="#191970" d="M1285.6337,-327.462C1066.4948,-317.6917 572.868,-293.1714 406.5,-264 397.3374,-262.3934 387.8514,-260.331 378.4541,-258.0284"/>
<polygon fill="#191970" stroke="#191970" points="1285.7136,-330.9689 1295.859,-327.916 1286.0242,-323.9758 1285.7136,-330.9689"/>
</g>
<!-- Node6 -->
<g id="node4" class="node">
<title>Node6</title>
<g id="a_node4"><a xlink:href="../../d8/db1/testSampaHeader_8cxx.html" target="_top" xlink:title="/home/travis/build\l/AliceO2Group/AliceO2\l/Detectors/MUON/MCH/Raw\l/Common/test/testSampaHeader.cxx">
<polygon fill="none" stroke="#000000" points="415.5,-206 415.5,-258 611.5,-258 611.5,-206 415.5,-206"/>
<text text-anchor="start" x="423.5" y="-246" font-family="Helvetica,sans-Serif" font-size="10.00" fill="#000000">/home/travis/build</text>
<text text-anchor="start" x="423.5" y="-235" font-family="Helvetica,sans-Serif" font-size="10.00" fill="#000000">/AliceO2Group/AliceO2</text>
<text text-anchor="start" x="423.5" y="-224" font-family="Helvetica,sans-Serif" font-size="10.00" fill="#000000">/Detectors/MUON/MCH/Raw</text>
<text text-anchor="middle" x="513.5" y="-213" font-family="Helvetica,sans-Serif" font-size="10.00" fill="#000000">/Common/test/testSampaHeader.cxx</text>
</a>
</g>
</g>
<!-- Node3&#45;&gt;Node6 -->
<g id="edge3" class="edge">
<title>Node3&#45;&gt;Node6</title>
<path fill="none" stroke="#191970" d="M1285.838,-329.426C1136.0165,-324.2697 855.2791,-308.9647 620.5,-264 611.9305,-262.3588 603.0676,-260.3058 594.2791,-258.0365"/>
<polygon fill="#191970" stroke="#191970" points="1285.8441,-332.9281 1295.9559,-329.7656 1286.0789,-325.932 1285.8441,-332.9281"/>
</g>
<!-- Node7 -->
<g id="node5" class="node">
<title>Node7</title>
<g id="a_node5"><a xlink:href="../../d7/ddc/BareElinkDecoder_8h.html" target="_top" xlink:title="/home/travis/build\l/AliceO2Group/AliceO2\l/Detectors/MUON/MCH/Raw\l/Decoder/src/BareElinkDecoder.h">
<polygon fill="none" stroke="#000000" points="629.5,-206 629.5,-258 805.5,-258 805.5,-206 629.5,-206"/>
<text text-anchor="start" x="637.5" y="-246" font-family="Helvetica,sans-Serif" font-size="10.00" fill="#000000">/home/travis/build</text>
<text text-anchor="start" x="637.5" y="-235" font-family="Helvetica,sans-Serif" font-size="10.00" fill="#000000">/AliceO2Group/AliceO2</text>
<text text-anchor="start" x="637.5" y="-224" font-family="Helvetica,sans-Serif" font-size="10.00" fill="#000000">/Detectors/MUON/MCH/Raw</text>
<text text-anchor="middle" x="717.5" y="-213" font-family="Helvetica,sans-Serif" font-size="10.00" fill="#000000">/Decoder/src/BareElinkDecoder.h</text>
</a>
</g>
</g>
<!-- Node3&#45;&gt;Node7 -->
<g id="edge4" class="edge">
<title>Node3&#45;&gt;Node7</title>
<path fill="none" stroke="#191970" d="M1285.8666,-325.9119C1169.0638,-317.7513 976.7374,-299.9187 814.5,-264 806.882,-262.3134 799.0171,-260.2612 791.2154,-258.019"/>
<polygon fill="#191970" stroke="#191970" points="1285.6678,-329.4064 1295.8845,-326.601 1286.1483,-322.4229 1285.6678,-329.4064"/>
</g>
<!-- Node12 -->
<g id="node10" class="node">
<title>Node12</title>
<g id="a_node10"><a xlink:href="../../d7/d1c/DecoderLogic_8h.html" target="_top" xlink:title="/home/travis/build\l/AliceO2Group/AliceO2\l/Detectors/MUON/MCH/Raw\l/Decoder/src/DecoderLogic.h">
<polygon fill="none" stroke="#000000" points="1948,-206 1948,-258 2103,-258 2103,-206 1948,-206"/>
<text text-anchor="start" x="1956" y="-246" font-family="Helvetica,sans-Serif" font-size="10.00" fill="#000000">/home/travis/build</text>
<text text-anchor="start" x="1956" y="-235" font-family="Helvetica,sans-Serif" font-size="10.00" fill="#000000">/AliceO2Group/AliceO2</text>
<text text-anchor="start" x="1956" y="-224" font-family="Helvetica,sans-Serif" font-size="10.00" fill="#000000">/Detectors/MUON/MCH/Raw</text>
<text text-anchor="middle" x="2025.5" y="-213" font-family="Helvetica,sans-Serif" font-size="10.00" fill="#000000">/Decoder/src/DecoderLogic.h</text>
</a>
</g>
</g>
<!-- Node3&#45;&gt;Node12 -->
<g id="edge9" class="edge">
<title>Node3&#45;&gt;Node12</title>
<path fill="none" stroke="#191970" d="M1499.4546,-325.2006C1609.4388,-316.665 1785.1261,-298.7231 1933.5,-264 1940.745,-262.3045 1948.2173,-260.2465 1955.6248,-258.0007"/>
<polygon fill="#191970" stroke="#191970" points="1499.0532,-321.7209 1489.3489,-325.9727 1499.5865,-328.7006 1499.0532,-321.7209"/>
</g>
<!-- Node14 -->
<g id="node12" class="node">
<title>Node14</title>
<g id="a_node12"><a xlink:href="../../db/de7/UserLogicElinkDecoder_8h.html" target="_top" xlink:title="/home/travis/build\l/AliceO2Group/AliceO2\l/Detectors/MUON/MCH/Raw\l/Decoder/src/UserLogicElinkDecoder.h">
<polygon fill="none" stroke="#000000" points="824,-206 824,-258 1025,-258 1025,-206 824,-206"/>
<text text-anchor="start" x="832" y="-246" font-family="Helvetica,sans-Serif" font-size="10.00" fill="#000000">/home/travis/build</text>
<text text-anchor="start" x="832" y="-235" font-family="Helvetica,sans-Serif" font-size="10.00" fill="#000000">/AliceO2Group/AliceO2</text>
<text text-anchor="start" x="832" y="-224" font-family="Helvetica,sans-Serif" font-size="10.00" fill="#000000">/Detectors/MUON/MCH/Raw</text>
<text text-anchor="middle" x="924.5" y="-213" font-family="Helvetica,sans-Serif" font-size="10.00" fill="#000000">/Decoder/src/UserLogicElinkDecoder.h</text>
</a>
</g>
</g>
<!-- Node3&#45;&gt;Node14 -->
<g id="edge11" class="edge">
<title>Node3&#45;&gt;Node14</title>
<path fill="none" stroke="#191970" d="M1285.5997,-313.7361C1215.3475,-301.1619 1121.5844,-283.2931 1039.5,-264 1031.6321,-262.1507 1023.4925,-260.1222 1015.3465,-258.0121"/>
<polygon fill="#191970" stroke="#191970" points="1285.3309,-317.2433 1295.7899,-315.5524 1286.5593,-310.3519 1285.3309,-317.2433"/>
</g>
<!-- Node16 -->
<g id="node14" class="node">
<title>Node16</title>
<g id="a_node14"><a xlink:href="../../d8/dcb/testUserLogicEndpointDecoder_8cxx.html" target="_top" xlink:title="/home/travis/build\l/AliceO2Group/AliceO2\l/Detectors/MUON/MCH/Raw\l/Decoder/src/testUserLogicEndpoint\lDecoder.cxx">
<polygon fill="none" stroke="#000000" points="1023.5,-.5 1023.5,-63.5 1213.5,-63.5 1213.5,-.5 1023.5,-.5"/>
<text text-anchor="start" x="1031.5" y="-51.5" font-family="Helvetica,sans-Serif" font-size="10.00" fill="#000000">/home/travis/build</text>
<text text-anchor="start" x="1031.5" y="-40.5" font-family="Helvetica,sans-Serif" font-size="10.00" fill="#000000">/AliceO2Group/AliceO2</text>
<text text-anchor="start" x="1031.5" y="-29.5" font-family="Helvetica,sans-Serif" font-size="10.00" fill="#000000">/Detectors/MUON/MCH/Raw</text>
<text text-anchor="start" x="1031.5" y="-18.5" font-family="Helvetica,sans-Serif" font-size="10.00" fill="#000000">/Decoder/src/testUserLogicEndpoint</text>
<text text-anchor="middle" x="1118.5" y="-7.5" font-family="Helvetica,sans-Serif" font-size="10.00" fill="#000000">Decoder.cxx</text>
</a>
</g>
</g>
<!-- Node3&#45;&gt;Node16 -->
<g id="edge17" class="edge">
<title>Node3&#45;&gt;Node16</title>
<path fill="none" stroke="#191970" d="M1402.1522,-290.3957C1411.3474,-239.4075 1417.9792,-153.2432 1373.5,-100 1352.7541,-75.1664 1277.2703,-57.0354 1213.7685,-45.7708"/>
<polygon fill="#191970" stroke="#191970" points="1398.6776,-289.9305 1400.231,-300.4109 1405.5523,-291.2493 1398.6776,-289.9305"/>
</g>
<!-- Node17 -->
<g id="node15" class="node">
<title>Node17</title>
<g id="a_node15"><a xlink:href="../../d5/d93/testUserLogicElinkDecoder_8cxx.html" target="_top" xlink:title="/home/travis/build\l/AliceO2Group/AliceO2\l/Detectors/MUON/MCH/Raw\l/Decoder/src/testUserLogicElink\lDecoder.cxx">
<polygon fill="none" stroke="#000000" points="751,-100.5 751,-163.5 922,-163.5 922,-100.5 751,-100.5"/>
<text text-anchor="start" x="759" y="-151.5" font-family="Helvetica,sans-Serif" font-size="10.00" fill="#000000">/home/travis/build</text>
<text text-anchor="start" x="759" y="-140.5" font-family="Helvetica,sans-Serif" font-size="10.00" fill="#000000">/AliceO2Group/AliceO2</text>
<text text-anchor="start" x="759" y="-129.5" font-family="Helvetica,sans-Serif" font-size="10.00" fill="#000000">/Detectors/MUON/MCH/Raw</text>
<text text-anchor="start" x="759" y="-118.5" font-family="Helvetica,sans-Serif" font-size="10.00" fill="#000000">/Decoder/src/testUserLogicElink</text>
<text text-anchor="middle" x="836.5" y="-107.5" font-family="Helvetica,sans-Serif" font-size="10.00" fill="#000000">Decoder.cxx</text>
</a>
</g>
</g>
<!-- Node3&#45;&gt;Node17 -->
<g id="edge16" class="edge">
<title>Node3&#45;&gt;Node17</title>
<path fill="none" stroke="#191970" d="M1285.942,-318.5751C1206.6419,-306.9029 1106.4975,-288.0893 1072.5,-264 1045.3215,-244.7423 1059.4437,-220.8915 1033.5,-200 1031.0738,-198.0463 974.2199,-178.5066 922.2144,-160.8722"/>
<polygon fill="#191970" stroke="#191970" points="1285.5968,-322.0616 1295.9957,-320.0334 1286.6017,-315.1341 1285.5968,-322.0616"/>
</g>
<!-- Node18 -->
<g id="node16" class="node">
<title>Node18</title>
<g id="a_node16"><a xlink:href="../../df/d23/BareElinkEncoder_8h.html" target="_top" xlink:title="/home/travis/build\l/AliceO2Group/AliceO2\l/Detectors/MUON/MCH/Raw\l/Encoder/Payload/BareElinkEncoder.h">
<polygon fill="none" stroke="#000000" points="1694,-206 1694,-258 1891,-258 1891,-206 1694,-206"/>
<text text-anchor="start" x="1702" y="-246" font-family="Helvetica,sans-Serif" font-size="10.00" fill="#000000">/home/travis/build</text>
<text text-anchor="start" x="1702" y="-235" font-family="Helvetica,sans-Serif" font-size="10.00" fill="#000000">/AliceO2Group/AliceO2</text>
<text text-anchor="start" x="1702" y="-224" font-family="Helvetica,sans-Serif" font-size="10.00" fill="#000000">/Detectors/MUON/MCH/Raw</text>
<text text-anchor="middle" x="1792.5" y="-213" font-family="Helvetica,sans-Serif" font-size="10.00" fill="#000000">/Encoder/Payload/BareElinkEncoder.h</text>
</a>
</g>
</g>
<!-- Node3&#45;&gt;Node18 -->
<g id="edge18" class="edge">
<title>Node3&#45;&gt;Node18</title>
<path fill="none" stroke="#191970" d="M1498.9704,-307.7588C1552.895,-295.2092 1619.3155,-279.3359 1678.5,-264 1685.7633,-262.1179 1693.2728,-260.122 1700.8108,-258.083"/>
<polygon fill="#191970" stroke="#191970" points="1498.0004,-304.3909 1489.0515,-310.0626 1499.5841,-311.2094 1498.0004,-304.3909"/>
</g>
<!-- Node20 -->
<g id="node18" class="node">
<title>Node20</title>
<g id="a_node18"><a xlink:href="../../d7/d33/testBareElinkEncoder_8cxx.html" target="_top" xlink:title="/home/travis/build\l/AliceO2Group/AliceO2\l/Detectors/MUON/MCH/Raw\l/Encoder/Payload/testBareElinkEncoder.cxx">
<polygon fill="none" stroke="#000000" points="1989,-106 1989,-158 2216,-158 2216,-106 1989,-106"/>
<text text-anchor="start" x="1997" y="-146" font-family="Helvetica,sans-Serif" font-size="10.00" fill="#000000">/home/travis/build</text>
<text text-anchor="start" x="1997" y="-135" font-family="Helvetica,sans-Serif" font-size="10.00" fill="#000000">/AliceO2Group/AliceO2</text>
<text text-anchor="start" x="1997" y="-124" font-family="Helvetica,sans-Serif" font-size="10.00" fill="#000000">/Detectors/MUON/MCH/Raw</text>
<text text-anchor="middle" x="2102.5" y="-113" font-family="Helvetica,sans-Serif" font-size="10.00" fill="#000000">/Encoder/Payload/testBareElinkEncoder.cxx</text>
</a>
</g>
</g>
<!-- Node3&#45;&gt;Node20 -->
<g id="edge32" class="edge">
<title>Node3&#45;&gt;Node20</title>
<path fill="none" stroke="#191970" d="M1499.5163,-328.3737C1628.6181,-322.1855 1836.3404,-305.8787 1900.5,-264 1928.3934,-245.7932 1914.2256,-221.6964 1939.5,-200 1960.4392,-182.0251 1986.8017,-168.2843 2012.1863,-158.022"/>
<polygon fill="#191970" stroke="#191970" points="1499.0311,-324.8924 1489.205,-328.8545 1499.3572,-331.8848 1499.0311,-324.8924"/>
</g>
<!-- Node21 -->
<g id="node19" class="node">
<title>Node21</title>
<g id="a_node19"><a xlink:href="../../d4/df7/testElinkEncoder_8cxx.html" target="_top" xlink:title="/home/travis/build\l/AliceO2Group/AliceO2\l/Detectors/MUON/MCH/Raw\l/Encoder/Payload/testElinkEncoder.cxx">
<polygon fill="none" stroke="#000000" points="1690.5,-106 1690.5,-158 1894.5,-158 1894.5,-106 1690.5,-106"/>
<text text-anchor="start" x="1698.5" y="-146" font-family="Helvetica,sans-Serif" font-size="10.00" fill="#000000">/home/travis/build</text>
<text text-anchor="start" x="1698.5" y="-135" font-family="Helvetica,sans-Serif" font-size="10.00" fill="#000000">/AliceO2Group/AliceO2</text>
<text text-anchor="start" x="1698.5" y="-124" font-family="Helvetica,sans-Serif" font-size="10.00" fill="#000000">/Detectors/MUON/MCH/Raw</text>
<text text-anchor="middle" x="1792.5" y="-113" font-family="Helvetica,sans-Serif" font-size="10.00" fill="#000000">/Encoder/Payload/testElinkEncoder.cxx</text>
</a>
</g>
</g>
<!-- Node3&#45;&gt;Node21 -->
<g id="edge33" class="edge">
<title>Node3&#45;&gt;Node21</title>
<path fill="none" stroke="#191970" d="M1499.1667,-320.3342C1546.5391,-311.0048 1600.8678,-294.2151 1642.5,-264 1670.035,-244.0161 1660.217,-223.8299 1684.5,-200 1701.1049,-183.7049 1722.2573,-169.3374 1741.4333,-158.0575"/>
<polygon fill="#191970" stroke="#191970" points="1498.3515,-316.9261 1489.1706,-322.2139 1499.6452,-323.8055 1498.3515,-316.9261"/>
</g>
<!-- Node23 -->
<g id="node21" class="node">
<title>Node23</title>
<g id="a_node21"><a xlink:href="../../dd/d12/BitSet_8cxx.html" target="_top" xlink:title="/home/travis/build\l/AliceO2Group/AliceO2\l/Detectors/MUON/MCH/Raw\l/Encoder/Payload/BitSet.cxx">
<polygon fill="none" stroke="#000000" points="2121.5,-206 2121.5,-258 2273.5,-258 2273.5,-206 2121.5,-206"/>
<text text-anchor="start" x="2129.5" y="-246" font-family="Helvetica,sans-Serif" font-size="10.00" fill="#000000">/home/travis/build</text>
<text text-anchor="start" x="2129.5" y="-235" font-family="Helvetica,sans-Serif" font-size="10.00" fill="#000000">/AliceO2Group/AliceO2</text>
<text text-anchor="start" x="2129.5" y="-224" font-family="Helvetica,sans-Serif" font-size="10.00" fill="#000000">/Detectors/MUON/MCH/Raw</text>
<text text-anchor="middle" x="2197.5" y="-213" font-family="Helvetica,sans-Serif" font-size="10.00" fill="#000000">/Encoder/Payload/BitSet.cxx</text>
</a>
</g>
</g>
<!-- Node3&#45;&gt;Node23 -->
<g id="edge23" class="edge">
<title>Node3&#45;&gt;Node23</title>
<path fill="none" stroke="#191970" d="M1499.2574,-325.411C1670.4773,-314.2548 1998.7793,-290.2808 2112.5,-264 2119.4134,-262.4023 2126.5228,-260.3775 2133.5455,-258.1252"/>
<polygon fill="#191970" stroke="#191970" points="1498.9675,-321.9223 1489.2151,-326.0623 1499.4207,-328.9077 1498.9675,-321.9223"/>
</g>
<!-- Node24 -->
<g id="node22" class="node">
<title>Node24</title>
<g id="a_node22"><a xlink:href="../../d5/d1a/ElinkEncoder_8cxx.html" target="_top" xlink:title="/home/travis/build\l/AliceO2Group/AliceO2\l/Detectors/MUON/MCH/Raw\l/Encoder/Payload/ElinkEncoder.cxx">
<polygon fill="none" stroke="#000000" points="2292,-206 2292,-258 2477,-258 2477,-206 2292,-206"/>
<text text-anchor="start" x="2300" y="-246" font-family="Helvetica,sans-Serif" font-size="10.00" fill="#000000">/home/travis/build</text>
<text text-anchor="start" x="2300" y="-235" font-family="Helvetica,sans-Serif" font-size="10.00" fill="#000000">/AliceO2Group/AliceO2</text>
<text text-anchor="start" x="2300" y="-224" font-family="Helvetica,sans-Serif" font-size="10.00" fill="#000000">/Detectors/MUON/MCH/Raw</text>
<text text-anchor="middle" x="2384.5" y="-213" font-family="Helvetica,sans-Serif" font-size="10.00" fill="#000000">/Encoder/Payload/ElinkEncoder.cxx</text>
</a>
</g>
</g>
<!-- Node3&#45;&gt;Node24 -->
<g id="edge24" class="edge">
<title>Node3&#45;&gt;Node24</title>
<path fill="none" stroke="#191970" d="M1499.0812,-326.9031C1701.6572,-316.7118 2135.1927,-292.3498 2282.5,-264 2290.8835,-262.3866 2299.5474,-260.3198 2308.1205,-258.0146"/>
<polygon fill="#191970" stroke="#191970" points="1498.8339,-323.411 1489.0216,-327.4071 1499.1842,-330.4022 1498.8339,-323.411"/>
</g>
<!-- Node25 -->
<g id="node23" class="node">
<title>Node25</title>
<g id="a_node23"><a xlink:href="../../d8/d97/UserLogicElinkEncoder_8h.html" target="_top" xlink:title="/home/travis/build\l/AliceO2Group/AliceO2\l/Detectors/MUON/MCH/Raw\l/Encoder/Payload/UserLogicElink\lEncoder.h">
<polygon fill="none" stroke="#000000" points="1459,-200.5 1459,-263.5 1634,-263.5 1634,-200.5 1459,-200.5"/>
<text text-anchor="start" x="1467" y="-251.5" font-family="Helvetica,sans-Serif" font-size="10.00" fill="#000000">/home/travis/build</text>
<text text-anchor="start" x="1467" y="-240.5" font-family="Helvetica,sans-Serif" font-size="10.00" fill="#000000">/AliceO2Group/AliceO2</text>
<text text-anchor="start" x="1467" y="-229.5" font-family="Helvetica,sans-Serif" font-size="10.00" fill="#000000">/Detectors/MUON/MCH/Raw</text>
<text text-anchor="start" x="1467" y="-218.5" font-family="Helvetica,sans-Serif" font-size="10.00" fill="#000000">/Encoder/Payload/UserLogicElink</text>
<text text-anchor="middle" x="1546.5" y="-207.5" font-family="Helvetica,sans-Serif" font-size="10.00" fill="#000000">Encoder.h</text>
</a>
</g>
</g>
<!-- Node3&#45;&gt;Node25 -->
<g id="edge25" class="edge">
<title>Node3&#45;&gt;Node25</title>
<path fill="none" stroke="#191970" d="M1449.8525,-294.7581C1465.6307,-284.5126 1482.5884,-273.5011 1497.8263,-263.6063"/>
<polygon fill="#191970" stroke="#191970" points="1447.7074,-291.9778 1441.2266,-300.3594 1451.5196,-297.8487 1447.7074,-291.9778"/>
</g>
<!-- Node27 -->
<g id="node25" class="node">
<title>Node27</title>
<g id="a_node25"><a xlink:href="../../d1/d53/DumpBuffer_8h.html" target="_top" xlink:title="/home/travis/build\l/AliceO2Group/AliceO2\l/Detectors/MUON/MCH/Raw\l/ImplHelpers/DumpBuffer.h">
<polygon fill="none" stroke="#000000" points="1081.5,-206 1081.5,-258 1231.5,-258 1231.5,-206 1081.5,-206"/>
<text text-anchor="start" x="1089.5" y="-246" font-family="Helvetica,sans-Serif" font-size="10.00" fill="#000000">/home/travis/build</text>
<text text-anchor="start" x="1089.5" y="-235" font-family="Helvetica,sans-Serif" font-size="10.00" fill="#000000">/AliceO2Group/AliceO2</text>
<text text-anchor="start" x="1089.5" y="-224" font-family="Helvetica,sans-Serif" font-size="10.00" fill="#000000">/Detectors/MUON/MCH/Raw</text>
<text text-anchor="middle" x="1156.5" y="-213" font-family="Helvetica,sans-Serif" font-size="10.00" fill="#000000">/ImplHelpers/DumpBuffer.h</text>
</a>
</g>
</g>
<!-- Node3&#45;&gt;Node27 -->
<g id="edge34" class="edge">
<title>Node3&#45;&gt;Node27</title>
<path fill="none" stroke="#191970" d="M1308.5981,-296.4483C1278.795,-283.8199 1245.8173,-269.8463 1218.2088,-258.1478"/>
<polygon fill="#191970" stroke="#191970" points="1307.579,-299.8177 1318.1521,-300.4966 1310.3101,-293.3724 1307.579,-299.8177"/>
</g>
<!-- Node8 -->
<g id="node6" class="node">
<title>Node8</title>
<g id="a_node6"><a xlink:href="../../da/db7/BareGBTDecoder_8h.html" target="_top" xlink:title="/home/travis/build\l/AliceO2Group/AliceO2\l/Detectors/MUON/MCH/Raw\l/Decoder/src/BareGBTDecoder.h">
<polygon fill="none" stroke="#000000" points="98.5,-106 98.5,-158 270.5,-158 270.5,-106 98.5,-106"/>
<text text-anchor="start" x="106.5" y="-146" font-family="Helvetica,sans-Serif" font-size="10.00" fill="#000000">/home/travis/build</text>
<text text-anchor="start" x="106.5" y="-135" font-family="Helvetica,sans-Serif" font-size="10.00" fill="#000000">/AliceO2Group/AliceO2</text>
<text text-anchor="start" x="106.5" y="-124" font-family="Helvetica,sans-Serif" font-size="10.00" fill="#000000">/Detectors/MUON/MCH/Raw</text>
<text text-anchor="middle" x="184.5" y="-113" font-family="Helvetica,sans-Serif" font-size="10.00" fill="#000000">/Decoder/src/BareGBTDecoder.h</text>
</a>
</g>
</g>
<!-- Node7&#45;&gt;Node8 -->
<g id="edge5" class="edge">
<title>Node7&#45;&gt;Node8</title>
<path fill="none" stroke="#191970" d="M634.0679,-203.2338C629.5033,-202.0495 624.96,-200.9596 620.5,-200 471.5115,-167.9453 428.3876,-196.5202 279.5,-164 271.9338,-162.3474 264.1275,-160.3024 256.3931,-158.0514"/>
<polygon fill="#191970" stroke="#191970" points="633.5024,-206.7073 644.0711,-205.9633 635.3452,-199.9542 633.5024,-206.7073"/>
</g>
<!-- Node11 -->
<g id="node9" class="node">
<title>Node11</title>
<g id="a_node9"><a xlink:href="../../d1/d49/testBareElinkDecoder_8cxx.html" target="_top" xlink:title="/home/travis/build\l/AliceO2Group/AliceO2\l/Detectors/MUON/MCH/Raw\l/Decoder/src/testBareElinkDecoder.cxx">
<polygon fill="none" stroke="#000000" points="288.5,-106 288.5,-158 494.5,-158 494.5,-106 288.5,-106"/>
<text text-anchor="start" x="296.5" y="-146" font-family="Helvetica,sans-Serif" font-size="10.00" fill="#000000">/home/travis/build</text>
<text text-anchor="start" x="296.5" y="-135" font-family="Helvetica,sans-Serif" font-size="10.00" fill="#000000">/AliceO2Group/AliceO2</text>
<text text-anchor="start" x="296.5" y="-124" font-family="Helvetica,sans-Serif" font-size="10.00" fill="#000000">/Detectors/MUON/MCH/Raw</text>
<text text-anchor="middle" x="391.5" y="-113" font-family="Helvetica,sans-Serif" font-size="10.00" fill="#000000">/Decoder/src/testBareElinkDecoder.cxx</text>
</a>
</g>
</g>
<!-- Node7&#45;&gt;Node11 -->
<g id="edge8" class="edge">
<title>Node7&#45;&gt;Node11</title>
<path fill="none" stroke="#191970" d="M629.4762,-202.8339C626.4495,-201.8717 623.4507,-200.9246 620.5,-200 574.7905,-185.6773 523.7123,-170.4367 481.4143,-158.0221"/>
<polygon fill="#191970" stroke="#191970" points="628.621,-206.2351 639.212,-205.9496 630.7546,-199.5682 628.621,-206.2351"/>
</g>
<!-- Node9 -->
<g id="node7" class="node">
<title>Node9</title>
<g id="a_node7"><a xlink:href="../../df/dcf/PageDecoder_8cxx.html" target="_top" xlink:title="/home/travis/build\l/AliceO2Group/AliceO2\l/Detectors/MUON/MCH/Raw\l/Decoder/src/PageDecoder.cxx">
<polygon fill="none" stroke="#000000" points="417.5,-6 417.5,-58 581.5,-58 581.5,-6 417.5,-6"/>
<text text-anchor="start" x="425.5" y="-46" font-family="Helvetica,sans-Serif" font-size="10.00" fill="#000000">/home/travis/build</text>
<text text-anchor="start" x="425.5" y="-35" font-family="Helvetica,sans-Serif" font-size="10.00" fill="#000000">/AliceO2Group/AliceO2</text>
<text text-anchor="start" x="425.5" y="-24" font-family="Helvetica,sans-Serif" font-size="10.00" fill="#000000">/Detectors/MUON/MCH/Raw</text>
<text text-anchor="middle" x="499.5" y="-13" font-family="Helvetica,sans-Serif" font-size="10.00" fill="#000000">/Decoder/src/PageDecoder.cxx</text>
</a>
</g>
</g>
<!-- Node8&#45;&gt;Node9 -->
<g id="edge6" class="edge">
<title>Node8&#45;&gt;Node9</title>
<path fill="none" stroke="#191970" d="M270.714,-102.8547C273.6768,-101.8865 276.6121,-100.9325 279.5,-100 324.9615,-85.32 375.9183,-69.528 417.334,-56.8609"/>
<polygon fill="#191970" stroke="#191970" points="269.5908,-99.5396 261.1828,-105.986 271.7756,-106.1899 269.5908,-99.5396"/>
</g>
<!-- Node10 -->
<g id="node8" class="node">
<title>Node10</title>
<g id="a_node8"><a xlink:href="../../d6/d95/testPageDecoder_8cxx.html" target="_top" xlink:title="/home/travis/build\l/AliceO2Group/AliceO2\l/Detectors/MUON/MCH/Raw\l/Decoder/src/testPageDecoder.cxx">
<polygon fill="none" stroke="#000000" points="93.5,-6 93.5,-58 275.5,-58 275.5,-6 93.5,-6"/>
<text text-anchor="start" x="101.5" y="-46" font-family="Helvetica,sans-Serif" font-size="10.00" fill="#000000">/home/travis/build</text>
<text text-anchor="start" x="101.5" y="-35" font-family="Helvetica,sans-Serif" font-size="10.00" fill="#000000">/AliceO2Group/AliceO2</text>
<text text-anchor="start" x="101.5" y="-24" font-family="Helvetica,sans-Serif" font-size="10.00" fill="#000000">/Detectors/MUON/MCH/Raw</text>
<text text-anchor="middle" x="184.5" y="-13" font-family="Helvetica,sans-Serif" font-size="10.00" fill="#000000">/Decoder/src/testPageDecoder.cxx</text>
</a>
</g>
</g>
<!-- Node8&#45;&gt;Node10 -->
<g id="edge7" class="edge">
<title>Node8&#45;&gt;Node10</title>
<path fill="none" stroke="#191970" d="M184.5,-95.8962C184.5,-83.4433 184.5,-69.7413 184.5,-58.2299"/>
<polygon fill="#191970" stroke="#191970" points="181.0001,-95.9872 184.5,-105.9872 188.0001,-95.9873 181.0001,-95.9872"/>
</g>
<!-- Node13 -->
<g id="node11" class="node">
<title>Node13</title>
<g id="a_node11"><a xlink:href="../../d7/d50/DecoderLogic_8cxx.html" target="_top" xlink:title="/home/travis/build\l/AliceO2Group/AliceO2\l/Detectors/MUON/MCH/Raw\l/Decoder/src/DecoderLogic.cxx">
<polygon fill="none" stroke="#000000" points="2234,-106 2234,-158 2401,-158 2401,-106 2234,-106"/>
<text text-anchor="start" x="2242" y="-146" font-family="Helvetica,sans-Serif" font-size="10.00" fill="#000000">/home/travis/build</text>
<text text-anchor="start" x="2242" y="-135" font-family="Helvetica,sans-Serif" font-size="10.00" fill="#000000">/AliceO2Group/AliceO2</text>
<text text-anchor="start" x="2242" y="-124" font-family="Helvetica,sans-Serif" font-size="10.00" fill="#000000">/Detectors/MUON/MCH/Raw</text>
<text text-anchor="middle" x="2317.5" y="-113" font-family="Helvetica,sans-Serif" font-size="10.00" fill="#000000">/Decoder/src/DecoderLogic.cxx</text>
</a>
</g>
</g>
<!-- Node12&#45;&gt;Node13 -->
<g id="edge10" class="edge">
<title>Node12&#45;&gt;Node13</title>
<path fill="none" stroke="#191970" d="M2105.2176,-202.5215C2107.6705,-201.6647 2110.1024,-200.8224 2112.5,-200 2162.3578,-182.8981 2175.4927,-180.6595 2225.5,-164 2231.2758,-162.0758 2237.2465,-160.06 2243.2431,-158.0164"/>
<polygon fill="#191970" stroke="#191970" points="2103.947,-199.2582 2095.6807,-205.8853 2106.2755,-205.8596 2103.947,-199.2582"/>
</g>
<!-- Node15 -->
<g id="node13" class="node">
<title>Node15</title>
<g id="a_node13"><a xlink:href="../../db/d18/UserLogicEndpointDecoder_8h.html" target="_top" xlink:title="/home/travis/build\l/AliceO2Group/AliceO2\l/Detectors/MUON/MCH/Raw\l/Decoder/src/UserLogicEndpointDecoder.h">
<polygon fill="none" stroke="#000000" points="512.5,-106 512.5,-158 732.5,-158 732.5,-106 512.5,-106"/>
<text text-anchor="start" x="520.5" y="-146" font-family="Helvetica,sans-Serif" font-size="10.00" fill="#000000">/home/travis/build</text>
<text text-anchor="start" x="520.5" y="-135" font-family="Helvetica,sans-Serif" font-size="10.00" fill="#000000">/AliceO2Group/AliceO2</text>
<text text-anchor="start" x="520.5" y="-124" font-family="Helvetica,sans-Serif" font-size="10.00" fill="#000000">/Detectors/MUON/MCH/Raw</text>
<text text-anchor="middle" x="622.5" y="-113" font-family="Helvetica,sans-Serif" font-size="10.00" fill="#000000">/Decoder/src/UserLogicEndpointDecoder.h</text>
</a>
</g>
</g>
<!-- Node14&#45;&gt;Node15 -->
<g id="edge12" class="edge">
<title>Node14&#45;&gt;Node15</title>
<path fill="none" stroke="#191970" d="M836.3848,-202.8228C793.6114,-188.6594 742.6416,-171.782 701.1893,-158.0561"/>
<polygon fill="#191970" stroke="#191970" points="835.3481,-206.1663 845.9414,-205.9872 837.5485,-199.5212 835.3481,-206.1663"/>
</g>
<!-- Node14&#45;&gt;Node17 -->
<g id="edge15" class="edge">
<title>Node14&#45;&gt;Node17</title>
<path fill="none" stroke="#191970" d="M894.9592,-198.4309C885.0592,-187.1809 874.0605,-174.6823 864.2984,-163.5891"/>
<polygon fill="#191970" stroke="#191970" points="892.3749,-200.7923 901.6088,-205.9872 897.63,-196.1679 892.3749,-200.7923"/>
</g>
<!-- Node15&#45;&gt;Node9 -->
<g id="edge13" class="edge">
<title>Node15&#45;&gt;Node9</title>
<path fill="none" stroke="#191970" d="M582.637,-99.5911C566.1729,-86.2056 547.3376,-70.8924 531.7628,-58.2299"/>
<polygon fill="#191970" stroke="#191970" points="580.5371,-102.3946 590.5043,-105.9872 584.953,-96.9632 580.5371,-102.3946"/>
</g>
<!-- Node15&#45;&gt;Node16 -->
<g id="edge14" class="edge">
<title>Node15&#45;&gt;Node16</title>
<path fill="none" stroke="#191970" d="M726.3654,-103.5225C731.4733,-102.294 736.5388,-101.1124 741.5,-100 836.7352,-78.6463 946.6694,-59.429 1023.1556,-46.9158"/>
<polygon fill="#191970" stroke="#191970" points="725.3873,-100.1585 716.5068,-105.9367 727.0523,-106.9576 725.3873,-100.1585"/>
</g>
<!-- Node19 -->
<g id="node17" class="node">
<title>Node19</title>
<g id="a_node17"><a xlink:href="../../d6/d9c/MUON_2MCH_2Raw_2Encoder_2Payload_2Encoder_8cxx.html" target="_top" xlink:title="/home/travis/build\l/AliceO2Group/AliceO2\l/Detectors/MUON/MCH/Raw\l/Encoder/Payload/Encoder.cxx">
<polygon fill="none" stroke="#000000" points="1582,-6 1582,-58 1743,-58 1743,-6 1582,-6"/>
<text text-anchor="start" x="1590" y="-46" font-family="Helvetica,sans-Serif" font-size="10.00" fill="#000000">/home/travis/build</text>
<text text-anchor="start" x="1590" y="-35" font-family="Helvetica,sans-Serif" font-size="10.00" fill="#000000">/AliceO2Group/AliceO2</text>
<text text-anchor="start" x="1590" y="-24" font-family="Helvetica,sans-Serif" font-size="10.00" fill="#000000">/Detectors/MUON/MCH/Raw</text>
<text text-anchor="middle" x="1662.5" y="-13" font-family="Helvetica,sans-Serif" font-size="10.00" fill="#000000">/Encoder/Payload/Encoder.cxx</text>
</a>
</g>
</g>
<!-- Node18&#45;&gt;Node19 -->
<g id="edge19" class="edge">
<title>Node18&#45;&gt;Node19</title>
<path fill="none" stroke="#191970" d="M1896.108,-200.9763C1912.1461,-191.6368 1926.636,-179.5665 1936.5,-164 1951.725,-139.9732 1954.0243,-122.405 1936.5,-100 1912.7961,-69.6943 1815.1113,-50.9847 1743.1032,-41.0462"/>
<polygon fill="#191970" stroke="#191970" points="1894.1771,-198.0419 1887.0583,-205.8887 1897.5167,-204.194 1894.1771,-198.0419"/>
</g>
<!-- Node18&#45;&gt;Node20 -->
<g id="edge20" class="edge">
<title>Node18&#45;&gt;Node20</title>
<path fill="none" stroke="#191970" d="M1882.6727,-202.912C1926.6359,-188.7303 1979.0864,-171.8108 2021.7262,-158.0561"/>
<polygon fill="#191970" stroke="#191970" points="1881.5822,-199.5861 1873.1396,-205.9872 1883.7312,-206.2481 1881.5822,-199.5861"/>
</g>
<!-- Node18&#45;&gt;Node21 -->
<g id="edge21" class="edge">
<title>Node18&#45;&gt;Node21</title>
<path fill="none" stroke="#191970" d="M1792.5,-195.8962C1792.5,-183.4433 1792.5,-169.7413 1792.5,-158.2299"/>
<polygon fill="#191970" stroke="#191970" points="1789.0001,-195.9872 1792.5,-205.9872 1796.0001,-195.9873 1789.0001,-195.9872"/>
</g>
<!-- Node22 -->
<g id="node20" class="node">
<title>Node22</title>
<g id="a_node20"><a xlink:href="../../d5/dd6/testGBTEncoder_8cxx.html" target="_top" xlink:title="/home/travis/build\l/AliceO2Group/AliceO2\l/Detectors/MUON/MCH/Raw\l/Encoder/Payload/testGBTEncoder.cxx">
<polygon fill="none" stroke="#000000" points="1346.5,-6 1346.5,-58 1546.5,-58 1546.5,-6 1346.5,-6"/>
<text text-anchor="start" x="1354.5" y="-46" font-family="Helvetica,sans-Serif" font-size="10.00" fill="#000000">/home/travis/build</text>
<text text-anchor="start" x="1354.5" y="-35" font-family="Helvetica,sans-Serif" font-size="10.00" fill="#000000">/AliceO2Group/AliceO2</text>
<text text-anchor="start" x="1354.5" y="-24" font-family="Helvetica,sans-Serif" font-size="10.00" fill="#000000">/Detectors/MUON/MCH/Raw</text>
<text text-anchor="middle" x="1446.5" y="-13" font-family="Helvetica,sans-Serif" font-size="10.00" fill="#000000">/Encoder/Payload/testGBTEncoder.cxx</text>
</a>
</g>
</g>
<!-- Node18&#45;&gt;Node22 -->
<g id="edge22" class="edge">
<title>Node18&#45;&gt;Node22</title>
<path fill="none" stroke="#191970" d="M1867.7086,-200.5146C1882.0344,-190.9553 1895.145,-178.9165 1903.5,-164 1917.4003,-139.1833 1922.4948,-121.1727 1903.5,-100 1854.091,-44.9258 1645.3134,-77.1387 1572.5,-64 1562.9494,-62.2766 1553.0523,-60.2294 1543.1945,-58.0157"/>
<polygon fill="#191970" stroke="#191970" points="1865.7837,-197.5903 1859.1602,-205.8594 1869.4948,-203.5256 1865.7837,-197.5903"/>
</g>
<!-- Node25&#45;&gt;Node19 -->
<g id="edge26" class="edge">
<title>Node25&#45;&gt;Node19</title>
<path fill="none" stroke="#191970" d="M1615.2757,-193.9332C1625.8138,-185.3522 1635.4966,-175.3607 1642.5,-164 1662.5082,-131.5434 1665.0609,-86.2949 1664.3296,-58.0957"/>
<polygon fill="#191970" stroke="#191970" points="1612.8849,-191.356 1607.0807,-200.2195 1617.1454,-196.9101 1612.8849,-191.356"/>
</g>
<!-- Node25&#45;&gt;Node21 -->
<g id="edge30" class="edge">
<title>Node25&#45;&gt;Node21</title>
<path fill="none" stroke="#191970" d="M1633.5538,-196.6123C1664.7253,-183.9409 1699.2735,-169.8969 1728.1764,-158.1478"/>
<polygon fill="#191970" stroke="#191970" points="1631.9441,-193.4884 1623.9983,-200.4966 1634.5802,-199.9731 1631.9441,-193.4884"/>
</g>
<!-- Node25&#45;&gt;Node22 -->
<g id="edge31" class="edge">
<title>Node25&#45;&gt;Node22</title>
<path fill="none" stroke="#191970" d="M1475.01,-194.1116C1464.801,-185.582 1455.6825,-175.5617 1449.5,-164 1431.7729,-130.849 1435.5274,-85.9999 1440.5155,-58.046"/>
<polygon fill="#191970" stroke="#191970" points="1472.9615,-196.9526 1482.9988,-200.3445 1477.2675,-191.4336 1472.9615,-196.9526"/>
</g>
<!-- Node26 -->
<g id="node24" class="node">
<title>Node26</title>
<g id="a_node24"><a xlink:href="../../d8/dc5/UserLogicElinkEncoderMerger_8h.html" target="_top" xlink:title="/home/travis/build\l/AliceO2Group/AliceO2\l/Detectors/MUON/MCH/Raw\l/Encoder/Payload/UserLogicElink\lEncoderMerger.h">
<polygon fill="none" stroke="#000000" points="1459,-100.5 1459,-163.5 1634,-163.5 1634,-100.5 1459,-100.5"/>
<text text-anchor="start" x="1467" y="-151.5" font-family="Helvetica,sans-Serif" font-size="10.00" fill="#000000">/home/travis/build</text>
<text text-anchor="start" x="1467" y="-140.5" font-family="Helvetica,sans-Serif" font-size="10.00" fill="#000000">/AliceO2Group/AliceO2</text>
<text text-anchor="start" x="1467" y="-129.5" font-family="Helvetica,sans-Serif" font-size="10.00" fill="#000000">/Detectors/MUON/MCH/Raw</text>
<text text-anchor="start" x="1467" y="-118.5" font-family="Helvetica,sans-Serif" font-size="10.00" fill="#000000">/Encoder/Payload/UserLogicElink</text>
<text text-anchor="middle" x="1546.5" y="-107.5" font-family="Helvetica,sans-Serif" font-size="10.00" fill="#000000">EncoderMerger.h</text>
</a>
</g>
</g>
<!-- Node25&#45;&gt;Node26 -->
<g id="edge27" class="edge">
<title>Node25&#45;&gt;Node26</title>
<path fill="none" stroke="#191970" d="M1546.5,-190.2111C1546.5,-181.37 1546.5,-172.1767 1546.5,-163.778"/>
<polygon fill="#191970" stroke="#191970" points="1543.0001,-190.3593 1546.5,-200.3594 1550.0001,-190.3594 1543.0001,-190.3593"/>
</g>
<!-- Node26&#45;&gt;Node19 -->
<g id="edge28" class="edge">
<title>Node26&#45;&gt;Node19</title>
<path fill="none" stroke="#191970" d="M1591.151,-93.5078C1604.9,-81.6552 1619.7073,-68.8902 1632.2496,-58.078"/>
<polygon fill="#191970" stroke="#191970" points="1588.4919,-91.179 1583.2031,-100.3594 1593.0625,-96.4809 1588.4919,-91.179"/>
</g>
<!-- Node26&#45;&gt;Node22 -->
<g id="edge29" class="edge">
<title>Node26&#45;&gt;Node22</title>
<path fill="none" stroke="#191970" d="M1507.6752,-93.1752C1495.9167,-81.4167 1483.2892,-68.7892 1472.578,-58.078"/>
<polygon fill="#191970" stroke="#191970" points="1505.3134,-95.7632 1514.8594,-100.3594 1510.2632,-90.8134 1505.3134,-95.7632"/>
</g>
<!-- Node27&#45;&gt;Node16 -->
<g id="edge36" class="edge">
<title>Node27&#45;&gt;Node16</title>
<path fill="none" stroke="#191970" d="M1148.915,-195.9467C1146.7903,-185.6381 1144.5125,-174.3834 1142.5,-164 1135.8518,-129.6998 1128.7547,-90.2765 1124.0173,-63.5098"/>
<polygon fill="#191970" stroke="#191970" points="1145.5157,-196.7916 1150.9732,-205.8727 1152.3699,-195.3704 1145.5157,-196.7916"/>
</g>
<!-- Node27&#45;&gt;Node17 -->
<g id="edge35" class="edge">
<title>Node27&#45;&gt;Node17</title>
<path fill="none" stroke="#191970" d="M1075.9848,-202.7022C1073.1272,-201.7735 1070.2924,-200.8698 1067.5,-200 1007.8028,-181.4049 991.3824,-181.9896 931.5,-164 928.4165,-163.0737 925.2825,-162.1141 922.1215,-161.1309"/>
<polygon fill="#191970" stroke="#191970" points="1075.1672,-206.1184 1085.7606,-205.9427 1077.3698,-199.4739 1075.1672,-206.1184"/>
</g>
<!-- Node27&#45;&gt;Node22 -->
<g id="edge38" class="edge">
<title>Node27&#45;&gt;Node22</title>
<path fill="none" stroke="#191970" d="M1151.5795,-195.6278C1149.7412,-166.2272 1152.3652,-125.6466 1175.5,-100 1198.4871,-74.5172 1278.8573,-56.4298 1346.1525,-45.3478"/>
<polygon fill="#191970" stroke="#191970" points="1148.1171,-196.2276 1152.4289,-205.9053 1155.0933,-195.651 1148.1171,-196.2276"/>
</g>
<!-- Node28 -->
<g id="node26" class="node">
<title>Node28</title>
<g id="a_node26"><a xlink:href="../../d8/daf/testEncoder_8cxx.html" target="_top" xlink:title="/home/travis/build\l/AliceO2Group/AliceO2\l/Detectors/MUON/MCH/Raw\l/Encoder/Payload/testEncoder.cxx">
<polygon fill="none" stroke="#000000" points="1184.5,-106 1184.5,-158 1364.5,-158 1364.5,-106 1184.5,-106"/>
<text text-anchor="start" x="1192.5" y="-146" font-family="Helvetica,sans-Serif" font-size="10.00" fill="#000000">/home/travis/build</text>
<text text-anchor="start" x="1192.5" y="-135" font-family="Helvetica,sans-Serif" font-size="10.00" fill="#000000">/AliceO2Group/AliceO2</text>
<text text-anchor="start" x="1192.5" y="-124" font-family="Helvetica,sans-Serif" font-size="10.00" fill="#000000">/Detectors/MUON/MCH/Raw</text>
<text text-anchor="middle" x="1274.5" y="-113" font-family="Helvetica,sans-Serif" font-size="10.00" fill="#000000">/Encoder/Payload/testEncoder.cxx</text>
</a>
</g>
</g>
<!-- Node27&#45;&gt;Node28 -->
<g id="edge37" class="edge">
<title>Node27&#45;&gt;Node28</title>
<path fill="none" stroke="#191970" d="M1195.1738,-199.2256C1210.8657,-185.9274 1228.7428,-170.7773 1243.5487,-158.2299"/>
<polygon fill="#191970" stroke="#191970" points="1192.5612,-196.8518 1187.1951,-205.9872 1197.0869,-202.1921 1192.5612,-196.8518"/>
</g>
<!-- Node29 -->
<g id="node27" class="node">
<title>Node29</title>
<g id="a_node27"><a xlink:href="../../d4/dbc/rawdump_8cxx.html" target="_top" xlink:title="/home/travis/build\l/AliceO2Group/AliceO2\l/Detectors/MUON/MCH/Raw\l/Tools/rawdump.cxx">
<polygon fill="none" stroke="#000000" points="940.5,-106 940.5,-158 1090.5,-158 1090.5,-106 940.5,-106"/>
<text text-anchor="start" x="948.5" y="-146" font-family="Helvetica,sans-Serif" font-size="10.00" fill="#000000">/home/travis/build</text>
<text text-anchor="start" x="948.5" y="-135" font-family="Helvetica,sans-Serif" font-size="10.00" fill="#000000">/AliceO2Group/AliceO2</text>
<text text-anchor="start" x="948.5" y="-124" font-family="Helvetica,sans-Serif" font-size="10.00" fill="#000000">/Detectors/MUON/MCH/Raw</text>
<text text-anchor="middle" x="1015.5" y="-113" font-family="Helvetica,sans-Serif" font-size="10.00" fill="#000000">/Tools/rawdump.cxx</text>
</a>
</g>
</g>
<!-- Node27&#45;&gt;Node29 -->
<g id="edge39" class="edge">
<title>Node27&#45;&gt;Node29</title>
<path fill="none" stroke="#191970" d="M1111.574,-200.1376C1092.5195,-186.6237 1070.5817,-171.0651 1052.4842,-158.2299"/>
<polygon fill="#191970" stroke="#191970" points="1109.6404,-203.0571 1119.822,-205.9872 1113.6899,-197.3473 1109.6404,-203.0571"/>
</g>
</g>
</svg>
