<?xml version="1.0" encoding="UTF-8" standalone="no"?>
<!DOCTYPE svg PUBLIC "-//W3C//DTD SVG 1.1//EN"
 "http://www.w3.org/Graphics/SVG/1.1/DTD/svg11.dtd">
<!-- Generated by graphviz version 2.40.1 (20161225.0304)
 -->
<!-- Title: /home/travis/build/AliceO2Group/AliceO2/GPU/TPCFastTransformation/SplineHelper1D.h Pages: 1 -->
<!--zoomable 285 -->
<svg id="main" version="1.1" xmlns="http://www.w3.org/2000/svg" xmlns:xlink="http://www.w3.org/1999/xlink" xml:space="preserve" onload="init(evt)">
<style type="text/css"><![CDATA[
.edge:hover path { stroke: red; }
.edge:hover polygon { stroke: red; fill: red; }
]]></style>
<script type="text/javascript"><![CDATA[
var edges = document.getElementsByTagName('g');
if (edges && edges.length) {
  for (var i=0;i<edges.length;i++) {
    if (edges[i].id.substr(0,4)=='edge') {
      edges[i].setAttribute('class','edge');
    }
  }
}
]]></script>
        <defs>
                <circle id="rim" cx="0" cy="0" r="7"/>
                <circle id="rim2" cx="0" cy="0" r="3.5"/>
                <g id="zoomPlus">
                        <use xlink:href="#rim" fill="#404040">
                                <set attributeName="fill" to="#808080" begin="zoomplus.mouseover" end="zoomplus.mouseout"/>
                        </use>
                        <path d="M-4,0h8M0,-4v8" fill="none" stroke="white" stroke-width="1.5" pointer-events="none"/>
                </g>
                <g id="zoomMin">
                        <use xlink:href="#rim" fill="#404040">
                                <set attributeName="fill" to="#808080" begin="zoomminus.mouseover" end="zoomminus.mouseout"/>
                        </use>
                        <path d="M-4,0h8" fill="none" stroke="white" stroke-width="1.5" pointer-events="none"/>
                </g>
                <g id="dirArrow">
                        <path fill="none" stroke="white" stroke-width="1.5" d="M0,-3.0v7 M-2.5,-0.5L0,-3.0L2.5,-0.5"/>
                </g>
               <g id="resetDef">
                       <use xlink:href="#rim2" fill="#404040">
                               <set attributeName="fill" to="#808080" begin="reset.mouseover" end="reset.mouseout"/>
                       </use>
               </g>
        </defs>

<script type="text/javascript">
var viewWidth = 1023;
var viewHeight = 285;
var sectionId = 'dynsection-0';
</script>
<script xlink:href="../../svgpan.js"/>
<svg id="graph" class="graph">
<g id="viewport">
<title>/home/travis/build/AliceO2Group/AliceO2/GPU/TPCFastTransformation/SplineHelper1D.h</title>
<!-- Node0 -->
<g id="node1" class="node">
<title>Node0</title>
<polygon fill="#bfbfbf" stroke="#000000" points="296,-224.5 296,-276.5 451,-276.5 451,-224.5 296,-224.5"/>
<text text-anchor="start" x="304" y="-264.5" font-family="Helvetica,sans-Serif" font-size="10.00" fill="#000000">/home/travis/build</text>
<text text-anchor="start" x="304" y="-253.5" font-family="Helvetica,sans-Serif" font-size="10.00" fill="#000000">/AliceO2Group/AliceO2</text>
<text text-anchor="start" x="304" y="-242.5" font-family="Helvetica,sans-Serif" font-size="10.00" fill="#000000">/GPU/TPCFastTransformation</text>
<text text-anchor="middle" x="373.5" y="-231.5" font-family="Helvetica,sans-Serif" font-size="10.00" fill="#000000">/SplineHelper1D.h</text>
</g>
<!-- Node1 -->
<g id="node2" class="node">
<title>Node1</title>
<polygon fill="none" stroke="#bfbfbf" points="0,-168.5 0,-187.5 47,-187.5 47,-168.5 0,-168.5"/>
<text text-anchor="middle" x="23.5" y="-175.5" font-family="Helvetica,sans-Serif" font-size="10.00" fill="#000000">cmath</text>
</g>
<!-- Node0&#45;&gt;Node1 -->
<g id="edge1" class="edge">
<title>Node0&#45;&gt;Node1</title>
<path fill="none" stroke="#191970" d="M295.8654,-237.6767C233.4919,-226.8143 143.5422,-209.8942 56.9108,-188.1787"/>
<polygon fill="#191970" stroke="#191970" points="57.7368,-184.7775 47.1837,-185.7164 56.019,-191.5634 57.7368,-184.7775"/>
</g>
<!-- Node2 -->
<g id="node3" class="node">
<title>Node2</title>
<polygon fill="none" stroke="#bfbfbf" points="65,-168.5 65,-187.5 112,-187.5 112,-168.5 65,-168.5"/>
<text text-anchor="middle" x="88.5" y="-175.5" font-family="Helvetica,sans-Serif" font-size="10.00" fill="#000000">vector</text>
</g>
<!-- Node0&#45;&gt;Node2 -->
<g id="edge2" class="edge">
<title>Node0&#45;&gt;Node2</title>
<path fill="none" stroke="#191970" d="M295.8564,-231.054C247.1806,-218.8134 183.1426,-202.619 126.5,-188 125.0551,-187.6271 123.5796,-187.2449 122.0894,-186.8577"/>
<polygon fill="#191970" stroke="#191970" points="122.7676,-183.4175 112.2076,-184.276 120.9981,-190.1901 122.7676,-183.4175"/>
</g>
<!-- Node3 -->
<g id="node4" class="node">
<title>Node3</title>
<g id="a_node4"><a xlink:href="../../df/d21/GPUCommonDef_8h.html" target="_top" xlink:title="GPUCommonDef.h">
<polygon fill="none" stroke="#000000" points="739,-56.5 739,-75.5 846,-75.5 846,-56.5 739,-56.5"/>
<text text-anchor="middle" x="792.5" y="-63.5" font-family="Helvetica,sans-Serif" font-size="10.00" fill="#000000">GPUCommonDef.h</text>
</a>
</g>
</g>
<!-- Node0&#45;&gt;Node3 -->
<g id="edge3" class="edge">
<title>Node0&#45;&gt;Node3</title>
<path fill="none" stroke="#191970" d="M432.6438,-224.457C522.7318,-184.7881 691.2186,-110.5977 760.9928,-79.8737"/>
<polygon fill="#191970" stroke="#191970" points="762.8085,-82.8985 770.5501,-75.6653 759.9875,-76.4921 762.8085,-82.8985"/>
</g>
<!-- Node6 -->
<g id="node7" class="node">
<title>Node6</title>
<polygon fill="none" stroke="#bfbfbf" points="300,-.5 300,-19.5 359,-19.5 359,-.5 300,-.5"/>
<text text-anchor="middle" x="329.5" y="-7.5" font-family="Helvetica,sans-Serif" font-size="10.00" fill="#000000">Rtypes.h</text>
</g>
<!-- Node0&#45;&gt;Node6 -->
<g id="edge6" class="edge">
<title>Node0&#45;&gt;Node6</title>
<path fill="none" stroke="#191970" d="M319.183,-224.2504C267.3007,-195.8107 192.3007,-145.0695 159.5,-76 155.6869,-67.9705 154.0975,-63.0587 159.5,-56 175.2317,-35.4457 244.5148,-21.9584 289.6331,-15.1811"/>
<polygon fill="#191970" stroke="#191970" points="290.3067,-18.6201 299.7,-13.7193 289.3008,-11.6927 290.3067,-18.6201"/>
</g>
<!-- Node7 -->
<g id="node8" class="node">
<title>Node7</title>
<polygon fill="none" stroke="#bfbfbf" points="426.5,-168.5 426.5,-187.5 486.5,-187.5 486.5,-168.5 426.5,-168.5"/>
<text text-anchor="middle" x="456.5" y="-175.5" font-family="Helvetica,sans-Serif" font-size="10.00" fill="#000000">TString.h</text>
</g>
<!-- Node0&#45;&gt;Node7 -->
<g id="edge7" class="edge">
<title>Node0&#45;&gt;Node7</title>
<path fill="none" stroke="#191970" d="M403.4649,-224.3258C414.9284,-214.3126 427.6674,-203.1851 437.7867,-194.346"/>
<polygon fill="#191970" stroke="#191970" points="440.3563,-196.7486 445.5852,-187.534 435.7513,-191.4767 440.3563,-196.7486"/>
</g>
<!-- Node8 -->
<g id="node9" class="node">
<title>Node8</title>
<g id="a_node9"><a xlink:href="../../de/da6/Spline1D_8h.html" target="_top" xlink:title="Definition of Spline1D class. ">
<polygon fill="none" stroke="#000000" points="339,-168.5 339,-187.5 408,-187.5 408,-168.5 339,-168.5"/>
<text text-anchor="middle" x="373.5" y="-175.5" font-family="Helvetica,sans-Serif" font-size="10.00" fill="#000000">Spline1D.h</text>
</a>
</g>
</g>
<!-- Node0&#45;&gt;Node8 -->
<g id="edge8" class="edge">
<title>Node0&#45;&gt;Node8</title>
<path fill="none" stroke="#191970" d="M373.5,-224.3258C373.5,-215.5142 373.5,-205.8397 373.5,-197.621"/>
<polygon fill="#191970" stroke="#191970" points="377.0001,-197.534 373.5,-187.534 370.0001,-197.534 377.0001,-197.534"/>
</g>
<!-- Node18 -->
<g id="node19" class="node">
<title>Node18</title>
<polygon fill="none" stroke="#bfbfbf" points="475,-112.5 475,-131.5 540,-131.5 540,-112.5 475,-112.5"/>
<text text-anchor="middle" x="507.5" y="-119.5" font-family="Helvetica,sans-Serif" font-size="10.00" fill="#000000">functional</text>
</g>
<!-- Node0&#45;&gt;Node18 -->
<g id="edge22" class="edge">
<title>Node0&#45;&gt;Node18</title>
<path fill="none" stroke="#191970" d="M450.796,-224.3411C467.7795,-215.2703 484.0806,-203.3821 495.5,-188 505.3599,-174.7186 507.9728,-155.8588 508.3451,-141.6987"/>
<polygon fill="#191970" stroke="#191970" points="511.8438,-141.5164 508.259,-131.5465 504.8441,-141.5758 511.8438,-141.5164"/>
</g>
<!-- Node4 -->
<g id="node5" class="node">
<title>Node4</title>
<g id="a_node5"><a xlink:href="../../d5/d93/GPUCommonDefSettings_8h.html" target="_top" xlink:title="GPUCommonDefSettings.h">
<polygon fill="none" stroke="#000000" points="866.5,-.5 866.5,-19.5 1014.5,-19.5 1014.5,-.5 866.5,-.5"/>
<text text-anchor="middle" x="940.5" y="-7.5" font-family="Helvetica,sans-Serif" font-size="10.00" fill="#000000">GPUCommonDefSettings.h</text>
</a>
</g>
</g>
<!-- Node3&#45;&gt;Node4 -->
<g id="edge4" class="edge">
<title>Node3&#45;&gt;Node4</title>
<path fill="none" stroke="#191970" d="M817.9421,-56.3733C842.2326,-47.1822 879.0208,-33.2624 905.9543,-23.0713"/>
<polygon fill="#191970" stroke="#191970" points="907.2757,-26.3136 915.3899,-19.5011 904.7984,-19.7666 907.2757,-26.3136"/>
</g>
<!-- Node5 -->
<g id="node6" class="node">
<title>Node5</title>
<g id="a_node6"><a xlink:href="../../da/d5a/GPUCommonDefAPI_8h.html" target="_top" xlink:title="GPUCommonDefAPI.h">
<polygon fill="none" stroke="#000000" points="724.5,-.5 724.5,-19.5 848.5,-19.5 848.5,-.5 724.5,-.5"/>
<text text-anchor="middle" x="786.5" y="-7.5" font-family="Helvetica,sans-Serif" font-size="10.00" fill="#000000">GPUCommonDefAPI.h</text>
</a>
</g>
</g>
<!-- Node3&#45;&gt;Node5 -->
<g id="edge5" class="edge">
<title>Node3&#45;&gt;Node5</title>
<path fill="none" stroke="#191970" d="M791.4549,-56.2455C790.672,-48.9382 789.5744,-38.6944 788.6112,-29.7046"/>
<polygon fill="#191970" stroke="#191970" points="792.0786,-29.2129 787.5331,-19.6427 785.1185,-29.9587 792.0786,-29.2129"/>
</g>
<!-- Node8&#45;&gt;Node3 -->
<g id="edge9" class="edge">
<title>Node8&#45;&gt;Node3</title>
<path fill="none" stroke="#191970" d="M383.3916,-168.4518C399.3988,-153.6271 432.6205,-125.3891 466.5,-112 573.6195,-69.6666 611.3064,-92.116 728.6549,-76.1891"/>
<polygon fill="#191970" stroke="#191970" points="729.3372,-79.6273 738.744,-74.7526 728.3504,-72.6972 729.3372,-79.6273"/>
</g>
<!-- Node9 -->
<g id="node10" class="node">
<title>Node9</title>
<g id="a_node10"><a xlink:href="../../db/dff/FlatObject_8h.html" target="_top" xlink:title="Definition of FlatObject class. ">
<polygon fill="none" stroke="#000000" points="338,-112.5 338,-131.5 413,-131.5 413,-112.5 338,-112.5"/>
<text text-anchor="middle" x="375.5" y="-119.5" font-family="Helvetica,sans-Serif" font-size="10.00" fill="#000000">FlatObject.h</text>
</a>
</g>
</g>
<!-- Node8&#45;&gt;Node9 -->
<g id="edge10" class="edge">
<title>Node8&#45;&gt;Node9</title>
<path fill="none" stroke="#191970" d="M373.8484,-168.2455C374.1093,-160.9382 374.4752,-150.6944 374.7963,-141.7046"/>
<polygon fill="#191970" stroke="#191970" points="378.2964,-141.7613 375.1556,-131.6427 371.3008,-141.5113 378.2964,-141.7613"/>
</g>
<!-- Node8&#45;&gt;Node18 -->
<g id="edge21" class="edge">
<title>Node8&#45;&gt;Node18</title>
<path fill="none" stroke="#191970" d="M396.5354,-168.3733C418.2388,-159.3032 450.9618,-145.6279 475.255,-135.4755"/>
<polygon fill="#191970" stroke="#191970" points="476.8881,-138.5865 484.7652,-131.5011 474.1889,-132.1278 476.8881,-138.5865"/>
</g>
<!-- Node9&#45;&gt;Node3 -->
<g id="edge15" class="edge">
<title>Node9&#45;&gt;Node3</title>
<path fill="none" stroke="#191970" d="M413.0236,-114.8652C418.8644,-113.845 424.8379,-112.8537 430.5,-112 560.0472,-92.4684 595.7878,-94.5764 728.5957,-76.2226"/>
<polygon fill="#191970" stroke="#191970" points="729.3313,-79.654 738.7516,-74.8056 728.3639,-72.7211 729.3313,-79.654"/>
</g>
<!-- Node10 -->
<g id="node11" class="node">
<title>Node10</title>
<polygon fill="none" stroke="#bfbfbf" points="169,-56.5 169,-75.5 222,-75.5 222,-56.5 169,-56.5"/>
<text text-anchor="middle" x="195.5" y="-63.5" font-family="Helvetica,sans-Serif" font-size="10.00" fill="#000000">cstddef</text>
</g>
<!-- Node9&#45;&gt;Node10 -->
<g id="edge11" class="edge">
<title>Node9&#45;&gt;Node10</title>
<path fill="none" stroke="#191970" d="M344.5569,-112.3733C313.3118,-102.6526 265.0646,-87.6423 231.9764,-77.3482"/>
<polygon fill="#191970" stroke="#191970" points="232.8183,-73.9447 222.23,-74.316 230.7388,-80.6287 232.8183,-73.9447"/>
</g>
<!-- Node11 -->
<g id="node12" class="node">
<title>Node11</title>
<polygon fill="none" stroke="#bfbfbf" points="240.5,-56.5 240.5,-75.5 298.5,-75.5 298.5,-56.5 240.5,-56.5"/>
<text text-anchor="middle" x="269.5" y="-63.5" font-family="Helvetica,sans-Serif" font-size="10.00" fill="#000000">memory</text>
</g>
<!-- Node9&#45;&gt;Node11 -->
<g id="edge12" class="edge">
<title>Node9&#45;&gt;Node11</title>
<path fill="none" stroke="#191970" d="M357.0362,-112.2455C340.3926,-103.4527 315.7007,-90.4079 296.7808,-80.4125"/>
<polygon fill="#191970" stroke="#191970" points="298.2291,-77.2193 287.7522,-75.6427 294.9592,-83.4086 298.2291,-77.2193"/>
</g>
<!-- Node12 -->
<g id="node13" class="node">
<title>Node12</title>
<polygon fill="none" stroke="#bfbfbf" points="316.5,-56.5 316.5,-75.5 366.5,-75.5 366.5,-56.5 316.5,-56.5"/>
<text text-anchor="middle" x="341.5" y="-63.5" font-family="Helvetica,sans-Serif" font-size="10.00" fill="#000000">cstring</text>
</g>
<!-- Node9&#45;&gt;Node12 -->
<g id="edge13" class="edge">
<title>Node9&#45;&gt;Node12</title>
<path fill="none" stroke="#191970" d="M369.5777,-112.2455C364.8973,-104.5367 358.2327,-93.5598 352.5711,-84.2348"/>
<polygon fill="#191970" stroke="#191970" points="355.5361,-82.3741 347.3545,-75.6427 349.5525,-86.007 355.5361,-82.3741"/>
</g>
<!-- Node13 -->
<g id="node14" class="node">
<title>Node13</title>
<polygon fill="none" stroke="#bfbfbf" points="384.5,-56.5 384.5,-75.5 436.5,-75.5 436.5,-56.5 384.5,-56.5"/>
<text text-anchor="middle" x="410.5" y="-63.5" font-family="Helvetica,sans-Serif" font-size="10.00" fill="#000000">cassert</text>
</g>
<!-- Node9&#45;&gt;Node13 -->
<g id="edge14" class="edge">
<title>Node9&#45;&gt;Node13</title>
<path fill="none" stroke="#191970" d="M381.5965,-112.2455C386.4145,-104.5367 393.2751,-93.5598 399.1032,-84.2348"/>
<polygon fill="#191970" stroke="#191970" points="402.1413,-85.9777 404.4733,-75.6427 396.2053,-82.2677 402.1413,-85.9777"/>
</g>
<!-- Node14 -->
<g id="node15" class="node">
<title>Node14</title>
<g id="a_node15"><a xlink:href="../../d2/d45/GPUCommonRtypes_8h.html" target="_top" xlink:title="GPUCommonRtypes.h">
<polygon fill="none" stroke="#000000" points="455,-56.5 455,-75.5 580,-75.5 580,-56.5 455,-56.5"/>
<text text-anchor="middle" x="517.5" y="-63.5" font-family="Helvetica,sans-Serif" font-size="10.00" fill="#000000">GPUCommonRtypes.h</text>
</a>
</g>
</g>
<!-- Node9&#45;&gt;Node14 -->
<g id="edge16" class="edge">
<title>Node9&#45;&gt;Node14</title>
<path fill="none" stroke="#191970" d="M399.9107,-112.3733C423.1142,-103.2226 458.2038,-89.3844 484.0142,-79.2057"/>
<polygon fill="#191970" stroke="#191970" points="485.3892,-82.4258 493.4079,-75.5011 482.8211,-75.9139 485.3892,-82.4258"/>
</g>
<!-- Node15 -->
<g id="node16" class="node">
<title>Node15</title>
<g id="a_node16"><a xlink:href="../../df/d5b/GPUCommonLogger_8h.html" target="_top" xlink:title="GPUCommonLogger.h">
<polygon fill="none" stroke="#000000" points="598,-56.5 598,-75.5 721,-75.5 721,-56.5 598,-56.5"/>
<text text-anchor="middle" x="659.5" y="-63.5" font-family="Helvetica,sans-Serif" font-size="10.00" fill="#000000">GPUCommonLogger.h</text>
</a>
</g>
</g>
<!-- Node9&#45;&gt;Node15 -->
<g id="edge18" class="edge">
<title>Node9&#45;&gt;Node15</title>
<path fill="none" stroke="#191970" d="M413.213,-114.5636C461.3238,-105.077 545.0301,-88.5715 601.3376,-77.4686"/>
<polygon fill="#191970" stroke="#191970" points="602.036,-80.8984 611.17,-75.5299 600.6817,-74.0306 602.036,-80.8984"/>
</g>
<!-- Node14&#45;&gt;Node6 -->
<g id="edge17" class="edge">
<title>Node14&#45;&gt;Node6</title>
<path fill="none" stroke="#191970" d="M485.1816,-56.3733C452.9806,-46.7814 403.4894,-32.0394 368.9804,-21.7601"/>
<polygon fill="#191970" stroke="#191970" points="369.813,-18.3562 359.23,-18.8557 367.8146,-25.0649 369.813,-18.3562"/>
</g>
<!-- Node16 -->
<g id="node17" class="node">
<title>Node16</title>
<polygon fill="none" stroke="#bfbfbf" points="635.5,-.5 635.5,-19.5 695.5,-19.5 695.5,-.5 635.5,-.5"/>
<text text-anchor="middle" x="665.5" y="-7.5" font-family="Helvetica,sans-Serif" font-size="10.00" fill="#000000">iostream</text>
</g>
<!-- Node15&#45;&gt;Node16 -->
<g id="edge19" class="edge">
<title>Node15&#45;&gt;Node16</title>
<path fill="none" stroke="#191970" d="M660.5451,-56.2455C661.328,-48.9382 662.4256,-38.6944 663.3888,-29.7046"/>
<polygon fill="#191970" stroke="#191970" points="666.8815,-29.9587 664.4669,-19.6427 659.9214,-29.2129 666.8815,-29.9587"/>
</g>
<!-- Node17 -->
<g id="node18" class="node">
<title>Node17</title>
<polygon fill="none" stroke="#bfbfbf" points="571.5,-.5 571.5,-19.5 617.5,-19.5 617.5,-.5 571.5,-.5"/>
<text text-anchor="middle" x="594.5" y="-7.5" font-family="Helvetica,sans-Serif" font-size="10.00" fill="#000000">cstdio</text>
</g>
<!-- Node15&#45;&gt;Node17 -->
<g id="edge20" class="edge">
<title>Node15&#45;&gt;Node17</title>
<path fill="none" stroke="#191970" d="M648.1779,-56.2455C638.5777,-47.9746 624.6108,-35.9416 613.3305,-26.2232"/>
<polygon fill="#191970" stroke="#191970" points="615.553,-23.5182 605.6924,-19.6427 610.984,-28.8214 615.553,-23.5182"/>
</g>
</g>
</svg>
        <g id="navigator" transform="translate(0 0)" fill="#404254">
                <rect fill="#f2f5e9" fill-opacity="0.5" stroke="#606060" stroke-width=".5" x="0" y="0" width="60" height="60"/>
                <use id="zoomplus" xlink:href="#zoomPlus" x="17" y="9" onmousedown="handleZoom(evt,'in')"/>
                <use id="zoomminus" xlink:href="#zoomMin" x="42" y="9" onmousedown="handleZoom(evt,'out')"/>
                <use id="reset" xlink:href="#resetDef" x="30" y="36" onmousedown="handleReset()"/>
                <g id="arrowUp" xlink:href="#dirArrow" transform="translate(30 24)" onmousedown="handlePan(0,-1)">
                  <use xlink:href="#rim" fill="#404040">
                        <set attributeName="fill" to="#808080" begin="arrowUp.mouseover" end="arrowUp.mouseout"/>
                  </use>
                  <path fill="none" stroke="white" stroke-width="1.5" d="M0,-3.0v7 M-2.5,-0.5L0,-3.0L2.5,-0.5"/>
                </g>
                <g id="arrowRight" xlink:href="#dirArrow" transform="rotate(90) translate(36 -43)" onmousedown="handlePan(1,0)">
                  <use xlink:href="#rim" fill="#404040">
                        <set attributeName="fill" to="#808080" begin="arrowRight.mouseover" end="arrowRight.mouseout"/>
                  </use>
                  <path fill="none" stroke="white" stroke-width="1.5" d="M0,-3.0v7 M-2.5,-0.5L0,-3.0L2.5,-0.5"/>
                </g>
                <g id="arrowDown" xlink:href="#dirArrow" transform="rotate(180) translate(-30 -48)" onmousedown="handlePan(0,1)">
                  <use xlink:href="#rim" fill="#404040">
                        <set attributeName="fill" to="#808080" begin="arrowDown.mouseover" end="arrowDown.mouseout"/>
                  </use>
                  <path fill="none" stroke="white" stroke-width="1.5" d="M0,-3.0v7 M-2.5,-0.5L0,-3.0L2.5,-0.5"/>
                </g>
                <g id="arrowLeft" xlink:href="#dirArrow" transform="rotate(270) translate(-36 17)" onmousedown="handlePan(-1,0)">
                  <use xlink:href="#rim" fill="#404040">
                        <set attributeName="fill" to="#808080" begin="arrowLeft.mouseover" end="arrowLeft.mouseout"/>
                  </use>
                  <path fill="none" stroke="white" stroke-width="1.5" d="M0,-3.0v7 M-2.5,-0.5L0,-3.0L2.5,-0.5"/>
                </g>
        </g>
        <svg viewBox="0 0 15 15" width="100%" height="30px" preserveAspectRatio="xMaxYMin meet">
         <g id="arrow_out" transform="scale(0.3 0.3)">
          <a xlink:href="SplineHelper1D_8h__incl_org.svg" target="_base">
           <rect id="button" ry="5" rx="5" y="6" x="6" height="38" width="38"
                fill="#f2f5e9" fill-opacity="0.5" stroke="#606060" stroke-width="1.0"/>
           <path id="arrow"
             d="M 11.500037,31.436501 C 11.940474,20.09759 22.043105,11.32322 32.158766,21.979434 L 37.068811,17.246167 C 37.068811,17.246167 37.088388,32 37.088388,32 L 22.160133,31.978069 C 22.160133,31.978069 26.997745,27.140456 26.997745,27.140456 C 18.528582,18.264221 13.291696,25.230495 11.500037,31.436501 z"
             style="fill:#404040;"/>
          </a>
         </g>
        </svg>
</svg>
