<?xml version="1.0" encoding="UTF-8" standalone="no"?>
<!DOCTYPE svg PUBLIC "-//W3C//DTD SVG 1.1//EN"
 "http://www.w3.org/Graphics/SVG/1.1/DTD/svg11.dtd">
<!-- Generated by graphviz version 2.40.1 (20161225.0304)
 -->
<!-- Title: HashTask Pages: 1 -->
<svg width="271pt" height="331pt"
 viewBox="0.00 0.00 270.50 331.00" xmlns="http://www.w3.org/2000/svg" xmlns:xlink="http://www.w3.org/1999/xlink">
<g id="graph0" class="graph" transform="scale(1 1) rotate(0) translate(4 327)">
<title>HashTask</title>
<!-- Node1 -->
<g id="node1" class="node">
<title>Node1</title>
<polygon fill="#bfbfbf" stroke="#000000" points="143.5,-.5 143.5,-90.5 219.5,-90.5 219.5,-.5 143.5,-.5"/>
<text text-anchor="middle" x="181.5" y="-78.5" font-family="Helvetica,sans-Serif" font-size="10.00" fill="#000000">HashTask</text>
<polyline fill="none" stroke="#000000" points="143.5,-71.5 219.5,-71.5 "/>
<text text-anchor="middle" x="181.5" y="-59.5" font-family="Helvetica,sans-Serif" font-size="10.00" fill="#000000"> </text>
<polyline fill="none" stroke="#000000" points="143.5,-52.5 219.5,-52.5 "/>
<text text-anchor="start" x="151.5" y="-40.5" font-family="Helvetica,sans-Serif" font-size="10.00" fill="#000000">+ getHash()</text>
<text text-anchor="start" x="151.5" y="-29.5" font-family="Helvetica,sans-Serif" font-size="10.00" fill="#000000">+ process()</text>
<text text-anchor="start" x="151.5" y="-18.5" font-family="Helvetica,sans-Serif" font-size="10.00" fill="#000000">+ getHash()</text>
<text text-anchor="start" x="151.5" y="-7.5" font-family="Helvetica,sans-Serif" font-size="10.00" fill="#000000">+ process()</text>
</g>
<!-- Node2 -->
<g id="node2" class="node">
<title>Node2</title>
<g id="a_node2"><a xlink:href="../../d6/d86/structo2_1_1framework_1_1Produces.html" target="_top" xlink:title="{o2::framework::Produces\l\&lt; aod::Hashes \&gt;\n||}">
<polygon fill="none" stroke="#000000" points="14.5,-149.5 14.5,-217.5 152.5,-217.5 152.5,-149.5 14.5,-149.5"/>
<text text-anchor="start" x="22.5" y="-205.5" font-family="Helvetica,sans-Serif" font-size="10.00" fill="#000000">o2::framework::Produces</text>
<text text-anchor="middle" x="83.5" y="-194.5" font-family="Helvetica,sans-Serif" font-size="10.00" fill="#000000">&lt; aod::Hashes &gt;</text>
<polyline fill="none" stroke="#000000" points="14.5,-187.5 152.5,-187.5 "/>
<text text-anchor="middle" x="83.5" y="-175.5" font-family="Helvetica,sans-Serif" font-size="10.00" fill="#000000"> </text>
<polyline fill="none" stroke="#000000" points="14.5,-168.5 152.5,-168.5 "/>
<text text-anchor="middle" x="83.5" y="-156.5" font-family="Helvetica,sans-Serif" font-size="10.00" fill="#000000"> </text>
</a>
</g>
</g>
<!-- Node2&#45;&gt;Node1 -->
<g id="edge1" class="edge">
<title>Node2&#45;&gt;Node1</title>
<path fill="none" stroke="#404040" d="M107.7247,-149.3876C118.1451,-134.714 130.5942,-117.1837 142.2715,-100.7402"/>
<polygon fill="none" stroke="#404040" points="142.4694,-100.4614 142.6822,-93.2534 149.4175,-90.6774 149.2048,-97.8854 142.4694,-100.4614"/>
<text text-anchor="middle" x="158.5" y="-117.5" font-family="Helvetica,sans-Serif" font-size="10.00" fill="#000000"> +hashes</text>
</g>
<!-- Node3 -->
<g id="node3" class="node">
<title>Node3</title>
<g id="a_node3"><a xlink:href="../../d6/d86/structo2_1_1framework_1_1Produces.html" target="_top" xlink:title="{o2::framework::Produces\&lt; T \&gt;\n||}">
<polygon fill="none" stroke="#000000" points="0,-265.5 0,-322.5 167,-322.5 167,-265.5 0,-265.5"/>
<text text-anchor="middle" x="83.5" y="-310.5" font-family="Helvetica,sans-Serif" font-size="10.00" fill="#000000">o2::framework::Produces&lt; T &gt;</text>
<polyline fill="none" stroke="#000000" points="0,-303.5 167,-303.5 "/>
<text text-anchor="middle" x="83.5" y="-291.5" font-family="Helvetica,sans-Serif" font-size="10.00" fill="#000000"> </text>
<polyline fill="none" stroke="#000000" points="0,-284.5 167,-284.5 "/>
<text text-anchor="middle" x="83.5" y="-272.5" font-family="Helvetica,sans-Serif" font-size="10.00" fill="#000000"> </text>
</a>
</g>
</g>
<!-- Node3&#45;&gt;Node2 -->
<g id="edge2" class="edge">
<title>Node3&#45;&gt;Node2</title>
<path fill="none" stroke="#ffa500" d="M83.5,-254.9162C83.5,-242.7375 83.5,-229.4096 83.5,-217.6001"/>
<polygon fill="#ffa500" stroke="#ffa500" points="80.0001,-255.2559 83.5,-265.2559 87.0001,-255.2559 80.0001,-255.2559"/>
<text text-anchor="middle" x="126.5" y="-239" font-family="Helvetica,sans-Serif" font-size="10.00" fill="#000000"> &lt; aod::Hashes &gt;</text>
</g>
<!-- Node4 -->
<g id="node4" class="node">
<title>Node4</title>
<polygon fill="none" stroke="#bfbfbf" points="170.5,-155 170.5,-212 262.5,-212 262.5,-155 170.5,-155"/>
<text text-anchor="middle" x="216.5" y="-200" font-family="Helvetica,sans-Serif" font-size="10.00" fill="#000000">vector&lt; float &gt;</text>
<polyline fill="none" stroke="#bfbfbf" points="170.5,-193 262.5,-193 "/>
<text text-anchor="middle" x="216.5" y="-181" font-family="Helvetica,sans-Serif" font-size="10.00" fill="#000000"> </text>
<polyline fill="none" stroke="#bfbfbf" points="170.5,-174 262.5,-174 "/>
<text text-anchor="middle" x="216.5" y="-162" font-family="Helvetica,sans-Serif" font-size="10.00" fill="#000000"> </text>
</g>
<!-- Node4&#45;&gt;Node1 -->
<g id="edge3" class="edge">
<title>Node4&#45;&gt;Node1</title>
<path fill="none" stroke="#404040" d="M209.248,-154.9063C205.3881,-139.6874 200.5012,-120.4191 195.9079,-102.3083"/>
<polygon fill="none" stroke="#404040" points="195.8957,-102.2599 190.5434,-97.4274 192.9455,-90.6282 198.2979,-95.4606 195.8957,-102.2599"/>
<text text-anchor="middle" x="222" y="-123" font-family="Helvetica,sans-Serif" font-size="10.00" fill="#000000"> +xBins</text>
<text text-anchor="middle" x="222" y="-112" font-family="Helvetica,sans-Serif" font-size="10.00" fill="#000000">+yBins</text>
</g>
</g>
</svg>
