<?xml version="1.0" encoding="UTF-8" standalone="no"?>
<!DOCTYPE svg PUBLIC "-//W3C//DTD SVG 1.1//EN"
 "http://www.w3.org/Graphics/SVG/1.1/DTD/svg11.dtd">
<!-- Generated by graphviz version 2.40.1 (20161225.0304)
 -->
<!-- Title: /home/travis/build/AliceO2Group/AliceO2/DataFormats/Detectors/TPC/include/DataFormatsTPC/ZeroSuppression.h Pages: 1 -->
<!--zoomable 428 -->
<svg id="main" version="1.1" xmlns="http://www.w3.org/2000/svg" xmlns:xlink="http://www.w3.org/1999/xlink" xml:space="preserve" onload="init(evt)">
<style type="text/css"><![CDATA[
.edge:hover path { stroke: red; }
.edge:hover polygon { stroke: red; fill: red; }
]]></style>
<script type="text/javascript"><![CDATA[
var edges = document.getElementsByTagName('g');
if (edges && edges.length) {
  for (var i=0;i<edges.length;i++) {
    if (edges[i].id.substr(0,4)=='edge') {
      edges[i].setAttribute('class','edge');
    }
  }
}
]]></script>
        <defs>
                <circle id="rim" cx="0" cy="0" r="7"/>
                <circle id="rim2" cx="0" cy="0" r="3.5"/>
                <g id="zoomPlus">
                        <use xlink:href="#rim" fill="#404040">
                                <set attributeName="fill" to="#808080" begin="zoomplus.mouseover" end="zoomplus.mouseout"/>
                        </use>
                        <path d="M-4,0h8M0,-4v8" fill="none" stroke="white" stroke-width="1.5" pointer-events="none"/>
                </g>
                <g id="zoomMin">
                        <use xlink:href="#rim" fill="#404040">
                                <set attributeName="fill" to="#808080" begin="zoomminus.mouseover" end="zoomminus.mouseout"/>
                        </use>
                        <path d="M-4,0h8" fill="none" stroke="white" stroke-width="1.5" pointer-events="none"/>
                </g>
                <g id="dirArrow">
                        <path fill="none" stroke="white" stroke-width="1.5" d="M0,-3.0v7 M-2.5,-0.5L0,-3.0L2.5,-0.5"/>
                </g>
               <g id="resetDef">
                       <use xlink:href="#rim2" fill="#404040">
                               <set attributeName="fill" to="#808080" begin="reset.mouseover" end="reset.mouseout"/>
                       </use>
               </g>
        </defs>

<script type="text/javascript">
var viewWidth = 1035;
var viewHeight = 428;
var sectionId = 'dynsection-1';
</script>
<script xlink:href="../../svgpan.js"/>
<svg id="graph" class="graph">
<g id="viewport">
<title>/home/travis/build/AliceO2Group/AliceO2/DataFormats/Detectors/TPC/include/DataFormatsTPC/ZeroSuppression.h</title>
<!-- Node6 -->
<g id="node1" class="node">
<title>Node6</title>
<polygon fill="#bfbfbf" stroke="#000000" points="518,-356.5 518,-419.5 679,-419.5 679,-356.5 518,-356.5"/>
<text text-anchor="start" x="526" y="-407.5" font-family="Helvetica,sans-Serif" font-size="10.00" fill="#000000">/home/travis/build</text>
<text text-anchor="start" x="526" y="-396.5" font-family="Helvetica,sans-Serif" font-size="10.00" fill="#000000">/AliceO2Group/AliceO2</text>
<text text-anchor="start" x="526" y="-385.5" font-family="Helvetica,sans-Serif" font-size="10.00" fill="#000000">/DataFormats/Detectors</text>
<text text-anchor="start" x="526" y="-374.5" font-family="Helvetica,sans-Serif" font-size="10.00" fill="#000000">/TPC/include/DataFormatsTPC</text>
<text text-anchor="middle" x="598.5" y="-363.5" font-family="Helvetica,sans-Serif" font-size="10.00" fill="#000000">/ZeroSuppression.h</text>
</g>
<!-- Node7 -->
<g id="node2" class="node">
<title>Node7</title>
<g id="a_node2"><a xlink:href="../../df/d6c/convertDigitsToRawZS_8cxx.html" target="_top" xlink:title="/home/travis/build\l/AliceO2Group/AliceO2\l/Detectors/TPC/simulation\l/run/convertDigitsToRawZS.cxx">
<polygon fill="none" stroke="#000000" points="162.5,-267.5 162.5,-319.5 330.5,-319.5 330.5,-267.5 162.5,-267.5"/>
<text text-anchor="start" x="170.5" y="-307.5" font-family="Helvetica,sans-Serif" font-size="10.00" fill="#000000">/home/travis/build</text>
<text text-anchor="start" x="170.5" y="-296.5" font-family="Helvetica,sans-Serif" font-size="10.00" fill="#000000">/AliceO2Group/AliceO2</text>
<text text-anchor="start" x="170.5" y="-285.5" font-family="Helvetica,sans-Serif" font-size="10.00" fill="#000000">/Detectors/TPC/simulation</text>
<text text-anchor="middle" x="246.5" y="-274.5" font-family="Helvetica,sans-Serif" font-size="10.00" fill="#000000">/run/convertDigitsToRawZS.cxx</text>
</a>
</g>
</g>
<!-- Node6&#45;&gt;Node7 -->
<g id="edge1" class="edge">
<title>Node6&#45;&gt;Node7</title>
<path fill="none" stroke="#191970" d="M508.1048,-364.7597C458.2986,-351.8309 395.4097,-335.3033 339.5,-320 336.5853,-319.2022 333.6207,-318.3856 330.6276,-317.5567"/>
<polygon fill="#191970" stroke="#191970" points="507.3273,-368.1738 517.8857,-367.2961 509.0844,-361.3979 507.3273,-368.1738"/>
</g>
<!-- Node8 -->
<g id="node3" class="node">
<title>Node8</title>
<g id="a_node3"><a xlink:href="../../da/d78/CATrackerSpec_8cxx.html" target="_top" xlink:title="Processor spec for running TPC CA tracking. ">
<polygon fill="none" stroke="#000000" points="348.5,-267.5 348.5,-319.5 484.5,-319.5 484.5,-267.5 348.5,-267.5"/>
<text text-anchor="start" x="356.5" y="-307.5" font-family="Helvetica,sans-Serif" font-size="10.00" fill="#000000">/home/travis/build</text>
<text text-anchor="start" x="356.5" y="-296.5" font-family="Helvetica,sans-Serif" font-size="10.00" fill="#000000">/AliceO2Group/AliceO2</text>
<text text-anchor="start" x="356.5" y="-285.5" font-family="Helvetica,sans-Serif" font-size="10.00" fill="#000000">/Detectors/TPC/workflow</text>
<text text-anchor="middle" x="416.5" y="-274.5" font-family="Helvetica,sans-Serif" font-size="10.00" fill="#000000">/src/CATrackerSpec.cxx</text>
</a>
</g>
</g>
<!-- Node6&#45;&gt;Node8 -->
<g id="edge2" class="edge">
<title>Node6&#45;&gt;Node8</title>
<path fill="none" stroke="#191970" d="M528.6018,-351.7067C507.9751,-340.9967 485.8176,-329.4919 466.6929,-319.5617"/>
<polygon fill="#191970" stroke="#191970" points="527.1558,-354.8995 537.6436,-356.4015 530.3815,-348.687 527.1558,-354.8995"/>
</g>
<!-- Node9 -->
<g id="node4" class="node">
<title>Node9</title>
<g id="a_node4"><a xlink:href="../../dc/d65/GPUTPCCFDecodeZS_8h.html" target="_top" xlink:title="/home/travis/build\l/AliceO2Group/AliceO2\l/GPU/GPUTracking/TPCClusterFinder\l/GPUTPCCFDecodeZS.h">
<polygon fill="none" stroke="#000000" points="503,-267.5 503,-319.5 694,-319.5 694,-267.5 503,-267.5"/>
<text text-anchor="start" x="511" y="-307.5" font-family="Helvetica,sans-Serif" font-size="10.00" fill="#000000">/home/travis/build</text>
<text text-anchor="start" x="511" y="-296.5" font-family="Helvetica,sans-Serif" font-size="10.00" fill="#000000">/AliceO2Group/AliceO2</text>
<text text-anchor="start" x="511" y="-285.5" font-family="Helvetica,sans-Serif" font-size="10.00" fill="#000000">/GPU/GPUTracking/TPCClusterFinder</text>
<text text-anchor="middle" x="598.5" y="-274.5" font-family="Helvetica,sans-Serif" font-size="10.00" fill="#000000">/GPUTPCCFDecodeZS.h</text>
</a>
</g>
</g>
<!-- Node6&#45;&gt;Node9 -->
<g id="edge3" class="edge">
<title>Node6&#45;&gt;Node9</title>
<path fill="none" stroke="#191970" d="M598.5,-346.2457C598.5,-337.2008 598.5,-327.8836 598.5,-319.6442"/>
<polygon fill="#191970" stroke="#191970" points="595.0001,-346.2699 598.5,-356.27 602.0001,-346.27 595.0001,-346.2699"/>
</g>
<!-- Node17 -->
<g id="node12" class="node">
<title>Node17</title>
<g id="a_node12"><a xlink:href="../../db/d5c/GPUTPCCFDecodeZS_8cxx.html" target="_top" xlink:title="/home/travis/build\l/AliceO2Group/AliceO2\l/GPU/GPUTracking/TPCClusterFinder\l/GPUTPCCFDecodeZS.cxx">
<polygon fill="none" stroke="#000000" points="627,-178.5 627,-230.5 818,-230.5 818,-178.5 627,-178.5"/>
<text text-anchor="start" x="635" y="-218.5" font-family="Helvetica,sans-Serif" font-size="10.00" fill="#000000">/home/travis/build</text>
<text text-anchor="start" x="635" y="-207.5" font-family="Helvetica,sans-Serif" font-size="10.00" fill="#000000">/AliceO2Group/AliceO2</text>
<text text-anchor="start" x="635" y="-196.5" font-family="Helvetica,sans-Serif" font-size="10.00" fill="#000000">/GPU/GPUTracking/TPCClusterFinder</text>
<text text-anchor="middle" x="722.5" y="-185.5" font-family="Helvetica,sans-Serif" font-size="10.00" fill="#000000">/GPUTPCCFDecodeZS.cxx</text>
</a>
</g>
</g>
<!-- Node6&#45;&gt;Node17 -->
<g id="edge12" class="edge">
<title>Node6&#45;&gt;Node17</title>
<path fill="none" stroke="#191970" d="M674.0498,-350.4004C685.3975,-341.8125 695.8431,-331.6979 703.5,-320 721.0844,-293.1352 724.2006,-255.4353 724.0094,-230.5083"/>
<polygon fill="#191970" stroke="#191970" points="671.7659,-347.7302 665.6545,-356.3847 675.8291,-353.4303 671.7659,-347.7302"/>
</g>
<!-- Node18 -->
<g id="node13" class="node">
<title>Node18</title>
<g id="a_node13"><a xlink:href="../../df/da0/GPUTPCClusterFinder_8cxx.html" target="_top" xlink:title="/home/travis/build\l/AliceO2Group/AliceO2\l/GPU/GPUTracking/TPCClusterFinder\l/GPUTPCClusterFinder.cxx">
<polygon fill="none" stroke="#000000" points="751,-267.5 751,-319.5 942,-319.5 942,-267.5 751,-267.5"/>
<text text-anchor="start" x="759" y="-307.5" font-family="Helvetica,sans-Serif" font-size="10.00" fill="#000000">/home/travis/build</text>
<text text-anchor="start" x="759" y="-296.5" font-family="Helvetica,sans-Serif" font-size="10.00" fill="#000000">/AliceO2Group/AliceO2</text>
<text text-anchor="start" x="759" y="-285.5" font-family="Helvetica,sans-Serif" font-size="10.00" fill="#000000">/GPU/GPUTracking/TPCClusterFinder</text>
<text text-anchor="middle" x="846.5" y="-274.5" font-family="Helvetica,sans-Serif" font-size="10.00" fill="#000000">/GPUTPCClusterFinder.cxx</text>
</a>
</g>
</g>
<!-- Node6&#45;&gt;Node18 -->
<g id="edge13" class="edge">
<title>Node6&#45;&gt;Node18</title>
<path fill="none" stroke="#191970" d="M688.4998,-353.7057C718.0332,-342.4521 750.3553,-330.1358 778.0276,-319.5913"/>
<polygon fill="#191970" stroke="#191970" points="687.1168,-350.4872 679.0185,-357.3186 689.6094,-357.0284 687.1168,-350.4872"/>
</g>
<!-- Node10 -->
<g id="node5" class="node">
<title>Node10</title>
<g id="a_node5"><a xlink:href="../../d1/d59/GPUTPCClusterFinderKernels_8h.html" target="_top" xlink:title="/home/travis/build\l/AliceO2Group/AliceO2\l/GPU/GPUTracking/TPCClusterFinder\l/GPUTPCClusterFinderKernels.h">
<polygon fill="none" stroke="#000000" points="418,-178.5 418,-230.5 609,-230.5 609,-178.5 418,-178.5"/>
<text text-anchor="start" x="426" y="-218.5" font-family="Helvetica,sans-Serif" font-size="10.00" fill="#000000">/home/travis/build</text>
<text text-anchor="start" x="426" y="-207.5" font-family="Helvetica,sans-Serif" font-size="10.00" fill="#000000">/AliceO2Group/AliceO2</text>
<text text-anchor="start" x="426" y="-196.5" font-family="Helvetica,sans-Serif" font-size="10.00" fill="#000000">/GPU/GPUTracking/TPCClusterFinder</text>
<text text-anchor="middle" x="513.5" y="-185.5" font-family="Helvetica,sans-Serif" font-size="10.00" fill="#000000">/GPUTPCClusterFinderKernels.h</text>
</a>
</g>
</g>
<!-- Node9&#45;&gt;Node10 -->
<g id="edge4" class="edge">
<title>Node9&#45;&gt;Node10</title>
<path fill="none" stroke="#191970" d="M566.5084,-260.0029C557.1966,-250.2529 547.1668,-239.7511 538.3641,-230.5341"/>
<polygon fill="#191970" stroke="#191970" points="564.0191,-262.464 573.4569,-267.2784 569.0813,-257.6293 564.0191,-262.464"/>
</g>
<!-- Node9&#45;&gt;Node17 -->
<g id="edge11" class="edge">
<title>Node9&#45;&gt;Node17</title>
<path fill="none" stroke="#191970" d="M643.1803,-261.431C657.3155,-251.2856 672.7565,-240.203 686.2277,-230.5341"/>
<polygon fill="#191970" stroke="#191970" points="641.1166,-258.604 635.0334,-267.2784 645.1983,-264.2909 641.1166,-258.604"/>
</g>
<!-- Node11 -->
<g id="node6" class="node">
<title>Node11</title>
<g id="a_node6"><a xlink:href="../../da/de7/CfUtils_8h.html" target="_top" xlink:title="/home/travis/build\l/AliceO2Group/AliceO2\l/GPU/GPUTracking/TPCClusterFinder\l/CfUtils.h">
<polygon fill="none" stroke="#000000" points="418,-89.5 418,-141.5 609,-141.5 609,-89.5 418,-89.5"/>
<text text-anchor="start" x="426" y="-129.5" font-family="Helvetica,sans-Serif" font-size="10.00" fill="#000000">/home/travis/build</text>
<text text-anchor="start" x="426" y="-118.5" font-family="Helvetica,sans-Serif" font-size="10.00" fill="#000000">/AliceO2Group/AliceO2</text>
<text text-anchor="start" x="426" y="-107.5" font-family="Helvetica,sans-Serif" font-size="10.00" fill="#000000">/GPU/GPUTracking/TPCClusterFinder</text>
<text text-anchor="middle" x="513.5" y="-96.5" font-family="Helvetica,sans-Serif" font-size="10.00" fill="#000000">/CfUtils.h</text>
</a>
</g>
</g>
<!-- Node10&#45;&gt;Node11 -->
<g id="edge5" class="edge">
<title>Node10&#45;&gt;Node11</title>
<path fill="none" stroke="#191970" d="M513.5,-168.1155C513.5,-159.2061 513.5,-149.8475 513.5,-141.5341"/>
<polygon fill="#191970" stroke="#191970" points="510.0001,-168.2784 513.5,-178.2784 517.0001,-168.2785 510.0001,-168.2784"/>
</g>
<!-- Node12 -->
<g id="node7" class="node">
<title>Node12</title>
<g id="a_node7"><a xlink:href="../../d8/db8/ClusterAccumulator_8cxx.html" target="_top" xlink:title="/home/travis/build\l/AliceO2Group/AliceO2\l/GPU/GPUTracking/TPCClusterFinder\l/ClusterAccumulator.cxx">
<polygon fill="none" stroke="#000000" points="0,-.5 0,-52.5 191,-52.5 191,-.5 0,-.5"/>
<text text-anchor="start" x="8" y="-40.5" font-family="Helvetica,sans-Serif" font-size="10.00" fill="#000000">/home/travis/build</text>
<text text-anchor="start" x="8" y="-29.5" font-family="Helvetica,sans-Serif" font-size="10.00" fill="#000000">/AliceO2Group/AliceO2</text>
<text text-anchor="start" x="8" y="-18.5" font-family="Helvetica,sans-Serif" font-size="10.00" fill="#000000">/GPU/GPUTracking/TPCClusterFinder</text>
<text text-anchor="middle" x="95.5" y="-7.5" font-family="Helvetica,sans-Serif" font-size="10.00" fill="#000000">/ClusterAccumulator.cxx</text>
</a>
</g>
</g>
<!-- Node11&#45;&gt;Node12 -->
<g id="edge6" class="edge">
<title>Node11&#45;&gt;Node12</title>
<path fill="none" stroke="#191970" d="M407.6881,-95.8876C346.6582,-84.2139 268.5638,-68.6608 199.5,-53 196.7743,-52.3819 194.011,-51.7453 191.2238,-51.0944"/>
<polygon fill="#191970" stroke="#191970" points="407.2389,-99.3649 417.7176,-97.8005 408.5504,-92.4888 407.2389,-99.3649"/>
</g>
<!-- Node13 -->
<g id="node8" class="node">
<title>Node13</title>
<g id="a_node8"><a xlink:href="../../de/d30/GPUTPCCFClusterizer_8cxx.html" target="_top" xlink:title="/home/travis/build\l/AliceO2Group/AliceO2\l/GPU/GPUTracking/TPCClusterFinder\l/GPUTPCCFClusterizer.cxx">
<polygon fill="none" stroke="#000000" points="209,-.5 209,-52.5 400,-52.5 400,-.5 209,-.5"/>
<text text-anchor="start" x="217" y="-40.5" font-family="Helvetica,sans-Serif" font-size="10.00" fill="#000000">/home/travis/build</text>
<text text-anchor="start" x="217" y="-29.5" font-family="Helvetica,sans-Serif" font-size="10.00" fill="#000000">/AliceO2Group/AliceO2</text>
<text text-anchor="start" x="217" y="-18.5" font-family="Helvetica,sans-Serif" font-size="10.00" fill="#000000">/GPU/GPUTracking/TPCClusterFinder</text>
<text text-anchor="middle" x="304.5" y="-7.5" font-family="Helvetica,sans-Serif" font-size="10.00" fill="#000000">/GPUTPCCFClusterizer.cxx</text>
</a>
</g>
</g>
<!-- Node11&#45;&gt;Node13 -->
<g id="edge7" class="edge">
<title>Node11&#45;&gt;Node13</title>
<path fill="none" stroke="#191970" d="M442.7853,-85.387C417.8018,-74.7481 389.9313,-62.8798 365.7936,-52.6011"/>
<polygon fill="#191970" stroke="#191970" points="441.6334,-88.7006 452.2053,-89.3984 444.376,-82.2602 441.6334,-88.7006"/>
</g>
<!-- Node14 -->
<g id="node9" class="node">
<title>Node14</title>
<g id="a_node9"><a xlink:href="../../dd/d19/GPUTPCCFDeconvolution_8cxx.html" target="_top" xlink:title="/home/travis/build\l/AliceO2Group/AliceO2\l/GPU/GPUTracking/TPCClusterFinder\l/GPUTPCCFDeconvolution.cxx">
<polygon fill="none" stroke="#000000" points="418,-.5 418,-52.5 609,-52.5 609,-.5 418,-.5"/>
<text text-anchor="start" x="426" y="-40.5" font-family="Helvetica,sans-Serif" font-size="10.00" fill="#000000">/home/travis/build</text>
<text text-anchor="start" x="426" y="-29.5" font-family="Helvetica,sans-Serif" font-size="10.00" fill="#000000">/AliceO2Group/AliceO2</text>
<text text-anchor="start" x="426" y="-18.5" font-family="Helvetica,sans-Serif" font-size="10.00" fill="#000000">/GPU/GPUTracking/TPCClusterFinder</text>
<text text-anchor="middle" x="513.5" y="-7.5" font-family="Helvetica,sans-Serif" font-size="10.00" fill="#000000">/GPUTPCCFDeconvolution.cxx</text>
</a>
</g>
</g>
<!-- Node11&#45;&gt;Node14 -->
<g id="edge8" class="edge">
<title>Node11&#45;&gt;Node14</title>
<path fill="none" stroke="#191970" d="M513.5,-79.1155C513.5,-70.2061 513.5,-60.8475 513.5,-52.5341"/>
<polygon fill="#191970" stroke="#191970" points="510.0001,-79.2784 513.5,-89.2784 517.0001,-79.2785 510.0001,-79.2784"/>
</g>
<!-- Node15 -->
<g id="node10" class="node">
<title>Node15</title>
<g id="a_node10"><a xlink:href="../../d4/d72/GPUTPCCFNoiseSuppression_8cxx.html" target="_top" xlink:title="/home/travis/build\l/AliceO2Group/AliceO2\l/GPU/GPUTracking/TPCClusterFinder\l/GPUTPCCFNoiseSuppression.cxx">
<polygon fill="none" stroke="#000000" points="627,-.5 627,-52.5 818,-52.5 818,-.5 627,-.5"/>
<text text-anchor="start" x="635" y="-40.5" font-family="Helvetica,sans-Serif" font-size="10.00" fill="#000000">/home/travis/build</text>
<text text-anchor="start" x="635" y="-29.5" font-family="Helvetica,sans-Serif" font-size="10.00" fill="#000000">/AliceO2Group/AliceO2</text>
<text text-anchor="start" x="635" y="-18.5" font-family="Helvetica,sans-Serif" font-size="10.00" fill="#000000">/GPU/GPUTracking/TPCClusterFinder</text>
<text text-anchor="middle" x="722.5" y="-7.5" font-family="Helvetica,sans-Serif" font-size="10.00" fill="#000000">/GPUTPCCFNoiseSuppression.cxx</text>
</a>
</g>
</g>
<!-- Node11&#45;&gt;Node15 -->
<g id="edge9" class="edge">
<title>Node11&#45;&gt;Node15</title>
<path fill="none" stroke="#191970" d="M584.2147,-85.387C609.1982,-74.7481 637.0687,-62.8798 661.2064,-52.6011"/>
<polygon fill="#191970" stroke="#191970" points="582.624,-82.2602 574.7947,-89.3984 585.3666,-88.7006 582.624,-82.2602"/>
</g>
<!-- Node16 -->
<g id="node11" class="node">
<title>Node16</title>
<g id="a_node11"><a xlink:href="../../d9/dbb/GPUTPCCFPeakFinder_8cxx.html" target="_top" xlink:title="/home/travis/build\l/AliceO2Group/AliceO2\l/GPU/GPUTracking/TPCClusterFinder\l/GPUTPCCFPeakFinder.cxx">
<polygon fill="none" stroke="#000000" points="836,-.5 836,-52.5 1027,-52.5 1027,-.5 836,-.5"/>
<text text-anchor="start" x="844" y="-40.5" font-family="Helvetica,sans-Serif" font-size="10.00" fill="#000000">/home/travis/build</text>
<text text-anchor="start" x="844" y="-29.5" font-family="Helvetica,sans-Serif" font-size="10.00" fill="#000000">/AliceO2Group/AliceO2</text>
<text text-anchor="start" x="844" y="-18.5" font-family="Helvetica,sans-Serif" font-size="10.00" fill="#000000">/GPU/GPUTracking/TPCClusterFinder</text>
<text text-anchor="middle" x="931.5" y="-7.5" font-family="Helvetica,sans-Serif" font-size="10.00" fill="#000000">/GPUTPCCFPeakFinder.cxx</text>
</a>
</g>
</g>
<!-- Node11&#45;&gt;Node16 -->
<g id="edge10" class="edge">
<title>Node11&#45;&gt;Node16</title>
<path fill="none" stroke="#191970" d="M619.3119,-95.8876C680.3418,-84.2139 758.4362,-68.6608 827.5,-53 830.2257,-52.3819 832.989,-51.7453 835.7762,-51.0944"/>
<polygon fill="#191970" stroke="#191970" points="618.4496,-92.4888 609.2824,-97.8005 619.7611,-99.3649 618.4496,-92.4888"/>
</g>
</g>
</svg>
        <g id="navigator" transform="translate(0 0)" fill="#404254">
                <rect fill="#f2f5e9" fill-opacity="0.5" stroke="#606060" stroke-width=".5" x="0" y="0" width="60" height="60"/>
                <use id="zoomplus" xlink:href="#zoomPlus" x="17" y="9" onmousedown="handleZoom(evt,'in')"/>
                <use id="zoomminus" xlink:href="#zoomMin" x="42" y="9" onmousedown="handleZoom(evt,'out')"/>
                <use id="reset" xlink:href="#resetDef" x="30" y="36" onmousedown="handleReset()"/>
                <g id="arrowUp" xlink:href="#dirArrow" transform="translate(30 24)" onmousedown="handlePan(0,-1)">
                  <use xlink:href="#rim" fill="#404040">
                        <set attributeName="fill" to="#808080" begin="arrowUp.mouseover" end="arrowUp.mouseout"/>
                  </use>
                  <path fill="none" stroke="white" stroke-width="1.5" d="M0,-3.0v7 M-2.5,-0.5L0,-3.0L2.5,-0.5"/>
                </g>
                <g id="arrowRight" xlink:href="#dirArrow" transform="rotate(90) translate(36 -43)" onmousedown="handlePan(1,0)">
                  <use xlink:href="#rim" fill="#404040">
                        <set attributeName="fill" to="#808080" begin="arrowRight.mouseover" end="arrowRight.mouseout"/>
                  </use>
                  <path fill="none" stroke="white" stroke-width="1.5" d="M0,-3.0v7 M-2.5,-0.5L0,-3.0L2.5,-0.5"/>
                </g>
                <g id="arrowDown" xlink:href="#dirArrow" transform="rotate(180) translate(-30 -48)" onmousedown="handlePan(0,1)">
                  <use xlink:href="#rim" fill="#404040">
                        <set attributeName="fill" to="#808080" begin="arrowDown.mouseover" end="arrowDown.mouseout"/>
                  </use>
                  <path fill="none" stroke="white" stroke-width="1.5" d="M0,-3.0v7 M-2.5,-0.5L0,-3.0L2.5,-0.5"/>
                </g>
                <g id="arrowLeft" xlink:href="#dirArrow" transform="rotate(270) translate(-36 17)" onmousedown="handlePan(-1,0)">
                  <use xlink:href="#rim" fill="#404040">
                        <set attributeName="fill" to="#808080" begin="arrowLeft.mouseover" end="arrowLeft.mouseout"/>
                  </use>
                  <path fill="none" stroke="white" stroke-width="1.5" d="M0,-3.0v7 M-2.5,-0.5L0,-3.0L2.5,-0.5"/>
                </g>
        </g>
        <svg viewBox="0 0 15 15" width="100%" height="30px" preserveAspectRatio="xMaxYMin meet">
         <g id="arrow_out" transform="scale(0.3 0.3)">
          <a xlink:href="ZeroSuppression_8h__dep__incl_org.svg" target="_base">
           <rect id="button" ry="5" rx="5" y="6" x="6" height="38" width="38"
                fill="#f2f5e9" fill-opacity="0.5" stroke="#606060" stroke-width="1.0"/>
           <path id="arrow"
             d="M 11.500037,31.436501 C 11.940474,20.09759 22.043105,11.32322 32.158766,21.979434 L 37.068811,17.246167 C 37.068811,17.246167 37.088388,32 37.088388,32 L 22.160133,31.978069 C 22.160133,31.978069 26.997745,27.140456 26.997745,27.140456 C 18.528582,18.264221 13.291696,25.230495 11.500037,31.436501 z"
             style="fill:#404040;"/>
          </a>
         </g>
        </svg>
</svg>
