<?xml version="1.0" encoding="UTF-8" standalone="no"?>
<!DOCTYPE svg PUBLIC "-//W3C//DTD SVG 1.1//EN"
 "http://www.w3.org/Graphics/SVG/1.1/DTD/svg11.dtd">
<!-- Generated by graphviz version 2.40.1 (20161225.0304)
 -->
<!-- Title: /home/travis/build/AliceO2Group/AliceO2/Detectors/MUON/MCH/Raw/Common/src/SampaCluster.cxx Pages: 1 -->
<svg width="616pt" height="173pt"
 viewBox="0.00 0.00 615.50 173.00" xmlns="http://www.w3.org/2000/svg" xmlns:xlink="http://www.w3.org/1999/xlink">
<g id="graph0" class="graph" transform="scale(1 1) rotate(0) translate(4 169)">
<title>/home/travis/build/AliceO2Group/AliceO2/Detectors/MUON/MCH/Raw/Common/src/SampaCluster.cxx</title>
<!-- Node0 -->
<g id="node1" class="node">
<title>Node0</title>
<polygon fill="#bfbfbf" stroke="#000000" points="262.5,-112.5 262.5,-164.5 434.5,-164.5 434.5,-112.5 262.5,-112.5"/>
<text text-anchor="start" x="270.5" y="-152.5" font-family="Helvetica,sans-Serif" font-size="10.00" fill="#000000">/home/travis/build</text>
<text text-anchor="start" x="270.5" y="-141.5" font-family="Helvetica,sans-Serif" font-size="10.00" fill="#000000">/AliceO2Group/AliceO2</text>
<text text-anchor="start" x="270.5" y="-130.5" font-family="Helvetica,sans-Serif" font-size="10.00" fill="#000000">/Detectors/MUON/MCH/Raw</text>
<text text-anchor="middle" x="348.5" y="-119.5" font-family="Helvetica,sans-Serif" font-size="10.00" fill="#000000">/Common/src/SampaCluster.cxx</text>
</g>
<!-- Node1 -->
<g id="node2" class="node">
<title>Node1</title>
<g id="a_node2"><a xlink:href="../../d0/d5b/SampaCluster_8h.html" target="_top" xlink:title="MCHRawCommon/SampaCluster.h">
<polygon fill="none" stroke="#000000" points="18.5,-56.5 18.5,-75.5 202.5,-75.5 202.5,-56.5 18.5,-56.5"/>
<text text-anchor="middle" x="110.5" y="-63.5" font-family="Helvetica,sans-Serif" font-size="10.00" fill="#000000">MCHRawCommon/SampaCluster.h</text>
</a>
</g>
</g>
<!-- Node0&#45;&gt;Node1 -->
<g id="edge1" class="edge">
<title>Node0&#45;&gt;Node1</title>
<path fill="none" stroke="#191970" d="M262.9128,-112.4283C225.0777,-100.9029 182.3389,-87.8837 151.768,-78.5711"/>
<polygon fill="#191970" stroke="#191970" points="152.4776,-75.1286 141.8916,-75.5626 150.4377,-81.8248 152.4776,-75.1286"/>
</g>
<!-- Node5 -->
<g id="node6" class="node">
<title>Node5</title>
<polygon fill="none" stroke="#bfbfbf" points="211,-.5 211,-19.5 290,-19.5 290,-.5 211,-.5"/>
<text text-anchor="middle" x="250.5" y="-7.5" font-family="Helvetica,sans-Serif" font-size="10.00" fill="#000000">fmt/format.h</text>
</g>
<!-- Node0&#45;&gt;Node5 -->
<g id="edge9" class="edge">
<title>Node0&#45;&gt;Node5</title>
<path fill="none" stroke="#191970" d="M287.031,-112.39C272.4807,-103.1233 258.795,-91.1286 250.5,-76 242.7626,-61.8884 243.5154,-43.3946 245.7712,-29.5749"/>
<polygon fill="#191970" stroke="#191970" points="249.2233,-30.1613 247.769,-19.6668 242.3614,-28.7777 249.2233,-30.1613"/>
</g>
<!-- Node6 -->
<g id="node7" class="node">
<title>Node6</title>
<g id="a_node7"><a xlink:href="../../d0/d64/DataFormats_8h.html" target="_top" xlink:title="MCHRawCommon/DataFormats.h">
<polygon fill="none" stroke="#000000" points="259,-56.5 259,-75.5 438,-75.5 438,-56.5 259,-56.5"/>
<text text-anchor="middle" x="348.5" y="-63.5" font-family="Helvetica,sans-Serif" font-size="10.00" fill="#000000">MCHRawCommon/DataFormats.h</text>
</a>
</g>
</g>
<!-- Node0&#45;&gt;Node6 -->
<g id="edge6" class="edge">
<title>Node0&#45;&gt;Node6</title>
<path fill="none" stroke="#191970" d="M348.5,-112.3258C348.5,-103.5142 348.5,-93.8397 348.5,-85.621"/>
<polygon fill="#191970" stroke="#191970" points="352.0001,-85.534 348.5,-75.534 345.0001,-85.534 352.0001,-85.534"/>
</g>
<!-- Node7 -->
<g id="node8" class="node">
<title>Node7</title>
<g id="a_node8"><a xlink:href="../../dc/d46/Assertions_8h.html" target="_top" xlink:title="Assertions.h">
<polygon fill="none" stroke="#000000" points="456,-56.5 456,-75.5 533,-75.5 533,-56.5 456,-56.5"/>
<text text-anchor="middle" x="494.5" y="-63.5" font-family="Helvetica,sans-Serif" font-size="10.00" fill="#000000">Assertions.h</text>
</a>
</g>
</g>
<!-- Node0&#45;&gt;Node7 -->
<g id="edge7" class="edge">
<title>Node0&#45;&gt;Node7</title>
<path fill="none" stroke="#191970" d="M401.2094,-112.3258C423.1888,-101.4114 447.8341,-89.1731 466.2717,-80.0175"/>
<polygon fill="#191970" stroke="#191970" points="467.9006,-83.1164 475.3005,-75.534 464.7873,-76.8469 467.9006,-83.1164"/>
</g>
<!-- Node8 -->
<g id="node9" class="node">
<title>Node8</title>
<polygon fill="none" stroke="#bfbfbf" points="551.5,-56.5 551.5,-75.5 607.5,-75.5 607.5,-56.5 551.5,-56.5"/>
<text text-anchor="middle" x="579.5" y="-63.5" font-family="Helvetica,sans-Serif" font-size="10.00" fill="#000000">sstream</text>
</g>
<!-- Node0&#45;&gt;Node8 -->
<g id="edge10" class="edge">
<title>Node0&#45;&gt;Node8</title>
<path fill="none" stroke="#191970" d="M431.5699,-112.4283C469.2219,-100.6111 511.8774,-87.2235 541.6763,-77.8711"/>
<polygon fill="#191970" stroke="#191970" points="542.7703,-81.1961 551.2634,-74.8621 540.6741,-74.5173 542.7703,-81.1961"/>
</g>
<!-- Node2 -->
<g id="node3" class="node">
<title>Node2</title>
<polygon fill="none" stroke="#bfbfbf" points="0,-.5 0,-19.5 49,-19.5 49,-.5 0,-.5"/>
<text text-anchor="middle" x="24.5" y="-7.5" font-family="Helvetica,sans-Serif" font-size="10.00" fill="#000000">cstdlib</text>
</g>
<!-- Node1&#45;&gt;Node2 -->
<g id="edge2" class="edge">
<title>Node1&#45;&gt;Node2</title>
<path fill="none" stroke="#191970" d="M95.5199,-56.2455C82.3249,-47.6534 62.8949,-35.0014 47.6921,-25.1018"/>
<polygon fill="#191970" stroke="#191970" points="49.5983,-22.1665 39.3084,-19.6427 45.7785,-28.0325 49.5983,-22.1665"/>
</g>
<!-- Node3 -->
<g id="node4" class="node">
<title>Node3</title>
<polygon fill="none" stroke="#bfbfbf" points="67,-.5 67,-19.5 114,-19.5 114,-.5 67,-.5"/>
<text text-anchor="middle" x="90.5" y="-7.5" font-family="Helvetica,sans-Serif" font-size="10.00" fill="#000000">vector</text>
</g>
<!-- Node1&#45;&gt;Node3 -->
<g id="edge3" class="edge">
<title>Node1&#45;&gt;Node3</title>
<path fill="none" stroke="#191970" d="M107.0163,-56.2455C104.3492,-48.7776 100.5867,-38.2427 97.3263,-29.1137"/>
<polygon fill="#191970" stroke="#191970" points="100.6033,-27.8829 93.9438,-19.6427 94.0111,-30.2373 100.6033,-27.8829"/>
</g>
<!-- Node4 -->
<g id="node5" class="node">
<title>Node4</title>
<polygon fill="none" stroke="#bfbfbf" points="132.5,-.5 132.5,-19.5 192.5,-19.5 192.5,-.5 132.5,-.5"/>
<text text-anchor="middle" x="162.5" y="-7.5" font-family="Helvetica,sans-Serif" font-size="10.00" fill="#000000">iostream</text>
</g>
<!-- Node1&#45;&gt;Node4 -->
<g id="edge4" class="edge">
<title>Node1&#45;&gt;Node4</title>
<path fill="none" stroke="#191970" d="M119.5577,-56.2455C127.0142,-48.2155 137.7634,-36.6394 146.6417,-27.0781"/>
<polygon fill="#191970" stroke="#191970" points="149.3063,-29.3522 153.5461,-19.6427 144.1768,-24.589 149.3063,-29.3522"/>
</g>
<!-- Node1&#45;&gt;Node5 -->
<g id="edge5" class="edge">
<title>Node1&#45;&gt;Node5</title>
<path fill="none" stroke="#191970" d="M134.5669,-56.3733C157.3428,-47.2629 191.7344,-33.5062 217.149,-23.3404"/>
<polygon fill="#191970" stroke="#191970" points="218.7623,-26.4648 226.7472,-19.5011 216.1625,-19.9654 218.7623,-26.4648"/>
</g>
<!-- Node7&#45;&gt;Node5 -->
<g id="edge8" class="edge">
<title>Node7&#45;&gt;Node5</title>
<path fill="none" stroke="#191970" d="M455.8375,-57.1266C413.6479,-47.4438 345.9883,-31.9153 299.9599,-21.3515"/>
<polygon fill="#191970" stroke="#191970" points="300.7255,-17.9362 290.1959,-19.1105 299.1596,-24.7588 300.7255,-17.9362"/>
</g>
</g>
</svg>
