<?xml version="1.0" encoding="UTF-8" standalone="no"?>
<!DOCTYPE svg PUBLIC "-//W3C//DTD SVG 1.1//EN"
 "http://www.w3.org/Graphics/SVG/1.1/DTD/svg11.dtd">
<!-- Generated by graphviz version 2.40.1 (20161225.0304)
 -->
<!-- Title: /home/travis/build/AliceO2Group/AliceO2/Detectors/MUON/MCH/Raw/Decoder/src/UserLogicEndpointDecoder.h Pages: 1 -->
<svg width="1917pt" height="363pt"
 viewBox="0.00 0.00 1917.45 363.00" xmlns="http://www.w3.org/2000/svg" xmlns:xlink="http://www.w3.org/1999/xlink">
<g id="graph0" class="graph" transform="scale(1 1) rotate(0) translate(4 359)">
<title>/home/travis/build/AliceO2Group/AliceO2/Detectors/MUON/MCH/Raw/Decoder/src/UserLogicEndpointDecoder.h</title>
<!-- Node0 -->
<g id="node1" class="node">
<title>Node0</title>
<polygon fill="#bfbfbf" stroke="#000000" points="857.4538,-302.5 857.4538,-354.5 1077.4538,-354.5 1077.4538,-302.5 857.4538,-302.5"/>
<text text-anchor="start" x="865.4538" y="-342.5" font-family="Helvetica,sans-Serif" font-size="10.00" fill="#000000">/home/travis/build</text>
<text text-anchor="start" x="865.4538" y="-331.5" font-family="Helvetica,sans-Serif" font-size="10.00" fill="#000000">/AliceO2Group/AliceO2</text>
<text text-anchor="start" x="865.4538" y="-320.5" font-family="Helvetica,sans-Serif" font-size="10.00" fill="#000000">/Detectors/MUON/MCH/Raw</text>
<text text-anchor="middle" x="967.4538" y="-309.5" font-family="Helvetica,sans-Serif" font-size="10.00" fill="#000000">/Decoder/src/UserLogicEndpointDecoder.h</text>
</g>
<!-- Node1 -->
<g id="node2" class="node">
<title>Node1</title>
<polygon fill="none" stroke="#bfbfbf" points="81.4538,-56.5 81.4538,-75.5 123.4538,-75.5 123.4538,-56.5 81.4538,-56.5"/>
<text text-anchor="middle" x="102.4538" y="-63.5" font-family="Helvetica,sans-Serif" font-size="10.00" fill="#000000">array</text>
</g>
<!-- Node0&#45;&gt;Node1 -->
<g id="edge1" class="edge">
<title>Node0&#45;&gt;Node1</title>
<path fill="none" stroke="#191970" d="M857.1932,-327.4054C625.173,-324.2025 102.3769,-311.9198 36.4538,-266 2.8924,-242.6222 -7.6524,-217.3915 6.4538,-179 21.4772,-138.1125 58.5851,-101.9055 82.0171,-82.0564"/>
<polygon fill="#191970" stroke="#191970" points="84.4746,-84.5666 89.965,-75.5054 80.0222,-79.165 84.4746,-84.5666"/>
</g>
<!-- Node2 -->
<g id="node3" class="node">
<title>Node2</title>
<g id="a_node3"><a xlink:href="../../db/de7/UserLogicElinkDecoder_8h.html" target="_top" xlink:title="UserLogicElinkDecoder.h">
<polygon fill="none" stroke="#000000" points="572.9538,-179.5 572.9538,-198.5 709.9538,-198.5 709.9538,-179.5 572.9538,-179.5"/>
<text text-anchor="middle" x="641.4538" y="-186.5" font-family="Helvetica,sans-Serif" font-size="10.00" fill="#000000">UserLogicElinkDecoder.h</text>
</a>
</g>
</g>
<!-- Node0&#45;&gt;Node2 -->
<g id="edge2" class="edge">
<title>Node0&#45;&gt;Node2</title>
<path fill="none" stroke="#191970" d="M906.5182,-302.4248C837.2951,-272.8033 726.978,-225.597 673.1201,-202.5504"/>
<polygon fill="#191970" stroke="#191970" points="674.314,-199.2544 663.7434,-198.538 671.56,-205.6899 674.314,-199.2544"/>
</g>
<!-- Node3 -->
<g id="node4" class="node">
<title>Node3</title>
<g id="a_node4"><a xlink:href="../../d4/deb/Debug_8h.html" target="_top" xlink:title="Debug.h">
<polygon fill="none" stroke="#000000" points="217.9538,-118 217.9538,-137 274.9538,-137 274.9538,-118 217.9538,-118"/>
<text text-anchor="middle" x="246.4538" y="-125" font-family="Helvetica,sans-Serif" font-size="10.00" fill="#000000">Debug.h</text>
</a>
</g>
</g>
<!-- Node0&#45;&gt;Node3 -->
<g id="edge68" class="edge">
<title>Node0&#45;&gt;Node3</title>
<path fill="none" stroke="#191970" d="M857.4332,-323.5027C725.2896,-313.7115 499.8902,-284.7376 327.4538,-199 300.8508,-185.7726 276.1598,-161.5425 261.1986,-144.9883"/>
<polygon fill="#191970" stroke="#191970" points="263.5296,-142.3381 254.3032,-137.1301 258.268,-146.9551 263.5296,-142.3381"/>
</g>
<!-- Node7 -->
<g id="node8" class="node">
<title>Node7</title>
<polygon fill="none" stroke="#bfbfbf" points="202.4538,-.5 202.4538,-19.5 262.4538,-19.5 262.4538,-.5 202.4538,-.5"/>
<text text-anchor="middle" x="232.4538" y="-7.5" font-family="Helvetica,sans-Serif" font-size="10.00" fill="#000000">iostream</text>
</g>
<!-- Node0&#45;&gt;Node7 -->
<g id="edge37" class="edge">
<title>Node0&#45;&gt;Node7</title>
<path fill="none" stroke="#191970" d="M857.3467,-326.2939C653.2664,-321.2621 232.1438,-306.104 179.4538,-266 150.4777,-243.9453 151.4538,-225.4146 151.4538,-189 151.4538,-189 151.4538,-189 151.4538,-127.5 151.4538,-85.1676 187.5335,-47.003 211.5335,-26.2991"/>
<polygon fill="#191970" stroke="#191970" points="213.9878,-28.8102 219.4398,-19.7258 209.5127,-23.4275 213.9878,-28.8102"/>
</g>
<!-- Node8 -->
<g id="node9" class="node">
<title>Node8</title>
<g id="a_node9"><a xlink:href="../../dd/d58/SampaChannelHandler_8h.html" target="_top" xlink:title="MCHRawDecoder/SampaChannel\lHandler.h">
<polygon fill="none" stroke="#000000" points="1058.9538,-112.5 1058.9538,-142.5 1235.9538,-142.5 1235.9538,-112.5 1058.9538,-112.5"/>
<text text-anchor="start" x="1066.9538" y="-130.5" font-family="Helvetica,sans-Serif" font-size="10.00" fill="#000000">MCHRawDecoder/SampaChannel</text>
<text text-anchor="middle" x="1147.4538" y="-119.5" font-family="Helvetica,sans-Serif" font-size="10.00" fill="#000000">Handler.h</text>
</a>
</g>
</g>
<!-- Node0&#45;&gt;Node8 -->
<g id="edge28" class="edge">
<title>Node0&#45;&gt;Node8</title>
<path fill="none" stroke="#191970" d="M1004.0755,-302.3323C1017.739,-291.7741 1032.9554,-279.0183 1045.4538,-266 1080.7243,-229.2624 1114.2692,-180.0064 1132.7346,-151.2153"/>
<polygon fill="#191970" stroke="#191970" points="1135.7807,-152.9473 1138.1831,-142.6284 1129.8701,-149.1969 1135.7807,-152.9473"/>
</g>
<!-- Node12 -->
<g id="node13" class="node">
<title>Node12</title>
<polygon fill="none" stroke="#bfbfbf" points="706.9538,-.5 706.9538,-19.5 785.9538,-19.5 785.9538,-.5 706.9538,-.5"/>
<text text-anchor="middle" x="746.4538" y="-7.5" font-family="Helvetica,sans-Serif" font-size="10.00" fill="#000000">fmt/format.h</text>
</g>
<!-- Node0&#45;&gt;Node12 -->
<g id="edge31" class="edge">
<title>Node0&#45;&gt;Node12</title>
<path fill="none" stroke="#191970" d="M984.2635,-302.1954C1009.5339,-258.971 1050.4158,-171.7616 1011.4538,-112 1003.0313,-99.081 898.8405,-61.5556 884.4538,-56 852.2465,-43.5626 815.0828,-31.2905 787.4415,-22.5541"/>
<polygon fill="#191970" stroke="#191970" points="788.3047,-19.1568 777.7155,-19.5017 786.2086,-25.8356 788.3047,-19.1568"/>
</g>
<!-- Node18 -->
<g id="node19" class="node">
<title>Node18</title>
<polygon fill="none" stroke="#bfbfbf" points="931.9538,-118 931.9538,-137 1002.9538,-137 1002.9538,-118 931.9538,-118"/>
<text text-anchor="middle" x="967.4538" y="-125" font-family="Helvetica,sans-Serif" font-size="10.00" fill="#000000">fmt/printf.h</text>
</g>
<!-- Node0&#45;&gt;Node18 -->
<g id="edge30" class="edge">
<title>Node0&#45;&gt;Node18</title>
<path fill="none" stroke="#191970" d="M967.4538,-302.2228C967.4538,-261.5098 967.4538,-184.0796 967.4538,-147.5399"/>
<polygon fill="#191970" stroke="#191970" points="970.9539,-147.2116 967.4538,-137.2116 963.9539,-147.2116 970.9539,-147.2116"/>
</g>
<!-- Node21 -->
<g id="node22" class="node">
<title>Node21</title>
<polygon fill="none" stroke="#bfbfbf" points="1717.9538,-56.5 1717.9538,-75.5 1774.9538,-75.5 1774.9538,-56.5 1717.9538,-56.5"/>
<text text-anchor="middle" x="1746.4538" y="-63.5" font-family="Helvetica,sans-Serif" font-size="10.00" fill="#000000">gsl/span</text>
</g>
<!-- Node0&#45;&gt;Node21 -->
<g id="edge29" class="edge">
<title>Node0&#45;&gt;Node21</title>
<path fill="none" stroke="#191970" d="M1077.6459,-318.3394C1282.7744,-298.2718 1706.2532,-250.968 1747.4538,-199 1773.4031,-166.2691 1762.1814,-113.3883 1753.3628,-85.1758"/>
<polygon fill="#191970" stroke="#191970" points="1756.6732,-84.0388 1750.1832,-75.6643 1750.0343,-86.2581 1756.6732,-84.0388"/>
</g>
<!-- Node22 -->
<g id="node23" class="node">
<title>Node22</title>
<g id="a_node23"><a xlink:href="../../d7/dee/MakeArray_8h.html" target="_top" xlink:title="MakeArray.h">
<polygon fill="none" stroke="#000000" points="45.9538,-241 45.9538,-260 122.9538,-260 122.9538,-241 45.9538,-241"/>
<text text-anchor="middle" x="84.4538" y="-248" font-family="Helvetica,sans-Serif" font-size="10.00" fill="#000000">MakeArray.h</text>
</a>
</g>
</g>
<!-- Node0&#45;&gt;Node22 -->
<g id="edge32" class="edge">
<title>Node0&#45;&gt;Node22</title>
<path fill="none" stroke="#191970" d="M857.3286,-323.0758C664.2963,-313.089 272.5198,-290.5554 137.4538,-266 132.6935,-265.1346 127.7503,-264.0079 122.8812,-262.7567"/>
<polygon fill="#191970" stroke="#191970" points="123.6437,-259.3365 113.0734,-260.0573 121.7861,-266.0856 123.6437,-259.3365"/>
</g>
<!-- Node24 -->
<g id="node25" class="node">
<title>Node24</title>
<g id="a_node25"><a xlink:href="../../dc/d46/Assertions_8h.html" target="_top" xlink:title="Assertions.h">
<polygon fill="none" stroke="#000000" points="188.9538,-241 188.9538,-260 265.9538,-260 265.9538,-241 188.9538,-241"/>
<text text-anchor="middle" x="227.4538" y="-248" font-family="Helvetica,sans-Serif" font-size="10.00" fill="#000000">Assertions.h</text>
</a>
</g>
</g>
<!-- Node0&#45;&gt;Node24 -->
<g id="edge35" class="edge">
<title>Node0&#45;&gt;Node24</title>
<path fill="none" stroke="#191970" d="M857.4297,-324.1669C721.9804,-317.515 485.3282,-301.5999 285.4538,-266 280.0667,-265.0405 274.4497,-263.8226 268.9239,-262.4928"/>
<polygon fill="#191970" stroke="#191970" points="269.6989,-259.0785 259.145,-260.0096 267.976,-265.8632 269.6989,-259.0785"/>
</g>
<!-- Node25 -->
<g id="node26" class="node">
<title>Node25</title>
<polygon fill="none" stroke="#bfbfbf" points="1793.4538,-235.5 1793.4538,-265.5 1909.4538,-265.5 1909.4538,-235.5 1793.4538,-235.5"/>
<text text-anchor="start" x="1801.4538" y="-253.5" font-family="Helvetica,sans-Serif" font-size="10.00" fill="#000000">boost/multiprecision</text>
<text text-anchor="middle" x="1851.4538" y="-242.5" font-family="Helvetica,sans-Serif" font-size="10.00" fill="#000000">/cpp_int.hpp</text>
</g>
<!-- Node0&#45;&gt;Node25 -->
<g id="edge38" class="edge">
<title>Node0&#45;&gt;Node25</title>
<path fill="none" stroke="#191970" d="M1077.6411,-324.7445C1234.2889,-318.3347 1530.0517,-302.2738 1779.4538,-266 1780.735,-265.8137 1782.0274,-265.6178 1783.3282,-265.4135"/>
<polygon fill="#191970" stroke="#191970" points="1784.1451,-268.825 1793.4172,-263.6988 1782.9721,-261.9239 1784.1451,-268.825"/>
</g>
<!-- Node26 -->
<g id="node27" class="node">
<title>Node26</title>
<g id="a_node27"><a xlink:href="../../d8/d97/FeeLinkId_8h.html" target="_top" xlink:title="MCHRawElecMap/FeeLinkId.h">
<polygon fill="none" stroke="#000000" points="1503.4538,-56.5 1503.4538,-75.5 1661.4538,-75.5 1661.4538,-56.5 1503.4538,-56.5"/>
<text text-anchor="middle" x="1582.4538" y="-63.5" font-family="Helvetica,sans-Serif" font-size="10.00" fill="#000000">MCHRawElecMap/FeeLinkId.h</text>
</a>
</g>
</g>
<!-- Node0&#45;&gt;Node26 -->
<g id="edge39" class="edge">
<title>Node0&#45;&gt;Node26</title>
<path fill="none" stroke="#191970" d="M1077.5855,-321.9442C1193.565,-313.5627 1367.4058,-296.3672 1426.4538,-266 1504.4321,-225.8974 1555.4859,-127.1764 1574.3221,-85.2906"/>
<polygon fill="#191970" stroke="#191970" points="1577.6128,-86.501 1578.4136,-75.9364 1571.1994,-83.6957 1577.6128,-86.501"/>
</g>
<!-- Node27 -->
<g id="node28" class="node">
<title>Node27</title>
<g id="a_node28"><a xlink:href="../../d0/da1/PayloadDecoder_8h.html" target="_top" xlink:title="PayloadDecoder.h">
<polygon fill="none" stroke="#000000" points="1313.4538,-241 1313.4538,-260 1417.4538,-260 1417.4538,-241 1313.4538,-241"/>
<text text-anchor="middle" x="1365.4538" y="-248" font-family="Helvetica,sans-Serif" font-size="10.00" fill="#000000">PayloadDecoder.h</text>
</a>
</g>
</g>
<!-- Node0&#45;&gt;Node27 -->
<g id="edge42" class="edge">
<title>Node0&#45;&gt;Node27</title>
<path fill="none" stroke="#191970" d="M1077.5265,-306.928C1151.69,-292.3934 1246.5986,-273.7932 1306.7329,-262.0081"/>
<polygon fill="#191970" stroke="#191970" points="1307.6694,-265.3913 1316.8095,-260.0333 1306.3231,-258.5219 1307.6694,-265.3913"/>
</g>
<!-- Node2&#45;&gt;Node3 -->
<g id="edge3" class="edge">
<title>Node2&#45;&gt;Node3</title>
<path fill="none" stroke="#191970" d="M572.8443,-184.441C501.3126,-178.6663 386.3325,-166.4981 289.4538,-143 286.292,-142.2331 283.04,-141.3142 279.8077,-140.3118"/>
<polygon fill="#191970" stroke="#191970" points="280.8744,-136.978 270.2805,-137.1221 278.652,-143.6159 280.8744,-136.978"/>
</g>
<!-- Node4 -->
<g id="node5" class="node">
<title>Node4</title>
<g id="a_node5"><a xlink:href="../../d0/d64/DataFormats_8h.html" target="_top" xlink:title="MCHRawCommon/DataFormats.h">
<polygon fill="none" stroke="#000000" points="619.9538,-118 619.9538,-137 798.9538,-137 798.9538,-118 619.9538,-118"/>
<text text-anchor="middle" x="709.4538" y="-125" font-family="Helvetica,sans-Serif" font-size="10.00" fill="#000000">MCHRawCommon/DataFormats.h</text>
</a>
</g>
</g>
<!-- Node2&#45;&gt;Node4 -->
<g id="edge4" class="edge">
<title>Node2&#45;&gt;Node4</title>
<path fill="none" stroke="#191970" d="M652.0788,-179.3906C662.497,-169.9683 678.5903,-155.4134 691.0843,-144.1137"/>
<polygon fill="#191970" stroke="#191970" points="693.6101,-146.5484 698.679,-137.2449 688.9147,-141.3568 693.6101,-146.5484"/>
</g>
<!-- Node5 -->
<g id="node6" class="node">
<title>Node5</title>
<g id="a_node6"><a xlink:href="../../d5/d49/SampaHeader_8h.html" target="_top" xlink:title="MCHRawCommon/SampaHeader.h">
<polygon fill="none" stroke="#000000" points="254.9538,-56.5 254.9538,-75.5 439.9538,-75.5 439.9538,-56.5 254.9538,-56.5"/>
<text text-anchor="middle" x="347.4538" y="-63.5" font-family="Helvetica,sans-Serif" font-size="10.00" fill="#000000">MCHRawCommon/SampaHeader.h</text>
</a>
</g>
</g>
<!-- Node2&#45;&gt;Node5 -->
<g id="edge5" class="edge">
<title>Node2&#45;&gt;Node5</title>
<path fill="none" stroke="#191970" d="M572.6891,-181.3797C512.6814,-173.7166 431.0191,-160.5312 403.4538,-143 381.3145,-128.9197 365.1005,-102.6974 355.9755,-84.8034"/>
<polygon fill="#191970" stroke="#191970" points="359.0387,-83.0981 351.5365,-75.6169 352.7359,-86.1436 359.0387,-83.0981"/>
</g>
<!-- Node2&#45;&gt;Node7 -->
<g id="edge24" class="edge">
<title>Node2&#45;&gt;Node7</title>
<path fill="none" stroke="#191970" d="M572.8555,-183.6627C516.9148,-177.8367 436.477,-166.0663 369.4538,-143 339.8379,-132.8076 264.0313,-101.2164 245.4538,-76 235.6155,-62.6457 232.6924,-43.7939 232.0396,-29.6553"/>
<polygon fill="#191970" stroke="#191970" points="235.5378,-29.4779 231.9141,-19.522 228.5383,-29.5647 235.5378,-29.4779"/>
</g>
<!-- Node2&#45;&gt;Node8 -->
<g id="edge8" class="edge">
<title>Node2&#45;&gt;Node8</title>
<path fill="none" stroke="#191970" d="M709.9584,-180.6739C797.2704,-170.0618 948.8256,-151.6416 1048.6348,-139.5106"/>
<polygon fill="#191970" stroke="#191970" points="1049.2258,-142.9646 1058.7304,-138.2836 1048.3811,-136.0158 1049.2258,-142.9646"/>
</g>
<!-- Node9 -->
<g id="node10" class="node">
<title>Node9</title>
<polygon fill="none" stroke="#bfbfbf" points="949.9538,-56.5 949.9538,-75.5 1014.9538,-75.5 1014.9538,-56.5 949.9538,-56.5"/>
<text text-anchor="middle" x="982.4538" y="-63.5" font-family="Helvetica,sans-Serif" font-size="10.00" fill="#000000">functional</text>
</g>
<!-- Node2&#45;&gt;Node9 -->
<g id="edge23" class="edge">
<title>Node2&#45;&gt;Node9</title>
<path fill="none" stroke="#191970" d="M697.7843,-179.4611C736.453,-171.9459 788.5233,-159.8991 832.4538,-143 859.3687,-132.6465 863.8581,-125.284 889.4538,-112 910.6929,-100.9771 934.9321,-89.0074 953.3385,-80.0417"/>
<polygon fill="#191970" stroke="#191970" points="954.9192,-83.1651 962.3855,-75.6481 951.8611,-76.8684 954.9192,-83.1651"/>
</g>
<!-- Node11 -->
<g id="node12" class="node">
<title>Node11</title>
<polygon fill="none" stroke="#bfbfbf" points="584.9538,-.5 584.9538,-19.5 631.9538,-19.5 631.9538,-.5 584.9538,-.5"/>
<text text-anchor="middle" x="608.4538" y="-7.5" font-family="Helvetica,sans-Serif" font-size="10.00" fill="#000000">vector</text>
</g>
<!-- Node2&#45;&gt;Node11 -->
<g id="edge26" class="edge">
<title>Node2&#45;&gt;Node11</title>
<path fill="none" stroke="#191970" d="M572.8521,-182.7277C520.0953,-176.3169 453.4355,-164.2145 436.4538,-143 427.8438,-132.2439 427.5522,-122.5161 436.4538,-112 499.0505,-38.0506 588.8572,-149.9494 651.4538,-76 664.8937,-60.1226 647.1813,-39.8121 630.5916,-25.9421"/>
<polygon fill="#191970" stroke="#191970" points="632.6975,-23.1454 622.6792,-19.6981 628.3611,-28.6405 632.6975,-23.1454"/>
</g>
<!-- Node2&#45;&gt;Node12 -->
<g id="edge21" class="edge">
<title>Node2&#45;&gt;Node12</title>
<path fill="none" stroke="#191970" d="M590.7378,-179.4201C570.2717,-172.7945 548.6496,-161.6576 536.4538,-143 528.9155,-131.4674 528.0908,-122.9493 536.4538,-112 573.3647,-63.6744 614.6362,-104.3097 668.4538,-76 692.5622,-63.3183 715.8139,-42.1025 730.5619,-27.1542"/>
<polygon fill="#191970" stroke="#191970" points="733.4268,-29.2242 737.8318,-19.5884 728.3793,-24.3741 733.4268,-29.2242"/>
</g>
<!-- Node13 -->
<g id="node14" class="node">
<title>Node13</title>
<g id="a_node14"><a xlink:href="../../d4/d09/DsElecId_8h.html" target="_top" xlink:title="MCHRawElecMap/DsElecId.h">
<polygon fill="none" stroke="#000000" points="1071.9538,-56.5 1071.9538,-75.5 1226.9538,-75.5 1226.9538,-56.5 1071.9538,-56.5"/>
<text text-anchor="middle" x="1149.4538" y="-63.5" font-family="Helvetica,sans-Serif" font-size="10.00" fill="#000000">MCHRawElecMap/DsElecId.h</text>
</a>
</g>
</g>
<!-- Node2&#45;&gt;Node13 -->
<g id="edge19" class="edge">
<title>Node2&#45;&gt;Node13</title>
<path fill="none" stroke="#191970" d="M710.0352,-182.6211C757.7852,-176.4923 822.195,-164.8047 875.4538,-143 898.6116,-133.519 899.3238,-121.5485 922.4538,-112 966.6773,-93.7438 1018.8282,-82.521 1061.9847,-75.7372"/>
<polygon fill="#191970" stroke="#191970" points="1062.537,-79.1936 1071.898,-74.2315 1061.4858,-72.2729 1062.537,-79.1936"/>
</g>
<!-- Node17 -->
<g id="node18" class="node">
<title>Node17</title>
<polygon fill="none" stroke="#bfbfbf" points="445.4538,-118 445.4538,-137 489.4538,-137 489.4538,-118 445.4538,-118"/>
<text text-anchor="middle" x="467.4538" y="-125" font-family="Helvetica,sans-Serif" font-size="10.00" fill="#000000">bitset</text>
</g>
<!-- Node2&#45;&gt;Node17 -->
<g id="edge20" class="edge">
<title>Node2&#45;&gt;Node17</title>
<path fill="none" stroke="#191970" d="M610.2214,-179.4223C582.0761,-170.5947 539.6771,-156.8068 503.4538,-143 501.8364,-142.3835 500.185,-141.7365 498.5222,-141.0711"/>
<polygon fill="#191970" stroke="#191970" points="499.6125,-137.7344 489.0341,-137.1439 496.9354,-144.2023 499.6125,-137.7344"/>
</g>
<!-- Node2&#45;&gt;Node18 -->
<g id="edge22" class="edge">
<title>Node2&#45;&gt;Node18</title>
<path fill="none" stroke="#191970" d="M710.0223,-180.2057C766.1829,-172.3738 847.4997,-159.5918 917.4538,-143 921.3226,-142.0824 925.3293,-141.0258 929.3138,-139.9044"/>
<polygon fill="#191970" stroke="#191970" points="930.4788,-143.21 939.0815,-137.0259 928.5,-136.4955 930.4788,-143.21"/>
</g>
<!-- Node19 -->
<g id="node20" class="node">
<title>Node19</title>
<polygon fill="none" stroke="#bfbfbf" points="810.9538,-56.5 810.9538,-75.5 875.9538,-75.5 875.9538,-56.5 810.9538,-56.5"/>
<text text-anchor="middle" x="843.4538" y="-63.5" font-family="Helvetica,sans-Serif" font-size="10.00" fill="#000000">stdexcept</text>
</g>
<!-- Node2&#45;&gt;Node19 -->
<g id="edge25" class="edge">
<title>Node2&#45;&gt;Node19</title>
<path fill="none" stroke="#191970" d="M693.622,-179.4899C735.5564,-170.9628 790.2123,-157.5782 807.4538,-143 824.9978,-128.1661 834.5176,-102.8962 839.2844,-85.3701"/>
<polygon fill="#191970" stroke="#191970" points="842.6928,-86.1659 841.6674,-75.6208 835.893,-84.5038 842.6928,-86.1659"/>
</g>
<!-- Node20 -->
<g id="node21" class="node">
<title>Node20</title>
<polygon fill="none" stroke="#bfbfbf" points="545.4538,-118 545.4538,-137 601.4538,-137 601.4538,-118 545.4538,-118"/>
<text text-anchor="middle" x="573.4538" y="-125" font-family="Helvetica,sans-Serif" font-size="10.00" fill="#000000">sstream</text>
</g>
<!-- Node2&#45;&gt;Node20 -->
<g id="edge27" class="edge">
<title>Node2&#45;&gt;Node20</title>
<path fill="none" stroke="#191970" d="M630.8288,-179.3906C620.4107,-169.9683 604.3174,-155.4134 591.8234,-144.1137"/>
<polygon fill="#191970" stroke="#191970" points="593.993,-141.3568 584.2286,-137.2449 589.2976,-146.5484 593.993,-141.3568"/>
</g>
<!-- Node6 -->
<g id="node7" class="node">
<title>Node6</title>
<polygon fill="none" stroke="#bfbfbf" points="322.9538,-.5 322.9538,-19.5 371.9538,-19.5 371.9538,-.5 322.9538,-.5"/>
<text text-anchor="middle" x="347.4538" y="-7.5" font-family="Helvetica,sans-Serif" font-size="10.00" fill="#000000">cstdlib</text>
</g>
<!-- Node5&#45;&gt;Node6 -->
<g id="edge6" class="edge">
<title>Node5&#45;&gt;Node6</title>
<path fill="none" stroke="#191970" d="M347.4538,-56.2455C347.4538,-48.9382 347.4538,-38.6944 347.4538,-29.7046"/>
<polygon fill="#191970" stroke="#191970" points="350.9539,-29.6426 347.4538,-19.6427 343.9539,-29.6427 350.9539,-29.6426"/>
</g>
<!-- Node5&#45;&gt;Node7 -->
<g id="edge7" class="edge">
<title>Node5&#45;&gt;Node7</title>
<path fill="none" stroke="#191970" d="M327.6846,-56.3733C309.3069,-47.4241 281.7226,-33.9917 260.9646,-23.8835"/>
<polygon fill="#191970" stroke="#191970" points="262.4881,-20.7325 251.9651,-19.5011 259.4234,-27.026 262.4881,-20.7325"/>
</g>
<!-- Node8&#45;&gt;Node9 -->
<g id="edge9" class="edge">
<title>Node8&#45;&gt;Node9</title>
<path fill="none" stroke="#191970" d="M1107.0903,-112.4554C1079.6804,-102.239 1043.7879,-88.8609 1017.5628,-79.0861"/>
<polygon fill="#191970" stroke="#191970" points="1018.6157,-75.7433 1008.023,-75.5303 1016.1709,-82.3025 1018.6157,-75.7433"/>
</g>
<!-- Node10 -->
<g id="node11" class="node">
<title>Node10</title>
<g id="a_node11"><a xlink:href="../../d0/d5b/SampaCluster_8h.html" target="_top" xlink:title="MCHRawCommon/SampaCluster.h">
<polygon fill="none" stroke="#000000" points="458.4538,-56.5 458.4538,-75.5 642.4538,-75.5 642.4538,-56.5 458.4538,-56.5"/>
<text text-anchor="middle" x="550.4538" y="-63.5" font-family="Helvetica,sans-Serif" font-size="10.00" fill="#000000">MCHRawCommon/SampaCluster.h</text>
</a>
</g>
</g>
<!-- Node8&#45;&gt;Node10 -->
<g id="edge10" class="edge">
<title>Node8&#45;&gt;Node10</title>
<path fill="none" stroke="#191970" d="M1058.9538,-117.2315C1043.1402,-115.4486 1026.813,-113.6415 1011.4538,-112 888.1827,-98.8258 746.2355,-84.8403 652.788,-75.7962"/>
<polygon fill="#191970" stroke="#191970" points="653.06,-72.3062 642.7695,-74.8275 652.3862,-79.2737 653.06,-72.3062"/>
</g>
<!-- Node8&#45;&gt;Node13 -->
<g id="edge15" class="edge">
<title>Node8&#45;&gt;Node13</title>
<path fill="none" stroke="#191970" d="M1147.9482,-112.2977C1148.2056,-104.3834 1148.5236,-94.6043 1148.801,-86.0759"/>
<polygon fill="#191970" stroke="#191970" points="1152.3066,-85.9554 1149.1336,-75.8469 1145.3103,-85.7279 1152.3066,-85.9554"/>
</g>
<!-- Node10&#45;&gt;Node6 -->
<g id="edge11" class="edge">
<title>Node10&#45;&gt;Node6</title>
<path fill="none" stroke="#191970" d="M515.5569,-56.3733C478.1505,-46.0543 419.1363,-29.7745 381.9033,-19.5033"/>
<polygon fill="#191970" stroke="#191970" points="382.5861,-16.061 372.0154,-16.7756 380.7245,-22.8089 382.5861,-16.061"/>
</g>
<!-- Node10&#45;&gt;Node7 -->
<g id="edge13" class="edge">
<title>Node10&#45;&gt;Node7</title>
<path fill="none" stroke="#191970" d="M496.149,-56.4369C432.6899,-45.2617 329.1774,-27.0331 272.5617,-17.063"/>
<polygon fill="#191970" stroke="#191970" points="273.0118,-13.5885 262.5563,-15.3011 271.7977,-20.4824 273.0118,-13.5885"/>
</g>
<!-- Node10&#45;&gt;Node11 -->
<g id="edge12" class="edge">
<title>Node10&#45;&gt;Node11</title>
<path fill="none" stroke="#191970" d="M560.5567,-56.2455C568.9567,-48.1352 581.1032,-36.4075 591.0622,-26.7919"/>
<polygon fill="#191970" stroke="#191970" points="593.7038,-29.1066 598.4668,-19.6427 588.8417,-24.0707 593.7038,-29.1066"/>
</g>
<!-- Node10&#45;&gt;Node12 -->
<g id="edge14" class="edge">
<title>Node10&#45;&gt;Node12</title>
<path fill="none" stroke="#191970" d="M584.1474,-56.3733C617.1625,-46.9404 667.6111,-32.5265 703.4924,-22.2747"/>
<polygon fill="#191970" stroke="#191970" points="704.5462,-25.6137 713.1999,-19.5011 702.6231,-18.8831 704.5462,-25.6137"/>
</g>
<!-- Node14 -->
<g id="node15" class="node">
<title>Node14</title>
<polygon fill="none" stroke="#bfbfbf" points="1557.4538,-.5 1557.4538,-19.5 1607.4538,-19.5 1607.4538,-.5 1557.4538,-.5"/>
<text text-anchor="middle" x="1582.4538" y="-7.5" font-family="Helvetica,sans-Serif" font-size="10.00" fill="#000000">cstdint</text>
</g>
<!-- Node13&#45;&gt;Node14 -->
<g id="edge16" class="edge">
<title>Node13&#45;&gt;Node14</title>
<path fill="none" stroke="#191970" d="M1223.3972,-56.4369C1317.5942,-44.2544 1476.6045,-23.6895 1547.0449,-14.5794"/>
<polygon fill="#191970" stroke="#191970" points="1547.7036,-18.0235 1557.1721,-13.2697 1546.8058,-11.0813 1547.7036,-18.0235"/>
</g>
<!-- Node15 -->
<g id="node16" class="node">
<title>Node15</title>
<polygon fill="none" stroke="#bfbfbf" points="1384.9538,-.5 1384.9538,-19.5 1433.9538,-19.5 1433.9538,-.5 1384.9538,-.5"/>
<text text-anchor="middle" x="1409.4538" y="-7.5" font-family="Helvetica,sans-Serif" font-size="10.00" fill="#000000">iosfwd</text>
</g>
<!-- Node13&#45;&gt;Node15 -->
<g id="edge17" class="edge">
<title>Node13&#45;&gt;Node15</title>
<path fill="none" stroke="#191970" d="M1193.854,-56.4369C1245.093,-45.4008 1328.2697,-27.4858 1374.9149,-17.4392"/>
<polygon fill="#191970" stroke="#191970" points="1375.8029,-20.8282 1384.8418,-15.3011 1374.329,-13.9852 1375.8029,-20.8282"/>
</g>
<!-- Node16 -->
<g id="node17" class="node">
<title>Node16</title>
<polygon fill="none" stroke="#bfbfbf" points="1174.4538,-.5 1174.4538,-19.5 1230.4538,-19.5 1230.4538,-.5 1174.4538,-.5"/>
<text text-anchor="middle" x="1202.4538" y="-7.5" font-family="Helvetica,sans-Serif" font-size="10.00" fill="#000000">optional</text>
</g>
<!-- Node13&#45;&gt;Node16 -->
<g id="edge18" class="edge">
<title>Node13&#45;&gt;Node16</title>
<path fill="none" stroke="#191970" d="M1158.6857,-56.2455C1166.2856,-48.2155 1177.2416,-36.6394 1186.2906,-27.0781"/>
<polygon fill="#191970" stroke="#191970" points="1188.9959,-29.3115 1193.3277,-19.6427 1183.9118,-24.4998 1188.9959,-29.3115"/>
</g>
<!-- Node22&#45;&gt;Node1 -->
<g id="edge33" class="edge">
<title>Node22&#45;&gt;Node1</title>
<path fill="none" stroke="#191970" d="M86.4894,-240.6729C88.554,-230.3434 91.6894,-213.5976 93.4538,-199 98.2921,-158.9718 100.7133,-111.828 101.7665,-85.7922"/>
<polygon fill="#191970" stroke="#191970" points="105.2672,-85.8369 102.1476,-75.7118 98.2722,-85.5724 105.2672,-85.8369"/>
</g>
<!-- Node23 -->
<g id="node24" class="node">
<title>Node23</title>
<polygon fill="none" stroke="#bfbfbf" points="15.9538,-179.5 15.9538,-198.5 84.9538,-198.5 84.9538,-179.5 15.9538,-179.5"/>
<text text-anchor="middle" x="50.4538" y="-186.5" font-family="Helvetica,sans-Serif" font-size="10.00" fill="#000000">type_traits</text>
</g>
<!-- Node22&#45;&gt;Node23 -->
<g id="edge34" class="edge">
<title>Node22&#45;&gt;Node23</title>
<path fill="none" stroke="#191970" d="M79.1413,-240.8906C74.2299,-232.0068 66.796,-218.5601 60.7263,-207.5811"/>
<polygon fill="#191970" stroke="#191970" points="63.7427,-205.8031 55.8412,-198.7449 57.6165,-209.1899 63.7427,-205.8031"/>
</g>
<!-- Node24&#45;&gt;Node12 -->
<g id="edge36" class="edge">
<title>Node24&#45;&gt;Node12</title>
<path fill="none" stroke="#191970" d="M221.6841,-240.9203C207.518,-216.04 174.5627,-148.757 208.4538,-112 275.4059,-39.3864 558.476,-109.323 651.4538,-76 659.5713,-73.0907 699.5567,-44.3782 724.9961,-25.7946"/>
<polygon fill="#191970" stroke="#191970" points="727.3131,-28.4359 733.3116,-19.7027 723.1762,-22.7891 727.3131,-28.4359"/>
</g>
<!-- Node26&#45;&gt;Node14 -->
<g id="edge40" class="edge">
<title>Node26&#45;&gt;Node14</title>
<path fill="none" stroke="#191970" d="M1582.4538,-56.2455C1582.4538,-48.9382 1582.4538,-38.6944 1582.4538,-29.7046"/>
<polygon fill="#191970" stroke="#191970" points="1585.9539,-29.6426 1582.4538,-19.6427 1578.9539,-29.6427 1585.9539,-29.6426"/>
</g>
<!-- Node26&#45;&gt;Node15 -->
<g id="edge41" class="edge">
<title>Node26&#45;&gt;Node15</title>
<path fill="none" stroke="#191970" d="M1552.7141,-56.3733C1522.4649,-46.5816 1475.6352,-31.4229 1443.8175,-21.1235"/>
<polygon fill="#191970" stroke="#191970" points="1444.6465,-17.7131 1434.0547,-17.9633 1442.4907,-24.3729 1444.6465,-17.7131"/>
</g>
<!-- Node27&#45;&gt;Node6 -->
<g id="edge66" class="edge">
<title>Node27&#45;&gt;Node6</title>
<path fill="none" stroke="#191970" d="M1313.2649,-248.6286C1159.2619,-242.872 708.464,-224.2764 563.4538,-199 488.8107,-185.9891 284.2601,-141.0766 245.4538,-76 227.3344,-45.6144 276.7455,-26.7132 312.9738,-17.2914"/>
<polygon fill="#191970" stroke="#191970" points="313.8991,-20.6682 322.7754,-14.8836 312.2292,-13.8703 313.8991,-20.6682"/>
</g>
<!-- Node27&#45;&gt;Node8 -->
<g id="edge45" class="edge">
<title>Node27&#45;&gt;Node8</title>
<path fill="none" stroke="#191970" d="M1346.7218,-240.8773C1327.0845,-230.7145 1295.3976,-214.1029 1268.4538,-199 1238.6337,-182.2848 1205.2128,-162.4504 1181.0635,-147.9172"/>
<polygon fill="#191970" stroke="#191970" points="1182.6596,-144.7925 1172.2889,-142.6244 1179.0439,-150.7865 1182.6596,-144.7925"/>
</g>
<!-- Node27&#45;&gt;Node21 -->
<g id="edge67" class="edge">
<title>Node27&#45;&gt;Node21</title>
<path fill="none" stroke="#191970" d="M1389.1111,-240.8876C1413.4623,-230.8674 1452.4045,-214.4919 1485.4538,-199 1572.261,-158.309 1672.7503,-105.4264 1719.6999,-80.3722"/>
<polygon fill="#191970" stroke="#191970" points="1721.4508,-83.4049 1728.6191,-75.6033 1718.1502,-77.2319 1721.4508,-83.4049"/>
</g>
<!-- Node28 -->
<g id="node29" class="node">
<title>Node28</title>
<g id="a_node29"><a xlink:href="../../d4/d78/DataFormats_2Headers_2include_2Headers_2RAWDataHeader_8h.html" target="_top" xlink:title="Headers/RAWDataHeader.h">
<polygon fill="none" stroke="#000000" points="1588.9538,-179.5 1588.9538,-198.5 1737.9538,-198.5 1737.9538,-179.5 1588.9538,-179.5"/>
<text text-anchor="middle" x="1663.4538" y="-186.5" font-family="Helvetica,sans-Serif" font-size="10.00" fill="#000000">Headers/RAWDataHeader.h</text>
</a>
</g>
</g>
<!-- Node27&#45;&gt;Node28 -->
<g id="edge43" class="edge">
<title>Node27&#45;&gt;Node28</title>
<path fill="none" stroke="#191970" d="M1411.6894,-240.9581C1464.4333,-230.073 1550.6737,-212.2751 1607.253,-200.5985"/>
<polygon fill="#191970" stroke="#191970" points="1608.0237,-204.0133 1617.1098,-198.5643 1606.6088,-197.1578 1608.0237,-204.0133"/>
</g>
<!-- Node29 -->
<g id="node30" class="node">
<title>Node29</title>
<g id="a_node30"><a xlink:href="../../dc/d36/PageDecoder_8h.html" target="_top" xlink:title="MCHRawDecoder/PageDecoder.h">
<polygon fill="none" stroke="#000000" points="1277.4538,-179.5 1277.4538,-198.5 1453.4538,-198.5 1453.4538,-179.5 1277.4538,-179.5"/>
<text text-anchor="middle" x="1365.4538" y="-186.5" font-family="Helvetica,sans-Serif" font-size="10.00" fill="#000000">MCHRawDecoder/PageDecoder.h</text>
</a>
</g>
</g>
<!-- Node27&#45;&gt;Node29 -->
<g id="edge46" class="edge">
<title>Node27&#45;&gt;Node29</title>
<path fill="none" stroke="#191970" d="M1365.4538,-240.8906C1365.4538,-232.3657 1365.4538,-219.6392 1365.4538,-208.9235"/>
<polygon fill="#191970" stroke="#191970" points="1368.9539,-208.7448 1365.4538,-198.7449 1361.9539,-208.7449 1368.9539,-208.7448"/>
</g>
<!-- Node30 -->
<g id="node31" class="node">
<title>Node30</title>
<polygon fill="none" stroke="#bfbfbf" points="1495.4538,-118 1495.4538,-137 1533.4538,-137 1533.4538,-118 1495.4538,-118"/>
<text text-anchor="middle" x="1514.4538" y="-125" font-family="Helvetica,sans-Serif" font-size="10.00" fill="#000000">map</text>
</g>
<!-- Node27&#45;&gt;Node30 -->
<g id="edge65" class="edge">
<title>Node27&#45;&gt;Node30</title>
<path fill="none" stroke="#191970" d="M1390.4659,-240.968C1411.2683,-232.2097 1440.859,-217.7515 1462.4538,-199 1479.9213,-183.8325 1494.8453,-161.7412 1504.1661,-146.1361"/>
<polygon fill="#191970" stroke="#191970" points="1507.2532,-147.789 1509.2182,-137.3779 1501.1897,-144.2912 1507.2532,-147.789"/>
</g>
<!-- Node28&#45;&gt;Node14 -->
<g id="edge44" class="edge">
<title>Node28&#45;&gt;Node14</title>
<path fill="none" stroke="#191970" d="M1684.5408,-179.3774C1728.5909,-157.9905 1823.1972,-104.558 1784.4538,-56 1763.9922,-30.3549 1670.1113,-17.9001 1617.8428,-12.8596"/>
<polygon fill="#191970" stroke="#191970" points="1617.9493,-9.3546 1607.6701,-11.9215 1617.3064,-16.3251 1617.9493,-9.3546"/>
</g>
<!-- Node29&#45;&gt;Node8 -->
<g id="edge50" class="edge">
<title>Node29&#45;&gt;Node8</title>
<path fill="none" stroke="#191970" d="M1331.3913,-179.3906C1299.1559,-170.2967 1249.9724,-156.4215 1210.5725,-145.3064"/>
<polygon fill="#191970" stroke="#191970" points="1211.3573,-141.8913 1200.7826,-142.5446 1209.4567,-148.6283 1211.3573,-141.8913"/>
</g>
<!-- Node29&#45;&gt;Node9 -->
<g id="edge47" class="edge">
<title>Node29&#45;&gt;Node9</title>
<path fill="none" stroke="#191970" d="M1345.7098,-179.4114C1328.4872,-170.7343 1303.0971,-157.1754 1282.4538,-143 1264.7686,-130.8559 1264.9429,-120.968 1245.4538,-112 1157.0411,-71.3161 1125.0742,-94.1314 1029.4538,-76 1027.9939,-75.7232 1026.5095,-75.4364 1025.0113,-75.1425"/>
<polygon fill="#191970" stroke="#191970" points="1025.527,-71.6761 1015.0321,-73.1276 1024.1415,-78.5376 1025.527,-71.6761"/>
</g>
<!-- Node29&#45;&gt;Node21 -->
<g id="edge48" class="edge">
<title>Node29&#45;&gt;Node21</title>
<path fill="none" stroke="#191970" d="M1385.1522,-179.3443C1402.3454,-170.6242 1427.7182,-157.0399 1448.4538,-143 1466.5018,-130.7799 1466.6394,-121.0802 1486.4538,-112 1491.4808,-109.6963 1636.7171,-84.719 1707.8874,-72.5664"/>
<polygon fill="#191970" stroke="#191970" points="1708.5562,-76.003 1717.825,-70.8707 1707.3787,-69.1027 1708.5562,-76.003"/>
</g>
<!-- Node29&#45;&gt;Node30 -->
<g id="edge49" class="edge">
<title>Node29&#45;&gt;Node30</title>
<path fill="none" stroke="#191970" d="M1390.9829,-179.3957C1414.6107,-170.3843 1450.6345,-156.3336 1481.4538,-143 1483.0115,-142.3261 1484.6048,-141.6234 1486.2093,-140.9052"/>
<polygon fill="#191970" stroke="#191970" points="1487.7167,-144.0645 1495.3496,-136.7167 1484.8006,-137.7008 1487.7167,-144.0645"/>
</g>
<!-- Node31 -->
<g id="node32" class="node">
<title>Node31</title>
<g id="a_node32"><a xlink:href="../../d2/d71/MUON_2MCH_2Raw_2ElecMap_2include_2MCHRawElecMap_2Mapper_8h.html" target="_top" xlink:title="MCHRawElecMap/Mapper.h">
<polygon fill="none" stroke="#000000" points="1291.4538,-118 1291.4538,-137 1439.4538,-137 1439.4538,-118 1291.4538,-118"/>
<text text-anchor="middle" x="1365.4538" y="-125" font-family="Helvetica,sans-Serif" font-size="10.00" fill="#000000">MCHRawElecMap/Mapper.h</text>
</a>
</g>
</g>
<!-- Node29&#45;&gt;Node31 -->
<g id="edge51" class="edge">
<title>Node29&#45;&gt;Node31</title>
<path fill="none" stroke="#191970" d="M1365.4538,-179.3906C1365.4538,-170.8657 1365.4538,-158.1392 1365.4538,-147.4235"/>
<polygon fill="#191970" stroke="#191970" points="1368.9539,-147.2448 1365.4538,-137.2449 1361.9539,-147.2449 1368.9539,-147.2448"/>
</g>
<!-- Node31&#45;&gt;Node1 -->
<g id="edge63" class="edge">
<title>Node31&#45;&gt;Node1</title>
<path fill="none" stroke="#191970" d="M1300.489,-117.9949C1282.6824,-115.6938 1263.3537,-113.475 1245.4538,-112 802.2239,-75.4753 689.5641,-99.5156 245.4538,-76 207.1096,-73.9697 163.042,-70.7543 134.0778,-68.5198"/>
<polygon fill="#191970" stroke="#191970" points="134.0017,-65.0033 123.76,-67.716 133.4579,-71.9822 134.0017,-65.0033"/>
</g>
<!-- Node31&#45;&gt;Node9 -->
<g id="edge52" class="edge">
<title>Node31&#45;&gt;Node9</title>
<path fill="none" stroke="#191970" d="M1312.9151,-117.9786C1301.251,-115.9394 1288.9413,-113.845 1277.4538,-112 1167.4857,-94.3379 1139.0932,-95.5998 1029.4538,-76 1027.9911,-75.7385 1026.5043,-75.465 1025.0039,-75.1824"/>
<polygon fill="#191970" stroke="#191970" points="1025.5034,-71.7136 1015.0157,-73.2166 1024.1516,-78.5818 1025.5034,-71.7136"/>
</g>
<!-- Node31&#45;&gt;Node12 -->
<g id="edge62" class="edge">
<title>Node31&#45;&gt;Node12</title>
<path fill="none" stroke="#191970" d="M1311.4804,-117.9258C1300.2379,-115.9505 1288.4612,-113.8952 1277.4538,-112 1182.4049,-95.6347 1155.1511,-105.8953 1063.4538,-76 1044.5566,-69.8391 1042.3575,-62.1411 1023.4538,-56 946.4167,-30.9737 852.6897,-19.0558 796.3918,-13.773"/>
<polygon fill="#191970" stroke="#191970" points="796.6026,-10.2778 786.3278,-12.8621 795.9715,-17.2493 796.6026,-10.2778"/>
</g>
<!-- Node31&#45;&gt;Node13 -->
<g id="edge60" class="edge">
<title>Node31&#45;&gt;Node13</title>
<path fill="none" stroke="#191970" d="M1331.7038,-117.8906C1294.2157,-107.2169 1233.5941,-89.9566 1192.6653,-78.3033"/>
<polygon fill="#191970" stroke="#191970" points="1193.5431,-74.9141 1182.9669,-75.5419 1191.6261,-81.6466 1193.5431,-74.9141"/>
</g>
<!-- Node31&#45;&gt;Node14 -->
<g id="edge56" class="edge">
<title>Node31&#45;&gt;Node14</title>
<path fill="none" stroke="#191970" d="M1418.9559,-117.9887C1430.3394,-115.9895 1442.2914,-113.9089 1453.4538,-112 1501.6357,-103.7603 1638.8443,-113.2856 1670.4538,-76 1690.4869,-52.3697 1649.7964,-32.1856 1617.2954,-20.5687"/>
<polygon fill="#191970" stroke="#191970" points="1618.1426,-17.1597 1607.5481,-17.2441 1615.8829,-23.7849 1618.1426,-17.1597"/>
</g>
<!-- Node31&#45;&gt;Node16 -->
<g id="edge53" class="edge">
<title>Node31&#45;&gt;Node16</title>
<path fill="none" stroke="#191970" d="M1345.4958,-117.8687C1326.5117,-108.3293 1297.5086,-92.7557 1274.4538,-76 1254.0433,-61.1661 1233.0352,-41.279 1219.0197,-27.2243"/>
<polygon fill="#191970" stroke="#191970" points="1221.1378,-24.3861 1211.6329,-19.7054 1216.1443,-29.2918 1221.1378,-24.3861"/>
</g>
<!-- Node31&#45;&gt;Node19 -->
<g id="edge55" class="edge">
<title>Node31&#45;&gt;Node19</title>
<path fill="none" stroke="#191970" d="M1293.1352,-117.9863C1277.4213,-115.9673 1260.8846,-113.8793 1245.4538,-112 1114.6876,-96.0739 959.7889,-78.7969 886.2821,-70.6941"/>
<polygon fill="#191970" stroke="#191970" points="886.363,-67.1819 876.04,-69.5664 885.5969,-74.1399 886.363,-67.1819"/>
</g>
<!-- Node31&#45;&gt;Node21 -->
<g id="edge64" class="edge">
<title>Node31&#45;&gt;Node21</title>
<path fill="none" stroke="#191970" d="M1417.9911,-117.9688C1429.6552,-115.9301 1441.9653,-113.8385 1453.4538,-112 1564.3007,-94.2614 1593.1278,-96.7328 1703.4538,-76 1704.9133,-75.7257 1706.3981,-75.4357 1707.8962,-75.1339"/>
<polygon fill="#191970" stroke="#191970" points="1708.7946,-78.5211 1717.8447,-73.0124 1707.3346,-71.675 1708.7946,-78.5211"/>
</g>
<!-- Node31&#45;&gt;Node26 -->
<g id="edge61" class="edge">
<title>Node31&#45;&gt;Node26</title>
<path fill="none" stroke="#191970" d="M1399.3601,-117.8906C1437.0218,-107.2169 1497.924,-89.9566 1539.0424,-78.3033"/>
<polygon fill="#191970" stroke="#191970" points="1540.119,-81.6361 1548.7857,-75.5419 1538.2102,-74.9013 1540.119,-81.6361"/>
</g>
<!-- Node32 -->
<g id="node33" class="node">
<title>Node32</title>
<polygon fill="none" stroke="#bfbfbf" points="1283.4538,-56.5 1283.4538,-75.5 1315.4538,-75.5 1315.4538,-56.5 1283.4538,-56.5"/>
<text text-anchor="middle" x="1299.4538" y="-63.5" font-family="Helvetica,sans-Serif" font-size="10.00" fill="#000000">set</text>
</g>
<!-- Node31&#45;&gt;Node32 -->
<g id="edge54" class="edge">
<title>Node31&#45;&gt;Node32</title>
<path fill="none" stroke="#191970" d="M1355.1413,-117.8906C1345.0296,-108.4683 1329.4097,-93.9134 1317.2831,-82.6137"/>
<polygon fill="#191970" stroke="#191970" points="1319.6139,-80.0015 1309.9117,-75.7449 1314.8418,-85.1228 1319.6139,-80.0015"/>
</g>
<!-- Node33 -->
<g id="node34" class="node">
<title>Node33</title>
<g id="a_node34"><a xlink:href="../../d5/dcd/DsDetId_8h.html" target="_top" xlink:title="MCHRawElecMap/DsDetId.h">
<polygon fill="none" stroke="#000000" points="1333.4538,-56.5 1333.4538,-75.5 1485.4538,-75.5 1485.4538,-56.5 1333.4538,-56.5"/>
<text text-anchor="middle" x="1409.4538" y="-63.5" font-family="Helvetica,sans-Serif" font-size="10.00" fill="#000000">MCHRawElecMap/DsDetId.h</text>
</a>
</g>
</g>
<!-- Node31&#45;&gt;Node33 -->
<g id="edge57" class="edge">
<title>Node31&#45;&gt;Node33</title>
<path fill="none" stroke="#191970" d="M1372.3288,-117.8906C1378.8132,-108.8273 1388.6952,-95.0149 1396.6339,-83.9188"/>
<polygon fill="#191970" stroke="#191970" points="1399.5097,-85.9143 1402.4819,-75.7449 1393.8167,-81.8412 1399.5097,-85.9143"/>
</g>
<!-- Node33&#45;&gt;Node14 -->
<g id="edge58" class="edge">
<title>Node33&#45;&gt;Node14</title>
<path fill="none" stroke="#191970" d="M1439.1936,-56.3733C1469.2685,-46.638 1515.7333,-31.5974 1547.5385,-21.3021"/>
<polygon fill="#191970" stroke="#191970" points="1548.8744,-24.5485 1557.3104,-18.1389 1546.7186,-17.8887 1548.8744,-24.5485"/>
</g>
<!-- Node33&#45;&gt;Node15 -->
<g id="edge59" class="edge">
<title>Node33&#45;&gt;Node15</title>
<path fill="none" stroke="#191970" d="M1409.4538,-56.2455C1409.4538,-48.9382 1409.4538,-38.6944 1409.4538,-29.7046"/>
<polygon fill="#191970" stroke="#191970" points="1412.9539,-29.6426 1409.4538,-19.6427 1405.9539,-29.6427 1412.9539,-29.6426"/>
</g>
</g>
</svg>
