<?xml version="1.0" encoding="UTF-8" standalone="no"?>
<!DOCTYPE svg PUBLIC "-//W3C//DTD SVG 1.1//EN"
 "http://www.w3.org/Graphics/SVG/1.1/DTD/svg11.dtd">
<!-- Generated by graphviz version 2.40.1 (20161225.0304)
 -->
<!-- Title: ProcessAttributes Pages: 1 -->
<svg width="916pt" height="848pt"
 viewBox="0.00 0.00 916.00 848.00" xmlns="http://www.w3.org/2000/svg" xmlns:xlink="http://www.w3.org/1999/xlink">
<g id="graph0" class="graph" transform="scale(1 1) rotate(0) translate(4 844)">
<title>ProcessAttributes</title>
<!-- Node1 -->
<g id="node1" class="node">
<title>Node1</title>
<polygon fill="#bfbfbf" stroke="#000000" points="438,-.5 438,-57.5 540,-57.5 540,-.5 438,-.5"/>
<text text-anchor="middle" x="489" y="-45.5" font-family="Helvetica,sans-Serif" font-size="10.00" fill="#000000">ProcessAttributes</text>
<polyline fill="none" stroke="#000000" points="438,-38.5 540,-38.5 "/>
<text text-anchor="middle" x="489" y="-26.5" font-family="Helvetica,sans-Serif" font-size="10.00" fill="#000000"> </text>
<polyline fill="none" stroke="#000000" points="438,-19.5 540,-19.5 "/>
<text text-anchor="middle" x="489" y="-7.5" font-family="Helvetica,sans-Serif" font-size="10.00" fill="#000000"> </text>
</g>
<!-- Node2 -->
<g id="node2" class="node">
<title>Node2</title>
<g id="a_node2"><a xlink:href="../../d4/dc3/classfloat.html" target="_top" xlink:title="{float\n||}">
<polygon fill="none" stroke="#000000" points="0,-248.5 0,-305.5 38,-305.5 38,-248.5 0,-248.5"/>
<text text-anchor="middle" x="19" y="-293.5" font-family="Helvetica,sans-Serif" font-size="10.00" fill="#000000">float</text>
<polyline fill="none" stroke="#000000" points="0,-286.5 38,-286.5 "/>
<text text-anchor="middle" x="19" y="-274.5" font-family="Helvetica,sans-Serif" font-size="10.00" fill="#000000"> </text>
<polyline fill="none" stroke="#000000" points="0,-267.5 38,-267.5 "/>
<text text-anchor="middle" x="19" y="-255.5" font-family="Helvetica,sans-Serif" font-size="10.00" fill="#000000"> </text>
</a>
</g>
</g>
<!-- Node2&#45;&gt;Node1 -->
<g id="edge1" class="edge">
<title>Node2&#45;&gt;Node1</title>
<path fill="none" stroke="#404040" d="M14.7186,-248.3876C10.7779,-210.3613 10.2196,-143.503 47,-105 98.0104,-51.6006 316.103,-35.6091 425.6637,-30.9075"/>
<polygon fill="none" stroke="#404040" points="425.8415,-30.9003 431.674,-26.6598 437.8316,-30.4127 431.9991,-34.6532 425.8415,-30.9003"/>
<text text-anchor="middle" x="127" y="-79" font-family="Helvetica,sans-Serif" font-size="10.00" fill="#000000"> +zsThreshold</text>
</g>
<!-- Node3 -->
<g id="node3" class="node">
<title>Node3</title>
<g id="a_node3"><a xlink:href="../../dc/daa/classo2_1_1dataformats_1_1MCTruthContainer.html" target="_top" xlink:title="{o2::dataformats::MCTruth\lContainer\&lt; o2::MCCompLabel \&gt;\n||+ MCTruthContainer()\l+ MCTruthContainer()\l+ MCTruthContainer()\l+ MCTruthContainer()\l+ ~MCTruthContainer()\l+ operator=()\l+ operator=()\l+ getMCTruthHeader()\l+ getElement()\l+ getIndexedSize()\l+ getNElements()\l+ getLabels()\l+ getLabels()\l+ clear()\l+ addElement()\l+ addElements()\l+ addElements()\l+ addElementRandomAccess()\l+ setFrom()\l+ mergeAtBack()\l+ flatten_to()\l+ restore_from()\l+ print()\l+ inflate()\l+ deflate()\l+ ClassDefNV()\l}">
<polygon fill="none" stroke="#000000" points="56,-105.5 56,-448.5 230,-448.5 230,-105.5 56,-105.5"/>
<text text-anchor="start" x="64" y="-436.5" font-family="Helvetica,sans-Serif" font-size="10.00" fill="#000000">o2::dataformats::MCTruth</text>
<text text-anchor="middle" x="143" y="-425.5" font-family="Helvetica,sans-Serif" font-size="10.00" fill="#000000">Container&lt; o2::MCCompLabel &gt;</text>
<polyline fill="none" stroke="#000000" points="56,-418.5 230,-418.5 "/>
<text text-anchor="middle" x="143" y="-406.5" font-family="Helvetica,sans-Serif" font-size="10.00" fill="#000000"> </text>
<polyline fill="none" stroke="#000000" points="56,-399.5 230,-399.5 "/>
<text text-anchor="start" x="64" y="-387.5" font-family="Helvetica,sans-Serif" font-size="10.00" fill="#000000">+ MCTruthContainer()</text>
<text text-anchor="start" x="64" y="-376.5" font-family="Helvetica,sans-Serif" font-size="10.00" fill="#000000">+ MCTruthContainer()</text>
<text text-anchor="start" x="64" y="-365.5" font-family="Helvetica,sans-Serif" font-size="10.00" fill="#000000">+ MCTruthContainer()</text>
<text text-anchor="start" x="64" y="-354.5" font-family="Helvetica,sans-Serif" font-size="10.00" fill="#000000">+ MCTruthContainer()</text>
<text text-anchor="start" x="64" y="-343.5" font-family="Helvetica,sans-Serif" font-size="10.00" fill="#000000">+ ~MCTruthContainer()</text>
<text text-anchor="start" x="64" y="-332.5" font-family="Helvetica,sans-Serif" font-size="10.00" fill="#000000">+ operator=()</text>
<text text-anchor="start" x="64" y="-321.5" font-family="Helvetica,sans-Serif" font-size="10.00" fill="#000000">+ operator=()</text>
<text text-anchor="start" x="64" y="-310.5" font-family="Helvetica,sans-Serif" font-size="10.00" fill="#000000">+ getMCTruthHeader()</text>
<text text-anchor="start" x="64" y="-299.5" font-family="Helvetica,sans-Serif" font-size="10.00" fill="#000000">+ getElement()</text>
<text text-anchor="start" x="64" y="-288.5" font-family="Helvetica,sans-Serif" font-size="10.00" fill="#000000">+ getIndexedSize()</text>
<text text-anchor="start" x="64" y="-277.5" font-family="Helvetica,sans-Serif" font-size="10.00" fill="#000000">+ getNElements()</text>
<text text-anchor="start" x="64" y="-266.5" font-family="Helvetica,sans-Serif" font-size="10.00" fill="#000000">+ getLabels()</text>
<text text-anchor="start" x="64" y="-255.5" font-family="Helvetica,sans-Serif" font-size="10.00" fill="#000000">+ getLabels()</text>
<text text-anchor="start" x="64" y="-244.5" font-family="Helvetica,sans-Serif" font-size="10.00" fill="#000000">+ clear()</text>
<text text-anchor="start" x="64" y="-233.5" font-family="Helvetica,sans-Serif" font-size="10.00" fill="#000000">+ addElement()</text>
<text text-anchor="start" x="64" y="-222.5" font-family="Helvetica,sans-Serif" font-size="10.00" fill="#000000">+ addElements()</text>
<text text-anchor="start" x="64" y="-211.5" font-family="Helvetica,sans-Serif" font-size="10.00" fill="#000000">+ addElements()</text>
<text text-anchor="start" x="64" y="-200.5" font-family="Helvetica,sans-Serif" font-size="10.00" fill="#000000">+ addElementRandomAccess()</text>
<text text-anchor="start" x="64" y="-189.5" font-family="Helvetica,sans-Serif" font-size="10.00" fill="#000000">+ setFrom()</text>
<text text-anchor="start" x="64" y="-178.5" font-family="Helvetica,sans-Serif" font-size="10.00" fill="#000000">+ mergeAtBack()</text>
<text text-anchor="start" x="64" y="-167.5" font-family="Helvetica,sans-Serif" font-size="10.00" fill="#000000">+ flatten_to()</text>
<text text-anchor="start" x="64" y="-156.5" font-family="Helvetica,sans-Serif" font-size="10.00" fill="#000000">+ restore_from()</text>
<text text-anchor="start" x="64" y="-145.5" font-family="Helvetica,sans-Serif" font-size="10.00" fill="#000000">+ print()</text>
<text text-anchor="start" x="64" y="-134.5" font-family="Helvetica,sans-Serif" font-size="10.00" fill="#000000">+ inflate()</text>
<text text-anchor="start" x="64" y="-123.5" font-family="Helvetica,sans-Serif" font-size="10.00" fill="#000000">+ deflate()</text>
<text text-anchor="start" x="64" y="-112.5" font-family="Helvetica,sans-Serif" font-size="10.00" fill="#000000">+ ClassDefNV()</text>
</a>
</g>
</g>
<!-- Node3&#45;&gt;Node1 -->
<g id="edge2" class="edge">
<title>Node3&#45;&gt;Node1</title>
<path fill="none" stroke="#404040" d="M230.2498,-115.2232C233.1108,-111.7207 236.0283,-108.3065 239,-105 253.9197,-88.3995 259.6056,-85.0687 280,-76 326.6488,-55.2568 383.3638,-43.2454 425.9366,-36.5659"/>
<polygon fill="none" stroke="#404040" points="425.9609,-36.5623 431.3004,-31.7157 437.8279,-34.7804 432.4883,-39.627 425.9609,-36.5623"/>
<text text-anchor="middle" x="318" y="-79" font-family="Helvetica,sans-Serif" font-size="10.00" fill="#000000"> +mctruthArray</text>
</g>
<!-- Node4 -->
<g id="node4" class="node">
<title>Node4</title>
<g id="a_node4"><a xlink:href="../../dc/daa/classo2_1_1dataformats_1_1MCTruthContainer.html" target="_top" xlink:title="A container to hold and manage MC truth information/labels. ">
<polygon fill="none" stroke="#000000" points="59,-496.5 59,-839.5 227,-839.5 227,-496.5 59,-496.5"/>
<text text-anchor="start" x="67" y="-827.5" font-family="Helvetica,sans-Serif" font-size="10.00" fill="#000000">o2::dataformats::MCTruth</text>
<text text-anchor="middle" x="143" y="-816.5" font-family="Helvetica,sans-Serif" font-size="10.00" fill="#000000">Container&lt; TruthElement &gt;</text>
<polyline fill="none" stroke="#000000" points="59,-809.5 227,-809.5 "/>
<text text-anchor="middle" x="143" y="-797.5" font-family="Helvetica,sans-Serif" font-size="10.00" fill="#000000"> </text>
<polyline fill="none" stroke="#000000" points="59,-790.5 227,-790.5 "/>
<text text-anchor="start" x="67" y="-778.5" font-family="Helvetica,sans-Serif" font-size="10.00" fill="#000000">+ MCTruthContainer()</text>
<text text-anchor="start" x="67" y="-767.5" font-family="Helvetica,sans-Serif" font-size="10.00" fill="#000000">+ ~MCTruthContainer()</text>
<text text-anchor="start" x="67" y="-756.5" font-family="Helvetica,sans-Serif" font-size="10.00" fill="#000000">+ MCTruthContainer()</text>
<text text-anchor="start" x="67" y="-745.5" font-family="Helvetica,sans-Serif" font-size="10.00" fill="#000000">+ MCTruthContainer()</text>
<text text-anchor="start" x="67" y="-734.5" font-family="Helvetica,sans-Serif" font-size="10.00" fill="#000000">+ MCTruthContainer()</text>
<text text-anchor="start" x="67" y="-723.5" font-family="Helvetica,sans-Serif" font-size="10.00" fill="#000000">+ operator=()</text>
<text text-anchor="start" x="67" y="-712.5" font-family="Helvetica,sans-Serif" font-size="10.00" fill="#000000">+ operator=()</text>
<text text-anchor="start" x="67" y="-701.5" font-family="Helvetica,sans-Serif" font-size="10.00" fill="#000000">+ getMCTruthHeader()</text>
<text text-anchor="start" x="67" y="-690.5" font-family="Helvetica,sans-Serif" font-size="10.00" fill="#000000">+ getElement()</text>
<text text-anchor="start" x="67" y="-679.5" font-family="Helvetica,sans-Serif" font-size="10.00" fill="#000000">+ getIndexedSize()</text>
<text text-anchor="start" x="67" y="-668.5" font-family="Helvetica,sans-Serif" font-size="10.00" fill="#000000">+ getNElements()</text>
<text text-anchor="start" x="67" y="-657.5" font-family="Helvetica,sans-Serif" font-size="10.00" fill="#000000">+ getLabels()</text>
<text text-anchor="start" x="67" y="-646.5" font-family="Helvetica,sans-Serif" font-size="10.00" fill="#000000">+ getLabels()</text>
<text text-anchor="start" x="67" y="-635.5" font-family="Helvetica,sans-Serif" font-size="10.00" fill="#000000">+ clear()</text>
<text text-anchor="start" x="67" y="-624.5" font-family="Helvetica,sans-Serif" font-size="10.00" fill="#000000">+ addElement()</text>
<text text-anchor="start" x="67" y="-613.5" font-family="Helvetica,sans-Serif" font-size="10.00" fill="#000000">+ addElements()</text>
<text text-anchor="start" x="67" y="-602.5" font-family="Helvetica,sans-Serif" font-size="10.00" fill="#000000">+ addElements()</text>
<text text-anchor="start" x="67" y="-591.5" font-family="Helvetica,sans-Serif" font-size="10.00" fill="#000000">+ addElementRandomAccess()</text>
<text text-anchor="start" x="67" y="-580.5" font-family="Helvetica,sans-Serif" font-size="10.00" fill="#000000">+ setFrom()</text>
<text text-anchor="start" x="67" y="-569.5" font-family="Helvetica,sans-Serif" font-size="10.00" fill="#000000">+ mergeAtBack()</text>
<text text-anchor="start" x="67" y="-558.5" font-family="Helvetica,sans-Serif" font-size="10.00" fill="#000000">+ flatten_to()</text>
<text text-anchor="start" x="67" y="-547.5" font-family="Helvetica,sans-Serif" font-size="10.00" fill="#000000">+ restore_from()</text>
<text text-anchor="start" x="67" y="-536.5" font-family="Helvetica,sans-Serif" font-size="10.00" fill="#000000">+ print()</text>
<text text-anchor="start" x="67" y="-525.5" font-family="Helvetica,sans-Serif" font-size="10.00" fill="#000000">+ inflate()</text>
<text text-anchor="start" x="67" y="-514.5" font-family="Helvetica,sans-Serif" font-size="10.00" fill="#000000">+ deflate()</text>
<text text-anchor="start" x="67" y="-503.5" font-family="Helvetica,sans-Serif" font-size="10.00" fill="#000000">+ ClassDefNV()</text>
</a>
</g>
</g>
<!-- Node4&#45;&gt;Node3 -->
<g id="edge3" class="edge">
<title>Node4&#45;&gt;Node3</title>
<path fill="none" stroke="#ffa500" d="M143,-486.2025C143,-473.6899 143,-461.1022 143,-448.6455"/>
<polygon fill="#ffa500" stroke="#ffa500" points="139.5001,-486.2172 143,-496.2172 146.5001,-486.2173 139.5001,-486.2172"/>
<text text-anchor="middle" x="200" y="-470" font-family="Helvetica,sans-Serif" font-size="10.00" fill="#000000"> &lt; o2::MCCompLabel &gt;</text>
</g>
<!-- Node5 -->
<g id="node5" class="node">
<title>Node5</title>
<polygon fill="none" stroke="#bfbfbf" points="248.5,-248.5 248.5,-305.5 331.5,-305.5 331.5,-248.5 248.5,-248.5"/>
<text text-anchor="middle" x="290" y="-293.5" font-family="Helvetica,sans-Serif" font-size="10.00" fill="#000000">vector&lt; int &gt;</text>
<polyline fill="none" stroke="#bfbfbf" points="248.5,-286.5 331.5,-286.5 "/>
<text text-anchor="middle" x="290" y="-274.5" font-family="Helvetica,sans-Serif" font-size="10.00" fill="#000000"> </text>
<polyline fill="none" stroke="#bfbfbf" points="248.5,-267.5 331.5,-267.5 "/>
<text text-anchor="middle" x="290" y="-255.5" font-family="Helvetica,sans-Serif" font-size="10.00" fill="#000000"> </text>
</g>
<!-- Node5&#45;&gt;Node1 -->
<g id="edge4" class="edge">
<title>Node5&#45;&gt;Node1</title>
<path fill="none" stroke="#404040" d="M291.6977,-248.204C295.2776,-211.1846 306.4062,-146.7168 341,-105 362.9739,-78.5016 396.5645,-60.2039 426.1932,-48.2144"/>
<polygon fill="none" stroke="#404040" points="426.5469,-48.0784 430.7101,-42.1905 437.7464,-43.7689 433.5831,-49.6568 426.5469,-48.0784"/>
<text text-anchor="middle" x="395.5" y="-79" font-family="Helvetica,sans-Serif" font-size="10.00" fill="#000000"> +inputIds</text>
</g>
<!-- Node6 -->
<g id="node6" class="node">
<title>Node6</title>
<polygon fill="none" stroke="#bfbfbf" points="349.5,-243 349.5,-311 514.5,-311 514.5,-243 349.5,-243"/>
<text text-anchor="start" x="357.5" y="-299" font-family="Helvetica,sans-Serif" font-size="10.00" fill="#000000">unique_ptr&lt; o2::gpu</text>
<text text-anchor="middle" x="432" y="-288" font-family="Helvetica,sans-Serif" font-size="10.00" fill="#000000">::GPUReconstructionConvert &gt;</text>
<polyline fill="none" stroke="#bfbfbf" points="349.5,-281 514.5,-281 "/>
<text text-anchor="middle" x="432" y="-269" font-family="Helvetica,sans-Serif" font-size="10.00" fill="#000000"> </text>
<polyline fill="none" stroke="#bfbfbf" points="349.5,-262 514.5,-262 "/>
<text text-anchor="middle" x="432" y="-250" font-family="Helvetica,sans-Serif" font-size="10.00" fill="#000000"> </text>
</g>
<!-- Node6&#45;&gt;Node1 -->
<g id="edge5" class="edge">
<title>Node6&#45;&gt;Node1</title>
<path fill="none" stroke="#404040" d="M434.0007,-242.754C437.1568,-202.0821 445.0245,-132.6216 464,-76 464.803,-73.6038 465.7197,-71.1833 466.7167,-68.771"/>
<polygon fill="none" stroke="#404040" points="466.8136,-68.5609 465.6953,-61.437 471.8411,-57.6648 472.9593,-64.7887 466.8136,-68.5609"/>
<text text-anchor="middle" x="494.5" y="-79" font-family="Helvetica,sans-Serif" font-size="10.00" fill="#000000"> +zsEncoder</text>
</g>
<!-- Node7 -->
<g id="node7" class="node">
<title>Node7</title>
<polygon fill="none" stroke="#bfbfbf" points="532.5,-248.5 532.5,-305.5 561.5,-305.5 561.5,-248.5 532.5,-248.5"/>
<text text-anchor="middle" x="547" y="-293.5" font-family="Helvetica,sans-Serif" font-size="10.00" fill="#000000">int</text>
<polyline fill="none" stroke="#bfbfbf" points="532.5,-286.5 561.5,-286.5 "/>
<text text-anchor="middle" x="547" y="-274.5" font-family="Helvetica,sans-Serif" font-size="10.00" fill="#000000"> </text>
<polyline fill="none" stroke="#bfbfbf" points="532.5,-267.5 561.5,-267.5 "/>
<text text-anchor="middle" x="547" y="-255.5" font-family="Helvetica,sans-Serif" font-size="10.00" fill="#000000"> </text>
</g>
<!-- Node7&#45;&gt;Node1 -->
<g id="edge6" class="edge">
<title>Node7&#45;&gt;Node1</title>
<path fill="none" stroke="#404040" d="M548.604,-248.2059C549.7977,-208.0989 548.1888,-133.8344 525,-76 523.9188,-73.3035 522.6375,-70.6294 521.2134,-68.0057"/>
<polygon fill="none" stroke="#404040" points="521.0569,-67.7548 514.4865,-64.7832 514.7024,-57.5753 521.2728,-60.5469 521.0569,-67.7548"/>
<text text-anchor="middle" x="557" y="-79" font-family="Helvetica,sans-Serif" font-size="10.00" fill="#000000"> +verbosity</text>
</g>
<!-- Node8 -->
<g id="node8" class="node">
<title>Node8</title>
<polygon fill="none" stroke="#bfbfbf" points="580,-243 580,-311 704,-311 704,-243 580,-243"/>
<text text-anchor="start" x="588" y="-299" font-family="Helvetica,sans-Serif" font-size="10.00" fill="#000000">unique_ptr&lt; unsigned</text>
<text text-anchor="middle" x="642" y="-288" font-family="Helvetica,sans-Serif" font-size="10.00" fill="#000000"> long long int[]&gt;</text>
<polyline fill="none" stroke="#bfbfbf" points="580,-281 704,-281 "/>
<text text-anchor="middle" x="642" y="-269" font-family="Helvetica,sans-Serif" font-size="10.00" fill="#000000"> </text>
<polyline fill="none" stroke="#bfbfbf" points="580,-262 704,-262 "/>
<text text-anchor="middle" x="642" y="-250" font-family="Helvetica,sans-Serif" font-size="10.00" fill="#000000"> </text>
</g>
<!-- Node8&#45;&gt;Node1 -->
<g id="edge7" class="edge">
<title>Node8&#45;&gt;Node1</title>
<path fill="none" stroke="#404040" d="M641.7451,-242.805C639.6725,-199.3029 630.0099,-124.064 590,-76 579.7948,-63.7405 565.6819,-54.502 551.2385,-47.6103"/>
<polygon fill="none" stroke="#404040" points="551.1861,-47.5875 544.0869,-48.853 540.1883,-42.7866 547.2875,-41.5211 551.1861,-47.5875"/>
<text text-anchor="middle" x="623" y="-79" font-family="Helvetica,sans-Serif" font-size="10.00" fill="#000000"> +zsoutput</text>
</g>
<!-- Node9 -->
<g id="node9" class="node">
<title>Node9</title>
<polygon fill="none" stroke="#bfbfbf" points="722,-248.5 722,-305.5 760,-305.5 760,-248.5 722,-248.5"/>
<text text-anchor="middle" x="741" y="-293.5" font-family="Helvetica,sans-Serif" font-size="10.00" fill="#000000">bool</text>
<polyline fill="none" stroke="#bfbfbf" points="722,-286.5 760,-286.5 "/>
<text text-anchor="middle" x="741" y="-274.5" font-family="Helvetica,sans-Serif" font-size="10.00" fill="#000000"> </text>
<polyline fill="none" stroke="#bfbfbf" points="722,-267.5 760,-267.5 "/>
<text text-anchor="middle" x="741" y="-255.5" font-family="Helvetica,sans-Serif" font-size="10.00" fill="#000000"> </text>
</g>
<!-- Node9&#45;&gt;Node1 -->
<g id="edge8" class="edge">
<title>Node9&#45;&gt;Node1</title>
<path fill="none" stroke="#404040" d="M743.8681,-248.3828C746.0118,-211.5566 744.339,-147.2975 713,-105 693.4732,-78.6451 611.095,-55.5884 551.9076,-41.9758"/>
<polygon fill="none" stroke="#404040" points="551.7393,-41.938 545.0065,-44.5205 540.0331,-39.2989 546.7659,-36.7163 551.7393,-41.938"/>
<text text-anchor="middle" x="710.5" y="-79" font-family="Helvetica,sans-Serif" font-size="10.00" fill="#000000"> +zs12bit</text>
</g>
<!-- Node10 -->
<g id="node10" class="node">
<title>Node10</title>
<polygon fill="none" stroke="#bfbfbf" points="778,-248.5 778,-305.5 908,-305.5 908,-248.5 778,-248.5"/>
<text text-anchor="middle" x="843" y="-293.5" font-family="Helvetica,sans-Serif" font-size="10.00" fill="#000000">vector&lt; unsigned int &gt;</text>
<polyline fill="none" stroke="#bfbfbf" points="778,-286.5 908,-286.5 "/>
<text text-anchor="middle" x="843" y="-274.5" font-family="Helvetica,sans-Serif" font-size="10.00" fill="#000000"> </text>
<polyline fill="none" stroke="#bfbfbf" points="778,-267.5 908,-267.5 "/>
<text text-anchor="middle" x="843" y="-255.5" font-family="Helvetica,sans-Serif" font-size="10.00" fill="#000000"> </text>
</g>
<!-- Node10&#45;&gt;Node1 -->
<g id="edge9" class="edge">
<title>Node10&#45;&gt;Node1</title>
<path fill="none" stroke="#404040" d="M838.5386,-248.3222C829.4224,-201.2001 803.6622,-109.2979 738,-76 706.2281,-59.8882 615.0011,-45.3517 552.2609,-36.8455"/>
<polygon fill="none" stroke="#404040" points="552.0133,-36.8126 545.5372,-39.9842 540.1187,-35.226 546.5949,-32.0544 552.0133,-36.8126"/>
<text text-anchor="middle" x="771.5" y="-79" font-family="Helvetica,sans-Serif" font-size="10.00" fill="#000000"> +sizes</text>
</g>
</g>
</svg>
