<?xml version="1.0" encoding="UTF-8" standalone="no"?>
<!DOCTYPE svg PUBLIC "-//W3C//DTD SVG 1.1//EN"
 "http://www.w3.org/Graphics/SVG/1.1/DTD/svg11.dtd">
<!-- Generated by graphviz version 2.40.1 (20161225.0304)
 -->
<!-- Title: o2::phos::PHOSBlockHeader Pages: 1 -->
<svg width="942pt" height="981pt"
 viewBox="0.00 0.00 941.83 981.00" xmlns="http://www.w3.org/2000/svg" xmlns:xlink="http://www.w3.org/1999/xlink">
<g id="graph0" class="graph" transform="scale(1 1) rotate(0) translate(4 977)">
<title>o2::phos::PHOSBlockHeader</title>
<!-- Node2 -->
<g id="node1" class="node">
<title>Node2</title>
<polygon fill="#bfbfbf" stroke="#000000" points="714.3272,-.5 714.3272,-57.5 867.3272,-57.5 867.3272,-.5 714.3272,-.5"/>
<text text-anchor="middle" x="790.8272" y="-45.5" font-family="Helvetica,sans-Serif" font-size="10.00" fill="#000000">o2::phos::PHOSBlockHeader</text>
<polyline fill="none" stroke="#000000" points="714.3272,-38.5 867.3272,-38.5 "/>
<text text-anchor="middle" x="790.8272" y="-26.5" font-family="Helvetica,sans-Serif" font-size="10.00" fill="#000000"> </text>
<polyline fill="none" stroke="#000000" points="714.3272,-19.5 867.3272,-19.5 "/>
<text text-anchor="start" x="722.3272" y="-7.5" font-family="Helvetica,sans-Serif" font-size="10.00" fill="#000000">+ PHOSBlockHeader()</text>
</g>
<!-- Node3 -->
<g id="node2" class="node">
<title>Node3</title>
<g id="a_node2"><a xlink:href="../../d8/dbd/structo2_1_1header_1_1BaseHeader.html" target="_top" xlink:title="the base header struct Every header type must begin (i.e. derive) with this. Don&#39;t use this struct di...">
<polygon fill="none" stroke="#000000" points="348.8272,-105.5 348.8272,-250.5 482.8272,-250.5 482.8272,-105.5 348.8272,-105.5"/>
<text text-anchor="middle" x="415.8272" y="-238.5" font-family="Helvetica,sans-Serif" font-size="10.00" fill="#000000">o2::header::BaseHeader</text>
<polyline fill="none" stroke="#000000" points="348.8272,-231.5 482.8272,-231.5 "/>
<text text-anchor="middle" x="415.8272" y="-219.5" font-family="Helvetica,sans-Serif" font-size="10.00" fill="#000000"> </text>
<polyline fill="none" stroke="#000000" points="348.8272,-212.5 482.8272,-212.5 "/>
<text text-anchor="start" x="356.8272" y="-200.5" font-family="Helvetica,sans-Serif" font-size="10.00" fill="#000000">+ BaseHeader()</text>
<text text-anchor="start" x="356.8272" y="-189.5" font-family="Helvetica,sans-Serif" font-size="10.00" fill="#000000">+ BaseHeader()</text>
<text text-anchor="start" x="356.8272" y="-178.5" font-family="Helvetica,sans-Serif" font-size="10.00" fill="#000000">+ BaseHeader()</text>
<text text-anchor="start" x="356.8272" y="-167.5" font-family="Helvetica,sans-Serif" font-size="10.00" fill="#000000">+ size()</text>
<text text-anchor="start" x="356.8272" y="-156.5" font-family="Helvetica,sans-Serif" font-size="10.00" fill="#000000">+ data()</text>
<text text-anchor="start" x="356.8272" y="-145.5" font-family="Helvetica,sans-Serif" font-size="10.00" fill="#000000">+ next()</text>
<text text-anchor="start" x="356.8272" y="-134.5" font-family="Helvetica,sans-Serif" font-size="10.00" fill="#000000">+ next()</text>
<text text-anchor="start" x="356.8272" y="-123.5" font-family="Helvetica,sans-Serif" font-size="10.00" fill="#000000">+ get()</text>
<text text-anchor="start" x="356.8272" y="-112.5" font-family="Helvetica,sans-Serif" font-size="10.00" fill="#000000">+ get()</text>
</a>
</g>
</g>
<!-- Node3&#45;&gt;Node2 -->
<g id="edge1" class="edge">
<title>Node3&#45;&gt;Node2</title>
<path fill="none" stroke="#191970" d="M492.4404,-147.559C558.7774,-121.2011 654.017,-83.3593 718.9342,-57.5655"/>
<polygon fill="none" stroke="#191970" points="490.8706,-144.4165 482.8697,-151.3618 493.4554,-150.9218 490.8706,-144.4165"/>
</g>
<!-- Node4 -->
<g id="node3" class="node">
<title>Node4</title>
<g id="a_node3"><a xlink:href="../../d9/db3/structo2_1_1header_1_1Descriptor.html" target="_top" xlink:title="{o2::header::Descriptor\l\&lt; gSizeHeaderDescriptionString \&gt;\n||+ Descriptor()\l+ Descriptor()\l+ Descriptor()\l+ Descriptor()\l+ operator=()\l+ operator ItgType()\l+ runtimeInit()\l+ operator==()\l+ operator==()\l+ operator\&lt;()\l+ operator!=()\l+ operator!=()\l+ as()\l+ print()\l}">
<polygon fill="none" stroke="#000000" points="107.3272,-364.5 107.3272,-575.5 292.3272,-575.5 292.3272,-364.5 107.3272,-364.5"/>
<text text-anchor="start" x="115.3272" y="-563.5" font-family="Helvetica,sans-Serif" font-size="10.00" fill="#000000">o2::header::Descriptor</text>
<text text-anchor="middle" x="199.8272" y="-552.5" font-family="Helvetica,sans-Serif" font-size="10.00" fill="#000000">&lt; gSizeHeaderDescriptionString &gt;</text>
<polyline fill="none" stroke="#000000" points="107.3272,-545.5 292.3272,-545.5 "/>
<text text-anchor="middle" x="199.8272" y="-533.5" font-family="Helvetica,sans-Serif" font-size="10.00" fill="#000000"> </text>
<polyline fill="none" stroke="#000000" points="107.3272,-526.5 292.3272,-526.5 "/>
<text text-anchor="start" x="115.3272" y="-514.5" font-family="Helvetica,sans-Serif" font-size="10.00" fill="#000000">+ Descriptor()</text>
<text text-anchor="start" x="115.3272" y="-503.5" font-family="Helvetica,sans-Serif" font-size="10.00" fill="#000000">+ Descriptor()</text>
<text text-anchor="start" x="115.3272" y="-492.5" font-family="Helvetica,sans-Serif" font-size="10.00" fill="#000000">+ Descriptor()</text>
<text text-anchor="start" x="115.3272" y="-481.5" font-family="Helvetica,sans-Serif" font-size="10.00" fill="#000000">+ Descriptor()</text>
<text text-anchor="start" x="115.3272" y="-470.5" font-family="Helvetica,sans-Serif" font-size="10.00" fill="#000000">+ operator=()</text>
<text text-anchor="start" x="115.3272" y="-459.5" font-family="Helvetica,sans-Serif" font-size="10.00" fill="#000000">+ operator ItgType()</text>
<text text-anchor="start" x="115.3272" y="-448.5" font-family="Helvetica,sans-Serif" font-size="10.00" fill="#000000">+ runtimeInit()</text>
<text text-anchor="start" x="115.3272" y="-437.5" font-family="Helvetica,sans-Serif" font-size="10.00" fill="#000000">+ operator==()</text>
<text text-anchor="start" x="115.3272" y="-426.5" font-family="Helvetica,sans-Serif" font-size="10.00" fill="#000000">+ operator==()</text>
<text text-anchor="start" x="115.3272" y="-415.5" font-family="Helvetica,sans-Serif" font-size="10.00" fill="#000000">+ operator&lt;()</text>
<text text-anchor="start" x="115.3272" y="-404.5" font-family="Helvetica,sans-Serif" font-size="10.00" fill="#000000">+ operator!=()</text>
<text text-anchor="start" x="115.3272" y="-393.5" font-family="Helvetica,sans-Serif" font-size="10.00" fill="#000000">+ operator!=()</text>
<text text-anchor="start" x="115.3272" y="-382.5" font-family="Helvetica,sans-Serif" font-size="10.00" fill="#000000">+ as()</text>
<text text-anchor="start" x="115.3272" y="-371.5" font-family="Helvetica,sans-Serif" font-size="10.00" fill="#000000">+ print()</text>
</a>
</g>
</g>
<!-- Node4&#45;&gt;Node3 -->
<g id="edge2" class="edge">
<title>Node4&#45;&gt;Node3</title>
<path fill="none" stroke="#404040" d="M253.3974,-364.3777C271.6537,-332.4186 293.4206,-298.1045 316.8272,-269 323.8853,-260.2237 331.7989,-251.5236 339.995,-243.1825"/>
<polygon fill="none" stroke="#404040" points="340.0951,-243.0833 341.5377,-236.0179 348.6144,-234.6321 347.1718,-241.6975 340.0951,-243.0833"/>
<text text-anchor="middle" x="349.8272" y="-305" font-family="Helvetica,sans-Serif" font-size="10.00" fill="#000000"> +description</text>
</g>
<!-- Node5 -->
<g id="node4" class="node">
<title>Node5</title>
<polygon fill="none" stroke="#bfbfbf" points="238.3272,-915.5 238.3272,-972.5 277.3272,-972.5 277.3272,-915.5 238.3272,-915.5"/>
<text text-anchor="middle" x="257.8272" y="-960.5" font-family="Helvetica,sans-Serif" font-size="10.00" fill="#000000">Type</text>
<polyline fill="none" stroke="#bfbfbf" points="238.3272,-953.5 277.3272,-953.5 "/>
<text text-anchor="middle" x="257.8272" y="-941.5" font-family="Helvetica,sans-Serif" font-size="10.00" fill="#000000"> </text>
<polyline fill="none" stroke="#bfbfbf" points="238.3272,-934.5 277.3272,-934.5 "/>
<text text-anchor="middle" x="257.8272" y="-922.5" font-family="Helvetica,sans-Serif" font-size="10.00" fill="#000000"> </text>
</g>
<!-- Node5&#45;&gt;Node4 -->
<g id="edge3" class="edge">
<title>Node5&#45;&gt;Node4</title>
<path fill="none" stroke="#404040" d="M248.7992,-915.2867C247.0426,-909.2739 245.2936,-902.9521 243.8272,-897 238.3016,-874.5724 237.0939,-868.8661 233.8272,-846 221.5341,-759.9509 212.8533,-662.151 207.3411,-587.8673"/>
<polygon fill="none" stroke="#404040" points="207.3256,-587.6539 202.8984,-581.9618 206.4499,-575.6859 210.8771,-581.378 207.3256,-587.6539"/>
<text text-anchor="middle" x="246.3272" y="-737.5" font-family="Helvetica,sans-Serif" font-size="10.00" fill="#000000"> +itg</text>
</g>
<!-- Node9 -->
<g id="node8" class="node">
<title>Node9</title>
<g id="a_node8"><a xlink:href="../../d9/db3/structo2_1_1header_1_1Descriptor.html" target="_top" xlink:title="{o2::header::Descriptor\l\&lt; N, PrinterPolicy \&gt;\n||+ Descriptor()\l+ Descriptor()\l+ Descriptor()\l+ operator=()\l+ operator ItgType()\l+ Descriptor()\l+ runtimeInit()\l+ operator==()\l+ operator\&lt;()\l+ operator!=()\l+ operator==()\l+ operator!=()\l+ as()\l+ print()\l}">
<polygon fill="none" stroke="#000000" points="324.3272,-634.5 324.3272,-845.5 449.3272,-845.5 449.3272,-634.5 324.3272,-634.5"/>
<text text-anchor="start" x="332.3272" y="-833.5" font-family="Helvetica,sans-Serif" font-size="10.00" fill="#000000">o2::header::Descriptor</text>
<text text-anchor="middle" x="386.8272" y="-822.5" font-family="Helvetica,sans-Serif" font-size="10.00" fill="#000000">&lt; N, PrinterPolicy &gt;</text>
<polyline fill="none" stroke="#000000" points="324.3272,-815.5 449.3272,-815.5 "/>
<text text-anchor="middle" x="386.8272" y="-803.5" font-family="Helvetica,sans-Serif" font-size="10.00" fill="#000000"> </text>
<polyline fill="none" stroke="#000000" points="324.3272,-796.5 449.3272,-796.5 "/>
<text text-anchor="start" x="332.3272" y="-784.5" font-family="Helvetica,sans-Serif" font-size="10.00" fill="#000000">+ Descriptor()</text>
<text text-anchor="start" x="332.3272" y="-773.5" font-family="Helvetica,sans-Serif" font-size="10.00" fill="#000000">+ Descriptor()</text>
<text text-anchor="start" x="332.3272" y="-762.5" font-family="Helvetica,sans-Serif" font-size="10.00" fill="#000000">+ Descriptor()</text>
<text text-anchor="start" x="332.3272" y="-751.5" font-family="Helvetica,sans-Serif" font-size="10.00" fill="#000000">+ operator=()</text>
<text text-anchor="start" x="332.3272" y="-740.5" font-family="Helvetica,sans-Serif" font-size="10.00" fill="#000000">+ operator ItgType()</text>
<text text-anchor="start" x="332.3272" y="-729.5" font-family="Helvetica,sans-Serif" font-size="10.00" fill="#000000">+ Descriptor()</text>
<text text-anchor="start" x="332.3272" y="-718.5" font-family="Helvetica,sans-Serif" font-size="10.00" fill="#000000">+ runtimeInit()</text>
<text text-anchor="start" x="332.3272" y="-707.5" font-family="Helvetica,sans-Serif" font-size="10.00" fill="#000000">+ operator==()</text>
<text text-anchor="start" x="332.3272" y="-696.5" font-family="Helvetica,sans-Serif" font-size="10.00" fill="#000000">+ operator&lt;()</text>
<text text-anchor="start" x="332.3272" y="-685.5" font-family="Helvetica,sans-Serif" font-size="10.00" fill="#000000">+ operator!=()</text>
<text text-anchor="start" x="332.3272" y="-674.5" font-family="Helvetica,sans-Serif" font-size="10.00" fill="#000000">+ operator==()</text>
<text text-anchor="start" x="332.3272" y="-663.5" font-family="Helvetica,sans-Serif" font-size="10.00" fill="#000000">+ operator!=()</text>
<text text-anchor="start" x="332.3272" y="-652.5" font-family="Helvetica,sans-Serif" font-size="10.00" fill="#000000">+ as()</text>
<text text-anchor="start" x="332.3272" y="-641.5" font-family="Helvetica,sans-Serif" font-size="10.00" fill="#000000">+ print()</text>
</a>
</g>
</g>
<!-- Node5&#45;&gt;Node9 -->
<g id="edge8" class="edge">
<title>Node5&#45;&gt;Node9</title>
<path fill="none" stroke="#404040" d="M277.3785,-931.9838C289.9548,-923.4679 305.9247,-911.0835 316.8272,-897 326.3625,-884.6826 334.9194,-870.8614 342.5005,-856.6617"/>
<polygon fill="none" stroke="#404040" points="342.6238,-856.4216 341.8079,-849.2568 348.1077,-845.7479 348.9237,-852.9127 342.6238,-856.4216"/>
<text text-anchor="middle" x="350.3272" y="-878" font-family="Helvetica,sans-Serif" font-size="10.00" fill="#000000"> +itg</text>
</g>
<!-- Node11 -->
<g id="node10" class="node">
<title>Node11</title>
<g id="a_node10"><a xlink:href="../../d9/db3/structo2_1_1header_1_1Descriptor.html" target="_top" xlink:title="{o2::header::Descriptor\l\&lt; gSizeSerializationMethodString \&gt;\n||+ Descriptor()\l+ Descriptor()\l+ Descriptor()\l+ Descriptor()\l+ operator=()\l+ operator ItgType()\l+ runtimeInit()\l+ operator==()\l+ operator==()\l+ operator\&lt;()\l+ operator!=()\l+ operator!=()\l+ as()\l+ print()\l}">
<polygon fill="none" stroke="#000000" points="435.3272,-364.5 435.3272,-575.5 626.3272,-575.5 626.3272,-364.5 435.3272,-364.5"/>
<text text-anchor="start" x="443.3272" y="-563.5" font-family="Helvetica,sans-Serif" font-size="10.00" fill="#000000">o2::header::Descriptor</text>
<text text-anchor="middle" x="530.8272" y="-552.5" font-family="Helvetica,sans-Serif" font-size="10.00" fill="#000000">&lt; gSizeSerializationMethodString &gt;</text>
<polyline fill="none" stroke="#000000" points="435.3272,-545.5 626.3272,-545.5 "/>
<text text-anchor="middle" x="530.8272" y="-533.5" font-family="Helvetica,sans-Serif" font-size="10.00" fill="#000000"> </text>
<polyline fill="none" stroke="#000000" points="435.3272,-526.5 626.3272,-526.5 "/>
<text text-anchor="start" x="443.3272" y="-514.5" font-family="Helvetica,sans-Serif" font-size="10.00" fill="#000000">+ Descriptor()</text>
<text text-anchor="start" x="443.3272" y="-503.5" font-family="Helvetica,sans-Serif" font-size="10.00" fill="#000000">+ Descriptor()</text>
<text text-anchor="start" x="443.3272" y="-492.5" font-family="Helvetica,sans-Serif" font-size="10.00" fill="#000000">+ Descriptor()</text>
<text text-anchor="start" x="443.3272" y="-481.5" font-family="Helvetica,sans-Serif" font-size="10.00" fill="#000000">+ Descriptor()</text>
<text text-anchor="start" x="443.3272" y="-470.5" font-family="Helvetica,sans-Serif" font-size="10.00" fill="#000000">+ operator=()</text>
<text text-anchor="start" x="443.3272" y="-459.5" font-family="Helvetica,sans-Serif" font-size="10.00" fill="#000000">+ operator ItgType()</text>
<text text-anchor="start" x="443.3272" y="-448.5" font-family="Helvetica,sans-Serif" font-size="10.00" fill="#000000">+ runtimeInit()</text>
<text text-anchor="start" x="443.3272" y="-437.5" font-family="Helvetica,sans-Serif" font-size="10.00" fill="#000000">+ operator==()</text>
<text text-anchor="start" x="443.3272" y="-426.5" font-family="Helvetica,sans-Serif" font-size="10.00" fill="#000000">+ operator==()</text>
<text text-anchor="start" x="443.3272" y="-415.5" font-family="Helvetica,sans-Serif" font-size="10.00" fill="#000000">+ operator&lt;()</text>
<text text-anchor="start" x="443.3272" y="-404.5" font-family="Helvetica,sans-Serif" font-size="10.00" fill="#000000">+ operator!=()</text>
<text text-anchor="start" x="443.3272" y="-393.5" font-family="Helvetica,sans-Serif" font-size="10.00" fill="#000000">+ operator!=()</text>
<text text-anchor="start" x="443.3272" y="-382.5" font-family="Helvetica,sans-Serif" font-size="10.00" fill="#000000">+ as()</text>
<text text-anchor="start" x="443.3272" y="-371.5" font-family="Helvetica,sans-Serif" font-size="10.00" fill="#000000">+ print()</text>
</a>
</g>
</g>
<!-- Node5&#45;&gt;Node11 -->
<g id="edge15" class="edge">
<title>Node5&#45;&gt;Node11</title>
<path fill="none" stroke="#404040" d="M259.1245,-915.4396C262.6442,-843.0174 273.2381,-656.3458 289.8272,-634 302.1767,-617.365 313.7553,-624.093 332.8272,-616 371.0108,-599.797 386.2305,-601.0073 424.76,-576.2513"/>
<polygon fill="none" stroke="#404040" points="425.0995,-576.0252 427.8749,-569.3695 435.0861,-569.3716 432.3107,-576.0272 425.0995,-576.0252"/>
<text text-anchor="middle" x="302.3272" y="-737.5" font-family="Helvetica,sans-Serif" font-size="10.00" fill="#000000"> +itg</text>
</g>
<!-- Node6 -->
<g id="node5" class="node">
<title>Node6</title>
<polygon fill="none" stroke="#bfbfbf" points="109.8272,-915.5 109.8272,-972.5 147.8272,-972.5 147.8272,-915.5 109.8272,-915.5"/>
<text text-anchor="middle" x="128.8272" y="-960.5" font-family="Helvetica,sans-Serif" font-size="10.00" fill="#000000">char</text>
<polyline fill="none" stroke="#bfbfbf" points="109.8272,-953.5 147.8272,-953.5 "/>
<text text-anchor="middle" x="128.8272" y="-941.5" font-family="Helvetica,sans-Serif" font-size="10.00" fill="#000000"> </text>
<polyline fill="none" stroke="#bfbfbf" points="109.8272,-934.5 147.8272,-934.5 "/>
<text text-anchor="middle" x="128.8272" y="-922.5" font-family="Helvetica,sans-Serif" font-size="10.00" fill="#000000"> </text>
</g>
<!-- Node6&#45;&gt;Node3 -->
<g id="edge12" class="edge">
<title>Node6&#45;&gt;Node3</title>
<path fill="none" stroke="#404040" d="M113.3725,-915.3381C69.1323,-829.3234 -50.2,-566.8322 23.8272,-364 69.0565,-240.0731 235.8585,-198.6563 336.7289,-184.8562"/>
<polygon fill="none" stroke="#404040" points="336.7902,-184.8483 342.2265,-180.1105 348.6907,-183.3065 343.2544,-188.0442 336.7902,-184.8483"/>
<text text-anchor="middle" x="44.8272" y="-602.5" font-family="Helvetica,sans-Serif" font-size="10.00" fill="#000000"> +magicString</text>
</g>
<!-- Node6&#45;&gt;Node4 -->
<g id="edge4" class="edge">
<title>Node6&#45;&gt;Node4</title>
<path fill="none" stroke="#404040" d="M121.6381,-915.2479C109.0087,-859.8527 86.4692,-734.8896 111.8272,-634 115.7885,-618.2394 121.5898,-602.3418 128.3551,-586.9692"/>
<polygon fill="none" stroke="#404040" points="128.4389,-586.7864 127.3028,-579.6653 133.4392,-575.8778 134.5752,-582.9989 128.4389,-586.7864"/>
<text text-anchor="middle" x="124.3272" y="-737.5" font-family="Helvetica,sans-Serif" font-size="10.00" fill="#000000"> +str</text>
</g>
<!-- Node6&#45;&gt;Node9 -->
<g id="edge9" class="edge">
<title>Node6&#45;&gt;Node9</title>
<path fill="none" stroke="#404040" d="M147.9788,-936.9527C183.0019,-923.3904 258.4882,-890.9736 309.8272,-846 311.8429,-844.2342 313.8361,-842.4065 315.8047,-840.5262"/>
<polygon fill="none" stroke="#404040" points="315.8284,-840.5023 317.2074,-833.4242 324.2714,-831.9748 322.8924,-839.0529 315.8284,-840.5023"/>
<text text-anchor="middle" x="296.3272" y="-878" font-family="Helvetica,sans-Serif" font-size="10.00" fill="#000000"> +str</text>
</g>
<!-- Node6&#45;&gt;Node11 -->
<g id="edge16" class="edge">
<title>Node6&#45;&gt;Node11</title>
<path fill="none" stroke="#404040" d="M131.355,-915.3533C137.6772,-848.1032 155.6436,-682.1721 182.8272,-634 235.53,-540.6054 319.4221,-617.6874 424.006,-576.0151"/>
<polygon fill="none" stroke="#404040" points="424.1898,-575.9349 428.0872,-569.8677 435.1867,-571.1319 431.2893,-577.199 424.1898,-575.9349"/>
<text text-anchor="middle" x="195.3272" y="-737.5" font-family="Helvetica,sans-Serif" font-size="10.00" fill="#000000"> +str</text>
</g>
<!-- Node7 -->
<g id="node6" class="node">
<title>Node7</title>
<polygon fill="none" stroke="#bfbfbf" points="490.3272,-915.5 490.3272,-972.5 519.3272,-972.5 519.3272,-915.5 490.3272,-915.5"/>
<text text-anchor="middle" x="504.8272" y="-960.5" font-family="Helvetica,sans-Serif" font-size="10.00" fill="#000000">int</text>
<polyline fill="none" stroke="#bfbfbf" points="490.3272,-953.5 519.3272,-953.5 "/>
<text text-anchor="middle" x="504.8272" y="-941.5" font-family="Helvetica,sans-Serif" font-size="10.00" fill="#000000"> </text>
<polyline fill="none" stroke="#bfbfbf" points="490.3272,-934.5 519.3272,-934.5 "/>
<text text-anchor="middle" x="504.8272" y="-922.5" font-family="Helvetica,sans-Serif" font-size="10.00" fill="#000000"> </text>
</g>
<!-- Node7&#45;&gt;Node4 -->
<g id="edge5" class="edge">
<title>Node7&#45;&gt;Node4</title>
<path fill="none" stroke="#404040" d="M505.2753,-915.4125C505.2223,-900.1186 504.6879,-880.9871 502.8272,-864 502.1183,-857.5287 461.7414,-639.2019 457.8272,-634 434.4025,-602.8695 416.4387,-607.3202 379.8272,-594 349.2911,-582.8902 335.0314,-591.6613 303.5128,-576.7384"/>
<polygon fill="none" stroke="#404040" points="303.2474,-576.5986 296.0746,-577.341 292.6305,-571.0055 299.8033,-570.2631 303.2474,-576.5986"/>
<text text-anchor="middle" x="528.8272" y="-748.5" font-family="Helvetica,sans-Serif" font-size="10.00" fill="#000000"> +arraySize</text>
<text text-anchor="middle" x="528.8272" y="-737.5" font-family="Helvetica,sans-Serif" font-size="10.00" fill="#000000">+size</text>
<text text-anchor="middle" x="528.8272" y="-726.5" font-family="Helvetica,sans-Serif" font-size="10.00" fill="#000000">+bitcount</text>
</g>
<!-- Node7&#45;&gt;Node9 -->
<g id="edge10" class="edge">
<title>Node7&#45;&gt;Node9</title>
<path fill="none" stroke="#404040" d="M490.1733,-943.095C464.3422,-940.6184 411.2287,-931.3832 387.8272,-897 379.7995,-885.2051 375.0128,-871.6698 372.4773,-857.599"/>
<polygon fill="none" stroke="#404040" points="372.4735,-857.5704 367.7009,-852.1646 370.8553,-845.68 375.6279,-851.0858 372.4735,-857.5704"/>
<text text-anchor="middle" x="416.8272" y="-889" font-family="Helvetica,sans-Serif" font-size="10.00" fill="#000000"> +arraySize</text>
<text text-anchor="middle" x="416.8272" y="-878" font-family="Helvetica,sans-Serif" font-size="10.00" fill="#000000">+size</text>
<text text-anchor="middle" x="416.8272" y="-867" font-family="Helvetica,sans-Serif" font-size="10.00" fill="#000000">+bitcount</text>
</g>
<!-- Node7&#45;&gt;Node11 -->
<g id="edge17" class="edge">
<title>Node7&#45;&gt;Node11</title>
<path fill="none" stroke="#404040" d="M519.5402,-924.0925C522.1734,-920.9355 524.987,-917.7939 527.8272,-915 563.7591,-879.654 595.5252,-891.2003 617.8272,-846 659.5182,-761.5033 640.5781,-725.4343 617.8272,-634 613.9132,-618.27 608.1793,-602.3909 601.4916,-587.0283"/>
<polygon fill="none" stroke="#404040" points="601.4208,-586.8721 595.3002,-583.0592 596.4657,-575.9429 602.5863,-579.7558 601.4208,-586.8721"/>
<text text-anchor="middle" x="671.8272" y="-748.5" font-family="Helvetica,sans-Serif" font-size="10.00" fill="#000000"> +arraySize</text>
<text text-anchor="middle" x="671.8272" y="-737.5" font-family="Helvetica,sans-Serif" font-size="10.00" fill="#000000">+size</text>
<text text-anchor="middle" x="671.8272" y="-726.5" font-family="Helvetica,sans-Serif" font-size="10.00" fill="#000000">+bitcount</text>
</g>
<!-- Node8 -->
<g id="node7" class="node">
<title>Node8</title>
<polygon fill="none" stroke="#bfbfbf" points="537.3272,-915.5 537.3272,-972.5 644.3272,-972.5 644.3272,-915.5 537.3272,-915.5"/>
<text text-anchor="middle" x="590.8272" y="-960.5" font-family="Helvetica,sans-Serif" font-size="10.00" fill="#000000">anonymous:+@38</text>
<polyline fill="none" stroke="#bfbfbf" points="537.3272,-953.5 644.3272,-953.5 "/>
<text text-anchor="middle" x="590.8272" y="-941.5" font-family="Helvetica,sans-Serif" font-size="10.00" fill="#000000"> </text>
<polyline fill="none" stroke="#bfbfbf" points="537.3272,-934.5 644.3272,-934.5 "/>
<text text-anchor="middle" x="590.8272" y="-922.5" font-family="Helvetica,sans-Serif" font-size="10.00" fill="#000000"> </text>
</g>
<!-- Node8&#45;&gt;Node4 -->
<g id="edge6" class="edge">
<title>Node8&#45;&gt;Node4</title>
<path fill="none" stroke="#404040" d="M587.1765,-915.311C584.7992,-895.7964 581.7867,-869.3734 579.8272,-846 577.4845,-818.0549 585.5342,-613.9513 565.8272,-594 526.6978,-554.3855 373.1177,-595.8047 304.1256,-576.044"/>
<polygon fill="none" stroke="#404040" points="303.908,-575.9634 296.8918,-577.6283 292.6563,-571.7921 299.6726,-570.1272 303.908,-575.9634"/>
<text text-anchor="middle" x="596.8272" y="-737.5" font-family="Helvetica,sans-Serif" font-size="10.00" fill="#000000"> +@38</text>
</g>
<!-- Node8&#45;&gt;Node9 -->
<g id="edge11" class="edge">
<title>Node8&#45;&gt;Node9</title>
<path fill="none" stroke="#404040" d="M547.7418,-915.4396C521.9082,-897.2172 489.2483,-872.1687 463.8272,-846 461.6777,-843.7873 459.5398,-841.5115 457.4184,-839.1855"/>
<polygon fill="none" stroke="#404040" points="457.2557,-839.0007 450.2889,-837.1394 449.3274,-829.9926 456.2942,-831.8539 457.2557,-839.0007"/>
<text text-anchor="middle" x="537.8272" y="-878" font-family="Helvetica,sans-Serif" font-size="10.00" fill="#000000"> +@38</text>
</g>
<!-- Node8&#45;&gt;Node11 -->
<g id="edge18" class="edge">
<title>Node8&#45;&gt;Node11</title>
<path fill="none" stroke="#404040" d="M640.9129,-915.343C665.0295,-898.5513 691.5429,-874.9379 704.8272,-846 744.1368,-760.3695 744.9122,-719.2703 704.8272,-634 689.1157,-600.578 668.4916,-602.6431 636.0013,-576.4528"/>
<polygon fill="none" stroke="#404040" points="635.5997,-576.106 628.4442,-575.2124 626.517,-568.2635 633.6725,-569.1572 635.5997,-576.106"/>
<text text-anchor="middle" x="751.8272" y="-737.5" font-family="Helvetica,sans-Serif" font-size="10.00" fill="#000000"> +@38</text>
</g>
<!-- Node9&#45;&gt;Node4 -->
<g id="edge7" class="edge">
<title>Node9&#45;&gt;Node4</title>
<path fill="none" stroke="#ffa500" d="M316.3043,-638.8729C314.1849,-637.1728 312.0255,-635.5448 309.8272,-634 286.3509,-617.5024 268.4692,-635.9303 247.8272,-616 236.2142,-604.7874 227.4094,-590.7203 220.7339,-575.7741"/>
<polygon fill="#ffa500" stroke="#ffa500" points="314.4239,-641.8738 324.2782,-645.7651 319.0013,-636.5778 314.4239,-641.8738"/>
<text text-anchor="start" x="247.8272" y="-608" font-family="Helvetica,sans-Serif" font-size="10.00" fill="#000000"> &lt; gSizeHeaderDescription</text>
<text text-anchor="middle" x="313.8272" y="-597" font-family="Helvetica,sans-Serif" font-size="10.00" fill="#000000">String &gt;</text>
</g>
<!-- Node9&#45;&gt;Node11 -->
<g id="edge19" class="edge">
<title>Node9&#45;&gt;Node11</title>
<path fill="none" stroke="#ffa500" d="M447.9563,-625.383C456.7082,-608.9731 465.6795,-592.1519 474.3368,-575.9196"/>
<polygon fill="#ffa500" stroke="#ffa500" points="444.7377,-623.9803 443.12,-634.4509 450.9142,-627.2745 444.7377,-623.9803"/>
<text text-anchor="start" x="463.8272" y="-608" font-family="Helvetica,sans-Serif" font-size="10.00" fill="#000000"> &lt; gSizeSerializationMethod</text>
<text text-anchor="middle" x="532.8272" y="-597" font-family="Helvetica,sans-Serif" font-size="10.00" fill="#000000">String &gt;</text>
</g>
<!-- Node10 -->
<g id="node9" class="node">
<title>Node10</title>
<polygon fill="none" stroke="#bfbfbf" points="644.3272,-441.5 644.3272,-498.5 751.3272,-498.5 751.3272,-441.5 644.3272,-441.5"/>
<text text-anchor="middle" x="697.8272" y="-486.5" font-family="Helvetica,sans-Serif" font-size="10.00" fill="#000000">anonymous:+@40</text>
<polyline fill="none" stroke="#bfbfbf" points="644.3272,-479.5 751.3272,-479.5 "/>
<text text-anchor="middle" x="697.8272" y="-467.5" font-family="Helvetica,sans-Serif" font-size="10.00" fill="#000000"> </text>
<polyline fill="none" stroke="#bfbfbf" points="644.3272,-460.5 751.3272,-460.5 "/>
<text text-anchor="middle" x="697.8272" y="-448.5" font-family="Helvetica,sans-Serif" font-size="10.00" fill="#000000"> </text>
</g>
<!-- Node10&#45;&gt;Node3 -->
<g id="edge13" class="edge">
<title>Node10&#45;&gt;Node3</title>
<path fill="none" stroke="#404040" d="M684.9651,-441.2284C673.8813,-418.5453 656.2952,-387.0097 634.8272,-364 625.2394,-353.7236 618.7076,-355.9954 608.8272,-346 579.7966,-316.6315 586.33,-297.8941 556.8272,-269 538.1393,-250.6977 515.217,-234.0403 493.3288,-220.1251"/>
<polygon fill="none" stroke="#404040" points="493.2208,-220.058 486.0133,-220.2888 483.0282,-213.7245 490.2357,-213.4937 493.2208,-220.058"/>
<text text-anchor="middle" x="625.8272" y="-305" font-family="Helvetica,sans-Serif" font-size="10.00" fill="#000000"> +@40</text>
</g>
<!-- Node11&#45;&gt;Node3 -->
<g id="edge14" class="edge">
<title>Node11&#45;&gt;Node3</title>
<path fill="none" stroke="#404040" d="M489.147,-364.1684C475.9225,-330.5898 461.4874,-293.9372 448.9499,-262.1029"/>
<polygon fill="none" stroke="#404040" points="448.8198,-261.7723 442.8993,-257.6555 444.4224,-250.607 450.3429,-254.7239 448.8198,-261.7723"/>
<text text-anchor="middle" x="516.8272" y="-305" font-family="Helvetica,sans-Serif" font-size="10.00" fill="#000000"> +serialization</text>
</g>
<!-- Node12 -->
<g id="node11" class="node">
<title>Node12</title>
<g id="a_node11"><a xlink:href="../../d3/d87/classuint32__t.html" target="_top" xlink:title="{uint32_t\n||}">
<polygon fill="none" stroke="#000000" points="32.8272,-441.5 32.8272,-498.5 88.8272,-498.5 88.8272,-441.5 32.8272,-441.5"/>
<text text-anchor="middle" x="60.8272" y="-486.5" font-family="Helvetica,sans-Serif" font-size="10.00" fill="#000000">uint32_t</text>
<polyline fill="none" stroke="#000000" points="32.8272,-479.5 88.8272,-479.5 "/>
<text text-anchor="middle" x="60.8272" y="-467.5" font-family="Helvetica,sans-Serif" font-size="10.00" fill="#000000"> </text>
<polyline fill="none" stroke="#000000" points="32.8272,-460.5 88.8272,-460.5 "/>
<text text-anchor="middle" x="60.8272" y="-448.5" font-family="Helvetica,sans-Serif" font-size="10.00" fill="#000000"> </text>
</a>
</g>
</g>
<!-- Node12&#45;&gt;Node3 -->
<g id="edge20" class="edge">
<title>Node12&#45;&gt;Node3</title>
<path fill="none" stroke="#404040" d="M68.0378,-441.4948C74.2324,-419.5294 84.3069,-388.8192 97.8272,-364 123.4298,-317.0011 128.6763,-300.6606 171.8272,-269 221.0127,-232.9117 286.1354,-209.5852 336.7304,-195.5934"/>
<polygon fill="none" stroke="#404040" points="337.0133,-195.5175 341.7712,-190.0987 348.6031,-192.4065 343.8452,-197.8252 337.0133,-195.5175"/>
<text text-anchor="middle" x="217.3272" y="-338" font-family="Helvetica,sans-Serif" font-size="10.00" fill="#000000"> +headerVersion</text>
<text text-anchor="middle" x="217.3272" y="-327" font-family="Helvetica,sans-Serif" font-size="10.00" fill="#000000">+headerSize</text>
<text text-anchor="middle" x="217.3272" y="-316" font-family="Helvetica,sans-Serif" font-size="10.00" fill="#000000">+sMagicString</text>
<text text-anchor="middle" x="217.3272" y="-305" font-family="Helvetica,sans-Serif" font-size="10.00" fill="#000000">+flagsNextHeader</text>
<text text-anchor="middle" x="217.3272" y="-294" font-family="Helvetica,sans-Serif" font-size="10.00" fill="#000000">+magicStringInt</text>
<text text-anchor="middle" x="217.3272" y="-283" font-family="Helvetica,sans-Serif" font-size="10.00" fill="#000000">+flagsUnused</text>
<text text-anchor="middle" x="217.3272" y="-272" font-family="Helvetica,sans-Serif" font-size="10.00" fill="#000000">+flags</text>
</g>
<!-- Node13 -->
<g id="node12" class="node">
<title>Node13</title>
<polygon fill="none" stroke="#bfbfbf" points="769.3272,-441.5 769.3272,-498.5 812.3272,-498.5 812.3272,-441.5 769.3272,-441.5"/>
<text text-anchor="middle" x="790.8272" y="-486.5" font-family="Helvetica,sans-Serif" font-size="10.00" fill="#000000">const</text>
<polyline fill="none" stroke="#bfbfbf" points="769.3272,-479.5 812.3272,-479.5 "/>
<text text-anchor="middle" x="790.8272" y="-467.5" font-family="Helvetica,sans-Serif" font-size="10.00" fill="#000000"> </text>
<polyline fill="none" stroke="#bfbfbf" points="769.3272,-460.5 812.3272,-460.5 "/>
<text text-anchor="middle" x="790.8272" y="-448.5" font-family="Helvetica,sans-Serif" font-size="10.00" fill="#000000"> </text>
</g>
<!-- Node13&#45;&gt;Node2 -->
<g id="edge24" class="edge">
<title>Node13&#45;&gt;Node2</title>
<path fill="none" stroke="#404040" d="M790.8272,-441.4046C790.8272,-365.3624 790.8272,-157.9528 790.8272,-69.6628"/>
<polygon fill="none" stroke="#404040" points="790.8273,-69.5306 786.8273,-63.5306 790.8272,-57.5306 794.8273,-63.5306 790.8273,-69.5306"/>
<text text-anchor="middle" x="828.3272" y="-181" font-family="Helvetica,sans-Serif" font-size="10.00" fill="#000000"> +sHeaderType</text>
<text text-anchor="middle" x="828.3272" y="-170" font-family="Helvetica,sans-Serif" font-size="10.00" fill="#000000">+sVersion</text>
</g>
<!-- Node13&#45;&gt;Node3 -->
<g id="edge21" class="edge">
<title>Node13&#45;&gt;Node3</title>
<path fill="none" stroke="#404040" d="M790.3133,-441.4372C788.2785,-417.2963 781.3934,-383.6027 759.8272,-364 728.3503,-335.389 697.3862,-374.5204 665.8272,-346 639.3285,-322.0527 666.9076,-295.3778 642.8272,-269 604.3489,-226.8506 543.6953,-203.8755 494.7616,-191.5594"/>
<polygon fill="none" stroke="#404040" points="494.5862,-191.5175 487.8202,-194.0118 482.9155,-188.7256 489.6815,-186.2313 494.5862,-191.5175"/>
<text text-anchor="middle" x="721.3272" y="-316" font-family="Helvetica,sans-Serif" font-size="10.00" fill="#000000"> +sHeaderType</text>
<text text-anchor="middle" x="721.3272" y="-305" font-family="Helvetica,sans-Serif" font-size="10.00" fill="#000000">+sSerializationMethod</text>
<text text-anchor="middle" x="721.3272" y="-294" font-family="Helvetica,sans-Serif" font-size="10.00" fill="#000000">+sVersion</text>
</g>
<!-- Node14 -->
<g id="node13" class="node">
<title>Node14</title>
<polygon fill="none" stroke="#bfbfbf" points="310.3272,-441.5 310.3272,-498.5 417.3272,-498.5 417.3272,-441.5 310.3272,-441.5"/>
<text text-anchor="middle" x="363.8272" y="-486.5" font-family="Helvetica,sans-Serif" font-size="10.00" fill="#000000">anonymous:+@42</text>
<polyline fill="none" stroke="#bfbfbf" points="310.3272,-479.5 417.3272,-479.5 "/>
<text text-anchor="middle" x="363.8272" y="-467.5" font-family="Helvetica,sans-Serif" font-size="10.00" fill="#000000"> </text>
<polyline fill="none" stroke="#bfbfbf" points="310.3272,-460.5 417.3272,-460.5 "/>
<text text-anchor="middle" x="363.8272" y="-448.5" font-family="Helvetica,sans-Serif" font-size="10.00" fill="#000000"> </text>
</g>
<!-- Node14&#45;&gt;Node3 -->
<g id="edge22" class="edge">
<title>Node14&#45;&gt;Node3</title>
<path fill="none" stroke="#404040" d="M368.9079,-441.4702C376.2272,-400.3693 390.0396,-322.8075 400.7904,-262.4374"/>
<polygon fill="none" stroke="#404040" points="400.793,-262.4226 397.9069,-255.8142 402.8969,-250.6085 405.783,-257.2169 400.793,-262.4226"/>
<text text-anchor="middle" x="416.8272" y="-305" font-family="Helvetica,sans-Serif" font-size="10.00" fill="#000000"> +@42</text>
</g>
<!-- Node15 -->
<g id="node14" class="node">
<title>Node15</title>
<polygon fill="none" stroke="#bfbfbf" points="883.8272,-149.5 883.8272,-206.5 921.8272,-206.5 921.8272,-149.5 883.8272,-149.5"/>
<text text-anchor="middle" x="902.8272" y="-194.5" font-family="Helvetica,sans-Serif" font-size="10.00" fill="#000000">bool</text>
<polyline fill="none" stroke="#bfbfbf" points="883.8272,-187.5 921.8272,-187.5 "/>
<text text-anchor="middle" x="902.8272" y="-175.5" font-family="Helvetica,sans-Serif" font-size="10.00" fill="#000000"> </text>
<polyline fill="none" stroke="#bfbfbf" points="883.8272,-168.5 921.8272,-168.5 "/>
<text text-anchor="middle" x="902.8272" y="-156.5" font-family="Helvetica,sans-Serif" font-size="10.00" fill="#000000"> </text>
</g>
<!-- Node15&#45;&gt;Node2 -->
<g id="edge23" class="edge">
<title>Node15&#45;&gt;Node2</title>
<path fill="none" stroke="#404040" d="M892.7903,-149.2743C887.1735,-135.2463 879.3718,-118.5217 869.8272,-105 859.9359,-90.9871 847.2178,-77.4213 834.8893,-65.7245"/>
<polygon fill="none" stroke="#404040" points="834.8517,-65.6899 827.7287,-64.5656 826.027,-57.5581 833.1499,-58.6824 834.8517,-65.6899"/>
<text text-anchor="middle" x="894.3272" y="-79" font-family="Helvetica,sans-Serif" font-size="10.00" fill="#000000"> +mHasPayload</text>
</g>
</g>
</svg>
