<?xml version="1.0" encoding="UTF-8" standalone="no"?>
<!DOCTYPE svg PUBLIC "-//W3C//DTD SVG 1.1//EN"
 "http://www.w3.org/Graphics/SVG/1.1/DTD/svg11.dtd">
<!-- Generated by graphviz version 2.40.1 (20161225.0304)
 -->
<!-- Title: o2::gpu::GPUO2InterfaceConfiguration::GPUInterfaceSettings Pages: 1 -->
<svg width="287pt" height="204pt"
 viewBox="0.00 0.00 287.00 204.00" xmlns="http://www.w3.org/2000/svg" xmlns:xlink="http://www.w3.org/1999/xlink">
<g id="graph0" class="graph" transform="scale(1 1) rotate(0) translate(4 200)">
<title>o2::gpu::GPUO2InterfaceConfiguration::GPUInterfaceSettings</title>
<!-- Node1 -->
<g id="node1" class="node">
<title>Node1</title>
<polygon fill="#bfbfbf" stroke="#000000" points="4,-.5 4,-68.5 206,-68.5 206,-.5 4,-.5"/>
<text text-anchor="start" x="12" y="-56.5" font-family="Helvetica,sans-Serif" font-size="10.00" fill="#000000">o2::gpu::GPUO2InterfaceConfiguration</text>
<text text-anchor="middle" x="105" y="-45.5" font-family="Helvetica,sans-Serif" font-size="10.00" fill="#000000">::GPUInterfaceSettings</text>
<polyline fill="none" stroke="#000000" points="4,-38.5 206,-38.5 "/>
<text text-anchor="middle" x="105" y="-26.5" font-family="Helvetica,sans-Serif" font-size="10.00" fill="#000000"> </text>
<polyline fill="none" stroke="#000000" points="4,-19.5 206,-19.5 "/>
<text text-anchor="middle" x="105" y="-7.5" font-family="Helvetica,sans-Serif" font-size="10.00" fill="#000000"> </text>
</g>
<!-- Node2 -->
<g id="node2" class="node">
<title>Node2</title>
<polygon fill="none" stroke="#bfbfbf" points="0,-138.5 0,-195.5 38,-195.5 38,-138.5 0,-138.5"/>
<text text-anchor="middle" x="19" y="-183.5" font-family="Helvetica,sans-Serif" font-size="10.00" fill="#000000">bool</text>
<polyline fill="none" stroke="#bfbfbf" points="0,-176.5 38,-176.5 "/>
<text text-anchor="middle" x="19" y="-164.5" font-family="Helvetica,sans-Serif" font-size="10.00" fill="#000000"> </text>
<polyline fill="none" stroke="#bfbfbf" points="0,-157.5 38,-157.5 "/>
<text text-anchor="middle" x="19" y="-145.5" font-family="Helvetica,sans-Serif" font-size="10.00" fill="#000000"> </text>
</g>
<!-- Node2&#45;&gt;Node1 -->
<g id="edge1" class="edge">
<title>Node2&#45;&gt;Node1</title>
<path fill="none" stroke="#404040" d="M12.8873,-138.226C10.9976,-122.1608 11.3115,-102.3522 20,-87 21.9649,-83.5281 24.2628,-80.2563 26.8181,-77.1767"/>
<polygon fill="none" stroke="#404040" points="26.8498,-77.1438 28.1359,-70.0482 35.1802,-68.5063 33.8942,-75.6018 26.8498,-77.1438"/>
<text text-anchor="middle" x="94.5" y="-106.5" font-family="Helvetica,sans-Serif" font-size="10.00" fill="#000000"> +outputToPreallocatedBuffers</text>
<text text-anchor="middle" x="94.5" y="-95.5" font-family="Helvetica,sans-Serif" font-size="10.00" fill="#000000">+dumpEvents</text>
</g>
<!-- Node3 -->
<g id="node3" class="node">
<title>Node3</title>
<polygon fill="none" stroke="#bfbfbf" points="160.5,-138.5 160.5,-195.5 221.5,-195.5 221.5,-138.5 160.5,-138.5"/>
<text text-anchor="middle" x="191" y="-183.5" font-family="Helvetica,sans-Serif" font-size="10.00" fill="#000000">unsigned</text>
<polyline fill="none" stroke="#bfbfbf" points="160.5,-176.5 221.5,-176.5 "/>
<text text-anchor="middle" x="191" y="-164.5" font-family="Helvetica,sans-Serif" font-size="10.00" fill="#000000"> </text>
<polyline fill="none" stroke="#bfbfbf" points="160.5,-157.5 221.5,-157.5 "/>
<text text-anchor="middle" x="191" y="-145.5" font-family="Helvetica,sans-Serif" font-size="10.00" fill="#000000"> </text>
</g>
<!-- Node3&#45;&gt;Node1 -->
<g id="edge2" class="edge">
<title>Node3&#45;&gt;Node1</title>
<path fill="none" stroke="#404040" d="M187.4623,-138.2176C184.4576,-122.1498 178.9653,-102.3412 169,-87 166.8471,-83.6858 164.4183,-80.4777 161.7976,-77.3914"/>
<polygon fill="none" stroke="#404040" points="161.6669,-77.2525 154.6421,-75.6235 153.444,-68.5126 160.4687,-70.1416 161.6669,-77.2525"/>
<text text-anchor="middle" x="230.5" y="-112" font-family="Helvetica,sans-Serif" font-size="10.00" fill="#000000"> +maxTRDTracklets</text>
<text text-anchor="middle" x="230.5" y="-101" font-family="Helvetica,sans-Serif" font-size="10.00" fill="#000000">+maxITSTracks</text>
<text text-anchor="middle" x="230.5" y="-90" font-family="Helvetica,sans-Serif" font-size="10.00" fill="#000000">+maxTPCHits</text>
</g>
</g>
</svg>
