<?xml version="1.0" encoding="UTF-8" standalone="no"?>
<!DOCTYPE svg PUBLIC "-//W3C//DTD SVG 1.1//EN"
 "http://www.w3.org/Graphics/SVG/1.1/DTD/svg11.dtd">
<!-- Generated by graphviz version 2.40.1 (20161225.0304)
 -->
<!-- Title: /home/travis/build/AliceO2Group/AliceO2/Detectors/MUON/MCH/Raw/Decoder/src/UserLogicElinkDecoder.h Pages: 1 -->
<!--zoomable 240 -->
<svg id="main" version="1.1" xmlns="http://www.w3.org/2000/svg" xmlns:xlink="http://www.w3.org/1999/xlink" xml:space="preserve" onload="init(evt)">
<style type="text/css"><![CDATA[
.edge:hover path { stroke: red; }
.edge:hover polygon { stroke: red; fill: red; }
]]></style>
<script type="text/javascript"><![CDATA[
var edges = document.getElementsByTagName('g');
if (edges && edges.length) {
  for (var i=0;i<edges.length;i++) {
    if (edges[i].id.substr(0,4)=='edge') {
      edges[i].setAttribute('class','edge');
    }
  }
}
]]></script>
        <defs>
                <circle id="rim" cx="0" cy="0" r="7"/>
                <circle id="rim2" cx="0" cy="0" r="3.5"/>
                <g id="zoomPlus">
                        <use xlink:href="#rim" fill="#404040">
                                <set attributeName="fill" to="#808080" begin="zoomplus.mouseover" end="zoomplus.mouseout"/>
                        </use>
                        <path d="M-4,0h8M0,-4v8" fill="none" stroke="white" stroke-width="1.5" pointer-events="none"/>
                </g>
                <g id="zoomMin">
                        <use xlink:href="#rim" fill="#404040">
                                <set attributeName="fill" to="#808080" begin="zoomminus.mouseover" end="zoomminus.mouseout"/>
                        </use>
                        <path d="M-4,0h8" fill="none" stroke="white" stroke-width="1.5" pointer-events="none"/>
                </g>
                <g id="dirArrow">
                        <path fill="none" stroke="white" stroke-width="1.5" d="M0,-3.0v7 M-2.5,-0.5L0,-3.0L2.5,-0.5"/>
                </g>
               <g id="resetDef">
                       <use xlink:href="#rim2" fill="#404040">
                               <set attributeName="fill" to="#808080" begin="reset.mouseover" end="reset.mouseout"/>
                       </use>
               </g>
        </defs>

<script type="text/javascript">
var viewWidth = 1212;
var viewHeight = 240;
var sectionId = 'dynsection-0';
</script>
<script xlink:href="../../svgpan.js"/>
<svg id="graph" class="graph">
<g id="viewport">
<title>/home/travis/build/AliceO2Group/AliceO2/Detectors/MUON/MCH/Raw/Decoder/src/UserLogicElinkDecoder.h</title>
<!-- Node0 -->
<g id="node1" class="node">
<title>Node0</title>
<polygon fill="#bfbfbf" stroke="#000000" points="708,-179.5 708,-231.5 909,-231.5 909,-179.5 708,-179.5"/>
<text text-anchor="start" x="716" y="-219.5" font-family="Helvetica,sans-Serif" font-size="10.00" fill="#000000">/home/travis/build</text>
<text text-anchor="start" x="716" y="-208.5" font-family="Helvetica,sans-Serif" font-size="10.00" fill="#000000">/AliceO2Group/AliceO2</text>
<text text-anchor="start" x="716" y="-197.5" font-family="Helvetica,sans-Serif" font-size="10.00" fill="#000000">/Detectors/MUON/MCH/Raw</text>
<text text-anchor="middle" x="808.5" y="-186.5" font-family="Helvetica,sans-Serif" font-size="10.00" fill="#000000">/Decoder/src/UserLogicElinkDecoder.h</text>
</g>
<!-- Node1 -->
<g id="node2" class="node">
<title>Node1</title>
<g id="a_node2"><a xlink:href="../../d4/deb/Debug_8h.html" target="_top" xlink:title="Debug.h">
<polygon fill="none" stroke="#000000" points="0,-118 0,-137 57,-137 57,-118 0,-118"/>
<text text-anchor="middle" x="28.5" y="-125" font-family="Helvetica,sans-Serif" font-size="10.00" fill="#000000">Debug.h</text>
</a>
</g>
</g>
<!-- Node0&#45;&gt;Node1 -->
<g id="edge1" class="edge">
<title>Node0&#45;&gt;Node1</title>
<path fill="none" stroke="#191970" d="M707.9101,-200.9315C534.0538,-192.3863 184.5493,-172.1731 65.5,-143 62.864,-142.3541 60.1732,-141.5456 57.5053,-140.6391"/>
<polygon fill="#191970" stroke="#191970" points="58.6734,-137.3387 48.0827,-137.0417 56.1766,-143.8783 58.6734,-137.3387"/>
</g>
<!-- Node2 -->
<g id="node3" class="node">
<title>Node2</title>
<g id="a_node3"><a xlink:href="../../d0/d64/DataFormats_8h.html" target="_top" xlink:title="MCHRawCommon/DataFormats.h">
<polygon fill="none" stroke="#000000" points="75,-118 75,-137 254,-137 254,-118 75,-118"/>
<text text-anchor="middle" x="164.5" y="-125" font-family="Helvetica,sans-Serif" font-size="10.00" fill="#000000">MCHRawCommon/DataFormats.h</text>
</a>
</g>
</g>
<!-- Node0&#45;&gt;Node2 -->
<g id="edge2" class="edge">
<title>Node0&#45;&gt;Node2</title>
<path fill="none" stroke="#191970" d="M707.8588,-194.8471C599.312,-183.1249 421.4705,-163.2462 268.5,-143 257.9697,-141.6063 246.8534,-140.0454 235.9616,-138.4652"/>
<polygon fill="#191970" stroke="#191970" points="236.4469,-134.9991 226.0452,-137.013 235.4325,-141.9252 236.4469,-134.9991"/>
</g>
<!-- Node3 -->
<g id="node4" class="node">
<title>Node3</title>
<g id="a_node4"><a xlink:href="../../d5/d49/SampaHeader_8h.html" target="_top" xlink:title="MCHRawCommon/SampaHeader.h">
<polygon fill="none" stroke="#000000" points="310,-56.5 310,-75.5 495,-75.5 495,-56.5 310,-56.5"/>
<text text-anchor="middle" x="402.5" y="-63.5" font-family="Helvetica,sans-Serif" font-size="10.00" fill="#000000">MCHRawCommon/SampaHeader.h</text>
</a>
</g>
</g>
<!-- Node0&#45;&gt;Node3 -->
<g id="edge3" class="edge">
<title>Node0&#45;&gt;Node3</title>
<path fill="none" stroke="#191970" d="M707.7563,-184.3115C663.2473,-173.7751 610.656,-159.7034 564.5,-143 515.1418,-125.1377 460.5476,-97.4146 429.012,-80.5606"/>
<polygon fill="#191970" stroke="#191970" points="430.4602,-77.3652 419.9967,-75.7019 427.1392,-83.5273 430.4602,-77.3652"/>
</g>
<!-- Node5 -->
<g id="node6" class="node">
<title>Node5</title>
<polygon fill="none" stroke="#bfbfbf" points="372.5,-.5 372.5,-19.5 432.5,-19.5 432.5,-.5 372.5,-.5"/>
<text text-anchor="middle" x="402.5" y="-7.5" font-family="Helvetica,sans-Serif" font-size="10.00" fill="#000000">iostream</text>
</g>
<!-- Node0&#45;&gt;Node5 -->
<g id="edge22" class="edge">
<title>Node0&#45;&gt;Node5</title>
<path fill="none" stroke="#191970" d="M707.9105,-195.0931C573.5884,-178.7922 347.0858,-142.0582 300.5,-76 280.9997,-48.3488 325.9907,-29.4358 362.3054,-19.1674"/>
<polygon fill="#191970" stroke="#191970" points="363.504,-22.4698 372.2571,-16.5004 361.6919,-15.7084 363.504,-22.4698"/>
</g>
<!-- Node6 -->
<g id="node7" class="node">
<title>Node6</title>
<g id="a_node7"><a xlink:href="../../dd/d58/SampaChannelHandler_8h.html" target="_top" xlink:title="MCHRawDecoder/SampaChannel\lHandler.h">
<polygon fill="none" stroke="#000000" points="602,-112.5 602,-142.5 779,-142.5 779,-112.5 602,-112.5"/>
<text text-anchor="start" x="610" y="-130.5" font-family="Helvetica,sans-Serif" font-size="10.00" fill="#000000">MCHRawDecoder/SampaChannel</text>
<text text-anchor="middle" x="690.5" y="-119.5" font-family="Helvetica,sans-Serif" font-size="10.00" fill="#000000">Handler.h</text>
</a>
</g>
</g>
<!-- Node0&#45;&gt;Node6 -->
<g id="edge6" class="edge">
<title>Node0&#45;&gt;Node6</title>
<path fill="none" stroke="#191970" d="M768.8794,-179.3101C753.5764,-169.1945 736.3165,-157.7855 721.8966,-148.2537"/>
<polygon fill="#191970" stroke="#191970" points="723.6003,-145.1843 713.3281,-142.5897 719.7402,-151.0239 723.6003,-145.1843"/>
</g>
<!-- Node7 -->
<g id="node8" class="node">
<title>Node7</title>
<polygon fill="none" stroke="#bfbfbf" points="513,-56.5 513,-75.5 578,-75.5 578,-56.5 513,-56.5"/>
<text text-anchor="middle" x="545.5" y="-63.5" font-family="Helvetica,sans-Serif" font-size="10.00" fill="#000000">functional</text>
</g>
<!-- Node0&#45;&gt;Node7 -->
<g id="edge21" class="edge">
<title>Node0&#45;&gt;Node7</title>
<path fill="none" stroke="#191970" d="M707.9357,-192.0202C669.2565,-183.0067 626.5031,-167.9921 593.5,-143 573.9483,-128.1942 560.4246,-102.9183 552.8283,-85.383"/>
<polygon fill="#191970" stroke="#191970" points="555.8712,-83.5743 548.8635,-75.628 549.3864,-86.2099 555.8712,-83.5743"/>
</g>
<!-- Node9 -->
<g id="node10" class="node">
<title>Node9</title>
<polygon fill="none" stroke="#bfbfbf" points="673,-.5 673,-19.5 720,-19.5 720,-.5 673,-.5"/>
<text text-anchor="middle" x="696.5" y="-7.5" font-family="Helvetica,sans-Serif" font-size="10.00" fill="#000000">vector</text>
</g>
<!-- Node0&#45;&gt;Node9 -->
<g id="edge24" class="edge">
<title>Node0&#45;&gt;Node9</title>
<path fill="none" stroke="#191970" d="M812.1652,-179.3336C815.2127,-147.2216 815.5325,-92.547 789.5,-56 775.3999,-36.205 750.3298,-24.498 729.7696,-17.8522"/>
<polygon fill="#191970" stroke="#191970" points="730.689,-14.4742 720.1064,-14.9829 728.6965,-21.1847 730.689,-14.4742"/>
</g>
<!-- Node10 -->
<g id="node11" class="node">
<title>Node10</title>
<polygon fill="none" stroke="#bfbfbf" points="746,-.5 746,-19.5 825,-19.5 825,-.5 746,-.5"/>
<text text-anchor="middle" x="785.5" y="-7.5" font-family="Helvetica,sans-Serif" font-size="10.00" fill="#000000">fmt/format.h</text>
</g>
<!-- Node0&#45;&gt;Node10 -->
<g id="edge19" class="edge">
<title>Node0&#45;&gt;Node10</title>
<path fill="none" stroke="#191970" d="M817.4838,-179.2915C826.4746,-148.7828 837.0511,-97.3069 822.5,-56 818.6691,-45.125 811.0598,-34.9246 803.7328,-26.9061"/>
<polygon fill="#191970" stroke="#191970" points="806.1466,-24.3686 796.6502,-19.6707 801.1443,-29.2652 806.1466,-24.3686"/>
</g>
<!-- Node11 -->
<g id="node12" class="node">
<title>Node11</title>
<g id="a_node12"><a xlink:href="../../d4/d09/DsElecId_8h.html" target="_top" xlink:title="MCHRawElecMap/DsElecId.h">
<polygon fill="none" stroke="#000000" points="875,-56.5 875,-75.5 1030,-75.5 1030,-56.5 875,-56.5"/>
<text text-anchor="middle" x="952.5" y="-63.5" font-family="Helvetica,sans-Serif" font-size="10.00" fill="#000000">MCHRawElecMap/DsElecId.h</text>
</a>
</g>
</g>
<!-- Node0&#45;&gt;Node11 -->
<g id="edge17" class="edge">
<title>Node0&#45;&gt;Node11</title>
<path fill="none" stroke="#191970" d="M834.9528,-179.1344C853.9209,-160.31 880.143,-134.4515 903.5,-112 913.6497,-102.2438 925.1167,-91.4657 934.4047,-82.7963"/>
<polygon fill="#191970" stroke="#191970" points="936.9853,-85.1757 941.918,-75.7992 932.2146,-80.0531 936.9853,-85.1757"/>
</g>
<!-- Node15 -->
<g id="node16" class="node">
<title>Node15</title>
<polygon fill="none" stroke="#bfbfbf" points="912.5,-118 912.5,-137 956.5,-137 956.5,-118 912.5,-118"/>
<text text-anchor="middle" x="934.5" y="-125" font-family="Helvetica,sans-Serif" font-size="10.00" fill="#000000">bitset</text>
</g>
<!-- Node0&#45;&gt;Node15 -->
<g id="edge18" class="edge">
<title>Node0&#45;&gt;Node15</title>
<path fill="none" stroke="#191970" d="M850.8067,-179.3101C870.5923,-167.0619 893.4413,-152.9173 910.2611,-142.505"/>
<polygon fill="#191970" stroke="#191970" points="912.2671,-145.3796 918.9275,-137.1401 908.5826,-139.4278 912.2671,-145.3796"/>
</g>
<!-- Node16 -->
<g id="node17" class="node">
<title>Node16</title>
<polygon fill="none" stroke="#bfbfbf" points="975,-118 975,-137 1046,-137 1046,-118 975,-118"/>
<text text-anchor="middle" x="1010.5" y="-125" font-family="Helvetica,sans-Serif" font-size="10.00" fill="#000000">fmt/printf.h</text>
</g>
<!-- Node0&#45;&gt;Node16 -->
<g id="edge20" class="edge">
<title>Node0&#45;&gt;Node16</title>
<path fill="none" stroke="#191970" d="M876.0439,-179.4187C909.5486,-166.4812 948.5908,-151.4055 975.9446,-140.8432"/>
<polygon fill="#191970" stroke="#191970" points="977.3937,-144.0356 985.4616,-137.1683 974.8721,-137.5055 977.3937,-144.0356"/>
</g>
<!-- Node17 -->
<g id="node18" class="node">
<title>Node17</title>
<polygon fill="none" stroke="#bfbfbf" points="1064,-118 1064,-137 1129,-137 1129,-118 1064,-118"/>
<text text-anchor="middle" x="1096.5" y="-125" font-family="Helvetica,sans-Serif" font-size="10.00" fill="#000000">stdexcept</text>
</g>
<!-- Node0&#45;&gt;Node17 -->
<g id="edge23" class="edge">
<title>Node0&#45;&gt;Node17</title>
<path fill="none" stroke="#191970" d="M909.2747,-182.7439C954.3422,-171.8653 1007.9232,-157.9594 1055.5,-143 1057.9137,-142.2411 1060.3921,-141.4178 1062.8776,-140.5597"/>
<polygon fill="#191970" stroke="#191970" points="1064.1542,-143.8201 1072.3778,-137.14 1061.7833,-137.2338 1064.1542,-143.8201"/>
</g>
<!-- Node18 -->
<g id="node19" class="node">
<title>Node18</title>
<polygon fill="none" stroke="#bfbfbf" points="1147.5,-118 1147.5,-137 1203.5,-137 1203.5,-118 1147.5,-118"/>
<text text-anchor="middle" x="1175.5" y="-125" font-family="Helvetica,sans-Serif" font-size="10.00" fill="#000000">sstream</text>
</g>
<!-- Node0&#45;&gt;Node18 -->
<g id="edge25" class="edge">
<title>Node0&#45;&gt;Node18</title>
<path fill="none" stroke="#191970" d="M909.086,-192.052C975.1401,-181.8578 1062.9726,-165.6982 1138.5,-143 1140.6677,-142.3485 1142.8813,-141.6127 1145.0943,-140.8243"/>
<polygon fill="#191970" stroke="#191970" points="1146.5823,-144.0016 1154.6476,-137.1312 1144.0583,-137.4725 1146.5823,-144.0016"/>
</g>
<!-- Node4 -->
<g id="node5" class="node">
<title>Node4</title>
<polygon fill="none" stroke="#bfbfbf" points="533,-.5 533,-19.5 582,-19.5 582,-.5 533,-.5"/>
<text text-anchor="middle" x="557.5" y="-7.5" font-family="Helvetica,sans-Serif" font-size="10.00" fill="#000000">cstdlib</text>
</g>
<!-- Node3&#45;&gt;Node4 -->
<g id="edge4" class="edge">
<title>Node3&#45;&gt;Node4</title>
<path fill="none" stroke="#191970" d="M429.1454,-56.3733C455.161,-46.9741 494.8649,-32.6295 523.2207,-22.3848"/>
<polygon fill="#191970" stroke="#191970" points="524.5205,-25.6367 532.7362,-18.9469 522.1419,-19.0532 524.5205,-25.6367"/>
</g>
<!-- Node3&#45;&gt;Node5 -->
<g id="edge5" class="edge">
<title>Node3&#45;&gt;Node5</title>
<path fill="none" stroke="#191970" d="M402.5,-56.2455C402.5,-48.9382 402.5,-38.6944 402.5,-29.7046"/>
<polygon fill="#191970" stroke="#191970" points="406.0001,-29.6426 402.5,-19.6427 399.0001,-29.6427 406.0001,-29.6426"/>
</g>
<!-- Node6&#45;&gt;Node7 -->
<g id="edge7" class="edge">
<title>Node6&#45;&gt;Node7</title>
<path fill="none" stroke="#191970" d="M655.029,-112.4554C631.2598,-102.374 600.232,-89.2139 577.2715,-79.4755"/>
<polygon fill="#191970" stroke="#191970" points="578.5427,-76.2129 567.9699,-75.5303 575.8094,-82.6572 578.5427,-76.2129"/>
</g>
<!-- Node8 -->
<g id="node9" class="node">
<title>Node8</title>
<g id="a_node9"><a xlink:href="../../d0/d5b/SampaCluster_8h.html" target="_top" xlink:title="MCHRawCommon/SampaCluster.h">
<polygon fill="none" stroke="#000000" points="596.5,-56.5 596.5,-75.5 780.5,-75.5 780.5,-56.5 596.5,-56.5"/>
<text text-anchor="middle" x="688.5" y="-63.5" font-family="Helvetica,sans-Serif" font-size="10.00" fill="#000000">MCHRawCommon/SampaCluster.h</text>
</a>
</g>
</g>
<!-- Node6&#45;&gt;Node8 -->
<g id="edge8" class="edge">
<title>Node6&#45;&gt;Node8</title>
<path fill="none" stroke="#191970" d="M690.0056,-112.2977C689.7482,-104.3834 689.4302,-94.6043 689.1529,-86.0759"/>
<polygon fill="#191970" stroke="#191970" points="692.6435,-85.7279 688.8202,-75.8469 685.6472,-85.9554 692.6435,-85.7279"/>
</g>
<!-- Node6&#45;&gt;Node11 -->
<g id="edge13" class="edge">
<title>Node6&#45;&gt;Node11</title>
<path fill="none" stroke="#191970" d="M754.5924,-112.4554C800.0334,-101.7889 860.1565,-87.6761 902.1627,-77.8158"/>
<polygon fill="#191970" stroke="#191970" points="902.9638,-81.223 911.8993,-75.5303 901.3641,-74.4082 902.9638,-81.223"/>
</g>
<!-- Node8&#45;&gt;Node4 -->
<g id="edge9" class="edge">
<title>Node8&#45;&gt;Node4</title>
<path fill="none" stroke="#191970" d="M665.9803,-56.3733C644.7628,-47.3032 612.7724,-33.6279 589.0231,-23.4755"/>
<polygon fill="#191970" stroke="#191970" points="590.2967,-20.2136 579.7258,-19.5011 587.5452,-26.6502 590.2967,-20.2136"/>
</g>
<!-- Node8&#45;&gt;Node5 -->
<g id="edge11" class="edge">
<title>Node8&#45;&gt;Node5</title>
<path fill="none" stroke="#191970" d="M639.6598,-56.4369C584.1358,-45.5651 494.5181,-28.0175 442.8102,-17.8929"/>
<polygon fill="#191970" stroke="#191970" points="443.1727,-14.3975 432.6865,-15.9106 441.8276,-21.267 443.1727,-14.3975"/>
</g>
<!-- Node8&#45;&gt;Node9 -->
<g id="edge10" class="edge">
<title>Node8&#45;&gt;Node9</title>
<path fill="none" stroke="#191970" d="M689.8935,-56.2455C690.9374,-48.9382 692.4008,-38.6944 693.6851,-29.7046"/>
<polygon fill="#191970" stroke="#191970" points="697.173,-30.0372 695.1225,-19.6427 690.2434,-29.0472 697.173,-30.0372"/>
</g>
<!-- Node8&#45;&gt;Node10 -->
<g id="edge12" class="edge">
<title>Node8&#45;&gt;Node10</title>
<path fill="none" stroke="#191970" d="M705.3961,-56.2455C720.418,-47.5731 742.6043,-34.7645 759.821,-24.825"/>
<polygon fill="#191970" stroke="#191970" points="761.8871,-27.6737 768.7975,-19.6427 758.3872,-21.6114 761.8871,-27.6737"/>
</g>
<!-- Node12 -->
<g id="node13" class="node">
<title>Node12</title>
<polygon fill="none" stroke="#bfbfbf" points="859.5,-.5 859.5,-19.5 909.5,-19.5 909.5,-.5 859.5,-.5"/>
<text text-anchor="middle" x="884.5" y="-7.5" font-family="Helvetica,sans-Serif" font-size="10.00" fill="#000000">cstdint</text>
</g>
<!-- Node11&#45;&gt;Node12 -->
<g id="edge14" class="edge">
<title>Node11&#45;&gt;Node12</title>
<path fill="none" stroke="#191970" d="M940.6553,-56.2455C930.612,-47.9746 916.0005,-35.9416 904.1996,-26.2232"/>
<polygon fill="#191970" stroke="#191970" points="906.1533,-23.298 896.209,-19.6427 901.7033,-28.7015 906.1533,-23.298"/>
</g>
<!-- Node13 -->
<g id="node14" class="node">
<title>Node13</title>
<polygon fill="none" stroke="#bfbfbf" points="928,-.5 928,-19.5 977,-19.5 977,-.5 928,-.5"/>
<text text-anchor="middle" x="952.5" y="-7.5" font-family="Helvetica,sans-Serif" font-size="10.00" fill="#000000">iosfwd</text>
</g>
<!-- Node11&#45;&gt;Node13 -->
<g id="edge15" class="edge">
<title>Node11&#45;&gt;Node13</title>
<path fill="none" stroke="#191970" d="M952.5,-56.2455C952.5,-48.9382 952.5,-38.6944 952.5,-29.7046"/>
<polygon fill="#191970" stroke="#191970" points="956.0001,-29.6426 952.5,-19.6427 949.0001,-29.6427 956.0001,-29.6426"/>
</g>
<!-- Node14 -->
<g id="node15" class="node">
<title>Node14</title>
<polygon fill="none" stroke="#bfbfbf" points="995.5,-.5 995.5,-19.5 1051.5,-19.5 1051.5,-.5 995.5,-.5"/>
<text text-anchor="middle" x="1023.5" y="-7.5" font-family="Helvetica,sans-Serif" font-size="10.00" fill="#000000">optional</text>
</g>
<!-- Node11&#45;&gt;Node14 -->
<g id="edge16" class="edge">
<title>Node11&#45;&gt;Node14</title>
<path fill="none" stroke="#191970" d="M964.8673,-56.2455C975.4554,-47.8943 990.9064,-35.7076 1003.2893,-25.9408"/>
<polygon fill="#191970" stroke="#191970" points="1005.5903,-28.5837 1011.2745,-19.6427 1001.2553,-23.0875 1005.5903,-28.5837"/>
</g>
</g>
</svg>
        <g id="navigator" transform="translate(0 0)" fill="#404254">
                <rect fill="#f2f5e9" fill-opacity="0.5" stroke="#606060" stroke-width=".5" x="0" y="0" width="60" height="60"/>
                <use id="zoomplus" xlink:href="#zoomPlus" x="17" y="9" onmousedown="handleZoom(evt,'in')"/>
                <use id="zoomminus" xlink:href="#zoomMin" x="42" y="9" onmousedown="handleZoom(evt,'out')"/>
                <use id="reset" xlink:href="#resetDef" x="30" y="36" onmousedown="handleReset()"/>
                <g id="arrowUp" xlink:href="#dirArrow" transform="translate(30 24)" onmousedown="handlePan(0,-1)">
                  <use xlink:href="#rim" fill="#404040">
                        <set attributeName="fill" to="#808080" begin="arrowUp.mouseover" end="arrowUp.mouseout"/>
                  </use>
                  <path fill="none" stroke="white" stroke-width="1.5" d="M0,-3.0v7 M-2.5,-0.5L0,-3.0L2.5,-0.5"/>
                </g>
                <g id="arrowRight" xlink:href="#dirArrow" transform="rotate(90) translate(36 -43)" onmousedown="handlePan(1,0)">
                  <use xlink:href="#rim" fill="#404040">
                        <set attributeName="fill" to="#808080" begin="arrowRight.mouseover" end="arrowRight.mouseout"/>
                  </use>
                  <path fill="none" stroke="white" stroke-width="1.5" d="M0,-3.0v7 M-2.5,-0.5L0,-3.0L2.5,-0.5"/>
                </g>
                <g id="arrowDown" xlink:href="#dirArrow" transform="rotate(180) translate(-30 -48)" onmousedown="handlePan(0,1)">
                  <use xlink:href="#rim" fill="#404040">
                        <set attributeName="fill" to="#808080" begin="arrowDown.mouseover" end="arrowDown.mouseout"/>
                  </use>
                  <path fill="none" stroke="white" stroke-width="1.5" d="M0,-3.0v7 M-2.5,-0.5L0,-3.0L2.5,-0.5"/>
                </g>
                <g id="arrowLeft" xlink:href="#dirArrow" transform="rotate(270) translate(-36 17)" onmousedown="handlePan(-1,0)">
                  <use xlink:href="#rim" fill="#404040">
                        <set attributeName="fill" to="#808080" begin="arrowLeft.mouseover" end="arrowLeft.mouseout"/>
                  </use>
                  <path fill="none" stroke="white" stroke-width="1.5" d="M0,-3.0v7 M-2.5,-0.5L0,-3.0L2.5,-0.5"/>
                </g>
        </g>
        <svg viewBox="0 0 15 15" width="100%" height="30px" preserveAspectRatio="xMaxYMin meet">
         <g id="arrow_out" transform="scale(0.3 0.3)">
          <a xlink:href="UserLogicElinkDecoder_8h__incl_org.svg" target="_base">
           <rect id="button" ry="5" rx="5" y="6" x="6" height="38" width="38"
                fill="#f2f5e9" fill-opacity="0.5" stroke="#606060" stroke-width="1.0"/>
           <path id="arrow"
             d="M 11.500037,31.436501 C 11.940474,20.09759 22.043105,11.32322 32.158766,21.979434 L 37.068811,17.246167 C 37.068811,17.246167 37.088388,32 37.088388,32 L 22.160133,31.978069 C 22.160133,31.978069 26.997745,27.140456 26.997745,27.140456 C 18.528582,18.264221 13.291696,25.230495 11.500037,31.436501 z"
             style="fill:#404040;"/>
          </a>
         </g>
        </svg>
</svg>
