<?xml version="1.0" encoding="UTF-8" standalone="no"?>
<!DOCTYPE svg PUBLIC "-//W3C//DTD SVG 1.1//EN"
 "http://www.w3.org/Graphics/SVG/1.1/DTD/svg11.dtd">
<!-- Generated by graphviz version 2.40.1 (20161225.0304)
 -->
<!-- Title: /home/travis/build/AliceO2Group/AliceO2/Analysis/DataModel/include/Analysis/Jet.h Pages: 1 -->
<svg width="2445pt" height="341pt"
 viewBox="0.00 0.00 2444.50 341.00" xmlns="http://www.w3.org/2000/svg" xmlns:xlink="http://www.w3.org/1999/xlink">
<g id="graph0" class="graph" transform="scale(1 1) rotate(0) translate(4 337)">
<title>/home/travis/build/AliceO2Group/AliceO2/Analysis/DataModel/include/Analysis/Jet.h</title>
<!-- Node0 -->
<g id="node1" class="node">
<title>Node0</title>
<polygon fill="#bfbfbf" stroke="#000000" points="1927,-280.5 1927,-332.5 2082,-332.5 2082,-280.5 1927,-280.5"/>
<text text-anchor="start" x="1935" y="-320.5" font-family="Helvetica,sans-Serif" font-size="10.00" fill="#000000">/home/travis/build</text>
<text text-anchor="start" x="1935" y="-309.5" font-family="Helvetica,sans-Serif" font-size="10.00" fill="#000000">/AliceO2Group/AliceO2</text>
<text text-anchor="start" x="1935" y="-298.5" font-family="Helvetica,sans-Serif" font-size="10.00" fill="#000000">/Analysis/DataModel/include</text>
<text text-anchor="middle" x="2004.5" y="-287.5" font-family="Helvetica,sans-Serif" font-size="10.00" fill="#000000">/Analysis/Jet.h</text>
</g>
<!-- Node1 -->
<g id="node2" class="node">
<title>Node1</title>
<g id="a_node2"><a xlink:href="../../d2/d8c/AnalysisDataModel_8h.html" target="_top" xlink:title="Framework/AnalysisDataModel.h">
<polygon fill="none" stroke="#000000" points="1916.5,-224.5 1916.5,-243.5 2092.5,-243.5 2092.5,-224.5 1916.5,-224.5"/>
<text text-anchor="middle" x="2004.5" y="-231.5" font-family="Helvetica,sans-Serif" font-size="10.00" fill="#000000">Framework/AnalysisDataModel.h</text>
</a>
</g>
</g>
<!-- Node0&#45;&gt;Node1 -->
<g id="edge1" class="edge">
<title>Node0&#45;&gt;Node1</title>
<path fill="none" stroke="#191970" d="M2004.5,-280.3258C2004.5,-271.5142 2004.5,-261.8397 2004.5,-253.621"/>
<polygon fill="#191970" stroke="#191970" points="2008.0001,-253.534 2004.5,-243.534 2001.0001,-253.534 2008.0001,-253.534"/>
</g>
<!-- Node2 -->
<g id="node3" class="node">
<title>Node2</title>
<g id="a_node3"><a xlink:href="../../de/d33/ASoA_8h.html" target="_top" xlink:title="Framework/ASoA.h">
<polygon fill="none" stroke="#000000" points="897.5,-168.5 897.5,-187.5 1005.5,-187.5 1005.5,-168.5 897.5,-168.5"/>
<text text-anchor="middle" x="951.5" y="-175.5" font-family="Helvetica,sans-Serif" font-size="10.00" fill="#000000">Framework/ASoA.h</text>
</a>
</g>
</g>
<!-- Node1&#45;&gt;Node2 -->
<g id="edge2" class="edge">
<title>Node1&#45;&gt;Node2</title>
<path fill="none" stroke="#191970" d="M1916.0816,-229.2978C1708.9585,-218.2827 1196.2586,-191.0166 1015.6843,-181.4134"/>
<polygon fill="#191970" stroke="#191970" points="1015.72,-177.9105 1005.5482,-180.8744 1015.3482,-184.9006 1015.72,-177.9105"/>
</g>
<!-- Node33 -->
<g id="node34" class="node">
<title>Node33</title>
<g id="a_node34"><a xlink:href="../../d9/d52/Common_2MathUtils_2include_2MathUtils_2Utils_8h.html" target="_top" xlink:title="MathUtils/Utils.h">
<polygon fill="none" stroke="#000000" points="2017.5,-168.5 2017.5,-187.5 2115.5,-187.5 2115.5,-168.5 2017.5,-168.5"/>
<text text-anchor="middle" x="2066.5" y="-175.5" font-family="Helvetica,sans-Serif" font-size="10.00" fill="#000000">MathUtils/Utils.h</text>
</a>
</g>
</g>
<!-- Node1&#45;&gt;Node33 -->
<g id="edge41" class="edge">
<title>Node1&#45;&gt;Node33</title>
<path fill="none" stroke="#191970" d="M2015.2996,-224.2455C2024.3678,-216.0549 2037.5206,-204.1749 2048.2245,-194.5069"/>
<polygon fill="#191970" stroke="#191970" points="2050.7491,-196.9429 2055.8242,-187.6427 2046.0571,-191.7482 2050.7491,-196.9429"/>
</g>
<!-- Node35 -->
<g id="node36" class="node">
<title>Node35</title>
<polygon fill="none" stroke="#bfbfbf" points="1963,-56.5 1963,-75.5 2010,-75.5 2010,-56.5 1963,-56.5"/>
<text text-anchor="middle" x="1986.5" y="-63.5" font-family="Helvetica,sans-Serif" font-size="10.00" fill="#000000">cmath</text>
</g>
<!-- Node1&#45;&gt;Node35 -->
<g id="edge52" class="edge">
<title>Node1&#45;&gt;Node35</title>
<path fill="none" stroke="#191970" d="M2002.4256,-224.4992C1998.6141,-206.5395 1990.6032,-166.329 1987.5,-132 1986.1116,-116.6404 1985.9066,-99.1903 1986.0245,-86.0923"/>
<polygon fill="#191970" stroke="#191970" points="1989.5276,-85.9194 1986.1895,-75.8642 1982.5285,-85.8064 1989.5276,-85.9194"/>
</g>
<!-- Node42 -->
<g id="node43" class="node">
<title>Node42</title>
<g id="a_node43"><a xlink:href="../../d2/d12/DataTypes_8h.html" target="_top" xlink:title="Framework/DataTypes.h">
<polygon fill="none" stroke="#000000" points="2133.5,-168.5 2133.5,-187.5 2267.5,-187.5 2267.5,-168.5 2133.5,-168.5"/>
<text text-anchor="middle" x="2200.5" y="-175.5" font-family="Helvetica,sans-Serif" font-size="10.00" fill="#000000">Framework/DataTypes.h</text>
</a>
</g>
</g>
<!-- Node1&#45;&gt;Node42 -->
<g id="edge53" class="edge">
<title>Node1&#45;&gt;Node42</title>
<path fill="none" stroke="#191970" d="M2038.1936,-224.3733C2071.2087,-214.9404 2121.6573,-200.5265 2157.5386,-190.2747"/>
<polygon fill="#191970" stroke="#191970" points="2158.5924,-193.6137 2167.2461,-187.5011 2156.6693,-186.8831 2158.5924,-193.6137"/>
</g>
<!-- Node3 -->
<g id="node4" class="node">
<title>Node3</title>
<g id="a_node4"><a xlink:href="../../dd/dce/Pack_8h.html" target="_top" xlink:title="Framework/Pack.h">
<polygon fill="none" stroke="#000000" points="83,-56.5 83,-75.5 188,-75.5 188,-56.5 83,-56.5"/>
<text text-anchor="middle" x="135.5" y="-63.5" font-family="Helvetica,sans-Serif" font-size="10.00" fill="#000000">Framework/Pack.h</text>
</a>
</g>
</g>
<!-- Node2&#45;&gt;Node3 -->
<g id="edge3" class="edge">
<title>Node2&#45;&gt;Node3</title>
<path fill="none" stroke="#191970" d="M897.312,-173.1021C847.8622,-167.3541 773.4242,-155.4555 712.5,-132 696.4951,-125.8382 695.8341,-117.227 679.5,-112 477.9985,-47.5186 412.8159,-99.5006 198.2237,-75.9573"/>
<polygon fill="#191970" stroke="#191970" points="198.5544,-72.4724 188.2224,-74.8176 197.7617,-79.4274 198.5544,-72.4724"/>
</g>
<!-- Node7 -->
<g id="node8" class="node">
<title>Node7</title>
<g id="a_node8"><a xlink:href="../../d1/d00/CheckTypes_8h.html" target="_top" xlink:title="Framework/CheckTypes.h">
<polygon fill="none" stroke="#000000" points="206.5,-56.5 206.5,-75.5 346.5,-75.5 346.5,-56.5 206.5,-56.5"/>
<text text-anchor="middle" x="276.5" y="-63.5" font-family="Helvetica,sans-Serif" font-size="10.00" fill="#000000">Framework/CheckTypes.h</text>
</a>
</g>
</g>
<!-- Node2&#45;&gt;Node7 -->
<g id="edge7" class="edge">
<title>Node2&#45;&gt;Node7</title>
<path fill="none" stroke="#191970" d="M897.0744,-169.4946C855.9953,-162.1359 798.6719,-149.8427 750.5,-132 732.603,-125.371 730.7747,-117.503 712.5,-112 562.9331,-66.9615 515.8761,-92.8975 356.8387,-76.0929"/>
<polygon fill="#191970" stroke="#191970" points="357.0223,-72.5921 346.7001,-74.9801 356.2585,-79.5503 357.0223,-72.5921"/>
</g>
<!-- Node8 -->
<g id="node9" class="node">
<title>Node8</title>
<g id="a_node9"><a xlink:href="../../de/d9b/FunctionalHelpers_8h.html" target="_top" xlink:title="Framework/FunctionalHelpers.h">
<polygon fill="none" stroke="#000000" points="500.5,-112.5 500.5,-131.5 670.5,-131.5 670.5,-112.5 500.5,-112.5"/>
<text text-anchor="middle" x="585.5" y="-119.5" font-family="Helvetica,sans-Serif" font-size="10.00" fill="#000000">Framework/FunctionalHelpers.h</text>
</a>
</g>
</g>
<!-- Node2&#45;&gt;Node8 -->
<g id="edge8" class="edge">
<title>Node2&#45;&gt;Node8</title>
<path fill="none" stroke="#191970" d="M897.4954,-169.737C834.0046,-160.0226 728.3647,-143.8591 657.8385,-133.0682"/>
<polygon fill="#191970" stroke="#191970" points="658.1114,-129.5693 647.697,-131.5165 657.0526,-136.4888 658.1114,-129.5693"/>
</g>
<!-- Node10 -->
<g id="node11" class="node">
<title>Node10</title>
<g id="a_node11"><a xlink:href="../../d9/de8/CompilerBuiltins_8h.html" target="_top" xlink:title="Framework/CompilerBuiltins.h">
<polygon fill="none" stroke="#000000" points="364.5,-56.5 364.5,-75.5 528.5,-75.5 528.5,-56.5 364.5,-56.5"/>
<text text-anchor="middle" x="446.5" y="-63.5" font-family="Helvetica,sans-Serif" font-size="10.00" fill="#000000">Framework/CompilerBuiltins.h</text>
</a>
</g>
</g>
<!-- Node2&#45;&gt;Node10 -->
<g id="edge11" class="edge">
<title>Node2&#45;&gt;Node10</title>
<path fill="none" stroke="#191970" d="M913.258,-168.4206C881.1597,-159.9953 834.3024,-146.7922 794.5,-132 774.3646,-124.5169 771.0938,-118.1096 750.5,-112 711.522,-100.4363 611.2877,-86.3464 536.5011,-76.8314"/>
<polygon fill="#191970" stroke="#191970" points="536.4863,-73.3018 526.1263,-75.5199 535.6083,-80.2465 536.4863,-73.3018"/>
</g>
<!-- Node11 -->
<g id="node12" class="node">
<title>Node11</title>
<g id="a_node12"><a xlink:href="../../db/d31/Traits_8h.html" target="_top" xlink:title="Framework/Traits.h">
<polygon fill="none" stroke="#000000" points="1390,-112.5 1390,-131.5 1499,-131.5 1499,-112.5 1390,-112.5"/>
<text text-anchor="middle" x="1444.5" y="-119.5" font-family="Helvetica,sans-Serif" font-size="10.00" fill="#000000">Framework/Traits.h</text>
</a>
</g>
</g>
<!-- Node2&#45;&gt;Node11 -->
<g id="edge12" class="edge">
<title>Node2&#45;&gt;Node11</title>
<path fill="none" stroke="#191970" d="M1005.7871,-172.7392C1086.5083,-164.7744 1242.9117,-148.7946 1375.5,-132 1376.9635,-131.8146 1378.4441,-131.6242 1379.9367,-131.4297"/>
<polygon fill="#191970" stroke="#191970" points="1380.4636,-134.8905 1389.9113,-130.0957 1379.5356,-127.9523 1380.4636,-134.8905"/>
</g>
<!-- Node13 -->
<g id="node14" class="node">
<title>Node13</title>
<g id="a_node14"><a xlink:href="../../d0/d91/Expressions_8h.html" target="_top" xlink:title="Framework/Expressions.h">
<polygon fill="none" stroke="#000000" points="960,-112.5 960,-131.5 1101,-131.5 1101,-112.5 960,-112.5"/>
<text text-anchor="middle" x="1030.5" y="-119.5" font-family="Helvetica,sans-Serif" font-size="10.00" fill="#000000">Framework/Expressions.h</text>
</a>
</g>
</g>
<!-- Node2&#45;&gt;Node13 -->
<g id="edge14" class="edge">
<title>Node2&#45;&gt;Node13</title>
<path fill="none" stroke="#191970" d="M965.2607,-168.2455C977.1552,-159.814 994.565,-147.4729 1008.4085,-137.6598"/>
<polygon fill="#191970" stroke="#191970" points="1010.7628,-140.2811 1016.8969,-131.6427 1006.7146,-134.5704 1010.7628,-140.2811"/>
</g>
<!-- Node19 -->
<g id="node20" class="node">
<title>Node19</title>
<polygon fill="none" stroke="#bfbfbf" points="1612,-56.5 1612,-75.5 1693,-75.5 1693,-56.5 1612,-56.5"/>
<text text-anchor="middle" x="1652.5" y="-63.5" font-family="Helvetica,sans-Serif" font-size="10.00" fill="#000000">arrow/table.h</text>
</g>
<!-- Node2&#45;&gt;Node19 -->
<g id="edge34" class="edge">
<title>Node2&#45;&gt;Node19</title>
<path fill="none" stroke="#191970" d="M993.1215,-168.4219C1025.6589,-160.3499 1071.7189,-147.6269 1110.5,-132 1128.2021,-124.8669 1130.1676,-117.3074 1148.5,-112 1339.7943,-56.6187 1400.081,-102.3711 1601.8796,-75.8953"/>
<polygon fill="#191970" stroke="#191970" points="1602.4702,-79.3473 1611.9093,-74.5356 1601.5298,-72.4108 1602.4702,-79.3473"/>
</g>
<!-- Node20 -->
<g id="node21" class="node">
<title>Node20</title>
<polygon fill="none" stroke="#bfbfbf" points="1711,-56.5 1711,-75.5 1858,-75.5 1858,-56.5 1711,-56.5"/>
<text text-anchor="middle" x="1784.5" y="-63.5" font-family="Helvetica,sans-Serif" font-size="10.00" fill="#000000">gandiva/selection_vector.h</text>
</g>
<!-- Node2&#45;&gt;Node20 -->
<g id="edge39" class="edge">
<title>Node2&#45;&gt;Node20</title>
<path fill="none" stroke="#191970" d="M1005.8616,-174.0049C1098.0087,-166.8327 1280.8718,-150.759 1342.5,-132 1361.1355,-126.3275 1362.8492,-117.6219 1381.5,-112 1515.8651,-71.4985 1558.0237,-91.7279 1700.7471,-76.1594"/>
<polygon fill="#191970" stroke="#191970" points="1701.2036,-79.6302 1710.7468,-75.0284 1700.4168,-72.6746 1701.2036,-79.6302"/>
</g>
<!-- Node26 -->
<g id="node27" class="node">
<title>Node26</title>
<g id="a_node27"><a xlink:href="../../d1/dc1/ArrowCompatibility_8h.html" target="_top" xlink:title="Framework/ArrowCompatibility.h">
<polygon fill="none" stroke="#000000" points="1157.5,-112.5 1157.5,-131.5 1333.5,-131.5 1333.5,-112.5 1157.5,-112.5"/>
<text text-anchor="middle" x="1245.5" y="-119.5" font-family="Helvetica,sans-Serif" font-size="10.00" fill="#000000">Framework/ArrowCompatibility.h</text>
</a>
</g>
</g>
<!-- Node2&#45;&gt;Node26 -->
<g id="edge30" class="edge">
<title>Node2&#45;&gt;Node26</title>
<path fill="none" stroke="#191970" d="M1001.7063,-168.4369C1052.5507,-158.7522 1131.206,-143.7703 1185.3513,-133.4569"/>
<polygon fill="#191970" stroke="#191970" points="1186.3323,-136.8331 1195.5007,-131.5237 1185.0224,-129.9567 1186.3323,-136.8331"/>
</g>
<!-- Node27 -->
<g id="node28" class="node">
<title>Node27</title>
<g id="a_node28"><a xlink:href="../../d4/de7/ArrowTypes_8h.html" target="_top" xlink:title="Framework/ArrowTypes.h">
<polygon fill="none" stroke="#000000" points="803,-112.5 803,-131.5 942,-131.5 942,-112.5 803,-112.5"/>
<text text-anchor="middle" x="872.5" y="-119.5" font-family="Helvetica,sans-Serif" font-size="10.00" fill="#000000">Framework/ArrowTypes.h</text>
</a>
</g>
</g>
<!-- Node2&#45;&gt;Node27 -->
<g id="edge32" class="edge">
<title>Node2&#45;&gt;Node27</title>
<path fill="none" stroke="#191970" d="M937.7393,-168.2455C925.8448,-159.814 908.435,-147.4729 894.5915,-137.6598"/>
<polygon fill="#191970" stroke="#191970" points="896.2854,-134.5704 886.1031,-131.6427 892.2372,-140.2811 896.2854,-134.5704"/>
</g>
<!-- Node28 -->
<g id="node29" class="node">
<title>Node28</title>
<polygon fill="none" stroke="#bfbfbf" points="1517.5,-112.5 1517.5,-131.5 1597.5,-131.5 1597.5,-112.5 1517.5,-112.5"/>
<text text-anchor="middle" x="1557.5" y="-119.5" font-family="Helvetica,sans-Serif" font-size="10.00" fill="#000000">arrow/array.h</text>
</g>
<!-- Node2&#45;&gt;Node28 -->
<g id="edge35" class="edge">
<title>Node2&#45;&gt;Node28</title>
<path fill="none" stroke="#191970" d="M1005.5083,-175.6769C1103.5222,-170.9957 1317.3444,-158.6466 1507.2844,-132.0192"/>
<polygon fill="#191970" stroke="#191970" points="1508.047,-135.4461 1517.4563,-130.5761 1507.0638,-128.5155 1508.047,-135.4461"/>
</g>
<!-- Node29 -->
<g id="node30" class="node">
<title>Node29</title>
<polygon fill="none" stroke="#bfbfbf" points="1615.5,-112.5 1615.5,-131.5 1725.5,-131.5 1725.5,-112.5 1615.5,-112.5"/>
<text text-anchor="middle" x="1670.5" y="-119.5" font-family="Helvetica,sans-Serif" font-size="10.00" fill="#000000">arrow/util/variant.h</text>
</g>
<!-- Node2&#45;&gt;Node29 -->
<g id="edge36" class="edge">
<title>Node2&#45;&gt;Node29</title>
<path fill="none" stroke="#191970" d="M1005.5579,-175.7586C1116.1577,-170.8357 1376.4282,-157.5249 1605.2006,-132.06"/>
<polygon fill="#191970" stroke="#191970" points="1605.8354,-135.5108 1615.3821,-130.9162 1605.0538,-128.5546 1605.8354,-135.5108"/>
</g>
<!-- Node30 -->
<g id="node31" class="node">
<title>Node30</title>
<polygon fill="none" stroke="#bfbfbf" points="122,-112.5 122,-131.5 261,-131.5 261,-112.5 122,-112.5"/>
<text text-anchor="middle" x="191.5" y="-119.5" font-family="Helvetica,sans-Serif" font-size="10.00" fill="#000000">arrow/compute/context.h</text>
</g>
<!-- Node2&#45;&gt;Node30 -->
<g id="edge37" class="edge">
<title>Node2&#45;&gt;Node30</title>
<path fill="none" stroke="#191970" d="M897.4786,-175.4632C783.6626,-169.8786 510.6413,-155.2217 271.5008,-132.1487"/>
<polygon fill="#191970" stroke="#191970" points="271.5093,-128.6331 261.2176,-131.1493 270.8321,-135.6003 271.5093,-128.6331"/>
</g>
<!-- Node31 -->
<g id="node32" class="node">
<title>Node31</title>
<polygon fill="none" stroke="#bfbfbf" points="279,-112.5 279,-131.5 412,-131.5 412,-112.5 279,-112.5"/>
<text text-anchor="middle" x="345.5" y="-119.5" font-family="Helvetica,sans-Serif" font-size="10.00" fill="#000000">arrow/compute/kernel.h</text>
</g>
<!-- Node2&#45;&gt;Node31 -->
<g id="edge38" class="edge">
<title>Node2&#45;&gt;Node31</title>
<path fill="none" stroke="#191970" d="M897.2514,-174.0882C802.9953,-167.1172 602.6432,-151.53 422.4079,-132.0558"/>
<polygon fill="#191970" stroke="#191970" points="422.5277,-128.5482 412.208,-130.9471 421.7712,-135.5073 422.5277,-128.5482"/>
</g>
<!-- Node32 -->
<g id="node33" class="node">
<title>Node32</title>
<polygon fill="none" stroke="#bfbfbf" points="430.5,-112.5 430.5,-131.5 482.5,-131.5 482.5,-112.5 430.5,-112.5"/>
<text text-anchor="middle" x="456.5" y="-119.5" font-family="Helvetica,sans-Serif" font-size="10.00" fill="#000000">cassert</text>
</g>
<!-- Node2&#45;&gt;Node32 -->
<g id="edge40" class="edge">
<title>Node2&#45;&gt;Node32</title>
<path fill="none" stroke="#191970" d="M897.228,-175.7142C812.5847,-171.4624 643.9918,-160.239 492.6917,-131.9342"/>
<polygon fill="#191970" stroke="#191970" points="493.2296,-128.4738 482.752,-130.045 491.9225,-135.3507 493.2296,-128.4738"/>
</g>
<!-- Node4 -->
<g id="node5" class="node">
<title>Node4</title>
<polygon fill="none" stroke="#bfbfbf" points="177,-.5 177,-19.5 230,-19.5 230,-.5 177,-.5"/>
<text text-anchor="middle" x="203.5" y="-7.5" font-family="Helvetica,sans-Serif" font-size="10.00" fill="#000000">cstddef</text>
</g>
<!-- Node3&#45;&gt;Node4 -->
<g id="edge4" class="edge">
<title>Node3&#45;&gt;Node4</title>
<path fill="none" stroke="#191970" d="M147.3447,-56.2455C157.388,-47.9746 171.9995,-35.9416 183.8004,-26.2232"/>
<polygon fill="#191970" stroke="#191970" points="186.2967,-28.7015 191.791,-19.6427 181.8467,-23.298 186.2967,-28.7015"/>
</g>
<!-- Node5 -->
<g id="node6" class="node">
<title>Node5</title>
<polygon fill="none" stroke="#bfbfbf" points="49,-.5 49,-19.5 94,-19.5 94,-.5 49,-.5"/>
<text text-anchor="middle" x="71.5" y="-7.5" font-family="Helvetica,sans-Serif" font-size="10.00" fill="#000000">utility</text>
</g>
<!-- Node3&#45;&gt;Node5 -->
<g id="edge5" class="edge">
<title>Node3&#45;&gt;Node5</title>
<path fill="none" stroke="#191970" d="M124.3521,-56.2455C114.9913,-48.0549 101.4142,-36.1749 90.3651,-26.5069"/>
<polygon fill="#191970" stroke="#191970" points="92.3508,-23.5937 82.5202,-19.6427 87.7412,-28.8618 92.3508,-23.5937"/>
</g>
<!-- Node6 -->
<g id="node7" class="node">
<title>Node6</title>
<polygon fill="none" stroke="#bfbfbf" points="112.5,-.5 112.5,-19.5 158.5,-19.5 158.5,-.5 112.5,-.5"/>
<text text-anchor="middle" x="135.5" y="-7.5" font-family="Helvetica,sans-Serif" font-size="10.00" fill="#000000">cstdio</text>
</g>
<!-- Node3&#45;&gt;Node6 -->
<g id="edge6" class="edge">
<title>Node3&#45;&gt;Node6</title>
<path fill="none" stroke="#191970" d="M135.5,-56.2455C135.5,-48.9382 135.5,-38.6944 135.5,-29.7046"/>
<polygon fill="#191970" stroke="#191970" points="139.0001,-29.6426 135.5,-19.6427 132.0001,-29.6427 139.0001,-29.6426"/>
</g>
<!-- Node8&#45;&gt;Node3 -->
<g id="edge9" class="edge">
<title>Node8&#45;&gt;Node3</title>
<path fill="none" stroke="#191970" d="M500.2151,-112.9283C423.8187,-104.5626 308.4584,-91.3423 198.2096,-76.0511"/>
<polygon fill="#191970" stroke="#191970" points="198.6301,-72.576 188.2425,-74.661 197.6632,-79.5089 198.6301,-72.576"/>
</g>
<!-- Node9 -->
<g id="node10" class="node">
<title>Node9</title>
<polygon fill="none" stroke="#bfbfbf" points="0,-56.5 0,-75.5 65,-75.5 65,-56.5 0,-56.5"/>
<text text-anchor="middle" x="32.5" y="-63.5" font-family="Helvetica,sans-Serif" font-size="10.00" fill="#000000">functional</text>
</g>
<!-- Node8&#45;&gt;Node9 -->
<g id="edge10" class="edge">
<title>Node8&#45;&gt;Node9</title>
<path fill="none" stroke="#191970" d="M500.4534,-112.8752C497.4322,-112.5756 494.4405,-112.283 491.5,-112 309.1548,-94.4504 259.2503,-105.7665 75.0965,-76.0585"/>
<polygon fill="#191970" stroke="#191970" points="75.5142,-72.5805 65.0811,-74.4241 74.3867,-79.4891 75.5142,-72.5805"/>
</g>
<!-- Node12 -->
<g id="node13" class="node">
<title>Node12</title>
<polygon fill="none" stroke="#bfbfbf" points="1876,-56.5 1876,-75.5 1945,-75.5 1945,-56.5 1876,-56.5"/>
<text text-anchor="middle" x="1910.5" y="-63.5" font-family="Helvetica,sans-Serif" font-size="10.00" fill="#000000">type_traits</text>
</g>
<!-- Node11&#45;&gt;Node12 -->
<g id="edge13" class="edge">
<title>Node11&#45;&gt;Node12</title>
<path fill="none" stroke="#191970" d="M1499.2845,-113.2369C1502.3999,-112.8018 1505.4882,-112.386 1508.5,-112 1664.2929,-92.0327 1707.54,-101.7937 1865.7521,-76.1226"/>
<polygon fill="#191970" stroke="#191970" points="1866.5435,-79.5395 1875.8429,-74.4629 1865.4074,-72.6323 1866.5435,-79.5395"/>
</g>
<!-- Node13&#45;&gt;Node3 -->
<g id="edge17" class="edge">
<title>Node13&#45;&gt;Node3</title>
<path fill="none" stroke="#191970" d="M959.894,-112.7848C957.0608,-112.503 954.2545,-112.2397 951.5,-112 620.5345,-83.1962 532.8917,-110.2268 198.1867,-75.9467"/>
<polygon fill="#191970" stroke="#191970" points="198.5188,-72.4625 188.2116,-74.9145 197.7982,-79.4253 198.5188,-72.4625"/>
</g>
<!-- Node13&#45;&gt;Node7 -->
<g id="edge18" class="edge">
<title>Node13&#45;&gt;Node7</title>
<path fill="none" stroke="#191970" d="M959.89,-112.8291C957.058,-112.5351 954.253,-112.2571 951.5,-112 690.6325,-87.6373 621.4689,-100.3431 356.9853,-76.0811"/>
<polygon fill="#191970" stroke="#191970" points="356.9652,-72.5644 346.6849,-75.1267 356.3193,-79.5345 356.9652,-72.5644"/>
</g>
<!-- Node13&#45;&gt;Node10 -->
<g id="edge16" class="edge">
<title>Node13&#45;&gt;Node10</title>
<path fill="none" stroke="#191970" d="M959.8808,-112.9217C957.0513,-112.602 954.2493,-112.2934 951.5,-112 771.0769,-92.7438 722.9851,-94.0357 538.8475,-76.1129"/>
<polygon fill="#191970" stroke="#191970" points="539.1247,-72.6234 528.8311,-75.1321 538.4425,-79.59 539.1247,-72.6234"/>
</g>
<!-- Node14 -->
<g id="node15" class="node">
<title>Node14</title>
<g id="a_node15"><a xlink:href="../../dd/dc2/BasicOps_8h.html" target="_top" xlink:title="Framework/BasicOps.h">
<polygon fill="none" stroke="#000000" points="1465.5,-56.5 1465.5,-75.5 1593.5,-75.5 1593.5,-56.5 1465.5,-56.5"/>
<text text-anchor="middle" x="1529.5" y="-63.5" font-family="Helvetica,sans-Serif" font-size="10.00" fill="#000000">Framework/BasicOps.h</text>
</a>
</g>
</g>
<!-- Node13&#45;&gt;Node14 -->
<g id="edge15" class="edge">
<title>Node13&#45;&gt;Node14</title>
<path fill="none" stroke="#191970" d="M1101.4539,-113.5884C1106.2067,-113.0447 1110.9222,-112.5109 1115.5,-112 1263.7035,-95.4597 1303.5143,-94.3836 1455.2609,-76.1204"/>
<polygon fill="#191970" stroke="#191970" points="1455.9128,-79.5672 1465.4204,-74.8923 1455.0726,-72.6178 1455.9128,-79.5672"/>
</g>
<!-- Node15 -->
<g id="node16" class="node">
<title>Node15</title>
<polygon fill="none" stroke="#bfbfbf" points="547,-56.5 547,-75.5 648,-75.5 648,-56.5 547,-56.5"/>
<text text-anchor="middle" x="597.5" y="-63.5" font-family="Helvetica,sans-Serif" font-size="10.00" fill="#000000">arrow/type_fwd.h</text>
</g>
<!-- Node13&#45;&gt;Node15 -->
<g id="edge19" class="edge">
<title>Node13&#45;&gt;Node15</title>
<path fill="none" stroke="#191970" d="M959.8666,-113.0446C957.041,-112.6909 954.2438,-112.3416 951.5,-112 824.0555,-96.1312 789.4628,-94.8789 658.2502,-76.0576"/>
<polygon fill="#191970" stroke="#191970" points="658.612,-72.5736 648.215,-74.6111 657.6133,-79.502 658.612,-72.5736"/>
</g>
<!-- Node16 -->
<g id="node17" class="node">
<title>Node16</title>
<polygon fill="none" stroke="#bfbfbf" points="666.5,-56.5 666.5,-75.5 812.5,-75.5 812.5,-56.5 666.5,-56.5"/>
<text text-anchor="middle" x="739.5" y="-63.5" font-family="Helvetica,sans-Serif" font-size="10.00" fill="#000000">gandiva/gandiva_aliases.h</text>
</g>
<!-- Node13&#45;&gt;Node16 -->
<g id="edge20" class="edge">
<title>Node13&#45;&gt;Node16</title>
<path fill="none" stroke="#191970" d="M980.806,-112.4369C930.4804,-102.7522 852.6277,-87.7703 799.0349,-77.4569"/>
<polygon fill="#191970" stroke="#191970" points="799.4703,-73.9765 788.9891,-75.5237 798.1475,-80.8504 799.4703,-73.9765"/>
</g>
<!-- Node17 -->
<g id="node18" class="node">
<title>Node17</title>
<polygon fill="none" stroke="#bfbfbf" points="830.5,-56.5 830.5,-75.5 908.5,-75.5 908.5,-56.5 830.5,-56.5"/>
<text text-anchor="middle" x="869.5" y="-63.5" font-family="Helvetica,sans-Serif" font-size="10.00" fill="#000000">arrow/type.h</text>
</g>
<!-- Node13&#45;&gt;Node17 -->
<g id="edge21" class="edge">
<title>Node13&#45;&gt;Node17</title>
<path fill="none" stroke="#191970" d="M1002.8231,-112.3733C976.1672,-103.1016 935.6762,-89.0178 906.3116,-78.804"/>
<polygon fill="#191970" stroke="#191970" points="907.4105,-75.4807 896.8157,-75.5011 905.1109,-82.0921 907.4105,-75.4807"/>
</g>
<!-- Node18 -->
<g id="node19" class="node">
<title>Node18</title>
<polygon fill="none" stroke="#bfbfbf" points="927,-56.5 927,-75.5 1022,-75.5 1022,-56.5 927,-56.5"/>
<text text-anchor="middle" x="974.5" y="-63.5" font-family="Helvetica,sans-Serif" font-size="10.00" fill="#000000">gandiva/arrow.h</text>
</g>
<!-- Node13&#45;&gt;Node18 -->
<g id="edge22" class="edge">
<title>Node13&#45;&gt;Node18</title>
<path fill="none" stroke="#191970" d="M1020.7455,-112.2455C1012.6352,-104.1352 1000.9075,-92.4075 991.2919,-82.7919"/>
<polygon fill="#191970" stroke="#191970" points="993.6887,-80.2389 984.1427,-75.6427 988.7389,-85.1887 993.6887,-80.2389"/>
</g>
<!-- Node13&#45;&gt;Node19 -->
<g id="edge23" class="edge">
<title>Node13&#45;&gt;Node19</title>
<path fill="none" stroke="#191970" d="M1101.4367,-113.4217C1106.1936,-112.9183 1110.9148,-112.439 1115.5,-112 1328.2769,-91.6289 1385.7278,-104.9215 1601.8341,-75.9213"/>
<polygon fill="#191970" stroke="#191970" points="1602.4733,-79.3668 1611.9119,-74.554 1601.5321,-72.4303 1602.4733,-79.3668"/>
</g>
<!-- Node13&#45;&gt;Node20 -->
<g id="edge24" class="edge">
<title>Node13&#45;&gt;Node20</title>
<path fill="none" stroke="#191970" d="M1101.3032,-115.772C1116.8483,-114.4682 1133.2259,-113.1434 1148.5,-112 1391.1891,-93.8331 1455.0903,-98.8015 1700.4551,-76.1495"/>
<polygon fill="#191970" stroke="#191970" points="1701.1308,-79.6018 1710.764,-75.1914 1700.483,-72.6319 1701.1308,-79.6018"/>
</g>
<!-- Node21 -->
<g id="node22" class="node">
<title>Node21</title>
<polygon fill="none" stroke="#bfbfbf" points="1040.5,-56.5 1040.5,-75.5 1132.5,-75.5 1132.5,-56.5 1040.5,-56.5"/>
<text text-anchor="middle" x="1086.5" y="-63.5" font-family="Helvetica,sans-Serif" font-size="10.00" fill="#000000">gandiva/node.h</text>
</g>
<!-- Node13&#45;&gt;Node21 -->
<g id="edge25" class="edge">
<title>Node13&#45;&gt;Node21</title>
<path fill="none" stroke="#191970" d="M1040.2545,-112.2455C1048.3648,-104.1352 1060.0925,-92.4075 1069.7081,-82.7919"/>
<polygon fill="#191970" stroke="#191970" points="1072.2611,-85.1887 1076.8573,-75.6427 1067.3113,-80.2389 1072.2611,-85.1887"/>
</g>
<!-- Node22 -->
<g id="node23" class="node">
<title>Node22</title>
<polygon fill="none" stroke="#bfbfbf" points="1151,-56.5 1151,-75.5 1240,-75.5 1240,-56.5 1151,-56.5"/>
<text text-anchor="middle" x="1195.5" y="-63.5" font-family="Helvetica,sans-Serif" font-size="10.00" fill="#000000">gandiva/filter.h</text>
</g>
<!-- Node13&#45;&gt;Node22 -->
<g id="edge26" class="edge">
<title>Node13&#45;&gt;Node22</title>
<path fill="none" stroke="#191970" d="M1058.8645,-112.3733C1086.1827,-103.1016 1127.6796,-89.0178 1157.7738,-78.804"/>
<polygon fill="#191970" stroke="#191970" points="1159.161,-82.0294 1167.5056,-75.5011 1156.9113,-75.4008 1159.161,-82.0294"/>
</g>
<!-- Node23 -->
<g id="node24" class="node">
<title>Node23</title>
<polygon fill="none" stroke="#bfbfbf" points="1258,-56.5 1258,-75.5 1309,-75.5 1309,-56.5 1258,-56.5"/>
<text text-anchor="middle" x="1283.5" y="-63.5" font-family="Helvetica,sans-Serif" font-size="10.00" fill="#000000">variant</text>
</g>
<!-- Node13&#45;&gt;Node23 -->
<g id="edge27" class="edge">
<title>Node13&#45;&gt;Node23</title>
<path fill="none" stroke="#191970" d="M1081.6505,-112.4435C1123.9392,-104.2747 1185.7517,-91.7204 1247.9558,-76.2592"/>
<polygon fill="#191970" stroke="#191970" points="1249.0927,-79.5824 1257.9397,-73.753 1247.3884,-72.7931 1249.0927,-79.5824"/>
</g>
<!-- Node24 -->
<g id="node25" class="node">
<title>Node24</title>
<polygon fill="none" stroke="#bfbfbf" points="1327.5,-56.5 1327.5,-75.5 1371.5,-75.5 1371.5,-56.5 1327.5,-56.5"/>
<text text-anchor="middle" x="1349.5" y="-63.5" font-family="Helvetica,sans-Serif" font-size="10.00" fill="#000000">string</text>
</g>
<!-- Node13&#45;&gt;Node24 -->
<g id="edge28" class="edge">
<title>Node13&#45;&gt;Node24</title>
<path fill="none" stroke="#191970" d="M1101.2249,-113.7861C1157.4875,-106.5477 1238.2987,-94.5848 1317.1594,-76.04"/>
<polygon fill="#191970" stroke="#191970" points="1318.353,-79.3534 1327.2653,-73.6243 1316.7255,-72.5452 1318.353,-79.3534"/>
</g>
<!-- Node25 -->
<g id="node26" class="node">
<title>Node25</title>
<polygon fill="none" stroke="#bfbfbf" points="1389.5,-56.5 1389.5,-75.5 1447.5,-75.5 1447.5,-56.5 1389.5,-56.5"/>
<text text-anchor="middle" x="1418.5" y="-63.5" font-family="Helvetica,sans-Serif" font-size="10.00" fill="#000000">memory</text>
</g>
<!-- Node13&#45;&gt;Node25 -->
<g id="edge29" class="edge">
<title>Node13&#45;&gt;Node25</title>
<path fill="none" stroke="#191970" d="M1101.1209,-113.2056C1188.244,-102.2867 1330.0248,-84.2697 1378.9903,-75.9686"/>
<polygon fill="#191970" stroke="#191970" points="1379.9155,-79.3578 1389.1267,-74.1229 1378.6614,-72.471 1379.9155,-79.3578"/>
</g>
<!-- Node26&#45;&gt;Node19 -->
<g id="edge31" class="edge">
<title>Node26&#45;&gt;Node19</title>
<path fill="none" stroke="#191970" d="M1332.6767,-112.4756C1402.7054,-104.4289 1503.7925,-91.9277 1601.7986,-76.0189"/>
<polygon fill="#191970" stroke="#191970" points="1602.5808,-79.4375 1611.8839,-74.3678 1601.4498,-72.5295 1602.5808,-79.4375"/>
</g>
<!-- Node27&#45;&gt;Node15 -->
<g id="edge33" class="edge">
<title>Node27&#45;&gt;Node15</title>
<path fill="none" stroke="#191970" d="M825.5383,-112.4369C778.0787,-102.7724 704.7134,-87.8326 654.0777,-77.5213"/>
<polygon fill="#191970" stroke="#191970" points="654.7653,-74.0895 644.268,-75.5237 653.3685,-80.9488 654.7653,-74.0895"/>
</g>
<!-- Node34 -->
<g id="node35" class="node">
<title>Node34</title>
<polygon fill="none" stroke="#bfbfbf" points="2354.5,-112.5 2354.5,-131.5 2396.5,-131.5 2396.5,-112.5 2354.5,-112.5"/>
<text text-anchor="middle" x="2375.5" y="-119.5" font-family="Helvetica,sans-Serif" font-size="10.00" fill="#000000">array</text>
</g>
<!-- Node33&#45;&gt;Node34 -->
<g id="edge42" class="edge">
<title>Node33&#45;&gt;Node34</title>
<path fill="none" stroke="#191970" d="M2115.5423,-169.5116C2118.5729,-168.9972 2121.5776,-168.49 2124.5,-168 2219.4842,-152.0758 2247.1087,-155.558 2344.3655,-131.9755"/>
<polygon fill="#191970" stroke="#191970" points="2345.4433,-135.3148 2354.3181,-129.5279 2343.7715,-128.5174 2345.4433,-135.3148"/>
</g>
<!-- Node33&#45;&gt;Node35 -->
<g id="edge43" class="edge">
<title>Node33&#45;&gt;Node35</title>
<path fill="none" stroke="#191970" d="M2045.0991,-168.4277C2030.3002,-160.7 2011.3838,-148.4123 2000.5,-132 1991.4076,-118.2892 1988.0781,-99.7564 1986.9248,-85.8198"/>
<polygon fill="#191970" stroke="#191970" points="1990.4187,-85.6104 1986.3979,-75.8082 1983.4284,-85.9784 1990.4187,-85.6104"/>
</g>
<!-- Node36 -->
<g id="node37" class="node">
<title>Node36</title>
<g id="a_node37"><a xlink:href="../../df/d21/GPUCommonDef_8h.html" target="_top" xlink:title="GPUCommonDef.h">
<polygon fill="none" stroke="#000000" points="2244,-56.5 2244,-75.5 2351,-75.5 2351,-56.5 2244,-56.5"/>
<text text-anchor="middle" x="2297.5" y="-63.5" font-family="Helvetica,sans-Serif" font-size="10.00" fill="#000000">GPUCommonDef.h</text>
</a>
</g>
</g>
<!-- Node33&#45;&gt;Node36 -->
<g id="edge44" class="edge">
<title>Node33&#45;&gt;Node36</title>
<path fill="none" stroke="#191970" d="M2115.5236,-169.3941C2118.5589,-168.9088 2121.5696,-168.4401 2124.5,-168 2186.7566,-158.6496 2363.9087,-179.2596 2405.5,-132 2426.9554,-107.6205 2387.6419,-89.393 2350.5743,-78.3397"/>
<polygon fill="#191970" stroke="#191970" points="2351.3114,-74.9107 2340.7358,-75.5491 2349.4012,-81.6451 2351.3114,-74.9107"/>
</g>
<!-- Node39 -->
<g id="node40" class="node">
<title>Node39</title>
<g id="a_node40"><a xlink:href="../../d6/da2/GPUCommonMath_8h.html" target="_top" xlink:title="GPUCommonMath.h">
<polygon fill="none" stroke="#000000" points="2009,-112.5 2009,-131.5 2124,-131.5 2124,-112.5 2009,-112.5"/>
<text text-anchor="middle" x="2066.5" y="-119.5" font-family="Helvetica,sans-Serif" font-size="10.00" fill="#000000">GPUCommonMath.h</text>
</a>
</g>
</g>
<!-- Node33&#45;&gt;Node39 -->
<g id="edge47" class="edge">
<title>Node33&#45;&gt;Node39</title>
<path fill="none" stroke="#191970" d="M2066.5,-168.2455C2066.5,-160.9382 2066.5,-150.6944 2066.5,-141.7046"/>
<polygon fill="#191970" stroke="#191970" points="2070.0001,-141.6426 2066.5,-131.6427 2063.0001,-141.6427 2070.0001,-141.6426"/>
</g>
<!-- Node41 -->
<g id="node42" class="node">
<title>Node41</title>
<g id="a_node42"><a xlink:href="../../d6/d84/MathConstants_8h.html" target="_top" xlink:title="useful math constants ">
<polygon fill="none" stroke="#000000" points="2142.5,-112.5 2142.5,-131.5 2336.5,-131.5 2336.5,-112.5 2142.5,-112.5"/>
<text text-anchor="middle" x="2239.5" y="-119.5" font-family="Helvetica,sans-Serif" font-size="10.00" fill="#000000">CommonConstants/MathConstants.h</text>
</a>
</g>
</g>
<!-- Node33&#45;&gt;Node41 -->
<g id="edge51" class="edge">
<title>Node33&#45;&gt;Node41</title>
<path fill="none" stroke="#191970" d="M2096.2398,-168.3733C2125.007,-159.0613 2168.77,-144.8953 2200.3556,-134.671"/>
<polygon fill="#191970" stroke="#191970" points="2201.7122,-137.9107 2210.1483,-131.5011 2199.5564,-131.251 2201.7122,-137.9107"/>
</g>
<!-- Node37 -->
<g id="node38" class="node">
<title>Node37</title>
<g id="a_node38"><a xlink:href="../../d5/d93/GPUCommonDefSettings_8h.html" target="_top" xlink:title="GPUCommonDefSettings.h">
<polygon fill="none" stroke="#000000" points="2146.5,-.5 2146.5,-19.5 2294.5,-19.5 2294.5,-.5 2146.5,-.5"/>
<text text-anchor="middle" x="2220.5" y="-7.5" font-family="Helvetica,sans-Serif" font-size="10.00" fill="#000000">GPUCommonDefSettings.h</text>
</a>
</g>
</g>
<!-- Node36&#45;&gt;Node37 -->
<g id="edge45" class="edge">
<title>Node36&#45;&gt;Node37</title>
<path fill="none" stroke="#191970" d="M2284.0876,-56.2455C2272.4943,-47.814 2255.5252,-35.4729 2242.0322,-25.6598"/>
<polygon fill="#191970" stroke="#191970" points="2243.9047,-22.6938 2233.7587,-19.6427 2239.7874,-28.355 2243.9047,-22.6938"/>
</g>
<!-- Node38 -->
<g id="node39" class="node">
<title>Node38</title>
<g id="a_node39"><a xlink:href="../../da/d5a/GPUCommonDefAPI_8h.html" target="_top" xlink:title="GPUCommonDefAPI.h">
<polygon fill="none" stroke="#000000" points="2312.5,-.5 2312.5,-19.5 2436.5,-19.5 2436.5,-.5 2312.5,-.5"/>
<text text-anchor="middle" x="2374.5" y="-7.5" font-family="Helvetica,sans-Serif" font-size="10.00" fill="#000000">GPUCommonDefAPI.h</text>
</a>
</g>
</g>
<!-- Node36&#45;&gt;Node38 -->
<g id="edge46" class="edge">
<title>Node36&#45;&gt;Node38</title>
<path fill="none" stroke="#191970" d="M2310.9124,-56.2455C2322.5057,-47.814 2339.4748,-35.4729 2352.9678,-25.6598"/>
<polygon fill="#191970" stroke="#191970" points="2355.2126,-28.355 2361.2413,-19.6427 2351.0953,-22.6938 2355.2126,-28.355"/>
</g>
<!-- Node39&#45;&gt;Node35 -->
<g id="edge49" class="edge">
<title>Node39&#45;&gt;Node35</title>
<path fill="none" stroke="#191970" d="M2052.5651,-112.2455C2040.4053,-103.7337 2022.5536,-91.2375 2008.4715,-81.3801"/>
<polygon fill="#191970" stroke="#191970" points="2010.4747,-78.51 2000.2752,-75.6427 2006.4605,-84.2447 2010.4747,-78.51"/>
</g>
<!-- Node39&#45;&gt;Node36 -->
<g id="edge48" class="edge">
<title>Node39&#45;&gt;Node36</title>
<path fill="none" stroke="#191970" d="M2105.9478,-112.4369C2145.3156,-102.8932 2205.9034,-88.2052 2248.3708,-77.9101"/>
<polygon fill="#191970" stroke="#191970" points="2249.321,-81.2812 2258.2149,-75.5237 2247.6717,-74.4783 2249.321,-81.2812"/>
</g>
<!-- Node40 -->
<g id="node41" class="node">
<title>Node40</title>
<polygon fill="none" stroke="#bfbfbf" points="2034.5,-56.5 2034.5,-75.5 2098.5,-75.5 2098.5,-56.5 2034.5,-56.5"/>
<text text-anchor="middle" x="2066.5" y="-63.5" font-family="Helvetica,sans-Serif" font-size="10.00" fill="#000000">algorithm</text>
</g>
<!-- Node39&#45;&gt;Node40 -->
<g id="edge50" class="edge">
<title>Node39&#45;&gt;Node40</title>
<path fill="none" stroke="#191970" d="M2066.5,-112.2455C2066.5,-104.9382 2066.5,-94.6944 2066.5,-85.7046"/>
<polygon fill="#191970" stroke="#191970" points="2070.0001,-85.6426 2066.5,-75.6427 2063.0001,-85.6427 2070.0001,-85.6426"/>
</g>
</g>
</svg>
