<?xml version="1.0" encoding="UTF-8" standalone="no"?>
<!DOCTYPE svg PUBLIC "-//W3C//DTD SVG 1.1//EN"
 "http://www.w3.org/Graphics/SVG/1.1/DTD/svg11.dtd">
<!-- Generated by graphviz version 2.40.1 (20161225.0304)
 -->
<!-- Title: /home/travis/build/AliceO2Group/AliceO2/Detectors/MUON/MID/Raw/src/CRUBareDecoder.cxx Pages: 1 -->
<svg width="1285pt" height="352pt"
 viewBox="0.00 0.00 1284.73 352.00" xmlns="http://www.w3.org/2000/svg" xmlns:xlink="http://www.w3.org/1999/xlink">
<g id="graph0" class="graph" transform="scale(1 1) rotate(0) translate(4 348)">
<title>/home/travis/build/AliceO2Group/AliceO2/Detectors/MUON/MID/Raw/src/CRUBareDecoder.cxx</title>
<!-- Node0 -->
<g id="node1" class="node">
<title>Node0</title>
<polygon fill="#bfbfbf" stroke="#000000" points="197.2339,-291.5 197.2339,-343.5 343.2339,-343.5 343.2339,-291.5 197.2339,-291.5"/>
<text text-anchor="start" x="205.2339" y="-331.5" font-family="Helvetica,sans-Serif" font-size="10.00" fill="#000000">/home/travis/build</text>
<text text-anchor="start" x="205.2339" y="-320.5" font-family="Helvetica,sans-Serif" font-size="10.00" fill="#000000">/AliceO2Group/AliceO2</text>
<text text-anchor="start" x="205.2339" y="-309.5" font-family="Helvetica,sans-Serif" font-size="10.00" fill="#000000">/Detectors/MUON/MID/Raw</text>
<text text-anchor="middle" x="270.2339" y="-298.5" font-family="Helvetica,sans-Serif" font-size="10.00" fill="#000000">/src/CRUBareDecoder.cxx</text>
</g>
<!-- Node1 -->
<g id="node2" class="node">
<title>Node1</title>
<g id="a_node2"><a xlink:href="../../df/dcf/CRUBareDecoder_8h.html" target="_top" xlink:title="MID CRU core decoder. ">
<polygon fill="none" stroke="#000000" points="419.2339,-235.5 419.2339,-254.5 571.2339,-254.5 571.2339,-235.5 419.2339,-235.5"/>
<text text-anchor="middle" x="495.2339" y="-242.5" font-family="Helvetica,sans-Serif" font-size="10.00" fill="#000000">MIDRaw/CRUBareDecoder.h</text>
</a>
</g>
</g>
<!-- Node0&#45;&gt;Node1 -->
<g id="edge1" class="edge">
<title>Node0&#45;&gt;Node1</title>
<path fill="none" stroke="#191970" d="M343.285,-293.9613C380.7998,-281.8732 425.0157,-267.6259 456.0479,-257.6266"/>
<polygon fill="#191970" stroke="#191970" points="457.1902,-260.9358 465.6348,-254.5375 455.0433,-254.2732 457.1902,-260.9358"/>
</g>
<!-- Node20 -->
<g id="node21" class="node">
<title>Node20</title>
<g id="a_node21"><a xlink:href="../../d7/d1a/RawInfo_8h.html" target="_top" xlink:title="Raw data format MID. ">
<polygon fill="none" stroke="#000000" points="174.7339,-235.5 174.7339,-254.5 239.7339,-254.5 239.7339,-235.5 174.7339,-235.5"/>
<text text-anchor="middle" x="207.2339" y="-242.5" font-family="Helvetica,sans-Serif" font-size="10.00" fill="#000000">RawInfo.h</text>
</a>
</g>
</g>
<!-- Node0&#45;&gt;Node20 -->
<g id="edge31" class="edge">
<title>Node0&#45;&gt;Node20</title>
<path fill="none" stroke="#191970" d="M247.4895,-291.3258C239.0494,-281.613 229.6982,-270.8518 222.1346,-262.1476"/>
<polygon fill="#191970" stroke="#191970" points="224.7198,-259.7866 215.5187,-254.534 219.436,-264.3781 224.7198,-259.7866"/>
</g>
<!-- Node2 -->
<g id="node3" class="node">
<title>Node2</title>
<polygon fill="none" stroke="#bfbfbf" points="394.2339,-56.5 394.2339,-75.5 444.2339,-75.5 444.2339,-56.5 394.2339,-56.5"/>
<text text-anchor="middle" x="419.2339" y="-63.5" font-family="Helvetica,sans-Serif" font-size="10.00" fill="#000000">cstdint</text>
</g>
<!-- Node1&#45;&gt;Node2 -->
<g id="edge2" class="edge">
<title>Node1&#45;&gt;Node2</title>
<path fill="none" stroke="#191970" d="M419.0076,-243.0171C292.8905,-238.9415 52.063,-227.4863 26.2339,-199 -2.324,-167.5041 22.5518,-142.4925 72.2339,-112 123.9882,-80.2358 306.4117,-70.0318 383.9458,-67.0838"/>
<polygon fill="#191970" stroke="#191970" points="384.2985,-70.5734 394.1655,-66.7145 384.0456,-63.578 384.2985,-70.5734"/>
</g>
<!-- Node3 -->
<g id="node4" class="node">
<title>Node3</title>
<polygon fill="none" stroke="#bfbfbf" points="547.7339,-118 547.7339,-137 594.7339,-137 594.7339,-118 547.7339,-118"/>
<text text-anchor="middle" x="571.2339" y="-125" font-family="Helvetica,sans-Serif" font-size="10.00" fill="#000000">vector</text>
</g>
<!-- Node1&#45;&gt;Node3 -->
<g id="edge3" class="edge">
<title>Node1&#45;&gt;Node3</title>
<path fill="none" stroke="#191970" d="M550.6223,-235.4924C589.397,-227.5774 636.3176,-215.0259 648.2339,-199 665.3972,-175.9176 632.2074,-154.1449 604.1806,-140.8251"/>
<polygon fill="#191970" stroke="#191970" points="605.5069,-137.5835 594.9539,-136.6423 602.6166,-143.959 605.5069,-137.5835"/>
</g>
<!-- Node4 -->
<g id="node5" class="node">
<title>Node4</title>
<polygon fill="none" stroke="#bfbfbf" points="817.2339,-118 817.2339,-137 865.2339,-137 865.2339,-118 817.2339,-118"/>
<text text-anchor="middle" x="841.2339" y="-125" font-family="Helvetica,sans-Serif" font-size="10.00" fill="#000000">gsl/gsl</text>
</g>
<!-- Node1&#45;&gt;Node4 -->
<g id="edge4" class="edge">
<title>Node1&#45;&gt;Node4</title>
<path fill="none" stroke="#191970" d="M571.3968,-238.7105C662.1053,-230.5422 803.762,-215.3788 822.2339,-199 836.7574,-186.1223 840.7549,-163.5316 841.5927,-147.1836"/>
<polygon fill="#191970" stroke="#191970" points="845.0942,-147.1151 841.7585,-137.0591 838.0952,-147.0004 845.0942,-147.1151"/>
</g>
<!-- Node5 -->
<g id="node6" class="node">
<title>Node5</title>
<g id="a_node6"><a xlink:href="../../d2/df9/MUON_2MID_2include_2DataFormatsMID_2ROFRecord_8h.html" target="_top" xlink:title="Definition of the MID event record. ">
<polygon fill="none" stroke="#000000" points="879.7339,-179.5 879.7339,-198.5 1042.7339,-198.5 1042.7339,-179.5 879.7339,-179.5"/>
<text text-anchor="middle" x="961.2339" y="-186.5" font-family="Helvetica,sans-Serif" font-size="10.00" fill="#000000">DataFormatsMID/ROFRecord.h</text>
</a>
</g>
</g>
<!-- Node1&#45;&gt;Node5 -->
<g id="edge5" class="edge">
<title>Node1&#45;&gt;Node5</title>
<path fill="none" stroke="#191970" d="M571.4021,-235.8467C653.6898,-225.9581 784.6885,-210.2158 871.8056,-199.7468"/>
<polygon fill="#191970" stroke="#191970" points="872.4304,-203.1969 881.9414,-198.5287 871.5952,-196.2469 872.4304,-203.1969"/>
</g>
<!-- Node12 -->
<g id="node13" class="node">
<title>Node12</title>
<g id="a_node13"><a xlink:href="../../db/d83/CrateMapper_8h.html" target="_top" xlink:title="Mapper to convert the RO Ids to a format suitable for O2. ">
<polygon fill="none" stroke="#000000" points="35.2339,-179.5 35.2339,-198.5 165.2339,-198.5 165.2339,-179.5 35.2339,-179.5"/>
<text text-anchor="middle" x="100.2339" y="-186.5" font-family="Helvetica,sans-Serif" font-size="10.00" fill="#000000">MIDRaw/CrateMapper.h</text>
</a>
</g>
</g>
<!-- Node1&#45;&gt;Node12 -->
<g id="edge13" class="edge">
<title>Node1&#45;&gt;Node12</title>
<path fill="none" stroke="#191970" d="M427.7798,-235.4369C357.7011,-225.5017 248.2986,-209.9914 175.4666,-199.6659"/>
<polygon fill="#191970" stroke="#191970" points="175.8326,-196.1829 165.4403,-198.2444 174.8499,-203.1136 175.8326,-196.1829"/>
</g>
<!-- Node14 -->
<g id="node15" class="node">
<title>Node14</title>
<g id="a_node15"><a xlink:href="../../d2/da5/CrateParameters_8h.html" target="_top" xlink:title="MID RO crate parameters. ">
<polygon fill="none" stroke="#000000" points="183.2339,-179.5 183.2339,-198.5 333.2339,-198.5 333.2339,-179.5 183.2339,-179.5"/>
<text text-anchor="middle" x="258.2339" y="-186.5" font-family="Helvetica,sans-Serif" font-size="10.00" fill="#000000">MIDRaw/CrateParameters.h</text>
</a>
</g>
</g>
<!-- Node1&#45;&gt;Node14 -->
<g id="edge16" class="edge">
<title>Node1&#45;&gt;Node14</title>
<path fill="none" stroke="#191970" d="M454.7615,-235.4369C414.286,-225.8731 351.9473,-211.1432 308.3637,-200.845"/>
<polygon fill="#191970" stroke="#191970" points="309.0764,-197.4171 298.5395,-198.5237 307.4666,-204.2295 309.0764,-197.4171"/>
</g>
<!-- Node16 -->
<g id="node17" class="node">
<title>Node16</title>
<g id="a_node17"><a xlink:href="../../de/d54/ELinkDecoder_8h.html" target="_top" xlink:title="MID e&#45;link decoder. ">
<polygon fill="none" stroke="#000000" points="505.2339,-179.5 505.2339,-198.5 639.2339,-198.5 639.2339,-179.5 505.2339,-179.5"/>
<text text-anchor="middle" x="572.2339" y="-186.5" font-family="Helvetica,sans-Serif" font-size="10.00" fill="#000000">MIDRaw/ELinkDecoder.h</text>
</a>
</g>
</g>
<!-- Node1&#45;&gt;Node16 -->
<g id="edge19" class="edge">
<title>Node1&#45;&gt;Node16</title>
<path fill="none" stroke="#191970" d="M508.6463,-235.2455C520.2397,-226.814 537.2087,-214.4729 550.7018,-204.6598"/>
<polygon fill="#191970" stroke="#191970" points="552.9465,-207.355 558.9753,-198.6427 548.8293,-201.6938 552.9465,-207.355"/>
</g>
<!-- Node17 -->
<g id="node18" class="node">
<title>Node17</title>
<g id="a_node18"><a xlink:href="../../d3/d4a/LocalBoardRO_8h.html" target="_top" xlink:title="Structure to store the FEE local board information. ">
<polygon fill="none" stroke="#000000" points="351.2339,-179.5 351.2339,-198.5 487.2339,-198.5 487.2339,-179.5 351.2339,-179.5"/>
<text text-anchor="middle" x="419.2339" y="-186.5" font-family="Helvetica,sans-Serif" font-size="10.00" fill="#000000">MIDRaw/LocalBoardRO.h</text>
</a>
</g>
</g>
<!-- Node1&#45;&gt;Node17 -->
<g id="edge22" class="edge">
<title>Node1&#45;&gt;Node17</title>
<path fill="none" stroke="#191970" d="M481.9958,-235.2455C470.553,-226.814 453.8043,-214.4729 440.4865,-204.6598"/>
<polygon fill="#191970" stroke="#191970" points="442.4472,-201.757 432.3204,-198.6427 438.2948,-207.3924 442.4472,-201.757"/>
</g>
<!-- Node18 -->
<g id="node19" class="node">
<title>Node18</title>
<g id="a_node19"><a xlink:href="../../db/d21/MUON_2MID_2Raw_2include_2MIDRaw_2RawBuffer_8h.html" target="_top" xlink:title="Handler of the RAW buffer. ">
<polygon fill="none" stroke="#000000" points="695.2339,-179.5 695.2339,-198.5 813.2339,-198.5 813.2339,-179.5 695.2339,-179.5"/>
<text text-anchor="middle" x="754.2339" y="-186.5" font-family="Helvetica,sans-Serif" font-size="10.00" fill="#000000">MIDRaw/RawBuffer.h</text>
</a>
</g>
</g>
<!-- Node1&#45;&gt;Node18 -->
<g id="edge25" class="edge">
<title>Node1&#45;&gt;Node18</title>
<path fill="none" stroke="#191970" d="M539.4633,-235.4369C583.9754,-225.8127 652.683,-210.957 700.3508,-200.6504"/>
<polygon fill="#191970" stroke="#191970" points="701.1525,-204.058 710.187,-198.5237 699.6731,-197.2161 701.1525,-204.058"/>
</g>
<!-- Node6 -->
<g id="node7" class="node">
<title>Node6</title>
<g id="a_node7"><a xlink:href="../../d9/d80/InteractionRecord_8h.html" target="_top" xlink:title="CommonDataFormat/Interaction\lRecord.h">
<polygon fill="none" stroke="#000000" points="883.2339,-112.5 883.2339,-142.5 1057.2339,-142.5 1057.2339,-112.5 883.2339,-112.5"/>
<text text-anchor="start" x="891.2339" y="-130.5" font-family="Helvetica,sans-Serif" font-size="10.00" fill="#000000">CommonDataFormat/Interaction</text>
<text text-anchor="middle" x="970.2339" y="-119.5" font-family="Helvetica,sans-Serif" font-size="10.00" fill="#000000">Record.h</text>
</a>
</g>
</g>
<!-- Node5&#45;&gt;Node6 -->
<g id="edge6" class="edge">
<title>Node5&#45;&gt;Node6</title>
<path fill="none" stroke="#191970" d="M962.6402,-179.3906C963.6891,-172.2234 965.1725,-162.0862 966.5504,-152.671"/>
<polygon fill="#191970" stroke="#191970" points="970.0473,-152.946 968.0323,-142.5446 963.1211,-151.9324 970.0473,-152.946"/>
</g>
<!-- Node6&#45;&gt;Node2 -->
<g id="edge11" class="edge">
<title>Node6&#45;&gt;Node2</title>
<path fill="none" stroke="#191970" d="M883.1461,-113.2078C880.1408,-112.7883 877.1633,-112.3842 874.2339,-112 718.2247,-91.5376 531.085,-75.1894 454.5074,-68.8483"/>
<polygon fill="#191970" stroke="#191970" points="454.7039,-65.3528 444.4504,-68.0206 454.1296,-72.3292 454.7039,-65.3528"/>
</g>
<!-- Node7 -->
<g id="node8" class="node">
<title>Node7</title>
<g id="a_node8"><a xlink:href="../../d2/d45/GPUCommonRtypes_8h.html" target="_top" xlink:title="GPUCommonRtypes.h">
<polygon fill="none" stroke="#000000" points="1151.7339,-56.5 1151.7339,-75.5 1276.7339,-75.5 1276.7339,-56.5 1151.7339,-56.5"/>
<text text-anchor="middle" x="1214.2339" y="-63.5" font-family="Helvetica,sans-Serif" font-size="10.00" fill="#000000">GPUCommonRtypes.h</text>
</a>
</g>
</g>
<!-- Node6&#45;&gt;Node7 -->
<g id="edge7" class="edge">
<title>Node6&#45;&gt;Node7</title>
<path fill="none" stroke="#191970" d="M1029.9231,-112.4554C1071.885,-101.8789 1127.2906,-87.914 1166.361,-78.0663"/>
<polygon fill="#191970" stroke="#191970" points="1167.5813,-81.3683 1176.4226,-75.5303 1165.8704,-74.5806 1167.5813,-81.3683"/>
</g>
<!-- Node9 -->
<g id="node10" class="node">
<title>Node9</title>
<polygon fill="none" stroke="#bfbfbf" points="810.7339,-56.5 810.7339,-75.5 859.7339,-75.5 859.7339,-56.5 810.7339,-56.5"/>
<text text-anchor="middle" x="835.2339" y="-63.5" font-family="Helvetica,sans-Serif" font-size="10.00" fill="#000000">iosfwd</text>
</g>
<!-- Node6&#45;&gt;Node9 -->
<g id="edge9" class="edge">
<title>Node6&#45;&gt;Node9</title>
<path fill="none" stroke="#191970" d="M937.2092,-112.4554C915.2769,-102.464 886.7067,-89.4487 865.3887,-79.7372"/>
<polygon fill="#191970" stroke="#191970" points="866.7054,-76.4909 856.1542,-75.5303 863.8034,-82.8611 866.7054,-76.4909"/>
</g>
<!-- Node10 -->
<g id="node11" class="node">
<title>Node10</title>
<polygon fill="none" stroke="#bfbfbf" points="877.7339,-56.5 877.7339,-75.5 924.7339,-75.5 924.7339,-56.5 877.7339,-56.5"/>
<text text-anchor="middle" x="901.2339" y="-63.5" font-family="Helvetica,sans-Serif" font-size="10.00" fill="#000000">cmath</text>
</g>
<!-- Node6&#45;&gt;Node10 -->
<g id="edge10" class="edge">
<title>Node6&#45;&gt;Node10</title>
<path fill="none" stroke="#191970" d="M953.1778,-112.2977C943.101,-103.3163 930.3299,-91.9334 919.9728,-82.702"/>
<polygon fill="#191970" stroke="#191970" points="922.0757,-79.8879 912.2817,-75.8469 917.4181,-85.1135 922.0757,-79.8879"/>
</g>
<!-- Node11 -->
<g id="node12" class="node">
<title>Node11</title>
<g id="a_node12"><a xlink:href="../../d4/dc6/LHCConstants_8h.html" target="_top" xlink:title="Header to collect LHC related constants. ">
<polygon fill="none" stroke="#000000" points="943.2339,-56.5 943.2339,-75.5 1133.2339,-75.5 1133.2339,-56.5 943.2339,-56.5"/>
<text text-anchor="middle" x="1038.2339" y="-63.5" font-family="Helvetica,sans-Serif" font-size="10.00" fill="#000000">CommonConstants/LHCConstants.h</text>
</a>
</g>
</g>
<!-- Node6&#45;&gt;Node11 -->
<g id="edge12" class="edge">
<title>Node6&#45;&gt;Node11</title>
<path fill="none" stroke="#191970" d="M987.0429,-112.2977C996.9737,-103.3163 1009.5596,-91.9334 1019.7667,-82.702"/>
<polygon fill="#191970" stroke="#191970" points="1022.2773,-85.1505 1027.3463,-75.8469 1017.5819,-79.9588 1022.2773,-85.1505"/>
</g>
<!-- Node8 -->
<g id="node9" class="node">
<title>Node8</title>
<polygon fill="none" stroke="#bfbfbf" points="1184.7339,-.5 1184.7339,-19.5 1243.7339,-19.5 1243.7339,-.5 1184.7339,-.5"/>
<text text-anchor="middle" x="1214.2339" y="-7.5" font-family="Helvetica,sans-Serif" font-size="10.00" fill="#000000">Rtypes.h</text>
</g>
<!-- Node7&#45;&gt;Node8 -->
<g id="edge8" class="edge">
<title>Node7&#45;&gt;Node8</title>
<path fill="none" stroke="#191970" d="M1214.2339,-56.2455C1214.2339,-48.9382 1214.2339,-38.6944 1214.2339,-29.7046"/>
<polygon fill="#191970" stroke="#191970" points="1217.734,-29.6426 1214.2339,-19.6427 1210.734,-29.6427 1217.734,-29.6426"/>
</g>
<!-- Node12&#45;&gt;Node2 -->
<g id="edge14" class="edge">
<title>Node12&#45;&gt;Node2</title>
<path fill="none" stroke="#191970" d="M122.7907,-179.4108C158.0922,-164.4943 228.6314,-135.0525 289.2339,-112 321.3774,-99.773 358.38,-86.7841 384.6677,-77.7381"/>
<polygon fill="#191970" stroke="#191970" points="385.8618,-81.0288 394.1857,-74.4741 383.591,-74.4073 385.8618,-81.0288"/>
</g>
<!-- Node13 -->
<g id="node14" class="node">
<title>Node13</title>
<polygon fill="none" stroke="#bfbfbf" points="81.2339,-118 81.2339,-137 119.2339,-137 119.2339,-118 81.2339,-118"/>
<text text-anchor="middle" x="100.2339" y="-125" font-family="Helvetica,sans-Serif" font-size="10.00" fill="#000000">map</text>
</g>
<!-- Node12&#45;&gt;Node13 -->
<g id="edge15" class="edge">
<title>Node12&#45;&gt;Node13</title>
<path fill="none" stroke="#191970" d="M100.2339,-179.3906C100.2339,-170.8657 100.2339,-158.1392 100.2339,-147.4235"/>
<polygon fill="#191970" stroke="#191970" points="103.734,-147.2448 100.2339,-137.2449 96.734,-147.2449 103.734,-147.2448"/>
</g>
<!-- Node14&#45;&gt;Node2 -->
<g id="edge17" class="edge">
<title>Node14&#45;&gt;Node2</title>
<path fill="none" stroke="#191970" d="M264.5209,-179.3607C275.207,-163.5795 298.2938,-131.9894 324.2339,-112 342.4039,-97.9983 365.5192,-86.691 384.3989,-78.7909"/>
<polygon fill="#191970" stroke="#191970" points="385.8787,-81.9679 393.8371,-74.974 383.2543,-75.4785 385.8787,-81.9679"/>
</g>
<!-- Node15 -->
<g id="node16" class="node">
<title>Node15</title>
<polygon fill="none" stroke="#bfbfbf" points="333.2339,-118 333.2339,-137 375.2339,-137 375.2339,-118 333.2339,-118"/>
<text text-anchor="middle" x="354.2339" y="-125" font-family="Helvetica,sans-Serif" font-size="10.00" fill="#000000">array</text>
</g>
<!-- Node14&#45;&gt;Node15 -->
<g id="edge18" class="edge">
<title>Node14&#45;&gt;Node15</title>
<path fill="none" stroke="#191970" d="M273.2339,-179.3906C288.592,-169.5519 312.686,-154.1167 330.6085,-142.6351"/>
<polygon fill="#191970" stroke="#191970" points="332.8069,-145.3833 339.3393,-137.0419 329.0309,-139.4891 332.8069,-145.3833"/>
</g>
<!-- Node16&#45;&gt;Node2 -->
<g id="edge20" class="edge">
<title>Node16&#45;&gt;Node2</title>
<path fill="none" stroke="#191970" d="M560.2283,-179.3484C533.9734,-158.2415 471.233,-107.8032 439.0359,-81.9192"/>
<polygon fill="#191970" stroke="#191970" points="441.1706,-79.1446 431.1838,-75.6068 436.7846,-84.6002 441.1706,-79.1446"/>
</g>
<!-- Node16&#45;&gt;Node3 -->
<g id="edge21" class="edge">
<title>Node16&#45;&gt;Node3</title>
<path fill="none" stroke="#191970" d="M572.0777,-179.3906C571.9391,-170.8657 571.7321,-158.1392 571.5579,-147.4235"/>
<polygon fill="#191970" stroke="#191970" points="575.0546,-147.1866 571.3924,-137.2449 568.0555,-147.3005 575.0546,-147.1866"/>
</g>
<!-- Node17&#45;&gt;Node2 -->
<g id="edge23" class="edge">
<title>Node17&#45;&gt;Node2</title>
<path fill="none" stroke="#191970" d="M419.2339,-179.3484C419.2339,-159.2295 419.2339,-112.4608 419.2339,-85.7098"/>
<polygon fill="#191970" stroke="#191970" points="422.734,-85.6067 419.2339,-75.6068 415.734,-85.6068 422.734,-85.6067"/>
</g>
<!-- Node17&#45;&gt;Node15 -->
<g id="edge24" class="edge">
<title>Node17&#45;&gt;Node15</title>
<path fill="none" stroke="#191970" d="M409.0777,-179.3906C399.214,-170.0581 384.0284,-155.6902 372.1352,-144.4374"/>
<polygon fill="#191970" stroke="#191970" points="374.2028,-141.5753 364.5334,-137.2449 369.3919,-146.6601 374.2028,-141.5753"/>
</g>
<!-- Node18&#45;&gt;Node2 -->
<g id="edge26" class="edge">
<title>Node18&#45;&gt;Node2</title>
<path fill="none" stroke="#191970" d="M724.0959,-179.3493C700.8767,-171.279 668.4236,-158.5923 642.2339,-143 623.5059,-131.85 623.7254,-121.7543 604.2339,-112 555.538,-87.6305 493.0191,-75.5847 454.5598,-70.0878"/>
<polygon fill="#191970" stroke="#191970" points="454.7617,-66.5832 444.3818,-68.7062 453.8201,-73.5196 454.7617,-66.5832"/>
</g>
<!-- Node18&#45;&gt;Node3 -->
<g id="edge27" class="edge">
<title>Node18&#45;&gt;Node3</title>
<path fill="none" stroke="#191970" d="M721.4456,-179.4171C691.8915,-170.586 647.3537,-156.7959 609.2339,-143 607.3748,-142.3272 605.4722,-141.618 603.5574,-140.8884"/>
<polygon fill="#191970" stroke="#191970" points="604.6139,-137.5431 594.0267,-137.1427 602.0534,-144.058 604.6139,-137.5431"/>
</g>
<!-- Node18&#45;&gt;Node4 -->
<g id="edge28" class="edge">
<title>Node18&#45;&gt;Node4</title>
<path fill="none" stroke="#191970" d="M767.8277,-179.3906C781.6182,-169.6421 803.1811,-154.3994 819.3749,-142.9521"/>
<polygon fill="#191970" stroke="#191970" points="821.5902,-145.6723 827.7357,-137.0419 817.5495,-139.9563 821.5902,-145.6723"/>
</g>
<!-- Node19 -->
<g id="node20" class="node">
<title>Node19</title>
<g id="a_node20"><a xlink:href="../../d4/d78/DataFormats_2Headers_2include_2Headers_2RAWDataHeader_8h.html" target="_top" xlink:title="Headers/RAWDataHeader.h">
<polygon fill="none" stroke="#000000" points="650.7339,-118 650.7339,-137 799.7339,-137 799.7339,-118 650.7339,-118"/>
<text text-anchor="middle" x="725.2339" y="-125" font-family="Helvetica,sans-Serif" font-size="10.00" fill="#000000">Headers/RAWDataHeader.h</text>
</a>
</g>
</g>
<!-- Node18&#45;&gt;Node19 -->
<g id="edge29" class="edge">
<title>Node18&#45;&gt;Node19</title>
<path fill="none" stroke="#191970" d="M749.7027,-179.3906C745.5559,-170.5965 739.3007,-157.3312 734.153,-146.4145"/>
<polygon fill="#191970" stroke="#191970" points="737.2599,-144.7969 729.8291,-137.2449 730.9285,-147.7825 737.2599,-144.7969"/>
</g>
<!-- Node19&#45;&gt;Node2 -->
<g id="edge30" class="edge">
<title>Node19&#45;&gt;Node2</title>
<path fill="none" stroke="#191970" d="M677.7572,-117.9581C615.9362,-105.5333 509.3007,-84.1016 454.3009,-73.0478"/>
<polygon fill="#191970" stroke="#191970" points="454.8297,-69.5841 444.3361,-71.045 453.4504,-76.4469 454.8297,-69.5841"/>
</g>
<!-- Node20&#45;&gt;Node2 -->
<g id="edge32" class="edge">
<title>Node20&#45;&gt;Node2</title>
<path fill="none" stroke="#191970" d="M174.5931,-242.1533C124.2254,-237.0089 31.2602,-224.2704 11.2339,-199 -4.9806,-178.5394 -5.2143,-140.8402 27.2339,-112 53.6835,-88.4914 292.6856,-72.9705 383.9935,-67.8532"/>
<polygon fill="#191970" stroke="#191970" points="384.3303,-71.3401 394.1223,-67.2945 383.9446,-64.3507 384.3303,-71.3401"/>
</g>
</g>
</svg>
