<?xml version="1.0" encoding="UTF-8" standalone="no"?>
<!DOCTYPE svg PUBLIC "-//W3C//DTD SVG 1.1//EN"
 "http://www.w3.org/Graphics/SVG/1.1/DTD/svg11.dtd">
<!-- Generated by graphviz version 2.40.1 (20161225.0304)
 -->
<!-- Title: GPUCA_NAMESPACE::gpu::GPUTPCGMMergerResolve Pages: 1 -->
<!--zoomable 547 -->
<svg id="main" version="1.1" xmlns="http://www.w3.org/2000/svg" xmlns:xlink="http://www.w3.org/1999/xlink" xml:space="preserve" onload="init(evt)">
<style type="text/css"><![CDATA[
.edge:hover path { stroke: red; }
.edge:hover polygon { stroke: red; fill: red; }
]]></style>
<script type="text/javascript"><![CDATA[
var edges = document.getElementsByTagName('g');
if (edges && edges.length) {
  for (var i=0;i<edges.length;i++) {
    if (edges[i].id.substr(0,4)=='edge') {
      edges[i].setAttribute('class','edge');
    }
  }
}
]]></script>
        <defs>
                <circle id="rim" cx="0" cy="0" r="7"/>
                <circle id="rim2" cx="0" cy="0" r="3.5"/>
                <g id="zoomPlus">
                        <use xlink:href="#rim" fill="#404040">
                                <set attributeName="fill" to="#808080" begin="zoomplus.mouseover" end="zoomplus.mouseout"/>
                        </use>
                        <path d="M-4,0h8M0,-4v8" fill="none" stroke="white" stroke-width="1.5" pointer-events="none"/>
                </g>
                <g id="zoomMin">
                        <use xlink:href="#rim" fill="#404040">
                                <set attributeName="fill" to="#808080" begin="zoomminus.mouseover" end="zoomminus.mouseout"/>
                        </use>
                        <path d="M-4,0h8" fill="none" stroke="white" stroke-width="1.5" pointer-events="none"/>
                </g>
                <g id="dirArrow">
                        <path fill="none" stroke="white" stroke-width="1.5" d="M0,-3.0v7 M-2.5,-0.5L0,-3.0L2.5,-0.5"/>
                </g>
               <g id="resetDef">
                       <use xlink:href="#rim2" fill="#404040">
                               <set attributeName="fill" to="#808080" begin="reset.mouseover" end="reset.mouseout"/>
                       </use>
               </g>
        </defs>

<script type="text/javascript">
var viewWidth = 235;
var viewHeight = 547;
var sectionId = 'dynsection-1';
</script>
<script xlink:href="../../svgpan.js"/>
<svg id="graph" class="graph">
<g id="viewport">
<title>GPUCA_NAMESPACE::gpu::GPUTPCGMMergerResolve</title>
<!-- Node3 -->
<g id="node1" class="node">
<title>Node3</title>
<polygon fill="#bfbfbf" stroke="#000000" points="0,-.5 0,-79.5 150,-79.5 150,-.5 0,-.5"/>
<text text-anchor="start" x="8" y="-67.5" font-family="Helvetica,sans-Serif" font-size="10.00" fill="#000000">GPUCA_NAMESPACE::gpu</text>
<text text-anchor="middle" x="75" y="-56.5" font-family="Helvetica,sans-Serif" font-size="10.00" fill="#000000">::GPUTPCGMMergerResolve</text>
<polyline fill="none" stroke="#000000" points="0,-49.5 150,-49.5 "/>
<text text-anchor="middle" x="75" y="-37.5" font-family="Helvetica,sans-Serif" font-size="10.00" fill="#000000"> </text>
<polyline fill="none" stroke="#000000" points="0,-30.5 150,-30.5 "/>
<text text-anchor="start" x="8" y="-18.5" font-family="Helvetica,sans-Serif" font-size="10.00" fill="#000000">+ GPUd()</text>
<text text-anchor="start" x="8" y="-7.5" font-family="Helvetica,sans-Serif" font-size="10.00" fill="#000000">+ GPUsharedref()</text>
</g>
<!-- Node4 -->
<g id="node2" class="node">
<title>Node4</title>
<g id="a_node2"><a xlink:href="../../da/dd0/classGPUCA__NAMESPACE_1_1gpu_1_1GPUTPCGMMergerGeneral.html" target="_top" xlink:title="{GPUCA_NAMESPACE::gpu\l::GPUTPCGMMergerGeneral\n||+ GPUhdi()\l+ GPUhdi()\l}">
<polygon fill="none" stroke="#000000" points="77,-117.5 77,-196.5 227,-196.5 227,-117.5 77,-117.5"/>
<text text-anchor="start" x="85" y="-184.5" font-family="Helvetica,sans-Serif" font-size="10.00" fill="#000000">GPUCA_NAMESPACE::gpu</text>
<text text-anchor="middle" x="152" y="-173.5" font-family="Helvetica,sans-Serif" font-size="10.00" fill="#000000">::GPUTPCGMMergerGeneral</text>
<polyline fill="none" stroke="#000000" points="77,-166.5 227,-166.5 "/>
<text text-anchor="middle" x="152" y="-154.5" font-family="Helvetica,sans-Serif" font-size="10.00" fill="#000000"> </text>
<polyline fill="none" stroke="#000000" points="77,-147.5 227,-147.5 "/>
<text text-anchor="start" x="85" y="-135.5" font-family="Helvetica,sans-Serif" font-size="10.00" fill="#000000">+ GPUhdi()</text>
<text text-anchor="start" x="85" y="-124.5" font-family="Helvetica,sans-Serif" font-size="10.00" fill="#000000">+ GPUhdi()</text>
</a>
</g>
</g>
<!-- Node4&#45;&gt;Node3 -->
<g id="edge1" class="edge">
<title>Node4&#45;&gt;Node3</title>
<path fill="none" stroke="#191970" d="M120.3693,-108.9378C113.9414,-99.1707 107.2495,-89.0024 101.0418,-79.5701"/>
<polygon fill="none" stroke="#191970" points="117.5101,-110.9599 125.9313,-117.3891 123.3575,-107.1117 117.5101,-110.9599"/>
</g>
<!-- Node5 -->
<g id="node3" class="node">
<title>Node5</title>
<g id="a_node3"><a xlink:href="../../d3/d60/classGPUCA__NAMESPACE_1_1gpu_1_1GPUKernelTemplate.html" target="_top" xlink:title="{GPUCA_NAMESPACE::gpu\l::GPUKernelTemplate\n||+ GPUconstantref()\l+ GPUhdi()\l+ GPUhdi()\l+ GPUd()\l+ GPUsharedref()\l}">
<polygon fill="none" stroke="#000000" points="80,-299.5 80,-411.5 220,-411.5 220,-299.5 80,-299.5"/>
<text text-anchor="start" x="88" y="-399.5" font-family="Helvetica,sans-Serif" font-size="10.00" fill="#000000">GPUCA_NAMESPACE::gpu</text>
<text text-anchor="middle" x="150" y="-388.5" font-family="Helvetica,sans-Serif" font-size="10.00" fill="#000000">::GPUKernelTemplate</text>
<polyline fill="none" stroke="#000000" points="80,-381.5 220,-381.5 "/>
<text text-anchor="middle" x="150" y="-369.5" font-family="Helvetica,sans-Serif" font-size="10.00" fill="#000000"> </text>
<polyline fill="none" stroke="#000000" points="80,-362.5 220,-362.5 "/>
<text text-anchor="start" x="88" y="-350.5" font-family="Helvetica,sans-Serif" font-size="10.00" fill="#000000">+ GPUconstantref()</text>
<text text-anchor="start" x="88" y="-339.5" font-family="Helvetica,sans-Serif" font-size="10.00" fill="#000000">+ GPUhdi()</text>
<text text-anchor="start" x="88" y="-328.5" font-family="Helvetica,sans-Serif" font-size="10.00" fill="#000000">+ GPUhdi()</text>
<text text-anchor="start" x="88" y="-317.5" font-family="Helvetica,sans-Serif" font-size="10.00" fill="#000000">+ GPUd()</text>
<text text-anchor="start" x="88" y="-306.5" font-family="Helvetica,sans-Serif" font-size="10.00" fill="#000000">+ GPUsharedref()</text>
</a>
</g>
</g>
<!-- Node5&#45;&gt;Node4 -->
<g id="edge2" class="edge">
<title>Node5&#45;&gt;Node4</title>
<path fill="none" stroke="#191970" d="M150.668,-289.2018C150.9774,-258.4943 151.3346,-223.0397 151.6012,-196.5818"/>
<polygon fill="none" stroke="#191970" points="147.1661,-289.379 150.5651,-299.4138 154.1658,-289.4496 147.1661,-289.379"/>
</g>
<!-- Node6 -->
<g id="node4" class="node">
<title>Node6</title>
<polygon fill="none" stroke="#bfbfbf" points="43.5,-481.5 43.5,-538.5 72.5,-538.5 72.5,-481.5 43.5,-481.5"/>
<text text-anchor="middle" x="58" y="-526.5" font-family="Helvetica,sans-Serif" font-size="10.00" fill="#000000">int</text>
<polyline fill="none" stroke="#bfbfbf" points="43.5,-519.5 72.5,-519.5 "/>
<text text-anchor="middle" x="58" y="-507.5" font-family="Helvetica,sans-Serif" font-size="10.00" fill="#000000"> </text>
<polyline fill="none" stroke="#bfbfbf" points="43.5,-500.5 72.5,-500.5 "/>
<text text-anchor="middle" x="58" y="-488.5" font-family="Helvetica,sans-Serif" font-size="10.00" fill="#000000"> </text>
</g>
<!-- Node6&#45;&gt;Node3 -->
<g id="edge4" class="edge">
<title>Node6&#45;&gt;Node3</title>
<path fill="none" stroke="#404040" d="M53.8793,-481.4693C46.8581,-428.7492 34.1547,-312.5473 43,-215 46.8049,-173.0391 55.6413,-126.1058 63.0665,-91.4144"/>
<polygon fill="none" stroke="#404040" points="63.068,-91.4072 60.4374,-84.693 65.6234,-79.6824 68.2539,-86.3966 63.068,-91.4072"/>
<text text-anchor="middle" x="94.5" y="-273" font-family="Helvetica,sans-Serif" font-size="10.00" fill="#000000"> +iThread</text>
<text text-anchor="middle" x="94.5" y="-262" font-family="Helvetica,sans-Serif" font-size="10.00" fill="#000000">+iBlock</text>
<text text-anchor="middle" x="94.5" y="-251" font-family="Helvetica,sans-Serif" font-size="10.00" fill="#000000">+useOrigTrackParam</text>
<text text-anchor="middle" x="94.5" y="-240" font-family="Helvetica,sans-Serif" font-size="10.00" fill="#000000">+merger</text>
<text text-anchor="middle" x="94.5" y="-229" font-family="Helvetica,sans-Serif" font-size="10.00" fill="#000000">+mergeAll</text>
<text text-anchor="middle" x="94.5" y="-218" font-family="Helvetica,sans-Serif" font-size="10.00" fill="#000000">+nThreads</text>
</g>
<!-- Node6&#45;&gt;Node5 -->
<g id="edge3" class="edge">
<title>Node6&#45;&gt;Node5</title>
<path fill="none" stroke="#404040" d="M72.5777,-485.519C82.7691,-468.4041 96.9022,-444.6697 110.307,-422.1584"/>
<polygon fill="none" stroke="#404040" points="110.4628,-421.8966 110.0958,-414.6948 116.6024,-411.5861 116.9695,-418.7879 110.4628,-421.8966"/>
<text text-anchor="middle" x="131" y="-455" font-family="Helvetica,sans-Serif" font-size="10.00" fill="#000000"> +iThread</text>
<text text-anchor="middle" x="131" y="-444" font-family="Helvetica,sans-Serif" font-size="10.00" fill="#000000">+iBlock</text>
<text text-anchor="middle" x="131" y="-433" font-family="Helvetica,sans-Serif" font-size="10.00" fill="#000000">+nThreads</text>
</g>
</g>
</svg>
        <g id="navigator" transform="translate(0 0)" fill="#404254">
                <rect fill="#f2f5e9" fill-opacity="0.5" stroke="#606060" stroke-width=".5" x="0" y="0" width="60" height="60"/>
                <use id="zoomplus" xlink:href="#zoomPlus" x="17" y="9" onmousedown="handleZoom(evt,'in')"/>
                <use id="zoomminus" xlink:href="#zoomMin" x="42" y="9" onmousedown="handleZoom(evt,'out')"/>
                <use id="reset" xlink:href="#resetDef" x="30" y="36" onmousedown="handleReset()"/>
                <g id="arrowUp" xlink:href="#dirArrow" transform="translate(30 24)" onmousedown="handlePan(0,-1)">
                  <use xlink:href="#rim" fill="#404040">
                        <set attributeName="fill" to="#808080" begin="arrowUp.mouseover" end="arrowUp.mouseout"/>
                  </use>
                  <path fill="none" stroke="white" stroke-width="1.5" d="M0,-3.0v7 M-2.5,-0.5L0,-3.0L2.5,-0.5"/>
                </g>
                <g id="arrowRight" xlink:href="#dirArrow" transform="rotate(90) translate(36 -43)" onmousedown="handlePan(1,0)">
                  <use xlink:href="#rim" fill="#404040">
                        <set attributeName="fill" to="#808080" begin="arrowRight.mouseover" end="arrowRight.mouseout"/>
                  </use>
                  <path fill="none" stroke="white" stroke-width="1.5" d="M0,-3.0v7 M-2.5,-0.5L0,-3.0L2.5,-0.5"/>
                </g>
                <g id="arrowDown" xlink:href="#dirArrow" transform="rotate(180) translate(-30 -48)" onmousedown="handlePan(0,1)">
                  <use xlink:href="#rim" fill="#404040">
                        <set attributeName="fill" to="#808080" begin="arrowDown.mouseover" end="arrowDown.mouseout"/>
                  </use>
                  <path fill="none" stroke="white" stroke-width="1.5" d="M0,-3.0v7 M-2.5,-0.5L0,-3.0L2.5,-0.5"/>
                </g>
                <g id="arrowLeft" xlink:href="#dirArrow" transform="rotate(270) translate(-36 17)" onmousedown="handlePan(-1,0)">
                  <use xlink:href="#rim" fill="#404040">
                        <set attributeName="fill" to="#808080" begin="arrowLeft.mouseover" end="arrowLeft.mouseout"/>
                  </use>
                  <path fill="none" stroke="white" stroke-width="1.5" d="M0,-3.0v7 M-2.5,-0.5L0,-3.0L2.5,-0.5"/>
                </g>
        </g>
        <svg viewBox="0 0 15 15" width="100%" height="30px" preserveAspectRatio="xMaxYMin meet">
         <g id="arrow_out" transform="scale(0.3 0.3)">
          <a xlink:href="classGPUCA__NAMESPACE_1_1gpu_1_1GPUTPCGMMergerResolve__coll__graph_org.svg" target="_base">
           <rect id="button" ry="5" rx="5" y="6" x="6" height="38" width="38"
                fill="#f2f5e9" fill-opacity="0.5" stroke="#606060" stroke-width="1.0"/>
           <path id="arrow"
             d="M 11.500037,31.436501 C 11.940474,20.09759 22.043105,11.32322 32.158766,21.979434 L 37.068811,17.246167 C 37.068811,17.246167 37.088388,32 37.088388,32 L 22.160133,31.978069 C 22.160133,31.978069 26.997745,27.140456 26.997745,27.140456 C 18.528582,18.264221 13.291696,25.230495 11.500037,31.436501 z"
             style="fill:#404040;"/>
          </a>
         </g>
        </svg>
</svg>
