<?xml version="1.0" encoding="UTF-8" standalone="no"?>
<!DOCTYPE svg PUBLIC "-//W3C//DTD SVG 1.1//EN"
 "http://www.w3.org/Graphics/SVG/1.1/DTD/svg11.dtd">
<!-- Generated by graphviz version 2.40.1 (20161225.0304)
 -->
<!-- Title: /home/travis/build/AliceO2Group/AliceO2/Framework/Utils/include/DPLUtils/DPLRawParser.h Pages: 1 -->
<!--zoomable 150 -->
<svg id="main" version="1.1" xmlns="http://www.w3.org/2000/svg" xmlns:xlink="http://www.w3.org/1999/xlink" xml:space="preserve" onload="init(evt)">
<style type="text/css"><![CDATA[
.edge:hover path { stroke: red; }
.edge:hover polygon { stroke: red; fill: red; }
]]></style>
<script type="text/javascript"><![CDATA[
var edges = document.getElementsByTagName('g');
if (edges && edges.length) {
  for (var i=0;i<edges.length;i++) {
    if (edges[i].id.substr(0,4)=='edge') {
      edges[i].setAttribute('class','edge');
    }
  }
}
]]></script>
        <defs>
                <circle id="rim" cx="0" cy="0" r="7"/>
                <circle id="rim2" cx="0" cy="0" r="3.5"/>
                <g id="zoomPlus">
                        <use xlink:href="#rim" fill="#404040">
                                <set attributeName="fill" to="#808080" begin="zoomplus.mouseover" end="zoomplus.mouseout"/>
                        </use>
                        <path d="M-4,0h8M0,-4v8" fill="none" stroke="white" stroke-width="1.5" pointer-events="none"/>
                </g>
                <g id="zoomMin">
                        <use xlink:href="#rim" fill="#404040">
                                <set attributeName="fill" to="#808080" begin="zoomminus.mouseover" end="zoomminus.mouseout"/>
                        </use>
                        <path d="M-4,0h8" fill="none" stroke="white" stroke-width="1.5" pointer-events="none"/>
                </g>
                <g id="dirArrow">
                        <path fill="none" stroke="white" stroke-width="1.5" d="M0,-3.0v7 M-2.5,-0.5L0,-3.0L2.5,-0.5"/>
                </g>
               <g id="resetDef">
                       <use xlink:href="#rim2" fill="#404040">
                               <set attributeName="fill" to="#808080" begin="reset.mouseover" end="reset.mouseout"/>
                       </use>
               </g>
        </defs>

<script type="text/javascript">
var viewWidth = 1856;
var viewHeight = 150;
var sectionId = 'dynsection-1';
</script>
<script xlink:href="../../svgpan.js"/>
<svg id="graph" class="graph">
<g id="viewport">
<title>/home/travis/build/AliceO2Group/AliceO2/Framework/Utils/include/DPLUtils/DPLRawParser.h</title>
<!-- Node88 -->
<g id="node1" class="node">
<title>Node88</title>
<polygon fill="#bfbfbf" stroke="#000000" points="929,-89.5 929,-141.5 1070,-141.5 1070,-89.5 929,-89.5"/>
<text text-anchor="start" x="937" y="-129.5" font-family="Helvetica,sans-Serif" font-size="10.00" fill="#000000">/home/travis/build</text>
<text text-anchor="start" x="937" y="-118.5" font-family="Helvetica,sans-Serif" font-size="10.00" fill="#000000">/AliceO2Group/AliceO2</text>
<text text-anchor="start" x="937" y="-107.5" font-family="Helvetica,sans-Serif" font-size="10.00" fill="#000000">/Framework/Utils/include</text>
<text text-anchor="middle" x="999.5" y="-96.5" font-family="Helvetica,sans-Serif" font-size="10.00" fill="#000000">/DPLUtils/DPLRawParser.h</text>
</g>
<!-- Node89 -->
<g id="node2" class="node">
<title>Node89</title>
<g id="a_node2"><a xlink:href="../../dd/df6/RawPixelDecoder_8cxx.html" target="_top" xlink:title="Alpide pixel reader for raw data processing. ">
<polygon fill="none" stroke="#000000" points="0,-.5 0,-52.5 215,-52.5 215,-.5 0,-.5"/>
<text text-anchor="start" x="8" y="-40.5" font-family="Helvetica,sans-Serif" font-size="10.00" fill="#000000">/home/travis/build</text>
<text text-anchor="start" x="8" y="-29.5" font-family="Helvetica,sans-Serif" font-size="10.00" fill="#000000">/AliceO2Group/AliceO2</text>
<text text-anchor="start" x="8" y="-18.5" font-family="Helvetica,sans-Serif" font-size="10.00" fill="#000000">/Detectors/ITSMFT/common</text>
<text text-anchor="middle" x="107.5" y="-7.5" font-family="Helvetica,sans-Serif" font-size="10.00" fill="#000000">/reconstruction/src/RawPixelDecoder.cxx</text>
</a>
</g>
</g>
<!-- Node88&#45;&gt;Node89 -->
<g id="edge1" class="edge">
<title>Node88&#45;&gt;Node89</title>
<path fill="none" stroke="#191970" d="M918.5312,-112.7626C777.0435,-107.1358 475.909,-91.4094 224.5,-53 221.4118,-52.5282 218.2838,-52.0207 215.1313,-51.4833"/>
<polygon fill="#191970" stroke="#191970" points="918.721,-116.2726 928.8502,-113.1663 918.9947,-109.278 918.721,-116.2726"/>
</g>
<!-- Node90 -->
<g id="node3" class="node">
<title>Node90</title>
<g id="a_node3"><a xlink:href="../../db/dc9/cru-page-reader-workflow_8cxx.html" target="_top" xlink:title="This is an executable that reads a data file from disk and sends the individual CRU pages via DPL...">
<polygon fill="none" stroke="#000000" points="233.5,-.5 233.5,-52.5 415.5,-52.5 415.5,-.5 233.5,-.5"/>
<text text-anchor="start" x="241.5" y="-40.5" font-family="Helvetica,sans-Serif" font-size="10.00" fill="#000000">/home/travis/build</text>
<text text-anchor="start" x="241.5" y="-29.5" font-family="Helvetica,sans-Serif" font-size="10.00" fill="#000000">/AliceO2Group/AliceO2</text>
<text text-anchor="start" x="241.5" y="-18.5" font-family="Helvetica,sans-Serif" font-size="10.00" fill="#000000">/Detectors/MUON/MCH/Workflow</text>
<text text-anchor="middle" x="324.5" y="-7.5" font-family="Helvetica,sans-Serif" font-size="10.00" fill="#000000">/src/cru&#45;page&#45;reader&#45;workflow.cxx</text>
</a>
</g>
</g>
<!-- Node88&#45;&gt;Node90 -->
<g id="edge2" class="edge">
<title>Node88&#45;&gt;Node90</title>
<path fill="none" stroke="#191970" d="M918.4395,-110.5561C806.5963,-102.8582 598.9804,-85.41 424.5,-53 421.5864,-52.4588 418.6329,-51.8773 415.6569,-51.2629"/>
<polygon fill="#191970" stroke="#191970" points="918.4159,-114.0625 928.6303,-111.2487 918.8907,-107.0786 918.4159,-114.0625"/>
</g>
<!-- Node91 -->
<g id="node4" class="node">
<title>Node91</title>
<g id="a_node4"><a xlink:href="../../d0/d75/DataDecoderSpec_8cxx.html" target="_top" xlink:title="/home/travis/build\l/AliceO2Group/AliceO2\l/Detectors/MUON/MCH/Workflow\l/src/DataDecoderSpec.cxx">
<polygon fill="none" stroke="#000000" points="433.5,-.5 433.5,-52.5 607.5,-52.5 607.5,-.5 433.5,-.5"/>
<text text-anchor="start" x="441.5" y="-40.5" font-family="Helvetica,sans-Serif" font-size="10.00" fill="#000000">/home/travis/build</text>
<text text-anchor="start" x="441.5" y="-29.5" font-family="Helvetica,sans-Serif" font-size="10.00" fill="#000000">/AliceO2Group/AliceO2</text>
<text text-anchor="start" x="441.5" y="-18.5" font-family="Helvetica,sans-Serif" font-size="10.00" fill="#000000">/Detectors/MUON/MCH/Workflow</text>
<text text-anchor="middle" x="520.5" y="-7.5" font-family="Helvetica,sans-Serif" font-size="10.00" fill="#000000">/src/DataDecoderSpec.cxx</text>
</a>
</g>
</g>
<!-- Node88&#45;&gt;Node91 -->
<g id="edge3" class="edge">
<title>Node88&#45;&gt;Node91</title>
<path fill="none" stroke="#191970" d="M918.6108,-104.8782C840.7645,-94.0499 719.9539,-75.6511 616.5,-53 613.5443,-52.3528 610.544,-51.6703 607.5192,-50.9603"/>
<polygon fill="#191970" stroke="#191970" points="918.4459,-108.3886 928.8309,-106.2907 919.4042,-101.4546 918.4459,-108.3886"/>
</g>
<!-- Node92 -->
<g id="node5" class="node">
<title>Node92</title>
<g id="a_node5"><a xlink:href="../../dd/da0/digits-sink-workflow_8cxx.html" target="_top" xlink:title="This is an executable that dumps to a file on disk the digits received via DPL. ">
<polygon fill="none" stroke="#000000" points="625.5,-.5 625.5,-52.5 799.5,-52.5 799.5,-.5 625.5,-.5"/>
<text text-anchor="start" x="633.5" y="-40.5" font-family="Helvetica,sans-Serif" font-size="10.00" fill="#000000">/home/travis/build</text>
<text text-anchor="start" x="633.5" y="-29.5" font-family="Helvetica,sans-Serif" font-size="10.00" fill="#000000">/AliceO2Group/AliceO2</text>
<text text-anchor="start" x="633.5" y="-18.5" font-family="Helvetica,sans-Serif" font-size="10.00" fill="#000000">/Detectors/MUON/MCH/Workflow</text>
<text text-anchor="middle" x="712.5" y="-7.5" font-family="Helvetica,sans-Serif" font-size="10.00" fill="#000000">/src/digits&#45;sink&#45;workflow.cxx</text>
</a>
</g>
</g>
<!-- Node88&#45;&gt;Node92 -->
<g id="edge4" class="edge">
<title>Node88&#45;&gt;Node92</title>
<path fill="none" stroke="#191970" d="M919.3698,-90.6513C881.1167,-78.7888 835.3459,-64.5951 796.594,-52.5779"/>
<polygon fill="#191970" stroke="#191970" points="918.3363,-93.9951 928.9243,-93.6142 920.4097,-87.3092 918.3363,-93.9951"/>
</g>
<!-- Node93 -->
<g id="node6" class="node">
<title>Node93</title>
<g id="a_node6"><a xlink:href="../../db/d1c/file-to-digits-workflow_8cxx.html" target="_top" xlink:title="/home/travis/build\l/AliceO2Group/AliceO2\l/Detectors/MUON/MCH/Workflow\l/src/file&#45;to&#45;digits&#45;workflow.cxx">
<polygon fill="none" stroke="#000000" points="817.5,-.5 817.5,-52.5 991.5,-52.5 991.5,-.5 817.5,-.5"/>
<text text-anchor="start" x="825.5" y="-40.5" font-family="Helvetica,sans-Serif" font-size="10.00" fill="#000000">/home/travis/build</text>
<text text-anchor="start" x="825.5" y="-29.5" font-family="Helvetica,sans-Serif" font-size="10.00" fill="#000000">/AliceO2Group/AliceO2</text>
<text text-anchor="start" x="825.5" y="-18.5" font-family="Helvetica,sans-Serif" font-size="10.00" fill="#000000">/Detectors/MUON/MCH/Workflow</text>
<text text-anchor="middle" x="904.5" y="-7.5" font-family="Helvetica,sans-Serif" font-size="10.00" fill="#000000">/src/file&#45;to&#45;digits&#45;workflow.cxx</text>
</a>
</g>
</g>
<!-- Node88&#45;&gt;Node93 -->
<g id="edge5" class="edge">
<title>Node88&#45;&gt;Node93</title>
<path fill="none" stroke="#191970" d="M964.0505,-82.2894C953.5573,-72.459 942.2241,-61.8415 932.2893,-52.5341"/>
<polygon fill="#191970" stroke="#191970" points="961.82,-84.9958 971.5107,-89.2784 966.6058,-79.8873 961.82,-84.9958"/>
</g>
<!-- Node94 -->
<g id="node7" class="node">
<title>Node94</title>
<g id="a_node7"><a xlink:href="../../d1/dc9/RawDecoderSpec_8cxx.html" target="_top" xlink:title="Data processor spec for MID raw decoder device. ">
<polygon fill="none" stroke="#000000" points="1009.5,-.5 1009.5,-52.5 1179.5,-52.5 1179.5,-.5 1009.5,-.5"/>
<text text-anchor="start" x="1017.5" y="-40.5" font-family="Helvetica,sans-Serif" font-size="10.00" fill="#000000">/home/travis/build</text>
<text text-anchor="start" x="1017.5" y="-29.5" font-family="Helvetica,sans-Serif" font-size="10.00" fill="#000000">/AliceO2Group/AliceO2</text>
<text text-anchor="start" x="1017.5" y="-18.5" font-family="Helvetica,sans-Serif" font-size="10.00" fill="#000000">/Detectors/MUON/MID/Workflow</text>
<text text-anchor="middle" x="1094.5" y="-7.5" font-family="Helvetica,sans-Serif" font-size="10.00" fill="#000000">/src/RawDecoderSpec.cxx</text>
</a>
</g>
</g>
<!-- Node88&#45;&gt;Node94 -->
<g id="edge6" class="edge">
<title>Node88&#45;&gt;Node94</title>
<path fill="none" stroke="#191970" d="M1034.9495,-82.2894C1045.4427,-72.459 1056.7759,-61.8415 1066.7107,-52.5341"/>
<polygon fill="#191970" stroke="#191970" points="1032.3942,-79.8873 1027.4893,-89.2784 1037.18,-84.9958 1032.3942,-79.8873"/>
</g>
<!-- Node95 -->
<g id="node8" class="node">
<title>Node95</title>
<g id="a_node8"><a xlink:href="../../d3/d09/testRawReaderWriter_8cxx.html" target="_top" xlink:title="/home/travis/build\l/AliceO2Group/AliceO2\l/Detectors/Raw/test/testRawReader\lWriter.cxx">
<polygon fill="none" stroke="#000000" points="1198,-.5 1198,-52.5 1387,-52.5 1387,-.5 1198,-.5"/>
<text text-anchor="start" x="1206" y="-40.5" font-family="Helvetica,sans-Serif" font-size="10.00" fill="#000000">/home/travis/build</text>
<text text-anchor="start" x="1206" y="-29.5" font-family="Helvetica,sans-Serif" font-size="10.00" fill="#000000">/AliceO2Group/AliceO2</text>
<text text-anchor="start" x="1206" y="-18.5" font-family="Helvetica,sans-Serif" font-size="10.00" fill="#000000">/Detectors/Raw/test/testRawReader</text>
<text text-anchor="middle" x="1292.5" y="-7.5" font-family="Helvetica,sans-Serif" font-size="10.00" fill="#000000">Writer.cxx</text>
</a>
</g>
</g>
<!-- Node88&#45;&gt;Node95 -->
<g id="edge7" class="edge">
<title>Node88&#45;&gt;Node95</title>
<path fill="none" stroke="#191970" d="M1079.8906,-91.081C1119.3041,-79.109 1166.7956,-64.6833 1206.8868,-52.5054"/>
<polygon fill="#191970" stroke="#191970" points="1078.6047,-87.8136 1070.0537,-94.069 1080.6393,-94.5115 1078.6047,-87.8136"/>
</g>
<!-- Node96 -->
<g id="node9" class="node">
<title>Node96</title>
<g id="a_node9"><a xlink:href="../../da/d78/CATrackerSpec_8cxx.html" target="_top" xlink:title="Processor spec for running TPC CA tracking. ">
<polygon fill="none" stroke="#000000" points="1405.5,-.5 1405.5,-52.5 1541.5,-52.5 1541.5,-.5 1405.5,-.5"/>
<text text-anchor="start" x="1413.5" y="-40.5" font-family="Helvetica,sans-Serif" font-size="10.00" fill="#000000">/home/travis/build</text>
<text text-anchor="start" x="1413.5" y="-29.5" font-family="Helvetica,sans-Serif" font-size="10.00" fill="#000000">/AliceO2Group/AliceO2</text>
<text text-anchor="start" x="1413.5" y="-18.5" font-family="Helvetica,sans-Serif" font-size="10.00" fill="#000000">/Detectors/TPC/workflow</text>
<text text-anchor="middle" x="1473.5" y="-7.5" font-family="Helvetica,sans-Serif" font-size="10.00" fill="#000000">/src/CATrackerSpec.cxx</text>
</a>
</g>
</g>
<!-- Node88&#45;&gt;Node96 -->
<g id="edge8" class="edge">
<title>Node88&#45;&gt;Node96</title>
<path fill="none" stroke="#191970" d="M1080.2728,-106.9922C1161.0808,-97.4996 1288.5506,-79.8527 1396.5,-53 1399.3811,-52.2833 1402.3076,-51.5059 1405.2528,-50.6825"/>
<polygon fill="#191970" stroke="#191970" points="1079.6953,-103.5356 1070.1656,-108.1655 1080.5025,-110.489 1079.6953,-103.5356"/>
</g>
<!-- Node97 -->
<g id="node10" class="node">
<title>Node97</title>
<g id="a_node10"><a xlink:href="../../d4/d96/raw-parser_8cxx.html" target="_top" xlink:title="/home/travis/build\l/AliceO2Group/AliceO2\l/Framework/Utils/src/raw\l&#45;parser.cxx">
<polygon fill="none" stroke="#000000" points="1560,-.5 1560,-52.5 1697,-52.5 1697,-.5 1560,-.5"/>
<text text-anchor="start" x="1568" y="-40.5" font-family="Helvetica,sans-Serif" font-size="10.00" fill="#000000">/home/travis/build</text>
<text text-anchor="start" x="1568" y="-29.5" font-family="Helvetica,sans-Serif" font-size="10.00" fill="#000000">/AliceO2Group/AliceO2</text>
<text text-anchor="start" x="1568" y="-18.5" font-family="Helvetica,sans-Serif" font-size="10.00" fill="#000000">/Framework/Utils/src/raw</text>
<text text-anchor="middle" x="1628.5" y="-7.5" font-family="Helvetica,sans-Serif" font-size="10.00" fill="#000000">&#45;parser.cxx</text>
</a>
</g>
</g>
<!-- Node88&#45;&gt;Node97 -->
<g id="edge9" class="edge">
<title>Node88&#45;&gt;Node97</title>
<path fill="none" stroke="#191970" d="M1080.5125,-111.753C1188.7487,-105.5148 1385.9957,-89.8257 1550.5,-53 1553.5704,-52.3127 1556.6892,-51.5477 1559.8252,-50.7237"/>
<polygon fill="#191970" stroke="#191970" points="1080.1071,-108.2702 1070.32,-112.3276 1080.5012,-115.2591 1080.1071,-108.2702"/>
</g>
<!-- Node98 -->
<g id="node11" class="node">
<title>Node98</title>
<g id="a_node11"><a xlink:href="../../d0/d6f/test__DPLRawParser_8cxx.html" target="_top" xlink:title="/home/travis/build\l/AliceO2Group/AliceO2\l/Framework/Utils/test\l/test_DPLRawParser.cxx">
<polygon fill="none" stroke="#000000" points="1715,-.5 1715,-52.5 1848,-52.5 1848,-.5 1715,-.5"/>
<text text-anchor="start" x="1723" y="-40.5" font-family="Helvetica,sans-Serif" font-size="10.00" fill="#000000">/home/travis/build</text>
<text text-anchor="start" x="1723" y="-29.5" font-family="Helvetica,sans-Serif" font-size="10.00" fill="#000000">/AliceO2Group/AliceO2</text>
<text text-anchor="start" x="1723" y="-18.5" font-family="Helvetica,sans-Serif" font-size="10.00" fill="#000000">/Framework/Utils/test</text>
<text text-anchor="middle" x="1781.5" y="-7.5" font-family="Helvetica,sans-Serif" font-size="10.00" fill="#000000">/test_DPLRawParser.cxx</text>
</a>
</g>
</g>
<!-- Node88&#45;&gt;Node98 -->
<g id="edge10" class="edge">
<title>Node88&#45;&gt;Node98</title>
<path fill="none" stroke="#191970" d="M1080.2739,-110.9205C1239.5725,-101.4677 1588.9682,-78.5315 1706.5,-53 1709.199,-52.4137 1711.934,-51.7573 1714.683,-51.0452"/>
<polygon fill="#191970" stroke="#191970" points="1079.8369,-107.4401 1070.0606,-111.5235 1080.2495,-114.4279 1079.8369,-107.4401"/>
</g>
</g>
</svg>
        <g id="navigator" transform="translate(0 0)" fill="#404254">
                <rect fill="#f2f5e9" fill-opacity="0.5" stroke="#606060" stroke-width=".5" x="0" y="0" width="60" height="60"/>
                <use id="zoomplus" xlink:href="#zoomPlus" x="17" y="9" onmousedown="handleZoom(evt,'in')"/>
                <use id="zoomminus" xlink:href="#zoomMin" x="42" y="9" onmousedown="handleZoom(evt,'out')"/>
                <use id="reset" xlink:href="#resetDef" x="30" y="36" onmousedown="handleReset()"/>
                <g id="arrowUp" xlink:href="#dirArrow" transform="translate(30 24)" onmousedown="handlePan(0,-1)">
                  <use xlink:href="#rim" fill="#404040">
                        <set attributeName="fill" to="#808080" begin="arrowUp.mouseover" end="arrowUp.mouseout"/>
                  </use>
                  <path fill="none" stroke="white" stroke-width="1.5" d="M0,-3.0v7 M-2.5,-0.5L0,-3.0L2.5,-0.5"/>
                </g>
                <g id="arrowRight" xlink:href="#dirArrow" transform="rotate(90) translate(36 -43)" onmousedown="handlePan(1,0)">
                  <use xlink:href="#rim" fill="#404040">
                        <set attributeName="fill" to="#808080" begin="arrowRight.mouseover" end="arrowRight.mouseout"/>
                  </use>
                  <path fill="none" stroke="white" stroke-width="1.5" d="M0,-3.0v7 M-2.5,-0.5L0,-3.0L2.5,-0.5"/>
                </g>
                <g id="arrowDown" xlink:href="#dirArrow" transform="rotate(180) translate(-30 -48)" onmousedown="handlePan(0,1)">
                  <use xlink:href="#rim" fill="#404040">
                        <set attributeName="fill" to="#808080" begin="arrowDown.mouseover" end="arrowDown.mouseout"/>
                  </use>
                  <path fill="none" stroke="white" stroke-width="1.5" d="M0,-3.0v7 M-2.5,-0.5L0,-3.0L2.5,-0.5"/>
                </g>
                <g id="arrowLeft" xlink:href="#dirArrow" transform="rotate(270) translate(-36 17)" onmousedown="handlePan(-1,0)">
                  <use xlink:href="#rim" fill="#404040">
                        <set attributeName="fill" to="#808080" begin="arrowLeft.mouseover" end="arrowLeft.mouseout"/>
                  </use>
                  <path fill="none" stroke="white" stroke-width="1.5" d="M0,-3.0v7 M-2.5,-0.5L0,-3.0L2.5,-0.5"/>
                </g>
        </g>
        <svg viewBox="0 0 15 15" width="100%" height="30px" preserveAspectRatio="xMaxYMin meet">
         <g id="arrow_out" transform="scale(0.3 0.3)">
          <a xlink:href="DPLRawParser_8h__dep__incl_org.svg" target="_base">
           <rect id="button" ry="5" rx="5" y="6" x="6" height="38" width="38"
                fill="#f2f5e9" fill-opacity="0.5" stroke="#606060" stroke-width="1.0"/>
           <path id="arrow"
             d="M 11.500037,31.436501 C 11.940474,20.09759 22.043105,11.32322 32.158766,21.979434 L 37.068811,17.246167 C 37.068811,17.246167 37.088388,32 37.088388,32 L 22.160133,31.978069 C 22.160133,31.978069 26.997745,27.140456 26.997745,27.140456 C 18.528582,18.264221 13.291696,25.230495 11.500037,31.436501 z"
             style="fill:#404040;"/>
          </a>
         </g>
        </svg>
</svg>
