<?xml version="1.0" encoding="UTF-8" standalone="no"?>
<!DOCTYPE svg PUBLIC "-//W3C//DTD SVG 1.1//EN"
 "http://www.w3.org/Graphics/SVG/1.1/DTD/svg11.dtd">
<!-- Generated by graphviz version 2.40.1 (20161225.0304)
 -->
<!-- Title: /home/travis/build/AliceO2Group/AliceO2/Detectors/MUON/MCH/Raw/Encoder/Payload/testEncoder.cxx Pages: 1 -->
<!--zoomable 341 -->
<svg id="main" version="1.1" xmlns="http://www.w3.org/2000/svg" xmlns:xlink="http://www.w3.org/1999/xlink" xml:space="preserve" onload="init(evt)">
<style type="text/css"><![CDATA[
.edge:hover path { stroke: red; }
.edge:hover polygon { stroke: red; fill: red; }
]]></style>
<script type="text/javascript"><![CDATA[
var edges = document.getElementsByTagName('g');
if (edges && edges.length) {
  for (var i=0;i<edges.length;i++) {
    if (edges[i].id.substr(0,4)=='edge') {
      edges[i].setAttribute('class','edge');
    }
  }
}
]]></script>
        <defs>
                <circle id="rim" cx="0" cy="0" r="7"/>
                <circle id="rim2" cx="0" cy="0" r="3.5"/>
                <g id="zoomPlus">
                        <use xlink:href="#rim" fill="#404040">
                                <set attributeName="fill" to="#808080" begin="zoomplus.mouseover" end="zoomplus.mouseout"/>
                        </use>
                        <path d="M-4,0h8M0,-4v8" fill="none" stroke="white" stroke-width="1.5" pointer-events="none"/>
                </g>
                <g id="zoomMin">
                        <use xlink:href="#rim" fill="#404040">
                                <set attributeName="fill" to="#808080" begin="zoomminus.mouseover" end="zoomminus.mouseout"/>
                        </use>
                        <path d="M-4,0h8" fill="none" stroke="white" stroke-width="1.5" pointer-events="none"/>
                </g>
                <g id="dirArrow">
                        <path fill="none" stroke="white" stroke-width="1.5" d="M0,-3.0v7 M-2.5,-0.5L0,-3.0L2.5,-0.5"/>
                </g>
               <g id="resetDef">
                       <use xlink:href="#rim2" fill="#404040">
                               <set attributeName="fill" to="#808080" begin="reset.mouseover" end="reset.mouseout"/>
                       </use>
               </g>
        </defs>

<script type="text/javascript">
var viewWidth = 1834;
var viewHeight = 341;
var sectionId = 'dynsection-0';
</script>
<script xlink:href="../../svgpan.js"/>
<svg id="graph" class="graph">
<g id="viewport">
<title>/home/travis/build/AliceO2Group/AliceO2/Detectors/MUON/MCH/Raw/Encoder/Payload/testEncoder.cxx</title>
<!-- Node0 -->
<g id="node1" class="node">
<title>Node0</title>
<polygon fill="#bfbfbf" stroke="#000000" points="678,-280.5 678,-332.5 858,-332.5 858,-280.5 678,-280.5"/>
<text text-anchor="start" x="686" y="-320.5" font-family="Helvetica,sans-Serif" font-size="10.00" fill="#000000">/home/travis/build</text>
<text text-anchor="start" x="686" y="-309.5" font-family="Helvetica,sans-Serif" font-size="10.00" fill="#000000">/AliceO2Group/AliceO2</text>
<text text-anchor="start" x="686" y="-298.5" font-family="Helvetica,sans-Serif" font-size="10.00" fill="#000000">/Detectors/MUON/MCH/Raw</text>
<text text-anchor="middle" x="768" y="-287.5" font-family="Helvetica,sans-Serif" font-size="10.00" fill="#000000">/Encoder/Payload/testEncoder.cxx</text>
</g>
<!-- Node1 -->
<g id="node2" class="node">
<title>Node1</title>
<polygon fill="none" stroke="#bfbfbf" points="412,-224.5 412,-243.5 544,-243.5 544,-224.5 412,-224.5"/>
<text text-anchor="middle" x="478" y="-231.5" font-family="Helvetica,sans-Serif" font-size="10.00" fill="#000000">boost/test/unit_test.hpp</text>
</g>
<!-- Node0&#45;&gt;Node1 -->
<g id="edge1" class="edge">
<title>Node0&#45;&gt;Node1</title>
<path fill="none" stroke="#191970" d="M677.8319,-283.958C627.6031,-271.4008 567.0797,-256.2699 525.8958,-245.9739"/>
<polygon fill="#191970" stroke="#191970" points="526.67,-242.5599 516.1197,-243.5299 524.9722,-249.3509 526.67,-242.5599"/>
</g>
<!-- Node2 -->
<g id="node3" class="node">
<title>Node2</title>
<g id="a_node3"><a xlink:href="../../d8/d5a/Detectors_2MUON_2MCH_2Raw_2Encoder_2include_2MCHRawEncoder_2Encoder_8h.html" target="_top" xlink:title="MCHRawEncoder/Encoder.h">
<polygon fill="none" stroke="#000000" points="171.5,-168.5 171.5,-187.5 320.5,-187.5 320.5,-168.5 171.5,-168.5"/>
<text text-anchor="middle" x="246" y="-175.5" font-family="Helvetica,sans-Serif" font-size="10.00" fill="#000000">MCHRawEncoder/Encoder.h</text>
</a>
</g>
</g>
<!-- Node0&#45;&gt;Node2 -->
<g id="edge2" class="edge">
<title>Node0&#45;&gt;Node2</title>
<path fill="none" stroke="#191970" d="M686.418,-280.4612C656.0819,-270.0589 621.6088,-257.3749 591,-244 573.5115,-236.3582 571.1367,-229.942 553,-224 531.9916,-217.1171 411.7974,-200.1604 328.1915,-188.8707"/>
<polygon fill="#191970" stroke="#191970" points="328.5639,-185.3893 318.1861,-187.5231 327.6294,-192.3267 328.5639,-185.3893"/>
</g>
<!-- Node15 -->
<g id="node16" class="node">
<title>Node15</title>
<g id="a_node16"><a xlink:href="../../d0/d64/DataFormats_8h.html" target="_top" xlink:title="MCHRawCommon/DataFormats.h">
<polygon fill="none" stroke="#000000" points="616.5,-112.5 616.5,-131.5 795.5,-131.5 795.5,-112.5 616.5,-112.5"/>
<text text-anchor="middle" x="706" y="-119.5" font-family="Helvetica,sans-Serif" font-size="10.00" fill="#000000">MCHRawCommon/DataFormats.h</text>
</a>
</g>
</g>
<!-- Node0&#45;&gt;Node15 -->
<g id="edge16" class="edge">
<title>Node0&#45;&gt;Node15</title>
<path fill="none" stroke="#191970" d="M759.2484,-280.457C746.6583,-242.9913 723.7202,-174.732 712.5131,-141.3816"/>
<polygon fill="#191970" stroke="#191970" points="715.8177,-140.2276 709.3145,-131.8635 709.1823,-142.4575 715.8177,-140.2276"/>
</g>
<!-- Node16 -->
<g id="node17" class="node">
<title>Node16</title>
<g id="a_node17"><a xlink:href="../../d0/de5/DataBlock_8h.html" target="_top" xlink:title="MCHRawEncoder/DataBlock.h">
<polygon fill="none" stroke="#000000" points="1130.5,-112.5 1130.5,-131.5 1291.5,-131.5 1291.5,-112.5 1130.5,-112.5"/>
<text text-anchor="middle" x="1211" y="-119.5" font-family="Helvetica,sans-Serif" font-size="10.00" fill="#000000">MCHRawEncoder/DataBlock.h</text>
</a>
</g>
</g>
<!-- Node0&#45;&gt;Node16 -->
<g id="edge17" class="edge">
<title>Node0&#45;&gt;Node16</title>
<path fill="none" stroke="#191970" d="M858.0787,-290.617C965.4927,-270.0473 1136.5013,-231.6186 1184,-188 1197.2247,-175.8556 1204.1309,-156.2885 1207.6332,-141.6068"/>
<polygon fill="#191970" stroke="#191970" points="1211.1181,-142.0348 1209.6962,-131.5358 1204.2605,-140.63 1211.1181,-142.0348"/>
</g>
<!-- Node18 -->
<g id="node19" class="node">
<title>Node18</title>
<polygon fill="none" stroke="#bfbfbf" points="764.5,-224.5 764.5,-243.5 835.5,-243.5 835.5,-224.5 764.5,-224.5"/>
<text text-anchor="middle" x="800" y="-231.5" font-family="Helvetica,sans-Serif" font-size="10.00" fill="#000000">fmt/printf.h</text>
</g>
<!-- Node0&#45;&gt;Node18 -->
<g id="edge24" class="edge">
<title>Node0&#45;&gt;Node18</title>
<path fill="none" stroke="#191970" d="M779.5527,-280.3258C783.5746,-271.2138 788.0037,-261.179 791.7084,-252.7857"/>
<polygon fill="#191970" stroke="#191970" points="794.9558,-254.0958 795.7919,-243.534 788.5519,-251.2692 794.9558,-254.0958"/>
</g>
<!-- Node19 -->
<g id="node20" class="node">
<title>Node19</title>
<g id="a_node20"><a xlink:href="../../d1/d53/DumpBuffer_8h.html" target="_top" xlink:title="DumpBuffer.h">
<polygon fill="none" stroke="#000000" points="1092.5,-168.5 1092.5,-187.5 1175.5,-187.5 1175.5,-168.5 1092.5,-168.5"/>
<text text-anchor="middle" x="1134" y="-175.5" font-family="Helvetica,sans-Serif" font-size="10.00" fill="#000000">DumpBuffer.h</text>
</a>
</g>
</g>
<!-- Node0&#45;&gt;Node19 -->
<g id="edge25" class="edge">
<title>Node0&#45;&gt;Node19</title>
<path fill="none" stroke="#191970" d="M796.536,-280.4994C818.5675,-261.8726 850.6609,-237.7406 883,-224 885.3061,-223.0201 1009.8071,-200.4339 1082.5712,-187.2817"/>
<polygon fill="#191970" stroke="#191970" points="1083.2588,-190.7142 1092.477,-185.4917 1082.014,-183.8257 1083.2588,-190.7142"/>
</g>
<!-- Node28 -->
<g id="node29" class="node">
<title>Node28</title>
<polygon fill="none" stroke="#bfbfbf" points="892,-224.5 892,-243.5 996,-243.5 996,-224.5 892,-224.5"/>
<text text-anchor="middle" x="944" y="-231.5" font-family="Helvetica,sans-Serif" font-size="10.00" fill="#000000">boost/mpl/list.hpp</text>
</g>
<!-- Node0&#45;&gt;Node28 -->
<g id="edge48" class="edge">
<title>Node0&#45;&gt;Node28</title>
<path fill="none" stroke="#191970" d="M831.54,-280.3258C858.6435,-269.161 889.1097,-256.6111 911.4887,-247.3924"/>
<polygon fill="#191970" stroke="#191970" points="912.9423,-250.5791 920.8554,-243.534 910.276,-244.1067 912.9423,-250.5791"/>
</g>
<!-- Node29 -->
<g id="node30" class="node">
<title>Node29</title>
<g id="a_node30"><a xlink:href="../../d0/d37/CruBufferCreator_8h.html" target="_top" xlink:title="CruBufferCreator.h">
<polygon fill="none" stroke="#000000" points="600.5,-224.5 600.5,-243.5 707.5,-243.5 707.5,-224.5 600.5,-224.5"/>
<text text-anchor="middle" x="654" y="-231.5" font-family="Helvetica,sans-Serif" font-size="10.00" fill="#000000">CruBufferCreator.h</text>
</a>
</g>
</g>
<!-- Node0&#45;&gt;Node29 -->
<g id="edge49" class="edge">
<title>Node0&#45;&gt;Node29</title>
<path fill="none" stroke="#191970" d="M726.8434,-280.3258C710.3111,-269.8119 691.8473,-258.0696 677.6455,-249.0377"/>
<polygon fill="#191970" stroke="#191970" points="679.3078,-245.9471 668.9914,-243.534 675.5513,-251.8538 679.3078,-245.9471"/>
</g>
<!-- Node3 -->
<g id="node4" class="node">
<title>Node3</title>
<polygon fill="none" stroke="#bfbfbf" points="0,-112.5 0,-131.5 58,-131.5 58,-112.5 0,-112.5"/>
<text text-anchor="middle" x="29" y="-119.5" font-family="Helvetica,sans-Serif" font-size="10.00" fill="#000000">memory</text>
</g>
<!-- Node2&#45;&gt;Node3 -->
<g id="edge3" class="edge">
<title>Node2&#45;&gt;Node3</title>
<path fill="none" stroke="#191970" d="M208.6146,-168.4596C174.4424,-159.7242 122.2421,-146.3432 67.8577,-132.2134"/>
<polygon fill="#191970" stroke="#191970" points="68.6006,-128.7902 58.0416,-129.661 66.839,-135.5649 68.6006,-128.7902"/>
</g>
<!-- Node4 -->
<g id="node5" class="node">
<title>Node4</title>
<polygon fill="none" stroke="#bfbfbf" points="76,-112.5 76,-131.5 108,-131.5 108,-112.5 76,-112.5"/>
<text text-anchor="middle" x="92" y="-119.5" font-family="Helvetica,sans-Serif" font-size="10.00" fill="#000000">set</text>
</g>
<!-- Node2&#45;&gt;Node4 -->
<g id="edge4" class="edge">
<title>Node2&#45;&gt;Node4</title>
<path fill="none" stroke="#191970" d="M218.2084,-168.4321C193.9012,-159.9888 157.4475,-147.1467 117.498,-132.1005"/>
<polygon fill="#191970" stroke="#191970" points="118.6944,-128.8111 108.1029,-128.5454 116.2169,-135.3581 118.6944,-128.8111"/>
</g>
<!-- Node5 -->
<g id="node6" class="node">
<title>Node5</title>
<g id="a_node6"><a xlink:href="../../d4/d09/DsElecId_8h.html" target="_top" xlink:title="MCHRawElecMap/DsElecId.h">
<polygon fill="none" stroke="#000000" points="126.5,-112.5 126.5,-131.5 281.5,-131.5 281.5,-112.5 126.5,-112.5"/>
<text text-anchor="middle" x="204" y="-119.5" font-family="Helvetica,sans-Serif" font-size="10.00" fill="#000000">MCHRawElecMap/DsElecId.h</text>
</a>
</g>
</g>
<!-- Node2&#45;&gt;Node5 -->
<g id="edge5" class="edge">
<title>Node2&#45;&gt;Node5</title>
<path fill="none" stroke="#191970" d="M238.6842,-168.2455C232.7821,-160.3761 224.3258,-149.101 217.2406,-139.6542"/>
<polygon fill="#191970" stroke="#191970" points="220.0321,-137.5427 211.232,-131.6427 214.432,-141.7427 220.0321,-137.5427"/>
</g>
<!-- Node8 -->
<g id="node9" class="node">
<title>Node8</title>
<polygon fill="none" stroke="#bfbfbf" points="264,-56.5 264,-75.5 320,-75.5 320,-56.5 264,-56.5"/>
<text text-anchor="middle" x="292" y="-63.5" font-family="Helvetica,sans-Serif" font-size="10.00" fill="#000000">optional</text>
</g>
<!-- Node2&#45;&gt;Node8 -->
<g id="edge15" class="edge">
<title>Node2&#45;&gt;Node8</title>
<path fill="none" stroke="#191970" d="M259.5112,-168.4014C269.9614,-160.1029 283.6799,-147.0855 290,-132 296.0908,-117.4619 296.2157,-99.5008 295.0263,-85.9878"/>
<polygon fill="#191970" stroke="#191970" points="298.4778,-85.372 293.8202,-75.8558 291.5269,-86.1995 298.4778,-85.372"/>
</g>
<!-- Node9 -->
<g id="node10" class="node">
<title>Node9</title>
<g id="a_node10"><a xlink:href="../../d0/d5b/SampaCluster_8h.html" target="_top" xlink:title="MCHRawCommon/SampaCluster.h">
<polygon fill="none" stroke="#000000" points="414,-112.5 414,-131.5 598,-131.5 598,-112.5 414,-112.5"/>
<text text-anchor="middle" x="506" y="-119.5" font-family="Helvetica,sans-Serif" font-size="10.00" fill="#000000">MCHRawCommon/SampaCluster.h</text>
</a>
</g>
</g>
<!-- Node2&#45;&gt;Node9 -->
<g id="edge9" class="edge">
<title>Node2&#45;&gt;Node9</title>
<path fill="none" stroke="#191970" d="M290.4002,-168.4369C335.0841,-158.8127 404.057,-143.957 451.9088,-133.6504"/>
<polygon fill="#191970" stroke="#191970" points="452.7441,-137.0508 461.783,-131.5237 451.2702,-130.2078 452.7441,-137.0508"/>
</g>
<!-- Node14 -->
<g id="node15" class="node">
<title>Node14</title>
<polygon fill="none" stroke="#bfbfbf" points="1180.5,-56.5 1180.5,-75.5 1245.5,-75.5 1245.5,-56.5 1180.5,-56.5"/>
<text text-anchor="middle" x="1213" y="-63.5" font-family="Helvetica,sans-Serif" font-size="10.00" fill="#000000">functional</text>
</g>
<!-- Node2&#45;&gt;Node14 -->
<g id="edge14" class="edge">
<title>Node2&#45;&gt;Node14</title>
<path fill="none" stroke="#191970" d="M320.7791,-177.5397C555.9817,-175.7291 1267.1652,-167.3422 1301,-132 1321.2862,-110.81 1285.5436,-91.2866 1253.707,-79.0592"/>
<polygon fill="#191970" stroke="#191970" points="1254.612,-75.6632 1244.0184,-75.5049 1252.2011,-82.2349 1254.612,-75.6632"/>
</g>
<!-- Node6 -->
<g id="node7" class="node">
<title>Node6</title>
<polygon fill="none" stroke="#bfbfbf" points="1343,-.5 1343,-19.5 1393,-19.5 1393,-.5 1343,-.5"/>
<text text-anchor="middle" x="1368" y="-7.5" font-family="Helvetica,sans-Serif" font-size="10.00" fill="#000000">cstdint</text>
</g>
<!-- Node5&#45;&gt;Node6 -->
<g id="edge6" class="edge">
<title>Node5&#45;&gt;Node6</title>
<path fill="none" stroke="#191970" d="M208.2166,-112.1781C215.3395,-96.9781 231.331,-68.2354 255,-56 303.9534,-30.6941 1148.2526,-13.9816 1332.6262,-10.624"/>
<polygon fill="#191970" stroke="#191970" points="1332.9124,-14.1195 1342.8475,-10.4392 1332.7858,-7.1206 1332.9124,-14.1195"/>
</g>
<!-- Node7 -->
<g id="node8" class="node">
<title>Node7</title>
<polygon fill="none" stroke="#bfbfbf" points="158.5,-56.5 158.5,-75.5 207.5,-75.5 207.5,-56.5 158.5,-56.5"/>
<text text-anchor="middle" x="183" y="-63.5" font-family="Helvetica,sans-Serif" font-size="10.00" fill="#000000">iosfwd</text>
</g>
<!-- Node5&#45;&gt;Node7 -->
<g id="edge7" class="edge">
<title>Node5&#45;&gt;Node7</title>
<path fill="none" stroke="#191970" d="M200.3421,-112.2455C197.5416,-104.7776 193.591,-94.2427 190.1676,-85.1137"/>
<polygon fill="#191970" stroke="#191970" points="193.4045,-83.777 186.616,-75.6427 186.8501,-86.2349 193.4045,-83.777"/>
</g>
<!-- Node5&#45;&gt;Node8 -->
<g id="edge8" class="edge">
<title>Node5&#45;&gt;Node8</title>
<path fill="none" stroke="#191970" d="M219.3284,-112.2455C232.8303,-103.6534 252.7122,-91.0014 268.2686,-81.1018"/>
<polygon fill="#191970" stroke="#191970" points="270.2897,-83.9643 276.8472,-75.6427 266.5315,-78.0587 270.2897,-83.9643"/>
</g>
<!-- Node10 -->
<g id="node11" class="node">
<title>Node10</title>
<polygon fill="none" stroke="#bfbfbf" points="700.5,-56.5 700.5,-75.5 749.5,-75.5 749.5,-56.5 700.5,-56.5"/>
<text text-anchor="middle" x="725" y="-63.5" font-family="Helvetica,sans-Serif" font-size="10.00" fill="#000000">cstdlib</text>
</g>
<!-- Node9&#45;&gt;Node10 -->
<g id="edge10" class="edge">
<title>Node9&#45;&gt;Node10</title>
<path fill="none" stroke="#191970" d="M543.6474,-112.3733C584.9358,-101.8155 650.6262,-85.0179 690.5851,-74.8002"/>
<polygon fill="#191970" stroke="#191970" points="691.581,-78.1582 700.4021,-72.2899 689.8468,-71.3764 691.581,-78.1582"/>
</g>
<!-- Node11 -->
<g id="node12" class="node">
<title>Node11</title>
<polygon fill="none" stroke="#bfbfbf" points="1076.5,-56.5 1076.5,-75.5 1123.5,-75.5 1123.5,-56.5 1076.5,-56.5"/>
<text text-anchor="middle" x="1100" y="-63.5" font-family="Helvetica,sans-Serif" font-size="10.00" fill="#000000">vector</text>
</g>
<!-- Node9&#45;&gt;Node11 -->
<g id="edge11" class="edge">
<title>Node9&#45;&gt;Node11</title>
<path fill="none" stroke="#191970" d="M598.1913,-112.7945C601.1618,-112.5227 604.104,-112.2572 607,-112 810.3832,-93.9402 864.0561,-112.2275 1065,-76 1065.4664,-75.9159 1065.9356,-75.8282 1066.4069,-75.737"/>
<polygon fill="#191970" stroke="#191970" points="1067.4707,-79.0837 1076.4287,-73.4265 1065.898,-72.2626 1067.4707,-79.0837"/>
</g>
<!-- Node12 -->
<g id="node13" class="node">
<title>Node12</title>
<polygon fill="none" stroke="#bfbfbf" points="996,-56.5 996,-75.5 1056,-75.5 1056,-56.5 996,-56.5"/>
<text text-anchor="middle" x="1026" y="-63.5" font-family="Helvetica,sans-Serif" font-size="10.00" fill="#000000">iostream</text>
</g>
<!-- Node9&#45;&gt;Node12 -->
<g id="edge12" class="edge">
<title>Node9&#45;&gt;Node12</title>
<path fill="none" stroke="#191970" d="M594.5055,-112.4686C708.6359,-100.1777 902.3476,-79.3164 985.7947,-70.3298"/>
<polygon fill="#191970" stroke="#191970" points="986.3141,-73.7942 995.8818,-69.2435 985.5645,-66.8344 986.3141,-73.7942"/>
</g>
<!-- Node13 -->
<g id="node14" class="node">
<title>Node13</title>
<polygon fill="none" stroke="#bfbfbf" points="421.5,-56.5 421.5,-75.5 500.5,-75.5 500.5,-56.5 421.5,-56.5"/>
<text text-anchor="middle" x="461" y="-63.5" font-family="Helvetica,sans-Serif" font-size="10.00" fill="#000000">fmt/format.h</text>
</g>
<!-- Node9&#45;&gt;Node13 -->
<g id="edge13" class="edge">
<title>Node9&#45;&gt;Node13</title>
<path fill="none" stroke="#191970" d="M498.1616,-112.2455C491.838,-104.3761 482.7776,-93.101 475.1864,-83.6542"/>
<polygon fill="#191970" stroke="#191970" points="477.7408,-81.2454 468.7486,-75.6427 472.2842,-85.6302 477.7408,-81.2454"/>
</g>
<!-- Node16&#45;&gt;Node6 -->
<g id="edge18" class="edge">
<title>Node16&#45;&gt;Node6</title>
<path fill="none" stroke="#191970" d="M1197.7123,-112.3312C1181.0244,-99.017 1156.2601,-74.5782 1171,-56 1190.8096,-31.0319 1281.5499,-18.3457 1332.6886,-13.0764"/>
<polygon fill="#191970" stroke="#191970" points="1333.0506,-16.5577 1342.6579,-12.0913 1332.3622,-9.5916 1333.0506,-16.5577"/>
</g>
<!-- Node16&#45;&gt;Node8 -->
<g id="edge23" class="edge">
<title>Node16&#45;&gt;Node8</title>
<path fill="none" stroke="#191970" d="M1130.4348,-118.0459C986.2644,-110.8176 674.6499,-94.5013 412,-76 384.6928,-74.0765 353.9247,-71.5043 330.3807,-69.4504"/>
<polygon fill="#191970" stroke="#191970" points="330.3781,-65.9368 320.11,-68.5474 329.765,-72.9099 330.3781,-65.9368"/>
</g>
<!-- Node16&#45;&gt;Node11 -->
<g id="edge19" class="edge">
<title>Node16&#45;&gt;Node11</title>
<path fill="none" stroke="#191970" d="M1191.9184,-112.3733C1174.2598,-103.4644 1147.7947,-90.1127 1127.7902,-80.0203"/>
<polygon fill="#191970" stroke="#191970" points="1129.3372,-76.8806 1118.8326,-75.5011 1126.1842,-83.1303 1129.3372,-76.8806"/>
</g>
<!-- Node16&#45;&gt;Node12 -->
<g id="edge22" class="edge">
<title>Node16&#45;&gt;Node12</title>
<path fill="none" stroke="#191970" d="M1179.1974,-112.3733C1147.7922,-102.8668 1099.6744,-88.3015 1065.7608,-78.0357"/>
<polygon fill="#191970" stroke="#191970" points="1066.7478,-74.6777 1056.1626,-75.1303 1064.7197,-81.3775 1066.7478,-74.6777"/>
</g>
<!-- Node16&#45;&gt;Node14 -->
<g id="edge21" class="edge">
<title>Node16&#45;&gt;Node14</title>
<path fill="none" stroke="#191970" d="M1211.3484,-112.2455C1211.6093,-104.9382 1211.9752,-94.6944 1212.2963,-85.7046"/>
<polygon fill="#191970" stroke="#191970" points="1215.7964,-85.7613 1212.6556,-75.6427 1208.8008,-85.5113 1215.7964,-85.7613"/>
</g>
<!-- Node17 -->
<g id="node18" class="node">
<title>Node17</title>
<polygon fill="none" stroke="#bfbfbf" points="1263.5,-56.5 1263.5,-75.5 1320.5,-75.5 1320.5,-56.5 1263.5,-56.5"/>
<text text-anchor="middle" x="1292" y="-63.5" font-family="Helvetica,sans-Serif" font-size="10.00" fill="#000000">gsl/span</text>
</g>
<!-- Node16&#45;&gt;Node17 -->
<g id="edge20" class="edge">
<title>Node16&#45;&gt;Node17</title>
<path fill="none" stroke="#191970" d="M1225.1091,-112.2455C1237.4209,-103.7337 1255.4958,-91.2375 1269.7538,-81.3801"/>
<polygon fill="#191970" stroke="#191970" points="1271.8174,-84.2085 1278.0526,-75.6427 1267.8366,-78.4506 1271.8174,-84.2085"/>
</g>
<!-- Node19&#45;&gt;Node11 -->
<g id="edge29" class="edge">
<title>Node19&#45;&gt;Node11</title>
<path fill="none" stroke="#191970" d="M1131.1012,-168.4509C1125.5308,-150.1013 1113.2329,-109.5908 1105.88,-85.3693"/>
<polygon fill="#191970" stroke="#191970" points="1109.1455,-84.077 1102.8915,-75.5249 1102.4473,-86.1104 1109.1455,-84.077"/>
</g>
<!-- Node19&#45;&gt;Node12 -->
<g id="edge27" class="edge">
<title>Node19&#45;&gt;Node12</title>
<path fill="none" stroke="#191970" d="M1124.792,-168.4509C1106.4601,-149.4401 1065.1908,-106.6423 1042.2155,-82.816"/>
<polygon fill="#191970" stroke="#191970" points="1044.6456,-80.2939 1035.1847,-75.5249 1039.6066,-85.1528 1044.6456,-80.2939"/>
</g>
<!-- Node19&#45;&gt;Node13 -->
<g id="edge28" class="edge">
<title>Node19&#45;&gt;Node13</title>
<path fill="none" stroke="#191970" d="M1092.4046,-176.9326C941.2501,-172.8544 428.667,-157.2075 405,-132 389.0892,-115.0536 412.853,-94.4892 434.1541,-80.8666"/>
<polygon fill="#191970" stroke="#191970" points="435.9866,-83.8486 442.7081,-75.6588 432.3465,-77.8695 435.9866,-83.8486"/>
</g>
<!-- Node19&#45;&gt;Node15 -->
<g id="edge47" class="edge">
<title>Node19&#45;&gt;Node15</title>
<path fill="none" stroke="#191970" d="M1092.1823,-172.5285C1022.1345,-163.3634 879.834,-144.7446 788.9039,-132.8472"/>
<polygon fill="#191970" stroke="#191970" points="789.2704,-129.3654 778.9008,-131.5384 788.3622,-136.3063 789.2704,-129.3654"/>
</g>
<!-- Node19&#45;&gt;Node17 -->
<g id="edge26" class="edge">
<title>Node19&#45;&gt;Node17</title>
<path fill="none" stroke="#191970" d="M1175.5009,-173.781C1246.8711,-166.1044 1386.6238,-149.0647 1401,-132 1406.727,-125.2019 1405.9138,-119.4072 1401,-112 1392.6713,-99.4452 1358.093,-86.1734 1330.0854,-77.1294"/>
<polygon fill="#191970" stroke="#191970" points="1331.0961,-73.7783 1320.5066,-74.1148 1328.9947,-80.4554 1331.0961,-73.7783"/>
</g>
<!-- Node20 -->
<g id="node21" class="node">
<title>Node20</title>
<g id="a_node21"><a xlink:href="../../d5/d49/SampaHeader_8h.html" target="_top" xlink:title="MCHRawCommon/SampaHeader.h">
<polygon fill="none" stroke="#000000" points="813.5,-112.5 813.5,-131.5 998.5,-131.5 998.5,-112.5 813.5,-112.5"/>
<text text-anchor="middle" x="906" y="-119.5" font-family="Helvetica,sans-Serif" font-size="10.00" fill="#000000">MCHRawCommon/SampaHeader.h</text>
</a>
</g>
</g>
<!-- Node19&#45;&gt;Node20 -->
<g id="edge30" class="edge">
<title>Node19&#45;&gt;Node20</title>
<path fill="none" stroke="#191970" d="M1095.0645,-168.4369C1056.208,-158.8932 996.407,-144.2052 954.4911,-133.9101"/>
<polygon fill="#191970" stroke="#191970" points="955.3212,-130.51 944.7749,-131.5237 953.6514,-137.308 955.3212,-130.51"/>
</g>
<!-- Node21 -->
<g id="node22" class="node">
<title>Node21</title>
<polygon fill="none" stroke="#bfbfbf" points="1348,-112.5 1348,-131.5 1392,-131.5 1392,-112.5 1348,-112.5"/>
<text text-anchor="middle" x="1370" y="-119.5" font-family="Helvetica,sans-Serif" font-size="10.00" fill="#000000">limits</text>
</g>
<!-- Node19&#45;&gt;Node21 -->
<g id="edge33" class="edge">
<title>Node19&#45;&gt;Node21</title>
<path fill="none" stroke="#191970" d="M1175.8847,-168.9403C1216.4414,-160.0327 1279.6085,-145.802 1334,-132 1335.2732,-131.6769 1336.5702,-131.3424 1337.8793,-131.0002"/>
<polygon fill="#191970" stroke="#191970" points="1339.2082,-134.2674 1347.957,-128.2916 1337.3912,-127.5073 1339.2082,-134.2674"/>
</g>
<!-- Node22 -->
<g id="node23" class="node">
<title>Node22</title>
<g id="a_node23"><a xlink:href="../../dc/d3a/RDHManip_8h.html" target="_top" xlink:title="MCHRawCommon/RDHManip.h">
<polygon fill="none" stroke="#000000" points="1447.5,-112.5 1447.5,-131.5 1614.5,-131.5 1614.5,-112.5 1447.5,-112.5"/>
<text text-anchor="middle" x="1531" y="-119.5" font-family="Helvetica,sans-Serif" font-size="10.00" fill="#000000">MCHRawCommon/RDHManip.h</text>
</a>
</g>
</g>
<!-- Node19&#45;&gt;Node22 -->
<g id="edge34" class="edge">
<title>Node19&#45;&gt;Node22</title>
<path fill="none" stroke="#191970" d="M1175.7356,-172.1129C1241.4766,-162.8396 1370.202,-144.6818 1453.3176,-132.9577"/>
<polygon fill="#191970" stroke="#191970" points="1454.0586,-136.3879 1463.4717,-131.5254 1453.0808,-129.4566 1454.0586,-136.3879"/>
</g>
<!-- Node27 -->
<g id="node28" class="node">
<title>Node27</title>
<g id="a_node28"><a xlink:href="../../d4/d78/DataFormats_2Headers_2include_2Headers_2RAWDataHeader_8h.html" target="_top" xlink:title="Headers/RAWDataHeader.h">
<polygon fill="none" stroke="#000000" points="1676.5,-112.5 1676.5,-131.5 1825.5,-131.5 1825.5,-112.5 1676.5,-112.5"/>
<text text-anchor="middle" x="1751" y="-119.5" font-family="Helvetica,sans-Serif" font-size="10.00" fill="#000000">Headers/RAWDataHeader.h</text>
</a>
</g>
</g>
<!-- Node19&#45;&gt;Node27 -->
<g id="edge45" class="edge">
<title>Node19&#45;&gt;Node27</title>
<path fill="none" stroke="#191970" d="M1175.9238,-174.1949C1276.3086,-165.0838 1532.0621,-141.8712 1666.1077,-129.705"/>
<polygon fill="#191970" stroke="#191970" points="1666.6889,-133.1667 1676.3315,-128.777 1666.0561,-126.1954 1666.6889,-133.1667"/>
</g>
<!-- Node20&#45;&gt;Node10 -->
<g id="edge31" class="edge">
<title>Node20&#45;&gt;Node10</title>
<path fill="none" stroke="#191970" d="M874.885,-112.3733C842.7336,-102.4259 792.6787,-86.9393 759.3763,-76.6358"/>
<polygon fill="#191970" stroke="#191970" points="760.205,-73.2285 749.6173,-73.6164 758.136,-79.9158 760.205,-73.2285"/>
</g>
<!-- Node20&#45;&gt;Node12 -->
<g id="edge32" class="edge">
<title>Node20&#45;&gt;Node12</title>
<path fill="none" stroke="#191970" d="M926.6287,-112.3733C945.8919,-103.3838 974.8486,-89.8706 996.5419,-79.7471"/>
<polygon fill="#191970" stroke="#191970" points="998.0587,-82.9017 1005.6405,-75.5011 995.0985,-76.5584 998.0587,-82.9017"/>
</g>
<!-- Node22&#45;&gt;Node6 -->
<g id="edge35" class="edge">
<title>Node22&#45;&gt;Node6</title>
<path fill="none" stroke="#191970" d="M1614.762,-113.9882C1665.1049,-107.246 1722.3646,-95.4914 1738,-76 1743.562,-69.0663 1743.8849,-62.6618 1738,-56 1715.9939,-31.0886 1491.1103,-16.5394 1403.0715,-11.7612"/>
<polygon fill="#191970" stroke="#191970" points="1403.2082,-8.2636 1393.0362,-11.2269 1402.836,-15.2537 1403.2082,-8.2636"/>
</g>
<!-- Node22&#45;&gt;Node11 -->
<g id="edge41" class="edge">
<title>Node22&#45;&gt;Node11</title>
<path fill="none" stroke="#191970" d="M1454.0652,-112.4596C1381.1497,-103.3488 1268.5742,-89.1048 1171,-76 1158.7861,-74.3596 1145.4007,-72.4924 1133.5766,-70.8192"/>
<polygon fill="#191970" stroke="#191970" points="1134.0492,-67.3513 1123.6562,-69.4093 1133.0642,-74.2817 1134.0492,-67.3513"/>
</g>
<!-- Node22&#45;&gt;Node12 -->
<g id="edge38" class="edge">
<title>Node22&#45;&gt;Node12</title>
<path fill="none" stroke="#191970" d="M1447.325,-115.1262C1334.0506,-105.5753 1137.9195,-88.1025 1067,-76 1066.7833,-75.963 1066.5661,-75.9255 1066.3484,-75.8876"/>
<polygon fill="#191970" stroke="#191970" points="1066.8404,-72.4171 1056.3506,-73.9055 1065.479,-79.2834 1066.8404,-72.4171"/>
</g>
<!-- Node22&#45;&gt;Node14 -->
<g id="edge36" class="edge">
<title>Node22&#45;&gt;Node14</title>
<path fill="none" stroke="#191970" d="M1466.0809,-112.4671C1412.3037,-104.276 1333.6699,-91.6235 1255.5318,-75.9948"/>
<polygon fill="#191970" stroke="#191970" points="1256.0053,-72.5199 1245.5107,-73.9733 1254.6211,-79.3817 1256.0053,-72.5199"/>
</g>
<!-- Node22&#45;&gt;Node17 -->
<g id="edge37" class="edge">
<title>Node22&#45;&gt;Node17</title>
<path fill="none" stroke="#191970" d="M1487.3819,-112.4447C1448.7534,-103.8867 1390.5914,-90.7689 1330.6354,-76.0985"/>
<polygon fill="#191970" stroke="#191970" points="1331.1549,-72.6221 1320.6086,-73.6345 1329.4844,-79.4199 1331.1549,-72.6221"/>
</g>
<!-- Node23 -->
<g id="node24" class="node">
<title>Node23</title>
<polygon fill="none" stroke="#bfbfbf" points="1685,-56.5 1685,-75.5 1729,-75.5 1729,-56.5 1685,-56.5"/>
<text text-anchor="middle" x="1707" y="-63.5" font-family="Helvetica,sans-Serif" font-size="10.00" fill="#000000">string</text>
</g>
<!-- Node22&#45;&gt;Node23 -->
<g id="edge39" class="edge">
<title>Node22&#45;&gt;Node23</title>
<path fill="none" stroke="#191970" d="M1561.2847,-112.4394C1588.6798,-103.7806 1630.3778,-90.5756 1675.3471,-76.1992"/>
<polygon fill="#191970" stroke="#191970" points="1676.5307,-79.4954 1684.9888,-73.1149 1674.3978,-72.8283 1676.5307,-79.4954"/>
</g>
<!-- Node24 -->
<g id="node25" class="node">
<title>Node24</title>
<polygon fill="none" stroke="#bfbfbf" points="1338.5,-56.5 1338.5,-75.5 1411.5,-75.5 1411.5,-56.5 1338.5,-56.5"/>
<text text-anchor="middle" x="1375" y="-63.5" font-family="Helvetica,sans-Serif" font-size="10.00" fill="#000000">string_view</text>
</g>
<!-- Node22&#45;&gt;Node24 -->
<g id="edge40" class="edge">
<title>Node22&#45;&gt;Node24</title>
<path fill="none" stroke="#191970" d="M1504.1826,-112.3733C1478.4668,-103.1419 1439.462,-89.1402 1411.0401,-78.9375"/>
<polygon fill="#191970" stroke="#191970" points="1412.0619,-75.5857 1401.4674,-75.5011 1409.6968,-82.174 1412.0619,-75.5857"/>
</g>
<!-- Node25 -->
<g id="node26" class="node">
<title>Node25</title>
<g id="a_node26"><a xlink:href="../../dd/d9a/RDHFields_8h.html" target="_top" xlink:title="MCHRawCommon/RDHFields.h">
<polygon fill="none" stroke="#000000" points="1501,-56.5 1501,-75.5 1667,-75.5 1667,-56.5 1501,-56.5"/>
<text text-anchor="middle" x="1584" y="-63.5" font-family="Helvetica,sans-Serif" font-size="10.00" fill="#000000">MCHRawCommon/RDHFields.h</text>
</a>
</g>
</g>
<!-- Node22&#45;&gt;Node25 -->
<g id="edge42" class="edge">
<title>Node22&#45;&gt;Node25</title>
<path fill="none" stroke="#191970" d="M1540.2319,-112.2455C1547.8317,-104.2155 1558.7877,-92.6394 1567.8368,-83.0781"/>
<polygon fill="#191970" stroke="#191970" points="1570.5421,-85.3115 1574.8739,-75.6427 1565.458,-80.4998 1570.5421,-85.3115"/>
</g>
<!-- Node26 -->
<g id="node27" class="node">
<title>Node26</title>
<polygon fill="none" stroke="#bfbfbf" points="1429.5,-56.5 1429.5,-75.5 1482.5,-75.5 1482.5,-56.5 1429.5,-56.5"/>
<text text-anchor="middle" x="1456" y="-63.5" font-family="Helvetica,sans-Serif" font-size="10.00" fill="#000000">cstddef</text>
</g>
<!-- Node22&#45;&gt;Node26 -->
<g id="edge44" class="edge">
<title>Node22&#45;&gt;Node26</title>
<path fill="none" stroke="#191970" d="M1517.936,-112.2455C1506.6438,-103.814 1490.1155,-91.4729 1476.9729,-81.6598"/>
<polygon fill="#191970" stroke="#191970" points="1479.0211,-78.8211 1468.9143,-75.6427 1474.8331,-84.4301 1479.0211,-78.8211"/>
</g>
<!-- Node25&#45;&gt;Node6 -->
<g id="edge43" class="edge">
<title>Node25&#45;&gt;Node6</title>
<path fill="none" stroke="#191970" d="M1546.8683,-56.3733C1506.4784,-45.9018 1442.4126,-29.2922 1402.9151,-19.0521"/>
<polygon fill="#191970" stroke="#191970" points="1403.7491,-15.6526 1393.1907,-16.5309 1401.9923,-22.4286 1403.7491,-15.6526"/>
</g>
<!-- Node27&#45;&gt;Node6 -->
<g id="edge46" class="edge">
<title>Node27&#45;&gt;Node6</title>
<path fill="none" stroke="#191970" d="M1755.2607,-112.0852C1760.6561,-97.7962 1767.7082,-71.4388 1754,-56 1730.8864,-29.9684 1494.2847,-16.0169 1403.3432,-11.5831"/>
<polygon fill="#191970" stroke="#191970" points="1403.404,-8.0821 1393.2484,-11.1011 1403.07,-15.0742 1403.404,-8.0821"/>
</g>
<!-- Node29&#45;&gt;Node2 -->
<g id="edge51" class="edge">
<title>Node29&#45;&gt;Node2</title>
<path fill="none" stroke="#191970" d="M600.1865,-226.0278C595.3902,-225.3349 590.608,-224.6505 586,-224 498.0219,-211.58 397.1363,-198.0163 328.254,-188.8583"/>
<polygon fill="#191970" stroke="#191970" points="328.7024,-185.3872 318.3286,-187.5398 327.7806,-192.3263 328.7024,-185.3872"/>
</g>
<!-- Node29&#45;&gt;Node6 -->
<g id="edge53" class="edge">
<title>Node29&#45;&gt;Node6</title>
<path fill="none" stroke="#191970" d="M615.7524,-224.4994C550.3617,-207.3973 421.6271,-169.6888 396,-132 382.5476,-112.216 396.6013,-68.2069 412,-56 448.73,-26.8833 1163.5347,-13.3557 1332.4477,-10.5583"/>
<polygon fill="#191970" stroke="#191970" points="1332.6087,-14.0562 1342.5501,-10.393 1332.4941,-7.0571 1332.6087,-14.0562"/>
</g>
<!-- Node29&#45;&gt;Node11 -->
<g id="edge52" class="edge">
<title>Node29&#45;&gt;Node11</title>
<path fill="none" stroke="#191970" d="M707.1506,-224.4484C778.0421,-210.4296 906.2974,-180.5506 1007,-132 1034.7403,-118.6259 1063.1044,-97.138 1081.093,-82.3338"/>
<polygon fill="#191970" stroke="#191970" points="1083.6285,-84.7753 1089.0421,-75.668 1079.1307,-79.4116 1083.6285,-84.7753"/>
</g>
<!-- Node29&#45;&gt;Node15 -->
<g id="edge50" class="edge">
<title>Node29&#45;&gt;Node15</title>
<path fill="none" stroke="#191970" d="M658.4335,-224.4509C667.0297,-205.936 686.1011,-164.8591 697.3092,-140.7187"/>
<polygon fill="#191970" stroke="#191970" points="700.5411,-142.0689 701.5777,-131.5249 694.192,-139.1211 700.5411,-142.0689"/>
</g>
</g>
</svg>
        <g id="navigator" transform="translate(0 0)" fill="#404254">
                <rect fill="#f2f5e9" fill-opacity="0.5" stroke="#606060" stroke-width=".5" x="0" y="0" width="60" height="60"/>
                <use id="zoomplus" xlink:href="#zoomPlus" x="17" y="9" onmousedown="handleZoom(evt,'in')"/>
                <use id="zoomminus" xlink:href="#zoomMin" x="42" y="9" onmousedown="handleZoom(evt,'out')"/>
                <use id="reset" xlink:href="#resetDef" x="30" y="36" onmousedown="handleReset()"/>
                <g id="arrowUp" xlink:href="#dirArrow" transform="translate(30 24)" onmousedown="handlePan(0,-1)">
                  <use xlink:href="#rim" fill="#404040">
                        <set attributeName="fill" to="#808080" begin="arrowUp.mouseover" end="arrowUp.mouseout"/>
                  </use>
                  <path fill="none" stroke="white" stroke-width="1.5" d="M0,-3.0v7 M-2.5,-0.5L0,-3.0L2.5,-0.5"/>
                </g>
                <g id="arrowRight" xlink:href="#dirArrow" transform="rotate(90) translate(36 -43)" onmousedown="handlePan(1,0)">
                  <use xlink:href="#rim" fill="#404040">
                        <set attributeName="fill" to="#808080" begin="arrowRight.mouseover" end="arrowRight.mouseout"/>
                  </use>
                  <path fill="none" stroke="white" stroke-width="1.5" d="M0,-3.0v7 M-2.5,-0.5L0,-3.0L2.5,-0.5"/>
                </g>
                <g id="arrowDown" xlink:href="#dirArrow" transform="rotate(180) translate(-30 -48)" onmousedown="handlePan(0,1)">
                  <use xlink:href="#rim" fill="#404040">
                        <set attributeName="fill" to="#808080" begin="arrowDown.mouseover" end="arrowDown.mouseout"/>
                  </use>
                  <path fill="none" stroke="white" stroke-width="1.5" d="M0,-3.0v7 M-2.5,-0.5L0,-3.0L2.5,-0.5"/>
                </g>
                <g id="arrowLeft" xlink:href="#dirArrow" transform="rotate(270) translate(-36 17)" onmousedown="handlePan(-1,0)">
                  <use xlink:href="#rim" fill="#404040">
                        <set attributeName="fill" to="#808080" begin="arrowLeft.mouseover" end="arrowLeft.mouseout"/>
                  </use>
                  <path fill="none" stroke="white" stroke-width="1.5" d="M0,-3.0v7 M-2.5,-0.5L0,-3.0L2.5,-0.5"/>
                </g>
        </g>
        <svg viewBox="0 0 15 15" width="100%" height="30px" preserveAspectRatio="xMaxYMin meet">
         <g id="arrow_out" transform="scale(0.3 0.3)">
          <a xlink:href="testEncoder_8cxx__incl_org.svg" target="_base">
           <rect id="button" ry="5" rx="5" y="6" x="6" height="38" width="38"
                fill="#f2f5e9" fill-opacity="0.5" stroke="#606060" stroke-width="1.0"/>
           <path id="arrow"
             d="M 11.500037,31.436501 C 11.940474,20.09759 22.043105,11.32322 32.158766,21.979434 L 37.068811,17.246167 C 37.068811,17.246167 37.088388,32 37.088388,32 L 22.160133,31.978069 C 22.160133,31.978069 26.997745,27.140456 26.997745,27.140456 C 18.528582,18.264221 13.291696,25.230495 11.500037,31.436501 z"
             style="fill:#404040;"/>
          </a>
         </g>
        </svg>
</svg>
