<?xml version="1.0" encoding="UTF-8" standalone="no"?>
<!DOCTYPE svg PUBLIC "-//W3C//DTD SVG 1.1//EN"
 "http://www.w3.org/Graphics/SVG/1.1/DTD/svg11.dtd">
<!-- Generated by graphviz version 2.40.1 (20161225.0304)
 -->
<!-- Title: /home/travis/build/AliceO2Group/AliceO2/GPU/GPUTracking/Global/GPUChainTracking.h Pages: 1 -->
<!--zoomable 328 -->
<svg id="main" version="1.1" xmlns="http://www.w3.org/2000/svg" xmlns:xlink="http://www.w3.org/1999/xlink" xml:space="preserve" onload="init(evt)">
<style type="text/css"><![CDATA[
.edge:hover path { stroke: red; }
.edge:hover polygon { stroke: red; fill: red; }
]]></style>
<script type="text/javascript"><![CDATA[
var edges = document.getElementsByTagName('g');
if (edges && edges.length) {
  for (var i=0;i<edges.length;i++) {
    if (edges[i].id.substr(0,4)=='edge') {
      edges[i].setAttribute('class','edge');
    }
  }
}
]]></script>
        <defs>
                <circle id="rim" cx="0" cy="0" r="7"/>
                <circle id="rim2" cx="0" cy="0" r="3.5"/>
                <g id="zoomPlus">
                        <use xlink:href="#rim" fill="#404040">
                                <set attributeName="fill" to="#808080" begin="zoomplus.mouseover" end="zoomplus.mouseout"/>
                        </use>
                        <path d="M-4,0h8M0,-4v8" fill="none" stroke="white" stroke-width="1.5" pointer-events="none"/>
                </g>
                <g id="zoomMin">
                        <use xlink:href="#rim" fill="#404040">
                                <set attributeName="fill" to="#808080" begin="zoomminus.mouseover" end="zoomminus.mouseout"/>
                        </use>
                        <path d="M-4,0h8" fill="none" stroke="white" stroke-width="1.5" pointer-events="none"/>
                </g>
                <g id="dirArrow">
                        <path fill="none" stroke="white" stroke-width="1.5" d="M0,-3.0v7 M-2.5,-0.5L0,-3.0L2.5,-0.5"/>
                </g>
               <g id="resetDef">
                       <use xlink:href="#rim2" fill="#404040">
                               <set attributeName="fill" to="#808080" begin="reset.mouseover" end="reset.mouseout"/>
                       </use>
               </g>
        </defs>

<script type="text/javascript">
var viewWidth = 2341;
var viewHeight = 328;
var sectionId = 'dynsection-1';
</script>
<script xlink:href="../../svgpan.js"/>
<svg id="graph" class="graph">
<g id="viewport">
<title>/home/travis/build/AliceO2Group/AliceO2/GPU/GPUTracking/Global/GPUChainTracking.h</title>
<!-- Node70 -->
<g id="node1" class="node">
<title>Node70</title>
<polygon fill="#bfbfbf" stroke="#000000" points="1068.5,-267.5 1068.5,-319.5 1208.5,-319.5 1208.5,-267.5 1068.5,-267.5"/>
<text text-anchor="start" x="1076.5" y="-307.5" font-family="Helvetica,sans-Serif" font-size="10.00" fill="#000000">/home/travis/build</text>
<text text-anchor="start" x="1076.5" y="-296.5" font-family="Helvetica,sans-Serif" font-size="10.00" fill="#000000">/AliceO2Group/AliceO2</text>
<text text-anchor="start" x="1076.5" y="-285.5" font-family="Helvetica,sans-Serif" font-size="10.00" fill="#000000">/GPU/GPUTracking/Global</text>
<text text-anchor="middle" x="1138.5" y="-274.5" font-family="Helvetica,sans-Serif" font-size="10.00" fill="#000000">/GPUChainTracking.h</text>
</g>
<!-- Node71 -->
<g id="node2" class="node">
<title>Node71</title>
<g id="a_node2"><a xlink:href="../../df/db2/GPUReconstructionTimeframe_8h.html" target="_top" xlink:title="/home/travis/build\l/AliceO2Group/AliceO2\l/GPU/GPUTracking/Base\l/GPUReconstructionTimeframe.h">
<polygon fill="none" stroke="#000000" points="82.5,-178.5 82.5,-230.5 258.5,-230.5 258.5,-178.5 82.5,-178.5"/>
<text text-anchor="start" x="90.5" y="-218.5" font-family="Helvetica,sans-Serif" font-size="10.00" fill="#000000">/home/travis/build</text>
<text text-anchor="start" x="90.5" y="-207.5" font-family="Helvetica,sans-Serif" font-size="10.00" fill="#000000">/AliceO2Group/AliceO2</text>
<text text-anchor="start" x="90.5" y="-196.5" font-family="Helvetica,sans-Serif" font-size="10.00" fill="#000000">/GPU/GPUTracking/Base</text>
<text text-anchor="middle" x="170.5" y="-185.5" font-family="Helvetica,sans-Serif" font-size="10.00" fill="#000000">/GPUReconstructionTimeframe.h</text>
</a>
</g>
</g>
<!-- Node70&#45;&gt;Node71 -->
<g id="edge1" class="edge">
<title>Node70&#45;&gt;Node71</title>
<path fill="none" stroke="#191970" d="M1058.0161,-289.5704C873.1149,-280.2378 422.4008,-255.6703 272.5,-231 267.9867,-230.2572 263.3821,-229.4068 258.7471,-228.4768"/>
<polygon fill="#191970" stroke="#191970" points="1058.051,-293.0764 1068.2142,-290.0832 1058.4027,-286.0853 1058.051,-293.0764"/>
</g>
<!-- Node73 -->
<g id="node4" class="node">
<title>Node73</title>
<g id="a_node4"><a xlink:href="../../dc/df9/standalone_8cxx.html" target="_top" xlink:title="/home/travis/build\l/AliceO2Group/AliceO2\l/GPU/GPUTracking/Standalone\l/standalone.cxx">
<polygon fill="none" stroke="#000000" points="205,-89.5 205,-141.5 368,-141.5 368,-89.5 205,-89.5"/>
<text text-anchor="start" x="213" y="-129.5" font-family="Helvetica,sans-Serif" font-size="10.00" fill="#000000">/home/travis/build</text>
<text text-anchor="start" x="213" y="-118.5" font-family="Helvetica,sans-Serif" font-size="10.00" fill="#000000">/AliceO2Group/AliceO2</text>
<text text-anchor="start" x="213" y="-107.5" font-family="Helvetica,sans-Serif" font-size="10.00" fill="#000000">/GPU/GPUTracking/Standalone</text>
<text text-anchor="middle" x="286.5" y="-96.5" font-family="Helvetica,sans-Serif" font-size="10.00" fill="#000000">/standalone.cxx</text>
</a>
</g>
</g>
<!-- Node70&#45;&gt;Node73 -->
<g id="edge16" class="edge">
<title>Node70&#45;&gt;Node73</title>
<path fill="none" stroke="#191970" d="M1058.4367,-290.1516C855.1331,-281.2959 333.0304,-256.2046 305.5,-231 281.2183,-208.7697 280.0595,-168.4224 282.4824,-141.7897"/>
<polygon fill="#191970" stroke="#191970" points="1058.3144,-293.6495 1068.4567,-290.5861 1058.6177,-286.6561 1058.3144,-293.6495"/>
</g>
<!-- Node74 -->
<g id="node5" class="node">
<title>Node74</title>
<g id="a_node5"><a xlink:href="../../df/d9c/AliHLTGPUDumpComponent_8cxx.html" target="_top" xlink:title="/home/travis/build\l/AliceO2Group/AliceO2\l/GPU/GPUTracking/Global\l/AliHLTGPUDumpComponent.cxx">
<polygon fill="none" stroke="#000000" points="314.5,-178.5 314.5,-230.5 490.5,-230.5 490.5,-178.5 314.5,-178.5"/>
<text text-anchor="start" x="322.5" y="-218.5" font-family="Helvetica,sans-Serif" font-size="10.00" fill="#000000">/home/travis/build</text>
<text text-anchor="start" x="322.5" y="-207.5" font-family="Helvetica,sans-Serif" font-size="10.00" fill="#000000">/AliceO2Group/AliceO2</text>
<text text-anchor="start" x="322.5" y="-196.5" font-family="Helvetica,sans-Serif" font-size="10.00" fill="#000000">/GPU/GPUTracking/Global</text>
<text text-anchor="middle" x="402.5" y="-185.5" font-family="Helvetica,sans-Serif" font-size="10.00" fill="#000000">/AliHLTGPUDumpComponent.cxx</text>
</a>
</g>
</g>
<!-- Node70&#45;&gt;Node74 -->
<g id="edge4" class="edge">
<title>Node70&#45;&gt;Node74</title>
<path fill="none" stroke="#191970" d="M1058.1205,-290.0056C936.4025,-283.7329 698.425,-267.6287 499.5,-231 496.5813,-230.4626 493.6225,-229.8797 490.6418,-229.2597"/>
<polygon fill="#191970" stroke="#191970" points="1058.2988,-293.519 1068.463,-290.5293 1058.6529,-286.528 1058.2988,-293.519"/>
</g>
<!-- Node75 -->
<g id="node6" class="node">
<title>Node75</title>
<g id="a_node6"><a xlink:href="../../d2/d58/GPUChainTracking_8cxx.html" target="_top" xlink:title="/home/travis/build\l/AliceO2Group/AliceO2\l/GPU/GPUTracking/Global\l/GPUChainTracking.cxx">
<polygon fill="none" stroke="#000000" points="508.5,-178.5 508.5,-230.5 648.5,-230.5 648.5,-178.5 508.5,-178.5"/>
<text text-anchor="start" x="516.5" y="-218.5" font-family="Helvetica,sans-Serif" font-size="10.00" fill="#000000">/home/travis/build</text>
<text text-anchor="start" x="516.5" y="-207.5" font-family="Helvetica,sans-Serif" font-size="10.00" fill="#000000">/AliceO2Group/AliceO2</text>
<text text-anchor="start" x="516.5" y="-196.5" font-family="Helvetica,sans-Serif" font-size="10.00" fill="#000000">/GPU/GPUTracking/Global</text>
<text text-anchor="middle" x="578.5" y="-185.5" font-family="Helvetica,sans-Serif" font-size="10.00" fill="#000000">/GPUChainTracking.cxx</text>
</a>
</g>
</g>
<!-- Node70&#45;&gt;Node75 -->
<g id="edge5" class="edge">
<title>Node70&#45;&gt;Node75</title>
<path fill="none" stroke="#191970" d="M1058.2143,-287.867C962.0276,-280.0199 796.4513,-263.0118 657.5,-231 654.5396,-230.318 651.5333,-229.5695 648.5086,-228.7701"/>
<polygon fill="#191970" stroke="#191970" points="1058.1995,-291.377 1068.4476,-288.6886 1058.7598,-284.3995 1058.1995,-291.377"/>
</g>
<!-- Node76 -->
<g id="node7" class="node">
<title>Node76</title>
<g id="a_node7"><a xlink:href="../../dd/dc6/GPUChainTrackingDebugAndProfiling_8cxx.html" target="_top" xlink:title="/home/travis/build\l/AliceO2Group/AliceO2\l/GPU/GPUTracking/Global\l/GPUChainTrackingDebugAndProfiling.cxx">
<polygon fill="none" stroke="#000000" points="667,-178.5 667,-230.5 886,-230.5 886,-178.5 667,-178.5"/>
<text text-anchor="start" x="675" y="-218.5" font-family="Helvetica,sans-Serif" font-size="10.00" fill="#000000">/home/travis/build</text>
<text text-anchor="start" x="675" y="-207.5" font-family="Helvetica,sans-Serif" font-size="10.00" fill="#000000">/AliceO2Group/AliceO2</text>
<text text-anchor="start" x="675" y="-196.5" font-family="Helvetica,sans-Serif" font-size="10.00" fill="#000000">/GPU/GPUTracking/Global</text>
<text text-anchor="middle" x="776.5" y="-185.5" font-family="Helvetica,sans-Serif" font-size="10.00" fill="#000000">/GPUChainTrackingDebugAndProfiling.cxx</text>
</a>
</g>
</g>
<!-- Node70&#45;&gt;Node76 -->
<g id="edge6" class="edge">
<title>Node70&#45;&gt;Node76</title>
<path fill="none" stroke="#191970" d="M1058.4773,-273.8259C1006.7285,-261.1032 938.7856,-244.399 882.5598,-230.5755"/>
<polygon fill="#191970" stroke="#191970" points="1057.7271,-277.2456 1068.2735,-276.2344 1059.3983,-270.448 1057.7271,-277.2456"/>
</g>
<!-- Node77 -->
<g id="node8" class="node">
<title>Node77</title>
<g id="a_node8"><a xlink:href="../../d3/d85/GPUChainTrackingIO_8cxx.html" target="_top" xlink:title="/home/travis/build\l/AliceO2Group/AliceO2\l/GPU/GPUTracking/Global\l/GPUChainTrackingIO.cxx">
<polygon fill="none" stroke="#000000" points="904.5,-178.5 904.5,-230.5 1044.5,-230.5 1044.5,-178.5 904.5,-178.5"/>
<text text-anchor="start" x="912.5" y="-218.5" font-family="Helvetica,sans-Serif" font-size="10.00" fill="#000000">/home/travis/build</text>
<text text-anchor="start" x="912.5" y="-207.5" font-family="Helvetica,sans-Serif" font-size="10.00" fill="#000000">/AliceO2Group/AliceO2</text>
<text text-anchor="start" x="912.5" y="-196.5" font-family="Helvetica,sans-Serif" font-size="10.00" fill="#000000">/GPU/GPUTracking/Global</text>
<text text-anchor="middle" x="974.5" y="-185.5" font-family="Helvetica,sans-Serif" font-size="10.00" fill="#000000">/GPUChainTrackingIO.cxx</text>
</a>
</g>
</g>
<!-- Node70&#45;&gt;Node77 -->
<g id="edge7" class="edge">
<title>Node70&#45;&gt;Node77</title>
<path fill="none" stroke="#191970" d="M1081.2355,-262.4235C1062.0505,-252.0122 1040.8725,-240.5192 1022.473,-230.5341"/>
<polygon fill="#191970" stroke="#191970" points="1079.723,-265.5849 1090.1816,-267.2784 1083.0618,-259.4324 1079.723,-265.5849"/>
</g>
<!-- Node78 -->
<g id="node9" class="node">
<title>Node78</title>
<g id="a_node9"><a xlink:href="../../d0/d48/GPUO2Interface_8cxx.html" target="_top" xlink:title="/home/travis/build\l/AliceO2Group/AliceO2\l/GPU/GPUTracking/Interface\l/GPUO2Interface.cxx">
<polygon fill="none" stroke="#000000" points="1062.5,-178.5 1062.5,-230.5 1214.5,-230.5 1214.5,-178.5 1062.5,-178.5"/>
<text text-anchor="start" x="1070.5" y="-218.5" font-family="Helvetica,sans-Serif" font-size="10.00" fill="#000000">/home/travis/build</text>
<text text-anchor="start" x="1070.5" y="-207.5" font-family="Helvetica,sans-Serif" font-size="10.00" fill="#000000">/AliceO2Group/AliceO2</text>
<text text-anchor="start" x="1070.5" y="-196.5" font-family="Helvetica,sans-Serif" font-size="10.00" fill="#000000">/GPU/GPUTracking/Interface</text>
<text text-anchor="middle" x="1138.5" y="-185.5" font-family="Helvetica,sans-Serif" font-size="10.00" fill="#000000">/GPUO2Interface.cxx</text>
</a>
</g>
</g>
<!-- Node70&#45;&gt;Node78 -->
<g id="edge8" class="edge">
<title>Node70&#45;&gt;Node78</title>
<path fill="none" stroke="#191970" d="M1138.5,-257.1155C1138.5,-248.2061 1138.5,-238.8475 1138.5,-230.5341"/>
<polygon fill="#191970" stroke="#191970" points="1135.0001,-257.2784 1138.5,-267.2784 1142.0001,-257.2785 1135.0001,-257.2784"/>
</g>
<!-- Node79 -->
<g id="node10" class="node">
<title>Node79</title>
<g id="a_node10"><a xlink:href="../../df/d06/GPUTPCGlobalMergerComponent_8cxx.html" target="_top" xlink:title="/home/travis/build\l/AliceO2Group/AliceO2\l/GPU/GPUTracking/Merger\l/GPUTPCGlobalMergerComponent.cxx">
<polygon fill="none" stroke="#000000" points="1233,-178.5 1233,-230.5 1434,-230.5 1434,-178.5 1233,-178.5"/>
<text text-anchor="start" x="1241" y="-218.5" font-family="Helvetica,sans-Serif" font-size="10.00" fill="#000000">/home/travis/build</text>
<text text-anchor="start" x="1241" y="-207.5" font-family="Helvetica,sans-Serif" font-size="10.00" fill="#000000">/AliceO2Group/AliceO2</text>
<text text-anchor="start" x="1241" y="-196.5" font-family="Helvetica,sans-Serif" font-size="10.00" fill="#000000">/GPU/GPUTracking/Merger</text>
<text text-anchor="middle" x="1333.5" y="-185.5" font-family="Helvetica,sans-Serif" font-size="10.00" fill="#000000">/GPUTPCGlobalMergerComponent.cxx</text>
</a>
</g>
</g>
<!-- Node70&#45;&gt;Node79 -->
<g id="edge9" class="edge">
<title>Node70&#45;&gt;Node79</title>
<path fill="none" stroke="#191970" d="M1205.0946,-263.1055C1228.2457,-252.5391 1253.9898,-240.7893 1276.3122,-230.6011"/>
<polygon fill="#191970" stroke="#191970" points="1203.3329,-260.0622 1195.6889,-267.3984 1206.2394,-266.4303 1203.3329,-260.0622"/>
</g>
<!-- Node80 -->
<g id="node11" class="node">
<title>Node80</title>
<g id="a_node11"><a xlink:href="../../d0/dd4/GPUTPCGMMerger_8cxx.html" target="_top" xlink:title="/home/travis/build\l/AliceO2Group/AliceO2\l/GPU/GPUTracking/Merger\l/GPUTPCGMMerger.cxx">
<polygon fill="none" stroke="#000000" points="1452.5,-178.5 1452.5,-230.5 1594.5,-230.5 1594.5,-178.5 1452.5,-178.5"/>
<text text-anchor="start" x="1460.5" y="-218.5" font-family="Helvetica,sans-Serif" font-size="10.00" fill="#000000">/home/travis/build</text>
<text text-anchor="start" x="1460.5" y="-207.5" font-family="Helvetica,sans-Serif" font-size="10.00" fill="#000000">/AliceO2Group/AliceO2</text>
<text text-anchor="start" x="1460.5" y="-196.5" font-family="Helvetica,sans-Serif" font-size="10.00" fill="#000000">/GPU/GPUTracking/Merger</text>
<text text-anchor="middle" x="1523.5" y="-185.5" font-family="Helvetica,sans-Serif" font-size="10.00" fill="#000000">/GPUTPCGMMerger.cxx</text>
</a>
</g>
</g>
<!-- Node70&#45;&gt;Node80 -->
<g id="edge10" class="edge">
<title>Node70&#45;&gt;Node80</title>
<path fill="none" stroke="#191970" d="M1218.8028,-279.5622C1280.4276,-268.2475 1367.3926,-250.938 1442.5,-231 1445.6461,-230.1648 1448.8498,-229.2775 1452.0777,-228.3531"/>
<polygon fill="#191970" stroke="#191970" points="1217.9623,-276.1577 1208.7528,-281.3955 1219.2186,-283.044 1217.9623,-276.1577"/>
</g>
<!-- Node83 -->
<g id="node14" class="node">
<title>Node83</title>
<g id="a_node14"><a xlink:href="../../da/d1f/GPUTPCTrackerComponent_8cxx.html" target="_top" xlink:title="/home/travis/build\l/AliceO2Group/AliceO2\l/GPU/GPUTracking/SliceTracker\l/GPUTPCTrackerComponent.cxx">
<polygon fill="none" stroke="#000000" points="1613,-178.5 1613,-230.5 1784,-230.5 1784,-178.5 1613,-178.5"/>
<text text-anchor="start" x="1621" y="-218.5" font-family="Helvetica,sans-Serif" font-size="10.00" fill="#000000">/home/travis/build</text>
<text text-anchor="start" x="1621" y="-207.5" font-family="Helvetica,sans-Serif" font-size="10.00" fill="#000000">/AliceO2Group/AliceO2</text>
<text text-anchor="start" x="1621" y="-196.5" font-family="Helvetica,sans-Serif" font-size="10.00" fill="#000000">/GPU/GPUTracking/SliceTracker</text>
<text text-anchor="middle" x="1698.5" y="-185.5" font-family="Helvetica,sans-Serif" font-size="10.00" fill="#000000">/GPUTPCTrackerComponent.cxx</text>
</a>
</g>
</g>
<!-- Node70&#45;&gt;Node83 -->
<g id="edge13" class="edge">
<title>Node70&#45;&gt;Node83</title>
<path fill="none" stroke="#191970" d="M1218.9266,-286.1049C1312.0844,-276.7522 1469.8817,-258.4783 1603.5,-231 1606.6028,-230.3619 1609.7532,-229.6777 1612.9282,-228.9573"/>
<polygon fill="#191970" stroke="#191970" points="1218.3317,-282.6468 1208.7271,-287.1192 1219.0244,-289.6124 1218.3317,-282.6468"/>
</g>
<!-- Node84 -->
<g id="node15" class="node">
<title>Node84</title>
<g id="a_node15"><a xlink:href="../../d7/d9f/genEvents_8cxx.html" target="_top" xlink:title="/home/travis/build\l/AliceO2Group/AliceO2\l/GPU/GPUTracking/Standalone\l/qa/genEvents.cxx">
<polygon fill="none" stroke="#000000" points="1802,-178.5 1802,-230.5 1965,-230.5 1965,-178.5 1802,-178.5"/>
<text text-anchor="start" x="1810" y="-218.5" font-family="Helvetica,sans-Serif" font-size="10.00" fill="#000000">/home/travis/build</text>
<text text-anchor="start" x="1810" y="-207.5" font-family="Helvetica,sans-Serif" font-size="10.00" fill="#000000">/AliceO2Group/AliceO2</text>
<text text-anchor="start" x="1810" y="-196.5" font-family="Helvetica,sans-Serif" font-size="10.00" fill="#000000">/GPU/GPUTracking/Standalone</text>
<text text-anchor="middle" x="1883.5" y="-185.5" font-family="Helvetica,sans-Serif" font-size="10.00" fill="#000000">/qa/genEvents.cxx</text>
</a>
</g>
</g>
<!-- Node70&#45;&gt;Node84 -->
<g id="edge14" class="edge">
<title>Node70&#45;&gt;Node84</title>
<path fill="none" stroke="#191970" d="M1219.1148,-290.7654C1343.4243,-285.4379 1588.9503,-270.4964 1793.5,-231 1796.2188,-230.475 1798.9734,-229.9029 1801.747,-229.2923"/>
<polygon fill="#191970" stroke="#191970" points="1218.7666,-287.2768 1208.9219,-291.1922 1219.0596,-294.2707 1218.7666,-287.2768"/>
</g>
<!-- Node85 -->
<g id="node16" class="node">
<title>Node85</title>
<g id="a_node16"><a xlink:href="../../de/ddc/GPUQA_8cxx.html" target="_top" xlink:title="/home/travis/build\l/AliceO2Group/AliceO2\l/GPU/GPUTracking/Standalone\l/qa/GPUQA.cxx">
<polygon fill="none" stroke="#000000" points="1983,-178.5 1983,-230.5 2146,-230.5 2146,-178.5 1983,-178.5"/>
<text text-anchor="start" x="1991" y="-218.5" font-family="Helvetica,sans-Serif" font-size="10.00" fill="#000000">/home/travis/build</text>
<text text-anchor="start" x="1991" y="-207.5" font-family="Helvetica,sans-Serif" font-size="10.00" fill="#000000">/AliceO2Group/AliceO2</text>
<text text-anchor="start" x="1991" y="-196.5" font-family="Helvetica,sans-Serif" font-size="10.00" fill="#000000">/GPU/GPUTracking/Standalone</text>
<text text-anchor="middle" x="2064.5" y="-185.5" font-family="Helvetica,sans-Serif" font-size="10.00" fill="#000000">/qa/GPUQA.cxx</text>
</a>
</g>
</g>
<!-- Node70&#45;&gt;Node85 -->
<g id="edge15" class="edge">
<title>Node70&#45;&gt;Node85</title>
<path fill="none" stroke="#191970" d="M1218.8169,-289.6683C1398.9995,-280.7193 1830.8866,-257.2055 1974.5,-231 1977.224,-230.5029 1979.9831,-229.955 1982.7607,-229.3652"/>
<polygon fill="#191970" stroke="#191970" points="1218.4268,-286.1832 1208.6119,-290.1729 1218.7726,-293.1747 1218.4268,-286.1832"/>
</g>
<!-- Node86 -->
<g id="node17" class="node">
<title>Node86</title>
<g id="a_node17"><a xlink:href="../../d9/d33/GPUTRDTracker_8cxx.html" target="_top" xlink:title="/home/travis/build\l/AliceO2Group/AliceO2\l/GPU/GPUTracking/TRDTracking\l/GPUTRDTracker.cxx">
<polygon fill="none" stroke="#000000" points="2164,-178.5 2164,-230.5 2333,-230.5 2333,-178.5 2164,-178.5"/>
<text text-anchor="start" x="2172" y="-218.5" font-family="Helvetica,sans-Serif" font-size="10.00" fill="#000000">/home/travis/build</text>
<text text-anchor="start" x="2172" y="-207.5" font-family="Helvetica,sans-Serif" font-size="10.00" fill="#000000">/AliceO2Group/AliceO2</text>
<text text-anchor="start" x="2172" y="-196.5" font-family="Helvetica,sans-Serif" font-size="10.00" fill="#000000">/GPU/GPUTracking/TRDTracking</text>
<text text-anchor="middle" x="2248.5" y="-185.5" font-family="Helvetica,sans-Serif" font-size="10.00" fill="#000000">/GPUTRDTracker.cxx</text>
</a>
</g>
</g>
<!-- Node70&#45;&gt;Node86 -->
<g id="edge17" class="edge">
<title>Node70&#45;&gt;Node86</title>
<path fill="none" stroke="#191970" d="M1218.7416,-290.8113C1426.0445,-283.5057 1975.7818,-261.7543 2155.5,-231 2158.2304,-230.5328 2160.9952,-230.0157 2163.7786,-229.4571"/>
<polygon fill="#191970" stroke="#191970" points="1218.4101,-287.3206 1208.5389,-291.1689 1218.6554,-294.3164 1218.4101,-287.3206"/>
</g>
<!-- Node72 -->
<g id="node3" class="node">
<title>Node72</title>
<g id="a_node3"><a xlink:href="../../d7/d36/GPUReconstructionTimeframe_8cxx.html" target="_top" xlink:title="/home/travis/build\l/AliceO2Group/AliceO2\l/GPU/GPUTracking/Base\l/GPUReconstructionTimeframe.cxx">
<polygon fill="none" stroke="#000000" points="0,-89.5 0,-141.5 187,-141.5 187,-89.5 0,-89.5"/>
<text text-anchor="start" x="8" y="-129.5" font-family="Helvetica,sans-Serif" font-size="10.00" fill="#000000">/home/travis/build</text>
<text text-anchor="start" x="8" y="-118.5" font-family="Helvetica,sans-Serif" font-size="10.00" fill="#000000">/AliceO2Group/AliceO2</text>
<text text-anchor="start" x="8" y="-107.5" font-family="Helvetica,sans-Serif" font-size="10.00" fill="#000000">/GPU/GPUTracking/Base</text>
<text text-anchor="middle" x="93.5" y="-96.5" font-family="Helvetica,sans-Serif" font-size="10.00" fill="#000000">/GPUReconstructionTimeframe.cxx</text>
</a>
</g>
</g>
<!-- Node71&#45;&gt;Node72 -->
<g id="edge2" class="edge">
<title>Node71&#45;&gt;Node72</title>
<path fill="none" stroke="#191970" d="M141.2711,-170.7159C132.906,-161.0472 123.92,-150.6608 116.0239,-141.5341"/>
<polygon fill="#191970" stroke="#191970" points="138.6242,-173.0059 147.8139,-178.2784 143.9179,-168.4259 138.6242,-173.0059"/>
</g>
<!-- Node71&#45;&gt;Node73 -->
<g id="edge3" class="edge">
<title>Node71&#45;&gt;Node73</title>
<path fill="none" stroke="#191970" d="M212.6688,-172.1463C225.7908,-162.0786 240.0836,-151.1126 252.5679,-141.5341"/>
<polygon fill="#191970" stroke="#191970" points="210.4798,-169.4144 204.6764,-178.2784 214.7408,-174.9681 210.4798,-169.4144"/>
</g>
<!-- Node81 -->
<g id="node12" class="node">
<title>Node81</title>
<g id="a_node12"><a xlink:href="../../d0/d25/GPUReconstructionIncludesDevice_8h.html" target="_top" xlink:title="/home/travis/build\l/AliceO2Group/AliceO2\l/GPU/GPUTracking/Base\l/GPUReconstructionIncludesDevice.h">
<polygon fill="none" stroke="#000000" points="1425.5,-89.5 1425.5,-141.5 1621.5,-141.5 1621.5,-89.5 1425.5,-89.5"/>
<text text-anchor="start" x="1433.5" y="-129.5" font-family="Helvetica,sans-Serif" font-size="10.00" fill="#000000">/home/travis/build</text>
<text text-anchor="start" x="1433.5" y="-118.5" font-family="Helvetica,sans-Serif" font-size="10.00" fill="#000000">/AliceO2Group/AliceO2</text>
<text text-anchor="start" x="1433.5" y="-107.5" font-family="Helvetica,sans-Serif" font-size="10.00" fill="#000000">/GPU/GPUTracking/Base</text>
<text text-anchor="middle" x="1523.5" y="-96.5" font-family="Helvetica,sans-Serif" font-size="10.00" fill="#000000">/GPUReconstructionIncludesDevice.h</text>
</a>
</g>
</g>
<!-- Node80&#45;&gt;Node81 -->
<g id="edge11" class="edge">
<title>Node80&#45;&gt;Node81</title>
<path fill="none" stroke="#191970" d="M1523.5,-168.1155C1523.5,-159.2061 1523.5,-149.8475 1523.5,-141.5341"/>
<polygon fill="#191970" stroke="#191970" points="1520.0001,-168.2784 1523.5,-178.2784 1527.0001,-168.2785 1520.0001,-168.2784"/>
</g>
<!-- Node82 -->
<g id="node13" class="node">
<title>Node82</title>
<g id="a_node13"><a xlink:href="../../d3/d33/GPUReconstructionHIP_8hip_8cxx.html" target="_top" xlink:title="/home/travis/build\l/AliceO2Group/AliceO2\l/GPU/GPUTracking/Base\l/hip/GPUReconstructionHIP.hip.cxx">
<polygon fill="none" stroke="#000000" points="1431.5,-.5 1431.5,-52.5 1615.5,-52.5 1615.5,-.5 1431.5,-.5"/>
<text text-anchor="start" x="1439.5" y="-40.5" font-family="Helvetica,sans-Serif" font-size="10.00" fill="#000000">/home/travis/build</text>
<text text-anchor="start" x="1439.5" y="-29.5" font-family="Helvetica,sans-Serif" font-size="10.00" fill="#000000">/AliceO2Group/AliceO2</text>
<text text-anchor="start" x="1439.5" y="-18.5" font-family="Helvetica,sans-Serif" font-size="10.00" fill="#000000">/GPU/GPUTracking/Base</text>
<text text-anchor="middle" x="1523.5" y="-7.5" font-family="Helvetica,sans-Serif" font-size="10.00" fill="#000000">/hip/GPUReconstructionHIP.hip.cxx</text>
</a>
</g>
</g>
<!-- Node81&#45;&gt;Node82 -->
<g id="edge12" class="edge">
<title>Node81&#45;&gt;Node82</title>
<path fill="none" stroke="#191970" d="M1523.5,-79.1155C1523.5,-70.2061 1523.5,-60.8475 1523.5,-52.5341"/>
<polygon fill="#191970" stroke="#191970" points="1520.0001,-79.2784 1523.5,-89.2784 1527.0001,-79.2785 1520.0001,-79.2784"/>
</g>
</g>
</svg>
        <g id="navigator" transform="translate(0 0)" fill="#404254">
                <rect fill="#f2f5e9" fill-opacity="0.5" stroke="#606060" stroke-width=".5" x="0" y="0" width="60" height="60"/>
                <use id="zoomplus" xlink:href="#zoomPlus" x="17" y="9" onmousedown="handleZoom(evt,'in')"/>
                <use id="zoomminus" xlink:href="#zoomMin" x="42" y="9" onmousedown="handleZoom(evt,'out')"/>
                <use id="reset" xlink:href="#resetDef" x="30" y="36" onmousedown="handleReset()"/>
                <g id="arrowUp" xlink:href="#dirArrow" transform="translate(30 24)" onmousedown="handlePan(0,-1)">
                  <use xlink:href="#rim" fill="#404040">
                        <set attributeName="fill" to="#808080" begin="arrowUp.mouseover" end="arrowUp.mouseout"/>
                  </use>
                  <path fill="none" stroke="white" stroke-width="1.5" d="M0,-3.0v7 M-2.5,-0.5L0,-3.0L2.5,-0.5"/>
                </g>
                <g id="arrowRight" xlink:href="#dirArrow" transform="rotate(90) translate(36 -43)" onmousedown="handlePan(1,0)">
                  <use xlink:href="#rim" fill="#404040">
                        <set attributeName="fill" to="#808080" begin="arrowRight.mouseover" end="arrowRight.mouseout"/>
                  </use>
                  <path fill="none" stroke="white" stroke-width="1.5" d="M0,-3.0v7 M-2.5,-0.5L0,-3.0L2.5,-0.5"/>
                </g>
                <g id="arrowDown" xlink:href="#dirArrow" transform="rotate(180) translate(-30 -48)" onmousedown="handlePan(0,1)">
                  <use xlink:href="#rim" fill="#404040">
                        <set attributeName="fill" to="#808080" begin="arrowDown.mouseover" end="arrowDown.mouseout"/>
                  </use>
                  <path fill="none" stroke="white" stroke-width="1.5" d="M0,-3.0v7 M-2.5,-0.5L0,-3.0L2.5,-0.5"/>
                </g>
                <g id="arrowLeft" xlink:href="#dirArrow" transform="rotate(270) translate(-36 17)" onmousedown="handlePan(-1,0)">
                  <use xlink:href="#rim" fill="#404040">
                        <set attributeName="fill" to="#808080" begin="arrowLeft.mouseover" end="arrowLeft.mouseout"/>
                  </use>
                  <path fill="none" stroke="white" stroke-width="1.5" d="M0,-3.0v7 M-2.5,-0.5L0,-3.0L2.5,-0.5"/>
                </g>
        </g>
        <svg viewBox="0 0 15 15" width="100%" height="30px" preserveAspectRatio="xMaxYMin meet">
         <g id="arrow_out" transform="scale(0.3 0.3)">
          <a xlink:href="GPUChainTracking_8h__dep__incl_org.svg" target="_base">
           <rect id="button" ry="5" rx="5" y="6" x="6" height="38" width="38"
                fill="#f2f5e9" fill-opacity="0.5" stroke="#606060" stroke-width="1.0"/>
           <path id="arrow"
             d="M 11.500037,31.436501 C 11.940474,20.09759 22.043105,11.32322 32.158766,21.979434 L 37.068811,17.246167 C 37.068811,17.246167 37.088388,32 37.088388,32 L 22.160133,31.978069 C 22.160133,31.978069 26.997745,27.140456 26.997745,27.140456 C 18.528582,18.264221 13.291696,25.230495 11.500037,31.436501 z"
             style="fill:#404040;"/>
          </a>
         </g>
        </svg>
</svg>
