<?xml version="1.0" encoding="UTF-8" standalone="no"?>
<!DOCTYPE svg PUBLIC "-//W3C//DTD SVG 1.1//EN"
 "http://www.w3.org/Graphics/SVG/1.1/DTD/svg11.dtd">
<!-- Generated by graphviz version 2.40.1 (20161225.0304)
 -->
<!-- Title: /home/travis/build/AliceO2Group/AliceO2/Detectors/MUON/MID/Raw/include/MIDRaw/CRUBareDecoder.h Pages: 1 -->
<svg width="1164pt" height="296pt"
 viewBox="0.00 0.00 1164.38 296.00" xmlns="http://www.w3.org/2000/svg" xmlns:xlink="http://www.w3.org/1999/xlink">
<g id="graph0" class="graph" transform="scale(1 1) rotate(0) translate(4 292)">
<title>/home/travis/build/AliceO2Group/AliceO2/Detectors/MUON/MID/Raw/include/MIDRaw/CRUBareDecoder.h</title>
<!-- Node0 -->
<g id="node1" class="node">
<title>Node0</title>
<polygon fill="#bfbfbf" stroke="#000000" points="760,-235.5 760,-287.5 953,-287.5 953,-235.5 760,-235.5"/>
<text text-anchor="start" x="768" y="-275.5" font-family="Helvetica,sans-Serif" font-size="10.00" fill="#000000">/home/travis/build</text>
<text text-anchor="start" x="768" y="-264.5" font-family="Helvetica,sans-Serif" font-size="10.00" fill="#000000">/AliceO2Group/AliceO2</text>
<text text-anchor="start" x="768" y="-253.5" font-family="Helvetica,sans-Serif" font-size="10.00" fill="#000000">/Detectors/MUON/MID/Raw</text>
<text text-anchor="middle" x="856.5" y="-242.5" font-family="Helvetica,sans-Serif" font-size="10.00" fill="#000000">/include/MIDRaw/CRUBareDecoder.h</text>
</g>
<!-- Node1 -->
<g id="node2" class="node">
<title>Node1</title>
<polygon fill="none" stroke="#bfbfbf" points="680.5,-56.5 680.5,-75.5 730.5,-75.5 730.5,-56.5 680.5,-56.5"/>
<text text-anchor="middle" x="705.5" y="-63.5" font-family="Helvetica,sans-Serif" font-size="10.00" fill="#000000">cstdint</text>
</g>
<!-- Node0&#45;&gt;Node1 -->
<g id="edge1" class="edge">
<title>Node0&#45;&gt;Node1</title>
<path fill="none" stroke="#191970" d="M953.1954,-254.0457C1029.6804,-245.903 1127.6068,-229.6982 1152.5,-199 1158.0986,-192.0958 1156.822,-186.7674 1152.5,-179 1125.0348,-129.6403 1097.6567,-131.107 1044.5,-112 989.0966,-92.0854 816.1994,-75.4281 741.0125,-68.9262"/>
<polygon fill="#191970" stroke="#191970" points="740.9156,-65.4053 730.654,-68.0415 740.3198,-72.3799 740.9156,-65.4053"/>
</g>
<!-- Node2 -->
<g id="node3" class="node">
<title>Node2</title>
<polygon fill="none" stroke="#bfbfbf" points="958,-118 958,-137 1005,-137 1005,-118 958,-118"/>
<text text-anchor="middle" x="981.5" y="-125" font-family="Helvetica,sans-Serif" font-size="10.00" fill="#000000">vector</text>
</g>
<!-- Node0&#45;&gt;Node2 -->
<g id="edge2" class="edge">
<title>Node0&#45;&gt;Node2</title>
<path fill="none" stroke="#191970" d="M897.6007,-235.4631C911.8974,-225.194 927.3745,-212.5974 939.5,-199 953.6688,-183.1113 965.4827,-161.7214 972.9346,-146.4872"/>
<polygon fill="#191970" stroke="#191970" points="976.2768,-147.6052 977.372,-137.0671 969.9442,-144.6221 976.2768,-147.6052"/>
</g>
<!-- Node3 -->
<g id="node4" class="node">
<title>Node3</title>
<polygon fill="none" stroke="#bfbfbf" points="888.5,-118 888.5,-137 936.5,-137 936.5,-118 888.5,-118"/>
<text text-anchor="middle" x="912.5" y="-125" font-family="Helvetica,sans-Serif" font-size="10.00" fill="#000000">gsl/gsl</text>
</g>
<!-- Node0&#45;&gt;Node3 -->
<g id="edge3" class="edge">
<title>Node0&#45;&gt;Node3</title>
<path fill="none" stroke="#191970" d="M895.7317,-235.2921C907.2014,-225.4069 918.3111,-213.0943 924.5,-199 931.8299,-182.3072 927.0239,-161.6149 921.4683,-146.7927"/>
<polygon fill="#191970" stroke="#191970" points="924.5366,-145.0574 917.4534,-137.1784 918.0772,-147.7549 924.5366,-145.0574"/>
</g>
<!-- Node4 -->
<g id="node5" class="node">
<title>Node4</title>
<g id="a_node5"><a xlink:href="../../d2/df9/MUON_2MID_2include_2DataFormatsMID_2ROFRecord_8h.html" target="_top" xlink:title="Definition of the MID event record. ">
<polygon fill="none" stroke="#000000" points="146,-179.5 146,-198.5 309,-198.5 309,-179.5 146,-179.5"/>
<text text-anchor="middle" x="227.5" y="-186.5" font-family="Helvetica,sans-Serif" font-size="10.00" fill="#000000">DataFormatsMID/ROFRecord.h</text>
</a>
</g>
</g>
<!-- Node0&#45;&gt;Node4 -->
<g id="edge4" class="edge">
<title>Node0&#45;&gt;Node4</title>
<path fill="none" stroke="#191970" d="M759.9407,-250.3704C639.978,-236.5432 436.7869,-213.1229 319.1493,-199.5637"/>
<polygon fill="#191970" stroke="#191970" points="319.4206,-196.0719 309.0856,-198.4037 318.619,-203.0259 319.4206,-196.0719"/>
</g>
<!-- Node11 -->
<g id="node12" class="node">
<title>Node11</title>
<g id="a_node12"><a xlink:href="../../db/d83/CrateMapper_8h.html" target="_top" xlink:title="Mapper to convert the RO Ids to a format suitable for O2. ">
<polygon fill="none" stroke="#000000" points="327.5,-179.5 327.5,-198.5 457.5,-198.5 457.5,-179.5 327.5,-179.5"/>
<text text-anchor="middle" x="392.5" y="-186.5" font-family="Helvetica,sans-Serif" font-size="10.00" fill="#000000">MIDRaw/CrateMapper.h</text>
</a>
</g>
</g>
<!-- Node0&#45;&gt;Node11 -->
<g id="edge12" class="edge">
<title>Node0&#45;&gt;Node11</title>
<path fill="none" stroke="#191970" d="M759.7952,-246.3899C671.4135,-232.5802 542.7648,-212.4789 463.5251,-200.0977"/>
<polygon fill="#191970" stroke="#191970" points="464.0566,-196.6383 453.6361,-198.5525 462.9759,-203.5544 464.0566,-196.6383"/>
</g>
<!-- Node13 -->
<g id="node14" class="node">
<title>Node13</title>
<g id="a_node14"><a xlink:href="../../d2/da5/CrateParameters_8h.html" target="_top" xlink:title="MID RO crate parameters. ">
<polygon fill="none" stroke="#000000" points="475.5,-179.5 475.5,-198.5 625.5,-198.5 625.5,-179.5 475.5,-179.5"/>
<text text-anchor="middle" x="550.5" y="-186.5" font-family="Helvetica,sans-Serif" font-size="10.00" fill="#000000">MIDRaw/CrateParameters.h</text>
</a>
</g>
</g>
<!-- Node0&#45;&gt;Node13 -->
<g id="edge15" class="edge">
<title>Node0&#45;&gt;Node13</title>
<path fill="none" stroke="#191970" d="M759.6797,-238.5605C706.8353,-226.0402 643.6077,-211.0598 600.5995,-200.87"/>
<polygon fill="#191970" stroke="#191970" points="601.1989,-197.4152 590.6614,-198.5154 599.5851,-204.2266 601.1989,-197.4152"/>
</g>
<!-- Node15 -->
<g id="node16" class="node">
<title>Node15</title>
<g id="a_node16"><a xlink:href="../../de/d54/ELinkDecoder_8h.html" target="_top" xlink:title="MID e&#45;link decoder. ">
<polygon fill="none" stroke="#000000" points="1009.5,-179.5 1009.5,-198.5 1143.5,-198.5 1143.5,-179.5 1009.5,-179.5"/>
<text text-anchor="middle" x="1076.5" y="-186.5" font-family="Helvetica,sans-Serif" font-size="10.00" fill="#000000">MIDRaw/ELinkDecoder.h</text>
</a>
</g>
</g>
<!-- Node0&#45;&gt;Node15 -->
<g id="edge18" class="edge">
<title>Node0&#45;&gt;Node15</title>
<path fill="none" stroke="#191970" d="M935.6142,-235.4283C970.4358,-223.953 1009.7508,-210.9969 1037.9839,-201.6928"/>
<polygon fill="#191970" stroke="#191970" points="1039.0804,-205.0167 1047.4825,-198.5626 1036.8895,-198.3684 1039.0804,-205.0167"/>
</g>
<!-- Node16 -->
<g id="node17" class="node">
<title>Node16</title>
<g id="a_node17"><a xlink:href="../../d3/d4a/LocalBoardRO_8h.html" target="_top" xlink:title="Structure to store the FEE local board information. ">
<polygon fill="none" stroke="#000000" points="643.5,-179.5 643.5,-198.5 779.5,-198.5 779.5,-179.5 643.5,-179.5"/>
<text text-anchor="middle" x="711.5" y="-186.5" font-family="Helvetica,sans-Serif" font-size="10.00" fill="#000000">MIDRaw/LocalBoardRO.h</text>
</a>
</g>
</g>
<!-- Node0&#45;&gt;Node16 -->
<g id="edge21" class="edge">
<title>Node0&#45;&gt;Node16</title>
<path fill="none" stroke="#191970" d="M804.1517,-235.3258C782.3228,-224.4114 757.8463,-212.1731 739.535,-203.0175"/>
<polygon fill="#191970" stroke="#191970" points="741.0776,-199.8757 730.568,-198.534 737.947,-206.1367 741.0776,-199.8757"/>
</g>
<!-- Node17 -->
<g id="node18" class="node">
<title>Node17</title>
<g id="a_node18"><a xlink:href="../../db/d21/MUON_2MID_2Raw_2include_2MIDRaw_2RawBuffer_8h.html" target="_top" xlink:title="Handler of the RAW buffer. ">
<polygon fill="none" stroke="#000000" points="797.5,-179.5 797.5,-198.5 915.5,-198.5 915.5,-179.5 797.5,-179.5"/>
<text text-anchor="middle" x="856.5" y="-186.5" font-family="Helvetica,sans-Serif" font-size="10.00" fill="#000000">MIDRaw/RawBuffer.h</text>
</a>
</g>
</g>
<!-- Node0&#45;&gt;Node17 -->
<g id="edge24" class="edge">
<title>Node0&#45;&gt;Node17</title>
<path fill="none" stroke="#191970" d="M856.5,-235.3258C856.5,-226.5142 856.5,-216.8397 856.5,-208.621"/>
<polygon fill="#191970" stroke="#191970" points="860.0001,-208.534 856.5,-198.534 853.0001,-208.534 860.0001,-208.534"/>
</g>
<!-- Node5 -->
<g id="node6" class="node">
<title>Node5</title>
<g id="a_node6"><a xlink:href="../../d9/d80/InteractionRecord_8h.html" target="_top" xlink:title="CommonDataFormat/Interaction\lRecord.h">
<polygon fill="none" stroke="#000000" points="161.5,-112.5 161.5,-142.5 335.5,-142.5 335.5,-112.5 161.5,-112.5"/>
<text text-anchor="start" x="169.5" y="-130.5" font-family="Helvetica,sans-Serif" font-size="10.00" fill="#000000">CommonDataFormat/Interaction</text>
<text text-anchor="middle" x="248.5" y="-119.5" font-family="Helvetica,sans-Serif" font-size="10.00" fill="#000000">Record.h</text>
</a>
</g>
</g>
<!-- Node4&#45;&gt;Node5 -->
<g id="edge5" class="edge">
<title>Node4&#45;&gt;Node5</title>
<path fill="none" stroke="#191970" d="M230.7813,-179.3906C233.2812,-172.0692 236.8394,-161.6488 240.1121,-152.0647"/>
<polygon fill="#191970" stroke="#191970" points="243.4435,-153.1391 243.3628,-142.5446 236.8191,-150.8771 243.4435,-153.1391"/>
</g>
<!-- Node5&#45;&gt;Node1 -->
<g id="edge10" class="edge">
<title>Node5&#45;&gt;Node1</title>
<path fill="none" stroke="#191970" d="M335.5339,-115.7876C436.7748,-102.1632 599.0999,-80.3186 670.2065,-70.7496"/>
<polygon fill="#191970" stroke="#191970" points="670.9716,-74.1782 680.4154,-69.3757 670.0379,-67.2408 670.9716,-74.1782"/>
</g>
<!-- Node6 -->
<g id="node7" class="node">
<title>Node6</title>
<g id="a_node7"><a xlink:href="../../d2/d45/GPUCommonRtypes_8h.html" target="_top" xlink:title="GPUCommonRtypes.h">
<polygon fill="none" stroke="#000000" points="274,-56.5 274,-75.5 399,-75.5 399,-56.5 274,-56.5"/>
<text text-anchor="middle" x="336.5" y="-63.5" font-family="Helvetica,sans-Serif" font-size="10.00" fill="#000000">GPUCommonRtypes.h</text>
</a>
</g>
</g>
<!-- Node5&#45;&gt;Node6 -->
<g id="edge6" class="edge">
<title>Node5&#45;&gt;Node6</title>
<path fill="none" stroke="#191970" d="M270.2528,-112.2977C283.6968,-102.9022 300.9011,-90.8787 314.4078,-81.4395"/>
<polygon fill="#191970" stroke="#191970" points="316.4811,-84.2605 322.6729,-75.6633 312.4712,-78.5228 316.4811,-84.2605"/>
</g>
<!-- Node8 -->
<g id="node9" class="node">
<title>Node8</title>
<polygon fill="none" stroke="#bfbfbf" points="417,-56.5 417,-75.5 466,-75.5 466,-56.5 417,-56.5"/>
<text text-anchor="middle" x="441.5" y="-63.5" font-family="Helvetica,sans-Serif" font-size="10.00" fill="#000000">iosfwd</text>
</g>
<!-- Node5&#45;&gt;Node8 -->
<g id="edge8" class="edge">
<title>Node5&#45;&gt;Node8</title>
<path fill="none" stroke="#191970" d="M295.7131,-112.4554C330.1031,-101.4969 375.9088,-86.9008 406.9302,-77.0158"/>
<polygon fill="#191970" stroke="#191970" points="408.3805,-80.2271 416.8458,-73.8561 406.2552,-73.5575 408.3805,-80.2271"/>
</g>
<!-- Node9 -->
<g id="node10" class="node">
<title>Node9</title>
<polygon fill="none" stroke="#bfbfbf" points="0,-56.5 0,-75.5 47,-75.5 47,-56.5 0,-56.5"/>
<text text-anchor="middle" x="23.5" y="-63.5" font-family="Helvetica,sans-Serif" font-size="10.00" fill="#000000">cmath</text>
</g>
<!-- Node5&#45;&gt;Node9 -->
<g id="edge9" class="edge">
<title>Node5&#45;&gt;Node9</title>
<path fill="none" stroke="#191970" d="M190.3926,-112.434C154.5534,-103.0214 107.4221,-90.429 57.0447,-76.0944"/>
<polygon fill="#191970" stroke="#191970" points="57.8428,-72.6825 47.2661,-73.3015 55.9204,-79.4133 57.8428,-72.6825"/>
</g>
<!-- Node10 -->
<g id="node11" class="node">
<title>Node10</title>
<g id="a_node11"><a xlink:href="../../d4/dc6/LHCConstants_8h.html" target="_top" xlink:title="Header to collect LHC related constants. ">
<polygon fill="none" stroke="#000000" points="65.5,-56.5 65.5,-75.5 255.5,-75.5 255.5,-56.5 65.5,-56.5"/>
<text text-anchor="middle" x="160.5" y="-63.5" font-family="Helvetica,sans-Serif" font-size="10.00" fill="#000000">CommonConstants/LHCConstants.h</text>
</a>
</g>
</g>
<!-- Node5&#45;&gt;Node10 -->
<g id="edge11" class="edge">
<title>Node5&#45;&gt;Node10</title>
<path fill="none" stroke="#191970" d="M226.7472,-112.2977C213.3032,-102.9022 196.0989,-90.8787 182.5922,-81.4395"/>
<polygon fill="#191970" stroke="#191970" points="184.5288,-78.5228 174.3271,-75.6633 180.5189,-84.2605 184.5288,-78.5228"/>
</g>
<!-- Node7 -->
<g id="node8" class="node">
<title>Node7</title>
<polygon fill="none" stroke="#bfbfbf" points="307,-.5 307,-19.5 366,-19.5 366,-.5 307,-.5"/>
<text text-anchor="middle" x="336.5" y="-7.5" font-family="Helvetica,sans-Serif" font-size="10.00" fill="#000000">Rtypes.h</text>
</g>
<!-- Node6&#45;&gt;Node7 -->
<g id="edge7" class="edge">
<title>Node6&#45;&gt;Node7</title>
<path fill="none" stroke="#191970" d="M336.5,-56.2455C336.5,-48.9382 336.5,-38.6944 336.5,-29.7046"/>
<polygon fill="#191970" stroke="#191970" points="340.0001,-29.6426 336.5,-19.6427 333.0001,-29.6427 340.0001,-29.6426"/>
</g>
<!-- Node11&#45;&gt;Node1 -->
<g id="edge13" class="edge">
<title>Node11&#45;&gt;Node1</title>
<path fill="none" stroke="#191970" d="M410.4509,-179.2998C439.7776,-163.7089 500.059,-132.727 553.5,-112 592.7606,-96.7728 639.279,-83.3414 670.4199,-74.9831"/>
<polygon fill="#191970" stroke="#191970" points="671.5897,-78.294 680.3585,-72.3478 669.7955,-71.5278 671.5897,-78.294"/>
</g>
<!-- Node12 -->
<g id="node13" class="node">
<title>Node12</title>
<polygon fill="none" stroke="#bfbfbf" points="373.5,-118 373.5,-137 411.5,-137 411.5,-118 373.5,-118"/>
<text text-anchor="middle" x="392.5" y="-125" font-family="Helvetica,sans-Serif" font-size="10.00" fill="#000000">map</text>
</g>
<!-- Node11&#45;&gt;Node12 -->
<g id="edge14" class="edge">
<title>Node11&#45;&gt;Node12</title>
<path fill="none" stroke="#191970" d="M392.5,-179.3906C392.5,-170.8657 392.5,-158.1392 392.5,-147.4235"/>
<polygon fill="#191970" stroke="#191970" points="396.0001,-147.2448 392.5,-137.2449 389.0001,-147.2449 396.0001,-147.2448"/>
</g>
<!-- Node13&#45;&gt;Node1 -->
<g id="edge16" class="edge">
<title>Node13&#45;&gt;Node1</title>
<path fill="none" stroke="#191970" d="M550.6829,-179.3441C551.5094,-163.2522 555.4721,-130.8591 573.5,-112 599.0012,-85.323 640.7839,-74.1078 670.5065,-69.3984"/>
<polygon fill="#191970" stroke="#191970" points="671.0589,-72.8552 680.4702,-67.9893 670.0786,-65.9242 671.0589,-72.8552"/>
</g>
<!-- Node14 -->
<g id="node15" class="node">
<title>Node14</title>
<polygon fill="none" stroke="#bfbfbf" points="582.5,-118 582.5,-137 624.5,-137 624.5,-118 582.5,-118"/>
<text text-anchor="middle" x="603.5" y="-125" font-family="Helvetica,sans-Serif" font-size="10.00" fill="#000000">array</text>
</g>
<!-- Node13&#45;&gt;Node14 -->
<g id="edge17" class="edge">
<title>Node13&#45;&gt;Node14</title>
<path fill="none" stroke="#191970" d="M558.7813,-179.3906C566.6693,-170.2376 578.7314,-156.2409 588.3412,-145.09"/>
<polygon fill="#191970" stroke="#191970" points="591.2251,-147.1049 595.102,-137.2449 585.9225,-142.5352 591.2251,-147.1049"/>
</g>
<!-- Node15&#45;&gt;Node1 -->
<g id="edge19" class="edge">
<title>Node15&#45;&gt;Node1</title>
<path fill="none" stroke="#191970" d="M1071.766,-179.252C1063.0257,-162.4112 1042.6448,-128.1273 1014.5,-112 968.3962,-85.582 811.8459,-72.6562 740.9288,-68.0454"/>
<polygon fill="#191970" stroke="#191970" points="740.9114,-64.5374 730.7108,-67.4003 740.4704,-71.5235 740.9114,-64.5374"/>
</g>
<!-- Node15&#45;&gt;Node2 -->
<g id="edge20" class="edge">
<title>Node15&#45;&gt;Node2</title>
<path fill="none" stroke="#191970" d="M1061.6563,-179.3906C1046.4582,-169.5519 1022.6152,-154.1167 1004.8794,-142.6351"/>
<polygon fill="#191970" stroke="#191970" points="1006.5361,-139.5382 996.2395,-137.0419 1002.732,-145.4144 1006.5361,-139.5382"/>
</g>
<!-- Node16&#45;&gt;Node1 -->
<g id="edge22" class="edge">
<title>Node16&#45;&gt;Node1</title>
<path fill="none" stroke="#191970" d="M699.76,-179.4549C690.369,-171.0029 677.9091,-157.7442 672.5,-143 667.7547,-130.0652 668.2819,-125.1162 672.5,-112 675.8946,-101.4445 682.7058,-91.2592 689.2631,-83.1676"/>
<polygon fill="#191970" stroke="#191970" points="691.947,-85.4149 695.8508,-75.5654 686.6569,-80.8307 691.947,-85.4149"/>
</g>
<!-- Node16&#45;&gt;Node14 -->
<g id="edge23" class="edge">
<title>Node16&#45;&gt;Node14</title>
<path fill="none" stroke="#191970" d="M694.625,-179.3906C677.0302,-169.3713 649.2434,-153.5483 628.9759,-142.0071"/>
<polygon fill="#191970" stroke="#191970" points="630.6783,-138.9489 620.2565,-137.0419 627.2144,-145.0318 630.6783,-138.9489"/>
</g>
<!-- Node17&#45;&gt;Node1 -->
<g id="edge25" class="edge">
<title>Node17&#45;&gt;Node1</title>
<path fill="none" stroke="#191970" d="M857.1761,-179.3963C857.7605,-163.3814 856.5473,-131.0987 839.5,-112 826.1579,-97.0524 775.5272,-82.4999 740.4723,-73.8935"/>
<polygon fill="#191970" stroke="#191970" points="741.1381,-70.4539 730.5974,-71.5239 739.5047,-77.2607 741.1381,-70.4539"/>
</g>
<!-- Node17&#45;&gt;Node2 -->
<g id="edge26" class="edge">
<title>Node17&#45;&gt;Node2</title>
<path fill="none" stroke="#191970" d="M876.0313,-179.3906C896.6708,-169.2359 929.4276,-153.1196 952.9602,-141.5416"/>
<polygon fill="#191970" stroke="#191970" points="954.6782,-144.5971 962.1059,-137.0419 951.588,-138.3161 954.6782,-144.5971"/>
</g>
<!-- Node17&#45;&gt;Node3 -->
<g id="edge27" class="edge">
<title>Node17&#45;&gt;Node3</title>
<path fill="none" stroke="#191970" d="M865.25,-179.3906C873.6662,-170.1478 886.5797,-155.966 896.781,-144.7628"/>
<polygon fill="#191970" stroke="#191970" points="899.4818,-146.9953 903.6266,-137.2449 894.306,-142.2824 899.4818,-146.9953"/>
</g>
<!-- Node18 -->
<g id="node19" class="node">
<title>Node18</title>
<g id="a_node19"><a xlink:href="../../d4/d78/DataFormats_2Headers_2include_2Headers_2RAWDataHeader_8h.html" target="_top" xlink:title="Headers/RAWDataHeader.h">
<polygon fill="none" stroke="#000000" points="682,-118 682,-137 831,-137 831,-118 682,-118"/>
<text text-anchor="middle" x="756.5" y="-125" font-family="Helvetica,sans-Serif" font-size="10.00" fill="#000000">Headers/RAWDataHeader.h</text>
</a>
</g>
</g>
<!-- Node17&#45;&gt;Node18 -->
<g id="edge28" class="edge">
<title>Node17&#45;&gt;Node18</title>
<path fill="none" stroke="#191970" d="M840.875,-179.3906C824.7302,-169.4616 799.3178,-153.833 780.5977,-142.3201"/>
<polygon fill="#191970" stroke="#191970" points="782.3669,-139.2992 772.0153,-137.0419 778.6998,-145.2619 782.3669,-139.2992"/>
</g>
<!-- Node18&#45;&gt;Node1 -->
<g id="edge29" class="edge">
<title>Node18&#45;&gt;Node1</title>
<path fill="none" stroke="#191970" d="M748.5313,-117.8906C740.9409,-108.7376 729.3339,-94.7409 720.0868,-83.59"/>
<polygon fill="#191970" stroke="#191970" points="722.6587,-81.2083 713.5811,-75.7449 717.2703,-85.6766 722.6587,-81.2083"/>
</g>
</g>
</svg>
