<?xml version="1.0" encoding="UTF-8" standalone="no"?>
<!DOCTYPE svg PUBLIC "-//W3C//DTD SVG 1.1//EN"
 "http://www.w3.org/Graphics/SVG/1.1/DTD/svg11.dtd">
<!-- Generated by graphviz version 2.40.1 (20161225.0304)
 -->
<!-- Title: /home/travis/build/AliceO2Group/AliceO2/Analysis/DataModel/src/dumpDataModel.cxx Pages: 1 -->
<!--zoomable 397 -->
<svg id="main" version="1.1" xmlns="http://www.w3.org/2000/svg" xmlns:xlink="http://www.w3.org/1999/xlink" xml:space="preserve" onload="init(evt)">
<style type="text/css"><![CDATA[
.edge:hover path { stroke: red; }
.edge:hover polygon { stroke: red; fill: red; }
]]></style>
<script type="text/javascript"><![CDATA[
var edges = document.getElementsByTagName('g');
if (edges && edges.length) {
  for (var i=0;i<edges.length;i++) {
    if (edges[i].id.substr(0,4)=='edge') {
      edges[i].setAttribute('class','edge');
    }
  }
}
]]></script>
        <defs>
                <circle id="rim" cx="0" cy="0" r="7"/>
                <circle id="rim2" cx="0" cy="0" r="3.5"/>
                <g id="zoomPlus">
                        <use xlink:href="#rim" fill="#404040">
                                <set attributeName="fill" to="#808080" begin="zoomplus.mouseover" end="zoomplus.mouseout"/>
                        </use>
                        <path d="M-4,0h8M0,-4v8" fill="none" stroke="white" stroke-width="1.5" pointer-events="none"/>
                </g>
                <g id="zoomMin">
                        <use xlink:href="#rim" fill="#404040">
                                <set attributeName="fill" to="#808080" begin="zoomminus.mouseover" end="zoomminus.mouseout"/>
                        </use>
                        <path d="M-4,0h8" fill="none" stroke="white" stroke-width="1.5" pointer-events="none"/>
                </g>
                <g id="dirArrow">
                        <path fill="none" stroke="white" stroke-width="1.5" d="M0,-3.0v7 M-2.5,-0.5L0,-3.0L2.5,-0.5"/>
                </g>
               <g id="resetDef">
                       <use xlink:href="#rim2" fill="#404040">
                               <set attributeName="fill" to="#808080" begin="reset.mouseover" end="reset.mouseout"/>
                       </use>
               </g>
        </defs>

<script type="text/javascript">
var viewWidth = 2445;
var viewHeight = 397;
var sectionId = 'dynsection-0';
</script>
<script xlink:href="../../svgpan.js"/>
<svg id="graph" class="graph">
<g id="viewport">
<title>/home/travis/build/AliceO2Group/AliceO2/Analysis/DataModel/src/dumpDataModel.cxx</title>
<!-- Node0 -->
<g id="node1" class="node">
<title>Node0</title>
<polygon fill="#bfbfbf" stroke="#000000" points="2007.5,-336.5 2007.5,-388.5 2141.5,-388.5 2141.5,-336.5 2007.5,-336.5"/>
<text text-anchor="start" x="2015.5" y="-376.5" font-family="Helvetica,sans-Serif" font-size="10.00" fill="#000000">/home/travis/build</text>
<text text-anchor="start" x="2015.5" y="-365.5" font-family="Helvetica,sans-Serif" font-size="10.00" fill="#000000">/AliceO2Group/AliceO2</text>
<text text-anchor="start" x="2015.5" y="-354.5" font-family="Helvetica,sans-Serif" font-size="10.00" fill="#000000">/Analysis/DataModel/src</text>
<text text-anchor="middle" x="2074.5" y="-343.5" font-family="Helvetica,sans-Serif" font-size="10.00" fill="#000000">/dumpDataModel.cxx</text>
</g>
<!-- Node1 -->
<g id="node2" class="node">
<title>Node1</title>
<g id="a_node2"><a xlink:href="../../d2/d8c/AnalysisDataModel_8h.html" target="_top" xlink:title="Framework/AnalysisDataModel.h">
<polygon fill="none" stroke="#000000" points="1916.5,-224.5 1916.5,-243.5 2092.5,-243.5 2092.5,-224.5 1916.5,-224.5"/>
<text text-anchor="middle" x="2004.5" y="-231.5" font-family="Helvetica,sans-Serif" font-size="10.00" fill="#000000">Framework/AnalysisDataModel.h</text>
</a>
</g>
</g>
<!-- Node0&#45;&gt;Node1 -->
<g id="edge1" class="edge">
<title>Node0&#45;&gt;Node1</title>
<path fill="none" stroke="#191970" d="M2072.1433,-336.4954C2069.6833,-319.4732 2064.6747,-297.2688 2054.5,-280 2047.6459,-268.3671 2036.9245,-257.9402 2027.1646,-249.9667"/>
<polygon fill="#191970" stroke="#191970" points="2029.0092,-246.9688 2018.9567,-243.6226 2024.7283,-252.5073 2029.0092,-246.9688"/>
</g>
<!-- Node43 -->
<g id="node44" class="node">
<title>Node43</title>
<g id="a_node44"><a xlink:href="../../dd/ddf/SecondaryVertex_8h.html" target="_top" xlink:title="Analysis/SecondaryVertex.h">
<polygon fill="none" stroke="#000000" points="1792.5,-280.5 1792.5,-299.5 1944.5,-299.5 1944.5,-280.5 1792.5,-280.5"/>
<text text-anchor="middle" x="1868.5" y="-287.5" font-family="Helvetica,sans-Serif" font-size="10.00" fill="#000000">Analysis/SecondaryVertex.h</text>
</a>
</g>
</g>
<!-- Node0&#45;&gt;Node43 -->
<g id="edge54" class="edge">
<title>Node0&#45;&gt;Node43</title>
<path fill="none" stroke="#191970" d="M2007.3329,-338.8611C1973.3037,-326.8848 1933.3133,-312.8105 1905.0148,-302.8511"/>
<polygon fill="#191970" stroke="#191970" points="1906.1167,-299.5285 1895.5218,-299.5101 1903.7928,-306.1315 1906.1167,-299.5285"/>
</g>
<!-- Node44 -->
<g id="node45" class="node">
<title>Node44</title>
<g id="a_node45"><a xlink:href="../../da/db7/Jet_8h.html" target="_top" xlink:title="Analysis/Jet.h">
<polygon fill="none" stroke="#000000" points="1963,-280.5 1963,-299.5 2046,-299.5 2046,-280.5 1963,-280.5"/>
<text text-anchor="middle" x="2004.5" y="-287.5" font-family="Helvetica,sans-Serif" font-size="10.00" fill="#000000">Analysis/Jet.h</text>
</a>
</g>
</g>
<!-- Node0&#45;&gt;Node44 -->
<g id="edge56" class="edge">
<title>Node0&#45;&gt;Node44</title>
<path fill="none" stroke="#191970" d="M2049.2284,-336.3258C2039.7538,-326.5128 2029.246,-315.6298 2020.797,-306.879"/>
<polygon fill="#191970" stroke="#191970" points="2023.1691,-304.297 2013.7052,-299.534 2018.1333,-309.1591 2023.1691,-304.297"/>
</g>
<!-- Node45 -->
<g id="node46" class="node">
<title>Node45</title>
<polygon fill="none" stroke="#bfbfbf" points="2103,-280.5 2103,-299.5 2174,-299.5 2174,-280.5 2103,-280.5"/>
<text text-anchor="middle" x="2138.5" y="-287.5" font-family="Helvetica,sans-Serif" font-size="10.00" fill="#000000">fmt/printf.h</text>
</g>
<!-- Node0&#45;&gt;Node45 -->
<g id="edge58" class="edge">
<title>Node0&#45;&gt;Node45</title>
<path fill="none" stroke="#191970" d="M2097.6055,-336.3258C2106.1796,-326.613 2115.6791,-315.8518 2123.3628,-307.1476"/>
<polygon fill="#191970" stroke="#191970" points="2126.0897,-309.3472 2130.0838,-299.534 2120.8419,-304.7146 2126.0897,-309.3472"/>
</g>
<!-- Node46 -->
<g id="node47" class="node">
<title>Node46</title>
<polygon fill="none" stroke="#bfbfbf" points="2192.5,-280.5 2192.5,-299.5 2230.5,-299.5 2230.5,-280.5 2192.5,-280.5"/>
<text text-anchor="middle" x="2211.5" y="-287.5" font-family="Helvetica,sans-Serif" font-size="10.00" fill="#000000">map</text>
</g>
<!-- Node0&#45;&gt;Node46 -->
<g id="edge59" class="edge">
<title>Node0&#45;&gt;Node46</title>
<path fill="none" stroke="#191970" d="M2123.9601,-336.3258C2144.3955,-325.5115 2167.2866,-313.3976 2184.5341,-304.2703"/>
<polygon fill="#191970" stroke="#191970" points="2186.2825,-307.305 2193.484,-299.534 2183.0082,-301.1179 2186.2825,-307.305"/>
</g>
<!-- Node2 -->
<g id="node3" class="node">
<title>Node2</title>
<g id="a_node3"><a xlink:href="../../de/d33/ASoA_8h.html" target="_top" xlink:title="Framework/ASoA.h">
<polygon fill="none" stroke="#000000" points="897.5,-168.5 897.5,-187.5 1005.5,-187.5 1005.5,-168.5 897.5,-168.5"/>
<text text-anchor="middle" x="951.5" y="-175.5" font-family="Helvetica,sans-Serif" font-size="10.00" fill="#000000">Framework/ASoA.h</text>
</a>
</g>
</g>
<!-- Node1&#45;&gt;Node2 -->
<g id="edge2" class="edge">
<title>Node1&#45;&gt;Node2</title>
<path fill="none" stroke="#191970" d="M1916.0816,-229.2978C1708.9585,-218.2827 1196.2586,-191.0166 1015.6843,-181.4134"/>
<polygon fill="#191970" stroke="#191970" points="1015.72,-177.9105 1005.5482,-180.8744 1015.3482,-184.9006 1015.72,-177.9105"/>
</g>
<!-- Node33 -->
<g id="node34" class="node">
<title>Node33</title>
<g id="a_node34"><a xlink:href="../../d9/d52/Common_2MathUtils_2include_2MathUtils_2Utils_8h.html" target="_top" xlink:title="MathUtils/Utils.h">
<polygon fill="none" stroke="#000000" points="2017.5,-168.5 2017.5,-187.5 2115.5,-187.5 2115.5,-168.5 2017.5,-168.5"/>
<text text-anchor="middle" x="2066.5" y="-175.5" font-family="Helvetica,sans-Serif" font-size="10.00" fill="#000000">MathUtils/Utils.h</text>
</a>
</g>
</g>
<!-- Node1&#45;&gt;Node33 -->
<g id="edge41" class="edge">
<title>Node1&#45;&gt;Node33</title>
<path fill="none" stroke="#191970" d="M2015.2996,-224.2455C2024.3678,-216.0549 2037.5206,-204.1749 2048.2245,-194.5069"/>
<polygon fill="#191970" stroke="#191970" points="2050.7491,-196.9429 2055.8242,-187.6427 2046.0571,-191.7482 2050.7491,-196.9429"/>
</g>
<!-- Node35 -->
<g id="node36" class="node">
<title>Node35</title>
<polygon fill="none" stroke="#bfbfbf" points="1963,-56.5 1963,-75.5 2010,-75.5 2010,-56.5 1963,-56.5"/>
<text text-anchor="middle" x="1986.5" y="-63.5" font-family="Helvetica,sans-Serif" font-size="10.00" fill="#000000">cmath</text>
</g>
<!-- Node1&#45;&gt;Node35 -->
<g id="edge52" class="edge">
<title>Node1&#45;&gt;Node35</title>
<path fill="none" stroke="#191970" d="M2002.4256,-224.4992C1998.6141,-206.5395 1990.6032,-166.329 1987.5,-132 1986.1116,-116.6404 1985.9066,-99.1903 1986.0245,-86.0923"/>
<polygon fill="#191970" stroke="#191970" points="1989.5276,-85.9194 1986.1895,-75.8642 1982.5285,-85.8064 1989.5276,-85.9194"/>
</g>
<!-- Node42 -->
<g id="node43" class="node">
<title>Node42</title>
<g id="a_node43"><a xlink:href="../../d2/d12/DataTypes_8h.html" target="_top" xlink:title="Framework/DataTypes.h">
<polygon fill="none" stroke="#000000" points="2133.5,-168.5 2133.5,-187.5 2267.5,-187.5 2267.5,-168.5 2133.5,-168.5"/>
<text text-anchor="middle" x="2200.5" y="-175.5" font-family="Helvetica,sans-Serif" font-size="10.00" fill="#000000">Framework/DataTypes.h</text>
</a>
</g>
</g>
<!-- Node1&#45;&gt;Node42 -->
<g id="edge53" class="edge">
<title>Node1&#45;&gt;Node42</title>
<path fill="none" stroke="#191970" d="M2038.1936,-224.3733C2071.2087,-214.9404 2121.6573,-200.5265 2157.5386,-190.2747"/>
<polygon fill="#191970" stroke="#191970" points="2158.5924,-193.6137 2167.2461,-187.5011 2156.6693,-186.8831 2158.5924,-193.6137"/>
</g>
<!-- Node3 -->
<g id="node4" class="node">
<title>Node3</title>
<g id="a_node4"><a xlink:href="../../dd/dce/Pack_8h.html" target="_top" xlink:title="Framework/Pack.h">
<polygon fill="none" stroke="#000000" points="83,-56.5 83,-75.5 188,-75.5 188,-56.5 83,-56.5"/>
<text text-anchor="middle" x="135.5" y="-63.5" font-family="Helvetica,sans-Serif" font-size="10.00" fill="#000000">Framework/Pack.h</text>
</a>
</g>
</g>
<!-- Node2&#45;&gt;Node3 -->
<g id="edge3" class="edge">
<title>Node2&#45;&gt;Node3</title>
<path fill="none" stroke="#191970" d="M897.312,-173.1021C847.8622,-167.3541 773.4242,-155.4555 712.5,-132 696.4951,-125.8382 695.8341,-117.227 679.5,-112 477.9985,-47.5186 412.8159,-99.5006 198.2237,-75.9573"/>
<polygon fill="#191970" stroke="#191970" points="198.5544,-72.4724 188.2224,-74.8176 197.7617,-79.4274 198.5544,-72.4724"/>
</g>
<!-- Node7 -->
<g id="node8" class="node">
<title>Node7</title>
<g id="a_node8"><a xlink:href="../../d1/d00/CheckTypes_8h.html" target="_top" xlink:title="Framework/CheckTypes.h">
<polygon fill="none" stroke="#000000" points="206.5,-56.5 206.5,-75.5 346.5,-75.5 346.5,-56.5 206.5,-56.5"/>
<text text-anchor="middle" x="276.5" y="-63.5" font-family="Helvetica,sans-Serif" font-size="10.00" fill="#000000">Framework/CheckTypes.h</text>
</a>
</g>
</g>
<!-- Node2&#45;&gt;Node7 -->
<g id="edge7" class="edge">
<title>Node2&#45;&gt;Node7</title>
<path fill="none" stroke="#191970" d="M897.0744,-169.4946C855.9953,-162.1359 798.6719,-149.8427 750.5,-132 732.603,-125.371 730.7747,-117.503 712.5,-112 562.9331,-66.9615 515.8761,-92.8975 356.8387,-76.0929"/>
<polygon fill="#191970" stroke="#191970" points="357.0223,-72.5921 346.7001,-74.9801 356.2585,-79.5503 357.0223,-72.5921"/>
</g>
<!-- Node8 -->
<g id="node9" class="node">
<title>Node8</title>
<g id="a_node9"><a xlink:href="../../de/d9b/FunctionalHelpers_8h.html" target="_top" xlink:title="Framework/FunctionalHelpers.h">
<polygon fill="none" stroke="#000000" points="500.5,-112.5 500.5,-131.5 670.5,-131.5 670.5,-112.5 500.5,-112.5"/>
<text text-anchor="middle" x="585.5" y="-119.5" font-family="Helvetica,sans-Serif" font-size="10.00" fill="#000000">Framework/FunctionalHelpers.h</text>
</a>
</g>
</g>
<!-- Node2&#45;&gt;Node8 -->
<g id="edge8" class="edge">
<title>Node2&#45;&gt;Node8</title>
<path fill="none" stroke="#191970" d="M897.4954,-169.737C834.0046,-160.0226 728.3647,-143.8591 657.8385,-133.0682"/>
<polygon fill="#191970" stroke="#191970" points="658.1114,-129.5693 647.697,-131.5165 657.0526,-136.4888 658.1114,-129.5693"/>
</g>
<!-- Node10 -->
<g id="node11" class="node">
<title>Node10</title>
<g id="a_node11"><a xlink:href="../../d9/de8/CompilerBuiltins_8h.html" target="_top" xlink:title="Framework/CompilerBuiltins.h">
<polygon fill="none" stroke="#000000" points="364.5,-56.5 364.5,-75.5 528.5,-75.5 528.5,-56.5 364.5,-56.5"/>
<text text-anchor="middle" x="446.5" y="-63.5" font-family="Helvetica,sans-Serif" font-size="10.00" fill="#000000">Framework/CompilerBuiltins.h</text>
</a>
</g>
</g>
<!-- Node2&#45;&gt;Node10 -->
<g id="edge11" class="edge">
<title>Node2&#45;&gt;Node10</title>
<path fill="none" stroke="#191970" d="M912.652,-168.4546C880.336,-160.0962 833.3497,-146.9691 793.5,-132 773.769,-124.5883 770.6803,-118.0829 750.5,-112 711.6949,-100.3031 611.9567,-86.2969 537.2303,-76.8369"/>
<polygon fill="#191970" stroke="#191970" points="537.2196,-73.3081 526.861,-75.533 536.3461,-80.2534 537.2196,-73.3081"/>
</g>
<!-- Node11 -->
<g id="node12" class="node">
<title>Node11</title>
<g id="a_node12"><a xlink:href="../../db/d31/Traits_8h.html" target="_top" xlink:title="Framework/Traits.h">
<polygon fill="none" stroke="#000000" points="1390,-112.5 1390,-131.5 1499,-131.5 1499,-112.5 1390,-112.5"/>
<text text-anchor="middle" x="1444.5" y="-119.5" font-family="Helvetica,sans-Serif" font-size="10.00" fill="#000000">Framework/Traits.h</text>
</a>
</g>
</g>
<!-- Node2&#45;&gt;Node11 -->
<g id="edge12" class="edge">
<title>Node2&#45;&gt;Node11</title>
<path fill="none" stroke="#191970" d="M1005.7871,-172.7392C1086.5083,-164.7744 1242.9117,-148.7946 1375.5,-132 1376.9635,-131.8146 1378.4441,-131.6242 1379.9367,-131.4297"/>
<polygon fill="#191970" stroke="#191970" points="1380.4636,-134.8905 1389.9113,-130.0957 1379.5356,-127.9523 1380.4636,-134.8905"/>
</g>
<!-- Node13 -->
<g id="node14" class="node">
<title>Node13</title>
<g id="a_node14"><a xlink:href="../../d0/d91/Expressions_8h.html" target="_top" xlink:title="Framework/Expressions.h">
<polygon fill="none" stroke="#000000" points="960,-112.5 960,-131.5 1101,-131.5 1101,-112.5 960,-112.5"/>
<text text-anchor="middle" x="1030.5" y="-119.5" font-family="Helvetica,sans-Serif" font-size="10.00" fill="#000000">Framework/Expressions.h</text>
</a>
</g>
</g>
<!-- Node2&#45;&gt;Node13 -->
<g id="edge14" class="edge">
<title>Node2&#45;&gt;Node13</title>
<path fill="none" stroke="#191970" d="M965.2607,-168.2455C977.1552,-159.814 994.565,-147.4729 1008.4085,-137.6598"/>
<polygon fill="#191970" stroke="#191970" points="1010.7628,-140.2811 1016.8969,-131.6427 1006.7146,-134.5704 1010.7628,-140.2811"/>
</g>
<!-- Node19 -->
<g id="node20" class="node">
<title>Node19</title>
<polygon fill="none" stroke="#bfbfbf" points="1612,-56.5 1612,-75.5 1693,-75.5 1693,-56.5 1612,-56.5"/>
<text text-anchor="middle" x="1652.5" y="-63.5" font-family="Helvetica,sans-Serif" font-size="10.00" fill="#000000">arrow/table.h</text>
</g>
<!-- Node2&#45;&gt;Node19 -->
<g id="edge34" class="edge">
<title>Node2&#45;&gt;Node19</title>
<path fill="none" stroke="#191970" d="M992.1464,-168.4423C1024.4872,-160.298 1070.6094,-147.4694 1109.5,-132 1127.6003,-124.8003 1129.7602,-117.3176 1148.5,-112 1340.0858,-57.6359 1400.0904,-102.4039 1601.8798,-75.8961"/>
<polygon fill="#191970" stroke="#191970" points="1602.4706,-79.3481 1611.9093,-74.5356 1601.5296,-72.4116 1602.4706,-79.3481"/>
</g>
<!-- Node20 -->
<g id="node21" class="node">
<title>Node20</title>
<polygon fill="none" stroke="#bfbfbf" points="1711,-56.5 1711,-75.5 1858,-75.5 1858,-56.5 1711,-56.5"/>
<text text-anchor="middle" x="1784.5" y="-63.5" font-family="Helvetica,sans-Serif" font-size="10.00" fill="#000000">gandiva/selection_vector.h</text>
</g>
<!-- Node2&#45;&gt;Node20 -->
<g id="edge39" class="edge">
<title>Node2&#45;&gt;Node20</title>
<path fill="none" stroke="#191970" d="M1005.5163,-174.1012C1097.5764,-167.0475 1280.8908,-151.1115 1342.5,-132 1360.7284,-126.3455 1362.2564,-117.6051 1380.5,-112 1514.648,-70.7852 1557.0024,-91.5972 1700.6714,-76.0495"/>
<polygon fill="#191970" stroke="#191970" points="1701.1906,-79.5132 1710.7375,-74.919 1700.4093,-72.557 1701.1906,-79.5132"/>
</g>
<!-- Node26 -->
<g id="node27" class="node">
<title>Node26</title>
<g id="a_node27"><a xlink:href="../../d1/dc1/ArrowCompatibility_8h.html" target="_top" xlink:title="Framework/ArrowCompatibility.h">
<polygon fill="none" stroke="#000000" points="1157.5,-112.5 1157.5,-131.5 1333.5,-131.5 1333.5,-112.5 1157.5,-112.5"/>
<text text-anchor="middle" x="1245.5" y="-119.5" font-family="Helvetica,sans-Serif" font-size="10.00" fill="#000000">Framework/ArrowCompatibility.h</text>
</a>
</g>
</g>
<!-- Node2&#45;&gt;Node26 -->
<g id="edge30" class="edge">
<title>Node2&#45;&gt;Node26</title>
<path fill="none" stroke="#191970" d="M1001.7063,-168.4369C1052.5507,-158.7522 1131.206,-143.7703 1185.3513,-133.4569"/>
<polygon fill="#191970" stroke="#191970" points="1186.3323,-136.8331 1195.5007,-131.5237 1185.0224,-129.9567 1186.3323,-136.8331"/>
</g>
<!-- Node27 -->
<g id="node28" class="node">
<title>Node27</title>
<g id="a_node28"><a xlink:href="../../d4/de7/ArrowTypes_8h.html" target="_top" xlink:title="Framework/ArrowTypes.h">
<polygon fill="none" stroke="#000000" points="803,-112.5 803,-131.5 942,-131.5 942,-112.5 803,-112.5"/>
<text text-anchor="middle" x="872.5" y="-119.5" font-family="Helvetica,sans-Serif" font-size="10.00" fill="#000000">Framework/ArrowTypes.h</text>
</a>
</g>
</g>
<!-- Node2&#45;&gt;Node27 -->
<g id="edge32" class="edge">
<title>Node2&#45;&gt;Node27</title>
<path fill="none" stroke="#191970" d="M937.7393,-168.2455C925.8448,-159.814 908.435,-147.4729 894.5915,-137.6598"/>
<polygon fill="#191970" stroke="#191970" points="896.2854,-134.5704 886.1031,-131.6427 892.2372,-140.2811 896.2854,-134.5704"/>
</g>
<!-- Node28 -->
<g id="node29" class="node">
<title>Node28</title>
<polygon fill="none" stroke="#bfbfbf" points="1517.5,-112.5 1517.5,-131.5 1597.5,-131.5 1597.5,-112.5 1517.5,-112.5"/>
<text text-anchor="middle" x="1557.5" y="-119.5" font-family="Helvetica,sans-Serif" font-size="10.00" fill="#000000">arrow/array.h</text>
</g>
<!-- Node2&#45;&gt;Node28 -->
<g id="edge35" class="edge">
<title>Node2&#45;&gt;Node28</title>
<path fill="none" stroke="#191970" d="M1005.793,-175.5818C1105.5479,-170.6789 1324.5511,-157.776 1507.5,-132 1507.6014,-131.9857 1507.7028,-131.9714 1507.8044,-131.9569"/>
<polygon fill="#191970" stroke="#191970" points="1508.1221,-135.4503 1517.4523,-130.4304 1507.0281,-128.5363 1508.1221,-135.4503"/>
</g>
<!-- Node29 -->
<g id="node30" class="node">
<title>Node29</title>
<polygon fill="none" stroke="#bfbfbf" points="1615.5,-112.5 1615.5,-131.5 1725.5,-131.5 1725.5,-112.5 1615.5,-112.5"/>
<text text-anchor="middle" x="1670.5" y="-119.5" font-family="Helvetica,sans-Serif" font-size="10.00" fill="#000000">arrow/util/variant.h</text>
</g>
<!-- Node2&#45;&gt;Node29 -->
<g id="edge36" class="edge">
<title>Node2&#45;&gt;Node29</title>
<path fill="none" stroke="#191970" d="M1005.5579,-175.7586C1116.1577,-170.8357 1376.4282,-157.5249 1605.2006,-132.06"/>
<polygon fill="#191970" stroke="#191970" points="1605.8354,-135.5108 1615.3821,-130.9162 1605.0538,-128.5546 1605.8354,-135.5108"/>
</g>
<!-- Node30 -->
<g id="node31" class="node">
<title>Node30</title>
<polygon fill="none" stroke="#bfbfbf" points="122,-112.5 122,-131.5 261,-131.5 261,-112.5 122,-112.5"/>
<text text-anchor="middle" x="191.5" y="-119.5" font-family="Helvetica,sans-Serif" font-size="10.00" fill="#000000">arrow/compute/context.h</text>
</g>
<!-- Node2&#45;&gt;Node30 -->
<g id="edge37" class="edge">
<title>Node2&#45;&gt;Node30</title>
<path fill="none" stroke="#191970" d="M897.4786,-175.4632C783.6626,-169.8786 510.6413,-155.2217 271.5008,-132.1487"/>
<polygon fill="#191970" stroke="#191970" points="271.5093,-128.6331 261.2176,-131.1493 270.8321,-135.6003 271.5093,-128.6331"/>
</g>
<!-- Node31 -->
<g id="node32" class="node">
<title>Node31</title>
<polygon fill="none" stroke="#bfbfbf" points="279,-112.5 279,-131.5 412,-131.5 412,-112.5 279,-112.5"/>
<text text-anchor="middle" x="345.5" y="-119.5" font-family="Helvetica,sans-Serif" font-size="10.00" fill="#000000">arrow/compute/kernel.h</text>
</g>
<!-- Node2&#45;&gt;Node31 -->
<g id="edge38" class="edge">
<title>Node2&#45;&gt;Node31</title>
<path fill="none" stroke="#191970" d="M897.2514,-174.0882C802.9953,-167.1172 602.6432,-151.53 422.4079,-132.0558"/>
<polygon fill="#191970" stroke="#191970" points="422.5277,-128.5482 412.208,-130.9471 421.7712,-135.5073 422.5277,-128.5482"/>
</g>
<!-- Node32 -->
<g id="node33" class="node">
<title>Node32</title>
<polygon fill="none" stroke="#bfbfbf" points="430.5,-112.5 430.5,-131.5 482.5,-131.5 482.5,-112.5 430.5,-112.5"/>
<text text-anchor="middle" x="456.5" y="-119.5" font-family="Helvetica,sans-Serif" font-size="10.00" fill="#000000">cassert</text>
</g>
<!-- Node2&#45;&gt;Node32 -->
<g id="edge40" class="edge">
<title>Node2&#45;&gt;Node32</title>
<path fill="none" stroke="#191970" d="M897.228,-175.7142C812.5847,-171.4624 643.9918,-160.239 492.6917,-131.9342"/>
<polygon fill="#191970" stroke="#191970" points="493.2296,-128.4738 482.752,-130.045 491.9225,-135.3507 493.2296,-128.4738"/>
</g>
<!-- Node4 -->
<g id="node5" class="node">
<title>Node4</title>
<polygon fill="none" stroke="#bfbfbf" points="177,-.5 177,-19.5 230,-19.5 230,-.5 177,-.5"/>
<text text-anchor="middle" x="203.5" y="-7.5" font-family="Helvetica,sans-Serif" font-size="10.00" fill="#000000">cstddef</text>
</g>
<!-- Node3&#45;&gt;Node4 -->
<g id="edge4" class="edge">
<title>Node3&#45;&gt;Node4</title>
<path fill="none" stroke="#191970" d="M147.3447,-56.2455C157.388,-47.9746 171.9995,-35.9416 183.8004,-26.2232"/>
<polygon fill="#191970" stroke="#191970" points="186.2967,-28.7015 191.791,-19.6427 181.8467,-23.298 186.2967,-28.7015"/>
</g>
<!-- Node5 -->
<g id="node6" class="node">
<title>Node5</title>
<polygon fill="none" stroke="#bfbfbf" points="49,-.5 49,-19.5 94,-19.5 94,-.5 49,-.5"/>
<text text-anchor="middle" x="71.5" y="-7.5" font-family="Helvetica,sans-Serif" font-size="10.00" fill="#000000">utility</text>
</g>
<!-- Node3&#45;&gt;Node5 -->
<g id="edge5" class="edge">
<title>Node3&#45;&gt;Node5</title>
<path fill="none" stroke="#191970" d="M124.3521,-56.2455C114.9913,-48.0549 101.4142,-36.1749 90.3651,-26.5069"/>
<polygon fill="#191970" stroke="#191970" points="92.3508,-23.5937 82.5202,-19.6427 87.7412,-28.8618 92.3508,-23.5937"/>
</g>
<!-- Node6 -->
<g id="node7" class="node">
<title>Node6</title>
<polygon fill="none" stroke="#bfbfbf" points="112.5,-.5 112.5,-19.5 158.5,-19.5 158.5,-.5 112.5,-.5"/>
<text text-anchor="middle" x="135.5" y="-7.5" font-family="Helvetica,sans-Serif" font-size="10.00" fill="#000000">cstdio</text>
</g>
<!-- Node3&#45;&gt;Node6 -->
<g id="edge6" class="edge">
<title>Node3&#45;&gt;Node6</title>
<path fill="none" stroke="#191970" d="M135.5,-56.2455C135.5,-48.9382 135.5,-38.6944 135.5,-29.7046"/>
<polygon fill="#191970" stroke="#191970" points="139.0001,-29.6426 135.5,-19.6427 132.0001,-29.6427 139.0001,-29.6426"/>
</g>
<!-- Node8&#45;&gt;Node3 -->
<g id="edge9" class="edge">
<title>Node8&#45;&gt;Node3</title>
<path fill="none" stroke="#191970" d="M500.2151,-112.9283C423.8187,-104.5626 308.4584,-91.3423 198.2096,-76.0511"/>
<polygon fill="#191970" stroke="#191970" points="198.6301,-72.576 188.2425,-74.661 197.6632,-79.5089 198.6301,-72.576"/>
</g>
<!-- Node9 -->
<g id="node10" class="node">
<title>Node9</title>
<polygon fill="none" stroke="#bfbfbf" points="0,-56.5 0,-75.5 65,-75.5 65,-56.5 0,-56.5"/>
<text text-anchor="middle" x="32.5" y="-63.5" font-family="Helvetica,sans-Serif" font-size="10.00" fill="#000000">functional</text>
</g>
<!-- Node8&#45;&gt;Node9 -->
<g id="edge10" class="edge">
<title>Node8&#45;&gt;Node9</title>
<path fill="none" stroke="#191970" d="M500.4534,-112.8752C497.4322,-112.5756 494.4405,-112.283 491.5,-112 309.1548,-94.4504 259.2503,-105.7665 75.0965,-76.0585"/>
<polygon fill="#191970" stroke="#191970" points="75.5142,-72.5805 65.0811,-74.4241 74.3867,-79.4891 75.5142,-72.5805"/>
</g>
<!-- Node12 -->
<g id="node13" class="node">
<title>Node12</title>
<polygon fill="none" stroke="#bfbfbf" points="1876,-56.5 1876,-75.5 1945,-75.5 1945,-56.5 1876,-56.5"/>
<text text-anchor="middle" x="1910.5" y="-63.5" font-family="Helvetica,sans-Serif" font-size="10.00" fill="#000000">type_traits</text>
</g>
<!-- Node11&#45;&gt;Node12 -->
<g id="edge13" class="edge">
<title>Node11&#45;&gt;Node12</title>
<path fill="none" stroke="#191970" d="M1499.2846,-113.2379C1502.3999,-112.8026 1505.4883,-112.3864 1508.5,-112 1663.8605,-92.0662 1706.9224,-101.3668 1865.8545,-75.9107"/>
<polygon fill="#191970" stroke="#191970" points="1866.6817,-79.3223 1875.9918,-74.2655 1865.5602,-72.4127 1866.6817,-79.3223"/>
</g>
<!-- Node13&#45;&gt;Node3 -->
<g id="edge17" class="edge">
<title>Node13&#45;&gt;Node3</title>
<path fill="none" stroke="#191970" d="M959.8608,-112.8723C956.6994,-112.5577 953.5679,-112.2647 950.5,-112 619.951,-83.4813 532.4464,-110.1976 198.1738,-75.9455"/>
<polygon fill="#191970" stroke="#191970" points="198.5189,-72.4626 188.2116,-74.9143 197.7981,-79.4254 198.5189,-72.4626"/>
</g>
<!-- Node13&#45;&gt;Node7 -->
<g id="edge18" class="edge">
<title>Node13&#45;&gt;Node7</title>
<path fill="none" stroke="#191970" d="M959.8564,-112.921C956.6962,-112.5932 953.5662,-112.2841 950.5,-112 690.0509,-87.8677 621.0225,-100.3217 356.9686,-76.0798"/>
<polygon fill="#191970" stroke="#191970" points="356.9654,-72.5646 346.685,-75.1263 356.3191,-79.5347 356.9654,-72.5646"/>
</g>
<!-- Node13&#45;&gt;Node10 -->
<g id="edge16" class="edge">
<title>Node13&#45;&gt;Node10</title>
<path fill="none" stroke="#191970" d="M959.8463,-113.0228C956.6888,-112.6675 953.5622,-112.3247 950.5,-112 770.4965,-92.9114 722.5379,-94.0182 538.8245,-76.1111"/>
<polygon fill="#191970" stroke="#191970" points="539.125,-72.6238 528.8312,-75.1314 538.442,-79.5904 539.125,-72.6238"/>
</g>
<!-- Node14 -->
<g id="node15" class="node">
<title>Node14</title>
<g id="a_node15"><a xlink:href="../../dd/dc2/BasicOps_8h.html" target="_top" xlink:title="Framework/BasicOps.h">
<polygon fill="none" stroke="#000000" points="1465.5,-56.5 1465.5,-75.5 1593.5,-75.5 1593.5,-56.5 1465.5,-56.5"/>
<text text-anchor="middle" x="1529.5" y="-63.5" font-family="Helvetica,sans-Serif" font-size="10.00" fill="#000000">Framework/BasicOps.h</text>
</a>
</g>
</g>
<!-- Node13&#45;&gt;Node14 -->
<g id="edge15" class="edge">
<title>Node13&#45;&gt;Node14</title>
<path fill="none" stroke="#191970" d="M1101.4539,-113.5884C1106.2067,-113.0447 1110.9222,-112.5109 1115.5,-112 1263.7035,-95.4597 1303.5143,-94.3836 1455.2609,-76.1204"/>
<polygon fill="#191970" stroke="#191970" points="1455.9128,-79.5672 1465.4204,-74.8923 1455.0726,-72.6178 1455.9128,-79.5672"/>
</g>
<!-- Node15 -->
<g id="node16" class="node">
<title>Node15</title>
<polygon fill="none" stroke="#bfbfbf" points="547,-56.5 547,-75.5 648,-75.5 648,-56.5 547,-56.5"/>
<text text-anchor="middle" x="597.5" y="-63.5" font-family="Helvetica,sans-Serif" font-size="10.00" fill="#000000">arrow/type_fwd.h</text>
</g>
<!-- Node13&#45;&gt;Node15 -->
<g id="edge19" class="edge">
<title>Node13&#45;&gt;Node15</title>
<path fill="none" stroke="#191970" d="M959.8308,-113.1582C956.6775,-112.7662 953.556,-112.3787 950.5,-112 823.4735,-96.2572 789.0158,-94.8504 658.2187,-76.0539"/>
<polygon fill="#191970" stroke="#191970" points="658.6127,-72.5746 648.2152,-74.6096 657.6124,-79.5027 658.6127,-72.5746"/>
</g>
<!-- Node16 -->
<g id="node17" class="node">
<title>Node16</title>
<polygon fill="none" stroke="#bfbfbf" points="666.5,-56.5 666.5,-75.5 812.5,-75.5 812.5,-56.5 666.5,-56.5"/>
<text text-anchor="middle" x="739.5" y="-63.5" font-family="Helvetica,sans-Serif" font-size="10.00" fill="#000000">gandiva/gandiva_aliases.h</text>
</g>
<!-- Node13&#45;&gt;Node16 -->
<g id="edge20" class="edge">
<title>Node13&#45;&gt;Node16</title>
<path fill="none" stroke="#191970" d="M980.806,-112.4369C930.4804,-102.7522 852.6277,-87.7703 799.0349,-77.4569"/>
<polygon fill="#191970" stroke="#191970" points="799.4703,-73.9765 788.9891,-75.5237 798.1475,-80.8504 799.4703,-73.9765"/>
</g>
<!-- Node17 -->
<g id="node18" class="node">
<title>Node17</title>
<polygon fill="none" stroke="#bfbfbf" points="830.5,-56.5 830.5,-75.5 908.5,-75.5 908.5,-56.5 830.5,-56.5"/>
<text text-anchor="middle" x="869.5" y="-63.5" font-family="Helvetica,sans-Serif" font-size="10.00" fill="#000000">arrow/type.h</text>
</g>
<!-- Node13&#45;&gt;Node17 -->
<g id="edge21" class="edge">
<title>Node13&#45;&gt;Node17</title>
<path fill="none" stroke="#191970" d="M1002.8231,-112.3733C976.1672,-103.1016 935.6762,-89.0178 906.3116,-78.804"/>
<polygon fill="#191970" stroke="#191970" points="907.4105,-75.4807 896.8157,-75.5011 905.1109,-82.0921 907.4105,-75.4807"/>
</g>
<!-- Node18 -->
<g id="node19" class="node">
<title>Node18</title>
<polygon fill="none" stroke="#bfbfbf" points="927,-56.5 927,-75.5 1022,-75.5 1022,-56.5 927,-56.5"/>
<text text-anchor="middle" x="974.5" y="-63.5" font-family="Helvetica,sans-Serif" font-size="10.00" fill="#000000">gandiva/arrow.h</text>
</g>
<!-- Node13&#45;&gt;Node18 -->
<g id="edge22" class="edge">
<title>Node13&#45;&gt;Node18</title>
<path fill="none" stroke="#191970" d="M1020.7455,-112.2455C1012.6352,-104.1352 1000.9075,-92.4075 991.2919,-82.7919"/>
<polygon fill="#191970" stroke="#191970" points="993.6887,-80.2389 984.1427,-75.6427 988.7389,-85.1887 993.6887,-80.2389"/>
</g>
<!-- Node13&#45;&gt;Node19 -->
<g id="edge23" class="edge">
<title>Node13&#45;&gt;Node19</title>
<path fill="none" stroke="#191970" d="M1101.4367,-113.4217C1106.1936,-112.9183 1110.9148,-112.439 1115.5,-112 1328.2769,-91.6289 1385.7278,-104.9215 1601.8341,-75.9213"/>
<polygon fill="#191970" stroke="#191970" points="1602.4733,-79.3668 1611.9119,-74.554 1601.5321,-72.4303 1602.4733,-79.3668"/>
</g>
<!-- Node13&#45;&gt;Node20 -->
<g id="edge24" class="edge">
<title>Node13&#45;&gt;Node20</title>
<path fill="none" stroke="#191970" d="M1101.3033,-115.7733C1116.8484,-114.4694 1133.2259,-113.1443 1148.5,-112 1390.8717,-93.8426 1454.5835,-98.6079 1700.7898,-76.0179"/>
<polygon fill="#191970" stroke="#191970" points="1701.1203,-79.5024 1710.7562,-75.0978 1700.4767,-72.5321 1701.1203,-79.5024"/>
</g>
<!-- Node21 -->
<g id="node22" class="node">
<title>Node21</title>
<polygon fill="none" stroke="#bfbfbf" points="1040.5,-56.5 1040.5,-75.5 1132.5,-75.5 1132.5,-56.5 1040.5,-56.5"/>
<text text-anchor="middle" x="1086.5" y="-63.5" font-family="Helvetica,sans-Serif" font-size="10.00" fill="#000000">gandiva/node.h</text>
</g>
<!-- Node13&#45;&gt;Node21 -->
<g id="edge25" class="edge">
<title>Node13&#45;&gt;Node21</title>
<path fill="none" stroke="#191970" d="M1040.2545,-112.2455C1048.3648,-104.1352 1060.0925,-92.4075 1069.7081,-82.7919"/>
<polygon fill="#191970" stroke="#191970" points="1072.2611,-85.1887 1076.8573,-75.6427 1067.3113,-80.2389 1072.2611,-85.1887"/>
</g>
<!-- Node22 -->
<g id="node23" class="node">
<title>Node22</title>
<polygon fill="none" stroke="#bfbfbf" points="1151,-56.5 1151,-75.5 1240,-75.5 1240,-56.5 1151,-56.5"/>
<text text-anchor="middle" x="1195.5" y="-63.5" font-family="Helvetica,sans-Serif" font-size="10.00" fill="#000000">gandiva/filter.h</text>
</g>
<!-- Node13&#45;&gt;Node22 -->
<g id="edge26" class="edge">
<title>Node13&#45;&gt;Node22</title>
<path fill="none" stroke="#191970" d="M1058.8645,-112.3733C1086.1827,-103.1016 1127.6796,-89.0178 1157.7738,-78.804"/>
<polygon fill="#191970" stroke="#191970" points="1159.161,-82.0294 1167.5056,-75.5011 1156.9113,-75.4008 1159.161,-82.0294"/>
</g>
<!-- Node23 -->
<g id="node24" class="node">
<title>Node23</title>
<polygon fill="none" stroke="#bfbfbf" points="1258,-56.5 1258,-75.5 1309,-75.5 1309,-56.5 1258,-56.5"/>
<text text-anchor="middle" x="1283.5" y="-63.5" font-family="Helvetica,sans-Serif" font-size="10.00" fill="#000000">variant</text>
</g>
<!-- Node13&#45;&gt;Node23 -->
<g id="edge27" class="edge">
<title>Node13&#45;&gt;Node23</title>
<path fill="none" stroke="#191970" d="M1080.5122,-112.4865C1122.6808,-104.2302 1184.815,-91.5177 1248.1764,-75.9472"/>
<polygon fill="#191970" stroke="#191970" points="1249.0772,-79.3299 1257.9414,-73.5269 1247.3931,-72.5355 1249.0772,-79.3299"/>
</g>
<!-- Node24 -->
<g id="node25" class="node">
<title>Node24</title>
<polygon fill="none" stroke="#bfbfbf" points="1327.5,-56.5 1327.5,-75.5 1371.5,-75.5 1371.5,-56.5 1327.5,-56.5"/>
<text text-anchor="middle" x="1349.5" y="-63.5" font-family="Helvetica,sans-Serif" font-size="10.00" fill="#000000">string</text>
</g>
<!-- Node13&#45;&gt;Node24 -->
<g id="edge28" class="edge">
<title>Node13&#45;&gt;Node24</title>
<path fill="none" stroke="#191970" d="M1101.2316,-113.5505C1159.6625,-105.8818 1244.5523,-93.1499 1317.5,-76 1317.5992,-75.9767 1317.6985,-75.9532 1317.7979,-75.9296"/>
<polygon fill="#191970" stroke="#191970" points="1318.4765,-79.3712 1327.2337,-73.4079 1316.6691,-72.6085 1318.4765,-79.3712"/>
</g>
<!-- Node25 -->
<g id="node26" class="node">
<title>Node25</title>
<polygon fill="none" stroke="#bfbfbf" points="1389.5,-56.5 1389.5,-75.5 1447.5,-75.5 1447.5,-56.5 1389.5,-56.5"/>
<text text-anchor="middle" x="1418.5" y="-63.5" font-family="Helvetica,sans-Serif" font-size="10.00" fill="#000000">memory</text>
</g>
<!-- Node13&#45;&gt;Node25 -->
<g id="edge29" class="edge">
<title>Node13&#45;&gt;Node25</title>
<path fill="none" stroke="#191970" d="M1101.1209,-113.2056C1188.244,-102.2867 1330.0248,-84.2697 1378.9903,-75.9686"/>
<polygon fill="#191970" stroke="#191970" points="1379.9155,-79.3578 1389.1267,-74.1229 1378.6614,-72.471 1379.9155,-79.3578"/>
</g>
<!-- Node26&#45;&gt;Node19 -->
<g id="edge31" class="edge">
<title>Node26&#45;&gt;Node19</title>
<path fill="none" stroke="#191970" d="M1332.6767,-112.4756C1402.7054,-104.4289 1503.7925,-91.9277 1601.7986,-76.0189"/>
<polygon fill="#191970" stroke="#191970" points="1602.5808,-79.4375 1611.8839,-74.3678 1601.4498,-72.5295 1602.5808,-79.4375"/>
</g>
<!-- Node27&#45;&gt;Node15 -->
<g id="edge33" class="edge">
<title>Node27&#45;&gt;Node15</title>
<path fill="none" stroke="#191970" d="M825.5383,-112.4369C778.0787,-102.7724 704.7134,-87.8326 654.0777,-77.5213"/>
<polygon fill="#191970" stroke="#191970" points="654.7653,-74.0895 644.268,-75.5237 653.3685,-80.9488 654.7653,-74.0895"/>
</g>
<!-- Node34 -->
<g id="node35" class="node">
<title>Node34</title>
<polygon fill="none" stroke="#bfbfbf" points="2354.5,-112.5 2354.5,-131.5 2396.5,-131.5 2396.5,-112.5 2354.5,-112.5"/>
<text text-anchor="middle" x="2375.5" y="-119.5" font-family="Helvetica,sans-Serif" font-size="10.00" fill="#000000">array</text>
</g>
<!-- Node33&#45;&gt;Node34 -->
<g id="edge42" class="edge">
<title>Node33&#45;&gt;Node34</title>
<path fill="none" stroke="#191970" d="M2115.5423,-169.5116C2118.5729,-168.9972 2121.5776,-168.49 2124.5,-168 2219.4842,-152.0758 2247.1087,-155.558 2344.3655,-131.9755"/>
<polygon fill="#191970" stroke="#191970" points="2345.4433,-135.3148 2354.3181,-129.5279 2343.7715,-128.5174 2345.4433,-135.3148"/>
</g>
<!-- Node33&#45;&gt;Node35 -->
<g id="edge43" class="edge">
<title>Node33&#45;&gt;Node35</title>
<path fill="none" stroke="#191970" d="M2044.3836,-168.3904C2029.3754,-160.7135 2010.3553,-148.5033 1999.5,-132 1990.486,-118.296 1987.4499,-99.7625 1986.5454,-85.8239"/>
<polygon fill="#191970" stroke="#191970" points="1990.0428,-85.6854 1986.2036,-75.8106 1983.0469,-85.9243 1990.0428,-85.6854"/>
</g>
<!-- Node36 -->
<g id="node37" class="node">
<title>Node36</title>
<g id="a_node37"><a xlink:href="../../df/d21/GPUCommonDef_8h.html" target="_top" xlink:title="GPUCommonDef.h">
<polygon fill="none" stroke="#000000" points="2244,-56.5 2244,-75.5 2351,-75.5 2351,-56.5 2244,-56.5"/>
<text text-anchor="middle" x="2297.5" y="-63.5" font-family="Helvetica,sans-Serif" font-size="10.00" fill="#000000">GPUCommonDef.h</text>
</a>
</g>
</g>
<!-- Node33&#45;&gt;Node36 -->
<g id="edge44" class="edge">
<title>Node33&#45;&gt;Node36</title>
<path fill="none" stroke="#191970" d="M2115.5236,-169.3941C2118.5589,-168.9088 2121.5696,-168.4401 2124.5,-168 2186.7566,-158.6496 2363.9087,-179.2596 2405.5,-132 2426.9554,-107.6205 2387.6419,-89.393 2350.5743,-78.3397"/>
<polygon fill="#191970" stroke="#191970" points="2351.3114,-74.9107 2340.7358,-75.5491 2349.4012,-81.6451 2351.3114,-74.9107"/>
</g>
<!-- Node39 -->
<g id="node40" class="node">
<title>Node39</title>
<g id="a_node40"><a xlink:href="../../d6/da2/GPUCommonMath_8h.html" target="_top" xlink:title="GPUCommonMath.h">
<polygon fill="none" stroke="#000000" points="2009,-112.5 2009,-131.5 2124,-131.5 2124,-112.5 2009,-112.5"/>
<text text-anchor="middle" x="2066.5" y="-119.5" font-family="Helvetica,sans-Serif" font-size="10.00" fill="#000000">GPUCommonMath.h</text>
</a>
</g>
</g>
<!-- Node33&#45;&gt;Node39 -->
<g id="edge47" class="edge">
<title>Node33&#45;&gt;Node39</title>
<path fill="none" stroke="#191970" d="M2066.5,-168.2455C2066.5,-160.9382 2066.5,-150.6944 2066.5,-141.7046"/>
<polygon fill="#191970" stroke="#191970" points="2070.0001,-141.6426 2066.5,-131.6427 2063.0001,-141.6427 2070.0001,-141.6426"/>
</g>
<!-- Node41 -->
<g id="node42" class="node">
<title>Node41</title>
<g id="a_node42"><a xlink:href="../../d6/d84/MathConstants_8h.html" target="_top" xlink:title="useful math constants ">
<polygon fill="none" stroke="#000000" points="2142.5,-112.5 2142.5,-131.5 2336.5,-131.5 2336.5,-112.5 2142.5,-112.5"/>
<text text-anchor="middle" x="2239.5" y="-119.5" font-family="Helvetica,sans-Serif" font-size="10.00" fill="#000000">CommonConstants/MathConstants.h</text>
</a>
</g>
</g>
<!-- Node33&#45;&gt;Node41 -->
<g id="edge51" class="edge">
<title>Node33&#45;&gt;Node41</title>
<path fill="none" stroke="#191970" d="M2096.2398,-168.3733C2125.007,-159.0613 2168.77,-144.8953 2200.3556,-134.671"/>
<polygon fill="#191970" stroke="#191970" points="2201.7122,-137.9107 2210.1483,-131.5011 2199.5564,-131.251 2201.7122,-137.9107"/>
</g>
<!-- Node37 -->
<g id="node38" class="node">
<title>Node37</title>
<g id="a_node38"><a xlink:href="../../d5/d93/GPUCommonDefSettings_8h.html" target="_top" xlink:title="GPUCommonDefSettings.h">
<polygon fill="none" stroke="#000000" points="2146.5,-.5 2146.5,-19.5 2294.5,-19.5 2294.5,-.5 2146.5,-.5"/>
<text text-anchor="middle" x="2220.5" y="-7.5" font-family="Helvetica,sans-Serif" font-size="10.00" fill="#000000">GPUCommonDefSettings.h</text>
</a>
</g>
</g>
<!-- Node36&#45;&gt;Node37 -->
<g id="edge45" class="edge">
<title>Node36&#45;&gt;Node37</title>
<path fill="none" stroke="#191970" d="M2284.0876,-56.2455C2272.4943,-47.814 2255.5252,-35.4729 2242.0322,-25.6598"/>
<polygon fill="#191970" stroke="#191970" points="2243.9047,-22.6938 2233.7587,-19.6427 2239.7874,-28.355 2243.9047,-22.6938"/>
</g>
<!-- Node38 -->
<g id="node39" class="node">
<title>Node38</title>
<g id="a_node39"><a xlink:href="../../da/d5a/GPUCommonDefAPI_8h.html" target="_top" xlink:title="GPUCommonDefAPI.h">
<polygon fill="none" stroke="#000000" points="2312.5,-.5 2312.5,-19.5 2436.5,-19.5 2436.5,-.5 2312.5,-.5"/>
<text text-anchor="middle" x="2374.5" y="-7.5" font-family="Helvetica,sans-Serif" font-size="10.00" fill="#000000">GPUCommonDefAPI.h</text>
</a>
</g>
</g>
<!-- Node36&#45;&gt;Node38 -->
<g id="edge46" class="edge">
<title>Node36&#45;&gt;Node38</title>
<path fill="none" stroke="#191970" d="M2310.9124,-56.2455C2322.5057,-47.814 2339.4748,-35.4729 2352.9678,-25.6598"/>
<polygon fill="#191970" stroke="#191970" points="2355.2126,-28.355 2361.2413,-19.6427 2351.0953,-22.6938 2355.2126,-28.355"/>
</g>
<!-- Node39&#45;&gt;Node35 -->
<g id="edge49" class="edge">
<title>Node39&#45;&gt;Node35</title>
<path fill="none" stroke="#191970" d="M2052.5651,-112.2455C2040.4053,-103.7337 2022.5536,-91.2375 2008.4715,-81.3801"/>
<polygon fill="#191970" stroke="#191970" points="2010.4747,-78.51 2000.2752,-75.6427 2006.4605,-84.2447 2010.4747,-78.51"/>
</g>
<!-- Node39&#45;&gt;Node36 -->
<g id="edge48" class="edge">
<title>Node39&#45;&gt;Node36</title>
<path fill="none" stroke="#191970" d="M2105.9478,-112.4369C2145.3156,-102.8932 2205.9034,-88.2052 2248.3708,-77.9101"/>
<polygon fill="#191970" stroke="#191970" points="2249.321,-81.2812 2258.2149,-75.5237 2247.6717,-74.4783 2249.321,-81.2812"/>
</g>
<!-- Node40 -->
<g id="node41" class="node">
<title>Node40</title>
<polygon fill="none" stroke="#bfbfbf" points="2034.5,-56.5 2034.5,-75.5 2098.5,-75.5 2098.5,-56.5 2034.5,-56.5"/>
<text text-anchor="middle" x="2066.5" y="-63.5" font-family="Helvetica,sans-Serif" font-size="10.00" fill="#000000">algorithm</text>
</g>
<!-- Node39&#45;&gt;Node40 -->
<g id="edge50" class="edge">
<title>Node39&#45;&gt;Node40</title>
<path fill="none" stroke="#191970" d="M2066.5,-112.2455C2066.5,-104.9382 2066.5,-94.6944 2066.5,-85.7046"/>
<polygon fill="#191970" stroke="#191970" points="2070.0001,-85.6426 2066.5,-75.6427 2063.0001,-85.6427 2070.0001,-85.6426"/>
</g>
<!-- Node43&#45;&gt;Node1 -->
<g id="edge55" class="edge">
<title>Node43&#45;&gt;Node1</title>
<path fill="none" stroke="#191970" d="M1891.8792,-280.3733C1914.0045,-271.2629 1947.4134,-257.5062 1972.1019,-247.3404"/>
<polygon fill="#191970" stroke="#191970" points="1973.5117,-250.5451 1981.4258,-243.5011 1970.8464,-244.0723 1973.5117,-250.5451"/>
</g>
<!-- Node44&#45;&gt;Node1 -->
<g id="edge57" class="edge">
<title>Node44&#45;&gt;Node1</title>
<path fill="none" stroke="#191970" d="M2004.5,-280.2455C2004.5,-272.9382 2004.5,-262.6944 2004.5,-253.7046"/>
<polygon fill="#191970" stroke="#191970" points="2008.0001,-253.6426 2004.5,-243.6427 2001.0001,-253.6427 2008.0001,-253.6426"/>
</g>
</g>
</svg>
        <g id="navigator" transform="translate(0 0)" fill="#404254">
                <rect fill="#f2f5e9" fill-opacity="0.5" stroke="#606060" stroke-width=".5" x="0" y="0" width="60" height="60"/>
                <use id="zoomplus" xlink:href="#zoomPlus" x="17" y="9" onmousedown="handleZoom(evt,'in')"/>
                <use id="zoomminus" xlink:href="#zoomMin" x="42" y="9" onmousedown="handleZoom(evt,'out')"/>
                <use id="reset" xlink:href="#resetDef" x="30" y="36" onmousedown="handleReset()"/>
                <g id="arrowUp" xlink:href="#dirArrow" transform="translate(30 24)" onmousedown="handlePan(0,-1)">
                  <use xlink:href="#rim" fill="#404040">
                        <set attributeName="fill" to="#808080" begin="arrowUp.mouseover" end="arrowUp.mouseout"/>
                  </use>
                  <path fill="none" stroke="white" stroke-width="1.5" d="M0,-3.0v7 M-2.5,-0.5L0,-3.0L2.5,-0.5"/>
                </g>
                <g id="arrowRight" xlink:href="#dirArrow" transform="rotate(90) translate(36 -43)" onmousedown="handlePan(1,0)">
                  <use xlink:href="#rim" fill="#404040">
                        <set attributeName="fill" to="#808080" begin="arrowRight.mouseover" end="arrowRight.mouseout"/>
                  </use>
                  <path fill="none" stroke="white" stroke-width="1.5" d="M0,-3.0v7 M-2.5,-0.5L0,-3.0L2.5,-0.5"/>
                </g>
                <g id="arrowDown" xlink:href="#dirArrow" transform="rotate(180) translate(-30 -48)" onmousedown="handlePan(0,1)">
                  <use xlink:href="#rim" fill="#404040">
                        <set attributeName="fill" to="#808080" begin="arrowDown.mouseover" end="arrowDown.mouseout"/>
                  </use>
                  <path fill="none" stroke="white" stroke-width="1.5" d="M0,-3.0v7 M-2.5,-0.5L0,-3.0L2.5,-0.5"/>
                </g>
                <g id="arrowLeft" xlink:href="#dirArrow" transform="rotate(270) translate(-36 17)" onmousedown="handlePan(-1,0)">
                  <use xlink:href="#rim" fill="#404040">
                        <set attributeName="fill" to="#808080" begin="arrowLeft.mouseover" end="arrowLeft.mouseout"/>
                  </use>
                  <path fill="none" stroke="white" stroke-width="1.5" d="M0,-3.0v7 M-2.5,-0.5L0,-3.0L2.5,-0.5"/>
                </g>
        </g>
        <svg viewBox="0 0 15 15" width="100%" height="30px" preserveAspectRatio="xMaxYMin meet">
         <g id="arrow_out" transform="scale(0.3 0.3)">
          <a xlink:href="dumpDataModel_8cxx__incl_org.svg" target="_base">
           <rect id="button" ry="5" rx="5" y="6" x="6" height="38" width="38"
                fill="#f2f5e9" fill-opacity="0.5" stroke="#606060" stroke-width="1.0"/>
           <path id="arrow"
             d="M 11.500037,31.436501 C 11.940474,20.09759 22.043105,11.32322 32.158766,21.979434 L 37.068811,17.246167 C 37.068811,17.246167 37.088388,32 37.088388,32 L 22.160133,31.978069 C 22.160133,31.978069 26.997745,27.140456 26.997745,27.140456 C 18.528582,18.264221 13.291696,25.230495 11.500037,31.436501 z"
             style="fill:#404040;"/>
          </a>
         </g>
        </svg>
</svg>
