<?xml version="1.0" encoding="UTF-8" standalone="no"?>
<!DOCTYPE svg PUBLIC "-//W3C//DTD SVG 1.1//EN"
 "http://www.w3.org/Graphics/SVG/1.1/DTD/svg11.dtd">
<!-- Generated by graphviz version 2.40.1 (20161225.0304)
 -->
<!-- Title: /home/travis/build/AliceO2Group/AliceO2/GPU/TPCFastTransformation/Spline1D.cxx Pages: 1 -->
<!--zoomable 341 -->
<svg id="main" version="1.1" xmlns="http://www.w3.org/2000/svg" xmlns:xlink="http://www.w3.org/1999/xlink" xml:space="preserve" onload="init(evt)">
<style type="text/css"><![CDATA[
.edge:hover path { stroke: red; }
.edge:hover polygon { stroke: red; fill: red; }
]]></style>
<script type="text/javascript"><![CDATA[
var edges = document.getElementsByTagName('g');
if (edges && edges.length) {
  for (var i=0;i<edges.length;i++) {
    if (edges[i].id.substr(0,4)=='edge') {
      edges[i].setAttribute('class','edge');
    }
  }
}
]]></script>
        <defs>
                <circle id="rim" cx="0" cy="0" r="7"/>
                <circle id="rim2" cx="0" cy="0" r="3.5"/>
                <g id="zoomPlus">
                        <use xlink:href="#rim" fill="#404040">
                                <set attributeName="fill" to="#808080" begin="zoomplus.mouseover" end="zoomplus.mouseout"/>
                        </use>
                        <path d="M-4,0h8M0,-4v8" fill="none" stroke="white" stroke-width="1.5" pointer-events="none"/>
                </g>
                <g id="zoomMin">
                        <use xlink:href="#rim" fill="#404040">
                                <set attributeName="fill" to="#808080" begin="zoomminus.mouseover" end="zoomminus.mouseout"/>
                        </use>
                        <path d="M-4,0h8" fill="none" stroke="white" stroke-width="1.5" pointer-events="none"/>
                </g>
                <g id="dirArrow">
                        <path fill="none" stroke="white" stroke-width="1.5" d="M0,-3.0v7 M-2.5,-0.5L0,-3.0L2.5,-0.5"/>
                </g>
               <g id="resetDef">
                       <use xlink:href="#rim2" fill="#404040">
                               <set attributeName="fill" to="#808080" begin="reset.mouseover" end="reset.mouseout"/>
                       </use>
               </g>
        </defs>

<script type="text/javascript">
var viewWidth = 1082;
var viewHeight = 341;
var sectionId = 'dynsection-0';
</script>
<script xlink:href="../../svgpan.js"/>
<svg id="graph" class="graph">
<g id="viewport">
<title>/home/travis/build/AliceO2Group/AliceO2/GPU/TPCFastTransformation/Spline1D.cxx</title>
<!-- Node0 -->
<g id="node1" class="node">
<title>Node0</title>
<polygon fill="#bfbfbf" stroke="#000000" points="437.5,-280.5 437.5,-332.5 592.5,-332.5 592.5,-280.5 437.5,-280.5"/>
<text text-anchor="start" x="445.5" y="-320.5" font-family="Helvetica,sans-Serif" font-size="10.00" fill="#000000">/home/travis/build</text>
<text text-anchor="start" x="445.5" y="-309.5" font-family="Helvetica,sans-Serif" font-size="10.00" fill="#000000">/AliceO2Group/AliceO2</text>
<text text-anchor="start" x="445.5" y="-298.5" font-family="Helvetica,sans-Serif" font-size="10.00" fill="#000000">/GPU/TPCFastTransformation</text>
<text text-anchor="middle" x="515" y="-287.5" font-family="Helvetica,sans-Serif" font-size="10.00" fill="#000000">/Spline1D.cxx</text>
</g>
<!-- Node1 -->
<g id="node2" class="node">
<title>Node1</title>
<polygon fill="none" stroke="#bfbfbf" points="8.5,-.5 8.5,-19.5 67.5,-19.5 67.5,-.5 8.5,-.5"/>
<text text-anchor="middle" x="38" y="-7.5" font-family="Helvetica,sans-Serif" font-size="10.00" fill="#000000">Rtypes.h</text>
</g>
<!-- Node0&#45;&gt;Node1 -->
<g id="edge1" class="edge">
<title>Node0&#45;&gt;Node1</title>
<path fill="none" stroke="#191970" d="M437.3417,-303.1725C293.4718,-294.8763 0,-267.0408 0,-178 0,-178 0,-178 0,-122 0,-87.6118 16.2634,-50.2832 27.511,-28.5791"/>
<polygon fill="#191970" stroke="#191970" points="30.7317,-29.9804 32.393,-19.5166 24.569,-26.6605 30.7317,-29.9804"/>
</g>
<!-- Node2 -->
<g id="node3" class="node">
<title>Node2</title>
<g id="a_node3"><a xlink:href="../../de/da6/Spline1D_8h.html" target="_top" xlink:title="Definition of Spline1D class. ">
<polygon fill="none" stroke="#000000" points="324.5,-168.5 324.5,-187.5 393.5,-187.5 393.5,-168.5 324.5,-168.5"/>
<text text-anchor="middle" x="359" y="-175.5" font-family="Helvetica,sans-Serif" font-size="10.00" fill="#000000">Spline1D.h</text>
</a>
</g>
</g>
<!-- Node0&#45;&gt;Node2 -->
<g id="edge2" class="edge">
<title>Node0&#45;&gt;Node2</title>
<path fill="none" stroke="#191970" d="M437.3543,-290.5231C411.0985,-281.2549 384.1247,-266.7182 367,-244 357.1322,-230.909 355.7514,-212.0283 356.4777,-197.8119"/>
<polygon fill="#191970" stroke="#191970" points="359.9853,-197.8823 357.39,-187.6103 353.0131,-197.2587 359.9853,-197.8823"/>
</g>
<!-- Node13 -->
<g id="node14" class="node">
<title>Node13</title>
<polygon fill="none" stroke="#bfbfbf" points="290,-.5 290,-19.5 350,-19.5 350,-.5 290,-.5"/>
<text text-anchor="middle" x="320" y="-7.5" font-family="Helvetica,sans-Serif" font-size="10.00" fill="#000000">iostream</text>
</g>
<!-- Node0&#45;&gt;Node13 -->
<g id="edge21" class="edge">
<title>Node0&#45;&gt;Node13</title>
<path fill="none" stroke="#191970" d="M437.2739,-299.7879C311.1841,-286.7293 76,-252.4003 76,-178 76,-178 76,-178 76,-122 76,-91.3494 73.3563,-76.6571 96,-56 122.4375,-31.8819 222.7257,-18.9202 279.74,-13.3625"/>
<polygon fill="#191970" stroke="#191970" points="280.227,-16.8322 289.8547,-12.4099 279.5705,-9.863 280.227,-16.8322"/>
</g>
<!-- Node16 -->
<g id="node17" class="node">
<title>Node16</title>
<polygon fill="none" stroke="#bfbfbf" points="491.5,-168.5 491.5,-187.5 538.5,-187.5 538.5,-168.5 491.5,-168.5"/>
<text text-anchor="middle" x="515" y="-175.5" font-family="Helvetica,sans-Serif" font-size="10.00" fill="#000000">cmath</text>
</g>
<!-- Node0&#45;&gt;Node16 -->
<g id="edge18" class="edge">
<title>Node0&#45;&gt;Node16</title>
<path fill="none" stroke="#191970" d="M437.4475,-289.0255C395.4125,-275.7092 356.1172,-254.4308 378,-224 384.2525,-215.305 443.1075,-197.7459 481.6158,-187.0146"/>
<polygon fill="#191970" stroke="#191970" points="482.6925,-190.3484 491.3999,-184.3125 480.829,-183.601 482.6925,-190.3484"/>
</g>
<!-- Node17 -->
<g id="node18" class="node">
<title>Node17</title>
<polygon fill="none" stroke="#bfbfbf" points="104.5,-168.5 104.5,-187.5 151.5,-187.5 151.5,-168.5 104.5,-168.5"/>
<text text-anchor="middle" x="128" y="-175.5" font-family="Helvetica,sans-Serif" font-size="10.00" fill="#000000">vector</text>
</g>
<!-- Node0&#45;&gt;Node17 -->
<g id="edge19" class="edge">
<title>Node0&#45;&gt;Node17</title>
<path fill="none" stroke="#191970" d="M437.453,-298.0376C353.2611,-287.7858 225.1653,-268.7658 183,-244 163.616,-232.6148 147.9923,-211.7586 138.4201,-196.5297"/>
<polygon fill="#191970" stroke="#191970" points="141.4005,-194.694 133.2626,-187.9098 135.3936,-198.2881 141.4005,-194.694"/>
</g>
<!-- Node18 -->
<g id="node19" class="node">
<title>Node18</title>
<polygon fill="none" stroke="#bfbfbf" points="904,-168.5 904,-187.5 968,-187.5 968,-168.5 904,-168.5"/>
<text text-anchor="middle" x="936" y="-175.5" font-family="Helvetica,sans-Serif" font-size="10.00" fill="#000000">algorithm</text>
</g>
<!-- Node0&#45;&gt;Node18 -->
<g id="edge20" class="edge">
<title>Node0&#45;&gt;Node18</title>
<path fill="none" stroke="#191970" d="M592.6429,-303.3394C737.2274,-296.6521 1035.9608,-278.7519 1067,-244 1096.2207,-211.2841 1026.8133,-192.7141 978.2716,-184.0652"/>
<polygon fill="#191970" stroke="#191970" points="978.7177,-180.5909 968.2731,-182.3687 977.5466,-187.4923 978.7177,-180.5909"/>
</g>
<!-- Node19 -->
<g id="node20" class="node">
<title>Node19</title>
<polygon fill="none" stroke="#bfbfbf" points="387,-224.5 387,-243.5 459,-243.5 459,-224.5 387,-224.5"/>
<text text-anchor="middle" x="423" y="-231.5" font-family="Helvetica,sans-Serif" font-size="10.00" fill="#000000">TRandom.h</text>
</g>
<!-- Node0&#45;&gt;Node19 -->
<g id="edge22" class="edge">
<title>Node0&#45;&gt;Node19</title>
<path fill="none" stroke="#191970" d="M481.7859,-280.3258C468.8253,-270.1123 454.3937,-258.7396 443.073,-249.8184"/>
<polygon fill="#191970" stroke="#191970" points="445.119,-246.9746 435.0983,-243.534 440.7863,-252.4726 445.119,-246.9746"/>
</g>
<!-- Node20 -->
<g id="node21" class="node">
<title>Node20</title>
<polygon fill="none" stroke="#bfbfbf" points="477,-224.5 477,-243.5 553,-243.5 553,-224.5 477,-224.5"/>
<text text-anchor="middle" x="515" y="-231.5" font-family="Helvetica,sans-Serif" font-size="10.00" fill="#000000">Riostream.h</text>
</g>
<!-- Node0&#45;&gt;Node20 -->
<g id="edge23" class="edge">
<title>Node0&#45;&gt;Node20</title>
<path fill="none" stroke="#191970" d="M515,-280.3258C515,-271.5142 515,-261.8397 515,-253.621"/>
<polygon fill="#191970" stroke="#191970" points="518.5001,-253.534 515,-243.534 511.5001,-253.534 518.5001,-253.534"/>
</g>
<!-- Node21 -->
<g id="node22" class="node">
<title>Node21</title>
<polygon fill="none" stroke="#bfbfbf" points="571,-224.5 571,-243.5 627,-243.5 627,-224.5 571,-224.5"/>
<text text-anchor="middle" x="599" y="-231.5" font-family="Helvetica,sans-Serif" font-size="10.00" fill="#000000">TMath.h</text>
</g>
<!-- Node0&#45;&gt;Node21 -->
<g id="edge24" class="edge">
<title>Node0&#45;&gt;Node21</title>
<path fill="none" stroke="#191970" d="M545.3259,-280.3258C557.0435,-270.2124 570.078,-258.9624 580.3677,-250.0815"/>
<polygon fill="#191970" stroke="#191970" points="582.6703,-252.7175 587.9537,-243.534 578.0966,-247.4183 582.6703,-252.7175"/>
</g>
<!-- Node22 -->
<g id="node23" class="node">
<title>Node22</title>
<g id="a_node23"><a xlink:href="../../d2/da7/SplineHelper1D_8h.html" target="_top" xlink:title="Definition of SplineHelper1D class. ">
<polygon fill="none" stroke="#000000" points="191.5,-224.5 191.5,-243.5 292.5,-243.5 292.5,-224.5 191.5,-224.5"/>
<text text-anchor="middle" x="242" y="-231.5" font-family="Helvetica,sans-Serif" font-size="10.00" fill="#000000">SplineHelper1D.h</text>
</a>
</g>
</g>
<!-- Node0&#45;&gt;Node22 -->
<g id="edge25" class="edge">
<title>Node0&#45;&gt;Node22</title>
<path fill="none" stroke="#191970" d="M437.4994,-285.9183C389.15,-273.0783 328.5717,-256.9906 287.7661,-246.154"/>
<polygon fill="#191970" stroke="#191970" points="288.6572,-242.7694 278.0938,-243.5853 286.8604,-249.5349 288.6572,-242.7694"/>
</g>
<!-- Node24 -->
<g id="node25" class="node">
<title>Node24</title>
<polygon fill="none" stroke="#bfbfbf" points="778.5,-224.5 778.5,-243.5 845.5,-243.5 845.5,-224.5 778.5,-224.5"/>
<text text-anchor="middle" x="812" y="-231.5" font-family="Helvetica,sans-Serif" font-size="10.00" fill="#000000">TCanvas.h</text>
</g>
<!-- Node0&#45;&gt;Node24 -->
<g id="edge33" class="edge">
<title>Node0&#45;&gt;Node24</title>
<path fill="none" stroke="#191970" d="M592.6453,-287.5462C648.7306,-273.8553 722.4282,-255.8652 768.5056,-244.6173"/>
<polygon fill="#191970" stroke="#191970" points="769.5819,-247.9574 778.4666,-242.1858 767.9218,-241.1571 769.5819,-247.9574"/>
</g>
<!-- Node25 -->
<g id="node26" class="node">
<title>Node25</title>
<polygon fill="none" stroke="#bfbfbf" points="864,-224.5 864,-243.5 928,-243.5 928,-224.5 864,-224.5"/>
<text text-anchor="middle" x="896" y="-231.5" font-family="Helvetica,sans-Serif" font-size="10.00" fill="#000000">TNtuple.h</text>
</g>
<!-- Node0&#45;&gt;Node25 -->
<g id="edge34" class="edge">
<title>Node0&#45;&gt;Node25</title>
<path fill="none" stroke="#191970" d="M592.5576,-293.5493C659.3406,-282.0975 758.4991,-264.381 853.9874,-244.1311"/>
<polygon fill="#191970" stroke="#191970" points="854.7612,-247.5449 863.8111,-242.0359 853.301,-240.6988 854.7612,-247.5449"/>
</g>
<!-- Node26 -->
<g id="node27" class="node">
<title>Node26</title>
<polygon fill="none" stroke="#bfbfbf" points="946.5,-224.5 946.5,-243.5 991.5,-243.5 991.5,-224.5 946.5,-224.5"/>
<text text-anchor="middle" x="969" y="-231.5" font-family="Helvetica,sans-Serif" font-size="10.00" fill="#000000">TH1.h</text>
</g>
<!-- Node0&#45;&gt;Node26 -->
<g id="edge35" class="edge">
<title>Node0&#45;&gt;Node26</title>
<path fill="none" stroke="#191970" d="M592.6779,-298.6701C675.6931,-289.4737 811.143,-272.0885 936.6092,-243.7782"/>
<polygon fill="#191970" stroke="#191970" points="937.4242,-247.1823 946.3937,-241.5433 935.8654,-240.358 937.4242,-247.1823"/>
</g>
<!-- Node27 -->
<g id="node28" class="node">
<title>Node27</title>
<polygon fill="none" stroke="#bfbfbf" points="1010,-224.5 1010,-243.5 1058,-243.5 1058,-224.5 1010,-224.5"/>
<text text-anchor="middle" x="1034" y="-231.5" font-family="Helvetica,sans-Serif" font-size="10.00" fill="#000000">TFile.h</text>
</g>
<!-- Node0&#45;&gt;Node27 -->
<g id="edge36" class="edge">
<title>Node0&#45;&gt;Node27</title>
<path fill="none" stroke="#191970" d="M592.6899,-300.5209C687.1305,-292.3554 851.3079,-275.2752 1000.1869,-243.8755"/>
<polygon fill="#191970" stroke="#191970" points="1000.9217,-247.2976 1009.9703,-241.7864 999.4599,-240.4519 1000.9217,-247.2976"/>
</g>
<!-- Node28 -->
<g id="node29" class="node">
<title>Node28</title>
<g id="a_node29"><a xlink:href="../../d6/da2/GPUCommonMath_8h.html" target="_top" xlink:title="GPUCommonMath.h">
<polygon fill="none" stroke="#000000" points="645.5,-224.5 645.5,-243.5 760.5,-243.5 760.5,-224.5 645.5,-224.5"/>
<text text-anchor="middle" x="703" y="-231.5" font-family="Helvetica,sans-Serif" font-size="10.00" fill="#000000">GPUCommonMath.h</text>
</a>
</g>
</g>
<!-- Node0&#45;&gt;Node28 -->
<g id="edge37" class="edge">
<title>Node0&#45;&gt;Node28</title>
<path fill="none" stroke="#191970" d="M582.6067,-280.4283C611.8435,-269.1534 644.7873,-256.449 668.8133,-247.1837"/>
<polygon fill="#191970" stroke="#191970" points="670.1323,-250.4263 678.2032,-243.5626 667.6136,-243.8952 670.1323,-250.4263"/>
</g>
<!-- Node3 -->
<g id="node4" class="node">
<title>Node3</title>
<g id="a_node4"><a xlink:href="../../df/d21/GPUCommonDef_8h.html" target="_top" xlink:title="GPUCommonDef.h">
<polygon fill="none" stroke="#000000" points="674.5,-56.5 674.5,-75.5 781.5,-75.5 781.5,-56.5 674.5,-56.5"/>
<text text-anchor="middle" x="728" y="-63.5" font-family="Helvetica,sans-Serif" font-size="10.00" fill="#000000">GPUCommonDef.h</text>
</a>
</g>
</g>
<!-- Node2&#45;&gt;Node3 -->
<g id="edge3" class="edge">
<title>Node2&#45;&gt;Node3</title>
<path fill="none" stroke="#191970" d="M368.8077,-168.3136C384.3688,-153.5652 416.3142,-125.7453 449,-112 451.4919,-110.9521 582.7443,-89.5519 664.3162,-76.3142"/>
<polygon fill="#191970" stroke="#191970" points="665.1857,-79.719 674.4961,-74.6627 664.0646,-72.8093 665.1857,-79.719"/>
</g>
<!-- Node6 -->
<g id="node7" class="node">
<title>Node6</title>
<g id="a_node7"><a xlink:href="../../db/dff/FlatObject_8h.html" target="_top" xlink:title="Definition of FlatObject class. ">
<polygon fill="none" stroke="#000000" points="321.5,-112.5 321.5,-131.5 396.5,-131.5 396.5,-112.5 321.5,-112.5"/>
<text text-anchor="middle" x="359" y="-119.5" font-family="Helvetica,sans-Serif" font-size="10.00" fill="#000000">FlatObject.h</text>
</a>
</g>
</g>
<!-- Node2&#45;&gt;Node6 -->
<g id="edge6" class="edge">
<title>Node2&#45;&gt;Node6</title>
<path fill="none" stroke="#191970" d="M359,-168.2455C359,-160.9382 359,-150.6944 359,-141.7046"/>
<polygon fill="#191970" stroke="#191970" points="362.5001,-141.6426 359,-131.6427 355.5001,-141.6427 362.5001,-141.6426"/>
</g>
<!-- Node15 -->
<g id="node16" class="node">
<title>Node15</title>
<polygon fill="none" stroke="#bfbfbf" points="207.5,-112.5 207.5,-131.5 272.5,-131.5 272.5,-112.5 207.5,-112.5"/>
<text text-anchor="middle" x="240" y="-119.5" font-family="Helvetica,sans-Serif" font-size="10.00" fill="#000000">functional</text>
</g>
<!-- Node2&#45;&gt;Node15 -->
<g id="edge17" class="edge">
<title>Node2&#45;&gt;Node15</title>
<path fill="none" stroke="#191970" d="M338.5432,-168.3733C319.5262,-159.4241 290.9825,-145.9917 269.5024,-135.8835"/>
<polygon fill="#191970" stroke="#191970" points="270.7284,-132.5923 260.1899,-131.5011 267.7478,-138.926 270.7284,-132.5923"/>
</g>
<!-- Node4 -->
<g id="node5" class="node">
<title>Node4</title>
<g id="a_node5"><a xlink:href="../../d5/d93/GPUCommonDefSettings_8h.html" target="_top" xlink:title="GPUCommonDefSettings.h">
<polygon fill="none" stroke="#000000" points="793,-.5 793,-19.5 941,-19.5 941,-.5 793,-.5"/>
<text text-anchor="middle" x="867" y="-7.5" font-family="Helvetica,sans-Serif" font-size="10.00" fill="#000000">GPUCommonDefSettings.h</text>
</a>
</g>
</g>
<!-- Node3&#45;&gt;Node4 -->
<g id="edge4" class="edge">
<title>Node3&#45;&gt;Node4</title>
<path fill="none" stroke="#191970" d="M751.895,-56.3733C774.5082,-47.2629 808.6542,-33.5062 833.8873,-23.3404"/>
<polygon fill="#191970" stroke="#191970" points="835.4493,-26.4845 843.4169,-19.5011 832.8334,-19.9917 835.4493,-26.4845"/>
</g>
<!-- Node5 -->
<g id="node6" class="node">
<title>Node5</title>
<g id="a_node6"><a xlink:href="../../da/d5a/GPUCommonDefAPI_8h.html" target="_top" xlink:title="GPUCommonDefAPI.h">
<polygon fill="none" stroke="#000000" points="651,-.5 651,-19.5 775,-19.5 775,-.5 651,-.5"/>
<text text-anchor="middle" x="713" y="-7.5" font-family="Helvetica,sans-Serif" font-size="10.00" fill="#000000">GPUCommonDefAPI.h</text>
</a>
</g>
</g>
<!-- Node3&#45;&gt;Node5 -->
<g id="edge5" class="edge">
<title>Node3&#45;&gt;Node5</title>
<path fill="none" stroke="#191970" d="M725.3872,-56.2455C723.4084,-48.8579 720.6256,-38.4689 718.1988,-29.4087"/>
<polygon fill="#191970" stroke="#191970" points="721.5511,-28.3966 715.5829,-19.6427 714.7895,-30.2078 721.5511,-28.3966"/>
</g>
<!-- Node6&#45;&gt;Node3 -->
<g id="edge11" class="edge">
<title>Node6&#45;&gt;Node3</title>
<path fill="none" stroke="#191970" d="M396.7341,-114.5151C401.5294,-113.6311 406.3752,-112.7707 411,-112 520.703,-93.7195 551.1235,-93.1327 664.1448,-76.2551"/>
<polygon fill="#191970" stroke="#191970" points="664.8732,-79.685 674.2416,-74.737 663.8324,-72.7628 664.8732,-79.685"/>
</g>
<!-- Node7 -->
<g id="node8" class="node">
<title>Node7</title>
<polygon fill="none" stroke="#bfbfbf" points="247.5,-56.5 247.5,-75.5 300.5,-75.5 300.5,-56.5 247.5,-56.5"/>
<text text-anchor="middle" x="274" y="-63.5" font-family="Helvetica,sans-Serif" font-size="10.00" fill="#000000">cstddef</text>
</g>
<!-- Node6&#45;&gt;Node7 -->
<g id="edge7" class="edge">
<title>Node6&#45;&gt;Node7</title>
<path fill="none" stroke="#191970" d="M344.1941,-112.2455C331.2744,-103.7337 312.3069,-91.2375 297.3448,-81.3801"/>
<polygon fill="#191970" stroke="#191970" points="298.9124,-78.2216 288.6362,-75.6427 295.0613,-84.067 298.9124,-78.2216"/>
</g>
<!-- Node8 -->
<g id="node9" class="node">
<title>Node8</title>
<polygon fill="none" stroke="#bfbfbf" points="319,-56.5 319,-75.5 377,-75.5 377,-56.5 319,-56.5"/>
<text text-anchor="middle" x="348" y="-63.5" font-family="Helvetica,sans-Serif" font-size="10.00" fill="#000000">memory</text>
</g>
<!-- Node6&#45;&gt;Node8 -->
<g id="edge8" class="edge">
<title>Node6&#45;&gt;Node8</title>
<path fill="none" stroke="#191970" d="M357.0839,-112.2455C355.6486,-104.9382 353.6364,-94.6944 351.8705,-85.7046"/>
<polygon fill="#191970" stroke="#191970" points="355.256,-84.7805 349.8941,-75.6427 348.3873,-86.1298 355.256,-84.7805"/>
</g>
<!-- Node9 -->
<g id="node10" class="node">
<title>Node9</title>
<polygon fill="none" stroke="#bfbfbf" points="395,-56.5 395,-75.5 445,-75.5 445,-56.5 395,-56.5"/>
<text text-anchor="middle" x="420" y="-63.5" font-family="Helvetica,sans-Serif" font-size="10.00" fill="#000000">cstring</text>
</g>
<!-- Node6&#45;&gt;Node9 -->
<g id="edge9" class="edge">
<title>Node6&#45;&gt;Node9</title>
<path fill="none" stroke="#191970" d="M369.6254,-112.2455C378.5473,-104.0549 391.488,-92.1749 402.0192,-82.5069"/>
<polygon fill="#191970" stroke="#191970" points="404.4968,-84.9837 409.4964,-75.6427 399.7629,-79.8271 404.4968,-84.9837"/>
</g>
<!-- Node10 -->
<g id="node11" class="node">
<title>Node10</title>
<polygon fill="none" stroke="#bfbfbf" points="463,-56.5 463,-75.5 515,-75.5 515,-56.5 463,-56.5"/>
<text text-anchor="middle" x="489" y="-63.5" font-family="Helvetica,sans-Serif" font-size="10.00" fill="#000000">cassert</text>
</g>
<!-- Node6&#45;&gt;Node10 -->
<g id="edge10" class="edge">
<title>Node6&#45;&gt;Node10</title>
<path fill="none" stroke="#191970" d="M381.3478,-112.3733C402.4033,-103.3032 434.1495,-89.6279 457.7175,-79.4755"/>
<polygon fill="#191970" stroke="#191970" points="459.1444,-82.6719 466.9438,-75.5011 456.375,-76.243 459.1444,-82.6719"/>
</g>
<!-- Node11 -->
<g id="node12" class="node">
<title>Node11</title>
<g id="a_node12"><a xlink:href="../../d2/d45/GPUCommonRtypes_8h.html" target="_top" xlink:title="GPUCommonRtypes.h">
<polygon fill="none" stroke="#000000" points="104.5,-56.5 104.5,-75.5 229.5,-75.5 229.5,-56.5 104.5,-56.5"/>
<text text-anchor="middle" x="167" y="-63.5" font-family="Helvetica,sans-Serif" font-size="10.00" fill="#000000">GPUCommonRtypes.h</text>
</a>
</g>
</g>
<!-- Node6&#45;&gt;Node11 -->
<g id="edge12" class="edge">
<title>Node6&#45;&gt;Node11</title>
<path fill="none" stroke="#191970" d="M325.994,-112.3733C293.7909,-102.9807 244.6558,-88.6496 209.5361,-78.4064"/>
<polygon fill="#191970" stroke="#191970" points="210.1553,-74.9412 199.5753,-75.5011 208.1953,-81.6612 210.1553,-74.9412"/>
</g>
<!-- Node12 -->
<g id="node13" class="node">
<title>Node12</title>
<g id="a_node13"><a xlink:href="../../df/d5b/GPUCommonLogger_8h.html" target="_top" xlink:title="GPUCommonLogger.h">
<polygon fill="none" stroke="#000000" points="533.5,-56.5 533.5,-75.5 656.5,-75.5 656.5,-56.5 533.5,-56.5"/>
<text text-anchor="middle" x="595" y="-63.5" font-family="Helvetica,sans-Serif" font-size="10.00" fill="#000000">GPUCommonLogger.h</text>
</a>
</g>
</g>
<!-- Node6&#45;&gt;Node12 -->
<g id="edge14" class="edge">
<title>Node6&#45;&gt;Node12</title>
<path fill="none" stroke="#191970" d="M396.6559,-113.0647C436.7385,-103.5536 500.3754,-88.4533 544.7214,-77.9305"/>
<polygon fill="#191970" stroke="#191970" points="545.7912,-81.2739 554.713,-75.5596 544.175,-74.463 545.7912,-81.2739"/>
</g>
<!-- Node11&#45;&gt;Node1 -->
<g id="edge13" class="edge">
<title>Node11&#45;&gt;Node1</title>
<path fill="none" stroke="#191970" d="M144.8241,-56.3733C124.0234,-47.3435 92.7083,-33.7494 69.3542,-23.6111"/>
<polygon fill="#191970" stroke="#191970" points="70.4532,-20.2727 59.8865,-19.5011 67.6657,-26.6938 70.4532,-20.2727"/>
</g>
<!-- Node12&#45;&gt;Node13 -->
<g id="edge15" class="edge">
<title>Node12&#45;&gt;Node13</title>
<path fill="none" stroke="#191970" d="M548.0383,-56.4369C495.1909,-45.6752 410.2224,-28.3726 360.2827,-18.203"/>
<polygon fill="#191970" stroke="#191970" points="360.6793,-14.712 350.182,-16.1461 359.2824,-21.5713 360.6793,-14.712"/>
</g>
<!-- Node14 -->
<g id="node15" class="node">
<title>Node14</title>
<polygon fill="none" stroke="#bfbfbf" points="572,-.5 572,-19.5 618,-19.5 618,-.5 572,-.5"/>
<text text-anchor="middle" x="595" y="-7.5" font-family="Helvetica,sans-Serif" font-size="10.00" fill="#000000">cstdio</text>
</g>
<!-- Node12&#45;&gt;Node14 -->
<g id="edge16" class="edge">
<title>Node12&#45;&gt;Node14</title>
<path fill="none" stroke="#191970" d="M595,-56.2455C595,-48.9382 595,-38.6944 595,-29.7046"/>
<polygon fill="#191970" stroke="#191970" points="598.5001,-29.6426 595,-19.6427 591.5001,-29.6427 598.5001,-29.6426"/>
</g>
<!-- Node22&#45;&gt;Node1 -->
<g id="edge29" class="edge">
<title>Node22&#45;&gt;Node1</title>
<path fill="none" stroke="#191970" d="M233.0281,-224.4584C210.0447,-199.9796 147.2556,-132.8771 96,-76 81.4243,-59.8258 65.0718,-41.1703 53.4549,-27.8285"/>
<polygon fill="#191970" stroke="#191970" points="55.7726,-25.1597 46.5711,-19.9078 50.4891,-29.7516 55.7726,-25.1597"/>
</g>
<!-- Node22&#45;&gt;Node2 -->
<g id="edge31" class="edge">
<title>Node22&#45;&gt;Node2</title>
<path fill="none" stroke="#191970" d="M262.113,-224.3733C280.8103,-215.4241 308.8744,-201.9917 329.9934,-191.8835"/>
<polygon fill="#191970" stroke="#191970" points="331.6405,-194.9755 339.1494,-187.5011 328.6183,-188.6614 331.6405,-194.9755"/>
</g>
<!-- Node22&#45;&gt;Node3 -->
<g id="edge28" class="edge">
<title>Node22&#45;&gt;Node3</title>
<path fill="none" stroke="#191970" d="M278.7038,-224.4206C311.5042,-215.6452 360.7628,-201.9362 403,-188 511.2063,-152.2972 636.8478,-102.788 695.154,-79.3382"/>
<polygon fill="#191970" stroke="#191970" points="696.6148,-82.5231 704.5808,-75.5378 693.9974,-76.0308 696.6148,-82.5231"/>
</g>
<!-- Node22&#45;&gt;Node15 -->
<g id="edge32" class="edge">
<title>Node22&#45;&gt;Node15</title>
<path fill="none" stroke="#191970" d="M240.6176,-224.1547C239.3864,-214.8576 237.6781,-200.5134 237,-188 236.1648,-172.5863 237.0368,-155.1389 238.0518,-142.0557"/>
<polygon fill="#191970" stroke="#191970" points="241.5604,-142.1087 238.9414,-131.8427 234.5868,-141.5012 241.5604,-142.1087"/>
</g>
<!-- Node22&#45;&gt;Node16 -->
<g id="edge26" class="edge">
<title>Node22&#45;&gt;Node16</title>
<path fill="none" stroke="#191970" d="M292.623,-225.059C340.3493,-216.4011 413.7855,-202.489 477,-188 478.4546,-187.6666 479.938,-187.3172 481.4348,-186.9569"/>
<polygon fill="#191970" stroke="#191970" points="482.4908,-190.3006 491.3412,-184.4763 480.7905,-183.5102 482.4908,-190.3006"/>
</g>
<!-- Node22&#45;&gt;Node17 -->
<g id="edge27" class="edge">
<title>Node22&#45;&gt;Node17</title>
<path fill="none" stroke="#191970" d="M222.4027,-224.3733C204.2669,-215.4644 177.0865,-202.1127 156.5413,-192.0203"/>
<polygon fill="#191970" stroke="#191970" points="157.8603,-188.7688 147.3416,-187.5011 154.7739,-195.0517 157.8603,-188.7688"/>
</g>
<!-- Node23 -->
<g id="node24" class="node">
<title>Node23</title>
<polygon fill="none" stroke="#bfbfbf" points="246,-168.5 246,-187.5 306,-187.5 306,-168.5 246,-168.5"/>
<text text-anchor="middle" x="276" y="-175.5" font-family="Helvetica,sans-Serif" font-size="10.00" fill="#000000">TString.h</text>
</g>
<!-- Node22&#45;&gt;Node23 -->
<g id="edge30" class="edge">
<title>Node22&#45;&gt;Node23</title>
<path fill="none" stroke="#191970" d="M247.9223,-224.2455C252.6027,-216.5367 259.2673,-205.5598 264.9289,-196.2348"/>
<polygon fill="#191970" stroke="#191970" points="267.9475,-198.007 270.1455,-187.6427 261.9639,-194.3741 267.9475,-198.007"/>
</g>
<!-- Node28&#45;&gt;Node3 -->
<g id="edge38" class="edge">
<title>Node28&#45;&gt;Node3</title>
<path fill="none" stroke="#191970" d="M704.4157,-224.4862C708.3677,-197.9293 719.5826,-122.5651 724.9992,-86.1655"/>
<polygon fill="#191970" stroke="#191970" points="728.5274,-86.2342 726.5375,-75.8279 721.6037,-85.2038 728.5274,-86.2342"/>
</g>
<!-- Node28&#45;&gt;Node16 -->
<g id="edge39" class="edge">
<title>Node28&#45;&gt;Node16</title>
<path fill="none" stroke="#191970" d="M670.6816,-224.3733C636.474,-214.1837 582.7542,-198.1821 548.2115,-187.8928"/>
<polygon fill="#191970" stroke="#191970" points="549.1629,-184.5243 538.5799,-185.0238 547.1646,-191.233 549.1629,-184.5243"/>
</g>
<!-- Node28&#45;&gt;Node18 -->
<g id="edge40" class="edge">
<title>Node28&#45;&gt;Node18</title>
<path fill="none" stroke="#191970" d="M742.7894,-224.4369C784.9046,-214.3148 851.0966,-198.406 894.0234,-188.0888"/>
<polygon fill="#191970" stroke="#191970" points="894.9695,-191.4612 903.8746,-185.7211 893.3336,-184.655 894.9695,-191.4612"/>
</g>
</g>
</svg>
        <g id="navigator" transform="translate(0 0)" fill="#404254">
                <rect fill="#f2f5e9" fill-opacity="0.5" stroke="#606060" stroke-width=".5" x="0" y="0" width="60" height="60"/>
                <use id="zoomplus" xlink:href="#zoomPlus" x="17" y="9" onmousedown="handleZoom(evt,'in')"/>
                <use id="zoomminus" xlink:href="#zoomMin" x="42" y="9" onmousedown="handleZoom(evt,'out')"/>
                <use id="reset" xlink:href="#resetDef" x="30" y="36" onmousedown="handleReset()"/>
                <g id="arrowUp" xlink:href="#dirArrow" transform="translate(30 24)" onmousedown="handlePan(0,-1)">
                  <use xlink:href="#rim" fill="#404040">
                        <set attributeName="fill" to="#808080" begin="arrowUp.mouseover" end="arrowUp.mouseout"/>
                  </use>
                  <path fill="none" stroke="white" stroke-width="1.5" d="M0,-3.0v7 M-2.5,-0.5L0,-3.0L2.5,-0.5"/>
                </g>
                <g id="arrowRight" xlink:href="#dirArrow" transform="rotate(90) translate(36 -43)" onmousedown="handlePan(1,0)">
                  <use xlink:href="#rim" fill="#404040">
                        <set attributeName="fill" to="#808080" begin="arrowRight.mouseover" end="arrowRight.mouseout"/>
                  </use>
                  <path fill="none" stroke="white" stroke-width="1.5" d="M0,-3.0v7 M-2.5,-0.5L0,-3.0L2.5,-0.5"/>
                </g>
                <g id="arrowDown" xlink:href="#dirArrow" transform="rotate(180) translate(-30 -48)" onmousedown="handlePan(0,1)">
                  <use xlink:href="#rim" fill="#404040">
                        <set attributeName="fill" to="#808080" begin="arrowDown.mouseover" end="arrowDown.mouseout"/>
                  </use>
                  <path fill="none" stroke="white" stroke-width="1.5" d="M0,-3.0v7 M-2.5,-0.5L0,-3.0L2.5,-0.5"/>
                </g>
                <g id="arrowLeft" xlink:href="#dirArrow" transform="rotate(270) translate(-36 17)" onmousedown="handlePan(-1,0)">
                  <use xlink:href="#rim" fill="#404040">
                        <set attributeName="fill" to="#808080" begin="arrowLeft.mouseover" end="arrowLeft.mouseout"/>
                  </use>
                  <path fill="none" stroke="white" stroke-width="1.5" d="M0,-3.0v7 M-2.5,-0.5L0,-3.0L2.5,-0.5"/>
                </g>
        </g>
        <svg viewBox="0 0 15 15" width="100%" height="30px" preserveAspectRatio="xMaxYMin meet">
         <g id="arrow_out" transform="scale(0.3 0.3)">
          <a xlink:href="Spline1D_8cxx__incl_org.svg" target="_base">
           <rect id="button" ry="5" rx="5" y="6" x="6" height="38" width="38"
                fill="#f2f5e9" fill-opacity="0.5" stroke="#606060" stroke-width="1.0"/>
           <path id="arrow"
             d="M 11.500037,31.436501 C 11.940474,20.09759 22.043105,11.32322 32.158766,21.979434 L 37.068811,17.246167 C 37.068811,17.246167 37.088388,32 37.088388,32 L 22.160133,31.978069 C 22.160133,31.978069 26.997745,27.140456 26.997745,27.140456 C 18.528582,18.264221 13.291696,25.230495 11.500037,31.436501 z"
             style="fill:#404040;"/>
          </a>
         </g>
        </svg>
</svg>
