<?xml version="1.0" encoding="UTF-8" standalone="no"?>
<!DOCTYPE svg PUBLIC "-//W3C//DTD SVG 1.1//EN"
 "http://www.w3.org/Graphics/SVG/1.1/DTD/svg11.dtd">
<!-- Generated by graphviz version 2.40.1 (20161225.0304)
 -->
<!-- Title: /home/travis/build/AliceO2Group/AliceO2/Detectors/MUON/MCH/Raw/ElecMap/include/MCHRawElecMap/Mapper.h Pages: 1 -->
<!--zoomable 450 -->
<svg id="main" version="1.1" xmlns="http://www.w3.org/2000/svg" xmlns:xlink="http://www.w3.org/1999/xlink" xml:space="preserve" onload="init(evt)">
<style type="text/css"><![CDATA[
.edge:hover path { stroke: red; }
.edge:hover polygon { stroke: red; fill: red; }
]]></style>
<script type="text/javascript"><![CDATA[
var edges = document.getElementsByTagName('g');
if (edges && edges.length) {
  for (var i=0;i<edges.length;i++) {
    if (edges[i].id.substr(0,4)=='edge') {
      edges[i].setAttribute('class','edge');
    }
  }
}
]]></script>
        <defs>
                <circle id="rim" cx="0" cy="0" r="7"/>
                <circle id="rim2" cx="0" cy="0" r="3.5"/>
                <g id="zoomPlus">
                        <use xlink:href="#rim" fill="#404040">
                                <set attributeName="fill" to="#808080" begin="zoomplus.mouseover" end="zoomplus.mouseout"/>
                        </use>
                        <path d="M-4,0h8M0,-4v8" fill="none" stroke="white" stroke-width="1.5" pointer-events="none"/>
                </g>
                <g id="zoomMin">
                        <use xlink:href="#rim" fill="#404040">
                                <set attributeName="fill" to="#808080" begin="zoomminus.mouseover" end="zoomminus.mouseout"/>
                        </use>
                        <path d="M-4,0h8" fill="none" stroke="white" stroke-width="1.5" pointer-events="none"/>
                </g>
                <g id="dirArrow">
                        <path fill="none" stroke="white" stroke-width="1.5" d="M0,-3.0v7 M-2.5,-0.5L0,-3.0L2.5,-0.5"/>
                </g>
               <g id="resetDef">
                       <use xlink:href="#rim2" fill="#404040">
                               <set attributeName="fill" to="#808080" begin="reset.mouseover" end="reset.mouseout"/>
                       </use>
               </g>
        </defs>

<script type="text/javascript">
var viewWidth = 1862;
var viewHeight = 450;
var sectionId = 'dynsection-1';
</script>
<script xlink:href="../../svgpan.js"/>
<svg id="graph" class="graph">
<g id="viewport">
<title>/home/travis/build/AliceO2Group/AliceO2/Detectors/MUON/MCH/Raw/ElecMap/include/MCHRawElecMap/Mapper.h</title>
<!-- Node13 -->
<g id="node1" class="node">
<title>Node13</title>
<polygon fill="#bfbfbf" stroke="#000000" points="706.5,-378.5 706.5,-441.5 891.5,-441.5 891.5,-378.5 706.5,-378.5"/>
<text text-anchor="start" x="714.5" y="-429.5" font-family="Helvetica,sans-Serif" font-size="10.00" fill="#000000">/home/travis/build</text>
<text text-anchor="start" x="714.5" y="-418.5" font-family="Helvetica,sans-Serif" font-size="10.00" fill="#000000">/AliceO2Group/AliceO2</text>
<text text-anchor="start" x="714.5" y="-407.5" font-family="Helvetica,sans-Serif" font-size="10.00" fill="#000000">/Detectors/MUON/MCH/Raw</text>
<text text-anchor="start" x="714.5" y="-396.5" font-family="Helvetica,sans-Serif" font-size="10.00" fill="#000000">/ElecMap/include/MCHRawElecMap</text>
<text text-anchor="middle" x="799" y="-385.5" font-family="Helvetica,sans-Serif" font-size="10.00" fill="#000000">/Mapper.h</text>
</g>
<!-- Node14 -->
<g id="node2" class="node">
<title>Node14</title>
<g id="a_node2"><a xlink:href="../../dc/d36/PageDecoder_8h.html" target="_top" xlink:title="/home/travis/build\l/AliceO2Group/AliceO2\l/Detectors/MUON/MCH/Raw\l/Decoder/include/MCHRawDecoder\l/PageDecoder.h">
<polygon fill="none" stroke="#000000" points="441.5,-278.5 441.5,-341.5 626.5,-341.5 626.5,-278.5 441.5,-278.5"/>
<text text-anchor="start" x="449.5" y="-329.5" font-family="Helvetica,sans-Serif" font-size="10.00" fill="#000000">/home/travis/build</text>
<text text-anchor="start" x="449.5" y="-318.5" font-family="Helvetica,sans-Serif" font-size="10.00" fill="#000000">/AliceO2Group/AliceO2</text>
<text text-anchor="start" x="449.5" y="-307.5" font-family="Helvetica,sans-Serif" font-size="10.00" fill="#000000">/Detectors/MUON/MCH/Raw</text>
<text text-anchor="start" x="449.5" y="-296.5" font-family="Helvetica,sans-Serif" font-size="10.00" fill="#000000">/Decoder/include/MCHRawDecoder</text>
<text text-anchor="middle" x="534" y="-285.5" font-family="Helvetica,sans-Serif" font-size="10.00" fill="#000000">/PageDecoder.h</text>
</a>
</g>
</g>
<!-- Node13&#45;&gt;Node14 -->
<g id="edge1" class="edge">
<title>Node13&#45;&gt;Node14</title>
<path fill="none" stroke="#191970" d="M705.8716,-374.8572C677.0985,-363.9994 645.6009,-352.1136 617.5194,-341.5168"/>
<polygon fill="#191970" stroke="#191970" points="704.9243,-378.2406 715.5161,-378.4966 707.3958,-371.6914 704.9243,-378.2406"/>
</g>
<!-- Node17 -->
<g id="node5" class="node">
<title>Node17</title>
<g id="a_node5"><a xlink:href="../../df/dcf/PageDecoder_8cxx.html" target="_top" xlink:title="/home/travis/build\l/AliceO2Group/AliceO2\l/Detectors/MUON/MCH/Raw\l/Decoder/src/PageDecoder.cxx">
<polygon fill="none" stroke="#000000" points="0,-6 0,-58 164,-58 164,-6 0,-6"/>
<text text-anchor="start" x="8" y="-46" font-family="Helvetica,sans-Serif" font-size="10.00" fill="#000000">/home/travis/build</text>
<text text-anchor="start" x="8" y="-35" font-family="Helvetica,sans-Serif" font-size="10.00" fill="#000000">/AliceO2Group/AliceO2</text>
<text text-anchor="start" x="8" y="-24" font-family="Helvetica,sans-Serif" font-size="10.00" fill="#000000">/Detectors/MUON/MCH/Raw</text>
<text text-anchor="middle" x="82" y="-13" font-family="Helvetica,sans-Serif" font-size="10.00" fill="#000000">/Decoder/src/PageDecoder.cxx</text>
</a>
</g>
</g>
<!-- Node13&#45;&gt;Node17 -->
<g id="edge15" class="edge">
<title>Node13&#45;&gt;Node17</title>
<path fill="none" stroke="#191970" d="M696.3608,-395.9195C524.3698,-370.6579 187.4885,-313.5345 93,-242 38.9109,-201.0507 17.4511,-164.9639 37,-100 41.528,-84.9528 50.5895,-70.1701 59.4019,-58.2515"/>
<polygon fill="#191970" stroke="#191970" points="696.0388,-399.4095 706.4396,-397.391 697.0502,-392.4829 696.0388,-399.4095"/>
</g>
<!-- Node21 -->
<g id="node9" class="node">
<title>Node21</title>
<g id="a_node9"><a xlink:href="../../d4/dbc/rawdump_8cxx.html" target="_top" xlink:title="/home/travis/build\l/AliceO2Group/AliceO2\l/Detectors/MUON/MCH/Raw\l/Tools/rawdump.cxx">
<polygon fill="none" stroke="#000000" points="562,-189.5 562,-241.5 712,-241.5 712,-189.5 562,-189.5"/>
<text text-anchor="start" x="570" y="-229.5" font-family="Helvetica,sans-Serif" font-size="10.00" fill="#000000">/home/travis/build</text>
<text text-anchor="start" x="570" y="-218.5" font-family="Helvetica,sans-Serif" font-size="10.00" fill="#000000">/AliceO2Group/AliceO2</text>
<text text-anchor="start" x="570" y="-207.5" font-family="Helvetica,sans-Serif" font-size="10.00" fill="#000000">/Detectors/MUON/MCH/Raw</text>
<text text-anchor="middle" x="637" y="-196.5" font-family="Helvetica,sans-Serif" font-size="10.00" fill="#000000">/Tools/rawdump.cxx</text>
</a>
</g>
</g>
<!-- Node13&#45;&gt;Node21 -->
<g id="edge21" class="edge">
<title>Node13&#45;&gt;Node21</title>
<path fill="none" stroke="#191970" d="M735.7358,-372.3742C723.6296,-363.3969 711.718,-353.147 702,-342 675.6333,-311.7561 656.5497,-268.9374 646.1269,-241.6942"/>
<polygon fill="#191970" stroke="#191970" points="733.9556,-375.4042 744.1236,-378.3813 738.0314,-369.7132 733.9556,-375.4042"/>
</g>
<!-- Node22 -->
<g id="node10" class="node">
<title>Node22</title>
<g id="a_node10"><a xlink:href="../../d0/d75/DataDecoderSpec_8cxx.html" target="_top" xlink:title="/home/travis/build\l/AliceO2Group/AliceO2\l/Detectors/MUON/MCH/Workflow\l/src/DataDecoderSpec.cxx">
<polygon fill="none" stroke="#000000" points="730,-189.5 730,-241.5 904,-241.5 904,-189.5 730,-189.5"/>
<text text-anchor="start" x="738" y="-229.5" font-family="Helvetica,sans-Serif" font-size="10.00" fill="#000000">/home/travis/build</text>
<text text-anchor="start" x="738" y="-218.5" font-family="Helvetica,sans-Serif" font-size="10.00" fill="#000000">/AliceO2Group/AliceO2</text>
<text text-anchor="start" x="738" y="-207.5" font-family="Helvetica,sans-Serif" font-size="10.00" fill="#000000">/Detectors/MUON/MCH/Workflow</text>
<text text-anchor="middle" x="817" y="-196.5" font-family="Helvetica,sans-Serif" font-size="10.00" fill="#000000">/src/DataDecoderSpec.cxx</text>
</a>
</g>
</g>
<!-- Node13&#45;&gt;Node22 -->
<g id="edge22" class="edge">
<title>Node13&#45;&gt;Node22</title>
<path fill="none" stroke="#191970" d="M738.2456,-371.4454C729.235,-362.9016 721.2314,-353.0489 716,-342 703.8277,-316.2916 702.1556,-302.8479 716,-278 724.4807,-262.7788 738.367,-250.7966 753.1662,-241.5734"/>
<polygon fill="#191970" stroke="#191970" points="736.2024,-374.3107 746.0127,-378.3118 740.8388,-369.0662 736.2024,-374.3107"/>
</g>
<!-- Node23 -->
<g id="node11" class="node">
<title>Node23</title>
<g id="a_node11"><a xlink:href="../../db/d1c/file-to-digits-workflow_8cxx.html" target="_top" xlink:title="/home/travis/build\l/AliceO2Group/AliceO2\l/Detectors/MUON/MCH/Workflow\l/src/file&#45;to&#45;digits&#45;workflow.cxx">
<polygon fill="none" stroke="#000000" points="922,-189.5 922,-241.5 1096,-241.5 1096,-189.5 922,-189.5"/>
<text text-anchor="start" x="930" y="-229.5" font-family="Helvetica,sans-Serif" font-size="10.00" fill="#000000">/home/travis/build</text>
<text text-anchor="start" x="930" y="-218.5" font-family="Helvetica,sans-Serif" font-size="10.00" fill="#000000">/AliceO2Group/AliceO2</text>
<text text-anchor="start" x="930" y="-207.5" font-family="Helvetica,sans-Serif" font-size="10.00" fill="#000000">/Detectors/MUON/MCH/Workflow</text>
<text text-anchor="middle" x="1009" y="-196.5" font-family="Helvetica,sans-Serif" font-size="10.00" fill="#000000">/src/file&#45;to&#45;digits&#45;workflow.cxx</text>
</a>
</g>
</g>
<!-- Node13&#45;&gt;Node23 -->
<g id="edge23" class="edge">
<title>Node13&#45;&gt;Node23</title>
<path fill="none" stroke="#191970" d="M764.4598,-370.0023C744.5816,-341.9528 727.4261,-304.8233 749,-278 795.7697,-219.8503 840.5629,-259.9347 913,-242 915.9371,-241.2728 918.9212,-240.5212 921.9322,-239.7519"/>
<polygon fill="#191970" stroke="#191970" points="761.9115,-372.4423 770.6764,-378.3944 767.5363,-368.2756 761.9115,-372.4423"/>
</g>
<!-- Node24 -->
<g id="node12" class="node">
<title>Node24</title>
<g id="a_node12"><a xlink:href="../../d3/d4b/ElectronicMapperDummy_8cxx.html" target="_top" xlink:title="/home/travis/build\l/AliceO2Group/AliceO2\l/Detectors/MUON/MCH/Raw\l/ElecMap/src/ElectronicMapperDummy.cxx">
<polygon fill="none" stroke="#000000" points="758,-284 758,-336 980,-336 980,-284 758,-284"/>
<text text-anchor="start" x="766" y="-324" font-family="Helvetica,sans-Serif" font-size="10.00" fill="#000000">/home/travis/build</text>
<text text-anchor="start" x="766" y="-313" font-family="Helvetica,sans-Serif" font-size="10.00" fill="#000000">/AliceO2Group/AliceO2</text>
<text text-anchor="start" x="766" y="-302" font-family="Helvetica,sans-Serif" font-size="10.00" fill="#000000">/Detectors/MUON/MCH/Raw</text>
<text text-anchor="middle" x="869" y="-291" font-family="Helvetica,sans-Serif" font-size="10.00" fill="#000000">/ElecMap/src/ElectronicMapperDummy.cxx</text>
</a>
</g>
</g>
<!-- Node13&#45;&gt;Node24 -->
<g id="edge16" class="edge">
<title>Node13&#45;&gt;Node24</title>
<path fill="none" stroke="#191970" d="M827.1116,-369.8405C835.0735,-358.4664 843.5305,-346.385 850.7454,-336.078"/>
<polygon fill="#191970" stroke="#191970" points="824.0158,-368.1599 821.1484,-378.3594 829.7504,-372.1742 824.0158,-368.1599"/>
</g>
<!-- Node25 -->
<g id="node13" class="node">
<title>Node25</title>
<g id="a_node13"><a xlink:href="../../d1/d4a/ElectronicMapperGenerated_8cxx.html" target="_top" xlink:title="/home/travis/build\l/AliceO2Group/AliceO2\l/Detectors/MUON/MCH/Raw\l/ElecMap/src/ElectronicMapperGenerated.cxx">
<polygon fill="none" stroke="#000000" points="998,-284 998,-336 1234,-336 1234,-284 998,-284"/>
<text text-anchor="start" x="1006" y="-324" font-family="Helvetica,sans-Serif" font-size="10.00" fill="#000000">/home/travis/build</text>
<text text-anchor="start" x="1006" y="-313" font-family="Helvetica,sans-Serif" font-size="10.00" fill="#000000">/AliceO2Group/AliceO2</text>
<text text-anchor="start" x="1006" y="-302" font-family="Helvetica,sans-Serif" font-size="10.00" fill="#000000">/Detectors/MUON/MCH/Raw</text>
<text text-anchor="middle" x="1116" y="-291" font-family="Helvetica,sans-Serif" font-size="10.00" fill="#000000">/ElecMap/src/ElectronicMapperGenerated.cxx</text>
</a>
</g>
</g>
<!-- Node13&#45;&gt;Node25 -->
<g id="edge17" class="edge">
<title>Node13&#45;&gt;Node25</title>
<path fill="none" stroke="#191970" d="M901.1261,-377.7836C943.8729,-364.2988 992.9097,-348.8298 1033.3353,-336.0772"/>
<polygon fill="#191970" stroke="#191970" points="900.0255,-374.4607 891.5417,-380.807 902.1314,-381.1364 900.0255,-374.4607"/>
</g>
<!-- Node26 -->
<g id="node14" class="node">
<title>Node26</title>
<g id="a_node14"><a xlink:href="../../d5/d12/ElectronicMapperString_8cxx.html" target="_top" xlink:title="/home/travis/build\l/AliceO2Group/AliceO2\l/Detectors/MUON/MCH/Raw\l/ElecMap/src/ElectronicMapperString.cxx">
<polygon fill="none" stroke="#000000" points="1252.5,-284 1252.5,-336 1465.5,-336 1465.5,-284 1252.5,-284"/>
<text text-anchor="start" x="1260.5" y="-324" font-family="Helvetica,sans-Serif" font-size="10.00" fill="#000000">/home/travis/build</text>
<text text-anchor="start" x="1260.5" y="-313" font-family="Helvetica,sans-Serif" font-size="10.00" fill="#000000">/AliceO2Group/AliceO2</text>
<text text-anchor="start" x="1260.5" y="-302" font-family="Helvetica,sans-Serif" font-size="10.00" fill="#000000">/Detectors/MUON/MCH/Raw</text>
<text text-anchor="middle" x="1359" y="-291" font-family="Helvetica,sans-Serif" font-size="10.00" fill="#000000">/ElecMap/src/ElectronicMapperString.cxx</text>
</a>
</g>
</g>
<!-- Node13&#45;&gt;Node26 -->
<g id="edge18" class="edge">
<title>Node13&#45;&gt;Node26</title>
<path fill="none" stroke="#191970" d="M901.8136,-397.7286C992.2032,-386.1154 1127.0472,-366.7836 1243,-342 1251.3762,-340.2097 1260.0447,-338.172 1268.6972,-336.0122"/>
<polygon fill="#191970" stroke="#191970" points="901.3152,-394.2638 891.8389,-399.002 902.2017,-401.2074 901.3152,-394.2638"/>
</g>
<!-- Node27 -->
<g id="node15" class="node">
<title>Node27</title>
<g id="a_node15"><a xlink:href="../../df/d54/MUON_2MCH_2Raw_2ElecMap_2src_2Mapper_8cxx.html" target="_top" xlink:title="/home/travis/build\l/AliceO2Group/AliceO2\l/Detectors/MUON/MCH/Raw\l/ElecMap/src/Mapper.cxx">
<polygon fill="none" stroke="#000000" points="1483,-284 1483,-336 1633,-336 1633,-284 1483,-284"/>
<text text-anchor="start" x="1491" y="-324" font-family="Helvetica,sans-Serif" font-size="10.00" fill="#000000">/home/travis/build</text>
<text text-anchor="start" x="1491" y="-313" font-family="Helvetica,sans-Serif" font-size="10.00" fill="#000000">/AliceO2Group/AliceO2</text>
<text text-anchor="start" x="1491" y="-302" font-family="Helvetica,sans-Serif" font-size="10.00" fill="#000000">/Detectors/MUON/MCH/Raw</text>
<text text-anchor="middle" x="1558" y="-291" font-family="Helvetica,sans-Serif" font-size="10.00" fill="#000000">/ElecMap/src/Mapper.cxx</text>
</a>
</g>
</g>
<!-- Node13&#45;&gt;Node27 -->
<g id="edge19" class="edge">
<title>Node13&#45;&gt;Node27</title>
<path fill="none" stroke="#191970" d="M902.1391,-403.0164C1063.7062,-391.5036 1368.9745,-367.2861 1475,-342 1481.76,-340.3878 1488.7081,-338.3536 1495.5692,-336.0956"/>
<polygon fill="#191970" stroke="#191970" points="901.4357,-399.5574 891.7084,-403.7562 901.931,-406.5398 901.4357,-399.5574"/>
</g>
<!-- Node28 -->
<g id="node16" class="node">
<title>Node28</title>
<g id="a_node16"><a xlink:href="../../d2/da7/testElectronicMapper_8cxx.html" target="_top" xlink:title="/home/travis/build\l/AliceO2Group/AliceO2\l/Detectors/MUON/MCH/Raw\l/ElecMap/src/testElectronicMapper.cxx">
<polygon fill="none" stroke="#000000" points="1650.5,-284 1650.5,-336 1853.5,-336 1853.5,-284 1650.5,-284"/>
<text text-anchor="start" x="1658.5" y="-324" font-family="Helvetica,sans-Serif" font-size="10.00" fill="#000000">/home/travis/build</text>
<text text-anchor="start" x="1658.5" y="-313" font-family="Helvetica,sans-Serif" font-size="10.00" fill="#000000">/AliceO2Group/AliceO2</text>
<text text-anchor="start" x="1658.5" y="-302" font-family="Helvetica,sans-Serif" font-size="10.00" fill="#000000">/Detectors/MUON/MCH/Raw</text>
<text text-anchor="middle" x="1752" y="-291" font-family="Helvetica,sans-Serif" font-size="10.00" fill="#000000">/ElecMap/src/testElectronicMapper.cxx</text>
</a>
</g>
</g>
<!-- Node13&#45;&gt;Node28 -->
<g id="edge20" class="edge">
<title>Node13&#45;&gt;Node28</title>
<path fill="none" stroke="#191970" d="M902.0901,-408.3907C1061.8419,-404.3947 1378.2851,-390.4767 1642,-342 1650.9003,-340.3639 1660.1117,-338.2986 1669.2424,-336.0082"/>
<polygon fill="#191970" stroke="#191970" points="901.7087,-404.8988 891.7963,-408.6398 901.8781,-411.8968 901.7087,-404.8988"/>
</g>
<!-- Node15 -->
<g id="node3" class="node">
<title>Node15</title>
<g id="a_node3"><a xlink:href="../../d0/da1/PayloadDecoder_8h.html" target="_top" xlink:title="/home/travis/build\l/AliceO2Group/AliceO2\l/Detectors/MUON/MCH/Raw\l/Decoder/src/PayloadDecoder.h">
<polygon fill="none" stroke="#000000" points="298.5,-189.5 298.5,-241.5 465.5,-241.5 465.5,-189.5 298.5,-189.5"/>
<text text-anchor="start" x="306.5" y="-229.5" font-family="Helvetica,sans-Serif" font-size="10.00" fill="#000000">/home/travis/build</text>
<text text-anchor="start" x="306.5" y="-218.5" font-family="Helvetica,sans-Serif" font-size="10.00" fill="#000000">/AliceO2Group/AliceO2</text>
<text text-anchor="start" x="306.5" y="-207.5" font-family="Helvetica,sans-Serif" font-size="10.00" fill="#000000">/Detectors/MUON/MCH/Raw</text>
<text text-anchor="middle" x="382" y="-196.5" font-family="Helvetica,sans-Serif" font-size="10.00" fill="#000000">/Decoder/src/PayloadDecoder.h</text>
</a>
</g>
</g>
<!-- Node14&#45;&gt;Node15 -->
<g id="edge2" class="edge">
<title>Node14&#45;&gt;Node15</title>
<path fill="none" stroke="#191970" d="M474.2985,-272.883C457.4992,-262.4387 439.585,-251.3012 424.052,-241.6442"/>
<polygon fill="#191970" stroke="#191970" points="472.6228,-275.9624 482.9634,-278.27 476.3188,-270.0177 472.6228,-275.9624"/>
</g>
<!-- Node14&#45;&gt;Node17 -->
<g id="edge9" class="edge">
<title>Node14&#45;&gt;Node17</title>
<path fill="none" stroke="#191970" d="M431.4095,-291.7017C302.611,-266.3517 93.119,-216.4157 49,-153 29.1037,-124.4015 46.9684,-84.2855 63.1649,-58.2202"/>
<polygon fill="#191970" stroke="#191970" points="430.8221,-295.153 441.3073,-293.6327 432.1625,-288.2825 430.8221,-295.153"/>
</g>
<!-- Node18 -->
<g id="node6" class="node">
<title>Node18</title>
<g id="a_node6"><a xlink:href="../../d6/d95/testPageDecoder_8cxx.html" target="_top" xlink:title="/home/travis/build\l/AliceO2Group/AliceO2\l/Detectors/MUON/MCH/Raw\l/Decoder/src/testPageDecoder.cxx">
<polygon fill="none" stroke="#000000" points="429,-6 429,-58 611,-58 611,-6 429,-6"/>
<text text-anchor="start" x="437" y="-46" font-family="Helvetica,sans-Serif" font-size="10.00" fill="#000000">/home/travis/build</text>
<text text-anchor="start" x="437" y="-35" font-family="Helvetica,sans-Serif" font-size="10.00" fill="#000000">/AliceO2Group/AliceO2</text>
<text text-anchor="start" x="437" y="-24" font-family="Helvetica,sans-Serif" font-size="10.00" fill="#000000">/Detectors/MUON/MCH/Raw</text>
<text text-anchor="middle" x="520" y="-13" font-family="Helvetica,sans-Serif" font-size="10.00" fill="#000000">/Decoder/src/testPageDecoder.cxx</text>
</a>
</g>
</g>
<!-- Node14&#45;&gt;Node18 -->
<g id="edge10" class="edge">
<title>Node14&#45;&gt;Node18</title>
<path fill="none" stroke="#191970" d="M531.8887,-268.0752C528.9609,-209.9385 523.7545,-106.5535 521.3215,-58.2411"/>
<polygon fill="#191970" stroke="#191970" points="528.409,-268.5692 532.4077,-278.3805 535.4002,-268.2171 528.409,-268.5692"/>
</g>
<!-- Node20 -->
<g id="node8" class="node">
<title>Node20</title>
<g id="a_node8"><a xlink:href="../../d8/dcb/testUserLogicEndpointDecoder_8cxx.html" target="_top" xlink:title="/home/travis/build\l/AliceO2Group/AliceO2\l/Detectors/MUON/MCH/Raw\l/Decoder/src/testUserLogicEndpoint\lDecoder.cxx">
<polygon fill="none" stroke="#000000" points="208,-.5 208,-63.5 398,-63.5 398,-.5 208,-.5"/>
<text text-anchor="start" x="216" y="-51.5" font-family="Helvetica,sans-Serif" font-size="10.00" fill="#000000">/home/travis/build</text>
<text text-anchor="start" x="216" y="-40.5" font-family="Helvetica,sans-Serif" font-size="10.00" fill="#000000">/AliceO2Group/AliceO2</text>
<text text-anchor="start" x="216" y="-29.5" font-family="Helvetica,sans-Serif" font-size="10.00" fill="#000000">/Detectors/MUON/MCH/Raw</text>
<text text-anchor="start" x="216" y="-18.5" font-family="Helvetica,sans-Serif" font-size="10.00" fill="#000000">/Decoder/src/testUserLogicEndpoint</text>
<text text-anchor="middle" x="303" y="-7.5" font-family="Helvetica,sans-Serif" font-size="10.00" fill="#000000">Decoder.cxx</text>
</a>
</g>
</g>
<!-- Node14&#45;&gt;Node20 -->
<g id="edge11" class="edge">
<title>Node14&#45;&gt;Node20</title>
<path fill="none" stroke="#191970" d="M527.2346,-268.2449C517.7546,-214.3887 499.1695,-124.691 477,-100 465.2449,-86.9079 432.1984,-72.6986 398.0199,-60.6707"/>
<polygon fill="#191970" stroke="#191970" points="523.8004,-268.9265 528.9526,-278.1842 530.6981,-267.7342 523.8004,-268.9265"/>
</g>
<!-- Node14&#45;&gt;Node21 -->
<g id="edge12" class="edge">
<title>Node14&#45;&gt;Node21</title>
<path fill="none" stroke="#191970" d="M576.0267,-271.4415C586.9497,-261.42 598.4614,-250.8582 608.5043,-241.6442"/>
<polygon fill="#191970" stroke="#191970" points="573.5865,-268.9305 568.584,-278.27 578.3188,-274.0885 573.5865,-268.9305"/>
</g>
<!-- Node14&#45;&gt;Node22 -->
<g id="edge13" class="edge">
<title>Node14&#45;&gt;Node22</title>
<path fill="none" stroke="#191970" d="M636.5507,-275.756C670.2772,-264.494 707.2052,-252.1629 738.8202,-241.606"/>
<polygon fill="#191970" stroke="#191970" points="635.0414,-272.57 626.6648,-279.0572 637.2585,-279.2096 635.0414,-272.57"/>
</g>
<!-- Node14&#45;&gt;Node23 -->
<g id="edge14" class="edge">
<title>Node14&#45;&gt;Node23</title>
<path fill="none" stroke="#191970" d="M636.4493,-291.8581C744.0077,-272.775 899.4682,-245.0748 913,-242 915.9505,-241.3296 918.9463,-240.6269 921.9673,-239.8997"/>
<polygon fill="#191970" stroke="#191970" points="635.7567,-288.4262 626.5217,-293.6191 636.9794,-295.3187 635.7567,-288.4262"/>
</g>
<!-- Node16 -->
<g id="node4" class="node">
<title>Node16</title>
<g id="a_node4"><a xlink:href="../../da/db7/BareGBTDecoder_8h.html" target="_top" xlink:title="/home/travis/build\l/AliceO2Group/AliceO2\l/Detectors/MUON/MCH/Raw\l/Decoder/src/BareGBTDecoder.h">
<polygon fill="none" stroke="#000000" points="296,-100.5 296,-152.5 468,-152.5 468,-100.5 296,-100.5"/>
<text text-anchor="start" x="304" y="-140.5" font-family="Helvetica,sans-Serif" font-size="10.00" fill="#000000">/home/travis/build</text>
<text text-anchor="start" x="304" y="-129.5" font-family="Helvetica,sans-Serif" font-size="10.00" fill="#000000">/AliceO2Group/AliceO2</text>
<text text-anchor="start" x="304" y="-118.5" font-family="Helvetica,sans-Serif" font-size="10.00" fill="#000000">/Detectors/MUON/MCH/Raw</text>
<text text-anchor="middle" x="382" y="-107.5" font-family="Helvetica,sans-Serif" font-size="10.00" fill="#000000">/Decoder/src/BareGBTDecoder.h</text>
</a>
</g>
</g>
<!-- Node15&#45;&gt;Node16 -->
<g id="edge3" class="edge">
<title>Node15&#45;&gt;Node16</title>
<path fill="none" stroke="#191970" d="M382,-179.1155C382,-170.2061 382,-160.8475 382,-152.5341"/>
<polygon fill="#191970" stroke="#191970" points="378.5001,-179.2784 382,-189.2784 385.5001,-179.2785 378.5001,-179.2784"/>
</g>
<!-- Node19 -->
<g id="node7" class="node">
<title>Node19</title>
<g id="a_node7"><a xlink:href="../../db/d18/UserLogicEndpointDecoder_8h.html" target="_top" xlink:title="/home/travis/build\l/AliceO2Group/AliceO2\l/Detectors/MUON/MCH/Raw\l/Decoder/src/UserLogicEndpointDecoder.h">
<polygon fill="none" stroke="#000000" points="58,-100.5 58,-152.5 278,-152.5 278,-100.5 58,-100.5"/>
<text text-anchor="start" x="66" y="-140.5" font-family="Helvetica,sans-Serif" font-size="10.00" fill="#000000">/home/travis/build</text>
<text text-anchor="start" x="66" y="-129.5" font-family="Helvetica,sans-Serif" font-size="10.00" fill="#000000">/AliceO2Group/AliceO2</text>
<text text-anchor="start" x="66" y="-118.5" font-family="Helvetica,sans-Serif" font-size="10.00" fill="#000000">/Detectors/MUON/MCH/Raw</text>
<text text-anchor="middle" x="168" y="-107.5" font-family="Helvetica,sans-Serif" font-size="10.00" fill="#000000">/Decoder/src/UserLogicEndpointDecoder.h</text>
</a>
</g>
</g>
<!-- Node15&#45;&gt;Node19 -->
<g id="edge6" class="edge">
<title>Node15&#45;&gt;Node19</title>
<path fill="none" stroke="#191970" d="M309.9314,-185.5276C284.2639,-174.8527 255.584,-162.9251 230.76,-152.6011"/>
<polygon fill="#191970" stroke="#191970" points="308.6615,-188.79 319.2389,-189.3984 311.3496,-182.3267 308.6615,-188.79"/>
</g>
<!-- Node16&#45;&gt;Node17 -->
<g id="edge4" class="edge">
<title>Node16&#45;&gt;Node17</title>
<path fill="none" stroke="#191970" d="M289.4718,-97.3536C249.4621,-84.7506 203.0253,-70.123 164.2405,-57.9058"/>
<polygon fill="#191970" stroke="#191970" points="288.64,-100.7611 299.2295,-100.4273 290.7431,-94.0845 288.64,-100.7611"/>
</g>
<!-- Node16&#45;&gt;Node18 -->
<g id="edge5" class="edge">
<title>Node16&#45;&gt;Node18</title>
<path fill="none" stroke="#191970" d="M428.3676,-94.7483C445.6551,-82.9101 465.074,-69.6124 481.5708,-58.3157"/>
<polygon fill="#191970" stroke="#191970" points="426.3478,-91.8894 420.0744,-100.4273 430.3028,-97.665 426.3478,-91.8894"/>
</g>
<!-- Node19&#45;&gt;Node17 -->
<g id="edge7" class="edge">
<title>Node19&#45;&gt;Node17</title>
<path fill="none" stroke="#191970" d="M137.33,-92.7986C127.0161,-81.4654 115.6685,-68.9962 105.9487,-58.3157"/>
<polygon fill="#191970" stroke="#191970" points="134.9533,-95.3871 144.2725,-100.4273 140.1304,-90.6757 134.9533,-95.3871"/>
</g>
<!-- Node19&#45;&gt;Node20 -->
<g id="edge8" class="edge">
<title>Node19&#45;&gt;Node20</title>
<path fill="none" stroke="#191970" d="M213.4519,-94.6837C227.7153,-84.6993 243.4542,-73.682 257.7066,-63.7054"/>
<polygon fill="#191970" stroke="#191970" points="211.4319,-91.8253 205.2467,-100.4273 215.4462,-97.56 211.4319,-91.8253"/>
</g>
</g>
</svg>
        <g id="navigator" transform="translate(0 0)" fill="#404254">
                <rect fill="#f2f5e9" fill-opacity="0.5" stroke="#606060" stroke-width=".5" x="0" y="0" width="60" height="60"/>
                <use id="zoomplus" xlink:href="#zoomPlus" x="17" y="9" onmousedown="handleZoom(evt,'in')"/>
                <use id="zoomminus" xlink:href="#zoomMin" x="42" y="9" onmousedown="handleZoom(evt,'out')"/>
                <use id="reset" xlink:href="#resetDef" x="30" y="36" onmousedown="handleReset()"/>
                <g id="arrowUp" xlink:href="#dirArrow" transform="translate(30 24)" onmousedown="handlePan(0,-1)">
                  <use xlink:href="#rim" fill="#404040">
                        <set attributeName="fill" to="#808080" begin="arrowUp.mouseover" end="arrowUp.mouseout"/>
                  </use>
                  <path fill="none" stroke="white" stroke-width="1.5" d="M0,-3.0v7 M-2.5,-0.5L0,-3.0L2.5,-0.5"/>
                </g>
                <g id="arrowRight" xlink:href="#dirArrow" transform="rotate(90) translate(36 -43)" onmousedown="handlePan(1,0)">
                  <use xlink:href="#rim" fill="#404040">
                        <set attributeName="fill" to="#808080" begin="arrowRight.mouseover" end="arrowRight.mouseout"/>
                  </use>
                  <path fill="none" stroke="white" stroke-width="1.5" d="M0,-3.0v7 M-2.5,-0.5L0,-3.0L2.5,-0.5"/>
                </g>
                <g id="arrowDown" xlink:href="#dirArrow" transform="rotate(180) translate(-30 -48)" onmousedown="handlePan(0,1)">
                  <use xlink:href="#rim" fill="#404040">
                        <set attributeName="fill" to="#808080" begin="arrowDown.mouseover" end="arrowDown.mouseout"/>
                  </use>
                  <path fill="none" stroke="white" stroke-width="1.5" d="M0,-3.0v7 M-2.5,-0.5L0,-3.0L2.5,-0.5"/>
                </g>
                <g id="arrowLeft" xlink:href="#dirArrow" transform="rotate(270) translate(-36 17)" onmousedown="handlePan(-1,0)">
                  <use xlink:href="#rim" fill="#404040">
                        <set attributeName="fill" to="#808080" begin="arrowLeft.mouseover" end="arrowLeft.mouseout"/>
                  </use>
                  <path fill="none" stroke="white" stroke-width="1.5" d="M0,-3.0v7 M-2.5,-0.5L0,-3.0L2.5,-0.5"/>
                </g>
        </g>
        <svg viewBox="0 0 15 15" width="100%" height="30px" preserveAspectRatio="xMaxYMin meet">
         <g id="arrow_out" transform="scale(0.3 0.3)">
          <a xlink:href="MUON_2MCH_2Raw_2ElecMap_2include_2MCHRawElecMap_2Mapper_8h__dep__incl_org.svg" target="_base">
           <rect id="button" ry="5" rx="5" y="6" x="6" height="38" width="38"
                fill="#f2f5e9" fill-opacity="0.5" stroke="#606060" stroke-width="1.0"/>
           <path id="arrow"
             d="M 11.500037,31.436501 C 11.940474,20.09759 22.043105,11.32322 32.158766,21.979434 L 37.068811,17.246167 C 37.068811,17.246167 37.088388,32 37.088388,32 L 22.160133,31.978069 C 22.160133,31.978069 26.997745,27.140456 26.997745,27.140456 C 18.528582,18.264221 13.291696,25.230495 11.500037,31.436501 z"
             style="fill:#404040;"/>
          </a>
         </g>
        </svg>
</svg>
