<?xml version="1.0" encoding="UTF-8" standalone="no"?>
<!DOCTYPE svg PUBLIC "-//W3C//DTD SVG 1.1//EN"
 "http://www.w3.org/Graphics/SVG/1.1/DTD/svg11.dtd">
<!-- Generated by graphviz version 2.40.1 (20161225.0304)
 -->
<!-- Title: /home/travis/build/AliceO2Group/AliceO2/DataFormats/Detectors/EMCAL/include/DataFormatsEMCAL/Cell.h Pages: 1 -->
<!--zoomable 461 -->
<svg id="main" version="1.1" xmlns="http://www.w3.org/2000/svg" xmlns:xlink="http://www.w3.org/1999/xlink" xml:space="preserve" onload="init(evt)">
<style type="text/css"><![CDATA[
.edge:hover path { stroke: red; }
.edge:hover polygon { stroke: red; fill: red; }
]]></style>
<script type="text/javascript"><![CDATA[
var edges = document.getElementsByTagName('g');
if (edges && edges.length) {
  for (var i=0;i<edges.length;i++) {
    if (edges[i].id.substr(0,4)=='edge') {
      edges[i].setAttribute('class','edge');
    }
  }
}
]]></script>
        <defs>
                <circle id="rim" cx="0" cy="0" r="7"/>
                <circle id="rim2" cx="0" cy="0" r="3.5"/>
                <g id="zoomPlus">
                        <use xlink:href="#rim" fill="#404040">
                                <set attributeName="fill" to="#808080" begin="zoomplus.mouseover" end="zoomplus.mouseout"/>
                        </use>
                        <path d="M-4,0h8M0,-4v8" fill="none" stroke="white" stroke-width="1.5" pointer-events="none"/>
                </g>
                <g id="zoomMin">
                        <use xlink:href="#rim" fill="#404040">
                                <set attributeName="fill" to="#808080" begin="zoomminus.mouseover" end="zoomminus.mouseout"/>
                        </use>
                        <path d="M-4,0h8" fill="none" stroke="white" stroke-width="1.5" pointer-events="none"/>
                </g>
                <g id="dirArrow">
                        <path fill="none" stroke="white" stroke-width="1.5" d="M0,-3.0v7 M-2.5,-0.5L0,-3.0L2.5,-0.5"/>
                </g>
               <g id="resetDef">
                       <use xlink:href="#rim2" fill="#404040">
                               <set attributeName="fill" to="#808080" begin="reset.mouseover" end="reset.mouseout"/>
                       </use>
               </g>
        </defs>

<script type="text/javascript">
var viewWidth = 1790;
var viewHeight = 461;
var sectionId = 'dynsection-1';
</script>
<script xlink:href="../../svgpan.js"/>
<svg id="graph" class="graph">
<g id="viewport">
<title>/home/travis/build/AliceO2Group/AliceO2/DataFormats/Detectors/EMCAL/include/DataFormatsEMCAL/Cell.h</title>
<!-- Node7 -->
<g id="node1" class="node">
<title>Node7</title>
<polygon fill="#bfbfbf" stroke="#000000" points="698.5,-389.5 698.5,-452.5 891.5,-452.5 891.5,-389.5 698.5,-389.5"/>
<text text-anchor="start" x="706.5" y="-440.5" font-family="Helvetica,sans-Serif" font-size="10.00" fill="#000000">/home/travis/build</text>
<text text-anchor="start" x="706.5" y="-429.5" font-family="Helvetica,sans-Serif" font-size="10.00" fill="#000000">/AliceO2Group/AliceO2</text>
<text text-anchor="start" x="706.5" y="-418.5" font-family="Helvetica,sans-Serif" font-size="10.00" fill="#000000">/DataFormats/Detectors</text>
<text text-anchor="start" x="706.5" y="-407.5" font-family="Helvetica,sans-Serif" font-size="10.00" fill="#000000">/EMCAL/include/DataFormatsEMCAL/</text>
<text text-anchor="middle" x="795" y="-396.5" font-family="Helvetica,sans-Serif" font-size="10.00" fill="#000000">Cell.h</text>
</g>
<!-- Node8 -->
<g id="node2" class="node">
<title>Node8</title>
<g id="a_node2"><a xlink:href="../../dd/df3/EventData_8h.html" target="_top" xlink:title="/home/travis/build\l/AliceO2Group/AliceO2\l/DataFormats/Detectors\l/EMCAL/include/DataFormatsEMCAL\l/EventData.h">
<polygon fill="none" stroke="#000000" points="0,-289.5 0,-352.5 190,-352.5 190,-289.5 0,-289.5"/>
<text text-anchor="start" x="8" y="-340.5" font-family="Helvetica,sans-Serif" font-size="10.00" fill="#000000">/home/travis/build</text>
<text text-anchor="start" x="8" y="-329.5" font-family="Helvetica,sans-Serif" font-size="10.00" fill="#000000">/AliceO2Group/AliceO2</text>
<text text-anchor="start" x="8" y="-318.5" font-family="Helvetica,sans-Serif" font-size="10.00" fill="#000000">/DataFormats/Detectors</text>
<text text-anchor="start" x="8" y="-307.5" font-family="Helvetica,sans-Serif" font-size="10.00" fill="#000000">/EMCAL/include/DataFormatsEMCAL</text>
<text text-anchor="middle" x="95" y="-296.5" font-family="Helvetica,sans-Serif" font-size="10.00" fill="#000000">/EventData.h</text>
</a>
</g>
</g>
<!-- Node7&#45;&gt;Node8 -->
<g id="edge1" class="edge">
<title>Node7&#45;&gt;Node8</title>
<path fill="none" stroke="#191970" d="M688.2958,-414.2377C569.2753,-405.4204 371.4487,-386.9531 204,-353 199.4577,-352.079 194.8308,-351.0574 190.1732,-349.9615"/>
<polygon fill="#191970" stroke="#191970" points="688.2703,-417.7451 698.499,-414.9842 688.7811,-410.7638 688.2703,-417.7451"/>
</g>
<!-- Node9 -->
<g id="node3" class="node">
<title>Node9</title>
<g id="a_node3"><a xlink:href="../../da/dcc/EventHandler_8h.html" target="_top" xlink:title="/home/travis/build\l/AliceO2Group/AliceO2\l/DataFormats/Detectors\l/EMCAL/include/DataFormatsEMCAL\l/EventHandler.h">
<polygon fill="none" stroke="#000000" points="123,-189.5 123,-252.5 313,-252.5 313,-189.5 123,-189.5"/>
<text text-anchor="start" x="131" y="-240.5" font-family="Helvetica,sans-Serif" font-size="10.00" fill="#000000">/home/travis/build</text>
<text text-anchor="start" x="131" y="-229.5" font-family="Helvetica,sans-Serif" font-size="10.00" fill="#000000">/AliceO2Group/AliceO2</text>
<text text-anchor="start" x="131" y="-218.5" font-family="Helvetica,sans-Serif" font-size="10.00" fill="#000000">/DataFormats/Detectors</text>
<text text-anchor="start" x="131" y="-207.5" font-family="Helvetica,sans-Serif" font-size="10.00" fill="#000000">/EMCAL/include/DataFormatsEMCAL</text>
<text text-anchor="middle" x="218" y="-196.5" font-family="Helvetica,sans-Serif" font-size="10.00" fill="#000000">/EventHandler.h</text>
</a>
</g>
</g>
<!-- Node7&#45;&gt;Node9 -->
<g id="edge7" class="edge">
<title>Node7&#45;&gt;Node9</title>
<path fill="none" stroke="#191970" d="M688.433,-413.7012C541.2697,-402.6927 290.2198,-380.2078 258,-353 228.8191,-328.3583 220.4728,-283.1817 218.3269,-252.6243"/>
<polygon fill="#191970" stroke="#191970" points="688.177,-417.1917 698.4087,-414.4418 688.6953,-410.211 688.177,-417.1917"/>
</g>
<!-- Node13 -->
<g id="node7" class="node">
<title>Node13</title>
<g id="a_node7"><a xlink:href="../../d2/dbf/EMCAL_2workflow_2src_2RecoWorkflow_8cxx.html" target="_top" xlink:title="/home/travis/build\l/AliceO2Group/AliceO2\l/Detectors/EMCAL/workflow\l/src/RecoWorkflow.cxx">
<polygon fill="none" stroke="#000000" points="867,-.5 867,-52.5 1017,-52.5 1017,-.5 867,-.5"/>
<text text-anchor="start" x="875" y="-40.5" font-family="Helvetica,sans-Serif" font-size="10.00" fill="#000000">/home/travis/build</text>
<text text-anchor="start" x="875" y="-29.5" font-family="Helvetica,sans-Serif" font-size="10.00" fill="#000000">/AliceO2Group/AliceO2</text>
<text text-anchor="start" x="875" y="-18.5" font-family="Helvetica,sans-Serif" font-size="10.00" fill="#000000">/Detectors/EMCAL/workflow</text>
<text text-anchor="middle" x="942" y="-7.5" font-family="Helvetica,sans-Serif" font-size="10.00" fill="#000000">/src/RecoWorkflow.cxx</text>
</a>
</g>
</g>
<!-- Node7&#45;&gt;Node13 -->
<g id="edge30" class="edge">
<title>Node7&#45;&gt;Node13</title>
<path fill="none" stroke="#191970" d="M901.4574,-400.7655C950.6826,-389.0308 1001.4669,-372.6772 1016,-353 1032.8989,-330.1196 1022.2238,-316.7552 1016,-289 1012.1284,-271.7345 1004.9651,-269.6584 999,-253 973.7106,-182.3757 955.2051,-95.54 946.8855,-52.8058"/>
<polygon fill="#191970" stroke="#191970" points="900.5901,-397.3738 891.6444,-403.0505 902.1776,-404.1914 900.5901,-397.3738"/>
</g>
<!-- Node14 -->
<g id="node8" class="node">
<title>Node14</title>
<g id="a_node8"><a xlink:href="../../d8/d4e/EMCAL_2src_2Cell_8cxx.html" target="_top" xlink:title="/home/travis/build\l/AliceO2Group/AliceO2\l/DataFormats/Detectors\l/EMCAL/src/Cell.cxx">
<polygon fill="none" stroke="#000000" points="284.5,-295 284.5,-347 417.5,-347 417.5,-295 284.5,-295"/>
<text text-anchor="start" x="292.5" y="-335" font-family="Helvetica,sans-Serif" font-size="10.00" fill="#000000">/home/travis/build</text>
<text text-anchor="start" x="292.5" y="-324" font-family="Helvetica,sans-Serif" font-size="10.00" fill="#000000">/AliceO2Group/AliceO2</text>
<text text-anchor="start" x="292.5" y="-313" font-family="Helvetica,sans-Serif" font-size="10.00" fill="#000000">/DataFormats/Detectors</text>
<text text-anchor="middle" x="351" y="-302" font-family="Helvetica,sans-Serif" font-size="10.00" fill="#000000">/EMCAL/src/Cell.cxx</text>
</a>
</g>
</g>
<!-- Node7&#45;&gt;Node14 -->
<g id="edge8" class="edge">
<title>Node7&#45;&gt;Node14</title>
<path fill="none" stroke="#191970" d="M688.053,-407.467C613.8317,-396.5696 513.2022,-378.7822 427,-353 421.2393,-351.277 415.3231,-349.2581 409.4576,-347.0866"/>
<polygon fill="#191970" stroke="#191970" points="687.9478,-410.9882 698.3464,-408.959 688.952,-404.0606 687.9478,-410.9882"/>
</g>
<!-- Node15 -->
<g id="node9" class="node">
<title>Node15</title>
<g id="a_node9"><a xlink:href="../../d5/d49/EMCAL_2test_2testCell_8cxx.html" target="_top" xlink:title="/home/travis/build\l/AliceO2Group/AliceO2\l/DataFormats/Detectors\l/EMCAL/test/testCell.cxx">
<polygon fill="none" stroke="#000000" points="435.5,-295 435.5,-347 570.5,-347 570.5,-295 435.5,-295"/>
<text text-anchor="start" x="443.5" y="-335" font-family="Helvetica,sans-Serif" font-size="10.00" fill="#000000">/home/travis/build</text>
<text text-anchor="start" x="443.5" y="-324" font-family="Helvetica,sans-Serif" font-size="10.00" fill="#000000">/AliceO2Group/AliceO2</text>
<text text-anchor="start" x="443.5" y="-313" font-family="Helvetica,sans-Serif" font-size="10.00" fill="#000000">/DataFormats/Detectors</text>
<text text-anchor="middle" x="503" y="-302" font-family="Helvetica,sans-Serif" font-size="10.00" fill="#000000">/EMCAL/test/testCell.cxx</text>
</a>
</g>
</g>
<!-- Node7&#45;&gt;Node15 -->
<g id="edge9" class="edge">
<title>Node7&#45;&gt;Node15</title>
<path fill="none" stroke="#191970" d="M688.6213,-389.3788C653.7865,-378.4868 615.0424,-365.7953 580,-353 574.9686,-351.1628 569.7831,-349.1883 564.5932,-347.1544"/>
<polygon fill="#191970" stroke="#191970" points="687.7481,-392.7726 698.3365,-392.4018 689.8279,-386.0887 687.7481,-392.7726"/>
</g>
<!-- Node16 -->
<g id="node10" class="node">
<title>Node16</title>
<g id="a_node10"><a xlink:href="../../d0/d55/ClusterFactory_8h.html" target="_top" xlink:title="/home/travis/build\l/AliceO2Group/AliceO2\l/Detectors/EMCAL/base\l/include/EMCALBase/ClusterFactory.h">
<polygon fill="none" stroke="#000000" points="588.5,-295 588.5,-347 783.5,-347 783.5,-295 588.5,-295"/>
<text text-anchor="start" x="596.5" y="-335" font-family="Helvetica,sans-Serif" font-size="10.00" fill="#000000">/home/travis/build</text>
<text text-anchor="start" x="596.5" y="-324" font-family="Helvetica,sans-Serif" font-size="10.00" fill="#000000">/AliceO2Group/AliceO2</text>
<text text-anchor="start" x="596.5" y="-313" font-family="Helvetica,sans-Serif" font-size="10.00" fill="#000000">/Detectors/EMCAL/base</text>
<text text-anchor="middle" x="686" y="-302" font-family="Helvetica,sans-Serif" font-size="10.00" fill="#000000">/include/EMCALBase/ClusterFactory.h</text>
</a>
</g>
</g>
<!-- Node7&#45;&gt;Node16 -->
<g id="edge10" class="edge">
<title>Node7&#45;&gt;Node16</title>
<path fill="none" stroke="#191970" d="M753.0435,-382.5078C740.1241,-370.6552 726.2104,-357.8902 714.425,-347.078"/>
<polygon fill="#191970" stroke="#191970" points="750.7768,-385.1781 760.5117,-389.3594 755.5091,-380.02 750.7768,-385.1781"/>
</g>
<!-- Node17 -->
<g id="node11" class="node">
<title>Node17</title>
<g id="a_node11"><a xlink:href="../../d0/d21/ClusterFactory_8cxx.html" target="_top" xlink:title="/home/travis/build\l/AliceO2Group/AliceO2\l/Detectors/EMCAL/base\l/src/ClusterFactory.cxx">
<polygon fill="none" stroke="#000000" points="436.5,-195 436.5,-247 565.5,-247 565.5,-195 436.5,-195"/>
<text text-anchor="start" x="444.5" y="-235" font-family="Helvetica,sans-Serif" font-size="10.00" fill="#000000">/home/travis/build</text>
<text text-anchor="start" x="444.5" y="-224" font-family="Helvetica,sans-Serif" font-size="10.00" fill="#000000">/AliceO2Group/AliceO2</text>
<text text-anchor="start" x="444.5" y="-213" font-family="Helvetica,sans-Serif" font-size="10.00" fill="#000000">/Detectors/EMCAL/base</text>
<text text-anchor="middle" x="501" y="-202" font-family="Helvetica,sans-Serif" font-size="10.00" fill="#000000">/src/ClusterFactory.cxx</text>
</a>
</g>
</g>
<!-- Node7&#45;&gt;Node17 -->
<g id="edge13" class="edge">
<title>Node7&#45;&gt;Node17</title>
<path fill="none" stroke="#191970" d="M688.1724,-414.4671C543.951,-404.5405 301.7971,-383.5295 275,-353 256.236,-331.6225 258.0299,-311.8277 275,-289 294.4033,-262.8993 376.6492,-243.0205 436.3367,-231.6839"/>
<polygon fill="#191970" stroke="#191970" points="688.168,-417.9748 698.3828,-415.1626 688.6438,-410.991 688.168,-417.9748"/>
</g>
<!-- Node18 -->
<g id="node12" class="node">
<title>Node18</title>
<g id="a_node12"><a xlink:href="../../da/d9a/EMCAL_2reconstruction_2include_2EMCALReconstruction_2Clusterizer_8h.html" target="_top" xlink:title="/home/travis/build\l/AliceO2Group/AliceO2\l/Detectors/EMCAL/reconstruction\l/include/EMCALReconstruction\l/Clusterizer.h">
<polygon fill="none" stroke="#000000" points="1063,-289.5 1063,-352.5 1239,-352.5 1239,-289.5 1063,-289.5"/>
<text text-anchor="start" x="1071" y="-340.5" font-family="Helvetica,sans-Serif" font-size="10.00" fill="#000000">/home/travis/build</text>
<text text-anchor="start" x="1071" y="-329.5" font-family="Helvetica,sans-Serif" font-size="10.00" fill="#000000">/AliceO2Group/AliceO2</text>
<text text-anchor="start" x="1071" y="-318.5" font-family="Helvetica,sans-Serif" font-size="10.00" fill="#000000">/Detectors/EMCAL/reconstruction</text>
<text text-anchor="start" x="1071" y="-307.5" font-family="Helvetica,sans-Serif" font-size="10.00" fill="#000000">/include/EMCALReconstruction</text>
<text text-anchor="middle" x="1151" y="-296.5" font-family="Helvetica,sans-Serif" font-size="10.00" fill="#000000">/Clusterizer.h</text>
</a>
</g>
</g>
<!-- Node7&#45;&gt;Node18 -->
<g id="edge14" class="edge">
<title>Node7&#45;&gt;Node18</title>
<path fill="none" stroke="#191970" d="M901.6428,-393.526C947.1668,-381.5197 1000.8085,-367.0035 1049,-353 1053.5447,-351.6794 1058.196,-350.3044 1062.8876,-348.8989"/>
<polygon fill="#191970" stroke="#191970" points="900.5382,-390.1975 891.7582,-396.1272 902.3197,-396.967 900.5382,-390.1975"/>
</g>
<!-- Node19 -->
<g id="node13" class="node">
<title>Node19</title>
<g id="a_node13"><a xlink:href="../../d8/dc0/ClusterizerTask_8h.html" target="_top" xlink:title="Definition of the EMCAL clusterizer task. ">
<polygon fill="none" stroke="#000000" points="1412,-189.5 1412,-252.5 1588,-252.5 1588,-189.5 1412,-189.5"/>
<text text-anchor="start" x="1420" y="-240.5" font-family="Helvetica,sans-Serif" font-size="10.00" fill="#000000">/home/travis/build</text>
<text text-anchor="start" x="1420" y="-229.5" font-family="Helvetica,sans-Serif" font-size="10.00" fill="#000000">/AliceO2Group/AliceO2</text>
<text text-anchor="start" x="1420" y="-218.5" font-family="Helvetica,sans-Serif" font-size="10.00" fill="#000000">/Detectors/EMCAL/reconstruction</text>
<text text-anchor="start" x="1420" y="-207.5" font-family="Helvetica,sans-Serif" font-size="10.00" fill="#000000">/include/EMCALReconstruction</text>
<text text-anchor="middle" x="1500" y="-196.5" font-family="Helvetica,sans-Serif" font-size="10.00" fill="#000000">/ClusterizerTask.h</text>
</a>
</g>
</g>
<!-- Node7&#45;&gt;Node19 -->
<g id="edge22" class="edge">
<title>Node7&#45;&gt;Node19</title>
<path fill="none" stroke="#191970" d="M901.7204,-415.0305C995.0071,-407.4638 1133.1232,-390.5286 1248,-353 1258.1523,-349.6834 1369.6666,-290.5676 1440.9094,-252.5833"/>
<polygon fill="#191970" stroke="#191970" points="901.3985,-411.5449 891.7049,-415.8208 901.9493,-418.5232 901.3985,-411.5449"/>
</g>
<!-- Node24 -->
<g id="node18" class="node">
<title>Node24</title>
<g id="a_node18"><a xlink:href="../../d1/dff/DigitReader_8h.html" target="_top" xlink:title="Definition of EMCAL cell/digit reader. ">
<polygon fill="none" stroke="#000000" points="1383,-289.5 1383,-352.5 1559,-352.5 1559,-289.5 1383,-289.5"/>
<text text-anchor="start" x="1391" y="-340.5" font-family="Helvetica,sans-Serif" font-size="10.00" fill="#000000">/home/travis/build</text>
<text text-anchor="start" x="1391" y="-329.5" font-family="Helvetica,sans-Serif" font-size="10.00" fill="#000000">/AliceO2Group/AliceO2</text>
<text text-anchor="start" x="1391" y="-318.5" font-family="Helvetica,sans-Serif" font-size="10.00" fill="#000000">/Detectors/EMCAL/reconstruction</text>
<text text-anchor="start" x="1391" y="-307.5" font-family="Helvetica,sans-Serif" font-size="10.00" fill="#000000">/include/EMCALReconstruction</text>
<text text-anchor="middle" x="1471" y="-296.5" font-family="Helvetica,sans-Serif" font-size="10.00" fill="#000000">/DigitReader.h</text>
</a>
</g>
</g>
<!-- Node7&#45;&gt;Node24 -->
<g id="edge23" class="edge">
<title>Node7&#45;&gt;Node24</title>
<path fill="none" stroke="#191970" d="M902.059,-408.9922C1006.6334,-396.7683 1170.1649,-376.3369 1311,-353 1334.3356,-349.1332 1359.4704,-344.3845 1382.7482,-339.7405"/>
<polygon fill="#191970" stroke="#191970" points="901.3391,-405.5523 891.8112,-410.1858 902.1491,-412.5053 901.3391,-405.5523"/>
</g>
<!-- Node26 -->
<g id="node20" class="node">
<title>Node26</title>
<g id="a_node20"><a xlink:href="../../d3/ddf/EMCAL_2workflow_2include_2EMCALWorkflow_2CellConverterSpec_8h.html" target="_top" xlink:title="/home/travis/build\l/AliceO2Group/AliceO2\l/Detectors/EMCAL/workflow\l/include/EMCALWorkflow/CellConverter\lSpec.h">
<polygon fill="none" stroke="#000000" points="801.5,-289.5 801.5,-352.5 1006.5,-352.5 1006.5,-289.5 801.5,-289.5"/>
<text text-anchor="start" x="809.5" y="-340.5" font-family="Helvetica,sans-Serif" font-size="10.00" fill="#000000">/home/travis/build</text>
<text text-anchor="start" x="809.5" y="-329.5" font-family="Helvetica,sans-Serif" font-size="10.00" fill="#000000">/AliceO2Group/AliceO2</text>
<text text-anchor="start" x="809.5" y="-318.5" font-family="Helvetica,sans-Serif" font-size="10.00" fill="#000000">/Detectors/EMCAL/workflow</text>
<text text-anchor="start" x="809.5" y="-307.5" font-family="Helvetica,sans-Serif" font-size="10.00" fill="#000000">/include/EMCALWorkflow/CellConverter</text>
<text text-anchor="middle" x="904" y="-296.5" font-family="Helvetica,sans-Serif" font-size="10.00" fill="#000000">Spec.h</text>
</a>
</g>
</g>
<!-- Node7&#45;&gt;Node26 -->
<g id="edge26" class="edge">
<title>Node7&#45;&gt;Node26</title>
<path fill="none" stroke="#191970" d="M837.1118,-382.3653C847.7781,-372.5797 859.1129,-362.1809 869.362,-352.778"/>
<polygon fill="#191970" stroke="#191970" points="834.4909,-380.02 829.4883,-389.3594 839.2232,-385.1781 834.4909,-380.02"/>
</g>
<!-- Node28 -->
<g id="node22" class="node">
<title>Node28</title>
<g id="a_node22"><a xlink:href="../../db/dd5/EMCAL_2workflow_2src_2DigitsPrinterSpec_8cxx.html" target="_top" xlink:title="/home/travis/build\l/AliceO2Group/AliceO2\l/Detectors/EMCAL/workflow\l/src/DigitsPrinterSpec.cxx">
<polygon fill="none" stroke="#000000" points="1577,-295 1577,-347 1727,-347 1727,-295 1577,-295"/>
<text text-anchor="start" x="1585" y="-335" font-family="Helvetica,sans-Serif" font-size="10.00" fill="#000000">/home/travis/build</text>
<text text-anchor="start" x="1585" y="-324" font-family="Helvetica,sans-Serif" font-size="10.00" fill="#000000">/AliceO2Group/AliceO2</text>
<text text-anchor="start" x="1585" y="-313" font-family="Helvetica,sans-Serif" font-size="10.00" fill="#000000">/Detectors/EMCAL/workflow</text>
<text text-anchor="middle" x="1652" y="-302" font-family="Helvetica,sans-Serif" font-size="10.00" fill="#000000">/src/DigitsPrinterSpec.cxx</text>
</a>
</g>
</g>
<!-- Node7&#45;&gt;Node28 -->
<g id="edge29" class="edge">
<title>Node7&#45;&gt;Node28</title>
<path fill="none" stroke="#191970" d="M901.8996,-415.251C1083.4073,-404.8782 1444.2121,-381.4442 1568,-353 1574.9963,-351.3924 1582.1905,-349.3293 1589.2855,-347.0263"/>
<polygon fill="#191970" stroke="#191970" points="901.5853,-411.7631 891.8002,-415.8252 901.9828,-418.7518 901.5853,-411.7631"/>
</g>
<!-- Node8&#45;&gt;Node9 -->
<g id="edge2" class="edge">
<title>Node8&#45;&gt;Node9</title>
<path fill="none" stroke="#191970" d="M141.8204,-282.9347C154.0597,-272.9839 167.123,-262.3634 178.913,-252.778"/>
<polygon fill="#191970" stroke="#191970" points="139.4693,-280.3353 133.918,-289.3594 143.8851,-285.7668 139.4693,-280.3353"/>
</g>
<!-- Node10 -->
<g id="node4" class="node">
<title>Node10</title>
<g id="a_node4"><a xlink:href="../../d7/d53/EventHandler_8cxx.html" target="_top" xlink:title="/home/travis/build\l/AliceO2Group/AliceO2\l/DataFormats/Detectors\l/EMCAL/src/EventHandler.cxx">
<polygon fill="none" stroke="#000000" points="139,-95 139,-147 297,-147 297,-95 139,-95"/>
<text text-anchor="start" x="147" y="-135" font-family="Helvetica,sans-Serif" font-size="10.00" fill="#000000">/home/travis/build</text>
<text text-anchor="start" x="147" y="-124" font-family="Helvetica,sans-Serif" font-size="10.00" fill="#000000">/AliceO2Group/AliceO2</text>
<text text-anchor="start" x="147" y="-113" font-family="Helvetica,sans-Serif" font-size="10.00" fill="#000000">/DataFormats/Detectors</text>
<text text-anchor="middle" x="218" y="-102" font-family="Helvetica,sans-Serif" font-size="10.00" fill="#000000">/EMCAL/src/EventHandler.cxx</text>
</a>
</g>
</g>
<!-- Node9&#45;&gt;Node10 -->
<g id="edge3" class="edge">
<title>Node9&#45;&gt;Node10</title>
<path fill="none" stroke="#191970" d="M218,-179.1631C218,-168.2863 218,-156.8798 218,-147.078"/>
<polygon fill="#191970" stroke="#191970" points="214.5001,-179.3593 218,-189.3594 221.5001,-179.3594 214.5001,-179.3593"/>
</g>
<!-- Node11 -->
<g id="node5" class="node">
<title>Node11</title>
<g id="a_node5"><a xlink:href="../../d3/dd3/AnalysisClusterSpec_8h.html" target="_top" xlink:title="/home/travis/build\l/AliceO2Group/AliceO2\l/Detectors/EMCAL/workflow\l/include/EMCALWorkflow/AnalysisCluster\lSpec.h">
<polygon fill="none" stroke="#000000" points="626,-89.5 626,-152.5 840,-152.5 840,-89.5 626,-89.5"/>
<text text-anchor="start" x="634" y="-140.5" font-family="Helvetica,sans-Serif" font-size="10.00" fill="#000000">/home/travis/build</text>
<text text-anchor="start" x="634" y="-129.5" font-family="Helvetica,sans-Serif" font-size="10.00" fill="#000000">/AliceO2Group/AliceO2</text>
<text text-anchor="start" x="634" y="-118.5" font-family="Helvetica,sans-Serif" font-size="10.00" fill="#000000">/Detectors/EMCAL/workflow</text>
<text text-anchor="start" x="634" y="-107.5" font-family="Helvetica,sans-Serif" font-size="10.00" fill="#000000">/include/EMCALWorkflow/AnalysisCluster</text>
<text text-anchor="middle" x="733" y="-96.5" font-family="Helvetica,sans-Serif" font-size="10.00" fill="#000000">Spec.h</text>
</a>
</g>
</g>
<!-- Node9&#45;&gt;Node11 -->
<g id="edge4" class="edge">
<title>Node9&#45;&gt;Node11</title>
<path fill="none" stroke="#191970" d="M323.0861,-200.5949C411.2833,-183.4693 536.7487,-159.1071 625.592,-141.8559"/>
<polygon fill="#191970" stroke="#191970" points="322.2086,-197.1999 313.0591,-202.5419 323.5429,-204.0715 322.2086,-197.1999"/>
</g>
<!-- Node12 -->
<g id="node6" class="node">
<title>Node12</title>
<g id="a_node6"><a xlink:href="../../d2/d75/AnalysisClusterSpec_8cxx.html" target="_top" xlink:title="/home/travis/build\l/AliceO2Group/AliceO2\l/Detectors/EMCAL/workflow\l/src/AnalysisClusterSpec.cxx">
<polygon fill="none" stroke="#000000" points="655,-.5 655,-52.5 811,-52.5 811,-.5 655,-.5"/>
<text text-anchor="start" x="663" y="-40.5" font-family="Helvetica,sans-Serif" font-size="10.00" fill="#000000">/home/travis/build</text>
<text text-anchor="start" x="663" y="-29.5" font-family="Helvetica,sans-Serif" font-size="10.00" fill="#000000">/AliceO2Group/AliceO2</text>
<text text-anchor="start" x="663" y="-18.5" font-family="Helvetica,sans-Serif" font-size="10.00" fill="#000000">/Detectors/EMCAL/workflow</text>
<text text-anchor="middle" x="733" y="-7.5" font-family="Helvetica,sans-Serif" font-size="10.00" fill="#000000">/src/AnalysisClusterSpec.cxx</text>
</a>
</g>
</g>
<!-- Node11&#45;&gt;Node12 -->
<g id="edge5" class="edge">
<title>Node11&#45;&gt;Node12</title>
<path fill="none" stroke="#191970" d="M733,-79.2457C733,-70.2008 733,-60.8836 733,-52.6442"/>
<polygon fill="#191970" stroke="#191970" points="729.5001,-79.2699 733,-89.27 736.5001,-79.27 729.5001,-79.2699"/>
</g>
<!-- Node11&#45;&gt;Node13 -->
<g id="edge6" class="edge">
<title>Node11&#45;&gt;Node13</title>
<path fill="none" stroke="#191970" d="M812.3127,-85.1385C836.2691,-74.3065 862.1035,-62.6254 884.3609,-52.5617"/>
<polygon fill="#191970" stroke="#191970" points="810.5544,-82.0923 802.8845,-89.4015 813.4384,-88.4706 810.5544,-82.0923"/>
</g>
<!-- Node16&#45;&gt;Node11 -->
<g id="edge12" class="edge">
<title>Node16&#45;&gt;Node11</title>
<path fill="none" stroke="#191970" d="M694.5155,-284.7218C700.7413,-258.2032 709.3912,-221.3682 717,-189 719.7753,-177.1939 722.8238,-164.2353 725.5086,-152.8261"/>
<polygon fill="#191970" stroke="#191970" points="691.0507,-284.1671 692.1725,-294.7024 697.8654,-285.767 691.0507,-284.1671"/>
</g>
<!-- Node16&#45;&gt;Node17 -->
<g id="edge11" class="edge">
<title>Node16&#45;&gt;Node17</title>
<path fill="none" stroke="#191970" d="M629.0287,-290.2047C603.4668,-276.3875 573.6365,-260.263 549.2037,-247.0561"/>
<polygon fill="#191970" stroke="#191970" points="627.415,-293.311 637.8764,-294.9872 630.7436,-287.153 627.415,-293.311"/>
</g>
<!-- Node18&#45;&gt;Node11 -->
<g id="edge18" class="edge">
<title>Node18&#45;&gt;Node11</title>
<path fill="none" stroke="#191970" d="M1067.728,-285.3838C1045.2272,-275.3169 1021.0171,-264.0764 999,-253 947.0934,-226.8867 936.9066,-215.1133 885,-189 859.9495,-176.3975 832.0599,-163.5826 807.0793,-152.5256"/>
<polygon fill="#191970" stroke="#191970" points="1066.3615,-288.6065 1076.9207,-289.4744 1069.2074,-282.2111 1066.3615,-288.6065"/>
</g>
<!-- Node18&#45;&gt;Node19 -->
<g id="edge15" class="edge">
<title>Node18&#45;&gt;Node19</title>
<path fill="none" stroke="#191970" d="M1248.9267,-295.9172C1295.731,-283.5868 1352.4442,-268.1476 1403,-253 1405.8878,-252.1348 1408.8198,-251.2433 1411.7774,-250.333"/>
<polygon fill="#191970" stroke="#191970" points="1247.8778,-292.5739 1239.0953,-298.4999 1249.6565,-299.3441 1247.8778,-292.5739"/>
</g>
<!-- Node21 -->
<g id="node15" class="node">
<title>Node21</title>
<g id="a_node15"><a xlink:href="../../d2/d78/EMCAL_2reconstruction_2src_2Clusterizer_8cxx.html" target="_top" xlink:title="/home/travis/build\l/AliceO2Group/AliceO2\l/Detectors/EMCAL/reconstruction\l/src/Clusterizer.cxx">
<polygon fill="none" stroke="#000000" points="1008,-195 1008,-247 1184,-247 1184,-195 1008,-195"/>
<text text-anchor="start" x="1016" y="-235" font-family="Helvetica,sans-Serif" font-size="10.00" fill="#000000">/home/travis/build</text>
<text text-anchor="start" x="1016" y="-224" font-family="Helvetica,sans-Serif" font-size="10.00" fill="#000000">/AliceO2Group/AliceO2</text>
<text text-anchor="start" x="1016" y="-213" font-family="Helvetica,sans-Serif" font-size="10.00" fill="#000000">/Detectors/EMCAL/reconstruction</text>
<text text-anchor="middle" x="1096" y="-202" font-family="Helvetica,sans-Serif" font-size="10.00" fill="#000000">/src/Clusterizer.cxx</text>
</a>
</g>
</g>
<!-- Node18&#45;&gt;Node21 -->
<g id="edge17" class="edge">
<title>Node18&#45;&gt;Node21</title>
<path fill="none" stroke="#191970" d="M1128.7282,-280.5058C1122.5263,-269.2297 1115.9562,-257.284 1110.3429,-247.078"/>
<polygon fill="#191970" stroke="#191970" points="1125.7117,-282.2839 1133.5977,-289.3594 1131.8452,-278.9105 1125.7117,-282.2839"/>
</g>
<!-- Node22 -->
<g id="node16" class="node">
<title>Node22</title>
<g id="a_node16"><a xlink:href="../../d2/dd1/EMCAL_2workflow_2include_2EMCALWorkflow_2ClusterizerSpec_8h.html" target="_top" xlink:title="/home/travis/build\l/AliceO2Group/AliceO2\l/Detectors/EMCAL/workflow\l/include/EMCALWorkflow/Clusterizer\lSpec.h">
<polygon fill="none" stroke="#000000" points="1202.5,-189.5 1202.5,-252.5 1393.5,-252.5 1393.5,-189.5 1202.5,-189.5"/>
<text text-anchor="start" x="1210.5" y="-240.5" font-family="Helvetica,sans-Serif" font-size="10.00" fill="#000000">/home/travis/build</text>
<text text-anchor="start" x="1210.5" y="-229.5" font-family="Helvetica,sans-Serif" font-size="10.00" fill="#000000">/AliceO2Group/AliceO2</text>
<text text-anchor="start" x="1210.5" y="-218.5" font-family="Helvetica,sans-Serif" font-size="10.00" fill="#000000">/Detectors/EMCAL/workflow</text>
<text text-anchor="start" x="1210.5" y="-207.5" font-family="Helvetica,sans-Serif" font-size="10.00" fill="#000000">/include/EMCALWorkflow/Clusterizer</text>
<text text-anchor="middle" x="1298" y="-196.5" font-family="Helvetica,sans-Serif" font-size="10.00" fill="#000000">Spec.h</text>
</a>
</g>
</g>
<!-- Node18&#45;&gt;Node22 -->
<g id="edge19" class="edge">
<title>Node18&#45;&gt;Node22</title>
<path fill="none" stroke="#191970" d="M1206.1642,-283.4733C1221.1062,-273.3087 1237.1281,-262.4095 1251.5387,-252.6063"/>
<polygon fill="#191970" stroke="#191970" points="1203.8113,-280.8408 1197.5117,-289.3594 1207.7486,-286.6286 1203.8113,-280.8408"/>
</g>
<!-- Node20 -->
<g id="node14" class="node">
<title>Node20</title>
<g id="a_node14"><a xlink:href="../../d6/da0/ClusterizerTask_8cxx.html" target="_top" xlink:title="Implementation of the EMCAL cluster finder task. ">
<polygon fill="none" stroke="#000000" points="1412,-95 1412,-147 1588,-147 1588,-95 1412,-95"/>
<text text-anchor="start" x="1420" y="-135" font-family="Helvetica,sans-Serif" font-size="10.00" fill="#000000">/home/travis/build</text>
<text text-anchor="start" x="1420" y="-124" font-family="Helvetica,sans-Serif" font-size="10.00" fill="#000000">/AliceO2Group/AliceO2</text>
<text text-anchor="start" x="1420" y="-113" font-family="Helvetica,sans-Serif" font-size="10.00" fill="#000000">/Detectors/EMCAL/reconstruction</text>
<text text-anchor="middle" x="1500" y="-102" font-family="Helvetica,sans-Serif" font-size="10.00" fill="#000000">/src/ClusterizerTask.cxx</text>
</a>
</g>
</g>
<!-- Node19&#45;&gt;Node20 -->
<g id="edge16" class="edge">
<title>Node19&#45;&gt;Node20</title>
<path fill="none" stroke="#191970" d="M1500,-179.1631C1500,-168.2863 1500,-156.8798 1500,-147.078"/>
<polygon fill="#191970" stroke="#191970" points="1496.5001,-179.3593 1500,-189.3594 1503.5001,-179.3594 1496.5001,-179.3593"/>
</g>
<!-- Node22&#45;&gt;Node13 -->
<g id="edge21" class="edge">
<title>Node22&#45;&gt;Node13</title>
<path fill="none" stroke="#191970" d="M1303.6404,-179.1004C1305.066,-150.0476 1301.5676,-112.4987 1279,-89 1243.7592,-52.3053 1105.2345,-36.746 1017.1306,-30.4591"/>
<polygon fill="#191970" stroke="#191970" points="1300.1279,-179.1572 1302.9186,-189.3778 1307.1107,-179.6476 1300.1279,-179.1572"/>
</g>
<!-- Node23 -->
<g id="node17" class="node">
<title>Node23</title>
<g id="a_node17"><a xlink:href="../../d7/d67/EMCAL_2workflow_2src_2ClusterizerSpec_8cxx.html" target="_top" xlink:title="/home/travis/build\l/AliceO2Group/AliceO2\l/Detectors/EMCAL/workflow\l/src/ClusterizerSpec.cxx">
<polygon fill="none" stroke="#000000" points="1120,-95 1120,-147 1270,-147 1270,-95 1120,-95"/>
<text text-anchor="start" x="1128" y="-135" font-family="Helvetica,sans-Serif" font-size="10.00" fill="#000000">/home/travis/build</text>
<text text-anchor="start" x="1128" y="-124" font-family="Helvetica,sans-Serif" font-size="10.00" fill="#000000">/AliceO2Group/AliceO2</text>
<text text-anchor="start" x="1128" y="-113" font-family="Helvetica,sans-Serif" font-size="10.00" fill="#000000">/Detectors/EMCAL/workflow</text>
<text text-anchor="middle" x="1195" y="-102" font-family="Helvetica,sans-Serif" font-size="10.00" fill="#000000">/src/ClusterizerSpec.cxx</text>
</a>
</g>
</g>
<!-- Node22&#45;&gt;Node23 -->
<g id="edge20" class="edge">
<title>Node22&#45;&gt;Node23</title>
<path fill="none" stroke="#191970" d="M1258.0105,-182.1752C1245.8992,-170.4167 1232.8929,-157.7892 1221.8603,-147.078"/>
<polygon fill="#191970" stroke="#191970" points="1255.7973,-184.9047 1265.4102,-189.3594 1260.6734,-179.8824 1255.7973,-184.9047"/>
</g>
<!-- Node24&#45;&gt;Node19 -->
<g id="edge24" class="edge">
<title>Node24&#45;&gt;Node19</title>
<path fill="none" stroke="#191970" d="M1483.0352,-279.4993C1485.6247,-270.5699 1488.3223,-261.268 1490.7844,-252.778"/>
<polygon fill="#191970" stroke="#191970" points="1479.5996,-278.7802 1480.1758,-289.3594 1486.3226,-280.7299 1479.5996,-278.7802"/>
</g>
<!-- Node25 -->
<g id="node19" class="node">
<title>Node25</title>
<g id="a_node19"><a xlink:href="../../dc/dda/DigitReader_8cxx.html" target="_top" xlink:title="Implementation of EMCAL cell/digit reader. ">
<polygon fill="none" stroke="#000000" points="1606,-195 1606,-247 1782,-247 1782,-195 1606,-195"/>
<text text-anchor="start" x="1614" y="-235" font-family="Helvetica,sans-Serif" font-size="10.00" fill="#000000">/home/travis/build</text>
<text text-anchor="start" x="1614" y="-224" font-family="Helvetica,sans-Serif" font-size="10.00" fill="#000000">/AliceO2Group/AliceO2</text>
<text text-anchor="start" x="1614" y="-213" font-family="Helvetica,sans-Serif" font-size="10.00" fill="#000000">/Detectors/EMCAL/reconstruction</text>
<text text-anchor="middle" x="1694" y="-202" font-family="Helvetica,sans-Serif" font-size="10.00" fill="#000000">/src/DigitReader.cxx</text>
</a>
</g>
</g>
<!-- Node24&#45;&gt;Node25 -->
<g id="edge25" class="edge">
<title>Node24&#45;&gt;Node25</title>
<path fill="none" stroke="#191970" d="M1550.6461,-285.2843C1578.7113,-272.699 1609.7157,-258.7957 1635.6904,-247.1478"/>
<polygon fill="#191970" stroke="#191970" points="1548.945,-282.2112 1541.2525,-289.4966 1551.8092,-288.5984 1548.945,-282.2112"/>
</g>
<!-- Node26&#45;&gt;Node13 -->
<g id="edge28" class="edge">
<title>Node26&#45;&gt;Node13</title>
<path fill="none" stroke="#191970" d="M909.3776,-279.3239C917.3364,-217.643 932.0205,-103.8409 938.6257,-52.6511"/>
<polygon fill="#191970" stroke="#191970" points="905.8752,-279.1176 908.0667,-289.4833 912.8177,-280.0135 905.8752,-279.1176"/>
</g>
<!-- Node27 -->
<g id="node21" class="node">
<title>Node27</title>
<g id="a_node21"><a xlink:href="../../dc/d49/EMCAL_2workflow_2src_2CellConverterSpec_8cxx.html" target="_top" xlink:title="/home/travis/build\l/AliceO2Group/AliceO2\l/Detectors/EMCAL/workflow\l/src/CellConverterSpec.cxx">
<polygon fill="none" stroke="#000000" points="726,-195 726,-247 876,-247 876,-195 726,-195"/>
<text text-anchor="start" x="734" y="-235" font-family="Helvetica,sans-Serif" font-size="10.00" fill="#000000">/home/travis/build</text>
<text text-anchor="start" x="734" y="-224" font-family="Helvetica,sans-Serif" font-size="10.00" fill="#000000">/AliceO2Group/AliceO2</text>
<text text-anchor="start" x="734" y="-213" font-family="Helvetica,sans-Serif" font-size="10.00" fill="#000000">/Detectors/EMCAL/workflow</text>
<text text-anchor="middle" x="801" y="-202" font-family="Helvetica,sans-Serif" font-size="10.00" fill="#000000">/src/CellConverterSpec.cxx</text>
</a>
</g>
</g>
<!-- Node26&#45;&gt;Node27 -->
<g id="edge27" class="edge">
<title>Node26&#45;&gt;Node27</title>
<path fill="none" stroke="#191970" d="M864.0105,-282.1752C851.8992,-270.4167 838.8929,-257.7892 827.8603,-247.078"/>
<polygon fill="#191970" stroke="#191970" points="861.7973,-284.9047 871.4102,-289.3594 866.6734,-279.8824 861.7973,-284.9047"/>
</g>
</g>
</svg>
        <g id="navigator" transform="translate(0 0)" fill="#404254">
                <rect fill="#f2f5e9" fill-opacity="0.5" stroke="#606060" stroke-width=".5" x="0" y="0" width="60" height="60"/>
                <use id="zoomplus" xlink:href="#zoomPlus" x="17" y="9" onmousedown="handleZoom(evt,'in')"/>
                <use id="zoomminus" xlink:href="#zoomMin" x="42" y="9" onmousedown="handleZoom(evt,'out')"/>
                <use id="reset" xlink:href="#resetDef" x="30" y="36" onmousedown="handleReset()"/>
                <g id="arrowUp" xlink:href="#dirArrow" transform="translate(30 24)" onmousedown="handlePan(0,-1)">
                  <use xlink:href="#rim" fill="#404040">
                        <set attributeName="fill" to="#808080" begin="arrowUp.mouseover" end="arrowUp.mouseout"/>
                  </use>
                  <path fill="none" stroke="white" stroke-width="1.5" d="M0,-3.0v7 M-2.5,-0.5L0,-3.0L2.5,-0.5"/>
                </g>
                <g id="arrowRight" xlink:href="#dirArrow" transform="rotate(90) translate(36 -43)" onmousedown="handlePan(1,0)">
                  <use xlink:href="#rim" fill="#404040">
                        <set attributeName="fill" to="#808080" begin="arrowRight.mouseover" end="arrowRight.mouseout"/>
                  </use>
                  <path fill="none" stroke="white" stroke-width="1.5" d="M0,-3.0v7 M-2.5,-0.5L0,-3.0L2.5,-0.5"/>
                </g>
                <g id="arrowDown" xlink:href="#dirArrow" transform="rotate(180) translate(-30 -48)" onmousedown="handlePan(0,1)">
                  <use xlink:href="#rim" fill="#404040">
                        <set attributeName="fill" to="#808080" begin="arrowDown.mouseover" end="arrowDown.mouseout"/>
                  </use>
                  <path fill="none" stroke="white" stroke-width="1.5" d="M0,-3.0v7 M-2.5,-0.5L0,-3.0L2.5,-0.5"/>
                </g>
                <g id="arrowLeft" xlink:href="#dirArrow" transform="rotate(270) translate(-36 17)" onmousedown="handlePan(-1,0)">
                  <use xlink:href="#rim" fill="#404040">
                        <set attributeName="fill" to="#808080" begin="arrowLeft.mouseover" end="arrowLeft.mouseout"/>
                  </use>
                  <path fill="none" stroke="white" stroke-width="1.5" d="M0,-3.0v7 M-2.5,-0.5L0,-3.0L2.5,-0.5"/>
                </g>
        </g>
        <svg viewBox="0 0 15 15" width="100%" height="30px" preserveAspectRatio="xMaxYMin meet">
         <g id="arrow_out" transform="scale(0.3 0.3)">
          <a xlink:href="DataFormats_2Detectors_2EMCAL_2include_2DataFormatsEMCAL_2Cell_8h__dep__incl_org.svg" target="_base">
           <rect id="button" ry="5" rx="5" y="6" x="6" height="38" width="38"
                fill="#f2f5e9" fill-opacity="0.5" stroke="#606060" stroke-width="1.0"/>
           <path id="arrow"
             d="M 11.500037,31.436501 C 11.940474,20.09759 22.043105,11.32322 32.158766,21.979434 L 37.068811,17.246167 C 37.068811,17.246167 37.088388,32 37.088388,32 L 22.160133,31.978069 C 22.160133,31.978069 26.997745,27.140456 26.997745,27.140456 C 18.528582,18.264221 13.291696,25.230495 11.500037,31.436501 z"
             style="fill:#404040;"/>
          </a>
         </g>
        </svg>
</svg>
