<?xml version="1.0" encoding="UTF-8" standalone="no"?>
<!DOCTYPE svg PUBLIC "-//W3C//DTD SVG 1.1//EN"
 "http://www.w3.org/Graphics/SVG/1.1/DTD/svg11.dtd">
<!-- Generated by graphviz version 2.40.1 (20161225.0304)
 -->
<!-- Title: o2::gpu::GPUInterfaceOutputs Pages: 1 -->
<svg width="200pt" height="287pt"
 viewBox="0.00 0.00 199.50 287.00" xmlns="http://www.w3.org/2000/svg" xmlns:xlink="http://www.w3.org/1999/xlink">
<g id="graph0" class="graph" transform="scale(1 1) rotate(0) translate(4 283)">
<title>o2::gpu::GPUInterfaceOutputs</title>
<!-- Node1 -->
<g id="node1" class="node">
<title>Node1</title>
<polygon fill="#bfbfbf" stroke="#000000" points="0,-.5 0,-57.5 161,-57.5 161,-.5 0,-.5"/>
<text text-anchor="middle" x="80.5" y="-45.5" font-family="Helvetica,sans-Serif" font-size="10.00" fill="#000000">o2::gpu::GPUInterfaceOutputs</text>
<polyline fill="none" stroke="#000000" points="0,-38.5 161,-38.5 "/>
<text text-anchor="middle" x="80.5" y="-26.5" font-family="Helvetica,sans-Serif" font-size="10.00" fill="#000000"> </text>
<polyline fill="none" stroke="#000000" points="0,-19.5 161,-19.5 "/>
<text text-anchor="middle" x="80.5" y="-7.5" font-family="Helvetica,sans-Serif" font-size="10.00" fill="#000000"> </text>
</g>
<!-- Node2 -->
<g id="node2" class="node">
<title>Node2</title>
<g id="a_node2"><a xlink:href="../../db/d93/structo2_1_1gpu_1_1GPUInterfaceOutputRegion.html" target="_top" xlink:title="{o2::gpu::GPUInterfaceOutput\lRegion\n||}">
<polygon fill="none" stroke="#000000" points="2.5,-105.5 2.5,-173.5 158.5,-173.5 158.5,-105.5 2.5,-105.5"/>
<text text-anchor="start" x="10.5" y="-161.5" font-family="Helvetica,sans-Serif" font-size="10.00" fill="#000000">o2::gpu::GPUInterfaceOutput</text>
<text text-anchor="middle" x="80.5" y="-150.5" font-family="Helvetica,sans-Serif" font-size="10.00" fill="#000000">Region</text>
<polyline fill="none" stroke="#000000" points="2.5,-143.5 158.5,-143.5 "/>
<text text-anchor="middle" x="80.5" y="-131.5" font-family="Helvetica,sans-Serif" font-size="10.00" fill="#000000"> </text>
<polyline fill="none" stroke="#000000" points="2.5,-124.5 158.5,-124.5 "/>
<text text-anchor="middle" x="80.5" y="-112.5" font-family="Helvetica,sans-Serif" font-size="10.00" fill="#000000"> </text>
</a>
</g>
</g>
<!-- Node2&#45;&gt;Node1 -->
<g id="edge1" class="edge">
<title>Node2&#45;&gt;Node1</title>
<path fill="none" stroke="#404040" d="M80.5,-105.4447C80.5,-94.175 80.5,-81.5186 80.5,-69.7959"/>
<polygon fill="none" stroke="#404040" points="80.5001,-69.5519 76.5,-63.5519 80.5,-57.5519 84.5,-63.5519 80.5001,-69.5519"/>
<text text-anchor="middle" x="136" y="-79" font-family="Helvetica,sans-Serif" font-size="10.00" fill="#000000"> +compressedClusters</text>
</g>
<!-- Node3 -->
<g id="node3" class="node">
<title>Node3</title>
<polygon fill="none" stroke="#bfbfbf" points="26,-221.5 26,-278.5 71,-278.5 71,-221.5 26,-221.5"/>
<text text-anchor="middle" x="48.5" y="-266.5" font-family="Helvetica,sans-Serif" font-size="10.00" fill="#000000">size_t</text>
<polyline fill="none" stroke="#bfbfbf" points="26,-259.5 71,-259.5 "/>
<text text-anchor="middle" x="48.5" y="-247.5" font-family="Helvetica,sans-Serif" font-size="10.00" fill="#000000"> </text>
<polyline fill="none" stroke="#bfbfbf" points="26,-240.5 71,-240.5 "/>
<text text-anchor="middle" x="48.5" y="-228.5" font-family="Helvetica,sans-Serif" font-size="10.00" fill="#000000"> </text>
</g>
<!-- Node3&#45;&gt;Node2 -->
<g id="edge2" class="edge">
<title>Node3&#45;&gt;Node2</title>
<path fill="none" stroke="#404040" d="M52.7892,-221.4199C54.5074,-211.9624 56.7434,-201.4449 59.5,-192 60.1601,-189.7383 60.881,-187.4393 61.6454,-185.1298"/>
<polygon fill="none" stroke="#404040" points="61.7196,-184.9218 59.9681,-177.9266 65.7516,-173.6194 67.503,-180.6146 61.7196,-184.9218"/>
<text text-anchor="middle" x="75" y="-195" font-family="Helvetica,sans-Serif" font-size="10.00" fill="#000000"> +size</text>
</g>
<!-- Node4 -->
<g id="node4" class="node">
<title>Node4</title>
<polygon fill="none" stroke="#bfbfbf" points="89.5,-221.5 89.5,-278.5 135.5,-278.5 135.5,-221.5 89.5,-221.5"/>
<text text-anchor="middle" x="112.5" y="-266.5" font-family="Helvetica,sans-Serif" font-size="10.00" fill="#000000">void *</text>
<polyline fill="none" stroke="#bfbfbf" points="89.5,-259.5 135.5,-259.5 "/>
<text text-anchor="middle" x="112.5" y="-247.5" font-family="Helvetica,sans-Serif" font-size="10.00" fill="#000000"> </text>
<polyline fill="none" stroke="#bfbfbf" points="89.5,-240.5 135.5,-240.5 "/>
<text text-anchor="middle" x="112.5" y="-228.5" font-family="Helvetica,sans-Serif" font-size="10.00" fill="#000000"> </text>
</g>
<!-- Node4&#45;&gt;Node2 -->
<g id="edge3" class="edge">
<title>Node4&#45;&gt;Node2</title>
<path fill="none" stroke="#404040" d="M104.1759,-221.2559C101.0093,-210.321 97.3169,-197.5708 93.8032,-185.4376"/>
<polygon fill="none" stroke="#404040" points="93.7132,-185.1265 88.202,-180.4759 90.3751,-173.6001 95.8863,-178.2506 93.7132,-185.1265"/>
<text text-anchor="middle" x="110" y="-195" font-family="Helvetica,sans-Serif" font-size="10.00" fill="#000000"> +ptr</text>
</g>
</g>
</svg>
