<?xml version="1.0" encoding="UTF-8" standalone="no"?>
<!DOCTYPE svg PUBLIC "-//W3C//DTD SVG 1.1//EN"
 "http://www.w3.org/Graphics/SVG/1.1/DTD/svg11.dtd">
<!-- Generated by graphviz version 2.40.1 (20161225.0304)
 -->
<!-- Title: /home/travis/build/AliceO2Group/AliceO2/Utilities/Mergers/include/Mergers/MergeInterface.h Pages: 1 -->
<svg width="1236pt" height="239pt"
 viewBox="0.00 0.00 1236.00 239.00" xmlns="http://www.w3.org/2000/svg" xmlns:xlink="http://www.w3.org/1999/xlink">
<g id="graph0" class="graph" transform="scale(1 1) rotate(0) translate(4 235)">
<title>/home/travis/build/AliceO2Group/AliceO2/Utilities/Mergers/include/Mergers/MergeInterface.h</title>
<!-- Node2 -->
<g id="node1" class="node">
<title>Node2</title>
<polygon fill="#bfbfbf" stroke="#000000" points="601.5,-178.5 601.5,-230.5 745.5,-230.5 745.5,-178.5 601.5,-178.5"/>
<text text-anchor="start" x="609.5" y="-218.5" font-family="Helvetica,sans-Serif" font-size="10.00" fill="#000000">/home/travis/build</text>
<text text-anchor="start" x="609.5" y="-207.5" font-family="Helvetica,sans-Serif" font-size="10.00" fill="#000000">/AliceO2Group/AliceO2</text>
<text text-anchor="start" x="609.5" y="-196.5" font-family="Helvetica,sans-Serif" font-size="10.00" fill="#000000">/Utilities/Mergers/include</text>
<text text-anchor="middle" x="673.5" y="-185.5" font-family="Helvetica,sans-Serif" font-size="10.00" fill="#000000">/Mergers/MergeInterface.h</text>
</g>
<!-- Node3 -->
<g id="node2" class="node">
<title>Node3</title>
<g id="a_node2"><a xlink:href="../../de/d26/CustomMergeableObject_8h.html" target="_top" xlink:title="An example of overriding O2 Mergers merging interface, v0.1. ">
<polygon fill="none" stroke="#000000" points="45,-89.5 45,-141.5 236,-141.5 236,-89.5 45,-89.5"/>
<text text-anchor="start" x="53" y="-129.5" font-family="Helvetica,sans-Serif" font-size="10.00" fill="#000000">/home/travis/build</text>
<text text-anchor="start" x="53" y="-118.5" font-family="Helvetica,sans-Serif" font-size="10.00" fill="#000000">/AliceO2Group/AliceO2</text>
<text text-anchor="start" x="53" y="-107.5" font-family="Helvetica,sans-Serif" font-size="10.00" fill="#000000">/Utilities/Mergers/include</text>
<text text-anchor="middle" x="140.5" y="-96.5" font-family="Helvetica,sans-Serif" font-size="10.00" fill="#000000">/Mergers/CustomMergeableObject.h</text>
</a>
</g>
</g>
<!-- Node2&#45;&gt;Node3 -->
<g id="edge1" class="edge">
<title>Node2&#45;&gt;Node3</title>
<path fill="none" stroke="#191970" d="M591.3364,-195.1281C504.6612,-184.6361 364.308,-165.9228 244.5,-142 241.7592,-141.4527 238.9826,-140.8786 236.1837,-140.2827"/>
<polygon fill="#191970" stroke="#191970" points="591.0283,-198.6162 601.3747,-196.3355 591.8643,-191.6663 591.0283,-198.6162"/>
</g>
<!-- Node6 -->
<g id="node5" class="node">
<title>Node6</title>
<g id="a_node5"><a xlink:href="../../df/d5c/CustomMergeableTObject_8h.html" target="_top" xlink:title="An example of a custom TObject inheriting MergeInterface. ">
<polygon fill="none" stroke="#000000" points="254,-89.5 254,-141.5 451,-141.5 451,-89.5 254,-89.5"/>
<text text-anchor="start" x="262" y="-129.5" font-family="Helvetica,sans-Serif" font-size="10.00" fill="#000000">/home/travis/build</text>
<text text-anchor="start" x="262" y="-118.5" font-family="Helvetica,sans-Serif" font-size="10.00" fill="#000000">/AliceO2Group/AliceO2</text>
<text text-anchor="start" x="262" y="-107.5" font-family="Helvetica,sans-Serif" font-size="10.00" fill="#000000">/Utilities/Mergers/include</text>
<text text-anchor="middle" x="352.5" y="-96.5" font-family="Helvetica,sans-Serif" font-size="10.00" fill="#000000">/Mergers/CustomMergeableTObject.h</text>
</a>
</g>
</g>
<!-- Node2&#45;&gt;Node6 -->
<g id="edge4" class="edge">
<title>Node2&#45;&gt;Node6</title>
<path fill="none" stroke="#191970" d="M591.6126,-181.796C547.3678,-169.5288 492.5388,-154.327 446.5496,-141.5761"/>
<polygon fill="#191970" stroke="#191970" points="590.8897,-185.2276 601.4613,-184.5267 592.76,-178.482 590.8897,-185.2276"/>
</g>
<!-- Node7 -->
<g id="node6" class="node">
<title>Node7</title>
<g id="a_node6"><a xlink:href="../../db/d19/IntegratingMerger_8h.html" target="_top" xlink:title="Definition of O2 IntegratingMerger, v0.1. ">
<polygon fill="none" stroke="#000000" points="469,-89.5 469,-141.5 626,-141.5 626,-89.5 469,-89.5"/>
<text text-anchor="start" x="477" y="-129.5" font-family="Helvetica,sans-Serif" font-size="10.00" fill="#000000">/home/travis/build</text>
<text text-anchor="start" x="477" y="-118.5" font-family="Helvetica,sans-Serif" font-size="10.00" fill="#000000">/AliceO2Group/AliceO2</text>
<text text-anchor="start" x="477" y="-107.5" font-family="Helvetica,sans-Serif" font-size="10.00" fill="#000000">/Utilities/Mergers/include</text>
<text text-anchor="middle" x="547.5" y="-96.5" font-family="Helvetica,sans-Serif" font-size="10.00" fill="#000000">/Mergers/IntegratingMerger.h</text>
</a>
</g>
</g>
<!-- Node2&#45;&gt;Node7 -->
<g id="edge6" class="edge">
<title>Node2&#45;&gt;Node7</title>
<path fill="none" stroke="#191970" d="M628.099,-172.431C613.7358,-162.2856 598.0458,-151.203 584.3573,-141.5341"/>
<polygon fill="#191970" stroke="#191970" points="626.1901,-175.3678 636.3773,-178.2784 630.2287,-169.6503 626.1901,-175.3678"/>
</g>
<!-- Node10 -->
<g id="node9" class="node">
<title>Node10</title>
<g id="a_node9"><a xlink:href="../../d4/d78/MergerAlgorithm_8h.html" target="_top" xlink:title="Algorithms for merging objects. ">
<polygon fill="none" stroke="#000000" points="701.5,-89.5 701.5,-141.5 853.5,-141.5 853.5,-89.5 701.5,-89.5"/>
<text text-anchor="start" x="709.5" y="-129.5" font-family="Helvetica,sans-Serif" font-size="10.00" fill="#000000">/home/travis/build</text>
<text text-anchor="start" x="709.5" y="-118.5" font-family="Helvetica,sans-Serif" font-size="10.00" fill="#000000">/AliceO2Group/AliceO2</text>
<text text-anchor="start" x="709.5" y="-107.5" font-family="Helvetica,sans-Serif" font-size="10.00" fill="#000000">/Utilities/Mergers/include</text>
<text text-anchor="middle" x="777.5" y="-96.5" font-family="Helvetica,sans-Serif" font-size="10.00" fill="#000000">/Mergers/MergerAlgorithm.h</text>
</a>
</g>
</g>
<!-- Node2&#45;&gt;Node10 -->
<g id="edge9" class="edge">
<title>Node2&#45;&gt;Node10</title>
<path fill="none" stroke="#191970" d="M711.9735,-171.5755C723.5541,-161.6653 736.0965,-150.9319 747.0781,-141.5341"/>
<polygon fill="#191970" stroke="#191970" points="709.463,-169.1173 704.1409,-178.2784 714.0143,-174.4357 709.463,-169.1173"/>
</g>
<!-- Node11 -->
<g id="node10" class="node">
<title>Node11</title>
<g id="a_node10"><a xlink:href="../../db/d51/FullHistoryMerger_8cxx.html" target="_top" xlink:title="Implementation of O2 Mergers, v0.1. ">
<polygon fill="none" stroke="#000000" points="620,-.5 620,-52.5 747,-52.5 747,-.5 620,-.5"/>
<text text-anchor="start" x="628" y="-40.5" font-family="Helvetica,sans-Serif" font-size="10.00" fill="#000000">/home/travis/build</text>
<text text-anchor="start" x="628" y="-29.5" font-family="Helvetica,sans-Serif" font-size="10.00" fill="#000000">/AliceO2Group/AliceO2</text>
<text text-anchor="start" x="628" y="-18.5" font-family="Helvetica,sans-Serif" font-size="10.00" fill="#000000">/Utilities/Mergers/src</text>
<text text-anchor="middle" x="683.5" y="-7.5" font-family="Helvetica,sans-Serif" font-size="10.00" fill="#000000">/FullHistoryMerger.cxx</text>
</a>
</g>
</g>
<!-- Node2&#45;&gt;Node11 -->
<g id="edge16" class="edge">
<title>Node2&#45;&gt;Node11</title>
<path fill="none" stroke="#191970" d="M675.5428,-168.1378C677.473,-133.7809 680.3209,-83.0886 682.0347,-52.5823"/>
<polygon fill="#191970" stroke="#191970" points="672.0421,-168.0549 674.9755,-178.2355 679.031,-168.4476 672.0421,-168.0549"/>
</g>
<!-- Node12 -->
<g id="node11" class="node">
<title>Node12</title>
<g id="a_node11"><a xlink:href="../../d3/d65/MergerAlgorithm_8cxx.html" target="_top" xlink:title="/home/travis/build\l/AliceO2Group/AliceO2\l/Utilities/Mergers/src\l/MergerAlgorithm.cxx">
<polygon fill="none" stroke="#000000" points="956,-.5 956,-52.5 1083,-52.5 1083,-.5 956,-.5"/>
<text text-anchor="start" x="964" y="-40.5" font-family="Helvetica,sans-Serif" font-size="10.00" fill="#000000">/home/travis/build</text>
<text text-anchor="start" x="964" y="-29.5" font-family="Helvetica,sans-Serif" font-size="10.00" fill="#000000">/AliceO2Group/AliceO2</text>
<text text-anchor="start" x="964" y="-18.5" font-family="Helvetica,sans-Serif" font-size="10.00" fill="#000000">/Utilities/Mergers/src</text>
<text text-anchor="middle" x="1019.5" y="-7.5" font-family="Helvetica,sans-Serif" font-size="10.00" fill="#000000">/MergerAlgorithm.cxx</text>
</a>
</g>
</g>
<!-- Node2&#45;&gt;Node12 -->
<g id="edge17" class="edge">
<title>Node2&#45;&gt;Node12</title>
<path fill="none" stroke="#191970" d="M755.5751,-183.5068C789.642,-173.2417 828.9641,-159.3237 862.5,-142 910.6023,-117.1517 959.9049,-78.2466 990.1174,-52.5621"/>
<polygon fill="#191970" stroke="#191970" points="754.2489,-180.249 745.6508,-186.4396 756.2328,-186.962 754.2489,-180.249"/>
</g>
<!-- Node14 -->
<g id="node13" class="node">
<title>Node14</title>
<g id="a_node13"><a xlink:href="../../db/d8c/ObjectStore_8cxx.html" target="_top" xlink:title="Implementation of ObjectStore for Mergers, v0.1. ">
<polygon fill="none" stroke="#000000" points="1101,-.5 1101,-52.5 1228,-52.5 1228,-.5 1101,-.5"/>
<text text-anchor="start" x="1109" y="-40.5" font-family="Helvetica,sans-Serif" font-size="10.00" fill="#000000">/home/travis/build</text>
<text text-anchor="start" x="1109" y="-29.5" font-family="Helvetica,sans-Serif" font-size="10.00" fill="#000000">/AliceO2Group/AliceO2</text>
<text text-anchor="start" x="1109" y="-18.5" font-family="Helvetica,sans-Serif" font-size="10.00" fill="#000000">/Utilities/Mergers/src</text>
<text text-anchor="middle" x="1164.5" y="-7.5" font-family="Helvetica,sans-Serif" font-size="10.00" fill="#000000">/ObjectStore.cxx</text>
</a>
</g>
</g>
<!-- Node2&#45;&gt;Node14 -->
<g id="edge18" class="edge">
<title>Node2&#45;&gt;Node14</title>
<path fill="none" stroke="#191970" d="M755.5675,-187.5052C803.4561,-176.5964 864.656,-160.9358 917.5,-142 988.5795,-116.5298 1066.9696,-77.9622 1115.9684,-52.505"/>
<polygon fill="#191970" stroke="#191970" points="754.5446,-184.1479 745.5585,-189.7604 756.0833,-190.9767 754.5446,-184.1479"/>
</g>
<!-- Node4 -->
<g id="node3" class="node">
<title>Node4</title>
<g id="a_node3"><a xlink:href="../../d9/de7/mergersTopologyExample_8cxx.html" target="_top" xlink:title="This is a DPL workflow to see Mergers in action. ">
<polygon fill="none" stroke="#000000" points="0,-.5 0,-52.5 167,-52.5 167,-.5 0,-.5"/>
<text text-anchor="start" x="8" y="-40.5" font-family="Helvetica,sans-Serif" font-size="10.00" fill="#000000">/home/travis/build</text>
<text text-anchor="start" x="8" y="-29.5" font-family="Helvetica,sans-Serif" font-size="10.00" fill="#000000">/AliceO2Group/AliceO2</text>
<text text-anchor="start" x="8" y="-18.5" font-family="Helvetica,sans-Serif" font-size="10.00" fill="#000000">/Utilities/Mergers/src</text>
<text text-anchor="middle" x="83.5" y="-7.5" font-family="Helvetica,sans-Serif" font-size="10.00" fill="#000000">/mergersTopologyExample.cxx</text>
</a>
</g>
</g>
<!-- Node3&#45;&gt;Node4 -->
<g id="edge2" class="edge">
<title>Node3&#45;&gt;Node4</title>
<path fill="none" stroke="#191970" d="M118.31,-80.8525C112.2762,-71.4313 105.8451,-61.3897 100.1736,-52.5341"/>
<polygon fill="#191970" stroke="#191970" points="115.3658,-82.7451 123.7064,-89.2784 121.2605,-78.9698 115.3658,-82.7451"/>
</g>
<!-- Node5 -->
<g id="node4" class="node">
<title>Node5</title>
<g id="a_node4"><a xlink:href="../../d2/d0e/test__Algorithm_8cxx.html" target="_top" xlink:title="A unit test of mergers. ">
<polygon fill="none" stroke="#000000" points="185,-.5 185,-52.5 312,-52.5 312,-.5 185,-.5"/>
<text text-anchor="start" x="193" y="-40.5" font-family="Helvetica,sans-Serif" font-size="10.00" fill="#000000">/home/travis/build</text>
<text text-anchor="start" x="193" y="-29.5" font-family="Helvetica,sans-Serif" font-size="10.00" fill="#000000">/AliceO2Group/AliceO2</text>
<text text-anchor="start" x="193" y="-18.5" font-family="Helvetica,sans-Serif" font-size="10.00" fill="#000000">/Utilities/Mergers/test</text>
<text text-anchor="middle" x="248.5" y="-7.5" font-family="Helvetica,sans-Serif" font-size="10.00" fill="#000000">/test_Algorithm.cxx</text>
</a>
</g>
</g>
<!-- Node3&#45;&gt;Node5 -->
<g id="edge3" class="edge">
<title>Node3&#45;&gt;Node5</title>
<path fill="none" stroke="#191970" d="M180.1067,-82.8612C192.2286,-72.8718 205.3944,-62.0222 216.908,-52.5341"/>
<polygon fill="#191970" stroke="#191970" points="177.8108,-80.2178 172.3194,-89.2784 182.2626,-85.6199 177.8108,-80.2178"/>
</g>
<!-- Node6&#45;&gt;Node5 -->
<g id="edge5" class="edge">
<title>Node6&#45;&gt;Node5</title>
<path fill="none" stroke="#191970" d="M314.0265,-82.5755C302.4459,-72.6653 289.9035,-61.9319 278.9219,-52.5341"/>
<polygon fill="#191970" stroke="#191970" points="311.9857,-85.4357 321.8591,-89.2784 316.537,-80.1173 311.9857,-85.4357"/>
</g>
<!-- Node8 -->
<g id="node7" class="node">
<title>Node8</title>
<g id="a_node7"><a xlink:href="../../d0/d24/IntegratingMerger_8cxx.html" target="_top" xlink:title="Implementation of O2 Mergers, v0.1. ">
<polygon fill="none" stroke="#000000" points="475,-.5 475,-52.5 602,-52.5 602,-.5 475,-.5"/>
<text text-anchor="start" x="483" y="-40.5" font-family="Helvetica,sans-Serif" font-size="10.00" fill="#000000">/home/travis/build</text>
<text text-anchor="start" x="483" y="-29.5" font-family="Helvetica,sans-Serif" font-size="10.00" fill="#000000">/AliceO2Group/AliceO2</text>
<text text-anchor="start" x="483" y="-18.5" font-family="Helvetica,sans-Serif" font-size="10.00" fill="#000000">/Utilities/Mergers/src</text>
<text text-anchor="middle" x="538.5" y="-7.5" font-family="Helvetica,sans-Serif" font-size="10.00" fill="#000000">/IntegratingMerger.cxx</text>
</a>
</g>
</g>
<!-- Node7&#45;&gt;Node8 -->
<g id="edge7" class="edge">
<title>Node7&#45;&gt;Node8</title>
<path fill="none" stroke="#191970" d="M543.8207,-79.1155C542.9197,-70.2061 541.9733,-60.8475 541.1327,-52.5341"/>
<polygon fill="#191970" stroke="#191970" points="540.3599,-79.6813 544.8484,-89.2784 547.3244,-78.977 540.3599,-79.6813"/>
</g>
<!-- Node9 -->
<g id="node8" class="node">
<title>Node9</title>
<g id="a_node8"><a xlink:href="../../d8/d56/MergerBuilder_8cxx.html" target="_top" xlink:title="Definition of MergerBuilder for O2 Mergers. ">
<polygon fill="none" stroke="#000000" points="330,-.5 330,-52.5 457,-52.5 457,-.5 330,-.5"/>
<text text-anchor="start" x="338" y="-40.5" font-family="Helvetica,sans-Serif" font-size="10.00" fill="#000000">/home/travis/build</text>
<text text-anchor="start" x="338" y="-29.5" font-family="Helvetica,sans-Serif" font-size="10.00" fill="#000000">/AliceO2Group/AliceO2</text>
<text text-anchor="start" x="338" y="-18.5" font-family="Helvetica,sans-Serif" font-size="10.00" fill="#000000">/Utilities/Mergers/src</text>
<text text-anchor="middle" x="393.5" y="-7.5" font-family="Helvetica,sans-Serif" font-size="10.00" fill="#000000">/MergerBuilder.cxx</text>
</a>
</g>
</g>
<!-- Node7&#45;&gt;Node9 -->
<g id="edge8" class="edge">
<title>Node7&#45;&gt;Node9</title>
<path fill="none" stroke="#191970" d="M492.9926,-83.9989C475.1726,-73.7004 455.5909,-62.3837 438.5479,-52.5341"/>
<polygon fill="#191970" stroke="#191970" points="491.7184,-87.305 502.1279,-89.2784 495.221,-81.2443 491.7184,-87.305"/>
</g>
<!-- Node10&#45;&gt;Node5 -->
<g id="edge15" class="edge">
<title>Node10&#45;&gt;Node5</title>
<path fill="none" stroke="#191970" d="M691.2637,-98.5247C672.5868,-95.1268 652.9147,-91.7585 634.5,-89 495.5803,-68.1899 457.1607,-85.4901 320.5,-53 317.7787,-52.353 315.0194,-51.6339 312.2465,-50.8587"/>
<polygon fill="#191970" stroke="#191970" points="690.756,-101.99 701.2241,-100.3562 692.022,-95.1054 690.756,-101.99"/>
</g>
<!-- Node10&#45;&gt;Node8 -->
<g id="edge11" class="edge">
<title>Node10&#45;&gt;Node8</title>
<path fill="none" stroke="#191970" d="M697.879,-85.8504C666.7198,-74.2471 631.4747,-61.1224 602.0658,-50.171"/>
<polygon fill="#191970" stroke="#191970" points="696.8142,-89.1886 707.407,-89.3984 699.2571,-82.6287 696.8142,-89.1886"/>
</g>
<!-- Node10&#45;&gt;Node11 -->
<g id="edge10" class="edge">
<title>Node10&#45;&gt;Node11</title>
<path fill="none" stroke="#191970" d="M742.4237,-82.2894C732.041,-72.459 720.827,-61.8415 710.9967,-52.5341"/>
<polygon fill="#191970" stroke="#191970" points="740.1374,-84.9447 749.8053,-89.2784 744.9501,-79.8615 740.1374,-84.9447"/>
</g>
<!-- Node10&#45;&gt;Node12 -->
<g id="edge12" class="edge">
<title>Node10&#45;&gt;Node12</title>
<path fill="none" stroke="#191970" d="M858.2013,-85.8206C890.0196,-74.1188 926.0349,-60.8735 955.9495,-49.8719"/>
<polygon fill="#191970" stroke="#191970" points="856.6501,-82.6618 848.4728,-89.3984 859.0664,-89.2316 856.6501,-82.6618"/>
</g>
<!-- Node13 -->
<g id="node12" class="node">
<title>Node13</title>
<g id="a_node12"><a xlink:href="../../d4/dda/MergerInfrastructureBuilder_8cxx.html" target="_top" xlink:title="Definition of Mergers&#39; Infrastructure Builder. ">
<polygon fill="none" stroke="#000000" points="765,-.5 765,-52.5 938,-52.5 938,-.5 765,-.5"/>
<text text-anchor="start" x="773" y="-40.5" font-family="Helvetica,sans-Serif" font-size="10.00" fill="#000000">/home/travis/build</text>
<text text-anchor="start" x="773" y="-29.5" font-family="Helvetica,sans-Serif" font-size="10.00" fill="#000000">/AliceO2Group/AliceO2</text>
<text text-anchor="start" x="773" y="-18.5" font-family="Helvetica,sans-Serif" font-size="10.00" fill="#000000">/Utilities/Mergers/src</text>
<text text-anchor="middle" x="851.5" y="-7.5" font-family="Helvetica,sans-Serif" font-size="10.00" fill="#000000">/MergerInfrastructureBuilder.cxx</text>
</a>
</g>
</g>
<!-- Node10&#45;&gt;Node13 -->
<g id="edge13" class="edge">
<title>Node10&#45;&gt;Node13</title>
<path fill="none" stroke="#191970" d="M805.8291,-81.4285C813.8002,-71.8416 822.3403,-61.5704 829.8536,-52.5341"/>
<polygon fill="#191970" stroke="#191970" points="803.0043,-79.3514 799.3022,-89.2784 808.3868,-83.8268 803.0043,-79.3514"/>
</g>
<!-- Node10&#45;&gt;Node14 -->
<g id="edge14" class="edge">
<title>Node10&#45;&gt;Node14</title>
<path fill="none" stroke="#191970" d="M863.7286,-102.1461C927.5244,-91.3619 1016.2109,-74.4646 1092.5,-53 1095.1926,-52.2424 1097.928,-51.4308 1100.6809,-50.5791"/>
<polygon fill="#191970" stroke="#191970" points="862.9936,-98.7203 853.7091,-103.8242 864.1499,-105.6242 862.9936,-98.7203"/>
</g>
</g>
</svg>
