<?xml version="1.0" encoding="UTF-8" standalone="no"?>
<!DOCTYPE svg PUBLIC "-//W3C//DTD SVG 1.1//EN"
 "http://www.w3.org/Graphics/SVG/1.1/DTD/svg11.dtd">
<!-- Generated by graphviz version 2.40.1 (20161225.0304)
 -->
<!-- Title: /home/travis/build/AliceO2Group/AliceO2/DataFormats/Detectors/TPC/include/DataFormatsTPC/TPCSectorHeader.h Pages: 1 -->
<svg width="2383pt" height="172pt"
 viewBox="0.00 0.00 2383.00 172.00" xmlns="http://www.w3.org/2000/svg" xmlns:xlink="http://www.w3.org/1999/xlink">
<g id="graph0" class="graph" transform="scale(1 1) rotate(0) translate(4 168)">
<title>/home/travis/build/AliceO2Group/AliceO2/DataFormats/Detectors/TPC/include/DataFormatsTPC/TPCSectorHeader.h</title>
<!-- Node13 -->
<g id="node1" class="node">
<title>Node13</title>
<polygon fill="#bfbfbf" stroke="#000000" points="1170,-100.5 1170,-163.5 1331,-163.5 1331,-100.5 1170,-100.5"/>
<text text-anchor="start" x="1178" y="-151.5" font-family="Helvetica,sans-Serif" font-size="10.00" fill="#000000">/home/travis/build</text>
<text text-anchor="start" x="1178" y="-140.5" font-family="Helvetica,sans-Serif" font-size="10.00" fill="#000000">/AliceO2Group/AliceO2</text>
<text text-anchor="start" x="1178" y="-129.5" font-family="Helvetica,sans-Serif" font-size="10.00" fill="#000000">/DataFormats/Detectors</text>
<text text-anchor="start" x="1178" y="-118.5" font-family="Helvetica,sans-Serif" font-size="10.00" fill="#000000">/TPC/include/DataFormatsTPC</text>
<text text-anchor="middle" x="1250.5" y="-107.5" font-family="Helvetica,sans-Serif" font-size="10.00" fill="#000000">/TPCSectorHeader.h</text>
</g>
<!-- Node14 -->
<g id="node2" class="node">
<title>Node14</title>
<g id="a_node2"><a xlink:href="../../dc/de7/TPCSectorHeader_8cxx.html" target="_top" xlink:title="/home/travis/build\l/AliceO2Group/AliceO2\l/DataFormats/Detectors\l/TPC/src/TPCSectorHeader.cxx">
<polygon fill="none" stroke="#000000" points="0,-6 0,-58 163,-58 163,-6 0,-6"/>
<text text-anchor="start" x="8" y="-46" font-family="Helvetica,sans-Serif" font-size="10.00" fill="#000000">/home/travis/build</text>
<text text-anchor="start" x="8" y="-35" font-family="Helvetica,sans-Serif" font-size="10.00" fill="#000000">/AliceO2Group/AliceO2</text>
<text text-anchor="start" x="8" y="-24" font-family="Helvetica,sans-Serif" font-size="10.00" fill="#000000">/DataFormats/Detectors</text>
<text text-anchor="middle" x="81.5" y="-13" font-family="Helvetica,sans-Serif" font-size="10.00" fill="#000000">/TPC/src/TPCSectorHeader.cxx</text>
</a>
</g>
</g>
<!-- Node13&#45;&gt;Node14 -->
<g id="edge1" class="edge">
<title>Node13&#45;&gt;Node14</title>
<path fill="none" stroke="#191970" d="M1159.8352,-129.5308C935.5822,-122.9022 359.492,-102.5537 171.5,-64 163.8648,-62.4342 155.9995,-60.3647 148.246,-58.0292"/>
<polygon fill="#191970" stroke="#191970" points="1159.8247,-133.0319 1169.923,-129.8268 1160.03,-126.0349 1159.8247,-133.0319"/>
</g>
<!-- Node15 -->
<g id="node3" class="node">
<title>Node15</title>
<g id="a_node3"><a xlink:href="../../d6/d73/TPCITSMatchingSpec_8cxx.html" target="_top" xlink:title="/home/travis/build\l/AliceO2Group/AliceO2\l/Detectors/GlobalTrackingWorkflow\l/src/TPCITSMatchingSpec.cxx">
<polygon fill="none" stroke="#000000" points="181,-6 181,-58 368,-58 368,-6 181,-6"/>
<text text-anchor="start" x="189" y="-46" font-family="Helvetica,sans-Serif" font-size="10.00" fill="#000000">/home/travis/build</text>
<text text-anchor="start" x="189" y="-35" font-family="Helvetica,sans-Serif" font-size="10.00" fill="#000000">/AliceO2Group/AliceO2</text>
<text text-anchor="start" x="189" y="-24" font-family="Helvetica,sans-Serif" font-size="10.00" fill="#000000">/Detectors/GlobalTrackingWorkflow</text>
<text text-anchor="middle" x="274.5" y="-13" font-family="Helvetica,sans-Serif" font-size="10.00" fill="#000000">/src/TPCITSMatchingSpec.cxx</text>
</a>
</g>
</g>
<!-- Node13&#45;&gt;Node15 -->
<g id="edge2" class="edge">
<title>Node13&#45;&gt;Node15</title>
<path fill="none" stroke="#191970" d="M1159.6145,-127.5414C967.2752,-117.6788 524.5899,-92.6072 376.5,-64 368.1177,-62.3807 359.4544,-60.3102 350.8818,-58.0029"/>
<polygon fill="#191970" stroke="#191970" points="1159.5298,-131.0415 1169.6953,-128.0561 1159.8868,-124.0506 1159.5298,-131.0415"/>
</g>
<!-- Node16 -->
<g id="node4" class="node">
<title>Node16</title>
<g id="a_node4"><a xlink:href="../../d8/d85/TPCInterpolationSpec_8cxx.html" target="_top" xlink:title="/home/travis/build\l/AliceO2Group/AliceO2\l/Detectors/GlobalTrackingWorkflow\l/tpcinterpolationworkflow/src\l/TPCInterpolationSpec.cxx">
<polygon fill="none" stroke="#000000" points="386,-.5 386,-63.5 573,-63.5 573,-.5 386,-.5"/>
<text text-anchor="start" x="394" y="-51.5" font-family="Helvetica,sans-Serif" font-size="10.00" fill="#000000">/home/travis/build</text>
<text text-anchor="start" x="394" y="-40.5" font-family="Helvetica,sans-Serif" font-size="10.00" fill="#000000">/AliceO2Group/AliceO2</text>
<text text-anchor="start" x="394" y="-29.5" font-family="Helvetica,sans-Serif" font-size="10.00" fill="#000000">/Detectors/GlobalTrackingWorkflow</text>
<text text-anchor="start" x="394" y="-18.5" font-family="Helvetica,sans-Serif" font-size="10.00" fill="#000000">/tpcinterpolationworkflow/src</text>
<text text-anchor="middle" x="479.5" y="-7.5" font-family="Helvetica,sans-Serif" font-size="10.00" fill="#000000">/TPCInterpolationSpec.cxx</text>
</a>
</g>
</g>
<!-- Node13&#45;&gt;Node16 -->
<g id="edge3" class="edge">
<title>Node13&#45;&gt;Node16</title>
<path fill="none" stroke="#191970" d="M1159.5169,-128.4965C1030.152,-122.2168 786.1446,-105.5642 582.5,-64 579.381,-63.3634 576.2221,-62.6703 573.0423,-61.9309"/>
<polygon fill="#191970" stroke="#191970" points="1159.6167,-132.0051 1169.7717,-128.9842 1159.9493,-125.013 1159.6167,-132.0051"/>
</g>
<!-- Node17 -->
<g id="node5" class="node">
<title>Node17</title>
<g id="a_node5"><a xlink:href="../../da/d78/CATrackerSpec_8cxx.html" target="_top" xlink:title="Processor spec for running TPC CA tracking. ">
<polygon fill="none" stroke="#000000" points="591.5,-6 591.5,-58 727.5,-58 727.5,-6 591.5,-6"/>
<text text-anchor="start" x="599.5" y="-46" font-family="Helvetica,sans-Serif" font-size="10.00" fill="#000000">/home/travis/build</text>
<text text-anchor="start" x="599.5" y="-35" font-family="Helvetica,sans-Serif" font-size="10.00" fill="#000000">/AliceO2Group/AliceO2</text>
<text text-anchor="start" x="599.5" y="-24" font-family="Helvetica,sans-Serif" font-size="10.00" fill="#000000">/Detectors/TPC/workflow</text>
<text text-anchor="middle" x="659.5" y="-13" font-family="Helvetica,sans-Serif" font-size="10.00" fill="#000000">/src/CATrackerSpec.cxx</text>
</a>
</g>
</g>
<!-- Node13&#45;&gt;Node17 -->
<g id="edge4" class="edge">
<title>Node13&#45;&gt;Node17</title>
<path fill="none" stroke="#191970" d="M1159.8484,-127.2053C1056.0459,-120.0685 881.6142,-103.0234 736.5,-64 730.3489,-62.3459 724.0375,-60.315 717.8028,-58.0858"/>
<polygon fill="#191970" stroke="#191970" points="1159.7674,-130.7077 1169.9795,-127.8857 1160.2366,-123.7234 1159.7674,-130.7077"/>
</g>
<!-- Node18 -->
<g id="node6" class="node">
<title>Node18</title>
<g id="a_node6"><a xlink:href="../../d9/d7b/ClusterDecoderRawSpec_8cxx.html" target="_top" xlink:title="Processor spec for decoder of TPC raw cluster data. ">
<polygon fill="none" stroke="#000000" points="745.5,-6 745.5,-58 921.5,-58 921.5,-6 745.5,-6"/>
<text text-anchor="start" x="753.5" y="-46" font-family="Helvetica,sans-Serif" font-size="10.00" fill="#000000">/home/travis/build</text>
<text text-anchor="start" x="753.5" y="-35" font-family="Helvetica,sans-Serif" font-size="10.00" fill="#000000">/AliceO2Group/AliceO2</text>
<text text-anchor="start" x="753.5" y="-24" font-family="Helvetica,sans-Serif" font-size="10.00" fill="#000000">/Detectors/TPC/workflow</text>
<text text-anchor="middle" x="833.5" y="-13" font-family="Helvetica,sans-Serif" font-size="10.00" fill="#000000">/src/ClusterDecoderRawSpec.cxx</text>
</a>
</g>
</g>
<!-- Node13&#45;&gt;Node18 -->
<g id="edge5" class="edge">
<title>Node13&#45;&gt;Node18</title>
<path fill="none" stroke="#191970" d="M1159.5724,-115.425C1095.1785,-103.0198 1007.0043,-84.6815 930.5,-64 923.7382,-62.1721 916.7537,-60.1464 909.7762,-58.0275"/>
<polygon fill="#191970" stroke="#191970" points="1159.2177,-118.9206 1169.6976,-117.3645 1160.5347,-112.0456 1159.2177,-118.9206"/>
</g>
<!-- Node19 -->
<g id="node7" class="node">
<title>Node19</title>
<g id="a_node7"><a xlink:href="../../d5/d17/TPC_2workflow_2src_2ClustererSpec_8cxx.html" target="_top" xlink:title="/home/travis/build\l/AliceO2Group/AliceO2\l/Detectors/TPC/workflow\l/src/ClustererSpec.cxx">
<polygon fill="none" stroke="#000000" points="939.5,-6 939.5,-58 1075.5,-58 1075.5,-6 939.5,-6"/>
<text text-anchor="start" x="947.5" y="-46" font-family="Helvetica,sans-Serif" font-size="10.00" fill="#000000">/home/travis/build</text>
<text text-anchor="start" x="947.5" y="-35" font-family="Helvetica,sans-Serif" font-size="10.00" fill="#000000">/AliceO2Group/AliceO2</text>
<text text-anchor="start" x="947.5" y="-24" font-family="Helvetica,sans-Serif" font-size="10.00" fill="#000000">/Detectors/TPC/workflow</text>
<text text-anchor="middle" x="1007.5" y="-13" font-family="Helvetica,sans-Serif" font-size="10.00" fill="#000000">/src/ClustererSpec.cxx</text>
</a>
</g>
</g>
<!-- Node13&#45;&gt;Node19 -->
<g id="edge6" class="edge">
<title>Node13&#45;&gt;Node19</title>
<path fill="none" stroke="#191970" d="M1163.887,-96.6171C1138.3111,-86.1426 1110.2687,-74.6324 1084.5,-64 1079.8163,-62.0674 1074.9739,-60.0652 1070.104,-58.0484"/>
<polygon fill="#191970" stroke="#191970" points="1162.6088,-99.8757 1173.1893,-100.4257 1165.2611,-93.3976 1162.6088,-99.8757"/>
</g>
<!-- Node20 -->
<g id="node8" class="node">
<title>Node20</title>
<g id="a_node8"><a xlink:href="../../dc/df5/LinkZSToDigitsSpec_8cxx.html" target="_top" xlink:title="/home/travis/build\l/AliceO2Group/AliceO2\l/Detectors/TPC/workflow\l/src/LinkZSToDigitsSpec.cxx">
<polygon fill="none" stroke="#000000" points="1093.5,-6 1093.5,-58 1245.5,-58 1245.5,-6 1093.5,-6"/>
<text text-anchor="start" x="1101.5" y="-46" font-family="Helvetica,sans-Serif" font-size="10.00" fill="#000000">/home/travis/build</text>
<text text-anchor="start" x="1101.5" y="-35" font-family="Helvetica,sans-Serif" font-size="10.00" fill="#000000">/AliceO2Group/AliceO2</text>
<text text-anchor="start" x="1101.5" y="-24" font-family="Helvetica,sans-Serif" font-size="10.00" fill="#000000">/Detectors/TPC/workflow</text>
<text text-anchor="middle" x="1169.5" y="-13" font-family="Helvetica,sans-Serif" font-size="10.00" fill="#000000">/src/LinkZSToDigitsSpec.cxx</text>
</a>
</g>
</g>
<!-- Node13&#45;&gt;Node20 -->
<g id="edge7" class="edge">
<title>Node13&#45;&gt;Node20</title>
<path fill="none" stroke="#191970" d="M1218.5121,-92.5088C1209.1421,-80.9409 1199.1355,-68.5871 1190.6232,-58.078"/>
<polygon fill="#191970" stroke="#191970" points="1215.8571,-94.7917 1224.8711,-100.3594 1221.2966,-90.3857 1215.8571,-94.7917"/>
</g>
<!-- Node21 -->
<g id="node9" class="node">
<title>Node21</title>
<g id="a_node9"><a xlink:href="../../d4/dac/TPC_2workflow_2src_2PublisherSpec_8cxx.html" target="_top" xlink:title="/home/travis/build\l/AliceO2Group/AliceO2\l/Detectors/TPC/workflow\l/src/PublisherSpec.cxx">
<polygon fill="none" stroke="#000000" points="1263.5,-6 1263.5,-58 1399.5,-58 1399.5,-6 1263.5,-6"/>
<text text-anchor="start" x="1271.5" y="-46" font-family="Helvetica,sans-Serif" font-size="10.00" fill="#000000">/home/travis/build</text>
<text text-anchor="start" x="1271.5" y="-35" font-family="Helvetica,sans-Serif" font-size="10.00" fill="#000000">/AliceO2Group/AliceO2</text>
<text text-anchor="start" x="1271.5" y="-24" font-family="Helvetica,sans-Serif" font-size="10.00" fill="#000000">/Detectors/TPC/workflow</text>
<text text-anchor="middle" x="1331.5" y="-13" font-family="Helvetica,sans-Serif" font-size="10.00" fill="#000000">/src/PublisherSpec.cxx</text>
</a>
</g>
</g>
<!-- Node13&#45;&gt;Node21 -->
<g id="edge8" class="edge">
<title>Node13&#45;&gt;Node21</title>
<path fill="none" stroke="#191970" d="M1282.4879,-92.5088C1291.8579,-80.9409 1301.8645,-68.5871 1310.3768,-58.078"/>
<polygon fill="#191970" stroke="#191970" points="1279.7034,-90.3857 1276.1289,-100.3594 1285.1429,-94.7917 1279.7034,-90.3857"/>
</g>
<!-- Node22 -->
<g id="node10" class="node">
<title>Node22</title>
<g id="a_node10"><a xlink:href="../../d5/d78/RawToDigitsSpec_8cxx.html" target="_top" xlink:title="/home/travis/build\l/AliceO2Group/AliceO2\l/Detectors/TPC/workflow\l/src/RawToDigitsSpec.cxx">
<polygon fill="none" stroke="#000000" points="1417.5,-6 1417.5,-58 1557.5,-58 1557.5,-6 1417.5,-6"/>
<text text-anchor="start" x="1425.5" y="-46" font-family="Helvetica,sans-Serif" font-size="10.00" fill="#000000">/home/travis/build</text>
<text text-anchor="start" x="1425.5" y="-35" font-family="Helvetica,sans-Serif" font-size="10.00" fill="#000000">/AliceO2Group/AliceO2</text>
<text text-anchor="start" x="1425.5" y="-24" font-family="Helvetica,sans-Serif" font-size="10.00" fill="#000000">/Detectors/TPC/workflow</text>
<text text-anchor="middle" x="1487.5" y="-13" font-family="Helvetica,sans-Serif" font-size="10.00" fill="#000000">/src/RawToDigitsSpec.cxx</text>
</a>
</g>
</g>
<!-- Node13&#45;&gt;Node22 -->
<g id="edge9" class="edge">
<title>Node13&#45;&gt;Node22</title>
<path fill="none" stroke="#191970" d="M1334.7574,-96.4483C1364.6868,-83.8199 1397.8043,-69.8463 1425.5297,-58.1478"/>
<polygon fill="#191970" stroke="#191970" points="1333.0158,-93.3844 1325.163,-100.4966 1335.7371,-99.8338 1333.0158,-93.3844"/>
</g>
<!-- Node23 -->
<g id="node11" class="node">
<title>Node23</title>
<g id="a_node11"><a xlink:href="../../d0/d80/TPC_2workflow_2src_2RecoWorkflow_8cxx.html" target="_top" xlink:title="/home/travis/build\l/AliceO2Group/AliceO2\l/Detectors/TPC/workflow\l/src/RecoWorkflow.cxx">
<polygon fill="none" stroke="#000000" points="1575.5,-6 1575.5,-58 1711.5,-58 1711.5,-6 1575.5,-6"/>
<text text-anchor="start" x="1583.5" y="-46" font-family="Helvetica,sans-Serif" font-size="10.00" fill="#000000">/home/travis/build</text>
<text text-anchor="start" x="1583.5" y="-35" font-family="Helvetica,sans-Serif" font-size="10.00" fill="#000000">/AliceO2Group/AliceO2</text>
<text text-anchor="start" x="1583.5" y="-24" font-family="Helvetica,sans-Serif" font-size="10.00" fill="#000000">/Detectors/TPC/workflow</text>
<text text-anchor="middle" x="1643.5" y="-13" font-family="Helvetica,sans-Serif" font-size="10.00" fill="#000000">/src/RecoWorkflow.cxx</text>
</a>
</g>
</g>
<!-- Node13&#45;&gt;Node23 -->
<g id="edge10" class="edge">
<title>Node13&#45;&gt;Node23</title>
<path fill="none" stroke="#191970" d="M1341.1198,-117.0274C1404.9135,-105.3934 1491.8892,-87.3182 1566.5,-64 1572.1651,-62.2295 1577.9907,-60.2053 1583.78,-58.054"/>
<polygon fill="#191970" stroke="#191970" points="1340.3048,-113.6179 1331.0858,-118.8391 1341.5486,-120.5065 1340.3048,-113.6179"/>
</g>
<!-- Node24 -->
<g id="node12" class="node">
<title>Node24</title>
<g id="a_node12"><a xlink:href="../../d3/dbf/tpc-reco-workflow_8cxx.html" target="_top" xlink:title="Basic DPL workflow for TPC reconstruction starting from digits. ">
<polygon fill="none" stroke="#000000" points="1729.5,-6 1729.5,-58 1873.5,-58 1873.5,-6 1729.5,-6"/>
<text text-anchor="start" x="1737.5" y="-46" font-family="Helvetica,sans-Serif" font-size="10.00" fill="#000000">/home/travis/build</text>
<text text-anchor="start" x="1737.5" y="-35" font-family="Helvetica,sans-Serif" font-size="10.00" fill="#000000">/AliceO2Group/AliceO2</text>
<text text-anchor="start" x="1737.5" y="-24" font-family="Helvetica,sans-Serif" font-size="10.00" fill="#000000">/Detectors/TPC/workflow</text>
<text text-anchor="middle" x="1801.5" y="-13" font-family="Helvetica,sans-Serif" font-size="10.00" fill="#000000">/src/tpc&#45;reco&#45;workflow.cxx</text>
</a>
</g>
</g>
<!-- Node13&#45;&gt;Node24 -->
<g id="edge11" class="edge">
<title>Node13&#45;&gt;Node24</title>
<path fill="none" stroke="#191970" d="M1341.2682,-125.1685C1436.8609,-116.518 1591.1571,-98.4029 1720.5,-64 1726.7832,-62.3288 1733.2409,-60.3162 1739.6373,-58.124"/>
<polygon fill="#191970" stroke="#191970" points="1340.7072,-121.7045 1331.0566,-126.0767 1341.3274,-128.677 1340.7072,-121.7045"/>
</g>
<!-- Node25 -->
<g id="node13" class="node">
<title>Node25</title>
<g id="a_node13"><a xlink:href="../../d3/d13/SimReaderSpec_8cxx.html" target="_top" xlink:title="/home/travis/build\l/AliceO2Group/AliceO2\l/Steer/DigitizerWorkflow\l/src/SimReaderSpec.cxx">
<polygon fill="none" stroke="#000000" points="1891.5,-6 1891.5,-58 2025.5,-58 2025.5,-6 1891.5,-6"/>
<text text-anchor="start" x="1899.5" y="-46" font-family="Helvetica,sans-Serif" font-size="10.00" fill="#000000">/home/travis/build</text>
<text text-anchor="start" x="1899.5" y="-35" font-family="Helvetica,sans-Serif" font-size="10.00" fill="#000000">/AliceO2Group/AliceO2</text>
<text text-anchor="start" x="1899.5" y="-24" font-family="Helvetica,sans-Serif" font-size="10.00" fill="#000000">/Steer/DigitizerWorkflow</text>
<text text-anchor="middle" x="1958.5" y="-13" font-family="Helvetica,sans-Serif" font-size="10.00" fill="#000000">/src/SimReaderSpec.cxx</text>
</a>
</g>
</g>
<!-- Node13&#45;&gt;Node25 -->
<g id="edge12" class="edge">
<title>Node13&#45;&gt;Node25</title>
<path fill="none" stroke="#191970" d="M1341.2395,-125.5045C1490.8023,-114.2503 1782.4924,-89.8402 1882.5,-64 1888.7375,-62.3883 1895.1305,-60.3545 1901.4315,-58.0967"/>
<polygon fill="#191970" stroke="#191970" points="1340.8698,-122.0223 1331.1591,-126.2593 1341.3926,-129.0028 1340.8698,-122.0223"/>
</g>
<!-- Node26 -->
<g id="node14" class="node">
<title>Node26</title>
<g id="a_node14"><a xlink:href="../../d2/d0b/TPCDigitizerSpec_8cxx.html" target="_top" xlink:title="/home/travis/build\l/AliceO2Group/AliceO2\l/Steer/DigitizerWorkflow\l/src/TPCDigitizerSpec.cxx">
<polygon fill="none" stroke="#000000" points="2043.5,-6 2043.5,-58 2183.5,-58 2183.5,-6 2043.5,-6"/>
<text text-anchor="start" x="2051.5" y="-46" font-family="Helvetica,sans-Serif" font-size="10.00" fill="#000000">/home/travis/build</text>
<text text-anchor="start" x="2051.5" y="-35" font-family="Helvetica,sans-Serif" font-size="10.00" fill="#000000">/AliceO2Group/AliceO2</text>
<text text-anchor="start" x="2051.5" y="-24" font-family="Helvetica,sans-Serif" font-size="10.00" fill="#000000">/Steer/DigitizerWorkflow</text>
<text text-anchor="middle" x="2113.5" y="-13" font-family="Helvetica,sans-Serif" font-size="10.00" fill="#000000">/src/TPCDigitizerSpec.cxx</text>
</a>
</g>
</g>
<!-- Node13&#45;&gt;Node26 -->
<g id="edge13" class="edge">
<title>Node13&#45;&gt;Node26</title>
<path fill="none" stroke="#191970" d="M1341.1951,-127.5331C1518.5097,-118.2411 1905.0807,-95.0806 2034.5,-64 2041.1188,-62.4105 2047.9096,-60.359 2054.5971,-58.0629"/>
<polygon fill="#191970" stroke="#191970" points="1340.913,-124.043 1331.1087,-128.0585 1341.2773,-131.0335 1340.913,-124.043"/>
</g>
<!-- Node27 -->
<g id="node15" class="node">
<title>Node27</title>
<g id="a_node15"><a xlink:href="../../d8/dd2/TPCDigitRootWriterSpec_8cxx.html" target="_top" xlink:title="/home/travis/build\l/AliceO2Group/AliceO2\l/Steer/DigitizerWorkflow\l/src/TPCDigitRootWriterSpec.cxx">
<polygon fill="none" stroke="#000000" points="2202,-6 2202,-58 2375,-58 2375,-6 2202,-6"/>
<text text-anchor="start" x="2210" y="-46" font-family="Helvetica,sans-Serif" font-size="10.00" fill="#000000">/home/travis/build</text>
<text text-anchor="start" x="2210" y="-35" font-family="Helvetica,sans-Serif" font-size="10.00" fill="#000000">/AliceO2Group/AliceO2</text>
<text text-anchor="start" x="2210" y="-24" font-family="Helvetica,sans-Serif" font-size="10.00" fill="#000000">/Steer/DigitizerWorkflow</text>
<text text-anchor="middle" x="2288.5" y="-13" font-family="Helvetica,sans-Serif" font-size="10.00" fill="#000000">/src/TPCDigitRootWriterSpec.cxx</text>
</a>
</g>
</g>
<!-- Node13&#45;&gt;Node27 -->
<g id="edge14" class="edge">
<title>Node13&#45;&gt;Node27</title>
<path fill="none" stroke="#191970" d="M1341.053,-128.3467C1544.225,-119.6818 2031.2081,-96.1763 2192.5,-64 2200.5114,-62.4018 2208.7797,-60.3284 2216.9473,-58.0052"/>
<polygon fill="#191970" stroke="#191970" points="1340.8515,-124.852 1331.0089,-128.7728 1341.1483,-131.8457 1340.8515,-124.852"/>
</g>
</g>
</svg>
