<?xml version="1.0" encoding="UTF-8" standalone="no"?>
<!DOCTYPE svg PUBLIC "-//W3C//DTD SVG 1.1//EN"
 "http://www.w3.org/Graphics/SVG/1.1/DTD/svg11.dtd">
<!-- Generated by graphviz version 2.40.1 (20161225.0304)
 -->
<!-- Title: GPUCA_NAMESPACE::gpu::GPUTPCGMMergerMergeBorders Pages: 1 -->
<svg width="244pt" height="558pt"
 viewBox="0.00 0.00 243.50 558.00" xmlns="http://www.w3.org/2000/svg" xmlns:xlink="http://www.w3.org/1999/xlink">
<g id="graph0" class="graph" transform="scale(1 1) rotate(0) translate(4 554)">
<title>GPUCA_NAMESPACE::gpu::GPUTPCGMMergerMergeBorders</title>
<!-- Node3 -->
<g id="node1" class="node">
<title>Node3</title>
<polygon fill="#bfbfbf" stroke="#000000" points="0,-.5 0,-79.5 179,-79.5 179,-.5 0,-.5"/>
<text text-anchor="start" x="8" y="-67.5" font-family="Helvetica,sans-Serif" font-size="10.00" fill="#000000">GPUCA_NAMESPACE::gpu</text>
<text text-anchor="middle" x="89.5" y="-56.5" font-family="Helvetica,sans-Serif" font-size="10.00" fill="#000000">::GPUTPCGMMergerMergeBorders</text>
<polyline fill="none" stroke="#000000" points="0,-49.5 179,-49.5 "/>
<text text-anchor="middle" x="89.5" y="-37.5" font-family="Helvetica,sans-Serif" font-size="10.00" fill="#000000"> </text>
<polyline fill="none" stroke="#000000" points="0,-30.5 179,-30.5 "/>
<text text-anchor="start" x="8" y="-18.5" font-family="Helvetica,sans-Serif" font-size="10.00" fill="#000000">+ GPUd()</text>
<text text-anchor="start" x="8" y="-7.5" font-family="Helvetica,sans-Serif" font-size="10.00" fill="#000000">+ GPUsharedref()</text>
</g>
<!-- Node4 -->
<g id="node2" class="node">
<title>Node4</title>
<g id="a_node2"><a xlink:href="../../da/dd0/classGPUCA__NAMESPACE_1_1gpu_1_1GPUTPCGMMergerGeneral.html" target="_top" xlink:title="{GPUCA_NAMESPACE::gpu\l::GPUTPCGMMergerGeneral\n||+ GPUhdi()\l+ GPUhdi()\l}">
<polygon fill="none" stroke="#000000" points="85.5,-117.5 85.5,-196.5 235.5,-196.5 235.5,-117.5 85.5,-117.5"/>
<text text-anchor="start" x="93.5" y="-184.5" font-family="Helvetica,sans-Serif" font-size="10.00" fill="#000000">GPUCA_NAMESPACE::gpu</text>
<text text-anchor="middle" x="160.5" y="-173.5" font-family="Helvetica,sans-Serif" font-size="10.00" fill="#000000">::GPUTPCGMMergerGeneral</text>
<polyline fill="none" stroke="#000000" points="85.5,-166.5 235.5,-166.5 "/>
<text text-anchor="middle" x="160.5" y="-154.5" font-family="Helvetica,sans-Serif" font-size="10.00" fill="#000000"> </text>
<polyline fill="none" stroke="#000000" points="85.5,-147.5 235.5,-147.5 "/>
<text text-anchor="start" x="93.5" y="-135.5" font-family="Helvetica,sans-Serif" font-size="10.00" fill="#000000">+ GPUhdi()</text>
<text text-anchor="start" x="93.5" y="-124.5" font-family="Helvetica,sans-Serif" font-size="10.00" fill="#000000">+ GPUhdi()</text>
</a>
</g>
</g>
<!-- Node4&#45;&gt;Node3 -->
<g id="edge1" class="edge">
<title>Node4&#45;&gt;Node3</title>
<path fill="none" stroke="#191970" d="M131.1544,-108.6417C125.2824,-98.9654 119.1787,-88.9072 113.5126,-79.5701"/>
<polygon fill="none" stroke="#191970" points="128.2826,-110.6559 136.4626,-117.3891 134.2669,-107.0243 128.2826,-110.6559"/>
</g>
<!-- Node5 -->
<g id="node3" class="node">
<title>Node5</title>
<g id="a_node3"><a xlink:href="../../d3/d60/classGPUCA__NAMESPACE_1_1gpu_1_1GPUKernelTemplate.html" target="_top" xlink:title="{GPUCA_NAMESPACE::gpu\l::GPUKernelTemplate\n||+ GPUconstantref()\l+ GPUhdi()\l+ GPUhdi()\l+ GPUd()\l+ GPUsharedref()\l}">
<polygon fill="none" stroke="#000000" points="87.5,-310.5 87.5,-422.5 227.5,-422.5 227.5,-310.5 87.5,-310.5"/>
<text text-anchor="start" x="95.5" y="-410.5" font-family="Helvetica,sans-Serif" font-size="10.00" fill="#000000">GPUCA_NAMESPACE::gpu</text>
<text text-anchor="middle" x="157.5" y="-399.5" font-family="Helvetica,sans-Serif" font-size="10.00" fill="#000000">::GPUKernelTemplate</text>
<polyline fill="none" stroke="#000000" points="87.5,-392.5 227.5,-392.5 "/>
<text text-anchor="middle" x="157.5" y="-380.5" font-family="Helvetica,sans-Serif" font-size="10.00" fill="#000000"> </text>
<polyline fill="none" stroke="#000000" points="87.5,-373.5 227.5,-373.5 "/>
<text text-anchor="start" x="95.5" y="-361.5" font-family="Helvetica,sans-Serif" font-size="10.00" fill="#000000">+ GPUconstantref()</text>
<text text-anchor="start" x="95.5" y="-350.5" font-family="Helvetica,sans-Serif" font-size="10.00" fill="#000000">+ GPUhdi()</text>
<text text-anchor="start" x="95.5" y="-339.5" font-family="Helvetica,sans-Serif" font-size="10.00" fill="#000000">+ GPUhdi()</text>
<text text-anchor="start" x="95.5" y="-328.5" font-family="Helvetica,sans-Serif" font-size="10.00" fill="#000000">+ GPUd()</text>
<text text-anchor="start" x="95.5" y="-317.5" font-family="Helvetica,sans-Serif" font-size="10.00" fill="#000000">+ GPUsharedref()</text>
</a>
</g>
</g>
<!-- Node5&#45;&gt;Node4 -->
<g id="edge2" class="edge">
<title>Node5&#45;&gt;Node4</title>
<path fill="none" stroke="#191970" d="M158.4519,-300.0291C158.9386,-266.0407 159.5145,-225.8181 159.9315,-196.6979"/>
<polygon fill="none" stroke="#191970" points="154.9476,-300.3087 158.3039,-310.3578 161.9469,-300.409 154.9476,-300.3087"/>
</g>
<!-- Node6 -->
<g id="node4" class="node">
<title>Node6</title>
<polygon fill="none" stroke="#bfbfbf" points="59,-492.5 59,-549.5 88,-549.5 88,-492.5 59,-492.5"/>
<text text-anchor="middle" x="73.5" y="-537.5" font-family="Helvetica,sans-Serif" font-size="10.00" fill="#000000">int</text>
<polyline fill="none" stroke="#bfbfbf" points="59,-530.5 88,-530.5 "/>
<text text-anchor="middle" x="73.5" y="-518.5" font-family="Helvetica,sans-Serif" font-size="10.00" fill="#000000"> </text>
<polyline fill="none" stroke="#bfbfbf" points="59,-511.5 88,-511.5 "/>
<text text-anchor="middle" x="73.5" y="-499.5" font-family="Helvetica,sans-Serif" font-size="10.00" fill="#000000"> </text>
</g>
<!-- Node6&#45;&gt;Node3 -->
<g id="edge4" class="edge">
<title>Node6&#45;&gt;Node3</title>
<path fill="none" stroke="#404040" d="M72.1322,-492.0221C69.3408,-425.5614 64.2328,-257.0963 76.5,-117 77.2151,-108.8334 78.3177,-100.2286 79.5848,-91.8485"/>
<polygon fill="none" stroke="#404040" points="79.6161,-91.6543 76.626,-85.0924 81.5331,-79.8084 84.5232,-86.3703 79.6161,-91.6543"/>
<text text-anchor="middle" x="104" y="-284" font-family="Helvetica,sans-Serif" font-size="10.00" fill="#000000"> +iThread</text>
<text text-anchor="middle" x="104" y="-273" font-family="Helvetica,sans-Serif" font-size="10.00" fill="#000000">+iBlock</text>
<text text-anchor="middle" x="104" y="-262" font-family="Helvetica,sans-Serif" font-size="10.00" fill="#000000">+merger</text>
<text text-anchor="middle" x="104" y="-251" font-family="Helvetica,sans-Serif" font-size="10.00" fill="#000000">+withinSlice</text>
<text text-anchor="middle" x="104" y="-240" font-family="Helvetica,sans-Serif" font-size="10.00" fill="#000000">+iSlice</text>
<text text-anchor="middle" x="104" y="-229" font-family="Helvetica,sans-Serif" font-size="10.00" fill="#000000">+mergeMode</text>
<text text-anchor="middle" x="104" y="-218" font-family="Helvetica,sans-Serif" font-size="10.00" fill="#000000">+nThreads</text>
</g>
<!-- Node6&#45;&gt;Node5 -->
<g id="edge3" class="edge">
<title>Node6&#45;&gt;Node5</title>
<path fill="none" stroke="#404040" d="M88.1317,-494.0882C97.2999,-477.2253 109.5498,-454.6942 121.2029,-433.2607"/>
<polygon fill="none" stroke="#404040" points="121.3085,-433.0664 120.6603,-425.8845 127.0405,-422.5238 127.6887,-429.7057 121.3085,-433.0664"/>
<text text-anchor="middle" x="142.5" y="-466" font-family="Helvetica,sans-Serif" font-size="10.00" fill="#000000"> +iThread</text>
<text text-anchor="middle" x="142.5" y="-455" font-family="Helvetica,sans-Serif" font-size="10.00" fill="#000000">+iBlock</text>
<text text-anchor="middle" x="142.5" y="-444" font-family="Helvetica,sans-Serif" font-size="10.00" fill="#000000">+nThreads</text>
</g>
</g>
</svg>
