<?xml version="1.0" encoding="UTF-8" standalone="no"?>
<!DOCTYPE svg PUBLIC "-//W3C//DTD SVG 1.1//EN"
 "http://www.w3.org/Graphics/SVG/1.1/DTD/svg11.dtd">
<!-- Generated by graphviz version 2.40.1 (20161225.0304)
 -->
<!-- Title: CorrelationTask Pages: 1 -->
<svg width="1325pt" height="1006pt"
 viewBox="0.00 0.00 1324.50 1006.00" xmlns="http://www.w3.org/2000/svg" xmlns:xlink="http://www.w3.org/1999/xlink">
<g id="graph0" class="graph" transform="scale(1 1) rotate(0) translate(4 1002)">
<title>CorrelationTask</title>
<!-- Node1 -->
<g id="node1" class="node">
<title>Node1</title>
<polygon fill="#bfbfbf" stroke="#000000" points="820,-.5 820,-222.5 990,-222.5 990,-.5 820,-.5"/>
<text text-anchor="middle" x="905" y="-210.5" font-family="Helvetica,sans-Serif" font-size="10.00" fill="#000000">CorrelationTask</text>
<polyline fill="none" stroke="#000000" points="820,-203.5 990,-203.5 "/>
<text text-anchor="middle" x="905" y="-191.5" font-family="Helvetica,sans-Serif" font-size="10.00" fill="#000000"> </text>
<polyline fill="none" stroke="#000000" points="820,-184.5 990,-184.5 "/>
<text text-anchor="start" x="828" y="-172.5" font-family="Helvetica,sans-Serif" font-size="10.00" fill="#000000">+ init()</text>
<text text-anchor="start" x="828" y="-161.5" font-family="Helvetica,sans-Serif" font-size="10.00" fill="#000000">+ process()</text>
<text text-anchor="start" x="828" y="-150.5" font-family="Helvetica,sans-Serif" font-size="10.00" fill="#000000">+ O2_DEFINE_CONFIGURABLE()</text>
<text text-anchor="start" x="828" y="-139.5" font-family="Helvetica,sans-Serif" font-size="10.00" fill="#000000">+ O2_DEFINE_CONFIGURABLE()</text>
<text text-anchor="start" x="828" y="-128.5" font-family="Helvetica,sans-Serif" font-size="10.00" fill="#000000">+ O2_DEFINE_CONFIGURABLE()</text>
<text text-anchor="start" x="828" y="-117.5" font-family="Helvetica,sans-Serif" font-size="10.00" fill="#000000">+ O2_DEFINE_CONFIGURABLE()</text>
<text text-anchor="start" x="828" y="-106.5" font-family="Helvetica,sans-Serif" font-size="10.00" fill="#000000">+ O2_DEFINE_CONFIGURABLE()</text>
<text text-anchor="start" x="828" y="-95.5" font-family="Helvetica,sans-Serif" font-size="10.00" fill="#000000">+ init()</text>
<text text-anchor="start" x="828" y="-84.5" font-family="Helvetica,sans-Serif" font-size="10.00" fill="#000000">+ process()</text>
<text text-anchor="start" x="828" y="-73.5" font-family="Helvetica,sans-Serif" font-size="10.00" fill="#000000">+ process2()</text>
<text text-anchor="start" x="828" y="-62.5" font-family="Helvetica,sans-Serif" font-size="10.00" fill="#000000">+ conversionCuts()</text>
<text text-anchor="start" x="828" y="-51.5" font-family="Helvetica,sans-Serif" font-size="10.00" fill="#000000">+ conversionCut()</text>
<text text-anchor="start" x="828" y="-40.5" font-family="Helvetica,sans-Serif" font-size="10.00" fill="#000000">+ getInvMassSquared()</text>
<text text-anchor="start" x="828" y="-29.5" font-family="Helvetica,sans-Serif" font-size="10.00" fill="#000000">+ getInvMassSquaredFast()</text>
<text text-anchor="start" x="828" y="-18.5" font-family="Helvetica,sans-Serif" font-size="10.00" fill="#000000">+ twoTrackCut()</text>
<text text-anchor="start" x="828" y="-7.5" font-family="Helvetica,sans-Serif" font-size="10.00" fill="#000000">+ getDPhiStar()</text>
</g>
<!-- Node2 -->
<g id="node2" class="node">
<title>Node2</title>
<g id="a_node2"><a xlink:href="../../db/d2d/structCorrelationTask_1_1QA.html" target="_top" xlink:title="{CorrelationTask::QA\n||}">
<polygon fill="none" stroke="#000000" points="136.5,-336.5 136.5,-393.5 249.5,-393.5 249.5,-336.5 136.5,-336.5"/>
<text text-anchor="middle" x="193" y="-381.5" font-family="Helvetica,sans-Serif" font-size="10.00" fill="#000000">CorrelationTask::QA</text>
<polyline fill="none" stroke="#000000" points="136.5,-374.5 249.5,-374.5 "/>
<text text-anchor="middle" x="193" y="-362.5" font-family="Helvetica,sans-Serif" font-size="10.00" fill="#000000"> </text>
<polyline fill="none" stroke="#000000" points="136.5,-355.5 249.5,-355.5 "/>
<text text-anchor="middle" x="193" y="-343.5" font-family="Helvetica,sans-Serif" font-size="10.00" fill="#000000"> </text>
</a>
</g>
</g>
<!-- Node2&#45;&gt;Node1 -->
<g id="edge1" class="edge">
<title>Node2&#45;&gt;Node1</title>
<path fill="none" stroke="#404040" d="M249.7631,-344.7901C371.2144,-301.5487 657.4588,-199.6344 808.228,-145.9546"/>
<polygon fill="none" stroke="#404040" points="808.4256,-145.8844 812.7363,-140.1035 819.7304,-141.8593 815.4197,-147.6401 808.4256,-145.8844"/>
<text text-anchor="middle" x="540" y="-249.5" font-family="Helvetica,sans-Serif" font-size="10.00" fill="#000000"> +qa</text>
</g>
<!-- Node3 -->
<g id="node3" class="node">
<title>Node3</title>
<polygon fill="none" stroke="#bfbfbf" points="168,-593 168,-650 218,-650 218,-593 168,-593"/>
<text text-anchor="middle" x="193" y="-638" font-family="Helvetica,sans-Serif" font-size="10.00" fill="#000000">TH3F *</text>
<polyline fill="none" stroke="#bfbfbf" points="168,-631 218,-631 "/>
<text text-anchor="middle" x="193" y="-619" font-family="Helvetica,sans-Serif" font-size="10.00" fill="#000000"> </text>
<polyline fill="none" stroke="#bfbfbf" points="168,-612 218,-612 "/>
<text text-anchor="middle" x="193" y="-600" font-family="Helvetica,sans-Serif" font-size="10.00" fill="#000000"> </text>
</g>
<!-- Node3&#45;&gt;Node2 -->
<g id="edge2" class="edge">
<title>Node3&#45;&gt;Node2</title>
<path fill="none" stroke="#404040" d="M193,-592.5748C193,-546.9434 193,-458.0876 193,-405.9283"/>
<polygon fill="none" stroke="#404040" points="193.0001,-405.8195 189,-399.8195 193,-393.8195 197,-399.8195 193.0001,-405.8195"/>
<text text-anchor="middle" x="252" y="-493.5" font-family="Helvetica,sans-Serif" font-size="10.00" fill="#000000"> +mTwoTrackDistancePt</text>
</g>
<!-- Node4 -->
<g id="node4" class="node">
<title>Node4</title>
<polygon fill="none" stroke="#bfbfbf" points="0,-593 0,-650 50,-650 50,-593 0,-593"/>
<text text-anchor="middle" x="25" y="-638" font-family="Helvetica,sans-Serif" font-size="10.00" fill="#000000">TH2F *</text>
<polyline fill="none" stroke="#bfbfbf" points="0,-631 50,-631 "/>
<text text-anchor="middle" x="25" y="-619" font-family="Helvetica,sans-Serif" font-size="10.00" fill="#000000"> </text>
<polyline fill="none" stroke="#bfbfbf" points="0,-612 50,-612 "/>
<text text-anchor="middle" x="25" y="-600" font-family="Helvetica,sans-Serif" font-size="10.00" fill="#000000"> </text>
</g>
<!-- Node4&#45;&gt;Node2 -->
<g id="edge3" class="edge">
<title>Node4&#45;&gt;Node2</title>
<path fill="none" stroke="#404040" d="M21.8085,-592.7395C19.6023,-559.8824 20.4774,-505.6752 44,-467 63.006,-435.7508 95.6365,-411.7991 125.5251,-394.9838"/>
<polygon fill="none" stroke="#404040" points="125.8273,-394.8204 129.2018,-388.4476 136.3823,-389.1113 133.0078,-395.4842 125.8273,-394.8204"/>
<text text-anchor="middle" x="116.5" y="-493.5" font-family="Helvetica,sans-Serif" font-size="10.00" fill="#000000"> +mControlConvResoncances</text>
</g>
<!-- Node5 -->
<g id="node5" class="node">
<title>Node5</title>
<g id="a_node5"><a xlink:href="../../d4/d79/structo2_1_1framework_1_1OutputObj.html" target="_top" xlink:title="{o2::framework::OutputObj\l\&lt; CorrelationContainer \&gt;\n||+ spec()\l+ OutputObj()\l+ OutputObj()\l+ setObject()\l+ setObject()\l+ setObject()\l+ setHash()\l+ operator&#45;\&gt;()\l+ operator*()\l+ ref()\l}">
<polygon fill="none" stroke="#000000" points="635.5,-281.5 635.5,-448.5 778.5,-448.5 778.5,-281.5 635.5,-281.5"/>
<text text-anchor="start" x="643.5" y="-436.5" font-family="Helvetica,sans-Serif" font-size="10.00" fill="#000000">o2::framework::OutputObj</text>
<text text-anchor="middle" x="707" y="-425.5" font-family="Helvetica,sans-Serif" font-size="10.00" fill="#000000">&lt; CorrelationContainer &gt;</text>
<polyline fill="none" stroke="#000000" points="635.5,-418.5 778.5,-418.5 "/>
<text text-anchor="middle" x="707" y="-406.5" font-family="Helvetica,sans-Serif" font-size="10.00" fill="#000000"> </text>
<polyline fill="none" stroke="#000000" points="635.5,-399.5 778.5,-399.5 "/>
<text text-anchor="start" x="643.5" y="-387.5" font-family="Helvetica,sans-Serif" font-size="10.00" fill="#000000">+ spec()</text>
<text text-anchor="start" x="643.5" y="-376.5" font-family="Helvetica,sans-Serif" font-size="10.00" fill="#000000">+ OutputObj()</text>
<text text-anchor="start" x="643.5" y="-365.5" font-family="Helvetica,sans-Serif" font-size="10.00" fill="#000000">+ OutputObj()</text>
<text text-anchor="start" x="643.5" y="-354.5" font-family="Helvetica,sans-Serif" font-size="10.00" fill="#000000">+ setObject()</text>
<text text-anchor="start" x="643.5" y="-343.5" font-family="Helvetica,sans-Serif" font-size="10.00" fill="#000000">+ setObject()</text>
<text text-anchor="start" x="643.5" y="-332.5" font-family="Helvetica,sans-Serif" font-size="10.00" fill="#000000">+ setObject()</text>
<text text-anchor="start" x="643.5" y="-321.5" font-family="Helvetica,sans-Serif" font-size="10.00" fill="#000000">+ setHash()</text>
<text text-anchor="start" x="643.5" y="-310.5" font-family="Helvetica,sans-Serif" font-size="10.00" fill="#000000">+ operator&#45;&gt;()</text>
<text text-anchor="start" x="643.5" y="-299.5" font-family="Helvetica,sans-Serif" font-size="10.00" fill="#000000">+ operator*()</text>
<text text-anchor="start" x="643.5" y="-288.5" font-family="Helvetica,sans-Serif" font-size="10.00" fill="#000000">+ ref()</text>
</a>
</g>
</g>
<!-- Node5&#45;&gt;Node1 -->
<g id="edge4" class="edge">
<title>Node5&#45;&gt;Node1</title>
<path fill="none" stroke="#404040" d="M772.3813,-281.2921C785.212,-264.8649 798.8976,-247.3432 812.4227,-230.027"/>
<polygon fill="none" stroke="#404040" points="812.527,-229.8935 813.0679,-222.7027 819.9137,-220.4363 819.3727,-227.6271 812.527,-229.8935"/>
<text text-anchor="middle" x="821" y="-255" font-family="Helvetica,sans-Serif" font-size="10.00" fill="#000000"> +same</text>
<text text-anchor="middle" x="821" y="-244" font-family="Helvetica,sans-Serif" font-size="10.00" fill="#000000">+mixed</text>
</g>
<!-- Node6 -->
<g id="node6" class="node">
<title>Node6</title>
<polygon fill="none" stroke="#bfbfbf" points="244.5,-775 244.5,-832 383.5,-832 383.5,-775 244.5,-775"/>
<text text-anchor="middle" x="314" y="-820" font-family="Helvetica,sans-Serif" font-size="10.00" fill="#000000">OutputObjHandlingPolicy</text>
<polyline fill="none" stroke="#bfbfbf" points="244.5,-813 383.5,-813 "/>
<text text-anchor="middle" x="314" y="-801" font-family="Helvetica,sans-Serif" font-size="10.00" fill="#000000"> </text>
<polyline fill="none" stroke="#bfbfbf" points="244.5,-794 383.5,-794 "/>
<text text-anchor="middle" x="314" y="-782" font-family="Helvetica,sans-Serif" font-size="10.00" fill="#000000"> </text>
</g>
<!-- Node6&#45;&gt;Node5 -->
<g id="edge5" class="edge">
<title>Node6&#45;&gt;Node5</title>
<path fill="none" stroke="#404040" d="M312.4724,-774.9248C310.972,-725.2138 313.0041,-620.7029 350,-543 399.3131,-439.4271 534.2648,-395.3647 623.3918,-377.1631"/>
<polygon fill="none" stroke="#404040" points="623.6028,-377.1218 628.7215,-372.0425 635.3788,-374.8138 630.2601,-379.8931 623.6028,-377.1218"/>
<text text-anchor="middle" x="370.5" y="-619" font-family="Helvetica,sans-Serif" font-size="10.00" fill="#000000"> +policy</text>
</g>
<!-- Node14 -->
<g id="node14" class="node">
<title>Node14</title>
<g id="a_node14"><a xlink:href="../../d4/d79/structo2_1_1framework_1_1OutputObj.html" target="_top" xlink:title="{o2::framework::OutputObj\&lt; T \&gt;\n||+ OutputObj()\l+ OutputObj()\l+ setObject()\l+ setObject()\l+ setObject()\l+ setHash()\l+ spec()\l+ operator&#45;\&gt;()\l+ operator*()\l+ ref()\l}">
<polygon fill="none" stroke="#000000" points="455,-543.5 455,-699.5 627,-699.5 627,-543.5 455,-543.5"/>
<text text-anchor="middle" x="541" y="-687.5" font-family="Helvetica,sans-Serif" font-size="10.00" fill="#000000">o2::framework::OutputObj&lt; T &gt;</text>
<polyline fill="none" stroke="#000000" points="455,-680.5 627,-680.5 "/>
<text text-anchor="middle" x="541" y="-668.5" font-family="Helvetica,sans-Serif" font-size="10.00" fill="#000000"> </text>
<polyline fill="none" stroke="#000000" points="455,-661.5 627,-661.5 "/>
<text text-anchor="start" x="463" y="-649.5" font-family="Helvetica,sans-Serif" font-size="10.00" fill="#000000">+ OutputObj()</text>
<text text-anchor="start" x="463" y="-638.5" font-family="Helvetica,sans-Serif" font-size="10.00" fill="#000000">+ OutputObj()</text>
<text text-anchor="start" x="463" y="-627.5" font-family="Helvetica,sans-Serif" font-size="10.00" fill="#000000">+ setObject()</text>
<text text-anchor="start" x="463" y="-616.5" font-family="Helvetica,sans-Serif" font-size="10.00" fill="#000000">+ setObject()</text>
<text text-anchor="start" x="463" y="-605.5" font-family="Helvetica,sans-Serif" font-size="10.00" fill="#000000">+ setObject()</text>
<text text-anchor="start" x="463" y="-594.5" font-family="Helvetica,sans-Serif" font-size="10.00" fill="#000000">+ setHash()</text>
<text text-anchor="start" x="463" y="-583.5" font-family="Helvetica,sans-Serif" font-size="10.00" fill="#000000">+ spec()</text>
<text text-anchor="start" x="463" y="-572.5" font-family="Helvetica,sans-Serif" font-size="10.00" fill="#000000">+ operator&#45;&gt;()</text>
<text text-anchor="start" x="463" y="-561.5" font-family="Helvetica,sans-Serif" font-size="10.00" fill="#000000">+ operator*()</text>
<text text-anchor="start" x="463" y="-550.5" font-family="Helvetica,sans-Serif" font-size="10.00" fill="#000000">+ ref()</text>
</a>
</g>
</g>
<!-- Node6&#45;&gt;Node14 -->
<g id="edge16" class="edge">
<title>Node6&#45;&gt;Node14</title>
<path fill="none" stroke="#404040" d="M349.7185,-774.8623C375.3969,-754.2743 411.3097,-725.4807 445.0916,-698.3957"/>
<polygon fill="none" stroke="#404040" points="445.1907,-698.3163 447.3697,-691.4423 454.5531,-690.8099 452.374,-697.6839 445.1907,-698.3163"/>
<text text-anchor="middle" x="434.5" y="-721" font-family="Helvetica,sans-Serif" font-size="10.00" fill="#000000"> +policy</text>
</g>
<!-- Node7 -->
<g id="node7" class="node">
<title>Node7</title>
<g id="a_node7"><a xlink:href="../../d3/d87/classuint32__t.html" target="_top" xlink:title="{uint32_t\n||}">
<polygon fill="none" stroke="#000000" points="767,-775 767,-832 823,-832 823,-775 767,-775"/>
<text text-anchor="middle" x="795" y="-820" font-family="Helvetica,sans-Serif" font-size="10.00" fill="#000000">uint32_t</text>
<polyline fill="none" stroke="#000000" points="767,-813 823,-813 "/>
<text text-anchor="middle" x="795" y="-801" font-family="Helvetica,sans-Serif" font-size="10.00" fill="#000000"> </text>
<polyline fill="none" stroke="#000000" points="767,-794 823,-794 "/>
<text text-anchor="middle" x="795" y="-782" font-family="Helvetica,sans-Serif" font-size="10.00" fill="#000000"> </text>
</a>
</g>
</g>
<!-- Node7&#45;&gt;Node5 -->
<g id="edge6" class="edge">
<title>Node7&#45;&gt;Node5</title>
<path fill="none" stroke="#404040" d="M797.8754,-774.9713C801.3526,-755.9325 809.0339,-731.9222 826,-718 867.0109,-684.3469 909.4311,-740.2419 944,-700 966.7341,-673.535 959.5923,-574.2108 944,-543 911.8756,-478.6969 844.2448,-431.5709 789.4207,-402.0219"/>
<polygon fill="none" stroke="#404040" points="789.2592,-401.937 782.0866,-402.6812 778.6409,-396.3466 785.8135,-395.6024 789.2592,-401.937"/>
<text text-anchor="middle" x="992" y="-619" font-family="Helvetica,sans-Serif" font-size="10.00" fill="#000000"> +mTaskHash</text>
</g>
<!-- Node7&#45;&gt;Node14 -->
<g id="edge15" class="edge">
<title>Node7&#45;&gt;Node14</title>
<path fill="none" stroke="#404040" d="M772.0629,-774.6284C755.7658,-755.9349 732.3454,-732.4654 707,-718 680.5934,-702.9289 668.1642,-713.6583 641,-700 639.9863,-699.4903 638.973,-698.9694 637.9605,-698.438"/>
<polygon fill="none" stroke="#404040" points="637.6225,-698.2482 630.4323,-698.7973 627.16,-692.3714 634.3501,-691.8223 637.6225,-698.2482"/>
<text text-anchor="middle" x="758" y="-721" font-family="Helvetica,sans-Serif" font-size="10.00" fill="#000000"> +mTaskHash</text>
</g>
<!-- Node8 -->
<g id="node8" class="node">
<title>Node8</title>
<polygon fill="none" stroke="#bfbfbf" points="743,-593 743,-650 935,-650 935,-593 743,-593"/>
<text text-anchor="middle" x="839" y="-638" font-family="Helvetica,sans-Serif" font-size="10.00" fill="#000000">shared_ptr&lt; CorrelationContainer &gt;</text>
<polyline fill="none" stroke="#bfbfbf" points="743,-631 935,-631 "/>
<text text-anchor="middle" x="839" y="-619" font-family="Helvetica,sans-Serif" font-size="10.00" fill="#000000"> </text>
<polyline fill="none" stroke="#bfbfbf" points="743,-612 935,-612 "/>
<text text-anchor="middle" x="839" y="-600" font-family="Helvetica,sans-Serif" font-size="10.00" fill="#000000"> </text>
</g>
<!-- Node8&#45;&gt;Node5 -->
<g id="edge7" class="edge">
<title>Node8&#45;&gt;Node5</title>
<path fill="none" stroke="#404040" d="M824.1145,-592.5748C807.5382,-560.364 779.8781,-506.6154 755.6005,-459.4396"/>
<polygon fill="none" stroke="#404040" points="755.4866,-459.2183 749.1844,-455.7136 749.9956,-448.5483 756.2978,-452.0529 755.4866,-459.2183"/>
<text text-anchor="middle" x="810" y="-493.5" font-family="Helvetica,sans-Serif" font-size="10.00" fill="#000000"> +object</text>
</g>
<!-- Node9 -->
<g id="node9" class="node">
<title>Node9</title>
<polygon fill="none" stroke="#bfbfbf" points="681.5,-924 681.5,-981 710.5,-981 710.5,-924 681.5,-924"/>
<text text-anchor="middle" x="696" y="-969" font-family="Helvetica,sans-Serif" font-size="10.00" fill="#000000">int</text>
<polyline fill="none" stroke="#bfbfbf" points="681.5,-962 710.5,-962 "/>
<text text-anchor="middle" x="696" y="-950" font-family="Helvetica,sans-Serif" font-size="10.00" fill="#000000"> </text>
<polyline fill="none" stroke="#bfbfbf" points="681.5,-943 710.5,-943 "/>
<text text-anchor="middle" x="696" y="-931" font-family="Helvetica,sans-Serif" font-size="10.00" fill="#000000"> </text>
</g>
<!-- Node9&#45;&gt;Node5 -->
<g id="edge8" class="edge">
<title>Node9&#45;&gt;Node5</title>
<path fill="none" stroke="#404040" d="M710.7219,-950.2004C773.2101,-939.509 1016.3332,-888.2392 1083,-729 1106.1619,-673.6758 1342.9298,-980.0191 1030,-543 972.0597,-462.0841 865.404,-413.8071 790.5493,-388.3643"/>
<polygon fill="none" stroke="#404040" points="790.2111,-388.2523 783.2571,-390.1606 778.8209,-384.4755 785.775,-382.5671 790.2111,-388.2523"/>
<text text-anchor="middle" x="1178" y="-721" font-family="Helvetica,sans-Serif" font-size="10.00" fill="#000000"> +label</text>
</g>
<!-- Node11 -->
<g id="node11" class="node">
<title>Node11</title>
<g id="a_node11"><a xlink:href="../../da/d96/structo2_1_1framework_1_1InputSpec.html" target="_top" xlink:title="{o2::framework::InputSpec\n||+ InputSpec()\l+ InputSpec()\l+ InputSpec()\l+ InputSpec()\l+ InputSpec()\l+ operator==()\l}">
<polygon fill="none" stroke="#000000" points="402,-747.5 402,-859.5 544,-859.5 544,-747.5 402,-747.5"/>
<text text-anchor="middle" x="473" y="-847.5" font-family="Helvetica,sans-Serif" font-size="10.00" fill="#000000">o2::framework::InputSpec</text>
<polyline fill="none" stroke="#000000" points="402,-840.5 544,-840.5 "/>
<text text-anchor="middle" x="473" y="-828.5" font-family="Helvetica,sans-Serif" font-size="10.00" fill="#000000"> </text>
<polyline fill="none" stroke="#000000" points="402,-821.5 544,-821.5 "/>
<text text-anchor="start" x="410" y="-809.5" font-family="Helvetica,sans-Serif" font-size="10.00" fill="#000000">+ InputSpec()</text>
<text text-anchor="start" x="410" y="-798.5" font-family="Helvetica,sans-Serif" font-size="10.00" fill="#000000">+ InputSpec()</text>
<text text-anchor="start" x="410" y="-787.5" font-family="Helvetica,sans-Serif" font-size="10.00" fill="#000000">+ InputSpec()</text>
<text text-anchor="start" x="410" y="-776.5" font-family="Helvetica,sans-Serif" font-size="10.00" fill="#000000">+ InputSpec()</text>
<text text-anchor="start" x="410" y="-765.5" font-family="Helvetica,sans-Serif" font-size="10.00" fill="#000000">+ InputSpec()</text>
<text text-anchor="start" x="410" y="-754.5" font-family="Helvetica,sans-Serif" font-size="10.00" fill="#000000">+ operator==()</text>
</a>
</g>
</g>
<!-- Node9&#45;&gt;Node11 -->
<g id="edge13" class="edge">
<title>Node9&#45;&gt;Node11</title>
<path fill="none" stroke="#404040" d="M681.2549,-943.2407C656.7544,-927.7975 605.9514,-895.5303 554.3989,-860.8869"/>
<polygon fill="none" stroke="#404040" points="554.3778,-860.8726 547.1668,-860.8341 544.4289,-854.1629 551.6399,-854.2015 554.3778,-860.8726"/>
<text text-anchor="middle" x="620" y="-881" font-family="Helvetica,sans-Serif" font-size="10.00" fill="#000000"> +binding</text>
</g>
<!-- Node9&#45;&gt;Node14 -->
<g id="edge17" class="edge">
<title>Node9&#45;&gt;Node14</title>
<path fill="none" stroke="#404040" d="M697.7325,-923.9038C699.0316,-882.5868 696.8888,-804.8165 668,-747 659.6463,-730.2813 648.1829,-714.4764 635.5379,-700.0822"/>
<polygon fill="none" stroke="#404040" points="635.1766,-699.6871 628.1757,-697.9586 627.0786,-690.8314 634.0795,-692.5599 635.1766,-699.6871"/>
<text text-anchor="middle" x="714" y="-801" font-family="Helvetica,sans-Serif" font-size="10.00" fill="#000000"> +label</text>
</g>
<!-- Node10 -->
<g id="node10" class="node">
<title>Node10</title>
<polygon fill="none" stroke="#bfbfbf" points="903,-775 903,-832 941,-832 941,-775 903,-775"/>
<text text-anchor="middle" x="922" y="-820" font-family="Helvetica,sans-Serif" font-size="10.00" fill="#000000">bool</text>
<polyline fill="none" stroke="#bfbfbf" points="903,-813 941,-813 "/>
<text text-anchor="middle" x="922" y="-801" font-family="Helvetica,sans-Serif" font-size="10.00" fill="#000000"> </text>
<polyline fill="none" stroke="#bfbfbf" points="903,-794 941,-794 "/>
<text text-anchor="middle" x="922" y="-782" font-family="Helvetica,sans-Serif" font-size="10.00" fill="#000000"> </text>
</g>
<!-- Node10&#45;&gt;Node5 -->
<g id="edge9" class="edge">
<title>Node10&#45;&gt;Node5</title>
<path fill="none" stroke="#404040" d="M917.4185,-774.8861C912.7272,-755.5498 903.3851,-731.2183 885,-718 846.4316,-690.2705 704.1437,-734.9747 672,-700 640.8368,-666.0922 661.2711,-547.0915 681.6068,-460.5448"/>
<polygon fill="none" stroke="#404040" points="681.6176,-460.4992 679.121,-453.7341 684.4054,-448.8275 686.9021,-455.5926 681.6176,-460.4992"/>
<text text-anchor="middle" x="703" y="-619" font-family="Helvetica,sans-Serif" font-size="10.00" fill="#000000"> +isdangling</text>
</g>
<!-- Node10&#45;&gt;Node14 -->
<g id="edge19" class="edge">
<title>Node10&#45;&gt;Node14</title>
<path fill="none" stroke="#404040" d="M902.7438,-785.9813C879.3747,-765.8422 837.8767,-733.567 796,-718 730.9943,-693.8351 705.1291,-726.4033 641,-700 639.9732,-699.5772 638.9481,-699.1408 637.925,-698.6913"/>
<polygon fill="none" stroke="#404040" points="637.8508,-698.6553 630.7059,-699.6303 627.0579,-693.41 634.2028,-692.435 637.8508,-698.6553"/>
<text text-anchor="middle" x="850" y="-721" font-family="Helvetica,sans-Serif" font-size="10.00" fill="#000000"> +isdangling</text>
</g>
<!-- Node16 -->
<g id="node16" class="node">
<title>Node16</title>
<g id="a_node16"><a xlink:href="../../de/dca/structCorrelationTask_1_1Config.html" target="_top" xlink:title="{CorrelationTask::Config\n||}">
<polygon fill="none" stroke="#000000" points="1088.5,-467.5 1088.5,-524.5 1217.5,-524.5 1217.5,-467.5 1088.5,-467.5"/>
<text text-anchor="middle" x="1153" y="-512.5" font-family="Helvetica,sans-Serif" font-size="10.00" fill="#000000">CorrelationTask::Config</text>
<polyline fill="none" stroke="#000000" points="1088.5,-505.5 1217.5,-505.5 "/>
<text text-anchor="middle" x="1153" y="-493.5" font-family="Helvetica,sans-Serif" font-size="10.00" fill="#000000"> </text>
<polyline fill="none" stroke="#000000" points="1088.5,-486.5 1217.5,-486.5 "/>
<text text-anchor="middle" x="1153" y="-474.5" font-family="Helvetica,sans-Serif" font-size="10.00" fill="#000000"> </text>
</a>
</g>
</g>
<!-- Node10&#45;&gt;Node16 -->
<g id="edge22" class="edge">
<title>Node10&#45;&gt;Node16</title>
<path fill="none" stroke="#404040" d="M941.1234,-787.1614C975.1607,-758.0781 1042.7403,-700.3219 1043,-700 1084.5423,-648.5082 1118.0989,-579.0052 1136.7905,-535.8695"/>
<polygon fill="none" stroke="#404040" points="1136.8447,-535.7424 1135.5187,-528.6542 1141.5516,-524.704 1142.8776,-531.7922 1136.8447,-535.7424"/>
<text text-anchor="middle" x="1050.5" y="-721" font-family="Helvetica,sans-Serif" font-size="10.00" fill="#000000"> +mPairCuts</text>
</g>
<!-- Node11&#45;&gt;Node5 -->
<g id="edge10" class="edge">
<title>Node11&#45;&gt;Node5</title>
<path fill="none" stroke="#404040" d="M426.6756,-747.437C423.0118,-741.436 419.6943,-735.2389 417,-729 393.28,-674.073 384.2705,-600.6947 412,-543 452.0088,-459.7566 551.0708,-412.1755 623.3966,-387.5202"/>
<polygon fill="none" stroke="#404040" points="623.819,-387.3806 628.26,-381.6992 635.2124,-383.6134 630.7714,-389.2948 623.819,-387.3806"/>
<text text-anchor="middle" x="429" y="-619" font-family="Helvetica,sans-Serif" font-size="10.00" fill="#000000"> +spec</text>
</g>
<!-- Node11&#45;&gt;Node14 -->
<g id="edge20" class="edge">
<title>Node11&#45;&gt;Node14</title>
<path fill="none" stroke="#404040" d="M493.9571,-747.4089C498.2594,-735.8939 502.8902,-723.4998 507.5084,-711.1392"/>
<polygon fill="none" stroke="#404040" points="507.5364,-711.0642 505.8894,-704.0437 511.7364,-699.8232 513.3834,-706.8437 507.5364,-711.0642"/>
<text text-anchor="middle" x="520" y="-721" font-family="Helvetica,sans-Serif" font-size="10.00" fill="#000000"> +spec</text>
</g>
<!-- Node12 -->
<g id="node12" class="node">
<title>Node12</title>
<polygon fill="none" stroke="#bfbfbf" points="307,-924 307,-981 395,-981 395,-924 307,-924"/>
<text text-anchor="middle" x="351" y="-969" font-family="Helvetica,sans-Serif" font-size="10.00" fill="#000000">enum Lifetime</text>
<polyline fill="none" stroke="#bfbfbf" points="307,-962 395,-962 "/>
<text text-anchor="middle" x="351" y="-950" font-family="Helvetica,sans-Serif" font-size="10.00" fill="#000000"> </text>
<polyline fill="none" stroke="#bfbfbf" points="307,-943 395,-943 "/>
<text text-anchor="middle" x="351" y="-931" font-family="Helvetica,sans-Serif" font-size="10.00" fill="#000000"> </text>
</g>
<!-- Node12&#45;&gt;Node11 -->
<g id="edge11" class="edge">
<title>Node12&#45;&gt;Node11</title>
<path fill="none" stroke="#404040" d="M374.5228,-923.7713C387.3163,-908.1465 403.7007,-888.1361 419.4181,-868.9402"/>
<polygon fill="none" stroke="#404040" points="419.4595,-868.8897 420.1657,-861.7132 427.0617,-859.6049 426.3555,-866.7814 419.4595,-868.8897"/>
<text text-anchor="middle" x="437" y="-881" font-family="Helvetica,sans-Serif" font-size="10.00" fill="#000000"> +lifetime</text>
</g>
<!-- Node13 -->
<g id="node13" class="node">
<title>Node13</title>
<polygon fill="none" stroke="#bfbfbf" points="413,-907.5 413,-997.5 577,-997.5 577,-907.5 413,-907.5"/>
<text text-anchor="start" x="421" y="-985.5" font-family="Helvetica,sans-Serif" font-size="10.00" fill="#000000">variant&lt; o2::framework</text>
<text text-anchor="start" x="421" y="-974.5" font-family="Helvetica,sans-Serif" font-size="10.00" fill="#000000">::ConcreteDataMatcher,</text>
<text text-anchor="start" x="421" y="-963.5" font-family="Helvetica,sans-Serif" font-size="10.00" fill="#000000"> o2::framework::data_matcher</text>
<text text-anchor="middle" x="495" y="-952.5" font-family="Helvetica,sans-Serif" font-size="10.00" fill="#000000">::DataDescriptorMatcher &gt;</text>
<polyline fill="none" stroke="#bfbfbf" points="413,-945.5 577,-945.5 "/>
<text text-anchor="middle" x="495" y="-933.5" font-family="Helvetica,sans-Serif" font-size="10.00" fill="#000000"> </text>
<polyline fill="none" stroke="#bfbfbf" points="413,-926.5 577,-926.5 "/>
<text text-anchor="middle" x="495" y="-914.5" font-family="Helvetica,sans-Serif" font-size="10.00" fill="#000000"> </text>
</g>
<!-- Node13&#45;&gt;Node11 -->
<g id="edge12" class="edge">
<title>Node13&#45;&gt;Node11</title>
<path fill="none" stroke="#404040" d="M488.3396,-907.3907C486.6702,-896.0845 484.842,-883.7027 483.0479,-871.5514"/>
<polygon fill="none" stroke="#404040" points="483.0251,-871.3966 478.1915,-866.0453 481.2722,-859.5254 486.1057,-864.8767 483.0251,-871.3966"/>
<text text-anchor="middle" x="512" y="-881" font-family="Helvetica,sans-Serif" font-size="10.00" fill="#000000"> +matcher</text>
</g>
<!-- Node14&#45;&gt;Node5 -->
<g id="edge14" class="edge">
<title>Node14&#45;&gt;Node5</title>
<path fill="none" stroke="#ffa500" d="M511.2505,-533.2083C508.4923,-510.4189 510.3282,-486.7636 522,-467 546.4321,-425.6298 594.3028,-399.8901 635.2265,-384.6171"/>
<polygon fill="#ffa500" stroke="#ffa500" points="507.8127,-533.8844 512.7598,-543.2533 514.735,-532.8442 507.8127,-533.8844"/>
<text text-anchor="middle" x="585.5" y="-493.5" font-family="Helvetica,sans-Serif" font-size="10.00" fill="#000000"> &lt; CorrelationContainer &gt;</text>
</g>
<!-- Node15 -->
<g id="node15" class="node">
<title>Node15</title>
<polygon fill="none" stroke="#bfbfbf" points="562.5,-775 562.5,-832 659.5,-832 659.5,-775 562.5,-775"/>
<text text-anchor="middle" x="611" y="-820" font-family="Helvetica,sans-Serif" font-size="10.00" fill="#000000">shared_ptr&lt; T &gt;</text>
<polyline fill="none" stroke="#bfbfbf" points="562.5,-813 659.5,-813 "/>
<text text-anchor="middle" x="611" y="-801" font-family="Helvetica,sans-Serif" font-size="10.00" fill="#000000"> </text>
<polyline fill="none" stroke="#bfbfbf" points="562.5,-794 659.5,-794 "/>
<text text-anchor="middle" x="611" y="-782" font-family="Helvetica,sans-Serif" font-size="10.00" fill="#000000"> </text>
</g>
<!-- Node15&#45;&gt;Node14 -->
<g id="edge18" class="edge">
<title>Node15&#45;&gt;Node14</title>
<path fill="none" stroke="#404040" d="M599.9083,-774.6616C593.2161,-757.2618 584.2901,-734.0541 575.4143,-710.9771"/>
<polygon fill="none" stroke="#404040" points="575.3789,-710.885 569.4916,-706.7209 571.0711,-699.6849 576.9584,-703.849 575.3789,-710.885"/>
<text text-anchor="middle" x="604" y="-721" font-family="Helvetica,sans-Serif" font-size="10.00" fill="#000000"> +object</text>
</g>
<!-- Node16&#45;&gt;Node1 -->
<g id="edge21" class="edge">
<title>Node16&#45;&gt;Node1</title>
<path fill="none" stroke="#404040" d="M1105.2332,-467.3785C1097.9613,-461.8239 1090.9202,-455.6422 1085,-449 1028.8102,-385.9575 984.0275,-302.264 953.1846,-233.9937"/>
<polygon fill="none" stroke="#404040" points="953.0536,-233.7 946.9557,-229.8508 948.1636,-222.7415 954.2614,-226.5908 953.0536,-233.7"/>
<text text-anchor="middle" x="1098.5" y="-362.5" font-family="Helvetica,sans-Serif" font-size="10.00" fill="#000000"> +cfg</text>
</g>
<!-- Node17 -->
<g id="node17" class="node">
<title>Node17</title>
<g id="a_node17"><a xlink:href="../../d1/d9a/structo2_1_1framework_1_1expressions_1_1Filter.html" target="_top" xlink:title="A struct, containing the root of the expression tree. ">
<polygon fill="none" stroke="#000000" points="1121,-331 1121,-399 1273,-399 1273,-331 1121,-331"/>
<text text-anchor="start" x="1129" y="-387" font-family="Helvetica,sans-Serif" font-size="10.00" fill="#000000">o2::framework::expressions</text>
<text text-anchor="middle" x="1197" y="-376" font-family="Helvetica,sans-Serif" font-size="10.00" fill="#000000">::Filter</text>
<polyline fill="none" stroke="#000000" points="1121,-369 1273,-369 "/>
<text text-anchor="middle" x="1197" y="-357" font-family="Helvetica,sans-Serif" font-size="10.00" fill="#000000"> </text>
<polyline fill="none" stroke="#000000" points="1121,-350 1273,-350 "/>
<text text-anchor="start" x="1129" y="-338" font-family="Helvetica,sans-Serif" font-size="10.00" fill="#000000">+ Filter()</text>
</a>
</g>
</g>
<!-- Node17&#45;&gt;Node1 -->
<g id="edge23" class="edge">
<title>Node17&#45;&gt;Node1</title>
<path fill="none" stroke="#404040" d="M1157.6196,-330.8119C1117.2248,-295.7431 1052.8875,-239.8886 999.2522,-193.3251"/>
<polygon fill="none" stroke="#404040" points="999.1194,-193.2098 991.9663,-192.2969 990.0578,-185.343 997.2109,-186.2559 999.1194,-193.2098"/>
<text text-anchor="middle" x="1107.5" y="-249.5" font-family="Helvetica,sans-Serif" font-size="10.00" fill="#000000"> +trackFilter</text>
</g>
<!-- Node18 -->
<g id="node18" class="node">
<title>Node18</title>
<polygon fill="none" stroke="#bfbfbf" points="1165.5,-587.5 1165.5,-655.5 1316.5,-655.5 1316.5,-587.5 1165.5,-587.5"/>
<text text-anchor="start" x="1173.5" y="-643.5" font-family="Helvetica,sans-Serif" font-size="10.00" fill="#000000">unique_ptr&lt; o2::framework</text>
<text text-anchor="middle" x="1241" y="-632.5" font-family="Helvetica,sans-Serif" font-size="10.00" fill="#000000">::expressions::Node &gt;</text>
<polyline fill="none" stroke="#bfbfbf" points="1165.5,-625.5 1316.5,-625.5 "/>
<text text-anchor="middle" x="1241" y="-613.5" font-family="Helvetica,sans-Serif" font-size="10.00" fill="#000000"> </text>
<polyline fill="none" stroke="#bfbfbf" points="1165.5,-606.5 1316.5,-606.5 "/>
<text text-anchor="middle" x="1241" y="-594.5" font-family="Helvetica,sans-Serif" font-size="10.00" fill="#000000"> </text>
</g>
<!-- Node18&#45;&gt;Node17 -->
<g id="edge24" class="edge">
<title>Node18&#45;&gt;Node17</title>
<path fill="none" stroke="#404040" d="M1236.8419,-587.3297C1232.8556,-555.9487 1226.3679,-508.2059 1219,-467 1215.7256,-448.6873 1211.5381,-428.6535 1207.6969,-411.226"/>
<polygon fill="none" stroke="#404040" points="1207.6593,-411.0571 1202.4478,-406.0731 1205.0441,-399.3455 1210.2556,-404.3296 1207.6593,-411.0571"/>
<text text-anchor="middle" x="1245" y="-493.5" font-family="Helvetica,sans-Serif" font-size="10.00" fill="#000000"> +node</text>
</g>
</g>
</svg>
