<?xml version="1.0" encoding="UTF-8" standalone="no"?>
<!DOCTYPE svg PUBLIC "-//W3C//DTD SVG 1.1//EN"
 "http://www.w3.org/Graphics/SVG/1.1/DTD/svg11.dtd">
<!-- Generated by graphviz version 2.40.1 (20161225.0304)
 -->
<!-- Title: /home/travis/build/AliceO2Group/AliceO2/Framework/Core/include/Framework/Kernels.h Pages: 1 -->
<!--zoomable 341 -->
<svg id="main" version="1.1" xmlns="http://www.w3.org/2000/svg" xmlns:xlink="http://www.w3.org/1999/xlink" xml:space="preserve" onload="init(evt)">
<style type="text/css"><![CDATA[
.edge:hover path { stroke: red; }
.edge:hover polygon { stroke: red; fill: red; }
]]></style>
<script type="text/javascript"><![CDATA[
var edges = document.getElementsByTagName('g');
if (edges && edges.length) {
  for (var i=0;i<edges.length;i++) {
    if (edges[i].id.substr(0,4)=='edge') {
      edges[i].setAttribute('class','edge');
    }
  }
}
]]></script>
        <defs>
                <circle id="rim" cx="0" cy="0" r="7"/>
                <circle id="rim2" cx="0" cy="0" r="3.5"/>
                <g id="zoomPlus">
                        <use xlink:href="#rim" fill="#404040">
                                <set attributeName="fill" to="#808080" begin="zoomplus.mouseover" end="zoomplus.mouseout"/>
                        </use>
                        <path d="M-4,0h8M0,-4v8" fill="none" stroke="white" stroke-width="1.5" pointer-events="none"/>
                </g>
                <g id="zoomMin">
                        <use xlink:href="#rim" fill="#404040">
                                <set attributeName="fill" to="#808080" begin="zoomminus.mouseover" end="zoomminus.mouseout"/>
                        </use>
                        <path d="M-4,0h8" fill="none" stroke="white" stroke-width="1.5" pointer-events="none"/>
                </g>
                <g id="dirArrow">
                        <path fill="none" stroke="white" stroke-width="1.5" d="M0,-3.0v7 M-2.5,-0.5L0,-3.0L2.5,-0.5"/>
                </g>
               <g id="resetDef">
                       <use xlink:href="#rim2" fill="#404040">
                               <set attributeName="fill" to="#808080" begin="reset.mouseover" end="reset.mouseout"/>
                       </use>
               </g>
        </defs>

<script type="text/javascript">
var viewWidth = 2279;
var viewHeight = 341;
var sectionId = 'dynsection-0';
</script>
<script xlink:href="../../svgpan.js"/>
<svg id="graph" class="graph">
<g id="viewport">
<title>/home/travis/build/AliceO2Group/AliceO2/Framework/Core/include/Framework/Kernels.h</title>
<!-- Node0 -->
<g id="node1" class="node">
<title>Node0</title>
<polygon fill="#bfbfbf" stroke="#000000" points="1916,-280.5 1916,-332.5 2053,-332.5 2053,-280.5 1916,-280.5"/>
<text text-anchor="start" x="1924" y="-320.5" font-family="Helvetica,sans-Serif" font-size="10.00" fill="#000000">/home/travis/build</text>
<text text-anchor="start" x="1924" y="-309.5" font-family="Helvetica,sans-Serif" font-size="10.00" fill="#000000">/AliceO2Group/AliceO2</text>
<text text-anchor="start" x="1924" y="-298.5" font-family="Helvetica,sans-Serif" font-size="10.00" fill="#000000">/Framework/Core/include</text>
<text text-anchor="middle" x="1984.5" y="-287.5" font-family="Helvetica,sans-Serif" font-size="10.00" fill="#000000">/Framework/Kernels.h</text>
</g>
<!-- Node1 -->
<g id="node2" class="node">
<title>Node1</title>
<g id="a_node2"><a xlink:href="../../dd/dc2/BasicOps_8h.html" target="_top" xlink:title="Framework/BasicOps.h">
<polygon fill="none" stroke="#000000" points="96.5,-56.5 96.5,-75.5 224.5,-75.5 224.5,-56.5 96.5,-56.5"/>
<text text-anchor="middle" x="160.5" y="-63.5" font-family="Helvetica,sans-Serif" font-size="10.00" fill="#000000">Framework/BasicOps.h</text>
</a>
</g>
</g>
<!-- Node0&#45;&gt;Node1 -->
<g id="edge1" class="edge">
<title>Node0&#45;&gt;Node1</title>
<path fill="none" stroke="#191970" d="M1915.9362,-305.0251C1615.9589,-298.1306 427.4924,-266.0642 281.5,-188 243.7909,-167.8364 253.0649,-141.9054 222.5,-112 210.7823,-100.5352 196.1085,-89.525 183.9782,-81.1522"/>
<polygon fill="#191970" stroke="#191970" points="185.9217,-78.2414 175.6736,-75.5528 182.0083,-84.0453 185.9217,-78.2414"/>
</g>
<!-- Node2 -->
<g id="node3" class="node">
<title>Node2</title>
<g id="a_node3"><a xlink:href="../../d5/d98/TableBuilder_8h.html" target="_top" xlink:title="Framework/TableBuilder.h">
<polygon fill="none" stroke="#000000" points="1073.5,-224.5 1073.5,-243.5 1215.5,-243.5 1215.5,-224.5 1073.5,-224.5"/>
<text text-anchor="middle" x="1144.5" y="-231.5" font-family="Helvetica,sans-Serif" font-size="10.00" fill="#000000">Framework/TableBuilder.h</text>
</a>
</g>
</g>
<!-- Node0&#45;&gt;Node2 -->
<g id="edge2" class="edge">
<title>Node0&#45;&gt;Node2</title>
<path fill="none" stroke="#191970" d="M1915.7593,-300.567C1761.954,-287.2922 1390.6575,-255.2457 1225.7573,-241.0133"/>
<polygon fill="#191970" stroke="#191970" points="1225.939,-237.516 1215.675,-240.1431 1225.337,-244.4901 1225.939,-237.516"/>
</g>
<!-- Node24 -->
<g id="node25" class="node">
<title>Node24</title>
<polygon fill="none" stroke="#bfbfbf" points="1962.5,-56.5 1962.5,-75.5 2006.5,-75.5 2006.5,-56.5 1962.5,-56.5"/>
<text text-anchor="middle" x="1984.5" y="-63.5" font-family="Helvetica,sans-Serif" font-size="10.00" fill="#000000">string</text>
</g>
<!-- Node0&#45;&gt;Node24 -->
<g id="edge63" class="edge">
<title>Node0&#45;&gt;Node24</title>
<path fill="none" stroke="#191970" d="M1984.5,-280.3045C1984.5,-231.8023 1984.5,-129.0256 1984.5,-85.8056"/>
<polygon fill="#191970" stroke="#191970" points="1988.0001,-85.7269 1984.5,-75.7269 1981.0001,-85.727 1988.0001,-85.7269"/>
</g>
<!-- Node29 -->
<g id="node30" class="node">
<title>Node29</title>
<polygon fill="none" stroke="#bfbfbf" points="1656.5,-112.5 1656.5,-131.5 1766.5,-131.5 1766.5,-112.5 1656.5,-112.5"/>
<text text-anchor="middle" x="1711.5" y="-119.5" font-family="Helvetica,sans-Serif" font-size="10.00" fill="#000000">arrow/util/variant.h</text>
</g>
<!-- Node0&#45;&gt;Node29 -->
<g id="edge62" class="edge">
<title>Node0&#45;&gt;Node29</title>
<path fill="none" stroke="#191970" d="M1945.9648,-280.457C1888.2301,-241.4385 1781.0756,-169.0209 1734.3157,-137.4194"/>
<polygon fill="#191970" stroke="#191970" points="1736.0466,-134.3649 1725.8015,-131.6653 1732.127,-140.1646 1736.0466,-134.3649"/>
</g>
<!-- Node31 -->
<g id="node32" class="node">
<title>Node31</title>
<polygon fill="none" stroke="#bfbfbf" points="1785,-112.5 1785,-131.5 1918,-131.5 1918,-112.5 1785,-112.5"/>
<text text-anchor="middle" x="1851.5" y="-119.5" font-family="Helvetica,sans-Serif" font-size="10.00" fill="#000000">arrow/compute/kernel.h</text>
</g>
<!-- Node0&#45;&gt;Node31 -->
<g id="edge59" class="edge">
<title>Node0&#45;&gt;Node31</title>
<path fill="none" stroke="#191970" d="M1977.6876,-280.3021C1968.8927,-250.4615 1951.21,-201.5101 1922.5,-168 1911.3972,-155.0409 1895.7476,-144.3696 1881.9653,-136.5788"/>
<polygon fill="#191970" stroke="#191970" points="1883.2662,-133.3045 1872.8009,-131.6527 1879.9519,-139.4702 1883.2662,-133.3045"/>
</g>
<!-- Node41 -->
<g id="node42" class="node">
<title>Node41</title>
<polygon fill="none" stroke="#bfbfbf" points="2050.5,-224.5 2050.5,-243.5 2136.5,-243.5 2136.5,-224.5 2050.5,-224.5"/>
<text text-anchor="middle" x="2093.5" y="-231.5" font-family="Helvetica,sans-Serif" font-size="10.00" fill="#000000">arrow/status.h</text>
</g>
<!-- Node0&#45;&gt;Node41 -->
<g id="edge60" class="edge">
<title>Node0&#45;&gt;Node41</title>
<path fill="none" stroke="#191970" d="M2023.8515,-280.3258C2039.5081,-269.912 2056.9765,-258.2931 2070.5025,-249.2965"/>
<polygon fill="#191970" stroke="#191970" points="2072.7781,-251.9865 2079.1661,-243.534 2068.9014,-246.158 2072.7781,-251.9865"/>
</g>
<!-- Node42 -->
<g id="node43" class="node">
<title>Node42</title>
<polygon fill="none" stroke="#bfbfbf" points="2154.5,-224.5 2154.5,-243.5 2270.5,-243.5 2270.5,-224.5 2154.5,-224.5"/>
<text text-anchor="middle" x="2212.5" y="-231.5" font-family="Helvetica,sans-Serif" font-size="10.00" fill="#000000">arrow/util/visibility.h</text>
</g>
<!-- Node0&#45;&gt;Node42 -->
<g id="edge61" class="edge">
<title>Node0&#45;&gt;Node42</title>
<path fill="none" stroke="#191970" d="M2053.2167,-284.6493C2092.3107,-272.2181 2139.8884,-257.0892 2172.8118,-246.6202"/>
<polygon fill="#191970" stroke="#191970" points="2174.0641,-249.8947 2182.5332,-243.5289 2171.9428,-243.2238 2174.0641,-249.8947"/>
</g>
<!-- Node3 -->
<g id="node4" class="node">
<title>Node3</title>
<g id="a_node4"><a xlink:href="../../de/d33/ASoA_8h.html" target="_top" xlink:title="Framework/ASoA.h">
<polygon fill="none" stroke="#000000" points="910.5,-168.5 910.5,-187.5 1018.5,-187.5 1018.5,-168.5 910.5,-168.5"/>
<text text-anchor="middle" x="964.5" y="-175.5" font-family="Helvetica,sans-Serif" font-size="10.00" fill="#000000">Framework/ASoA.h</text>
</a>
</g>
</g>
<!-- Node2&#45;&gt;Node3 -->
<g id="edge3" class="edge">
<title>Node2&#45;&gt;Node3</title>
<path fill="none" stroke="#191970" d="M1113.5569,-224.3733C1083.4961,-215.021 1037.6974,-200.7725 1004.8022,-190.5385"/>
<polygon fill="#191970" stroke="#191970" points="1005.6277,-187.1299 995.0393,-187.5011 1003.5481,-193.8139 1005.6277,-187.1299"/>
</g>
<!-- Node9 -->
<g id="node10" class="node">
<title>Node9</title>
<g id="a_node10"><a xlink:href="../../de/d9b/FunctionalHelpers_8h.html" target="_top" xlink:title="Framework/FunctionalHelpers.h">
<polygon fill="none" stroke="#000000" points="1468.5,-112.5 1468.5,-131.5 1638.5,-131.5 1638.5,-112.5 1468.5,-112.5"/>
<text text-anchor="middle" x="1553.5" y="-119.5" font-family="Helvetica,sans-Serif" font-size="10.00" fill="#000000">Framework/FunctionalHelpers.h</text>
</a>
</g>
</g>
<!-- Node2&#45;&gt;Node9 -->
<g id="edge46" class="edge">
<title>Node2&#45;&gt;Node9</title>
<path fill="none" stroke="#191970" d="M1215.8583,-229.7174C1301.7559,-223.648 1440.2374,-210.6787 1486.5,-188 1509.0503,-176.9455 1528.6896,-155.3489 1540.7753,-139.869"/>
<polygon fill="#191970" stroke="#191970" points="1543.7858,-141.6882 1546.9833,-131.5873 1538.1847,-137.4896 1543.7858,-141.6882"/>
</g>
<!-- Node10 -->
<g id="node11" class="node">
<title>Node10</title>
<polygon fill="none" stroke="#bfbfbf" points="1859,-56.5 1859,-75.5 1924,-75.5 1924,-56.5 1859,-56.5"/>
<text text-anchor="middle" x="1891.5" y="-63.5" font-family="Helvetica,sans-Serif" font-size="10.00" fill="#000000">functional</text>
</g>
<!-- Node2&#45;&gt;Node10 -->
<g id="edge54" class="edge">
<title>Node2&#45;&gt;Node10</title>
<path fill="none" stroke="#191970" d="M1215.6906,-230.0056C1399.6974,-218.9568 1880.0078,-185.239 1926.5,-132 1939.3847,-117.2456 1924.8842,-96.9284 1910.8266,-82.7476"/>
<polygon fill="#191970" stroke="#191970" points="1912.9104,-79.9012 1903.2391,-75.575 1908.1017,-84.988 1912.9104,-79.9012"/>
</g>
<!-- Node19 -->
<g id="node20" class="node">
<title>Node19</title>
<polygon fill="none" stroke="#bfbfbf" points="501,-56.5 501,-75.5 582,-75.5 582,-56.5 501,-56.5"/>
<text text-anchor="middle" x="541.5" y="-63.5" font-family="Helvetica,sans-Serif" font-size="10.00" fill="#000000">arrow/table.h</text>
</g>
<!-- Node2&#45;&gt;Node19 -->
<g id="edge52" class="edge">
<title>Node2&#45;&gt;Node19</title>
<path fill="none" stroke="#191970" d="M1073.2014,-228.432C907.7127,-214.7874 508.6043,-177.4574 469.5,-132 452.5598,-112.3076 481.6742,-92.5501 507.7919,-79.8566"/>
<polygon fill="#191970" stroke="#191970" points="509.5795,-82.8861 517.1877,-75.5129 506.6421,-76.5323 509.5795,-82.8861"/>
</g>
<!-- Node2&#45;&gt;Node24 -->
<g id="edge56" class="edge">
<title>Node2&#45;&gt;Node24</title>
<path fill="none" stroke="#191970" d="M1215.7415,-231.1286C1384.5921,-223.3112 1804.1209,-197.6627 1926.5,-132 1946.9815,-121.0106 1963.6295,-99.7208 1973.7513,-84.2858"/>
<polygon fill="#191970" stroke="#191970" points="1976.8614,-85.913 1979.1861,-75.5764 1970.9228,-82.2072 1976.8614,-85.913"/>
</g>
<!-- Node25 -->
<g id="node26" class="node">
<title>Node25</title>
<polygon fill="none" stroke="#bfbfbf" points="242.5,-56.5 242.5,-75.5 300.5,-75.5 300.5,-56.5 242.5,-56.5"/>
<text text-anchor="middle" x="271.5" y="-63.5" font-family="Helvetica,sans-Serif" font-size="10.00" fill="#000000">memory</text>
</g>
<!-- Node2&#45;&gt;Node25 -->
<g id="edge57" class="edge">
<title>Node2&#45;&gt;Node25</title>
<path fill="none" stroke="#191970" d="M1073.1935,-232.4343C874.7936,-227.7729 328.8969,-212.7501 299.5,-188 269.6939,-162.9053 267.904,-113.1176 269.5073,-85.5354"/>
<polygon fill="#191970" stroke="#191970" points="272.9998,-85.7667 270.2988,-75.522 266.0216,-85.2151 272.9998,-85.7667"/>
</g>
<!-- Node33 -->
<g id="node34" class="node">
<title>Node33</title>
<g id="a_node34"><a xlink:href="../../db/d4f/StructToTuple_8h.html" target="_top" xlink:title="Framework/StructToTuple.h">
<polygon fill="none" stroke="#000000" points="2,-168.5 2,-187.5 149,-187.5 149,-168.5 2,-168.5"/>
<text text-anchor="middle" x="75.5" y="-175.5" font-family="Helvetica,sans-Serif" font-size="10.00" fill="#000000">Framework/StructToTuple.h</text>
</a>
</g>
</g>
<!-- Node2&#45;&gt;Node33 -->
<g id="edge42" class="edge">
<title>Node2&#45;&gt;Node33</title>
<path fill="none" stroke="#191970" d="M1073.4555,-231.7336C913.857,-226.3953 514.7892,-211.6686 181.5,-188 174.1925,-187.4811 166.607,-186.8831 159.0048,-186.2431"/>
<polygon fill="#191970" stroke="#191970" points="159.2874,-182.7545 149.0232,-185.3805 158.6847,-189.7285 159.2874,-182.7545"/>
</g>
<!-- Node34 -->
<g id="node35" class="node">
<title>Node34</title>
<polygon fill="none" stroke="#bfbfbf" points="46,-112.5 46,-131.5 87,-131.5 87,-112.5 46,-112.5"/>
<text text-anchor="middle" x="66.5" y="-119.5" font-family="Helvetica,sans-Serif" font-size="10.00" fill="#000000">tuple</text>
</g>
<!-- Node2&#45;&gt;Node34 -->
<g id="edge58" class="edge">
<title>Node2&#45;&gt;Node34</title>
<path fill="none" stroke="#191970" d="M1073.4798,-232.6935C893.0958,-228.9879 420.6779,-216.7589 266.5,-188 204.4685,-176.4292 135.1808,-150.4649 96.6108,-134.7717"/>
<polygon fill="#191970" stroke="#191970" points="97.6132,-131.3994 87.0338,-130.8283 94.948,-137.8722 97.6132,-131.3994"/>
</g>
<!-- Node35 -->
<g id="node36" class="node">
<title>Node35</title>
<g id="a_node36"><a xlink:href="../../d7/dbe/VariantHelpers_8h.html" target="_top" xlink:title="Framework/VariantHelpers.h">
<polygon fill="none" stroke="#000000" points="309,-168.5 309,-187.5 464,-187.5 464,-168.5 309,-168.5"/>
<text text-anchor="middle" x="386.5" y="-175.5" font-family="Helvetica,sans-Serif" font-size="10.00" fill="#000000">Framework/VariantHelpers.h</text>
</a>
</g>
</g>
<!-- Node2&#45;&gt;Node35 -->
<g id="edge47" class="edge">
<title>Node2&#45;&gt;Node35</title>
<path fill="none" stroke="#191970" d="M1073.4601,-230.0129C951.6105,-222.9685 694.9607,-207.232 478.5,-188 477.1947,-187.884 475.8793,-187.7653 474.5555,-187.6441"/>
<polygon fill="#191970" stroke="#191970" points="474.5639,-184.1293 464.2786,-186.6715 473.9043,-191.0982 474.5639,-184.1293"/>
</g>
<!-- Node36 -->
<g id="node37" class="node">
<title>Node36</title>
<polygon fill="none" stroke="#bfbfbf" points="1036.5,-168.5 1036.5,-187.5 1092.5,-187.5 1092.5,-168.5 1036.5,-168.5"/>
<text text-anchor="middle" x="1064.5" y="-175.5" font-family="Helvetica,sans-Serif" font-size="10.00" fill="#000000">sstream</text>
</g>
<!-- Node2&#45;&gt;Node36 -->
<g id="edge49" class="edge">
<title>Node2&#45;&gt;Node36</title>
<path fill="none" stroke="#191970" d="M1130.5651,-224.2455C1118.4053,-215.7337 1100.5536,-203.2375 1086.4715,-193.3801"/>
<polygon fill="#191970" stroke="#191970" points="1088.4747,-190.51 1078.2752,-187.6427 1084.4605,-196.2447 1088.4747,-190.51"/>
</g>
<!-- Node37 -->
<g id="node38" class="node">
<title>Node37</title>
<polygon fill="none" stroke="#bfbfbf" points="1110.5,-168.5 1110.5,-187.5 1178.5,-187.5 1178.5,-168.5 1110.5,-168.5"/>
<text text-anchor="middle" x="1144.5" y="-175.5" font-family="Helvetica,sans-Serif" font-size="10.00" fill="#000000">arrow/stl.h</text>
</g>
<!-- Node2&#45;&gt;Node37 -->
<g id="edge50" class="edge">
<title>Node2&#45;&gt;Node37</title>
<path fill="none" stroke="#191970" d="M1144.5,-224.2455C1144.5,-216.9382 1144.5,-206.6944 1144.5,-197.7046"/>
<polygon fill="#191970" stroke="#191970" points="1148.0001,-197.6426 1144.5,-187.6427 1141.0001,-197.6427 1148.0001,-197.6426"/>
</g>
<!-- Node38 -->
<g id="node39" class="node">
<title>Node38</title>
<polygon fill="none" stroke="#bfbfbf" points="1197,-168.5 1197,-187.5 1306,-187.5 1306,-168.5 1197,-168.5"/>
<text text-anchor="middle" x="1251.5" y="-175.5" font-family="Helvetica,sans-Serif" font-size="10.00" fill="#000000">arrow/type_traits.h</text>
</g>
<!-- Node2&#45;&gt;Node38 -->
<g id="edge51" class="edge">
<title>Node2&#45;&gt;Node38</title>
<path fill="none" stroke="#191970" d="M1163.138,-224.2455C1179.9386,-215.4527 1204.8634,-202.4079 1223.9618,-192.4125"/>
<polygon fill="#191970" stroke="#191970" points="1225.8386,-195.3807 1233.0756,-187.6427 1222.5927,-189.1787 1225.8386,-195.3807"/>
</g>
<!-- Node39 -->
<g id="node40" class="node">
<title>Node39</title>
<polygon fill="none" stroke="#bfbfbf" points="1324,-168.5 1324,-187.5 1413,-187.5 1413,-168.5 1324,-168.5"/>
<text text-anchor="middle" x="1368.5" y="-175.5" font-family="Helvetica,sans-Serif" font-size="10.00" fill="#000000">arrow/builder.h</text>
</g>
<!-- Node2&#45;&gt;Node39 -->
<g id="edge53" class="edge">
<title>Node2&#45;&gt;Node39</title>
<path fill="none" stroke="#191970" d="M1182.7525,-224.4369C1220.8467,-214.9133 1279.4313,-200.2672 1320.5987,-189.9753"/>
<polygon fill="#191970" stroke="#191970" points="1321.5528,-193.3446 1330.4053,-187.5237 1319.855,-186.5536 1321.5528,-193.3446"/>
</g>
<!-- Node40 -->
<g id="node41" class="node">
<title>Node40</title>
<polygon fill="none" stroke="#bfbfbf" points="1431,-168.5 1431,-187.5 1478,-187.5 1478,-168.5 1431,-168.5"/>
<text text-anchor="middle" x="1454.5" y="-175.5" font-family="Helvetica,sans-Serif" font-size="10.00" fill="#000000">vector</text>
</g>
<!-- Node2&#45;&gt;Node40 -->
<g id="edge55" class="edge">
<title>Node2&#45;&gt;Node40</title>
<path fill="none" stroke="#191970" d="M1215.588,-224.784C1269.4245,-217.2102 1345.3306,-205.2656 1420.6649,-187.9467"/>
<polygon fill="#191970" stroke="#191970" points="1421.8629,-191.2613 1430.8065,-185.5813 1420.2728,-184.4443 1421.8629,-191.2613"/>
</g>
<!-- Node4 -->
<g id="node5" class="node">
<title>Node4</title>
<g id="a_node5"><a xlink:href="../../dd/dce/Pack_8h.html" target="_top" xlink:title="Framework/Pack.h">
<polygon fill="none" stroke="#000000" points="1703,-56.5 1703,-75.5 1808,-75.5 1808,-56.5 1703,-56.5"/>
<text text-anchor="middle" x="1755.5" y="-63.5" font-family="Helvetica,sans-Serif" font-size="10.00" fill="#000000">Framework/Pack.h</text>
</a>
</g>
</g>
<!-- Node3&#45;&gt;Node4 -->
<g id="edge4" class="edge">
<title>Node3&#45;&gt;Node4</title>
<path fill="none" stroke="#191970" d="M1018.7638,-169.1535C1021.7163,-168.745 1024.6429,-168.3572 1027.5,-168 1201.5429,-146.2398 1252.0594,-180.9103 1420.5,-132 1439.207,-126.568 1440.9683,-118.0027 1459.5,-112 1556.5726,-80.5567 1587.6808,-91.6439 1692.6845,-76.0748"/>
<polygon fill="#191970" stroke="#191970" points="1693.3833,-79.5087 1702.739,-74.5366 1692.3247,-72.5892 1693.3833,-79.5087"/>
</g>
<!-- Node8 -->
<g id="node9" class="node">
<title>Node8</title>
<g id="a_node9"><a xlink:href="../../d1/d00/CheckTypes_8h.html" target="_top" xlink:title="Framework/CheckTypes.h">
<polygon fill="none" stroke="#000000" points="600.5,-56.5 600.5,-75.5 740.5,-75.5 740.5,-56.5 600.5,-56.5"/>
<text text-anchor="middle" x="670.5" y="-63.5" font-family="Helvetica,sans-Serif" font-size="10.00" fill="#000000">Framework/CheckTypes.h</text>
</a>
</g>
</g>
<!-- Node3&#45;&gt;Node8 -->
<g id="edge8" class="edge">
<title>Node3&#45;&gt;Node8</title>
<path fill="none" stroke="#191970" d="M962.2002,-168.1275C958.2211,-153.3927 948.5807,-125.897 929.5,-112 915.0521,-101.4772 821.4179,-86.6219 750.8494,-76.6682"/>
<polygon fill="#191970" stroke="#191970" points="751.0058,-73.1561 740.6172,-75.2363 750.0356,-80.0885 751.0058,-73.1561"/>
</g>
<!-- Node3&#45;&gt;Node9 -->
<g id="edge9" class="edge">
<title>Node3&#45;&gt;Node9</title>
<path fill="none" stroke="#191970" d="M1018.7607,-169.1285C1021.714,-168.7264 1024.6416,-168.3469 1027.5,-168 1216.564,-145.0563 1264.8612,-149.5706 1454.5,-132 1455.782,-131.8812 1457.0733,-131.7609 1458.3723,-131.6392"/>
<polygon fill="#191970" stroke="#191970" points="1458.8287,-135.1117 1468.4533,-130.6824 1458.1673,-128.143 1458.8287,-135.1117"/>
</g>
<!-- Node11 -->
<g id="node12" class="node">
<title>Node11</title>
<g id="a_node12"><a xlink:href="../../d9/de8/CompilerBuiltins_8h.html" target="_top" xlink:title="Framework/CompilerBuiltins.h">
<polygon fill="none" stroke="#000000" points="318.5,-56.5 318.5,-75.5 482.5,-75.5 482.5,-56.5 318.5,-56.5"/>
<text text-anchor="middle" x="400.5" y="-63.5" font-family="Helvetica,sans-Serif" font-size="10.00" fill="#000000">Framework/CompilerBuiltins.h</text>
</a>
</g>
</g>
<!-- Node3&#45;&gt;Node11 -->
<g id="edge12" class="edge">
<title>Node3&#45;&gt;Node11</title>
<path fill="none" stroke="#191970" d="M910.4921,-177.4251C798.9191,-175.5224 546.9457,-167.3236 469.5,-132 446.3017,-121.4191 426.0711,-99.7271 413.6166,-84.0954"/>
<polygon fill="#191970" stroke="#191970" points="416.0709,-81.5427 407.2184,-75.7218 410.5087,-85.7927 416.0709,-81.5427"/>
</g>
<!-- Node12 -->
<g id="node13" class="node">
<title>Node12</title>
<g id="a_node13"><a xlink:href="../../db/d31/Traits_8h.html" target="_top" xlink:title="Framework/Traits.h">
<polygon fill="none" stroke="#000000" points="105,-112.5 105,-131.5 214,-131.5 214,-112.5 105,-112.5"/>
<text text-anchor="middle" x="159.5" y="-119.5" font-family="Helvetica,sans-Serif" font-size="10.00" fill="#000000">Framework/Traits.h</text>
</a>
</g>
</g>
<!-- Node3&#45;&gt;Node12 -->
<g id="edge13" class="edge">
<title>Node3&#45;&gt;Node12</title>
<path fill="none" stroke="#191970" d="M910.4317,-174.2387C767.3351,-164.2842 379.1312,-137.2787 224.4162,-126.5159"/>
<polygon fill="#191970" stroke="#191970" points="224.346,-123.0027 214.1272,-125.8002 223.8601,-129.9858 224.346,-123.0027"/>
</g>
<!-- Node14 -->
<g id="node15" class="node">
<title>Node14</title>
<g id="a_node15"><a xlink:href="../../d0/d91/Expressions_8h.html" target="_top" xlink:title="Framework/Expressions.h">
<polygon fill="none" stroke="#000000" points="977,-112.5 977,-131.5 1118,-131.5 1118,-112.5 977,-112.5"/>
<text text-anchor="middle" x="1047.5" y="-119.5" font-family="Helvetica,sans-Serif" font-size="10.00" fill="#000000">Framework/Expressions.h</text>
</a>
</g>
</g>
<!-- Node3&#45;&gt;Node14 -->
<g id="edge15" class="edge">
<title>Node3&#45;&gt;Node14</title>
<path fill="none" stroke="#191970" d="M978.9575,-168.2455C991.5732,-159.7337 1010.0944,-147.2375 1024.7045,-137.3801"/>
<polygon fill="#191970" stroke="#191970" points="1026.8761,-140.1371 1033.2082,-131.6427 1022.9609,-134.3343 1026.8761,-140.1371"/>
</g>
<!-- Node3&#45;&gt;Node19 -->
<g id="edge35" class="edge">
<title>Node3&#45;&gt;Node19</title>
<path fill="none" stroke="#191970" d="M910.1167,-171.5437C862.9631,-164.9007 793.3902,-152.5663 735.5,-132 717.5159,-125.6109 715.1838,-119.1785 697.5,-112 662.9145,-97.9606 622.4504,-86.1547 591.401,-78.0192"/>
<polygon fill="#191970" stroke="#191970" points="592.2275,-74.6179 581.6702,-75.5086 590.4787,-81.3959 592.2275,-74.6179"/>
</g>
<!-- Node20 -->
<g id="node21" class="node">
<title>Node20</title>
<polygon fill="none" stroke="#bfbfbf" points="1419,-56.5 1419,-75.5 1566,-75.5 1566,-56.5 1419,-56.5"/>
<text text-anchor="middle" x="1492.5" y="-63.5" font-family="Helvetica,sans-Serif" font-size="10.00" fill="#000000">gandiva/selection_vector.h</text>
</g>
<!-- Node3&#45;&gt;Node20 -->
<g id="edge40" class="edge">
<title>Node3&#45;&gt;Node20</title>
<path fill="none" stroke="#191970" d="M1006.5286,-168.4852C1039.678,-160.4067 1086.7846,-147.645 1126.5,-132 1144.6241,-124.8604 1146.93,-117.8831 1165.5,-112 1188.2272,-104.7999 1319.4767,-87.5357 1408.6256,-76.3257"/>
<polygon fill="#191970" stroke="#191970" points="1409.25,-79.7749 1418.7366,-75.0576 1408.3788,-72.8294 1409.25,-79.7749"/>
</g>
<!-- Node26 -->
<g id="node27" class="node">
<title>Node26</title>
<g id="a_node27"><a xlink:href="../../d1/dc1/ArrowCompatibility_8h.html" target="_top" xlink:title="Framework/ArrowCompatibility.h">
<polygon fill="none" stroke="#000000" points="744.5,-112.5 744.5,-131.5 920.5,-131.5 920.5,-112.5 744.5,-112.5"/>
<text text-anchor="middle" x="832.5" y="-119.5" font-family="Helvetica,sans-Serif" font-size="10.00" fill="#000000">Framework/ArrowCompatibility.h</text>
</a>
</g>
</g>
<!-- Node3&#45;&gt;Node26 -->
<g id="edge31" class="edge">
<title>Node3&#45;&gt;Node26</title>
<path fill="none" stroke="#191970" d="M941.8084,-168.3733C920.4289,-159.3032 888.1943,-145.6279 864.2638,-135.4755"/>
<polygon fill="#191970" stroke="#191970" points="865.4683,-132.1846 854.8955,-131.5011 862.7344,-138.6287 865.4683,-132.1846"/>
</g>
<!-- Node27 -->
<g id="node28" class="node">
<title>Node27</title>
<g id="a_node28"><a xlink:href="../../d4/de7/ArrowTypes_8h.html" target="_top" xlink:title="Framework/ArrowTypes.h">
<polygon fill="none" stroke="#000000" points="1273,-112.5 1273,-131.5 1412,-131.5 1412,-112.5 1273,-112.5"/>
<text text-anchor="middle" x="1342.5" y="-119.5" font-family="Helvetica,sans-Serif" font-size="10.00" fill="#000000">Framework/ArrowTypes.h</text>
</a>
</g>
</g>
<!-- Node3&#45;&gt;Node27 -->
<g id="edge33" class="edge">
<title>Node3&#45;&gt;Node27</title>
<path fill="none" stroke="#191970" d="M1018.7895,-169.3388C1021.7354,-168.8825 1024.6535,-168.4337 1027.5,-168 1108.6646,-155.6325 1201.702,-142.1288 1265.5025,-132.972"/>
<polygon fill="#191970" stroke="#191970" points="1266.0828,-136.4247 1275.4847,-131.5406 1265.0891,-129.4955 1266.0828,-136.4247"/>
</g>
<!-- Node28 -->
<g id="node29" class="node">
<title>Node28</title>
<polygon fill="none" stroke="#bfbfbf" points="1174.5,-112.5 1174.5,-131.5 1254.5,-131.5 1254.5,-112.5 1174.5,-112.5"/>
<text text-anchor="middle" x="1214.5" y="-119.5" font-family="Helvetica,sans-Serif" font-size="10.00" fill="#000000">arrow/array.h</text>
</g>
<!-- Node3&#45;&gt;Node28 -->
<g id="edge36" class="edge">
<title>Node3&#45;&gt;Node28</title>
<path fill="none" stroke="#191970" d="M1007.1925,-168.4369C1050.8475,-158.6582 1118.613,-143.4787 1164.6891,-133.1577"/>
<polygon fill="#191970" stroke="#191970" points="1165.4701,-136.5695 1174.4632,-130.9682 1163.9399,-129.7388 1165.4701,-136.5695"/>
</g>
<!-- Node3&#45;&gt;Node29 -->
<g id="edge37" class="edge">
<title>Node3&#45;&gt;Node29</title>
<path fill="none" stroke="#191970" d="M1018.7503,-169.038C1021.7063,-168.6593 1024.6373,-168.3095 1027.5,-168 1298.5703,-138.6901 1371.2774,-160.7861 1646.1046,-132.0478"/>
<polygon fill="#191970" stroke="#191970" points="1646.811,-135.4926 1656.3868,-130.9589 1646.0738,-128.5316 1646.811,-135.4926"/>
</g>
<!-- Node30 -->
<g id="node31" class="node">
<title>Node30</title>
<polygon fill="none" stroke="#bfbfbf" points="479,-112.5 479,-131.5 618,-131.5 618,-112.5 479,-112.5"/>
<text text-anchor="middle" x="548.5" y="-119.5" font-family="Helvetica,sans-Serif" font-size="10.00" fill="#000000">arrow/compute/context.h</text>
</g>
<!-- Node3&#45;&gt;Node30 -->
<g id="edge38" class="edge">
<title>Node3&#45;&gt;Node30</title>
<path fill="none" stroke="#191970" d="M910.1153,-170.679C838.2326,-161.0025 711.0458,-143.8812 628.276,-132.7391"/>
<polygon fill="#191970" stroke="#191970" points="628.5359,-129.2426 618.1583,-131.3771 627.602,-136.18 628.5359,-129.2426"/>
</g>
<!-- Node3&#45;&gt;Node31 -->
<g id="edge39" class="edge">
<title>Node3&#45;&gt;Node31</title>
<path fill="none" stroke="#191970" d="M1018.7467,-169.0037C1021.7036,-168.6338 1024.6358,-168.2953 1027.5,-168 1355.1789,-134.2107 1442.2239,-161.1699 1774.4028,-132.017"/>
<polygon fill="#191970" stroke="#191970" points="1775.1555,-135.464 1784.8065,-131.0928 1774.536,-128.4915 1775.1555,-135.464"/>
</g>
<!-- Node32 -->
<g id="node33" class="node">
<title>Node32</title>
<polygon fill="none" stroke="#bfbfbf" points="636.5,-112.5 636.5,-131.5 688.5,-131.5 688.5,-112.5 636.5,-112.5"/>
<text text-anchor="middle" x="662.5" y="-119.5" font-family="Helvetica,sans-Serif" font-size="10.00" fill="#000000">cassert</text>
</g>
<!-- Node3&#45;&gt;Node32 -->
<g id="edge41" class="edge">
<title>Node3&#45;&gt;Node32</title>
<path fill="none" stroke="#191970" d="M910.3419,-169.6461C857.2095,-161.1789 773.9865,-147.1912 702.5,-132 701.2397,-131.7322 699.9588,-131.4526 698.6666,-131.1642"/>
<polygon fill="#191970" stroke="#191970" points="699.2224,-127.6998 688.688,-128.8305 697.6283,-134.5159 699.2224,-127.6998"/>
</g>
<!-- Node5 -->
<g id="node6" class="node">
<title>Node5</title>
<polygon fill="none" stroke="#bfbfbf" points="1662,-.5 1662,-19.5 1715,-19.5 1715,-.5 1662,-.5"/>
<text text-anchor="middle" x="1688.5" y="-7.5" font-family="Helvetica,sans-Serif" font-size="10.00" fill="#000000">cstddef</text>
</g>
<!-- Node4&#45;&gt;Node5 -->
<g id="edge5" class="edge">
<title>Node4&#45;&gt;Node5</title>
<path fill="none" stroke="#191970" d="M1743.8295,-56.2455C1733.9339,-47.9746 1719.5373,-35.9416 1707.9099,-26.2232"/>
<polygon fill="#191970" stroke="#191970" points="1709.9542,-23.3703 1700.0368,-19.6427 1705.465,-28.7413 1709.9542,-23.3703"/>
</g>
<!-- Node6 -->
<g id="node7" class="node">
<title>Node6</title>
<polygon fill="none" stroke="#bfbfbf" points="1733,-.5 1733,-19.5 1778,-19.5 1778,-.5 1733,-.5"/>
<text text-anchor="middle" x="1755.5" y="-7.5" font-family="Helvetica,sans-Serif" font-size="10.00" fill="#000000">utility</text>
</g>
<!-- Node4&#45;&gt;Node6 -->
<g id="edge6" class="edge">
<title>Node4&#45;&gt;Node6</title>
<path fill="none" stroke="#191970" d="M1755.5,-56.2455C1755.5,-48.9382 1755.5,-38.6944 1755.5,-29.7046"/>
<polygon fill="#191970" stroke="#191970" points="1759.0001,-29.6426 1755.5,-19.6427 1752.0001,-29.6427 1759.0001,-29.6426"/>
</g>
<!-- Node7 -->
<g id="node8" class="node">
<title>Node7</title>
<polygon fill="none" stroke="#bfbfbf" points="1796.5,-.5 1796.5,-19.5 1842.5,-19.5 1842.5,-.5 1796.5,-.5"/>
<text text-anchor="middle" x="1819.5" y="-7.5" font-family="Helvetica,sans-Serif" font-size="10.00" fill="#000000">cstdio</text>
</g>
<!-- Node4&#45;&gt;Node7 -->
<g id="edge7" class="edge">
<title>Node4&#45;&gt;Node7</title>
<path fill="none" stroke="#191970" d="M1766.6479,-56.2455C1776.0087,-48.0549 1789.5858,-36.1749 1800.6349,-26.5069"/>
<polygon fill="#191970" stroke="#191970" points="1803.2588,-28.8618 1808.4798,-19.6427 1798.6492,-23.5937 1803.2588,-28.8618"/>
</g>
<!-- Node9&#45;&gt;Node4 -->
<g id="edge10" class="edge">
<title>Node9&#45;&gt;Node4</title>
<path fill="none" stroke="#191970" d="M1588.225,-112.3733C1622.2508,-102.9404 1674.2437,-88.5265 1711.2234,-78.2747"/>
<polygon fill="#191970" stroke="#191970" points="1712.5266,-81.5455 1721.2281,-75.5011 1710.6565,-74.7999 1712.5266,-81.5455"/>
</g>
<!-- Node9&#45;&gt;Node10 -->
<g id="edge11" class="edge">
<title>Node9&#45;&gt;Node10</title>
<path fill="none" stroke="#191970" d="M1611.2202,-112.4369C1678.5939,-101.2744 1788.4434,-83.0745 1848.6644,-73.097"/>
<polygon fill="#191970" stroke="#191970" points="1849.3065,-76.5384 1858.5999,-71.4509 1848.1623,-69.6326 1849.3065,-76.5384"/>
</g>
<!-- Node13 -->
<g id="node14" class="node">
<title>Node13</title>
<polygon fill="none" stroke="#bfbfbf" points="0,-56.5 0,-75.5 69,-75.5 69,-56.5 0,-56.5"/>
<text text-anchor="middle" x="34.5" y="-63.5" font-family="Helvetica,sans-Serif" font-size="10.00" fill="#000000">type_traits</text>
</g>
<!-- Node12&#45;&gt;Node13 -->
<g id="edge14" class="edge">
<title>Node12&#45;&gt;Node13</title>
<path fill="none" stroke="#191970" d="M138.0117,-112.3733C117.856,-103.3435 87.512,-89.7494 64.882,-79.6111"/>
<polygon fill="#191970" stroke="#191970" points="66.2649,-76.3955 55.7079,-75.5011 63.4029,-82.7838 66.2649,-76.3955"/>
</g>
<!-- Node14&#45;&gt;Node1 -->
<g id="edge16" class="edge">
<title>Node14&#45;&gt;Node1</title>
<path fill="none" stroke="#191970" d="M976.7077,-115.6198C961.1619,-114.325 944.7813,-113.0424 929.5,-112 623.791,-91.1456 543.5971,-104.7457 234.7028,-76.037"/>
<polygon fill="#191970" stroke="#191970" points="234.8415,-72.5348 224.5586,-75.0867 234.1886,-79.5043 234.8415,-72.5348"/>
</g>
<!-- Node14&#45;&gt;Node4 -->
<g id="edge18" class="edge">
<title>Node14&#45;&gt;Node4</title>
<path fill="none" stroke="#191970" d="M1118.3059,-115.8086C1133.8509,-114.5027 1150.2277,-113.1677 1165.5,-112 1396.706,-94.3223 1458.0869,-102.5142 1692.5682,-76.0049"/>
<polygon fill="#191970" stroke="#191970" points="1693.2411,-79.451 1702.7804,-74.8409 1692.4483,-72.496 1693.2411,-79.451"/>
</g>
<!-- Node14&#45;&gt;Node8 -->
<g id="edge19" class="edge">
<title>Node14&#45;&gt;Node8</title>
<path fill="none" stroke="#191970" d="M983.1198,-112.4369C916.9725,-102.6113 814.1175,-87.3331 744.6183,-77.0096"/>
<polygon fill="#191970" stroke="#191970" points="745.0205,-73.531 734.6147,-75.5237 743.9919,-80.4551 745.0205,-73.531"/>
</g>
<!-- Node14&#45;&gt;Node11 -->
<g id="edge17" class="edge">
<title>Node14&#45;&gt;Node11</title>
<path fill="none" stroke="#191970" d="M976.9941,-115.9955C961.3568,-114.672 944.8662,-113.2826 929.5,-112 738.0852,-96.0229 687.5934,-94.7097 492.8186,-76.1067"/>
<polygon fill="#191970" stroke="#191970" points="493.1177,-72.6194 482.8295,-75.1496 492.45,-79.5875 493.1177,-72.6194"/>
</g>
<!-- Node15 -->
<g id="node16" class="node">
<title>Node15</title>
<polygon fill="none" stroke="#bfbfbf" points="1584,-56.5 1584,-75.5 1685,-75.5 1685,-56.5 1584,-56.5"/>
<text text-anchor="middle" x="1634.5" y="-63.5" font-family="Helvetica,sans-Serif" font-size="10.00" fill="#000000">arrow/type_fwd.h</text>
</g>
<!-- Node14&#45;&gt;Node15 -->
<g id="edge20" class="edge">
<title>Node14&#45;&gt;Node15</title>
<path fill="none" stroke="#191970" d="M1118.1579,-115.9799C1247.1665,-104.9691 1512.5545,-82.2239 1573.7612,-75.8606"/>
<polygon fill="#191970" stroke="#191970" points="1574.2539,-79.3273 1583.8019,-74.7355 1573.4744,-72.3709 1574.2539,-79.3273"/>
</g>
<!-- Node16 -->
<g id="node17" class="node">
<title>Node16</title>
<polygon fill="none" stroke="#bfbfbf" points="758.5,-56.5 758.5,-75.5 904.5,-75.5 904.5,-56.5 758.5,-56.5"/>
<text text-anchor="middle" x="831.5" y="-63.5" font-family="Helvetica,sans-Serif" font-size="10.00" fill="#000000">gandiva/gandiva_aliases.h</text>
</g>
<!-- Node14&#45;&gt;Node16 -->
<g id="edge21" class="edge">
<title>Node14&#45;&gt;Node16</title>
<path fill="none" stroke="#191970" d="M1010.3683,-112.3733C973.6733,-102.8598 917.4361,-88.2797 877.8349,-78.0127"/>
<polygon fill="#191970" stroke="#191970" points="878.7056,-74.6228 868.1472,-75.5011 876.9488,-81.3988 878.7056,-74.6228"/>
</g>
<!-- Node17 -->
<g id="node18" class="node">
<title>Node17</title>
<polygon fill="none" stroke="#bfbfbf" points="922.5,-56.5 922.5,-75.5 1000.5,-75.5 1000.5,-56.5 922.5,-56.5"/>
<text text-anchor="middle" x="961.5" y="-63.5" font-family="Helvetica,sans-Serif" font-size="10.00" fill="#000000">arrow/type.h</text>
</g>
<!-- Node14&#45;&gt;Node17 -->
<g id="edge22" class="edge">
<title>Node14&#45;&gt;Node17</title>
<path fill="none" stroke="#191970" d="M1032.5199,-112.2455C1019.3249,-103.6534 999.8949,-91.0014 984.6921,-81.1018"/>
<polygon fill="#191970" stroke="#191970" points="986.5983,-78.1665 976.3084,-75.6427 982.7785,-84.0325 986.5983,-78.1665"/>
</g>
<!-- Node18 -->
<g id="node19" class="node">
<title>Node18</title>
<polygon fill="none" stroke="#bfbfbf" points="1019,-56.5 1019,-75.5 1114,-75.5 1114,-56.5 1019,-56.5"/>
<text text-anchor="middle" x="1066.5" y="-63.5" font-family="Helvetica,sans-Serif" font-size="10.00" fill="#000000">gandiva/arrow.h</text>
</g>
<!-- Node14&#45;&gt;Node18 -->
<g id="edge23" class="edge">
<title>Node14&#45;&gt;Node18</title>
<path fill="none" stroke="#191970" d="M1050.8095,-112.2455C1053.3433,-104.7776 1056.9177,-94.2427 1060.015,-85.1137"/>
<polygon fill="#191970" stroke="#191970" points="1063.3298,-86.237 1063.2284,-75.6427 1056.7009,-83.9879 1063.3298,-86.237"/>
</g>
<!-- Node14&#45;&gt;Node19 -->
<g id="edge24" class="edge">
<title>Node14&#45;&gt;Node19</title>
<path fill="none" stroke="#191970" d="M976.7576,-115.7089C872.0475,-106.2591 679.677,-88.3357 592.2322,-75.9449"/>
<polygon fill="#191970" stroke="#191970" points="592.5027,-72.4473 582.1013,-74.4622 591.489,-79.3735 592.5027,-72.4473"/>
</g>
<!-- Node14&#45;&gt;Node20 -->
<g id="edge25" class="edge">
<title>Node14&#45;&gt;Node20</title>
<path fill="none" stroke="#191970" d="M1118.0116,-113.1266C1197.0221,-103.1837 1325.0125,-87.0771 1408.9726,-76.5113"/>
<polygon fill="#191970" stroke="#191970" points="1409.5024,-79.9723 1418.9871,-75.2511 1408.6283,-73.0271 1409.5024,-79.9723"/>
</g>
<!-- Node21 -->
<g id="node22" class="node">
<title>Node21</title>
<polygon fill="none" stroke="#bfbfbf" points="1132.5,-56.5 1132.5,-75.5 1224.5,-75.5 1224.5,-56.5 1132.5,-56.5"/>
<text text-anchor="middle" x="1178.5" y="-63.5" font-family="Helvetica,sans-Serif" font-size="10.00" fill="#000000">gandiva/node.h</text>
</g>
<!-- Node14&#45;&gt;Node21 -->
<g id="edge26" class="edge">
<title>Node14&#45;&gt;Node21</title>
<path fill="none" stroke="#191970" d="M1070.0197,-112.3733C1091.2372,-103.3032 1123.2276,-89.6279 1146.9769,-79.4755"/>
<polygon fill="#191970" stroke="#191970" points="1148.4548,-82.6502 1156.2742,-75.5011 1145.7033,-76.2136 1148.4548,-82.6502"/>
</g>
<!-- Node22 -->
<g id="node23" class="node">
<title>Node22</title>
<polygon fill="none" stroke="#bfbfbf" points="1243,-56.5 1243,-75.5 1332,-75.5 1332,-56.5 1243,-56.5"/>
<text text-anchor="middle" x="1287.5" y="-63.5" font-family="Helvetica,sans-Serif" font-size="10.00" fill="#000000">gandiva/filter.h</text>
</g>
<!-- Node14&#45;&gt;Node22 -->
<g id="edge27" class="edge">
<title>Node14&#45;&gt;Node22</title>
<path fill="none" stroke="#191970" d="M1088.4848,-112.4369C1129.4726,-102.8731 1192.6004,-88.1432 1236.7357,-77.845"/>
<polygon fill="#191970" stroke="#191970" points="1237.7412,-81.2045 1246.6843,-75.5237 1236.1505,-74.3876 1237.7412,-81.2045"/>
</g>
<!-- Node23 -->
<g id="node24" class="node">
<title>Node23</title>
<polygon fill="none" stroke="#bfbfbf" points="1350,-56.5 1350,-75.5 1401,-75.5 1401,-56.5 1350,-56.5"/>
<text text-anchor="middle" x="1375.5" y="-63.5" font-family="Helvetica,sans-Serif" font-size="10.00" fill="#000000">variant</text>
</g>
<!-- Node14&#45;&gt;Node23 -->
<g id="edge28" class="edge">
<title>Node14&#45;&gt;Node23</title>
<path fill="none" stroke="#191970" d="M1118.1064,-113.3855C1175.4077,-105.8287 1258.41,-93.604 1340.0327,-75.8727"/>
<polygon fill="#191970" stroke="#191970" points="1340.9645,-79.2514 1349.978,-73.683 1339.4593,-72.4152 1340.9645,-79.2514"/>
</g>
<!-- Node14&#45;&gt;Node24 -->
<g id="edge29" class="edge">
<title>Node14&#45;&gt;Node24</title>
<path fill="none" stroke="#191970" d="M1118.2886,-115.5647C1133.8346,-114.2733 1150.2162,-113.0059 1165.5,-112 1506.0274,-89.5873 1593.6269,-116.3266 1932.5,-76 1938.97,-75.2301 1945.8433,-74.1199 1952.4006,-72.917"/>
<polygon fill="#191970" stroke="#191970" points="1953.1924,-76.3287 1962.3414,-70.9859 1951.8575,-69.4572 1953.1924,-76.3287"/>
</g>
<!-- Node14&#45;&gt;Node25 -->
<g id="edge30" class="edge">
<title>Node14&#45;&gt;Node25</title>
<path fill="none" stroke="#191970" d="M976.7026,-115.6926C961.1571,-114.3935 944.778,-113.0907 929.5,-112 657.5419,-92.5842 583.8864,-118.6856 311.0425,-75.9537"/>
<polygon fill="#191970" stroke="#191970" points="311.2595,-72.4446 300.8352,-74.3378 310.1648,-79.3585 311.2595,-72.4446"/>
</g>
<!-- Node26&#45;&gt;Node19 -->
<g id="edge32" class="edge">
<title>Node26&#45;&gt;Node19</title>
<path fill="none" stroke="#191970" d="M781.6972,-112.4375C735.0986,-103.636 663.8868,-90.1097 592.2602,-76.136"/>
<polygon fill="#191970" stroke="#191970" points="592.6387,-72.6438 582.1532,-74.1617 591.2966,-79.514 592.6387,-72.6438"/>
</g>
<!-- Node27&#45;&gt;Node15 -->
<g id="edge34" class="edge">
<title>Node27&#45;&gt;Node15</title>
<path fill="none" stroke="#191970" d="M1392.3648,-112.4369C1442.8633,-102.7522 1520.9835,-87.7703 1574.7605,-77.4569"/>
<polygon fill="#191970" stroke="#191970" points="1575.6791,-80.8446 1584.8409,-75.5237 1574.3606,-73.9699 1575.6791,-80.8446"/>
</g>
<!-- Node33&#45;&gt;Node12 -->
<g id="edge43" class="edge">
<title>Node33&#45;&gt;Node12</title>
<path fill="none" stroke="#191970" d="M90.1317,-168.2455C102.8994,-159.7337 121.6438,-147.2375 136.4299,-137.3801"/>
<polygon fill="#191970" stroke="#191970" points="138.6569,-140.1019 145.036,-131.6427 134.774,-134.2775 138.6569,-140.1019"/>
</g>
<!-- Node33&#45;&gt;Node13 -->
<g id="edge45" class="edge">
<title>Node33&#45;&gt;Node13</title>
<path fill="none" stroke="#191970" d="M63.8745,-168.4119C54.5534,-159.9337 42.1318,-146.6606 36.5,-132 30.8477,-117.2859 30.6902,-99.3378 31.7555,-85.8746"/>
<polygon fill="#191970" stroke="#191970" points="35.2506,-86.1077 32.8442,-75.7898 28.2911,-85.3564 35.2506,-86.1077"/>
</g>
<!-- Node33&#45;&gt;Node34 -->
<g id="edge44" class="edge">
<title>Node33&#45;&gt;Node34</title>
<path fill="none" stroke="#191970" d="M73.9323,-168.2455C72.7579,-160.9382 71.1116,-150.6944 69.6668,-141.7046"/>
<polygon fill="#191970" stroke="#191970" points="73.0922,-140.9606 68.0497,-131.6427 66.1809,-142.0714 73.0922,-140.9606"/>
</g>
<!-- Node35&#45;&gt;Node11 -->
<g id="edge48" class="edge">
<title>Node35&#45;&gt;Node11</title>
<path fill="none" stroke="#191970" d="M387.6936,-168.4509C389.977,-150.184 395.0056,-109.9553 398.0378,-85.6976"/>
<polygon fill="#191970" stroke="#191970" points="401.5419,-85.8818 399.3094,-75.5249 394.596,-85.0135 401.5419,-85.8818"/>
</g>
</g>
</svg>
        <g id="navigator" transform="translate(0 0)" fill="#404254">
                <rect fill="#f2f5e9" fill-opacity="0.5" stroke="#606060" stroke-width=".5" x="0" y="0" width="60" height="60"/>
                <use id="zoomplus" xlink:href="#zoomPlus" x="17" y="9" onmousedown="handleZoom(evt,'in')"/>
                <use id="zoomminus" xlink:href="#zoomMin" x="42" y="9" onmousedown="handleZoom(evt,'out')"/>
                <use id="reset" xlink:href="#resetDef" x="30" y="36" onmousedown="handleReset()"/>
                <g id="arrowUp" xlink:href="#dirArrow" transform="translate(30 24)" onmousedown="handlePan(0,-1)">
                  <use xlink:href="#rim" fill="#404040">
                        <set attributeName="fill" to="#808080" begin="arrowUp.mouseover" end="arrowUp.mouseout"/>
                  </use>
                  <path fill="none" stroke="white" stroke-width="1.5" d="M0,-3.0v7 M-2.5,-0.5L0,-3.0L2.5,-0.5"/>
                </g>
                <g id="arrowRight" xlink:href="#dirArrow" transform="rotate(90) translate(36 -43)" onmousedown="handlePan(1,0)">
                  <use xlink:href="#rim" fill="#404040">
                        <set attributeName="fill" to="#808080" begin="arrowRight.mouseover" end="arrowRight.mouseout"/>
                  </use>
                  <path fill="none" stroke="white" stroke-width="1.5" d="M0,-3.0v7 M-2.5,-0.5L0,-3.0L2.5,-0.5"/>
                </g>
                <g id="arrowDown" xlink:href="#dirArrow" transform="rotate(180) translate(-30 -48)" onmousedown="handlePan(0,1)">
                  <use xlink:href="#rim" fill="#404040">
                        <set attributeName="fill" to="#808080" begin="arrowDown.mouseover" end="arrowDown.mouseout"/>
                  </use>
                  <path fill="none" stroke="white" stroke-width="1.5" d="M0,-3.0v7 M-2.5,-0.5L0,-3.0L2.5,-0.5"/>
                </g>
                <g id="arrowLeft" xlink:href="#dirArrow" transform="rotate(270) translate(-36 17)" onmousedown="handlePan(-1,0)">
                  <use xlink:href="#rim" fill="#404040">
                        <set attributeName="fill" to="#808080" begin="arrowLeft.mouseover" end="arrowLeft.mouseout"/>
                  </use>
                  <path fill="none" stroke="white" stroke-width="1.5" d="M0,-3.0v7 M-2.5,-0.5L0,-3.0L2.5,-0.5"/>
                </g>
        </g>
        <svg viewBox="0 0 15 15" width="100%" height="30px" preserveAspectRatio="xMaxYMin meet">
         <g id="arrow_out" transform="scale(0.3 0.3)">
          <a xlink:href="Kernels_8h__incl_org.svg" target="_base">
           <rect id="button" ry="5" rx="5" y="6" x="6" height="38" width="38"
                fill="#f2f5e9" fill-opacity="0.5" stroke="#606060" stroke-width="1.0"/>
           <path id="arrow"
             d="M 11.500037,31.436501 C 11.940474,20.09759 22.043105,11.32322 32.158766,21.979434 L 37.068811,17.246167 C 37.068811,17.246167 37.088388,32 37.088388,32 L 22.160133,31.978069 C 22.160133,31.978069 26.997745,27.140456 26.997745,27.140456 C 18.528582,18.264221 13.291696,25.230495 11.500037,31.436501 z"
             style="fill:#404040;"/>
          </a>
         </g>
        </svg>
</svg>
