<?xml version="1.0" encoding="UTF-8" standalone="no"?>
<!DOCTYPE svg PUBLIC "-//W3C//DTD SVG 1.1//EN"
 "http://www.w3.org/Graphics/SVG/1.1/DTD/svg11.dtd">
<!-- Generated by graphviz version 2.40.1 (20161225.0304)
 -->
<!-- Title: /home/travis/build/AliceO2Group/AliceO2/Detectors/MUON/MCH/Raw/Common/include/MCHRawCommon/RDHManip.h Pages: 1 -->
<svg width="715pt" height="184pt"
 viewBox="0.00 0.00 714.72 184.00" xmlns="http://www.w3.org/2000/svg" xmlns:xlink="http://www.w3.org/1999/xlink">
<g id="graph0" class="graph" transform="scale(1 1) rotate(0) translate(4 180)">
<title>/home/travis/build/AliceO2Group/AliceO2/Detectors/MUON/MCH/Raw/Common/include/MCHRawCommon/RDHManip.h</title>
<!-- Node0 -->
<g id="node1" class="node">
<title>Node0</title>
<polygon fill="#bfbfbf" stroke="#000000" points="175.7248,-112.5 175.7248,-175.5 368.7248,-175.5 368.7248,-112.5 175.7248,-112.5"/>
<text text-anchor="start" x="183.7248" y="-163.5" font-family="Helvetica,sans-Serif" font-size="10.00" fill="#000000">/home/travis/build</text>
<text text-anchor="start" x="183.7248" y="-152.5" font-family="Helvetica,sans-Serif" font-size="10.00" fill="#000000">/AliceO2Group/AliceO2</text>
<text text-anchor="start" x="183.7248" y="-141.5" font-family="Helvetica,sans-Serif" font-size="10.00" fill="#000000">/Detectors/MUON/MCH/Raw</text>
<text text-anchor="start" x="183.7248" y="-130.5" font-family="Helvetica,sans-Serif" font-size="10.00" fill="#000000">/Common/include/MCHRawCommon</text>
<text text-anchor="middle" x="272.2248" y="-119.5" font-family="Helvetica,sans-Serif" font-size="10.00" fill="#000000">/RDHManip.h</text>
</g>
<!-- Node1 -->
<g id="node2" class="node">
<title>Node1</title>
<polygon fill="none" stroke="#bfbfbf" points="243.2248,-.5 243.2248,-19.5 293.2248,-19.5 293.2248,-.5 243.2248,-.5"/>
<text text-anchor="middle" x="268.2248" y="-7.5" font-family="Helvetica,sans-Serif" font-size="10.00" fill="#000000">cstdint</text>
</g>
<!-- Node0&#45;&gt;Node1 -->
<g id="edge1" class="edge">
<title>Node0&#45;&gt;Node1</title>
<path fill="none" stroke="#191970" d="M175.4049,-132.0058C107.5907,-121.3846 25.4466,-103.2789 4.2248,-76 -1.2332,-68.9841 -1.4958,-62.8035 4.2248,-56 33.0123,-21.7627 167.5088,-13.0057 232.6644,-10.7675"/>
<polygon fill="#191970" stroke="#191970" points="232.9845,-14.2594 242.8712,-10.4511 232.7675,-7.2627 232.9845,-14.2594"/>
</g>
<!-- Node2 -->
<g id="node3" class="node">
<title>Node2</title>
<polygon fill="none" stroke="#bfbfbf" points="13.7248,-56.5 13.7248,-75.5 78.7248,-75.5 78.7248,-56.5 13.7248,-56.5"/>
<text text-anchor="middle" x="46.2248" y="-63.5" font-family="Helvetica,sans-Serif" font-size="10.00" fill="#000000">functional</text>
</g>
<!-- Node0&#45;&gt;Node2 -->
<g id="edge2" class="edge">
<title>Node0&#45;&gt;Node2</title>
<path fill="none" stroke="#191970" d="M180.9534,-112.4992C146.8439,-100.727 109.9896,-88.0073 83.4628,-78.8521"/>
<polygon fill="#191970" stroke="#191970" points="84.4238,-75.4812 73.8291,-75.5271 82.14,-82.0982 84.4238,-75.4812"/>
</g>
<!-- Node3 -->
<g id="node4" class="node">
<title>Node3</title>
<polygon fill="none" stroke="#bfbfbf" points="96.7248,-56.5 96.7248,-75.5 153.7248,-75.5 153.7248,-56.5 96.7248,-56.5"/>
<text text-anchor="middle" x="125.2248" y="-63.5" font-family="Helvetica,sans-Serif" font-size="10.00" fill="#000000">gsl/span</text>
</g>
<!-- Node0&#45;&gt;Node3 -->
<g id="edge3" class="edge">
<title>Node0&#45;&gt;Node3</title>
<path fill="none" stroke="#191970" d="M212.858,-112.4992C191.9423,-101.4011 169.4399,-89.4611 152.4748,-80.4592"/>
<polygon fill="#191970" stroke="#191970" points="153.6538,-77.1226 143.1798,-75.5271 150.3728,-83.3061 153.6538,-77.1226"/>
</g>
<!-- Node4 -->
<g id="node5" class="node">
<title>Node4</title>
<polygon fill="none" stroke="#bfbfbf" points="172.2248,-56.5 172.2248,-75.5 232.2248,-75.5 232.2248,-56.5 172.2248,-56.5"/>
<text text-anchor="middle" x="202.2248" y="-63.5" font-family="Helvetica,sans-Serif" font-size="10.00" fill="#000000">iostream</text>
</g>
<!-- Node0&#45;&gt;Node4 -->
<g id="edge4" class="edge">
<title>Node0&#45;&gt;Node4</title>
<path fill="none" stroke="#191970" d="M243.7531,-112.2744C234.8036,-102.3021 225.2638,-91.672 217.5873,-83.1182"/>
<polygon fill="#191970" stroke="#191970" points="220.1624,-80.7473 210.8784,-75.6426 214.9526,-85.4227 220.1624,-80.7473"/>
</g>
<!-- Node5 -->
<g id="node6" class="node">
<title>Node5</title>
<polygon fill="none" stroke="#bfbfbf" points="250.2248,-56.5 250.2248,-75.5 294.2248,-75.5 294.2248,-56.5 250.2248,-56.5"/>
<text text-anchor="middle" x="272.2248" y="-63.5" font-family="Helvetica,sans-Serif" font-size="10.00" fill="#000000">string</text>
</g>
<!-- Node0&#45;&gt;Node5 -->
<g id="edge5" class="edge">
<title>Node0&#45;&gt;Node5</title>
<path fill="none" stroke="#191970" d="M272.2248,-112.2744C272.2248,-103.3302 272.2248,-93.8568 272.2248,-85.8269"/>
<polygon fill="#191970" stroke="#191970" points="275.7249,-85.6425 272.2248,-75.6426 268.7249,-85.6426 275.7249,-85.6425"/>
</g>
<!-- Node6 -->
<g id="node7" class="node">
<title>Node6</title>
<polygon fill="none" stroke="#bfbfbf" points="312.7248,-56.5 312.7248,-75.5 385.7248,-75.5 385.7248,-56.5 312.7248,-56.5"/>
<text text-anchor="middle" x="349.2248" y="-63.5" font-family="Helvetica,sans-Serif" font-size="10.00" fill="#000000">string_view</text>
</g>
<!-- Node0&#45;&gt;Node6 -->
<g id="edge6" class="edge">
<title>Node0&#45;&gt;Node6</title>
<path fill="none" stroke="#191970" d="M303.5436,-112.2744C313.4895,-102.1993 324.0984,-91.4527 332.5866,-82.8543"/>
<polygon fill="#191970" stroke="#191970" points="335.1713,-85.218 339.7058,-75.6426 330.1897,-80.3003 335.1713,-85.218"/>
</g>
<!-- Node7 -->
<g id="node8" class="node">
<title>Node7</title>
<polygon fill="none" stroke="#bfbfbf" points="403.7248,-56.5 403.7248,-75.5 450.7248,-75.5 450.7248,-56.5 403.7248,-56.5"/>
<text text-anchor="middle" x="427.2248" y="-63.5" font-family="Helvetica,sans-Serif" font-size="10.00" fill="#000000">vector</text>
</g>
<!-- Node0&#45;&gt;Node7 -->
<g id="edge7" class="edge">
<title>Node0&#45;&gt;Node7</title>
<path fill="none" stroke="#191970" d="M334.8224,-112.4992C357.0825,-101.2974 381.047,-89.2378 398.9918,-80.2076"/>
<polygon fill="#191970" stroke="#191970" points="400.9333,-83.1488 408.2927,-75.5271 397.7866,-76.8959 400.9333,-83.1488"/>
</g>
<!-- Node8 -->
<g id="node9" class="node">
<title>Node8</title>
<g id="a_node9"><a xlink:href="../../dd/d9a/RDHFields_8h.html" target="_top" xlink:title="MCHRawCommon/RDHFields.h">
<polygon fill="none" stroke="#000000" points="469.2248,-56.5 469.2248,-75.5 635.2248,-75.5 635.2248,-56.5 469.2248,-56.5"/>
<text text-anchor="middle" x="552.2248" y="-63.5" font-family="Helvetica,sans-Serif" font-size="10.00" fill="#000000">MCHRawCommon/RDHFields.h</text>
</a>
</g>
</g>
<!-- Node0&#45;&gt;Node8 -->
<g id="edge8" class="edge">
<title>Node0&#45;&gt;Node8</title>
<path fill="none" stroke="#191970" d="M368.977,-117.0476C416.2244,-103.8858 470.759,-88.694 507.9703,-78.328"/>
<polygon fill="#191970" stroke="#191970" points="509.292,-81.5932 517.986,-75.538 507.4135,-74.8499 509.292,-81.5932"/>
</g>
<!-- Node9 -->
<g id="node10" class="node">
<title>Node9</title>
<polygon fill="none" stroke="#bfbfbf" points="653.7248,-56.5 653.7248,-75.5 706.7248,-75.5 706.7248,-56.5 653.7248,-56.5"/>
<text text-anchor="middle" x="680.2248" y="-63.5" font-family="Helvetica,sans-Serif" font-size="10.00" fill="#000000">cstddef</text>
</g>
<!-- Node0&#45;&gt;Node9 -->
<g id="edge10" class="edge">
<title>Node0&#45;&gt;Node9</title>
<path fill="none" stroke="#191970" d="M369.0594,-128.7584C441.9953,-116.7055 544.5804,-98.537 643.6706,-75.9656"/>
<polygon fill="#191970" stroke="#191970" points="644.5934,-79.3449 653.5568,-73.6961 643.0272,-72.5223 644.5934,-79.3449"/>
</g>
<!-- Node8&#45;&gt;Node1 -->
<g id="edge9" class="edge">
<title>Node8&#45;&gt;Node1</title>
<path fill="none" stroke="#191970" d="M503.7261,-56.4369C446.7827,-45.2086 353.7278,-26.8598 303.3267,-16.9215"/>
<polygon fill="#191970" stroke="#191970" points="303.7356,-13.4348 293.2474,-14.934 302.3814,-20.3026 303.7356,-13.4348"/>
</g>
</g>
</svg>
