<?xml version="1.0" encoding="UTF-8" standalone="no"?>
<!DOCTYPE svg PUBLIC "-//W3C//DTD SVG 1.1//EN"
 "http://www.w3.org/Graphics/SVG/1.1/DTD/svg11.dtd">
<!-- Generated by graphviz version 2.40.1 (20161225.0304)
 -->
<!-- Title: o2::data::SubEventInfo Pages: 1 -->
<svg width="655pt" height="507pt"
 viewBox="0.00 0.00 655.00 507.00" xmlns="http://www.w3.org/2000/svg" xmlns:xlink="http://www.w3.org/1999/xlink">
<g id="graph0" class="graph" transform="scale(1 1) rotate(0) translate(4 503)">
<title>o2::data::SubEventInfo</title>
<!-- Node1 -->
<g id="node1" class="node">
<title>Node1</title>
<polygon fill="#bfbfbf" stroke="#000000" points="343.5,-.5 343.5,-57.5 470.5,-57.5 470.5,-.5 343.5,-.5"/>
<text text-anchor="middle" x="407" y="-45.5" font-family="Helvetica,sans-Serif" font-size="10.00" fill="#000000">o2::data::SubEventInfo</text>
<polyline fill="none" stroke="#000000" points="343.5,-38.5 470.5,-38.5 "/>
<text text-anchor="middle" x="407" y="-26.5" font-family="Helvetica,sans-Serif" font-size="10.00" fill="#000000"> </text>
<polyline fill="none" stroke="#000000" points="343.5,-19.5 470.5,-19.5 "/>
<text text-anchor="start" x="351.5" y="-7.5" font-family="Helvetica,sans-Serif" font-size="10.00" fill="#000000">+ ClassDefNV()</text>
</g>
<!-- Node2 -->
<g id="node2" class="node">
<title>Node2</title>
<g id="a_node2"><a xlink:href="../../d4/db1/classo2_1_1dataformats_1_1MCEventHeader.html" target="_top" xlink:title="{o2::dataformats::MCEvent\lHeader\n||+ MCEventHeader()\l+ MCEventHeader()\l+ operator=()\l+ ~MCEventHeader()\l+ setEmbeddingFileName()\l+ setEmbeddingEventIndex()\l+ getEmbeddedIndex()\l+ Reset()\l+ getMCEventStats()\l# ClassDefOverride()\l}">
<polygon fill="none" stroke="#000000" points="137,-127.5 137,-294.5 297,-294.5 297,-127.5 137,-127.5"/>
<text text-anchor="start" x="145" y="-282.5" font-family="Helvetica,sans-Serif" font-size="10.00" fill="#000000">o2::dataformats::MCEvent</text>
<text text-anchor="middle" x="217" y="-271.5" font-family="Helvetica,sans-Serif" font-size="10.00" fill="#000000">Header</text>
<polyline fill="none" stroke="#000000" points="137,-264.5 297,-264.5 "/>
<text text-anchor="middle" x="217" y="-252.5" font-family="Helvetica,sans-Serif" font-size="10.00" fill="#000000"> </text>
<polyline fill="none" stroke="#000000" points="137,-245.5 297,-245.5 "/>
<text text-anchor="start" x="145" y="-233.5" font-family="Helvetica,sans-Serif" font-size="10.00" fill="#000000">+ MCEventHeader()</text>
<text text-anchor="start" x="145" y="-222.5" font-family="Helvetica,sans-Serif" font-size="10.00" fill="#000000">+ MCEventHeader()</text>
<text text-anchor="start" x="145" y="-211.5" font-family="Helvetica,sans-Serif" font-size="10.00" fill="#000000">+ operator=()</text>
<text text-anchor="start" x="145" y="-200.5" font-family="Helvetica,sans-Serif" font-size="10.00" fill="#000000">+ ~MCEventHeader()</text>
<text text-anchor="start" x="145" y="-189.5" font-family="Helvetica,sans-Serif" font-size="10.00" fill="#000000">+ setEmbeddingFileName()</text>
<text text-anchor="start" x="145" y="-178.5" font-family="Helvetica,sans-Serif" font-size="10.00" fill="#000000">+ setEmbeddingEventIndex()</text>
<text text-anchor="start" x="145" y="-167.5" font-family="Helvetica,sans-Serif" font-size="10.00" fill="#000000">+ getEmbeddedIndex()</text>
<text text-anchor="start" x="145" y="-156.5" font-family="Helvetica,sans-Serif" font-size="10.00" fill="#000000">+ Reset()</text>
<text text-anchor="start" x="145" y="-145.5" font-family="Helvetica,sans-Serif" font-size="10.00" fill="#000000">+ getMCEventStats()</text>
<text text-anchor="start" x="145" y="-134.5" font-family="Helvetica,sans-Serif" font-size="10.00" fill="#000000"># ClassDefOverride()</text>
</a>
</g>
</g>
<!-- Node2&#45;&gt;Node1 -->
<g id="edge1" class="edge">
<title>Node2&#45;&gt;Node1</title>
<path fill="none" stroke="#404040" d="M221.4399,-127.2041C226.0319,-108.4738 233.8812,-90.0292 247,-76 259.0808,-63.0809 296.079,-51.7871 331.4567,-43.5103"/>
<polygon fill="none" stroke="#404040" points="331.6491,-43.4669 336.6195,-38.2424 343.3538,-40.821 338.3834,-46.0455 331.6491,-43.4669"/>
<text text-anchor="middle" x="297" y="-90" font-family="Helvetica,sans-Serif" font-size="10.00" fill="#000000"> +mMCEventHeader</text>
</g>
<!-- Node3 -->
<g id="node3" class="node">
<title>Node3</title>
<g id="a_node3"><a xlink:href="../../dd/d8f/classFairMCEventHeader.html" target="_top" xlink:title="{FairMCEventHeader\n||}">
<polygon fill="none" stroke="#000000" points="0,-392 0,-449 112,-449 112,-392 0,-392"/>
<text text-anchor="middle" x="56" y="-437" font-family="Helvetica,sans-Serif" font-size="10.00" fill="#000000">FairMCEventHeader</text>
<polyline fill="none" stroke="#000000" points="0,-430 112,-430 "/>
<text text-anchor="middle" x="56" y="-418" font-family="Helvetica,sans-Serif" font-size="10.00" fill="#000000"> </text>
<polyline fill="none" stroke="#000000" points="0,-411 112,-411 "/>
<text text-anchor="middle" x="56" y="-399" font-family="Helvetica,sans-Serif" font-size="10.00" fill="#000000"> </text>
</a>
</g>
</g>
<!-- Node3&#45;&gt;Node2 -->
<g id="edge2" class="edge">
<title>Node3&#45;&gt;Node2</title>
<path fill="none" stroke="#191970" d="M84.1857,-383.8236C103.086,-359.2297 128.7732,-325.8045 152.5215,-294.9021"/>
<polygon fill="none" stroke="#191970" points="81.3671,-381.7474 78.0488,-391.8092 86.9174,-386.0128 81.3671,-381.7474"/>
</g>
<!-- Node4 -->
<g id="node4" class="node">
<title>Node4</title>
<polygon fill="none" stroke="#bfbfbf" points="130.5,-392 130.5,-449 159.5,-449 159.5,-392 130.5,-392"/>
<text text-anchor="middle" x="145" y="-437" font-family="Helvetica,sans-Serif" font-size="10.00" fill="#000000">int</text>
<polyline fill="none" stroke="#bfbfbf" points="130.5,-430 159.5,-430 "/>
<text text-anchor="middle" x="145" y="-418" font-family="Helvetica,sans-Serif" font-size="10.00" fill="#000000"> </text>
<polyline fill="none" stroke="#bfbfbf" points="130.5,-411 159.5,-411 "/>
<text text-anchor="middle" x="145" y="-399" font-family="Helvetica,sans-Serif" font-size="10.00" fill="#000000"> </text>
</g>
<!-- Node4&#45;&gt;Node2 -->
<g id="edge3" class="edge">
<title>Node4&#45;&gt;Node2</title>
<path fill="none" stroke="#404040" d="M140.7636,-391.9373C138.5491,-369.8469 137.7779,-338.7836 146,-313 146.7682,-310.5911 147.6148,-308.189 148.5311,-305.7981"/>
<polygon fill="none" stroke="#404040" points="148.5588,-305.7335 147.2513,-298.6419 153.2945,-294.7075 154.602,-301.7991 148.5588,-305.7335"/>
<text text-anchor="middle" x="207" y="-316" font-family="Helvetica,sans-Serif" font-size="10.00" fill="#000000"> #mEmbeddingFileName</text>
</g>
<!-- Node5 -->
<g id="node5" class="node">
<title>Node5</title>
<polygon fill="none" stroke="#bfbfbf" points="271,-392 271,-449 309,-449 309,-392 271,-392"/>
<text text-anchor="middle" x="290" y="-437" font-family="Helvetica,sans-Serif" font-size="10.00" fill="#000000">Int_t</text>
<polyline fill="none" stroke="#bfbfbf" points="271,-430 309,-430 "/>
<text text-anchor="middle" x="290" y="-418" font-family="Helvetica,sans-Serif" font-size="10.00" fill="#000000"> </text>
<polyline fill="none" stroke="#bfbfbf" points="271,-411 309,-411 "/>
<text text-anchor="middle" x="290" y="-399" font-family="Helvetica,sans-Serif" font-size="10.00" fill="#000000"> </text>
</g>
<!-- Node5&#45;&gt;Node2 -->
<g id="edge4" class="edge">
<title>Node5&#45;&gt;Node2</title>
<path fill="none" stroke="#404040" d="M286.1971,-391.6636C282.8015,-369.7 276.9606,-338.9273 268,-313 267.179,-310.6244 266.314,-308.2336 265.4113,-305.8348"/>
<polygon fill="none" stroke="#404040" points="265.3699,-305.7304 259.4362,-301.6326 260.9367,-294.5793 266.8703,-298.6771 265.3699,-305.7304"/>
<text text-anchor="middle" x="336.5" y="-316" font-family="Helvetica,sans-Serif" font-size="10.00" fill="#000000"> #mEmbeddingEventIndex</text>
</g>
<!-- Node6 -->
<g id="node6" class="node">
<title>Node6</title>
<g id="a_node6"><a xlink:href="../../d9/ddb/classo2_1_1dataformats_1_1MCEventStats.html" target="_top" xlink:title="{o2::dataformats::MCEvent\lStats\n||+ setNHits()\l+ getNHits()\l+ setNTransportedTracks()\l+ getNTransportedTracks()\l+ setNKeptTracks()\l+ getNKeptTracks()\l+ setNSteps()\l+ getNSteps()\l+ add()\l}">
<polygon fill="none" stroke="#000000" points="371,-342.5 371,-498.5 517,-498.5 517,-342.5 371,-342.5"/>
<text text-anchor="start" x="379" y="-486.5" font-family="Helvetica,sans-Serif" font-size="10.00" fill="#000000">o2::dataformats::MCEvent</text>
<text text-anchor="middle" x="444" y="-475.5" font-family="Helvetica,sans-Serif" font-size="10.00" fill="#000000">Stats</text>
<polyline fill="none" stroke="#000000" points="371,-468.5 517,-468.5 "/>
<text text-anchor="middle" x="444" y="-456.5" font-family="Helvetica,sans-Serif" font-size="10.00" fill="#000000"> </text>
<polyline fill="none" stroke="#000000" points="371,-449.5 517,-449.5 "/>
<text text-anchor="start" x="379" y="-437.5" font-family="Helvetica,sans-Serif" font-size="10.00" fill="#000000">+ setNHits()</text>
<text text-anchor="start" x="379" y="-426.5" font-family="Helvetica,sans-Serif" font-size="10.00" fill="#000000">+ getNHits()</text>
<text text-anchor="start" x="379" y="-415.5" font-family="Helvetica,sans-Serif" font-size="10.00" fill="#000000">+ setNTransportedTracks()</text>
<text text-anchor="start" x="379" y="-404.5" font-family="Helvetica,sans-Serif" font-size="10.00" fill="#000000">+ getNTransportedTracks()</text>
<text text-anchor="start" x="379" y="-393.5" font-family="Helvetica,sans-Serif" font-size="10.00" fill="#000000">+ setNKeptTracks()</text>
<text text-anchor="start" x="379" y="-382.5" font-family="Helvetica,sans-Serif" font-size="10.00" fill="#000000">+ getNKeptTracks()</text>
<text text-anchor="start" x="379" y="-371.5" font-family="Helvetica,sans-Serif" font-size="10.00" fill="#000000">+ setNSteps()</text>
<text text-anchor="start" x="379" y="-360.5" font-family="Helvetica,sans-Serif" font-size="10.00" fill="#000000">+ getNSteps()</text>
<text text-anchor="start" x="379" y="-349.5" font-family="Helvetica,sans-Serif" font-size="10.00" fill="#000000">+ add()</text>
</a>
</g>
</g>
<!-- Node6&#45;&gt;Node2 -->
<g id="edge5" class="edge">
<title>Node6&#45;&gt;Node2</title>
<path fill="none" stroke="#404040" d="M427.5878,-342.286C422.2871,-331.1855 415.2753,-320.885 406,-313 374.2816,-286.036 350.3223,-310.778 308.3506,-295.0988"/>
<polygon fill="none" stroke="#404040" points="308.245,-295.052 301.1384,-296.2751 297.276,-290.1855 304.3826,-288.9624 308.245,-295.052"/>
<text text-anchor="middle" x="453" y="-316" font-family="Helvetica,sans-Serif" font-size="10.00" fill="#000000"> #mEventStats</text>
</g>
<!-- Node7 -->
<g id="node7" class="node">
<title>Node7</title>
<polygon fill="none" stroke="#bfbfbf" points="315,-182.5 315,-239.5 371,-239.5 371,-182.5 315,-182.5"/>
<text text-anchor="middle" x="343" y="-227.5" font-family="Helvetica,sans-Serif" font-size="10.00" fill="#000000">uint16_t</text>
<polyline fill="none" stroke="#bfbfbf" points="315,-220.5 371,-220.5 "/>
<text text-anchor="middle" x="343" y="-208.5" font-family="Helvetica,sans-Serif" font-size="10.00" fill="#000000"> </text>
<polyline fill="none" stroke="#bfbfbf" points="315,-201.5 371,-201.5 "/>
<text text-anchor="middle" x="343" y="-189.5" font-family="Helvetica,sans-Serif" font-size="10.00" fill="#000000"> </text>
</g>
<!-- Node7&#45;&gt;Node1 -->
<g id="edge6" class="edge">
<title>Node7&#45;&gt;Node1</title>
<path fill="none" stroke="#404040" d="M342.3795,-182.4214C342.8499,-154.0627 346.5704,-110.0326 363,-76 364.4312,-73.0353 366.1156,-70.1307 367.9758,-67.3115"/>
<polygon fill="none" stroke="#404040" points="368.1275,-67.11 368.5399,-59.9107 375.3441,-57.5224 374.9316,-64.7217 368.1275,-67.11"/>
<text text-anchor="middle" x="383" y="-95.5" font-family="Helvetica,sans-Serif" font-size="10.00" fill="#000000"> +part</text>
<text text-anchor="middle" x="383" y="-84.5" font-family="Helvetica,sans-Serif" font-size="10.00" fill="#000000">+nparts</text>
</g>
<!-- Node8 -->
<g id="node8" class="node">
<title>Node8</title>
<g id="a_node8"><a xlink:href="../../d4/dc3/classfloat.html" target="_top" xlink:title="{float\n||}">
<polygon fill="none" stroke="#000000" points="389,-182.5 389,-239.5 427,-239.5 427,-182.5 389,-182.5"/>
<text text-anchor="middle" x="408" y="-227.5" font-family="Helvetica,sans-Serif" font-size="10.00" fill="#000000">float</text>
<polyline fill="none" stroke="#000000" points="389,-220.5 427,-220.5 "/>
<text text-anchor="middle" x="408" y="-208.5" font-family="Helvetica,sans-Serif" font-size="10.00" fill="#000000"> </text>
<polyline fill="none" stroke="#000000" points="389,-201.5 427,-201.5 "/>
<text text-anchor="middle" x="408" y="-189.5" font-family="Helvetica,sans-Serif" font-size="10.00" fill="#000000"> </text>
</a>
</g>
</g>
<!-- Node8&#45;&gt;Node1 -->
<g id="edge7" class="edge">
<title>Node8&#45;&gt;Node1</title>
<path fill="none" stroke="#404040" d="M407.8415,-182.1616C407.6755,-151.943 407.4132,-104.2065 407.2256,-70.0602"/>
<polygon fill="none" stroke="#404040" points="407.2237,-69.7033 403.1908,-63.7254 407.1577,-57.7035 411.1907,-63.6814 407.2237,-69.7033"/>
<text text-anchor="middle" x="438" y="-90" font-family="Helvetica,sans-Serif" font-size="10.00" fill="#000000"> +eventtime</text>
</g>
<!-- Node9 -->
<g id="node9" class="node">
<title>Node9</title>
<polygon fill="none" stroke="#bfbfbf" points="467,-182.5 467,-239.5 517,-239.5 517,-182.5 467,-182.5"/>
<text text-anchor="middle" x="492" y="-227.5" font-family="Helvetica,sans-Serif" font-size="10.00" fill="#000000">int32_t</text>
<polyline fill="none" stroke="#bfbfbf" points="467,-220.5 517,-220.5 "/>
<text text-anchor="middle" x="492" y="-208.5" font-family="Helvetica,sans-Serif" font-size="10.00" fill="#000000"> </text>
<polyline fill="none" stroke="#bfbfbf" points="467,-201.5 517,-201.5 "/>
<text text-anchor="middle" x="492" y="-189.5" font-family="Helvetica,sans-Serif" font-size="10.00" fill="#000000"> </text>
</g>
<!-- Node9&#45;&gt;Node1 -->
<g id="edge8" class="edge">
<title>Node9&#45;&gt;Node1</title>
<path fill="none" stroke="#404040" d="M493.3579,-182.2567C493.4062,-153.3708 489.7812,-108.5782 470,-76 467.9461,-72.6174 465.5491,-69.3981 462.9131,-66.3484"/>
<polygon fill="none" stroke="#404040" points="462.8214,-66.2555 455.7598,-64.7949 454.392,-57.7147 461.4537,-59.1753 462.8214,-66.2555"/>
<text text-anchor="middle" x="530" y="-101" font-family="Helvetica,sans-Serif" font-size="10.00" fill="#000000"> +runID</text>
<text text-anchor="middle" x="530" y="-90" font-family="Helvetica,sans-Serif" font-size="10.00" fill="#000000">+maxEvents</text>
<text text-anchor="middle" x="530" y="-79" font-family="Helvetica,sans-Serif" font-size="10.00" fill="#000000">+npersistenttracks</text>
</g>
<!-- Node10 -->
<g id="node10" class="node">
<title>Node10</title>
<g id="a_node10"><a xlink:href="../../d3/d87/classuint32__t.html" target="_top" xlink:title="{uint32_t\n||}">
<polygon fill="none" stroke="#000000" points="581,-182.5 581,-239.5 637,-239.5 637,-182.5 581,-182.5"/>
<text text-anchor="middle" x="609" y="-227.5" font-family="Helvetica,sans-Serif" font-size="10.00" fill="#000000">uint32_t</text>
<polyline fill="none" stroke="#000000" points="581,-220.5 637,-220.5 "/>
<text text-anchor="middle" x="609" y="-208.5" font-family="Helvetica,sans-Serif" font-size="10.00" fill="#000000"> </text>
<polyline fill="none" stroke="#000000" points="581,-201.5 637,-201.5 "/>
<text text-anchor="middle" x="609" y="-189.5" font-family="Helvetica,sans-Serif" font-size="10.00" fill="#000000"> </text>
</a>
</g>
</g>
<!-- Node10&#45;&gt;Node1 -->
<g id="edge9" class="edge">
<title>Node10&#45;&gt;Node1</title>
<path fill="none" stroke="#404040" d="M611.1817,-182.2947C611.8418,-151.9378 607.9226,-104.5687 581,-76 567.1321,-61.2842 522.9183,-49.4479 482.5336,-41.3343"/>
<polygon fill="none" stroke="#404040" points="482.4991,-41.3277 475.8469,-44.1111 470.719,-39.0412 477.3712,-36.2577 482.4991,-41.3277"/>
<text text-anchor="middle" x="623.5" y="-101" font-family="Helvetica,sans-Serif" font-size="10.00" fill="#000000"> +index</text>
<text text-anchor="middle" x="623.5" y="-90" font-family="Helvetica,sans-Serif" font-size="10.00" fill="#000000">+eventID</text>
<text text-anchor="middle" x="623.5" y="-79" font-family="Helvetica,sans-Serif" font-size="10.00" fill="#000000">+seed</text>
</g>
</g>
</svg>
