<?xml version="1.0" encoding="UTF-8" standalone="no"?>
<!DOCTYPE svg PUBLIC "-//W3C//DTD SVG 1.1//EN"
 "http://www.w3.org/Graphics/SVG/1.1/DTD/svg11.dtd">
<!-- Generated by graphviz version 2.40.1 (20161225.0304)
 -->
<!-- Title: /home/travis/build/AliceO2Group/AliceO2/Detectors/MUON/MCH/Raw/testdata/RefBufferCRU.cxx Pages: 1 -->
<svg width="366pt" height="173pt"
 viewBox="0.00 0.00 366.00 173.00" xmlns="http://www.w3.org/2000/svg" xmlns:xlink="http://www.w3.org/1999/xlink">
<g id="graph0" class="graph" transform="scale(1 1) rotate(0) translate(4 169)">
<title>/home/travis/build/AliceO2Group/AliceO2/Detectors/MUON/MCH/Raw/testdata/RefBufferCRU.cxx</title>
<!-- Node0 -->
<g id="node1" class="node">
<title>Node0</title>
<polygon fill="#bfbfbf" stroke="#000000" points="64.5,-112.5 64.5,-164.5 214.5,-164.5 214.5,-112.5 64.5,-112.5"/>
<text text-anchor="start" x="72.5" y="-152.5" font-family="Helvetica,sans-Serif" font-size="10.00" fill="#000000">/home/travis/build</text>
<text text-anchor="start" x="72.5" y="-141.5" font-family="Helvetica,sans-Serif" font-size="10.00" fill="#000000">/AliceO2Group/AliceO2</text>
<text text-anchor="start" x="72.5" y="-130.5" font-family="Helvetica,sans-Serif" font-size="10.00" fill="#000000">/Detectors/MUON/MCH/Raw</text>
<text text-anchor="middle" x="139.5" y="-119.5" font-family="Helvetica,sans-Serif" font-size="10.00" fill="#000000">/testdata/RefBufferCRU.cxx</text>
</g>
<!-- Node1 -->
<g id="node2" class="node">
<title>Node1</title>
<g id="a_node2"><a xlink:href="../../de/d1f/RefBuffers_8h.html" target="_top" xlink:title="RefBuffers.h">
<polygon fill="none" stroke="#000000" points="24.5,-56.5 24.5,-75.5 100.5,-75.5 100.5,-56.5 24.5,-56.5"/>
<text text-anchor="middle" x="62.5" y="-63.5" font-family="Helvetica,sans-Serif" font-size="10.00" fill="#000000">RefBuffers.h</text>
</a>
</g>
</g>
<!-- Node0&#45;&gt;Node1 -->
<g id="edge1" class="edge">
<title>Node0&#45;&gt;Node1</title>
<path fill="none" stroke="#191970" d="M111.7012,-112.3258C101.1728,-102.4127 89.4846,-91.4075 80.1429,-82.6118"/>
<polygon fill="#191970" stroke="#191970" points="82.3057,-79.8409 72.6258,-75.534 77.5071,-84.9374 82.3057,-79.8409"/>
</g>
<!-- Node4 -->
<g id="node5" class="node">
<title>Node4</title>
<polygon fill="none" stroke="#bfbfbf" points="118.5,-56.5 118.5,-75.5 160.5,-75.5 160.5,-56.5 118.5,-56.5"/>
<text text-anchor="middle" x="139.5" y="-63.5" font-family="Helvetica,sans-Serif" font-size="10.00" fill="#000000">array</text>
</g>
<!-- Node0&#45;&gt;Node4 -->
<g id="edge4" class="edge">
<title>Node0&#45;&gt;Node4</title>
<path fill="none" stroke="#191970" d="M139.5,-112.3258C139.5,-103.5142 139.5,-93.8397 139.5,-85.621"/>
<polygon fill="#191970" stroke="#191970" points="143.0001,-85.534 139.5,-75.534 136.0001,-85.534 143.0001,-85.534"/>
</g>
<!-- Node5 -->
<g id="node6" class="node">
<title>Node5</title>
<g id="a_node6"><a xlink:href="../../d0/d64/DataFormats_8h.html" target="_top" xlink:title="MCHRawCommon/DataFormats.h">
<polygon fill="none" stroke="#000000" points="179,-56.5 179,-75.5 358,-75.5 358,-56.5 179,-56.5"/>
<text text-anchor="middle" x="268.5" y="-63.5" font-family="Helvetica,sans-Serif" font-size="10.00" fill="#000000">MCHRawCommon/DataFormats.h</text>
</a>
</g>
</g>
<!-- Node0&#45;&gt;Node5 -->
<g id="edge5" class="edge">
<title>Node0&#45;&gt;Node5</title>
<path fill="none" stroke="#191970" d="M186.072,-112.3258C205.1358,-101.6116 226.4695,-89.6218 242.6563,-80.5246"/>
<polygon fill="#191970" stroke="#191970" points="244.5333,-83.4846 251.5361,-75.534 241.1037,-77.3823 244.5333,-83.4846"/>
</g>
<!-- Node2 -->
<g id="node3" class="node">
<title>Node2</title>
<polygon fill="none" stroke="#bfbfbf" points="0,-.5 0,-19.5 53,-19.5 53,-.5 0,-.5"/>
<text text-anchor="middle" x="26.5" y="-7.5" font-family="Helvetica,sans-Serif" font-size="10.00" fill="#000000">cstddef</text>
</g>
<!-- Node1&#45;&gt;Node2 -->
<g id="edge2" class="edge">
<title>Node1&#45;&gt;Node2</title>
<path fill="none" stroke="#191970" d="M56.2293,-56.2455C51.2736,-48.5367 44.217,-37.5598 38.2224,-28.2348"/>
<polygon fill="#191970" stroke="#191970" points="41.0506,-26.1618 32.6989,-19.6427 35.1624,-29.9471 41.0506,-26.1618"/>
</g>
<!-- Node3 -->
<g id="node4" class="node">
<title>Node3</title>
<polygon fill="none" stroke="#bfbfbf" points="71,-.5 71,-19.5 128,-19.5 128,-.5 71,-.5"/>
<text text-anchor="middle" x="99.5" y="-7.5" font-family="Helvetica,sans-Serif" font-size="10.00" fill="#000000">gsl/span</text>
</g>
<!-- Node1&#45;&gt;Node3 -->
<g id="edge3" class="edge">
<title>Node1&#45;&gt;Node3</title>
<path fill="none" stroke="#191970" d="M68.9449,-56.2455C74.0382,-48.5367 81.2908,-37.5598 87.452,-28.2348"/>
<polygon fill="#191970" stroke="#191970" points="90.5365,-29.9155 93.1289,-19.6427 84.6962,-26.0566 90.5365,-29.9155"/>
</g>
</g>
</svg>
