<?xml version="1.0" encoding="UTF-8" standalone="no"?>
<!DOCTYPE svg PUBLIC "-//W3C//DTD SVG 1.1//EN"
 "http://www.w3.org/Graphics/SVG/1.1/DTD/svg11.dtd">
<!-- Generated by graphviz version 2.40.1 (20161225.0304)
 -->
<!-- Title: /home/travis/build/AliceO2Group/AliceO2/Detectors/MUON/MCH/Base/include/MCHBase/Digit.h Pages: 1 -->
<!--zoomable 328 -->
<svg id="main" version="1.1" xmlns="http://www.w3.org/2000/svg" xmlns:xlink="http://www.w3.org/1999/xlink" xml:space="preserve" onload="init(evt)">
<style type="text/css"><![CDATA[
.edge:hover path { stroke: red; }
.edge:hover polygon { stroke: red; fill: red; }
]]></style>
<script type="text/javascript"><![CDATA[
var edges = document.getElementsByTagName('g');
if (edges && edges.length) {
  for (var i=0;i<edges.length;i++) {
    if (edges[i].id.substr(0,4)=='edge') {
      edges[i].setAttribute('class','edge');
    }
  }
}
]]></script>
        <defs>
                <circle id="rim" cx="0" cy="0" r="7"/>
                <circle id="rim2" cx="0" cy="0" r="3.5"/>
                <g id="zoomPlus">
                        <use xlink:href="#rim" fill="#404040">
                                <set attributeName="fill" to="#808080" begin="zoomplus.mouseover" end="zoomplus.mouseout"/>
                        </use>
                        <path d="M-4,0h8M0,-4v8" fill="none" stroke="white" stroke-width="1.5" pointer-events="none"/>
                </g>
                <g id="zoomMin">
                        <use xlink:href="#rim" fill="#404040">
                                <set attributeName="fill" to="#808080" begin="zoomminus.mouseover" end="zoomminus.mouseout"/>
                        </use>
                        <path d="M-4,0h8" fill="none" stroke="white" stroke-width="1.5" pointer-events="none"/>
                </g>
                <g id="dirArrow">
                        <path fill="none" stroke="white" stroke-width="1.5" d="M0,-3.0v7 M-2.5,-0.5L0,-3.0L2.5,-0.5"/>
                </g>
               <g id="resetDef">
                       <use xlink:href="#rim2" fill="#404040">
                               <set attributeName="fill" to="#808080" begin="reset.mouseover" end="reset.mouseout"/>
                       </use>
               </g>
        </defs>

<script type="text/javascript">
var viewWidth = 2797;
var viewHeight = 328;
var sectionId = 'dynsection-1';
</script>
<script xlink:href="../../svgpan.js"/>
<svg id="graph" class="graph">
<g id="viewport">
<title>/home/travis/build/AliceO2Group/AliceO2/Detectors/MUON/MCH/Base/include/MCHBase/Digit.h</title>
<!-- Node2 -->
<g id="node1" class="node">
<title>Node2</title>
<polygon fill="#bfbfbf" stroke="#000000" points="1480.5,-267.5 1480.5,-319.5 1633.5,-319.5 1633.5,-267.5 1480.5,-267.5"/>
<text text-anchor="start" x="1488.5" y="-307.5" font-family="Helvetica,sans-Serif" font-size="10.00" fill="#000000">/home/travis/build</text>
<text text-anchor="start" x="1488.5" y="-296.5" font-family="Helvetica,sans-Serif" font-size="10.00" fill="#000000">/AliceO2Group/AliceO2</text>
<text text-anchor="start" x="1488.5" y="-285.5" font-family="Helvetica,sans-Serif" font-size="10.00" fill="#000000">/Detectors/MUON/MCH/Base</text>
<text text-anchor="middle" x="1557" y="-274.5" font-family="Helvetica,sans-Serif" font-size="10.00" fill="#000000">/include/MCHBase/Digit.h</text>
</g>
<!-- Node3 -->
<g id="node2" class="node">
<title>Node3</title>
<g id="a_node2"><a xlink:href="../../d3/d39/MCH_2Base_2include_2MCHBase_2PreCluster_8h.html" target="_top" xlink:title="/home/travis/build\l/AliceO2Group/AliceO2\l/Detectors/MUON/MCH/Base\l/include/MCHBase/PreCluster.h">
<polygon fill="none" stroke="#000000" points="353,-178.5 353,-230.5 519,-230.5 519,-178.5 353,-178.5"/>
<text text-anchor="start" x="361" y="-218.5" font-family="Helvetica,sans-Serif" font-size="10.00" fill="#000000">/home/travis/build</text>
<text text-anchor="start" x="361" y="-207.5" font-family="Helvetica,sans-Serif" font-size="10.00" fill="#000000">/AliceO2Group/AliceO2</text>
<text text-anchor="start" x="361" y="-196.5" font-family="Helvetica,sans-Serif" font-size="10.00" fill="#000000">/Detectors/MUON/MCH/Base</text>
<text text-anchor="middle" x="436" y="-185.5" font-family="Helvetica,sans-Serif" font-size="10.00" fill="#000000">/include/MCHBase/PreCluster.h</text>
</a>
</g>
</g>
<!-- Node2&#45;&gt;Node3 -->
<g id="edge1" class="edge">
<title>Node2&#45;&gt;Node3</title>
<path fill="none" stroke="#191970" d="M1470.1464,-291.5639C1298.622,-286.9468 904.5397,-272.399 576,-231 557.47,-228.665 537.6927,-225.4024 519.0157,-221.9624"/>
<polygon fill="#191970" stroke="#191970" points="1470.2882,-295.0688 1480.3773,-291.8346 1470.4734,-288.0712 1470.2882,-295.0688"/>
</g>
<!-- Node5 -->
<g id="node4" class="node">
<title>Node5</title>
<g id="a_node4"><a xlink:href="../../db/dad/PreClusterFinder_8h.html" target="_top" xlink:title="/home/travis/build\l/AliceO2Group/AliceO2\l/Detectors/MUON/MCH/PreClustering\l/include/MCHPreClustering/PreClusterFinder.h">
<polygon fill="none" stroke="#000000" points="0,-89.5 0,-141.5 236,-141.5 236,-89.5 0,-89.5"/>
<text text-anchor="start" x="8" y="-129.5" font-family="Helvetica,sans-Serif" font-size="10.00" fill="#000000">/home/travis/build</text>
<text text-anchor="start" x="8" y="-118.5" font-family="Helvetica,sans-Serif" font-size="10.00" fill="#000000">/AliceO2Group/AliceO2</text>
<text text-anchor="start" x="8" y="-107.5" font-family="Helvetica,sans-Serif" font-size="10.00" fill="#000000">/Detectors/MUON/MCH/PreClustering</text>
<text text-anchor="middle" x="118" y="-96.5" font-family="Helvetica,sans-Serif" font-size="10.00" fill="#000000">/include/MCHPreClustering/PreClusterFinder.h</text>
</a>
</g>
</g>
<!-- Node2&#45;&gt;Node5 -->
<g id="edge9" class="edge">
<title>Node2&#45;&gt;Node5</title>
<path fill="none" stroke="#191970" d="M1470.182,-291.1266C1210.6191,-283.7376 451.7809,-259.8994 344,-231 273.5636,-212.1138 199.7443,-169.3746 156.3545,-141.5169"/>
<polygon fill="#191970" stroke="#191970" points="1470.2198,-294.629 1480.315,-291.4139 1470.4182,-287.6318 1470.2198,-294.629"/>
</g>
<!-- Node7 -->
<g id="node6" class="node">
<title>Node7</title>
<g id="a_node6"><a xlink:href="../../df/d50/PreClusterFinderSpec_8cxx.html" target="_top" xlink:title="Implementation of a data processor to run the preclusterizer. ">
<polygon fill="none" stroke="#000000" points="349,-.5 349,-52.5 523,-52.5 523,-.5 349,-.5"/>
<text text-anchor="start" x="357" y="-40.5" font-family="Helvetica,sans-Serif" font-size="10.00" fill="#000000">/home/travis/build</text>
<text text-anchor="start" x="357" y="-29.5" font-family="Helvetica,sans-Serif" font-size="10.00" fill="#000000">/AliceO2Group/AliceO2</text>
<text text-anchor="start" x="357" y="-18.5" font-family="Helvetica,sans-Serif" font-size="10.00" fill="#000000">/Detectors/MUON/MCH/Workflow</text>
<text text-anchor="middle" x="436" y="-7.5" font-family="Helvetica,sans-Serif" font-size="10.00" fill="#000000">/src/PreClusterFinderSpec.cxx</text>
</a>
</g>
</g>
<!-- Node2&#45;&gt;Node7 -->
<g id="edge29" class="edge">
<title>Node2&#45;&gt;Node7</title>
<path fill="none" stroke="#191970" d="M1470.2449,-288.1735C1319.0008,-278.3806 1013.236,-256.1963 909,-231 804.873,-205.83 769.3995,-207.9748 685,-142 662.1645,-124.1496 670.6173,-105.8025 647,-89 610.6551,-63.1424 563.5757,-47.8706 523.1121,-38.9073"/>
<polygon fill="#191970" stroke="#191970" points="1470.217,-291.6788 1480.4212,-288.8287 1470.6668,-284.6933 1470.217,-291.6788"/>
</g>
<!-- Node8 -->
<g id="node7" class="node">
<title>Node8</title>
<g id="a_node7"><a xlink:href="../../d0/d5c/PreClusterSinkSpec_8cxx.html" target="_top" xlink:title="Implementation of a data processor to write preclusters. ">
<polygon fill="none" stroke="#000000" points="464,-89.5 464,-141.5 638,-141.5 638,-89.5 464,-89.5"/>
<text text-anchor="start" x="472" y="-129.5" font-family="Helvetica,sans-Serif" font-size="10.00" fill="#000000">/home/travis/build</text>
<text text-anchor="start" x="472" y="-118.5" font-family="Helvetica,sans-Serif" font-size="10.00" fill="#000000">/AliceO2Group/AliceO2</text>
<text text-anchor="start" x="472" y="-107.5" font-family="Helvetica,sans-Serif" font-size="10.00" fill="#000000">/Detectors/MUON/MCH/Workflow</text>
<text text-anchor="middle" x="551" y="-96.5" font-family="Helvetica,sans-Serif" font-size="10.00" fill="#000000">/src/PreClusterSinkSpec.cxx</text>
</a>
</g>
</g>
<!-- Node2&#45;&gt;Node8 -->
<g id="edge30" class="edge">
<title>Node2&#45;&gt;Node8</title>
<path fill="none" stroke="#191970" d="M1470.3128,-291.2662C1258.0143,-285.2651 724.092,-266.7729 652,-231 612.6289,-211.4636 582.0521,-169.1298 565.2888,-141.5016"/>
<polygon fill="#191970" stroke="#191970" points="1470.3871,-294.7696 1480.4812,-291.551 1470.5831,-287.7723 1470.3871,-294.7696"/>
</g>
<!-- Node9 -->
<g id="node8" class="node">
<title>Node9</title>
<g id="a_node8"><a xlink:href="../../df/d26/Detectors_2MUON_2MCH_2Base_2src_2Digit_8cxx.html" target="_top" xlink:title="/home/travis/build\l/AliceO2Group/AliceO2\l/Detectors/MUON/MCH/Base\l/src/Digit.cxx">
<polygon fill="none" stroke="#000000" points="918.5,-178.5 918.5,-230.5 1071.5,-230.5 1071.5,-178.5 918.5,-178.5"/>
<text text-anchor="start" x="926.5" y="-218.5" font-family="Helvetica,sans-Serif" font-size="10.00" fill="#000000">/home/travis/build</text>
<text text-anchor="start" x="926.5" y="-207.5" font-family="Helvetica,sans-Serif" font-size="10.00" fill="#000000">/AliceO2Group/AliceO2</text>
<text text-anchor="start" x="926.5" y="-196.5" font-family="Helvetica,sans-Serif" font-size="10.00" fill="#000000">/Detectors/MUON/MCH/Base</text>
<text text-anchor="middle" x="995" y="-185.5" font-family="Helvetica,sans-Serif" font-size="10.00" fill="#000000">/src/Digit.cxx</text>
</a>
</g>
</g>
<!-- Node2&#45;&gt;Node9 -->
<g id="edge8" class="edge">
<title>Node2&#45;&gt;Node9</title>
<path fill="none" stroke="#191970" d="M1470.3262,-286.6558C1374.1467,-278.0185 1214.7255,-260.5972 1080,-231 1077.2825,-230.403 1074.5268,-229.7589 1071.7519,-229.0774"/>
<polygon fill="#191970" stroke="#191970" points="1470.0258,-290.1428 1480.2959,-287.5399 1470.6442,-283.1701 1470.0258,-290.1428"/>
</g>
<!-- Node10 -->
<g id="node9" class="node">
<title>Node10</title>
<g id="a_node9"><a xlink:href="../../da/d5e/MUON_2MCH_2Simulation_2include_2MCHSimulation_2Digitizer_8h.html" target="_top" xlink:title="/home/travis/build\l/AliceO2Group/AliceO2\l/Detectors/MUON/MCH/Simulation\l/include/MCHSimulation/Digitizer.h">
<polygon fill="none" stroke="#000000" points="1344.5,-178.5 1344.5,-230.5 1529.5,-230.5 1529.5,-178.5 1344.5,-178.5"/>
<text text-anchor="start" x="1352.5" y="-218.5" font-family="Helvetica,sans-Serif" font-size="10.00" fill="#000000">/home/travis/build</text>
<text text-anchor="start" x="1352.5" y="-207.5" font-family="Helvetica,sans-Serif" font-size="10.00" fill="#000000">/AliceO2Group/AliceO2</text>
<text text-anchor="start" x="1352.5" y="-196.5" font-family="Helvetica,sans-Serif" font-size="10.00" fill="#000000">/Detectors/MUON/MCH/Simulation</text>
<text text-anchor="middle" x="1437" y="-185.5" font-family="Helvetica,sans-Serif" font-size="10.00" fill="#000000">/include/MCHSimulation/Digitizer.h</text>
</a>
</g>
</g>
<!-- Node2&#45;&gt;Node10 -->
<g id="edge10" class="edge">
<title>Node2&#45;&gt;Node10</title>
<path fill="none" stroke="#191970" d="M1513.3771,-261.1463C1499.8026,-251.0786 1485.017,-240.1126 1472.1022,-230.5341"/>
<polygon fill="#191970" stroke="#191970" points="1511.5281,-264.1325 1521.6451,-267.2784 1515.698,-258.5101 1511.5281,-264.1325"/>
</g>
<!-- Node12 -->
<g id="node11" class="node">
<title>Node12</title>
<g id="a_node11"><a xlink:href="../../dc/dc3/testDigitization_8cxx.html" target="_top" xlink:title="/home/travis/build\l/AliceO2Group/AliceO2\l/Detectors/MUON/MCH/Simulation\l/test/testDigitization.cxx">
<polygon fill="none" stroke="#000000" points="1294,-89.5 1294,-141.5 1476,-141.5 1476,-89.5 1294,-89.5"/>
<text text-anchor="start" x="1302" y="-129.5" font-family="Helvetica,sans-Serif" font-size="10.00" fill="#000000">/home/travis/build</text>
<text text-anchor="start" x="1302" y="-118.5" font-family="Helvetica,sans-Serif" font-size="10.00" fill="#000000">/AliceO2Group/AliceO2</text>
<text text-anchor="start" x="1302" y="-107.5" font-family="Helvetica,sans-Serif" font-size="10.00" fill="#000000">/Detectors/MUON/MCH/Simulation</text>
<text text-anchor="middle" x="1385" y="-96.5" font-family="Helvetica,sans-Serif" font-size="10.00" fill="#000000">/test/testDigitization.cxx</text>
</a>
</g>
</g>
<!-- Node2&#45;&gt;Node12 -->
<g id="edge23" class="edge">
<title>Node2&#45;&gt;Node12</title>
<path fill="none" stroke="#191970" d="M1470.3525,-280.084C1415.4582,-269.6134 1351.755,-253.1235 1335,-231 1314.2887,-203.6526 1337.7868,-166.4074 1359.0585,-141.6903"/>
<polygon fill="#191970" stroke="#191970" points="1470.0152,-283.5812 1480.4866,-281.969 1471.2953,-276.6992 1470.0152,-283.5812"/>
</g>
<!-- Node13 -->
<g id="node12" class="node">
<title>Node13</title>
<g id="a_node12"><a xlink:href="../../db/d2f/MCHDigitizerSpec_8cxx.html" target="_top" xlink:title="/home/travis/build\l/AliceO2Group/AliceO2\l/Steer/DigitizerWorkflow\l/src/MCHDigitizerSpec.cxx">
<polygon fill="none" stroke="#000000" points="1494,-89.5 1494,-141.5 1638,-141.5 1638,-89.5 1494,-89.5"/>
<text text-anchor="start" x="1502" y="-129.5" font-family="Helvetica,sans-Serif" font-size="10.00" fill="#000000">/home/travis/build</text>
<text text-anchor="start" x="1502" y="-118.5" font-family="Helvetica,sans-Serif" font-size="10.00" fill="#000000">/AliceO2Group/AliceO2</text>
<text text-anchor="start" x="1502" y="-107.5" font-family="Helvetica,sans-Serif" font-size="10.00" fill="#000000">/Steer/DigitizerWorkflow</text>
<text text-anchor="middle" x="1566" y="-96.5" font-family="Helvetica,sans-Serif" font-size="10.00" fill="#000000">/src/MCHDigitizerSpec.cxx</text>
</a>
</g>
</g>
<!-- Node2&#45;&gt;Node13 -->
<g id="edge31" class="edge">
<title>Node2&#45;&gt;Node13</title>
<path fill="none" stroke="#191970" d="M1558.8385,-257.1378C1560.5757,-222.7809 1563.1388,-172.0886 1564.6812,-141.5823"/>
<polygon fill="#191970" stroke="#191970" points="1555.3375,-257.0715 1558.328,-267.2355 1562.3286,-257.425 1555.3375,-257.0715"/>
</g>
<!-- Node14 -->
<g id="node13" class="node">
<title>Node14</title>
<g id="a_node13"><a xlink:href="../../df/d3f/Response_8h.html" target="_top" xlink:title="/home/travis/build\l/AliceO2Group/AliceO2\l/Detectors/MUON/MCH/Simulation\l/include/MCHSimulation/Response.h">
<polygon fill="none" stroke="#000000" points="1089.5,-178.5 1089.5,-230.5 1280.5,-230.5 1280.5,-178.5 1089.5,-178.5"/>
<text text-anchor="start" x="1097.5" y="-218.5" font-family="Helvetica,sans-Serif" font-size="10.00" fill="#000000">/home/travis/build</text>
<text text-anchor="start" x="1097.5" y="-207.5" font-family="Helvetica,sans-Serif" font-size="10.00" fill="#000000">/AliceO2Group/AliceO2</text>
<text text-anchor="start" x="1097.5" y="-196.5" font-family="Helvetica,sans-Serif" font-size="10.00" fill="#000000">/Detectors/MUON/MCH/Simulation</text>
<text text-anchor="middle" x="1185" y="-185.5" font-family="Helvetica,sans-Serif" font-size="10.00" fill="#000000">/include/MCHSimulation/Response.h</text>
</a>
</g>
</g>
<!-- Node2&#45;&gt;Node14 -->
<g id="edge14" class="edge">
<title>Node2&#45;&gt;Node14</title>
<path fill="none" stroke="#191970" d="M1470.3386,-272.7665C1413.5433,-259.1784 1339.2595,-241.4062 1280.7237,-227.4016"/>
<polygon fill="#191970" stroke="#191970" points="1469.8325,-276.2441 1480.3724,-275.1671 1471.4613,-269.4362 1469.8325,-276.2441"/>
</g>
<!-- Node17 -->
<g id="node16" class="node">
<title>Node17</title>
<g id="a_node16"><a xlink:href="../../d9/d18/benchDigitMerging_8cxx.html" target="_top" xlink:title="/home/travis/build\l/AliceO2Group/AliceO2\l/Detectors/MUON/MCH/Simulation\l/test/benchDigitMerging.cxx">
<polygon fill="none" stroke="#000000" points="1656,-89.5 1656,-141.5 1838,-141.5 1838,-89.5 1656,-89.5"/>
<text text-anchor="start" x="1664" y="-129.5" font-family="Helvetica,sans-Serif" font-size="10.00" fill="#000000">/home/travis/build</text>
<text text-anchor="start" x="1664" y="-118.5" font-family="Helvetica,sans-Serif" font-size="10.00" fill="#000000">/AliceO2Group/AliceO2</text>
<text text-anchor="start" x="1664" y="-107.5" font-family="Helvetica,sans-Serif" font-size="10.00" fill="#000000">/Detectors/MUON/MCH/Simulation</text>
<text text-anchor="middle" x="1747" y="-96.5" font-family="Helvetica,sans-Serif" font-size="10.00" fill="#000000">/test/benchDigitMerging.cxx</text>
</a>
</g>
</g>
<!-- Node2&#45;&gt;Node17 -->
<g id="edge18" class="edge">
<title>Node2&#45;&gt;Node17</title>
<path fill="none" stroke="#191970" d="M1567.6685,-257.5475C1576.6225,-232.5814 1591.5943,-199.9809 1614,-178 1629.4802,-162.8133 1649.3432,-150.8212 1668.9718,-141.5765"/>
<polygon fill="#191970" stroke="#191970" points="1564.3452,-256.4488 1564.4175,-267.0434 1570.9679,-258.7161 1564.3452,-256.4488"/>
</g>
<!-- Node18 -->
<g id="node17" class="node">
<title>Node18</title>
<g id="a_node17"><a xlink:href="../../d4/d2c/DigitMerging_8h.html" target="_top" xlink:title="/home/travis/build\l/AliceO2Group/AliceO2\l/Detectors/MUON/MCH/Simulation\l/test/DigitMerging.h">
<polygon fill="none" stroke="#000000" points="1623,-178.5 1623,-230.5 1805,-230.5 1805,-178.5 1623,-178.5"/>
<text text-anchor="start" x="1631" y="-218.5" font-family="Helvetica,sans-Serif" font-size="10.00" fill="#000000">/home/travis/build</text>
<text text-anchor="start" x="1631" y="-207.5" font-family="Helvetica,sans-Serif" font-size="10.00" fill="#000000">/AliceO2Group/AliceO2</text>
<text text-anchor="start" x="1631" y="-196.5" font-family="Helvetica,sans-Serif" font-size="10.00" fill="#000000">/Detectors/MUON/MCH/Simulation</text>
<text text-anchor="middle" x="1714" y="-185.5" font-family="Helvetica,sans-Serif" font-size="10.00" fill="#000000">/test/DigitMerging.h</text>
</a>
</g>
</g>
<!-- Node2&#45;&gt;Node18 -->
<g id="edge19" class="edge">
<title>Node2&#45;&gt;Node18</title>
<path fill="none" stroke="#191970" d="M1612.0697,-262.2821C1630.3698,-251.9082 1650.5402,-240.4741 1668.0746,-230.5341"/>
<polygon fill="#191970" stroke="#191970" points="1610.2294,-259.3021 1603.256,-267.2784 1613.6815,-265.3917 1610.2294,-259.3021"/>
</g>
<!-- Node20 -->
<g id="node19" class="node">
<title>Node20</title>
<g id="a_node19"><a xlink:href="../../d9/d60/testDigitMerging_8cxx.html" target="_top" xlink:title="/home/travis/build\l/AliceO2Group/AliceO2\l/Detectors/MUON/MCH/Simulation\l/test/testDigitMerging.cxx">
<polygon fill="none" stroke="#000000" points="2056,-89.5 2056,-141.5 2238,-141.5 2238,-89.5 2056,-89.5"/>
<text text-anchor="start" x="2064" y="-129.5" font-family="Helvetica,sans-Serif" font-size="10.00" fill="#000000">/home/travis/build</text>
<text text-anchor="start" x="2064" y="-118.5" font-family="Helvetica,sans-Serif" font-size="10.00" fill="#000000">/AliceO2Group/AliceO2</text>
<text text-anchor="start" x="2064" y="-107.5" font-family="Helvetica,sans-Serif" font-size="10.00" fill="#000000">/Detectors/MUON/MCH/Simulation</text>
<text text-anchor="middle" x="2147" y="-96.5" font-family="Helvetica,sans-Serif" font-size="10.00" fill="#000000">/test/testDigitMerging.cxx</text>
</a>
</g>
</g>
<!-- Node2&#45;&gt;Node20 -->
<g id="edge24" class="edge">
<title>Node2&#45;&gt;Node20</title>
<path fill="none" stroke="#191970" d="M1643.5673,-279.1134C1706.853,-267.3715 1786.2711,-249.7135 1814,-231 1838.0252,-214.7861 1827.5303,-193.5349 1852,-178 1926.4034,-130.7639 1961.0084,-161.3019 2047,-142 2049.8915,-141.351 2052.8257,-140.6755 2055.7851,-139.9797"/>
<polygon fill="#191970" stroke="#191970" points="1642.7651,-275.702 1633.5592,-280.9464 1644.0262,-282.5875 1642.7651,-275.702"/>
</g>
<!-- Node21 -->
<g id="node20" class="node">
<title>Node21</title>
<g id="a_node20"><a xlink:href="../../d0/d75/DataDecoderSpec_8cxx.html" target="_top" xlink:title="/home/travis/build\l/AliceO2Group/AliceO2\l/Detectors/MUON/MCH/Workflow\l/src/DataDecoderSpec.cxx">
<polygon fill="none" stroke="#000000" points="1861,-178.5 1861,-230.5 2035,-230.5 2035,-178.5 1861,-178.5"/>
<text text-anchor="start" x="1869" y="-218.5" font-family="Helvetica,sans-Serif" font-size="10.00" fill="#000000">/home/travis/build</text>
<text text-anchor="start" x="1869" y="-207.5" font-family="Helvetica,sans-Serif" font-size="10.00" fill="#000000">/AliceO2Group/AliceO2</text>
<text text-anchor="start" x="1869" y="-196.5" font-family="Helvetica,sans-Serif" font-size="10.00" fill="#000000">/Detectors/MUON/MCH/Workflow</text>
<text text-anchor="middle" x="1948" y="-185.5" font-family="Helvetica,sans-Serif" font-size="10.00" fill="#000000">/src/DataDecoderSpec.cxx</text>
</a>
</g>
</g>
<!-- Node2&#45;&gt;Node21 -->
<g id="edge25" class="edge">
<title>Node2&#45;&gt;Node21</title>
<path fill="none" stroke="#191970" d="M1643.3558,-275.9342C1701.1413,-263.9234 1778.809,-247.2856 1847,-231 1851.4963,-229.9262 1856.0989,-228.8034 1860.7421,-227.652"/>
<polygon fill="#191970" stroke="#191970" points="1642.6133,-272.5137 1633.5323,-277.9713 1644.0347,-279.3679 1642.6133,-272.5137"/>
</g>
<!-- Node22 -->
<g id="node21" class="node">
<title>Node22</title>
<g id="a_node21"><a xlink:href="../../dd/da0/digits-sink-workflow_8cxx.html" target="_top" xlink:title="This is an executable that dumps to a file on disk the digits received via DPL. ">
<polygon fill="none" stroke="#000000" points="2053,-178.5 2053,-230.5 2227,-230.5 2227,-178.5 2053,-178.5"/>
<text text-anchor="start" x="2061" y="-218.5" font-family="Helvetica,sans-Serif" font-size="10.00" fill="#000000">/home/travis/build</text>
<text text-anchor="start" x="2061" y="-207.5" font-family="Helvetica,sans-Serif" font-size="10.00" fill="#000000">/AliceO2Group/AliceO2</text>
<text text-anchor="start" x="2061" y="-196.5" font-family="Helvetica,sans-Serif" font-size="10.00" fill="#000000">/Detectors/MUON/MCH/Workflow</text>
<text text-anchor="middle" x="2140" y="-185.5" font-family="Helvetica,sans-Serif" font-size="10.00" fill="#000000">/src/digits&#45;sink&#45;workflow.cxx</text>
</a>
</g>
</g>
<!-- Node2&#45;&gt;Node22 -->
<g id="edge26" class="edge">
<title>Node2&#45;&gt;Node22</title>
<path fill="none" stroke="#191970" d="M1644.0279,-286.083C1741.9277,-276.8721 1905.377,-258.8819 2044,-231 2046.8816,-230.4204 2049.8038,-229.8009 2052.7486,-229.1494"/>
<polygon fill="#191970" stroke="#191970" points="1643.5166,-282.6153 1633.8844,-287.0279 1644.1659,-289.5852 1643.5166,-282.6153"/>
</g>
<!-- Node23 -->
<g id="node22" class="node">
<title>Node23</title>
<g id="a_node22"><a xlink:href="../../d2/d75/DigitSamplerSpec_8cxx.html" target="_top" xlink:title="Implementation of a data processor to read and send digits. ">
<polygon fill="none" stroke="#000000" points="2245,-178.5 2245,-230.5 2419,-230.5 2419,-178.5 2245,-178.5"/>
<text text-anchor="start" x="2253" y="-218.5" font-family="Helvetica,sans-Serif" font-size="10.00" fill="#000000">/home/travis/build</text>
<text text-anchor="start" x="2253" y="-207.5" font-family="Helvetica,sans-Serif" font-size="10.00" fill="#000000">/AliceO2Group/AliceO2</text>
<text text-anchor="start" x="2253" y="-196.5" font-family="Helvetica,sans-Serif" font-size="10.00" fill="#000000">/Detectors/MUON/MCH/Workflow</text>
<text text-anchor="middle" x="2332" y="-185.5" font-family="Helvetica,sans-Serif" font-size="10.00" fill="#000000">/src/DigitSamplerSpec.cxx</text>
</a>
</g>
</g>
<!-- Node2&#45;&gt;Node23 -->
<g id="edge27" class="edge">
<title>Node2&#45;&gt;Node23</title>
<path fill="none" stroke="#191970" d="M1643.9935,-290.4325C1773.8162,-284.7438 2025.5288,-269.4214 2236,-231 2238.8915,-230.4722 2241.8223,-229.8976 2244.7745,-229.2847"/>
<polygon fill="#191970" stroke="#191970" points="1643.5583,-286.9479 1633.7177,-290.8738 1643.8587,-293.9415 1643.5583,-286.9479"/>
</g>
<!-- Node24 -->
<g id="node23" class="node">
<title>Node24</title>
<g id="a_node23"><a xlink:href="../../db/d1c/file-to-digits-workflow_8cxx.html" target="_top" xlink:title="/home/travis/build\l/AliceO2Group/AliceO2\l/Detectors/MUON/MCH/Workflow\l/src/file&#45;to&#45;digits&#45;workflow.cxx">
<polygon fill="none" stroke="#000000" points="2437,-178.5 2437,-230.5 2611,-230.5 2611,-178.5 2437,-178.5"/>
<text text-anchor="start" x="2445" y="-218.5" font-family="Helvetica,sans-Serif" font-size="10.00" fill="#000000">/home/travis/build</text>
<text text-anchor="start" x="2445" y="-207.5" font-family="Helvetica,sans-Serif" font-size="10.00" fill="#000000">/AliceO2Group/AliceO2</text>
<text text-anchor="start" x="2445" y="-196.5" font-family="Helvetica,sans-Serif" font-size="10.00" fill="#000000">/Detectors/MUON/MCH/Workflow</text>
<text text-anchor="middle" x="2524" y="-185.5" font-family="Helvetica,sans-Serif" font-size="10.00" fill="#000000">/src/file&#45;to&#45;digits&#45;workflow.cxx</text>
</a>
</g>
</g>
<!-- Node2&#45;&gt;Node24 -->
<g id="edge28" class="edge">
<title>Node2&#45;&gt;Node24</title>
<path fill="none" stroke="#191970" d="M1643.9011,-289.4537C1833.4545,-280.2709 2279.0007,-256.651 2428,-231 2430.8967,-230.5013 2433.832,-229.952 2436.788,-229.361"/>
<polygon fill="#191970" stroke="#191970" points="1643.5215,-285.9679 1633.7018,-289.9459 1643.8589,-292.9598 1643.5215,-285.9679"/>
</g>
<!-- Node25 -->
<g id="node24" class="node">
<title>Node25</title>
<g id="a_node24"><a xlink:href="../../d8/d60/MCHDigitWriterSpec_8h.html" target="_top" xlink:title="/home/travis/build\l/AliceO2Group/AliceO2\l/Steer/DigitizerWorkflow\l/src/MCHDigitWriterSpec.h">
<polygon fill="none" stroke="#000000" points="2629,-178.5 2629,-230.5 2773,-230.5 2773,-178.5 2629,-178.5"/>
<text text-anchor="start" x="2637" y="-218.5" font-family="Helvetica,sans-Serif" font-size="10.00" fill="#000000">/home/travis/build</text>
<text text-anchor="start" x="2637" y="-207.5" font-family="Helvetica,sans-Serif" font-size="10.00" fill="#000000">/AliceO2Group/AliceO2</text>
<text text-anchor="start" x="2637" y="-196.5" font-family="Helvetica,sans-Serif" font-size="10.00" fill="#000000">/Steer/DigitizerWorkflow</text>
<text text-anchor="middle" x="2701" y="-185.5" font-family="Helvetica,sans-Serif" font-size="10.00" fill="#000000">/src/MCHDigitWriterSpec.h</text>
</a>
</g>
</g>
<!-- Node2&#45;&gt;Node25 -->
<g id="edge32" class="edge">
<title>Node2&#45;&gt;Node25</title>
<path fill="none" stroke="#191970" d="M1643.813,-291.2729C1862.8272,-285.1928 2433.6106,-266.355 2620,-231 2622.9074,-230.4485 2625.8548,-229.8215 2628.8184,-229.134"/>
<polygon fill="#191970" stroke="#191970" points="1643.5524,-287.7787 1633.6526,-291.5528 1643.7452,-294.776 1643.5524,-287.7787"/>
</g>
<!-- Node4 -->
<g id="node3" class="node">
<title>Node4</title>
<g id="a_node3"><a xlink:href="../../df/df1/MCH_2Base_2src_2PreCluster_8cxx.html" target="_top" xlink:title="/home/travis/build\l/AliceO2Group/AliceO2\l/Detectors/MUON/MCH/Base\l/src/PreCluster.cxx">
<polygon fill="none" stroke="#000000" points="254.5,-89.5 254.5,-141.5 407.5,-141.5 407.5,-89.5 254.5,-89.5"/>
<text text-anchor="start" x="262.5" y="-129.5" font-family="Helvetica,sans-Serif" font-size="10.00" fill="#000000">/home/travis/build</text>
<text text-anchor="start" x="262.5" y="-118.5" font-family="Helvetica,sans-Serif" font-size="10.00" fill="#000000">/AliceO2Group/AliceO2</text>
<text text-anchor="start" x="262.5" y="-107.5" font-family="Helvetica,sans-Serif" font-size="10.00" fill="#000000">/Detectors/MUON/MCH/Base</text>
<text text-anchor="middle" x="331" y="-96.5" font-family="Helvetica,sans-Serif" font-size="10.00" fill="#000000">/src/PreCluster.cxx</text>
</a>
</g>
</g>
<!-- Node3&#45;&gt;Node4 -->
<g id="edge2" class="edge">
<title>Node3&#45;&gt;Node4</title>
<path fill="none" stroke="#191970" d="M397.1565,-171.5755C385.4647,-161.6653 372.8017,-150.9319 361.7144,-141.5341"/>
<polygon fill="#191970" stroke="#191970" points="395.173,-174.4824 405.0644,-178.2784 399.6992,-169.1425 395.173,-174.4824"/>
</g>
<!-- Node3&#45;&gt;Node5 -->
<g id="edge3" class="edge">
<title>Node3&#45;&gt;Node5</title>
<path fill="none" stroke="#191970" d="M343.0181,-178.4768C301.4593,-166.8455 252.5838,-153.1665 211.0205,-141.534"/>
<polygon fill="#191970" stroke="#191970" points="342.2913,-181.9078 352.8646,-181.2325 344.178,-175.1668 342.2913,-181.9078"/>
</g>
<!-- Node3&#45;&gt;Node7 -->
<g id="edge6" class="edge">
<title>Node3&#45;&gt;Node7</title>
<path fill="none" stroke="#191970" d="M436,-168.1378C436,-133.7809 436,-83.0886 436,-52.5823"/>
<polygon fill="#191970" stroke="#191970" points="432.5001,-168.2355 436,-178.2355 439.5001,-168.2355 432.5001,-168.2355"/>
</g>
<!-- Node3&#45;&gt;Node8 -->
<g id="edge7" class="edge">
<title>Node3&#45;&gt;Node8</title>
<path fill="none" stroke="#191970" d="M477.8053,-172.1463C490.8142,-162.0786 504.9837,-151.1126 517.3604,-141.5341"/>
<polygon fill="#191970" stroke="#191970" points="475.648,-169.3901 469.8818,-178.2784 479.9323,-174.926 475.648,-169.3901"/>
</g>
<!-- Node6 -->
<g id="node5" class="node">
<title>Node6</title>
<g id="a_node5"><a xlink:href="../../d8/dfc/PreClusterFinder_8cxx.html" target="_top" xlink:title="/home/travis/build\l/AliceO2Group/AliceO2\l/Detectors/MUON/MCH/PreClustering\l/src/PreClusterFinder.cxx">
<polygon fill="none" stroke="#000000" points="21,-.5 21,-52.5 215,-52.5 215,-.5 21,-.5"/>
<text text-anchor="start" x="29" y="-40.5" font-family="Helvetica,sans-Serif" font-size="10.00" fill="#000000">/home/travis/build</text>
<text text-anchor="start" x="29" y="-29.5" font-family="Helvetica,sans-Serif" font-size="10.00" fill="#000000">/AliceO2Group/AliceO2</text>
<text text-anchor="start" x="29" y="-18.5" font-family="Helvetica,sans-Serif" font-size="10.00" fill="#000000">/Detectors/MUON/MCH/PreClustering</text>
<text text-anchor="middle" x="118" y="-7.5" font-family="Helvetica,sans-Serif" font-size="10.00" fill="#000000">/src/PreClusterFinder.cxx</text>
</a>
</g>
</g>
<!-- Node5&#45;&gt;Node6 -->
<g id="edge4" class="edge">
<title>Node5&#45;&gt;Node6</title>
<path fill="none" stroke="#191970" d="M118,-79.1155C118,-70.2061 118,-60.8475 118,-52.5341"/>
<polygon fill="#191970" stroke="#191970" points="114.5001,-79.2784 118,-89.2784 121.5001,-79.2785 114.5001,-79.2784"/>
</g>
<!-- Node5&#45;&gt;Node7 -->
<g id="edge5" class="edge">
<title>Node5&#45;&gt;Node7</title>
<path fill="none" stroke="#191970" d="M221.0572,-86.657C262.2745,-75.1213 309.2401,-61.9768 348.7346,-50.9233"/>
<polygon fill="#191970" stroke="#191970" points="219.9484,-83.3327 211.2618,-89.3984 221.8351,-90.0737 219.9484,-83.3327"/>
</g>
<!-- Node11 -->
<g id="node10" class="node">
<title>Node11</title>
<g id="a_node10"><a xlink:href="../../d7/de0/MUON_2MCH_2Simulation_2src_2Digitizer_8cxx.html" target="_top" xlink:title="/home/travis/build\l/AliceO2Group/AliceO2\l/Detectors/MUON/MCH/Simulation\l/src/Digitizer.cxx">
<polygon fill="none" stroke="#000000" points="1094,-89.5 1094,-141.5 1276,-141.5 1276,-89.5 1094,-89.5"/>
<text text-anchor="start" x="1102" y="-129.5" font-family="Helvetica,sans-Serif" font-size="10.00" fill="#000000">/home/travis/build</text>
<text text-anchor="start" x="1102" y="-118.5" font-family="Helvetica,sans-Serif" font-size="10.00" fill="#000000">/AliceO2Group/AliceO2</text>
<text text-anchor="start" x="1102" y="-107.5" font-family="Helvetica,sans-Serif" font-size="10.00" fill="#000000">/Detectors/MUON/MCH/Simulation</text>
<text text-anchor="middle" x="1185" y="-96.5" font-family="Helvetica,sans-Serif" font-size="10.00" fill="#000000">/src/Digitizer.cxx</text>
</a>
</g>
</g>
<!-- Node10&#45;&gt;Node11 -->
<g id="edge11" class="edge">
<title>Node10&#45;&gt;Node11</title>
<path fill="none" stroke="#191970" d="M1353.3255,-174.9483C1322.7984,-164.1669 1288.5209,-152.061 1258.9043,-141.6011"/>
<polygon fill="#191970" stroke="#191970" points="1352.4996,-178.3684 1363.0944,-178.3984 1354.8308,-171.768 1352.4996,-178.3684"/>
</g>
<!-- Node10&#45;&gt;Node12 -->
<g id="edge12" class="edge">
<title>Node10&#45;&gt;Node12</title>
<path fill="none" stroke="#191970" d="M1416.5879,-169.5639C1411.1323,-160.2264 1405.3322,-150.2993 1400.211,-141.5341"/>
<polygon fill="#191970" stroke="#191970" points="1413.6127,-171.4098 1421.6795,-178.2784 1419.6567,-167.8785 1413.6127,-171.4098"/>
</g>
<!-- Node10&#45;&gt;Node13 -->
<g id="edge13" class="edge">
<title>Node10&#45;&gt;Node13</title>
<path fill="none" stroke="#191970" d="M1483.482,-172.431C1498.1871,-162.2856 1514.2508,-151.203 1528.2651,-141.5341"/>
<polygon fill="#191970" stroke="#191970" points="1481.2501,-169.7187 1475.0065,-178.2784 1485.2253,-175.4805 1481.2501,-169.7187"/>
</g>
<!-- Node14&#45;&gt;Node11 -->
<g id="edge15" class="edge">
<title>Node14&#45;&gt;Node11</title>
<path fill="none" stroke="#191970" d="M1185,-168.1155C1185,-159.2061 1185,-149.8475 1185,-141.5341"/>
<polygon fill="#191970" stroke="#191970" points="1181.5001,-168.2784 1185,-178.2784 1188.5001,-168.2785 1181.5001,-168.2784"/>
</g>
<!-- Node15 -->
<g id="node14" class="node">
<title>Node15</title>
<g id="a_node14"><a xlink:href="../../d9/dbf/Response_8cxx.html" target="_top" xlink:title="/home/travis/build\l/AliceO2Group/AliceO2\l/Detectors/MUON/MCH/Simulation\l/src/Response.cxx">
<polygon fill="none" stroke="#000000" points="694,-89.5 694,-141.5 876,-141.5 876,-89.5 694,-89.5"/>
<text text-anchor="start" x="702" y="-129.5" font-family="Helvetica,sans-Serif" font-size="10.00" fill="#000000">/home/travis/build</text>
<text text-anchor="start" x="702" y="-118.5" font-family="Helvetica,sans-Serif" font-size="10.00" fill="#000000">/AliceO2Group/AliceO2</text>
<text text-anchor="start" x="702" y="-107.5" font-family="Helvetica,sans-Serif" font-size="10.00" fill="#000000">/Detectors/MUON/MCH/Simulation</text>
<text text-anchor="middle" x="785" y="-96.5" font-family="Helvetica,sans-Serif" font-size="10.00" fill="#000000">/src/Response.cxx</text>
</a>
</g>
</g>
<!-- Node14&#45;&gt;Node15 -->
<g id="edge16" class="edge">
<title>Node14&#45;&gt;Node15</title>
<path fill="none" stroke="#191970" d="M1079.6738,-177.9951C992.2074,-159.3278 967.9684,-160.6233 885,-142 882.1085,-141.351 879.1743,-140.6755 876.2149,-139.9797"/>
<polygon fill="#191970" stroke="#191970" points="1078.9789,-181.4257 1089.4926,-180.1171 1080.4576,-174.5837 1078.9789,-181.4257"/>
</g>
<!-- Node16 -->
<g id="node15" class="node">
<title>Node16</title>
<g id="a_node15"><a xlink:href="../../d5/d7c/testResponse_8cxx.html" target="_top" xlink:title="This task tests of the Response of the MCH digitization. ">
<polygon fill="none" stroke="#000000" points="894,-89.5 894,-141.5 1076,-141.5 1076,-89.5 894,-89.5"/>
<text text-anchor="start" x="902" y="-129.5" font-family="Helvetica,sans-Serif" font-size="10.00" fill="#000000">/home/travis/build</text>
<text text-anchor="start" x="902" y="-118.5" font-family="Helvetica,sans-Serif" font-size="10.00" fill="#000000">/AliceO2Group/AliceO2</text>
<text text-anchor="start" x="902" y="-107.5" font-family="Helvetica,sans-Serif" font-size="10.00" fill="#000000">/Detectors/MUON/MCH/Simulation</text>
<text text-anchor="middle" x="985" y="-96.5" font-family="Helvetica,sans-Serif" font-size="10.00" fill="#000000">/test/testResponse.cxx</text>
</a>
</g>
</g>
<!-- Node14&#45;&gt;Node16 -->
<g id="edge17" class="edge">
<title>Node14&#45;&gt;Node16</title>
<path fill="none" stroke="#191970" d="M1117.0143,-174.2464C1093.1879,-163.6436 1066.6507,-151.8346 1043.6542,-141.6011"/>
<polygon fill="#191970" stroke="#191970" points="1115.7855,-177.5304 1126.3448,-178.3984 1118.6315,-171.1351 1115.7855,-177.5304"/>
</g>
<!-- Node18&#45;&gt;Node17 -->
<g id="edge20" class="edge">
<title>Node18&#45;&gt;Node17</title>
<path fill="none" stroke="#191970" d="M1727.2757,-168.6959C1730.6433,-159.6135 1734.1974,-150.0282 1737.3469,-141.5341"/>
<polygon fill="#191970" stroke="#191970" points="1723.9176,-167.6854 1723.7226,-178.2784 1730.4809,-170.119 1723.9176,-167.6854"/>
</g>
<!-- Node19 -->
<g id="node18" class="node">
<title>Node19</title>
<g id="a_node18"><a xlink:href="../../d0/dcc/DigitMerging_8cxx.html" target="_top" xlink:title="/home/travis/build\l/AliceO2Group/AliceO2\l/Detectors/MUON/MCH/Simulation\l/test/DigitMerging.cxx">
<polygon fill="none" stroke="#000000" points="1856,-89.5 1856,-141.5 2038,-141.5 2038,-89.5 1856,-89.5"/>
<text text-anchor="start" x="1864" y="-129.5" font-family="Helvetica,sans-Serif" font-size="10.00" fill="#000000">/home/travis/build</text>
<text text-anchor="start" x="1864" y="-118.5" font-family="Helvetica,sans-Serif" font-size="10.00" fill="#000000">/AliceO2Group/AliceO2</text>
<text text-anchor="start" x="1864" y="-107.5" font-family="Helvetica,sans-Serif" font-size="10.00" fill="#000000">/Detectors/MUON/MCH/Simulation</text>
<text text-anchor="middle" x="1947" y="-96.5" font-family="Helvetica,sans-Serif" font-size="10.00" fill="#000000">/test/DigitMerging.cxx</text>
</a>
</g>
</g>
<!-- Node18&#45;&gt;Node19 -->
<g id="edge21" class="edge">
<title>Node18&#45;&gt;Node19</title>
<path fill="none" stroke="#191970" d="M1791.7325,-174.8082C1819.8655,-164.0621 1851.4028,-152.0157 1878.6679,-141.6011"/>
<polygon fill="#191970" stroke="#191970" points="1790.4261,-171.5605 1782.3333,-178.3984 1792.924,-178.0997 1790.4261,-171.5605"/>
</g>
<!-- Node18&#45;&gt;Node20 -->
<g id="edge22" class="edge">
<title>Node18&#45;&gt;Node20</title>
<path fill="none" stroke="#191970" d="M1815.1706,-178.7946C1816.4539,-178.5248 1817.7308,-178.2598 1819,-178 1919.5047,-157.4268 1946.6188,-163.1672 2047,-142 2049.8997,-141.3885 2052.841,-140.7458 2055.8066,-140.0784"/>
<polygon fill="#191970" stroke="#191970" points="1814.2609,-175.4104 1805.2284,-180.9478 1815.7426,-182.2517 1814.2609,-175.4104"/>
</g>
<!-- Node26 -->
<g id="node25" class="node">
<title>Node26</title>
<g id="a_node25"><a xlink:href="../../d2/dd7/SimpleDigitizerWorkflow_8cxx.html" target="_top" xlink:title="/home/travis/build\l/AliceO2Group/AliceO2\l/Steer/DigitizerWorkflow\l/src/SimpleDigitizerWorkflow.cxx">
<polygon fill="none" stroke="#000000" points="2613,-89.5 2613,-141.5 2789,-141.5 2789,-89.5 2613,-89.5"/>
<text text-anchor="start" x="2621" y="-129.5" font-family="Helvetica,sans-Serif" font-size="10.00" fill="#000000">/home/travis/build</text>
<text text-anchor="start" x="2621" y="-118.5" font-family="Helvetica,sans-Serif" font-size="10.00" fill="#000000">/AliceO2Group/AliceO2</text>
<text text-anchor="start" x="2621" y="-107.5" font-family="Helvetica,sans-Serif" font-size="10.00" fill="#000000">/Steer/DigitizerWorkflow</text>
<text text-anchor="middle" x="2701" y="-96.5" font-family="Helvetica,sans-Serif" font-size="10.00" fill="#000000">/src/SimpleDigitizerWorkflow.cxx</text>
</a>
</g>
</g>
<!-- Node25&#45;&gt;Node26 -->
<g id="edge33" class="edge">
<title>Node25&#45;&gt;Node26</title>
<path fill="none" stroke="#191970" d="M2701,-168.1155C2701,-159.2061 2701,-149.8475 2701,-141.5341"/>
<polygon fill="#191970" stroke="#191970" points="2697.5001,-168.2784 2701,-178.2784 2704.5001,-168.2785 2697.5001,-168.2784"/>
</g>
</g>
</svg>
        <g id="navigator" transform="translate(0 0)" fill="#404254">
                <rect fill="#f2f5e9" fill-opacity="0.5" stroke="#606060" stroke-width=".5" x="0" y="0" width="60" height="60"/>
                <use id="zoomplus" xlink:href="#zoomPlus" x="17" y="9" onmousedown="handleZoom(evt,'in')"/>
                <use id="zoomminus" xlink:href="#zoomMin" x="42" y="9" onmousedown="handleZoom(evt,'out')"/>
                <use id="reset" xlink:href="#resetDef" x="30" y="36" onmousedown="handleReset()"/>
                <g id="arrowUp" xlink:href="#dirArrow" transform="translate(30 24)" onmousedown="handlePan(0,-1)">
                  <use xlink:href="#rim" fill="#404040">
                        <set attributeName="fill" to="#808080" begin="arrowUp.mouseover" end="arrowUp.mouseout"/>
                  </use>
                  <path fill="none" stroke="white" stroke-width="1.5" d="M0,-3.0v7 M-2.5,-0.5L0,-3.0L2.5,-0.5"/>
                </g>
                <g id="arrowRight" xlink:href="#dirArrow" transform="rotate(90) translate(36 -43)" onmousedown="handlePan(1,0)">
                  <use xlink:href="#rim" fill="#404040">
                        <set attributeName="fill" to="#808080" begin="arrowRight.mouseover" end="arrowRight.mouseout"/>
                  </use>
                  <path fill="none" stroke="white" stroke-width="1.5" d="M0,-3.0v7 M-2.5,-0.5L0,-3.0L2.5,-0.5"/>
                </g>
                <g id="arrowDown" xlink:href="#dirArrow" transform="rotate(180) translate(-30 -48)" onmousedown="handlePan(0,1)">
                  <use xlink:href="#rim" fill="#404040">
                        <set attributeName="fill" to="#808080" begin="arrowDown.mouseover" end="arrowDown.mouseout"/>
                  </use>
                  <path fill="none" stroke="white" stroke-width="1.5" d="M0,-3.0v7 M-2.5,-0.5L0,-3.0L2.5,-0.5"/>
                </g>
                <g id="arrowLeft" xlink:href="#dirArrow" transform="rotate(270) translate(-36 17)" onmousedown="handlePan(-1,0)">
                  <use xlink:href="#rim" fill="#404040">
                        <set attributeName="fill" to="#808080" begin="arrowLeft.mouseover" end="arrowLeft.mouseout"/>
                  </use>
                  <path fill="none" stroke="white" stroke-width="1.5" d="M0,-3.0v7 M-2.5,-0.5L0,-3.0L2.5,-0.5"/>
                </g>
        </g>
        <svg viewBox="0 0 15 15" width="100%" height="30px" preserveAspectRatio="xMaxYMin meet">
         <g id="arrow_out" transform="scale(0.3 0.3)">
          <a xlink:href="Detectors_2MUON_2MCH_2Base_2include_2MCHBase_2Digit_8h__dep__incl_org.svg" target="_base">
           <rect id="button" ry="5" rx="5" y="6" x="6" height="38" width="38"
                fill="#f2f5e9" fill-opacity="0.5" stroke="#606060" stroke-width="1.0"/>
           <path id="arrow"
             d="M 11.500037,31.436501 C 11.940474,20.09759 22.043105,11.32322 32.158766,21.979434 L 37.068811,17.246167 C 37.068811,17.246167 37.088388,32 37.088388,32 L 22.160133,31.978069 C 22.160133,31.978069 26.997745,27.140456 26.997745,27.140456 C 18.528582,18.264221 13.291696,25.230495 11.500037,31.436501 z"
             style="fill:#404040;"/>
          </a>
         </g>
        </svg>
</svg>
