<?xml version="1.0" encoding="UTF-8" standalone="no"?>
<!DOCTYPE svg PUBLIC "-//W3C//DTD SVG 1.1//EN"
 "http://www.w3.org/Graphics/SVG/1.1/DTD/svg11.dtd">
<!-- Generated by graphviz version 2.40.1 (20161225.0304)
 -->
<!-- Title: o2::tpc::TPCSectorHeader Pages: 1 -->
<!--zoomable 1014 -->
<svg id="main" version="1.1" xmlns="http://www.w3.org/2000/svg" xmlns:xlink="http://www.w3.org/1999/xlink" xml:space="preserve" onload="init(evt)">
<style type="text/css"><![CDATA[
.edge:hover path { stroke: red; }
.edge:hover polygon { stroke: red; fill: red; }
]]></style>
<script type="text/javascript"><![CDATA[
var edges = document.getElementsByTagName('g');
if (edges && edges.length) {
  for (var i=0;i<edges.length;i++) {
    if (edges[i].id.substr(0,4)=='edge') {
      edges[i].setAttribute('class','edge');
    }
  }
}
]]></script>
        <defs>
                <circle id="rim" cx="0" cy="0" r="7"/>
                <circle id="rim2" cx="0" cy="0" r="3.5"/>
                <g id="zoomPlus">
                        <use xlink:href="#rim" fill="#404040">
                                <set attributeName="fill" to="#808080" begin="zoomplus.mouseover" end="zoomplus.mouseout"/>
                        </use>
                        <path d="M-4,0h8M0,-4v8" fill="none" stroke="white" stroke-width="1.5" pointer-events="none"/>
                </g>
                <g id="zoomMin">
                        <use xlink:href="#rim" fill="#404040">
                                <set attributeName="fill" to="#808080" begin="zoomminus.mouseover" end="zoomminus.mouseout"/>
                        </use>
                        <path d="M-4,0h8" fill="none" stroke="white" stroke-width="1.5" pointer-events="none"/>
                </g>
                <g id="dirArrow">
                        <path fill="none" stroke="white" stroke-width="1.5" d="M0,-3.0v7 M-2.5,-0.5L0,-3.0L2.5,-0.5"/>
                </g>
               <g id="resetDef">
                       <use xlink:href="#rim2" fill="#404040">
                               <set attributeName="fill" to="#808080" begin="reset.mouseover" end="reset.mouseout"/>
                       </use>
               </g>
        </defs>

<script type="text/javascript">
var viewWidth = 946;
var viewHeight = 1014;
var sectionId = 'dynsection-1';
</script>
<script xlink:href="../../svgpan.js"/>
<svg id="graph" class="graph">
<g id="viewport">
<title>o2::tpc::TPCSectorHeader</title>
<!-- Node2 -->
<g id="node1" class="node">
<title>Node2</title>
<polygon fill="#bfbfbf" stroke="#000000" points="442,-.5 442,-57.5 582,-57.5 582,-.5 442,-.5"/>
<text text-anchor="middle" x="512" y="-45.5" font-family="Helvetica,sans-Serif" font-size="10.00" fill="#000000">o2::tpc::TPCSectorHeader</text>
<polyline fill="none" stroke="#000000" points="442,-38.5 582,-38.5 "/>
<text text-anchor="middle" x="512" y="-26.5" font-family="Helvetica,sans-Serif" font-size="10.00" fill="#000000"> </text>
<polyline fill="none" stroke="#000000" points="442,-19.5 582,-19.5 "/>
<text text-anchor="start" x="450" y="-7.5" font-family="Helvetica,sans-Serif" font-size="10.00" fill="#000000">+ TPCSectorHeader()</text>
</g>
<!-- Node3 -->
<g id="node2" class="node">
<title>Node3</title>
<g id="a_node2"><a xlink:href="../../d8/dbd/structo2_1_1header_1_1BaseHeader.html" target="_top" xlink:title="the base header struct Every header type must begin (i.e. derive) with this. Don&#39;t use this struct di...">
<polygon fill="none" stroke="#000000" points="360,-138.5 360,-283.5 494,-283.5 494,-138.5 360,-138.5"/>
<text text-anchor="middle" x="427" y="-271.5" font-family="Helvetica,sans-Serif" font-size="10.00" fill="#000000">o2::header::BaseHeader</text>
<polyline fill="none" stroke="#000000" points="360,-264.5 494,-264.5 "/>
<text text-anchor="middle" x="427" y="-252.5" font-family="Helvetica,sans-Serif" font-size="10.00" fill="#000000"> </text>
<polyline fill="none" stroke="#000000" points="360,-245.5 494,-245.5 "/>
<text text-anchor="start" x="368" y="-233.5" font-family="Helvetica,sans-Serif" font-size="10.00" fill="#000000">+ BaseHeader()</text>
<text text-anchor="start" x="368" y="-222.5" font-family="Helvetica,sans-Serif" font-size="10.00" fill="#000000">+ BaseHeader()</text>
<text text-anchor="start" x="368" y="-211.5" font-family="Helvetica,sans-Serif" font-size="10.00" fill="#000000">+ BaseHeader()</text>
<text text-anchor="start" x="368" y="-200.5" font-family="Helvetica,sans-Serif" font-size="10.00" fill="#000000">+ size()</text>
<text text-anchor="start" x="368" y="-189.5" font-family="Helvetica,sans-Serif" font-size="10.00" fill="#000000">+ data()</text>
<text text-anchor="start" x="368" y="-178.5" font-family="Helvetica,sans-Serif" font-size="10.00" fill="#000000">+ next()</text>
<text text-anchor="start" x="368" y="-167.5" font-family="Helvetica,sans-Serif" font-size="10.00" fill="#000000">+ next()</text>
<text text-anchor="start" x="368" y="-156.5" font-family="Helvetica,sans-Serif" font-size="10.00" fill="#000000">+ get()</text>
<text text-anchor="start" x="368" y="-145.5" font-family="Helvetica,sans-Serif" font-size="10.00" fill="#000000">+ get()</text>
</a>
</g>
</g>
<!-- Node3&#45;&gt;Node2 -->
<g id="edge1" class="edge">
<title>Node3&#45;&gt;Node2</title>
<path fill="none" stroke="#191970" d="M465.3344,-128.9192C477.2796,-103.3425 489.6679,-76.8169 498.676,-57.5289"/>
<polygon fill="none" stroke="#191970" points="462.0211,-127.7425 460.9607,-138.2841 468.3635,-130.7046 462.0211,-127.7425"/>
</g>
<!-- Node4 -->
<g id="node3" class="node">
<title>Node4</title>
<g id="a_node3"><a xlink:href="../../d9/db3/structo2_1_1header_1_1Descriptor.html" target="_top" xlink:title="{o2::header::Descriptor\l\&lt; gSizeHeaderDescriptionString \&gt;\n||+ Descriptor()\l+ Descriptor()\l+ Descriptor()\l+ Descriptor()\l+ operator=()\l+ operator ItgType()\l+ runtimeInit()\l+ operator==()\l+ operator==()\l+ operator\&lt;()\l+ operator!=()\l+ operator!=()\l+ as()\l+ print()\l}">
<polygon fill="none" stroke="#000000" points="185.5,-397.5 185.5,-608.5 370.5,-608.5 370.5,-397.5 185.5,-397.5"/>
<text text-anchor="start" x="193.5" y="-596.5" font-family="Helvetica,sans-Serif" font-size="10.00" fill="#000000">o2::header::Descriptor</text>
<text text-anchor="middle" x="278" y="-585.5" font-family="Helvetica,sans-Serif" font-size="10.00" fill="#000000">&lt; gSizeHeaderDescriptionString &gt;</text>
<polyline fill="none" stroke="#000000" points="185.5,-578.5 370.5,-578.5 "/>
<text text-anchor="middle" x="278" y="-566.5" font-family="Helvetica,sans-Serif" font-size="10.00" fill="#000000"> </text>
<polyline fill="none" stroke="#000000" points="185.5,-559.5 370.5,-559.5 "/>
<text text-anchor="start" x="193.5" y="-547.5" font-family="Helvetica,sans-Serif" font-size="10.00" fill="#000000">+ Descriptor()</text>
<text text-anchor="start" x="193.5" y="-536.5" font-family="Helvetica,sans-Serif" font-size="10.00" fill="#000000">+ Descriptor()</text>
<text text-anchor="start" x="193.5" y="-525.5" font-family="Helvetica,sans-Serif" font-size="10.00" fill="#000000">+ Descriptor()</text>
<text text-anchor="start" x="193.5" y="-514.5" font-family="Helvetica,sans-Serif" font-size="10.00" fill="#000000">+ Descriptor()</text>
<text text-anchor="start" x="193.5" y="-503.5" font-family="Helvetica,sans-Serif" font-size="10.00" fill="#000000">+ operator=()</text>
<text text-anchor="start" x="193.5" y="-492.5" font-family="Helvetica,sans-Serif" font-size="10.00" fill="#000000">+ operator ItgType()</text>
<text text-anchor="start" x="193.5" y="-481.5" font-family="Helvetica,sans-Serif" font-size="10.00" fill="#000000">+ runtimeInit()</text>
<text text-anchor="start" x="193.5" y="-470.5" font-family="Helvetica,sans-Serif" font-size="10.00" fill="#000000">+ operator==()</text>
<text text-anchor="start" x="193.5" y="-459.5" font-family="Helvetica,sans-Serif" font-size="10.00" fill="#000000">+ operator==()</text>
<text text-anchor="start" x="193.5" y="-448.5" font-family="Helvetica,sans-Serif" font-size="10.00" fill="#000000">+ operator&lt;()</text>
<text text-anchor="start" x="193.5" y="-437.5" font-family="Helvetica,sans-Serif" font-size="10.00" fill="#000000">+ operator!=()</text>
<text text-anchor="start" x="193.5" y="-426.5" font-family="Helvetica,sans-Serif" font-size="10.00" fill="#000000">+ operator!=()</text>
<text text-anchor="start" x="193.5" y="-415.5" font-family="Helvetica,sans-Serif" font-size="10.00" fill="#000000">+ as()</text>
<text text-anchor="start" x="193.5" y="-404.5" font-family="Helvetica,sans-Serif" font-size="10.00" fill="#000000">+ print()</text>
</a>
</g>
</g>
<!-- Node4&#45;&gt;Node3 -->
<g id="edge2" class="edge">
<title>Node4&#45;&gt;Node3</title>
<path fill="none" stroke="#404040" d="M269.9727,-397.3453C271.8325,-364.9514 278.5216,-330.3968 295,-302 307.7862,-279.9659 328.3016,-262.0555 349.3853,-248.1366"/>
<polygon fill="none" stroke="#404040" points="349.5893,-248.0085 352.5413,-241.4292 359.7498,-241.6237 356.7978,-248.2029 349.5893,-248.0085"/>
<text text-anchor="middle" x="328" y="-338" font-family="Helvetica,sans-Serif" font-size="10.00" fill="#000000"> +description</text>
</g>
<!-- Node5 -->
<g id="node4" class="node">
<title>Node5</title>
<polygon fill="none" stroke="#bfbfbf" points="389.5,-948.5 389.5,-1005.5 428.5,-1005.5 428.5,-948.5 389.5,-948.5"/>
<text text-anchor="middle" x="409" y="-993.5" font-family="Helvetica,sans-Serif" font-size="10.00" fill="#000000">Type</text>
<polyline fill="none" stroke="#bfbfbf" points="389.5,-986.5 428.5,-986.5 "/>
<text text-anchor="middle" x="409" y="-974.5" font-family="Helvetica,sans-Serif" font-size="10.00" fill="#000000"> </text>
<polyline fill="none" stroke="#bfbfbf" points="389.5,-967.5 428.5,-967.5 "/>
<text text-anchor="middle" x="409" y="-955.5" font-family="Helvetica,sans-Serif" font-size="10.00" fill="#000000"> </text>
</g>
<!-- Node5&#45;&gt;Node4 -->
<g id="edge3" class="edge">
<title>Node5&#45;&gt;Node4</title>
<path fill="none" stroke="#404040" d="M391.2696,-948.176C379.1658,-930.8498 361.6171,-909.755 341,-897 312.5825,-879.4192 288.6072,-905.3056 268,-879 237.5399,-840.1169 246.5718,-715.8872 259.0581,-620.7579"/>
<polygon fill="none" stroke="#404040" points="259.0774,-620.6136 255.9125,-614.1341 260.6763,-608.7206 263.8412,-615.2001 259.0774,-620.6136"/>
<text text-anchor="middle" x="280.5" y="-770.5" font-family="Helvetica,sans-Serif" font-size="10.00" fill="#000000"> +itg</text>
</g>
<!-- Node9 -->
<g id="node8" class="node">
<title>Node9</title>
<g id="a_node8"><a xlink:href="../../d9/db3/structo2_1_1header_1_1Descriptor.html" target="_top" xlink:title="{o2::header::Descriptor\l\&lt; N, PrinterPolicy \&gt;\n||+ Descriptor()\l+ Descriptor()\l+ Descriptor()\l+ operator=()\l+ operator ItgType()\l+ Descriptor()\l+ runtimeInit()\l+ operator==()\l+ operator\&lt;()\l+ operator!=()\l+ operator==()\l+ operator!=()\l+ as()\l+ print()\l}">
<polygon fill="none" stroke="#000000" points="452.5,-667.5 452.5,-878.5 577.5,-878.5 577.5,-667.5 452.5,-667.5"/>
<text text-anchor="start" x="460.5" y="-866.5" font-family="Helvetica,sans-Serif" font-size="10.00" fill="#000000">o2::header::Descriptor</text>
<text text-anchor="middle" x="515" y="-855.5" font-family="Helvetica,sans-Serif" font-size="10.00" fill="#000000">&lt; N, PrinterPolicy &gt;</text>
<polyline fill="none" stroke="#000000" points="452.5,-848.5 577.5,-848.5 "/>
<text text-anchor="middle" x="515" y="-836.5" font-family="Helvetica,sans-Serif" font-size="10.00" fill="#000000"> </text>
<polyline fill="none" stroke="#000000" points="452.5,-829.5 577.5,-829.5 "/>
<text text-anchor="start" x="460.5" y="-817.5" font-family="Helvetica,sans-Serif" font-size="10.00" fill="#000000">+ Descriptor()</text>
<text text-anchor="start" x="460.5" y="-806.5" font-family="Helvetica,sans-Serif" font-size="10.00" fill="#000000">+ Descriptor()</text>
<text text-anchor="start" x="460.5" y="-795.5" font-family="Helvetica,sans-Serif" font-size="10.00" fill="#000000">+ Descriptor()</text>
<text text-anchor="start" x="460.5" y="-784.5" font-family="Helvetica,sans-Serif" font-size="10.00" fill="#000000">+ operator=()</text>
<text text-anchor="start" x="460.5" y="-773.5" font-family="Helvetica,sans-Serif" font-size="10.00" fill="#000000">+ operator ItgType()</text>
<text text-anchor="start" x="460.5" y="-762.5" font-family="Helvetica,sans-Serif" font-size="10.00" fill="#000000">+ Descriptor()</text>
<text text-anchor="start" x="460.5" y="-751.5" font-family="Helvetica,sans-Serif" font-size="10.00" fill="#000000">+ runtimeInit()</text>
<text text-anchor="start" x="460.5" y="-740.5" font-family="Helvetica,sans-Serif" font-size="10.00" fill="#000000">+ operator==()</text>
<text text-anchor="start" x="460.5" y="-729.5" font-family="Helvetica,sans-Serif" font-size="10.00" fill="#000000">+ operator&lt;()</text>
<text text-anchor="start" x="460.5" y="-718.5" font-family="Helvetica,sans-Serif" font-size="10.00" fill="#000000">+ operator!=()</text>
<text text-anchor="start" x="460.5" y="-707.5" font-family="Helvetica,sans-Serif" font-size="10.00" fill="#000000">+ operator==()</text>
<text text-anchor="start" x="460.5" y="-696.5" font-family="Helvetica,sans-Serif" font-size="10.00" fill="#000000">+ operator!=()</text>
<text text-anchor="start" x="460.5" y="-685.5" font-family="Helvetica,sans-Serif" font-size="10.00" fill="#000000">+ as()</text>
<text text-anchor="start" x="460.5" y="-674.5" font-family="Helvetica,sans-Serif" font-size="10.00" fill="#000000">+ print()</text>
</a>
</g>
</g>
<!-- Node5&#45;&gt;Node9 -->
<g id="edge8" class="edge">
<title>Node5&#45;&gt;Node9</title>
<path fill="none" stroke="#404040" d="M423.9624,-948.2045C432.2507,-932.2534 443.162,-911.2542 454.5414,-889.3542"/>
<polygon fill="none" stroke="#404040" points="454.6229,-889.1974 453.8399,-882.0289 460.1559,-878.5491 460.9388,-885.7176 454.6229,-889.1974"/>
<text text-anchor="middle" x="462.5" y="-911" font-family="Helvetica,sans-Serif" font-size="10.00" fill="#000000"> +itg</text>
</g>
<!-- Node11 -->
<g id="node10" class="node">
<title>Node11</title>
<g id="a_node10"><a xlink:href="../../d9/db3/structo2_1_1header_1_1Descriptor.html" target="_top" xlink:title="{o2::header::Descriptor\l\&lt; gSizeSerializationMethodString \&gt;\n||+ Descriptor()\l+ Descriptor()\l+ Descriptor()\l+ Descriptor()\l+ operator=()\l+ operator ItgType()\l+ runtimeInit()\l+ operator==()\l+ operator==()\l+ operator\&lt;()\l+ operator!=()\l+ operator!=()\l+ as()\l+ print()\l}">
<polygon fill="none" stroke="#000000" points="648.5,-397.5 648.5,-608.5 839.5,-608.5 839.5,-397.5 648.5,-397.5"/>
<text text-anchor="start" x="656.5" y="-596.5" font-family="Helvetica,sans-Serif" font-size="10.00" fill="#000000">o2::header::Descriptor</text>
<text text-anchor="middle" x="744" y="-585.5" font-family="Helvetica,sans-Serif" font-size="10.00" fill="#000000">&lt; gSizeSerializationMethodString &gt;</text>
<polyline fill="none" stroke="#000000" points="648.5,-578.5 839.5,-578.5 "/>
<text text-anchor="middle" x="744" y="-566.5" font-family="Helvetica,sans-Serif" font-size="10.00" fill="#000000"> </text>
<polyline fill="none" stroke="#000000" points="648.5,-559.5 839.5,-559.5 "/>
<text text-anchor="start" x="656.5" y="-547.5" font-family="Helvetica,sans-Serif" font-size="10.00" fill="#000000">+ Descriptor()</text>
<text text-anchor="start" x="656.5" y="-536.5" font-family="Helvetica,sans-Serif" font-size="10.00" fill="#000000">+ Descriptor()</text>
<text text-anchor="start" x="656.5" y="-525.5" font-family="Helvetica,sans-Serif" font-size="10.00" fill="#000000">+ Descriptor()</text>
<text text-anchor="start" x="656.5" y="-514.5" font-family="Helvetica,sans-Serif" font-size="10.00" fill="#000000">+ Descriptor()</text>
<text text-anchor="start" x="656.5" y="-503.5" font-family="Helvetica,sans-Serif" font-size="10.00" fill="#000000">+ operator=()</text>
<text text-anchor="start" x="656.5" y="-492.5" font-family="Helvetica,sans-Serif" font-size="10.00" fill="#000000">+ operator ItgType()</text>
<text text-anchor="start" x="656.5" y="-481.5" font-family="Helvetica,sans-Serif" font-size="10.00" fill="#000000">+ runtimeInit()</text>
<text text-anchor="start" x="656.5" y="-470.5" font-family="Helvetica,sans-Serif" font-size="10.00" fill="#000000">+ operator==()</text>
<text text-anchor="start" x="656.5" y="-459.5" font-family="Helvetica,sans-Serif" font-size="10.00" fill="#000000">+ operator==()</text>
<text text-anchor="start" x="656.5" y="-448.5" font-family="Helvetica,sans-Serif" font-size="10.00" fill="#000000">+ operator&lt;()</text>
<text text-anchor="start" x="656.5" y="-437.5" font-family="Helvetica,sans-Serif" font-size="10.00" fill="#000000">+ operator!=()</text>
<text text-anchor="start" x="656.5" y="-426.5" font-family="Helvetica,sans-Serif" font-size="10.00" fill="#000000">+ operator!=()</text>
<text text-anchor="start" x="656.5" y="-415.5" font-family="Helvetica,sans-Serif" font-size="10.00" fill="#000000">+ as()</text>
<text text-anchor="start" x="656.5" y="-404.5" font-family="Helvetica,sans-Serif" font-size="10.00" fill="#000000">+ print()</text>
</a>
</g>
</g>
<!-- Node5&#45;&gt;Node11 -->
<g id="edge15" class="edge">
<title>Node5&#45;&gt;Node11</title>
<path fill="none" stroke="#404040" d="M399.8247,-948.4199C382.6362,-888.8389 352.9562,-750.0125 419,-667 433.4165,-648.8794 587.0996,-626.117 636.9842,-608.7549"/>
<polygon fill="none" stroke="#404040" points="637.2703,-608.632 641.2042,-602.5885 648.2959,-603.8953 644.362,-609.9389 637.2703,-608.632"/>
<text text-anchor="middle" x="431.5" y="-770.5" font-family="Helvetica,sans-Serif" font-size="10.00" fill="#000000"> +itg</text>
</g>
<!-- Node6 -->
<g id="node5" class="node">
<title>Node6</title>
<polygon fill="none" stroke="#bfbfbf" points="766,-948.5 766,-1005.5 804,-1005.5 804,-948.5 766,-948.5"/>
<text text-anchor="middle" x="785" y="-993.5" font-family="Helvetica,sans-Serif" font-size="10.00" fill="#000000">char</text>
<polyline fill="none" stroke="#bfbfbf" points="766,-986.5 804,-986.5 "/>
<text text-anchor="middle" x="785" y="-974.5" font-family="Helvetica,sans-Serif" font-size="10.00" fill="#000000"> </text>
<polyline fill="none" stroke="#bfbfbf" points="766,-967.5 804,-967.5 "/>
<text text-anchor="middle" x="785" y="-955.5" font-family="Helvetica,sans-Serif" font-size="10.00" fill="#000000"> </text>
</g>
<!-- Node6&#45;&gt;Node3 -->
<g id="edge12" class="edge">
<title>Node6&#45;&gt;Node3</title>
<path fill="none" stroke="#404040" d="M796.0934,-948.4655C827.7321,-862.8064 912.174,-601.2062 849,-397 833.8801,-348.1259 828.4641,-327.3027 784,-302 732.4844,-272.6846 577.8117,-305.3748 505.4058,-283.6776"/>
<polygon fill="none" stroke="#404040" points="505.3742,-283.6661 498.3629,-285.3518 494.1102,-279.5282 501.1215,-277.8425 505.3742,-283.6661"/>
<text text-anchor="middle" x="903" y="-635.5" font-family="Helvetica,sans-Serif" font-size="10.00" fill="#000000"> +magicString</text>
</g>
<!-- Node6&#45;&gt;Node4 -->
<g id="edge4" class="edge">
<title>Node6&#45;&gt;Node4</title>
<path fill="none" stroke="#404040" d="M765.6671,-964.369C742.0956,-947.8199 703.0516,-916.4569 684,-879 640.8584,-794.1801 718.6109,-736.8644 654,-667 628.961,-639.9251 608.2356,-659.8837 573,-649 547.8452,-641.2301 543.4785,-633.6319 518,-627 461.2475,-612.2277 437.4033,-634.278 381.4462,-609.5486"/>
<polygon fill="none" stroke="#404040" points="381.4352,-609.5434 374.2967,-610.5641 370.609,-604.3672 377.7475,-603.3466 381.4352,-609.5434"/>
<text text-anchor="middle" x="696.5" y="-770.5" font-family="Helvetica,sans-Serif" font-size="10.00" fill="#000000"> +str</text>
</g>
<!-- Node6&#45;&gt;Node9 -->
<g id="edge9" class="edge">
<title>Node6&#45;&gt;Node9</title>
<path fill="none" stroke="#404040" d="M765.9987,-970.7664C729.2792,-958.0311 647.3242,-926.1887 592,-879 590.1505,-877.4224 588.3211,-875.7918 586.5136,-874.1154"/>
<polygon fill="none" stroke="#404040" points="586.2065,-873.8124 579.126,-872.4458 577.6643,-865.3844 584.7447,-866.751 586.2065,-873.8124"/>
<text text-anchor="middle" x="677.5" y="-911" font-family="Helvetica,sans-Serif" font-size="10.00" fill="#000000"> +str</text>
</g>
<!-- Node6&#45;&gt;Node11 -->
<g id="edge16" class="edge">
<title>Node6&#45;&gt;Node11</title>
<path fill="none" stroke="#404040" d="M786.9804,-948.228C790.2817,-893.3126 795.3986,-769.86 783,-667 781.1719,-651.8342 778.4681,-636.0351 775.3215,-620.4914"/>
<polygon fill="none" stroke="#404040" points="775.3051,-620.4129 770.1562,-615.3642 772.8362,-608.6696 777.9851,-613.7183 775.3051,-620.4129"/>
<text text-anchor="middle" x="802.5" y="-770.5" font-family="Helvetica,sans-Serif" font-size="10.00" fill="#000000"> +str</text>
</g>
<!-- Node7 -->
<g id="node6" class="node">
<title>Node7</title>
<polygon fill="none" stroke="#bfbfbf" points="175.5,-948.5 175.5,-1005.5 204.5,-1005.5 204.5,-948.5 175.5,-948.5"/>
<text text-anchor="middle" x="190" y="-993.5" font-family="Helvetica,sans-Serif" font-size="10.00" fill="#000000">int</text>
<polyline fill="none" stroke="#bfbfbf" points="175.5,-986.5 204.5,-986.5 "/>
<text text-anchor="middle" x="190" y="-974.5" font-family="Helvetica,sans-Serif" font-size="10.00" fill="#000000"> </text>
<polyline fill="none" stroke="#bfbfbf" points="175.5,-967.5 204.5,-967.5 "/>
<text text-anchor="middle" x="190" y="-955.5" font-family="Helvetica,sans-Serif" font-size="10.00" fill="#000000"> </text>
</g>
<!-- Node7&#45;&gt;Node2 -->
<g id="edge24" class="edge">
<title>Node7&#45;&gt;Node2</title>
<path fill="none" stroke="#404040" d="M175.4065,-970.2398C130.9156,-948.514 0,-875.847 0,-773 0,-773 0,-773 0,-211 0,-120.8475 285.3868,-63.8628 430.0268,-40.771"/>
<polygon fill="none" stroke="#404040" points="430.0282,-40.7709 435.3329,-35.8861 441.8821,-38.9039 436.5775,-43.7887 430.0282,-40.7709"/>
<text text-anchor="middle" x="21" y="-500.5" font-family="Helvetica,sans-Serif" font-size="10.00" fill="#000000"> +sector</text>
</g>
<!-- Node7&#45;&gt;Node4 -->
<g id="edge5" class="edge">
<title>Node7&#45;&gt;Node4</title>
<path fill="none" stroke="#404040" d="M182.4054,-948.4969C168.9439,-893.0085 144.9239,-767.1436 174,-667 178.6974,-650.8214 185.5233,-634.7103 193.4679,-619.2568"/>
<polygon fill="none" stroke="#404040" points="193.4713,-619.2503 192.7762,-612.0728 199.1343,-608.6705 199.8294,-615.8481 193.4713,-619.2503"/>
<text text-anchor="middle" x="203" y="-781.5" font-family="Helvetica,sans-Serif" font-size="10.00" fill="#000000"> +arraySize</text>
<text text-anchor="middle" x="203" y="-770.5" font-family="Helvetica,sans-Serif" font-size="10.00" fill="#000000">+size</text>
<text text-anchor="middle" x="203" y="-759.5" font-family="Helvetica,sans-Serif" font-size="10.00" fill="#000000">+bitcount</text>
</g>
<!-- Node7&#45;&gt;Node9 -->
<g id="edge10" class="edge">
<title>Node7&#45;&gt;Node9</title>
<path fill="none" stroke="#404040" d="M204.8911,-969.6233C235.7078,-954.5525 308.9552,-919.7371 373,-897 401.2487,-886.9712 413.3677,-896.0827 438,-879 439.7026,-877.8192 441.3816,-876.5883 443.0364,-875.3122"/>
<polygon fill="none" stroke="#404040" points="443.0728,-875.2815 445.0811,-868.3556 452.2466,-867.5457 450.2383,-874.4715 443.0728,-875.2815"/>
<text text-anchor="middle" x="402" y="-922" font-family="Helvetica,sans-Serif" font-size="10.00" fill="#000000"> +arraySize</text>
<text text-anchor="middle" x="402" y="-911" font-family="Helvetica,sans-Serif" font-size="10.00" fill="#000000">+size</text>
<text text-anchor="middle" x="402" y="-900" font-family="Helvetica,sans-Serif" font-size="10.00" fill="#000000">+bitcount</text>
</g>
<!-- Node7&#45;&gt;Node11 -->
<g id="edge17" class="edge">
<title>Node7&#45;&gt;Node11</title>
<path fill="none" stroke="#404040" d="M204.6814,-968.0018C227.9315,-952.8577 272.6667,-919.886 293,-879 314.1121,-836.5479 284.5002,-701.5205 317,-667 348.8551,-633.1643 376.0024,-663.9603 420,-649 439.9507,-642.2162 441.8174,-633.059 462,-627 534.4382,-605.2535 565.2712,-639.743 636.8994,-609.8078"/>
<polygon fill="none" stroke="#404040" points="637.3288,-609.6138 641.1492,-603.4978 648.2641,-604.672 644.4437,-610.788 637.3288,-609.6138"/>
<text text-anchor="middle" x="346" y="-781.5" font-family="Helvetica,sans-Serif" font-size="10.00" fill="#000000"> +arraySize</text>
<text text-anchor="middle" x="346" y="-770.5" font-family="Helvetica,sans-Serif" font-size="10.00" fill="#000000">+size</text>
<text text-anchor="middle" x="346" y="-759.5" font-family="Helvetica,sans-Serif" font-size="10.00" fill="#000000">+bitcount</text>
</g>
<!-- Node8 -->
<g id="node7" class="node">
<title>Node8</title>
<polygon fill="none" stroke="#bfbfbf" points="560.5,-948.5 560.5,-1005.5 667.5,-1005.5 667.5,-948.5 560.5,-948.5"/>
<text text-anchor="middle" x="614" y="-993.5" font-family="Helvetica,sans-Serif" font-size="10.00" fill="#000000">anonymous:+@38</text>
<polyline fill="none" stroke="#bfbfbf" points="560.5,-986.5 667.5,-986.5 "/>
<text text-anchor="middle" x="614" y="-974.5" font-family="Helvetica,sans-Serif" font-size="10.00" fill="#000000"> </text>
<polyline fill="none" stroke="#bfbfbf" points="560.5,-967.5 667.5,-967.5 "/>
<text text-anchor="middle" x="614" y="-955.5" font-family="Helvetica,sans-Serif" font-size="10.00" fill="#000000"> </text>
</g>
<!-- Node8&#45;&gt;Node4 -->
<g id="edge6" class="edge">
<title>Node8&#45;&gt;Node4</title>
<path fill="none" stroke="#404040" d="M615.3436,-948.4445C617.965,-880.2246 620.8394,-710.2322 587,-667 582.7659,-661.5907 476.6343,-628.7816 470,-627 433.6045,-617.2263 417.9027,-626.8684 381.5715,-609.7041"/>
<polygon fill="none" stroke="#404040" points="381.4057,-609.6186 374.2393,-610.4204 370.7428,-604.1137 377.9092,-603.3118 381.4057,-609.6186"/>
<text text-anchor="middle" x="633" y="-770.5" font-family="Helvetica,sans-Serif" font-size="10.00" fill="#000000"> +@38</text>
</g>
<!-- Node8&#45;&gt;Node9 -->
<g id="edge11" class="edge">
<title>Node8&#45;&gt;Node9</title>
<path fill="none" stroke="#404040" d="M580.3832,-948.311C575.0554,-942.6442 569.9948,-936.443 566,-930 558.314,-917.6035 551.6683,-903.9308 545.9531,-889.9791"/>
<polygon fill="none" stroke="#404040" points="545.9329,-889.9272 540.0241,-885.7936 541.567,-878.7495 547.4758,-882.883 545.9329,-889.9272"/>
<text text-anchor="middle" x="583" y="-911" font-family="Helvetica,sans-Serif" font-size="10.00" fill="#000000"> +@38</text>
</g>
<!-- Node8&#45;&gt;Node11 -->
<g id="edge18" class="edge">
<title>Node8&#45;&gt;Node11</title>
<path fill="none" stroke="#404040" d="M667.8484,-952.3003C677.4864,-946.0661 686.7521,-938.6379 694,-930 709.5479,-911.4703 707.7345,-902.6085 713,-879 731.9762,-793.917 739.6002,-695.6751 742.5468,-620.9529"/>
<polygon fill="none" stroke="#404040" points="742.5564,-620.6904 738.7792,-614.5477 742.9966,-608.6985 746.7738,-614.8412 742.5564,-620.6904"/>
<text text-anchor="middle" x="757" y="-770.5" font-family="Helvetica,sans-Serif" font-size="10.00" fill="#000000"> +@38</text>
</g>
<!-- Node9&#45;&gt;Node4 -->
<g id="edge7" class="edge">
<title>Node9&#45;&gt;Node4</title>
<path fill="none" stroke="#ffa500" d="M444.4463,-671.376C442.3406,-669.8372 440.1917,-668.3751 438,-667 399.7469,-642.9998 373.1288,-677.3774 338,-649 324.6765,-638.2371 314.2823,-624.0273 306.1813,-608.6951"/>
<polygon fill="#ffa500" stroke="#ffa500" points="442.3486,-674.1797 452.3524,-677.6691 446.7081,-668.7029 442.3486,-674.1797"/>
<text text-anchor="start" x="338" y="-641" font-family="Helvetica,sans-Serif" font-size="10.00" fill="#000000"> &lt; gSizeHeaderDescription</text>
<text text-anchor="middle" x="404" y="-630" font-family="Helvetica,sans-Serif" font-size="10.00" fill="#000000">String &gt;</text>
</g>
<!-- Node9&#45;&gt;Node11 -->
<g id="edge19" class="edge">
<title>Node9&#45;&gt;Node11</title>
<path fill="none" stroke="#ffa500" d="M565.1735,-658.7512C573.3414,-647.0897 582.5957,-636.1795 593,-627 609.7733,-612.2013 621.2938,-621.2647 640,-609 642.8028,-607.1623 645.5892,-605.238 648.3535,-603.2404"/>
<polygon fill="#ffa500" stroke="#ffa500" points="562.0653,-657.1029 559.417,-667.3614 567.8846,-660.9934 562.0653,-657.1029"/>
<text text-anchor="start" x="593" y="-641" font-family="Helvetica,sans-Serif" font-size="10.00" fill="#000000"> &lt; gSizeSerializationMethod</text>
<text text-anchor="middle" x="662" y="-630" font-family="Helvetica,sans-Serif" font-size="10.00" fill="#000000">String &gt;</text>
</g>
<!-- Node10 -->
<g id="node9" class="node">
<title>Node10</title>
<polygon fill="none" stroke="#bfbfbf" points="60.5,-474.5 60.5,-531.5 167.5,-531.5 167.5,-474.5 60.5,-474.5"/>
<text text-anchor="middle" x="114" y="-519.5" font-family="Helvetica,sans-Serif" font-size="10.00" fill="#000000">anonymous:+@40</text>
<polyline fill="none" stroke="#bfbfbf" points="60.5,-512.5 167.5,-512.5 "/>
<text text-anchor="middle" x="114" y="-500.5" font-family="Helvetica,sans-Serif" font-size="10.00" fill="#000000"> </text>
<polyline fill="none" stroke="#bfbfbf" points="60.5,-493.5 167.5,-493.5 "/>
<text text-anchor="middle" x="114" y="-481.5" font-family="Helvetica,sans-Serif" font-size="10.00" fill="#000000"> </text>
</g>
<!-- Node10&#45;&gt;Node3 -->
<g id="edge13" class="edge">
<title>Node10&#45;&gt;Node3</title>
<path fill="none" stroke="#404040" d="M124.7671,-474.3486C142.0813,-431.6904 179.8536,-351.2344 235,-302 267.543,-272.9458 310.9947,-251.315 348.3307,-236.4494"/>
<polygon fill="none" stroke="#404040" points="348.51,-236.3801 352.6637,-230.4854 359.7025,-232.0524 355.5488,-237.9471 348.51,-236.3801"/>
<text text-anchor="middle" x="252" y="-338" font-family="Helvetica,sans-Serif" font-size="10.00" fill="#000000"> +@40</text>
</g>
<!-- Node11&#45;&gt;Node3 -->
<g id="edge14" class="edge">
<title>Node11&#45;&gt;Node3</title>
<path fill="none" stroke="#404040" d="M717.4062,-397.3492C703.1893,-361.6694 681.806,-325.0734 650,-302 599.7393,-265.5388 566.395,-306.9891 505.491,-284.1445"/>
<polygon fill="none" stroke="#404040" points="505.2401,-284.0369 498.1487,-285.3459 494.213,-279.3035 501.3043,-277.9945 505.2401,-284.0369"/>
<text text-anchor="middle" x="744" y="-338" font-family="Helvetica,sans-Serif" font-size="10.00" fill="#000000"> +serialization</text>
</g>
<!-- Node12 -->
<g id="node11" class="node">
<title>Node12</title>
<g id="a_node11"><a xlink:href="../../d3/d87/classuint32__t.html" target="_top" xlink:title="{uint32_t\n||}">
<polygon fill="none" stroke="#000000" points="388,-474.5 388,-531.5 444,-531.5 444,-474.5 388,-474.5"/>
<text text-anchor="middle" x="416" y="-519.5" font-family="Helvetica,sans-Serif" font-size="10.00" fill="#000000">uint32_t</text>
<polyline fill="none" stroke="#000000" points="388,-512.5 444,-512.5 "/>
<text text-anchor="middle" x="416" y="-500.5" font-family="Helvetica,sans-Serif" font-size="10.00" fill="#000000"> </text>
<polyline fill="none" stroke="#000000" points="388,-493.5 444,-493.5 "/>
<text text-anchor="middle" x="416" y="-481.5" font-family="Helvetica,sans-Serif" font-size="10.00" fill="#000000"> </text>
</a>
</g>
</g>
<!-- Node12&#45;&gt;Node3 -->
<g id="edge20" class="edge">
<title>Node12&#45;&gt;Node3</title>
<path fill="none" stroke="#404040" d="M406.7353,-474.4218C399.6042,-452.9532 389.2618,-422.9153 379,-397 375.7769,-388.8604 372.8174,-387.5638 371,-379 363.8958,-345.5233 361.6798,-334.9286 371,-302 371.6536,-299.6908 372.3842,-297.3825 373.1823,-295.081"/>
<polygon fill="none" stroke="#404040" points="373.2856,-294.8191 371.768,-287.7695 377.6916,-283.6571 379.2092,-290.7068 373.2856,-294.8191"/>
<text text-anchor="middle" x="416.5" y="-371" font-family="Helvetica,sans-Serif" font-size="10.00" fill="#000000"> +headerVersion</text>
<text text-anchor="middle" x="416.5" y="-360" font-family="Helvetica,sans-Serif" font-size="10.00" fill="#000000">+headerSize</text>
<text text-anchor="middle" x="416.5" y="-349" font-family="Helvetica,sans-Serif" font-size="10.00" fill="#000000">+sMagicString</text>
<text text-anchor="middle" x="416.5" y="-338" font-family="Helvetica,sans-Serif" font-size="10.00" fill="#000000">+flagsNextHeader</text>
<text text-anchor="middle" x="416.5" y="-327" font-family="Helvetica,sans-Serif" font-size="10.00" fill="#000000">+magicStringInt</text>
<text text-anchor="middle" x="416.5" y="-316" font-family="Helvetica,sans-Serif" font-size="10.00" fill="#000000">+flagsUnused</text>
<text text-anchor="middle" x="416.5" y="-305" font-family="Helvetica,sans-Serif" font-size="10.00" fill="#000000">+flags</text>
</g>
<!-- Node13 -->
<g id="node12" class="node">
<title>Node13</title>
<polygon fill="none" stroke="#bfbfbf" points="462.5,-474.5 462.5,-531.5 505.5,-531.5 505.5,-474.5 462.5,-474.5"/>
<text text-anchor="middle" x="484" y="-519.5" font-family="Helvetica,sans-Serif" font-size="10.00" fill="#000000">const</text>
<polyline fill="none" stroke="#bfbfbf" points="462.5,-512.5 505.5,-512.5 "/>
<text text-anchor="middle" x="484" y="-500.5" font-family="Helvetica,sans-Serif" font-size="10.00" fill="#000000"> </text>
<polyline fill="none" stroke="#bfbfbf" points="462.5,-493.5 505.5,-493.5 "/>
<text text-anchor="middle" x="484" y="-481.5" font-family="Helvetica,sans-Serif" font-size="10.00" fill="#000000"> </text>
</g>
<!-- Node13&#45;&gt;Node3 -->
<g id="edge21" class="edge">
<title>Node13&#45;&gt;Node3</title>
<path fill="none" stroke="#404040" d="M483.1806,-474.3067C481.5338,-434.9412 476.6132,-362.211 462,-302 461.4763,-299.8423 460.9144,-297.6668 460.3196,-295.481"/>
<polygon fill="none" stroke="#404040" points="460.2502,-295.2455 454.7159,-290.6225 456.8546,-283.7359 462.3889,-288.3588 460.2502,-295.2455"/>
<text text-anchor="middle" x="530.5" y="-349" font-family="Helvetica,sans-Serif" font-size="10.00" fill="#000000"> +sHeaderType</text>
<text text-anchor="middle" x="530.5" y="-338" font-family="Helvetica,sans-Serif" font-size="10.00" fill="#000000">+sSerializationMethod</text>
<text text-anchor="middle" x="530.5" y="-327" font-family="Helvetica,sans-Serif" font-size="10.00" fill="#000000">+sVersion</text>
</g>
<!-- Node14 -->
<g id="node13" class="node">
<title>Node14</title>
<polygon fill="none" stroke="#bfbfbf" points="523.5,-474.5 523.5,-531.5 630.5,-531.5 630.5,-474.5 523.5,-474.5"/>
<text text-anchor="middle" x="577" y="-519.5" font-family="Helvetica,sans-Serif" font-size="10.00" fill="#000000">anonymous:+@42</text>
<polyline fill="none" stroke="#bfbfbf" points="523.5,-512.5 630.5,-512.5 "/>
<text text-anchor="middle" x="577" y="-500.5" font-family="Helvetica,sans-Serif" font-size="10.00" fill="#000000"> </text>
<polyline fill="none" stroke="#bfbfbf" points="523.5,-493.5 630.5,-493.5 "/>
<text text-anchor="middle" x="577" y="-481.5" font-family="Helvetica,sans-Serif" font-size="10.00" fill="#000000"> </text>
</g>
<!-- Node14&#45;&gt;Node3 -->
<g id="edge22" class="edge">
<title>Node14&#45;&gt;Node3</title>
<path fill="none" stroke="#404040" d="M589.8441,-474.3439C606.7906,-431.6795 630.0754,-351.2157 590,-302 567.3078,-274.1323 542.7956,-297.3206 505.7253,-284.0648"/>
<polygon fill="none" stroke="#404040" points="505.3256,-283.8863 498.2157,-285.0899 494.37,-278.9898 501.48,-277.7862 505.3256,-283.8863"/>
<text text-anchor="middle" x="629" y="-338" font-family="Helvetica,sans-Serif" font-size="10.00" fill="#000000"> +@42</text>
</g>
<!-- Node15 -->
<g id="node14" class="node">
<title>Node15</title>
<g id="a_node14"><a xlink:href="../../d6/d30/classuint64__t.html" target="_top" xlink:title="{uint64_t\n||}">
<polygon fill="none" stroke="#000000" points="512,-182.5 512,-239.5 568,-239.5 568,-182.5 512,-182.5"/>
<text text-anchor="middle" x="540" y="-227.5" font-family="Helvetica,sans-Serif" font-size="10.00" fill="#000000">uint64_t</text>
<polyline fill="none" stroke="#000000" points="512,-220.5 568,-220.5 "/>
<text text-anchor="middle" x="540" y="-208.5" font-family="Helvetica,sans-Serif" font-size="10.00" fill="#000000"> </text>
<polyline fill="none" stroke="#000000" points="512,-201.5 568,-201.5 "/>
<text text-anchor="middle" x="540" y="-189.5" font-family="Helvetica,sans-Serif" font-size="10.00" fill="#000000"> </text>
</a>
</g>
</g>
<!-- Node15&#45;&gt;Node2 -->
<g id="edge23" class="edge">
<title>Node15&#45;&gt;Node2</title>
<path fill="none" stroke="#404040" d="M529.2775,-182.3675C523.2145,-164.6751 516.2199,-141.3465 513,-120 510.5455,-103.7278 509.9228,-85.633 510.0476,-69.8922"/>
<polygon fill="none" stroke="#404040" points="510.0483,-69.8505 506.1685,-63.772 510.2872,-57.8528 514.1669,-63.9313 510.0483,-69.8505"/>
<text text-anchor="middle" x="563" y="-112" font-family="Helvetica,sans-Serif" font-size="10.00" fill="#000000"> +unused</text>
<text text-anchor="middle" x="563" y="-101" font-family="Helvetica,sans-Serif" font-size="10.00" fill="#000000">+flags</text>
<text text-anchor="middle" x="563" y="-90" font-family="Helvetica,sans-Serif" font-size="10.00" fill="#000000">+activeSectorsFlags</text>
<text text-anchor="middle" x="563" y="-79" font-family="Helvetica,sans-Serif" font-size="10.00" fill="#000000">+activeSectors</text>
</g>
<!-- Node16 -->
<g id="node15" class="node">
<title>Node16</title>
<polygon fill="none" stroke="#bfbfbf" points="613,-182.5 613,-239.5 657,-239.5 657,-182.5 613,-182.5"/>
<text text-anchor="middle" x="635" y="-227.5" font-family="Helvetica,sans-Serif" font-size="10.00" fill="#000000">static</text>
<polyline fill="none" stroke="#bfbfbf" points="613,-220.5 657,-220.5 "/>
<text text-anchor="middle" x="635" y="-208.5" font-family="Helvetica,sans-Serif" font-size="10.00" fill="#000000"> </text>
<polyline fill="none" stroke="#bfbfbf" points="613,-201.5 657,-201.5 "/>
<text text-anchor="middle" x="635" y="-189.5" font-family="Helvetica,sans-Serif" font-size="10.00" fill="#000000"> </text>
</g>
<!-- Node16&#45;&gt;Node2 -->
<g id="edge25" class="edge">
<title>Node16&#45;&gt;Node2</title>
<path fill="none" stroke="#404040" d="M637.6655,-182.4378C638.8872,-152.8622 636.3039,-106.7569 613,-76 607.3335,-68.5212 600.1872,-62.189 592.3257,-56.8375"/>
<polygon fill="none" stroke="#404040" points="592.2898,-56.8157 585.0846,-57.109 582.0426,-50.5709 589.2478,-50.2776 592.2898,-56.8157"/>
<text text-anchor="middle" x="669.5" y="-106.5" font-family="Helvetica,sans-Serif" font-size="10.00" fill="#000000"> +sHeaderType</text>
<text text-anchor="middle" x="669.5" y="-95.5" font-family="Helvetica,sans-Serif" font-size="10.00" fill="#000000">+NSectors</text>
<text text-anchor="middle" x="669.5" y="-84.5" font-family="Helvetica,sans-Serif" font-size="10.00" fill="#000000">+sVersion</text>
</g>
<!-- Node17 -->
<g id="node16" class="node">
<title>Node17</title>
<polygon fill="none" stroke="#bfbfbf" points="679.5,-182.5 679.5,-239.5 786.5,-239.5 786.5,-182.5 679.5,-182.5"/>
<text text-anchor="middle" x="733" y="-227.5" font-family="Helvetica,sans-Serif" font-size="10.00" fill="#000000">anonymous:+@26</text>
<polyline fill="none" stroke="#bfbfbf" points="679.5,-220.5 786.5,-220.5 "/>
<text text-anchor="middle" x="733" y="-208.5" font-family="Helvetica,sans-Serif" font-size="10.00" fill="#000000"> </text>
<polyline fill="none" stroke="#bfbfbf" points="679.5,-201.5 786.5,-201.5 "/>
<text text-anchor="middle" x="733" y="-189.5" font-family="Helvetica,sans-Serif" font-size="10.00" fill="#000000"> </text>
</g>
<!-- Node17&#45;&gt;Node2 -->
<g id="edge26" class="edge">
<title>Node17&#45;&gt;Node2</title>
<path fill="none" stroke="#404040" d="M736.8058,-182.2641C739.113,-151.8811 737.5519,-104.4899 711,-76 694.8517,-58.6731 641.4684,-46.6394 594.0556,-39.0886"/>
<polygon fill="none" stroke="#404040" points="594.018,-39.0829 587.4813,-42.1278 582.1565,-37.265 588.6932,-34.2201 594.018,-39.0829"/>
<text text-anchor="middle" x="749" y="-95.5" font-family="Helvetica,sans-Serif" font-size="10.00" fill="#000000"> +@26</text>
</g>
</g>
</svg>
        <g id="navigator" transform="translate(0 0)" fill="#404254">
                <rect fill="#f2f5e9" fill-opacity="0.5" stroke="#606060" stroke-width=".5" x="0" y="0" width="60" height="60"/>
                <use id="zoomplus" xlink:href="#zoomPlus" x="17" y="9" onmousedown="handleZoom(evt,'in')"/>
                <use id="zoomminus" xlink:href="#zoomMin" x="42" y="9" onmousedown="handleZoom(evt,'out')"/>
                <use id="reset" xlink:href="#resetDef" x="30" y="36" onmousedown="handleReset()"/>
                <g id="arrowUp" xlink:href="#dirArrow" transform="translate(30 24)" onmousedown="handlePan(0,-1)">
                  <use xlink:href="#rim" fill="#404040">
                        <set attributeName="fill" to="#808080" begin="arrowUp.mouseover" end="arrowUp.mouseout"/>
                  </use>
                  <path fill="none" stroke="white" stroke-width="1.5" d="M0,-3.0v7 M-2.5,-0.5L0,-3.0L2.5,-0.5"/>
                </g>
                <g id="arrowRight" xlink:href="#dirArrow" transform="rotate(90) translate(36 -43)" onmousedown="handlePan(1,0)">
                  <use xlink:href="#rim" fill="#404040">
                        <set attributeName="fill" to="#808080" begin="arrowRight.mouseover" end="arrowRight.mouseout"/>
                  </use>
                  <path fill="none" stroke="white" stroke-width="1.5" d="M0,-3.0v7 M-2.5,-0.5L0,-3.0L2.5,-0.5"/>
                </g>
                <g id="arrowDown" xlink:href="#dirArrow" transform="rotate(180) translate(-30 -48)" onmousedown="handlePan(0,1)">
                  <use xlink:href="#rim" fill="#404040">
                        <set attributeName="fill" to="#808080" begin="arrowDown.mouseover" end="arrowDown.mouseout"/>
                  </use>
                  <path fill="none" stroke="white" stroke-width="1.5" d="M0,-3.0v7 M-2.5,-0.5L0,-3.0L2.5,-0.5"/>
                </g>
                <g id="arrowLeft" xlink:href="#dirArrow" transform="rotate(270) translate(-36 17)" onmousedown="handlePan(-1,0)">
                  <use xlink:href="#rim" fill="#404040">
                        <set attributeName="fill" to="#808080" begin="arrowLeft.mouseover" end="arrowLeft.mouseout"/>
                  </use>
                  <path fill="none" stroke="white" stroke-width="1.5" d="M0,-3.0v7 M-2.5,-0.5L0,-3.0L2.5,-0.5"/>
                </g>
        </g>
        <svg viewBox="0 0 15 15" width="100%" height="30px" preserveAspectRatio="xMaxYMin meet">
         <g id="arrow_out" transform="scale(0.3 0.3)">
          <a xlink:href="structo2_1_1tpc_1_1TPCSectorHeader__coll__graph_org.svg" target="_base">
           <rect id="button" ry="5" rx="5" y="6" x="6" height="38" width="38"
                fill="#f2f5e9" fill-opacity="0.5" stroke="#606060" stroke-width="1.0"/>
           <path id="arrow"
             d="M 11.500037,31.436501 C 11.940474,20.09759 22.043105,11.32322 32.158766,21.979434 L 37.068811,17.246167 C 37.068811,17.246167 37.088388,32 37.088388,32 L 22.160133,31.978069 C 22.160133,31.978069 26.997745,27.140456 26.997745,27.140456 C 18.528582,18.264221 13.291696,25.230495 11.500037,31.436501 z"
             style="fill:#404040;"/>
          </a>
         </g>
        </svg>
</svg>
