<?xml version="1.0" encoding="UTF-8" standalone="no"?>
<!DOCTYPE svg PUBLIC "-//W3C//DTD SVG 1.1//EN"
 "http://www.w3.org/Graphics/SVG/1.1/DTD/svg11.dtd">
<!-- Generated by graphviz version 2.40.1 (20161225.0304)
 -->
<!-- Title: /home/travis/build/AliceO2Group/AliceO2/Detectors/MUON/MCH/Raw/Decoder/include/MCHRawDecoder/PageDecoder.h Pages: 1 -->
<!--zoomable 251 -->
<svg id="main" version="1.1" xmlns="http://www.w3.org/2000/svg" xmlns:xlink="http://www.w3.org/1999/xlink" xml:space="preserve" onload="init(evt)">
<style type="text/css"><![CDATA[
.edge:hover path { stroke: red; }
.edge:hover polygon { stroke: red; fill: red; }
]]></style>
<script type="text/javascript"><![CDATA[
var edges = document.getElementsByTagName('g');
if (edges && edges.length) {
  for (var i=0;i<edges.length;i++) {
    if (edges[i].id.substr(0,4)=='edge') {
      edges[i].setAttribute('class','edge');
    }
  }
}
]]></script>
        <defs>
                <circle id="rim" cx="0" cy="0" r="7"/>
                <circle id="rim2" cx="0" cy="0" r="3.5"/>
                <g id="zoomPlus">
                        <use xlink:href="#rim" fill="#404040">
                                <set attributeName="fill" to="#808080" begin="zoomplus.mouseover" end="zoomplus.mouseout"/>
                        </use>
                        <path d="M-4,0h8M0,-4v8" fill="none" stroke="white" stroke-width="1.5" pointer-events="none"/>
                </g>
                <g id="zoomMin">
                        <use xlink:href="#rim" fill="#404040">
                                <set attributeName="fill" to="#808080" begin="zoomminus.mouseover" end="zoomminus.mouseout"/>
                        </use>
                        <path d="M-4,0h8" fill="none" stroke="white" stroke-width="1.5" pointer-events="none"/>
                </g>
                <g id="dirArrow">
                        <path fill="none" stroke="white" stroke-width="1.5" d="M0,-3.0v7 M-2.5,-0.5L0,-3.0L2.5,-0.5"/>
                </g>
               <g id="resetDef">
                       <use xlink:href="#rim2" fill="#404040">
                               <set attributeName="fill" to="#808080" begin="reset.mouseover" end="reset.mouseout"/>
                       </use>
               </g>
        </defs>

<script type="text/javascript">
var viewWidth = 1179;
var viewHeight = 251;
var sectionId = 'dynsection-0';
</script>
<script xlink:href="../../svgpan.js"/>
<svg id="graph" class="graph">
<g id="viewport">
<title>/home/travis/build/AliceO2Group/AliceO2/Detectors/MUON/MCH/Raw/Decoder/include/MCHRawDecoder/PageDecoder.h</title>
<!-- Node0 -->
<g id="node1" class="node">
<title>Node0</title>
<polygon fill="#bfbfbf" stroke="#000000" points="222,-179.5 222,-242.5 407,-242.5 407,-179.5 222,-179.5"/>
<text text-anchor="start" x="230" y="-230.5" font-family="Helvetica,sans-Serif" font-size="10.00" fill="#000000">/home/travis/build</text>
<text text-anchor="start" x="230" y="-219.5" font-family="Helvetica,sans-Serif" font-size="10.00" fill="#000000">/AliceO2Group/AliceO2</text>
<text text-anchor="start" x="230" y="-208.5" font-family="Helvetica,sans-Serif" font-size="10.00" fill="#000000">/Detectors/MUON/MCH/Raw</text>
<text text-anchor="start" x="230" y="-197.5" font-family="Helvetica,sans-Serif" font-size="10.00" fill="#000000">/Decoder/include/MCHRawDecoder</text>
<text text-anchor="middle" x="314.5" y="-186.5" font-family="Helvetica,sans-Serif" font-size="10.00" fill="#000000">/PageDecoder.h</text>
</g>
<!-- Node1 -->
<g id="node2" class="node">
<title>Node1</title>
<polygon fill="none" stroke="#bfbfbf" points="0,-56.5 0,-75.5 65,-75.5 65,-56.5 0,-56.5"/>
<text text-anchor="middle" x="32.5" y="-63.5" font-family="Helvetica,sans-Serif" font-size="10.00" fill="#000000">functional</text>
</g>
<!-- Node0&#45;&gt;Node1 -->
<g id="edge1" class="edge">
<title>Node0&#45;&gt;Node1</title>
<path fill="none" stroke="#191970" d="M221.7832,-196.8772C178.6743,-186.9844 128.4538,-170.4305 89.5,-143 68.1284,-127.9506 51.5153,-102.3601 41.8725,-84.8423"/>
<polygon fill="#191970" stroke="#191970" points="44.7669,-82.8261 37.0171,-75.6017 38.5702,-86.0821 44.7669,-82.8261"/>
</g>
<!-- Node2 -->
<g id="node3" class="node">
<title>Node2</title>
<polygon fill="none" stroke="#bfbfbf" points="286,-56.5 286,-75.5 343,-75.5 343,-56.5 286,-56.5"/>
<text text-anchor="middle" x="314.5" y="-63.5" font-family="Helvetica,sans-Serif" font-size="10.00" fill="#000000">gsl/span</text>
</g>
<!-- Node0&#45;&gt;Node2 -->
<g id="edge2" class="edge">
<title>Node0&#45;&gt;Node2</title>
<path fill="none" stroke="#191970" d="M314.5,-179.1791C314.5,-150.6799 314.5,-109.7812 314.5,-85.7465"/>
<polygon fill="#191970" stroke="#191970" points="318.0001,-85.7125 314.5,-75.7125 311.0001,-85.7125 318.0001,-85.7125"/>
</g>
<!-- Node3 -->
<g id="node4" class="node">
<title>Node3</title>
<polygon fill="none" stroke="#bfbfbf" points="607.5,-118 607.5,-137 645.5,-137 645.5,-118 607.5,-118"/>
<text text-anchor="middle" x="626.5" y="-125" font-family="Helvetica,sans-Serif" font-size="10.00" fill="#000000">map</text>
</g>
<!-- Node0&#45;&gt;Node3 -->
<g id="edge3" class="edge">
<title>Node0&#45;&gt;Node3</title>
<path fill="none" stroke="#191970" d="M407.2242,-195.3866C463.6697,-184.2783 536.5857,-167.0354 598.5,-143 599.5359,-142.5978 600.5809,-142.1639 601.6271,-141.7057"/>
<polygon fill="#191970" stroke="#191970" points="603.4646,-144.7013 610.8698,-137.1241 600.3557,-138.4296 603.4646,-144.7013"/>
</g>
<!-- Node4 -->
<g id="node5" class="node">
<title>Node4</title>
<g id="a_node5"><a xlink:href="../../dd/d58/SampaChannelHandler_8h.html" target="_top" xlink:title="MCHRawDecoder/SampaChannel\lHandler.h">
<polygon fill="none" stroke="#000000" points="99,-112.5 99,-142.5 276,-142.5 276,-112.5 99,-112.5"/>
<text text-anchor="start" x="107" y="-130.5" font-family="Helvetica,sans-Serif" font-size="10.00" fill="#000000">MCHRawDecoder/SampaChannel</text>
<text text-anchor="middle" x="187.5" y="-119.5" font-family="Helvetica,sans-Serif" font-size="10.00" fill="#000000">Handler.h</text>
</a>
</g>
</g>
<!-- Node0&#45;&gt;Node4 -->
<g id="edge4" class="edge">
<title>Node0&#45;&gt;Node4</title>
<path fill="none" stroke="#191970" d="M266.4867,-179.4322C250.5483,-168.953 233.2235,-157.5623 218.8716,-148.1262"/>
<polygon fill="#191970" stroke="#191970" points="220.6372,-145.0984 210.3586,-142.5291 216.7916,-150.9474 220.6372,-145.0984"/>
</g>
<!-- Node14 -->
<g id="node15" class="node">
<title>Node14</title>
<g id="a_node15"><a xlink:href="../../d2/d71/MUON_2MCH_2Raw_2ElecMap_2include_2MCHRawElecMap_2Mapper_8h.html" target="_top" xlink:title="MCHRawElecMap/Mapper.h">
<polygon fill="none" stroke="#000000" points="441.5,-118 441.5,-137 589.5,-137 589.5,-118 441.5,-118"/>
<text text-anchor="middle" x="515.5" y="-125" font-family="Helvetica,sans-Serif" font-size="10.00" fill="#000000">MCHRawElecMap/Mapper.h</text>
</a>
</g>
</g>
<!-- Node0&#45;&gt;Node14 -->
<g id="edge15" class="edge">
<title>Node0&#45;&gt;Node14</title>
<path fill="none" stroke="#191970" d="M390.4895,-179.4322C422.4842,-166.1409 458.0086,-151.3832 482.9855,-141.0073"/>
<polygon fill="#191970" stroke="#191970" points="484.4495,-144.1892 492.3416,-137.1205 481.764,-137.7248 484.4495,-144.1892"/>
</g>
<!-- Node4&#45;&gt;Node1 -->
<g id="edge5" class="edge">
<title>Node4&#45;&gt;Node1</title>
<path fill="none" stroke="#191970" d="M149.5827,-112.4554C124.0609,-102.329 90.7104,-89.0964 66.1344,-79.3453"/>
<polygon fill="#191970" stroke="#191970" points="67.1054,-75.9651 56.5195,-75.5303 64.5237,-82.4717 67.1054,-75.9651"/>
</g>
<!-- Node5 -->
<g id="node6" class="node">
<title>Node5</title>
<g id="a_node6"><a xlink:href="../../d0/d5b/SampaCluster_8h.html" target="_top" xlink:title="MCHRawCommon/SampaCluster.h">
<polygon fill="none" stroke="#000000" points="83.5,-56.5 83.5,-75.5 267.5,-75.5 267.5,-56.5 83.5,-56.5"/>
<text text-anchor="middle" x="175.5" y="-63.5" font-family="Helvetica,sans-Serif" font-size="10.00" fill="#000000">MCHRawCommon/SampaCluster.h</text>
</a>
</g>
</g>
<!-- Node4&#45;&gt;Node5 -->
<g id="edge6" class="edge">
<title>Node4&#45;&gt;Node5</title>
<path fill="none" stroke="#191970" d="M184.5337,-112.2977C182.9721,-104.2945 181.0384,-94.3843 179.3612,-85.7889"/>
<polygon fill="#191970" stroke="#191970" points="182.7718,-84.9915 177.4214,-75.8469 175.9013,-86.3322 182.7718,-84.9915"/>
</g>
<!-- Node10 -->
<g id="node11" class="node">
<title>Node10</title>
<g id="a_node11"><a xlink:href="../../d4/d09/DsElecId_8h.html" target="_top" xlink:title="MCHRawElecMap/DsElecId.h">
<polygon fill="none" stroke="#000000" points="438,-56.5 438,-75.5 593,-75.5 593,-56.5 438,-56.5"/>
<text text-anchor="middle" x="515.5" y="-63.5" font-family="Helvetica,sans-Serif" font-size="10.00" fill="#000000">MCHRawElecMap/DsElecId.h</text>
</a>
</g>
</g>
<!-- Node4&#45;&gt;Node10 -->
<g id="edge11" class="edge">
<title>Node4&#45;&gt;Node10</title>
<path fill="none" stroke="#191970" d="M267.7378,-112.4554C325.4659,-101.6314 402.1215,-87.2585 454.7972,-77.3818"/>
<polygon fill="#191970" stroke="#191970" points="455.488,-80.8133 464.6716,-75.5303 454.1979,-73.9332 455.488,-80.8133"/>
</g>
<!-- Node6 -->
<g id="node7" class="node">
<title>Node6</title>
<polygon fill="none" stroke="#bfbfbf" points="151,-.5 151,-19.5 200,-19.5 200,-.5 151,-.5"/>
<text text-anchor="middle" x="175.5" y="-7.5" font-family="Helvetica,sans-Serif" font-size="10.00" fill="#000000">cstdlib</text>
</g>
<!-- Node5&#45;&gt;Node6 -->
<g id="edge7" class="edge">
<title>Node5&#45;&gt;Node6</title>
<path fill="none" stroke="#191970" d="M175.5,-56.2455C175.5,-48.9382 175.5,-38.6944 175.5,-29.7046"/>
<polygon fill="#191970" stroke="#191970" points="179.0001,-29.6426 175.5,-19.6427 172.0001,-29.6427 179.0001,-29.6426"/>
</g>
<!-- Node7 -->
<g id="node8" class="node">
<title>Node7</title>
<polygon fill="none" stroke="#bfbfbf" points="218,-.5 218,-19.5 265,-19.5 265,-.5 218,-.5"/>
<text text-anchor="middle" x="241.5" y="-7.5" font-family="Helvetica,sans-Serif" font-size="10.00" fill="#000000">vector</text>
</g>
<!-- Node5&#45;&gt;Node7 -->
<g id="edge8" class="edge">
<title>Node5&#45;&gt;Node7</title>
<path fill="none" stroke="#191970" d="M186.9963,-56.2455C196.7442,-47.9746 210.9259,-35.9416 222.3798,-26.2232"/>
<polygon fill="#191970" stroke="#191970" points="224.7747,-28.7813 230.1354,-19.6427 220.2459,-23.4437 224.7747,-28.7813"/>
</g>
<!-- Node8 -->
<g id="node9" class="node">
<title>Node8</title>
<polygon fill="none" stroke="#bfbfbf" points="72.5,-.5 72.5,-19.5 132.5,-19.5 132.5,-.5 72.5,-.5"/>
<text text-anchor="middle" x="102.5" y="-7.5" font-family="Helvetica,sans-Serif" font-size="10.00" fill="#000000">iostream</text>
</g>
<!-- Node5&#45;&gt;Node8 -->
<g id="edge9" class="edge">
<title>Node5&#45;&gt;Node8</title>
<path fill="none" stroke="#191970" d="M162.7844,-56.2455C151.898,-47.8943 136.0117,-35.7076 123.28,-25.9408"/>
<polygon fill="#191970" stroke="#191970" points="125.1346,-22.9523 115.0699,-19.6427 120.8739,-28.5063 125.1346,-22.9523"/>
</g>
<!-- Node9 -->
<g id="node10" class="node">
<title>Node9</title>
<polygon fill="none" stroke="#bfbfbf" points="308,-.5 308,-19.5 387,-19.5 387,-.5 308,-.5"/>
<text text-anchor="middle" x="347.5" y="-7.5" font-family="Helvetica,sans-Serif" font-size="10.00" fill="#000000">fmt/format.h</text>
</g>
<!-- Node5&#45;&gt;Node9 -->
<g id="edge10" class="edge">
<title>Node5&#45;&gt;Node9</title>
<path fill="none" stroke="#191970" d="M205.0679,-56.3733C233.6688,-47.0613 277.1788,-32.8953 308.5819,-22.671"/>
<polygon fill="#191970" stroke="#191970" points="309.8928,-25.9251 318.318,-19.5011 307.7257,-19.269 309.8928,-25.9251"/>
</g>
<!-- Node11 -->
<g id="node12" class="node">
<title>Node11</title>
<polygon fill="none" stroke="#bfbfbf" points="674.5,-.5 674.5,-19.5 724.5,-19.5 724.5,-.5 674.5,-.5"/>
<text text-anchor="middle" x="699.5" y="-7.5" font-family="Helvetica,sans-Serif" font-size="10.00" fill="#000000">cstdint</text>
</g>
<!-- Node10&#45;&gt;Node11 -->
<g id="edge12" class="edge">
<title>Node10&#45;&gt;Node11</title>
<path fill="none" stroke="#191970" d="M547.1307,-56.3733C579.8151,-46.4259 630.6996,-30.9393 664.5539,-20.6358"/>
<polygon fill="#191970" stroke="#191970" points="665.9271,-23.8764 674.4747,-17.6164 663.8889,-17.1797 665.9271,-23.8764"/>
</g>
<!-- Node12 -->
<g id="node13" class="node">
<title>Node12</title>
<polygon fill="none" stroke="#bfbfbf" points="761,-.5 761,-19.5 810,-19.5 810,-.5 761,-.5"/>
<text text-anchor="middle" x="785.5" y="-7.5" font-family="Helvetica,sans-Serif" font-size="10.00" fill="#000000">iosfwd</text>
</g>
<!-- Node10&#45;&gt;Node12 -->
<g id="edge13" class="edge">
<title>Node10&#45;&gt;Node12</title>
<path fill="none" stroke="#191970" d="M561.6079,-56.4369C615.21,-45.3194 702.4693,-27.2212 750.6982,-17.2182"/>
<polygon fill="#191970" stroke="#191970" points="751.5747,-20.6109 760.6555,-15.1529 750.153,-13.7568 751.5747,-20.6109"/>
</g>
<!-- Node13 -->
<g id="node14" class="node">
<title>Node13</title>
<polygon fill="none" stroke="#bfbfbf" points="405.5,-.5 405.5,-19.5 461.5,-19.5 461.5,-.5 405.5,-.5"/>
<text text-anchor="middle" x="433.5" y="-7.5" font-family="Helvetica,sans-Serif" font-size="10.00" fill="#000000">optional</text>
</g>
<!-- Node10&#45;&gt;Node13 -->
<g id="edge14" class="edge">
<title>Node10&#45;&gt;Node13</title>
<path fill="none" stroke="#191970" d="M501.2167,-56.2455C488.753,-47.7337 470.4549,-35.2375 456.0208,-25.3801"/>
<polygon fill="#191970" stroke="#191970" points="457.8515,-22.392 447.6196,-19.6427 453.9038,-28.1726 457.8515,-22.392"/>
</g>
<!-- Node14&#45;&gt;Node1 -->
<g id="edge16" class="edge">
<title>Node14&#45;&gt;Node1</title>
<path fill="none" stroke="#191970" d="M441.3764,-121.5232C355.5811,-114.0032 209.9184,-99.3835 75.5074,-76.0009"/>
<polygon fill="#191970" stroke="#191970" points="75.894,-72.5153 65.4387,-74.229 74.6807,-79.4093 75.894,-72.5153"/>
</g>
<!-- Node14&#45;&gt;Node2 -->
<g id="edge30" class="edge">
<title>Node14&#45;&gt;Node2</title>
<path fill="none" stroke="#191970" d="M484.0938,-117.8906C448.6194,-107.0365 390.8842,-89.3713 352.7954,-77.7173"/>
<polygon fill="#191970" stroke="#191970" points="353.6714,-74.3252 343.0849,-74.7461 351.6233,-81.0189 353.6714,-74.3252"/>
</g>
<!-- Node14&#45;&gt;Node9 -->
<g id="edge28" class="edge">
<title>Node14&#45;&gt;Node9</title>
<path fill="none" stroke="#191970" d="M494.0135,-117.8809C473.9468,-108.464 443.5619,-93.0753 419.5,-76 398.9231,-61.3978 377.942,-41.473 363.9783,-27.3462"/>
<polygon fill="#191970" stroke="#191970" points="366.1043,-24.5121 356.6237,-19.7826 361.0857,-29.392 366.1043,-24.5121"/>
</g>
<!-- Node14&#45;&gt;Node10 -->
<g id="edge24" class="edge">
<title>Node14&#45;&gt;Node10</title>
<path fill="none" stroke="#191970" d="M515.5,-117.8906C515.5,-109.3657 515.5,-96.6392 515.5,-85.9235"/>
<polygon fill="#191970" stroke="#191970" points="519.0001,-85.7448 515.5,-75.7449 512.0001,-85.7449 519.0001,-85.7448"/>
</g>
<!-- Node14&#45;&gt;Node11 -->
<g id="edge20" class="edge">
<title>Node14&#45;&gt;Node11</title>
<path fill="none" stroke="#191970" d="M571.2468,-117.9191C600.9579,-110.5228 636.6122,-97.7349 662.5,-76 677.2338,-63.6298 687.219,-43.8128 693.0667,-29.1178"/>
<polygon fill="#191970" stroke="#191970" points="696.4361,-30.0961 696.6023,-19.5026 689.8661,-27.6803 696.4361,-30.0961"/>
</g>
<!-- Node14&#45;&gt;Node13 -->
<g id="edge17" class="edge">
<title>Node14&#45;&gt;Node13</title>
<path fill="none" stroke="#191970" d="M483.8661,-117.8306C464.1376,-109.976 440.3228,-96.7374 428.5,-76 420.5063,-61.9789 422.7891,-43.4763 426.4782,-29.6301"/>
<polygon fill="#191970" stroke="#191970" points="429.9393,-30.2871 429.5689,-19.6987 423.2555,-28.207 429.9393,-30.2871"/>
</g>
<!-- Node15 -->
<g id="node16" class="node">
<title>Node15</title>
<polygon fill="none" stroke="#bfbfbf" points="1055.5,-56.5 1055.5,-75.5 1087.5,-75.5 1087.5,-56.5 1055.5,-56.5"/>
<text text-anchor="middle" x="1071.5" y="-63.5" font-family="Helvetica,sans-Serif" font-size="10.00" fill="#000000">set</text>
</g>
<!-- Node14&#45;&gt;Node15 -->
<g id="edge18" class="edge">
<title>Node14&#45;&gt;Node15</title>
<path fill="none" stroke="#191970" d="M561.8947,-117.9514C573.7872,-115.7474 586.585,-113.5869 598.5,-112 793.2174,-86.0672 850.1404,-120.429 1045.3171,-75.6224"/>
<polygon fill="#191970" stroke="#191970" points="1046.3802,-78.9684 1055.3215,-73.2848 1044.7874,-72.152 1046.3802,-78.9684"/>
</g>
<!-- Node16 -->
<g id="node17" class="node">
<title>Node16</title>
<polygon fill="none" stroke="#bfbfbf" points="1106,-56.5 1106,-75.5 1171,-75.5 1171,-56.5 1106,-56.5"/>
<text text-anchor="middle" x="1138.5" y="-63.5" font-family="Helvetica,sans-Serif" font-size="10.00" fill="#000000">stdexcept</text>
</g>
<!-- Node14&#45;&gt;Node16 -->
<g id="edge19" class="edge">
<title>Node14&#45;&gt;Node16</title>
<path fill="none" stroke="#191970" d="M561.4513,-117.9658C573.4663,-115.7348 586.4333,-113.5578 598.5,-112 815.3605,-84.0028 875.4285,-109.0533 1095.6553,-75.8864"/>
<polygon fill="#191970" stroke="#191970" points="1096.2283,-79.3396 1105.5844,-74.3683 1095.1702,-72.42 1096.2283,-79.3396"/>
</g>
<!-- Node17 -->
<g id="node18" class="node">
<title>Node17</title>
<g id="a_node18"><a xlink:href="../../d5/dcd/DsDetId_8h.html" target="_top" xlink:title="MCHRawElecMap/DsDetId.h">
<polygon fill="none" stroke="#000000" points="709.5,-56.5 709.5,-75.5 861.5,-75.5 861.5,-56.5 709.5,-56.5"/>
<text text-anchor="middle" x="785.5" y="-63.5" font-family="Helvetica,sans-Serif" font-size="10.00" fill="#000000">MCHRawElecMap/DsDetId.h</text>
</a>
</g>
</g>
<!-- Node14&#45;&gt;Node17 -->
<g id="edge21" class="edge">
<title>Node14&#45;&gt;Node17</title>
<path fill="none" stroke="#191970" d="M557.3913,-117.9581C604.8826,-107.1406 682.3472,-89.4959 733.6215,-77.8168"/>
<polygon fill="#191970" stroke="#191970" points="734.5375,-81.1978 743.5105,-75.5643 732.9829,-74.3727 734.5375,-81.1978"/>
</g>
<!-- Node18 -->
<g id="node19" class="node">
<title>Node18</title>
<g id="a_node19"><a xlink:href="../../d8/d97/FeeLinkId_8h.html" target="_top" xlink:title="MCHRawElecMap/FeeLinkId.h">
<polygon fill="none" stroke="#000000" points="879.5,-56.5 879.5,-75.5 1037.5,-75.5 1037.5,-56.5 879.5,-56.5"/>
<text text-anchor="middle" x="958.5" y="-63.5" font-family="Helvetica,sans-Serif" font-size="10.00" fill="#000000">MCHRawElecMap/FeeLinkId.h</text>
</a>
</g>
</g>
<!-- Node14&#45;&gt;Node18 -->
<g id="edge25" class="edge">
<title>Node14&#45;&gt;Node18</title>
<path fill="none" stroke="#191970" d="M564.1356,-117.9331C575.3978,-115.8524 587.3495,-113.7521 598.5,-112 649.0698,-104.054 780.4766,-87.6631 869.73,-76.7487"/>
<polygon fill="#191970" stroke="#191970" points="870.3527,-80.1987 879.8545,-75.512 869.5039,-73.2504 870.3527,-80.1987"/>
</g>
<!-- Node19 -->
<g id="node20" class="node">
<title>Node19</title>
<polygon fill="none" stroke="#bfbfbf" points="611.5,-56.5 611.5,-75.5 653.5,-75.5 653.5,-56.5 611.5,-56.5"/>
<text text-anchor="middle" x="632.5" y="-63.5" font-family="Helvetica,sans-Serif" font-size="10.00" fill="#000000">array</text>
</g>
<!-- Node14&#45;&gt;Node19 -->
<g id="edge29" class="edge">
<title>Node14&#45;&gt;Node19</title>
<path fill="none" stroke="#191970" d="M533.7813,-117.8906C553.0141,-107.7811 583.4879,-91.7628 605.4925,-80.1962"/>
<polygon fill="#191970" stroke="#191970" points="607.124,-83.2928 614.3471,-75.5419 603.867,-77.0967 607.124,-83.2928"/>
</g>
<!-- Node17&#45;&gt;Node11 -->
<g id="edge22" class="edge">
<title>Node17&#45;&gt;Node11</title>
<path fill="none" stroke="#191970" d="M770.5199,-56.2455C757.3249,-47.6534 737.8949,-35.0014 722.6921,-25.1018"/>
<polygon fill="#191970" stroke="#191970" points="724.5983,-22.1665 714.3084,-19.6427 720.7785,-28.0325 724.5983,-22.1665"/>
</g>
<!-- Node17&#45;&gt;Node12 -->
<g id="edge23" class="edge">
<title>Node17&#45;&gt;Node12</title>
<path fill="none" stroke="#191970" d="M785.5,-56.2455C785.5,-48.9382 785.5,-38.6944 785.5,-29.7046"/>
<polygon fill="#191970" stroke="#191970" points="789.0001,-29.6426 785.5,-19.6427 782.0001,-29.6427 789.0001,-29.6426"/>
</g>
<!-- Node18&#45;&gt;Node11 -->
<g id="edge26" class="edge">
<title>Node18&#45;&gt;Node11</title>
<path fill="none" stroke="#191970" d="M914.2706,-56.4369C863.4974,-45.4589 781.2432,-27.6742 734.6428,-17.5984"/>
<polygon fill="#191970" stroke="#191970" points="735.2243,-14.1434 724.7104,-15.4509 733.7449,-20.9853 735.2243,-14.1434"/>
</g>
<!-- Node18&#45;&gt;Node12 -->
<g id="edge27" class="edge">
<title>Node18&#45;&gt;Node12</title>
<path fill="none" stroke="#191970" d="M928.7602,-56.3733C898.511,-46.5816 851.6813,-31.4229 819.8637,-21.1235"/>
<polygon fill="#191970" stroke="#191970" points="820.6927,-17.7131 810.1008,-17.9633 818.5369,-24.3729 820.6927,-17.7131"/>
</g>
</g>
</svg>
        <g id="navigator" transform="translate(0 0)" fill="#404254">
                <rect fill="#f2f5e9" fill-opacity="0.5" stroke="#606060" stroke-width=".5" x="0" y="0" width="60" height="60"/>
                <use id="zoomplus" xlink:href="#zoomPlus" x="17" y="9" onmousedown="handleZoom(evt,'in')"/>
                <use id="zoomminus" xlink:href="#zoomMin" x="42" y="9" onmousedown="handleZoom(evt,'out')"/>
                <use id="reset" xlink:href="#resetDef" x="30" y="36" onmousedown="handleReset()"/>
                <g id="arrowUp" xlink:href="#dirArrow" transform="translate(30 24)" onmousedown="handlePan(0,-1)">
                  <use xlink:href="#rim" fill="#404040">
                        <set attributeName="fill" to="#808080" begin="arrowUp.mouseover" end="arrowUp.mouseout"/>
                  </use>
                  <path fill="none" stroke="white" stroke-width="1.5" d="M0,-3.0v7 M-2.5,-0.5L0,-3.0L2.5,-0.5"/>
                </g>
                <g id="arrowRight" xlink:href="#dirArrow" transform="rotate(90) translate(36 -43)" onmousedown="handlePan(1,0)">
                  <use xlink:href="#rim" fill="#404040">
                        <set attributeName="fill" to="#808080" begin="arrowRight.mouseover" end="arrowRight.mouseout"/>
                  </use>
                  <path fill="none" stroke="white" stroke-width="1.5" d="M0,-3.0v7 M-2.5,-0.5L0,-3.0L2.5,-0.5"/>
                </g>
                <g id="arrowDown" xlink:href="#dirArrow" transform="rotate(180) translate(-30 -48)" onmousedown="handlePan(0,1)">
                  <use xlink:href="#rim" fill="#404040">
                        <set attributeName="fill" to="#808080" begin="arrowDown.mouseover" end="arrowDown.mouseout"/>
                  </use>
                  <path fill="none" stroke="white" stroke-width="1.5" d="M0,-3.0v7 M-2.5,-0.5L0,-3.0L2.5,-0.5"/>
                </g>
                <g id="arrowLeft" xlink:href="#dirArrow" transform="rotate(270) translate(-36 17)" onmousedown="handlePan(-1,0)">
                  <use xlink:href="#rim" fill="#404040">
                        <set attributeName="fill" to="#808080" begin="arrowLeft.mouseover" end="arrowLeft.mouseout"/>
                  </use>
                  <path fill="none" stroke="white" stroke-width="1.5" d="M0,-3.0v7 M-2.5,-0.5L0,-3.0L2.5,-0.5"/>
                </g>
        </g>
        <svg viewBox="0 0 15 15" width="100%" height="30px" preserveAspectRatio="xMaxYMin meet">
         <g id="arrow_out" transform="scale(0.3 0.3)">
          <a xlink:href="PageDecoder_8h__incl_org.svg" target="_base">
           <rect id="button" ry="5" rx="5" y="6" x="6" height="38" width="38"
                fill="#f2f5e9" fill-opacity="0.5" stroke="#606060" stroke-width="1.0"/>
           <path id="arrow"
             d="M 11.500037,31.436501 C 11.940474,20.09759 22.043105,11.32322 32.158766,21.979434 L 37.068811,17.246167 C 37.068811,17.246167 37.088388,32 37.088388,32 L 22.160133,31.978069 C 22.160133,31.978069 26.997745,27.140456 26.997745,27.140456 C 18.528582,18.264221 13.291696,25.230495 11.500037,31.436501 z"
             style="fill:#404040;"/>
          </a>
         </g>
        </svg>
</svg>
