<?xml version="1.0" encoding="UTF-8" standalone="no"?>
<!DOCTYPE svg PUBLIC "-//W3C//DTD SVG 1.1//EN"
 "http://www.w3.org/Graphics/SVG/1.1/DTD/svg11.dtd">
<!-- Generated by graphviz version 2.40.1 (20161225.0304)
 -->
<!-- Title: /home/travis/build/AliceO2Group/AliceO2/Framework/Core/include/Framework/FairOptionsRetriever.h Pages: 1 -->
<svg width="840pt" height="240pt"
 viewBox="0.00 0.00 840.00 240.00" xmlns="http://www.w3.org/2000/svg" xmlns:xlink="http://www.w3.org/1999/xlink">
<g id="graph0" class="graph" transform="scale(1 1) rotate(0) translate(4 236)">
<title>/home/travis/build/AliceO2Group/AliceO2/Framework/Core/include/Framework/FairOptionsRetriever.h</title>
<!-- Node0 -->
<g id="node1" class="node">
<title>Node0</title>
<polygon fill="#bfbfbf" stroke="#000000" points="157.5,-179.5 157.5,-231.5 341.5,-231.5 341.5,-179.5 157.5,-179.5"/>
<text text-anchor="start" x="165.5" y="-219.5" font-family="Helvetica,sans-Serif" font-size="10.00" fill="#000000">/home/travis/build</text>
<text text-anchor="start" x="165.5" y="-208.5" font-family="Helvetica,sans-Serif" font-size="10.00" fill="#000000">/AliceO2Group/AliceO2</text>
<text text-anchor="start" x="165.5" y="-197.5" font-family="Helvetica,sans-Serif" font-size="10.00" fill="#000000">/Framework/Core/include</text>
<text text-anchor="middle" x="249.5" y="-186.5" font-family="Helvetica,sans-Serif" font-size="10.00" fill="#000000">/Framework/FairOptionsRetriever.h</text>
</g>
<!-- Node1 -->
<g id="node2" class="node">
<title>Node1</title>
<g id="a_node2"><a xlink:href="../../df/d72/ParamRetriever_8h.html" target="_top" xlink:title="Framework/ParamRetriever.h">
<polygon fill="none" stroke="#000000" points="64,-123.5 64,-142.5 221,-142.5 221,-123.5 64,-123.5"/>
<text text-anchor="middle" x="142.5" y="-130.5" font-family="Helvetica,sans-Serif" font-size="10.00" fill="#000000">Framework/ParamRetriever.h</text>
</a>
</g>
</g>
<!-- Node0&#45;&gt;Node1 -->
<g id="edge1" class="edge">
<title>Node0&#45;&gt;Node1</title>
<path fill="none" stroke="#191970" d="M210.8705,-179.3258C195.5012,-168.912 178.3533,-157.2931 165.0755,-148.2965"/>
<polygon fill="#191970" stroke="#191970" points="166.8128,-145.2459 156.5709,-142.534 162.8862,-151.0409 166.8128,-145.2459"/>
</g>
<!-- Node2 -->
<g id="node3" class="node">
<title>Node2</title>
<polygon fill="none" stroke="#bfbfbf" points="0,-56.5 0,-86.5 113,-86.5 113,-56.5 0,-56.5"/>
<text text-anchor="start" x="8" y="-74.5" font-family="Helvetica,sans-Serif" font-size="10.00" fill="#000000">boost/property_tree</text>
<text text-anchor="middle" x="56.5" y="-63.5" font-family="Helvetica,sans-Serif" font-size="10.00" fill="#000000">/ptree.hpp</text>
</g>
<!-- Node0&#45;&gt;Node2 -->
<g id="edge17" class="edge">
<title>Node0&#45;&gt;Node2</title>
<path fill="none" stroke="#191970" d="M157.2589,-186.855C113.2762,-175.9033 67.4388,-160.7341 54.5,-143 44.9588,-129.9226 45.6532,-111.6236 48.6331,-96.8118"/>
<polygon fill="#191970" stroke="#191970" points="52.1137,-97.313 51.0931,-86.7674 45.3147,-95.6478 52.1137,-97.313"/>
</g>
<!-- Node3 -->
<g id="node4" class="node">
<title>Node3</title>
<polygon fill="none" stroke="#bfbfbf" points="154.5,-.5 154.5,-19.5 198.5,-19.5 198.5,-.5 154.5,-.5"/>
<text text-anchor="middle" x="176.5" y="-7.5" font-family="Helvetica,sans-Serif" font-size="10.00" fill="#000000">string</text>
</g>
<!-- Node0&#45;&gt;Node3 -->
<g id="edge18" class="edge">
<title>Node0&#45;&gt;Node3</title>
<path fill="none" stroke="#191970" d="M256.1978,-179.2981C262.7166,-147.8786 268.8353,-94.6266 247.5,-56 238.9951,-40.6023 222.9083,-29.5438 208.1952,-22.1345"/>
<polygon fill="#191970" stroke="#191970" points="209.3626,-18.8178 198.8184,-17.7835 206.4163,-25.1675 209.3626,-18.8178"/>
</g>
<!-- Node4 -->
<g id="node5" class="node">
<title>Node4</title>
<polygon fill="none" stroke="#bfbfbf" points="192,-62 192,-81 239,-81 239,-62 192,-62"/>
<text text-anchor="middle" x="215.5" y="-69" font-family="Helvetica,sans-Serif" font-size="10.00" fill="#000000">vector</text>
</g>
<!-- Node0&#45;&gt;Node4 -->
<g id="edge19" class="edge">
<title>Node0&#45;&gt;Node4</title>
<path fill="none" stroke="#191970" d="M243.3779,-179.4445C239.5098,-163.1866 234.3437,-141.8412 229.5,-123 226.7846,-112.4377 223.6067,-100.7012 220.9655,-91.103"/>
<polygon fill="#191970" stroke="#191970" points="224.307,-90.0546 218.2649,-81.3515 217.5609,-91.9229 224.307,-90.0546"/>
</g>
<!-- Node5 -->
<g id="node6" class="node">
<title>Node5</title>
<g id="a_node6"><a xlink:href="../../d0/d1c/ConfigParamSpec_8h.html" target="_top" xlink:title="Framework/ConfigParamSpec.h">
<polygon fill="none" stroke="#000000" points="315,-123.5 315,-142.5 482,-142.5 482,-123.5 315,-123.5"/>
<text text-anchor="middle" x="398.5" y="-130.5" font-family="Helvetica,sans-Serif" font-size="10.00" fill="#000000">Framework/ConfigParamSpec.h</text>
</a>
</g>
</g>
<!-- Node0&#45;&gt;Node5 -->
<g id="edge5" class="edge">
<title>Node0&#45;&gt;Node5</title>
<path fill="none" stroke="#191970" d="M303.2924,-179.3258C325.7235,-168.4114 350.8752,-156.1731 369.6916,-147.0175"/>
<polygon fill="#191970" stroke="#191970" points="371.4453,-150.0566 378.906,-142.534 368.3826,-143.7622 371.4453,-150.0566"/>
</g>
<!-- Node1&#45;&gt;Node2 -->
<g id="edge2" class="edge">
<title>Node1&#45;&gt;Node2</title>
<path fill="none" stroke="#191970" d="M129.0625,-123.3906C117.5312,-115.1444 100.5024,-102.9669 85.8389,-92.4807"/>
<polygon fill="#191970" stroke="#191970" points="87.708,-89.5145 77.538,-86.5446 83.6362,-95.2084 87.708,-89.5145"/>
</g>
<!-- Node1&#45;&gt;Node3 -->
<g id="edge3" class="edge">
<title>Node1&#45;&gt;Node3</title>
<path fill="none" stroke="#191970" d="M145.1679,-123.3484C150.7541,-103.1397 163.7727,-56.0427 171.1505,-29.3528"/>
<polygon fill="#191970" stroke="#191970" points="174.5536,-30.1778 173.8445,-19.6068 167.8066,-28.3128 174.5536,-30.1778"/>
</g>
<!-- Node1&#45;&gt;Node4 -->
<g id="edge4" class="edge">
<title>Node1&#45;&gt;Node4</title>
<path fill="none" stroke="#191970" d="M153.9063,-123.3906C165.1969,-113.8786 182.6967,-99.1357 196.1619,-87.7917"/>
<polygon fill="#191970" stroke="#191970" points="198.5402,-90.3646 203.9329,-81.2449 194.0301,-85.0111 198.5402,-90.3646"/>
</g>
<!-- Node5&#45;&gt;Node3 -->
<g id="edge16" class="edge">
<title>Node5&#45;&gt;Node3</title>
<path fill="none" stroke="#191970" d="M388.5297,-123.2702C371.774,-107.3587 336.368,-75.5857 301.5,-56 285.2178,-46.8541 239.7217,-30.9375 208.3574,-20.4347"/>
<polygon fill="#191970" stroke="#191970" points="209.3193,-17.0662 198.7258,-17.2304 207.1096,-23.7083 209.3193,-17.0662"/>
</g>
<!-- Node6 -->
<g id="node7" class="node">
<title>Node6</title>
<g id="a_node7"><a xlink:href="../../de/d56/Variant_8h.html" target="_top" xlink:title="Framework/Variant.h">
<polygon fill="none" stroke="#000000" points="386,-62 386,-81 503,-81 503,-62 386,-62"/>
<text text-anchor="middle" x="444.5" y="-69" font-family="Helvetica,sans-Serif" font-size="10.00" fill="#000000">Framework/Variant.h</text>
</a>
</g>
</g>
<!-- Node5&#45;&gt;Node6 -->
<g id="edge6" class="edge">
<title>Node5&#45;&gt;Node6</title>
<path fill="none" stroke="#191970" d="M405.6875,-123.3906C412.4666,-114.3273 422.7978,-100.5149 431.0973,-89.4188"/>
<polygon fill="#191970" stroke="#191970" points="434.0243,-91.349 437.2112,-81.2449 428.4188,-87.1563 434.0243,-91.349"/>
</g>
<!-- Node6&#45;&gt;Node3 -->
<g id="edge15" class="edge">
<title>Node6&#45;&gt;Node3</title>
<path fill="none" stroke="#191970" d="M393.7601,-61.9722C347.7009,-52.9868 277.7619,-38.5064 208.5342,-20.097"/>
<polygon fill="#191970" stroke="#191970" points="209.3389,-16.6891 198.7731,-17.4734 207.5219,-23.4492 209.3389,-16.6891"/>
</g>
<!-- Node7 -->
<g id="node8" class="node">
<title>Node7</title>
<polygon fill="none" stroke="#bfbfbf" points="217,-.5 217,-19.5 286,-19.5 286,-.5 217,-.5"/>
<text text-anchor="middle" x="251.5" y="-7.5" font-family="Helvetica,sans-Serif" font-size="10.00" fill="#000000">type_traits</text>
</g>
<!-- Node6&#45;&gt;Node7 -->
<g id="edge7" class="edge">
<title>Node6&#45;&gt;Node7</title>
<path fill="none" stroke="#191970" d="M414.3438,-61.8906C381.2015,-51.3298 327.8238,-34.3208 291.2758,-22.6747"/>
<polygon fill="#191970" stroke="#191970" points="292.0351,-19.2433 281.4445,-19.5419 289.9098,-25.9129 292.0351,-19.2433"/>
</g>
<!-- Node8 -->
<g id="node9" class="node">
<title>Node8</title>
<polygon fill="none" stroke="#bfbfbf" points="304.5,-.5 304.5,-19.5 354.5,-19.5 354.5,-.5 304.5,-.5"/>
<text text-anchor="middle" x="329.5" y="-7.5" font-family="Helvetica,sans-Serif" font-size="10.00" fill="#000000">cstring</text>
</g>
<!-- Node6&#45;&gt;Node8 -->
<g id="edge8" class="edge">
<title>Node6&#45;&gt;Node8</title>
<path fill="none" stroke="#191970" d="M426.5313,-61.8906C407.7116,-51.8262 377.9415,-35.9057 356.3359,-24.3514"/>
<polygon fill="#191970" stroke="#191970" points="357.8114,-21.1714 347.3426,-19.5419 354.5102,-27.3442 357.8114,-21.1714"/>
</g>
<!-- Node9 -->
<g id="node10" class="node">
<title>Node9</title>
<polygon fill="none" stroke="#bfbfbf" points="372.5,-.5 372.5,-19.5 422.5,-19.5 422.5,-.5 372.5,-.5"/>
<text text-anchor="middle" x="397.5" y="-7.5" font-family="Helvetica,sans-Serif" font-size="10.00" fill="#000000">cstdint</text>
</g>
<!-- Node6&#45;&gt;Node9 -->
<g id="edge9" class="edge">
<title>Node6&#45;&gt;Node9</title>
<path fill="none" stroke="#191970" d="M437.1563,-61.8906C430.2298,-52.8273 419.674,-39.0149 411.194,-27.9188"/>
<polygon fill="#191970" stroke="#191970" points="413.8003,-25.565 404.9473,-19.7449 408.2385,-29.8155 413.8003,-25.565"/>
</g>
<!-- Node10 -->
<g id="node11" class="node">
<title>Node10</title>
<polygon fill="none" stroke="#bfbfbf" points="441,-.5 441,-19.5 490,-19.5 490,-.5 441,-.5"/>
<text text-anchor="middle" x="465.5" y="-7.5" font-family="Helvetica,sans-Serif" font-size="10.00" fill="#000000">cstdlib</text>
</g>
<!-- Node6&#45;&gt;Node10 -->
<g id="edge10" class="edge">
<title>Node6&#45;&gt;Node10</title>
<path fill="none" stroke="#191970" d="M447.7813,-61.8906C450.7535,-53.1862 455.2214,-40.1015 458.927,-29.2494"/>
<polygon fill="#191970" stroke="#191970" points="462.2532,-30.3394 462.1725,-19.7449 455.6288,-28.0773 462.2532,-30.3394"/>
</g>
<!-- Node11 -->
<g id="node12" class="node">
<title>Node11</title>
<polygon fill="none" stroke="#bfbfbf" points="508,-.5 508,-19.5 573,-19.5 573,-.5 508,-.5"/>
<text text-anchor="middle" x="540.5" y="-7.5" font-family="Helvetica,sans-Serif" font-size="10.00" fill="#000000">stdexcept</text>
</g>
<!-- Node6&#45;&gt;Node11 -->
<g id="edge11" class="edge">
<title>Node6&#45;&gt;Node11</title>
<path fill="none" stroke="#191970" d="M459.5,-61.8906C474.8581,-52.0519 498.9521,-36.6167 516.8745,-25.1351"/>
<polygon fill="#191970" stroke="#191970" points="519.073,-27.8833 525.6053,-19.5419 515.297,-21.9891 519.073,-27.8833"/>
</g>
<!-- Node12 -->
<g id="node13" class="node">
<title>Node12</title>
<polygon fill="none" stroke="#bfbfbf" points="591,-.5 591,-19.5 640,-19.5 640,-.5 591,-.5"/>
<text text-anchor="middle" x="615.5" y="-7.5" font-family="Helvetica,sans-Serif" font-size="10.00" fill="#000000">iosfwd</text>
</g>
<!-- Node6&#45;&gt;Node12 -->
<g id="edge12" class="edge">
<title>Node6&#45;&gt;Node12</title>
<path fill="none" stroke="#191970" d="M471.2188,-61.8906C500.928,-51.2057 548.9898,-33.9203 581.3931,-22.2665"/>
<polygon fill="#191970" stroke="#191970" points="582.6835,-25.522 590.9089,-18.8442 580.3144,-18.935 582.6835,-25.522"/>
</g>
<!-- Node13 -->
<g id="node14" class="node">
<title>Node13</title>
<polygon fill="none" stroke="#bfbfbf" points="658,-.5 658,-19.5 741,-19.5 741,-.5 658,-.5"/>
<text text-anchor="middle" x="699.5" y="-7.5" font-family="Helvetica,sans-Serif" font-size="10.00" fill="#000000">initializer_list</text>
</g>
<!-- Node6&#45;&gt;Node13 -->
<g id="edge13" class="edge">
<title>Node6&#45;&gt;Node13</title>
<path fill="none" stroke="#191970" d="M484.064,-61.9581C528.73,-51.1857 601.4687,-33.6428 649.897,-21.9631"/>
<polygon fill="#191970" stroke="#191970" points="650.9426,-25.3113 659.8432,-19.5643 649.3013,-18.5065 650.9426,-25.3113"/>
</g>
<!-- Node14 -->
<g id="node15" class="node">
<title>Node14</title>
<polygon fill="none" stroke="#bfbfbf" points="759,-.5 759,-19.5 832,-19.5 832,-.5 759,-.5"/>
<text text-anchor="middle" x="795.5" y="-7.5" font-family="Helvetica,sans-Serif" font-size="10.00" fill="#000000">string_view</text>
</g>
<!-- Node6&#45;&gt;Node14 -->
<g id="edge14" class="edge">
<title>Node6&#45;&gt;Node14</title>
<path fill="none" stroke="#191970" d="M503.0406,-62.5734C562.5797,-53.2859 657.7291,-37.8712 748.7629,-20.2741"/>
<polygon fill="#191970" stroke="#191970" points="749.5479,-23.6871 758.6956,-18.342 748.2113,-16.8159 749.5479,-23.6871"/>
</g>
</g>
</svg>
