<?xml version="1.0" encoding="UTF-8" standalone="no"?>
<!DOCTYPE svg PUBLIC "-//W3C//DTD SVG 1.1//EN"
 "http://www.w3.org/Graphics/SVG/1.1/DTD/svg11.dtd">
<!-- Generated by graphviz version 2.40.1 (20161225.0304)
 -->
<!-- Title: GPUCA_NAMESPACE::gpu::GPUSettingsRec Pages: 1 -->
<svg width="587pt" height="380pt"
 viewBox="0.00 0.00 587.00 380.00" xmlns="http://www.w3.org/2000/svg" xmlns:xlink="http://www.w3.org/1999/xlink">
<g id="graph0" class="graph" transform="scale(1 1) rotate(0) translate(4 376)">
<title>GPUCA_NAMESPACE::gpu::GPUSettingsRec</title>
<!-- Node1 -->
<g id="node1" class="node">
<title>Node1</title>
<polygon fill="#bfbfbf" stroke="#000000" points="168.5,-.5 168.5,-134.5 321.5,-134.5 321.5,-.5 168.5,-.5"/>
<text text-anchor="start" x="176.5" y="-122.5" font-family="Helvetica,sans-Serif" font-size="10.00" fill="#000000">GPUCA_NAMESPACE::gpu</text>
<text text-anchor="middle" x="245" y="-111.5" font-family="Helvetica,sans-Serif" font-size="10.00" fill="#000000">::GPUSettingsRec</text>
<polyline fill="none" stroke="#000000" points="168.5,-104.5 321.5,-104.5 "/>
<text text-anchor="start" x="176.5" y="-92.5" font-family="Helvetica,sans-Serif" font-size="10.00" fill="#000000">+ dEdxTruncLow</text>
<text text-anchor="start" x="176.5" y="-81.5" font-family="Helvetica,sans-Serif" font-size="10.00" fill="#000000">+ tpcRejectionMode</text>
<text text-anchor="start" x="176.5" y="-70.5" font-family="Helvetica,sans-Serif" font-size="10.00" fill="#000000">+ tpcCompressionSortOrder</text>
<text text-anchor="start" x="176.5" y="-59.5" font-family="Helvetica,sans-Serif" font-size="10.00" fill="#000000">+ dropLoopers</text>
<text text-anchor="start" x="176.5" y="-48.5" font-family="Helvetica,sans-Serif" font-size="10.00" fill="#000000">+ fitInProjections</text>
<polyline fill="none" stroke="#000000" points="168.5,-41.5 321.5,-41.5 "/>
<text text-anchor="start" x="176.5" y="-29.5" font-family="Helvetica,sans-Serif" font-size="10.00" fill="#000000">+ GPUSettingsRec()</text>
<text text-anchor="start" x="176.5" y="-18.5" font-family="Helvetica,sans-Serif" font-size="10.00" fill="#000000">+ SetDefaults()</text>
<text text-anchor="start" x="176.5" y="-7.5" font-family="Helvetica,sans-Serif" font-size="10.00" fill="#000000">+ SetMinTrackPt()</text>
</g>
<!-- Node2 -->
<g id="node2" class="node">
<title>Node2</title>
<polygon fill="none" stroke="#bfbfbf" points="0,-314.5 0,-371.5 38,-371.5 38,-314.5 0,-314.5"/>
<text text-anchor="middle" x="19" y="-359.5" font-family="Helvetica,sans-Serif" font-size="10.00" fill="#000000">char</text>
<polyline fill="none" stroke="#bfbfbf" points="0,-352.5 38,-352.5 "/>
<text text-anchor="middle" x="19" y="-340.5" font-family="Helvetica,sans-Serif" font-size="10.00" fill="#000000"> </text>
<polyline fill="none" stroke="#bfbfbf" points="0,-333.5 38,-333.5 "/>
<text text-anchor="middle" x="19" y="-321.5" font-family="Helvetica,sans-Serif" font-size="10.00" fill="#000000"> </text>
</g>
<!-- Node2&#45;&gt;Node1 -->
<g id="edge1" class="edge">
<title>Node2&#45;&gt;Node1</title>
<path fill="none" stroke="#404040" d="M11.0764,-314.1725C1.8794,-274.045 -8.0289,-200.8978 26,-153 55.9098,-110.9001 109.7514,-89.5297 156.5619,-78.6821"/>
<polygon fill="none" stroke="#404040" points="156.5638,-78.6818 161.5825,-73.5036 168.2925,-76.1447 163.2738,-81.3228 156.5638,-78.6818"/>
<text text-anchor="middle" x="89.5" y="-288" font-family="Helvetica,sans-Serif" font-size="10.00" fill="#000000"> +NonConsecutiveIDs</text>
<text text-anchor="middle" x="89.5" y="-277" font-family="Helvetica,sans-Serif" font-size="10.00" fill="#000000">+fitPropagateBzOnly</text>
<text text-anchor="start" x="26" y="-266" font-family="Helvetica,sans-Serif" font-size="10.00" fill="#000000">+loopInterpolationInExtra</text>
<text text-anchor="middle" x="89.5" y="-255" font-family="Helvetica,sans-Serif" font-size="10.00" fill="#000000">Pass</text>
<text text-anchor="middle" x="89.5" y="-244" font-family="Helvetica,sans-Serif" font-size="10.00" fill="#000000">+RejectMode</text>
<text text-anchor="middle" x="89.5" y="-233" font-family="Helvetica,sans-Serif" font-size="10.00" fill="#000000">+ForceEarlyTPCTransform</text>
<text text-anchor="middle" x="89.5" y="-222" font-family="Helvetica,sans-Serif" font-size="10.00" fill="#000000">+NWays</text>
<text text-anchor="middle" x="89.5" y="-211" font-family="Helvetica,sans-Serif" font-size="10.00" fill="#000000">+NWaysOuter</text>
<text text-anchor="middle" x="89.5" y="-200" font-family="Helvetica,sans-Serif" font-size="10.00" fill="#000000">+GlobalTracking</text>
<text text-anchor="start" x="26" y="-189" font-family="Helvetica,sans-Serif" font-size="10.00" fill="#000000">+mergerReadFromTracker</text>
<text text-anchor="middle" x="89.5" y="-178" font-family="Helvetica,sans-Serif" font-size="10.00" fill="#000000">Directly</text>
<text text-anchor="middle" x="89.5" y="-167" font-family="Helvetica,sans-Serif" font-size="10.00" fill="#000000">+retryRefit</text>
<text text-anchor="middle" x="89.5" y="-156" font-family="Helvetica,sans-Serif" font-size="10.00" fill="#000000">...</text>
</g>
<!-- Node3 -->
<g id="node3" class="node">
<title>Node3</title>
<g id="a_node3"><a xlink:href="../../d4/dc3/classfloat.html" target="_top" xlink:title="{float\n||}">
<polygon fill="none" stroke="#000000" points="150,-314.5 150,-371.5 188,-371.5 188,-314.5 150,-314.5"/>
<text text-anchor="middle" x="169" y="-359.5" font-family="Helvetica,sans-Serif" font-size="10.00" fill="#000000">float</text>
<polyline fill="none" stroke="#000000" points="150,-352.5 188,-352.5 "/>
<text text-anchor="middle" x="169" y="-340.5" font-family="Helvetica,sans-Serif" font-size="10.00" fill="#000000"> </text>
<polyline fill="none" stroke="#000000" points="150,-333.5 188,-333.5 "/>
<text text-anchor="middle" x="169" y="-321.5" font-family="Helvetica,sans-Serif" font-size="10.00" fill="#000000"> </text>
</a>
</g>
</g>
<!-- Node3&#45;&gt;Node1 -->
<g id="edge2" class="edge">
<title>Node3&#45;&gt;Node1</title>
<path fill="none" stroke="#404040" d="M163.0862,-314.1824C156.573,-275.941 149.5204,-206.9716 170,-153 170.9676,-150.4501 172.0491,-147.9264 173.2294,-145.4336"/>
<polygon fill="none" stroke="#404040" points="173.309,-145.2853 172.6266,-138.1066 178.9907,-134.7156 179.6731,-141.8943 173.309,-145.2853"/>
<text text-anchor="middle" x="234.5" y="-266" font-family="Helvetica,sans-Serif" font-size="10.00" fill="#000000"> +tpcRejectQPt</text>
<text text-anchor="start" x="170" y="-255" font-family="Helvetica,sans-Serif" font-size="10.00" fill="#000000">+ClusterError2Correction</text>
<text text-anchor="middle" x="234.5" y="-244" font-family="Helvetica,sans-Serif" font-size="10.00" fill="#000000">Z</text>
<text text-anchor="middle" x="234.5" y="-233" font-family="Helvetica,sans-Serif" font-size="10.00" fill="#000000">+NeighboursSearchArea</text>
<text text-anchor="middle" x="234.5" y="-222" font-family="Helvetica,sans-Serif" font-size="10.00" fill="#000000">+TrackReferenceX</text>
<text text-anchor="middle" x="234.5" y="-211" font-family="Helvetica,sans-Serif" font-size="10.00" fill="#000000">+SearchWindowDZDR</text>
<text text-anchor="middle" x="234.5" y="-200" font-family="Helvetica,sans-Serif" font-size="10.00" fill="#000000">+MaxTrackQPt</text>
<text text-anchor="middle" x="234.5" y="-189" font-family="Helvetica,sans-Serif" font-size="10.00" fill="#000000">+HitPickUpFactor</text>
<text text-anchor="middle" x="234.5" y="-178" font-family="Helvetica,sans-Serif" font-size="10.00" fill="#000000">+ClusterError2CorrectionY</text>
</g>
<!-- Node4 -->
<g id="node4" class="node">
<title>Node4</title>
<polygon fill="none" stroke="#bfbfbf" points="306.5,-314.5 306.5,-371.5 335.5,-371.5 335.5,-314.5 306.5,-314.5"/>
<text text-anchor="middle" x="321" y="-359.5" font-family="Helvetica,sans-Serif" font-size="10.00" fill="#000000">int</text>
<polyline fill="none" stroke="#bfbfbf" points="306.5,-352.5 335.5,-352.5 "/>
<text text-anchor="middle" x="321" y="-340.5" font-family="Helvetica,sans-Serif" font-size="10.00" fill="#000000"> </text>
<polyline fill="none" stroke="#bfbfbf" points="306.5,-333.5 335.5,-333.5 "/>
<text text-anchor="middle" x="321" y="-321.5" font-family="Helvetica,sans-Serif" font-size="10.00" fill="#000000"> </text>
</g>
<!-- Node4&#45;&gt;Node1 -->
<g id="edge3" class="edge">
<title>Node4&#45;&gt;Node1</title>
<path fill="none" stroke="#404040" d="M321.5951,-314.4307C321.5197,-276.4642 318.3408,-207.7984 299,-153 298.1555,-150.6072 297.2342,-148.2121 296.2475,-145.8225"/>
<polygon fill="none" stroke="#404040" points="296.1618,-145.6338 290.0372,-141.8272 291.1954,-134.7097 297.32,-138.5163 296.1618,-145.6338"/>
<text text-anchor="middle" x="372" y="-222" font-family="Helvetica,sans-Serif" font-size="10.00" fill="#000000"> +MinNTrackClusters</text>
</g>
<!-- Node5 -->
<g id="node5" class="node">
<title>Node5</title>
<polygon fill="none" stroke="#bfbfbf" points="415.5,-314.5 415.5,-371.5 476.5,-371.5 476.5,-314.5 415.5,-314.5"/>
<text text-anchor="middle" x="446" y="-359.5" font-family="Helvetica,sans-Serif" font-size="10.00" fill="#000000">unsigned</text>
<polyline fill="none" stroke="#bfbfbf" points="415.5,-352.5 476.5,-352.5 "/>
<text text-anchor="middle" x="446" y="-340.5" font-family="Helvetica,sans-Serif" font-size="10.00" fill="#000000"> </text>
<polyline fill="none" stroke="#bfbfbf" points="415.5,-333.5 476.5,-333.5 "/>
<text text-anchor="middle" x="446" y="-321.5" font-family="Helvetica,sans-Serif" font-size="10.00" fill="#000000"> </text>
</g>
<!-- Node5&#45;&gt;Node1 -->
<g id="edge4" class="edge">
<title>Node5&#45;&gt;Node1</title>
<path fill="none" stroke="#404040" d="M450.6854,-314.2284C455.571,-274.1673 458.3547,-201.0985 424,-153 402.2393,-122.5338 366.6811,-102.5245 332.9678,-89.585"/>
<polygon fill="none" stroke="#404040" points="332.9059,-89.5626 325.9003,-91.2721 321.6279,-85.4629 328.6334,-83.7534 332.9059,-89.5626"/>
<text text-anchor="middle" x="516" y="-277" font-family="Helvetica,sans-Serif" font-size="10.00" fill="#000000"> +bz0Pt</text>
<text text-anchor="middle" x="516" y="-266" font-family="Helvetica,sans-Serif" font-size="10.00" fill="#000000">+tpcCompressionModes</text>
<text text-anchor="middle" x="516" y="-255" font-family="Helvetica,sans-Serif" font-size="10.00" fill="#000000">+tpcZSthreshold</text>
<text text-anchor="middle" x="516" y="-244" font-family="Helvetica,sans-Serif" font-size="10.00" fill="#000000">+mergerCovSource</text>
<text text-anchor="middle" x="516" y="-233" font-family="Helvetica,sans-Serif" font-size="10.00" fill="#000000">+fwdTPCDigitsAsClusters</text>
<text text-anchor="middle" x="516" y="-222" font-family="Helvetica,sans-Serif" font-size="10.00" fill="#000000">+tpcSigBitsWidth</text>
<text text-anchor="middle" x="516" y="-211" font-family="Helvetica,sans-Serif" font-size="10.00" fill="#000000">+dEdxTruncHigh</text>
<text text-anchor="middle" x="516" y="-200" font-family="Helvetica,sans-Serif" font-size="10.00" fill="#000000">+mergerInterpolateErrors</text>
<text text-anchor="middle" x="516" y="-189" font-family="Helvetica,sans-Serif" font-size="10.00" fill="#000000">+tpcSigBitsCharge</text>
<text text-anchor="middle" x="516" y="-178" font-family="Helvetica,sans-Serif" font-size="10.00" fill="#000000">+DisableRefitAttachment</text>
<text text-anchor="middle" x="516" y="-167" font-family="Helvetica,sans-Serif" font-size="10.00" fill="#000000">...</text>
</g>
</g>
</svg>
