<?xml version="1.0" encoding="UTF-8" standalone="no"?>
<!DOCTYPE svg PUBLIC "-//W3C//DTD SVG 1.1//EN"
 "http://www.w3.org/Graphics/SVG/1.1/DTD/svg11.dtd">
<!-- Generated by graphviz version 2.40.1 (20161225.0304)
 -->
<!-- Title: /home/travis/build/AliceO2Group/AliceO2/Detectors/TPC/base/include/TPCBase/Digit.h Pages: 1 -->
<svg width="415pt" height="229pt"
 viewBox="0.00 0.00 414.50 229.00" xmlns="http://www.w3.org/2000/svg" xmlns:xlink="http://www.w3.org/1999/xlink">
<g id="graph0" class="graph" transform="scale(1 1) rotate(0) translate(4 225)">
<title>/home/travis/build/AliceO2Group/AliceO2/Detectors/TPC/base/include/TPCBase/Digit.h</title>
<!-- Node0 -->
<g id="node1" class="node">
<title>Node0</title>
<polygon fill="#bfbfbf" stroke="#000000" points="113,-168.5 113,-220.5 266,-220.5 266,-168.5 113,-168.5"/>
<text text-anchor="start" x="121" y="-208.5" font-family="Helvetica,sans-Serif" font-size="10.00" fill="#000000">/home/travis/build</text>
<text text-anchor="start" x="121" y="-197.5" font-family="Helvetica,sans-Serif" font-size="10.00" fill="#000000">/AliceO2Group/AliceO2</text>
<text text-anchor="start" x="121" y="-186.5" font-family="Helvetica,sans-Serif" font-size="10.00" fill="#000000">/Detectors/TPC/base/include</text>
<text text-anchor="middle" x="189.5" y="-175.5" font-family="Helvetica,sans-Serif" font-size="10.00" fill="#000000">/TPCBase/Digit.h</text>
</g>
<!-- Node1 -->
<g id="node2" class="node">
<title>Node1</title>
<g id="a_node2"><a xlink:href="../../d2/d45/GPUCommonRtypes_8h.html" target="_top" xlink:title="GPUCommonRtypes.h">
<polygon fill="none" stroke="#000000" points="0,-56.5 0,-75.5 125,-75.5 125,-56.5 0,-56.5"/>
<text text-anchor="middle" x="62.5" y="-63.5" font-family="Helvetica,sans-Serif" font-size="10.00" fill="#000000">GPUCommonRtypes.h</text>
</a>
</g>
</g>
<!-- Node0&#45;&gt;Node1 -->
<g id="edge1" class="edge">
<title>Node0&#45;&gt;Node1</title>
<path fill="none" stroke="#191970" d="M112.6723,-174.1357C75.7217,-162.6315 37.1461,-147.4839 26.5,-132 15.4564,-115.9379 29.5496,-96.1547 43.2097,-82.4584"/>
<polygon fill="#191970" stroke="#191970" points="45.6901,-84.9306 50.5917,-75.5378 40.9025,-79.8238 45.6901,-84.9306"/>
</g>
<!-- Node3 -->
<g id="node4" class="node">
<title>Node3</title>
<g id="a_node4"><a xlink:href="../../df/d21/GPUCommonDef_8h.html" target="_top" xlink:title="GPUCommonDef.h">
<polygon fill="none" stroke="#000000" points="170,-56.5 170,-75.5 277,-75.5 277,-56.5 170,-56.5"/>
<text text-anchor="middle" x="223.5" y="-63.5" font-family="Helvetica,sans-Serif" font-size="10.00" fill="#000000">GPUCommonDef.h</text>
</a>
</g>
</g>
<!-- Node0&#45;&gt;Node3 -->
<g id="edge3" class="edge">
<title>Node0&#45;&gt;Node3</title>
<path fill="none" stroke="#191970" d="M212.1448,-168.3186C219.8613,-157.7588 227.5361,-145.0054 231.5,-132 236.127,-116.8189 233.4757,-98.9056 230.0298,-85.5745"/>
<polygon fill="#191970" stroke="#191970" points="233.2779,-84.2152 227.0906,-75.6147 226.5641,-86.1965 233.2779,-84.2152"/>
</g>
<!-- Node6 -->
<g id="node7" class="node">
<title>Node6</title>
<g id="a_node7"><a xlink:href="../../df/d5d/common_2include_2CommonDataFormat_2TimeStamp_8h.html" target="_top" xlink:title="CommonDataFormat/TimeStamp.h">
<polygon fill="none" stroke="#000000" points="36,-112.5 36,-131.5 223,-131.5 223,-112.5 36,-112.5"/>
<text text-anchor="middle" x="129.5" y="-119.5" font-family="Helvetica,sans-Serif" font-size="10.00" fill="#000000">CommonDataFormat/TimeStamp.h</text>
</a>
</g>
</g>
<!-- Node0&#45;&gt;Node6 -->
<g id="edge6" class="edge">
<title>Node0&#45;&gt;Node6</title>
<path fill="none" stroke="#191970" d="M167.8386,-168.3258C159.8833,-158.7131 151.0781,-148.0735 143.9144,-139.4174"/>
<polygon fill="#191970" stroke="#191970" points="146.4623,-137.0065 137.3902,-131.534 141.0695,-141.4695 146.4623,-137.0065"/>
</g>
<!-- Node7 -->
<g id="node8" class="node">
<title>Node7</title>
<polygon fill="none" stroke="#bfbfbf" points="278.5,-112.5 278.5,-131.5 328.5,-131.5 328.5,-112.5 278.5,-112.5"/>
<text text-anchor="middle" x="303.5" y="-119.5" font-family="Helvetica,sans-Serif" font-size="10.00" fill="#000000">climits</text>
</g>
<!-- Node0&#45;&gt;Node7 -->
<g id="edge9" class="edge">
<title>Node0&#45;&gt;Node7</title>
<path fill="none" stroke="#191970" d="M230.6566,-168.3258C247.1889,-157.8119 265.6527,-146.0696 279.8545,-137.0377"/>
<polygon fill="#191970" stroke="#191970" points="281.9487,-139.8538 288.5086,-131.534 278.1922,-133.9471 281.9487,-139.8538"/>
</g>
<!-- Node2 -->
<g id="node3" class="node">
<title>Node2</title>
<polygon fill="none" stroke="#bfbfbf" points="33,-.5 33,-19.5 92,-19.5 92,-.5 33,-.5"/>
<text text-anchor="middle" x="62.5" y="-7.5" font-family="Helvetica,sans-Serif" font-size="10.00" fill="#000000">Rtypes.h</text>
</g>
<!-- Node1&#45;&gt;Node2 -->
<g id="edge2" class="edge">
<title>Node1&#45;&gt;Node2</title>
<path fill="none" stroke="#191970" d="M62.5,-56.2455C62.5,-48.9382 62.5,-38.6944 62.5,-29.7046"/>
<polygon fill="#191970" stroke="#191970" points="66.0001,-29.6426 62.5,-19.6427 59.0001,-29.6427 66.0001,-29.6426"/>
</g>
<!-- Node4 -->
<g id="node5" class="node">
<title>Node4</title>
<g id="a_node5"><a xlink:href="../../d5/d93/GPUCommonDefSettings_8h.html" target="_top" xlink:title="GPUCommonDefSettings.h">
<polygon fill="none" stroke="#000000" points="116.5,-.5 116.5,-19.5 264.5,-19.5 264.5,-.5 116.5,-.5"/>
<text text-anchor="middle" x="190.5" y="-7.5" font-family="Helvetica,sans-Serif" font-size="10.00" fill="#000000">GPUCommonDefSettings.h</text>
</a>
</g>
</g>
<!-- Node3&#45;&gt;Node4 -->
<g id="edge4" class="edge">
<title>Node3&#45;&gt;Node4</title>
<path fill="none" stroke="#191970" d="M217.7518,-56.2455C213.2565,-48.617 206.8752,-37.7881 201.4175,-28.5267"/>
<polygon fill="#191970" stroke="#191970" points="204.2747,-26.4811 196.1823,-19.6427 198.2439,-30.035 204.2747,-26.4811"/>
</g>
<!-- Node5 -->
<g id="node6" class="node">
<title>Node5</title>
<g id="a_node6"><a xlink:href="../../da/d5a/GPUCommonDefAPI_8h.html" target="_top" xlink:title="GPUCommonDefAPI.h">
<polygon fill="none" stroke="#000000" points="282.5,-.5 282.5,-19.5 406.5,-19.5 406.5,-.5 282.5,-.5"/>
<text text-anchor="middle" x="344.5" y="-7.5" font-family="Helvetica,sans-Serif" font-size="10.00" fill="#000000">GPUCommonDefAPI.h</text>
</a>
</g>
</g>
<!-- Node3&#45;&gt;Node5 -->
<g id="edge5" class="edge">
<title>Node3&#45;&gt;Node5</title>
<path fill="none" stroke="#191970" d="M244.3006,-56.3733C263.7243,-47.3838 292.9224,-33.8706 314.7964,-23.7471"/>
<polygon fill="#191970" stroke="#191970" points="316.3656,-26.8776 323.9708,-19.5011 313.4255,-20.5249 316.3656,-26.8776"/>
</g>
<!-- Node6&#45;&gt;Node1 -->
<g id="edge7" class="edge">
<title>Node6&#45;&gt;Node1</title>
<path fill="none" stroke="#191970" d="M117.8295,-112.2455C107.9339,-103.9746 93.5373,-91.9416 81.9099,-82.2232"/>
<polygon fill="#191970" stroke="#191970" points="83.9542,-79.3703 74.0368,-75.6427 79.465,-84.7413 83.9542,-79.3703"/>
</g>
<!-- Node6&#45;&gt;Node3 -->
<g id="edge8" class="edge">
<title>Node6&#45;&gt;Node3</title>
<path fill="none" stroke="#191970" d="M145.8736,-112.2455C160.4308,-103.5731 181.931,-90.7645 198.6152,-80.825"/>
<polygon fill="#191970" stroke="#191970" points="200.5144,-83.7676 207.3141,-75.6427 196.9317,-77.7539 200.5144,-83.7676"/>
</g>
</g>
</svg>
