<?xml version="1.0" encoding="UTF-8" standalone="no"?>
<!DOCTYPE svg PUBLIC "-//W3C//DTD SVG 1.1//EN"
 "http://www.w3.org/Graphics/SVG/1.1/DTD/svg11.dtd">
<!-- Generated by graphviz version 2.40.1 (20161225.0304)
 -->
<!-- Title: o2::base::BaseDPLDigitizer Pages: 1 -->
<!--zoomable 606 -->
<svg id="main" version="1.1" xmlns="http://www.w3.org/2000/svg" xmlns:xlink="http://www.w3.org/1999/xlink" xml:space="preserve" onload="init(evt)">
<style type="text/css"><![CDATA[
.edge:hover path { stroke: red; }
.edge:hover polygon { stroke: red; fill: red; }
]]></style>
<script type="text/javascript"><![CDATA[
var edges = document.getElementsByTagName('g');
if (edges && edges.length) {
  for (var i=0;i<edges.length;i++) {
    if (edges[i].id.substr(0,4)=='edge') {
      edges[i].setAttribute('class','edge');
    }
  }
}
]]></script>
        <defs>
                <circle id="rim" cx="0" cy="0" r="7"/>
                <circle id="rim2" cx="0" cy="0" r="3.5"/>
                <g id="zoomPlus">
                        <use xlink:href="#rim" fill="#404040">
                                <set attributeName="fill" to="#808080" begin="zoomplus.mouseover" end="zoomplus.mouseout"/>
                        </use>
                        <path d="M-4,0h8M0,-4v8" fill="none" stroke="white" stroke-width="1.5" pointer-events="none"/>
                </g>
                <g id="zoomMin">
                        <use xlink:href="#rim" fill="#404040">
                                <set attributeName="fill" to="#808080" begin="zoomminus.mouseover" end="zoomminus.mouseout"/>
                        </use>
                        <path d="M-4,0h8" fill="none" stroke="white" stroke-width="1.5" pointer-events="none"/>
                </g>
                <g id="dirArrow">
                        <path fill="none" stroke="white" stroke-width="1.5" d="M0,-3.0v7 M-2.5,-0.5L0,-3.0L2.5,-0.5"/>
                </g>
               <g id="resetDef">
                       <use xlink:href="#rim2" fill="#404040">
                               <set attributeName="fill" to="#808080" begin="reset.mouseover" end="reset.mouseout"/>
                       </use>
               </g>
        </defs>

<script type="text/javascript">
var viewWidth = 2421;
var viewHeight = 606;
var sectionId = 'dynsection-0';
</script>
<script xlink:href="../../svgpan.js"/>
<svg id="graph" class="graph">
<g id="viewport">
<title>o2::base::BaseDPLDigitizer</title>
<!-- Node0 -->
<g id="node1" class="node">
<title>Node0</title>
<polygon fill="#bfbfbf" stroke="#000000" points="1135,-496.5 1135,-597.5 1283,-597.5 1283,-496.5 1135,-496.5"/>
<text text-anchor="middle" x="1209" y="-585.5" font-family="Helvetica,sans-Serif" font-size="10.00" fill="#000000">o2::base::BaseDPLDigitizer</text>
<polyline fill="none" stroke="#000000" points="1135,-578.5 1283,-578.5 "/>
<text text-anchor="middle" x="1209" y="-566.5" font-family="Helvetica,sans-Serif" font-size="10.00" fill="#000000"> </text>
<polyline fill="none" stroke="#000000" points="1135,-559.5 1283,-559.5 "/>
<text text-anchor="start" x="1143" y="-547.5" font-family="Helvetica,sans-Serif" font-size="10.00" fill="#000000">+ BaseDPLDigitizer()</text>
<text text-anchor="start" x="1143" y="-536.5" font-family="Helvetica,sans-Serif" font-size="10.00" fill="#000000">+ ~BaseDPLDigitizer()</text>
<text text-anchor="start" x="1143" y="-525.5" font-family="Helvetica,sans-Serif" font-size="10.00" fill="#000000">+ BaseDPLDigitizer()</text>
<text text-anchor="start" x="1143" y="-514.5" font-family="Helvetica,sans-Serif" font-size="10.00" fill="#000000">+ init()</text>
<text text-anchor="start" x="1143" y="-503.5" font-family="Helvetica,sans-Serif" font-size="10.00" fill="#000000">+ initDigitizerTask()</text>
</g>
<!-- Node1 -->
<g id="node2" class="node">
<title>Node1</title>
<g id="a_node2"><a xlink:href="../../d2/d9d/classo2_1_1cpv_1_1DigitizerSpec.html" target="_top" xlink:title="Task for CPV digitization in the data processing layer. ">
<polygon fill="none" stroke="#000000" points="0,-243 0,-333 122,-333 122,-243 0,-243"/>
<text text-anchor="middle" x="61" y="-321" font-family="Helvetica,sans-Serif" font-size="10.00" fill="#000000">o2::cpv::DigitizerSpec</text>
<polyline fill="none" stroke="#000000" points="0,-314 122,-314 "/>
<text text-anchor="middle" x="61" y="-302" font-family="Helvetica,sans-Serif" font-size="10.00" fill="#000000"> </text>
<polyline fill="none" stroke="#000000" points="0,-295 122,-295 "/>
<text text-anchor="start" x="8" y="-283" font-family="Helvetica,sans-Serif" font-size="10.00" fill="#000000">+ DigitizerSpec()</text>
<text text-anchor="start" x="8" y="-272" font-family="Helvetica,sans-Serif" font-size="10.00" fill="#000000">+ ~DigitizerSpec()</text>
<text text-anchor="start" x="8" y="-261" font-family="Helvetica,sans-Serif" font-size="10.00" fill="#000000">+ initDigitizerTask()</text>
<text text-anchor="start" x="8" y="-250" font-family="Helvetica,sans-Serif" font-size="10.00" fill="#000000">+ run()</text>
</a>
</g>
</g>
<!-- Node0&#45;&gt;Node1 -->
<g id="edge1" class="edge">
<title>Node0&#45;&gt;Node1</title>
<path fill="none" stroke="#191970" d="M1124.7368,-545.225C884.8705,-539.4797 210.5047,-518.2621 131,-460 90.5631,-430.3673 73.4234,-373.2724 66.1981,-333.0108"/>
<polygon fill="none" stroke="#191970" points="1124.7208,-548.7255 1134.8008,-545.463 1124.8864,-541.7274 1124.7208,-548.7255"/>
</g>
<!-- Node2 -->
<g id="node3" class="node">
<title>Node2</title>
<g id="a_node3"><a xlink:href="../../df/d27/classo2_1_1emcal_1_1DigitizerSpec.html" target="_top" xlink:title="Create new digitizer spec. ">
<polygon fill="none" stroke="#000000" points="140.5,-243 140.5,-333 275.5,-333 275.5,-243 140.5,-243"/>
<text text-anchor="middle" x="208" y="-321" font-family="Helvetica,sans-Serif" font-size="10.00" fill="#000000">o2::emcal::DigitizerSpec</text>
<polyline fill="none" stroke="#000000" points="140.5,-314 275.5,-314 "/>
<text text-anchor="middle" x="208" y="-302" font-family="Helvetica,sans-Serif" font-size="10.00" fill="#000000"> </text>
<polyline fill="none" stroke="#000000" points="140.5,-295 275.5,-295 "/>
<text text-anchor="start" x="148.5" y="-283" font-family="Helvetica,sans-Serif" font-size="10.00" fill="#000000">+ DigitizerSpec()</text>
<text text-anchor="start" x="148.5" y="-272" font-family="Helvetica,sans-Serif" font-size="10.00" fill="#000000">+ ~DigitizerSpec()</text>
<text text-anchor="start" x="148.5" y="-261" font-family="Helvetica,sans-Serif" font-size="10.00" fill="#000000">+ initDigitizerTask()</text>
<text text-anchor="start" x="148.5" y="-250" font-family="Helvetica,sans-Serif" font-size="10.00" fill="#000000">+ run()</text>
</a>
</g>
</g>
<!-- Node0&#45;&gt;Node2 -->
<g id="edge2" class="edge">
<title>Node0&#45;&gt;Node2</title>
<path fill="none" stroke="#191970" d="M1124.3621,-543.8569C908.9978,-535.1859 352.4051,-508.3125 285,-460 243.6498,-430.3623 224.1236,-373.2684 215.1653,-333.0085"/>
<polygon fill="none" stroke="#191970" points="1124.5334,-547.3664 1134.6651,-544.2683 1124.8127,-540.372 1124.5334,-547.3664"/>
</g>
<!-- Node3 -->
<g id="node4" class="node">
<title>Node3</title>
<g id="a_node4"><a xlink:href="../../db/d20/classo2_1_1fdd_1_1FDDDPLDigitizerTask.html" target="_top" xlink:title="{o2::fdd::FDDDPLDigitizerTask\n||+ initDigitizerTask()\l+ run()\l}">
<polygon fill="none" stroke="#000000" points="294,-254 294,-322 452,-322 452,-254 294,-254"/>
<text text-anchor="middle" x="373" y="-310" font-family="Helvetica,sans-Serif" font-size="10.00" fill="#000000">o2::fdd::FDDDPLDigitizerTask</text>
<polyline fill="none" stroke="#000000" points="294,-303 452,-303 "/>
<text text-anchor="middle" x="373" y="-291" font-family="Helvetica,sans-Serif" font-size="10.00" fill="#000000"> </text>
<polyline fill="none" stroke="#000000" points="294,-284 452,-284 "/>
<text text-anchor="start" x="302" y="-272" font-family="Helvetica,sans-Serif" font-size="10.00" fill="#000000">+ initDigitizerTask()</text>
<text text-anchor="start" x="302" y="-261" font-family="Helvetica,sans-Serif" font-size="10.00" fill="#000000">+ run()</text>
</a>
</g>
</g>
<!-- Node0&#45;&gt;Node3 -->
<g id="edge3" class="edge">
<title>Node0&#45;&gt;Node3</title>
<path fill="none" stroke="#191970" d="M1124.5658,-541.6553C940.3825,-529.3604 514.6559,-497.2493 461,-460 414.1589,-427.4817 390.7225,-362.3034 380.2623,-322.1815"/>
<polygon fill="none" stroke="#191970" points="1124.539,-545.1611 1134.7489,-542.3312 1125.0027,-538.1765 1124.539,-545.1611"/>
</g>
<!-- Node4 -->
<g id="node5" class="node">
<title>Node4</title>
<g id="a_node5"><a xlink:href="../../d8/d99/classo2_1_1ft0_1_1FT0DPLDigitizerTask.html" target="_top" xlink:title="{o2::ft0::FT0DPLDigitizerTask\n|# mFinished\l# mDigitsCh\l# mDigitsBC\l# mContinuous\l# mFairTimeUnitInNS\l# mDigitizer\l# mROMode\l# mSimChains\l|+ FT0DPLDigitizerTask()\l+ FT0DPLDigitizerTask()\l+ ~FT0DPLDigitizerTask()\l+ initDigitizerTask()\l+ run()\l}">
<polygon fill="none" stroke="#000000" points="470.5,-199 470.5,-377 623.5,-377 623.5,-199 470.5,-199"/>
<text text-anchor="middle" x="547" y="-365" font-family="Helvetica,sans-Serif" font-size="10.00" fill="#000000">o2::ft0::FT0DPLDigitizerTask</text>
<polyline fill="none" stroke="#000000" points="470.5,-358 623.5,-358 "/>
<text text-anchor="start" x="478.5" y="-346" font-family="Helvetica,sans-Serif" font-size="10.00" fill="#000000"># mFinished</text>
<text text-anchor="start" x="478.5" y="-335" font-family="Helvetica,sans-Serif" font-size="10.00" fill="#000000"># mDigitsCh</text>
<text text-anchor="start" x="478.5" y="-324" font-family="Helvetica,sans-Serif" font-size="10.00" fill="#000000"># mDigitsBC</text>
<text text-anchor="start" x="478.5" y="-313" font-family="Helvetica,sans-Serif" font-size="10.00" fill="#000000"># mContinuous</text>
<text text-anchor="start" x="478.5" y="-302" font-family="Helvetica,sans-Serif" font-size="10.00" fill="#000000"># mFairTimeUnitInNS</text>
<text text-anchor="start" x="478.5" y="-291" font-family="Helvetica,sans-Serif" font-size="10.00" fill="#000000"># mDigitizer</text>
<text text-anchor="start" x="478.5" y="-280" font-family="Helvetica,sans-Serif" font-size="10.00" fill="#000000"># mROMode</text>
<text text-anchor="start" x="478.5" y="-269" font-family="Helvetica,sans-Serif" font-size="10.00" fill="#000000"># mSimChains</text>
<polyline fill="none" stroke="#000000" points="470.5,-262 623.5,-262 "/>
<text text-anchor="start" x="478.5" y="-250" font-family="Helvetica,sans-Serif" font-size="10.00" fill="#000000">+ FT0DPLDigitizerTask()</text>
<text text-anchor="start" x="478.5" y="-239" font-family="Helvetica,sans-Serif" font-size="10.00" fill="#000000">+ FT0DPLDigitizerTask()</text>
<text text-anchor="start" x="478.5" y="-228" font-family="Helvetica,sans-Serif" font-size="10.00" fill="#000000">+ ~FT0DPLDigitizerTask()</text>
<text text-anchor="start" x="478.5" y="-217" font-family="Helvetica,sans-Serif" font-size="10.00" fill="#000000">+ initDigitizerTask()</text>
<text text-anchor="start" x="478.5" y="-206" font-family="Helvetica,sans-Serif" font-size="10.00" fill="#000000">+ run()</text>
</a>
</g>
</g>
<!-- Node0&#45;&gt;Node4 -->
<g id="edge4" class="edge">
<title>Node0&#45;&gt;Node4</title>
<path fill="none" stroke="#191970" d="M1124.4975,-543.6544C983.9097,-536.5697 709.8167,-515.8353 633,-460 605.1843,-439.7818 585.8299,-407.9895 572.6308,-377.2095"/>
<polygon fill="none" stroke="#191970" points="1124.6362,-547.1654 1134.7961,-544.161 1124.9802,-540.1738 1124.6362,-547.1654"/>
</g>
<!-- Node5 -->
<g id="node6" class="node">
<title>Node5</title>
<g id="a_node6"><a xlink:href="../../d1/d36/classo2_1_1fv0_1_1FV0DPLDigitizerTask.html" target="_top" xlink:title="{o2::fv0::FV0DPLDigitizerTask\n||+ FV0DPLDigitizerTask()\l+ ~FV0DPLDigitizerTask()\l+ initDigitizerTask()\l+ run()\l}">
<polygon fill="none" stroke="#000000" points="642,-243 642,-333 798,-333 798,-243 642,-243"/>
<text text-anchor="middle" x="720" y="-321" font-family="Helvetica,sans-Serif" font-size="10.00" fill="#000000">o2::fv0::FV0DPLDigitizerTask</text>
<polyline fill="none" stroke="#000000" points="642,-314 798,-314 "/>
<text text-anchor="middle" x="720" y="-302" font-family="Helvetica,sans-Serif" font-size="10.00" fill="#000000"> </text>
<polyline fill="none" stroke="#000000" points="642,-295 798,-295 "/>
<text text-anchor="start" x="650" y="-283" font-family="Helvetica,sans-Serif" font-size="10.00" fill="#000000">+ FV0DPLDigitizerTask()</text>
<text text-anchor="start" x="650" y="-272" font-family="Helvetica,sans-Serif" font-size="10.00" fill="#000000">+ ~FV0DPLDigitizerTask()</text>
<text text-anchor="start" x="650" y="-261" font-family="Helvetica,sans-Serif" font-size="10.00" fill="#000000">+ initDigitizerTask()</text>
<text text-anchor="start" x="650" y="-250" font-family="Helvetica,sans-Serif" font-size="10.00" fill="#000000">+ run()</text>
</a>
</g>
</g>
<!-- Node0&#45;&gt;Node5 -->
<g id="edge5" class="edge">
<title>Node0&#45;&gt;Node5</title>
<path fill="none" stroke="#191970" d="M1124.829,-537.2855C1022.3139,-524.0183 856.768,-497.5195 808,-460 767.059,-428.5022 743.5299,-372.6573 731.2797,-333.1562"/>
<polygon fill="none" stroke="#191970" points="1124.4908,-540.7706 1134.8538,-538.5668 1125.3783,-533.8271 1124.4908,-540.7706"/>
</g>
<!-- Node6 -->
<g id="node7" class="node">
<title>Node6</title>
<g id="a_node7"><a xlink:href="../../db/d9c/classo2_1_1hmpid_1_1HMPIDDPLDigitizerTask.html" target="_top" xlink:title="{o2::hmpid::HMPIDDPLDigitizerTask\n||+ HMPIDDPLDigitizerTask()\l+ initDigitizerTask()\l+ run()\l}">
<polygon fill="none" stroke="#000000" points="816.5,-248.5 816.5,-327.5 1001.5,-327.5 1001.5,-248.5 816.5,-248.5"/>
<text text-anchor="middle" x="909" y="-315.5" font-family="Helvetica,sans-Serif" font-size="10.00" fill="#000000">o2::hmpid::HMPIDDPLDigitizerTask</text>
<polyline fill="none" stroke="#000000" points="816.5,-308.5 1001.5,-308.5 "/>
<text text-anchor="middle" x="909" y="-296.5" font-family="Helvetica,sans-Serif" font-size="10.00" fill="#000000"> </text>
<polyline fill="none" stroke="#000000" points="816.5,-289.5 1001.5,-289.5 "/>
<text text-anchor="start" x="824.5" y="-277.5" font-family="Helvetica,sans-Serif" font-size="10.00" fill="#000000">+ HMPIDDPLDigitizerTask()</text>
<text text-anchor="start" x="824.5" y="-266.5" font-family="Helvetica,sans-Serif" font-size="10.00" fill="#000000">+ initDigitizerTask()</text>
<text text-anchor="start" x="824.5" y="-255.5" font-family="Helvetica,sans-Serif" font-size="10.00" fill="#000000">+ run()</text>
</a>
</g>
</g>
<!-- Node0&#45;&gt;Node6 -->
<g id="edge6" class="edge">
<title>Node0&#45;&gt;Node6</title>
<path fill="none" stroke="#191970" d="M1125.0512,-523.5093C1086.7539,-509.678 1042.7539,-489.0764 1010,-460 968.824,-423.4471 939.8348,-365.9495 923.7781,-327.625"/>
<polygon fill="none" stroke="#191970" points="1124.0598,-526.8706 1134.6546,-526.8809 1126.3787,-520.2659 1124.0598,-526.8706"/>
</g>
<!-- Node7 -->
<g id="node8" class="node">
<title>Node7</title>
<g id="a_node8"><a xlink:href="../../dd/d3a/classo2_1_1itsmft_1_1ITSMFTDPLDigitizerTask.html" target="_top" xlink:title="{o2::itsmft::ITSMFTDPLDigitizerTask\n|# mFinished\l# mID\l# mOrigin\l# mDigitizer\l# mDigits\l# mDigitsAccum\l# mROFRecords\l# mROFRecordsAccum\l# mHits\l# mHitsP\l# mLabels\l# mLabelsAccum\l# mMC2ROFRecordsAccum\l# mSimChains\l# mQEDChain\l# mQEDEntryTimeBinNS\l# mLastQEDTimeNS\l# mLastQEDEntry\l# mFixMC2ROF\l# mROMode\l# QEDSourceID\l|+ initDigitizerTask()\l+ setDigitizationOptions()\l+ run()\l# ITSMFTDPLDigitizerTask()\l# processQED()\l# setupQEDChain()\l# accumulate()\l}">
<polygon fill="none" stroke="#000000" points="1019,-116.5 1019,-459.5 1205,-459.5 1205,-116.5 1019,-116.5"/>
<text text-anchor="middle" x="1112" y="-447.5" font-family="Helvetica,sans-Serif" font-size="10.00" fill="#000000">o2::itsmft::ITSMFTDPLDigitizerTask</text>
<polyline fill="none" stroke="#000000" points="1019,-440.5 1205,-440.5 "/>
<text text-anchor="start" x="1027" y="-428.5" font-family="Helvetica,sans-Serif" font-size="10.00" fill="#000000"># mFinished</text>
<text text-anchor="start" x="1027" y="-417.5" font-family="Helvetica,sans-Serif" font-size="10.00" fill="#000000"># mID</text>
<text text-anchor="start" x="1027" y="-406.5" font-family="Helvetica,sans-Serif" font-size="10.00" fill="#000000"># mOrigin</text>
<text text-anchor="start" x="1027" y="-395.5" font-family="Helvetica,sans-Serif" font-size="10.00" fill="#000000"># mDigitizer</text>
<text text-anchor="start" x="1027" y="-384.5" font-family="Helvetica,sans-Serif" font-size="10.00" fill="#000000"># mDigits</text>
<text text-anchor="start" x="1027" y="-373.5" font-family="Helvetica,sans-Serif" font-size="10.00" fill="#000000"># mDigitsAccum</text>
<text text-anchor="start" x="1027" y="-362.5" font-family="Helvetica,sans-Serif" font-size="10.00" fill="#000000"># mROFRecords</text>
<text text-anchor="start" x="1027" y="-351.5" font-family="Helvetica,sans-Serif" font-size="10.00" fill="#000000"># mROFRecordsAccum</text>
<text text-anchor="start" x="1027" y="-340.5" font-family="Helvetica,sans-Serif" font-size="10.00" fill="#000000"># mHits</text>
<text text-anchor="start" x="1027" y="-329.5" font-family="Helvetica,sans-Serif" font-size="10.00" fill="#000000"># mHitsP</text>
<text text-anchor="start" x="1027" y="-318.5" font-family="Helvetica,sans-Serif" font-size="10.00" fill="#000000"># mLabels</text>
<text text-anchor="start" x="1027" y="-307.5" font-family="Helvetica,sans-Serif" font-size="10.00" fill="#000000"># mLabelsAccum</text>
<text text-anchor="start" x="1027" y="-296.5" font-family="Helvetica,sans-Serif" font-size="10.00" fill="#000000"># mMC2ROFRecordsAccum</text>
<text text-anchor="start" x="1027" y="-285.5" font-family="Helvetica,sans-Serif" font-size="10.00" fill="#000000"># mSimChains</text>
<text text-anchor="start" x="1027" y="-274.5" font-family="Helvetica,sans-Serif" font-size="10.00" fill="#000000"># mQEDChain</text>
<text text-anchor="start" x="1027" y="-263.5" font-family="Helvetica,sans-Serif" font-size="10.00" fill="#000000"># mQEDEntryTimeBinNS</text>
<text text-anchor="start" x="1027" y="-252.5" font-family="Helvetica,sans-Serif" font-size="10.00" fill="#000000"># mLastQEDTimeNS</text>
<text text-anchor="start" x="1027" y="-241.5" font-family="Helvetica,sans-Serif" font-size="10.00" fill="#000000"># mLastQEDEntry</text>
<text text-anchor="start" x="1027" y="-230.5" font-family="Helvetica,sans-Serif" font-size="10.00" fill="#000000"># mFixMC2ROF</text>
<text text-anchor="start" x="1027" y="-219.5" font-family="Helvetica,sans-Serif" font-size="10.00" fill="#000000"># mROMode</text>
<text text-anchor="start" x="1027" y="-208.5" font-family="Helvetica,sans-Serif" font-size="10.00" fill="#000000"># QEDSourceID</text>
<polyline fill="none" stroke="#000000" points="1019,-201.5 1205,-201.5 "/>
<text text-anchor="start" x="1027" y="-189.5" font-family="Helvetica,sans-Serif" font-size="10.00" fill="#000000">+ initDigitizerTask()</text>
<text text-anchor="start" x="1027" y="-178.5" font-family="Helvetica,sans-Serif" font-size="10.00" fill="#000000">+ setDigitizationOptions()</text>
<text text-anchor="start" x="1027" y="-167.5" font-family="Helvetica,sans-Serif" font-size="10.00" fill="#000000">+ run()</text>
<text text-anchor="start" x="1027" y="-156.5" font-family="Helvetica,sans-Serif" font-size="10.00" fill="#000000"># ITSMFTDPLDigitizerTask()</text>
<text text-anchor="start" x="1027" y="-145.5" font-family="Helvetica,sans-Serif" font-size="10.00" fill="#000000"># processQED()</text>
<text text-anchor="start" x="1027" y="-134.5" font-family="Helvetica,sans-Serif" font-size="10.00" fill="#000000"># setupQEDChain()</text>
<text text-anchor="start" x="1027" y="-123.5" font-family="Helvetica,sans-Serif" font-size="10.00" fill="#000000"># accumulate()</text>
</a>
</g>
</g>
<!-- Node0&#45;&gt;Node7 -->
<g id="edge7" class="edge">
<title>Node0&#45;&gt;Node7</title>
<path fill="none" stroke="#8b1a1a" d="M1186.5279,-486.997C1183.3069,-478.3968 1179.8683,-469.2155 1176.3018,-459.6924"/>
<polygon fill="none" stroke="#8b1a1a" points="1183.2821,-488.3101 1190.0672,-496.4473 1189.8375,-485.855 1183.2821,-488.3101"/>
</g>
<!-- Node10 -->
<g id="node11" class="node">
<title>Node10</title>
<g id="a_node11"><a xlink:href="../../d9/d0d/classo2_1_1mch_1_1MCHDPLDigitizerTask.html" target="_top" xlink:title="{o2::mch::MCHDPLDigitizerTask\n||+ MCHDPLDigitizerTask()\l+ initDigitizerTask()\l+ run()\l}">
<polygon fill="none" stroke="#000000" points="1223,-248.5 1223,-327.5 1389,-327.5 1389,-248.5 1223,-248.5"/>
<text text-anchor="middle" x="1306" y="-315.5" font-family="Helvetica,sans-Serif" font-size="10.00" fill="#000000">o2::mch::MCHDPLDigitizerTask</text>
<polyline fill="none" stroke="#000000" points="1223,-308.5 1389,-308.5 "/>
<text text-anchor="middle" x="1306" y="-296.5" font-family="Helvetica,sans-Serif" font-size="10.00" fill="#000000"> </text>
<polyline fill="none" stroke="#000000" points="1223,-289.5 1389,-289.5 "/>
<text text-anchor="start" x="1231" y="-277.5" font-family="Helvetica,sans-Serif" font-size="10.00" fill="#000000">+ MCHDPLDigitizerTask()</text>
<text text-anchor="start" x="1231" y="-266.5" font-family="Helvetica,sans-Serif" font-size="10.00" fill="#000000">+ initDigitizerTask()</text>
<text text-anchor="start" x="1231" y="-255.5" font-family="Helvetica,sans-Serif" font-size="10.00" fill="#000000">+ run()</text>
</a>
</g>
</g>
<!-- Node0&#45;&gt;Node10 -->
<g id="edge10" class="edge">
<title>Node0&#45;&gt;Node10</title>
<path fill="none" stroke="#191970" d="M1231.4995,-486.924C1249.8259,-437.9905 1275.184,-370.282 1291.0832,-327.8293"/>
<polygon fill="none" stroke="#191970" points="1228.1625,-485.855 1227.9328,-496.4473 1234.7179,-488.3101 1228.1625,-485.855"/>
</g>
<!-- Node11 -->
<g id="node12" class="node">
<title>Node11</title>
<g id="a_node12"><a xlink:href="../../d1/d9e/classo2_1_1mid_1_1MIDDPLDigitizerTask.html" target="_top" xlink:title="{o2::mid::MIDDPLDigitizerTask\n||+ MIDDPLDigitizerTask()\l+ initDigitizerTask()\l+ run()\l}">
<polygon fill="none" stroke="#000000" points="1407,-248.5 1407,-327.5 1567,-327.5 1567,-248.5 1407,-248.5"/>
<text text-anchor="middle" x="1487" y="-315.5" font-family="Helvetica,sans-Serif" font-size="10.00" fill="#000000">o2::mid::MIDDPLDigitizerTask</text>
<polyline fill="none" stroke="#000000" points="1407,-308.5 1567,-308.5 "/>
<text text-anchor="middle" x="1487" y="-296.5" font-family="Helvetica,sans-Serif" font-size="10.00" fill="#000000"> </text>
<polyline fill="none" stroke="#000000" points="1407,-289.5 1567,-289.5 "/>
<text text-anchor="start" x="1415" y="-277.5" font-family="Helvetica,sans-Serif" font-size="10.00" fill="#000000">+ MIDDPLDigitizerTask()</text>
<text text-anchor="start" x="1415" y="-266.5" font-family="Helvetica,sans-Serif" font-size="10.00" fill="#000000">+ initDigitizerTask()</text>
<text text-anchor="start" x="1415" y="-255.5" font-family="Helvetica,sans-Serif" font-size="10.00" fill="#000000">+ run()</text>
</a>
</g>
</g>
<!-- Node0&#45;&gt;Node11 -->
<g id="edge11" class="edge">
<title>Node0&#45;&gt;Node11</title>
<path fill="none" stroke="#191970" d="M1292.4874,-522.2433C1328.2598,-508.4119 1368.5033,-488.1672 1398,-460 1436.5408,-423.1964 1461.474,-366.0323 1474.8757,-327.8279"/>
<polygon fill="none" stroke="#191970" points="1291.1476,-519.0077 1283.0153,-525.7987 1293.6075,-525.5612 1291.1476,-519.0077"/>
</g>
<!-- Node12 -->
<g id="node13" class="node">
<title>Node12</title>
<g id="a_node13"><a xlink:href="../../d7/de6/classo2_1_1phos_1_1DigitizerSpec.html" target="_top" xlink:title="Task for PHOS digitization in the data processing layer. ">
<polygon fill="none" stroke="#000000" points="1585,-243 1585,-333 1713,-333 1713,-243 1585,-243"/>
<text text-anchor="middle" x="1649" y="-321" font-family="Helvetica,sans-Serif" font-size="10.00" fill="#000000">o2::phos::DigitizerSpec</text>
<polyline fill="none" stroke="#000000" points="1585,-314 1713,-314 "/>
<text text-anchor="middle" x="1649" y="-302" font-family="Helvetica,sans-Serif" font-size="10.00" fill="#000000"> </text>
<polyline fill="none" stroke="#000000" points="1585,-295 1713,-295 "/>
<text text-anchor="start" x="1593" y="-283" font-family="Helvetica,sans-Serif" font-size="10.00" fill="#000000">+ DigitizerSpec()</text>
<text text-anchor="start" x="1593" y="-272" font-family="Helvetica,sans-Serif" font-size="10.00" fill="#000000">+ ~DigitizerSpec()</text>
<text text-anchor="start" x="1593" y="-261" font-family="Helvetica,sans-Serif" font-size="10.00" fill="#000000">+ initDigitizerTask()</text>
<text text-anchor="start" x="1593" y="-250" font-family="Helvetica,sans-Serif" font-size="10.00" fill="#000000">+ run()</text>
</a>
</g>
</g>
<!-- Node0&#45;&gt;Node12 -->
<g id="edge12" class="edge">
<title>Node0&#45;&gt;Node12</title>
<path fill="none" stroke="#191970" d="M1293.3616,-535.9549C1388.0025,-522.0509 1533.8174,-495.6085 1576,-460 1614.0498,-427.8802 1632.7154,-372.4396 1641.5625,-333.1931"/>
<polygon fill="none" stroke="#191970" points="1292.6216,-532.5255 1283.2275,-537.4247 1293.6264,-539.4531 1292.6216,-532.5255"/>
</g>
<!-- Node13 -->
<g id="node14" class="node">
<title>Node13</title>
<g id="a_node14"><a xlink:href="../../d0/d34/classo2_1_1tof_1_1TOFDPLDigitizerTask.html" target="_top" xlink:title="{o2::tof::TOFDPLDigitizerTask\n||+ TOFDPLDigitizerTask()\l+ initDigitizerTask()\l+ run()\l}">
<polygon fill="none" stroke="#000000" points="1731.5,-248.5 1731.5,-327.5 1886.5,-327.5 1886.5,-248.5 1731.5,-248.5"/>
<text text-anchor="middle" x="1809" y="-315.5" font-family="Helvetica,sans-Serif" font-size="10.00" fill="#000000">o2::tof::TOFDPLDigitizerTask</text>
<polyline fill="none" stroke="#000000" points="1731.5,-308.5 1886.5,-308.5 "/>
<text text-anchor="middle" x="1809" y="-296.5" font-family="Helvetica,sans-Serif" font-size="10.00" fill="#000000"> </text>
<polyline fill="none" stroke="#000000" points="1731.5,-289.5 1886.5,-289.5 "/>
<text text-anchor="start" x="1739.5" y="-277.5" font-family="Helvetica,sans-Serif" font-size="10.00" fill="#000000">+ TOFDPLDigitizerTask()</text>
<text text-anchor="start" x="1739.5" y="-266.5" font-family="Helvetica,sans-Serif" font-size="10.00" fill="#000000">+ initDigitizerTask()</text>
<text text-anchor="start" x="1739.5" y="-255.5" font-family="Helvetica,sans-Serif" font-size="10.00" fill="#000000">+ run()</text>
</a>
</g>
</g>
<!-- Node0&#45;&gt;Node13 -->
<g id="edge13" class="edge">
<title>Node0&#45;&gt;Node13</title>
<path fill="none" stroke="#191970" d="M1293.5233,-541.8198C1421.181,-532.5019 1655.3643,-509.123 1722,-460 1765.6359,-427.8322 1788.8844,-367.4991 1800.0742,-327.529"/>
<polygon fill="none" stroke="#191970" points="1293.1158,-538.34 1283.3917,-542.5461 1293.6164,-545.322 1293.1158,-538.34"/>
</g>
<!-- Node14 -->
<g id="node15" class="node">
<title>Node14</title>
<g id="a_node15"><a xlink:href="../../dc/d44/classo2_1_1tpc_1_1TPCDPLDigitizerTask.html" target="_top" xlink:title="{o2::tpc::TPCDPLDigitizerTask\n||+ TPCDPLDigitizerTask()\l+ initDigitizerTask()\l+ run()\l+ process()\l}">
<polygon fill="none" stroke="#000000" points="1905,-243 1905,-333 2061,-333 2061,-243 1905,-243"/>
<text text-anchor="middle" x="1983" y="-321" font-family="Helvetica,sans-Serif" font-size="10.00" fill="#000000">o2::tpc::TPCDPLDigitizerTask</text>
<polyline fill="none" stroke="#000000" points="1905,-314 2061,-314 "/>
<text text-anchor="middle" x="1983" y="-302" font-family="Helvetica,sans-Serif" font-size="10.00" fill="#000000"> </text>
<polyline fill="none" stroke="#000000" points="1905,-295 2061,-295 "/>
<text text-anchor="start" x="1913" y="-283" font-family="Helvetica,sans-Serif" font-size="10.00" fill="#000000">+ TPCDPLDigitizerTask()</text>
<text text-anchor="start" x="1913" y="-272" font-family="Helvetica,sans-Serif" font-size="10.00" fill="#000000">+ initDigitizerTask()</text>
<text text-anchor="start" x="1913" y="-261" font-family="Helvetica,sans-Serif" font-size="10.00" fill="#000000">+ run()</text>
<text text-anchor="start" x="1913" y="-250" font-family="Helvetica,sans-Serif" font-size="10.00" fill="#000000">+ process()</text>
</a>
</g>
</g>
<!-- Node0&#45;&gt;Node14 -->
<g id="edge14" class="edge">
<title>Node0&#45;&gt;Node14</title>
<path fill="none" stroke="#191970" d="M1293.1022,-540.7698C1465.6348,-527.3563 1847.5344,-494.1802 1896,-460 1938.3879,-430.1062 1961.3402,-373.358 1972.8532,-333.2333"/>
<polygon fill="none" stroke="#191970" points="1292.7453,-537.2868 1283.045,-541.5477 1293.2852,-544.266 1292.7453,-537.2868"/>
</g>
<!-- Node15 -->
<g id="node16" class="node">
<title>Node15</title>
<g id="a_node16"><a xlink:href="../../d0/dab/classo2_1_1trd_1_1TRDDPLDigitizerTask.html" target="_top" xlink:title="{o2::trd::TRDDPLDigitizerTask\n||+ TRDDPLDigitizerTask()\l+ initDigitizerTask()\l+ run()\l}">
<polygon fill="none" stroke="#000000" points="2079,-248.5 2079,-327.5 2235,-327.5 2235,-248.5 2079,-248.5"/>
<text text-anchor="middle" x="2157" y="-315.5" font-family="Helvetica,sans-Serif" font-size="10.00" fill="#000000">o2::trd::TRDDPLDigitizerTask</text>
<polyline fill="none" stroke="#000000" points="2079,-308.5 2235,-308.5 "/>
<text text-anchor="middle" x="2157" y="-296.5" font-family="Helvetica,sans-Serif" font-size="10.00" fill="#000000"> </text>
<polyline fill="none" stroke="#000000" points="2079,-289.5 2235,-289.5 "/>
<text text-anchor="start" x="2087" y="-277.5" font-family="Helvetica,sans-Serif" font-size="10.00" fill="#000000">+ TRDDPLDigitizerTask()</text>
<text text-anchor="start" x="2087" y="-266.5" font-family="Helvetica,sans-Serif" font-size="10.00" fill="#000000">+ initDigitizerTask()</text>
<text text-anchor="start" x="2087" y="-255.5" font-family="Helvetica,sans-Serif" font-size="10.00" fill="#000000">+ run()</text>
</a>
</g>
</g>
<!-- Node0&#45;&gt;Node15 -->
<g id="edge15" class="edge">
<title>Node0&#45;&gt;Node15</title>
<path fill="none" stroke="#191970" d="M1293.1573,-543.0655C1497.3184,-532.8792 2006.8131,-503.3776 2070,-460 2114.8312,-429.2235 2137.8025,-368.2152 2148.602,-327.756"/>
<polygon fill="none" stroke="#191970" points="1292.8966,-539.5741 1283.0821,-543.5649 1293.2432,-546.5655 1292.8966,-539.5741"/>
</g>
<!-- Node16 -->
<g id="node17" class="node">
<title>Node16</title>
<g id="a_node17"><a xlink:href="../../df/d4d/classo2_1_1zdc_1_1ZDCDPLDigitizerTask.html" target="_top" xlink:title="{o2::zdc::ZDCDPLDigitizerTask\n||+ ZDCDPLDigitizerTask()\l+ initDigitizerTask()\l+ run()\l}">
<polygon fill="none" stroke="#000000" points="2253,-248.5 2253,-327.5 2413,-327.5 2413,-248.5 2253,-248.5"/>
<text text-anchor="middle" x="2333" y="-315.5" font-family="Helvetica,sans-Serif" font-size="10.00" fill="#000000">o2::zdc::ZDCDPLDigitizerTask</text>
<polyline fill="none" stroke="#000000" points="2253,-308.5 2413,-308.5 "/>
<text text-anchor="middle" x="2333" y="-296.5" font-family="Helvetica,sans-Serif" font-size="10.00" fill="#000000"> </text>
<polyline fill="none" stroke="#000000" points="2253,-289.5 2413,-289.5 "/>
<text text-anchor="start" x="2261" y="-277.5" font-family="Helvetica,sans-Serif" font-size="10.00" fill="#000000">+ ZDCDPLDigitizerTask()</text>
<text text-anchor="start" x="2261" y="-266.5" font-family="Helvetica,sans-Serif" font-size="10.00" fill="#000000">+ initDigitizerTask()</text>
<text text-anchor="start" x="2261" y="-255.5" font-family="Helvetica,sans-Serif" font-size="10.00" fill="#000000">+ run()</text>
</a>
</g>
</g>
<!-- Node0&#45;&gt;Node16 -->
<g id="edge16" class="edge">
<title>Node0&#45;&gt;Node16</title>
<path fill="none" stroke="#191970" d="M1293.2774,-544.5575C1526.0245,-537.1688 2165.6756,-512.2813 2244,-460 2289.582,-429.5742 2313.1997,-368.1631 2324.3439,-327.5595"/>
<polygon fill="none" stroke="#191970" points="1293.0551,-541.0627 1283.1702,-544.8755 1293.2753,-548.0592 1293.0551,-541.0627"/>
</g>
<!-- Node8 -->
<g id="node9" class="node">
<title>Node8</title>
<g id="a_node9"><a xlink:href="../../da/d25/classo2_1_1itsmft_1_1ITSDPLDigitizerTask.html" target="_top" xlink:title="{o2::itsmft::ITSDPLDigitizerTask\n|+ DETID\l+ DETOR\l|+ ITSDPLDigitizerTask()\l+ setDigitizationOptions()\l}">
<polygon fill="none" stroke="#000000" points="934.5,-.5 934.5,-79.5 1101.5,-79.5 1101.5,-.5 934.5,-.5"/>
<text text-anchor="middle" x="1018" y="-67.5" font-family="Helvetica,sans-Serif" font-size="10.00" fill="#000000">o2::itsmft::ITSDPLDigitizerTask</text>
<polyline fill="none" stroke="#000000" points="934.5,-60.5 1101.5,-60.5 "/>
<text text-anchor="start" x="942.5" y="-48.5" font-family="Helvetica,sans-Serif" font-size="10.00" fill="#000000">+ DETID</text>
<text text-anchor="start" x="942.5" y="-37.5" font-family="Helvetica,sans-Serif" font-size="10.00" fill="#000000">+ DETOR</text>
<polyline fill="none" stroke="#000000" points="934.5,-30.5 1101.5,-30.5 "/>
<text text-anchor="start" x="942.5" y="-18.5" font-family="Helvetica,sans-Serif" font-size="10.00" fill="#000000">+ ITSDPLDigitizerTask()</text>
<text text-anchor="start" x="942.5" y="-7.5" font-family="Helvetica,sans-Serif" font-size="10.00" fill="#000000">+ setDigitizationOptions()</text>
</a>
</g>
</g>
<!-- Node7&#45;&gt;Node8 -->
<g id="edge8" class="edge">
<title>Node7&#45;&gt;Node8</title>
<path fill="none" stroke="#191970" d="M1043.3624,-106.9136C1039.6682,-97.167 1036.2021,-88.0224 1033.0897,-79.8111"/>
<polygon fill="none" stroke="#191970" points="1040.153,-108.3215 1046.9701,-116.4318 1046.6986,-105.8404 1040.153,-108.3215"/>
</g>
<!-- Node9 -->
<g id="node10" class="node">
<title>Node9</title>
<g id="a_node10"><a xlink:href="../../d2/dc2/classo2_1_1itsmft_1_1MFTDPLDigitizerTask.html" target="_top" xlink:title="{o2::itsmft::MFTDPLDigitizerTask\n|+ DETID\l+ DETOR\l|+ MFTDPLDigitizerTask()\l+ setDigitizationOptions()\l}">
<polygon fill="none" stroke="#000000" points="1119.5,-.5 1119.5,-79.5 1290.5,-79.5 1290.5,-.5 1119.5,-.5"/>
<text text-anchor="middle" x="1205" y="-67.5" font-family="Helvetica,sans-Serif" font-size="10.00" fill="#000000">o2::itsmft::MFTDPLDigitizerTask</text>
<polyline fill="none" stroke="#000000" points="1119.5,-60.5 1290.5,-60.5 "/>
<text text-anchor="start" x="1127.5" y="-48.5" font-family="Helvetica,sans-Serif" font-size="10.00" fill="#000000">+ DETID</text>
<text text-anchor="start" x="1127.5" y="-37.5" font-family="Helvetica,sans-Serif" font-size="10.00" fill="#000000">+ DETOR</text>
<polyline fill="none" stroke="#000000" points="1119.5,-30.5 1290.5,-30.5 "/>
<text text-anchor="start" x="1127.5" y="-18.5" font-family="Helvetica,sans-Serif" font-size="10.00" fill="#000000">+ MFTDPLDigitizerTask()</text>
<text text-anchor="start" x="1127.5" y="-7.5" font-family="Helvetica,sans-Serif" font-size="10.00" fill="#000000">+ setDigitizationOptions()</text>
</a>
</g>
</g>
<!-- Node7&#45;&gt;Node9 -->
<g id="edge9" class="edge">
<title>Node7&#45;&gt;Node9</title>
<path fill="none" stroke="#191970" d="M1179.9074,-106.9136C1183.5624,-97.167 1186.9916,-88.0224 1190.0708,-79.8111"/>
<polygon fill="none" stroke="#191970" points="1176.5722,-105.8395 1176.3381,-116.4318 1183.1265,-108.2974 1176.5722,-105.8395"/>
</g>
</g>
</svg>
        <g id="navigator" transform="translate(0 0)" fill="#404254">
                <rect fill="#f2f5e9" fill-opacity="0.5" stroke="#606060" stroke-width=".5" x="0" y="0" width="60" height="60"/>
                <use id="zoomplus" xlink:href="#zoomPlus" x="17" y="9" onmousedown="handleZoom(evt,'in')"/>
                <use id="zoomminus" xlink:href="#zoomMin" x="42" y="9" onmousedown="handleZoom(evt,'out')"/>
                <use id="reset" xlink:href="#resetDef" x="30" y="36" onmousedown="handleReset()"/>
                <g id="arrowUp" xlink:href="#dirArrow" transform="translate(30 24)" onmousedown="handlePan(0,-1)">
                  <use xlink:href="#rim" fill="#404040">
                        <set attributeName="fill" to="#808080" begin="arrowUp.mouseover" end="arrowUp.mouseout"/>
                  </use>
                  <path fill="none" stroke="white" stroke-width="1.5" d="M0,-3.0v7 M-2.5,-0.5L0,-3.0L2.5,-0.5"/>
                </g>
                <g id="arrowRight" xlink:href="#dirArrow" transform="rotate(90) translate(36 -43)" onmousedown="handlePan(1,0)">
                  <use xlink:href="#rim" fill="#404040">
                        <set attributeName="fill" to="#808080" begin="arrowRight.mouseover" end="arrowRight.mouseout"/>
                  </use>
                  <path fill="none" stroke="white" stroke-width="1.5" d="M0,-3.0v7 M-2.5,-0.5L0,-3.0L2.5,-0.5"/>
                </g>
                <g id="arrowDown" xlink:href="#dirArrow" transform="rotate(180) translate(-30 -48)" onmousedown="handlePan(0,1)">
                  <use xlink:href="#rim" fill="#404040">
                        <set attributeName="fill" to="#808080" begin="arrowDown.mouseover" end="arrowDown.mouseout"/>
                  </use>
                  <path fill="none" stroke="white" stroke-width="1.5" d="M0,-3.0v7 M-2.5,-0.5L0,-3.0L2.5,-0.5"/>
                </g>
                <g id="arrowLeft" xlink:href="#dirArrow" transform="rotate(270) translate(-36 17)" onmousedown="handlePan(-1,0)">
                  <use xlink:href="#rim" fill="#404040">
                        <set attributeName="fill" to="#808080" begin="arrowLeft.mouseover" end="arrowLeft.mouseout"/>
                  </use>
                  <path fill="none" stroke="white" stroke-width="1.5" d="M0,-3.0v7 M-2.5,-0.5L0,-3.0L2.5,-0.5"/>
                </g>
        </g>
        <svg viewBox="0 0 15 15" width="100%" height="30px" preserveAspectRatio="xMaxYMin meet">
         <g id="arrow_out" transform="scale(0.3 0.3)">
          <a xlink:href="classo2_1_1base_1_1BaseDPLDigitizer__inherit__graph_org.svg" target="_base">
           <rect id="button" ry="5" rx="5" y="6" x="6" height="38" width="38"
                fill="#f2f5e9" fill-opacity="0.5" stroke="#606060" stroke-width="1.0"/>
           <path id="arrow"
             d="M 11.500037,31.436501 C 11.940474,20.09759 22.043105,11.32322 32.158766,21.979434 L 37.068811,17.246167 C 37.068811,17.246167 37.088388,32 37.088388,32 L 22.160133,31.978069 C 22.160133,31.978069 26.997745,27.140456 26.997745,27.140456 C 18.528582,18.264221 13.291696,25.230495 11.500037,31.436501 z"
             style="fill:#404040;"/>
          </a>
         </g>
        </svg>
</svg>
