<?xml version="1.0" encoding="UTF-8" standalone="no"?>
<!DOCTYPE svg PUBLIC "-//W3C//DTD SVG 1.1//EN"
 "http://www.w3.org/Graphics/SVG/1.1/DTD/svg11.dtd">
<!-- Generated by graphviz version 2.40.1 (20161225.0304)
 -->
<!-- Title: /home/travis/build/AliceO2Group/AliceO2/Framework/Core/include/Framework/HistogramRegistry.h Pages: 1 -->
<svg width="5521pt" height="239pt"
 viewBox="0.00 0.00 5521.00 239.00" xmlns="http://www.w3.org/2000/svg" xmlns:xlink="http://www.w3.org/1999/xlink">
<g id="graph0" class="graph" transform="scale(1 1) rotate(0) translate(4 235)">
<title>/home/travis/build/AliceO2Group/AliceO2/Framework/Core/include/Framework/HistogramRegistry.h</title>
<!-- Node71 -->
<g id="node1" class="node">
<title>Node71</title>
<polygon fill="#bfbfbf" stroke="#000000" points="3140,-178.5 3140,-230.5 3315,-230.5 3315,-178.5 3140,-178.5"/>
<text text-anchor="start" x="3148" y="-218.5" font-family="Helvetica,sans-Serif" font-size="10.00" fill="#000000">/home/travis/build</text>
<text text-anchor="start" x="3148" y="-207.5" font-family="Helvetica,sans-Serif" font-size="10.00" fill="#000000">/AliceO2Group/AliceO2</text>
<text text-anchor="start" x="3148" y="-196.5" font-family="Helvetica,sans-Serif" font-size="10.00" fill="#000000">/Framework/Core/include</text>
<text text-anchor="middle" x="3227.5" y="-185.5" font-family="Helvetica,sans-Serif" font-size="10.00" fill="#000000">/Framework/HistogramRegistry.h</text>
</g>
<!-- Node72 -->
<g id="node2" class="node">
<title>Node72</title>
<g id="a_node2"><a xlink:href="../../d6/d57/AnalysisTask_8h.html" target="_top" xlink:title="/home/travis/build\l/AliceO2Group/AliceO2\l/Framework/Core/include\l/Framework/AnalysisTask.h">
<polygon fill="none" stroke="#000000" points="2873,-89.5 2873,-141.5 3022,-141.5 3022,-89.5 2873,-89.5"/>
<text text-anchor="start" x="2881" y="-129.5" font-family="Helvetica,sans-Serif" font-size="10.00" fill="#000000">/home/travis/build</text>
<text text-anchor="start" x="2881" y="-118.5" font-family="Helvetica,sans-Serif" font-size="10.00" fill="#000000">/AliceO2Group/AliceO2</text>
<text text-anchor="start" x="2881" y="-107.5" font-family="Helvetica,sans-Serif" font-size="10.00" fill="#000000">/Framework/Core/include</text>
<text text-anchor="middle" x="2947.5" y="-96.5" font-family="Helvetica,sans-Serif" font-size="10.00" fill="#000000">/Framework/AnalysisTask.h</text>
</a>
</g>
</g>
<!-- Node71&#45;&gt;Node72 -->
<g id="edge1" class="edge">
<title>Node71&#45;&gt;Node72</title>
<path fill="none" stroke="#191970" d="M3135.6747,-175.3127C3098.9815,-163.6495 3057.26,-150.388 3022.4421,-139.3209"/>
<polygon fill="#191970" stroke="#191970" points="3134.7923,-178.7047 3145.3827,-178.3984 3136.9128,-172.0336 3134.7923,-178.7047"/>
</g>
<!-- Node106 -->
<g id="node36" class="node">
<title>Node106</title>
<g id="a_node36"><a xlink:href="../../dd/d99/benchmark__GandivaExpressions_8cxx.html" target="_top" xlink:title="/home/travis/build\l/AliceO2Group/AliceO2\l/Framework/Core/test/benchmark\l_GandivaExpressions.cxx">
<polygon fill="none" stroke="#000000" points="3040,-89.5 3040,-141.5 3219,-141.5 3219,-89.5 3040,-89.5"/>
<text text-anchor="start" x="3048" y="-129.5" font-family="Helvetica,sans-Serif" font-size="10.00" fill="#000000">/home/travis/build</text>
<text text-anchor="start" x="3048" y="-118.5" font-family="Helvetica,sans-Serif" font-size="10.00" fill="#000000">/AliceO2Group/AliceO2</text>
<text text-anchor="start" x="3048" y="-107.5" font-family="Helvetica,sans-Serif" font-size="10.00" fill="#000000">/Framework/Core/test/benchmark</text>
<text text-anchor="middle" x="3129.5" y="-96.5" font-family="Helvetica,sans-Serif" font-size="10.00" fill="#000000">_GandivaExpressions.cxx</text>
</a>
</g>
</g>
<!-- Node71&#45;&gt;Node106 -->
<g id="edge35" class="edge">
<title>Node71&#45;&gt;Node106</title>
<path fill="none" stroke="#191970" d="M3190.9311,-171.2894C3180.1065,-161.459 3168.4154,-150.8415 3158.1668,-141.5341"/>
<polygon fill="#191970" stroke="#191970" points="3188.8709,-174.1464 3198.6268,-178.2784 3193.577,-168.9644 3188.8709,-174.1464"/>
</g>
<!-- Node107 -->
<g id="node37" class="node">
<title>Node107</title>
<g id="a_node37"><a xlink:href="../../d4/d42/benchmark__HistogramRegistry_8cxx.html" target="_top" xlink:title="/home/travis/build\l/AliceO2Group/AliceO2\l/Framework/Core/test/benchmark\l_HistogramRegistry.cxx">
<polygon fill="none" stroke="#000000" points="3237,-89.5 3237,-141.5 3416,-141.5 3416,-89.5 3237,-89.5"/>
<text text-anchor="start" x="3245" y="-129.5" font-family="Helvetica,sans-Serif" font-size="10.00" fill="#000000">/home/travis/build</text>
<text text-anchor="start" x="3245" y="-118.5" font-family="Helvetica,sans-Serif" font-size="10.00" fill="#000000">/AliceO2Group/AliceO2</text>
<text text-anchor="start" x="3245" y="-107.5" font-family="Helvetica,sans-Serif" font-size="10.00" fill="#000000">/Framework/Core/test/benchmark</text>
<text text-anchor="middle" x="3326.5" y="-96.5" font-family="Helvetica,sans-Serif" font-size="10.00" fill="#000000">_HistogramRegistry.cxx</text>
</a>
</g>
</g>
<!-- Node71&#45;&gt;Node107 -->
<g id="edge36" class="edge">
<title>Node71&#45;&gt;Node107</title>
<path fill="none" stroke="#191970" d="M3264.1238,-171.5755C3275.1476,-161.6653 3287.087,-150.9319 3297.5407,-141.5341"/>
<polygon fill="#191970" stroke="#191970" points="3261.7646,-168.9901 3256.6678,-178.2784 3266.4444,-174.1958 3261.7646,-168.9901"/>
</g>
<!-- Node108 -->
<g id="node38" class="node">
<title>Node108</title>
<g id="a_node38"><a xlink:href="../../d3/de2/test__HistogramRegistry_8cxx.html" target="_top" xlink:title="/home/travis/build\l/AliceO2Group/AliceO2\l/Framework/Core/test/test\l_HistogramRegistry.cxx">
<polygon fill="none" stroke="#000000" points="3434,-89.5 3434,-141.5 3577,-141.5 3577,-89.5 3434,-89.5"/>
<text text-anchor="start" x="3442" y="-129.5" font-family="Helvetica,sans-Serif" font-size="10.00" fill="#000000">/home/travis/build</text>
<text text-anchor="start" x="3442" y="-118.5" font-family="Helvetica,sans-Serif" font-size="10.00" fill="#000000">/AliceO2Group/AliceO2</text>
<text text-anchor="start" x="3442" y="-107.5" font-family="Helvetica,sans-Serif" font-size="10.00" fill="#000000">/Framework/Core/test/test</text>
<text text-anchor="middle" x="3505.5" y="-96.5" font-family="Helvetica,sans-Serif" font-size="10.00" fill="#000000">_HistogramRegistry.cxx</text>
</a>
</g>
</g>
<!-- Node71&#45;&gt;Node108 -->
<g id="edge37" class="edge">
<title>Node71&#45;&gt;Node108</title>
<path fill="none" stroke="#191970" d="M3320.5953,-175.4114C3353.7423,-164.9756 3391.3183,-153.0556 3425.5,-142 3428.2842,-141.0995 3431.1217,-140.1779 3433.987,-139.2441"/>
<polygon fill="#191970" stroke="#191970" points="3319.4051,-172.1166 3310.9162,-178.4561 3321.5056,-178.794 3319.4051,-172.1166"/>
</g>
<!-- Node73 -->
<g id="node3" class="node">
<title>Node73</title>
<g id="a_node3"><a xlink:href="../../dc/def/CorrelationContainer_8cxx.html" target="_top" xlink:title="/home/travis/build\l/AliceO2Group/AliceO2\l/Analysis/Core/src/Correlation\lContainer.cxx">
<polygon fill="none" stroke="#000000" points="0,-.5 0,-52.5 161,-52.5 161,-.5 0,-.5"/>
<text text-anchor="start" x="8" y="-40.5" font-family="Helvetica,sans-Serif" font-size="10.00" fill="#000000">/home/travis/build</text>
<text text-anchor="start" x="8" y="-29.5" font-family="Helvetica,sans-Serif" font-size="10.00" fill="#000000">/AliceO2Group/AliceO2</text>
<text text-anchor="start" x="8" y="-18.5" font-family="Helvetica,sans-Serif" font-size="10.00" fill="#000000">/Analysis/Core/src/Correlation</text>
<text text-anchor="middle" x="80.5" y="-7.5" font-family="Helvetica,sans-Serif" font-size="10.00" fill="#000000">Container.cxx</text>
</a>
</g>
</g>
<!-- Node72&#45;&gt;Node73 -->
<g id="edge2" class="edge">
<title>Node72&#45;&gt;Node73</title>
<path fill="none" stroke="#191970" d="M2862.8218,-114.9232C2426.4718,-111.773 441.6829,-95.2142 170.5,-53 167.4421,-52.524 164.3423,-51.9726 161.2237,-51.3598"/>
<polygon fill="#191970" stroke="#191970" points="2862.8148,-118.4232 2872.8397,-114.9952 2862.8651,-111.4234 2862.8148,-118.4232"/>
</g>
<!-- Node74 -->
<g id="node4" class="node">
<title>Node74</title>
<g id="a_node4"><a xlink:href="../../d9/dae/StepTHn_8cxx.html" target="_top" xlink:title="/home/travis/build\l/AliceO2Group/AliceO2\l/Analysis/Core/src/StepTHn.cxx">
<polygon fill="none" stroke="#000000" points="179.5,-6 179.5,-47 347.5,-47 347.5,-6 179.5,-6"/>
<text text-anchor="start" x="187.5" y="-35" font-family="Helvetica,sans-Serif" font-size="10.00" fill="#000000">/home/travis/build</text>
<text text-anchor="start" x="187.5" y="-24" font-family="Helvetica,sans-Serif" font-size="10.00" fill="#000000">/AliceO2Group/AliceO2</text>
<text text-anchor="middle" x="263.5" y="-13" font-family="Helvetica,sans-Serif" font-size="10.00" fill="#000000">/Analysis/Core/src/StepTHn.cxx</text>
</a>
</g>
</g>
<!-- Node72&#45;&gt;Node74 -->
<g id="edge3" class="edge">
<title>Node72&#45;&gt;Node74</title>
<path fill="none" stroke="#191970" d="M2862.476,-114.729C2443.484,-110.7574 608.4406,-91.297 356.5,-53 347.0392,-51.5619 337.1809,-49.4504 327.5711,-47.0368"/>
<polygon fill="#191970" stroke="#191970" points="2862.6652,-118.2308 2872.6979,-114.8255 2862.7314,-111.2312 2862.6652,-118.2308"/>
</g>
<!-- Node75 -->
<g id="node5" class="node">
<title>Node75</title>
<g id="a_node5"><a xlink:href="../../d5/d75/centralityQa_8cxx.html" target="_top" xlink:title="/home/travis/build\l/AliceO2Group/AliceO2\l/Analysis/Tasks/centralityQa.cxx">
<polygon fill="none" stroke="#000000" points="365.5,-6 365.5,-47 539.5,-47 539.5,-6 365.5,-6"/>
<text text-anchor="start" x="373.5" y="-35" font-family="Helvetica,sans-Serif" font-size="10.00" fill="#000000">/home/travis/build</text>
<text text-anchor="start" x="373.5" y="-24" font-family="Helvetica,sans-Serif" font-size="10.00" fill="#000000">/AliceO2Group/AliceO2</text>
<text text-anchor="middle" x="452.5" y="-13" font-family="Helvetica,sans-Serif" font-size="10.00" fill="#000000">/Analysis/Tasks/centralityQa.cxx</text>
</a>
</g>
</g>
<!-- Node72&#45;&gt;Node75 -->
<g id="edge4" class="edge">
<title>Node72&#45;&gt;Node75</title>
<path fill="none" stroke="#191970" d="M2862.6603,-114.5135C2463.3338,-109.7048 780.6869,-87.5433 548.5,-53 538.752,-51.5498 528.5856,-49.4316 518.6704,-47.0148"/>
<polygon fill="#191970" stroke="#191970" points="2862.6562,-118.0136 2872.6975,-114.6339 2862.7402,-111.0141 2862.6562,-118.0136"/>
</g>
<!-- Node76 -->
<g id="node6" class="node">
<title>Node76</title>
<g id="a_node6"><a xlink:href="../../de/d41/centralityTable_8cxx.html" target="_top" xlink:title="/home/travis/build\l/AliceO2Group/AliceO2\l/Analysis/Tasks/centralityTable.cxx">
<polygon fill="none" stroke="#000000" points="557.5,-6 557.5,-47 743.5,-47 743.5,-6 557.5,-6"/>
<text text-anchor="start" x="565.5" y="-35" font-family="Helvetica,sans-Serif" font-size="10.00" fill="#000000">/home/travis/build</text>
<text text-anchor="start" x="565.5" y="-24" font-family="Helvetica,sans-Serif" font-size="10.00" fill="#000000">/AliceO2Group/AliceO2</text>
<text text-anchor="middle" x="650.5" y="-13" font-family="Helvetica,sans-Serif" font-size="10.00" fill="#000000">/Analysis/Tasks/centralityTable.cxx</text>
</a>
</g>
</g>
<!-- Node72&#45;&gt;Node76 -->
<g id="edge5" class="edge">
<title>Node72&#45;&gt;Node76</title>
<path fill="none" stroke="#191970" d="M2862.8813,-114.2208C2485.3231,-108.36 963.8217,-83.0655 752.5,-53 742.2657,-51.5439 731.5805,-49.4398 721.1419,-47.0445"/>
<polygon fill="#191970" stroke="#191970" points="2862.8663,-117.7209 2872.9193,-114.3762 2862.9747,-110.7217 2862.8663,-117.7209"/>
</g>
<!-- Node77 -->
<g id="node7" class="node">
<title>Node77</title>
<g id="a_node7"><a xlink:href="../../d9/d61/correlations_8cxx.html" target="_top" xlink:title="/home/travis/build\l/AliceO2Group/AliceO2\l/Analysis/Tasks/correlations.cxx">
<polygon fill="none" stroke="#000000" points="761.5,-6 761.5,-47 933.5,-47 933.5,-6 761.5,-6"/>
<text text-anchor="start" x="769.5" y="-35" font-family="Helvetica,sans-Serif" font-size="10.00" fill="#000000">/home/travis/build</text>
<text text-anchor="start" x="769.5" y="-24" font-family="Helvetica,sans-Serif" font-size="10.00" fill="#000000">/AliceO2Group/AliceO2</text>
<text text-anchor="middle" x="847.5" y="-13" font-family="Helvetica,sans-Serif" font-size="10.00" fill="#000000">/Analysis/Tasks/correlations.cxx</text>
</a>
</g>
</g>
<!-- Node72&#45;&gt;Node77 -->
<g id="edge6" class="edge">
<title>Node72&#45;&gt;Node77</title>
<path fill="none" stroke="#191970" d="M2862.958,-114.0659C2506.2725,-107.852 1133.9324,-82.245 942.5,-53 932.9366,-51.539 922.9671,-49.4321 913.2366,-47.0355"/>
<polygon fill="#191970" stroke="#191970" points="2862.9016,-117.5653 2872.9609,-114.2397 2863.0233,-110.5664 2862.9016,-117.5653"/>
</g>
<!-- Node78 -->
<g id="node8" class="node">
<title>Node78</title>
<g id="a_node8"><a xlink:href="../../df/d59/correlationsCollection_8cxx.html" target="_top" xlink:title="/home/travis/build\l/AliceO2Group/AliceO2\l/Analysis/Tasks/correlations\lCollection.cxx">
<polygon fill="none" stroke="#000000" points="951.5,-.5 951.5,-52.5 1103.5,-52.5 1103.5,-.5 951.5,-.5"/>
<text text-anchor="start" x="959.5" y="-40.5" font-family="Helvetica,sans-Serif" font-size="10.00" fill="#000000">/home/travis/build</text>
<text text-anchor="start" x="959.5" y="-29.5" font-family="Helvetica,sans-Serif" font-size="10.00" fill="#000000">/AliceO2Group/AliceO2</text>
<text text-anchor="start" x="959.5" y="-18.5" font-family="Helvetica,sans-Serif" font-size="10.00" fill="#000000">/Analysis/Tasks/correlations</text>
<text text-anchor="middle" x="1027.5" y="-7.5" font-family="Helvetica,sans-Serif" font-size="10.00" fill="#000000">Collection.cxx</text>
</a>
</g>
</g>
<!-- Node72&#45;&gt;Node78 -->
<g id="edge7" class="edge">
<title>Node72&#45;&gt;Node78</title>
<path fill="none" stroke="#191970" d="M2862.6874,-113.9479C2524.9956,-107.5857 1285.9556,-82.4412 1112.5,-53 1109.6045,-52.5085 1106.6706,-51.9441 1103.7199,-51.3201"/>
<polygon fill="#191970" stroke="#191970" points="2862.8265,-117.4511 2872.8905,-114.1396 2862.9581,-110.4523 2862.8265,-117.4511"/>
</g>
<!-- Node79 -->
<g id="node9" class="node">
<title>Node79</title>
<g id="a_node9"><a xlink:href="../../d9/df1/eventSelection_8cxx.html" target="_top" xlink:title="/home/travis/build\l/AliceO2Group/AliceO2\l/Analysis/Tasks/eventSelection.cxx">
<polygon fill="none" stroke="#000000" points="1122,-6 1122,-47 1309,-47 1309,-6 1122,-6"/>
<text text-anchor="start" x="1130" y="-35" font-family="Helvetica,sans-Serif" font-size="10.00" fill="#000000">/home/travis/build</text>
<text text-anchor="start" x="1130" y="-24" font-family="Helvetica,sans-Serif" font-size="10.00" fill="#000000">/AliceO2Group/AliceO2</text>
<text text-anchor="middle" x="1215.5" y="-13" font-family="Helvetica,sans-Serif" font-size="10.00" fill="#000000">/Analysis/Tasks/eventSelection.cxx</text>
</a>
</g>
</g>
<!-- Node72&#45;&gt;Node79 -->
<g id="edge8" class="edge">
<title>Node72&#45;&gt;Node79</title>
<path fill="none" stroke="#191970" d="M2862.5249,-114.6331C2572.1904,-111.2965 1620.8661,-97.1789 1318.5,-53 1308.2686,-51.5051 1297.5848,-49.3961 1287.136,-47.0133"/>
<polygon fill="#191970" stroke="#191970" points="2862.5328,-118.1333 2872.572,-114.7472 2862.6124,-111.1337 2862.5328,-118.1333"/>
</g>
<!-- Node80 -->
<g id="node10" class="node">
<title>Node80</title>
<g id="a_node10"><a xlink:href="../../d2/dc6/jetfinder_8cxx.html" target="_top" xlink:title="/home/travis/build\l/AliceO2Group/AliceO2\l/Analysis/Tasks/jetfinder.cxx">
<polygon fill="none" stroke="#000000" points="1327.5,-6 1327.5,-47 1481.5,-47 1481.5,-6 1327.5,-6"/>
<text text-anchor="start" x="1335.5" y="-35" font-family="Helvetica,sans-Serif" font-size="10.00" fill="#000000">/home/travis/build</text>
<text text-anchor="start" x="1335.5" y="-24" font-family="Helvetica,sans-Serif" font-size="10.00" fill="#000000">/AliceO2Group/AliceO2</text>
<text text-anchor="middle" x="1404.5" y="-13" font-family="Helvetica,sans-Serif" font-size="10.00" fill="#000000">/Analysis/Tasks/jetfinder.cxx</text>
</a>
</g>
</g>
<!-- Node72&#45;&gt;Node80 -->
<g id="edge9" class="edge">
<title>Node72&#45;&gt;Node80</title>
<path fill="none" stroke="#191970" d="M2862.8703,-114.7099C2593.3218,-111.7468 1756.9969,-98.9899 1490.5,-53 1481.8784,-51.5122 1472.9135,-49.4072 1464.1681,-47.0262"/>
<polygon fill="#191970" stroke="#191970" points="2862.9475,-118.2108 2872.9848,-114.8194 2863.0233,-111.2112 2862.9475,-118.2108"/>
</g>
<!-- Node81 -->
<g id="node11" class="node">
<title>Node81</title>
<g id="a_node11"><a xlink:href="../../d3/d6a/multiplicityQa_8cxx.html" target="_top" xlink:title="/home/travis/build\l/AliceO2Group/AliceO2\l/Analysis/Tasks/multiplicity\lQa.cxx">
<polygon fill="none" stroke="#000000" points="1500,-.5 1500,-52.5 1649,-52.5 1649,-.5 1500,-.5"/>
<text text-anchor="start" x="1508" y="-40.5" font-family="Helvetica,sans-Serif" font-size="10.00" fill="#000000">/home/travis/build</text>
<text text-anchor="start" x="1508" y="-29.5" font-family="Helvetica,sans-Serif" font-size="10.00" fill="#000000">/AliceO2Group/AliceO2</text>
<text text-anchor="start" x="1508" y="-18.5" font-family="Helvetica,sans-Serif" font-size="10.00" fill="#000000">/Analysis/Tasks/multiplicity</text>
<text text-anchor="middle" x="1574.5" y="-7.5" font-family="Helvetica,sans-Serif" font-size="10.00" fill="#000000">Qa.cxx</text>
</a>
</g>
</g>
<!-- Node72&#45;&gt;Node81 -->
<g id="edge10" class="edge">
<title>Node72&#45;&gt;Node81</title>
<path fill="none" stroke="#191970" d="M2862.9041,-114.2737C2614.4978,-110.2184 1890.0948,-95.0199 1657.5,-53 1654.8206,-52.516 1652.1077,-51.969 1649.3792,-51.3703"/>
<polygon fill="#191970" stroke="#191970" points="2862.9017,-117.7741 2872.9569,-114.436 2863.0147,-110.775 2862.9017,-117.7741"/>
</g>
<!-- Node82 -->
<g id="node12" class="node">
<title>Node82</title>
<g id="a_node12"><a xlink:href="../../d4/d23/multiplicityTable_8cxx.html" target="_top" xlink:title="/home/travis/build\l/AliceO2Group/AliceO2\l/Analysis/Tasks/multiplicity\lTable.cxx">
<polygon fill="none" stroke="#000000" points="1667,-.5 1667,-52.5 1816,-52.5 1816,-.5 1667,-.5"/>
<text text-anchor="start" x="1675" y="-40.5" font-family="Helvetica,sans-Serif" font-size="10.00" fill="#000000">/home/travis/build</text>
<text text-anchor="start" x="1675" y="-29.5" font-family="Helvetica,sans-Serif" font-size="10.00" fill="#000000">/AliceO2Group/AliceO2</text>
<text text-anchor="start" x="1675" y="-18.5" font-family="Helvetica,sans-Serif" font-size="10.00" fill="#000000">/Analysis/Tasks/multiplicity</text>
<text text-anchor="middle" x="1741.5" y="-7.5" font-family="Helvetica,sans-Serif" font-size="10.00" fill="#000000">Table.cxx</text>
</a>
</g>
</g>
<!-- Node72&#45;&gt;Node82 -->
<g id="edge11" class="edge">
<title>Node72&#45;&gt;Node82</title>
<path fill="none" stroke="#191970" d="M2862.6953,-113.5603C2636.6835,-107.9469 2023.5528,-89.6993 1824.5,-53 1821.8224,-52.5063 1819.111,-51.9511 1816.3837,-51.3453"/>
<polygon fill="#191970" stroke="#191970" points="2862.7559,-117.0627 2872.8391,-113.8102 2862.9283,-110.0649 2862.7559,-117.0627"/>
</g>
<!-- Node83 -->
<g id="node13" class="node">
<title>Node83</title>
<g id="a_node13"><a xlink:href="../../db/d90/trackselection_8cxx.html" target="_top" xlink:title="/home/travis/build\l/AliceO2Group/AliceO2\l/Analysis/Tasks/trackselection.cxx">
<polygon fill="none" stroke="#000000" points="1834,-6 1834,-47 2017,-47 2017,-6 1834,-6"/>
<text text-anchor="start" x="1842" y="-35" font-family="Helvetica,sans-Serif" font-size="10.00" fill="#000000">/home/travis/build</text>
<text text-anchor="start" x="1842" y="-24" font-family="Helvetica,sans-Serif" font-size="10.00" fill="#000000">/AliceO2Group/AliceO2</text>
<text text-anchor="middle" x="1925.5" y="-13" font-family="Helvetica,sans-Serif" font-size="10.00" fill="#000000">/Analysis/Tasks/trackselection.cxx</text>
</a>
</g>
</g>
<!-- Node72&#45;&gt;Node83 -->
<g id="edge12" class="edge">
<title>Node72&#45;&gt;Node83</title>
<path fill="none" stroke="#191970" d="M2862.391,-111.8175C2665.8855,-102.9768 2185.1976,-79.3236 2025.5,-53 2015.9305,-51.4226 2005.9487,-49.3316 1996.1543,-47.0138"/>
<polygon fill="#191970" stroke="#191970" points="2862.5159,-115.3265 2872.6626,-112.2777 2862.8293,-108.3335 2862.5159,-115.3265"/>
</g>
<!-- Node84 -->
<g id="node14" class="node">
<title>Node84</title>
<g id="a_node14"><a xlink:href="../../d2/d9d/upcAnalysis_8cxx.html" target="_top" xlink:title="/home/travis/build\l/AliceO2Group/AliceO2\l/Analysis/Tasks/upcAnalysis.cxx">
<polygon fill="none" stroke="#000000" points="2035,-6 2035,-47 2208,-47 2208,-6 2035,-6"/>
<text text-anchor="start" x="2043" y="-35" font-family="Helvetica,sans-Serif" font-size="10.00" fill="#000000">/home/travis/build</text>
<text text-anchor="start" x="2043" y="-24" font-family="Helvetica,sans-Serif" font-size="10.00" fill="#000000">/AliceO2Group/AliceO2</text>
<text text-anchor="middle" x="2121.5" y="-13" font-family="Helvetica,sans-Serif" font-size="10.00" fill="#000000">/Analysis/Tasks/upcAnalysis.cxx</text>
</a>
</g>
</g>
<!-- Node72&#45;&gt;Node84 -->
<g id="edge13" class="edge">
<title>Node72&#45;&gt;Node84</title>
<path fill="none" stroke="#191970" d="M2862.9636,-113.3892C2726.1296,-108.8301 2448.0774,-94.82 2216.5,-53 2207.5694,-51.3872 2198.2648,-49.3064 2189.1237,-47.0205"/>
<polygon fill="#191970" stroke="#191970" points="2862.8599,-116.8876 2872.9682,-113.714 2863.0871,-109.8913 2862.8599,-116.8876"/>
</g>
<!-- Node85 -->
<g id="node15" class="node">
<title>Node85</title>
<g id="a_node15"><a xlink:href="../../dd/d1b/validation_8cxx.html" target="_top" xlink:title="/home/travis/build\l/AliceO2Group/AliceO2\l/Analysis/Tasks/validation.cxx">
<polygon fill="none" stroke="#000000" points="2226,-6 2226,-47 2389,-47 2389,-6 2226,-6"/>
<text text-anchor="start" x="2234" y="-35" font-family="Helvetica,sans-Serif" font-size="10.00" fill="#000000">/home/travis/build</text>
<text text-anchor="start" x="2234" y="-24" font-family="Helvetica,sans-Serif" font-size="10.00" fill="#000000">/AliceO2Group/AliceO2</text>
<text text-anchor="middle" x="2307.5" y="-13" font-family="Helvetica,sans-Serif" font-size="10.00" fill="#000000">/Analysis/Tasks/validation.cxx</text>
</a>
</g>
</g>
<!-- Node72&#45;&gt;Node85 -->
<g id="edge14" class="edge">
<title>Node72&#45;&gt;Node85</title>
<path fill="none" stroke="#191970" d="M2862.4976,-110.3215C2754.0027,-102.6859 2560.9001,-85.6436 2398.5,-53 2390.2726,-51.3462 2381.7117,-49.2997 2373.2766,-47.0824"/>
<polygon fill="#191970" stroke="#191970" points="2862.5109,-113.8308 2872.7292,-111.0313 2862.9954,-106.8475 2862.5109,-113.8308"/>
</g>
<!-- Node86 -->
<g id="node16" class="node">
<title>Node86</title>
<g id="a_node16"><a xlink:href="../../de/d5e/vertexerhf_8cxx.html" target="_top" xlink:title="/home/travis/build\l/AliceO2Group/AliceO2\l/Analysis/Tasks/vertexerhf.cxx">
<polygon fill="none" stroke="#000000" points="2407.5,-6 2407.5,-47 2571.5,-47 2571.5,-6 2407.5,-6"/>
<text text-anchor="start" x="2415.5" y="-35" font-family="Helvetica,sans-Serif" font-size="10.00" fill="#000000">/home/travis/build</text>
<text text-anchor="start" x="2415.5" y="-24" font-family="Helvetica,sans-Serif" font-size="10.00" fill="#000000">/AliceO2Group/AliceO2</text>
<text text-anchor="middle" x="2489.5" y="-13" font-family="Helvetica,sans-Serif" font-size="10.00" fill="#000000">/Analysis/Tasks/vertexerhf.cxx</text>
</a>
</g>
</g>
<!-- Node72&#45;&gt;Node86 -->
<g id="edge15" class="edge">
<title>Node72&#45;&gt;Node86</title>
<path fill="none" stroke="#191970" d="M2862.5503,-103.8576C2787.8139,-92.9449 2676.3033,-75.0306 2580.5,-53 2572.8026,-51.2299 2564.7924,-49.192 2556.8575,-47.0489"/>
<polygon fill="#191970" stroke="#191970" points="2862.4476,-107.3792 2872.8464,-105.3507 2863.4522,-100.4517 2862.4476,-107.3792"/>
</g>
<!-- Node87 -->
<g id="node17" class="node">
<title>Node87</title>
<g id="a_node17"><a xlink:href="../../dd/d00/aodreader_8cxx.html" target="_top" xlink:title="/home/travis/build\l/AliceO2Group/AliceO2\l/Analysis/Tutorials/src\l/aodreader.cxx">
<polygon fill="none" stroke="#000000" points="2590,-.5 2590,-52.5 2717,-52.5 2717,-.5 2590,-.5"/>
<text text-anchor="start" x="2598" y="-40.5" font-family="Helvetica,sans-Serif" font-size="10.00" fill="#000000">/home/travis/build</text>
<text text-anchor="start" x="2598" y="-29.5" font-family="Helvetica,sans-Serif" font-size="10.00" fill="#000000">/AliceO2Group/AliceO2</text>
<text text-anchor="start" x="2598" y="-18.5" font-family="Helvetica,sans-Serif" font-size="10.00" fill="#000000">/Analysis/Tutorials/src</text>
<text text-anchor="middle" x="2653.5" y="-7.5" font-family="Helvetica,sans-Serif" font-size="10.00" fill="#000000">/aodreader.cxx</text>
</a>
</g>
</g>
<!-- Node72&#45;&gt;Node87 -->
<g id="edge16" class="edge">
<title>Node72&#45;&gt;Node87</title>
<path fill="none" stroke="#191970" d="M2862.9827,-93.3765C2821.3524,-82.0558 2770.5459,-67.6059 2725.5,-53 2722.7125,-52.0962 2719.8724,-51.152 2717.0093,-50.181"/>
<polygon fill="#191970" stroke="#191970" points="2862.2432,-96.8022 2872.8104,-96.0373 2864.0726,-90.0455 2862.2432,-96.8022"/>
</g>
<!-- Node88 -->
<g id="node18" class="node">
<title>Node88</title>
<g id="a_node18"><a xlink:href="../../d0/dee/aodwriter_8cxx.html" target="_top" xlink:title="/home/travis/build\l/AliceO2Group/AliceO2\l/Analysis/Tutorials/src\l/aodwriter.cxx">
<polygon fill="none" stroke="#000000" points="2735,-.5 2735,-52.5 2862,-52.5 2862,-.5 2735,-.5"/>
<text text-anchor="start" x="2743" y="-40.5" font-family="Helvetica,sans-Serif" font-size="10.00" fill="#000000">/home/travis/build</text>
<text text-anchor="start" x="2743" y="-29.5" font-family="Helvetica,sans-Serif" font-size="10.00" fill="#000000">/AliceO2Group/AliceO2</text>
<text text-anchor="start" x="2743" y="-18.5" font-family="Helvetica,sans-Serif" font-size="10.00" fill="#000000">/Analysis/Tutorials/src</text>
<text text-anchor="middle" x="2798.5" y="-7.5" font-family="Helvetica,sans-Serif" font-size="10.00" fill="#000000">/aodwriter.cxx</text>
</a>
</g>
</g>
<!-- Node72&#45;&gt;Node88 -->
<g id="edge17" class="edge">
<title>Node72&#45;&gt;Node88</title>
<path fill="none" stroke="#191970" d="M2894.7623,-83.9989C2877.5209,-73.7004 2858.5749,-62.3837 2842.0853,-52.5341"/>
<polygon fill="#191970" stroke="#191970" points="2893.2211,-87.1552 2903.601,-89.2784 2896.8107,-81.1456 2893.2211,-87.1552"/>
</g>
<!-- Node89 -->
<g id="node19" class="node">
<title>Node89</title>
<g id="a_node19"><a xlink:href="../../d6/dcb/associatedExample_8cxx.html" target="_top" xlink:title="/home/travis/build\l/AliceO2Group/AliceO2\l/Analysis/Tutorials/src\l/associatedExample.cxx">
<polygon fill="none" stroke="#000000" points="2880,-.5 2880,-52.5 3015,-52.5 3015,-.5 2880,-.5"/>
<text text-anchor="start" x="2888" y="-40.5" font-family="Helvetica,sans-Serif" font-size="10.00" fill="#000000">/home/travis/build</text>
<text text-anchor="start" x="2888" y="-29.5" font-family="Helvetica,sans-Serif" font-size="10.00" fill="#000000">/AliceO2Group/AliceO2</text>
<text text-anchor="start" x="2888" y="-18.5" font-family="Helvetica,sans-Serif" font-size="10.00" fill="#000000">/Analysis/Tutorials/src</text>
<text text-anchor="middle" x="2947.5" y="-7.5" font-family="Helvetica,sans-Serif" font-size="10.00" fill="#000000">/associatedExample.cxx</text>
</a>
</g>
</g>
<!-- Node72&#45;&gt;Node89 -->
<g id="edge18" class="edge">
<title>Node72&#45;&gt;Node89</title>
<path fill="none" stroke="#191970" d="M2947.5,-79.1155C2947.5,-70.2061 2947.5,-60.8475 2947.5,-52.5341"/>
<polygon fill="#191970" stroke="#191970" points="2944.0001,-79.2784 2947.5,-89.2784 2951.0001,-79.2785 2944.0001,-79.2784"/>
</g>
<!-- Node90 -->
<g id="node20" class="node">
<title>Node90</title>
<g id="a_node20"><a xlink:href="../../d4/dd5/collisionTracksIteration_8cxx.html" target="_top" xlink:title="/home/travis/build\l/AliceO2Group/AliceO2\l/Analysis/Tutorials/src\l/collisionTracksIteration.cxx">
<polygon fill="none" stroke="#000000" points="3033.5,-.5 3033.5,-52.5 3185.5,-52.5 3185.5,-.5 3033.5,-.5"/>
<text text-anchor="start" x="3041.5" y="-40.5" font-family="Helvetica,sans-Serif" font-size="10.00" fill="#000000">/home/travis/build</text>
<text text-anchor="start" x="3041.5" y="-29.5" font-family="Helvetica,sans-Serif" font-size="10.00" fill="#000000">/AliceO2Group/AliceO2</text>
<text text-anchor="start" x="3041.5" y="-18.5" font-family="Helvetica,sans-Serif" font-size="10.00" fill="#000000">/Analysis/Tutorials/src</text>
<text text-anchor="middle" x="3109.5" y="-7.5" font-family="Helvetica,sans-Serif" font-size="10.00" fill="#000000">/collisionTracksIteration.cxx</text>
</a>
</g>
</g>
<!-- Node72&#45;&gt;Node90 -->
<g id="edge19" class="edge">
<title>Node72&#45;&gt;Node90</title>
<path fill="none" stroke="#191970" d="M3004.0662,-84.4235C3023.0172,-74.0122 3043.9369,-62.5192 3062.112,-52.5341"/>
<polygon fill="#191970" stroke="#191970" points="3002.3083,-81.3958 2995.2291,-89.2784 3005.6789,-87.5309 3002.3083,-81.3958"/>
</g>
<!-- Node91 -->
<g id="node21" class="node">
<title>Node91</title>
<g id="a_node21"><a xlink:href="../../d2/df5/dynamicColumns_8cxx.html" target="_top" xlink:title="/home/travis/build\l/AliceO2Group/AliceO2\l/Analysis/Tutorials/src\l/dynamicColumns.cxx">
<polygon fill="none" stroke="#000000" points="3204,-.5 3204,-52.5 3331,-52.5 3331,-.5 3204,-.5"/>
<text text-anchor="start" x="3212" y="-40.5" font-family="Helvetica,sans-Serif" font-size="10.00" fill="#000000">/home/travis/build</text>
<text text-anchor="start" x="3212" y="-29.5" font-family="Helvetica,sans-Serif" font-size="10.00" fill="#000000">/AliceO2Group/AliceO2</text>
<text text-anchor="start" x="3212" y="-18.5" font-family="Helvetica,sans-Serif" font-size="10.00" fill="#000000">/Analysis/Tutorials/src</text>
<text text-anchor="middle" x="3267.5" y="-7.5" font-family="Helvetica,sans-Serif" font-size="10.00" fill="#000000">/dynamicColumns.cxx</text>
</a>
</g>
</g>
<!-- Node72&#45;&gt;Node91 -->
<g id="edge20" class="edge">
<title>Node72&#45;&gt;Node91</title>
<path fill="none" stroke="#191970" d="M3031.7353,-89.05C3104.9023,-70.0979 3126.1787,-72.853 3194.5,-53 3197.6073,-52.0971 3200.7737,-51.1305 3203.9606,-50.1202"/>
<polygon fill="#191970" stroke="#191970" points="3030.8309,-85.6688 3022.0548,-91.6043 3032.6169,-92.4371 3030.8309,-85.6688"/>
</g>
<!-- Node92 -->
<g id="node22" class="node">
<title>Node92</title>
<g id="a_node22"><a xlink:href="../../d6/ddb/eventMixing_8cxx.html" target="_top" xlink:title="/home/travis/build\l/AliceO2Group/AliceO2\l/Analysis/Tutorials/src\l/eventMixing.cxx">
<polygon fill="none" stroke="#000000" points="3349,-.5 3349,-52.5 3476,-52.5 3476,-.5 3349,-.5"/>
<text text-anchor="start" x="3357" y="-40.5" font-family="Helvetica,sans-Serif" font-size="10.00" fill="#000000">/home/travis/build</text>
<text text-anchor="start" x="3357" y="-29.5" font-family="Helvetica,sans-Serif" font-size="10.00" fill="#000000">/AliceO2Group/AliceO2</text>
<text text-anchor="start" x="3357" y="-18.5" font-family="Helvetica,sans-Serif" font-size="10.00" fill="#000000">/Analysis/Tutorials/src</text>
<text text-anchor="middle" x="3412.5" y="-7.5" font-family="Helvetica,sans-Serif" font-size="10.00" fill="#000000">/eventMixing.cxx</text>
</a>
</g>
</g>
<!-- Node72&#45;&gt;Node92 -->
<g id="edge21" class="edge">
<title>Node72&#45;&gt;Node92</title>
<path fill="none" stroke="#191970" d="M3032.3917,-89.0012C3168.5971,-61.2133 3209.1683,-84.3503 3340.5,-53 3343.2207,-52.3505 3345.9796,-51.6293 3348.752,-50.8525"/>
<polygon fill="#191970" stroke="#191970" points="3031.4867,-85.6148 3022.4171,-91.0914 3032.9224,-92.466 3031.4867,-85.6148"/>
</g>
<!-- Node93 -->
<g id="node23" class="node">
<title>Node93</title>
<g id="a_node23"><a xlink:href="../../d6/d77/filters_8cxx.html" target="_top" xlink:title="/home/travis/build\l/AliceO2Group/AliceO2\l/Analysis/Tutorials/src\l/filters.cxx">
<polygon fill="none" stroke="#000000" points="3494,-.5 3494,-52.5 3621,-52.5 3621,-.5 3494,-.5"/>
<text text-anchor="start" x="3502" y="-40.5" font-family="Helvetica,sans-Serif" font-size="10.00" fill="#000000">/home/travis/build</text>
<text text-anchor="start" x="3502" y="-29.5" font-family="Helvetica,sans-Serif" font-size="10.00" fill="#000000">/AliceO2Group/AliceO2</text>
<text text-anchor="start" x="3502" y="-18.5" font-family="Helvetica,sans-Serif" font-size="10.00" fill="#000000">/Analysis/Tutorials/src</text>
<text text-anchor="middle" x="3557.5" y="-7.5" font-family="Helvetica,sans-Serif" font-size="10.00" fill="#000000">/filters.cxx</text>
</a>
</g>
</g>
<!-- Node72&#45;&gt;Node93 -->
<g id="edge22" class="edge">
<title>Node72&#45;&gt;Node93</title>
<path fill="none" stroke="#191970" d="M3032.3171,-89.0526C3232.0707,-51.7646 3290.9738,-95.663 3485.5,-53 3488.2322,-52.4008 3491.0007,-51.7215 3493.781,-50.9795"/>
<polygon fill="#191970" stroke="#191970" points="3031.5533,-85.6351 3022.3884,-90.9507 3032.8677,-92.5106 3031.5533,-85.6351"/>
</g>
<!-- Node94 -->
<g id="node24" class="node">
<title>Node94</title>
<g id="a_node24"><a xlink:href="../../d2/d4e/fullTrackIteration_8cxx.html" target="_top" xlink:title="/home/travis/build\l/AliceO2Group/AliceO2\l/Analysis/Tutorials/src\l/fullTrackIteration.cxx">
<polygon fill="none" stroke="#000000" points="3639,-.5 3639,-52.5 3766,-52.5 3766,-.5 3639,-.5"/>
<text text-anchor="start" x="3647" y="-40.5" font-family="Helvetica,sans-Serif" font-size="10.00" fill="#000000">/home/travis/build</text>
<text text-anchor="start" x="3647" y="-29.5" font-family="Helvetica,sans-Serif" font-size="10.00" fill="#000000">/AliceO2Group/AliceO2</text>
<text text-anchor="start" x="3647" y="-18.5" font-family="Helvetica,sans-Serif" font-size="10.00" fill="#000000">/Analysis/Tutorials/src</text>
<text text-anchor="middle" x="3702.5" y="-7.5" font-family="Helvetica,sans-Serif" font-size="10.00" fill="#000000">/fullTrackIteration.cxx</text>
</a>
</g>
</g>
<!-- Node72&#45;&gt;Node94 -->
<g id="edge23" class="edge">
<title>Node72&#45;&gt;Node94</title>
<path fill="none" stroke="#191970" d="M3032.2261,-89.0853C3295.6341,-42.1357 3372.6419,-106.9769 3630.5,-53 3633.2378,-52.4269 3636.011,-51.7695 3638.7952,-51.0455"/>
<polygon fill="#191970" stroke="#191970" points="3031.5865,-85.6441 3022.3745,-90.8775 3032.8395,-92.531 3031.5865,-85.6441"/>
</g>
<!-- Node95 -->
<g id="node25" class="node">
<title>Node95</title>
<g id="a_node25"><a xlink:href="../../df/d90/histograms_8cxx.html" target="_top" xlink:title="/home/travis/build\l/AliceO2Group/AliceO2\l/Analysis/Tutorials/src\l/histograms.cxx">
<polygon fill="none" stroke="#000000" points="3784,-.5 3784,-52.5 3911,-52.5 3911,-.5 3784,-.5"/>
<text text-anchor="start" x="3792" y="-40.5" font-family="Helvetica,sans-Serif" font-size="10.00" fill="#000000">/home/travis/build</text>
<text text-anchor="start" x="3792" y="-29.5" font-family="Helvetica,sans-Serif" font-size="10.00" fill="#000000">/AliceO2Group/AliceO2</text>
<text text-anchor="start" x="3792" y="-18.5" font-family="Helvetica,sans-Serif" font-size="10.00" fill="#000000">/Analysis/Tutorials/src</text>
<text text-anchor="middle" x="3847.5" y="-7.5" font-family="Helvetica,sans-Serif" font-size="10.00" fill="#000000">/histograms.cxx</text>
</a>
</g>
</g>
<!-- Node72&#45;&gt;Node95 -->
<g id="edge24" class="edge">
<title>Node72&#45;&gt;Node95</title>
<path fill="none" stroke="#191970" d="M3032.5964,-89.0299C3359.3287,-32.5112 3454.4056,-118.2592 3775.5,-53 3778.2411,-52.4429 3781.017,-51.7989 3783.8035,-51.0859"/>
<polygon fill="#191970" stroke="#191970" points="3031.6071,-85.6503 3022.3663,-90.8327 3032.822,-92.544 3031.6071,-85.6503"/>
</g>
<!-- Node96 -->
<g id="node26" class="node">
<title>Node96</title>
<g id="a_node26"><a xlink:href="../../dd/d06/histogramTrackSelection_8cxx.html" target="_top" xlink:title="/home/travis/build\l/AliceO2Group/AliceO2\l/Analysis/Tutorials/src\l/histogramTrackSelection.cxx">
<polygon fill="none" stroke="#000000" points="3929.5,-.5 3929.5,-52.5 4089.5,-52.5 4089.5,-.5 3929.5,-.5"/>
<text text-anchor="start" x="3937.5" y="-40.5" font-family="Helvetica,sans-Serif" font-size="10.00" fill="#000000">/home/travis/build</text>
<text text-anchor="start" x="3937.5" y="-29.5" font-family="Helvetica,sans-Serif" font-size="10.00" fill="#000000">/AliceO2Group/AliceO2</text>
<text text-anchor="start" x="3937.5" y="-18.5" font-family="Helvetica,sans-Serif" font-size="10.00" fill="#000000">/Analysis/Tutorials/src</text>
<text text-anchor="middle" x="4009.5" y="-7.5" font-family="Helvetica,sans-Serif" font-size="10.00" fill="#000000">/histogramTrackSelection.cxx</text>
</a>
</g>
</g>
<!-- Node72&#45;&gt;Node96 -->
<g id="edge25" class="edge">
<title>Node72&#45;&gt;Node96</title>
<path fill="none" stroke="#191970" d="M3032.2293,-89.0965C3422.8655,-22.5168 3533.6693,-117.3862 3920.5,-53 3923.3625,-52.5235 3926.2625,-51.9831 3929.1806,-51.39"/>
<polygon fill="#191970" stroke="#191970" points="3031.6186,-85.65 3022.361,-90.8025 3032.8111,-92.5477 3031.6186,-85.65"/>
</g>
<!-- Node97 -->
<g id="node27" class="node">
<title>Node97</title>
<g id="a_node27"><a xlink:href="../../d7/d21/jetAnalysis_8cxx.html" target="_top" xlink:title="/home/travis/build\l/AliceO2Group/AliceO2\l/Analysis/Tutorials/src\l/jetAnalysis.cxx">
<polygon fill="none" stroke="#000000" points="4108,-.5 4108,-52.5 4235,-52.5 4235,-.5 4108,-.5"/>
<text text-anchor="start" x="4116" y="-40.5" font-family="Helvetica,sans-Serif" font-size="10.00" fill="#000000">/home/travis/build</text>
<text text-anchor="start" x="4116" y="-29.5" font-family="Helvetica,sans-Serif" font-size="10.00" fill="#000000">/AliceO2Group/AliceO2</text>
<text text-anchor="start" x="4116" y="-18.5" font-family="Helvetica,sans-Serif" font-size="10.00" fill="#000000">/Analysis/Tutorials/src</text>
<text text-anchor="middle" x="4171.5" y="-7.5" font-family="Helvetica,sans-Serif" font-size="10.00" fill="#000000">/jetAnalysis.cxx</text>
</a>
</g>
</g>
<!-- Node72&#45;&gt;Node97 -->
<g id="edge26" class="edge">
<title>Node72&#45;&gt;Node97</title>
<path fill="none" stroke="#191970" d="M3032.4329,-89.0694C3501.0858,-10.772 3635.9326,-142.4281 4098.5,-53 4101.5447,-52.4114 4104.6315,-51.7146 4107.7283,-50.9339"/>
<polygon fill="#191970" stroke="#191970" points="3031.6314,-85.6553 3022.3565,-90.7765 3032.8007,-92.5569 3031.6314,-85.6553"/>
</g>
<!-- Node98 -->
<g id="node28" class="node">
<title>Node98</title>
<g id="a_node28"><a xlink:href="../../d7/d10/newCollections_8cxx.html" target="_top" xlink:title="/home/travis/build\l/AliceO2Group/AliceO2\l/Analysis/Tutorials/src\l/newCollections.cxx">
<polygon fill="none" stroke="#000000" points="4253,-.5 4253,-52.5 4380,-52.5 4380,-.5 4253,-.5"/>
<text text-anchor="start" x="4261" y="-40.5" font-family="Helvetica,sans-Serif" font-size="10.00" fill="#000000">/home/travis/build</text>
<text text-anchor="start" x="4261" y="-29.5" font-family="Helvetica,sans-Serif" font-size="10.00" fill="#000000">/AliceO2Group/AliceO2</text>
<text text-anchor="start" x="4261" y="-18.5" font-family="Helvetica,sans-Serif" font-size="10.00" fill="#000000">/Analysis/Tutorials/src</text>
<text text-anchor="middle" x="4316.5" y="-7.5" font-family="Helvetica,sans-Serif" font-size="10.00" fill="#000000">/newCollections.cxx</text>
</a>
</g>
</g>
<!-- Node72&#45;&gt;Node98 -->
<g id="edge27" class="edge">
<title>Node72&#45;&gt;Node98</title>
<path fill="none" stroke="#191970" d="M3032.6067,-89.0961C3313.9907,-45.4594 3982.9704,-103.6145 4244.5,-53 4247.2462,-52.4685 4250.0263,-51.8459 4252.8164,-51.1507"/>
<polygon fill="#191970" stroke="#191970" points="3031.6636,-85.7034 3022.3538,-90.761 3032.7856,-92.6129 3031.6636,-85.7034"/>
</g>
<!-- Node99 -->
<g id="node29" class="node">
<title>Node99</title>
<g id="a_node29"><a xlink:href="../../d3/d45/outputs_8cxx.html" target="_top" xlink:title="/home/travis/build\l/AliceO2Group/AliceO2\l/Analysis/Tutorials/src\l/outputs.cxx">
<polygon fill="none" stroke="#000000" points="4398,-.5 4398,-52.5 4525,-52.5 4525,-.5 4398,-.5"/>
<text text-anchor="start" x="4406" y="-40.5" font-family="Helvetica,sans-Serif" font-size="10.00" fill="#000000">/home/travis/build</text>
<text text-anchor="start" x="4406" y="-29.5" font-family="Helvetica,sans-Serif" font-size="10.00" fill="#000000">/AliceO2Group/AliceO2</text>
<text text-anchor="start" x="4406" y="-18.5" font-family="Helvetica,sans-Serif" font-size="10.00" fill="#000000">/Analysis/Tutorials/src</text>
<text text-anchor="middle" x="4461.5" y="-7.5" font-family="Helvetica,sans-Serif" font-size="10.00" fill="#000000">/outputs.cxx</text>
</a>
</g>
</g>
<!-- Node72&#45;&gt;Node99 -->
<g id="edge28" class="edge">
<title>Node72&#45;&gt;Node99</title>
<path fill="none" stroke="#191970" d="M3032.3985,-89.1265C3345.5873,-40.6087 4096.21,-109.2796 4389.5,-53 4392.247,-52.4729 4395.0279,-51.8539 4397.8185,-51.1617"/>
<polygon fill="#191970" stroke="#191970" points="3031.6659,-85.6993 3022.3518,-90.7488 3032.7819,-92.6098 3031.6659,-85.6993"/>
</g>
<!-- Node100 -->
<g id="node30" class="node">
<title>Node100</title>
<g id="a_node30"><a xlink:href="../../d4/ded/trackCollectionIteration_8cxx.html" target="_top" xlink:title="/home/travis/build\l/AliceO2Group/AliceO2\l/Analysis/Tutorials/src\l/trackCollectionIteration.cxx">
<polygon fill="none" stroke="#000000" points="4543,-.5 4543,-52.5 4698,-52.5 4698,-.5 4543,-.5"/>
<text text-anchor="start" x="4551" y="-40.5" font-family="Helvetica,sans-Serif" font-size="10.00" fill="#000000">/home/travis/build</text>
<text text-anchor="start" x="4551" y="-29.5" font-family="Helvetica,sans-Serif" font-size="10.00" fill="#000000">/AliceO2Group/AliceO2</text>
<text text-anchor="start" x="4551" y="-18.5" font-family="Helvetica,sans-Serif" font-size="10.00" fill="#000000">/Analysis/Tutorials/src</text>
<text text-anchor="middle" x="4620.5" y="-7.5" font-family="Helvetica,sans-Serif" font-size="10.00" fill="#000000">/trackCollectionIteration.cxx</text>
</a>
</g>
</g>
<!-- Node72&#45;&gt;Node100 -->
<g id="edge29" class="edge">
<title>Node72&#45;&gt;Node100</title>
<path fill="none" stroke="#191970" d="M3032.4171,-89.1192C3377.4999,-35.6035 4207.9681,-106.1739 4534.5,-53 4537.2756,-52.548 4540.0861,-52.0286 4542.9128,-51.4534"/>
<polygon fill="#191970" stroke="#191970" points="3031.6671,-85.6948 3022.3501,-90.7389 3032.7792,-92.6059 3031.6671,-85.6948"/>
</g>
<!-- Node101 -->
<g id="node31" class="node">
<title>Node101</title>
<g id="a_node31"><a xlink:href="../../db/d7e/trackIteration_8cxx.html" target="_top" xlink:title="/home/travis/build\l/AliceO2Group/AliceO2\l/Analysis/Tutorials/src\l/trackIteration.cxx">
<polygon fill="none" stroke="#000000" points="4716,-.5 4716,-52.5 4843,-52.5 4843,-.5 4716,-.5"/>
<text text-anchor="start" x="4724" y="-40.5" font-family="Helvetica,sans-Serif" font-size="10.00" fill="#000000">/home/travis/build</text>
<text text-anchor="start" x="4724" y="-29.5" font-family="Helvetica,sans-Serif" font-size="10.00" fill="#000000">/AliceO2Group/AliceO2</text>
<text text-anchor="start" x="4724" y="-18.5" font-family="Helvetica,sans-Serif" font-size="10.00" fill="#000000">/Analysis/Tutorials/src</text>
<text text-anchor="middle" x="4779.5" y="-7.5" font-family="Helvetica,sans-Serif" font-size="10.00" fill="#000000">/trackIteration.cxx</text>
</a>
</g>
</g>
<!-- Node72&#45;&gt;Node101 -->
<g id="edge30" class="edge">
<title>Node72&#45;&gt;Node101</title>
<path fill="none" stroke="#191970" d="M3032.4117,-89.1207C3415.5813,-29.988 4344.6863,-121.6755 4707.5,-53 4710.2484,-52.4798 4713.0303,-51.8666 4715.8218,-51.1792"/>
<polygon fill="#191970" stroke="#191970" points="3031.6706,-85.6946 3022.3486,-90.7294 3032.7757,-92.6068 3031.6706,-85.6946"/>
</g>
<!-- Node102 -->
<g id="node32" class="node">
<title>Node102</title>
<g id="a_node32"><a xlink:href="../../d0/da7/tracksCombinations_8cxx.html" target="_top" xlink:title="/home/travis/build\l/AliceO2Group/AliceO2\l/Analysis/Tutorials/src\l/tracksCombinations.cxx">
<polygon fill="none" stroke="#000000" points="4861,-.5 4861,-52.5 4998,-52.5 4998,-.5 4861,-.5"/>
<text text-anchor="start" x="4869" y="-40.5" font-family="Helvetica,sans-Serif" font-size="10.00" fill="#000000">/home/travis/build</text>
<text text-anchor="start" x="4869" y="-29.5" font-family="Helvetica,sans-Serif" font-size="10.00" fill="#000000">/AliceO2Group/AliceO2</text>
<text text-anchor="start" x="4869" y="-18.5" font-family="Helvetica,sans-Serif" font-size="10.00" fill="#000000">/Analysis/Tutorials/src</text>
<text text-anchor="middle" x="4929.5" y="-7.5" font-family="Helvetica,sans-Serif" font-size="10.00" fill="#000000">/tracksCombinations.cxx</text>
</a>
</g>
</g>
<!-- Node72&#45;&gt;Node102 -->
<g id="edge31" class="edge">
<title>Node72&#45;&gt;Node102</title>
<path fill="none" stroke="#191970" d="M3032.3412,-89.1292C3447.3464,-25.0504 4457.1901,-123.1441 4852.5,-53 4855.284,-52.506 4858.103,-51.9274 4860.9345,-51.2806"/>
<polygon fill="#191970" stroke="#191970" points="3031.6715,-85.6917 3022.3475,-90.7229 3032.7739,-92.6044 3031.6715,-85.6917"/>
</g>
<!-- Node103 -->
<g id="node33" class="node">
<title>Node103</title>
<g id="a_node33"><a xlink:href="../../d9/d09/test__AnalysisTask_8cxx.html" target="_top" xlink:title="/home/travis/build\l/AliceO2Group/AliceO2\l/Framework/Core/test/test\l_AnalysisTask.cxx">
<polygon fill="none" stroke="#000000" points="5016,-.5 5016,-52.5 5159,-52.5 5159,-.5 5016,-.5"/>
<text text-anchor="start" x="5024" y="-40.5" font-family="Helvetica,sans-Serif" font-size="10.00" fill="#000000">/home/travis/build</text>
<text text-anchor="start" x="5024" y="-29.5" font-family="Helvetica,sans-Serif" font-size="10.00" fill="#000000">/AliceO2Group/AliceO2</text>
<text text-anchor="start" x="5024" y="-18.5" font-family="Helvetica,sans-Serif" font-size="10.00" fill="#000000">/Framework/Core/test/test</text>
<text text-anchor="middle" x="5087.5" y="-7.5" font-family="Helvetica,sans-Serif" font-size="10.00" fill="#000000">_AnalysisTask.cxx</text>
</a>
</g>
</g>
<!-- Node72&#45;&gt;Node103 -->
<g id="edge32" class="edge">
<title>Node72&#45;&gt;Node103</title>
<path fill="none" stroke="#191970" d="M3032.5097,-89.1015C3481.6978,-19.8387 4577.8528,-126.3298 5007.5,-53 5010.2403,-52.5323 5013.0145,-51.9881 5015.8024,-51.3812"/>
<polygon fill="#191970" stroke="#191970" points="3031.6731,-85.6904 3022.3465,-90.7169 3032.772,-92.6036 3031.6731,-85.6904"/>
</g>
<!-- Node104 -->
<g id="node34" class="node">
<title>Node104</title>
<g id="a_node34"><a xlink:href="../../d2/d45/test__GroupSlicer_8cxx.html" target="_top" xlink:title="/home/travis/build\l/AliceO2Group/AliceO2\l/Framework/Core/test/test\l_GroupSlicer.cxx">
<polygon fill="none" stroke="#000000" points="5177,-.5 5177,-52.5 5320,-52.5 5320,-.5 5177,-.5"/>
<text text-anchor="start" x="5185" y="-40.5" font-family="Helvetica,sans-Serif" font-size="10.00" fill="#000000">/home/travis/build</text>
<text text-anchor="start" x="5185" y="-29.5" font-family="Helvetica,sans-Serif" font-size="10.00" fill="#000000">/AliceO2Group/AliceO2</text>
<text text-anchor="start" x="5185" y="-18.5" font-family="Helvetica,sans-Serif" font-size="10.00" fill="#000000">/Framework/Core/test/test</text>
<text text-anchor="middle" x="5248.5" y="-7.5" font-family="Helvetica,sans-Serif" font-size="10.00" fill="#000000">_GroupSlicer.cxx</text>
</a>
</g>
</g>
<!-- Node72&#45;&gt;Node104 -->
<g id="edge33" class="edge">
<title>Node72&#45;&gt;Node104</title>
<path fill="none" stroke="#191970" d="M3032.2481,-89.1406C3516.6687,-14.3881 4703.46,-132.0421 5168.5,-53 5171.2406,-52.5342 5174.0151,-51.9915 5176.8033,-51.386"/>
<polygon fill="#191970" stroke="#191970" points="3031.6737,-85.6879 3022.3456,-90.7116 3032.7706,-92.6014 3031.6737,-85.6879"/>
</g>
<!-- Node105 -->
<g id="node35" class="node">
<title>Node105</title>
<g id="a_node35"><a xlink:href="../../d1/d61/o2AnalysisTaskExample_8cxx.html" target="_top" xlink:title="/home/travis/build\l/AliceO2Group/AliceO2\l/Framework/TestWorkflows\l/src/o2AnalysisTaskExample.cxx">
<polygon fill="none" stroke="#000000" points="5338,-.5 5338,-52.5 5513,-52.5 5513,-.5 5338,-.5"/>
<text text-anchor="start" x="5346" y="-40.5" font-family="Helvetica,sans-Serif" font-size="10.00" fill="#000000">/home/travis/build</text>
<text text-anchor="start" x="5346" y="-29.5" font-family="Helvetica,sans-Serif" font-size="10.00" fill="#000000">/AliceO2Group/AliceO2</text>
<text text-anchor="start" x="5346" y="-18.5" font-family="Helvetica,sans-Serif" font-size="10.00" fill="#000000">/Framework/TestWorkflows</text>
<text text-anchor="middle" x="5425.5" y="-7.5" font-family="Helvetica,sans-Serif" font-size="10.00" fill="#000000">/src/o2AnalysisTaskExample.cxx</text>
</a>
</g>
</g>
<!-- Node72&#45;&gt;Node105 -->
<g id="edge34" class="edge">
<title>Node72&#45;&gt;Node105</title>
<path fill="none" stroke="#191970" d="M3032.5964,-89.0841C3552.6049,-8.8645 4827.2799,-125.0545 5329.5,-53 5332.2384,-52.6071 5335.0094,-52.1598 5337.7984,-51.6665"/>
<polygon fill="#191970" stroke="#191970" points="3031.6746,-85.6864 3022.3449,-90.7071 3032.7692,-92.6003 3031.6746,-85.6864"/>
</g>
</g>
</svg>
