<?xml version="1.0" encoding="UTF-8" standalone="no"?>
<!DOCTYPE svg PUBLIC "-//W3C//DTD SVG 1.1//EN"
 "http://www.w3.org/Graphics/SVG/1.1/DTD/svg11.dtd">
<!-- Generated by graphviz version 2.40.1 (20161225.0304)
 -->
<!-- Title: /home/travis/build/AliceO2Group/AliceO2/DataFormats/Detectors/EMCAL/include/DataFormatsEMCAL/TriggerRecord.h Pages: 1 -->
<svg width="2122pt" height="361pt"
 viewBox="0.00 0.00 2122.45 361.00" xmlns="http://www.w3.org/2000/svg" xmlns:xlink="http://www.w3.org/1999/xlink">
<g id="graph0" class="graph" transform="scale(1 1) rotate(0) translate(4 357)">
<title>/home/travis/build/AliceO2Group/AliceO2/DataFormats/Detectors/EMCAL/include/DataFormatsEMCAL/TriggerRecord.h</title>
<!-- Node9 -->
<g id="node1" class="node">
<title>Node9</title>
<polygon fill="#bfbfbf" stroke="#000000" points="809.4524,-289.5 809.4524,-352.5 999.4524,-352.5 999.4524,-289.5 809.4524,-289.5"/>
<text text-anchor="start" x="817.4524" y="-340.5" font-family="Helvetica,sans-Serif" font-size="10.00" fill="#000000">/home/travis/build</text>
<text text-anchor="start" x="817.4524" y="-329.5" font-family="Helvetica,sans-Serif" font-size="10.00" fill="#000000">/AliceO2Group/AliceO2</text>
<text text-anchor="start" x="817.4524" y="-318.5" font-family="Helvetica,sans-Serif" font-size="10.00" fill="#000000">/DataFormats/Detectors</text>
<text text-anchor="start" x="817.4524" y="-307.5" font-family="Helvetica,sans-Serif" font-size="10.00" fill="#000000">/EMCAL/include/DataFormatsEMCAL</text>
<text text-anchor="middle" x="904.4524" y="-296.5" font-family="Helvetica,sans-Serif" font-size="10.00" fill="#000000">/TriggerRecord.h</text>
</g>
<!-- Node10 -->
<g id="node2" class="node">
<title>Node10</title>
<g id="a_node2"><a xlink:href="../../da/dcc/EventHandler_8h.html" target="_top" xlink:title="/home/travis/build\l/AliceO2Group/AliceO2\l/DataFormats/Detectors\l/EMCAL/include/DataFormatsEMCAL\l/EventHandler.h">
<polygon fill="none" stroke="#000000" points="95.4524,-189.5 95.4524,-252.5 285.4524,-252.5 285.4524,-189.5 95.4524,-189.5"/>
<text text-anchor="start" x="103.4524" y="-240.5" font-family="Helvetica,sans-Serif" font-size="10.00" fill="#000000">/home/travis/build</text>
<text text-anchor="start" x="103.4524" y="-229.5" font-family="Helvetica,sans-Serif" font-size="10.00" fill="#000000">/AliceO2Group/AliceO2</text>
<text text-anchor="start" x="103.4524" y="-218.5" font-family="Helvetica,sans-Serif" font-size="10.00" fill="#000000">/DataFormats/Detectors</text>
<text text-anchor="start" x="103.4524" y="-207.5" font-family="Helvetica,sans-Serif" font-size="10.00" fill="#000000">/EMCAL/include/DataFormatsEMCAL</text>
<text text-anchor="middle" x="190.4524" y="-196.5" font-family="Helvetica,sans-Serif" font-size="10.00" fill="#000000">/EventHandler.h</text>
</a>
</g>
</g>
<!-- Node9&#45;&gt;Node10 -->
<g id="edge1" class="edge">
<title>Node9&#45;&gt;Node10</title>
<path fill="none" stroke="#191970" d="M799.3157,-314.7399C677.9551,-306.2341 472.798,-287.9117 299.4524,-253 294.9089,-252.0849 290.281,-251.0682 285.6226,-249.9762"/>
<polygon fill="#191970" stroke="#191970" points="799.1319,-318.2355 809.3496,-315.4341 799.6151,-311.2522 799.1319,-318.2355"/>
</g>
<!-- Node12 -->
<g id="node4" class="node">
<title>Node12</title>
<g id="a_node4"><a xlink:href="../../d3/dd3/AnalysisClusterSpec_8h.html" target="_top" xlink:title="/home/travis/build\l/AliceO2Group/AliceO2\l/Detectors/EMCAL/workflow\l/include/EMCALWorkflow/AnalysisCluster\lSpec.h">
<polygon fill="none" stroke="#000000" points="204.4524,-89.5 204.4524,-152.5 418.4524,-152.5 418.4524,-89.5 204.4524,-89.5"/>
<text text-anchor="start" x="212.4524" y="-140.5" font-family="Helvetica,sans-Serif" font-size="10.00" fill="#000000">/home/travis/build</text>
<text text-anchor="start" x="212.4524" y="-129.5" font-family="Helvetica,sans-Serif" font-size="10.00" fill="#000000">/AliceO2Group/AliceO2</text>
<text text-anchor="start" x="212.4524" y="-118.5" font-family="Helvetica,sans-Serif" font-size="10.00" fill="#000000">/Detectors/EMCAL/workflow</text>
<text text-anchor="start" x="212.4524" y="-107.5" font-family="Helvetica,sans-Serif" font-size="10.00" fill="#000000">/include/EMCALWorkflow/AnalysisCluster</text>
<text text-anchor="middle" x="311.4524" y="-96.5" font-family="Helvetica,sans-Serif" font-size="10.00" fill="#000000">Spec.h</text>
</a>
</g>
</g>
<!-- Node9&#45;&gt;Node12 -->
<g id="edge13" class="edge">
<title>Node9&#45;&gt;Node12</title>
<path fill="none" stroke="#191970" d="M799.3439,-315.2361C643.6531,-305.7002 366.467,-284.5103 333.4524,-253 306.7301,-227.4953 304.7152,-182.7522 307.0249,-152.5071"/>
<polygon fill="#191970" stroke="#191970" points="799.2257,-318.7353 809.4194,-315.8474 799.6497,-311.7481 799.2257,-318.7353"/>
</g>
<!-- Node13 -->
<g id="node5" class="node">
<title>Node13</title>
<g id="a_node5"><a xlink:href="../../d2/d75/AnalysisClusterSpec_8cxx.html" target="_top" xlink:title="/home/travis/build\l/AliceO2Group/AliceO2\l/Detectors/EMCAL/workflow\l/src/AnalysisClusterSpec.cxx">
<polygon fill="none" stroke="#000000" points="146.4524,-.5 146.4524,-52.5 302.4524,-52.5 302.4524,-.5 146.4524,-.5"/>
<text text-anchor="start" x="154.4524" y="-40.5" font-family="Helvetica,sans-Serif" font-size="10.00" fill="#000000">/home/travis/build</text>
<text text-anchor="start" x="154.4524" y="-29.5" font-family="Helvetica,sans-Serif" font-size="10.00" fill="#000000">/AliceO2Group/AliceO2</text>
<text text-anchor="start" x="154.4524" y="-18.5" font-family="Helvetica,sans-Serif" font-size="10.00" fill="#000000">/Detectors/EMCAL/workflow</text>
<text text-anchor="middle" x="224.4524" y="-7.5" font-family="Helvetica,sans-Serif" font-size="10.00" fill="#000000">/src/AnalysisClusterSpec.cxx</text>
</a>
</g>
</g>
<!-- Node9&#45;&gt;Node13 -->
<g id="edge23" class="edge">
<title>Node9&#45;&gt;Node13</title>
<path fill="none" stroke="#191970" d="M798.889,-317.3122C591.6548,-309.3373 146.4701,-288.3038 86.4524,-253 18.5859,-213.0795 -27.4068,-152.275 19.4524,-89 35.0082,-67.9946 95.2376,-51.2201 146.4188,-40.3596"/>
<polygon fill="#191970" stroke="#191970" points="799.0518,-320.8208 809.178,-317.7049 799.3188,-313.8259 799.0518,-320.8208"/>
</g>
<!-- Node15 -->
<g id="node7" class="node">
<title>Node15</title>
<g id="a_node7"><a xlink:href="../../d0/d2b/EMCAL_2src_2TriggerRecord_8cxx.html" target="_top" xlink:title="/home/travis/build\l/AliceO2Group/AliceO2\l/DataFormats/Detectors\l/EMCAL/src/TriggerRecord.cxx">
<polygon fill="none" stroke="#000000" points="1013.9524,-195 1013.9524,-247 1172.9524,-247 1172.9524,-195 1013.9524,-195"/>
<text text-anchor="start" x="1021.9524" y="-235" font-family="Helvetica,sans-Serif" font-size="10.00" fill="#000000">/home/travis/build</text>
<text text-anchor="start" x="1021.9524" y="-224" font-family="Helvetica,sans-Serif" font-size="10.00" fill="#000000">/AliceO2Group/AliceO2</text>
<text text-anchor="start" x="1021.9524" y="-213" font-family="Helvetica,sans-Serif" font-size="10.00" fill="#000000">/DataFormats/Detectors</text>
<text text-anchor="middle" x="1093.4524" y="-202" font-family="Helvetica,sans-Serif" font-size="10.00" fill="#000000">/EMCAL/src/TriggerRecord.cxx</text>
</a>
</g>
</g>
<!-- Node9&#45;&gt;Node15 -->
<g id="edge6" class="edge">
<title>Node9&#45;&gt;Node15</title>
<path fill="none" stroke="#191970" d="M972.8871,-284.7911C996.4261,-272.3367 1022.3057,-258.6437 1044.033,-247.1478"/>
<polygon fill="#191970" stroke="#191970" points="971.1959,-281.7262 963.9937,-289.4966 974.4696,-287.9135 971.1959,-281.7262"/>
</g>
<!-- Node16 -->
<g id="node8" class="node">
<title>Node16</title>
<g id="a_node8"><a xlink:href="../../d1/dff/DigitReader_8h.html" target="_top" xlink:title="Definition of EMCAL cell/digit reader. ">
<polygon fill="none" stroke="#000000" points="1190.4524,-189.5 1190.4524,-252.5 1366.4524,-252.5 1366.4524,-189.5 1190.4524,-189.5"/>
<text text-anchor="start" x="1198.4524" y="-240.5" font-family="Helvetica,sans-Serif" font-size="10.00" fill="#000000">/home/travis/build</text>
<text text-anchor="start" x="1198.4524" y="-229.5" font-family="Helvetica,sans-Serif" font-size="10.00" fill="#000000">/AliceO2Group/AliceO2</text>
<text text-anchor="start" x="1198.4524" y="-218.5" font-family="Helvetica,sans-Serif" font-size="10.00" fill="#000000">/Detectors/EMCAL/reconstruction</text>
<text text-anchor="start" x="1198.4524" y="-207.5" font-family="Helvetica,sans-Serif" font-size="10.00" fill="#000000">/include/EMCALReconstruction</text>
<text text-anchor="middle" x="1278.4524" y="-196.5" font-family="Helvetica,sans-Serif" font-size="10.00" fill="#000000">/DigitReader.h</text>
</a>
</g>
</g>
<!-- Node9&#45;&gt;Node16 -->
<g id="edge7" class="edge">
<title>Node9&#45;&gt;Node16</title>
<path fill="none" stroke="#191970" d="M1009.4875,-297.4499C1061.748,-285.1901 1125.7173,-269.3649 1182.4524,-253 1185.0688,-252.2453 1187.7203,-251.4647 1190.393,-250.6641"/>
<polygon fill="#191970" stroke="#191970" points="1008.4757,-294.092 999.5341,-299.7751 1010.0681,-300.9085 1008.4757,-294.092"/>
</g>
<!-- Node20 -->
<g id="node12" class="node">
<title>Node20</title>
<g id="a_node12"><a xlink:href="../../df/da7/RawWriter_8h.html" target="_top" xlink:title="/home/travis/build\l/AliceO2Group/AliceO2\l/Detectors/EMCAL/simulation\l/include/EMCALSimulation/RawWriter.h">
<polygon fill="none" stroke="#000000" points="1383.9524,-195 1383.9524,-247 1588.9524,-247 1588.9524,-195 1383.9524,-195"/>
<text text-anchor="start" x="1391.9524" y="-235" font-family="Helvetica,sans-Serif" font-size="10.00" fill="#000000">/home/travis/build</text>
<text text-anchor="start" x="1391.9524" y="-224" font-family="Helvetica,sans-Serif" font-size="10.00" fill="#000000">/AliceO2Group/AliceO2</text>
<text text-anchor="start" x="1391.9524" y="-213" font-family="Helvetica,sans-Serif" font-size="10.00" fill="#000000">/Detectors/EMCAL/simulation</text>
<text text-anchor="middle" x="1486.4524" y="-202" font-family="Helvetica,sans-Serif" font-size="10.00" fill="#000000">/include/EMCALSimulation/RawWriter.h</text>
</a>
</g>
</g>
<!-- Node9&#45;&gt;Node20 -->
<g id="edge11" class="edge">
<title>Node9&#45;&gt;Node20</title>
<path fill="none" stroke="#191970" d="M1009.8565,-309.9793C1105.7989,-298.9564 1251.0299,-279.7839 1375.4524,-253 1383.5891,-251.2484 1392.0047,-249.2238 1400.3951,-247.0607"/>
<polygon fill="#191970" stroke="#191970" points="1009.398,-306.5088 999.8588,-311.1189 1010.1908,-313.4638 1009.398,-306.5088"/>
</g>
<!-- Node22 -->
<g id="node14" class="node">
<title>Node22</title>
<g id="a_node14"><a xlink:href="../../d3/ddf/EMCAL_2workflow_2include_2EMCALWorkflow_2CellConverterSpec_8h.html" target="_top" xlink:title="/home/travis/build\l/AliceO2Group/AliceO2\l/Detectors/EMCAL/workflow\l/include/EMCALWorkflow/CellConverter\lSpec.h">
<polygon fill="none" stroke="#000000" points="341.9524,-189.5 341.9524,-252.5 546.9524,-252.5 546.9524,-189.5 341.9524,-189.5"/>
<text text-anchor="start" x="349.9524" y="-240.5" font-family="Helvetica,sans-Serif" font-size="10.00" fill="#000000">/home/travis/build</text>
<text text-anchor="start" x="349.9524" y="-229.5" font-family="Helvetica,sans-Serif" font-size="10.00" fill="#000000">/AliceO2Group/AliceO2</text>
<text text-anchor="start" x="349.9524" y="-218.5" font-family="Helvetica,sans-Serif" font-size="10.00" fill="#000000">/Detectors/EMCAL/workflow</text>
<text text-anchor="start" x="349.9524" y="-207.5" font-family="Helvetica,sans-Serif" font-size="10.00" fill="#000000">/include/EMCALWorkflow/CellConverter</text>
<text text-anchor="middle" x="444.4524" y="-196.5" font-family="Helvetica,sans-Serif" font-size="10.00" fill="#000000">Spec.h</text>
</a>
</g>
</g>
<!-- Node9&#45;&gt;Node22 -->
<g id="edge14" class="edge">
<title>Node9&#45;&gt;Node22</title>
<path fill="none" stroke="#191970" d="M799.399,-302.8852C730.0879,-290.3418 637.4667,-272.4512 556.4524,-253 553.4045,-252.2682 550.3151,-251.5077 547.2004,-250.7247"/>
<polygon fill="#191970" stroke="#191970" points="798.9897,-306.3678 809.4519,-304.6967 800.2311,-299.4787 798.9897,-306.3678"/>
</g>
<!-- Node24 -->
<g id="node16" class="node">
<title>Node24</title>
<g id="a_node16"><a xlink:href="../../d2/dd1/EMCAL_2workflow_2include_2EMCALWorkflow_2ClusterizerSpec_8h.html" target="_top" xlink:title="/home/travis/build\l/AliceO2Group/AliceO2\l/Detectors/EMCAL/workflow\l/include/EMCALWorkflow/Clusterizer\lSpec.h">
<polygon fill="none" stroke="#000000" points="564.9524,-189.5 564.9524,-252.5 755.9524,-252.5 755.9524,-189.5 564.9524,-189.5"/>
<text text-anchor="start" x="572.9524" y="-240.5" font-family="Helvetica,sans-Serif" font-size="10.00" fill="#000000">/home/travis/build</text>
<text text-anchor="start" x="572.9524" y="-229.5" font-family="Helvetica,sans-Serif" font-size="10.00" fill="#000000">/AliceO2Group/AliceO2</text>
<text text-anchor="start" x="572.9524" y="-218.5" font-family="Helvetica,sans-Serif" font-size="10.00" fill="#000000">/Detectors/EMCAL/workflow</text>
<text text-anchor="start" x="572.9524" y="-207.5" font-family="Helvetica,sans-Serif" font-size="10.00" fill="#000000">/include/EMCALWorkflow/Clusterizer</text>
<text text-anchor="middle" x="660.4524" y="-196.5" font-family="Helvetica,sans-Serif" font-size="10.00" fill="#000000">Spec.h</text>
</a>
</g>
</g>
<!-- Node9&#45;&gt;Node24 -->
<g id="edge17" class="edge">
<title>Node9&#45;&gt;Node24</title>
<path fill="none" stroke="#191970" d="M818.0122,-285.5737C791.7068,-274.7928 762.9846,-263.0214 737.3533,-252.5168"/>
<polygon fill="#191970" stroke="#191970" points="817.0038,-288.9429 827.5842,-289.4966 819.6584,-282.4658 817.0038,-288.9429"/>
</g>
<!-- Node25 -->
<g id="node17" class="node">
<title>Node25</title>
<g id="a_node17"><a xlink:href="../../d7/d67/EMCAL_2workflow_2src_2ClusterizerSpec_8cxx.html" target="_top" xlink:title="/home/travis/build\l/AliceO2Group/AliceO2\l/Detectors/EMCAL/workflow\l/src/ClusterizerSpec.cxx">
<polygon fill="none" stroke="#000000" points="680.4524,-95 680.4524,-147 830.4524,-147 830.4524,-95 680.4524,-95"/>
<text text-anchor="start" x="688.4524" y="-135" font-family="Helvetica,sans-Serif" font-size="10.00" fill="#000000">/home/travis/build</text>
<text text-anchor="start" x="688.4524" y="-124" font-family="Helvetica,sans-Serif" font-size="10.00" fill="#000000">/AliceO2Group/AliceO2</text>
<text text-anchor="start" x="688.4524" y="-113" font-family="Helvetica,sans-Serif" font-size="10.00" fill="#000000">/Detectors/EMCAL/workflow</text>
<text text-anchor="middle" x="755.4524" y="-102" font-family="Helvetica,sans-Serif" font-size="10.00" fill="#000000">/src/ClusterizerSpec.cxx</text>
</a>
</g>
</g>
<!-- Node9&#45;&gt;Node25 -->
<g id="edge24" class="edge">
<title>Node9&#45;&gt;Node25</title>
<path fill="none" stroke="#191970" d="M836.8727,-283.591C824.9233,-274.7386 813.4467,-264.4812 804.4524,-253 779.5789,-221.2491 766.4133,-175.5916 760.1963,-147.1439"/>
<polygon fill="#191970" stroke="#191970" points="835.0143,-286.5638 845.1962,-289.4929 839.0632,-280.8536 835.0143,-286.5638"/>
</g>
<!-- Node26 -->
<g id="node18" class="node">
<title>Node26</title>
<g id="a_node18"><a xlink:href="../../d2/d55/EMCAL_2workflow_2include_2EMCALWorkflow_2PublisherSpec_8h.html" target="_top" xlink:title="/home/travis/build\l/AliceO2Group/AliceO2\l/Detectors/EMCAL/workflow\l/include/EMCALWorkflow/Publisher\lSpec.h">
<polygon fill="none" stroke="#000000" points="812.9524,-189.5 812.9524,-252.5 995.9524,-252.5 995.9524,-189.5 812.9524,-189.5"/>
<text text-anchor="start" x="820.9524" y="-240.5" font-family="Helvetica,sans-Serif" font-size="10.00" fill="#000000">/home/travis/build</text>
<text text-anchor="start" x="820.9524" y="-229.5" font-family="Helvetica,sans-Serif" font-size="10.00" fill="#000000">/AliceO2Group/AliceO2</text>
<text text-anchor="start" x="820.9524" y="-218.5" font-family="Helvetica,sans-Serif" font-size="10.00" fill="#000000">/Detectors/EMCAL/workflow</text>
<text text-anchor="start" x="820.9524" y="-207.5" font-family="Helvetica,sans-Serif" font-size="10.00" fill="#000000">/include/EMCALWorkflow/Publisher</text>
<text text-anchor="middle" x="904.4524" y="-196.5" font-family="Helvetica,sans-Serif" font-size="10.00" fill="#000000">Spec.h</text>
</a>
</g>
</g>
<!-- Node9&#45;&gt;Node26 -->
<g id="edge20" class="edge">
<title>Node9&#45;&gt;Node26</title>
<path fill="none" stroke="#191970" d="M904.4524,-279.2111C904.4524,-270.37 904.4524,-261.1767 904.4524,-252.778"/>
<polygon fill="#191970" stroke="#191970" points="900.9525,-279.3593 904.4524,-289.3594 907.9525,-279.3594 900.9525,-279.3593"/>
</g>
<!-- Node28 -->
<g id="node20" class="node">
<title>Node28</title>
<g id="a_node20"><a xlink:href="../../db/dd5/EMCAL_2workflow_2src_2DigitsPrinterSpec_8cxx.html" target="_top" xlink:title="/home/travis/build\l/AliceO2Group/AliceO2\l/Detectors/EMCAL/workflow\l/src/DigitsPrinterSpec.cxx">
<polygon fill="none" stroke="#000000" points="1606.4524,-195 1606.4524,-247 1756.4524,-247 1756.4524,-195 1606.4524,-195"/>
<text text-anchor="start" x="1614.4524" y="-235" font-family="Helvetica,sans-Serif" font-size="10.00" fill="#000000">/home/travis/build</text>
<text text-anchor="start" x="1614.4524" y="-224" font-family="Helvetica,sans-Serif" font-size="10.00" fill="#000000">/AliceO2Group/AliceO2</text>
<text text-anchor="start" x="1614.4524" y="-213" font-family="Helvetica,sans-Serif" font-size="10.00" fill="#000000">/Detectors/EMCAL/workflow</text>
<text text-anchor="middle" x="1681.4524" y="-202" font-family="Helvetica,sans-Serif" font-size="10.00" fill="#000000">/src/DigitsPrinterSpec.cxx</text>
</a>
</g>
</g>
<!-- Node9&#45;&gt;Node28 -->
<g id="edge25" class="edge">
<title>Node9&#45;&gt;Node28</title>
<path fill="none" stroke="#191970" d="M1009.8403,-314.1723C1175.5782,-302.844 1489.4896,-278.8379 1598.4524,-253 1605.2145,-251.3965 1612.1639,-249.368 1619.0258,-247.1134"/>
<polygon fill="#191970" stroke="#191970" points="1009.3675,-310.6963 999.6282,-314.8671 1009.8427,-317.6801 1009.3675,-310.6963"/>
</g>
<!-- Node29 -->
<g id="node21" class="node">
<title>Node29</title>
<g id="a_node21"><a xlink:href="../../d5/d9b/EMCALDigitizerSpec_8cxx.html" target="_top" xlink:title="/home/travis/build\l/AliceO2Group/AliceO2\l/Steer/DigitizerWorkflow\l/src/EMCALDigitizerSpec.cxx">
<polygon fill="none" stroke="#000000" points="1774.9524,-195 1774.9524,-247 1929.9524,-247 1929.9524,-195 1774.9524,-195"/>
<text text-anchor="start" x="1782.9524" y="-235" font-family="Helvetica,sans-Serif" font-size="10.00" fill="#000000">/home/travis/build</text>
<text text-anchor="start" x="1782.9524" y="-224" font-family="Helvetica,sans-Serif" font-size="10.00" fill="#000000">/AliceO2Group/AliceO2</text>
<text text-anchor="start" x="1782.9524" y="-213" font-family="Helvetica,sans-Serif" font-size="10.00" fill="#000000">/Steer/DigitizerWorkflow</text>
<text text-anchor="middle" x="1852.4524" y="-202" font-family="Helvetica,sans-Serif" font-size="10.00" fill="#000000">/src/EMCALDigitizerSpec.cxx</text>
</a>
</g>
</g>
<!-- Node9&#45;&gt;Node29 -->
<g id="edge26" class="edge">
<title>Node9&#45;&gt;Node29</title>
<path fill="none" stroke="#191970" d="M1009.8574,-316.2822C1206.9628,-306.8632 1624.183,-283.9439 1765.4524,-253 1772.6839,-251.416 1780.1257,-249.368 1787.4685,-247.074"/>
<polygon fill="#191970" stroke="#191970" points="1009.601,-312.7903 999.7785,-316.7612 1009.9334,-319.7824 1009.601,-312.7903"/>
</g>
<!-- Node30 -->
<g id="node22" class="node">
<title>Node30</title>
<g id="a_node22"><a xlink:href="../../d9/db2/EMCALDigitWriterSpec_8cxx.html" target="_top" xlink:title="/home/travis/build\l/AliceO2Group/AliceO2\l/Steer/DigitizerWorkflow\l/src/EMCALDigitWriterSpec.cxx">
<polygon fill="none" stroke="#000000" points="1948.4524,-195 1948.4524,-247 2114.4524,-247 2114.4524,-195 1948.4524,-195"/>
<text text-anchor="start" x="1956.4524" y="-235" font-family="Helvetica,sans-Serif" font-size="10.00" fill="#000000">/home/travis/build</text>
<text text-anchor="start" x="1956.4524" y="-224" font-family="Helvetica,sans-Serif" font-size="10.00" fill="#000000">/AliceO2Group/AliceO2</text>
<text text-anchor="start" x="1956.4524" y="-213" font-family="Helvetica,sans-Serif" font-size="10.00" fill="#000000">/Steer/DigitizerWorkflow</text>
<text text-anchor="middle" x="2031.4524" y="-202" font-family="Helvetica,sans-Serif" font-size="10.00" fill="#000000">/src/EMCALDigitWriterSpec.cxx</text>
</a>
</g>
</g>
<!-- Node9&#45;&gt;Node30 -->
<g id="edge27" class="edge">
<title>Node9&#45;&gt;Node30</title>
<path fill="none" stroke="#191970" d="M1010.0374,-317.6653C1236.8031,-309.9161 1764.015,-288.5942 1939.4524,-253 1947.2418,-251.4196 1955.272,-249.3409 1963.1921,-247.0002"/>
<polygon fill="#191970" stroke="#191970" points="1009.6724,-314.1756 999.797,-318.013 1009.91,-321.1716 1009.6724,-314.1756"/>
</g>
<!-- Node11 -->
<g id="node3" class="node">
<title>Node11</title>
<g id="a_node3"><a xlink:href="../../d7/d53/EventHandler_8cxx.html" target="_top" xlink:title="/home/travis/build\l/AliceO2Group/AliceO2\l/DataFormats/Detectors\l/EMCAL/src/EventHandler.cxx">
<polygon fill="none" stroke="#000000" points="28.4524,-95 28.4524,-147 186.4524,-147 186.4524,-95 28.4524,-95"/>
<text text-anchor="start" x="36.4524" y="-135" font-family="Helvetica,sans-Serif" font-size="10.00" fill="#000000">/home/travis/build</text>
<text text-anchor="start" x="36.4524" y="-124" font-family="Helvetica,sans-Serif" font-size="10.00" fill="#000000">/AliceO2Group/AliceO2</text>
<text text-anchor="start" x="36.4524" y="-113" font-family="Helvetica,sans-Serif" font-size="10.00" fill="#000000">/DataFormats/Detectors</text>
<text text-anchor="middle" x="107.4524" y="-102" font-family="Helvetica,sans-Serif" font-size="10.00" fill="#000000">/EMCAL/src/EventHandler.cxx</text>
</a>
</g>
</g>
<!-- Node10&#45;&gt;Node11 -->
<g id="edge2" class="edge">
<title>Node10&#45;&gt;Node11</title>
<path fill="none" stroke="#191970" d="M157.6746,-181.5088C148.0733,-169.9409 137.8197,-157.5871 129.0971,-147.078"/>
<polygon fill="#191970" stroke="#191970" points="155.1107,-183.8999 164.1907,-189.3594 160.4971,-179.4292 155.1107,-183.8999"/>
</g>
<!-- Node10&#45;&gt;Node12 -->
<g id="edge3" class="edge">
<title>Node10&#45;&gt;Node12</title>
<path fill="none" stroke="#191970" d="M236.5114,-182.9347C248.5518,-172.9839 261.4026,-162.3634 273.001,-152.778"/>
<polygon fill="#191970" stroke="#191970" points="234.2161,-180.291 228.7375,-189.3594 238.6755,-185.6868 234.2161,-180.291"/>
</g>
<!-- Node12&#45;&gt;Node13 -->
<g id="edge4" class="edge">
<title>Node12&#45;&gt;Node13</title>
<path fill="none" stroke="#191970" d="M275.4213,-81.8628C266.3544,-72.0143 256.8412,-61.681 248.5216,-52.6442"/>
<polygon fill="#191970" stroke="#191970" points="272.8925,-84.2836 282.2406,-89.27 278.0424,-79.5424 272.8925,-84.2836"/>
</g>
<!-- Node14 -->
<g id="node6" class="node">
<title>Node14</title>
<g id="a_node6"><a xlink:href="../../d2/dbf/EMCAL_2workflow_2src_2RecoWorkflow_8cxx.html" target="_top" xlink:title="/home/travis/build\l/AliceO2Group/AliceO2\l/Detectors/EMCAL/workflow\l/src/RecoWorkflow.cxx">
<polygon fill="none" stroke="#000000" points="457.4524,-.5 457.4524,-52.5 607.4524,-52.5 607.4524,-.5 457.4524,-.5"/>
<text text-anchor="start" x="465.4524" y="-40.5" font-family="Helvetica,sans-Serif" font-size="10.00" fill="#000000">/home/travis/build</text>
<text text-anchor="start" x="465.4524" y="-29.5" font-family="Helvetica,sans-Serif" font-size="10.00" fill="#000000">/AliceO2Group/AliceO2</text>
<text text-anchor="start" x="465.4524" y="-18.5" font-family="Helvetica,sans-Serif" font-size="10.00" fill="#000000">/Detectors/EMCAL/workflow</text>
<text text-anchor="middle" x="532.4524" y="-7.5" font-family="Helvetica,sans-Serif" font-size="10.00" fill="#000000">/src/RecoWorkflow.cxx</text>
</a>
</g>
</g>
<!-- Node12&#45;&gt;Node14 -->
<g id="edge5" class="edge">
<title>Node12&#45;&gt;Node14</title>
<path fill="none" stroke="#191970" d="M394.6468,-85.4259C420.167,-74.5134 447.7603,-62.7145 471.5039,-52.5617"/>
<polygon fill="#191970" stroke="#191970" points="393.168,-82.2516 385.3494,-89.4015 395.9202,-88.6879 393.168,-82.2516"/>
</g>
<!-- Node17 -->
<g id="node9" class="node">
<title>Node17</title>
<g id="a_node9"><a xlink:href="../../d8/dc0/ClusterizerTask_8h.html" target="_top" xlink:title="Definition of the EMCAL clusterizer task. ">
<polygon fill="none" stroke="#000000" points="1054.4524,-89.5 1054.4524,-152.5 1230.4524,-152.5 1230.4524,-89.5 1054.4524,-89.5"/>
<text text-anchor="start" x="1062.4524" y="-140.5" font-family="Helvetica,sans-Serif" font-size="10.00" fill="#000000">/home/travis/build</text>
<text text-anchor="start" x="1062.4524" y="-129.5" font-family="Helvetica,sans-Serif" font-size="10.00" fill="#000000">/AliceO2Group/AliceO2</text>
<text text-anchor="start" x="1062.4524" y="-118.5" font-family="Helvetica,sans-Serif" font-size="10.00" fill="#000000">/Detectors/EMCAL/reconstruction</text>
<text text-anchor="start" x="1062.4524" y="-107.5" font-family="Helvetica,sans-Serif" font-size="10.00" fill="#000000">/include/EMCALReconstruction</text>
<text text-anchor="middle" x="1142.4524" y="-96.5" font-family="Helvetica,sans-Serif" font-size="10.00" fill="#000000">/ClusterizerTask.h</text>
</a>
</g>
</g>
<!-- Node16&#45;&gt;Node17 -->
<g id="edge8" class="edge">
<title>Node16&#45;&gt;Node17</title>
<path fill="none" stroke="#191970" d="M1227.0699,-183.2188C1213.4258,-173.1863 1198.8308,-162.4547 1185.6705,-152.778"/>
<polygon fill="#191970" stroke="#191970" points="1225.2912,-186.2552 1235.4211,-189.3594 1229.438,-180.6156 1225.2912,-186.2552"/>
</g>
<!-- Node19 -->
<g id="node11" class="node">
<title>Node19</title>
<g id="a_node11"><a xlink:href="../../dc/dda/DigitReader_8cxx.html" target="_top" xlink:title="Implementation of EMCAL cell/digit reader. ">
<polygon fill="none" stroke="#000000" points="1248.4524,-95 1248.4524,-147 1424.4524,-147 1424.4524,-95 1248.4524,-95"/>
<text text-anchor="start" x="1256.4524" y="-135" font-family="Helvetica,sans-Serif" font-size="10.00" fill="#000000">/home/travis/build</text>
<text text-anchor="start" x="1256.4524" y="-124" font-family="Helvetica,sans-Serif" font-size="10.00" fill="#000000">/AliceO2Group/AliceO2</text>
<text text-anchor="start" x="1256.4524" y="-113" font-family="Helvetica,sans-Serif" font-size="10.00" fill="#000000">/Detectors/EMCAL/reconstruction</text>
<text text-anchor="middle" x="1336.4524" y="-102" font-family="Helvetica,sans-Serif" font-size="10.00" fill="#000000">/src/DigitReader.cxx</text>
</a>
</g>
</g>
<!-- Node16&#45;&gt;Node19 -->
<g id="edge10" class="edge">
<title>Node16&#45;&gt;Node19</title>
<path fill="none" stroke="#191970" d="M1301.939,-180.5058C1308.4791,-169.2297 1315.4077,-157.284 1321.3271,-147.078"/>
<polygon fill="#191970" stroke="#191970" points="1298.7935,-178.953 1296.8039,-189.3594 1304.8488,-182.4651 1298.7935,-178.953"/>
</g>
<!-- Node18 -->
<g id="node10" class="node">
<title>Node18</title>
<g id="a_node10"><a xlink:href="../../d6/da0/ClusterizerTask_8cxx.html" target="_top" xlink:title="Implementation of the EMCAL cluster finder task. ">
<polygon fill="none" stroke="#000000" points="1054.4524,-.5 1054.4524,-52.5 1230.4524,-52.5 1230.4524,-.5 1054.4524,-.5"/>
<text text-anchor="start" x="1062.4524" y="-40.5" font-family="Helvetica,sans-Serif" font-size="10.00" fill="#000000">/home/travis/build</text>
<text text-anchor="start" x="1062.4524" y="-29.5" font-family="Helvetica,sans-Serif" font-size="10.00" fill="#000000">/AliceO2Group/AliceO2</text>
<text text-anchor="start" x="1062.4524" y="-18.5" font-family="Helvetica,sans-Serif" font-size="10.00" fill="#000000">/Detectors/EMCAL/reconstruction</text>
<text text-anchor="middle" x="1142.4524" y="-7.5" font-family="Helvetica,sans-Serif" font-size="10.00" fill="#000000">/src/ClusterizerTask.cxx</text>
</a>
</g>
</g>
<!-- Node17&#45;&gt;Node18 -->
<g id="edge9" class="edge">
<title>Node17&#45;&gt;Node18</title>
<path fill="none" stroke="#191970" d="M1142.4524,-79.2457C1142.4524,-70.2008 1142.4524,-60.8836 1142.4524,-52.6442"/>
<polygon fill="#191970" stroke="#191970" points="1138.9525,-79.2699 1142.4524,-89.27 1145.9525,-79.27 1138.9525,-79.2699"/>
</g>
<!-- Node21 -->
<g id="node13" class="node">
<title>Node21</title>
<g id="a_node13"><a xlink:href="../../d3/deb/RawWriter_8cxx.html" target="_top" xlink:title="/home/travis/build\l/AliceO2Group/AliceO2\l/Detectors/EMCAL/simulation\l/src/RawWriter.cxx">
<polygon fill="none" stroke="#000000" points="1442.4524,-95 1442.4524,-147 1600.4524,-147 1600.4524,-95 1442.4524,-95"/>
<text text-anchor="start" x="1450.4524" y="-135" font-family="Helvetica,sans-Serif" font-size="10.00" fill="#000000">/home/travis/build</text>
<text text-anchor="start" x="1450.4524" y="-124" font-family="Helvetica,sans-Serif" font-size="10.00" fill="#000000">/AliceO2Group/AliceO2</text>
<text text-anchor="start" x="1450.4524" y="-113" font-family="Helvetica,sans-Serif" font-size="10.00" fill="#000000">/Detectors/EMCAL/simulation</text>
<text text-anchor="middle" x="1521.4524" y="-102" font-family="Helvetica,sans-Serif" font-size="10.00" fill="#000000">/src/RawWriter.cxx</text>
</a>
</g>
</g>
<!-- Node20&#45;&gt;Node21 -->
<g id="edge12" class="edge">
<title>Node20&#45;&gt;Node21</title>
<path fill="none" stroke="#191970" d="M1498.9581,-185.2694C1503.3512,-172.7176 1508.2026,-158.8564 1512.2719,-147.2299"/>
<polygon fill="#191970" stroke="#191970" points="1495.5569,-184.3924 1495.5568,-194.9872 1502.1639,-186.7049 1495.5569,-184.3924"/>
</g>
<!-- Node22&#45;&gt;Node14 -->
<g id="edge16" class="edge">
<title>Node22&#45;&gt;Node14</title>
<path fill="none" stroke="#191970" d="M444.228,-178.9863C445.6978,-151.8882 450.7306,-116.6703 465.4524,-89 472.8493,-75.0971 484.5451,-62.6003 496.1086,-52.5012"/>
<polygon fill="#191970" stroke="#191970" points="440.7176,-179.1803 443.8168,-189.3117 447.7121,-179.459 440.7176,-179.1803"/>
</g>
<!-- Node23 -->
<g id="node15" class="node">
<title>Node23</title>
<g id="a_node15"><a xlink:href="../../dc/d49/EMCAL_2workflow_2src_2CellConverterSpec_8cxx.html" target="_top" xlink:title="/home/travis/build\l/AliceO2Group/AliceO2\l/Detectors/EMCAL/workflow\l/src/CellConverterSpec.cxx">
<polygon fill="none" stroke="#000000" points="474.4524,-95 474.4524,-147 624.4524,-147 624.4524,-95 474.4524,-95"/>
<text text-anchor="start" x="482.4524" y="-135" font-family="Helvetica,sans-Serif" font-size="10.00" fill="#000000">/home/travis/build</text>
<text text-anchor="start" x="482.4524" y="-124" font-family="Helvetica,sans-Serif" font-size="10.00" fill="#000000">/AliceO2Group/AliceO2</text>
<text text-anchor="start" x="482.4524" y="-113" font-family="Helvetica,sans-Serif" font-size="10.00" fill="#000000">/Detectors/EMCAL/workflow</text>
<text text-anchor="middle" x="549.4524" y="-102" font-family="Helvetica,sans-Serif" font-size="10.00" fill="#000000">/src/CellConverterSpec.cxx</text>
</a>
</g>
</g>
<!-- Node22&#45;&gt;Node23 -->
<g id="edge15" class="edge">
<title>Node22&#45;&gt;Node23</title>
<path fill="none" stroke="#191970" d="M485.2184,-182.1752C497.5648,-170.4167 510.8237,-157.7892 522.0705,-147.078"/>
<polygon fill="#191970" stroke="#191970" points="482.5026,-179.9283 477.675,-189.3594 487.3302,-184.9973 482.5026,-179.9283"/>
</g>
<!-- Node24&#45;&gt;Node14 -->
<g id="edge19" class="edge">
<title>Node24&#45;&gt;Node14</title>
<path fill="none" stroke="#191970" d="M660.2803,-179.2537C658.2743,-151.4685 651.8488,-115.3655 633.4524,-89 623.0098,-74.0339 607.7168,-61.946 592.1748,-52.535"/>
<polygon fill="#191970" stroke="#191970" points="656.7978,-179.6678 660.8484,-189.4577 663.787,-179.2786 656.7978,-179.6678"/>
</g>
<!-- Node24&#45;&gt;Node25 -->
<g id="edge18" class="edge">
<title>Node24&#45;&gt;Node25</title>
<path fill="none" stroke="#191970" d="M697.6523,-181.8422C708.7326,-170.1787 720.5986,-157.6881 730.6783,-147.078"/>
<polygon fill="#191970" stroke="#191970" points="694.861,-179.6987 690.511,-189.3594 699.936,-184.52 694.861,-179.6987"/>
</g>
<!-- Node26&#45;&gt;Node14 -->
<g id="edge22" class="edge">
<title>Node26&#45;&gt;Node14</title>
<path fill="none" stroke="#191970" d="M886.3616,-179.7743C870.0321,-143.3665 847.3898,-95.1226 839.4524,-89 803.9213,-61.5927 686.6579,-43.5513 607.7806,-34.1882"/>
<polygon fill="#191970" stroke="#191970" points="883.3019,-181.5067 890.573,-189.2126 889.6944,-178.6543 883.3019,-181.5067"/>
</g>
<!-- Node27 -->
<g id="node19" class="node">
<title>Node27</title>
<g id="a_node19"><a xlink:href="../../d4/d71/EMCAL_2workflow_2src_2PublisherSpec_8cxx.html" target="_top" xlink:title="/home/travis/build\l/AliceO2Group/AliceO2\l/Detectors/EMCAL/workflow\l/src/PublisherSpec.cxx">
<polygon fill="none" stroke="#000000" points="886.4524,-95 886.4524,-147 1036.4524,-147 1036.4524,-95 886.4524,-95"/>
<text text-anchor="start" x="894.4524" y="-135" font-family="Helvetica,sans-Serif" font-size="10.00" fill="#000000">/home/travis/build</text>
<text text-anchor="start" x="894.4524" y="-124" font-family="Helvetica,sans-Serif" font-size="10.00" fill="#000000">/AliceO2Group/AliceO2</text>
<text text-anchor="start" x="894.4524" y="-113" font-family="Helvetica,sans-Serif" font-size="10.00" fill="#000000">/Detectors/EMCAL/workflow</text>
<text text-anchor="middle" x="961.4524" y="-102" font-family="Helvetica,sans-Serif" font-size="10.00" fill="#000000">/src/PublisherSpec.cxx</text>
</a>
</g>
</g>
<!-- Node26&#45;&gt;Node27 -->
<g id="edge21" class="edge">
<title>Node26&#45;&gt;Node27</title>
<path fill="none" stroke="#191970" d="M927.5341,-180.5058C933.9614,-169.2297 940.7705,-157.284 946.5879,-147.078"/>
<polygon fill="#191970" stroke="#191970" points="924.3989,-178.9384 922.4875,-189.3594 930.4803,-182.4048 924.3989,-178.9384"/>
</g>
</g>
</svg>
