<?xml version="1.0" encoding="UTF-8" standalone="no"?>
<!DOCTYPE svg PUBLIC "-//W3C//DTD SVG 1.1//EN"
 "http://www.w3.org/Graphics/SVG/1.1/DTD/svg11.dtd">
<!-- Generated by graphviz version 2.40.1 (20161225.0304)
 -->
<!-- Title: /home/travis/build/AliceO2Group/AliceO2/GPU/TPCFastTransformation/Spline2D.cxx Pages: 1 -->
<svg width="1406pt" height="397pt"
 viewBox="0.00 0.00 1406.00 397.00" xmlns="http://www.w3.org/2000/svg" xmlns:xlink="http://www.w3.org/1999/xlink">
<g id="graph0" class="graph" transform="scale(1 1) rotate(0) translate(4 393)">
<title>/home/travis/build/AliceO2Group/AliceO2/GPU/TPCFastTransformation/Spline2D.cxx</title>
<!-- Node0 -->
<g id="node1" class="node">
<title>Node0</title>
<polygon fill="#bfbfbf" stroke="#000000" points="882.5,-336.5 882.5,-388.5 1037.5,-388.5 1037.5,-336.5 882.5,-336.5"/>
<text text-anchor="start" x="890.5" y="-376.5" font-family="Helvetica,sans-Serif" font-size="10.00" fill="#000000">/home/travis/build</text>
<text text-anchor="start" x="890.5" y="-365.5" font-family="Helvetica,sans-Serif" font-size="10.00" fill="#000000">/AliceO2Group/AliceO2</text>
<text text-anchor="start" x="890.5" y="-354.5" font-family="Helvetica,sans-Serif" font-size="10.00" fill="#000000">/GPU/TPCFastTransformation</text>
<text text-anchor="middle" x="960" y="-343.5" font-family="Helvetica,sans-Serif" font-size="10.00" fill="#000000">/Spline2D.cxx</text>
</g>
<!-- Node1 -->
<g id="node2" class="node">
<title>Node1</title>
<polygon fill="none" stroke="#bfbfbf" points="870.5,-.5 870.5,-19.5 929.5,-19.5 929.5,-.5 870.5,-.5"/>
<text text-anchor="middle" x="900" y="-7.5" font-family="Helvetica,sans-Serif" font-size="10.00" fill="#000000">Rtypes.h</text>
</g>
<!-- Node0&#45;&gt;Node1 -->
<g id="edge1" class="edge">
<title>Node0&#45;&gt;Node1</title>
<path fill="none" stroke="#191970" d="M935.5222,-336.2561C927.3379,-325.7842 919.2276,-313.1068 915,-300 912.2713,-291.5403 913.275,-288.7199 915,-280 924.5142,-231.906 957,-227.0261 957,-178 957,-178 957,-178 957,-122 957,-85.1826 932.2325,-48.2377 915.3499,-27.3313"/>
<polygon fill="#191970" stroke="#191970" points="918.0131,-25.06 908.9063,-19.6456 912.6489,-29.5574 918.0131,-25.06"/>
</g>
<!-- Node2 -->
<g id="node3" class="node">
<title>Node2</title>
<g id="a_node3"><a xlink:href="../../dd/d27/Spline2D_8h.html" target="_top" xlink:title="Definition of Spline2D class. ">
<polygon fill="none" stroke="#000000" points="501.5,-224.5 501.5,-243.5 570.5,-243.5 570.5,-224.5 501.5,-224.5"/>
<text text-anchor="middle" x="536" y="-231.5" font-family="Helvetica,sans-Serif" font-size="10.00" fill="#000000">Spline2D.h</text>
</a>
</g>
</g>
<!-- Node0&#45;&gt;Node2 -->
<g id="edge2" class="edge">
<title>Node0&#45;&gt;Node2</title>
<path fill="none" stroke="#191970" d="M882.2682,-352.787C820.2364,-343.5325 731.8091,-326.941 658,-300 621.6537,-286.7332 582.8737,-264.1213 559.0322,-249.1207"/>
<polygon fill="#191970" stroke="#191970" points="560.6802,-246.0204 550.3681,-243.589 556.9132,-251.9204 560.6802,-246.0204"/>
</g>
<!-- Node14 -->
<g id="node15" class="node">
<title>Node14</title>
<polygon fill="none" stroke="#bfbfbf" points="308,-.5 308,-19.5 368,-19.5 368,-.5 308,-.5"/>
<text text-anchor="middle" x="338" y="-7.5" font-family="Helvetica,sans-Serif" font-size="10.00" fill="#000000">iostream</text>
</g>
<!-- Node0&#45;&gt;Node14 -->
<g id="edge21" class="edge">
<title>Node0&#45;&gt;Node14</title>
<path fill="none" stroke="#191970" d="M882.319,-358.338C678.8556,-346.4055 146,-308.0832 146,-234 146,-234 146,-234 146,-122 146,-91.4754 143.1966,-77.3627 165,-56 166.2194,-54.8052 247.3306,-33.563 298.044,-20.3677"/>
<polygon fill="#191970" stroke="#191970" points="298.9513,-23.7482 307.7487,-17.8442 297.1897,-16.9735 298.9513,-23.7482"/>
</g>
<!-- Node17 -->
<g id="node18" class="node">
<title>Node17</title>
<polygon fill="none" stroke="#bfbfbf" points="924,-280.5 924,-299.5 996,-299.5 996,-280.5 924,-280.5"/>
<text text-anchor="middle" x="960" y="-287.5" font-family="Helvetica,sans-Serif" font-size="10.00" fill="#000000">TRandom.h</text>
</g>
<!-- Node0&#45;&gt;Node17 -->
<g id="edge22" class="edge">
<title>Node0&#45;&gt;Node17</title>
<path fill="none" stroke="#191970" d="M960,-336.3258C960,-327.5142 960,-317.8397 960,-309.621"/>
<polygon fill="#191970" stroke="#191970" points="963.5001,-309.534 960,-299.534 956.5001,-309.534 963.5001,-309.534"/>
</g>
<!-- Node18 -->
<g id="node19" class="node">
<title>Node18</title>
<polygon fill="none" stroke="#bfbfbf" points="1014,-280.5 1014,-299.5 1090,-299.5 1090,-280.5 1014,-280.5"/>
<text text-anchor="middle" x="1052" y="-287.5" font-family="Helvetica,sans-Serif" font-size="10.00" fill="#000000">Riostream.h</text>
</g>
<!-- Node0&#45;&gt;Node18 -->
<g id="edge23" class="edge">
<title>Node0&#45;&gt;Node18</title>
<path fill="none" stroke="#191970" d="M993.2141,-336.3258C1006.1747,-326.1123 1020.6063,-314.7396 1031.927,-305.8184"/>
<polygon fill="#191970" stroke="#191970" points="1034.2137,-308.4726 1039.9017,-299.534 1029.881,-302.9746 1034.2137,-308.4726"/>
</g>
<!-- Node19 -->
<g id="node20" class="node">
<title>Node19</title>
<polygon fill="none" stroke="#bfbfbf" points="1108,-280.5 1108,-299.5 1164,-299.5 1164,-280.5 1108,-280.5"/>
<text text-anchor="middle" x="1136" y="-287.5" font-family="Helvetica,sans-Serif" font-size="10.00" fill="#000000">TMath.h</text>
</g>
<!-- Node0&#45;&gt;Node19 -->
<g id="edge24" class="edge">
<title>Node0&#45;&gt;Node19</title>
<path fill="none" stroke="#191970" d="M1023.54,-336.3258C1050.6435,-325.161 1081.1097,-312.6111 1103.4887,-303.3924"/>
<polygon fill="#191970" stroke="#191970" points="1104.9423,-306.5791 1112.8554,-299.534 1102.276,-300.1067 1104.9423,-306.5791"/>
</g>
<!-- Node20 -->
<g id="node21" class="node">
<title>Node20</title>
<g id="a_node21"><a xlink:href="../../d0/d1e/SplineHelper2D_8h.html" target="_top" xlink:title="Definition of SplineHelper2D class. ">
<polygon fill="none" stroke="#000000" points="666.5,-280.5 666.5,-299.5 767.5,-299.5 767.5,-280.5 666.5,-280.5"/>
<text text-anchor="middle" x="717" y="-287.5" font-family="Helvetica,sans-Serif" font-size="10.00" fill="#000000">SplineHelper2D.h</text>
</a>
</g>
</g>
<!-- Node0&#45;&gt;Node20 -->
<g id="edge25" class="edge">
<title>Node0&#45;&gt;Node20</title>
<path fill="none" stroke="#191970" d="M882.4452,-339.3612C841.3591,-327.103 792.5248,-312.5331 758.6087,-302.4141"/>
<polygon fill="#191970" stroke="#191970" points="759.606,-299.0593 749.0228,-299.5541 757.6047,-305.7671 759.606,-299.0593"/>
</g>
<!-- Node25 -->
<g id="node26" class="node">
<title>Node25</title>
<polygon fill="none" stroke="#bfbfbf" points="1182.5,-280.5 1182.5,-299.5 1249.5,-299.5 1249.5,-280.5 1182.5,-280.5"/>
<text text-anchor="middle" x="1216" y="-287.5" font-family="Helvetica,sans-Serif" font-size="10.00" fill="#000000">TCanvas.h</text>
</g>
<!-- Node0&#45;&gt;Node25 -->
<g id="edge42" class="edge">
<title>Node0&#45;&gt;Node25</title>
<path fill="none" stroke="#191970" d="M1037.5032,-340.5509C1081.759,-328.0175 1135.6061,-312.7678 1172.5098,-302.3166"/>
<polygon fill="#191970" stroke="#191970" points="1173.7793,-305.5948 1182.4472,-299.5023 1171.8719,-298.8596 1173.7793,-305.5948"/>
</g>
<!-- Node26 -->
<g id="node27" class="node">
<title>Node26</title>
<polygon fill="none" stroke="#bfbfbf" points="1268,-280.5 1268,-299.5 1332,-299.5 1332,-280.5 1268,-280.5"/>
<text text-anchor="middle" x="1300" y="-287.5" font-family="Helvetica,sans-Serif" font-size="10.00" fill="#000000">TNtuple.h</text>
</g>
<!-- Node0&#45;&gt;Node26 -->
<g id="edge43" class="edge">
<title>Node0&#45;&gt;Node26</title>
<path fill="none" stroke="#191970" d="M1037.5923,-347.0156C1095.6776,-335.2536 1177.3252,-318.3614 1257.9671,-300.1846"/>
<polygon fill="#191970" stroke="#191970" points="1258.8133,-303.5817 1267.7948,-297.9618 1257.269,-296.7541 1258.8133,-303.5817"/>
</g>
<!-- Node27 -->
<g id="node28" class="node">
<title>Node27</title>
<polygon fill="none" stroke="#bfbfbf" points="1350,-280.5 1350,-299.5 1398,-299.5 1398,-280.5 1350,-280.5"/>
<text text-anchor="middle" x="1374" y="-287.5" font-family="Helvetica,sans-Serif" font-size="10.00" fill="#000000">TFile.h</text>
</g>
<!-- Node0&#45;&gt;Node27 -->
<g id="edge44" class="edge">
<title>Node0&#45;&gt;Node27</title>
<path fill="none" stroke="#191970" d="M1037.5714,-352.8237C1112.7075,-342.7591 1229.9142,-325.2352 1340.0015,-299.9945"/>
<polygon fill="#191970" stroke="#191970" points="1340.9974,-303.3565 1349.9483,-297.688 1339.4161,-296.5374 1340.9974,-303.3565"/>
</g>
<!-- Node28 -->
<g id="node29" class="node">
<title>Node28</title>
<g id="a_node29"><a xlink:href="../../d6/da2/GPUCommonMath_8h.html" target="_top" xlink:title="GPUCommonMath.h">
<polygon fill="none" stroke="#000000" points="211.5,-224.5 211.5,-243.5 326.5,-243.5 326.5,-224.5 211.5,-224.5"/>
<text text-anchor="middle" x="269" y="-231.5" font-family="Helvetica,sans-Serif" font-size="10.00" fill="#000000">GPUCommonMath.h</text>
</a>
</g>
</g>
<!-- Node0&#45;&gt;Node28 -->
<g id="edge45" class="edge">
<title>Node0&#45;&gt;Node28</title>
<path fill="none" stroke="#191970" d="M882.2042,-348.8124C811.6444,-336.3303 704.7855,-317.2582 612,-300 512.0532,-281.4098 395.9162,-258.864 327.6548,-245.5156"/>
<polygon fill="#191970" stroke="#191970" points="328.0155,-242.0199 317.5295,-243.5344 326.6712,-248.8896 328.0155,-242.0199"/>
</g>
<!-- Node3 -->
<g id="node4" class="node">
<title>Node3</title>
<g id="a_node4"><a xlink:href="../../de/da6/Spline1D_8h.html" target="_top" xlink:title="Definition of Spline1D class. ">
<polygon fill="none" stroke="#000000" points="525.5,-168.5 525.5,-187.5 594.5,-187.5 594.5,-168.5 525.5,-168.5"/>
<text text-anchor="middle" x="560" y="-175.5" font-family="Helvetica,sans-Serif" font-size="10.00" fill="#000000">Spline1D.h</text>
</a>
</g>
</g>
<!-- Node2&#45;&gt;Node3 -->
<g id="edge3" class="edge">
<title>Node2&#45;&gt;Node3</title>
<path fill="none" stroke="#191970" d="M540.1805,-224.2455C543.381,-216.7776 547.896,-206.2427 551.8084,-197.1137"/>
<polygon fill="#191970" stroke="#191970" points="555.1452,-198.2129 555.8674,-187.6427 548.7112,-195.4554 555.1452,-198.2129"/>
</g>
<!-- Node4 -->
<g id="node5" class="node">
<title>Node4</title>
<g id="a_node5"><a xlink:href="../../df/d21/GPUCommonDef_8h.html" target="_top" xlink:title="GPUCommonDef.h">
<polygon fill="none" stroke="#000000" points="174.5,-56.5 174.5,-75.5 281.5,-75.5 281.5,-56.5 174.5,-56.5"/>
<text text-anchor="middle" x="228" y="-63.5" font-family="Helvetica,sans-Serif" font-size="10.00" fill="#000000">GPUCommonDef.h</text>
</a>
</g>
</g>
<!-- Node2&#45;&gt;Node4 -->
<g id="edge20" class="edge">
<title>Node2&#45;&gt;Node4</title>
<path fill="none" stroke="#191970" d="M525.4609,-224.4168C500.2143,-201.9028 433.5613,-145.0505 369,-112 340.3193,-97.3177 305.9884,-85.9982 278.3834,-78.2621"/>
<polygon fill="#191970" stroke="#191970" points="279.1092,-74.8322 268.5404,-75.5744 277.2653,-81.585 279.1092,-74.8322"/>
</g>
<!-- Node7 -->
<g id="node8" class="node">
<title>Node7</title>
<g id="a_node8"><a xlink:href="../../db/dff/FlatObject_8h.html" target="_top" xlink:title="Definition of FlatObject class. ">
<polygon fill="none" stroke="#000000" points="563.5,-112.5 563.5,-131.5 638.5,-131.5 638.5,-112.5 563.5,-112.5"/>
<text text-anchor="middle" x="601" y="-119.5" font-family="Helvetica,sans-Serif" font-size="10.00" fill="#000000">FlatObject.h</text>
</a>
</g>
</g>
<!-- Node2&#45;&gt;Node7 -->
<g id="edge19" class="edge">
<title>Node2&#45;&gt;Node7</title>
<path fill="none" stroke="#191970" d="M528.7702,-224.4378C519.5929,-211.0353 506.181,-186.2597 517,-168 525.8436,-153.0742 541.4332,-142.6736 556.8002,-135.589"/>
<polygon fill="#191970" stroke="#191970" points="558.4211,-138.7041 566.2773,-131.5956 555.7029,-132.2534 558.4211,-138.7041"/>
</g>
<!-- Node3&#45;&gt;Node4 -->
<g id="edge4" class="edge">
<title>Node3&#45;&gt;Node4</title>
<path fill="none" stroke="#191970" d="M550.5487,-168.3906C535.5458,-153.7454 504.7171,-126.0612 473,-112 456.6064,-104.7322 358.7451,-87.5936 291.7767,-76.4119"/>
<polygon fill="#191970" stroke="#191970" points="292.1616,-72.9279 281.7227,-74.7391 291.0126,-79.833 292.1616,-72.9279"/>
</g>
<!-- Node3&#45;&gt;Node7 -->
<g id="edge7" class="edge">
<title>Node3&#45;&gt;Node7</title>
<path fill="none" stroke="#191970" d="M567.1417,-168.2455C572.8444,-160.4564 580.99,-149.3308 587.8625,-139.9439"/>
<polygon fill="#191970" stroke="#191970" points="590.8568,-141.7789 593.9402,-131.6427 585.2087,-137.6437 590.8568,-141.7789"/>
</g>
<!-- Node16 -->
<g id="node17" class="node">
<title>Node16</title>
<polygon fill="none" stroke="#bfbfbf" points="656.5,-112.5 656.5,-131.5 721.5,-131.5 721.5,-112.5 656.5,-112.5"/>
<text text-anchor="middle" x="689" y="-119.5" font-family="Helvetica,sans-Serif" font-size="10.00" fill="#000000">functional</text>
</g>
<!-- Node3&#45;&gt;Node16 -->
<g id="edge18" class="edge">
<title>Node3&#45;&gt;Node16</title>
<path fill="none" stroke="#191970" d="M582.1759,-168.3733C602.9766,-159.3435 634.2917,-145.7494 657.6458,-135.6111"/>
<polygon fill="#191970" stroke="#191970" points="659.3343,-138.6938 667.1135,-131.5011 656.5468,-132.2727 659.3343,-138.6938"/>
</g>
<!-- Node5 -->
<g id="node6" class="node">
<title>Node5</title>
<g id="a_node6"><a xlink:href="../../d5/d93/GPUCommonDefSettings_8h.html" target="_top" xlink:title="GPUCommonDefSettings.h">
<polygon fill="none" stroke="#000000" points="0,-.5 0,-19.5 148,-19.5 148,-.5 0,-.5"/>
<text text-anchor="middle" x="74" y="-7.5" font-family="Helvetica,sans-Serif" font-size="10.00" fill="#000000">GPUCommonDefSettings.h</text>
</a>
</g>
</g>
<!-- Node4&#45;&gt;Node5 -->
<g id="edge5" class="edge">
<title>Node4&#45;&gt;Node5</title>
<path fill="none" stroke="#191970" d="M201.5265,-56.3733C176.1403,-47.1419 137.6355,-33.1402 109.578,-22.9375"/>
<polygon fill="#191970" stroke="#191970" points="110.7222,-19.6293 100.1281,-19.5011 108.3299,-26.2079 110.7222,-19.6293"/>
</g>
<!-- Node6 -->
<g id="node7" class="node">
<title>Node6</title>
<g id="a_node7"><a xlink:href="../../da/d5a/GPUCommonDefAPI_8h.html" target="_top" xlink:title="GPUCommonDefAPI.h">
<polygon fill="none" stroke="#000000" points="166,-.5 166,-19.5 290,-19.5 290,-.5 166,-.5"/>
<text text-anchor="middle" x="228" y="-7.5" font-family="Helvetica,sans-Serif" font-size="10.00" fill="#000000">GPUCommonDefAPI.h</text>
</a>
</g>
</g>
<!-- Node4&#45;&gt;Node6 -->
<g id="edge6" class="edge">
<title>Node4&#45;&gt;Node6</title>
<path fill="none" stroke="#191970" d="M228,-56.2455C228,-48.9382 228,-38.6944 228,-29.7046"/>
<polygon fill="#191970" stroke="#191970" points="231.5001,-29.6426 228,-19.6427 224.5001,-29.6427 231.5001,-29.6426"/>
</g>
<!-- Node7&#45;&gt;Node4 -->
<g id="edge12" class="edge">
<title>Node7&#45;&gt;Node4</title>
<path fill="none" stroke="#191970" d="M563.2675,-114.5055C558.4719,-113.6232 553.6256,-112.7657 549,-112 437.4777,-93.5389 406.6021,-93.2554 291.6547,-76.2212"/>
<polygon fill="#191970" stroke="#191970" points="292.1644,-72.7586 281.7573,-74.7441 291.1311,-79.6819 292.1644,-72.7586"/>
</g>
<!-- Node8 -->
<g id="node9" class="node">
<title>Node8</title>
<polygon fill="none" stroke="#bfbfbf" points="511.5,-56.5 511.5,-75.5 564.5,-75.5 564.5,-56.5 511.5,-56.5"/>
<text text-anchor="middle" x="538" y="-63.5" font-family="Helvetica,sans-Serif" font-size="10.00" fill="#000000">cstddef</text>
</g>
<!-- Node7&#45;&gt;Node8 -->
<g id="edge8" class="edge">
<title>Node7&#45;&gt;Node8</title>
<path fill="none" stroke="#191970" d="M590.0262,-112.2455C580.8118,-104.0549 567.4468,-92.1749 556.5703,-82.5069"/>
<polygon fill="#191970" stroke="#191970" points="558.6474,-79.6704 548.848,-75.6427 553.9968,-84.9023 558.6474,-79.6704"/>
</g>
<!-- Node9 -->
<g id="node10" class="node">
<title>Node9</title>
<polygon fill="none" stroke="#bfbfbf" points="583,-56.5 583,-75.5 641,-75.5 641,-56.5 583,-56.5"/>
<text text-anchor="middle" x="612" y="-63.5" font-family="Helvetica,sans-Serif" font-size="10.00" fill="#000000">memory</text>
</g>
<!-- Node7&#45;&gt;Node9 -->
<g id="edge9" class="edge">
<title>Node7&#45;&gt;Node9</title>
<path fill="none" stroke="#191970" d="M602.9161,-112.2455C604.3514,-104.9382 606.3636,-94.6944 608.1295,-85.7046"/>
<polygon fill="#191970" stroke="#191970" points="611.6127,-86.1298 610.1059,-75.6427 604.744,-84.7805 611.6127,-86.1298"/>
</g>
<!-- Node10 -->
<g id="node11" class="node">
<title>Node10</title>
<polygon fill="none" stroke="#bfbfbf" points="659,-56.5 659,-75.5 709,-75.5 709,-56.5 659,-56.5"/>
<text text-anchor="middle" x="684" y="-63.5" font-family="Helvetica,sans-Serif" font-size="10.00" fill="#000000">cstring</text>
</g>
<!-- Node7&#45;&gt;Node10 -->
<g id="edge10" class="edge">
<title>Node7&#45;&gt;Node10</title>
<path fill="none" stroke="#191970" d="M615.4575,-112.2455C628.0732,-103.7337 646.5944,-91.2375 661.2045,-81.3801"/>
<polygon fill="#191970" stroke="#191970" points="663.3761,-84.1371 669.7082,-75.6427 659.4609,-78.3343 663.3761,-84.1371"/>
</g>
<!-- Node11 -->
<g id="node12" class="node">
<title>Node11</title>
<polygon fill="none" stroke="#bfbfbf" points="441,-56.5 441,-75.5 493,-75.5 493,-56.5 441,-56.5"/>
<text text-anchor="middle" x="467" y="-63.5" font-family="Helvetica,sans-Serif" font-size="10.00" fill="#000000">cassert</text>
</g>
<!-- Node7&#45;&gt;Node11 -->
<g id="edge11" class="edge">
<title>Node7&#45;&gt;Node11</title>
<path fill="none" stroke="#191970" d="M577.9646,-112.3733C556.2612,-103.3032 523.5382,-89.6279 499.245,-79.4755"/>
<polygon fill="#191970" stroke="#191970" points="500.3111,-76.1278 489.7348,-75.5011 497.6119,-82.5865 500.3111,-76.1278"/>
</g>
<!-- Node12 -->
<g id="node13" class="node">
<title>Node12</title>
<g id="a_node13"><a xlink:href="../../d2/d45/GPUCommonRtypes_8h.html" target="_top" xlink:title="GPUCommonRtypes.h">
<polygon fill="none" stroke="#000000" points="727.5,-56.5 727.5,-75.5 852.5,-75.5 852.5,-56.5 727.5,-56.5"/>
<text text-anchor="middle" x="790" y="-63.5" font-family="Helvetica,sans-Serif" font-size="10.00" fill="#000000">GPUCommonRtypes.h</text>
</a>
</g>
</g>
<!-- Node7&#45;&gt;Node12 -->
<g id="edge13" class="edge">
<title>Node7&#45;&gt;Node12</title>
<path fill="none" stroke="#191970" d="M633.4903,-112.3733C665.1902,-102.9807 713.5576,-88.6496 748.1286,-78.4064"/>
<polygon fill="#191970" stroke="#191970" points="749.3401,-81.6979 757.9337,-75.5011 747.3514,-74.9863 749.3401,-81.6979"/>
</g>
<!-- Node13 -->
<g id="node14" class="node">
<title>Node13</title>
<g id="a_node14"><a xlink:href="../../df/d5b/GPUCommonLogger_8h.html" target="_top" xlink:title="GPUCommonLogger.h">
<polygon fill="none" stroke="#000000" points="299.5,-56.5 299.5,-75.5 422.5,-75.5 422.5,-56.5 299.5,-56.5"/>
<text text-anchor="middle" x="361" y="-63.5" font-family="Helvetica,sans-Serif" font-size="10.00" fill="#000000">GPUCommonLogger.h</text>
</a>
</g>
</g>
<!-- Node7&#45;&gt;Node13 -->
<g id="edge15" class="edge">
<title>Node7&#45;&gt;Node13</title>
<path fill="none" stroke="#191970" d="M563.236,-113.1884C522.3686,-103.6527 456.9827,-88.396 411.6707,-77.8232"/>
<polygon fill="#191970" stroke="#191970" points="412.2873,-74.3731 401.7536,-75.5092 410.6967,-81.19 412.2873,-74.3731"/>
</g>
<!-- Node12&#45;&gt;Node1 -->
<g id="edge14" class="edge">
<title>Node12&#45;&gt;Node1</title>
<path fill="none" stroke="#191970" d="M809.1605,-56.2455C826.5111,-47.4125 852.2901,-34.2887 871.9583,-24.2758"/>
<polygon fill="#191970" stroke="#191970" points="873.7353,-27.2986 881.059,-19.6427 870.5595,-21.0605 873.7353,-27.2986"/>
</g>
<!-- Node13&#45;&gt;Node14 -->
<g id="edge16" class="edge">
<title>Node13&#45;&gt;Node14</title>
<path fill="none" stroke="#191970" d="M356.9937,-56.2455C353.9265,-48.7776 349.5997,-38.2427 345.8503,-29.1137"/>
<polygon fill="#191970" stroke="#191970" points="348.9972,-27.5631 341.9604,-19.6427 342.5221,-30.2226 348.9972,-27.5631"/>
</g>
<!-- Node15 -->
<g id="node16" class="node">
<title>Node15</title>
<polygon fill="none" stroke="#bfbfbf" points="386,-.5 386,-19.5 432,-19.5 432,-.5 386,-.5"/>
<text text-anchor="middle" x="409" y="-7.5" font-family="Helvetica,sans-Serif" font-size="10.00" fill="#000000">cstdio</text>
</g>
<!-- Node13&#45;&gt;Node15 -->
<g id="edge17" class="edge">
<title>Node13&#45;&gt;Node15</title>
<path fill="none" stroke="#191970" d="M369.361,-56.2455C376.175,-48.2958 385.9681,-36.8706 394.1152,-27.3656"/>
<polygon fill="#191970" stroke="#191970" points="396.8843,-29.513 400.7349,-19.6427 391.5695,-24.9575 396.8843,-29.513"/>
</g>
<!-- Node20&#45;&gt;Node1 -->
<g id="edge29" class="edge">
<title>Node20&#45;&gt;Node1</title>
<path fill="none" stroke="#191970" d="M767.7124,-284.0594C827.5487,-273.8986 919,-247.071 919,-178 919,-178 919,-178 919,-122 919,-89.2688 911.0148,-51.9052 905.3978,-29.6716"/>
<polygon fill="#191970" stroke="#191970" points="908.7289,-28.5763 902.8035,-19.7934 901.9585,-30.3545 908.7289,-28.5763"/>
</g>
<!-- Node20&#45;&gt;Node2 -->
<g id="edge32" class="edge">
<title>Node20&#45;&gt;Node2</title>
<path fill="none" stroke="#191970" d="M685.885,-280.3733C655.6571,-271.021 609.604,-256.7725 576.5261,-246.5385"/>
<polygon fill="#191970" stroke="#191970" points="577.2967,-243.1133 566.709,-243.5011 575.2277,-249.8005 577.2967,-243.1133"/>
</g>
<!-- Node20&#45;&gt;Node3 -->
<g id="edge31" class="edge">
<title>Node20&#45;&gt;Node3</title>
<path fill="none" stroke="#191970" d="M689.1738,-280.4076C668.6087,-272.5249 640.5562,-260.0528 619,-244 600.6255,-230.3166 583.6454,-210.1912 572.6656,-195.7652"/>
<polygon fill="#191970" stroke="#191970" points="575.4069,-193.5857 566.6458,-187.628 569.7795,-197.7489 575.4069,-193.5857"/>
</g>
<!-- Node20&#45;&gt;Node4 -->
<g id="edge28" class="edge">
<title>Node20&#45;&gt;Node4</title>
<path fill="none" stroke="#191970" d="M666.4287,-287.6287C612.2916,-283.623 524.7723,-272.865 455,-244 363.3604,-206.0884 277.6678,-120.3224 243.5541,-83.4199"/>
<polygon fill="#191970" stroke="#191970" points="246.0442,-80.9562 236.7188,-75.9274 240.8728,-85.674 246.0442,-80.9562"/>
</g>
<!-- Node20&#45;&gt;Node16 -->
<g id="edge41" class="edge">
<title>Node20&#45;&gt;Node16</title>
<path fill="none" stroke="#191970" d="M746.4635,-280.472C799.1619,-261.8898 900.601,-218.2061 862,-168 846.1941,-147.4422 777.4812,-134.1394 731.5548,-127.3687"/>
<polygon fill="#191970" stroke="#191970" points="731.9521,-123.8901 721.5583,-125.9443 730.9645,-130.8201 731.9521,-123.8901"/>
</g>
<!-- Node21 -->
<g id="node22" class="node">
<title>Node21</title>
<polygon fill="none" stroke="#bfbfbf" points="383.5,-168.5 383.5,-187.5 430.5,-187.5 430.5,-168.5 383.5,-168.5"/>
<text text-anchor="middle" x="407" y="-175.5" font-family="Helvetica,sans-Serif" font-size="10.00" fill="#000000">cmath</text>
</g>
<!-- Node20&#45;&gt;Node21 -->
<g id="edge26" class="edge">
<title>Node20&#45;&gt;Node21</title>
<path fill="none" stroke="#191970" d="M666.0483,-286.1105C619.2811,-281.0409 548.9708,-269.5716 493,-244 466.4689,-231.8786 440.5414,-210.2438 424.2109,-195.0572"/>
<polygon fill="#191970" stroke="#191970" points="426.2443,-192.1597 416.5935,-187.788 421.4116,-197.2239 426.2443,-192.1597"/>
</g>
<!-- Node22 -->
<g id="node23" class="node">
<title>Node22</title>
<polygon fill="none" stroke="#bfbfbf" points="805.5,-168.5 805.5,-187.5 852.5,-187.5 852.5,-168.5 805.5,-168.5"/>
<text text-anchor="middle" x="829" y="-175.5" font-family="Helvetica,sans-Serif" font-size="10.00" fill="#000000">vector</text>
</g>
<!-- Node20&#45;&gt;Node22 -->
<g id="edge27" class="edge">
<title>Node20&#45;&gt;Node22</title>
<path fill="none" stroke="#191970" d="M726.5491,-280.4509C745.5599,-261.4401 788.3577,-218.6423 812.184,-194.816"/>
<polygon fill="#191970" stroke="#191970" points="814.8789,-197.0709 819.4751,-187.5249 809.9291,-192.1211 814.8789,-197.0709"/>
</g>
<!-- Node23 -->
<g id="node24" class="node">
<title>Node23</title>
<polygon fill="none" stroke="#bfbfbf" points="727,-168.5 727,-187.5 787,-187.5 787,-168.5 727,-168.5"/>
<text text-anchor="middle" x="757" y="-175.5" font-family="Helvetica,sans-Serif" font-size="10.00" fill="#000000">TString.h</text>
</g>
<!-- Node20&#45;&gt;Node23 -->
<g id="edge30" class="edge">
<title>Node20&#45;&gt;Node23</title>
<path fill="none" stroke="#191970" d="M721.9348,-280.3063C726.4901,-271.1164 733.2489,-256.8446 738,-244 743.6877,-228.6231 748.7468,-210.7243 752.2118,-197.4486"/>
<polygon fill="#191970" stroke="#191970" points="755.6586,-198.095 754.7262,-187.5413 748.8737,-196.373 755.6586,-198.095"/>
</g>
<!-- Node24 -->
<g id="node25" class="node">
<title>Node24</title>
<g id="a_node25"><a xlink:href="../../d2/da7/SplineHelper1D_8h.html" target="_top" xlink:title="Definition of SplineHelper1D class. ">
<polygon fill="none" stroke="#000000" points="627.5,-224.5 627.5,-243.5 728.5,-243.5 728.5,-224.5 627.5,-224.5"/>
<text text-anchor="middle" x="678" y="-231.5" font-family="Helvetica,sans-Serif" font-size="10.00" fill="#000000">SplineHelper1D.h</text>
</a>
</g>
</g>
<!-- Node20&#45;&gt;Node24 -->
<g id="edge33" class="edge">
<title>Node20&#45;&gt;Node24</title>
<path fill="none" stroke="#191970" d="M710.2067,-280.2455C704.7822,-272.4564 697.0339,-261.3308 690.4967,-251.9439"/>
<polygon fill="#191970" stroke="#191970" points="693.3025,-249.8485 684.7154,-243.6427 687.5583,-253.849 693.3025,-249.8485"/>
</g>
<!-- Node24&#45;&gt;Node1 -->
<g id="edge37" class="edge">
<title>Node24&#45;&gt;Node1</title>
<path fill="none" stroke="#191970" d="M682.2365,-224.1044C688.5074,-210.3057 701.3367,-185.0623 718,-168 771.0634,-113.666 809.5502,-130.9264 862,-76 875.079,-62.3034 885.4183,-43.2722 891.9892,-29.1637"/>
<polygon fill="#191970" stroke="#191970" points="895.2397,-30.4675 896.0932,-19.9071 888.8404,-27.6303 895.2397,-30.4675"/>
</g>
<!-- Node24&#45;&gt;Node3 -->
<g id="edge39" class="edge">
<title>Node24&#45;&gt;Node3</title>
<path fill="none" stroke="#191970" d="M657.7151,-224.3733C638.8579,-215.4241 610.554,-201.9917 589.2545,-191.8835"/>
<polygon fill="#191970" stroke="#191970" points="590.5551,-188.6266 580.0202,-187.5011 587.5539,-194.9506 590.5551,-188.6266"/>
</g>
<!-- Node24&#45;&gt;Node4 -->
<g id="edge36" class="edge">
<title>Node24&#45;&gt;Node4</title>
<path fill="none" stroke="#191970" d="M668.536,-224.2921C655.0025,-210.7165 628.9871,-185.7364 604,-168 562.1453,-138.2906 551.457,-128.9231 503,-112 498.0012,-110.2542 371.3081,-89.396 291.6499,-76.3738"/>
<polygon fill="#191970" stroke="#191970" points="292.1339,-72.9065 281.7004,-74.748 291.005,-79.8149 292.1339,-72.9065"/>
</g>
<!-- Node24&#45;&gt;Node16 -->
<g id="edge40" class="edge">
<title>Node24&#45;&gt;Node16</title>
<path fill="none" stroke="#191970" d="M678.9379,-224.4509C680.7319,-206.184 684.683,-165.9553 687.0654,-141.6976"/>
<polygon fill="#191970" stroke="#191970" points="690.5702,-141.8191 688.0645,-131.5249 683.6038,-141.1349 690.5702,-141.8191"/>
</g>
<!-- Node24&#45;&gt;Node21 -->
<g id="edge34" class="edge">
<title>Node24&#45;&gt;Node21</title>
<path fill="none" stroke="#191970" d="M631.7214,-224.4369C577.3574,-213.203 488.5004,-194.8414 440.4231,-184.9066"/>
<polygon fill="#191970" stroke="#191970" points="441.0298,-181.4581 430.5284,-182.862 439.6132,-188.3133 441.0298,-181.4581"/>
</g>
<!-- Node24&#45;&gt;Node22 -->
<g id="edge35" class="edge">
<title>Node24&#45;&gt;Node22</title>
<path fill="none" stroke="#191970" d="M703.9578,-224.3733C729.3415,-214.9594 768.1019,-200.5847 795.7345,-190.3369"/>
<polygon fill="#191970" stroke="#191970" points="797.2071,-193.5238 805.3661,-186.7649 794.773,-186.9606 797.2071,-193.5238"/>
</g>
<!-- Node24&#45;&gt;Node23 -->
<g id="edge38" class="edge">
<title>Node24&#45;&gt;Node23</title>
<path fill="none" stroke="#191970" d="M691.7607,-224.2455C703.6552,-215.814 721.065,-203.4729 734.9085,-193.6598"/>
<polygon fill="#191970" stroke="#191970" points="737.2628,-196.2811 743.3969,-187.6427 733.2146,-190.5704 737.2628,-196.2811"/>
</g>
<!-- Node28&#45;&gt;Node4 -->
<g id="edge46" class="edge">
<title>Node28&#45;&gt;Node4</title>
<path fill="none" stroke="#191970" d="M263.4218,-224.4652C258.3609,-215.3877 251.0851,-201.1918 247,-188 236.1615,-152.9995 231.3261,-110.3488 229.3093,-85.8676"/>
<polygon fill="#191970" stroke="#191970" points="232.7856,-85.4176 228.5506,-75.706 225.805,-85.9389 232.7856,-85.4176"/>
</g>
<!-- Node28&#45;&gt;Node21 -->
<g id="edge47" class="edge">
<title>Node28&#45;&gt;Node21</title>
<path fill="none" stroke="#191970" d="M292.723,-224.3733C315.1737,-215.2629 349.0739,-201.5062 374.1255,-191.3404"/>
<polygon fill="#191970" stroke="#191970" points="375.6365,-194.5045 383.5865,-187.5011 373.0043,-188.0182 375.6365,-194.5045"/>
</g>
<!-- Node29 -->
<g id="node30" class="node">
<title>Node29</title>
<polygon fill="none" stroke="#bfbfbf" points="256,-168.5 256,-187.5 320,-187.5 320,-168.5 256,-168.5"/>
<text text-anchor="middle" x="288" y="-175.5" font-family="Helvetica,sans-Serif" font-size="10.00" fill="#000000">algorithm</text>
</g>
<!-- Node28&#45;&gt;Node29 -->
<g id="edge48" class="edge">
<title>Node28&#45;&gt;Node29</title>
<path fill="none" stroke="#191970" d="M272.3095,-224.2455C274.8433,-216.7776 278.4177,-206.2427 281.515,-197.1137"/>
<polygon fill="#191970" stroke="#191970" points="284.8298,-198.237 284.7284,-187.6427 278.2009,-195.9879 284.8298,-198.237"/>
</g>
</g>
</svg>
