<?xml version="1.0" encoding="UTF-8" standalone="no"?>
<!DOCTYPE svg PUBLIC "-//W3C//DTD SVG 1.1//EN"
 "http://www.w3.org/Graphics/SVG/1.1/DTD/svg11.dtd">
<!-- Generated by graphviz version 2.40.1 (20161225.0304)
 -->
<!-- Title: /home/travis/build/AliceO2Group/AliceO2/Detectors/MUON/MCH/Raw/ImplHelpers/Assertions.h Pages: 1 -->
<svg width="2237pt" height="350pt"
 viewBox="0.00 0.00 2237.00 350.00" xmlns="http://www.w3.org/2000/svg" xmlns:xlink="http://www.w3.org/1999/xlink">
<g id="graph0" class="graph" transform="scale(1 1) rotate(0) translate(4 346)">
<title>/home/travis/build/AliceO2Group/AliceO2/Detectors/MUON/MCH/Raw/ImplHelpers/Assertions.h</title>
<!-- Node2 -->
<g id="node1" class="node">
<title>Node2</title>
<polygon fill="#bfbfbf" stroke="#000000" points="983.5,-289.5 983.5,-341.5 1133.5,-341.5 1133.5,-289.5 983.5,-289.5"/>
<text text-anchor="start" x="991.5" y="-329.5" font-family="Helvetica,sans-Serif" font-size="10.00" fill="#000000">/home/travis/build</text>
<text text-anchor="start" x="991.5" y="-318.5" font-family="Helvetica,sans-Serif" font-size="10.00" fill="#000000">/AliceO2Group/AliceO2</text>
<text text-anchor="start" x="991.5" y="-307.5" font-family="Helvetica,sans-Serif" font-size="10.00" fill="#000000">/Detectors/MUON/MCH/Raw</text>
<text text-anchor="middle" x="1058.5" y="-296.5" font-family="Helvetica,sans-Serif" font-size="10.00" fill="#000000">/ImplHelpers/Assertions.h</text>
</g>
<!-- Node3 -->
<g id="node2" class="node">
<title>Node3</title>
<g id="a_node2"><a xlink:href="../../d1/d33/RDHFieldsV4_8cxx.html" target="_top" xlink:title="/home/travis/build\l/AliceO2Group/AliceO2\l/Detectors/MUON/MCH/Raw\l/Common/src/RDHFieldsV4.cxx">
<polygon fill="none" stroke="#000000" points="0,-195 0,-247 167,-247 167,-195 0,-195"/>
<text text-anchor="start" x="8" y="-235" font-family="Helvetica,sans-Serif" font-size="10.00" fill="#000000">/home/travis/build</text>
<text text-anchor="start" x="8" y="-224" font-family="Helvetica,sans-Serif" font-size="10.00" fill="#000000">/AliceO2Group/AliceO2</text>
<text text-anchor="start" x="8" y="-213" font-family="Helvetica,sans-Serif" font-size="10.00" fill="#000000">/Detectors/MUON/MCH/Raw</text>
<text text-anchor="middle" x="83.5" y="-202" font-family="Helvetica,sans-Serif" font-size="10.00" fill="#000000">/Common/src/RDHFieldsV4.cxx</text>
</a>
</g>
</g>
<!-- Node2&#45;&gt;Node3 -->
<g id="edge1" class="edge">
<title>Node2&#45;&gt;Node3</title>
<path fill="none" stroke="#191970" d="M973.1932,-312.2876C782.6223,-304.6514 327.2451,-283.7255 176.5,-253 168.7201,-251.4143 160.6982,-249.3488 152.7787,-247.0303"/>
<polygon fill="#191970" stroke="#191970" points="973.3082,-315.7949 983.4396,-312.6956 973.5868,-308.8004 973.3082,-315.7949"/>
</g>
<!-- Node4 -->
<g id="node3" class="node">
<title>Node4</title>
<g id="a_node3"><a xlink:href="../../d5/d6c/SampaCluster_8cxx.html" target="_top" xlink:title="/home/travis/build\l/AliceO2Group/AliceO2\l/Detectors/MUON/MCH/Raw\l/Common/src/SampaCluster.cxx">
<polygon fill="none" stroke="#000000" points="185.5,-195 185.5,-247 357.5,-247 357.5,-195 185.5,-195"/>
<text text-anchor="start" x="193.5" y="-235" font-family="Helvetica,sans-Serif" font-size="10.00" fill="#000000">/home/travis/build</text>
<text text-anchor="start" x="193.5" y="-224" font-family="Helvetica,sans-Serif" font-size="10.00" fill="#000000">/AliceO2Group/AliceO2</text>
<text text-anchor="start" x="193.5" y="-213" font-family="Helvetica,sans-Serif" font-size="10.00" fill="#000000">/Detectors/MUON/MCH/Raw</text>
<text text-anchor="middle" x="271.5" y="-202" font-family="Helvetica,sans-Serif" font-size="10.00" fill="#000000">/Common/src/SampaCluster.cxx</text>
</a>
</g>
</g>
<!-- Node2&#45;&gt;Node4 -->
<g id="edge2" class="edge">
<title>Node2&#45;&gt;Node4</title>
<path fill="none" stroke="#191970" d="M972.9096,-313.7152C842.0802,-309.6433 585.0537,-296.3371 371.5,-253 363.4611,-251.3686 355.1585,-249.322 346.9332,-247.0566"/>
<polygon fill="#191970" stroke="#191970" points="973.157,-317.2241 983.2576,-314.0261 973.3673,-310.2273 973.157,-317.2241"/>
</g>
<!-- Node5 -->
<g id="node4" class="node">
<title>Node5</title>
<g id="a_node4"><a xlink:href="../../d7/ddc/BareElinkDecoder_8h.html" target="_top" xlink:title="/home/travis/build\l/AliceO2Group/AliceO2\l/Detectors/MUON/MCH/Raw\l/Decoder/src/BareElinkDecoder.h">
<polygon fill="none" stroke="#000000" points="413.5,-195 413.5,-247 589.5,-247 589.5,-195 413.5,-195"/>
<text text-anchor="start" x="421.5" y="-235" font-family="Helvetica,sans-Serif" font-size="10.00" fill="#000000">/home/travis/build</text>
<text text-anchor="start" x="421.5" y="-224" font-family="Helvetica,sans-Serif" font-size="10.00" fill="#000000">/AliceO2Group/AliceO2</text>
<text text-anchor="start" x="421.5" y="-213" font-family="Helvetica,sans-Serif" font-size="10.00" fill="#000000">/Detectors/MUON/MCH/Raw</text>
<text text-anchor="middle" x="501.5" y="-202" font-family="Helvetica,sans-Serif" font-size="10.00" fill="#000000">/Decoder/src/BareElinkDecoder.h</text>
</a>
</g>
</g>
<!-- Node2&#45;&gt;Node5 -->
<g id="edge3" class="edge">
<title>Node2&#45;&gt;Node5</title>
<path fill="none" stroke="#191970" d="M973.0397,-308.6193C880.0345,-300.0373 727.3665,-282.7452 598.5,-253 591.0702,-251.285 583.3996,-249.2434 575.7788,-247.0331"/>
<polygon fill="#191970" stroke="#191970" points="972.9672,-312.1271 983.2433,-309.5479 973.6017,-305.1559 972.9672,-312.1271"/>
</g>
<!-- Node6 -->
<g id="node5" class="node">
<title>Node6</title>
<g id="a_node5"><a xlink:href="../../da/db7/BareGBTDecoder_8h.html" target="_top" xlink:title="/home/travis/build\l/AliceO2Group/AliceO2\l/Detectors/MUON/MCH/Raw\l/Decoder/src/BareGBTDecoder.h">
<polygon fill="none" stroke="#000000" points="296.5,-95 296.5,-147 468.5,-147 468.5,-95 296.5,-95"/>
<text text-anchor="start" x="304.5" y="-135" font-family="Helvetica,sans-Serif" font-size="10.00" fill="#000000">/home/travis/build</text>
<text text-anchor="start" x="304.5" y="-124" font-family="Helvetica,sans-Serif" font-size="10.00" fill="#000000">/AliceO2Group/AliceO2</text>
<text text-anchor="start" x="304.5" y="-113" font-family="Helvetica,sans-Serif" font-size="10.00" fill="#000000">/Detectors/MUON/MCH/Raw</text>
<text text-anchor="middle" x="382.5" y="-102" font-family="Helvetica,sans-Serif" font-size="10.00" fill="#000000">/Decoder/src/BareGBTDecoder.h</text>
</a>
</g>
</g>
<!-- Node2&#45;&gt;Node6 -->
<g id="edge8" class="edge">
<title>Node2&#45;&gt;Node6</title>
<path fill="none" stroke="#191970" d="M973.3472,-313.0589C805.6539,-307.4405 445.2982,-291.0427 404.5,-253 375.7838,-226.2233 375.3942,-177.2738 378.446,-147.0959"/>
<polygon fill="#191970" stroke="#191970" points="973.2688,-316.5581 983.3788,-313.3898 973.4997,-309.5619 973.2688,-316.5581"/>
</g>
<!-- Node10 -->
<g id="node9" class="node">
<title>Node10</title>
<g id="a_node9"><a xlink:href="../../db/d18/UserLogicEndpointDecoder_8h.html" target="_top" xlink:title="/home/travis/build\l/AliceO2Group/AliceO2\l/Detectors/MUON/MCH/Raw\l/Decoder/src/UserLogicEndpointDecoder.h">
<polygon fill="none" stroke="#000000" points="607.5,-195 607.5,-247 827.5,-247 827.5,-195 607.5,-195"/>
<text text-anchor="start" x="615.5" y="-235" font-family="Helvetica,sans-Serif" font-size="10.00" fill="#000000">/home/travis/build</text>
<text text-anchor="start" x="615.5" y="-224" font-family="Helvetica,sans-Serif" font-size="10.00" fill="#000000">/AliceO2Group/AliceO2</text>
<text text-anchor="start" x="615.5" y="-213" font-family="Helvetica,sans-Serif" font-size="10.00" fill="#000000">/Detectors/MUON/MCH/Raw</text>
<text text-anchor="middle" x="717.5" y="-202" font-family="Helvetica,sans-Serif" font-size="10.00" fill="#000000">/Decoder/src/UserLogicEndpointDecoder.h</text>
</a>
</g>
</g>
<!-- Node2&#45;&gt;Node10 -->
<g id="edge9" class="edge">
<title>Node2&#45;&gt;Node10</title>
<path fill="none" stroke="#191970" d="M973.57,-291.9637C924.3066,-278.3115 862.1769,-261.0938 811.4536,-247.037"/>
<polygon fill="#191970" stroke="#191970" points="972.6724,-295.3468 983.244,-294.6446 974.5419,-288.601 972.6724,-295.3468"/>
</g>
<!-- Node11 -->
<g id="node10" class="node">
<title>Node11</title>
<g id="a_node10"><a xlink:href="../../d8/dcb/testUserLogicEndpointDecoder_8cxx.html" target="_top" xlink:title="/home/travis/build\l/AliceO2Group/AliceO2\l/Detectors/MUON/MCH/Raw\l/Decoder/src/testUserLogicEndpoint\lDecoder.cxx">
<polygon fill="none" stroke="#000000" points="754.5,-89.5 754.5,-152.5 944.5,-152.5 944.5,-89.5 754.5,-89.5"/>
<text text-anchor="start" x="762.5" y="-140.5" font-family="Helvetica,sans-Serif" font-size="10.00" fill="#000000">/home/travis/build</text>
<text text-anchor="start" x="762.5" y="-129.5" font-family="Helvetica,sans-Serif" font-size="10.00" fill="#000000">/AliceO2Group/AliceO2</text>
<text text-anchor="start" x="762.5" y="-118.5" font-family="Helvetica,sans-Serif" font-size="10.00" fill="#000000">/Detectors/MUON/MCH/Raw</text>
<text text-anchor="start" x="762.5" y="-107.5" font-family="Helvetica,sans-Serif" font-size="10.00" fill="#000000">/Decoder/src/testUserLogicEndpoint</text>
<text text-anchor="middle" x="849.5" y="-96.5" font-family="Helvetica,sans-Serif" font-size="10.00" fill="#000000">Decoder.cxx</text>
</a>
</g>
</g>
<!-- Node2&#45;&gt;Node11 -->
<g id="edge13" class="edge">
<title>Node2&#45;&gt;Node11</title>
<path fill="none" stroke="#191970" d="M973.1849,-295.3955C931.8547,-283.9611 888.2237,-268.7976 874.5,-253 850.4848,-225.3557 846.5229,-181.9719 847.0501,-152.5514"/>
<polygon fill="#191970" stroke="#191970" points="972.4968,-298.8352 983.0641,-298.072 974.3273,-292.0787 972.4968,-298.8352"/>
</g>
<!-- Node12 -->
<g id="node11" class="node">
<title>Node12</title>
<g id="a_node11"><a xlink:href="../../d5/d93/testUserLogicElinkDecoder_8cxx.html" target="_top" xlink:title="/home/travis/build\l/AliceO2Group/AliceO2\l/Detectors/MUON/MCH/Raw\l/Decoder/src/testUserLogicElink\lDecoder.cxx">
<polygon fill="none" stroke="#000000" points="884,-189.5 884,-252.5 1055,-252.5 1055,-189.5 884,-189.5"/>
<text text-anchor="start" x="892" y="-240.5" font-family="Helvetica,sans-Serif" font-size="10.00" fill="#000000">/home/travis/build</text>
<text text-anchor="start" x="892" y="-229.5" font-family="Helvetica,sans-Serif" font-size="10.00" fill="#000000">/AliceO2Group/AliceO2</text>
<text text-anchor="start" x="892" y="-218.5" font-family="Helvetica,sans-Serif" font-size="10.00" fill="#000000">/Detectors/MUON/MCH/Raw</text>
<text text-anchor="start" x="892" y="-207.5" font-family="Helvetica,sans-Serif" font-size="10.00" fill="#000000">/Decoder/src/testUserLogicElink</text>
<text text-anchor="middle" x="969.5" y="-196.5" font-family="Helvetica,sans-Serif" font-size="10.00" fill="#000000">Decoder.cxx</text>
</a>
</g>
</g>
<!-- Node2&#45;&gt;Node12 -->
<g id="edge12" class="edge">
<title>Node2&#45;&gt;Node12</title>
<path fill="none" stroke="#191970" d="M1026.9447,-281.9947C1017.9716,-272.467 1008.2292,-262.1226 999.3601,-252.7054"/>
<polygon fill="#191970" stroke="#191970" points="1024.5408,-284.5472 1033.9448,-289.4273 1029.6366,-279.7479 1024.5408,-284.5472"/>
</g>
<!-- Node13 -->
<g id="node12" class="node">
<title>Node13</title>
<g id="a_node12"><a xlink:href="../../d6/d4f/DsDetId_8cxx.html" target="_top" xlink:title="/home/travis/build\l/AliceO2Group/AliceO2\l/Detectors/MUON/MCH/Raw\l/ElecMap/src/DsDetId.cxx">
<polygon fill="none" stroke="#000000" points="1073.5,-195 1073.5,-247 1223.5,-247 1223.5,-195 1073.5,-195"/>
<text text-anchor="start" x="1081.5" y="-235" font-family="Helvetica,sans-Serif" font-size="10.00" fill="#000000">/home/travis/build</text>
<text text-anchor="start" x="1081.5" y="-224" font-family="Helvetica,sans-Serif" font-size="10.00" fill="#000000">/AliceO2Group/AliceO2</text>
<text text-anchor="start" x="1081.5" y="-213" font-family="Helvetica,sans-Serif" font-size="10.00" fill="#000000">/Detectors/MUON/MCH/Raw</text>
<text text-anchor="middle" x="1148.5" y="-202" font-family="Helvetica,sans-Serif" font-size="10.00" fill="#000000">/ElecMap/src/DsDetId.cxx</text>
</a>
</g>
</g>
<!-- Node2&#45;&gt;Node13 -->
<g id="edge14" class="edge">
<title>Node2&#45;&gt;Node13</title>
<path fill="none" stroke="#191970" d="M1090.2855,-282.1253C1101.1616,-270.7054 1113.1677,-258.0989 1123.4375,-247.3157"/>
<polygon fill="#191970" stroke="#191970" points="1087.6932,-279.7721 1083.3311,-289.4273 1092.7622,-284.5997 1087.6932,-279.7721"/>
</g>
<!-- Node14 -->
<g id="node13" class="node">
<title>Node14</title>
<g id="a_node13"><a xlink:href="../../d0/d1a/DsElecId_8cxx.html" target="_top" xlink:title="/home/travis/build\l/AliceO2Group/AliceO2\l/Detectors/MUON/MCH/Raw\l/ElecMap/src/DsElecId.cxx">
<polygon fill="none" stroke="#000000" points="1241.5,-195 1241.5,-247 1391.5,-247 1391.5,-195 1241.5,-195"/>
<text text-anchor="start" x="1249.5" y="-235" font-family="Helvetica,sans-Serif" font-size="10.00" fill="#000000">/home/travis/build</text>
<text text-anchor="start" x="1249.5" y="-224" font-family="Helvetica,sans-Serif" font-size="10.00" fill="#000000">/AliceO2Group/AliceO2</text>
<text text-anchor="start" x="1249.5" y="-213" font-family="Helvetica,sans-Serif" font-size="10.00" fill="#000000">/Detectors/MUON/MCH/Raw</text>
<text text-anchor="middle" x="1316.5" y="-202" font-family="Helvetica,sans-Serif" font-size="10.00" fill="#000000">/ElecMap/src/DsElecId.cxx</text>
</a>
</g>
</g>
<!-- Node2&#45;&gt;Node14 -->
<g id="edge15" class="edge">
<title>Node2&#45;&gt;Node14</title>
<path fill="none" stroke="#191970" d="M1141.8751,-285.9175C1170.6322,-275.6173 1203.0201,-263.9086 1232.5,-253 1237.6225,-251.1045 1242.9145,-249.1291 1248.2338,-247.1312"/>
<polygon fill="#191970" stroke="#191970" points="1140.5079,-282.6894 1132.2714,-289.3535 1142.866,-289.2803 1140.5079,-282.6894"/>
</g>
<!-- Node15 -->
<g id="node14" class="node">
<title>Node15</title>
<g id="a_node14"><a xlink:href="../../df/d23/BareElinkEncoder_8h.html" target="_top" xlink:title="/home/travis/build\l/AliceO2Group/AliceO2\l/Detectors/MUON/MCH/Raw\l/Encoder/Payload/BareElinkEncoder.h">
<polygon fill="none" stroke="#000000" points="1410,-195 1410,-247 1607,-247 1607,-195 1410,-195"/>
<text text-anchor="start" x="1418" y="-235" font-family="Helvetica,sans-Serif" font-size="10.00" fill="#000000">/home/travis/build</text>
<text text-anchor="start" x="1418" y="-224" font-family="Helvetica,sans-Serif" font-size="10.00" fill="#000000">/AliceO2Group/AliceO2</text>
<text text-anchor="start" x="1418" y="-213" font-family="Helvetica,sans-Serif" font-size="10.00" fill="#000000">/Detectors/MUON/MCH/Raw</text>
<text text-anchor="middle" x="1508.5" y="-202" font-family="Helvetica,sans-Serif" font-size="10.00" fill="#000000">/Encoder/Payload/BareElinkEncoder.h</text>
</a>
</g>
</g>
<!-- Node2&#45;&gt;Node15 -->
<g id="edge16" class="edge">
<title>Node2&#45;&gt;Node15</title>
<path fill="none" stroke="#191970" d="M1143.7304,-302.5325C1213.2441,-291.3322 1313.7685,-273.711 1400.5,-253 1408.1084,-251.1832 1415.9759,-249.1528 1423.8357,-247.0201"/>
<polygon fill="#191970" stroke="#191970" points="1143.0254,-299.1007 1133.7046,-304.138 1144.1323,-306.0126 1143.0254,-299.1007"/>
</g>
<!-- Node20 -->
<g id="node19" class="node">
<title>Node20</title>
<g id="a_node19"><a xlink:href="../../d5/d1a/ElinkEncoder_8cxx.html" target="_top" xlink:title="/home/travis/build\l/AliceO2Group/AliceO2\l/Detectors/MUON/MCH/Raw\l/Encoder/Payload/ElinkEncoder.cxx">
<polygon fill="none" stroke="#000000" points="2044,-195 2044,-247 2229,-247 2229,-195 2044,-195"/>
<text text-anchor="start" x="2052" y="-235" font-family="Helvetica,sans-Serif" font-size="10.00" fill="#000000">/home/travis/build</text>
<text text-anchor="start" x="2052" y="-224" font-family="Helvetica,sans-Serif" font-size="10.00" fill="#000000">/AliceO2Group/AliceO2</text>
<text text-anchor="start" x="2052" y="-213" font-family="Helvetica,sans-Serif" font-size="10.00" fill="#000000">/Detectors/MUON/MCH/Raw</text>
<text text-anchor="middle" x="2136.5" y="-202" font-family="Helvetica,sans-Serif" font-size="10.00" fill="#000000">/Encoder/Payload/ElinkEncoder.cxx</text>
</a>
</g>
</g>
<!-- Node2&#45;&gt;Node20 -->
<g id="edge21" class="edge">
<title>Node2&#45;&gt;Node20</title>
<path fill="none" stroke="#191970" d="M1143.9279,-312.5172C1348.3881,-304.9733 1861.4362,-283.5374 2030.5,-253 2039.2964,-251.4111 2048.3945,-249.3437 2057.3945,-247.024"/>
<polygon fill="#191970" stroke="#191970" points="1143.7047,-309.023 1133.8398,-312.8874 1143.9615,-316.0183 1143.7047,-309.023"/>
</g>
<!-- Node21 -->
<g id="node20" class="node">
<title>Node21</title>
<g id="a_node20"><a xlink:href="../../df/da6/EncoderImpl_8h.html" target="_top" xlink:title="/home/travis/build\l/AliceO2Group/AliceO2\l/Detectors/MUON/MCH/Raw\l/Encoder/Payload/EncoderImpl.h">
<polygon fill="none" stroke="#000000" points="1970,-95 1970,-147 2143,-147 2143,-95 1970,-95"/>
<text text-anchor="start" x="1978" y="-135" font-family="Helvetica,sans-Serif" font-size="10.00" fill="#000000">/home/travis/build</text>
<text text-anchor="start" x="1978" y="-124" font-family="Helvetica,sans-Serif" font-size="10.00" fill="#000000">/AliceO2Group/AliceO2</text>
<text text-anchor="start" x="1978" y="-113" font-family="Helvetica,sans-Serif" font-size="10.00" fill="#000000">/Detectors/MUON/MCH/Raw</text>
<text text-anchor="middle" x="2056.5" y="-102" font-family="Helvetica,sans-Serif" font-size="10.00" fill="#000000">/Encoder/Payload/EncoderImpl.h</text>
</a>
</g>
</g>
<!-- Node2&#45;&gt;Node21 -->
<g id="edge22" class="edge">
<title>Node2&#45;&gt;Node21</title>
<path fill="none" stroke="#191970" d="M1143.7377,-314.7867C1361.9391,-312.2688 1928.4249,-301.1201 1997.5,-253 2015.7795,-240.2659 2037.0746,-181.7318 2048.4156,-147.0313"/>
<polygon fill="#191970" stroke="#191970" points="1143.574,-311.2882 1133.6138,-314.9002 1143.6525,-318.2878 1143.574,-311.2882"/>
</g>
<!-- Node22 -->
<g id="node21" class="node">
<title>Node22</title>
<g id="a_node21"><a xlink:href="../../d4/d54/GBTEncoder_8h.html" target="_top" xlink:title="/home/travis/build\l/AliceO2Group/AliceO2\l/Detectors/MUON/MCH/Raw\l/Encoder/Payload/GBTEncoder.h">
<polygon fill="none" stroke="#000000" points="1818.5,-195 1818.5,-247 1988.5,-247 1988.5,-195 1818.5,-195"/>
<text text-anchor="start" x="1826.5" y="-235" font-family="Helvetica,sans-Serif" font-size="10.00" fill="#000000">/home/travis/build</text>
<text text-anchor="start" x="1826.5" y="-224" font-family="Helvetica,sans-Serif" font-size="10.00" fill="#000000">/AliceO2Group/AliceO2</text>
<text text-anchor="start" x="1826.5" y="-213" font-family="Helvetica,sans-Serif" font-size="10.00" fill="#000000">/Detectors/MUON/MCH/Raw</text>
<text text-anchor="middle" x="1903.5" y="-202" font-family="Helvetica,sans-Serif" font-size="10.00" fill="#000000">/Encoder/Payload/GBTEncoder.h</text>
</a>
</g>
</g>
<!-- Node2&#45;&gt;Node22 -->
<g id="edge24" class="edge">
<title>Node2&#45;&gt;Node22</title>
<path fill="none" stroke="#191970" d="M1143.7113,-310.997C1312.4306,-301.6536 1683.5036,-278.862 1808.5,-253 1816.2544,-251.3956 1824.2534,-249.3506 1832.165,-247.0724"/>
<polygon fill="#191970" stroke="#191970" points="1143.4206,-307.5076 1133.6284,-311.5527 1143.8059,-314.497 1143.4206,-307.5076"/>
</g>
<!-- Node23 -->
<g id="node22" class="node">
<title>Node23</title>
<g id="a_node22"><a xlink:href="../../d8/d97/UserLogicElinkEncoder_8h.html" target="_top" xlink:title="/home/travis/build\l/AliceO2Group/AliceO2\l/Detectors/MUON/MCH/Raw\l/Encoder/Payload/UserLogicElink\lEncoder.h">
<polygon fill="none" stroke="#000000" points="1625,-189.5 1625,-252.5 1800,-252.5 1800,-189.5 1625,-189.5"/>
<text text-anchor="start" x="1633" y="-240.5" font-family="Helvetica,sans-Serif" font-size="10.00" fill="#000000">/home/travis/build</text>
<text text-anchor="start" x="1633" y="-229.5" font-family="Helvetica,sans-Serif" font-size="10.00" fill="#000000">/AliceO2Group/AliceO2</text>
<text text-anchor="start" x="1633" y="-218.5" font-family="Helvetica,sans-Serif" font-size="10.00" fill="#000000">/Detectors/MUON/MCH/Raw</text>
<text text-anchor="start" x="1633" y="-207.5" font-family="Helvetica,sans-Serif" font-size="10.00" fill="#000000">/Encoder/Payload/UserLogicElink</text>
<text text-anchor="middle" x="1712.5" y="-196.5" font-family="Helvetica,sans-Serif" font-size="10.00" fill="#000000">Encoder.h</text>
</a>
</g>
</g>
<!-- Node2&#45;&gt;Node23 -->
<g id="edge27" class="edge">
<title>Node2&#45;&gt;Node23</title>
<path fill="none" stroke="#191970" d="M1143.6764,-311.4252C1253.7173,-304.9148 1450.7178,-289.0185 1615.5,-253 1618.6183,-252.3184 1621.7777,-251.5744 1624.9569,-250.7803"/>
<polygon fill="#191970" stroke="#191970" points="1143.4089,-307.9347 1133.6283,-312.0078 1143.8142,-314.923 1143.4089,-307.9347"/>
</g>
<!-- Node5&#45;&gt;Node6 -->
<g id="edge4" class="edge">
<title>Node5&#45;&gt;Node6</title>
<path fill="none" stroke="#191970" d="M462.4984,-188.2256C446.6736,-174.9274 428.645,-159.7773 413.7136,-147.2299"/>
<polygon fill="#191970" stroke="#191970" points="460.6373,-191.2333 470.5448,-194.9872 465.1407,-185.8742 460.6373,-191.2333"/>
</g>
<!-- Node9 -->
<g id="node8" class="node">
<title>Node9</title>
<g id="a_node8"><a xlink:href="../../d1/d49/testBareElinkDecoder_8cxx.html" target="_top" xlink:title="/home/travis/build\l/AliceO2Group/AliceO2\l/Detectors/MUON/MCH/Raw\l/Decoder/src/testBareElinkDecoder.cxx">
<polygon fill="none" stroke="#000000" points="486.5,-95 486.5,-147 692.5,-147 692.5,-95 486.5,-95"/>
<text text-anchor="start" x="494.5" y="-135" font-family="Helvetica,sans-Serif" font-size="10.00" fill="#000000">/home/travis/build</text>
<text text-anchor="start" x="494.5" y="-124" font-family="Helvetica,sans-Serif" font-size="10.00" fill="#000000">/AliceO2Group/AliceO2</text>
<text text-anchor="start" x="494.5" y="-113" font-family="Helvetica,sans-Serif" font-size="10.00" fill="#000000">/Detectors/MUON/MCH/Raw</text>
<text text-anchor="middle" x="589.5" y="-102" font-family="Helvetica,sans-Serif" font-size="10.00" fill="#000000">/Decoder/src/testBareElinkDecoder.cxx</text>
</a>
</g>
</g>
<!-- Node5&#45;&gt;Node9 -->
<g id="edge7" class="edge">
<title>Node5&#45;&gt;Node9</title>
<path fill="none" stroke="#191970" d="M531.3114,-187.1234C542.776,-174.0954 555.6799,-159.4319 566.4177,-147.2299"/>
<polygon fill="#191970" stroke="#191970" points="528.37,-185.1679 524.3912,-194.9872 533.6251,-189.7923 528.37,-185.1679"/>
</g>
<!-- Node7 -->
<g id="node6" class="node">
<title>Node7</title>
<g id="a_node6"><a xlink:href="../../df/dcf/PageDecoder_8cxx.html" target="_top" xlink:title="/home/travis/build\l/AliceO2Group/AliceO2\l/Detectors/MUON/MCH/Raw\l/Decoder/src/PageDecoder.cxx">
<polygon fill="none" stroke="#000000" points="565.5,-.5 565.5,-52.5 729.5,-52.5 729.5,-.5 565.5,-.5"/>
<text text-anchor="start" x="573.5" y="-40.5" font-family="Helvetica,sans-Serif" font-size="10.00" fill="#000000">/home/travis/build</text>
<text text-anchor="start" x="573.5" y="-29.5" font-family="Helvetica,sans-Serif" font-size="10.00" fill="#000000">/AliceO2Group/AliceO2</text>
<text text-anchor="start" x="573.5" y="-18.5" font-family="Helvetica,sans-Serif" font-size="10.00" fill="#000000">/Detectors/MUON/MCH/Raw</text>
<text text-anchor="middle" x="647.5" y="-7.5" font-family="Helvetica,sans-Serif" font-size="10.00" fill="#000000">/Decoder/src/PageDecoder.cxx</text>
</a>
</g>
</g>
<!-- Node6&#45;&gt;Node7 -->
<g id="edge5" class="edge">
<title>Node6&#45;&gt;Node7</title>
<path fill="none" stroke="#191970" d="M465.2947,-91.4751C500.1571,-79.043 540.3886,-64.6963 574.1651,-52.6515"/>
<polygon fill="#191970" stroke="#191970" points="463.8573,-88.2717 455.6139,-94.9273 466.2086,-94.865 463.8573,-88.2717"/>
</g>
<!-- Node8 -->
<g id="node7" class="node">
<title>Node8</title>
<g id="a_node7"><a xlink:href="../../d6/d95/testPageDecoder_8cxx.html" target="_top" xlink:title="/home/travis/build\l/AliceO2Group/AliceO2\l/Detectors/MUON/MCH/Raw\l/Decoder/src/testPageDecoder.cxx">
<polygon fill="none" stroke="#000000" points="291.5,-.5 291.5,-52.5 473.5,-52.5 473.5,-.5 291.5,-.5"/>
<text text-anchor="start" x="299.5" y="-40.5" font-family="Helvetica,sans-Serif" font-size="10.00" fill="#000000">/home/travis/build</text>
<text text-anchor="start" x="299.5" y="-29.5" font-family="Helvetica,sans-Serif" font-size="10.00" fill="#000000">/AliceO2Group/AliceO2</text>
<text text-anchor="start" x="299.5" y="-18.5" font-family="Helvetica,sans-Serif" font-size="10.00" fill="#000000">/Detectors/MUON/MCH/Raw</text>
<text text-anchor="middle" x="382.5" y="-7.5" font-family="Helvetica,sans-Serif" font-size="10.00" fill="#000000">/Decoder/src/testPageDecoder.cxx</text>
</a>
</g>
</g>
<!-- Node6&#45;&gt;Node8 -->
<g id="edge6" class="edge">
<title>Node6&#45;&gt;Node8</title>
<path fill="none" stroke="#191970" d="M382.5,-84.6645C382.5,-74.0577 382.5,-62.6746 382.5,-52.8157"/>
<polygon fill="#191970" stroke="#191970" points="379.0001,-84.9273 382.5,-94.9273 386.0001,-84.9273 379.0001,-84.9273"/>
</g>
<!-- Node10&#45;&gt;Node7 -->
<g id="edge10" class="edge">
<title>Node10&#45;&gt;Node7</title>
<path fill="none" stroke="#191970" d="M718.7116,-184.4555C718.3066,-157.0781 714.9004,-119.2838 701.5,-89 695.5814,-75.6244 685.8065,-62.9855 676.188,-52.6196"/>
<polygon fill="#191970" stroke="#191970" points="715.2121,-184.7719 718.7306,-194.7654 722.2121,-184.759 715.2121,-184.7719"/>
</g>
<!-- Node10&#45;&gt;Node11 -->
<g id="edge11" class="edge">
<title>Node10&#45;&gt;Node11</title>
<path fill="none" stroke="#191970" d="M760.1053,-188.7233C775.3894,-177.1444 792.5961,-164.109 807.8023,-152.5891"/>
<polygon fill="#191970" stroke="#191970" points="757.6943,-186.1588 751.8369,-194.9872 761.9213,-191.7384 757.6943,-186.1588"/>
</g>
<!-- Node16 -->
<g id="node15" class="node">
<title>Node16</title>
<g id="a_node15"><a xlink:href="../../d6/d9c/MUON_2MCH_2Raw_2Encoder_2Payload_2Encoder_8cxx.html" target="_top" xlink:title="/home/travis/build\l/AliceO2Group/AliceO2\l/Detectors/MUON/MCH/Raw\l/Encoder/Payload/Encoder.cxx">
<polygon fill="none" stroke="#000000" points="1843,-.5 1843,-52.5 2004,-52.5 2004,-.5 1843,-.5"/>
<text text-anchor="start" x="1851" y="-40.5" font-family="Helvetica,sans-Serif" font-size="10.00" fill="#000000">/home/travis/build</text>
<text text-anchor="start" x="1851" y="-29.5" font-family="Helvetica,sans-Serif" font-size="10.00" fill="#000000">/AliceO2Group/AliceO2</text>
<text text-anchor="start" x="1851" y="-18.5" font-family="Helvetica,sans-Serif" font-size="10.00" fill="#000000">/Detectors/MUON/MCH/Raw</text>
<text text-anchor="middle" x="1923.5" y="-7.5" font-family="Helvetica,sans-Serif" font-size="10.00" fill="#000000">/Encoder/Payload/Encoder.cxx</text>
</a>
</g>
</g>
<!-- Node15&#45;&gt;Node16 -->
<g id="edge17" class="edge">
<title>Node15&#45;&gt;Node16</title>
<path fill="none" stroke="#191970" d="M1458.1888,-188.3597C1447.0123,-178.4568 1436.6646,-166.5525 1430.5,-153 1418.7227,-127.1082 1411.3909,-110.0696 1430.5,-89 1458.1004,-58.5678 1757.8972,-59.27 1798.5,-53 1812.8601,-50.7825 1828.0549,-47.9649 1842.7172,-44.9995"/>
<polygon fill="#191970" stroke="#191970" points="1456.0968,-191.1725 1466.0175,-194.8914 1460.5813,-185.7976 1456.0968,-191.1725"/>
</g>
<!-- Node17 -->
<g id="node16" class="node">
<title>Node17</title>
<g id="a_node16"><a xlink:href="../../d7/d33/testBareElinkEncoder_8cxx.html" target="_top" xlink:title="/home/travis/build\l/AliceO2Group/AliceO2\l/Detectors/MUON/MCH/Raw\l/Encoder/Payload/testBareElinkEncoder.cxx">
<polygon fill="none" stroke="#000000" points="1118,-95 1118,-147 1345,-147 1345,-95 1118,-95"/>
<text text-anchor="start" x="1126" y="-135" font-family="Helvetica,sans-Serif" font-size="10.00" fill="#000000">/home/travis/build</text>
<text text-anchor="start" x="1126" y="-124" font-family="Helvetica,sans-Serif" font-size="10.00" fill="#000000">/AliceO2Group/AliceO2</text>
<text text-anchor="start" x="1126" y="-113" font-family="Helvetica,sans-Serif" font-size="10.00" fill="#000000">/Detectors/MUON/MCH/Raw</text>
<text text-anchor="middle" x="1231.5" y="-102" font-family="Helvetica,sans-Serif" font-size="10.00" fill="#000000">/Encoder/Payload/testBareElinkEncoder.cxx</text>
</a>
</g>
</g>
<!-- Node15&#45;&gt;Node17 -->
<g id="edge18" class="edge">
<title>Node15&#45;&gt;Node17</title>
<path fill="none" stroke="#191970" d="M1426.6885,-191.4652C1387.6615,-177.376 1341.3766,-160.6667 1303.6753,-147.0561"/>
<polygon fill="#191970" stroke="#191970" points="1425.8503,-194.8836 1436.4446,-194.9872 1428.2273,-188.2995 1425.8503,-194.8836"/>
</g>
<!-- Node18 -->
<g id="node17" class="node">
<title>Node18</title>
<g id="a_node17"><a xlink:href="../../d4/df7/testElinkEncoder_8cxx.html" target="_top" xlink:title="/home/travis/build\l/AliceO2Group/AliceO2\l/Detectors/MUON/MCH/Raw\l/Encoder/Payload/testElinkEncoder.cxx">
<polygon fill="none" stroke="#000000" points="1439.5,-95 1439.5,-147 1643.5,-147 1643.5,-95 1439.5,-95"/>
<text text-anchor="start" x="1447.5" y="-135" font-family="Helvetica,sans-Serif" font-size="10.00" fill="#000000">/home/travis/build</text>
<text text-anchor="start" x="1447.5" y="-124" font-family="Helvetica,sans-Serif" font-size="10.00" fill="#000000">/AliceO2Group/AliceO2</text>
<text text-anchor="start" x="1447.5" y="-113" font-family="Helvetica,sans-Serif" font-size="10.00" fill="#000000">/Detectors/MUON/MCH/Raw</text>
<text text-anchor="middle" x="1541.5" y="-102" font-family="Helvetica,sans-Serif" font-size="10.00" fill="#000000">/Encoder/Payload/testElinkEncoder.cxx</text>
</a>
</g>
</g>
<!-- Node15&#45;&gt;Node18 -->
<g id="edge19" class="edge">
<title>Node15&#45;&gt;Node18</title>
<path fill="none" stroke="#191970" d="M1520.2911,-185.2694C1524.4332,-172.7176 1529.0074,-158.8564 1532.8441,-147.2299"/>
<polygon fill="#191970" stroke="#191970" points="1516.8944,-184.3941 1517.0842,-194.9872 1523.5418,-186.5878 1516.8944,-184.3941"/>
</g>
<!-- Node19 -->
<g id="node18" class="node">
<title>Node19</title>
<g id="a_node18"><a xlink:href="../../d5/dd6/testGBTEncoder_8cxx.html" target="_top" xlink:title="/home/travis/build\l/AliceO2Group/AliceO2\l/Detectors/MUON/MCH/Raw\l/Encoder/Payload/testGBTEncoder.cxx">
<polygon fill="none" stroke="#000000" points="1589.5,-.5 1589.5,-52.5 1789.5,-52.5 1789.5,-.5 1589.5,-.5"/>
<text text-anchor="start" x="1597.5" y="-40.5" font-family="Helvetica,sans-Serif" font-size="10.00" fill="#000000">/home/travis/build</text>
<text text-anchor="start" x="1597.5" y="-29.5" font-family="Helvetica,sans-Serif" font-size="10.00" fill="#000000">/AliceO2Group/AliceO2</text>
<text text-anchor="start" x="1597.5" y="-18.5" font-family="Helvetica,sans-Serif" font-size="10.00" fill="#000000">/Detectors/MUON/MCH/Raw</text>
<text text-anchor="middle" x="1689.5" y="-7.5" font-family="Helvetica,sans-Serif" font-size="10.00" fill="#000000">/Encoder/Payload/testGBTEncoder.cxx</text>
</a>
</g>
</g>
<!-- Node15&#45;&gt;Node19 -->
<g id="edge20" class="edge">
<title>Node15&#45;&gt;Node19</title>
<path fill="none" stroke="#191970" d="M1433.2914,-189.5146C1418.9656,-179.9553 1405.855,-167.9165 1397.5,-153 1383.5997,-128.1833 1379.615,-111.1182 1397.5,-89 1421.4996,-59.3199 1514.4984,-43.1054 1589.1801,-34.6855"/>
<polygon fill="#191970" stroke="#191970" points="1431.5052,-192.5256 1441.8398,-194.8594 1435.2163,-186.5903 1431.5052,-192.5256"/>
</g>
<!-- Node21&#45;&gt;Node16 -->
<g id="edge23" class="edge">
<title>Node21&#45;&gt;Node16</title>
<path fill="none" stroke="#191970" d="M2011.3575,-88.925C1994.8112,-77.1685 1976.2914,-64.0097 1960.5369,-52.8157"/>
<polygon fill="#191970" stroke="#191970" points="2009.626,-91.9883 2019.8051,-94.9273 2013.6805,-86.2821 2009.626,-91.9883"/>
</g>
<!-- Node22&#45;&gt;Node19 -->
<g id="edge26" class="edge">
<title>Node22&#45;&gt;Node19</title>
<path fill="none" stroke="#191970" d="M1907.6717,-184.7283C1908.9671,-155.5644 1905.8338,-115.2613 1883.5,-89 1870.3759,-73.568 1830.1827,-59.4374 1789.76,-48.5313"/>
<polygon fill="#191970" stroke="#191970" points="1904.1653,-184.7197 1907.0215,-194.9223 1911.1511,-185.1654 1904.1653,-184.7197"/>
</g>
<!-- Node22&#45;&gt;Node21 -->
<g id="edge25" class="edge">
<title>Node22&#45;&gt;Node21</title>
<path fill="none" stroke="#191970" d="M1951.7278,-189.4786C1972.6177,-175.8251 1996.7806,-160.0323 2016.6342,-147.0561"/>
<polygon fill="#191970" stroke="#191970" points="1949.7553,-186.5864 1943.2995,-194.9872 1953.5851,-192.4459 1949.7553,-186.5864"/>
</g>
<!-- Node23&#45;&gt;Node16 -->
<g id="edge28" class="edge">
<title>Node23&#45;&gt;Node16</title>
<path fill="none" stroke="#191970" d="M1809.9278,-186.2089C1845.0102,-172.9306 1877.5073,-159.442 1883.5,-153 1909.386,-125.1733 1918.5202,-80.6662 1921.7431,-52.5407"/>
<polygon fill="#191970" stroke="#191970" points="1808.6086,-182.9655 1800.4779,-189.7583 1811.07,-189.5185 1808.6086,-182.9655"/>
</g>
<!-- Node23&#45;&gt;Node18 -->
<g id="edge32" class="edge">
<title>Node23&#45;&gt;Node18</title>
<path fill="none" stroke="#191970" d="M1649.5089,-184.1631C1628.4576,-171.8524 1605.4463,-158.3955 1586.0933,-147.078"/>
<polygon fill="#191970" stroke="#191970" points="1647.9954,-187.3325 1658.3945,-189.3594 1651.5291,-181.2899 1647.9954,-187.3325"/>
</g>
<!-- Node23&#45;&gt;Node19 -->
<g id="edge33" class="edge">
<title>Node23&#45;&gt;Node19</title>
<path fill="none" stroke="#191970" d="M1696.9454,-179.7534C1694.2867,-171.0383 1691.9255,-161.8105 1690.5,-153 1684.9577,-118.7447 1685.8758,-78.5869 1687.3909,-52.861"/>
<polygon fill="#191970" stroke="#191970" points="1693.6334,-180.8868 1700.0394,-189.3256 1700.2941,-178.7338 1693.6334,-180.8868"/>
</g>
<!-- Node24 -->
<g id="node23" class="node">
<title>Node24</title>
<g id="a_node23"><a xlink:href="../../d8/dc5/UserLogicElinkEncoderMerger_8h.html" target="_top" xlink:title="/home/travis/build\l/AliceO2Group/AliceO2\l/Detectors/MUON/MCH/Raw\l/Encoder/Payload/UserLogicElink\lEncoderMerger.h">
<polygon fill="none" stroke="#000000" points="1700,-89.5 1700,-152.5 1875,-152.5 1875,-89.5 1700,-89.5"/>
<text text-anchor="start" x="1708" y="-140.5" font-family="Helvetica,sans-Serif" font-size="10.00" fill="#000000">/home/travis/build</text>
<text text-anchor="start" x="1708" y="-129.5" font-family="Helvetica,sans-Serif" font-size="10.00" fill="#000000">/AliceO2Group/AliceO2</text>
<text text-anchor="start" x="1708" y="-118.5" font-family="Helvetica,sans-Serif" font-size="10.00" fill="#000000">/Detectors/MUON/MCH/Raw</text>
<text text-anchor="start" x="1708" y="-107.5" font-family="Helvetica,sans-Serif" font-size="10.00" fill="#000000">/Encoder/Payload/UserLogicElink</text>
<text text-anchor="middle" x="1787.5" y="-96.5" font-family="Helvetica,sans-Serif" font-size="10.00" fill="#000000">EncoderMerger.h</text>
</a>
</g>
</g>
<!-- Node23&#45;&gt;Node24 -->
<g id="edge29" class="edge">
<title>Node23&#45;&gt;Node24</title>
<path fill="none" stroke="#191970" d="M1742.3331,-181.2226C1749.4198,-171.7736 1756.8882,-161.8157 1763.6665,-152.778"/>
<polygon fill="#191970" stroke="#191970" points="1739.4305,-179.2593 1736.2305,-189.3594 1745.0305,-183.4594 1739.4305,-179.2593"/>
</g>
<!-- Node24&#45;&gt;Node16 -->
<g id="edge30" class="edge">
<title>Node24&#45;&gt;Node16</title>
<path fill="none" stroke="#191970" d="M1841.7455,-83.3074C1856.5356,-73.0304 1872.2316,-62.124 1885.8746,-52.6442"/>
<polygon fill="#191970" stroke="#191970" points="1839.3793,-80.6895 1833.1644,-89.27 1843.3737,-86.438 1839.3793,-80.6895"/>
</g>
<!-- Node24&#45;&gt;Node19 -->
<g id="edge31" class="edge">
<title>Node24&#45;&gt;Node19</title>
<path fill="none" stroke="#191970" d="M1747.2135,-82.1523C1736.9102,-72.217 1726.0759,-61.7696 1716.6125,-52.6442"/>
<polygon fill="#191970" stroke="#191970" points="1744.9668,-84.8481 1754.5948,-89.27 1749.8258,-79.8091 1744.9668,-84.8481"/>
</g>
</g>
</svg>
