<?xml version="1.0" encoding="UTF-8" standalone="no"?>
<!DOCTYPE svg PUBLIC "-//W3C//DTD SVG 1.1//EN"
 "http://www.w3.org/Graphics/SVG/1.1/DTD/svg11.dtd">
<!-- Generated by graphviz version 2.40.1 (20161225.0304)
 -->
<!-- Title: o2::raw::RawFileWriter::LinkData Pages: 1 -->
<!--zoomable 936 -->
<svg id="main" version="1.1" xmlns="http://www.w3.org/2000/svg" xmlns:xlink="http://www.w3.org/1999/xlink" xml:space="preserve" onload="init(evt)">
<style type="text/css"><![CDATA[
.edge:hover path { stroke: red; }
.edge:hover polygon { stroke: red; fill: red; }
]]></style>
<script type="text/javascript"><![CDATA[
var edges = document.getElementsByTagName('g');
if (edges && edges.length) {
  for (var i=0;i<edges.length;i++) {
    if (edges[i].id.substr(0,4)=='edge') {
      edges[i].setAttribute('class','edge');
    }
  }
}
]]></script>
        <defs>
                <circle id="rim" cx="0" cy="0" r="7"/>
                <circle id="rim2" cx="0" cy="0" r="3.5"/>
                <g id="zoomPlus">
                        <use xlink:href="#rim" fill="#404040">
                                <set attributeName="fill" to="#808080" begin="zoomplus.mouseover" end="zoomplus.mouseout"/>
                        </use>
                        <path d="M-4,0h8M0,-4v8" fill="none" stroke="white" stroke-width="1.5" pointer-events="none"/>
                </g>
                <g id="zoomMin">
                        <use xlink:href="#rim" fill="#404040">
                                <set attributeName="fill" to="#808080" begin="zoomminus.mouseover" end="zoomminus.mouseout"/>
                        </use>
                        <path d="M-4,0h8" fill="none" stroke="white" stroke-width="1.5" pointer-events="none"/>
                </g>
                <g id="dirArrow">
                        <path fill="none" stroke="white" stroke-width="1.5" d="M0,-3.0v7 M-2.5,-0.5L0,-3.0L2.5,-0.5"/>
                </g>
               <g id="resetDef">
                       <use xlink:href="#rim2" fill="#404040">
                               <set attributeName="fill" to="#808080" begin="reset.mouseover" end="reset.mouseout"/>
                       </use>
               </g>
        </defs>

<script type="text/javascript">
var viewWidth = 1269;
var viewHeight = 936;
var sectionId = 'dynsection-0';
</script>
<script xlink:href="../../svgpan.js"/>
<svg id="graph" class="graph">
<g id="viewport">
<title>o2::raw::RawFileWriter::LinkData</title>
<!-- Node1 -->
<g id="node1" class="node">
<title>Node1</title>
<polygon fill="#bfbfbf" stroke="#000000" points="645.4725,-.5 645.4725,-255.5 807.4725,-255.5 807.4725,-.5 645.4725,-.5"/>
<text text-anchor="start" x="653.4725" y="-243.5" font-family="Helvetica,sans-Serif" font-size="10.00" fill="#000000">o2::raw::RawFileWriter</text>
<text text-anchor="middle" x="726.4725" y="-232.5" font-family="Helvetica,sans-Serif" font-size="10.00" fill="#000000">::LinkData</text>
<polyline fill="none" stroke="#000000" points="645.4725,-225.5 807.4725,-225.5 "/>
<text text-anchor="middle" x="726.4725" y="-213.5" font-family="Helvetica,sans-Serif" font-size="10.00" fill="#000000"> </text>
<polyline fill="none" stroke="#000000" points="645.4725,-206.5 807.4725,-206.5 "/>
<text text-anchor="start" x="653.4725" y="-194.5" font-family="Helvetica,sans-Serif" font-size="10.00" fill="#000000">+ LinkData()</text>
<text text-anchor="start" x="653.4725" y="-183.5" font-family="Helvetica,sans-Serif" font-size="10.00" fill="#000000">+ ~LinkData()</text>
<text text-anchor="start" x="653.4725" y="-172.5" font-family="Helvetica,sans-Serif" font-size="10.00" fill="#000000">+ LinkData()</text>
<text text-anchor="start" x="653.4725" y="-161.5" font-family="Helvetica,sans-Serif" font-size="10.00" fill="#000000">+ operator=()</text>
<text text-anchor="start" x="653.4725" y="-150.5" font-family="Helvetica,sans-Serif" font-size="10.00" fill="#000000">+ close()</text>
<text text-anchor="start" x="653.4725" y="-139.5" font-family="Helvetica,sans-Serif" font-size="10.00" fill="#000000">+ print()</text>
<text text-anchor="start" x="653.4725" y="-128.5" font-family="Helvetica,sans-Serif" font-size="10.00" fill="#000000">+ addData()</text>
<text text-anchor="start" x="653.4725" y="-117.5" font-family="Helvetica,sans-Serif" font-size="10.00" fill="#000000">+ getLastRDH()</text>
<text text-anchor="start" x="653.4725" y="-106.5" font-family="Helvetica,sans-Serif" font-size="10.00" fill="#000000">+ describe()</text>
<text text-anchor="start" x="653.4725" y="-95.5" font-family="Helvetica,sans-Serif" font-size="10.00" fill="#000000"># openHBFPage()</text>
<text text-anchor="start" x="653.4725" y="-84.5" font-family="Helvetica,sans-Serif" font-size="10.00" fill="#000000"># addHBFPage()</text>
<text text-anchor="start" x="653.4725" y="-73.5" font-family="Helvetica,sans-Serif" font-size="10.00" fill="#000000"># closeHBFPage()</text>
<text text-anchor="start" x="653.4725" y="-62.5" font-family="Helvetica,sans-Serif" font-size="10.00" fill="#000000"># flushSuperPage()</text>
<text text-anchor="start" x="653.4725" y="-51.5" font-family="Helvetica,sans-Serif" font-size="10.00" fill="#000000"># fillEmptyHBHs()</text>
<text text-anchor="start" x="653.4725" y="-40.5" font-family="Helvetica,sans-Serif" font-size="10.00" fill="#000000"># addPreformattedCRUPage()</text>
<text text-anchor="start" x="653.4725" y="-29.5" font-family="Helvetica,sans-Serif" font-size="10.00" fill="#000000"># expandBufferBy()</text>
<text text-anchor="start" x="653.4725" y="-18.5" font-family="Helvetica,sans-Serif" font-size="10.00" fill="#000000"># pushBack()</text>
<text text-anchor="start" x="653.4725" y="-7.5" font-family="Helvetica,sans-Serif" font-size="10.00" fill="#000000"># pushBack()</text>
</g>
<!-- Node2 -->
<g id="node2" class="node">
<title>Node2</title>
<g id="a_node2"><a xlink:href="../../d1/d21/structo2_1_1InteractionRecord.html" target="_top" xlink:title="{o2::InteractionRecord\n||+ InteractionRecord()\l+ InteractionRecord()\l+ InteractionRecord()\l+ InteractionRecord()\l+ clear()\l+ isDummy()\l+ setFromNS()\l+ bc2ns()\l+ operator==()\l+ operator!=()\l+ differenceInBC()\l+ toLong()\l+ operator\&gt;()\l+ operator\&gt;=()\l+ operator\&lt;()\l+ operator\&lt;=()\l+ operator&#45;&#45;()\l+ operator&#45;&#45;()\l+ operator++()\l+ operator++()\l+ operator+=()\l+ operator&#45;=()\l+ operator+=()\l+ operator&#45;=()\l+ operator+()\l+ operator&#45;()\l+ operator+()\l+ operator&#45;()\l+ print()\l+ ClassDefNV()\l+ bc2ns()\l+ ns2bc()\l}">
<polygon fill="none" stroke="#000000" points="140.9725,-336.5 140.9725,-734.5 261.9725,-734.5 261.9725,-336.5 140.9725,-336.5"/>
<text text-anchor="middle" x="201.4725" y="-722.5" font-family="Helvetica,sans-Serif" font-size="10.00" fill="#000000">o2::InteractionRecord</text>
<polyline fill="none" stroke="#000000" points="140.9725,-715.5 261.9725,-715.5 "/>
<text text-anchor="middle" x="201.4725" y="-703.5" font-family="Helvetica,sans-Serif" font-size="10.00" fill="#000000"> </text>
<polyline fill="none" stroke="#000000" points="140.9725,-696.5 261.9725,-696.5 "/>
<text text-anchor="start" x="148.9725" y="-684.5" font-family="Helvetica,sans-Serif" font-size="10.00" fill="#000000">+ InteractionRecord()</text>
<text text-anchor="start" x="148.9725" y="-673.5" font-family="Helvetica,sans-Serif" font-size="10.00" fill="#000000">+ InteractionRecord()</text>
<text text-anchor="start" x="148.9725" y="-662.5" font-family="Helvetica,sans-Serif" font-size="10.00" fill="#000000">+ InteractionRecord()</text>
<text text-anchor="start" x="148.9725" y="-651.5" font-family="Helvetica,sans-Serif" font-size="10.00" fill="#000000">+ InteractionRecord()</text>
<text text-anchor="start" x="148.9725" y="-640.5" font-family="Helvetica,sans-Serif" font-size="10.00" fill="#000000">+ clear()</text>
<text text-anchor="start" x="148.9725" y="-629.5" font-family="Helvetica,sans-Serif" font-size="10.00" fill="#000000">+ isDummy()</text>
<text text-anchor="start" x="148.9725" y="-618.5" font-family="Helvetica,sans-Serif" font-size="10.00" fill="#000000">+ setFromNS()</text>
<text text-anchor="start" x="148.9725" y="-607.5" font-family="Helvetica,sans-Serif" font-size="10.00" fill="#000000">+ bc2ns()</text>
<text text-anchor="start" x="148.9725" y="-596.5" font-family="Helvetica,sans-Serif" font-size="10.00" fill="#000000">+ operator==()</text>
<text text-anchor="start" x="148.9725" y="-585.5" font-family="Helvetica,sans-Serif" font-size="10.00" fill="#000000">+ operator!=()</text>
<text text-anchor="start" x="148.9725" y="-574.5" font-family="Helvetica,sans-Serif" font-size="10.00" fill="#000000">+ differenceInBC()</text>
<text text-anchor="start" x="148.9725" y="-563.5" font-family="Helvetica,sans-Serif" font-size="10.00" fill="#000000">+ toLong()</text>
<text text-anchor="start" x="148.9725" y="-552.5" font-family="Helvetica,sans-Serif" font-size="10.00" fill="#000000">+ operator&gt;()</text>
<text text-anchor="start" x="148.9725" y="-541.5" font-family="Helvetica,sans-Serif" font-size="10.00" fill="#000000">+ operator&gt;=()</text>
<text text-anchor="start" x="148.9725" y="-530.5" font-family="Helvetica,sans-Serif" font-size="10.00" fill="#000000">+ operator&lt;()</text>
<text text-anchor="start" x="148.9725" y="-519.5" font-family="Helvetica,sans-Serif" font-size="10.00" fill="#000000">+ operator&lt;=()</text>
<text text-anchor="start" x="148.9725" y="-508.5" font-family="Helvetica,sans-Serif" font-size="10.00" fill="#000000">+ operator&#45;&#45;()</text>
<text text-anchor="start" x="148.9725" y="-497.5" font-family="Helvetica,sans-Serif" font-size="10.00" fill="#000000">+ operator&#45;&#45;()</text>
<text text-anchor="start" x="148.9725" y="-486.5" font-family="Helvetica,sans-Serif" font-size="10.00" fill="#000000">+ operator++()</text>
<text text-anchor="start" x="148.9725" y="-475.5" font-family="Helvetica,sans-Serif" font-size="10.00" fill="#000000">+ operator++()</text>
<text text-anchor="start" x="148.9725" y="-464.5" font-family="Helvetica,sans-Serif" font-size="10.00" fill="#000000">+ operator+=()</text>
<text text-anchor="start" x="148.9725" y="-453.5" font-family="Helvetica,sans-Serif" font-size="10.00" fill="#000000">+ operator&#45;=()</text>
<text text-anchor="start" x="148.9725" y="-442.5" font-family="Helvetica,sans-Serif" font-size="10.00" fill="#000000">+ operator+=()</text>
<text text-anchor="start" x="148.9725" y="-431.5" font-family="Helvetica,sans-Serif" font-size="10.00" fill="#000000">+ operator&#45;=()</text>
<text text-anchor="start" x="148.9725" y="-420.5" font-family="Helvetica,sans-Serif" font-size="10.00" fill="#000000">+ operator+()</text>
<text text-anchor="start" x="148.9725" y="-409.5" font-family="Helvetica,sans-Serif" font-size="10.00" fill="#000000">+ operator&#45;()</text>
<text text-anchor="start" x="148.9725" y="-398.5" font-family="Helvetica,sans-Serif" font-size="10.00" fill="#000000">+ operator+()</text>
<text text-anchor="start" x="148.9725" y="-387.5" font-family="Helvetica,sans-Serif" font-size="10.00" fill="#000000">+ operator&#45;()</text>
<text text-anchor="start" x="148.9725" y="-376.5" font-family="Helvetica,sans-Serif" font-size="10.00" fill="#000000">+ print()</text>
<text text-anchor="start" x="148.9725" y="-365.5" font-family="Helvetica,sans-Serif" font-size="10.00" fill="#000000">+ ClassDefNV()</text>
<text text-anchor="start" x="148.9725" y="-354.5" font-family="Helvetica,sans-Serif" font-size="10.00" fill="#000000">+ bc2ns()</text>
<text text-anchor="start" x="148.9725" y="-343.5" font-family="Helvetica,sans-Serif" font-size="10.00" fill="#000000">+ ns2bc()</text>
</a>
</g>
</g>
<!-- Node2&#45;&gt;Node1 -->
<g id="edge1" class="edge">
<title>Node2&#45;&gt;Node1</title>
<path fill="none" stroke="#404040" d="M229.1597,-336.4032C238.805,-313.4454 251.5842,-291.8933 268.4725,-274 318.6619,-220.8238 514.7333,-172.039 633.4586,-146.5489"/>
<polygon fill="none" stroke="#404040" points="633.671,-146.5038 638.7069,-141.3424 645.4082,-144.0058 640.3722,-149.1672 633.671,-146.5038"/>
<text text-anchor="middle" x="295.9725" y="-288" font-family="Helvetica,sans-Serif" font-size="10.00" fill="#000000"> +updateIR</text>
</g>
<!-- Node3 -->
<g id="node3" class="node">
<title>Node3</title>
<polygon fill="none" stroke="#bfbfbf" points="126.4725,-870.5 126.4725,-927.5 176.4725,-927.5 176.4725,-870.5 126.4725,-870.5"/>
<text text-anchor="middle" x="151.4725" y="-915.5" font-family="Helvetica,sans-Serif" font-size="10.00" fill="#000000">double</text>
<polyline fill="none" stroke="#bfbfbf" points="126.4725,-908.5 176.4725,-908.5 "/>
<text text-anchor="middle" x="151.4725" y="-896.5" font-family="Helvetica,sans-Serif" font-size="10.00" fill="#000000"> </text>
<polyline fill="none" stroke="#bfbfbf" points="126.4725,-889.5 176.4725,-889.5 "/>
<text text-anchor="middle" x="151.4725" y="-877.5" font-family="Helvetica,sans-Serif" font-size="10.00" fill="#000000"> </text>
</g>
<!-- Node3&#45;&gt;Node2 -->
<g id="edge2" class="edge">
<title>Node3&#45;&gt;Node2</title>
<path fill="none" stroke="#404040" d="M150.0042,-870.4579C148.9911,-843.0663 148.4576,-800.5782 152.4725,-764 153.1033,-758.253 153.8157,-752.4378 154.5987,-746.5798"/>
<polygon fill="none" stroke="#404040" points="154.6259,-746.386 151.5028,-739.8863 156.3014,-734.5035 159.4245,-741.0032 154.6259,-746.386"/>
<text text-anchor="middle" x="190.4725" y="-805.5" font-family="Helvetica,sans-Serif" font-size="10.00" fill="#000000"> +DummyTime</text>
</g>
<!-- Node4 -->
<g id="node4" class="node">
<title>Node4</title>
<polygon fill="none" stroke="#bfbfbf" points="20.4725,-870.5 20.4725,-927.5 76.4725,-927.5 76.4725,-870.5 20.4725,-870.5"/>
<text text-anchor="middle" x="48.4725" y="-915.5" font-family="Helvetica,sans-Serif" font-size="10.00" fill="#000000">uint16_t</text>
<polyline fill="none" stroke="#bfbfbf" points="20.4725,-908.5 76.4725,-908.5 "/>
<text text-anchor="middle" x="48.4725" y="-896.5" font-family="Helvetica,sans-Serif" font-size="10.00" fill="#000000"> </text>
<polyline fill="none" stroke="#bfbfbf" points="20.4725,-889.5 76.4725,-889.5 "/>
<text text-anchor="middle" x="48.4725" y="-877.5" font-family="Helvetica,sans-Serif" font-size="10.00" fill="#000000"> </text>
</g>
<!-- Node4&#45;&gt;Node1 -->
<g id="edge5" class="edge">
<title>Node4&#45;&gt;Node1</title>
<path fill="none" stroke="#404040" d="M39.8017,-870.3446C14.1452,-779.2663 -51.7203,-492.5723 79.4725,-325 148.2342,-237.1709 471.3078,-171.1993 633.3333,-143.0189"/>
<polygon fill="none" stroke="#404040" points="633.3628,-143.0139 638.5957,-138.0524 645.1883,-140.9745 639.9553,-145.936 633.3628,-143.0139"/>
<text text-anchor="middle" x="105.4725" y="-533" font-family="Helvetica,sans-Serif" font-size="10.00" fill="#000000"> +pageCnt</text>
</g>
<!-- Node4&#45;&gt;Node2 -->
<g id="edge3" class="edge">
<title>Node4&#45;&gt;Node2</title>
<path fill="none" stroke="#404040" d="M53.3479,-870.4714C58.575,-842.723 67.9841,-799.6555 81.4725,-764 96.0918,-725.355 115.7486,-684.9035 134.9171,-648.9607"/>
<polygon fill="none" stroke="#404040" points="135.1531,-648.5225 134.4771,-641.3431 140.8442,-637.9578 141.5202,-645.1372 135.1531,-648.5225"/>
<text text-anchor="middle" x="113.4725" y="-811" font-family="Helvetica,sans-Serif" font-size="10.00" fill="#000000"> +DummyBC</text>
<text text-anchor="middle" x="113.4725" y="-800" font-family="Helvetica,sans-Serif" font-size="10.00" fill="#000000">+bc</text>
</g>
<!-- Node5 -->
<g id="node5" class="node">
<title>Node5</title>
<g id="a_node5"><a xlink:href="../../d3/d87/classuint32__t.html" target="_top" xlink:title="{uint32_t\n||}">
<polygon fill="none" stroke="#000000" points="265.4725,-870.5 265.4725,-927.5 321.4725,-927.5 321.4725,-870.5 265.4725,-870.5"/>
<text text-anchor="middle" x="293.4725" y="-915.5" font-family="Helvetica,sans-Serif" font-size="10.00" fill="#000000">uint32_t</text>
<polyline fill="none" stroke="#000000" points="265.4725,-908.5 321.4725,-908.5 "/>
<text text-anchor="middle" x="293.4725" y="-896.5" font-family="Helvetica,sans-Serif" font-size="10.00" fill="#000000"> </text>
<polyline fill="none" stroke="#000000" points="265.4725,-889.5 321.4725,-889.5 "/>
<text text-anchor="middle" x="293.4725" y="-877.5" font-family="Helvetica,sans-Serif" font-size="10.00" fill="#000000"> </text>
</a>
</g>
</g>
<!-- Node5&#45;&gt;Node1 -->
<g id="edge11" class="edge">
<title>Node5&#45;&gt;Node1</title>
<path fill="none" stroke="#404040" d="M315.04,-870.3426C318.4446,-864.5356 321.4904,-858.2771 323.4725,-852 394.0671,-628.4358 220.3399,-522.6237 346.4725,-325 410.5303,-224.6347 543.261,-172.7324 633.6082,-147.9449"/>
<polygon fill="none" stroke="#404040" points="633.6413,-147.9361 638.4061,-142.5234 645.235,-144.8399 640.4703,-150.2526 633.6413,-147.9361"/>
<text text-anchor="middle" x="372.4725" y="-533" font-family="Helvetica,sans-Serif" font-size="10.00" fill="#000000"> +subspec</text>
</g>
<!-- Node5&#45;&gt;Node2 -->
<g id="edge4" class="edge">
<title>Node5&#45;&gt;Node2</title>
<path fill="none" stroke="#404040" d="M265.4507,-872.8587C260.0519,-866.5194 254.9904,-859.4151 251.4725,-852 241.7047,-831.4113 233.0679,-791.5843 225.8385,-746.9416"/>
<polygon fill="none" stroke="#404040" points="225.804,-746.7219 220.918,-741.4184 223.9344,-734.8684 228.8203,-740.172 225.804,-746.7219"/>
<text text-anchor="middle" x="287.4725" y="-811" font-family="Helvetica,sans-Serif" font-size="10.00" fill="#000000"> +orbit</text>
<text text-anchor="middle" x="287.4725" y="-800" font-family="Helvetica,sans-Serif" font-size="10.00" fill="#000000">+DummyOrbit</text>
</g>
<!-- Node6 -->
<g id="node6" class="node">
<title>Node6</title>
<g id="a_node6"><a xlink:href="../../d0/d0d/classo2_1_1raw_1_1RawFileWriter.html" target="_top" xlink:title="{o2::raw::RawFileWriter\n||+ RawFileWriter()\l+ ~RawFileWriter()\l+ writeConfFile()\l+ close()\l+ registerLink()\l+ registerLink()\l+ setOrigin()\l+ getOrigin()\l+ getLinkWithSubSpec()\l+ getLinkWithSubSpec()\l+ addData()\l+ addData()\l+ setContinuousReadout()\l+ setTriggeredReadout()\l+ isContinuousReadout()\l+ isTriggeredReadout()\l+ isReadOutModeSet()\l+ isLinkRegistered()\l+ setVerbosity()\l+ getVerbosity()\l+ getNOutputFiles()\l+ getOutputFileName()\l+ getSuperPageSize()\l+ setSuperPageSize()\l+ getIRMax()\l+ getHBFUtils()\l+ setCarryOverCallBack()\l+ setEmptyPageCallBack()\l+ carryOverMethod()\l+ emptyHBFMethod()\l+ getUsedRDHVersion()\l+ useRDHVersion()\l+ getDontFillEmptyHBF()\l+ setDontFillEmptyHBF()\l}">
<polygon fill="none" stroke="#000000" points="407.4725,-325.5 407.4725,-745.5 555.4725,-745.5 555.4725,-325.5 407.4725,-325.5"/>
<text text-anchor="middle" x="481.4725" y="-733.5" font-family="Helvetica,sans-Serif" font-size="10.00" fill="#000000">o2::raw::RawFileWriter</text>
<polyline fill="none" stroke="#000000" points="407.4725,-726.5 555.4725,-726.5 "/>
<text text-anchor="middle" x="481.4725" y="-714.5" font-family="Helvetica,sans-Serif" font-size="10.00" fill="#000000"> </text>
<polyline fill="none" stroke="#000000" points="407.4725,-707.5 555.4725,-707.5 "/>
<text text-anchor="start" x="415.4725" y="-695.5" font-family="Helvetica,sans-Serif" font-size="10.00" fill="#000000">+ RawFileWriter()</text>
<text text-anchor="start" x="415.4725" y="-684.5" font-family="Helvetica,sans-Serif" font-size="10.00" fill="#000000">+ ~RawFileWriter()</text>
<text text-anchor="start" x="415.4725" y="-673.5" font-family="Helvetica,sans-Serif" font-size="10.00" fill="#000000">+ writeConfFile()</text>
<text text-anchor="start" x="415.4725" y="-662.5" font-family="Helvetica,sans-Serif" font-size="10.00" fill="#000000">+ close()</text>
<text text-anchor="start" x="415.4725" y="-651.5" font-family="Helvetica,sans-Serif" font-size="10.00" fill="#000000">+ registerLink()</text>
<text text-anchor="start" x="415.4725" y="-640.5" font-family="Helvetica,sans-Serif" font-size="10.00" fill="#000000">+ registerLink()</text>
<text text-anchor="start" x="415.4725" y="-629.5" font-family="Helvetica,sans-Serif" font-size="10.00" fill="#000000">+ setOrigin()</text>
<text text-anchor="start" x="415.4725" y="-618.5" font-family="Helvetica,sans-Serif" font-size="10.00" fill="#000000">+ getOrigin()</text>
<text text-anchor="start" x="415.4725" y="-607.5" font-family="Helvetica,sans-Serif" font-size="10.00" fill="#000000">+ getLinkWithSubSpec()</text>
<text text-anchor="start" x="415.4725" y="-596.5" font-family="Helvetica,sans-Serif" font-size="10.00" fill="#000000">+ getLinkWithSubSpec()</text>
<text text-anchor="start" x="415.4725" y="-585.5" font-family="Helvetica,sans-Serif" font-size="10.00" fill="#000000">+ addData()</text>
<text text-anchor="start" x="415.4725" y="-574.5" font-family="Helvetica,sans-Serif" font-size="10.00" fill="#000000">+ addData()</text>
<text text-anchor="start" x="415.4725" y="-563.5" font-family="Helvetica,sans-Serif" font-size="10.00" fill="#000000">+ setContinuousReadout()</text>
<text text-anchor="start" x="415.4725" y="-552.5" font-family="Helvetica,sans-Serif" font-size="10.00" fill="#000000">+ setTriggeredReadout()</text>
<text text-anchor="start" x="415.4725" y="-541.5" font-family="Helvetica,sans-Serif" font-size="10.00" fill="#000000">+ isContinuousReadout()</text>
<text text-anchor="start" x="415.4725" y="-530.5" font-family="Helvetica,sans-Serif" font-size="10.00" fill="#000000">+ isTriggeredReadout()</text>
<text text-anchor="start" x="415.4725" y="-519.5" font-family="Helvetica,sans-Serif" font-size="10.00" fill="#000000">+ isReadOutModeSet()</text>
<text text-anchor="start" x="415.4725" y="-508.5" font-family="Helvetica,sans-Serif" font-size="10.00" fill="#000000">+ isLinkRegistered()</text>
<text text-anchor="start" x="415.4725" y="-497.5" font-family="Helvetica,sans-Serif" font-size="10.00" fill="#000000">+ setVerbosity()</text>
<text text-anchor="start" x="415.4725" y="-486.5" font-family="Helvetica,sans-Serif" font-size="10.00" fill="#000000">+ getVerbosity()</text>
<text text-anchor="start" x="415.4725" y="-475.5" font-family="Helvetica,sans-Serif" font-size="10.00" fill="#000000">+ getNOutputFiles()</text>
<text text-anchor="start" x="415.4725" y="-464.5" font-family="Helvetica,sans-Serif" font-size="10.00" fill="#000000">+ getOutputFileName()</text>
<text text-anchor="start" x="415.4725" y="-453.5" font-family="Helvetica,sans-Serif" font-size="10.00" fill="#000000">+ getSuperPageSize()</text>
<text text-anchor="start" x="415.4725" y="-442.5" font-family="Helvetica,sans-Serif" font-size="10.00" fill="#000000">+ setSuperPageSize()</text>
<text text-anchor="start" x="415.4725" y="-431.5" font-family="Helvetica,sans-Serif" font-size="10.00" fill="#000000">+ getIRMax()</text>
<text text-anchor="start" x="415.4725" y="-420.5" font-family="Helvetica,sans-Serif" font-size="10.00" fill="#000000">+ getHBFUtils()</text>
<text text-anchor="start" x="415.4725" y="-409.5" font-family="Helvetica,sans-Serif" font-size="10.00" fill="#000000">+ setCarryOverCallBack()</text>
<text text-anchor="start" x="415.4725" y="-398.5" font-family="Helvetica,sans-Serif" font-size="10.00" fill="#000000">+ setEmptyPageCallBack()</text>
<text text-anchor="start" x="415.4725" y="-387.5" font-family="Helvetica,sans-Serif" font-size="10.00" fill="#000000">+ carryOverMethod()</text>
<text text-anchor="start" x="415.4725" y="-376.5" font-family="Helvetica,sans-Serif" font-size="10.00" fill="#000000">+ emptyHBFMethod()</text>
<text text-anchor="start" x="415.4725" y="-365.5" font-family="Helvetica,sans-Serif" font-size="10.00" fill="#000000">+ getUsedRDHVersion()</text>
<text text-anchor="start" x="415.4725" y="-354.5" font-family="Helvetica,sans-Serif" font-size="10.00" fill="#000000">+ useRDHVersion()</text>
<text text-anchor="start" x="415.4725" y="-343.5" font-family="Helvetica,sans-Serif" font-size="10.00" fill="#000000">+ getDontFillEmptyHBF()</text>
<text text-anchor="start" x="415.4725" y="-332.5" font-family="Helvetica,sans-Serif" font-size="10.00" fill="#000000">+ setDontFillEmptyHBF()</text>
</a>
</g>
</g>
<!-- Node6&#45;&gt;Node1 -->
<g id="edge6" class="edge">
<title>Node6&#45;&gt;Node1</title>
<path fill="none" stroke="#404040" d="M528.7255,-325.4297C536.3714,-307.4146 545.2255,-289.989 555.4725,-274 576.2842,-241.5262 606.5043,-212.3705 635.7699,-188.8091"/>
<polygon fill="none" stroke="#404040" points="635.7996,-188.7858 638.0366,-181.9305 645.2251,-181.3588 642.988,-188.2141 635.7996,-188.7858"/>
<text text-anchor="middle" x="575.4725" y="-288" font-family="Helvetica,sans-Serif" font-size="10.00" fill="#000000"> +writer</text>
</g>
<!-- Node7 -->
<g id="node7" class="node">
<title>Node7</title>
<polygon fill="none" stroke="#bfbfbf" points="573.4725,-507 573.4725,-564 623.4725,-564 623.4725,-507 573.4725,-507"/>
<text text-anchor="middle" x="598.4725" y="-552" font-family="Helvetica,sans-Serif" font-size="10.00" fill="#000000">uint8_t</text>
<polyline fill="none" stroke="#bfbfbf" points="573.4725,-545 623.4725,-545 "/>
<text text-anchor="middle" x="598.4725" y="-533" font-family="Helvetica,sans-Serif" font-size="10.00" fill="#000000"> </text>
<polyline fill="none" stroke="#bfbfbf" points="573.4725,-526 623.4725,-526 "/>
<text text-anchor="middle" x="598.4725" y="-514" font-family="Helvetica,sans-Serif" font-size="10.00" fill="#000000"> </text>
</g>
<!-- Node7&#45;&gt;Node1 -->
<g id="edge7" class="edge">
<title>Node7&#45;&gt;Node1</title>
<path fill="none" stroke="#404040" d="M593.6868,-506.8738C586.6731,-457.5036 577.4572,-353.9528 607.4725,-274 614.726,-254.6785 625.6359,-236.01 637.9584,-218.8469"/>
<polygon fill="none" stroke="#404040" points="638.1861,-218.5415 638.5665,-211.3404 645.3599,-208.9219 644.9795,-216.123 638.1861,-218.5415"/>
<text text-anchor="middle" x="648.9725" y="-288" font-family="Helvetica,sans-Serif" font-size="10.00" fill="#000000"> +packetCounter</text>
</g>
<!-- Node8 -->
<g id="node8" class="node">
<title>Node8</title>
<polygon fill="none" stroke="#bfbfbf" points="641.9725,-507 641.9725,-564 732.9725,-564 732.9725,-507 641.9725,-507"/>
<text text-anchor="middle" x="687.4725" y="-552" font-family="Helvetica,sans-Serif" font-size="10.00" fill="#000000">vector&lt; char &gt;</text>
<polyline fill="none" stroke="#bfbfbf" points="641.9725,-545 732.9725,-545 "/>
<text text-anchor="middle" x="687.4725" y="-533" font-family="Helvetica,sans-Serif" font-size="10.00" fill="#000000"> </text>
<polyline fill="none" stroke="#bfbfbf" points="641.9725,-526 732.9725,-526 "/>
<text text-anchor="middle" x="687.4725" y="-514" font-family="Helvetica,sans-Serif" font-size="10.00" fill="#000000"> </text>
</g>
<!-- Node8&#45;&gt;Node1 -->
<g id="edge8" class="edge">
<title>Node8&#45;&gt;Node1</title>
<path fill="none" stroke="#404040" d="M686.8871,-506.7454C686.2562,-458.4647 686.4541,-358.1254 696.4725,-274 696.7197,-271.9243 696.9811,-269.8342 697.2557,-267.7328"/>
<polygon fill="none" stroke="#404040" points="697.2918,-267.476 694.1669,-260.9771 698.9639,-255.593 702.0888,-262.0919 697.2918,-267.476"/>
<text text-anchor="middle" x="716.4725" y="-288" font-family="Helvetica,sans-Serif" font-size="10.00" fill="#000000"> +buffer</text>
</g>
<!-- Node9 -->
<g id="node9" class="node">
<title>Node9</title>
<polygon fill="none" stroke="#bfbfbf" points="751.4725,-507 751.4725,-564 799.4725,-564 799.4725,-507 751.4725,-507"/>
<text text-anchor="middle" x="775.4725" y="-552" font-family="Helvetica,sans-Serif" font-size="10.00" fill="#000000">mutex</text>
<polyline fill="none" stroke="#bfbfbf" points="751.4725,-545 799.4725,-545 "/>
<text text-anchor="middle" x="775.4725" y="-533" font-family="Helvetica,sans-Serif" font-size="10.00" fill="#000000"> </text>
<polyline fill="none" stroke="#bfbfbf" points="751.4725,-526 799.4725,-526 "/>
<text text-anchor="middle" x="775.4725" y="-514" font-family="Helvetica,sans-Serif" font-size="10.00" fill="#000000"> </text>
</g>
<!-- Node9&#45;&gt;Node1 -->
<g id="edge9" class="edge">
<title>Node9&#45;&gt;Node1</title>
<path fill="none" stroke="#404040" d="M772.0269,-506.8454C766.1181,-457.7062 753.6848,-354.3067 743.2983,-267.929"/>
<polygon fill="none" stroke="#404040" points="743.2799,-267.7753 738.5922,-262.2958 741.8472,-255.8611 746.5349,-261.3406 743.2799,-267.7753"/>
<text text-anchor="middle" x="762.9725" y="-288" font-family="Helvetica,sans-Serif" font-size="10.00" fill="#000000"> +mtx</text>
</g>
<!-- Node10 -->
<g id="node10" class="node">
<title>Node10</title>
<polygon fill="none" stroke="#bfbfbf" points="817.9725,-507 817.9725,-564 862.9725,-564 862.9725,-507 817.9725,-507"/>
<text text-anchor="middle" x="840.4725" y="-552" font-family="Helvetica,sans-Serif" font-size="10.00" fill="#000000">size_t</text>
<polyline fill="none" stroke="#bfbfbf" points="817.9725,-545 862.9725,-545 "/>
<text text-anchor="middle" x="840.4725" y="-533" font-family="Helvetica,sans-Serif" font-size="10.00" fill="#000000"> </text>
<polyline fill="none" stroke="#bfbfbf" points="817.9725,-526 862.9725,-526 "/>
<text text-anchor="middle" x="840.4725" y="-514" font-family="Helvetica,sans-Serif" font-size="10.00" fill="#000000"> </text>
</g>
<!-- Node10&#45;&gt;Node1 -->
<g id="edge10" class="edge">
<title>Node10&#45;&gt;Node1</title>
<path fill="none" stroke="#404040" d="M838.3351,-506.7763C834.7881,-465.8154 826.2404,-388.5452 808.4725,-325 803.1354,-305.9125 796.4478,-286.1992 789.2072,-266.9551"/>
<polygon fill="none" stroke="#404040" points="789.1828,-266.8915 783.2997,-262.7215 784.8861,-255.687 790.7693,-259.857 789.1828,-266.8915"/>
<text text-anchor="middle" x="841.4725" y="-299" font-family="Helvetica,sans-Serif" font-size="10.00" fill="#000000"> +nRDHWritten</text>
<text text-anchor="middle" x="841.4725" y="-288" font-family="Helvetica,sans-Serif" font-size="10.00" fill="#000000">+nBytesWritten</text>
<text text-anchor="middle" x="841.4725" y="-277" font-family="Helvetica,sans-Serif" font-size="10.00" fill="#000000">+nTFWritten</text>
</g>
<!-- Node11 -->
<g id="node11" class="node">
<title>Node11</title>
<polygon fill="none" stroke="#bfbfbf" points="898.9725,-507 898.9725,-564 927.9725,-564 927.9725,-507 898.9725,-507"/>
<text text-anchor="middle" x="913.4725" y="-552" font-family="Helvetica,sans-Serif" font-size="10.00" fill="#000000">int</text>
<polyline fill="none" stroke="#bfbfbf" points="898.9725,-545 927.9725,-545 "/>
<text text-anchor="middle" x="913.4725" y="-533" font-family="Helvetica,sans-Serif" font-size="10.00" fill="#000000"> </text>
<polyline fill="none" stroke="#bfbfbf" points="898.9725,-526 927.9725,-526 "/>
<text text-anchor="middle" x="913.4725" y="-514" font-family="Helvetica,sans-Serif" font-size="10.00" fill="#000000"> </text>
</g>
<!-- Node11&#45;&gt;Node1 -->
<g id="edge12" class="edge">
<title>Node11&#45;&gt;Node1</title>
<path fill="none" stroke="#404040" d="M916.5501,-506.9754C920.6498,-456.8698 923.3894,-351.0614 884.4725,-274 868.5835,-242.5375 842.9373,-214.4307 816.887,-191.4812"/>
<polygon fill="none" stroke="#404040" points="816.7822,-191.3914 809.6235,-190.5236 807.6712,-183.5817 814.8299,-184.4496 816.7822,-191.3914"/>
<text text-anchor="middle" x="936.4725" y="-299" font-family="Helvetica,sans-Serif" font-size="10.00" fill="#000000"> +counter</text>
<text text-anchor="middle" x="936.4725" y="-288" font-family="Helvetica,sans-Serif" font-size="10.00" fill="#000000">+lastRDHoffset</text>
<text text-anchor="middle" x="936.4725" y="-277" font-family="Helvetica,sans-Serif" font-size="10.00" fill="#000000">+fileName</text>
</g>
<!-- Node12 -->
<g id="node12" class="node">
<title>Node12</title>
<polygon fill="none" stroke="#bfbfbf" points="993.4725,-507 993.4725,-564 1031.4725,-564 1031.4725,-507 993.4725,-507"/>
<text text-anchor="middle" x="1012.4725" y="-552" font-family="Helvetica,sans-Serif" font-size="10.00" fill="#000000">bool</text>
<polyline fill="none" stroke="#bfbfbf" points="993.4725,-545 1031.4725,-545 "/>
<text text-anchor="middle" x="1012.4725" y="-533" font-family="Helvetica,sans-Serif" font-size="10.00" fill="#000000"> </text>
<polyline fill="none" stroke="#bfbfbf" points="993.4725,-526 1031.4725,-526 "/>
<text text-anchor="middle" x="1012.4725" y="-514" font-family="Helvetica,sans-Serif" font-size="10.00" fill="#000000"> </text>
</g>
<!-- Node12&#45;&gt;Node1 -->
<g id="edge13" class="edge">
<title>Node12&#45;&gt;Node1</title>
<path fill="none" stroke="#404040" d="M1016.4719,-506.7554C1022.0612,-455.3767 1026.6859,-346.4004 978.4725,-274 941.1103,-217.8946 874.3209,-180.6301 818.8858,-157.7986"/>
<polygon fill="none" stroke="#404040" points="818.7446,-157.7422 811.6879,-159.2267 807.6035,-153.2839 814.6601,-151.7993 818.7446,-157.7422"/>
<text text-anchor="middle" x="1027.4725" y="-288" font-family="Helvetica,sans-Serif" font-size="10.00" fill="#000000"> +startOfRun</text>
</g>
<!-- Node13 -->
<g id="node13" class="node">
<title>Node13</title>
<polygon fill="none" stroke="#bfbfbf" points="1077.4725,-507 1077.4725,-564 1121.4725,-564 1121.4725,-507 1077.4725,-507"/>
<text text-anchor="middle" x="1099.4725" y="-552" font-family="Helvetica,sans-Serif" font-size="10.00" fill="#000000">static</text>
<polyline fill="none" stroke="#bfbfbf" points="1077.4725,-545 1121.4725,-545 "/>
<text text-anchor="middle" x="1099.4725" y="-533" font-family="Helvetica,sans-Serif" font-size="10.00" fill="#000000"> </text>
<polyline fill="none" stroke="#bfbfbf" points="1077.4725,-526 1121.4725,-526 "/>
<text text-anchor="middle" x="1099.4725" y="-514" font-family="Helvetica,sans-Serif" font-size="10.00" fill="#000000"> </text>
</g>
<!-- Node13&#45;&gt;Node1 -->
<g id="edge14" class="edge">
<title>Node13&#45;&gt;Node1</title>
<path fill="none" stroke="#404040" d="M1103.9253,-506.9685C1110.3905,-454.9671 1116.4022,-343.714 1063.4725,-274 1004.9774,-196.9559 897.4578,-159.9525 819.5637,-142.5898"/>
<polygon fill="none" stroke="#404040" points="819.5455,-142.5859 812.8399,-145.2381 807.8126,-140.0684 814.5182,-137.4162 819.5455,-142.5859"/>
<text text-anchor="middle" x="1122.9725" y="-288" font-family="Helvetica,sans-Serif" font-size="10.00" fill="#000000"> +MarginToFlush</text>
</g>
<!-- Node14 -->
<g id="node14" class="node">
<title>Node14</title>
<g id="a_node14"><a xlink:href="../../d3/d22/structo2_1_1header_1_1RDHAny.html" target="_top" xlink:title="{o2::header::RDHAny\n||+ RDHAny()\l+ RDHAny()\l+ operator=()\l+ GPUhdi()\l+ GPUhdi()\l+ GPUhdi()\l+ GPUhdi()\l+ GPUhdi()\l+ GPUhdi()\l+ GPUhdi()\l+ GPUhdi()\l# copyFrom()\l}">
<polygon fill="none" stroke="#000000" points="1145.9725,-446.5 1145.9725,-624.5 1260.9725,-624.5 1260.9725,-446.5 1145.9725,-446.5"/>
<text text-anchor="middle" x="1203.4725" y="-612.5" font-family="Helvetica,sans-Serif" font-size="10.00" fill="#000000">o2::header::RDHAny</text>
<polyline fill="none" stroke="#000000" points="1145.9725,-605.5 1260.9725,-605.5 "/>
<text text-anchor="middle" x="1203.4725" y="-593.5" font-family="Helvetica,sans-Serif" font-size="10.00" fill="#000000"> </text>
<polyline fill="none" stroke="#000000" points="1145.9725,-586.5 1260.9725,-586.5 "/>
<text text-anchor="start" x="1153.9725" y="-574.5" font-family="Helvetica,sans-Serif" font-size="10.00" fill="#000000">+ RDHAny()</text>
<text text-anchor="start" x="1153.9725" y="-563.5" font-family="Helvetica,sans-Serif" font-size="10.00" fill="#000000">+ RDHAny()</text>
<text text-anchor="start" x="1153.9725" y="-552.5" font-family="Helvetica,sans-Serif" font-size="10.00" fill="#000000">+ operator=()</text>
<text text-anchor="start" x="1153.9725" y="-541.5" font-family="Helvetica,sans-Serif" font-size="10.00" fill="#000000">+ GPUhdi()</text>
<text text-anchor="start" x="1153.9725" y="-530.5" font-family="Helvetica,sans-Serif" font-size="10.00" fill="#000000">+ GPUhdi()</text>
<text text-anchor="start" x="1153.9725" y="-519.5" font-family="Helvetica,sans-Serif" font-size="10.00" fill="#000000">+ GPUhdi()</text>
<text text-anchor="start" x="1153.9725" y="-508.5" font-family="Helvetica,sans-Serif" font-size="10.00" fill="#000000">+ GPUhdi()</text>
<text text-anchor="start" x="1153.9725" y="-497.5" font-family="Helvetica,sans-Serif" font-size="10.00" fill="#000000">+ GPUhdi()</text>
<text text-anchor="start" x="1153.9725" y="-486.5" font-family="Helvetica,sans-Serif" font-size="10.00" fill="#000000">+ GPUhdi()</text>
<text text-anchor="start" x="1153.9725" y="-475.5" font-family="Helvetica,sans-Serif" font-size="10.00" fill="#000000">+ GPUhdi()</text>
<text text-anchor="start" x="1153.9725" y="-464.5" font-family="Helvetica,sans-Serif" font-size="10.00" fill="#000000">+ GPUhdi()</text>
<text text-anchor="start" x="1153.9725" y="-453.5" font-family="Helvetica,sans-Serif" font-size="10.00" fill="#000000"># copyFrom()</text>
</a>
</g>
</g>
<!-- Node14&#45;&gt;Node1 -->
<g id="edge15" class="edge">
<title>Node14&#45;&gt;Node1</title>
<path fill="none" stroke="#404040" d="M1213.4899,-446.4104C1214.8005,-390.9006 1206.8214,-321.2947 1167.4725,-274 1122.636,-220.1096 935.3213,-172.082 819.7173,-146.8069"/>
<polygon fill="none" stroke="#404040" points="819.451,-146.7493 812.7403,-149.3889 807.7227,-144.2097 814.4334,-141.5701 819.451,-146.7493"/>
<text text-anchor="middle" x="1213.4725" y="-288" font-family="Helvetica,sans-Serif" font-size="10.00" fill="#000000"> +rdhCopy</text>
</g>
<!-- Node15 -->
<g id="node15" class="node">
<title>Node15</title>
<g id="a_node15"><a xlink:href="../../d6/d30/classuint64__t.html" target="_top" xlink:title="{uint64_t\n||}">
<polygon fill="none" stroke="#000000" points="1175.4725,-870.5 1175.4725,-927.5 1231.4725,-927.5 1231.4725,-870.5 1175.4725,-870.5"/>
<text text-anchor="middle" x="1203.4725" y="-915.5" font-family="Helvetica,sans-Serif" font-size="10.00" fill="#000000">uint64_t</text>
<polyline fill="none" stroke="#000000" points="1175.4725,-908.5 1231.4725,-908.5 "/>
<text text-anchor="middle" x="1203.4725" y="-896.5" font-family="Helvetica,sans-Serif" font-size="10.00" fill="#000000"> </text>
<polyline fill="none" stroke="#000000" points="1175.4725,-889.5 1231.4725,-889.5 "/>
<text text-anchor="middle" x="1203.4725" y="-877.5" font-family="Helvetica,sans-Serif" font-size="10.00" fill="#000000"> </text>
</a>
</g>
</g>
<!-- Node15&#45;&gt;Node14 -->
<g id="edge16" class="edge">
<title>Node15&#45;&gt;Node14</title>
<path fill="none" stroke="#404040" d="M1203.4725,-870.4768C1203.4725,-820.8306 1203.4725,-716.2737 1203.4725,-637.0958"/>
<polygon fill="none" stroke="#404040" points="1203.4726,-636.6184 1199.4725,-630.6185 1203.4725,-624.6184 1207.4725,-630.6184 1203.4726,-636.6184"/>
<text text-anchor="middle" x="1224.4725" y="-844" font-family="Helvetica,sans-Serif" font-size="10.00" fill="#000000"> +word7</text>
<text text-anchor="middle" x="1224.4725" y="-833" font-family="Helvetica,sans-Serif" font-size="10.00" fill="#000000">+word0</text>
<text text-anchor="middle" x="1224.4725" y="-822" font-family="Helvetica,sans-Serif" font-size="10.00" fill="#000000">+word1</text>
<text text-anchor="middle" x="1224.4725" y="-811" font-family="Helvetica,sans-Serif" font-size="10.00" fill="#000000">+word2</text>
<text text-anchor="middle" x="1224.4725" y="-800" font-family="Helvetica,sans-Serif" font-size="10.00" fill="#000000">+word3</text>
<text text-anchor="middle" x="1224.4725" y="-789" font-family="Helvetica,sans-Serif" font-size="10.00" fill="#000000">+word4</text>
<text text-anchor="middle" x="1224.4725" y="-778" font-family="Helvetica,sans-Serif" font-size="10.00" fill="#000000">+word5</text>
<text text-anchor="middle" x="1224.4725" y="-767" font-family="Helvetica,sans-Serif" font-size="10.00" fill="#000000">+word6</text>
</g>
</g>
</svg>
        <g id="navigator" transform="translate(0 0)" fill="#404254">
                <rect fill="#f2f5e9" fill-opacity="0.5" stroke="#606060" stroke-width=".5" x="0" y="0" width="60" height="60"/>
                <use id="zoomplus" xlink:href="#zoomPlus" x="17" y="9" onmousedown="handleZoom(evt,'in')"/>
                <use id="zoomminus" xlink:href="#zoomMin" x="42" y="9" onmousedown="handleZoom(evt,'out')"/>
                <use id="reset" xlink:href="#resetDef" x="30" y="36" onmousedown="handleReset()"/>
                <g id="arrowUp" xlink:href="#dirArrow" transform="translate(30 24)" onmousedown="handlePan(0,-1)">
                  <use xlink:href="#rim" fill="#404040">
                        <set attributeName="fill" to="#808080" begin="arrowUp.mouseover" end="arrowUp.mouseout"/>
                  </use>
                  <path fill="none" stroke="white" stroke-width="1.5" d="M0,-3.0v7 M-2.5,-0.5L0,-3.0L2.5,-0.5"/>
                </g>
                <g id="arrowRight" xlink:href="#dirArrow" transform="rotate(90) translate(36 -43)" onmousedown="handlePan(1,0)">
                  <use xlink:href="#rim" fill="#404040">
                        <set attributeName="fill" to="#808080" begin="arrowRight.mouseover" end="arrowRight.mouseout"/>
                  </use>
                  <path fill="none" stroke="white" stroke-width="1.5" d="M0,-3.0v7 M-2.5,-0.5L0,-3.0L2.5,-0.5"/>
                </g>
                <g id="arrowDown" xlink:href="#dirArrow" transform="rotate(180) translate(-30 -48)" onmousedown="handlePan(0,1)">
                  <use xlink:href="#rim" fill="#404040">
                        <set attributeName="fill" to="#808080" begin="arrowDown.mouseover" end="arrowDown.mouseout"/>
                  </use>
                  <path fill="none" stroke="white" stroke-width="1.5" d="M0,-3.0v7 M-2.5,-0.5L0,-3.0L2.5,-0.5"/>
                </g>
                <g id="arrowLeft" xlink:href="#dirArrow" transform="rotate(270) translate(-36 17)" onmousedown="handlePan(-1,0)">
                  <use xlink:href="#rim" fill="#404040">
                        <set attributeName="fill" to="#808080" begin="arrowLeft.mouseover" end="arrowLeft.mouseout"/>
                  </use>
                  <path fill="none" stroke="white" stroke-width="1.5" d="M0,-3.0v7 M-2.5,-0.5L0,-3.0L2.5,-0.5"/>
                </g>
        </g>
        <svg viewBox="0 0 15 15" width="100%" height="30px" preserveAspectRatio="xMaxYMin meet">
         <g id="arrow_out" transform="scale(0.3 0.3)">
          <a xlink:href="structo2_1_1raw_1_1RawFileWriter_1_1LinkData__coll__graph_org.svg" target="_base">
           <rect id="button" ry="5" rx="5" y="6" x="6" height="38" width="38"
                fill="#f2f5e9" fill-opacity="0.5" stroke="#606060" stroke-width="1.0"/>
           <path id="arrow"
             d="M 11.500037,31.436501 C 11.940474,20.09759 22.043105,11.32322 32.158766,21.979434 L 37.068811,17.246167 C 37.068811,17.246167 37.088388,32 37.088388,32 L 22.160133,31.978069 C 22.160133,31.978069 26.997745,27.140456 26.997745,27.140456 C 18.528582,18.264221 13.291696,25.230495 11.500037,31.436501 z"
             style="fill:#404040;"/>
          </a>
         </g>
        </svg>
</svg>
