<?xml version="1.0" encoding="UTF-8" standalone="no"?>
<!DOCTYPE svg PUBLIC "-//W3C//DTD SVG 1.1//EN"
 "http://www.w3.org/Graphics/SVG/1.1/DTD/svg11.dtd">
<!-- Generated by graphviz version 2.40.1 (20161225.0304)
 -->
<!-- Title: /home/travis/build/AliceO2Group/AliceO2/Detectors/MUON/MCH/Raw/Decoder/src/BareGBTDecoder.h Pages: 1 -->
<!--zoomable 363 -->
<svg id="main" version="1.1" xmlns="http://www.w3.org/2000/svg" xmlns:xlink="http://www.w3.org/1999/xlink" xml:space="preserve" onload="init(evt)">
<style type="text/css"><![CDATA[
.edge:hover path { stroke: red; }
.edge:hover polygon { stroke: red; fill: red; }
]]></style>
<script type="text/javascript"><![CDATA[
var edges = document.getElementsByTagName('g');
if (edges && edges.length) {
  for (var i=0;i<edges.length;i++) {
    if (edges[i].id.substr(0,4)=='edge') {
      edges[i].setAttribute('class','edge');
    }
  }
}
]]></script>
        <defs>
                <circle id="rim" cx="0" cy="0" r="7"/>
                <circle id="rim2" cx="0" cy="0" r="3.5"/>
                <g id="zoomPlus">
                        <use xlink:href="#rim" fill="#404040">
                                <set attributeName="fill" to="#808080" begin="zoomplus.mouseover" end="zoomplus.mouseout"/>
                        </use>
                        <path d="M-4,0h8M0,-4v8" fill="none" stroke="white" stroke-width="1.5" pointer-events="none"/>
                </g>
                <g id="zoomMin">
                        <use xlink:href="#rim" fill="#404040">
                                <set attributeName="fill" to="#808080" begin="zoomminus.mouseover" end="zoomminus.mouseout"/>
                        </use>
                        <path d="M-4,0h8" fill="none" stroke="white" stroke-width="1.5" pointer-events="none"/>
                </g>
                <g id="dirArrow">
                        <path fill="none" stroke="white" stroke-width="1.5" d="M0,-3.0v7 M-2.5,-0.5L0,-3.0L2.5,-0.5"/>
                </g>
               <g id="resetDef">
                       <use xlink:href="#rim2" fill="#404040">
                               <set attributeName="fill" to="#808080" begin="reset.mouseover" end="reset.mouseout"/>
                       </use>
               </g>
        </defs>

<script type="text/javascript">
var viewWidth = 2020;
var viewHeight = 363;
var sectionId = 'dynsection-0';
</script>
<script xlink:href="../../svgpan.js"/>
<svg id="graph" class="graph">
<g id="viewport">
<title>/home/travis/build/AliceO2Group/AliceO2/Detectors/MUON/MCH/Raw/Decoder/src/BareGBTDecoder.h</title>
<!-- Node0 -->
<g id="node1" class="node">
<title>Node0</title>
<polygon fill="#bfbfbf" stroke="#000000" points="525,-302.5 525,-354.5 697,-354.5 697,-302.5 525,-302.5"/>
<text text-anchor="start" x="533" y="-342.5" font-family="Helvetica,sans-Serif" font-size="10.00" fill="#000000">/home/travis/build</text>
<text text-anchor="start" x="533" y="-331.5" font-family="Helvetica,sans-Serif" font-size="10.00" fill="#000000">/AliceO2Group/AliceO2</text>
<text text-anchor="start" x="533" y="-320.5" font-family="Helvetica,sans-Serif" font-size="10.00" fill="#000000">/Detectors/MUON/MCH/Raw</text>
<text text-anchor="middle" x="611" y="-309.5" font-family="Helvetica,sans-Serif" font-size="10.00" fill="#000000">/Decoder/src/BareGBTDecoder.h</text>
</g>
<!-- Node1 -->
<g id="node2" class="node">
<title>Node1</title>
<polygon fill="none" stroke="#bfbfbf" points="0,-56.5 0,-75.5 42,-75.5 42,-56.5 0,-56.5"/>
<text text-anchor="middle" x="21" y="-63.5" font-family="Helvetica,sans-Serif" font-size="10.00" fill="#000000">array</text>
</g>
<!-- Node0&#45;&gt;Node1 -->
<g id="edge1" class="edge">
<title>Node0&#45;&gt;Node1</title>
<path fill="none" stroke="#191970" d="M524.8951,-325.0551C372.0893,-318.0996 66.2587,-300.0604 32,-266 -16.5676,-217.7135 3.0817,-125.354 14.7321,-85.3109"/>
<polygon fill="#191970" stroke="#191970" points="18.0966,-86.277 17.6761,-75.6905 11.403,-84.2286 18.0966,-86.277"/>
</g>
<!-- Node2 -->
<g id="node3" class="node">
<title>Node2</title>
<g id="a_node3"><a xlink:href="../../d7/ddc/BareElinkDecoder_8h.html" target="_top" xlink:title="BareElinkDecoder.h">
<polygon fill="none" stroke="#000000" points="555,-179.5 555,-198.5 667,-198.5 667,-179.5 555,-179.5"/>
<text text-anchor="middle" x="611" y="-186.5" font-family="Helvetica,sans-Serif" font-size="10.00" fill="#000000">BareElinkDecoder.h</text>
</a>
</g>
</g>
<!-- Node0&#45;&gt;Node2 -->
<g id="edge2" class="edge">
<title>Node0&#45;&gt;Node2</title>
<path fill="none" stroke="#191970" d="M611,-302.2611C611,-275.1435 611,-233.4164 611,-208.8996"/>
<polygon fill="#191970" stroke="#191970" points="614.5001,-208.6727 611,-198.6727 607.5001,-208.6728 614.5001,-208.6727"/>
</g>
<!-- Node3 -->
<g id="node4" class="node">
<title>Node3</title>
<g id="a_node4"><a xlink:href="../../dc/d46/Assertions_8h.html" target="_top" xlink:title="Assertions.h">
<polygon fill="none" stroke="#000000" points="136.5,-118 136.5,-137 213.5,-137 213.5,-118 136.5,-118"/>
<text text-anchor="middle" x="175" y="-125" font-family="Helvetica,sans-Serif" font-size="10.00" fill="#000000">Assertions.h</text>
</a>
</g>
</g>
<!-- Node0&#45;&gt;Node3 -->
<g id="edge35" class="edge">
<title>Node0&#45;&gt;Node3</title>
<path fill="none" stroke="#191970" d="M524.6791,-320.6692C436.7198,-311.3319 307.5048,-293.4516 266,-266 221.5654,-236.6106 193.8015,-177.2761 181.8394,-146.6918"/>
<polygon fill="#191970" stroke="#191970" points="185.0562,-145.3017 178.2659,-137.169 178.5025,-147.7612 185.0562,-145.3017"/>
</g>
<!-- Node4 -->
<g id="node5" class="node">
<title>Node4</title>
<polygon fill="none" stroke="#bfbfbf" points="202.5,-.5 202.5,-19.5 281.5,-19.5 281.5,-.5 202.5,-.5"/>
<text text-anchor="middle" x="242" y="-7.5" font-family="Helvetica,sans-Serif" font-size="10.00" fill="#000000">fmt/format.h</text>
</g>
<!-- Node0&#45;&gt;Node4 -->
<g id="edge31" class="edge">
<title>Node0&#45;&gt;Node4</title>
<path fill="none" stroke="#191970" d="M524.8422,-321.4516C428.0755,-312.3184 278.1244,-294.1475 229,-266 167.3805,-230.6929 151.096,-209.8052 127,-143 122.3253,-130.0395 121.3491,-124.5656 127,-112 144.8979,-72.2018 186.8495,-41.6305 214.825,-24.7359"/>
<polygon fill="#191970" stroke="#191970" points="216.8535,-27.6044 223.7217,-19.5372 213.3218,-21.5606 216.8535,-27.6044"/>
</g>
<!-- Node8 -->
<g id="node9" class="node">
<title>Node8</title>
<polygon fill="none" stroke="#bfbfbf" points="424,-.5 424,-19.5 484,-19.5 484,-.5 424,-.5"/>
<text text-anchor="middle" x="454" y="-7.5" font-family="Helvetica,sans-Serif" font-size="10.00" fill="#000000">iostream</text>
</g>
<!-- Node0&#45;&gt;Node8 -->
<g id="edge36" class="edge">
<title>Node0&#45;&gt;Node8</title>
<path fill="none" stroke="#191970" d="M524.8977,-310.0022C426.8239,-286.3896 280,-242.1621 280,-189 280,-189 280,-189 280,-127.5 280,-63.2551 362.476,-31.7774 413.8624,-18.4001"/>
<polygon fill="#191970" stroke="#191970" points="414.8285,-21.7666 423.6915,-15.9616 413.1429,-14.9726 414.8285,-21.7666"/>
</g>
<!-- Node9 -->
<g id="node10" class="node">
<title>Node9</title>
<g id="a_node10"><a xlink:href="../../dd/d58/SampaChannelHandler_8h.html" target="_top" xlink:title="MCHRawDecoder/SampaChannel\lHandler.h">
<polygon fill="none" stroke="#000000" points="955.5,-112.5 955.5,-142.5 1132.5,-142.5 1132.5,-112.5 955.5,-112.5"/>
<text text-anchor="start" x="963.5" y="-130.5" font-family="Helvetica,sans-Serif" font-size="10.00" fill="#000000">MCHRawDecoder/SampaChannel</text>
<text text-anchor="middle" x="1044" y="-119.5" font-family="Helvetica,sans-Serif" font-size="10.00" fill="#000000">Handler.h</text>
</a>
</g>
</g>
<!-- Node0&#45;&gt;Node9 -->
<g id="edge28" class="edge">
<title>Node0&#45;&gt;Node9</title>
<path fill="none" stroke="#191970" d="M667.1633,-302.4288C755.3384,-261.4977 924.2388,-183.0935 1002.4111,-146.8057"/>
<polygon fill="#191970" stroke="#191970" points="1003.8863,-149.9797 1011.483,-142.5945 1000.9389,-143.6304 1003.8863,-149.9797"/>
</g>
<!-- Node18 -->
<g id="node19" class="node">
<title>Node18</title>
<polygon fill="none" stroke="#bfbfbf" points="828.5,-118 828.5,-137 899.5,-137 899.5,-118 828.5,-118"/>
<text text-anchor="middle" x="864" y="-125" font-family="Helvetica,sans-Serif" font-size="10.00" fill="#000000">fmt/printf.h</text>
</g>
<!-- Node0&#45;&gt;Node18 -->
<g id="edge30" class="edge">
<title>Node0&#45;&gt;Node18</title>
<path fill="none" stroke="#191970" d="M643.816,-302.4288C697.088,-260.106 800.7894,-177.7187 844.171,-143.2535"/>
<polygon fill="#191970" stroke="#191970" points="846.3576,-145.9865 852.0102,-137.0255 842.0032,-140.5056 846.3576,-145.9865"/>
</g>
<!-- Node21 -->
<g id="node22" class="node">
<title>Node21</title>
<polygon fill="none" stroke="#bfbfbf" points="1792.5,-56.5 1792.5,-75.5 1849.5,-75.5 1849.5,-56.5 1792.5,-56.5"/>
<text text-anchor="middle" x="1821" y="-63.5" font-family="Helvetica,sans-Serif" font-size="10.00" fill="#000000">gsl/span</text>
</g>
<!-- Node0&#45;&gt;Node21 -->
<g id="edge29" class="edge">
<title>Node0&#45;&gt;Node21</title>
<path fill="none" stroke="#191970" d="M697.3157,-324.1796C952.0042,-310.7039 1687.7732,-266.2786 1771,-199 1805.8877,-170.7976 1816.4403,-115.5459 1819.6265,-85.9082"/>
<polygon fill="#191970" stroke="#191970" points="1823.1451,-85.8538 1820.5456,-75.5829 1816.1726,-85.2331 1823.1451,-85.8538"/>
</g>
<!-- Node22 -->
<g id="node23" class="node">
<title>Node22</title>
<g id="a_node23"><a xlink:href="../../d7/dee/MakeArray_8h.html" target="_top" xlink:title="MakeArray.h">
<polygon fill="none" stroke="#000000" points="41.5,-241 41.5,-260 118.5,-260 118.5,-241 41.5,-241"/>
<text text-anchor="middle" x="80" y="-248" font-family="Helvetica,sans-Serif" font-size="10.00" fill="#000000">MakeArray.h</text>
</a>
</g>
</g>
<!-- Node0&#45;&gt;Node22 -->
<g id="edge32" class="edge">
<title>Node0&#45;&gt;Node22</title>
<path fill="none" stroke="#191970" d="M524.8435,-321.2766C428.6119,-312.2744 268.5465,-294.5037 133,-266 128.5525,-265.0648 123.9348,-263.9444 119.3623,-262.7395"/>
<polygon fill="#191970" stroke="#191970" points="120.0801,-259.3065 109.5084,-260.0058 118.2088,-266.0517 120.0801,-259.3065"/>
</g>
<!-- Node24 -->
<g id="node25" class="node">
<title>Node24</title>
<polygon fill="none" stroke="#bfbfbf" points="1896,-235.5 1896,-265.5 2012,-265.5 2012,-235.5 1896,-235.5"/>
<text text-anchor="start" x="1904" y="-253.5" font-family="Helvetica,sans-Serif" font-size="10.00" fill="#000000">boost/multiprecision</text>
<text text-anchor="middle" x="1954" y="-242.5" font-family="Helvetica,sans-Serif" font-size="10.00" fill="#000000">/cpp_int.hpp</text>
</g>
<!-- Node0&#45;&gt;Node24 -->
<g id="edge37" class="edge">
<title>Node0&#45;&gt;Node24</title>
<path fill="none" stroke="#191970" d="M697.0865,-326.0972C944.0727,-318.9126 1652.0025,-296.2068 1882,-266 1883.2836,-265.8314 1884.5783,-265.6519 1885.8812,-265.4626"/>
<polygon fill="#191970" stroke="#191970" points="1886.6651,-268.8817 1895.9827,-263.8386 1885.5539,-261.9704 1886.6651,-268.8817"/>
</g>
<!-- Node25 -->
<g id="node26" class="node">
<title>Node25</title>
<g id="a_node26"><a xlink:href="../../d0/da1/PayloadDecoder_8h.html" target="_top" xlink:title="PayloadDecoder.h">
<polygon fill="none" stroke="#000000" points="1210,-241 1210,-260 1314,-260 1314,-241 1210,-241"/>
<text text-anchor="middle" x="1262" y="-248" font-family="Helvetica,sans-Serif" font-size="10.00" fill="#000000">PayloadDecoder.h</text>
</a>
</g>
</g>
<!-- Node0&#45;&gt;Node25 -->
<g id="edge38" class="edge">
<title>Node0&#45;&gt;Node25</title>
<path fill="none" stroke="#191970" d="M697.1118,-318.1825C830.1148,-302.2466 1082.368,-272.0227 1199.4255,-257.9974"/>
<polygon fill="#191970" stroke="#191970" points="1200.1353,-261.4375 1209.6479,-256.7726 1199.3025,-254.4872 1200.1353,-261.4375"/>
</g>
<!-- Node2&#45;&gt;Node3 -->
<g id="edge3" class="edge">
<title>Node2&#45;&gt;Node3</title>
<path fill="none" stroke="#191970" d="M554.7179,-185.1615C479.6328,-179.3773 342.8155,-166.5164 228,-143 223.5477,-142.0881 218.9269,-140.9824 214.3526,-139.7859"/>
<polygon fill="#191970" stroke="#191970" points="215.0678,-136.3524 204.4967,-137.0618 213.2029,-143.0995 215.0678,-136.3524"/>
</g>
<!-- Node2&#45;&gt;Node4 -->
<g id="edge21" class="edge">
<title>Node2&#45;&gt;Node4</title>
<path fill="none" stroke="#191970" d="M554.828,-187.1781C476.0466,-183.5618 337.9905,-173.0204 299,-143 262.6407,-115.0054 249.1481,-59.2469 244.4016,-29.5982"/>
<polygon fill="#191970" stroke="#191970" points="247.8564,-29.0323 242.9812,-19.6258 240.9263,-30.0194 247.8564,-29.0323"/>
</g>
<!-- Node5 -->
<g id="node6" class="node">
<title>Node5</title>
<g id="a_node6"><a xlink:href="../../d0/d64/DataFormats_8h.html" target="_top" xlink:title="MCHRawCommon/DataFormats.h">
<polygon fill="none" stroke="#000000" points="308.5,-118 308.5,-137 487.5,-137 487.5,-118 308.5,-118"/>
<text text-anchor="middle" x="398" y="-125" font-family="Helvetica,sans-Serif" font-size="10.00" fill="#000000">MCHRawCommon/DataFormats.h</text>
</a>
</g>
</g>
<!-- Node2&#45;&gt;Node5 -->
<g id="edge5" class="edge">
<title>Node2&#45;&gt;Node5</title>
<path fill="none" stroke="#191970" d="M577.7188,-179.3906C540.8295,-168.7395 481.2243,-151.5296 440.8675,-139.8772"/>
<polygon fill="#191970" stroke="#191970" points="441.626,-136.4533 431.0475,-137.0419 439.6842,-143.1786 441.626,-136.4533"/>
</g>
<!-- Node6 -->
<g id="node7" class="node">
<title>Node6</title>
<g id="a_node7"><a xlink:href="../../d5/d49/SampaHeader_8h.html" target="_top" xlink:title="MCHRawCommon/SampaHeader.h">
<polygon fill="none" stroke="#000000" points="700.5,-56.5 700.5,-75.5 885.5,-75.5 885.5,-56.5 700.5,-56.5"/>
<text text-anchor="middle" x="793" y="-63.5" font-family="Helvetica,sans-Serif" font-size="10.00" fill="#000000">MCHRawCommon/SampaHeader.h</text>
</a>
</g>
</g>
<!-- Node2&#45;&gt;Node6 -->
<g id="edge6" class="edge">
<title>Node2&#45;&gt;Node6</title>
<path fill="none" stroke="#191970" d="M608.4157,-179.4423C604.7291,-163.495 600.0409,-131.3094 616,-112 628.8935,-96.3998 672.8419,-84.9292 713.7169,-77.3441"/>
<polygon fill="#191970" stroke="#191970" points="714.5199,-80.756 723.7458,-75.5469 713.2852,-73.8657 714.5199,-80.756"/>
</g>
<!-- Node2&#45;&gt;Node8 -->
<g id="edge24" class="edge">
<title>Node2&#45;&gt;Node8</title>
<path fill="none" stroke="#191970" d="M588.3075,-179.4513C571.0333,-171.4357 547.3517,-158.773 530,-143 494.4028,-110.6414 471.1659,-57.6068 460.5949,-29.2719"/>
<polygon fill="#191970" stroke="#191970" points="463.8374,-27.9455 457.1642,-19.7163 457.2492,-30.3108 463.8374,-27.9455"/>
</g>
<!-- Node2&#45;&gt;Node9 -->
<g id="edge9" class="edge">
<title>Node2&#45;&gt;Node9</title>
<path fill="none" stroke="#191970" d="M667.1633,-181.023C737.4889,-171.0345 859.1651,-153.7525 945.2058,-141.532"/>
<polygon fill="#191970" stroke="#191970" points="945.8445,-144.9765 955.2529,-140.105 944.8601,-138.046 945.8445,-144.9765"/>
</g>
<!-- Node10 -->
<g id="node11" class="node">
<title>Node10</title>
<polygon fill="none" stroke="#bfbfbf" points="1024.5,-56.5 1024.5,-75.5 1089.5,-75.5 1089.5,-56.5 1024.5,-56.5"/>
<text text-anchor="middle" x="1057" y="-63.5" font-family="Helvetica,sans-Serif" font-size="10.00" fill="#000000">functional</text>
</g>
<!-- Node2&#45;&gt;Node10 -->
<g id="edge23" class="edge">
<title>Node2&#45;&gt;Node10</title>
<path fill="none" stroke="#191970" d="M667.1351,-179.9719C701.3534,-172.9975 745.2314,-161.3621 781,-143 800.3901,-133.0459 799.2112,-121.136 819,-112 896.9682,-76.004 926.8369,-93.2273 1014.543,-76.1495"/>
<polygon fill="#191970" stroke="#191970" points="1015.2692,-79.5735 1024.3658,-74.1419 1013.8674,-72.7153 1015.2692,-79.5735"/>
</g>
<!-- Node12 -->
<g id="node13" class="node">
<title>Node12</title>
<polygon fill="none" stroke="#bfbfbf" points="545.5,-.5 545.5,-19.5 592.5,-19.5 592.5,-.5 545.5,-.5"/>
<text text-anchor="middle" x="569" y="-7.5" font-family="Helvetica,sans-Serif" font-size="10.00" fill="#000000">vector</text>
</g>
<!-- Node2&#45;&gt;Node12 -->
<g id="edge26" class="edge">
<title>Node2&#45;&gt;Node12</title>
<path fill="none" stroke="#191970" d="M601.1434,-179.3887C586.0115,-164.6888 556.0696,-135.8192 530,-112 512.0976,-95.643 499.0013,-98.0912 489,-76 477.5582,-50.727 508.8689,-31.9678 535.6141,-21.0366"/>
<polygon fill="#191970" stroke="#191970" points="537.0926,-24.2181 545.1734,-17.3659 534.5833,-17.6833 537.0926,-24.2181"/>
</g>
<!-- Node17 -->
<g id="node18" class="node">
<title>Node17</title>
<polygon fill="none" stroke="#bfbfbf" points="658,-118 658,-137 702,-137 702,-118 658,-118"/>
<text text-anchor="middle" x="680" y="-125" font-family="Helvetica,sans-Serif" font-size="10.00" fill="#000000">bitset</text>
</g>
<!-- Node2&#45;&gt;Node17 -->
<g id="edge20" class="edge">
<title>Node2&#45;&gt;Node17</title>
<path fill="none" stroke="#191970" d="M621.7813,-179.3906C632.3526,-169.9683 648.6825,-155.4134 661.3603,-144.1137"/>
<polygon fill="#191970" stroke="#191970" points="663.9304,-146.5114 669.0667,-137.2449 659.2728,-141.2858 663.9304,-146.5114"/>
</g>
<!-- Node2&#45;&gt;Node18 -->
<g id="edge22" class="edge">
<title>Node2&#45;&gt;Node18</title>
<path fill="none" stroke="#191970" d="M658.0182,-179.4296C699.3257,-170.7642 760.9429,-157.2122 814,-143 817.5444,-142.0506 821.2144,-141.0151 824.8824,-139.9443"/>
<polygon fill="#191970" stroke="#191970" points="825.9247,-143.2858 834.4989,-137.0623 823.9151,-136.5805 825.9247,-143.2858"/>
</g>
<!-- Node19 -->
<g id="node20" class="node">
<title>Node19</title>
<polygon fill="none" stroke="#bfbfbf" points="941.5,-56.5 941.5,-75.5 1006.5,-75.5 1006.5,-56.5 941.5,-56.5"/>
<text text-anchor="middle" x="974" y="-63.5" font-family="Helvetica,sans-Serif" font-size="10.00" fill="#000000">stdexcept</text>
</g>
<!-- Node2&#45;&gt;Node19 -->
<g id="edge25" class="edge">
<title>Node2&#45;&gt;Node19</title>
<path fill="none" stroke="#191970" d="M612.756,-179.3325C616.3406,-162.6161 626.1757,-128.5188 649,-112 654.6907,-107.8814 844.5251,-82.8046 931.3823,-71.5083"/>
<polygon fill="#191970" stroke="#191970" points="931.979,-74.9603 941.4448,-70.2013 931.0773,-68.0186 931.979,-74.9603"/>
</g>
<!-- Node20 -->
<g id="node21" class="node">
<title>Node20</title>
<polygon fill="none" stroke="#bfbfbf" points="720,-118 720,-137 772,-137 772,-118 720,-118"/>
<text text-anchor="middle" x="746" y="-125" font-family="Helvetica,sans-Serif" font-size="10.00" fill="#000000">cassert</text>
</g>
<!-- Node2&#45;&gt;Node20 -->
<g id="edge27" class="edge">
<title>Node2&#45;&gt;Node20</title>
<path fill="none" stroke="#191970" d="M632.0938,-179.3906C654.5827,-169.1457 690.3918,-152.8326 715.8524,-141.2339"/>
<polygon fill="#191970" stroke="#191970" points="717.4052,-144.3727 725.0544,-137.0419 714.5032,-138.0025 717.4052,-144.3727"/>
</g>
<!-- Node3&#45;&gt;Node4 -->
<g id="edge4" class="edge">
<title>Node3&#45;&gt;Node4</title>
<path fill="none" stroke="#191970" d="M180.4829,-117.8845C191.5743,-98.4331 216.8457,-54.1138 231.3107,-28.7462"/>
<polygon fill="#191970" stroke="#191970" points="234.5283,-30.1691 236.4413,-19.7484 228.4474,-26.7017 234.5283,-30.1691"/>
</g>
<!-- Node7 -->
<g id="node8" class="node">
<title>Node7</title>
<polygon fill="none" stroke="#bfbfbf" points="768.5,-.5 768.5,-19.5 817.5,-19.5 817.5,-.5 768.5,-.5"/>
<text text-anchor="middle" x="793" y="-7.5" font-family="Helvetica,sans-Serif" font-size="10.00" fill="#000000">cstdlib</text>
</g>
<!-- Node6&#45;&gt;Node7 -->
<g id="edge7" class="edge">
<title>Node6&#45;&gt;Node7</title>
<path fill="none" stroke="#191970" d="M793,-56.2455C793,-48.9382 793,-38.6944 793,-29.7046"/>
<polygon fill="#191970" stroke="#191970" points="796.5001,-29.6426 793,-19.6427 789.5001,-29.6427 796.5001,-29.6426"/>
</g>
<!-- Node6&#45;&gt;Node8 -->
<g id="edge8" class="edge">
<title>Node6&#45;&gt;Node8</title>
<path fill="none" stroke="#191970" d="M735.109,-56.4369C666.6052,-45.1206 554.3183,-26.5718 494.495,-16.6894"/>
<polygon fill="#191970" stroke="#191970" points="494.7444,-13.1833 484.3076,-15.0066 493.6034,-20.0897 494.7444,-13.1833"/>
</g>
<!-- Node9&#45;&gt;Node10 -->
<g id="edge10" class="edge">
<title>Node9&#45;&gt;Node10</title>
<path fill="none" stroke="#191970" d="M1047.2135,-112.2977C1048.9052,-104.2945 1051.0001,-94.3843 1052.817,-85.7889"/>
<polygon fill="#191970" stroke="#191970" points="1056.2747,-86.3546 1054.9185,-75.8469 1049.426,-84.9069 1056.2747,-86.3546"/>
</g>
<!-- Node11 -->
<g id="node12" class="node">
<title>Node11</title>
<g id="a_node12"><a xlink:href="../../d0/d5b/SampaCluster_8h.html" target="_top" xlink:title="MCHRawCommon/SampaCluster.h">
<polygon fill="none" stroke="#000000" points="498,-56.5 498,-75.5 682,-75.5 682,-56.5 498,-56.5"/>
<text text-anchor="middle" x="590" y="-63.5" font-family="Helvetica,sans-Serif" font-size="10.00" fill="#000000">MCHRawCommon/SampaCluster.h</text>
</a>
</g>
</g>
<!-- Node9&#45;&gt;Node11 -->
<g id="edge11" class="edge">
<title>Node9&#45;&gt;Node11</title>
<path fill="none" stroke="#191970" d="M955.3865,-115.4962C872.6087,-104.2829 750.1295,-87.6915 670.1895,-76.8627"/>
<polygon fill="#191970" stroke="#191970" points="670.5517,-73.3799 660.1724,-75.5057 669.612,-80.3165 670.5517,-73.3799"/>
</g>
<!-- Node13 -->
<g id="node14" class="node">
<title>Node13</title>
<g id="a_node14"><a xlink:href="../../d4/d09/DsElecId_8h.html" target="_top" xlink:title="MCHRawElecMap/DsElecId.h">
<polygon fill="none" stroke="#000000" points="1184.5,-56.5 1184.5,-75.5 1339.5,-75.5 1339.5,-56.5 1184.5,-56.5"/>
<text text-anchor="middle" x="1262" y="-63.5" font-family="Helvetica,sans-Serif" font-size="10.00" fill="#000000">MCHRawElecMap/DsElecId.h</text>
</a>
</g>
</g>
<!-- Node9&#45;&gt;Node13 -->
<g id="edge16" class="edge">
<title>Node9&#45;&gt;Node13</title>
<path fill="none" stroke="#191970" d="M1097.3288,-112.4554C1134.5003,-101.9689 1183.4794,-88.1515 1218.3339,-78.3187"/>
<polygon fill="#191970" stroke="#191970" points="1219.5437,-81.614 1228.2177,-75.5303 1217.6431,-74.877 1219.5437,-81.614"/>
</g>
<!-- Node11&#45;&gt;Node4 -->
<g id="edge15" class="edge">
<title>Node11&#45;&gt;Node4</title>
<path fill="none" stroke="#191970" d="M530.5721,-56.4369C463.2685,-45.6064 354.7954,-28.151 291.7689,-18.0088"/>
<polygon fill="#191970" stroke="#191970" points="292.1094,-14.5186 281.6804,-16.3853 290.9972,-21.4297 292.1094,-14.5186"/>
</g>
<!-- Node11&#45;&gt;Node7 -->
<g id="edge12" class="edge">
<title>Node11&#45;&gt;Node7</title>
<path fill="none" stroke="#191970" d="M624.8969,-56.3733C662.3033,-46.0543 721.3175,-29.7745 758.5505,-19.5033"/>
<polygon fill="#191970" stroke="#191970" points="759.7293,-22.8089 768.4385,-16.7756 757.8678,-16.061 759.7293,-22.8089"/>
</g>
<!-- Node11&#45;&gt;Node8 -->
<g id="edge14" class="edge">
<title>Node11&#45;&gt;Node8</title>
<path fill="none" stroke="#191970" d="M566.6208,-56.3733C544.4955,-47.2629 511.0866,-33.5062 486.3981,-23.3404"/>
<polygon fill="#191970" stroke="#191970" points="487.6536,-20.0723 477.0742,-19.5011 484.9883,-26.5451 487.6536,-20.0723"/>
</g>
<!-- Node11&#45;&gt;Node12 -->
<g id="edge13" class="edge">
<title>Node11&#45;&gt;Node12</title>
<path fill="none" stroke="#191970" d="M586.3421,-56.2455C583.5416,-48.7776 579.591,-38.2427 576.1676,-29.1137"/>
<polygon fill="#191970" stroke="#191970" points="579.4045,-27.777 572.616,-19.6427 572.8501,-30.2349 579.4045,-27.777"/>
</g>
<!-- Node14 -->
<g id="node15" class="node">
<title>Node14</title>
<polygon fill="none" stroke="#bfbfbf" points="1582,-.5 1582,-19.5 1632,-19.5 1632,-.5 1582,-.5"/>
<text text-anchor="middle" x="1607" y="-7.5" font-family="Helvetica,sans-Serif" font-size="10.00" fill="#000000">cstdint</text>
</g>
<!-- Node13&#45;&gt;Node14 -->
<g id="edge17" class="edge">
<title>Node13&#45;&gt;Node14</title>
<path fill="none" stroke="#191970" d="M1320.9156,-56.4369C1392.992,-44.7375 1512.6945,-25.3076 1571.7842,-15.7162"/>
<polygon fill="#191970" stroke="#191970" points="1572.4387,-19.1558 1581.7487,-14.0988 1571.3171,-12.2463 1572.4387,-19.1558"/>
</g>
<!-- Node15 -->
<g id="node16" class="node">
<title>Node15</title>
<polygon fill="none" stroke="#bfbfbf" points="1409.5,-.5 1409.5,-19.5 1458.5,-19.5 1458.5,-.5 1409.5,-.5"/>
<text text-anchor="middle" x="1434" y="-7.5" font-family="Helvetica,sans-Serif" font-size="10.00" fill="#000000">iosfwd</text>
</g>
<!-- Node13&#45;&gt;Node15 -->
<g id="edge18" class="edge">
<title>Node13&#45;&gt;Node15</title>
<path fill="none" stroke="#191970" d="M1291.5679,-56.3733C1321.5556,-46.6098 1367.933,-31.5102 1399.5611,-21.2127"/>
<polygon fill="#191970" stroke="#191970" points="1400.8471,-24.4749 1409.2722,-18.0509 1398.6799,-17.8188 1400.8471,-24.4749"/>
</g>
<!-- Node16 -->
<g id="node17" class="node">
<title>Node16</title>
<polygon fill="none" stroke="#bfbfbf" points="1181,-.5 1181,-19.5 1237,-19.5 1237,-.5 1181,-.5"/>
<text text-anchor="middle" x="1209" y="-7.5" font-family="Helvetica,sans-Serif" font-size="10.00" fill="#000000">optional</text>
</g>
<!-- Node13&#45;&gt;Node16 -->
<g id="edge19" class="edge">
<title>Node13&#45;&gt;Node16</title>
<path fill="none" stroke="#191970" d="M1252.7681,-56.2455C1245.1683,-48.2155 1234.2123,-36.6394 1225.1632,-27.0781"/>
<polygon fill="#191970" stroke="#191970" points="1227.542,-24.4998 1218.1261,-19.6427 1222.4579,-29.3115 1227.542,-24.4998"/>
</g>
<!-- Node22&#45;&gt;Node1 -->
<g id="edge33" class="edge">
<title>Node22&#45;&gt;Node1</title>
<path fill="none" stroke="#191970" d="M69.9731,-240.8766C60.5842,-231.2252 46.9843,-215.4674 40,-199 23.9823,-161.2341 21.0056,-112.5854 20.7113,-85.8321"/>
<polygon fill="#191970" stroke="#191970" points="24.2113,-85.8053 20.7193,-75.8025 17.2113,-85.7997 24.2113,-85.8053"/>
</g>
<!-- Node23 -->
<g id="node24" class="node">
<title>Node23</title>
<polygon fill="none" stroke="#bfbfbf" points="49.5,-179.5 49.5,-198.5 118.5,-198.5 118.5,-179.5 49.5,-179.5"/>
<text text-anchor="middle" x="84" y="-186.5" font-family="Helvetica,sans-Serif" font-size="10.00" fill="#000000">type_traits</text>
</g>
<!-- Node22&#45;&gt;Node23 -->
<g id="edge34" class="edge">
<title>Node22&#45;&gt;Node23</title>
<path fill="none" stroke="#191970" d="M80.625,-240.8906C81.1795,-232.3657 82.0072,-219.6392 82.7042,-208.9235"/>
<polygon fill="#191970" stroke="#191970" points="86.2097,-208.951 83.3662,-198.7449 79.2244,-208.4966 86.2097,-208.951"/>
</g>
<!-- Node25&#45;&gt;Node7 -->
<g id="edge64" class="edge">
<title>Node25&#45;&gt;Node7</title>
<path fill="none" stroke="#191970" d="M1209.884,-243.8468C1142.758,-232.9762 1025.4169,-205.929 947,-143 911.6879,-114.6622 927.8743,-86.0418 894,-56 874.8354,-39.0037 848.3371,-27.2546 827.2906,-19.8865"/>
<polygon fill="#191970" stroke="#191970" points="828.3457,-16.549 817.7521,-16.712 826.1352,-23.1908 828.3457,-16.549"/>
</g>
<!-- Node25&#45;&gt;Node9 -->
<g id="edge41" class="edge">
<title>Node25&#45;&gt;Node9</title>
<path fill="none" stroke="#191970" d="M1243.2679,-240.8773C1223.6306,-230.7145 1191.9438,-214.1029 1165,-199 1135.1799,-182.2848 1101.7589,-162.4504 1077.6097,-147.9172"/>
<polygon fill="#191970" stroke="#191970" points="1079.2057,-144.7925 1068.8351,-142.6244 1075.5901,-150.7865 1079.2057,-144.7925"/>
</g>
<!-- Node25&#45;&gt;Node21 -->
<g id="edge65" class="edge">
<title>Node25&#45;&gt;Node21</title>
<path fill="none" stroke="#191970" d="M1290.8772,-240.969C1384.1161,-210.1951 1677.188,-113.4657 1782.6846,-78.6461"/>
<polygon fill="#191970" stroke="#191970" points="1783.8963,-81.932 1792.2954,-75.4741 1781.7023,-75.2847 1783.8963,-81.932"/>
</g>
<!-- Node26 -->
<g id="node27" class="node">
<title>Node26</title>
<g id="a_node27"><a xlink:href="../../d4/d78/DataFormats_2Headers_2include_2Headers_2RAWDataHeader_8h.html" target="_top" xlink:title="Headers/RAWDataHeader.h">
<polygon fill="none" stroke="#000000" points="1612.5,-179.5 1612.5,-198.5 1761.5,-198.5 1761.5,-179.5 1612.5,-179.5"/>
<text text-anchor="middle" x="1687" y="-186.5" font-family="Helvetica,sans-Serif" font-size="10.00" fill="#000000">Headers/RAWDataHeader.h</text>
</a>
</g>
</g>
<!-- Node25&#45;&gt;Node26 -->
<g id="edge39" class="edge">
<title>Node25&#45;&gt;Node26</title>
<path fill="none" stroke="#191970" d="M1314.1133,-242.9589C1388.5246,-232.1911 1525.6659,-212.346 1611.285,-199.9564"/>
<polygon fill="#191970" stroke="#191970" points="1611.8099,-203.417 1621.2055,-198.5208 1610.8073,-196.4892 1611.8099,-203.417"/>
</g>
<!-- Node27 -->
<g id="node28" class="node">
<title>Node27</title>
<g id="a_node28"><a xlink:href="../../dc/d36/PageDecoder_8h.html" target="_top" xlink:title="MCHRawDecoder/PageDecoder.h">
<polygon fill="none" stroke="#000000" points="1174,-179.5 1174,-198.5 1350,-198.5 1350,-179.5 1174,-179.5"/>
<text text-anchor="middle" x="1262" y="-186.5" font-family="Helvetica,sans-Serif" font-size="10.00" fill="#000000">MCHRawDecoder/PageDecoder.h</text>
</a>
</g>
</g>
<!-- Node25&#45;&gt;Node27 -->
<g id="edge42" class="edge">
<title>Node25&#45;&gt;Node27</title>
<path fill="none" stroke="#191970" d="M1262,-240.8906C1262,-232.3657 1262,-219.6392 1262,-208.9235"/>
<polygon fill="#191970" stroke="#191970" points="1265.5001,-208.7448 1262,-198.7449 1258.5001,-208.7449 1265.5001,-208.7448"/>
</g>
<!-- Node28 -->
<g id="node29" class="node">
<title>Node28</title>
<polygon fill="none" stroke="#bfbfbf" points="1392,-118 1392,-137 1430,-137 1430,-118 1392,-118"/>
<text text-anchor="middle" x="1411" y="-125" font-family="Helvetica,sans-Serif" font-size="10.00" fill="#000000">map</text>
</g>
<!-- Node25&#45;&gt;Node28 -->
<g id="edge63" class="edge">
<title>Node25&#45;&gt;Node28</title>
<path fill="none" stroke="#191970" d="M1287.0121,-240.968C1307.8145,-232.2097 1337.4052,-217.7515 1359,-199 1376.4674,-183.8325 1391.3914,-161.7412 1400.7123,-146.1361"/>
<polygon fill="#191970" stroke="#191970" points="1403.7994,-147.789 1405.7644,-137.3779 1397.7359,-144.2912 1403.7994,-147.789"/>
</g>
<!-- Node26&#45;&gt;Node14 -->
<g id="edge40" class="edge">
<title>Node26&#45;&gt;Node14</title>
<path fill="none" stroke="#191970" d="M1720.1517,-179.4227C1782.3071,-159.8639 1906.0228,-112.3834 1859,-56 1831.8045,-23.3908 1704.9714,-13.8351 1642.2733,-11.0844"/>
<polygon fill="#191970" stroke="#191970" points="1642.2006,-7.5787 1632.0674,-10.6722 1641.918,-14.573 1642.2006,-7.5787"/>
</g>
<!-- Node27&#45;&gt;Node9 -->
<g id="edge46" class="edge">
<title>Node27&#45;&gt;Node9</title>
<path fill="none" stroke="#191970" d="M1227.9375,-179.3906C1195.702,-170.2967 1146.5186,-156.4215 1107.1187,-145.3064"/>
<polygon fill="#191970" stroke="#191970" points="1107.9035,-141.8913 1097.3288,-142.5446 1106.0028,-148.6283 1107.9035,-141.8913"/>
</g>
<!-- Node27&#45;&gt;Node10 -->
<g id="edge43" class="edge">
<title>Node27&#45;&gt;Node10</title>
<path fill="none" stroke="#191970" d="M1242.2559,-179.4114C1225.0334,-170.7343 1199.6432,-157.1754 1179,-143 1161.3148,-130.8559 1159.7459,-124.0553 1142,-112 1124.3642,-100.0195 1103.2952,-88.5996 1086.5456,-80.1352"/>
<polygon fill="#191970" stroke="#191970" points="1087.7542,-76.8275 1077.2415,-75.5111 1084.6388,-83.096 1087.7542,-76.8275"/>
</g>
<!-- Node27&#45;&gt;Node21 -->
<g id="edge44" class="edge">
<title>Node27&#45;&gt;Node21</title>
<path fill="none" stroke="#191970" d="M1281.6983,-179.3443C1298.8916,-170.6242 1324.2644,-157.0399 1345,-143 1363.048,-130.7799 1362.8162,-120.2266 1383,-112 1545.3077,-45.8461 1605.0222,-104.6163 1782.5592,-75.7379"/>
<polygon fill="#191970" stroke="#191970" points="1783.2066,-79.1781 1792.4796,-74.0536 1782.0348,-72.2769 1783.2066,-79.1781"/>
</g>
<!-- Node27&#45;&gt;Node28 -->
<g id="edge45" class="edge">
<title>Node27&#45;&gt;Node28</title>
<path fill="none" stroke="#191970" d="M1287.5291,-179.3957C1311.1569,-170.3843 1347.1806,-156.3336 1378,-143 1379.5576,-142.3261 1381.151,-141.6234 1382.7554,-140.9052"/>
<polygon fill="#191970" stroke="#191970" points="1384.2629,-144.0645 1391.8958,-136.7167 1381.3467,-137.7008 1384.2629,-144.0645"/>
</g>
<!-- Node29 -->
<g id="node30" class="node">
<title>Node29</title>
<g id="a_node30"><a xlink:href="../../d2/d71/MUON_2MCH_2Raw_2ElecMap_2include_2MCHRawElecMap_2Mapper_8h.html" target="_top" xlink:title="MCHRawElecMap/Mapper.h">
<polygon fill="none" stroke="#000000" points="1188,-118 1188,-137 1336,-137 1336,-118 1188,-118"/>
<text text-anchor="middle" x="1262" y="-125" font-family="Helvetica,sans-Serif" font-size="10.00" fill="#000000">MCHRawElecMap/Mapper.h</text>
</a>
</g>
</g>
<!-- Node27&#45;&gt;Node29 -->
<g id="edge47" class="edge">
<title>Node27&#45;&gt;Node29</title>
<path fill="none" stroke="#191970" d="M1262,-179.3906C1262,-170.8657 1262,-158.1392 1262,-147.4235"/>
<polygon fill="#191970" stroke="#191970" points="1265.5001,-147.2448 1262,-137.2449 1258.5001,-147.2449 1265.5001,-147.2448"/>
</g>
<!-- Node29&#45;&gt;Node1 -->
<g id="edge61" class="edge">
<title>Node29&#45;&gt;Node1</title>
<path fill="none" stroke="#191970" d="M1196.4047,-117.974C1178.7716,-115.7015 1159.6867,-113.5023 1142,-112 711.1187,-75.4022 184.5021,-67.6858 52.2522,-66.2819"/>
<polygon fill="#191970" stroke="#191970" points="52.0796,-62.7801 42.0445,-66.178 52.0083,-69.7797 52.0796,-62.7801"/>
</g>
<!-- Node29&#45;&gt;Node4 -->
<g id="edge60" class="edge">
<title>Node29&#45;&gt;Node4</title>
<path fill="none" stroke="#191970" d="M1245.5722,-117.8847C1216.936,-101.6859 1155.5251,-69.4128 1099,-56 950.9019,-20.8581 566.9789,-28.3918 415,-20 373.485,-17.7077 326.3744,-14.9759 291.8091,-12.9473"/>
<polygon fill="#191970" stroke="#191970" points="291.6929,-9.4346 281.5048,-12.3416 291.2821,-16.4225 291.6929,-9.4346"/>
</g>
<!-- Node29&#45;&gt;Node10 -->
<g id="edge48" class="edge">
<title>Node29&#45;&gt;Node10</title>
<path fill="none" stroke="#191970" d="M1229.9688,-117.8906C1194.6154,-107.2846 1137.5843,-90.1753 1098.7522,-78.5257"/>
<polygon fill="#191970" stroke="#191970" points="1099.3903,-75.0631 1088.8063,-75.5419 1097.3788,-81.7678 1099.3903,-75.0631"/>
</g>
<!-- Node29&#45;&gt;Node13 -->
<g id="edge56" class="edge">
<title>Node29&#45;&gt;Node13</title>
<path fill="none" stroke="#191970" d="M1262,-117.8906C1262,-109.3657 1262,-96.6392 1262,-85.9235"/>
<polygon fill="#191970" stroke="#191970" points="1265.5001,-85.7448 1262,-75.7449 1258.5001,-85.7449 1265.5001,-85.7448"/>
</g>
<!-- Node29&#45;&gt;Node14 -->
<g id="edge52" class="edge">
<title>Node29&#45;&gt;Node14</title>
<path fill="none" stroke="#191970" d="M1312.6258,-117.9551C1324.8369,-115.8268 1337.8632,-113.6999 1350,-112 1426.3378,-101.3077 1643.4,-133.2645 1695,-76 1715.7957,-52.9214 1674.63,-32.5233 1641.8512,-20.7178"/>
<polygon fill="#191970" stroke="#191970" points="1642.6203,-17.2811 1632.0256,-17.3364 1640.3424,-23.9001 1642.6203,-17.2811"/>
</g>
<!-- Node29&#45;&gt;Node16 -->
<g id="edge49" class="edge">
<title>Node29&#45;&gt;Node16</title>
<path fill="none" stroke="#191970" d="M1231.1483,-117.9073C1211.559,-110.0331 1187.7558,-96.7423 1176,-76 1166.7066,-59.6025 1178.9947,-40.2535 1191.1277,-26.7614"/>
<polygon fill="#191970" stroke="#191970" points="1193.6548,-29.183 1198.0892,-19.5608 1188.6221,-24.3175 1193.6548,-29.183"/>
</g>
<!-- Node29&#45;&gt;Node19 -->
<g id="edge51" class="edge">
<title>Node29&#45;&gt;Node19</title>
<path fill="none" stroke="#191970" d="M1214.2973,-117.9163C1166.8076,-108.2851 1091.5808,-92.7859 1016.6302,-76.0952"/>
<polygon fill="#191970" stroke="#191970" points="1017.0616,-72.6053 1006.539,-73.8402 1015.535,-79.4368 1017.0616,-72.6053"/>
</g>
<!-- Node29&#45;&gt;Node21 -->
<g id="edge62" class="edge">
<title>Node29&#45;&gt;Node21</title>
<path fill="none" stroke="#191970" d="M1311.6752,-117.9333C1324.1526,-115.7558 1337.5383,-113.6121 1350,-112 1538.2397,-87.6486 1590.8899,-107.9762 1782.3682,-75.8012"/>
<polygon fill="#191970" stroke="#191970" points="1783.2147,-79.2074 1792.4833,-74.0748 1782.0369,-72.3072 1783.2147,-79.2074"/>
</g>
<!-- Node30 -->
<g id="node31" class="node">
<title>Node30</title>
<polygon fill="none" stroke="#bfbfbf" points="1742,-56.5 1742,-75.5 1774,-75.5 1774,-56.5 1742,-56.5"/>
<text text-anchor="middle" x="1758" y="-63.5" font-family="Helvetica,sans-Serif" font-size="10.00" fill="#000000">set</text>
</g>
<!-- Node29&#45;&gt;Node30 -->
<g id="edge50" class="edge">
<title>Node29&#45;&gt;Node30</title>
<path fill="none" stroke="#191970" d="M1312.1516,-117.9573C1324.4965,-115.8044 1337.702,-113.666 1350,-112 1517.2326,-89.3451 1562.8895,-110.9075 1728,-76 1729.4435,-75.6948 1730.9146,-75.3435 1732.3916,-74.9591"/>
<polygon fill="#191970" stroke="#191970" points="1733.4195,-78.3049 1741.9933,-72.0806 1731.4093,-71.5997 1733.4195,-78.3049"/>
</g>
<!-- Node31 -->
<g id="node32" class="node">
<title>Node31</title>
<g id="a_node32"><a xlink:href="../../d5/dcd/DsDetId_8h.html" target="_top" xlink:title="MCHRawElecMap/DsDetId.h">
<polygon fill="none" stroke="#000000" points="1358,-56.5 1358,-75.5 1510,-75.5 1510,-56.5 1358,-56.5"/>
<text text-anchor="middle" x="1434" y="-63.5" font-family="Helvetica,sans-Serif" font-size="10.00" fill="#000000">MCHRawElecMap/DsDetId.h</text>
</a>
</g>
</g>
<!-- Node29&#45;&gt;Node31 -->
<g id="edge53" class="edge">
<title>Node29&#45;&gt;Node31</title>
<path fill="none" stroke="#191970" d="M1288.875,-117.8906C1318.1586,-107.42 1365.169,-90.6111 1397.7137,-78.9745"/>
<polygon fill="#191970" stroke="#191970" points="1399.0759,-82.2045 1407.3137,-75.5419 1396.7191,-75.6131 1399.0759,-82.2045"/>
</g>
<!-- Node32 -->
<g id="node33" class="node">
<title>Node32</title>
<g id="a_node33"><a xlink:href="../../d8/d97/FeeLinkId_8h.html" target="_top" xlink:title="MCHRawElecMap/FeeLinkId.h">
<polygon fill="none" stroke="#000000" points="1528,-56.5 1528,-75.5 1686,-75.5 1686,-56.5 1528,-56.5"/>
<text text-anchor="middle" x="1607" y="-63.5" font-family="Helvetica,sans-Serif" font-size="10.00" fill="#000000">MCHRawElecMap/FeeLinkId.h</text>
</a>
</g>
</g>
<!-- Node29&#45;&gt;Node32 -->
<g id="edge57" class="edge">
<title>Node29&#45;&gt;Node32</title>
<path fill="none" stroke="#191970" d="M1315.5277,-117.9581C1377.0594,-106.9894 1477.9687,-89.0012 1543.4388,-77.3305"/>
<polygon fill="#191970" stroke="#191970" points="1544.4,-80.7144 1553.6306,-75.5137 1543.1715,-73.823 1544.4,-80.7144"/>
</g>
<!-- Node31&#45;&gt;Node14 -->
<g id="edge54" class="edge">
<title>Node31&#45;&gt;Node14</title>
<path fill="none" stroke="#191970" d="M1463.7398,-56.3733C1493.8146,-46.638 1540.2794,-31.5974 1572.0847,-21.3021"/>
<polygon fill="#191970" stroke="#191970" points="1573.4205,-24.5485 1581.8566,-18.1389 1571.2647,-17.8887 1573.4205,-24.5485"/>
</g>
<!-- Node31&#45;&gt;Node15 -->
<g id="edge55" class="edge">
<title>Node31&#45;&gt;Node15</title>
<path fill="none" stroke="#191970" d="M1434,-56.2455C1434,-48.9382 1434,-38.6944 1434,-29.7046"/>
<polygon fill="#191970" stroke="#191970" points="1437.5001,-29.6426 1434,-19.6427 1430.5001,-29.6427 1437.5001,-29.6426"/>
</g>
<!-- Node32&#45;&gt;Node14 -->
<g id="edge58" class="edge">
<title>Node32&#45;&gt;Node14</title>
<path fill="none" stroke="#191970" d="M1607,-56.2455C1607,-48.9382 1607,-38.6944 1607,-29.7046"/>
<polygon fill="#191970" stroke="#191970" points="1610.5001,-29.6426 1607,-19.6427 1603.5001,-29.6427 1610.5001,-29.6426"/>
</g>
<!-- Node32&#45;&gt;Node15 -->
<g id="edge59" class="edge">
<title>Node32&#45;&gt;Node15</title>
<path fill="none" stroke="#191970" d="M1577.2602,-56.3733C1547.011,-46.5816 1500.1813,-31.4229 1468.3637,-21.1235"/>
<polygon fill="#191970" stroke="#191970" points="1469.1927,-17.7131 1458.6008,-17.9633 1467.0369,-24.3729 1469.1927,-17.7131"/>
</g>
</g>
</svg>
        <g id="navigator" transform="translate(0 0)" fill="#404254">
                <rect fill="#f2f5e9" fill-opacity="0.5" stroke="#606060" stroke-width=".5" x="0" y="0" width="60" height="60"/>
                <use id="zoomplus" xlink:href="#zoomPlus" x="17" y="9" onmousedown="handleZoom(evt,'in')"/>
                <use id="zoomminus" xlink:href="#zoomMin" x="42" y="9" onmousedown="handleZoom(evt,'out')"/>
                <use id="reset" xlink:href="#resetDef" x="30" y="36" onmousedown="handleReset()"/>
                <g id="arrowUp" xlink:href="#dirArrow" transform="translate(30 24)" onmousedown="handlePan(0,-1)">
                  <use xlink:href="#rim" fill="#404040">
                        <set attributeName="fill" to="#808080" begin="arrowUp.mouseover" end="arrowUp.mouseout"/>
                  </use>
                  <path fill="none" stroke="white" stroke-width="1.5" d="M0,-3.0v7 M-2.5,-0.5L0,-3.0L2.5,-0.5"/>
                </g>
                <g id="arrowRight" xlink:href="#dirArrow" transform="rotate(90) translate(36 -43)" onmousedown="handlePan(1,0)">
                  <use xlink:href="#rim" fill="#404040">
                        <set attributeName="fill" to="#808080" begin="arrowRight.mouseover" end="arrowRight.mouseout"/>
                  </use>
                  <path fill="none" stroke="white" stroke-width="1.5" d="M0,-3.0v7 M-2.5,-0.5L0,-3.0L2.5,-0.5"/>
                </g>
                <g id="arrowDown" xlink:href="#dirArrow" transform="rotate(180) translate(-30 -48)" onmousedown="handlePan(0,1)">
                  <use xlink:href="#rim" fill="#404040">
                        <set attributeName="fill" to="#808080" begin="arrowDown.mouseover" end="arrowDown.mouseout"/>
                  </use>
                  <path fill="none" stroke="white" stroke-width="1.5" d="M0,-3.0v7 M-2.5,-0.5L0,-3.0L2.5,-0.5"/>
                </g>
                <g id="arrowLeft" xlink:href="#dirArrow" transform="rotate(270) translate(-36 17)" onmousedown="handlePan(-1,0)">
                  <use xlink:href="#rim" fill="#404040">
                        <set attributeName="fill" to="#808080" begin="arrowLeft.mouseover" end="arrowLeft.mouseout"/>
                  </use>
                  <path fill="none" stroke="white" stroke-width="1.5" d="M0,-3.0v7 M-2.5,-0.5L0,-3.0L2.5,-0.5"/>
                </g>
        </g>
        <svg viewBox="0 0 15 15" width="100%" height="30px" preserveAspectRatio="xMaxYMin meet">
         <g id="arrow_out" transform="scale(0.3 0.3)">
          <a xlink:href="BareGBTDecoder_8h__incl_org.svg" target="_base">
           <rect id="button" ry="5" rx="5" y="6" x="6" height="38" width="38"
                fill="#f2f5e9" fill-opacity="0.5" stroke="#606060" stroke-width="1.0"/>
           <path id="arrow"
             d="M 11.500037,31.436501 C 11.940474,20.09759 22.043105,11.32322 32.158766,21.979434 L 37.068811,17.246167 C 37.068811,17.246167 37.088388,32 37.088388,32 L 22.160133,31.978069 C 22.160133,31.978069 26.997745,27.140456 26.997745,27.140456 C 18.528582,18.264221 13.291696,25.230495 11.500037,31.436501 z"
             style="fill:#404040;"/>
          </a>
         </g>
        </svg>
</svg>
