<?xml version="1.0" encoding="UTF-8" standalone="no"?>
<!DOCTYPE svg PUBLIC "-//W3C//DTD SVG 1.1//EN"
 "http://www.w3.org/Graphics/SVG/1.1/DTD/svg11.dtd">
<!-- Generated by graphviz version 2.40.1 (20161225.0304)
 -->
<!-- Title: /home/travis/build/AliceO2Group/AliceO2/Framework/Core/include/Framework/BoostOptionsRetriever.h Pages: 1 -->
<svg width="958pt" height="240pt"
 viewBox="0.00 0.00 958.00 240.00" xmlns="http://www.w3.org/2000/svg" xmlns:xlink="http://www.w3.org/1999/xlink">
<g id="graph0" class="graph" transform="scale(1 1) rotate(0) translate(4 236)">
<title>/home/travis/build/AliceO2Group/AliceO2/Framework/Core/include/Framework/BoostOptionsRetriever.h</title>
<!-- Node0 -->
<g id="node1" class="node">
<title>Node0</title>
<polygon fill="#bfbfbf" stroke="#000000" points="514,-179.5 514,-231.5 708,-231.5 708,-179.5 514,-179.5"/>
<text text-anchor="start" x="522" y="-219.5" font-family="Helvetica,sans-Serif" font-size="10.00" fill="#000000">/home/travis/build</text>
<text text-anchor="start" x="522" y="-208.5" font-family="Helvetica,sans-Serif" font-size="10.00" fill="#000000">/AliceO2Group/AliceO2</text>
<text text-anchor="start" x="522" y="-197.5" font-family="Helvetica,sans-Serif" font-size="10.00" fill="#000000">/Framework/Core/include</text>
<text text-anchor="middle" x="611" y="-186.5" font-family="Helvetica,sans-Serif" font-size="10.00" fill="#000000">/Framework/BoostOptionsRetriever.h</text>
</g>
<!-- Node1 -->
<g id="node2" class="node">
<title>Node1</title>
<g id="a_node2"><a xlink:href="../../d0/d1c/ConfigParamSpec_8h.html" target="_top" xlink:title="Framework/ConfigParamSpec.h">
<polygon fill="none" stroke="#000000" points="325.5,-123.5 325.5,-142.5 492.5,-142.5 492.5,-123.5 325.5,-123.5"/>
<text text-anchor="middle" x="409" y="-130.5" font-family="Helvetica,sans-Serif" font-size="10.00" fill="#000000">Framework/ConfigParamSpec.h</text>
</a>
</g>
</g>
<!-- Node0&#45;&gt;Node1 -->
<g id="edge1" class="edge">
<title>Node0&#45;&gt;Node1</title>
<path fill="none" stroke="#191970" d="M538.3588,-179.4283C506.8051,-168.1033 471.233,-155.3361 445.3888,-146.0604"/>
<polygon fill="#191970" stroke="#191970" points="446.2378,-142.6465 435.6433,-142.5626 443.8731,-149.235 446.2378,-142.6465"/>
</g>
<!-- Node11 -->
<g id="node12" class="node">
<title>Node11</title>
<polygon fill="none" stroke="#bfbfbf" points="633,-.5 633,-19.5 677,-19.5 677,-.5 633,-.5"/>
<text text-anchor="middle" x="655" y="-7.5" font-family="Helvetica,sans-Serif" font-size="10.00" fill="#000000">string</text>
</g>
<!-- Node0&#45;&gt;Node11 -->
<g id="edge19" class="edge">
<title>Node0&#45;&gt;Node11</title>
<path fill="none" stroke="#191970" d="M582.2275,-179.391C551.7855,-148.527 511.6455,-96.2743 539,-56 544.0192,-48.6101 590.7231,-31.6478 623.3143,-20.5154"/>
<polygon fill="#191970" stroke="#191970" points="624.5649,-23.7872 632.914,-17.2647 622.3197,-17.157 624.5649,-23.7872"/>
</g>
<!-- Node12 -->
<g id="node13" class="node">
<title>Node12</title>
<g id="a_node13"><a xlink:href="../../df/d72/ParamRetriever_8h.html" target="_top" xlink:title="Framework/ParamRetriever.h">
<polygon fill="none" stroke="#000000" points="586.5,-123.5 586.5,-142.5 743.5,-142.5 743.5,-123.5 586.5,-123.5"/>
<text text-anchor="middle" x="665" y="-130.5" font-family="Helvetica,sans-Serif" font-size="10.00" fill="#000000">Framework/ParamRetriever.h</text>
</a>
</g>
</g>
<!-- Node0&#45;&gt;Node12 -->
<g id="edge13" class="edge">
<title>Node0&#45;&gt;Node12</title>
<path fill="none" stroke="#191970" d="M630.4952,-179.3258C637.5805,-169.8132 645.4147,-159.2951 651.8251,-150.6886"/>
<polygon fill="#191970" stroke="#191970" points="654.7323,-152.6446 657.8988,-142.534 649.1184,-148.4632 654.7323,-152.6446"/>
</g>
<!-- Node13 -->
<g id="node14" class="node">
<title>Node13</title>
<polygon fill="none" stroke="#bfbfbf" points="548.5,-56.5 548.5,-86.5 661.5,-86.5 661.5,-56.5 548.5,-56.5"/>
<text text-anchor="start" x="556.5" y="-74.5" font-family="Helvetica,sans-Serif" font-size="10.00" fill="#000000">boost/property_tree</text>
<text text-anchor="middle" x="605" y="-63.5" font-family="Helvetica,sans-Serif" font-size="10.00" fill="#000000">/ptree.hpp</text>
</g>
<!-- Node0&#45;&gt;Node13 -->
<g id="edge18" class="edge">
<title>Node0&#45;&gt;Node13</title>
<path fill="none" stroke="#191970" d="M593.51,-179.2758C587.3237,-168.5101 581.1283,-155.6247 578,-143 573.955,-126.6755 580.5343,-108.9885 588.2089,-95.29"/>
<polygon fill="#191970" stroke="#191970" points="591.3475,-96.8664 593.58,-86.5094 585.3761,-93.2136 591.3475,-96.8664"/>
</g>
<!-- Node14 -->
<g id="node15" class="node">
<title>Node14</title>
<polygon fill="none" stroke="#bfbfbf" points="733.5,-62 733.5,-81 780.5,-81 780.5,-62 733.5,-62"/>
<text text-anchor="middle" x="757" y="-69" font-family="Helvetica,sans-Serif" font-size="10.00" fill="#000000">vector</text>
</g>
<!-- Node0&#45;&gt;Node14 -->
<g id="edge20" class="edge">
<title>Node0&#45;&gt;Node14</title>
<path fill="none" stroke="#191970" d="M708.1386,-179.9388C725.6648,-171.0224 741.8767,-159.0503 753,-143 763.3714,-128.0346 763.1853,-106.7917 761.1269,-91.3516"/>
<polygon fill="#191970" stroke="#191970" points="764.5461,-90.5801 759.4214,-81.3072 757.6449,-91.752 764.5461,-90.5801"/>
</g>
<!-- Node15 -->
<g id="node16" class="node">
<title>Node15</title>
<polygon fill="none" stroke="#bfbfbf" points="800,-123.5 800,-142.5 950,-142.5 950,-123.5 800,-123.5"/>
<text text-anchor="middle" x="875" y="-130.5" font-family="Helvetica,sans-Serif" font-size="10.00" fill="#000000">boost/program_options.hpp</text>
</g>
<!-- Node0&#45;&gt;Node15 -->
<g id="edge17" class="edge">
<title>Node0&#45;&gt;Node15</title>
<path fill="none" stroke="#191970" d="M705.9371,-179.4283C748.2704,-167.8026 796.138,-154.6572 830.1053,-145.3291"/>
<polygon fill="#191970" stroke="#191970" points="831.4629,-148.5859 840.179,-142.5626 829.6091,-141.8358 831.4629,-148.5859"/>
</g>
<!-- Node2 -->
<g id="node3" class="node">
<title>Node2</title>
<g id="a_node3"><a xlink:href="../../de/d56/Variant_8h.html" target="_top" xlink:title="Framework/Variant.h">
<polygon fill="none" stroke="#000000" points="300.5,-62 300.5,-81 417.5,-81 417.5,-62 300.5,-62"/>
<text text-anchor="middle" x="359" y="-69" font-family="Helvetica,sans-Serif" font-size="10.00" fill="#000000">Framework/Variant.h</text>
</a>
</g>
</g>
<!-- Node1&#45;&gt;Node2 -->
<g id="edge2" class="edge">
<title>Node1&#45;&gt;Node2</title>
<path fill="none" stroke="#191970" d="M401.1875,-123.3906C393.746,-114.2376 382.3666,-100.2409 373.3008,-89.09"/>
<polygon fill="#191970" stroke="#191970" points="375.9467,-86.7962 366.9226,-81.2449 370.5153,-91.212 375.9467,-86.7962"/>
</g>
<!-- Node1&#45;&gt;Node11 -->
<g id="edge12" class="edge">
<title>Node1&#45;&gt;Node11</title>
<path fill="none" stroke="#191970" d="M418.5835,-123.3079C435.0529,-107.1626 470.4023,-74.6928 506,-56 551.89,-31.9025 569.716,-35.8648 623.323,-20.0902"/>
<polygon fill="#191970" stroke="#191970" points="624.451,-23.4055 632.9983,-17.145 622.4125,-16.7089 624.451,-23.4055"/>
</g>
<!-- Node3 -->
<g id="node4" class="node">
<title>Node3</title>
<polygon fill="none" stroke="#bfbfbf" points="545.5,-.5 545.5,-19.5 614.5,-19.5 614.5,-.5 545.5,-.5"/>
<text text-anchor="middle" x="580" y="-7.5" font-family="Helvetica,sans-Serif" font-size="10.00" fill="#000000">type_traits</text>
</g>
<!-- Node2&#45;&gt;Node3 -->
<g id="edge3" class="edge">
<title>Node2&#45;&gt;Node3</title>
<path fill="none" stroke="#191970" d="M393.5313,-61.8906C431.9682,-51.1944 494.1744,-33.8836 536.0536,-22.2294"/>
<polygon fill="#191970" stroke="#191970" points="537.0157,-25.5948 545.7112,-19.5419 535.1389,-18.851 537.0157,-25.5948"/>
</g>
<!-- Node4 -->
<g id="node5" class="node">
<title>Node4</title>
<polygon fill="none" stroke="#bfbfbf" points="0,-.5 0,-19.5 50,-19.5 50,-.5 0,-.5"/>
<text text-anchor="middle" x="25" y="-7.5" font-family="Helvetica,sans-Serif" font-size="10.00" fill="#000000">cstring</text>
</g>
<!-- Node2&#45;&gt;Node4 -->
<g id="edge4" class="edge">
<title>Node2&#45;&gt;Node4</title>
<path fill="none" stroke="#191970" d="M300.2452,-63.4742C241.6663,-55.0093 149.0024,-40.3695 60.1403,-20.0625"/>
<polygon fill="#191970" stroke="#191970" points="60.6963,-16.5988 50.1647,-17.7549 59.1186,-23.4187 60.6963,-16.5988"/>
</g>
<!-- Node5 -->
<g id="node6" class="node">
<title>Node5</title>
<polygon fill="none" stroke="#bfbfbf" points="68,-.5 68,-19.5 118,-19.5 118,-.5 68,-.5"/>
<text text-anchor="middle" x="93" y="-7.5" font-family="Helvetica,sans-Serif" font-size="10.00" fill="#000000">cstdint</text>
</g>
<!-- Node2&#45;&gt;Node5 -->
<g id="edge5" class="edge">
<title>Node2&#45;&gt;Node5</title>
<path fill="none" stroke="#191970" d="M311.6774,-61.9734C266.7487,-52.7096 197.1284,-37.7887 127.9537,-20.1273"/>
<polygon fill="#191970" stroke="#191970" points="128.7551,-16.7196 118.1984,-17.6174 127.0108,-23.4988 128.7551,-16.7196"/>
</g>
<!-- Node6 -->
<g id="node7" class="node">
<title>Node6</title>
<polygon fill="none" stroke="#bfbfbf" points="136.5,-.5 136.5,-19.5 185.5,-19.5 185.5,-.5 136.5,-.5"/>
<text text-anchor="middle" x="161" y="-7.5" font-family="Helvetica,sans-Serif" font-size="10.00" fill="#000000">cstdlib</text>
</g>
<!-- Node2&#45;&gt;Node6 -->
<g id="edge6" class="edge">
<title>Node2&#45;&gt;Node6</title>
<path fill="none" stroke="#191970" d="M328.0625,-61.8906C292.1727,-50.743 233.1525,-32.411 195.7235,-20.7853"/>
<polygon fill="#191970" stroke="#191970" points="196.3645,-17.3195 185.7763,-17.6957 194.2881,-24.0045 196.3645,-17.3195"/>
</g>
<!-- Node7 -->
<g id="node8" class="node">
<title>Node7</title>
<polygon fill="none" stroke="#bfbfbf" points="203.5,-.5 203.5,-19.5 268.5,-19.5 268.5,-.5 203.5,-.5"/>
<text text-anchor="middle" x="236" y="-7.5" font-family="Helvetica,sans-Serif" font-size="10.00" fill="#000000">stdexcept</text>
</g>
<!-- Node2&#45;&gt;Node7 -->
<g id="edge7" class="edge">
<title>Node2&#45;&gt;Node7</title>
<path fill="none" stroke="#191970" d="M339.7813,-61.8906C319.4719,-51.7359 287.2393,-35.6196 264.0832,-24.0416"/>
<polygon fill="#191970" stroke="#191970" points="265.5933,-20.8836 255.0838,-19.5419 262.4628,-27.1446 265.5933,-20.8836"/>
</g>
<!-- Node8 -->
<g id="node9" class="node">
<title>Node8</title>
<polygon fill="none" stroke="#bfbfbf" points="286.5,-.5 286.5,-19.5 335.5,-19.5 335.5,-.5 286.5,-.5"/>
<text text-anchor="middle" x="311" y="-7.5" font-family="Helvetica,sans-Serif" font-size="10.00" fill="#000000">iosfwd</text>
</g>
<!-- Node2&#45;&gt;Node8 -->
<g id="edge8" class="edge">
<title>Node2&#45;&gt;Node8</title>
<path fill="none" stroke="#191970" d="M351.5,-61.8906C344.4262,-52.8273 333.6458,-39.0149 324.9854,-27.9188"/>
<polygon fill="#191970" stroke="#191970" points="327.5176,-25.4746 318.6057,-19.7449 321.9994,-29.7815 327.5176,-25.4746"/>
</g>
<!-- Node9 -->
<g id="node10" class="node">
<title>Node9</title>
<polygon fill="none" stroke="#bfbfbf" points="353.5,-.5 353.5,-19.5 436.5,-19.5 436.5,-.5 353.5,-.5"/>
<text text-anchor="middle" x="395" y="-7.5" font-family="Helvetica,sans-Serif" font-size="10.00" fill="#000000">initializer_list</text>
</g>
<!-- Node2&#45;&gt;Node9 -->
<g id="edge9" class="edge">
<title>Node2&#45;&gt;Node9</title>
<path fill="none" stroke="#191970" d="M364.625,-61.8906C369.8253,-53.0068 377.6966,-39.5601 384.1233,-28.5811"/>
<polygon fill="#191970" stroke="#191970" points="387.2644,-30.1432 389.2957,-19.7449 381.2233,-26.6069 387.2644,-30.1432"/>
</g>
<!-- Node10 -->
<g id="node11" class="node">
<title>Node10</title>
<polygon fill="none" stroke="#bfbfbf" points="454.5,-.5 454.5,-19.5 527.5,-19.5 527.5,-.5 454.5,-.5"/>
<text text-anchor="middle" x="491" y="-7.5" font-family="Helvetica,sans-Serif" font-size="10.00" fill="#000000">string_view</text>
</g>
<!-- Node2&#45;&gt;Node10 -->
<g id="edge10" class="edge">
<title>Node2&#45;&gt;Node10</title>
<path fill="none" stroke="#191970" d="M379.625,-61.8906C401.5173,-51.6908 436.3193,-35.4763 461.1927,-23.8875"/>
<polygon fill="#191970" stroke="#191970" points="462.9335,-26.9377 470.5198,-19.5419 459.9772,-20.5926 462.9335,-26.9377"/>
</g>
<!-- Node2&#45;&gt;Node11 -->
<g id="edge11" class="edge">
<title>Node2&#45;&gt;Node11</title>
<path fill="none" stroke="#191970" d="M417.6082,-62.1909C469.3927,-53.4951 547.071,-39.3074 623.0105,-20.0339"/>
<polygon fill="#191970" stroke="#191970" points="623.9284,-23.4118 632.7426,-17.5331 622.1861,-16.6321 623.9284,-23.4118"/>
</g>
<!-- Node12&#45;&gt;Node11 -->
<g id="edge15" class="edge">
<title>Node12&#45;&gt;Node11</title>
<path fill="none" stroke="#191970" d="M667.2333,-123.4497C670.3177,-108.8295 675.0654,-80.0626 671,-56 669.455,-46.8551 666.2966,-37.1019 663.191,-28.9405"/>
<polygon fill="#191970" stroke="#191970" points="666.4127,-27.5713 659.411,-19.6198 659.9258,-30.2021 666.4127,-27.5713"/>
</g>
<!-- Node12&#45;&gt;Node13 -->
<g id="edge14" class="edge">
<title>Node12&#45;&gt;Node13</title>
<path fill="none" stroke="#191970" d="M655.625,-123.3906C647.9559,-115.5298 636.8013,-104.0964 626.9134,-93.9612"/>
<polygon fill="#191970" stroke="#191970" points="629.1662,-91.2583 619.6777,-86.5446 624.1557,-96.1466 629.1662,-91.2583"/>
</g>
<!-- Node12&#45;&gt;Node14 -->
<g id="edge16" class="edge">
<title>Node12&#45;&gt;Node14</title>
<path fill="none" stroke="#191970" d="M679.375,-123.3906C694.0931,-113.5519 717.1832,-98.1167 734.3589,-86.6351"/>
<polygon fill="#191970" stroke="#191970" points="736.3575,-89.5091 742.7259,-81.0419 732.4673,-83.6896 736.3575,-89.5091"/>
</g>
</g>
</svg>
