<?xml version="1.0" encoding="UTF-8" standalone="no"?>
<!DOCTYPE svg PUBLIC "-//W3C//DTD SVG 1.1//EN"
 "http://www.w3.org/Graphics/SVG/1.1/DTD/svg11.dtd">
<!-- Generated by graphviz version 2.40.1 (20161225.0304)
 -->
<!-- Title: /home/travis/build/AliceO2Group/AliceO2/Detectors/TOF/reconstruction/include/TOFReconstruction/Encoder.h Pages: 1 -->
<svg width="1999pt" height="508pt"
 viewBox="0.00 0.00 1999.00 508.00" xmlns="http://www.w3.org/2000/svg" xmlns:xlink="http://www.w3.org/1999/xlink">
<g id="graph0" class="graph" transform="scale(1 1) rotate(0) translate(4 504)">
<title>/home/travis/build/AliceO2Group/AliceO2/Detectors/TOF/reconstruction/include/TOFReconstruction/Encoder.h</title>
<!-- Node0 -->
<g id="node1" class="node">
<title>Node0</title>
<polygon fill="#bfbfbf" stroke="#000000" points="993,-436.5 993,-499.5 1154,-499.5 1154,-436.5 993,-436.5"/>
<text text-anchor="start" x="1001" y="-487.5" font-family="Helvetica,sans-Serif" font-size="10.00" fill="#000000">/home/travis/build</text>
<text text-anchor="start" x="1001" y="-476.5" font-family="Helvetica,sans-Serif" font-size="10.00" fill="#000000">/AliceO2Group/AliceO2</text>
<text text-anchor="start" x="1001" y="-465.5" font-family="Helvetica,sans-Serif" font-size="10.00" fill="#000000">/Detectors/TOF/reconstruction</text>
<text text-anchor="start" x="1001" y="-454.5" font-family="Helvetica,sans-Serif" font-size="10.00" fill="#000000">/include/TOFReconstruction</text>
<text text-anchor="middle" x="1073.5" y="-443.5" font-family="Helvetica,sans-Serif" font-size="10.00" fill="#000000">/Encoder.h</text>
</g>
<!-- Node1 -->
<g id="node2" class="node">
<title>Node1</title>
<polygon fill="none" stroke="#bfbfbf" points="0,-380.5 0,-399.5 55,-399.5 55,-380.5 0,-380.5"/>
<text text-anchor="middle" x="27.5" y="-387.5" font-family="Helvetica,sans-Serif" font-size="10.00" fill="#000000">fstream</text>
</g>
<!-- Node0&#45;&gt;Node1 -->
<g id="edge1" class="edge">
<title>Node0&#45;&gt;Node1</title>
<path fill="none" stroke="#191970" d="M992.9686,-467.0732C821.9332,-464.1138 410.2005,-451.7304 69.5,-400 68.2078,-399.8038 66.8967,-399.5879 65.5754,-399.356"/>
<polygon fill="#191970" stroke="#191970" points="65.8787,-395.8476 55.3871,-397.3226 64.5086,-402.7122 65.8787,-395.8476"/>
</g>
<!-- Node2 -->
<g id="node3" class="node">
<title>Node2</title>
<polygon fill="none" stroke="#bfbfbf" points="270.5,-.5 270.5,-19.5 314.5,-19.5 314.5,-.5 270.5,-.5"/>
<text text-anchor="middle" x="292.5" y="-7.5" font-family="Helvetica,sans-Serif" font-size="10.00" fill="#000000">string</text>
</g>
<!-- Node0&#45;&gt;Node2 -->
<g id="edge2" class="edge">
<title>Node0&#45;&gt;Node2</title>
<path fill="none" stroke="#191970" d="M992.9039,-465.0885C756.8403,-455.4983 83.5,-420.114 83.5,-328.5 83.5,-328.5 83.5,-328.5 83.5,-138.5 83.5,-100.8735 76.0432,-82.7542 102.5,-56 124.3436,-33.9108 212.108,-19.8905 260.342,-13.6948"/>
<polygon fill="#191970" stroke="#191970" points="260.7886,-17.1663 270.2794,-12.4572 259.9235,-10.2199 260.7886,-17.1663"/>
</g>
<!-- Node3 -->
<g id="node4" class="node">
<title>Node3</title>
<polygon fill="none" stroke="#bfbfbf" points="950.5,-.5 950.5,-19.5 1000.5,-19.5 1000.5,-.5 950.5,-.5"/>
<text text-anchor="middle" x="975.5" y="-7.5" font-family="Helvetica,sans-Serif" font-size="10.00" fill="#000000">cstdint</text>
</g>
<!-- Node0&#45;&gt;Node3 -->
<g id="edge3" class="edge">
<title>Node0&#45;&gt;Node3</title>
<path fill="none" stroke="#191970" d="M1060.5032,-436.4609C1050.1914,-408.5693 1037.5,-366.5186 1037.5,-328.5 1037.5,-328.5 1037.5,-328.5 1037.5,-267 1037.5,-173.2222 1079.6559,-139.7685 1037.5,-56 1030.8263,-42.7387 1018.3207,-32.3415 1006.2793,-24.8125"/>
<polygon fill="#191970" stroke="#191970" points="1007.677,-21.5783 997.2658,-19.6143 1004.1799,-27.6422 1007.677,-21.5783"/>
</g>
<!-- Node4 -->
<g id="node5" class="node">
<title>Node4</title>
<g id="a_node5"><a xlink:href="../../d6/de8/RawDataFormat_8h.html" target="_top" xlink:title="TOF raw data format. ">
<polygon fill="none" stroke="#000000" points="1802,-380.5 1802,-399.5 1991,-399.5 1991,-380.5 1802,-380.5"/>
<text text-anchor="middle" x="1896.5" y="-387.5" font-family="Helvetica,sans-Serif" font-size="10.00" fill="#000000">DataFormatsTOF/RawDataFormat.h</text>
</a>
</g>
</g>
<!-- Node0&#45;&gt;Node4 -->
<g id="edge4" class="edge">
<title>Node0&#45;&gt;Node4</title>
<path fill="none" stroke="#191970" d="M1154.2876,-460.3433C1304.1388,-446.1412 1625.0201,-415.7296 1791.479,-399.9534"/>
<polygon fill="#191970" stroke="#191970" points="1792.1033,-403.41 1801.7284,-398.982 1791.4428,-396.4412 1792.1033,-403.41"/>
</g>
<!-- Node6 -->
<g id="node7" class="node">
<title>Node6</title>
<g id="a_node7"><a xlink:href="../../d4/d54/Geo_8h.html" target="_top" xlink:title="TOFBase/Geo.h">
<polygon fill="none" stroke="#000000" points="1498,-319 1498,-338 1589,-338 1589,-319 1498,-319"/>
<text text-anchor="middle" x="1543.5" y="-326" font-family="Helvetica,sans-Serif" font-size="10.00" fill="#000000">TOFBase/Geo.h</text>
</a>
</g>
</g>
<!-- Node0&#45;&gt;Node6 -->
<g id="edge6" class="edge">
<title>Node0&#45;&gt;Node6</title>
<path fill="none" stroke="#191970" d="M1154.0287,-444.0984C1254.7,-414.2183 1423.2697,-364.1854 1501.3917,-340.9981"/>
<polygon fill="#191970" stroke="#191970" points="1502.7622,-344.2423 1511.3529,-338.0415 1500.7703,-337.5317 1502.7622,-344.2423"/>
</g>
<!-- Node9 -->
<g id="node10" class="node">
<title>Node9</title>
<g id="a_node10"><a xlink:href="../../d1/dec/HBFUtils_8h.html" target="_top" xlink:title="DetectorsRaw/HBFUtils.h">
<polygon fill="none" stroke="#000000" points="1160,-257.5 1160,-276.5 1299,-276.5 1299,-257.5 1160,-257.5"/>
<text text-anchor="middle" x="1229.5" y="-264.5" font-family="Helvetica,sans-Serif" font-size="10.00" fill="#000000">DetectorsRaw/HBFUtils.h</text>
</a>
</g>
</g>
<!-- Node0&#45;&gt;Node9 -->
<g id="edge67" class="edge">
<title>Node0&#45;&gt;Node9</title>
<path fill="none" stroke="#191970" d="M1098.2187,-436.151C1131.5001,-393.2691 1189.5722,-318.4455 1215.8692,-284.5627"/>
<polygon fill="#191970" stroke="#191970" points="1218.7512,-286.5579 1222.1175,-276.5121 1213.2212,-282.266 1218.7512,-286.5579"/>
</g>
<!-- Node15 -->
<g id="node16" class="node">
<title>Node15</title>
<g id="a_node16"><a xlink:href="../../d4/d78/DataFormats_2Headers_2include_2Headers_2RAWDataHeader_8h.html" target="_top" xlink:title="Headers/RAWDataHeader.h">
<polygon fill="none" stroke="#000000" points="880,-62 880,-81 1029,-81 1029,-62 880,-62"/>
<text text-anchor="middle" x="954.5" y="-69" font-family="Helvetica,sans-Serif" font-size="10.00" fill="#000000">Headers/RAWDataHeader.h</text>
</a>
</g>
</g>
<!-- Node0&#45;&gt;Node15 -->
<g id="edge66" class="edge">
<title>Node0&#45;&gt;Node15</title>
<path fill="none" stroke="#191970" d="M1036.7439,-436.4046C1010.7488,-410.3938 980.5,-370.9967 980.5,-328.5 980.5,-328.5 980.5,-328.5 980.5,-205.5 980.5,-164.0289 968.3502,-116.6383 960.6616,-90.8008"/>
<polygon fill="#191970" stroke="#191970" points="963.9719,-89.6574 957.6881,-81.1272 957.2809,-91.7142 963.9719,-89.6574"/>
</g>
<!-- Node42 -->
<g id="node43" class="node">
<title>Node42</title>
<g id="a_node43"><a xlink:href="../../d1/d90/Detectors_2TOF_2base_2include_2TOFBase_2Digit_8h.html" target="_top" xlink:title="TOFBase/Digit.h">
<polygon fill="none" stroke="#000000" points="1632,-380.5 1632,-399.5 1727,-399.5 1727,-380.5 1632,-380.5"/>
<text text-anchor="middle" x="1679.5" y="-387.5" font-family="Helvetica,sans-Serif" font-size="10.00" fill="#000000">TOFBase/Digit.h</text>
</a>
</g>
</g>
<!-- Node0&#45;&gt;Node42 -->
<g id="edge58" class="edge">
<title>Node0&#45;&gt;Node42</title>
<path fill="none" stroke="#191970" d="M1154.2854,-457.6019C1278.3731,-441.6302 1512.9011,-411.4434 1621.5521,-397.4586"/>
<polygon fill="#191970" stroke="#191970" points="1622.1944,-400.9049 1631.6658,-396.1569 1621.3008,-393.9622 1622.1944,-400.9049"/>
</g>
<!-- Node5 -->
<g id="node6" class="node">
<title>Node5</title>
<polygon fill="none" stroke="#bfbfbf" points="1928,-319 1928,-338 1981,-338 1981,-319 1928,-319"/>
<text text-anchor="middle" x="1954.5" y="-326" font-family="Helvetica,sans-Serif" font-size="10.00" fill="#000000">stdint.h</text>
</g>
<!-- Node4&#45;&gt;Node5 -->
<g id="edge5" class="edge">
<title>Node4&#45;&gt;Node5</title>
<path fill="none" stroke="#191970" d="M1905.5625,-380.3906C1914.2793,-371.1478 1927.654,-356.966 1938.2196,-345.7628"/>
<polygon fill="#191970" stroke="#191970" points="1940.995,-347.9213 1945.3097,-338.2449 1935.9024,-343.1186 1940.995,-347.9213"/>
</g>
<!-- Node7 -->
<g id="node8" class="node">
<title>Node7</title>
<polygon fill="none" stroke="#bfbfbf" points="1790,-.5 1790,-19.5 1849,-19.5 1849,-.5 1790,-.5"/>
<text text-anchor="middle" x="1819.5" y="-7.5" font-family="Helvetica,sans-Serif" font-size="10.00" fill="#000000">Rtypes.h</text>
</g>
<!-- Node6&#45;&gt;Node7 -->
<g id="edge7" class="edge">
<title>Node6&#45;&gt;Node7</title>
<path fill="none" stroke="#191970" d="M1559.9043,-318.99C1607.1929,-290.6173 1744.3613,-201.3899 1806.5,-87 1816.1747,-69.19 1818.9831,-45.9216 1819.6455,-29.644"/>
<polygon fill="#191970" stroke="#191970" points="1823.1449,-29.704 1819.8191,-19.6447 1816.1459,-29.5823 1823.1449,-29.704"/>
</g>
<!-- Node8 -->
<g id="node9" class="node">
<title>Node8</title>
<g id="a_node9"><a xlink:href="../../d4/dc6/LHCConstants_8h.html" target="_top" xlink:title="Header to collect LHC related constants. ">
<polygon fill="none" stroke="#000000" points="1371.5,-62 1371.5,-81 1561.5,-81 1561.5,-62 1371.5,-62"/>
<text text-anchor="middle" x="1466.5" y="-69" font-family="Helvetica,sans-Serif" font-size="10.00" fill="#000000">CommonConstants/LHCConstants.h</text>
</a>
</g>
</g>
<!-- Node6&#45;&gt;Node8 -->
<g id="edge8" class="edge">
<title>Node6&#45;&gt;Node8</title>
<path fill="none" stroke="#191970" d="M1541.2187,-318.9767C1534.0902,-289.5374 1511.2276,-197.4942 1486.5,-123 1482.9051,-112.1701 1478.3322,-100.2838 1474.4666,-90.6617"/>
<polygon fill="#191970" stroke="#191970" points="1477.6506,-89.2009 1470.6293,-81.2666 1471.1703,-91.8477 1477.6506,-89.2009"/>
</g>
<!-- Node6&#45;&gt;Node9 -->
<g id="edge9" class="edge">
<title>Node6&#45;&gt;Node9</title>
<path fill="none" stroke="#191970" d="M1497.8417,-319.5574C1442.335,-308.6858 1348.5739,-290.3218 1287.8717,-278.4327"/>
<polygon fill="#191970" stroke="#191970" points="1288.5397,-274.9971 1278.0534,-276.5097 1287.1942,-281.8666 1288.5397,-274.9971"/>
</g>
<!-- Node9&#45;&gt;Node7 -->
<g id="edge10" class="edge">
<title>Node9&#45;&gt;Node7</title>
<path fill="none" stroke="#191970" d="M1272.7368,-257.4561C1310.0389,-248.9079 1365.21,-235.5113 1412.5,-221 1578.903,-169.9381 1650.2831,-202.5026 1780.5,-87 1797.8604,-71.6013 1808.4886,-46.6562 1814.177,-29.349"/>
<polygon fill="#191970" stroke="#191970" points="1817.5462,-30.2988 1817.0964,-19.7135 1810.847,-28.269 1817.5462,-30.2988"/>
</g>
<!-- Node10 -->
<g id="node11" class="node">
<title>Node10</title>
<g id="a_node11"><a xlink:href="../../d6/dec/Raw_2include_2DetectorsRaw_2RDHUtils_8h.html" target="_top" xlink:title="DetectorsRaw/RDHUtils.h">
<polygon fill="none" stroke="#000000" points="1244,-196 1244,-215 1385,-215 1385,-196 1244,-196"/>
<text text-anchor="middle" x="1314.5" y="-203" font-family="Helvetica,sans-Serif" font-size="10.00" fill="#000000">DetectorsRaw/RDHUtils.h</text>
</a>
</g>
</g>
<!-- Node9&#45;&gt;Node10 -->
<g id="edge11" class="edge">
<title>Node9&#45;&gt;Node10</title>
<path fill="none" stroke="#191970" d="M1242.7813,-257.3906C1256.2548,-247.6421 1277.322,-232.3994 1293.1435,-220.9521"/>
<polygon fill="#191970" stroke="#191970" points="1295.2619,-223.7394 1301.312,-215.0419 1291.1586,-218.0682 1295.2619,-223.7394"/>
</g>
<!-- Node19 -->
<g id="node20" class="node">
<title>Node19</title>
<g id="a_node20"><a xlink:href="../../d9/d80/InteractionRecord_8h.html" target="_top" xlink:title="CommonDataFormat/Interaction\lRecord.h">
<polygon fill="none" stroke="#000000" points="1303.5,-123.5 1303.5,-153.5 1477.5,-153.5 1477.5,-123.5 1303.5,-123.5"/>
<text text-anchor="start" x="1311.5" y="-141.5" font-family="Helvetica,sans-Serif" font-size="10.00" fill="#000000">CommonDataFormat/Interaction</text>
<text text-anchor="middle" x="1390.5" y="-130.5" font-family="Helvetica,sans-Serif" font-size="10.00" fill="#000000">Record.h</text>
</a>
</g>
</g>
<!-- Node9&#45;&gt;Node19 -->
<g id="edge55" class="edge">
<title>Node9&#45;&gt;Node19</title>
<path fill="none" stroke="#191970" d="M1291.8627,-257.4676C1332.7769,-249.7934 1380.9501,-237.5543 1393.5,-221 1405.8046,-204.7692 1403.5238,-181.1358 1399.0591,-163.3199"/>
<polygon fill="#191970" stroke="#191970" points="1402.3933,-162.2496 1396.2717,-153.6023 1395.6647,-164.1797 1402.3933,-162.2496"/>
</g>
<!-- Node31 -->
<g id="node32" class="node">
<title>Node31</title>
<g id="a_node32"><a xlink:href="../../db/d2c/ConfigurableParam_8h.html" target="_top" xlink:title="CommonUtils/Configurable\lParam.h">
<polygon fill="none" stroke="#000000" points="421.5,-123.5 421.5,-153.5 569.5,-153.5 569.5,-123.5 421.5,-123.5"/>
<text text-anchor="start" x="429.5" y="-141.5" font-family="Helvetica,sans-Serif" font-size="10.00" fill="#000000">CommonUtils/Configurable</text>
<text text-anchor="middle" x="495.5" y="-130.5" font-family="Helvetica,sans-Serif" font-size="10.00" fill="#000000">Param.h</text>
</a>
</g>
</g>
<!-- Node9&#45;&gt;Node31 -->
<g id="edge42" class="edge">
<title>Node9&#45;&gt;Node31</title>
<path fill="none" stroke="#191970" d="M1175.2291,-257.4989C1048.4644,-235.3064 732.1575,-179.9312 579.9469,-153.284"/>
<polygon fill="#191970" stroke="#191970" points="580.1729,-149.7704 569.7191,-151.4934 578.9657,-156.6655 580.1729,-149.7704"/>
</g>
<!-- Node38 -->
<g id="node39" class="node">
<title>Node38</title>
<g id="a_node39"><a xlink:href="../../da/d6b/ConfigurableParamHelper_8h.html" target="_top" xlink:title="CommonUtils/Configurable\lParamHelper.h">
<polygon fill="none" stroke="#000000" points="361.5,-190.5 361.5,-220.5 509.5,-220.5 509.5,-190.5 361.5,-190.5"/>
<text text-anchor="start" x="369.5" y="-208.5" font-family="Helvetica,sans-Serif" font-size="10.00" fill="#000000">CommonUtils/Configurable</text>
<text text-anchor="middle" x="435.5" y="-197.5" font-family="Helvetica,sans-Serif" font-size="10.00" fill="#000000">ParamHelper.h</text>
</a>
</g>
</g>
<!-- Node9&#45;&gt;Node38 -->
<g id="edge49" class="edge">
<title>Node9&#45;&gt;Node38</title>
<path fill="none" stroke="#191970" d="M1159.7337,-261.5962C1013.9323,-250.303 677.4438,-224.24 519.8255,-212.0315"/>
<polygon fill="#191970" stroke="#191970" points="519.9465,-208.5305 509.7061,-211.2477 519.4059,-215.5096 519.9465,-208.5305"/>
</g>
<!-- Node41 -->
<g id="node42" class="node">
<title>Node41</title>
<g id="a_node42"><a xlink:href="../../de/da4/Triggers_8h.html" target="_top" xlink:title="Definition of the 32 Central Trigger System (CTS) Trigger Types defined in https://twiki.cern.ch/twiki/pub/ALICE/NoteForFEDevelopers/CTS_CRU_FE_interface.pdf. ">
<polygon fill="none" stroke="#000000" points="1065.5,-196 1065.5,-215 1225.5,-215 1225.5,-196 1065.5,-196"/>
<text text-anchor="middle" x="1145.5" y="-203" font-family="Helvetica,sans-Serif" font-size="10.00" fill="#000000">CommonConstants/Triggers.h</text>
</a>
</g>
</g>
<!-- Node9&#45;&gt;Node41 -->
<g id="edge56" class="edge">
<title>Node9&#45;&gt;Node41</title>
<path fill="none" stroke="#191970" d="M1216.375,-257.3906C1203.06,-247.6421 1182.2406,-232.3994 1166.6053,-220.9521"/>
<polygon fill="#191970" stroke="#191970" points="1168.6691,-218.1253 1158.5328,-215.0419 1164.5339,-223.7734 1168.6691,-218.1253"/>
</g>
<!-- Node11 -->
<g id="node12" class="node">
<title>Node11</title>
<g id="a_node12"><a xlink:href="../../df/d21/GPUCommonDef_8h.html" target="_top" xlink:title="GPUCommonDef.h">
<polygon fill="none" stroke="#000000" points="717,-62 717,-81 824,-81 824,-62 717,-62"/>
<text text-anchor="middle" x="770.5" y="-69" font-family="Helvetica,sans-Serif" font-size="10.00" fill="#000000">GPUCommonDef.h</text>
</a>
</g>
</g>
<!-- Node10&#45;&gt;Node11 -->
<g id="edge12" class="edge">
<title>Node10&#45;&gt;Node11</title>
<path fill="none" stroke="#191970" d="M1269.3649,-195.9258C1258.0211,-193.7485 1245.846,-191.6068 1234.5,-190 1146.3527,-177.5169 913.7673,-196.4265 835.5,-154 809.1698,-139.7271 789.8692,-109.8079 779.4166,-90.1953"/>
<polygon fill="#191970" stroke="#191970" points="782.5306,-88.5971 774.8852,-81.2623 776.2878,-91.7639 782.5306,-88.5971"/>
</g>
<!-- Node14 -->
<g id="node15" class="node">
<title>Node14</title>
<g id="a_node15"><a xlink:href="../../d2/d45/GPUCommonRtypes_8h.html" target="_top" xlink:title="GPUCommonRtypes.h">
<polygon fill="none" stroke="#000000" points="1647,-62 1647,-81 1772,-81 1772,-62 1647,-62"/>
<text text-anchor="middle" x="1709.5" y="-69" font-family="Helvetica,sans-Serif" font-size="10.00" fill="#000000">GPUCommonRtypes.h</text>
</a>
</g>
</g>
<!-- Node10&#45;&gt;Node14 -->
<g id="edge15" class="edge">
<title>Node10&#45;&gt;Node14</title>
<path fill="none" stroke="#191970" d="M1348.6408,-195.9688C1383.4912,-186.078 1439.052,-169.8625 1486.5,-154 1554.2381,-131.3543 1632.2782,-101.6337 1675.752,-84.7462"/>
<polygon fill="#191970" stroke="#191970" points="1677.2127,-87.9335 1685.2607,-81.0429 1674.6723,-81.4107 1677.2127,-87.9335"/>
</g>
<!-- Node10&#45;&gt;Node15 -->
<g id="edge17" class="edge">
<title>Node10&#45;&gt;Node15</title>
<path fill="none" stroke="#191970" d="M1287.5655,-195.9593C1258.7811,-185.7262 1211.837,-168.9299 1171.5,-154 1106.6263,-129.9883 1031.2023,-101.091 988.534,-84.6517"/>
<polygon fill="#191970" stroke="#191970" points="989.7694,-81.377 979.1798,-81.0451 987.2511,-87.9083 989.7694,-81.377"/>
</g>
<!-- Node16 -->
<g id="node17" class="node">
<title>Node16</title>
<g id="a_node17"><a xlink:href="../../d6/d89/RDHAny_8h.html" target="_top" xlink:title="Headers/RDHAny.h">
<polygon fill="none" stroke="#000000" points="844.5,-129 844.5,-148 952.5,-148 952.5,-129 844.5,-129"/>
<text text-anchor="middle" x="898.5" y="-136" font-family="Helvetica,sans-Serif" font-size="10.00" fill="#000000">Headers/RDHAny.h</text>
</a>
</g>
</g>
<!-- Node10&#45;&gt;Node16 -->
<g id="edge19" class="edge">
<title>Node10&#45;&gt;Node16</title>
<path fill="none" stroke="#191970" d="M1266.7542,-195.9309C1256.1495,-193.8944 1244.9543,-191.8132 1234.5,-190 1183.5658,-181.1658 1044.9857,-160.3039 962.5742,-148.0138"/>
<polygon fill="#191970" stroke="#191970" points="962.9726,-144.5346 952.5659,-146.5222 961.9407,-151.4582 962.9726,-144.5346"/>
</g>
<!-- Node10&#45;&gt;Node19 -->
<g id="edge24" class="edge">
<title>Node10&#45;&gt;Node19</title>
<path fill="none" stroke="#191970" d="M1325.3889,-195.9005C1335.8879,-186.6448 1352.1482,-172.3101 1365.7925,-160.2816"/>
<polygon fill="#191970" stroke="#191970" points="1368.2736,-162.7602 1373.4604,-153.5218 1363.6446,-157.5093 1368.2736,-162.7602"/>
</g>
<!-- Node22 -->
<g id="node23" class="node">
<title>Node22</title>
<g id="a_node23"><a xlink:href="../../d7/d34/DAQID_8h.html" target="_top" xlink:title="Headers/DAQID.h">
<polygon fill="none" stroke="#000000" points="1181,-129 1181,-148 1282,-148 1282,-129 1181,-129"/>
<text text-anchor="middle" x="1231.5" y="-136" font-family="Helvetica,sans-Serif" font-size="10.00" fill="#000000">Headers/DAQID.h</text>
</a>
</g>
</g>
<!-- Node10&#45;&gt;Node22 -->
<g id="edge30" class="edge">
<title>Node10&#45;&gt;Node22</title>
<path fill="none" stroke="#191970" d="M1302.6081,-195.9005C1289.2952,-185.1539 1267.5001,-167.5603 1251.5432,-154.6794"/>
<polygon fill="#191970" stroke="#191970" points="1253.3494,-151.6395 1243.3698,-148.0817 1248.9526,-157.0863 1253.3494,-151.6395"/>
</g>
<!-- Node12 -->
<g id="node13" class="node">
<title>Node12</title>
<g id="a_node13"><a xlink:href="../../d5/d93/GPUCommonDefSettings_8h.html" target="_top" xlink:title="GPUCommonDefSettings.h">
<polygon fill="none" stroke="#000000" points="592.5,-.5 592.5,-19.5 740.5,-19.5 740.5,-.5 592.5,-.5"/>
<text text-anchor="middle" x="666.5" y="-7.5" font-family="Helvetica,sans-Serif" font-size="10.00" fill="#000000">GPUCommonDefSettings.h</text>
</a>
</g>
</g>
<!-- Node11&#45;&gt;Node12 -->
<g id="edge13" class="edge">
<title>Node11&#45;&gt;Node12</title>
<path fill="none" stroke="#191970" d="M754.25,-61.8906C737.3831,-51.9165 710.7901,-36.1908 691.2965,-24.6633"/>
<polygon fill="#191970" stroke="#191970" points="693.0251,-21.6194 682.6359,-19.5419 689.462,-27.6447 693.0251,-21.6194"/>
</g>
<!-- Node13 -->
<g id="node14" class="node">
<title>Node13</title>
<g id="a_node14"><a xlink:href="../../da/d5a/GPUCommonDefAPI_8h.html" target="_top" xlink:title="GPUCommonDefAPI.h">
<polygon fill="none" stroke="#000000" points="758.5,-.5 758.5,-19.5 882.5,-19.5 882.5,-.5 758.5,-.5"/>
<text text-anchor="middle" x="820.5" y="-7.5" font-family="Helvetica,sans-Serif" font-size="10.00" fill="#000000">GPUCommonDefAPI.h</text>
</a>
</g>
</g>
<!-- Node11&#45;&gt;Node13 -->
<g id="edge14" class="edge">
<title>Node11&#45;&gt;Node13</title>
<path fill="none" stroke="#191970" d="M778.3125,-61.8906C785.754,-52.7376 797.1334,-38.7409 806.1992,-27.59"/>
<polygon fill="#191970" stroke="#191970" points="808.9847,-29.712 812.5774,-19.7449 803.5533,-25.2962 808.9847,-29.712"/>
</g>
<!-- Node14&#45;&gt;Node7 -->
<g id="edge16" class="edge">
<title>Node14&#45;&gt;Node7</title>
<path fill="none" stroke="#191970" d="M1726.6875,-61.8906C1744.6082,-51.8713 1772.9095,-36.0483 1793.5523,-24.5071"/>
<polygon fill="#191970" stroke="#191970" points="1795.4128,-27.4769 1802.4332,-19.5419 1791.9967,-21.367 1795.4128,-27.4769"/>
</g>
<!-- Node15&#45;&gt;Node3 -->
<g id="edge18" class="edge">
<title>Node15&#45;&gt;Node3</title>
<path fill="none" stroke="#191970" d="M957.7813,-61.8906C960.7535,-53.1862 965.2214,-40.1015 968.927,-29.2494"/>
<polygon fill="#191970" stroke="#191970" points="972.2532,-30.3394 972.1725,-19.7449 965.6288,-28.0773 972.2532,-30.3394"/>
</g>
<!-- Node16&#45;&gt;Node11 -->
<g id="edge20" class="edge">
<title>Node16&#45;&gt;Node11</title>
<path fill="none" stroke="#191970" d="M880.1607,-128.9005C858.5844,-117.6067 822.5609,-98.7506 797.7234,-85.7497"/>
<polygon fill="#191970" stroke="#191970" points="799.2881,-82.6183 788.8053,-81.0817 796.0418,-88.8201 799.2881,-82.6183"/>
</g>
<!-- Node16&#45;&gt;Node15 -->
<g id="edge21" class="edge">
<title>Node16&#45;&gt;Node15</title>
<path fill="none" stroke="#191970" d="M906.5234,-128.9005C915.2561,-118.4525 929.3982,-101.5325 940.0708,-88.7635"/>
<polygon fill="#191970" stroke="#191970" points="942.7638,-90.9991 946.4914,-81.0817 937.3928,-86.5099 942.7638,-90.9991"/>
</g>
<!-- Node17 -->
<g id="node18" class="node">
<title>Node17</title>
<polygon fill="none" stroke="#bfbfbf" points="630,-62 630,-81 699,-81 699,-62 630,-62"/>
<text text-anchor="middle" x="664.5" y="-69" font-family="Helvetica,sans-Serif" font-size="10.00" fill="#000000">type_traits</text>
</g>
<!-- Node16&#45;&gt;Node17 -->
<g id="edge22" class="edge">
<title>Node16&#45;&gt;Node17</title>
<path fill="none" stroke="#191970" d="M859.4516,-128.977C820.6557,-119.2801 759.5921,-103.3808 707.5,-87 704.8931,-86.1802 702.2094,-85.3005 699.5168,-84.3918"/>
<polygon fill="#191970" stroke="#191970" points="700.4427,-81.0083 689.8479,-81.0296 698.1436,-87.62 700.4427,-81.0083"/>
</g>
<!-- Node18 -->
<g id="node19" class="node">
<title>Node18</title>
<polygon fill="none" stroke="#bfbfbf" points="1019,-.5 1019,-19.5 1084,-19.5 1084,-.5 1019,-.5"/>
<text text-anchor="middle" x="1051.5" y="-7.5" font-family="Helvetica,sans-Serif" font-size="10.00" fill="#000000">stdexcept</text>
</g>
<!-- Node16&#45;&gt;Node18 -->
<g id="edge23" class="edge">
<title>Node16&#45;&gt;Node18</title>
<path fill="none" stroke="#191970" d="M952.815,-131.524C982.1237,-124.9118 1016.4969,-112.0416 1037.5,-87 1050.7663,-71.1828 1053.2168,-47.0176 1053.017,-29.9852"/>
<polygon fill="#191970" stroke="#191970" points="1056.4929,-29.3594 1052.5556,-19.5233 1049.4997,-29.6679 1056.4929,-29.3594"/>
</g>
<!-- Node19&#45;&gt;Node3 -->
<g id="edge28" class="edge">
<title>Node19&#45;&gt;Node3</title>
<path fill="none" stroke="#191970" d="M1303.3896,-124.0726C1257.5999,-115.4046 1200.8792,-102.9441 1151.5,-87 1097.4815,-69.5579 1037.4961,-41.2732 1003.3547,-24.2728"/>
<polygon fill="#191970" stroke="#191970" points="1004.5374,-20.9502 994.0303,-19.5895 1001.3955,-27.2055 1004.5374,-20.9502"/>
</g>
<!-- Node19&#45;&gt;Node8 -->
<g id="edge29" class="edge">
<title>Node19&#45;&gt;Node8</title>
<path fill="none" stroke="#191970" d="M1407.7456,-123.2967C1419.7017,-112.7564 1435.6119,-98.7303 1447.8604,-87.9323"/>
<polygon fill="#191970" stroke="#191970" points="1450.4748,-90.2934 1455.6615,-81.055 1445.8457,-85.0425 1450.4748,-90.2934"/>
</g>
<!-- Node19&#45;&gt;Node14 -->
<g id="edge25" class="edge">
<title>Node19&#45;&gt;Node14</title>
<path fill="none" stroke="#191970" d="M1463.2088,-123.4692C1512.4239,-113.2635 1578.8989,-99.4168 1637.5,-87 1643.2696,-85.7775 1649.2975,-84.4923 1655.3033,-83.2068"/>
<polygon fill="#191970" stroke="#191970" points="1656.2967,-86.5734 1665.3402,-81.0539 1654.8286,-79.7291 1656.2967,-86.5734"/>
</g>
<!-- Node20 -->
<g id="node21" class="node">
<title>Node20</title>
<polygon fill="none" stroke="#bfbfbf" points="1580,-62 1580,-81 1629,-81 1629,-62 1580,-62"/>
<text text-anchor="middle" x="1604.5" y="-69" font-family="Helvetica,sans-Serif" font-size="10.00" fill="#000000">iosfwd</text>
</g>
<!-- Node19&#45;&gt;Node20 -->
<g id="edge26" class="edge">
<title>Node19&#45;&gt;Node20</title>
<path fill="none" stroke="#191970" d="M1451.6359,-123.4346C1486.8147,-114.1657 1531.6158,-101.3351 1570.5,-87 1572.132,-86.3983 1573.7951,-85.7527 1575.465,-85.0788"/>
<polygon fill="#191970" stroke="#191970" points="1577.1191,-88.1779 1584.9316,-81.0215 1574.3615,-81.7439 1577.1191,-88.1779"/>
</g>
<!-- Node21 -->
<g id="node22" class="node">
<title>Node21</title>
<polygon fill="none" stroke="#bfbfbf" points="1306,-62 1306,-81 1353,-81 1353,-62 1306,-62"/>
<text text-anchor="middle" x="1329.5" y="-69" font-family="Helvetica,sans-Serif" font-size="10.00" fill="#000000">cmath</text>
</g>
<!-- Node19&#45;&gt;Node21 -->
<g id="edge27" class="edge">
<title>Node19&#45;&gt;Node21</title>
<path fill="none" stroke="#191970" d="M1376.6582,-123.2967C1367.2463,-112.9591 1354.7817,-99.2684 1345.0311,-88.5588"/>
<polygon fill="#191970" stroke="#191970" points="1347.5196,-86.0931 1338.1993,-81.055 1342.3435,-90.8057 1347.5196,-86.0931"/>
</g>
<!-- Node23 -->
<g id="node24" class="node">
<title>Node23</title>
<g id="a_node24"><a xlink:href="../../dc/dcd/DataHeader_8h.html" target="_top" xlink:title="Headers/DataHeader.h">
<polygon fill="none" stroke="#000000" points="1161,-62 1161,-81 1288,-81 1288,-62 1161,-62"/>
<text text-anchor="middle" x="1224.5" y="-69" font-family="Helvetica,sans-Serif" font-size="10.00" fill="#000000">Headers/DataHeader.h</text>
</a>
</g>
</g>
<!-- Node22&#45;&gt;Node23 -->
<g id="edge31" class="edge">
<title>Node22&#45;&gt;Node23</title>
<path fill="none" stroke="#191970" d="M1230.4971,-128.9005C1229.4783,-119.149 1227.8704,-103.7597 1226.5759,-91.3695"/>
<polygon fill="#191970" stroke="#191970" points="1230.0213,-90.6638 1225.5011,-81.0817 1223.0592,-91.3912 1230.0213,-90.6638"/>
</g>
<!-- Node23&#45;&gt;Node2 -->
<g id="edge38" class="edge">
<title>Node23&#45;&gt;Node2</title>
<path fill="none" stroke="#191970" d="M1160.9098,-65.8953C1124.7445,-62.7916 1078.6021,-58.972 1037.5,-56 761.9346,-36.0743 428.6302,-17.4321 324.8949,-11.7562"/>
<polygon fill="#191970" stroke="#191970" points="324.9327,-8.2531 314.7568,-11.2028 324.5511,-15.2427 324.9327,-8.2531"/>
</g>
<!-- Node23&#45;&gt;Node3 -->
<g id="edge32" class="edge">
<title>Node23&#45;&gt;Node3</title>
<path fill="none" stroke="#191970" d="M1181.9133,-61.9726C1140.5442,-52.5676 1075.7392,-37.4398 1010.7222,-20.2356"/>
<polygon fill="#191970" stroke="#191970" points="1011.2746,-16.7609 1000.7108,-17.5702 1009.4737,-23.5252 1011.2746,-16.7609"/>
</g>
<!-- Node23&#45;&gt;Node18 -->
<g id="edge37" class="edge">
<title>Node23&#45;&gt;Node18</title>
<path fill="none" stroke="#191970" d="M1197.4688,-61.8906C1168.0149,-51.42 1120.7311,-34.6111 1087.9973,-22.9745"/>
<polygon fill="#191970" stroke="#191970" points="1088.9361,-19.5937 1078.3414,-19.5419 1086.5914,-26.1893 1088.9361,-19.5937"/>
</g>
<!-- Node24 -->
<g id="node25" class="node">
<title>Node24</title>
<polygon fill="none" stroke="#bfbfbf" points="1550.5,-.5 1550.5,-19.5 1608.5,-19.5 1608.5,-.5 1550.5,-.5"/>
<text text-anchor="middle" x="1579.5" y="-7.5" font-family="Helvetica,sans-Serif" font-size="10.00" fill="#000000">memory</text>
</g>
<!-- Node23&#45;&gt;Node24 -->
<g id="edge33" class="edge">
<title>Node23&#45;&gt;Node24</title>
<path fill="none" stroke="#191970" d="M1266.6679,-61.9381C1276.4385,-59.8572 1286.8123,-57.7555 1296.5,-56 1401.2018,-37.0272 1431.2911,-41.36 1540.1156,-19.8824"/>
<polygon fill="#191970" stroke="#191970" points="1541.0699,-23.2609 1550.1883,-17.8659 1539.6958,-16.3971 1541.0699,-23.2609"/>
</g>
<!-- Node25 -->
<g id="node26" class="node">
<title>Node25</title>
<polygon fill="none" stroke="#bfbfbf" points="1626.5,-.5 1626.5,-19.5 1678.5,-19.5 1678.5,-.5 1626.5,-.5"/>
<text text-anchor="middle" x="1652.5" y="-7.5" font-family="Helvetica,sans-Serif" font-size="10.00" fill="#000000">cassert</text>
</g>
<!-- Node23&#45;&gt;Node25 -->
<g id="edge34" class="edge">
<title>Node23&#45;&gt;Node25</title>
<path fill="none" stroke="#191970" d="M1265.4858,-61.9325C1275.5876,-59.7803 1286.4046,-57.6485 1296.5,-56 1435.0022,-33.3839 1474.8791,-47.1636 1616.3278,-19.9519"/>
<polygon fill="#191970" stroke="#191970" points="1617.1005,-23.3672 1626.2413,-18.0103 1615.755,-16.4977 1617.1005,-23.3672"/>
</g>
<!-- Node26 -->
<g id="node27" class="node">
<title>Node26</title>
<polygon fill="none" stroke="#bfbfbf" points="1102.5,-.5 1102.5,-19.5 1152.5,-19.5 1152.5,-.5 1102.5,-.5"/>
<text text-anchor="middle" x="1127.5" y="-7.5" font-family="Helvetica,sans-Serif" font-size="10.00" fill="#000000">cstring</text>
</g>
<!-- Node23&#45;&gt;Node26 -->
<g id="edge35" class="edge">
<title>Node23&#45;&gt;Node26</title>
<path fill="none" stroke="#191970" d="M1209.3438,-61.8906C1193.8257,-52.0519 1169.4807,-36.6167 1151.3716,-25.1351"/>
<polygon fill="#191970" stroke="#191970" points="1152.8696,-21.9407 1142.5498,-19.5419 1149.1213,-27.8526 1152.8696,-21.9407"/>
</g>
<!-- Node27 -->
<g id="node28" class="node">
<title>Node27</title>
<polygon fill="none" stroke="#bfbfbf" points="1170.5,-.5 1170.5,-19.5 1234.5,-19.5 1234.5,-.5 1170.5,-.5"/>
<text text-anchor="middle" x="1202.5" y="-7.5" font-family="Helvetica,sans-Serif" font-size="10.00" fill="#000000">algorithm</text>
</g>
<!-- Node23&#45;&gt;Node27 -->
<g id="edge36" class="edge">
<title>Node23&#45;&gt;Node27</title>
<path fill="none" stroke="#191970" d="M1221.0625,-61.8906C1217.9487,-53.1862 1213.268,-40.1015 1209.386,-29.2494"/>
<polygon fill="#191970" stroke="#191970" points="1212.6497,-27.9817 1205.986,-19.7449 1206.0588,-30.3394 1212.6497,-27.9817"/>
</g>
<!-- Node28 -->
<g id="node29" class="node">
<title>Node28</title>
<polygon fill="none" stroke="#bfbfbf" points="1252.5,-.5 1252.5,-19.5 1302.5,-19.5 1302.5,-.5 1252.5,-.5"/>
<text text-anchor="middle" x="1277.5" y="-7.5" font-family="Helvetica,sans-Serif" font-size="10.00" fill="#000000">climits</text>
</g>
<!-- Node23&#45;&gt;Node28 -->
<g id="edge39" class="edge">
<title>Node23&#45;&gt;Node28</title>
<path fill="none" stroke="#191970" d="M1232.7813,-61.8906C1240.6693,-52.7376 1252.7314,-38.7409 1262.3412,-27.59"/>
<polygon fill="#191970" stroke="#191970" points="1265.2251,-29.6049 1269.102,-19.7449 1259.9225,-25.0352 1265.2251,-29.6049"/>
</g>
<!-- Node29 -->
<g id="node30" class="node">
<title>Node29</title>
<g id="a_node30"><a xlink:href="../../d7/df8/Types_8h.html" target="_top" xlink:title="MemoryResources/Types.h">
<polygon fill="none" stroke="#000000" points="1320.5,-.5 1320.5,-19.5 1466.5,-19.5 1466.5,-.5 1320.5,-.5"/>
<text text-anchor="middle" x="1393.5" y="-7.5" font-family="Helvetica,sans-Serif" font-size="10.00" fill="#000000">MemoryResources/Types.h</text>
</a>
</g>
</g>
<!-- Node23&#45;&gt;Node29 -->
<g id="edge40" class="edge">
<title>Node23&#45;&gt;Node29</title>
<path fill="none" stroke="#191970" d="M1250.9063,-61.8906C1279.6791,-51.42 1325.8696,-34.6111 1357.8466,-22.9745"/>
<polygon fill="#191970" stroke="#191970" points="1359.079,-26.2506 1367.2792,-19.5419 1356.6851,-19.6726 1359.079,-26.2506"/>
</g>
<!-- Node30 -->
<g id="node31" class="node">
<title>Node30</title>
<polygon fill="none" stroke="#bfbfbf" points="1485,-.5 1485,-19.5 1532,-19.5 1532,-.5 1485,-.5"/>
<text text-anchor="middle" x="1508.5" y="-7.5" font-family="Helvetica,sans-Serif" font-size="10.00" fill="#000000">cerrno</text>
</g>
<!-- Node23&#45;&gt;Node30 -->
<g id="edge41" class="edge">
<title>Node23&#45;&gt;Node30</title>
<path fill="none" stroke="#191970" d="M1268.2663,-61.9788C1277.5807,-59.9803 1287.3619,-57.9024 1296.5,-56 1372.8418,-40.1066 1395.0827,-39.7896 1474.7723,-19.9963"/>
<polygon fill="#191970" stroke="#191970" points="1475.9358,-23.3129 1484.7828,-17.4836 1474.2315,-16.5236 1475.9358,-23.3129"/>
</g>
<!-- Node32 -->
<g id="node33" class="node">
<title>Node32</title>
<polygon fill="none" stroke="#bfbfbf" points="508,-62 508,-81 555,-81 555,-62 508,-62"/>
<text text-anchor="middle" x="531.5" y="-69" font-family="Helvetica,sans-Serif" font-size="10.00" fill="#000000">vector</text>
</g>
<!-- Node31&#45;&gt;Node32 -->
<g id="edge43" class="edge">
<title>Node31&#45;&gt;Node32</title>
<path fill="none" stroke="#191970" d="M503.669,-123.2967C508.9512,-113.4658 515.8628,-100.6026 521.4767,-90.1545"/>
<polygon fill="#191970" stroke="#191970" points="524.7159,-91.5205 526.366,-81.055 518.5496,-88.2073 524.7159,-91.5205"/>
</g>
<!-- Node33 -->
<g id="node34" class="node">
<title>Node33</title>
<polygon fill="none" stroke="#bfbfbf" points="573.5,-62 573.5,-81 611.5,-81 611.5,-62 573.5,-62"/>
<text text-anchor="middle" x="592.5" y="-69" font-family="Helvetica,sans-Serif" font-size="10.00" fill="#000000">map</text>
</g>
<!-- Node31&#45;&gt;Node33 -->
<g id="edge44" class="edge">
<title>Node31&#45;&gt;Node33</title>
<path fill="none" stroke="#191970" d="M517.5108,-123.2967C533.2108,-112.4524 554.2528,-97.9182 570.051,-87.006"/>
<polygon fill="#191970" stroke="#191970" points="572.4278,-89.6181 578.6667,-81.055 568.4495,-83.8585 572.4278,-89.6181"/>
</g>
<!-- Node34 -->
<g id="node35" class="node">
<title>Node34</title>
<polygon fill="none" stroke="#bfbfbf" points="187,-62 187,-81 280,-81 280,-62 187,-62"/>
<text text-anchor="middle" x="233.5" y="-69" font-family="Helvetica,sans-Serif" font-size="10.00" fill="#000000">unordered_map</text>
</g>
<!-- Node31&#45;&gt;Node34 -->
<g id="edge45" class="edge">
<title>Node31&#45;&gt;Node34</title>
<path fill="none" stroke="#191970" d="M432.8689,-123.4505C391.7459,-113.438 336.8237,-99.8173 288.5,-87 284.6195,-85.9707 280.5914,-84.8795 276.5593,-83.7717"/>
<polygon fill="#191970" stroke="#191970" points="277.1824,-80.3124 266.6105,-81.0095 275.3097,-87.0572 277.1824,-80.3124"/>
</g>
<!-- Node35 -->
<g id="node36" class="node">
<title>Node35</title>
<polygon fill="none" stroke="#bfbfbf" points="298,-56.5 298,-86.5 411,-86.5 411,-56.5 298,-56.5"/>
<text text-anchor="start" x="306" y="-74.5" font-family="Helvetica,sans-Serif" font-size="10.00" fill="#000000">boost/property_tree</text>
<text text-anchor="middle" x="354.5" y="-63.5" font-family="Helvetica,sans-Serif" font-size="10.00" fill="#000000">/ptree.hpp</text>
</g>
<!-- Node31&#45;&gt;Node35 -->
<g id="edge46" class="edge">
<title>Node31&#45;&gt;Node35</title>
<path fill="none" stroke="#191970" d="M463.8568,-123.4639C443.7701,-113.9191 417.5633,-101.4663 395.8403,-91.144"/>
<polygon fill="#191970" stroke="#191970" points="397.0597,-87.8484 386.5254,-86.7177 394.0554,-94.1709 397.0597,-87.8484"/>
</g>
<!-- Node36 -->
<g id="node37" class="node">
<title>Node36</title>
<polygon fill="none" stroke="#bfbfbf" points="112,-62 112,-81 169,-81 169,-62 112,-62"/>
<text text-anchor="middle" x="140.5" y="-69" font-family="Helvetica,sans-Serif" font-size="10.00" fill="#000000">typeinfo</text>
</g>
<!-- Node31&#45;&gt;Node36 -->
<g id="edge47" class="edge">
<title>Node31&#45;&gt;Node36</title>
<path fill="none" stroke="#191970" d="M421.3175,-124.6876C418.0011,-124.1092 414.7168,-123.5441 411.5,-123 307.7501,-105.4511 278.779,-115.5406 177.5,-87 175.181,-86.3465 172.8132,-85.5866 170.4519,-84.761"/>
<polygon fill="#191970" stroke="#191970" points="171.5152,-81.4201 160.9252,-81.1011 169.0049,-87.9545 171.5152,-81.4201"/>
</g>
<!-- Node37 -->
<g id="node38" class="node">
<title>Node37</title>
<polygon fill="none" stroke="#bfbfbf" points="429.5,-62 429.5,-81 489.5,-81 489.5,-62 429.5,-62"/>
<text text-anchor="middle" x="459.5" y="-69" font-family="Helvetica,sans-Serif" font-size="10.00" fill="#000000">iostream</text>
</g>
<!-- Node31&#45;&gt;Node37 -->
<g id="edge48" class="edge">
<title>Node31&#45;&gt;Node37</title>
<path fill="none" stroke="#191970" d="M487.331,-123.2967C482.0488,-113.4658 475.1372,-100.6026 469.5233,-90.1545"/>
<polygon fill="#191970" stroke="#191970" points="472.4504,-88.2073 464.634,-81.055 466.2841,-91.5205 472.4504,-88.2073"/>
</g>
<!-- Node38&#45;&gt;Node17 -->
<g id="edge52" class="edge">
<title>Node38&#45;&gt;Node17</title>
<path fill="none" stroke="#191970" d="M494.3859,-190.3967C521.2357,-182.0113 552.7119,-169.9943 578.5,-154 607.1878,-136.2073 634.2414,-107.5826 650.0908,-89.1609"/>
<polygon fill="#191970" stroke="#191970" points="652.979,-91.1646 656.7399,-81.2597 647.6231,-86.6574 652.979,-91.1646"/>
</g>
<!-- Node38&#45;&gt;Node31 -->
<g id="edge50" class="edge">
<title>Node38&#45;&gt;Node31</title>
<path fill="none" stroke="#191970" d="M449.1149,-190.2967C456.7863,-181.7303 466.5196,-170.8614 475.0872,-161.2943"/>
<polygon fill="#191970" stroke="#191970" points="477.8751,-163.4276 481.939,-153.6432 472.6604,-158.7578 477.8751,-163.4276"/>
</g>
<!-- Node38&#45;&gt;Node36 -->
<g id="edge53" class="edge">
<title>Node38&#45;&gt;Node36</title>
<path fill="none" stroke="#191970" d="M374.1151,-190.4869C342.427,-181.7114 303.5802,-169.3322 270.5,-154 229.6765,-135.0789 186.3333,-105.3715 161.4339,-87.243"/>
<polygon fill="#191970" stroke="#191970" points="163.261,-84.2419 153.1337,-81.1294 159.1096,-89.8781 163.261,-84.2419"/>
</g>
<!-- Node39 -->
<g id="node40" class="node">
<title>Node39</title>
<polygon fill="none" stroke="#bfbfbf" points="346,-129 346,-148 403,-148 403,-129 346,-129"/>
<text text-anchor="middle" x="374.5" y="-136" font-family="Helvetica,sans-Serif" font-size="10.00" fill="#000000">TClass.h</text>
</g>
<!-- Node38&#45;&gt;Node39 -->
<g id="edge51" class="edge">
<title>Node38&#45;&gt;Node39</title>
<path fill="none" stroke="#191970" d="M421.6582,-190.2967C412.2463,-179.9591 399.7817,-166.2684 390.0311,-155.5588"/>
<polygon fill="#191970" stroke="#191970" points="392.5196,-153.0931 383.1993,-148.055 387.3435,-157.8057 392.5196,-153.0931"/>
</g>
<!-- Node40 -->
<g id="node41" class="node">
<title>Node40</title>
<polygon fill="none" stroke="#bfbfbf" points="279.5,-129 279.5,-148 327.5,-148 327.5,-129 279.5,-129"/>
<text text-anchor="middle" x="303.5" y="-136" font-family="Helvetica,sans-Serif" font-size="10.00" fill="#000000">TFile.h</text>
</g>
<!-- Node38&#45;&gt;Node40 -->
<g id="edge54" class="edge">
<title>Node38&#45;&gt;Node40</title>
<path fill="none" stroke="#191970" d="M405.8766,-190.4639C383.6289,-179.1715 353.3616,-163.8086 331.5139,-152.7192"/>
<polygon fill="#191970" stroke="#191970" points="332.9224,-149.5091 322.4212,-148.1039 329.7541,-155.7511 332.9224,-149.5091"/>
</g>
<!-- Node41&#45;&gt;Node3 -->
<g id="edge57" class="edge">
<title>Node41&#45;&gt;Node3</title>
<path fill="none" stroke="#191970" d="M1065.2666,-197.5395C978.4255,-188.0971 850.2715,-171.4279 835.5,-154 810.141,-124.0805 861.71,-64.2077 870.5,-56 890.1783,-37.6253 918.3803,-25.8249 940.6022,-18.7818"/>
<polygon fill="#191970" stroke="#191970" points="941.7591,-22.0892 950.3394,-15.874 939.756,-15.3818 941.7591,-22.0892"/>
</g>
<!-- Node42&#45;&gt;Node6 -->
<g id="edge61" class="edge">
<title>Node42&#45;&gt;Node6</title>
<path fill="none" stroke="#191970" d="M1658.25,-380.3906C1635.5945,-370.1457 1599.5202,-353.8326 1573.8709,-342.2339"/>
<polygon fill="#191970" stroke="#191970" points="1575.1546,-338.9732 1564.6008,-338.0419 1572.2703,-345.3514 1575.1546,-338.9732"/>
</g>
<!-- Node42&#45;&gt;Node7 -->
<g id="edge60" class="edge">
<title>Node42&#45;&gt;Node7</title>
<path fill="none" stroke="#191970" d="M1727.1963,-382.2178C1773.0409,-373.9588 1838.2619,-359.9196 1858.5,-344 1888.9732,-320.0293 1899.5,-305.7713 1899.5,-267 1899.5,-267 1899.5,-267 1899.5,-138.5 1899.5,-92.4602 1862.0325,-49.2534 1838.3797,-26.5646"/>
<polygon fill="#191970" stroke="#191970" points="1840.6733,-23.9182 1830.962,-19.6823 1835.9122,-29.0496 1840.6733,-23.9182"/>
</g>
<!-- Node42&#45;&gt;Node20 -->
<g id="edge59" class="edge">
<title>Node42&#45;&gt;Node20</title>
<path fill="none" stroke="#191970" d="M1668.5556,-380.1922C1659.7072,-371.5799 1647.732,-358.2334 1641.5,-344 1603.0164,-256.107 1602.1524,-138.2761 1603.5592,-91.6784"/>
<polygon fill="#191970" stroke="#191970" points="1607.0664,-91.5522 1603.9443,-81.4279 1600.0713,-91.2894 1607.0664,-91.5522"/>
</g>
<!-- Node43 -->
<g id="node44" class="node">
<title>Node43</title>
<g id="a_node44"><a xlink:href="../../de/d64/RangeReference_8h.html" target="_top" xlink:title="Class to refer to the 1st entry and N elements of some group in the continuous container. ">
<polygon fill="none" stroke="#000000" points="1661.5,-257.5 1661.5,-276.5 1871.5,-276.5 1871.5,-257.5 1661.5,-257.5"/>
<text text-anchor="middle" x="1766.5" y="-264.5" font-family="Helvetica,sans-Serif" font-size="10.00" fill="#000000">CommonDataFormat/RangeReference.h</text>
</a>
</g>
</g>
<!-- Node42&#45;&gt;Node43 -->
<g id="edge62" class="edge">
<title>Node42&#45;&gt;Node43</title>
<path fill="none" stroke="#191970" d="M1727.2361,-382.8982C1769.8684,-375.4641 1827.6641,-362.3116 1841.5,-344 1849.8059,-333.0073 1848.2298,-325.0224 1841.5,-313 1833.4211,-298.5676 1818.7585,-288.1145 1804.5271,-280.8565"/>
<polygon fill="#191970" stroke="#191970" points="1805.8511,-277.6118 1795.3108,-276.5387 1802.8814,-283.9506 1805.8511,-277.6118"/>
</g>
<!-- Node44 -->
<g id="node45" class="node">
<title>Node44</title>
<polygon fill="none" stroke="#bfbfbf" points="1651,-319 1651,-338 1708,-338 1708,-319 1651,-319"/>
<text text-anchor="middle" x="1679.5" y="-326" font-family="Helvetica,sans-Serif" font-size="10.00" fill="#000000">gsl/span</text>
</g>
<!-- Node42&#45;&gt;Node44 -->
<g id="edge64" class="edge">
<title>Node42&#45;&gt;Node44</title>
<path fill="none" stroke="#191970" d="M1679.5,-380.3906C1679.5,-371.8657 1679.5,-359.1392 1679.5,-348.4235"/>
<polygon fill="#191970" stroke="#191970" points="1683.0001,-348.2448 1679.5,-338.2449 1676.0001,-348.2449 1683.0001,-348.2448"/>
</g>
<!-- Node45 -->
<g id="node46" class="node">
<title>Node45</title>
<polygon fill="none" stroke="#bfbfbf" points="1726,-313.5 1726,-343.5 1833,-343.5 1833,-313.5 1726,-313.5"/>
<text text-anchor="start" x="1734" y="-331.5" font-family="Helvetica,sans-Serif" font-size="10.00" fill="#000000">boost/serialization</text>
<text text-anchor="middle" x="1779.5" y="-320.5" font-family="Helvetica,sans-Serif" font-size="10.00" fill="#000000">/base_object.hpp</text>
</g>
<!-- Node42&#45;&gt;Node45 -->
<g id="edge65" class="edge">
<title>Node42&#45;&gt;Node45</title>
<path fill="none" stroke="#191970" d="M1695.125,-380.3906C1708.7841,-371.9903 1729.0768,-359.5103 1746.3382,-348.8945"/>
<polygon fill="#191970" stroke="#191970" points="1748.3527,-351.7646 1755.0372,-343.5446 1744.6857,-345.8019 1748.3527,-351.7646"/>
</g>
<!-- Node43&#45;&gt;Node14 -->
<g id="edge63" class="edge">
<title>Node43&#45;&gt;Node14</title>
<path fill="none" stroke="#191970" d="M1763.6734,-257.3051C1754.7651,-226.7513 1727.1574,-132.0619 1715.1612,-90.917"/>
<polygon fill="#191970" stroke="#191970" points="1718.5029,-89.874 1712.3437,-81.2534 1711.7827,-91.8334 1718.5029,-89.874"/>
</g>
</g>
</svg>
