<?xml version="1.0" encoding="UTF-8" standalone="no"?>
<!DOCTYPE svg PUBLIC "-//W3C//DTD SVG 1.1//EN"
 "http://www.w3.org/Graphics/SVG/1.1/DTD/svg11.dtd">
<!-- Generated by graphviz version 2.40.1 (20161225.0304)
 -->
<!-- Title: GPUCA_NAMESPACE::gpu::TPCdEdxCalibrationSplines Pages: 1 -->
<svg width="499pt" height="815pt"
 viewBox="0.00 0.00 498.50 815.00" xmlns="http://www.w3.org/2000/svg" xmlns:xlink="http://www.w3.org/1999/xlink">
<g id="graph0" class="graph" transform="scale(1 1) rotate(0) translate(4 811)">
<title>GPUCA_NAMESPACE::gpu::TPCdEdxCalibrationSplines</title>
<!-- Node2 -->
<g id="node1" class="node">
<title>Node2</title>
<polygon fill="#bfbfbf" stroke="#000000" points="303.5,-.5 303.5,-277.5 478.5,-277.5 478.5,-.5 303.5,-.5"/>
<text text-anchor="start" x="311.5" y="-265.5" font-family="Helvetica,sans-Serif" font-size="10.00" fill="#000000">GPUCA_NAMESPACE::gpu</text>
<text text-anchor="middle" x="391" y="-254.5" font-family="Helvetica,sans-Serif" font-size="10.00" fill="#000000">::TPCdEdxCalibrationSplines</text>
<polyline fill="none" stroke="#000000" points="303.5,-247.5 478.5,-247.5 "/>
<text text-anchor="middle" x="391" y="-235.5" font-family="Helvetica,sans-Serif" font-size="10.00" fill="#000000"> </text>
<polyline fill="none" stroke="#000000" points="303.5,-228.5 478.5,-228.5 "/>
<text text-anchor="start" x="311.5" y="-216.5" font-family="Helvetica,sans-Serif" font-size="10.00" fill="#000000">+ TPCdEdxCalibrationSplines()</text>
<text text-anchor="start" x="311.5" y="-205.5" font-family="Helvetica,sans-Serif" font-size="10.00" fill="#000000">+ TPCdEdxCalibrationSplines()</text>
<text text-anchor="start" x="311.5" y="-194.5" font-family="Helvetica,sans-Serif" font-size="10.00" fill="#000000">+ operator=()</text>
<text text-anchor="start" x="311.5" y="-183.5" font-family="Helvetica,sans-Serif" font-size="10.00" fill="#000000">+ recreate()</text>
<text text-anchor="start" x="311.5" y="-172.5" font-family="Helvetica,sans-Serif" font-size="10.00" fill="#000000">+ ~TPCdEdxCalibrationSplines()</text>
<text text-anchor="start" x="311.5" y="-161.5" font-family="Helvetica,sans-Serif" font-size="10.00" fill="#000000">+ cloneFromObject()</text>
<text text-anchor="start" x="311.5" y="-150.5" font-family="Helvetica,sans-Serif" font-size="10.00" fill="#000000">+ moveBufferTo()</text>
<text text-anchor="start" x="311.5" y="-139.5" font-family="Helvetica,sans-Serif" font-size="10.00" fill="#000000">+ destroy()</text>
<text text-anchor="start" x="311.5" y="-128.5" font-family="Helvetica,sans-Serif" font-size="10.00" fill="#000000">+ setActualBufferAddress()</text>
<text text-anchor="start" x="311.5" y="-117.5" font-family="Helvetica,sans-Serif" font-size="10.00" fill="#000000">+ setFutureBufferAddress()</text>
<text text-anchor="start" x="311.5" y="-106.5" font-family="Helvetica,sans-Serif" font-size="10.00" fill="#000000">+ GPUd()</text>
<text text-anchor="start" x="311.5" y="-95.5" font-family="Helvetica,sans-Serif" font-size="10.00" fill="#000000">+ setSplinesFromFile()</text>
<text text-anchor="start" x="311.5" y="-84.5" font-family="Helvetica,sans-Serif" font-size="10.00" fill="#000000">+ setDefaultSplines()</text>
<text text-anchor="start" x="311.5" y="-73.5" font-family="Helvetica,sans-Serif" font-size="10.00" fill="#000000">+ GPUd()</text>
<text text-anchor="start" x="311.5" y="-62.5" font-family="Helvetica,sans-Serif" font-size="10.00" fill="#000000">+ GPUd()</text>
<text text-anchor="start" x="311.5" y="-51.5" font-family="Helvetica,sans-Serif" font-size="10.00" fill="#000000">+ GPUd()</text>
<text text-anchor="start" x="311.5" y="-40.5" font-family="Helvetica,sans-Serif" font-size="10.00" fill="#000000">+ GPUd()</text>
<text text-anchor="start" x="311.5" y="-29.5" font-family="Helvetica,sans-Serif" font-size="10.00" fill="#000000">+ GPUd()</text>
<text text-anchor="start" x="311.5" y="-18.5" font-family="Helvetica,sans-Serif" font-size="10.00" fill="#000000">+ writeToFile()</text>
<text text-anchor="start" x="311.5" y="-7.5" font-family="Helvetica,sans-Serif" font-size="10.00" fill="#000000">+ readFromFile()</text>
</g>
<!-- Node3 -->
<g id="node2" class="node">
<title>Node3</title>
<g id="a_node2"><a xlink:href="../../dc/d5e/classGPUCA__NAMESPACE_1_1gpu_1_1FlatObject.html" target="_top" xlink:title="GPUCA_GPUCODE. ">
<polygon fill="none" stroke="#000000" points="137,-336.5 137,-690.5 295,-690.5 295,-336.5 137,-336.5"/>
<text text-anchor="start" x="145" y="-678.5" font-family="Helvetica,sans-Serif" font-size="10.00" fill="#000000">GPUCA_NAMESPACE::gpu</text>
<text text-anchor="middle" x="216" y="-667.5" font-family="Helvetica,sans-Serif" font-size="10.00" fill="#000000">::FlatObject</text>
<polyline fill="none" stroke="#000000" points="137,-660.5 295,-660.5 "/>
<text text-anchor="middle" x="216" y="-648.5" font-family="Helvetica,sans-Serif" font-size="10.00" fill="#000000"> </text>
<polyline fill="none" stroke="#000000" points="137,-641.5 295,-641.5 "/>
<text text-anchor="start" x="145" y="-629.5" font-family="Helvetica,sans-Serif" font-size="10.00" fill="#000000">+ FlatObject()</text>
<text text-anchor="start" x="145" y="-618.5" font-family="Helvetica,sans-Serif" font-size="10.00" fill="#000000">+ ~FlatObject()</text>
<text text-anchor="start" x="145" y="-607.5" font-family="Helvetica,sans-Serif" font-size="10.00" fill="#000000">+ FlatObject()</text>
<text text-anchor="start" x="145" y="-596.5" font-family="Helvetica,sans-Serif" font-size="10.00" fill="#000000">+ operator=()</text>
<text text-anchor="start" x="145" y="-585.5" font-family="Helvetica,sans-Serif" font-size="10.00" fill="#000000">+ getFlatBufferSize()</text>
<text text-anchor="start" x="145" y="-574.5" font-family="Helvetica,sans-Serif" font-size="10.00" fill="#000000">+ getFlatBufferPtr()</text>
<text text-anchor="start" x="145" y="-563.5" font-family="Helvetica,sans-Serif" font-size="10.00" fill="#000000">+ isConstructed()</text>
<text text-anchor="start" x="145" y="-552.5" font-family="Helvetica,sans-Serif" font-size="10.00" fill="#000000">+ isBufferInternal()</text>
<text text-anchor="start" x="145" y="-541.5" font-family="Helvetica,sans-Serif" font-size="10.00" fill="#000000">+ adoptInternalBuffer()</text>
<text text-anchor="start" x="145" y="-530.5" font-family="Helvetica,sans-Serif" font-size="10.00" fill="#000000">+ clearInternalBufferPtr()</text>
<text text-anchor="start" x="145" y="-519.5" font-family="Helvetica,sans-Serif" font-size="10.00" fill="#000000">+ printC()</text>
<text text-anchor="start" x="145" y="-508.5" font-family="Helvetica,sans-Serif" font-size="10.00" fill="#000000">+ alignSize()</text>
<text text-anchor="start" x="145" y="-497.5" font-family="Helvetica,sans-Serif" font-size="10.00" fill="#000000">+ relocatePointer()</text>
<text text-anchor="start" x="145" y="-486.5" font-family="Helvetica,sans-Serif" font-size="10.00" fill="#000000">+ writeToFile()</text>
<text text-anchor="start" x="145" y="-475.5" font-family="Helvetica,sans-Serif" font-size="10.00" fill="#000000">+ readFromFile()</text>
<text text-anchor="start" x="145" y="-464.5" font-family="Helvetica,sans-Serif" font-size="10.00" fill="#000000">+ stressTest()</text>
<text text-anchor="start" x="145" y="-453.5" font-family="Helvetica,sans-Serif" font-size="10.00" fill="#000000"># startConstruction()</text>
<text text-anchor="start" x="145" y="-442.5" font-family="Helvetica,sans-Serif" font-size="10.00" fill="#000000"># finishConstruction()</text>
<text text-anchor="start" x="145" y="-431.5" font-family="Helvetica,sans-Serif" font-size="10.00" fill="#000000"># destroy()</text>
<text text-anchor="start" x="145" y="-420.5" font-family="Helvetica,sans-Serif" font-size="10.00" fill="#000000"># cloneFromObject()</text>
<text text-anchor="start" x="145" y="-409.5" font-family="Helvetica,sans-Serif" font-size="10.00" fill="#000000"># releaseInternalBuffer()</text>
<text text-anchor="start" x="145" y="-398.5" font-family="Helvetica,sans-Serif" font-size="10.00" fill="#000000"># moveBufferTo()</text>
<text text-anchor="start" x="145" y="-387.5" font-family="Helvetica,sans-Serif" font-size="10.00" fill="#000000"># setActualBufferAddress()</text>
<text text-anchor="start" x="145" y="-376.5" font-family="Helvetica,sans-Serif" font-size="10.00" fill="#000000"># setFutureBufferAddress()</text>
<text text-anchor="start" x="145" y="-365.5" font-family="Helvetica,sans-Serif" font-size="10.00" fill="#000000"># ClassDefNV()</text>
<text text-anchor="start" x="145" y="-354.5" font-family="Helvetica,sans-Serif" font-size="10.00" fill="#000000"># getClassAlignmentBytes()</text>
<text text-anchor="start" x="145" y="-343.5" font-family="Helvetica,sans-Serif" font-size="10.00" fill="#000000"># getBufferAlignmentBytes()</text>
</a>
</g>
</g>
<!-- Node3&#45;&gt;Node2 -->
<g id="edge1" class="edge">
<title>Node3&#45;&gt;Node2</title>
<path fill="none" stroke="#191970" d="M299.3322,-335.1692C308.353,-315.8646 317.433,-296.4333 326.1876,-277.6986"/>
<polygon fill="none" stroke="#191970" points="296.1149,-333.7868 295.0522,-344.3282 302.4567,-336.7503 296.1149,-333.7868"/>
</g>
<!-- Node4 -->
<g id="node3" class="node">
<title>Node4</title>
<polygon fill="none" stroke="#bfbfbf" points="0,-749.5 0,-806.5 38,-806.5 38,-749.5 0,-749.5"/>
<text text-anchor="middle" x="19" y="-794.5" font-family="Helvetica,sans-Serif" font-size="10.00" fill="#000000">char</text>
<polyline fill="none" stroke="#bfbfbf" points="0,-787.5 38,-787.5 "/>
<text text-anchor="middle" x="19" y="-775.5" font-family="Helvetica,sans-Serif" font-size="10.00" fill="#000000"> </text>
<polyline fill="none" stroke="#bfbfbf" points="0,-768.5 38,-768.5 "/>
<text text-anchor="middle" x="19" y="-756.5" font-family="Helvetica,sans-Serif" font-size="10.00" fill="#000000"> </text>
</g>
<!-- Node4&#45;&gt;Node3 -->
<g id="edge2" class="edge">
<title>Node4&#45;&gt;Node3</title>
<path fill="none" stroke="#404040" d="M23.2449,-749.3055C25.9479,-736.4361 30.2551,-721.3972 37,-709 60.419,-665.9555 95.3258,-624.895 128.1116,-591.6156"/>
<polygon fill="none" stroke="#404040" points="128.3563,-591.3708 129.7696,-584.2996 136.8405,-582.8844 135.4272,-589.9557 128.3563,-591.3708"/>
<text text-anchor="middle" x="93.5" y="-723" font-family="Helvetica,sans-Serif" font-size="10.00" fill="#000000"> #mFlatBufferPtr</text>
<text text-anchor="middle" x="93.5" y="-712" font-family="Helvetica,sans-Serif" font-size="10.00" fill="#000000">#mFlatBufferContainer</text>
</g>
<!-- Node5 -->
<g id="node4" class="node">
<title>Node5</title>
<polygon fill="none" stroke="#bfbfbf" points="324.5,-749.5 324.5,-806.5 353.5,-806.5 353.5,-749.5 324.5,-749.5"/>
<text text-anchor="middle" x="339" y="-794.5" font-family="Helvetica,sans-Serif" font-size="10.00" fill="#000000">int</text>
<polyline fill="none" stroke="#bfbfbf" points="324.5,-787.5 353.5,-787.5 "/>
<text text-anchor="middle" x="339" y="-775.5" font-family="Helvetica,sans-Serif" font-size="10.00" fill="#000000"> </text>
<polyline fill="none" stroke="#bfbfbf" points="324.5,-768.5 353.5,-768.5 "/>
<text text-anchor="middle" x="339" y="-756.5" font-family="Helvetica,sans-Serif" font-size="10.00" fill="#000000"> </text>
</g>
<!-- Node5&#45;&gt;Node2 -->
<g id="edge5" class="edge">
<title>Node5&#45;&gt;Node2</title>
<path fill="none" stroke="#404040" d="M353.7505,-764.7532C362.2736,-756.0922 372.2275,-744.0026 377,-731 391.7591,-690.7892 393.235,-452.0367 392.4675,-290.2891"/>
<polygon fill="none" stroke="#404040" points="392.4651,-289.809 388.4342,-283.8297 392.4032,-277.8091 396.4341,-283.7884 392.4651,-289.809"/>
<text text-anchor="middle" x="412" y="-511" font-family="Helvetica,sans-Serif" font-size="10.00" fill="#000000"> +const</text>
</g>
<!-- Node5&#45;&gt;Node3 -->
<g id="edge3" class="edge">
<title>Node5&#45;&gt;Node3</title>
<path fill="none" stroke="#404040" d="M324.1219,-767.6066C312.7777,-758.9819 297.5298,-745.7722 288,-731 282.0223,-721.734 276.495,-711.9242 271.3905,-701.7971"/>
<polygon fill="none" stroke="#404040" points="271.2445,-701.4954 265.03,-697.8376 266.0163,-690.6942 272.2308,-694.3521 271.2445,-701.4954"/>
<text text-anchor="middle" x="332.5" y="-717.5" font-family="Helvetica,sans-Serif" font-size="10.00" fill="#000000"> #mFlatBufferSize</text>
</g>
<!-- Node6 -->
<g id="node5" class="node">
<title>Node6</title>
<polygon fill="none" stroke="#bfbfbf" points="124.5,-749.5 124.5,-806.5 185.5,-806.5 185.5,-749.5 124.5,-749.5"/>
<text text-anchor="middle" x="155" y="-794.5" font-family="Helvetica,sans-Serif" font-size="10.00" fill="#000000">unsigned</text>
<polyline fill="none" stroke="#bfbfbf" points="124.5,-787.5 185.5,-787.5 "/>
<text text-anchor="middle" x="155" y="-775.5" font-family="Helvetica,sans-Serif" font-size="10.00" fill="#000000"> </text>
<polyline fill="none" stroke="#bfbfbf" points="124.5,-768.5 185.5,-768.5 "/>
<text text-anchor="middle" x="155" y="-756.5" font-family="Helvetica,sans-Serif" font-size="10.00" fill="#000000"> </text>
</g>
<!-- Node6&#45;&gt;Node3 -->
<g id="edge4" class="edge">
<title>Node6&#45;&gt;Node3</title>
<path fill="none" stroke="#404040" d="M153.6088,-749.3106C153.4694,-736.8534 153.9321,-722.1365 156,-709 156.3274,-706.9204 156.6718,-704.8322 157.0322,-702.737"/>
<polygon fill="none" stroke="#404040" points="157.0815,-702.4702 154.2403,-695.8424 159.2656,-690.6706 162.1067,-697.2984 157.0815,-702.4702"/>
<text text-anchor="middle" x="210.5" y="-717.5" font-family="Helvetica,sans-Serif" font-size="10.00" fill="#000000"> #mConstructionMask</text>
</g>
<!-- Node7 -->
<g id="node6" class="node">
<title>Node7</title>
<polygon fill="none" stroke="#bfbfbf" points="447.5,-485 447.5,-542 490.5,-542 490.5,-485 447.5,-485"/>
<text text-anchor="middle" x="469" y="-530" font-family="Helvetica,sans-Serif" font-size="10.00" fill="#000000">const</text>
<polyline fill="none" stroke="#bfbfbf" points="447.5,-523 490.5,-523 "/>
<text text-anchor="middle" x="469" y="-511" font-family="Helvetica,sans-Serif" font-size="10.00" fill="#000000"> </text>
<polyline fill="none" stroke="#bfbfbf" points="447.5,-504 490.5,-504 "/>
<text text-anchor="middle" x="469" y="-492" font-family="Helvetica,sans-Serif" font-size="10.00" fill="#000000"> </text>
</g>
<!-- Node7&#45;&gt;Node2 -->
<g id="edge6" class="edge">
<title>Node7&#45;&gt;Node2</title>
<path fill="none" stroke="#404040" d="M463.2888,-484.8916C456.2613,-449.7949 443.9175,-388.4876 433,-336 429.8646,-320.9263 426.5654,-305.2105 423.2515,-289.5194"/>
<polygon fill="none" stroke="#404040" points="423.2002,-289.2765 418.0452,-284.2341 420.717,-277.5362 425.872,-282.5786 423.2002,-289.2765"/>
<text text-anchor="middle" x="451" y="-310" font-family="Helvetica,sans-Serif" font-size="10.00" fill="#000000"> +angleZ</text>
<text text-anchor="middle" x="451" y="-299" font-family="Helvetica,sans-Serif" font-size="10.00" fill="#000000">+const</text>
</g>
</g>
</svg>
