<?xml version="1.0" encoding="UTF-8" standalone="no"?>
<!DOCTYPE svg PUBLIC "-//W3C//DTD SVG 1.1//EN"
 "http://www.w3.org/Graphics/SVG/1.1/DTD/svg11.dtd">
<!-- Generated by graphviz version 2.40.1 (20161225.0304)
 -->
<!-- Title: o2::soa::CombinationsBlockIndexPolicyBase&lt; T, Ts &gt; Pages: 1 -->
<svg width="774pt" height="585pt"
 viewBox="0.00 0.00 773.69 585.00" xmlns="http://www.w3.org/2000/svg" xmlns:xlink="http://www.w3.org/1999/xlink">
<g id="graph0" class="graph" transform="scale(1 1) rotate(0) translate(4 581)">
<title>o2::soa::CombinationsBlockIndexPolicyBase&lt; T, Ts &gt;</title>
<!-- Node7 -->
<g id="node1" class="node">
<title>Node7</title>
<polygon fill="#bfbfbf" stroke="#000000" points="416.1888,-.5 416.1888,-68.5 626.1888,-68.5 626.1888,-.5 416.1888,-.5"/>
<text text-anchor="start" x="424.1888" y="-56.5" font-family="Helvetica,sans-Serif" font-size="10.00" fill="#000000">o2::soa::CombinationsBlock</text>
<text text-anchor="middle" x="521.1888" y="-45.5" font-family="Helvetica,sans-Serif" font-size="10.00" fill="#000000">IndexPolicyBase&lt; T, Ts &gt;</text>
<polyline fill="none" stroke="#000000" points="416.1888,-38.5 626.1888,-38.5 "/>
<text text-anchor="middle" x="521.1888" y="-26.5" font-family="Helvetica,sans-Serif" font-size="10.00" fill="#000000"> </text>
<polyline fill="none" stroke="#000000" points="416.1888,-19.5 626.1888,-19.5 "/>
<text text-anchor="start" x="424.1888" y="-7.5" font-family="Helvetica,sans-Serif" font-size="10.00" fill="#000000">+ CombinationsBlockIndexPolicyBase()</text>
</g>
<!-- Node8 -->
<g id="node2" class="node">
<title>Node8</title>
<g id="a_node2"><a xlink:href="../../de/dac/structo2_1_1soa_1_1CombinationsIndexPolicyBase.html" target="_top" xlink:title="{o2::soa::CombinationsIndex\lPolicyBase\&lt; Ts... \&gt;\n||+ CombinationsIndexPolicyBase()\l+ moveToEnd()\l+ addOne()\l}">
<polygon fill="none" stroke="#000000" points="199.6888,-116.5 199.6888,-206.5 382.6888,-206.5 382.6888,-116.5 199.6888,-116.5"/>
<text text-anchor="start" x="207.6888" y="-194.5" font-family="Helvetica,sans-Serif" font-size="10.00" fill="#000000">o2::soa::CombinationsIndex</text>
<text text-anchor="middle" x="291.1888" y="-183.5" font-family="Helvetica,sans-Serif" font-size="10.00" fill="#000000">PolicyBase&lt; Ts... &gt;</text>
<polyline fill="none" stroke="#000000" points="199.6888,-176.5 382.6888,-176.5 "/>
<text text-anchor="middle" x="291.1888" y="-164.5" font-family="Helvetica,sans-Serif" font-size="10.00" fill="#000000"> </text>
<polyline fill="none" stroke="#000000" points="199.6888,-157.5 382.6888,-157.5 "/>
<text text-anchor="start" x="207.6888" y="-145.5" font-family="Helvetica,sans-Serif" font-size="10.00" fill="#000000">+ CombinationsIndexPolicyBase()</text>
<text text-anchor="start" x="207.6888" y="-134.5" font-family="Helvetica,sans-Serif" font-size="10.00" fill="#000000">+ moveToEnd()</text>
<text text-anchor="start" x="207.6888" y="-123.5" font-family="Helvetica,sans-Serif" font-size="10.00" fill="#000000">+ addOne()</text>
</a>
</g>
</g>
<!-- Node8&#45;&gt;Node7 -->
<g id="edge1" class="edge">
<title>Node8&#45;&gt;Node7</title>
<path fill="none" stroke="#191970" d="M381.7044,-111.5197C407.8138,-97.1027 435.689,-81.7108 459.6027,-68.5063"/>
<polygon fill="none" stroke="#191970" points="379.9881,-108.4692 372.9259,-116.367 383.3718,-114.5971 379.9881,-108.4692"/>
</g>
<!-- Node9 -->
<g id="node3" class="node">
<title>Node9</title>
<polygon fill="none" stroke="#bfbfbf" points="140.6888,-392.5 140.6888,-460.5 255.6888,-460.5 255.6888,-392.5 140.6888,-392.5"/>
<text text-anchor="start" x="148.6888" y="-448.5" font-family="Helvetica,sans-Serif" font-size="10.00" fill="#000000">tuple&lt; typename Ts</text>
<text text-anchor="middle" x="198.1888" y="-437.5" font-family="Helvetica,sans-Serif" font-size="10.00" fill="#000000">::iterator... &gt;</text>
<polyline fill="none" stroke="#bfbfbf" points="140.6888,-430.5 255.6888,-430.5 "/>
<text text-anchor="middle" x="198.1888" y="-418.5" font-family="Helvetica,sans-Serif" font-size="10.00" fill="#000000"> </text>
<polyline fill="none" stroke="#bfbfbf" points="140.6888,-411.5 255.6888,-411.5 "/>
<text text-anchor="middle" x="198.1888" y="-399.5" font-family="Helvetica,sans-Serif" font-size="10.00" fill="#000000"> </text>
</g>
<!-- Node9&#45;&gt;Node8 -->
<g id="edge2" class="edge">
<title>Node9&#45;&gt;Node8</title>
<path fill="none" stroke="#404040" d="M233.5179,-392.3069C245.1821,-378.7753 256.799,-362.3191 263.1888,-345 278.2219,-304.2547 285.1868,-255.5556 288.4122,-218.5685"/>
<polygon fill="none" stroke="#404040" points="288.4203,-218.4649 284.9071,-212.1675 289.3689,-206.5025 292.8821,-212.7999 288.4203,-218.4649"/>
<text text-anchor="middle" x="314.1888" y="-297" font-family="Helvetica,sans-Serif" font-size="10.00" fill="#000000"> +mCurrent</text>
</g>
<!-- Node13 -->
<g id="node7" class="node">
<title>Node13</title>
<g id="a_node7"><a xlink:href="../../de/dac/structo2_1_1soa_1_1CombinationsIndexPolicyBase.html" target="_top" xlink:title="{o2::soa::CombinationsIndex\lPolicyBase\&lt; Ts \&gt;\n||+ CombinationsIndexPolicyBase()\l+ moveToEnd()\l+ addOne()\l}">
<polygon fill="none" stroke="#000000" points="71.6888,-254.5 71.6888,-344.5 254.6888,-344.5 254.6888,-254.5 71.6888,-254.5"/>
<text text-anchor="start" x="79.6888" y="-332.5" font-family="Helvetica,sans-Serif" font-size="10.00" fill="#000000">o2::soa::CombinationsIndex</text>
<text text-anchor="middle" x="163.1888" y="-321.5" font-family="Helvetica,sans-Serif" font-size="10.00" fill="#000000">PolicyBase&lt; Ts &gt;</text>
<polyline fill="none" stroke="#000000" points="71.6888,-314.5 254.6888,-314.5 "/>
<text text-anchor="middle" x="163.1888" y="-302.5" font-family="Helvetica,sans-Serif" font-size="10.00" fill="#000000"> </text>
<polyline fill="none" stroke="#000000" points="71.6888,-295.5 254.6888,-295.5 "/>
<text text-anchor="start" x="79.6888" y="-283.5" font-family="Helvetica,sans-Serif" font-size="10.00" fill="#000000">+ CombinationsIndexPolicyBase()</text>
<text text-anchor="start" x="79.6888" y="-272.5" font-family="Helvetica,sans-Serif" font-size="10.00" fill="#000000">+ moveToEnd()</text>
<text text-anchor="start" x="79.6888" y="-261.5" font-family="Helvetica,sans-Serif" font-size="10.00" fill="#000000">+ addOne()</text>
</a>
</g>
</g>
<!-- Node9&#45;&gt;Node13 -->
<g id="edge7" class="edge">
<title>Node9&#45;&gt;Node13</title>
<path fill="none" stroke="#404040" d="M188.8095,-392.4663C185.7405,-381.3304 182.2434,-368.6409 178.8406,-356.2934"/>
<polygon fill="none" stroke="#404040" points="178.8123,-356.1906 173.3619,-351.469 175.624,-344.6219 181.0744,-349.3434 178.8123,-356.1906"/>
<text text-anchor="middle" x="212.1888" y="-366" font-family="Helvetica,sans-Serif" font-size="10.00" fill="#000000"> +mCurrent</text>
</g>
<!-- Node10 -->
<g id="node4" class="node">
<title>Node10</title>
<polygon fill="none" stroke="#bfbfbf" points="53.1888,-398 53.1888,-455 91.1888,-455 91.1888,-398 53.1888,-398"/>
<text text-anchor="middle" x="72.1888" y="-443" font-family="Helvetica,sans-Serif" font-size="10.00" fill="#000000">bool</text>
<polyline fill="none" stroke="#bfbfbf" points="53.1888,-436 91.1888,-436 "/>
<text text-anchor="middle" x="72.1888" y="-424" font-family="Helvetica,sans-Serif" font-size="10.00" fill="#000000"> </text>
<polyline fill="none" stroke="#bfbfbf" points="53.1888,-417 91.1888,-417 "/>
<text text-anchor="middle" x="72.1888" y="-405" font-family="Helvetica,sans-Serif" font-size="10.00" fill="#000000"> </text>
</g>
<!-- Node10&#45;&gt;Node8 -->
<g id="edge3" class="edge">
<title>Node10&#45;&gt;Node8</title>
<path fill="none" stroke="#404040" d="M52.9684,-407.0296C39.2001,-391.6309 21.7999,-368.8215 14.1888,-345 1.8797,-306.4742 -9.4506,-286.8166 14.1888,-254 35.199,-224.8334 117.9176,-199.5983 187.5388,-182.8878"/>
<polygon fill="none" stroke="#404040" points="187.7959,-182.8272 192.7182,-177.5573 199.4759,-180.0741 194.5536,-185.3439 187.7959,-182.8272"/>
<text text-anchor="middle" x="38.1888" y="-297" font-family="Helvetica,sans-Serif" font-size="10.00" fill="#000000"> +mIsEnd</text>
</g>
<!-- Node10&#45;&gt;Node13 -->
<g id="edge8" class="edge">
<title>Node10&#45;&gt;Node13</title>
<path fill="none" stroke="#404040" d="M91.2654,-399.8766C100.671,-386.7502 112.3819,-370.4064 123.6044,-354.7443"/>
<polygon fill="none" stroke="#404040" points="123.8901,-354.3455 124.1333,-347.1385 130.8795,-344.5911 130.6362,-351.7981 123.8901,-354.3455"/>
<text text-anchor="middle" x="142.1888" y="-366" font-family="Helvetica,sans-Serif" font-size="10.00" fill="#000000"> +mIsEnd</text>
</g>
<!-- Node11 -->
<g id="node5" class="node">
<title>Node11</title>
<g id="a_node5"><a xlink:href="../../dd/da8/structo2_1_1soa_1_1NTupleType.html" target="_top" xlink:title="{o2::soa::NTupleType\l\&lt; uint64_t, sizeof...(Ts)\&gt;\n||}">
<polygon fill="none" stroke="#000000" points="328.6888,-392.5 328.6888,-460.5 465.6888,-460.5 465.6888,-392.5 328.6888,-392.5"/>
<text text-anchor="start" x="336.6888" y="-448.5" font-family="Helvetica,sans-Serif" font-size="10.00" fill="#000000">o2::soa::NTupleType</text>
<text text-anchor="middle" x="397.1888" y="-437.5" font-family="Helvetica,sans-Serif" font-size="10.00" fill="#000000">&lt; uint64_t, sizeof...(Ts)&gt;</text>
<polyline fill="none" stroke="#000000" points="328.6888,-430.5 465.6888,-430.5 "/>
<text text-anchor="middle" x="397.1888" y="-418.5" font-family="Helvetica,sans-Serif" font-size="10.00" fill="#000000"> </text>
<polyline fill="none" stroke="#000000" points="328.6888,-411.5 465.6888,-411.5 "/>
<text text-anchor="middle" x="397.1888" y="-399.5" font-family="Helvetica,sans-Serif" font-size="10.00" fill="#000000"> </text>
</a>
</g>
</g>
<!-- Node11&#45;&gt;Node7 -->
<g id="edge12" class="edge">
<title>Node11&#45;&gt;Node7</title>
<path fill="none" stroke="#404040" d="M425.1754,-392.1489C435.3148,-378.2232 446.0232,-361.5405 453.1888,-345 491.6691,-256.1763 509.3422,-143.2934 516.6556,-81.0273"/>
<polygon fill="none" stroke="#404040" points="516.6781,-80.8276 513.3758,-74.4171 518.0231,-68.9032 521.3254,-75.3137 516.6781,-80.8276"/>
<text text-anchor="middle" x="537.1888" y="-228" font-family="Helvetica,sans-Serif" font-size="10.00" fill="#000000"> +mCurrentIndices</text>
</g>
<!-- Node11&#45;&gt;Node8 -->
<g id="edge4" class="edge">
<title>Node11&#45;&gt;Node8</title>
<path fill="none" stroke="#404040" d="M390.0462,-392.1894C382.0182,-356.6999 367.4117,-300.1176 347.1888,-254 341.8209,-241.7585 335.1068,-229.1708 328.2107,-217.3765"/>
<polygon fill="none" stroke="#404040" points="328.0376,-217.0883 321.5195,-214.0038 321.8597,-206.8007 328.3779,-209.8852 328.0376,-217.0883"/>
<text text-anchor="middle" x="413.6888" y="-297" font-family="Helvetica,sans-Serif" font-size="10.00" fill="#000000"> +mMaxOffset</text>
</g>
<!-- Node11&#45;&gt;Node13 -->
<g id="edge9" class="edge">
<title>Node11&#45;&gt;Node13</title>
<path fill="none" stroke="#404040" d="M334.4811,-392.4663C310.6842,-379.5509 283.037,-364.5458 256.9883,-350.4082"/>
<polygon fill="none" stroke="#404040" points="256.8736,-350.346 249.6921,-350.9995 246.3268,-344.6219 253.5082,-343.9683 256.8736,-350.346"/>
<text text-anchor="middle" x="330.6888" y="-366" font-family="Helvetica,sans-Serif" font-size="10.00" fill="#000000"> +mMaxOffset</text>
</g>
<!-- Node12 -->
<g id="node6" class="node">
<title>Node12</title>
<g id="a_node6"><a xlink:href="../../dd/da8/structo2_1_1soa_1_1NTupleType.html" target="_top" xlink:title="{o2::soa::NTupleType\l\&lt; T, N, REST \&gt;\n||}">
<polygon fill="none" stroke="#000000" points="340.6888,-508.5 340.6888,-576.5 453.6888,-576.5 453.6888,-508.5 340.6888,-508.5"/>
<text text-anchor="start" x="348.6888" y="-564.5" font-family="Helvetica,sans-Serif" font-size="10.00" fill="#000000">o2::soa::NTupleType</text>
<text text-anchor="middle" x="397.1888" y="-553.5" font-family="Helvetica,sans-Serif" font-size="10.00" fill="#000000">&lt; T, N, REST &gt;</text>
<polyline fill="none" stroke="#000000" points="340.6888,-546.5 453.6888,-546.5 "/>
<text text-anchor="middle" x="397.1888" y="-534.5" font-family="Helvetica,sans-Serif" font-size="10.00" fill="#000000"> </text>
<polyline fill="none" stroke="#000000" points="340.6888,-527.5 453.6888,-527.5 "/>
<text text-anchor="middle" x="397.1888" y="-515.5" font-family="Helvetica,sans-Serif" font-size="10.00" fill="#000000"> </text>
</a>
</g>
</g>
<!-- Node12&#45;&gt;Node11 -->
<g id="edge5" class="edge">
<title>Node12&#45;&gt;Node11</title>
<path fill="none" stroke="#ffa500" d="M397.1888,-498.1851C397.1888,-485.8048 397.1888,-472.5422 397.1888,-460.833"/>
<polygon fill="#ffa500" stroke="#ffa500" points="393.6889,-498.3235 397.1888,-508.3236 400.6889,-498.3236 393.6889,-498.3235"/>
<text text-anchor="middle" x="459.1888" y="-482" font-family="Helvetica,sans-Serif" font-size="10.00" fill="#000000"> &lt; uint64_t, sizeof...(Ts)&gt;</text>
</g>
<!-- Node13&#45;&gt;Node8 -->
<g id="edge6" class="edge">
<title>Node13&#45;&gt;Node8</title>
<path fill="none" stroke="#ffa500" d="M212.3265,-246.4249C219,-239.2226 225.7614,-231.9287 232.1888,-225 237.7154,-219.0425 243.5356,-212.7729 249.2796,-206.5879"/>
<polygon fill="#ffa500" stroke="#ffa500" points="209.3681,-244.4682 205.1394,-254.1825 214.503,-249.2255 209.3681,-244.4682"/>
<text text-anchor="middle" x="254.6888" y="-228" font-family="Helvetica,sans-Serif" font-size="10.00" fill="#000000"> &lt; Ts... &gt;</text>
</g>
<!-- Node14 -->
<g id="node8" class="node">
<title>Node14</title>
<g id="a_node8"><a xlink:href="../../d6/d30/classuint64__t.html" target="_top" xlink:title="{uint64_t\n||}">
<polygon fill="none" stroke="#000000" points="524.1888,-133 524.1888,-190 580.1888,-190 580.1888,-133 524.1888,-133"/>
<text text-anchor="middle" x="552.1888" y="-178" font-family="Helvetica,sans-Serif" font-size="10.00" fill="#000000">uint64_t</text>
<polyline fill="none" stroke="#000000" points="524.1888,-171 580.1888,-171 "/>
<text text-anchor="middle" x="552.1888" y="-159" font-family="Helvetica,sans-Serif" font-size="10.00" fill="#000000"> </text>
<polyline fill="none" stroke="#000000" points="524.1888,-152 580.1888,-152 "/>
<text text-anchor="middle" x="552.1888" y="-140" font-family="Helvetica,sans-Serif" font-size="10.00" fill="#000000"> </text>
</a>
</g>
</g>
<!-- Node14&#45;&gt;Node7 -->
<g id="edge10" class="edge">
<title>Node14&#45;&gt;Node7</title>
<path fill="none" stroke="#404040" d="M545.2318,-132.9987C541.4608,-117.5495 536.7086,-98.0808 532.4268,-80.5395"/>
<polygon fill="none" stroke="#404040" points="532.4012,-80.4342 527.0925,-75.5539 529.5556,-68.7765 534.8643,-73.6568 532.4012,-80.4342"/>
<text text-anchor="middle" x="594.1888" y="-90" font-family="Helvetica,sans-Serif" font-size="10.00" fill="#000000"> +mSlidingWindowSize</text>
</g>
<!-- Node15 -->
<g id="node9" class="node">
<title>Node15</title>
<polygon fill="none" stroke="#bfbfbf" points="602.6888,-122 602.6888,-201 765.6888,-201 765.6888,-122 602.6888,-122"/>
<text text-anchor="start" x="610.6888" y="-189" font-family="Helvetica,sans-Serif" font-size="10.00" fill="#000000">array&lt; std::vector</text>
<text text-anchor="start" x="610.6888" y="-178" font-family="Helvetica,sans-Serif" font-size="10.00" fill="#000000">&lt; std::pair&lt; uint64</text>
<text text-anchor="middle" x="684.1888" y="-167" font-family="Helvetica,sans-Serif" font-size="10.00" fill="#000000">_t, uint64_t &gt; &gt;, sizeof...(Ts)&gt;</text>
<polyline fill="none" stroke="#bfbfbf" points="602.6888,-160 765.6888,-160 "/>
<text text-anchor="middle" x="684.1888" y="-148" font-family="Helvetica,sans-Serif" font-size="10.00" fill="#000000"> </text>
<polyline fill="none" stroke="#bfbfbf" points="602.6888,-141 765.6888,-141 "/>
<text text-anchor="middle" x="684.1888" y="-129" font-family="Helvetica,sans-Serif" font-size="10.00" fill="#000000"> </text>
</g>
<!-- Node15&#45;&gt;Node7 -->
<g id="edge11" class="edge">
<title>Node15&#45;&gt;Node7</title>
<path fill="none" stroke="#404040" d="M675.3935,-121.6254C671.0311,-109.2665 664.6001,-96.432 655.1888,-87 649.6876,-81.4867 643.5393,-76.5376 636.983,-72.0971"/>
<polygon fill="none" stroke="#404040" points="636.5809,-71.8481 629.3739,-72.0896 626.379,-65.5298 633.5861,-65.2883 636.5809,-71.8481"/>
<text text-anchor="middle" x="711.6888" y="-90" font-family="Helvetica,sans-Serif" font-size="10.00" fill="#000000"> +mGroupedIndices</text>
</g>
</g>
</svg>
