<?xml version="1.0" encoding="UTF-8" standalone="no"?>
<!DOCTYPE svg PUBLIC "-//W3C//DTD SVG 1.1//EN"
 "http://www.w3.org/Graphics/SVG/1.1/DTD/svg11.dtd">
<!-- Generated by graphviz version 2.40.1 (20161225.0304)
 -->
<!-- Title: /home/travis/build/AliceO2Group/AliceO2/Framework/Core/src/TableBuilder.cxx Pages: 1 -->
<svg width="2435pt" height="330pt"
 viewBox="0.00 0.00 2434.50 330.00" xmlns="http://www.w3.org/2000/svg" xmlns:xlink="http://www.w3.org/1999/xlink">
<g id="graph0" class="graph" transform="scale(1 1) rotate(0) translate(4 326)">
<title>/home/travis/build/AliceO2Group/AliceO2/Framework/Core/src/TableBuilder.cxx</title>
<!-- Node0 -->
<g id="node1" class="node">
<title>Node0</title>
<polygon fill="#bfbfbf" stroke="#000000" points="1895,-280.5 1895,-321.5 2094,-321.5 2094,-280.5 1895,-280.5"/>
<text text-anchor="start" x="1903" y="-309.5" font-family="Helvetica,sans-Serif" font-size="10.00" fill="#000000">/home/travis/build</text>
<text text-anchor="start" x="1903" y="-298.5" font-family="Helvetica,sans-Serif" font-size="10.00" fill="#000000">/AliceO2Group/AliceO2</text>
<text text-anchor="middle" x="1994.5" y="-287.5" font-family="Helvetica,sans-Serif" font-size="10.00" fill="#000000">/Framework/Core/src/TableBuilder.cxx</text>
</g>
<!-- Node1 -->
<g id="node2" class="node">
<title>Node1</title>
<g id="a_node2"><a xlink:href="../../d5/d98/TableBuilder_8h.html" target="_top" xlink:title="Framework/TableBuilder.h">
<polygon fill="none" stroke="#000000" points="550.5,-224.5 550.5,-243.5 692.5,-243.5 692.5,-224.5 550.5,-224.5"/>
<text text-anchor="middle" x="621.5" y="-231.5" font-family="Helvetica,sans-Serif" font-size="10.00" fill="#000000">Framework/TableBuilder.h</text>
</a>
</g>
</g>
<!-- Node0&#45;&gt;Node1 -->
<g id="edge1" class="edge">
<title>Node0&#45;&gt;Node1</title>
<path fill="none" stroke="#191970" d="M1894.9282,-296.1411C1635.2187,-283.4677 940.8867,-249.5855 702.8796,-237.9712"/>
<polygon fill="#191970" stroke="#191970" points="702.729,-234.4598 692.5703,-237.4681 702.3878,-241.4514 702.729,-234.4598"/>
</g>
<!-- Node19 -->
<g id="node20" class="node">
<title>Node19</title>
<polygon fill="none" stroke="#bfbfbf" points="1896,-56.5 1896,-75.5 1977,-75.5 1977,-56.5 1896,-56.5"/>
<text text-anchor="middle" x="1936.5" y="-63.5" font-family="Helvetica,sans-Serif" font-size="10.00" fill="#000000">arrow/table.h</text>
</g>
<!-- Node0&#45;&gt;Node19 -->
<g id="edge63" class="edge">
<title>Node0&#45;&gt;Node19</title>
<path fill="none" stroke="#191970" d="M2000.3863,-280.3462C2003.1465,-269.6058 2006.1259,-256.2043 2007.5,-244 2012.7603,-197.2793 1998.6661,-124.8691 1991.5,-112 1984.571,-99.5568 1972.8496,-89.0477 1962.0034,-81.2295"/>
<polygon fill="#191970" stroke="#191970" points="1963.8461,-78.2505 1953.601,-75.5507 1959.9264,-84.0501 1963.8461,-78.2505"/>
</g>
<!-- Node25 -->
<g id="node26" class="node">
<title>Node25</title>
<polygon fill="none" stroke="#bfbfbf" points="1819.5,-56.5 1819.5,-75.5 1877.5,-75.5 1877.5,-56.5 1819.5,-56.5"/>
<text text-anchor="middle" x="1848.5" y="-63.5" font-family="Helvetica,sans-Serif" font-size="10.00" fill="#000000">memory</text>
</g>
<!-- Node0&#45;&gt;Node25 -->
<g id="edge59" class="edge">
<title>Node0&#45;&gt;Node25</title>
<path fill="none" stroke="#191970" d="M1991.5843,-280.463C1986.2778,-250.9745 1972.1912,-197.0043 1937.5,-168 1882.9104,-122.3592 1825.798,-187.6848 1781.5,-132 1765.997,-112.5119 1792.7469,-92.8187 1816.9067,-80.0818"/>
<polygon fill="#191970" stroke="#191970" points="1818.5712,-83.1627 1825.9459,-75.5558 1815.4371,-76.9035 1818.5712,-83.1627"/>
</g>
<!-- Node26 -->
<g id="node27" class="node">
<title>Node26</title>
<g id="a_node27"><a xlink:href="../../d1/dc1/ArrowCompatibility_8h.html" target="_top" xlink:title="Framework/ArrowCompatibility.h">
<polygon fill="none" stroke="#000000" points="1790.5,-112.5 1790.5,-131.5 1966.5,-131.5 1966.5,-112.5 1790.5,-112.5"/>
<text text-anchor="middle" x="1878.5" y="-119.5" font-family="Helvetica,sans-Serif" font-size="10.00" fill="#000000">Framework/ArrowCompatibility.h</text>
</a>
</g>
</g>
<!-- Node0&#45;&gt;Node26 -->
<g id="edge58" class="edge">
<title>Node0&#45;&gt;Node26</title>
<path fill="none" stroke="#191970" d="M1996.1666,-280.3167C1997.3385,-252.0952 1995.3959,-201.2404 1970.5,-168 1959.2246,-152.9454 1941.6536,-142.4919 1924.8762,-135.4019"/>
<polygon fill="#191970" stroke="#191970" points="1925.7315,-131.9788 1915.1432,-131.6067 1923.1884,-138.5005 1925.7315,-131.9788"/>
</g>
<!-- Node38 -->
<g id="node39" class="node">
<title>Node38</title>
<polygon fill="none" stroke="#bfbfbf" points="1712,-168.5 1712,-187.5 1821,-187.5 1821,-168.5 1712,-168.5"/>
<text text-anchor="middle" x="1766.5" y="-175.5" font-family="Helvetica,sans-Serif" font-size="10.00" fill="#000000">arrow/type_traits.h</text>
</g>
<!-- Node0&#45;&gt;Node38 -->
<g id="edge64" class="edge">
<title>Node0&#45;&gt;Node38</title>
<path fill="none" stroke="#191970" d="M1956.3379,-280.4126C1910.0977,-255.4672 1833.3921,-214.0865 1793.0979,-192.3489"/>
<polygon fill="#191970" stroke="#191970" points="1794.6062,-189.1858 1784.1434,-187.5182 1791.2826,-195.3465 1794.6062,-189.1858"/>
</g>
<!-- Node39 -->
<g id="node40" class="node">
<title>Node39</title>
<polygon fill="none" stroke="#bfbfbf" points="1839,-168.5 1839,-187.5 1928,-187.5 1928,-168.5 1839,-168.5"/>
<text text-anchor="middle" x="1883.5" y="-175.5" font-family="Helvetica,sans-Serif" font-size="10.00" fill="#000000">arrow/builder.h</text>
</g>
<!-- Node0&#45;&gt;Node39 -->
<g id="edge60" class="edge">
<title>Node0&#45;&gt;Node39</title>
<path fill="none" stroke="#191970" d="M1975.676,-280.4666C1965.776,-269.6423 1953.4528,-256.1284 1942.5,-244 1927.6572,-227.564 1910.8311,-208.7205 1898.9569,-195.387"/>
<polygon fill="#191970" stroke="#191970" points="1901.528,-193.0113 1892.2654,-187.8678 1896.2988,-197.6649 1901.528,-193.0113"/>
</g>
<!-- Node41 -->
<g id="node42" class="node">
<title>Node41</title>
<polygon fill="none" stroke="#bfbfbf" points="2060.5,-224.5 2060.5,-243.5 2184.5,-243.5 2184.5,-224.5 2060.5,-224.5"/>
<text text-anchor="middle" x="2122.5" y="-231.5" font-family="Helvetica,sans-Serif" font-size="10.00" fill="#000000">arrow/memory_pool.h</text>
</g>
<!-- Node0&#45;&gt;Node41 -->
<g id="edge61" class="edge">
<title>Node0&#45;&gt;Node41</title>
<path fill="none" stroke="#191970" d="M2033.9487,-280.3511C2053.6578,-270.0346 2077.0284,-257.8015 2094.8102,-248.4939"/>
<polygon fill="#191970" stroke="#191970" points="2096.8188,-251.3931 2104.0553,-243.6546 2093.5725,-245.1913 2096.8188,-251.3931"/>
</g>
<!-- Node42 -->
<g id="node43" class="node">
<title>Node42</title>
<polygon fill="none" stroke="#bfbfbf" points="2203,-224.5 2203,-243.5 2322,-243.5 2322,-224.5 2203,-224.5"/>
<text text-anchor="middle" x="2262.5" y="-231.5" font-family="Helvetica,sans-Serif" font-size="10.00" fill="#000000">arrow/record_batch.h</text>
</g>
<!-- Node0&#45;&gt;Node42 -->
<g id="edge62" class="edge">
<title>Node0&#45;&gt;Node42</title>
<path fill="none" stroke="#191970" d="M2076.7301,-280.4425C2121.9285,-269.1429 2176.4128,-255.5218 2214.6499,-245.9625"/>
<polygon fill="#191970" stroke="#191970" points="2215.6407,-249.3226 2224.4933,-243.5017 2213.9429,-242.5316 2215.6407,-249.3226"/>
</g>
<!-- Node43 -->
<g id="node44" class="node">
<title>Node43</title>
<polygon fill="none" stroke="#bfbfbf" points="2340.5,-224.5 2340.5,-243.5 2426.5,-243.5 2426.5,-224.5 2340.5,-224.5"/>
<text text-anchor="middle" x="2383.5" y="-231.5" font-family="Helvetica,sans-Serif" font-size="10.00" fill="#000000">arrow/status.h</text>
</g>
<!-- Node0&#45;&gt;Node43 -->
<g id="edge65" class="edge">
<title>Node0&#45;&gt;Node43</title>
<path fill="none" stroke="#191970" d="M2094.1372,-284.7498C2158.785,-274.0636 2245.1086,-259.5288 2330.5146,-244.1504"/>
<polygon fill="#191970" stroke="#191970" points="2331.1646,-247.5897 2340.3837,-242.3688 2329.9209,-240.7011 2331.1646,-247.5897"/>
</g>
<!-- Node2 -->
<g id="node3" class="node">
<title>Node2</title>
<g id="a_node3"><a xlink:href="../../de/d33/ASoA_8h.html" target="_top" xlink:title="Framework/ASoA.h">
<polygon fill="none" stroke="#000000" points="950.5,-168.5 950.5,-187.5 1058.5,-187.5 1058.5,-168.5 950.5,-168.5"/>
<text text-anchor="middle" x="1004.5" y="-175.5" font-family="Helvetica,sans-Serif" font-size="10.00" fill="#000000">Framework/ASoA.h</text>
</a>
</g>
</g>
<!-- Node1&#45;&gt;Node2 -->
<g id="edge2" class="edge">
<title>Node1&#45;&gt;Node2</title>
<path fill="none" stroke="#191970" d="M686.9049,-224.4369C757.6684,-214.0903 869.7842,-197.6973 940.1382,-187.4106"/>
<polygon fill="#191970" stroke="#191970" points="940.817,-190.8487 950.2054,-185.9386 939.8042,-183.9223 940.817,-190.8487"/>
</g>
<!-- Node8 -->
<g id="node9" class="node">
<title>Node8</title>
<g id="a_node9"><a xlink:href="../../de/d9b/FunctionalHelpers_8h.html" target="_top" xlink:title="Framework/FunctionalHelpers.h">
<polygon fill="none" stroke="#000000" points="413.5,-112.5 413.5,-131.5 583.5,-131.5 583.5,-112.5 413.5,-112.5"/>
<text text-anchor="middle" x="498.5" y="-119.5" font-family="Helvetica,sans-Serif" font-size="10.00" fill="#000000">Framework/FunctionalHelpers.h</text>
</a>
</g>
</g>
<!-- Node1&#45;&gt;Node8 -->
<g id="edge45" class="edge">
<title>Node1&#45;&gt;Node8</title>
<path fill="none" stroke="#191970" d="M611.0131,-224.4509C590.0443,-205.3574 542.7248,-162.2697 516.6275,-138.5063"/>
<polygon fill="#191970" stroke="#191970" points="518.7108,-135.6697 508.9604,-131.5249 513.9979,-140.8455 518.7108,-135.6697"/>
</g>
<!-- Node9 -->
<g id="node10" class="node">
<title>Node9</title>
<polygon fill="none" stroke="#bfbfbf" points="118,-56.5 118,-75.5 183,-75.5 183,-56.5 118,-56.5"/>
<text text-anchor="middle" x="150.5" y="-63.5" font-family="Helvetica,sans-Serif" font-size="10.00" fill="#000000">functional</text>
</g>
<!-- Node1&#45;&gt;Node9 -->
<g id="edge53" class="edge">
<title>Node1&#45;&gt;Node9</title>
<path fill="none" stroke="#191970" d="M550.3441,-228.6592C450.4729,-220.6246 278.2063,-204.5929 254.5,-188 223.3965,-166.2295 240.3772,-140.6794 215.5,-112 204.7845,-99.6467 190.0937,-88.8883 177.3891,-80.8883"/>
<polygon fill="#191970" stroke="#191970" points="178.9444,-77.7389 168.5745,-75.5672 175.3267,-83.7317 178.9444,-77.7389"/>
</g>
<!-- Node1&#45;&gt;Node19 -->
<g id="edge51" class="edge">
<title>Node1&#45;&gt;Node19</title>
<path fill="none" stroke="#191970" d="M692.7422,-230.8727C831.814,-224.5465 1149.1468,-209.0239 1415.5,-188 1446.6693,-185.5397 1954.5202,-155.1825 1975.5,-132 1989.1129,-116.9579 1972.6879,-96.4295 1957.1696,-82.2811"/>
<polygon fill="#191970" stroke="#191970" points="1959.1687,-79.3845 1949.3011,-75.5268 1954.6093,-84.696 1959.1687,-79.3845"/>
</g>
<!-- Node24 -->
<g id="node25" class="node">
<title>Node24</title>
<polygon fill="none" stroke="#bfbfbf" points="201.5,-56.5 201.5,-75.5 245.5,-75.5 245.5,-56.5 201.5,-56.5"/>
<text text-anchor="middle" x="223.5" y="-63.5" font-family="Helvetica,sans-Serif" font-size="10.00" fill="#000000">string</text>
</g>
<!-- Node1&#45;&gt;Node24 -->
<g id="edge55" class="edge">
<title>Node1&#45;&gt;Node24</title>
<path fill="none" stroke="#191970" d="M550.2965,-225.3843C486.5282,-216.9056 398.3122,-203.0698 366.5,-188 312.2115,-162.283 262.0591,-110.4709 238.1639,-83.3881"/>
<polygon fill="#191970" stroke="#191970" points="240.5491,-80.7959 231.3565,-75.5284 235.2578,-85.3788 240.5491,-80.7959"/>
</g>
<!-- Node1&#45;&gt;Node25 -->
<g id="edge56" class="edge">
<title>Node1&#45;&gt;Node25</title>
<path fill="none" stroke="#191970" d="M692.8086,-232.9596C862.7614,-229.1983 1304.2446,-211.859 1662.5,-132 1718.595,-119.4958 1781.0301,-95.0444 1817.4167,-79.6691"/>
<polygon fill="#191970" stroke="#191970" points="1819.1413,-82.7383 1826.9619,-75.5906 1816.3909,-76.3013 1819.1413,-82.7383"/>
</g>
<!-- Node33 -->
<g id="node34" class="node">
<title>Node33</title>
<g id="a_node34"><a xlink:href="../../db/d4f/StructToTuple_8h.html" target="_top" xlink:title="Framework/StructToTuple.h">
<polygon fill="none" stroke="#000000" points="57,-168.5 57,-187.5 204,-187.5 204,-168.5 57,-168.5"/>
<text text-anchor="middle" x="130.5" y="-175.5" font-family="Helvetica,sans-Serif" font-size="10.00" fill="#000000">Framework/StructToTuple.h</text>
</a>
</g>
</g>
<!-- Node1&#45;&gt;Node33 -->
<g id="edge41" class="edge">
<title>Node1&#45;&gt;Node33</title>
<path fill="none" stroke="#191970" d="M550.3668,-225.887C461.2576,-215.7239 308.8039,-198.3361 214.1805,-187.544"/>
<polygon fill="#191970" stroke="#191970" points="214.4055,-184.0471 204.0733,-186.3912 213.6122,-191.002 214.4055,-184.0471"/>
</g>
<!-- Node34 -->
<g id="node35" class="node">
<title>Node34</title>
<polygon fill="none" stroke="#bfbfbf" points="0,-112.5 0,-131.5 41,-131.5 41,-112.5 0,-112.5"/>
<text text-anchor="middle" x="20.5" y="-119.5" font-family="Helvetica,sans-Serif" font-size="10.00" fill="#000000">tuple</text>
</g>
<!-- Node1&#45;&gt;Node34 -->
<g id="edge57" class="edge">
<title>Node1&#45;&gt;Node34</title>
<path fill="none" stroke="#191970" d="M550.4217,-232.4262C405.7321,-228.6332 87.2488,-217.056 47.5,-188 32.7019,-177.1827 25.9895,-156.8005 22.9599,-141.5359"/>
<polygon fill="#191970" stroke="#191970" points="26.3942,-140.848 21.3419,-131.5354 19.4841,-141.9661 26.3942,-140.848"/>
</g>
<!-- Node35 -->
<g id="node36" class="node">
<title>Node35</title>
<g id="a_node36"><a xlink:href="../../d7/dbe/VariantHelpers_8h.html" target="_top" xlink:title="Framework/VariantHelpers.h">
<polygon fill="none" stroke="#000000" points="376,-168.5 376,-187.5 531,-187.5 531,-168.5 376,-168.5"/>
<text text-anchor="middle" x="453.5" y="-175.5" font-family="Helvetica,sans-Serif" font-size="10.00" fill="#000000">Framework/VariantHelpers.h</text>
</a>
</g>
</g>
<!-- Node1&#45;&gt;Node35 -->
<g id="edge46" class="edge">
<title>Node1&#45;&gt;Node35</title>
<path fill="none" stroke="#191970" d="M592.6198,-224.3733C564.6839,-215.0613 522.1858,-200.8953 491.5131,-190.671"/>
<polygon fill="#191970" stroke="#191970" points="492.597,-187.3431 482.0034,-187.5011 490.3834,-193.9839 492.597,-187.3431"/>
</g>
<!-- Node36 -->
<g id="node37" class="node">
<title>Node36</title>
<polygon fill="none" stroke="#bfbfbf" points="263.5,-168.5 263.5,-187.5 319.5,-187.5 319.5,-168.5 263.5,-168.5"/>
<text text-anchor="middle" x="291.5" y="-175.5" font-family="Helvetica,sans-Serif" font-size="10.00" fill="#000000">sstream</text>
</g>
<!-- Node1&#45;&gt;Node36 -->
<g id="edge48" class="edge">
<title>Node1&#45;&gt;Node36</title>
<path fill="none" stroke="#191970" d="M552.5757,-224.4815C494.0685,-216.0457 407.9955,-202.7959 333.5,-188 332.2594,-187.7536 330.9998,-187.4962 329.7292,-187.2304"/>
<polygon fill="#191970" stroke="#191970" points="330.4214,-183.799 319.9029,-185.0688 328.9174,-190.6356 330.4214,-183.799"/>
</g>
<!-- Node37 -->
<g id="node38" class="node">
<title>Node37</title>
<polygon fill="none" stroke="#bfbfbf" points="587.5,-168.5 587.5,-187.5 655.5,-187.5 655.5,-168.5 587.5,-168.5"/>
<text text-anchor="middle" x="621.5" y="-175.5" font-family="Helvetica,sans-Serif" font-size="10.00" fill="#000000">arrow/stl.h</text>
</g>
<!-- Node1&#45;&gt;Node37 -->
<g id="edge49" class="edge">
<title>Node1&#45;&gt;Node37</title>
<path fill="none" stroke="#191970" d="M621.5,-224.2455C621.5,-216.9382 621.5,-206.6944 621.5,-197.7046"/>
<polygon fill="#191970" stroke="#191970" points="625.0001,-197.6426 621.5,-187.6427 618.0001,-197.6427 625.0001,-197.6426"/>
</g>
<!-- Node1&#45;&gt;Node38 -->
<g id="edge50" class="edge">
<title>Node1&#45;&gt;Node38</title>
<path fill="none" stroke="#191970" d="M692.8059,-233.4427C865.5544,-231.5505 1320.0555,-223.3277 1697.5,-188 1698.9688,-187.8625 1700.4541,-187.7155 1701.9511,-187.5601"/>
<polygon fill="#191970" stroke="#191970" points="1702.4059,-191.031 1711.9477,-186.4262 1701.6169,-184.0756 1702.4059,-191.031"/>
</g>
<!-- Node1&#45;&gt;Node39 -->
<g id="edge52" class="edge">
<title>Node1&#45;&gt;Node39</title>
<path fill="none" stroke="#191970" d="M692.7027,-232.6462C913.8085,-228.2311 1587.638,-213.1323 1828.6696,-187.8909"/>
<polygon fill="#191970" stroke="#191970" points="1829.2196,-191.3519 1838.7853,-186.7969 1828.4669,-184.3925 1829.2196,-191.3519"/>
</g>
<!-- Node40 -->
<g id="node41" class="node">
<title>Node40</title>
<polygon fill="none" stroke="#bfbfbf" points="674,-168.5 674,-187.5 721,-187.5 721,-168.5 674,-168.5"/>
<text text-anchor="middle" x="697.5" y="-175.5" font-family="Helvetica,sans-Serif" font-size="10.00" fill="#000000">vector</text>
</g>
<!-- Node1&#45;&gt;Node40 -->
<g id="edge54" class="edge">
<title>Node1&#45;&gt;Node40</title>
<path fill="none" stroke="#191970" d="M634.7382,-224.2455C646.181,-215.814 662.9296,-203.4729 676.2475,-193.6598"/>
<polygon fill="#191970" stroke="#191970" points="678.4391,-196.3924 684.4135,-187.6427 674.2867,-190.757 678.4391,-196.3924"/>
</g>
<!-- Node3 -->
<g id="node4" class="node">
<title>Node3</title>
<g id="a_node4"><a xlink:href="../../dd/dce/Pack_8h.html" target="_top" xlink:title="Framework/Pack.h">
<polygon fill="none" stroke="#000000" points="446,-56.5 446,-75.5 551,-75.5 551,-56.5 446,-56.5"/>
<text text-anchor="middle" x="498.5" y="-63.5" font-family="Helvetica,sans-Serif" font-size="10.00" fill="#000000">Framework/Pack.h</text>
</a>
</g>
</g>
<!-- Node2&#45;&gt;Node3 -->
<g id="edge3" class="edge">
<title>Node2&#45;&gt;Node3</title>
<path fill="none" stroke="#191970" d="M950.2154,-175.5568C882.9086,-171.3994 765.2404,-160.4168 668.5,-132 648.2772,-126.0597 644.983,-120.0412 625.5,-112 596.0299,-99.8369 562.0429,-87.6191 536.6481,-78.8352"/>
<polygon fill="#191970" stroke="#191970" points="537.6146,-75.4665 527.02,-75.5268 535.3398,-82.0866 537.6146,-75.4665"/>
</g>
<!-- Node7 -->
<g id="node8" class="node">
<title>Node7</title>
<g id="a_node8"><a xlink:href="../../d1/d00/CheckTypes_8h.html" target="_top" xlink:title="Framework/CheckTypes.h">
<polygon fill="none" stroke="#000000" points="1661.5,-56.5 1661.5,-75.5 1801.5,-75.5 1801.5,-56.5 1661.5,-56.5"/>
<text text-anchor="middle" x="1731.5" y="-63.5" font-family="Helvetica,sans-Serif" font-size="10.00" fill="#000000">Framework/CheckTypes.h</text>
</a>
</g>
</g>
<!-- Node2&#45;&gt;Node7 -->
<g id="edge7" class="edge">
<title>Node2&#45;&gt;Node7</title>
<path fill="none" stroke="#191970" d="M1058.7515,-177.4066C1190.3689,-175.4229 1523.5139,-166.9923 1628.5,-132 1660.9696,-121.1777 1693.3759,-97.8268 1712.9318,-82.0094"/>
<polygon fill="#191970" stroke="#191970" points="1715.2625,-84.6235 1720.7279,-75.5472 1710.7953,-79.2342 1715.2625,-84.6235"/>
</g>
<!-- Node2&#45;&gt;Node8 -->
<g id="edge8" class="edge">
<title>Node2&#45;&gt;Node8</title>
<path fill="none" stroke="#191970" d="M950.3491,-172.007C865.2637,-162.5904 699.1201,-144.203 593.7406,-132.5405"/>
<polygon fill="#191970" stroke="#191970" points="594.0614,-129.0547 583.737,-131.4333 593.2913,-136.0122 594.0614,-129.0547"/>
</g>
<!-- Node10 -->
<g id="node11" class="node">
<title>Node10</title>
<g id="a_node11"><a xlink:href="../../d9/de8/CompilerBuiltins_8h.html" target="_top" xlink:title="Framework/CompilerBuiltins.h">
<polygon fill="none" stroke="#000000" points="263.5,-56.5 263.5,-75.5 427.5,-75.5 427.5,-56.5 263.5,-56.5"/>
<text text-anchor="middle" x="345.5" y="-63.5" font-family="Helvetica,sans-Serif" font-size="10.00" fill="#000000">Framework/CompilerBuiltins.h</text>
</a>
</g>
</g>
<!-- Node2&#45;&gt;Node10 -->
<g id="edge11" class="edge">
<title>Node2&#45;&gt;Node10</title>
<path fill="none" stroke="#191970" d="M950.2295,-174.2427C860.2406,-167.5408 684.229,-152.3015 625.5,-132 609.2911,-126.3969 608.5233,-118.1136 592.5,-112 561.8577,-100.3086 481.9858,-86.48 421.2941,-77.0593"/>
<polygon fill="#191970" stroke="#191970" points="421.7643,-73.5905 411.3481,-75.528 420.6991,-80.509 421.7643,-73.5905"/>
</g>
<!-- Node11 -->
<g id="node12" class="node">
<title>Node11</title>
<g id="a_node12"><a xlink:href="../../db/d31/Traits_8h.html" target="_top" xlink:title="Framework/Traits.h">
<polygon fill="none" stroke="#000000" points="98,-112.5 98,-131.5 207,-131.5 207,-112.5 98,-112.5"/>
<text text-anchor="middle" x="152.5" y="-119.5" font-family="Helvetica,sans-Serif" font-size="10.00" fill="#000000">Framework/Traits.h</text>
</a>
</g>
</g>
<!-- Node2&#45;&gt;Node11 -->
<g id="edge12" class="edge">
<title>Node2&#45;&gt;Node11</title>
<path fill="none" stroke="#191970" d="M950.2328,-174.4331C800.1328,-164.5674 379.8177,-136.9411 217.5566,-126.276"/>
<polygon fill="#191970" stroke="#191970" points="217.4556,-122.7619 207.2475,-125.5984 216.9964,-129.7468 217.4556,-122.7619"/>
</g>
<!-- Node13 -->
<g id="node14" class="node">
<title>Node13</title>
<g id="a_node14"><a xlink:href="../../d0/d91/Expressions_8h.html" target="_top" xlink:title="Framework/Expressions.h">
<polygon fill="none" stroke="#000000" points="678,-112.5 678,-131.5 819,-131.5 819,-112.5 678,-112.5"/>
<text text-anchor="middle" x="748.5" y="-119.5" font-family="Helvetica,sans-Serif" font-size="10.00" fill="#000000">Framework/Expressions.h</text>
</a>
</g>
</g>
<!-- Node2&#45;&gt;Node13 -->
<g id="edge14" class="edge">
<title>Node2&#45;&gt;Node13</title>
<path fill="none" stroke="#191970" d="M960.7829,-168.4369C916.8784,-158.8328 849.1587,-144.0191 802.055,-133.7152"/>
<polygon fill="#191970" stroke="#191970" points="802.5537,-130.2416 792.0368,-131.5237 801.0578,-137.0799 802.5537,-130.2416"/>
</g>
<!-- Node2&#45;&gt;Node19 -->
<g id="edge34" class="edge">
<title>Node2&#45;&gt;Node19</title>
<path fill="none" stroke="#191970" d="M1058.5719,-177.2611C1171.4453,-175.0522 1440.1097,-166.3129 1662.5,-132 1745.8638,-119.1377 1841.2028,-93.6697 1894.5864,-78.4058"/>
<polygon fill="#191970" stroke="#191970" points="1895.73,-81.7188 1904.3707,-75.5879 1893.7926,-74.9922 1895.73,-81.7188"/>
</g>
<!-- Node20 -->
<g id="node21" class="node">
<title>Node20</title>
<polygon fill="none" stroke="#bfbfbf" points="1377,-56.5 1377,-75.5 1524,-75.5 1524,-56.5 1377,-56.5"/>
<text text-anchor="middle" x="1450.5" y="-63.5" font-family="Helvetica,sans-Serif" font-size="10.00" fill="#000000">gandiva/selection_vector.h</text>
</g>
<!-- Node2&#45;&gt;Node20 -->
<g id="edge39" class="edge">
<title>Node2&#45;&gt;Node20</title>
<path fill="none" stroke="#191970" d="M1058.5859,-175.5596C1167.344,-170.1717 1404.5582,-155.8137 1432.5,-132 1445.6099,-120.827 1449.6427,-101.1306 1450.6756,-86.1544"/>
<polygon fill="#191970" stroke="#191970" points="1454.1834,-85.9408 1450.9814,-75.8414 1447.1865,-85.7333 1454.1834,-85.9408"/>
</g>
<!-- Node2&#45;&gt;Node26 -->
<g id="edge30" class="edge">
<title>Node2&#45;&gt;Node26</title>
<path fill="none" stroke="#191970" d="M1058.8384,-174.7572C1180.5548,-167.4577 1484.3479,-149.0404 1738.5,-132 1751.9994,-131.0949 1766.2287,-130.112 1780.2363,-129.1276"/>
<polygon fill="#191970" stroke="#191970" points="1780.6544,-132.6069 1790.3833,-128.4117 1780.1617,-125.6243 1780.6544,-132.6069"/>
</g>
<!-- Node27 -->
<g id="node28" class="node">
<title>Node27</title>
<g id="a_node28"><a xlink:href="../../d4/de7/ArrowTypes_8h.html" target="_top" xlink:title="Framework/ArrowTypes.h">
<polygon fill="none" stroke="#000000" points="1481,-112.5 1481,-131.5 1620,-131.5 1620,-112.5 1481,-112.5"/>
<text text-anchor="middle" x="1550.5" y="-119.5" font-family="Helvetica,sans-Serif" font-size="10.00" fill="#000000">Framework/ArrowTypes.h</text>
</a>
</g>
</g>
<!-- Node2&#45;&gt;Node27 -->
<g id="edge32" class="edge">
<title>Node2&#45;&gt;Node27</title>
<path fill="none" stroke="#191970" d="M1058.5912,-172.9547C1144.8979,-164.8279 1319.0649,-148.1142 1466.5,-132 1467.8139,-131.8564 1469.1393,-131.7105 1470.4737,-131.5627"/>
<polygon fill="#191970" stroke="#191970" points="1471.2935,-134.9927 1480.8399,-130.3975 1470.5115,-128.0365 1471.2935,-134.9927"/>
</g>
<!-- Node28 -->
<g id="node29" class="node">
<title>Node28</title>
<polygon fill="none" stroke="#bfbfbf" points="907.5,-112.5 907.5,-131.5 987.5,-131.5 987.5,-112.5 907.5,-112.5"/>
<text text-anchor="middle" x="947.5" y="-119.5" font-family="Helvetica,sans-Serif" font-size="10.00" fill="#000000">arrow/array.h</text>
</g>
<!-- Node2&#45;&gt;Node28 -->
<g id="edge35" class="edge">
<title>Node2&#45;&gt;Node28</title>
<path fill="none" stroke="#191970" d="M994.5714,-168.2455C986.3162,-160.1352 974.3791,-148.4075 964.5918,-138.7919"/>
<polygon fill="#191970" stroke="#191970" points="966.9011,-136.1542 957.3149,-131.6427 961.9954,-141.1476 966.9011,-136.1542"/>
</g>
<!-- Node29 -->
<g id="node30" class="node">
<title>Node29</title>
<polygon fill="none" stroke="#bfbfbf" points="1005.5,-112.5 1005.5,-131.5 1115.5,-131.5 1115.5,-112.5 1005.5,-112.5"/>
<text text-anchor="middle" x="1060.5" y="-119.5" font-family="Helvetica,sans-Serif" font-size="10.00" fill="#000000">arrow/util/variant.h</text>
</g>
<!-- Node2&#45;&gt;Node29 -->
<g id="edge36" class="edge">
<title>Node2&#45;&gt;Node29</title>
<path fill="none" stroke="#191970" d="M1014.2545,-168.2455C1022.3648,-160.1352 1034.0925,-148.4075 1043.7081,-138.7919"/>
<polygon fill="#191970" stroke="#191970" points="1046.2611,-141.1887 1050.8573,-131.6427 1041.3113,-136.2389 1046.2611,-141.1887"/>
</g>
<!-- Node30 -->
<g id="node31" class="node">
<title>Node30</title>
<polygon fill="none" stroke="#bfbfbf" points="1134,-112.5 1134,-131.5 1273,-131.5 1273,-112.5 1134,-112.5"/>
<text text-anchor="middle" x="1203.5" y="-119.5" font-family="Helvetica,sans-Serif" font-size="10.00" fill="#000000">arrow/compute/context.h</text>
</g>
<!-- Node2&#45;&gt;Node30 -->
<g id="edge37" class="edge">
<title>Node2&#45;&gt;Node30</title>
<path fill="none" stroke="#191970" d="M1038.7093,-168.3733C1072.2297,-158.9404 1123.4505,-144.5265 1159.881,-134.2747"/>
<polygon fill="#191970" stroke="#191970" points="1161.0591,-137.5792 1169.7371,-131.5011 1159.1628,-130.8409 1161.0591,-137.5792"/>
</g>
<!-- Node31 -->
<g id="node32" class="node">
<title>Node31</title>
<polygon fill="none" stroke="#bfbfbf" points="1291,-112.5 1291,-131.5 1424,-131.5 1424,-112.5 1291,-112.5"/>
<text text-anchor="middle" x="1357.5" y="-119.5" font-family="Helvetica,sans-Serif" font-size="10.00" fill="#000000">arrow/compute/kernel.h</text>
</g>
<!-- Node2&#45;&gt;Node31 -->
<g id="edge38" class="edge">
<title>Node2&#45;&gt;Node31</title>
<path fill="none" stroke="#191970" d="M1058.8826,-169.3727C1120.2313,-159.6404 1220.1878,-143.7832 1287.3631,-133.1265"/>
<polygon fill="#191970" stroke="#191970" points="1288.1114,-136.5517 1297.4395,-131.528 1287.0146,-129.6381 1288.1114,-136.5517"/>
</g>
<!-- Node32 -->
<g id="node33" class="node">
<title>Node32</title>
<polygon fill="none" stroke="#bfbfbf" points="837.5,-112.5 837.5,-131.5 889.5,-131.5 889.5,-112.5 837.5,-112.5"/>
<text text-anchor="middle" x="863.5" y="-119.5" font-family="Helvetica,sans-Serif" font-size="10.00" fill="#000000">cassert</text>
</g>
<!-- Node2&#45;&gt;Node32 -->
<g id="edge40" class="edge">
<title>Node2&#45;&gt;Node32</title>
<path fill="none" stroke="#191970" d="M980.2612,-168.3733C957.2211,-159.2226 922.3786,-145.3844 896.7499,-135.2057"/>
<polygon fill="#191970" stroke="#191970" points="898.0082,-131.9395 887.4225,-131.5011 895.4244,-138.4452 898.0082,-131.9395"/>
</g>
<!-- Node4 -->
<g id="node5" class="node">
<title>Node4</title>
<polygon fill="none" stroke="#bfbfbf" points="405,-.5 405,-19.5 458,-19.5 458,-.5 405,-.5"/>
<text text-anchor="middle" x="431.5" y="-7.5" font-family="Helvetica,sans-Serif" font-size="10.00" fill="#000000">cstddef</text>
</g>
<!-- Node3&#45;&gt;Node4 -->
<g id="edge4" class="edge">
<title>Node3&#45;&gt;Node4</title>
<path fill="none" stroke="#191970" d="M486.8295,-56.2455C476.9339,-47.9746 462.5373,-35.9416 450.9099,-26.2232"/>
<polygon fill="#191970" stroke="#191970" points="452.9542,-23.3703 443.0368,-19.6427 448.465,-28.7413 452.9542,-23.3703"/>
</g>
<!-- Node5 -->
<g id="node6" class="node">
<title>Node5</title>
<polygon fill="none" stroke="#bfbfbf" points="476,-.5 476,-19.5 521,-19.5 521,-.5 476,-.5"/>
<text text-anchor="middle" x="498.5" y="-7.5" font-family="Helvetica,sans-Serif" font-size="10.00" fill="#000000">utility</text>
</g>
<!-- Node3&#45;&gt;Node5 -->
<g id="edge5" class="edge">
<title>Node3&#45;&gt;Node5</title>
<path fill="none" stroke="#191970" d="M498.5,-56.2455C498.5,-48.9382 498.5,-38.6944 498.5,-29.7046"/>
<polygon fill="#191970" stroke="#191970" points="502.0001,-29.6426 498.5,-19.6427 495.0001,-29.6427 502.0001,-29.6426"/>
</g>
<!-- Node6 -->
<g id="node7" class="node">
<title>Node6</title>
<polygon fill="none" stroke="#bfbfbf" points="539.5,-.5 539.5,-19.5 585.5,-19.5 585.5,-.5 539.5,-.5"/>
<text text-anchor="middle" x="562.5" y="-7.5" font-family="Helvetica,sans-Serif" font-size="10.00" fill="#000000">cstdio</text>
</g>
<!-- Node3&#45;&gt;Node6 -->
<g id="edge6" class="edge">
<title>Node3&#45;&gt;Node6</title>
<path fill="none" stroke="#191970" d="M509.6479,-56.2455C519.0087,-48.0549 532.5858,-36.1749 543.6349,-26.5069"/>
<polygon fill="#191970" stroke="#191970" points="546.2588,-28.8618 551.4798,-19.6427 541.6492,-23.5937 546.2588,-28.8618"/>
</g>
<!-- Node8&#45;&gt;Node3 -->
<g id="edge9" class="edge">
<title>Node8&#45;&gt;Node3</title>
<path fill="none" stroke="#191970" d="M498.5,-112.2455C498.5,-104.9382 498.5,-94.6944 498.5,-85.7046"/>
<polygon fill="#191970" stroke="#191970" points="502.0001,-85.6426 498.5,-75.6427 495.0001,-85.6427 502.0001,-85.6426"/>
</g>
<!-- Node8&#45;&gt;Node9 -->
<g id="edge10" class="edge">
<title>Node8&#45;&gt;Node9</title>
<path fill="none" stroke="#191970" d="M423.0586,-112.4677C363.3034,-104.5008 277.5209,-92.1422 193.0288,-75.9644"/>
<polygon fill="#191970" stroke="#191970" points="193.4832,-72.4875 183.0005,-74.0249 192.1539,-79.3601 193.4832,-72.4875"/>
</g>
<!-- Node12 -->
<g id="node13" class="node">
<title>Node12</title>
<polygon fill="none" stroke="#bfbfbf" points="31,-56.5 31,-75.5 100,-75.5 100,-56.5 31,-56.5"/>
<text text-anchor="middle" x="65.5" y="-63.5" font-family="Helvetica,sans-Serif" font-size="10.00" fill="#000000">type_traits</text>
</g>
<!-- Node11&#45;&gt;Node12 -->
<g id="edge13" class="edge">
<title>Node11&#45;&gt;Node12</title>
<path fill="none" stroke="#191970" d="M137.3458,-112.2455C123.9973,-103.6534 104.3414,-91.0014 88.9617,-81.1018"/>
<polygon fill="#191970" stroke="#191970" points="90.7836,-78.1121 80.4806,-75.6427 86.9949,-83.9982 90.7836,-78.1121"/>
</g>
<!-- Node13&#45;&gt;Node3 -->
<g id="edge17" class="edge">
<title>Node13&#45;&gt;Node3</title>
<path fill="none" stroke="#191970" d="M705.8075,-112.4369C662.9321,-102.8328 596.7995,-88.0191 550.7998,-77.7152"/>
<polygon fill="#191970" stroke="#191970" points="551.5396,-74.2942 541.0164,-75.5237 550.0095,-81.1249 551.5396,-74.2942"/>
</g>
<!-- Node13&#45;&gt;Node7 -->
<g id="edge18" class="edge">
<title>Node13&#45;&gt;Node7</title>
<path fill="none" stroke="#191970" d="M819.1379,-112.8567C822.2996,-112.5464 825.4315,-112.2585 828.5,-112 1190.0399,-81.5464 1284.9562,-106.2758 1651.2096,-75.9441"/>
<polygon fill="#191970" stroke="#191970" points="1651.6199,-79.4221 1661.2935,-75.1008 1651.0365,-72.4464 1651.6199,-79.4221"/>
</g>
<!-- Node13&#45;&gt;Node10 -->
<g id="edge16" class="edge">
<title>Node13&#45;&gt;Node10</title>
<path fill="none" stroke="#191970" d="M679.6797,-112.4369C608.8258,-102.5912 498.5713,-87.2705 424.2737,-76.9462"/>
<polygon fill="#191970" stroke="#191970" points="424.423,-73.4334 414.0364,-75.5237 423.4595,-80.3668 424.423,-73.4334"/>
</g>
<!-- Node14 -->
<g id="node15" class="node">
<title>Node14</title>
<g id="a_node15"><a xlink:href="../../dd/dc2/BasicOps_8h.html" target="_top" xlink:title="Framework/BasicOps.h">
<polygon fill="none" stroke="#000000" points="1066.5,-56.5 1066.5,-75.5 1194.5,-75.5 1194.5,-56.5 1066.5,-56.5"/>
<text text-anchor="middle" x="1130.5" y="-63.5" font-family="Helvetica,sans-Serif" font-size="10.00" fill="#000000">Framework/BasicOps.h</text>
</a>
</g>
</g>
<!-- Node13&#45;&gt;Node14 -->
<g id="edge15" class="edge">
<title>Node13&#45;&gt;Node14</title>
<path fill="none" stroke="#191970" d="M813.7341,-112.4369C881.0632,-102.5666 985.926,-87.1941 1056.3569,-76.8692"/>
<polygon fill="#191970" stroke="#191970" points="1057.1033,-80.2972 1066.4899,-75.3837 1056.088,-73.3712 1057.1033,-80.2972"/>
</g>
<!-- Node15 -->
<g id="node16" class="node">
<title>Node15</title>
<polygon fill="none" stroke="#bfbfbf" points="1542,-56.5 1542,-75.5 1643,-75.5 1643,-56.5 1542,-56.5"/>
<text text-anchor="middle" x="1592.5" y="-63.5" font-family="Helvetica,sans-Serif" font-size="10.00" fill="#000000">arrow/type_fwd.h</text>
</g>
<!-- Node13&#45;&gt;Node15 -->
<g id="edge19" class="edge">
<title>Node13&#45;&gt;Node15</title>
<path fill="none" stroke="#191970" d="M819.1403,-112.8851C822.3014,-112.5671 825.4325,-112.2698 828.5,-112 1137.2404,-84.8465 1219.2768,-109.2713 1531.5619,-75.97"/>
<polygon fill="#191970" stroke="#191970" points="1532.2498,-79.4162 1541.8171,-74.8646 1531.4996,-72.4565 1532.2498,-79.4162"/>
</g>
<!-- Node16 -->
<g id="node17" class="node">
<title>Node16</title>
<polygon fill="none" stroke="#bfbfbf" points="1212.5,-56.5 1212.5,-75.5 1358.5,-75.5 1358.5,-56.5 1212.5,-56.5"/>
<text text-anchor="middle" x="1285.5" y="-63.5" font-family="Helvetica,sans-Serif" font-size="10.00" fill="#000000">gandiva/gandiva_aliases.h</text>
</g>
<!-- Node13&#45;&gt;Node16 -->
<g id="edge20" class="edge">
<title>Node13&#45;&gt;Node16</title>
<path fill="none" stroke="#191970" d="M819.1573,-113.0564C822.3138,-112.692 825.4393,-112.3381 828.5,-112 991.67,-93.9735 1035.359,-94.1226 1202.0813,-76.1314"/>
<polygon fill="#191970" stroke="#191970" points="1202.6291,-79.5926 1212.1932,-75.0343 1201.874,-72.6334 1202.6291,-79.5926"/>
</g>
<!-- Node17 -->
<g id="node18" class="node">
<title>Node17</title>
<polygon fill="none" stroke="#bfbfbf" points="569.5,-56.5 569.5,-75.5 647.5,-75.5 647.5,-56.5 569.5,-56.5"/>
<text text-anchor="middle" x="608.5" y="-63.5" font-family="Helvetica,sans-Serif" font-size="10.00" fill="#000000">arrow/type.h</text>
</g>
<!-- Node13&#45;&gt;Node17 -->
<g id="edge21" class="edge">
<title>Node13&#45;&gt;Node17</title>
<path fill="none" stroke="#191970" d="M724.4331,-112.3733C701.6572,-103.2629 667.2656,-89.5062 641.851,-79.3404"/>
<polygon fill="#191970" stroke="#191970" points="642.8375,-75.9654 632.2528,-75.5011 640.2377,-82.4648 642.8375,-75.9654"/>
</g>
<!-- Node18 -->
<g id="node19" class="node">
<title>Node18</title>
<polygon fill="none" stroke="#bfbfbf" points="666,-56.5 666,-75.5 761,-75.5 761,-56.5 666,-56.5"/>
<text text-anchor="middle" x="713.5" y="-63.5" font-family="Helvetica,sans-Serif" font-size="10.00" fill="#000000">gandiva/arrow.h</text>
</g>
<!-- Node13&#45;&gt;Node18 -->
<g id="edge22" class="edge">
<title>Node13&#45;&gt;Node18</title>
<path fill="none" stroke="#191970" d="M742.4035,-112.2455C737.5855,-104.5367 730.7249,-93.5598 724.8968,-84.2348"/>
<polygon fill="#191970" stroke="#191970" points="727.7947,-82.2677 719.5267,-75.6427 721.8587,-85.9777 727.7947,-82.2677"/>
</g>
<!-- Node13&#45;&gt;Node19 -->
<g id="edge23" class="edge">
<title>Node13&#45;&gt;Node19</title>
<path fill="none" stroke="#191970" d="M819.1348,-112.8194C822.2974,-112.5191 825.4303,-112.2436 828.5,-112 1294.1994,-75.0467 1417.4118,-129.5352 1885.8554,-75.8555"/>
<polygon fill="#191970" stroke="#191970" points="1886.3974,-79.3162 1895.9291,-74.6906 1885.5933,-72.3626 1886.3974,-79.3162"/>
</g>
<!-- Node13&#45;&gt;Node20 -->
<g id="edge24" class="edge">
<title>Node13&#45;&gt;Node20</title>
<path fill="none" stroke="#191970" d="M819.1458,-112.945C822.3054,-112.6108 825.4347,-112.2937 828.5,-112 1064.2272,-89.4139 1126.7547,-98.1199 1366.6755,-76.0279"/>
<polygon fill="#191970" stroke="#191970" points="1367.1223,-79.5016 1376.7556,-75.0913 1366.4746,-72.5316 1367.1223,-79.5016"/>
</g>
<!-- Node21 -->
<g id="node22" class="node">
<title>Node21</title>
<polygon fill="none" stroke="#bfbfbf" points="779.5,-56.5 779.5,-75.5 871.5,-75.5 871.5,-56.5 779.5,-56.5"/>
<text text-anchor="middle" x="825.5" y="-63.5" font-family="Helvetica,sans-Serif" font-size="10.00" fill="#000000">gandiva/node.h</text>
</g>
<!-- Node13&#45;&gt;Node21 -->
<g id="edge25" class="edge">
<title>Node13&#45;&gt;Node21</title>
<path fill="none" stroke="#191970" d="M761.9124,-112.2455C773.5057,-103.814 790.4748,-91.4729 803.9678,-81.6598"/>
<polygon fill="#191970" stroke="#191970" points="806.2126,-84.355 812.2413,-75.6427 802.0953,-78.6938 806.2126,-84.355"/>
</g>
<!-- Node22 -->
<g id="node23" class="node">
<title>Node22</title>
<polygon fill="none" stroke="#bfbfbf" points="890,-56.5 890,-75.5 979,-75.5 979,-56.5 890,-56.5"/>
<text text-anchor="middle" x="934.5" y="-63.5" font-family="Helvetica,sans-Serif" font-size="10.00" fill="#000000">gandiva/filter.h</text>
</g>
<!-- Node13&#45;&gt;Node22 -->
<g id="edge26" class="edge">
<title>Node13&#45;&gt;Node22</title>
<path fill="none" stroke="#191970" d="M780.4745,-112.3733C811.6713,-102.9807 859.271,-88.6496 893.2932,-78.4064"/>
<polygon fill="#191970" stroke="#191970" points="894.3763,-81.7355 902.9427,-75.5011 892.3582,-75.0327 894.3763,-81.7355"/>
</g>
<!-- Node23 -->
<g id="node24" class="node">
<title>Node23</title>
<polygon fill="none" stroke="#bfbfbf" points="997,-56.5 997,-75.5 1048,-75.5 1048,-56.5 997,-56.5"/>
<text text-anchor="middle" x="1022.5" y="-63.5" font-family="Helvetica,sans-Serif" font-size="10.00" fill="#000000">variant</text>
</g>
<!-- Node13&#45;&gt;Node23 -->
<g id="edge27" class="edge">
<title>Node13&#45;&gt;Node23</title>
<path fill="none" stroke="#191970" d="M805.7849,-112.4373C852.1125,-104.3713 919.1998,-91.943 986.9552,-75.9634"/>
<polygon fill="#191970" stroke="#191970" points="988.0384,-79.3033 996.9544,-73.58 986.4153,-72.4941 988.0384,-79.3033"/>
</g>
<!-- Node13&#45;&gt;Node24 -->
<g id="edge28" class="edge">
<title>Node13&#45;&gt;Node24</title>
<path fill="none" stroke="#191970" d="M677.8441,-117.3374C565.4398,-109.6093 349.8088,-93.439 255.7487,-75.7937"/>
<polygon fill="#191970" stroke="#191970" points="256.1842,-72.3121 245.6949,-73.8035 254.8248,-79.1788 256.1842,-72.3121"/>
</g>
<!-- Node13&#45;&gt;Node25 -->
<g id="edge29" class="edge">
<title>Node13&#45;&gt;Node25</title>
<path fill="none" stroke="#191970" d="M819.1356,-112.8295C822.298,-112.5265 825.4306,-112.2476 828.5,-112 1260.5286,-77.1467 1376.7178,-139.0132 1809.2241,-75.8677"/>
<polygon fill="#191970" stroke="#191970" points="1809.7918,-79.3219 1819.1746,-74.4011 1808.7711,-72.3968 1809.7918,-79.3219"/>
</g>
<!-- Node26&#45;&gt;Node19 -->
<g id="edge31" class="edge">
<title>Node26&#45;&gt;Node19</title>
<path fill="none" stroke="#191970" d="M1888.6028,-112.2455C1897.0028,-104.1352 1909.1494,-92.4075 1919.1084,-82.7919"/>
<polygon fill="#191970" stroke="#191970" points="1921.75,-85.1066 1926.5129,-75.6427 1916.8878,-80.0707 1921.75,-85.1066"/>
</g>
<!-- Node27&#45;&gt;Node15 -->
<g id="edge33" class="edge">
<title>Node27&#45;&gt;Node15</title>
<path fill="none" stroke="#191970" d="M1557.8158,-112.2455C1563.7179,-104.3761 1572.1742,-93.101 1579.2594,-83.6542"/>
<polygon fill="#191970" stroke="#191970" points="1582.068,-85.7427 1585.268,-75.6427 1576.4679,-81.5427 1582.068,-85.7427"/>
</g>
<!-- Node33&#45;&gt;Node11 -->
<g id="edge42" class="edge">
<title>Node33&#45;&gt;Node11</title>
<path fill="none" stroke="#191970" d="M134.3321,-168.2455C137.2659,-160.7776 141.4047,-150.2427 144.991,-141.1137"/>
<polygon fill="#191970" stroke="#191970" points="148.3129,-142.23 148.7118,-131.6427 141.7976,-139.6704 148.3129,-142.23"/>
</g>
<!-- Node33&#45;&gt;Node12 -->
<g id="edge44" class="edge">
<title>Node33&#45;&gt;Node12</title>
<path fill="none" stroke="#191970" d="M119.5049,-168.3832C110.1462,-159.688 96.918,-146.1184 88.5,-132 79.8701,-117.5262 73.8348,-99.3331 70.1186,-85.7154"/>
<polygon fill="#191970" stroke="#191970" points="73.4877,-84.7621 67.6303,-75.9337 66.7037,-86.4879 73.4877,-84.7621"/>
</g>
<!-- Node33&#45;&gt;Node34 -->
<g id="edge43" class="edge">
<title>Node33&#45;&gt;Node34</title>
<path fill="none" stroke="#191970" d="M111.3395,-168.2455C93.9889,-159.4125 68.2099,-146.2887 48.5417,-136.2758"/>
<polygon fill="#191970" stroke="#191970" points="49.9405,-133.0605 39.441,-131.6427 46.7647,-139.2986 49.9405,-133.0605"/>
</g>
<!-- Node35&#45;&gt;Node10 -->
<g id="edge47" class="edge">
<title>Node35&#45;&gt;Node10</title>
<path fill="none" stroke="#191970" d="M442.7305,-168.3897C432.6277,-159.2588 417.2132,-145.0269 404.5,-132 388.8545,-115.9685 371.8997,-96.7981 360.1977,-83.2596"/>
<polygon fill="#191970" stroke="#191970" points="362.8202,-80.9411 353.6491,-75.6361 357.5103,-85.5023 362.8202,-80.9411"/>
</g>
</g>
</svg>
