<?xml version="1.0" encoding="UTF-8" standalone="no"?>
<!DOCTYPE svg PUBLIC "-//W3C//DTD SVG 1.1//EN"
 "http://www.w3.org/Graphics/SVG/1.1/DTD/svg11.dtd">
<!-- Generated by graphviz version 2.40.1 (20161225.0304)
 -->
<!-- Title: /home/travis/build/AliceO2Group/AliceO2/Framework/Core/src/FairOptionsRetriever.cxx Pages: 1 -->
<!--zoomable 307 -->
<svg id="main" version="1.1" xmlns="http://www.w3.org/2000/svg" xmlns:xlink="http://www.w3.org/1999/xlink" xml:space="preserve" onload="init(evt)">
<style type="text/css"><![CDATA[
.edge:hover path { stroke: red; }
.edge:hover polygon { stroke: red; fill: red; }
]]></style>
<script type="text/javascript"><![CDATA[
var edges = document.getElementsByTagName('g');
if (edges && edges.length) {
  for (var i=0;i<edges.length;i++) {
    if (edges[i].id.substr(0,4)=='edge') {
      edges[i].setAttribute('class','edge');
    }
  }
}
]]></script>
        <defs>
                <circle id="rim" cx="0" cy="0" r="7"/>
                <circle id="rim2" cx="0" cy="0" r="3.5"/>
                <g id="zoomPlus">
                        <use xlink:href="#rim" fill="#404040">
                                <set attributeName="fill" to="#808080" begin="zoomplus.mouseover" end="zoomplus.mouseout"/>
                        </use>
                        <path d="M-4,0h8M0,-4v8" fill="none" stroke="white" stroke-width="1.5" pointer-events="none"/>
                </g>
                <g id="zoomMin">
                        <use xlink:href="#rim" fill="#404040">
                                <set attributeName="fill" to="#808080" begin="zoomminus.mouseover" end="zoomminus.mouseout"/>
                        </use>
                        <path d="M-4,0h8" fill="none" stroke="white" stroke-width="1.5" pointer-events="none"/>
                </g>
                <g id="dirArrow">
                        <path fill="none" stroke="white" stroke-width="1.5" d="M0,-3.0v7 M-2.5,-0.5L0,-3.0L2.5,-0.5"/>
                </g>
               <g id="resetDef">
                       <use xlink:href="#rim2" fill="#404040">
                               <set attributeName="fill" to="#808080" begin="reset.mouseover" end="reset.mouseout"/>
                       </use>
               </g>
        </defs>

<script type="text/javascript">
var viewWidth = 891;
var viewHeight = 307;
var sectionId = 'dynsection-0';
</script>
<script xlink:href="../../svgpan.js"/>
<svg id="graph" class="graph">
<g id="viewport">
<title>/home/travis/build/AliceO2Group/AliceO2/Framework/Core/src/FairOptionsRetriever.cxx</title>
<!-- Node0 -->
<g id="node1" class="node">
<title>Node0</title>
<polygon fill="#bfbfbf" stroke="#000000" points="305.2985,-246.5 305.2985,-298.5 479.2985,-298.5 479.2985,-246.5 305.2985,-246.5"/>
<text text-anchor="start" x="313.2985" y="-286.5" font-family="Helvetica,sans-Serif" font-size="10.00" fill="#000000">/home/travis/build</text>
<text text-anchor="start" x="313.2985" y="-275.5" font-family="Helvetica,sans-Serif" font-size="10.00" fill="#000000">/AliceO2Group/AliceO2</text>
<text text-anchor="start" x="313.2985" y="-264.5" font-family="Helvetica,sans-Serif" font-size="10.00" fill="#000000">/Framework/Core/src/FairOptions</text>
<text text-anchor="middle" x="392.2985" y="-253.5" font-family="Helvetica,sans-Serif" font-size="10.00" fill="#000000">Retriever.cxx</text>
</g>
<!-- Node1 -->
<g id="node2" class="node">
<title>Node1</title>
<g id="a_node2"><a xlink:href="../../de/de3/FairOptionsRetriever_8h.html" target="_top" xlink:title="Framework/FairOptionsRetriever.h">
<polygon fill="none" stroke="#000000" points="124.7985,-190.5 124.7985,-209.5 305.7985,-209.5 305.7985,-190.5 124.7985,-190.5"/>
<text text-anchor="middle" x="215.2985" y="-197.5" font-family="Helvetica,sans-Serif" font-size="10.00" fill="#000000">Framework/FairOptionsRetriever.h</text>
</a>
</g>
</g>
<!-- Node0&#45;&gt;Node1 -->
<g id="edge1" class="edge">
<title>Node0&#45;&gt;Node1</title>
<path fill="none" stroke="#191970" d="M328.3974,-246.3258C301.1399,-235.161 270.5006,-222.6111 247.9945,-213.3924"/>
<polygon fill="#191970" stroke="#191970" points="249.1551,-210.0856 238.5746,-209.534 246.5017,-216.5633 249.1551,-210.0856"/>
</g>
<!-- Node3 -->
<g id="node4" class="node">
<title>Node3</title>
<polygon fill="none" stroke="#bfbfbf" points="271.7985,-56.5 271.7985,-86.5 384.7985,-86.5 384.7985,-56.5 271.7985,-56.5"/>
<text text-anchor="start" x="279.7985" y="-74.5" font-family="Helvetica,sans-Serif" font-size="10.00" fill="#000000">boost/property_tree</text>
<text text-anchor="middle" x="328.2985" y="-63.5" font-family="Helvetica,sans-Serif" font-size="10.00" fill="#000000">/ptree.hpp</text>
</g>
<!-- Node0&#45;&gt;Node3 -->
<g id="edge28" class="edge">
<title>Node0&#45;&gt;Node3</title>
<path fill="none" stroke="#191970" d="M381.0889,-246.2739C376.5365,-235.1823 371.396,-222.0613 367.2985,-210 353.9744,-170.7801 341.5488,-124.2608 334.4477,-96.3523"/>
<polygon fill="#191970" stroke="#191970" points="337.8331,-95.4633 331.9961,-86.6214 331.0453,-97.1735 337.8331,-95.4633"/>
</g>
<!-- Node4 -->
<g id="node5" class="node">
<title>Node4</title>
<polygon fill="none" stroke="#bfbfbf" points="180.2985,-.5 180.2985,-19.5 224.2985,-19.5 224.2985,-.5 180.2985,-.5"/>
<text text-anchor="middle" x="202.2985" y="-7.5" font-family="Helvetica,sans-Serif" font-size="10.00" fill="#000000">string</text>
</g>
<!-- Node0&#45;&gt;Node4 -->
<g id="edge29" class="edge">
<title>Node0&#45;&gt;Node4</title>
<path fill="none" stroke="#191970" d="M305.1274,-262.7542C225.4599,-252.5022 114.6865,-234.4535 78.2985,-210 53.5391,-193.3612 55.825,-180.0549 41.2985,-154 19.0525,-114.0997 -17.9918,-91.8688 10.2985,-56 29.827,-31.2401 120.4699,-18.309 169.9124,-12.9937"/>
<polygon fill="#191970" stroke="#191970" points="170.4977,-16.452 180.0861,-11.945 169.7799,-9.4889 170.4977,-16.452"/>
</g>
<!-- Node5 -->
<g id="node6" class="node">
<title>Node5</title>
<polygon fill="none" stroke="#bfbfbf" points="19.7985,-62 19.7985,-81 66.7985,-81 66.7985,-62 19.7985,-62"/>
<text text-anchor="middle" x="43.2985" y="-69" font-family="Helvetica,sans-Serif" font-size="10.00" fill="#000000">vector</text>
</g>
<!-- Node0&#45;&gt;Node5 -->
<g id="edge30" class="edge">
<title>Node0&#45;&gt;Node5</title>
<path fill="none" stroke="#191970" d="M305.294,-264.4881C248.859,-256.5411 175.1549,-240.8429 116.2985,-210 83.7002,-192.9173 72.4979,-186.5369 55.2985,-154 44.9225,-134.3714 42.6727,-108.6441 42.536,-91.1747"/>
<polygon fill="#191970" stroke="#191970" points="46.0376,-91.0855 42.6871,-81.0344 39.0384,-90.9811 46.0376,-91.0855"/>
</g>
<!-- Node6 -->
<g id="node7" class="node">
<title>Node6</title>
<g id="a_node7"><a xlink:href="../../d0/d1c/ConfigParamSpec_8h.html" target="_top" xlink:title="Framework/ConfigParamSpec.h">
<polygon fill="none" stroke="#000000" points="560.7985,-129 560.7985,-148 727.7985,-148 727.7985,-129 560.7985,-129"/>
<text text-anchor="middle" x="644.2985" y="-136" font-family="Helvetica,sans-Serif" font-size="10.00" fill="#000000">Framework/ConfigParamSpec.h</text>
</a>
</g>
</g>
<!-- Node0&#45;&gt;Node6 -->
<g id="edge21" class="edge">
<title>Node0&#45;&gt;Node6</title>
<path fill="none" stroke="#191970" d="M441.6909,-246.3818C462.8291,-235.193 487.782,-221.9702 510.2985,-210 547.5792,-190.1808 590.6468,-167.1824 617.6773,-152.7354"/>
<polygon fill="#191970" stroke="#191970" points="619.3647,-155.8021 626.5337,-148.0011 616.0647,-149.6288 619.3647,-155.8021"/>
</g>
<!-- Node16 -->
<g id="node17" class="node">
<title>Node16</title>
<g id="a_node17"><a xlink:href="../../da/d3e/PropertyTreeHelpers_8h.html" target="_top" xlink:title="PropertyTreeHelpers.h">
<polygon fill="none" stroke="#000000" points="375.7985,-190.5 375.7985,-209.5 500.7985,-209.5 500.7985,-190.5 375.7985,-190.5"/>
<text text-anchor="middle" x="438.2985" y="-197.5" font-family="Helvetica,sans-Serif" font-size="10.00" fill="#000000">PropertyTreeHelpers.h</text>
</a>
</g>
</g>
<!-- Node0&#45;&gt;Node16 -->
<g id="edge22" class="edge">
<title>Node0&#45;&gt;Node16</title>
<path fill="none" stroke="#191970" d="M408.9055,-246.3258C414.814,-237.0135 421.334,-226.7375 426.7289,-218.2347"/>
<polygon fill="#191970" stroke="#191970" points="429.8472,-219.8529 432.2493,-209.534 423.9365,-216.1027 429.8472,-219.8529"/>
</g>
<!-- Node18 -->
<g id="node19" class="node">
<title>Node18</title>
<polygon fill="none" stroke="#bfbfbf" points="557.7985,-190.5 557.7985,-209.5 714.7985,-209.5 714.7985,-190.5 557.7985,-190.5"/>
<text text-anchor="middle" x="636.2985" y="-197.5" font-family="Helvetica,sans-Serif" font-size="10.00" fill="#000000">options/FairMQProgOptions.h</text>
</g>
<!-- Node0&#45;&gt;Node18 -->
<g id="edge26" class="edge">
<title>Node0&#45;&gt;Node18</title>
<path fill="none" stroke="#191970" d="M479.3547,-246.6329C518.5031,-235.0007 562.8942,-221.8107 594.4511,-212.4342"/>
<polygon fill="#191970" stroke="#191970" points="595.634,-215.734 604.2229,-209.5307 593.6402,-209.0239 595.634,-215.734"/>
</g>
<!-- Node19 -->
<g id="node20" class="node">
<title>Node19</title>
<polygon fill="none" stroke="#bfbfbf" points="733.2985,-190.5 733.2985,-209.5 883.2985,-209.5 883.2985,-190.5 733.2985,-190.5"/>
<text text-anchor="middle" x="808.2985" y="-197.5" font-family="Helvetica,sans-Serif" font-size="10.00" fill="#000000">boost/program_options.hpp</text>
</g>
<!-- Node0&#45;&gt;Node19 -->
<g id="edge27" class="edge">
<title>Node0&#45;&gt;Node19</title>
<path fill="none" stroke="#191970" d="M479.5057,-257.3016C558.3035,-243.5688 672.4958,-223.6675 743.4753,-211.2973"/>
<polygon fill="#191970" stroke="#191970" points="744.3742,-214.6935 753.6248,-209.5285 743.1723,-207.7974 744.3742,-214.6935"/>
</g>
<!-- Node2 -->
<g id="node3" class="node">
<title>Node2</title>
<g id="a_node3"><a xlink:href="../../df/d72/ParamRetriever_8h.html" target="_top" xlink:title="Framework/ParamRetriever.h">
<polygon fill="none" stroke="#000000" points="123.7985,-129 123.7985,-148 280.7985,-148 280.7985,-129 123.7985,-129"/>
<text text-anchor="middle" x="202.2985" y="-136" font-family="Helvetica,sans-Serif" font-size="10.00" fill="#000000">Framework/ParamRetriever.h</text>
</a>
</g>
</g>
<!-- Node1&#45;&gt;Node2 -->
<g id="edge2" class="edge">
<title>Node1&#45;&gt;Node2</title>
<path fill="none" stroke="#191970" d="M213.2672,-190.3906C211.4462,-181.776 208.7183,-168.8708 206.4386,-158.0858"/>
<polygon fill="#191970" stroke="#191970" points="209.8509,-157.3048 204.3584,-148.2449 203.0022,-158.7525 209.8509,-157.3048"/>
</g>
<!-- Node1&#45;&gt;Node3 -->
<g id="edge18" class="edge">
<title>Node1&#45;&gt;Node3</title>
<path fill="none" stroke="#191970" d="M238.1028,-190.4071C254.3958,-182.5981 275.8965,-170.2188 290.2985,-154 305.0906,-137.3419 315.1291,-113.9449 321.1558,-96.3198"/>
<polygon fill="#191970" stroke="#191970" points="324.5185,-97.2953 324.2462,-86.704 317.8542,-95.1534 324.5185,-97.2953"/>
</g>
<!-- Node1&#45;&gt;Node4 -->
<g id="edge19" class="edge">
<title>Node1&#45;&gt;Node4</title>
<path fill="none" stroke="#191970" d="M168.7576,-190.4351C148.7244,-183.7628 127.206,-172.5844 115.2985,-154 85.8095,-107.9758 145.9262,-52.2889 180.4003,-25.6612"/>
<polygon fill="#191970" stroke="#191970" points="182.6517,-28.3475 188.5423,-19.5411 178.4457,-22.7519 182.6517,-28.3475"/>
</g>
<!-- Node1&#45;&gt;Node5 -->
<g id="edge20" class="edge">
<title>Node1&#45;&gt;Node5</title>
<path fill="none" stroke="#191970" d="M155.877,-190.4209C130.4433,-183.7832 101.9185,-172.6366 81.2985,-154 62.7172,-137.206 52.5653,-109.4945 47.5356,-90.8769"/>
<polygon fill="#191970" stroke="#191970" points="50.9232,-89.9952 45.1411,-81.1172 44.1248,-91.6632 50.9232,-89.9952"/>
</g>
<!-- Node1&#45;&gt;Node6 -->
<g id="edge6" class="edge">
<title>Node1&#45;&gt;Node6</title>
<path fill="none" stroke="#191970" d="M290.0177,-190.4817C358.372,-181.6125 462.255,-167.7272 552.2985,-154 561.0239,-152.6698 570.2033,-151.2036 579.2479,-149.7196"/>
<polygon fill="#191970" stroke="#191970" points="580.0773,-153.1299 589.3709,-148.0428 578.9334,-146.224 580.0773,-153.1299"/>
</g>
<!-- Node2&#45;&gt;Node3 -->
<g id="edge3" class="edge">
<title>Node2&#45;&gt;Node3</title>
<path fill="none" stroke="#191970" d="M220.3512,-128.9005C238.7335,-119.1258 267.7686,-103.6865 291.098,-91.2812"/>
<polygon fill="#191970" stroke="#191970" points="292.8625,-94.3071 300.0486,-86.5218 289.576,-88.1265 292.8625,-94.3071"/>
</g>
<!-- Node2&#45;&gt;Node4 -->
<g id="edge4" class="edge">
<title>Node2&#45;&gt;Node4</title>
<path fill="none" stroke="#191970" d="M202.2985,-128.8416C202.2985,-107.9114 202.2985,-58.004 202.2985,-29.9762"/>
<polygon fill="#191970" stroke="#191970" points="205.7986,-29.7704 202.2985,-19.7705 198.7986,-29.7705 205.7986,-29.7704"/>
</g>
<!-- Node2&#45;&gt;Node5 -->
<g id="edge5" class="edge">
<title>Node2&#45;&gt;Node5</title>
<path fill="none" stroke="#191970" d="M179.5176,-128.9005C152.2435,-117.4077 106.3853,-98.0838 75.4971,-85.068"/>
<polygon fill="#191970" stroke="#191970" points="76.6114,-81.7395 66.037,-81.0817 73.8932,-88.1902 76.6114,-81.7395"/>
</g>
<!-- Node6&#45;&gt;Node4 -->
<g id="edge17" class="edge">
<title>Node6&#45;&gt;Node4</title>
<path fill="none" stroke="#191970" d="M617.8847,-128.9735C572.5226,-112.7959 476.7298,-79.4314 394.2985,-56 338.5448,-40.1518 272.6722,-25.1696 234.3759,-16.8243"/>
<polygon fill="#191970" stroke="#191970" points="234.8511,-13.3462 224.337,-14.6513 233.3702,-20.1877 234.8511,-13.3462"/>
</g>
<!-- Node7 -->
<g id="node8" class="node">
<title>Node7</title>
<g id="a_node8"><a xlink:href="../../de/d56/Variant_8h.html" target="_top" xlink:title="Framework/Variant.h">
<polygon fill="none" stroke="#000000" points="530.7985,-62 530.7985,-81 647.7985,-81 647.7985,-62 530.7985,-62"/>
<text text-anchor="middle" x="589.2985" y="-69" font-family="Helvetica,sans-Serif" font-size="10.00" fill="#000000">Framework/Variant.h</text>
</a>
</g>
</g>
<!-- Node6&#45;&gt;Node7 -->
<g id="edge7" class="edge">
<title>Node6&#45;&gt;Node7</title>
<path fill="none" stroke="#191970" d="M636.4183,-128.9005C627.9232,-118.552 614.2161,-101.8542 603.7704,-89.1295"/>
<polygon fill="#191970" stroke="#191970" points="606.2142,-86.5902 597.164,-81.0817 600.8037,-91.0317 606.2142,-86.5902"/>
</g>
<!-- Node7&#45;&gt;Node4 -->
<g id="edge16" class="edge">
<title>Node7&#45;&gt;Node4</title>
<path fill="none" stroke="#191970" d="M530.7513,-62.8878C464.3643,-53.0132 352.9221,-36.1069 257.2985,-20 249.8635,-18.7477 241.876,-17.3345 234.356,-15.9734"/>
<polygon fill="#191970" stroke="#191970" points="234.9534,-12.5247 224.4871,-14.1697 233.6949,-19.4106 234.9534,-12.5247"/>
</g>
<!-- Node8 -->
<g id="node9" class="node">
<title>Node8</title>
<polygon fill="none" stroke="#bfbfbf" points="674.7985,-.5 674.7985,-19.5 743.7985,-19.5 743.7985,-.5 674.7985,-.5"/>
<text text-anchor="middle" x="709.2985" y="-7.5" font-family="Helvetica,sans-Serif" font-size="10.00" fill="#000000">type_traits</text>
</g>
<!-- Node7&#45;&gt;Node8 -->
<g id="edge8" class="edge">
<title>Node7&#45;&gt;Node8</title>
<path fill="none" stroke="#191970" d="M608.0485,-61.8906C627.7744,-51.7811 659.0297,-35.7628 681.5985,-24.1962"/>
<polygon fill="#191970" stroke="#191970" points="683.3771,-27.2176 690.6801,-19.5419 680.1845,-20.9881 683.3771,-27.2176"/>
</g>
<!-- Node9 -->
<g id="node10" class="node">
<title>Node9</title>
<polygon fill="none" stroke="#bfbfbf" points="762.2985,-.5 762.2985,-19.5 812.2985,-19.5 812.2985,-.5 762.2985,-.5"/>
<text text-anchor="middle" x="787.2985" y="-7.5" font-family="Helvetica,sans-Serif" font-size="10.00" fill="#000000">cstring</text>
</g>
<!-- Node7&#45;&gt;Node9 -->
<g id="edge9" class="edge">
<title>Node7&#45;&gt;Node9</title>
<path fill="none" stroke="#191970" d="M620.236,-61.8906C656.0263,-50.7739 714.8192,-32.5125 752.2634,-20.8821"/>
<polygon fill="#191970" stroke="#191970" points="753.7099,-24.0978 762.2216,-17.789 751.6335,-17.4129 753.7099,-24.0978"/>
</g>
<!-- Node10 -->
<g id="node11" class="node">
<title>Node10</title>
<polygon fill="none" stroke="#bfbfbf" points="830.2985,-.5 830.2985,-19.5 880.2985,-19.5 880.2985,-.5 830.2985,-.5"/>
<text text-anchor="middle" x="855.2985" y="-7.5" font-family="Helvetica,sans-Serif" font-size="10.00" fill="#000000">cstdint</text>
</g>
<!-- Node7&#45;&gt;Node10 -->
<g id="edge10" class="edge">
<title>Node7&#45;&gt;Node10</title>
<path fill="none" stroke="#191970" d="M636.6211,-61.9734C681.5498,-52.7096 751.1701,-37.7887 820.3448,-20.1273"/>
<polygon fill="#191970" stroke="#191970" points="821.2876,-23.4988 830.1001,-17.6174 819.5433,-16.7196 821.2876,-23.4988"/>
</g>
<!-- Node11 -->
<g id="node12" class="node">
<title>Node11</title>
<polygon fill="none" stroke="#bfbfbf" points="265.7985,-.5 265.7985,-19.5 314.7985,-19.5 314.7985,-.5 265.7985,-.5"/>
<text text-anchor="middle" x="290.2985" y="-7.5" font-family="Helvetica,sans-Serif" font-size="10.00" fill="#000000">cstdlib</text>
</g>
<!-- Node7&#45;&gt;Node11 -->
<g id="edge11" class="edge">
<title>Node7&#45;&gt;Node11</title>
<path fill="none" stroke="#191970" d="M532.099,-61.9875C480.4101,-53.0291 402.0827,-38.5563 324.9906,-19.9939"/>
<polygon fill="#191970" stroke="#191970" points="325.6518,-16.5528 315.1079,-17.5899 323.9972,-23.3544 325.6518,-16.5528"/>
</g>
<!-- Node12 -->
<g id="node13" class="node">
<title>Node12</title>
<polygon fill="none" stroke="#bfbfbf" points="332.7985,-.5 332.7985,-19.5 397.7985,-19.5 397.7985,-.5 332.7985,-.5"/>
<text text-anchor="middle" x="365.2985" y="-7.5" font-family="Helvetica,sans-Serif" font-size="10.00" fill="#000000">stdexcept</text>
</g>
<!-- Node7&#45;&gt;Node12 -->
<g id="edge12" class="edge">
<title>Node7&#45;&gt;Node12</title>
<path fill="none" stroke="#191970" d="M554.2985,-61.8906C514.6562,-51.0067 450.0694,-33.2742 407.6266,-21.6213"/>
<polygon fill="#191970" stroke="#191970" points="408.4398,-18.2152 397.87,-18.9426 406.5865,-24.9654 408.4398,-18.2152"/>
</g>
<!-- Node13 -->
<g id="node14" class="node">
<title>Node13</title>
<polygon fill="none" stroke="#bfbfbf" points="415.7985,-.5 415.7985,-19.5 464.7985,-19.5 464.7985,-.5 415.7985,-.5"/>
<text text-anchor="middle" x="440.2985" y="-7.5" font-family="Helvetica,sans-Serif" font-size="10.00" fill="#000000">iosfwd</text>
</g>
<!-- Node7&#45;&gt;Node13 -->
<g id="edge13" class="edge">
<title>Node7&#45;&gt;Node13</title>
<path fill="none" stroke="#191970" d="M566.0172,-61.8906C540.9774,-51.5554 500.9759,-35.0447 472.8324,-23.4284"/>
<polygon fill="#191970" stroke="#191970" points="473.9952,-20.122 463.4162,-19.5419 471.3244,-26.5925 473.9952,-20.122"/>
</g>
<!-- Node14 -->
<g id="node15" class="node">
<title>Node14</title>
<polygon fill="none" stroke="#bfbfbf" points="482.7985,-.5 482.7985,-19.5 565.7985,-19.5 565.7985,-.5 482.7985,-.5"/>
<text text-anchor="middle" x="524.2985" y="-7.5" font-family="Helvetica,sans-Serif" font-size="10.00" fill="#000000">initializer_list</text>
</g>
<!-- Node7&#45;&gt;Node14 -->
<g id="edge14" class="edge">
<title>Node7&#45;&gt;Node14</title>
<path fill="none" stroke="#191970" d="M579.1422,-61.8906C569.2786,-52.5581 554.0929,-38.1902 542.1998,-26.9374"/>
<polygon fill="#191970" stroke="#191970" points="544.2674,-24.0753 534.5979,-19.7449 539.4564,-29.1601 544.2674,-24.0753"/>
</g>
<!-- Node15 -->
<g id="node16" class="node">
<title>Node15</title>
<polygon fill="none" stroke="#bfbfbf" points="583.7985,-.5 583.7985,-19.5 656.7985,-19.5 656.7985,-.5 583.7985,-.5"/>
<text text-anchor="middle" x="620.2985" y="-7.5" font-family="Helvetica,sans-Serif" font-size="10.00" fill="#000000">string_view</text>
</g>
<!-- Node7&#45;&gt;Node15 -->
<g id="edge15" class="edge">
<title>Node7&#45;&gt;Node15</title>
<path fill="none" stroke="#191970" d="M594.1422,-61.8906C598.575,-53.0965 605.2616,-39.8312 610.7643,-28.9145"/>
<polygon fill="#191970" stroke="#191970" points="614.0106,-30.25 615.3864,-19.7449 607.7598,-27.0992 614.0106,-30.25"/>
</g>
<!-- Node16&#45;&gt;Node3 -->
<g id="edge24" class="edge">
<title>Node16&#45;&gt;Node3</title>
<path fill="none" stroke="#191970" d="M430.0306,-190.3416C412.7499,-170.1547 372.3944,-123.012 348.0237,-94.5427"/>
<polygon fill="#191970" stroke="#191970" points="350.4735,-92.0223 341.3115,-86.7016 345.1557,-96.5745 350.4735,-92.0223"/>
</g>
<!-- Node16&#45;&gt;Node6 -->
<g id="edge23" class="edge">
<title>Node16&#45;&gt;Node6</title>
<path fill="none" stroke="#191970" d="M470.486,-190.3906C506.0118,-179.7846 563.3211,-162.6753 602.3426,-151.0257"/>
<polygon fill="#191970" stroke="#191970" points="603.7562,-154.2564 612.337,-148.0419 601.7536,-147.5489 603.7562,-154.2564"/>
</g>
<!-- Node17 -->
<g id="node18" class="node">
<title>Node17</title>
<polygon fill="none" stroke="#bfbfbf" points="413.7985,-123.5 413.7985,-153.5 542.7985,-153.5 542.7985,-123.5 413.7985,-123.5"/>
<text text-anchor="start" x="421.7985" y="-141.5" font-family="Helvetica,sans-Serif" font-size="10.00" fill="#000000">boost/program_options</text>
<text text-anchor="middle" x="478.2985" y="-130.5" font-family="Helvetica,sans-Serif" font-size="10.00" fill="#000000">/variables_map.hpp</text>
</g>
<!-- Node16&#45;&gt;Node17 -->
<g id="edge25" class="edge">
<title>Node16&#45;&gt;Node17</title>
<path fill="none" stroke="#191970" d="M444.5485,-190.3906C449.4607,-182.838 456.5179,-171.9876 462.9103,-162.1593"/>
<polygon fill="#191970" stroke="#191970" points="465.9951,-163.8358 468.5134,-153.5446 460.127,-160.0192 465.9951,-163.8358"/>
</g>
</g>
</svg>
        <g id="navigator" transform="translate(0 0)" fill="#404254">
                <rect fill="#f2f5e9" fill-opacity="0.5" stroke="#606060" stroke-width=".5" x="0" y="0" width="60" height="60"/>
                <use id="zoomplus" xlink:href="#zoomPlus" x="17" y="9" onmousedown="handleZoom(evt,'in')"/>
                <use id="zoomminus" xlink:href="#zoomMin" x="42" y="9" onmousedown="handleZoom(evt,'out')"/>
                <use id="reset" xlink:href="#resetDef" x="30" y="36" onmousedown="handleReset()"/>
                <g id="arrowUp" xlink:href="#dirArrow" transform="translate(30 24)" onmousedown="handlePan(0,-1)">
                  <use xlink:href="#rim" fill="#404040">
                        <set attributeName="fill" to="#808080" begin="arrowUp.mouseover" end="arrowUp.mouseout"/>
                  </use>
                  <path fill="none" stroke="white" stroke-width="1.5" d="M0,-3.0v7 M-2.5,-0.5L0,-3.0L2.5,-0.5"/>
                </g>
                <g id="arrowRight" xlink:href="#dirArrow" transform="rotate(90) translate(36 -43)" onmousedown="handlePan(1,0)">
                  <use xlink:href="#rim" fill="#404040">
                        <set attributeName="fill" to="#808080" begin="arrowRight.mouseover" end="arrowRight.mouseout"/>
                  </use>
                  <path fill="none" stroke="white" stroke-width="1.5" d="M0,-3.0v7 M-2.5,-0.5L0,-3.0L2.5,-0.5"/>
                </g>
                <g id="arrowDown" xlink:href="#dirArrow" transform="rotate(180) translate(-30 -48)" onmousedown="handlePan(0,1)">
                  <use xlink:href="#rim" fill="#404040">
                        <set attributeName="fill" to="#808080" begin="arrowDown.mouseover" end="arrowDown.mouseout"/>
                  </use>
                  <path fill="none" stroke="white" stroke-width="1.5" d="M0,-3.0v7 M-2.5,-0.5L0,-3.0L2.5,-0.5"/>
                </g>
                <g id="arrowLeft" xlink:href="#dirArrow" transform="rotate(270) translate(-36 17)" onmousedown="handlePan(-1,0)">
                  <use xlink:href="#rim" fill="#404040">
                        <set attributeName="fill" to="#808080" begin="arrowLeft.mouseover" end="arrowLeft.mouseout"/>
                  </use>
                  <path fill="none" stroke="white" stroke-width="1.5" d="M0,-3.0v7 M-2.5,-0.5L0,-3.0L2.5,-0.5"/>
                </g>
        </g>
        <svg viewBox="0 0 15 15" width="100%" height="30px" preserveAspectRatio="xMaxYMin meet">
         <g id="arrow_out" transform="scale(0.3 0.3)">
          <a xlink:href="FairOptionsRetriever_8cxx__incl_org.svg" target="_base">
           <rect id="button" ry="5" rx="5" y="6" x="6" height="38" width="38"
                fill="#f2f5e9" fill-opacity="0.5" stroke="#606060" stroke-width="1.0"/>
           <path id="arrow"
             d="M 11.500037,31.436501 C 11.940474,20.09759 22.043105,11.32322 32.158766,21.979434 L 37.068811,17.246167 C 37.068811,17.246167 37.088388,32 37.088388,32 L 22.160133,31.978069 C 22.160133,31.978069 26.997745,27.140456 26.997745,27.140456 C 18.528582,18.264221 13.291696,25.230495 11.500037,31.436501 z"
             style="fill:#404040;"/>
          </a>
         </g>
        </svg>
</svg>
