<?xml version="1.0" encoding="UTF-8" standalone="no"?>
<!DOCTYPE svg PUBLIC "-//W3C//DTD SVG 1.1//EN"
 "http://www.w3.org/Graphics/SVG/1.1/DTD/svg11.dtd">
<!-- Generated by graphviz version 2.40.1 (20161225.0304)
 -->
<!-- Title: o2::soa::CombinationsIndexPolicyBase&lt; Ts &gt; Pages: 1 -->
<svg width="1502pt" height="741pt"
 viewBox="0.00 0.00 1501.50 741.00" xmlns="http://www.w3.org/2000/svg" xmlns:xlink="http://www.w3.org/1999/xlink">
<g id="graph0" class="graph" transform="scale(1 1) rotate(0) translate(4 737)">
<title>o2::soa::CombinationsIndexPolicyBase&lt; Ts &gt;</title>
<!-- Node0 -->
<g id="node1" class="node">
<title>Node0</title>
<polygon fill="#bfbfbf" stroke="#000000" points="692,-620.5 692,-732.5 875,-732.5 875,-620.5 692,-620.5"/>
<text text-anchor="start" x="700" y="-720.5" font-family="Helvetica,sans-Serif" font-size="10.00" fill="#000000">o2::soa::CombinationsIndex</text>
<text text-anchor="middle" x="783.5" y="-709.5" font-family="Helvetica,sans-Serif" font-size="10.00" fill="#000000">PolicyBase&lt; Ts &gt;</text>
<polyline fill="none" stroke="#000000" points="692,-702.5 875,-702.5 "/>
<text text-anchor="start" x="700" y="-690.5" font-family="Helvetica,sans-Serif" font-size="10.00" fill="#000000">+ mCurrent</text>
<text text-anchor="start" x="700" y="-679.5" font-family="Helvetica,sans-Serif" font-size="10.00" fill="#000000">+ mMaxOffset</text>
<text text-anchor="start" x="700" y="-668.5" font-family="Helvetica,sans-Serif" font-size="10.00" fill="#000000">+ mIsEnd</text>
<polyline fill="none" stroke="#000000" points="692,-661.5 875,-661.5 "/>
<text text-anchor="start" x="700" y="-649.5" font-family="Helvetica,sans-Serif" font-size="10.00" fill="#000000">+ CombinationsIndexPolicyBase()</text>
<text text-anchor="start" x="700" y="-638.5" font-family="Helvetica,sans-Serif" font-size="10.00" fill="#000000">+ moveToEnd()</text>
<text text-anchor="start" x="700" y="-627.5" font-family="Helvetica,sans-Serif" font-size="10.00" fill="#000000">+ addOne()</text>
</g>
<!-- Node1 -->
<g id="node2" class="node">
<title>Node1</title>
<g id="a_node2"><a xlink:href="../../de/dac/structo2_1_1soa_1_1CombinationsIndexPolicyBase.html" target="_top" xlink:title="{o2::soa::CombinationsIndex\lPolicyBase\&lt; T, Ts... \&gt;\n|+ mCurrent\l+ mMaxOffset\l+ mIsEnd\l|+ CombinationsIndexPolicyBase()\l+ moveToEnd()\l+ addOne()\l}">
<polygon fill="none" stroke="#000000" points="364,-460.5 364,-572.5 547,-572.5 547,-460.5 364,-460.5"/>
<text text-anchor="start" x="372" y="-560.5" font-family="Helvetica,sans-Serif" font-size="10.00" fill="#000000">o2::soa::CombinationsIndex</text>
<text text-anchor="middle" x="455.5" y="-549.5" font-family="Helvetica,sans-Serif" font-size="10.00" fill="#000000">PolicyBase&lt; T, Ts... &gt;</text>
<polyline fill="none" stroke="#000000" points="364,-542.5 547,-542.5 "/>
<text text-anchor="start" x="372" y="-530.5" font-family="Helvetica,sans-Serif" font-size="10.00" fill="#000000">+ mCurrent</text>
<text text-anchor="start" x="372" y="-519.5" font-family="Helvetica,sans-Serif" font-size="10.00" fill="#000000">+ mMaxOffset</text>
<text text-anchor="start" x="372" y="-508.5" font-family="Helvetica,sans-Serif" font-size="10.00" fill="#000000">+ mIsEnd</text>
<polyline fill="none" stroke="#000000" points="364,-501.5 547,-501.5 "/>
<text text-anchor="start" x="372" y="-489.5" font-family="Helvetica,sans-Serif" font-size="10.00" fill="#000000">+ CombinationsIndexPolicyBase()</text>
<text text-anchor="start" x="372" y="-478.5" font-family="Helvetica,sans-Serif" font-size="10.00" fill="#000000">+ moveToEnd()</text>
<text text-anchor="start" x="372" y="-467.5" font-family="Helvetica,sans-Serif" font-size="10.00" fill="#000000">+ addOne()</text>
</a>
</g>
</g>
<!-- Node0&#45;&gt;Node1 -->
<g id="edge1" class="edge">
<title>Node0&#45;&gt;Node1</title>
<path fill="none" stroke="#ffa500" d="M682.5966,-627.2788C639.4324,-606.2231 589.3878,-581.8111 547.2803,-561.2709"/>
<polygon fill="#ffa500" stroke="#ffa500" points="681.1754,-630.4797 691.6976,-631.7183 684.2444,-624.1883 681.1754,-630.4797"/>
<text text-anchor="middle" x="658" y="-594" font-family="Helvetica,sans-Serif" font-size="10.00" fill="#000000"> &lt; T, Ts... &gt;</text>
</g>
<!-- Node7 -->
<g id="node8" class="node">
<title>Node7</title>
<g id="a_node8"><a xlink:href="../../de/dac/structo2_1_1soa_1_1CombinationsIndexPolicyBase.html" target="_top" xlink:title="{o2::soa::CombinationsIndex\lPolicyBase\&lt; Ts... \&gt;\n|+ mCurrent\l+ mMaxOffset\l+ mIsEnd\l|+ CombinationsIndexPolicyBase()\l+ moveToEnd()\l+ addOne()\l}">
<polygon fill="none" stroke="#000000" points="894,-460.5 894,-572.5 1077,-572.5 1077,-460.5 894,-460.5"/>
<text text-anchor="start" x="902" y="-560.5" font-family="Helvetica,sans-Serif" font-size="10.00" fill="#000000">o2::soa::CombinationsIndex</text>
<text text-anchor="middle" x="985.5" y="-549.5" font-family="Helvetica,sans-Serif" font-size="10.00" fill="#000000">PolicyBase&lt; Ts... &gt;</text>
<polyline fill="none" stroke="#000000" points="894,-542.5 1077,-542.5 "/>
<text text-anchor="start" x="902" y="-530.5" font-family="Helvetica,sans-Serif" font-size="10.00" fill="#000000">+ mCurrent</text>
<text text-anchor="start" x="902" y="-519.5" font-family="Helvetica,sans-Serif" font-size="10.00" fill="#000000">+ mMaxOffset</text>
<text text-anchor="start" x="902" y="-508.5" font-family="Helvetica,sans-Serif" font-size="10.00" fill="#000000">+ mIsEnd</text>
<polyline fill="none" stroke="#000000" points="894,-501.5 1077,-501.5 "/>
<text text-anchor="start" x="902" y="-489.5" font-family="Helvetica,sans-Serif" font-size="10.00" fill="#000000">+ CombinationsIndexPolicyBase()</text>
<text text-anchor="start" x="902" y="-478.5" font-family="Helvetica,sans-Serif" font-size="10.00" fill="#000000">+ moveToEnd()</text>
<text text-anchor="start" x="902" y="-467.5" font-family="Helvetica,sans-Serif" font-size="10.00" fill="#000000">+ addOne()</text>
</a>
</g>
</g>
<!-- Node0&#45;&gt;Node7 -->
<g id="edge8" class="edge">
<title>Node0&#45;&gt;Node7</title>
<path fill="none" stroke="#ffa500" d="M862.304,-614.081C879.5904,-600.3888 897.7894,-585.9737 914.7372,-572.5498"/>
<polygon fill="#ffa500" stroke="#ffa500" points="860.0993,-611.3623 854.4336,-620.315 864.4457,-616.8495 860.0993,-611.3623"/>
<text text-anchor="middle" x="914" y="-594" font-family="Helvetica,sans-Serif" font-size="10.00" fill="#000000"> &lt; Ts... &gt;</text>
</g>
<!-- Node2 -->
<g id="node3" class="node">
<title>Node2</title>
<g id="a_node3"><a xlink:href="../../d3/dc5/structo2_1_1soa_1_1CombinationsBlockSameIndexPolicyBase.html" target="_top" xlink:title="{o2::soa::CombinationsBlock\lSameIndexPolicyBase\&lt; T1,\l T, Ts... \&gt;\n|+ mGroupedIndices\l+ mCurrentIndices\l+ mSlidingWindowSize\l|+ CombinationsBlockSameIndex\lPolicyBase()\l}">
<polygon fill="none" stroke="#000000" points="251,-150.5 251,-262.5 428,-262.5 428,-150.5 251,-150.5"/>
<text text-anchor="start" x="259" y="-250.5" font-family="Helvetica,sans-Serif" font-size="10.00" fill="#000000">o2::soa::CombinationsBlock</text>
<text text-anchor="start" x="259" y="-239.5" font-family="Helvetica,sans-Serif" font-size="10.00" fill="#000000">SameIndexPolicyBase&lt; T1,</text>
<text text-anchor="middle" x="339.5" y="-228.5" font-family="Helvetica,sans-Serif" font-size="10.00" fill="#000000"> T, Ts... &gt;</text>
<polyline fill="none" stroke="#000000" points="251,-221.5 428,-221.5 "/>
<text text-anchor="start" x="259" y="-209.5" font-family="Helvetica,sans-Serif" font-size="10.00" fill="#000000">+ mGroupedIndices</text>
<text text-anchor="start" x="259" y="-198.5" font-family="Helvetica,sans-Serif" font-size="10.00" fill="#000000">+ mCurrentIndices</text>
<text text-anchor="start" x="259" y="-187.5" font-family="Helvetica,sans-Serif" font-size="10.00" fill="#000000">+ mSlidingWindowSize</text>
<polyline fill="none" stroke="#000000" points="251,-180.5 428,-180.5 "/>
<text text-anchor="start" x="259" y="-168.5" font-family="Helvetica,sans-Serif" font-size="10.00" fill="#000000">+ CombinationsBlockSameIndex</text>
<text text-anchor="start" x="259" y="-157.5" font-family="Helvetica,sans-Serif" font-size="10.00" fill="#000000">PolicyBase()</text>
</a>
</g>
</g>
<!-- Node1&#45;&gt;Node2 -->
<g id="edge2" class="edge">
<title>Node1&#45;&gt;Node2</title>
<path fill="none" stroke="#191970" d="M376.9251,-452.6961C369.2929,-443.4821 362.5313,-433.5251 357.5,-423 333.4253,-372.6381 331.1708,-308.1466 333.5534,-262.6954"/>
<polygon fill="none" stroke="#191970" points="374.3104,-455.023 383.5221,-460.2571 379.585,-450.421 374.3104,-455.023"/>
</g>
<!-- Node6 -->
<g id="node7" class="node">
<title>Node6</title>
<g id="a_node7"><a xlink:href="../../d3/dc5/structo2_1_1soa_1_1CombinationsBlockSameIndexPolicyBase.html" target="_top" xlink:title="{o2::soa::CombinationsBlock\lSameIndexPolicyBase\&lt; T1,\l T, Ts \&gt;\n|+ mGroupedIndices\l+ mCurrentIndices\l+ mSlidingWindowSize\l|+ CombinationsBlockSameIndex\lPolicyBase()\l}">
<polygon fill="none" stroke="#000000" points="367,-310.5 367,-422.5 544,-422.5 544,-310.5 367,-310.5"/>
<text text-anchor="start" x="375" y="-410.5" font-family="Helvetica,sans-Serif" font-size="10.00" fill="#000000">o2::soa::CombinationsBlock</text>
<text text-anchor="start" x="375" y="-399.5" font-family="Helvetica,sans-Serif" font-size="10.00" fill="#000000">SameIndexPolicyBase&lt; T1,</text>
<text text-anchor="middle" x="455.5" y="-388.5" font-family="Helvetica,sans-Serif" font-size="10.00" fill="#000000"> T, Ts &gt;</text>
<polyline fill="none" stroke="#000000" points="367,-381.5 544,-381.5 "/>
<text text-anchor="start" x="375" y="-369.5" font-family="Helvetica,sans-Serif" font-size="10.00" fill="#000000">+ mGroupedIndices</text>
<text text-anchor="start" x="375" y="-358.5" font-family="Helvetica,sans-Serif" font-size="10.00" fill="#000000">+ mCurrentIndices</text>
<text text-anchor="start" x="375" y="-347.5" font-family="Helvetica,sans-Serif" font-size="10.00" fill="#000000">+ mSlidingWindowSize</text>
<polyline fill="none" stroke="#000000" points="367,-340.5 544,-340.5 "/>
<text text-anchor="start" x="375" y="-328.5" font-family="Helvetica,sans-Serif" font-size="10.00" fill="#000000">+ CombinationsBlockSameIndex</text>
<text text-anchor="start" x="375" y="-317.5" font-family="Helvetica,sans-Serif" font-size="10.00" fill="#000000">PolicyBase()</text>
</a>
</g>
</g>
<!-- Node1&#45;&gt;Node6 -->
<g id="edge6" class="edge">
<title>Node1&#45;&gt;Node6</title>
<path fill="none" stroke="#191970" d="M455.5,-449.9946C455.5,-440.8485 455.5,-431.5318 455.5,-422.5978"/>
<polygon fill="none" stroke="#191970" points="452.0001,-450.2187 455.5,-460.2188 459.0001,-450.2188 452.0001,-450.2187"/>
</g>
<!-- Node3 -->
<g id="node4" class="node">
<title>Node3</title>
<g id="a_node4"><a xlink:href="../../dc/d9d/structo2_1_1soa_1_1CombinationsBlockFullSameIndexPolicy.html" target="_top" xlink:title="{o2::soa::CombinationsBlock\lFullSameIndexPolicy\&lt; T1,\l T, Ts \&gt;\n|+ mBeginIndex\l|+ CombinationsBlockFullSame\lIndexPolicy()\l+ setRanges()\l+ addOne()\l}">
<polygon fill="none" stroke="#000000" points="0,-.5 0,-112.5 167,-112.5 167,-.5 0,-.5"/>
<text text-anchor="start" x="8" y="-100.5" font-family="Helvetica,sans-Serif" font-size="10.00" fill="#000000">o2::soa::CombinationsBlock</text>
<text text-anchor="start" x="8" y="-89.5" font-family="Helvetica,sans-Serif" font-size="10.00" fill="#000000">FullSameIndexPolicy&lt; T1,</text>
<text text-anchor="middle" x="83.5" y="-78.5" font-family="Helvetica,sans-Serif" font-size="10.00" fill="#000000"> T, Ts &gt;</text>
<polyline fill="none" stroke="#000000" points="0,-71.5 167,-71.5 "/>
<text text-anchor="start" x="8" y="-59.5" font-family="Helvetica,sans-Serif" font-size="10.00" fill="#000000">+ mBeginIndex</text>
<polyline fill="none" stroke="#000000" points="0,-52.5 167,-52.5 "/>
<text text-anchor="start" x="8" y="-40.5" font-family="Helvetica,sans-Serif" font-size="10.00" fill="#000000">+ CombinationsBlockFullSame</text>
<text text-anchor="start" x="8" y="-29.5" font-family="Helvetica,sans-Serif" font-size="10.00" fill="#000000">IndexPolicy()</text>
<text text-anchor="start" x="8" y="-18.5" font-family="Helvetica,sans-Serif" font-size="10.00" fill="#000000">+ setRanges()</text>
<text text-anchor="start" x="8" y="-7.5" font-family="Helvetica,sans-Serif" font-size="10.00" fill="#000000">+ addOne()</text>
</a>
</g>
</g>
<!-- Node2&#45;&gt;Node3 -->
<g id="edge3" class="edge">
<title>Node2&#45;&gt;Node3</title>
<path fill="none" stroke="#191970" d="M241.9973,-151.1024C220.3724,-138.668 197.6104,-125.4646 176.5,-113 173.4091,-111.175 170.2647,-109.3097 167.0919,-107.42"/>
<polygon fill="none" stroke="#191970" points="240.4488,-154.2492 250.8636,-156.1943 243.9349,-148.179 240.4488,-154.2492"/>
</g>
<!-- Node4 -->
<g id="node5" class="node">
<title>Node4</title>
<g id="a_node5"><a xlink:href="../../db/d74/structo2_1_1soa_1_1CombinationsBlockStrictlyUpperSameIndexPolicy.html" target="_top" xlink:title="{o2::soa::CombinationsBlock\lStrictlyUpperSameIndexPolicy\l\&lt; T1, T, Ts \&gt;\n||+ CombinationsBlockStrictly\lUpperSameIndexPolicy()\l+ setRanges()\l+ addOne()\l}">
<polygon fill="none" stroke="#000000" points="185.5,-.5 185.5,-112.5 349.5,-112.5 349.5,-.5 185.5,-.5"/>
<text text-anchor="start" x="193.5" y="-100.5" font-family="Helvetica,sans-Serif" font-size="10.00" fill="#000000">o2::soa::CombinationsBlock</text>
<text text-anchor="start" x="193.5" y="-89.5" font-family="Helvetica,sans-Serif" font-size="10.00" fill="#000000">StrictlyUpperSameIndexPolicy</text>
<text text-anchor="middle" x="267.5" y="-78.5" font-family="Helvetica,sans-Serif" font-size="10.00" fill="#000000">&lt; T1, T, Ts &gt;</text>
<polyline fill="none" stroke="#000000" points="185.5,-71.5 349.5,-71.5 "/>
<text text-anchor="middle" x="267.5" y="-59.5" font-family="Helvetica,sans-Serif" font-size="10.00" fill="#000000"> </text>
<polyline fill="none" stroke="#000000" points="185.5,-52.5 349.5,-52.5 "/>
<text text-anchor="start" x="193.5" y="-40.5" font-family="Helvetica,sans-Serif" font-size="10.00" fill="#000000">+ CombinationsBlockStrictly</text>
<text text-anchor="start" x="193.5" y="-29.5" font-family="Helvetica,sans-Serif" font-size="10.00" fill="#000000">UpperSameIndexPolicy()</text>
<text text-anchor="start" x="193.5" y="-18.5" font-family="Helvetica,sans-Serif" font-size="10.00" fill="#000000">+ setRanges()</text>
<text text-anchor="start" x="193.5" y="-7.5" font-family="Helvetica,sans-Serif" font-size="10.00" fill="#000000">+ addOne()</text>
</a>
</g>
</g>
<!-- Node2&#45;&gt;Node4 -->
<g id="edge4" class="edge">
<title>Node2&#45;&gt;Node4</title>
<path fill="none" stroke="#191970" d="M308.1434,-141.1737C303.5723,-131.6507 298.8997,-121.916 294.4269,-112.5978"/>
<polygon fill="none" stroke="#191970" points="305.0023,-142.7181 312.485,-150.2188 311.313,-139.689 305.0023,-142.7181"/>
</g>
<!-- Node5 -->
<g id="node6" class="node">
<title>Node5</title>
<g id="a_node6"><a xlink:href="../../d1/db2/structo2_1_1soa_1_1CombinationsBlockUpperSameIndexPolicy.html" target="_top" xlink:title="{o2::soa::CombinationsBlock\lUpperSameIndexPolicy\&lt; T1,\l T, Ts \&gt;\n||+ CombinationsBlockUpperSame\lIndexPolicy()\l+ setRanges()\l+ addOne()\l}">
<polygon fill="none" stroke="#000000" points="368,-.5 368,-112.5 547,-112.5 547,-.5 368,-.5"/>
<text text-anchor="start" x="376" y="-100.5" font-family="Helvetica,sans-Serif" font-size="10.00" fill="#000000">o2::soa::CombinationsBlock</text>
<text text-anchor="start" x="376" y="-89.5" font-family="Helvetica,sans-Serif" font-size="10.00" fill="#000000">UpperSameIndexPolicy&lt; T1,</text>
<text text-anchor="middle" x="457.5" y="-78.5" font-family="Helvetica,sans-Serif" font-size="10.00" fill="#000000"> T, Ts &gt;</text>
<polyline fill="none" stroke="#000000" points="368,-71.5 547,-71.5 "/>
<text text-anchor="middle" x="457.5" y="-59.5" font-family="Helvetica,sans-Serif" font-size="10.00" fill="#000000"> </text>
<polyline fill="none" stroke="#000000" points="368,-52.5 547,-52.5 "/>
<text text-anchor="start" x="376" y="-40.5" font-family="Helvetica,sans-Serif" font-size="10.00" fill="#000000">+ CombinationsBlockUpperSame</text>
<text text-anchor="start" x="376" y="-29.5" font-family="Helvetica,sans-Serif" font-size="10.00" fill="#000000">IndexPolicy()</text>
<text text-anchor="start" x="376" y="-18.5" font-family="Helvetica,sans-Serif" font-size="10.00" fill="#000000">+ setRanges()</text>
<text text-anchor="start" x="376" y="-7.5" font-family="Helvetica,sans-Serif" font-size="10.00" fill="#000000">+ addOne()</text>
</a>
</g>
</g>
<!-- Node2&#45;&gt;Node5 -->
<g id="edge5" class="edge">
<title>Node2&#45;&gt;Node5</title>
<path fill="none" stroke="#191970" d="M389.9641,-142.3507C397.7493,-132.4542 405.7371,-122.3003 413.3697,-112.5978"/>
<polygon fill="none" stroke="#191970" points="387.2066,-140.1952 383.7746,-150.2188 392.7083,-144.5232 387.2066,-140.1952"/>
</g>
<!-- Node6&#45;&gt;Node2 -->
<g id="edge7" class="edge">
<title>Node6&#45;&gt;Node2</title>
<path fill="none" stroke="#ffa500" d="M408.511,-301.6876C399.1373,-288.7583 389.3652,-275.2796 380.2233,-262.6701"/>
<polygon fill="#ffa500" stroke="#ffa500" points="405.8994,-304.0483 414.6027,-310.09 411.5667,-299.9395 405.8994,-304.0483"/>
<text text-anchor="middle" x="439" y="-284" font-family="Helvetica,sans-Serif" font-size="10.00" fill="#000000"> &lt; T1, T, Ts... &gt;</text>
</g>
<!-- Node8 -->
<g id="node9" class="node">
<title>Node8</title>
<g id="a_node9"><a xlink:href="../../d0/d11/structo2_1_1soa_1_1CombinationsBlockIndexPolicyBase.html" target="_top" xlink:title="{o2::soa::CombinationsBlock\lIndexPolicyBase\&lt; T, Ts... \&gt;\n|+ mGroupedIndices\l+ mCurrentIndices\l+ mSlidingWindowSize\l|+ CombinationsBlockIndexPolicyBase()\l}">
<polygon fill="none" stroke="#000000" points="705.5,-161.5 705.5,-251.5 915.5,-251.5 915.5,-161.5 705.5,-161.5"/>
<text text-anchor="start" x="713.5" y="-239.5" font-family="Helvetica,sans-Serif" font-size="10.00" fill="#000000">o2::soa::CombinationsBlock</text>
<text text-anchor="middle" x="810.5" y="-228.5" font-family="Helvetica,sans-Serif" font-size="10.00" fill="#000000">IndexPolicyBase&lt; T, Ts... &gt;</text>
<polyline fill="none" stroke="#000000" points="705.5,-221.5 915.5,-221.5 "/>
<text text-anchor="start" x="713.5" y="-209.5" font-family="Helvetica,sans-Serif" font-size="10.00" fill="#000000">+ mGroupedIndices</text>
<text text-anchor="start" x="713.5" y="-198.5" font-family="Helvetica,sans-Serif" font-size="10.00" fill="#000000">+ mCurrentIndices</text>
<text text-anchor="start" x="713.5" y="-187.5" font-family="Helvetica,sans-Serif" font-size="10.00" fill="#000000">+ mSlidingWindowSize</text>
<polyline fill="none" stroke="#000000" points="705.5,-180.5 915.5,-180.5 "/>
<text text-anchor="start" x="713.5" y="-168.5" font-family="Helvetica,sans-Serif" font-size="10.00" fill="#000000">+ CombinationsBlockIndexPolicyBase()</text>
</a>
</g>
</g>
<!-- Node7&#45;&gt;Node8 -->
<g id="edge9" class="edge">
<title>Node7&#45;&gt;Node8</title>
<path fill="none" stroke="#191970" d="M884.1065,-496.8525C810.1934,-480.23 719.1759,-454.1694 696.5,-423 666.9546,-382.3879 676.1674,-355.9223 696.5,-310 706.5107,-287.3902 724.1708,-267.6068 742.6453,-251.5591"/>
<polygon fill="none" stroke="#191970" points="883.4306,-500.2876 893.951,-499.034 884.9451,-493.4533 883.4306,-500.2876"/>
</g>
<!-- Node12 -->
<g id="node13" class="node">
<title>Node12</title>
<g id="a_node13"><a xlink:href="../../d0/d11/structo2_1_1soa_1_1CombinationsBlockIndexPolicyBase.html" target="_top" xlink:title="{o2::soa::CombinationsBlock\lIndexPolicyBase\&lt; T, Ts \&gt;\n|+ mGroupedIndices\l+ mCurrentIndices\l+ mSlidingWindowSize\l|+ CombinationsBlockIndexPolicyBase()\l}">
<polygon fill="none" stroke="#000000" points="705.5,-321.5 705.5,-411.5 915.5,-411.5 915.5,-321.5 705.5,-321.5"/>
<text text-anchor="start" x="713.5" y="-399.5" font-family="Helvetica,sans-Serif" font-size="10.00" fill="#000000">o2::soa::CombinationsBlock</text>
<text text-anchor="middle" x="810.5" y="-388.5" font-family="Helvetica,sans-Serif" font-size="10.00" fill="#000000">IndexPolicyBase&lt; T, Ts &gt;</text>
<polyline fill="none" stroke="#000000" points="705.5,-381.5 915.5,-381.5 "/>
<text text-anchor="start" x="713.5" y="-369.5" font-family="Helvetica,sans-Serif" font-size="10.00" fill="#000000">+ mGroupedIndices</text>
<text text-anchor="start" x="713.5" y="-358.5" font-family="Helvetica,sans-Serif" font-size="10.00" fill="#000000">+ mCurrentIndices</text>
<text text-anchor="start" x="713.5" y="-347.5" font-family="Helvetica,sans-Serif" font-size="10.00" fill="#000000">+ mSlidingWindowSize</text>
<polyline fill="none" stroke="#000000" points="705.5,-340.5 915.5,-340.5 "/>
<text text-anchor="start" x="713.5" y="-328.5" font-family="Helvetica,sans-Serif" font-size="10.00" fill="#000000">+ CombinationsBlockIndexPolicyBase()</text>
</a>
</g>
</g>
<!-- Node7&#45;&gt;Node12 -->
<g id="edge13" class="edge">
<title>Node7&#45;&gt;Node12</title>
<path fill="none" stroke="#191970" d="M911.8676,-453.3866C895.5007,-439.3578 878.4696,-424.7596 863.1439,-411.6233"/>
<polygon fill="none" stroke="#191970" points="909.9682,-456.3682 919.8386,-460.2188 914.5238,-451.0534 909.9682,-456.3682"/>
</g>
<!-- Node13 -->
<g id="node14" class="node">
<title>Node13</title>
<g id="a_node14"><a xlink:href="../../d0/db2/structo2_1_1soa_1_1CombinationsFullIndexPolicy.html" target="_top" xlink:title="{o2::soa::CombinationsFull\lIndexPolicy\&lt; Ts \&gt;\n||+ CombinationsFullIndexPolicy()\l+ addOne()\l}">
<polygon fill="none" stroke="#000000" points="933.5,-327 933.5,-406 1109.5,-406 1109.5,-327 933.5,-327"/>
<text text-anchor="start" x="941.5" y="-394" font-family="Helvetica,sans-Serif" font-size="10.00" fill="#000000">o2::soa::CombinationsFull</text>
<text text-anchor="middle" x="1021.5" y="-383" font-family="Helvetica,sans-Serif" font-size="10.00" fill="#000000">IndexPolicy&lt; Ts &gt;</text>
<polyline fill="none" stroke="#000000" points="933.5,-376 1109.5,-376 "/>
<text text-anchor="middle" x="1021.5" y="-364" font-family="Helvetica,sans-Serif" font-size="10.00" fill="#000000"> </text>
<polyline fill="none" stroke="#000000" points="933.5,-357 1109.5,-357 "/>
<text text-anchor="start" x="941.5" y="-345" font-family="Helvetica,sans-Serif" font-size="10.00" fill="#000000">+ CombinationsFullIndexPolicy()</text>
<text text-anchor="start" x="941.5" y="-334" font-family="Helvetica,sans-Serif" font-size="10.00" fill="#000000">+ addOne()</text>
</a>
</g>
</g>
<!-- Node7&#45;&gt;Node13 -->
<g id="edge15" class="edge">
<title>Node7&#45;&gt;Node13</title>
<path fill="none" stroke="#191970" d="M1001.3599,-450.4171C1004.9747,-435.3553 1008.7064,-419.8069 1011.9604,-406.2481"/>
<polygon fill="none" stroke="#191970" points="997.9379,-449.6781 999.0075,-460.2188 1004.7447,-451.3117 997.9379,-449.6781"/>
</g>
<!-- Node14 -->
<g id="node15" class="node">
<title>Node14</title>
<g id="a_node15"><a xlink:href="../../de/ddd/structo2_1_1soa_1_1CombinationsStrictlyUpperIndexPolicy.html" target="_top" xlink:title="{o2::soa::CombinationsStrictly\lUpperIndexPolicy\&lt; Ts \&gt;\n||+ CombinationsStrictlyUpper\lIndexPolicy()\l+ addOne()\l}">
<polygon fill="none" stroke="#000000" points="1127.5,-321.5 1127.5,-411.5 1287.5,-411.5 1287.5,-321.5 1127.5,-321.5"/>
<text text-anchor="start" x="1135.5" y="-399.5" font-family="Helvetica,sans-Serif" font-size="10.00" fill="#000000">o2::soa::CombinationsStrictly</text>
<text text-anchor="middle" x="1207.5" y="-388.5" font-family="Helvetica,sans-Serif" font-size="10.00" fill="#000000">UpperIndexPolicy&lt; Ts &gt;</text>
<polyline fill="none" stroke="#000000" points="1127.5,-381.5 1287.5,-381.5 "/>
<text text-anchor="middle" x="1207.5" y="-369.5" font-family="Helvetica,sans-Serif" font-size="10.00" fill="#000000"> </text>
<polyline fill="none" stroke="#000000" points="1127.5,-362.5 1287.5,-362.5 "/>
<text text-anchor="start" x="1135.5" y="-350.5" font-family="Helvetica,sans-Serif" font-size="10.00" fill="#000000">+ CombinationsStrictlyUpper</text>
<text text-anchor="start" x="1135.5" y="-339.5" font-family="Helvetica,sans-Serif" font-size="10.00" fill="#000000">IndexPolicy()</text>
<text text-anchor="start" x="1135.5" y="-328.5" font-family="Helvetica,sans-Serif" font-size="10.00" fill="#000000">+ addOne()</text>
</a>
</g>
</g>
<!-- Node7&#45;&gt;Node14 -->
<g id="edge16" class="edge">
<title>Node7&#45;&gt;Node14</title>
<path fill="none" stroke="#191970" d="M1076.9485,-454.7105C1098.3657,-440.2394 1120.7857,-425.0907 1140.8821,-411.5121"/>
<polygon fill="none" stroke="#191970" points="1074.8067,-451.9335 1068.4803,-460.4322 1078.7257,-457.7337 1074.8067,-451.9335"/>
</g>
<!-- Node15 -->
<g id="node16" class="node">
<title>Node15</title>
<g id="a_node16"><a xlink:href="../../d4/d13/structo2_1_1soa_1_1CombinationsUpperIndexPolicy.html" target="_top" xlink:title="{o2::soa::CombinationsUpper\lIndexPolicy\&lt; Ts \&gt;\n||+ CombinationsUpperIndexPolicy()\l+ addOne()\l}">
<polygon fill="none" stroke="#000000" points="1305.5,-327 1305.5,-406 1493.5,-406 1493.5,-327 1305.5,-327"/>
<text text-anchor="start" x="1313.5" y="-394" font-family="Helvetica,sans-Serif" font-size="10.00" fill="#000000">o2::soa::CombinationsUpper</text>
<text text-anchor="middle" x="1399.5" y="-383" font-family="Helvetica,sans-Serif" font-size="10.00" fill="#000000">IndexPolicy&lt; Ts &gt;</text>
<polyline fill="none" stroke="#000000" points="1305.5,-376 1493.5,-376 "/>
<text text-anchor="middle" x="1399.5" y="-364" font-family="Helvetica,sans-Serif" font-size="10.00" fill="#000000"> </text>
<polyline fill="none" stroke="#000000" points="1305.5,-357 1493.5,-357 "/>
<text text-anchor="start" x="1313.5" y="-345" font-family="Helvetica,sans-Serif" font-size="10.00" fill="#000000">+ CombinationsUpperIndexPolicy()</text>
<text text-anchor="start" x="1313.5" y="-334" font-family="Helvetica,sans-Serif" font-size="10.00" fill="#000000">+ addOne()</text>
</a>
</g>
</g>
<!-- Node7&#45;&gt;Node15 -->
<g id="edge17" class="edge">
<title>Node7&#45;&gt;Node15</title>
<path fill="none" stroke="#191970" d="M1086.824,-491.8107C1148.5515,-475.3613 1228.3868,-451.5481 1296.5,-423 1308.2564,-418.0726 1320.4117,-412.1835 1332.0703,-406.0959"/>
<polygon fill="none" stroke="#191970" points="1085.8506,-488.4477 1077.0771,-494.3871 1087.6396,-495.2153 1085.8506,-488.4477"/>
</g>
<!-- Node9 -->
<g id="node10" class="node">
<title>Node9</title>
<g id="a_node10"><a xlink:href="../../d3/d63/structo2_1_1soa_1_1CombinationsBlockFullIndexPolicy.html" target="_top" xlink:title="{o2::soa::CombinationsBlock\lFullIndexPolicy\&lt; T, Ts \&gt;\n|+ mBeginIndices\l|+ CombinationsBlockFullIndex\lPolicy()\l+ setRanges()\l+ addOne()\l}">
<polygon fill="none" stroke="#000000" points="565.5,-6 565.5,-107 731.5,-107 731.5,-6 565.5,-6"/>
<text text-anchor="start" x="573.5" y="-95" font-family="Helvetica,sans-Serif" font-size="10.00" fill="#000000">o2::soa::CombinationsBlock</text>
<text text-anchor="middle" x="648.5" y="-84" font-family="Helvetica,sans-Serif" font-size="10.00" fill="#000000">FullIndexPolicy&lt; T, Ts &gt;</text>
<polyline fill="none" stroke="#000000" points="565.5,-77 731.5,-77 "/>
<text text-anchor="start" x="573.5" y="-65" font-family="Helvetica,sans-Serif" font-size="10.00" fill="#000000">+ mBeginIndices</text>
<polyline fill="none" stroke="#000000" points="565.5,-58 731.5,-58 "/>
<text text-anchor="start" x="573.5" y="-46" font-family="Helvetica,sans-Serif" font-size="10.00" fill="#000000">+ CombinationsBlockFullIndex</text>
<text text-anchor="start" x="573.5" y="-35" font-family="Helvetica,sans-Serif" font-size="10.00" fill="#000000">Policy()</text>
<text text-anchor="start" x="573.5" y="-24" font-family="Helvetica,sans-Serif" font-size="10.00" fill="#000000">+ setRanges()</text>
<text text-anchor="start" x="573.5" y="-13" font-family="Helvetica,sans-Serif" font-size="10.00" fill="#000000">+ addOne()</text>
</a>
</g>
</g>
<!-- Node8&#45;&gt;Node9 -->
<g id="edge10" class="edge">
<title>Node8&#45;&gt;Node9</title>
<path fill="none" stroke="#191970" d="M754.4113,-154.566C737.864,-139.2445 719.7801,-122.5001 703.314,-107.2537"/>
<polygon fill="none" stroke="#191970" points="752.1791,-157.2691 761.8947,-161.4951 756.935,-152.1328 752.1791,-157.2691"/>
</g>
<!-- Node10 -->
<g id="node11" class="node">
<title>Node10</title>
<g id="a_node11"><a xlink:href="../../d6/d38/structo2_1_1soa_1_1CombinationsBlockStrictlyUpperIndexPolicy.html" target="_top" xlink:title="{o2::soa::CombinationsBlock\lStrictlyUpperIndexPolicy\l\&lt; T, Ts \&gt;\n||+ CombinationsBlockStrictly\lUpperIndexPolicy()\l+ setRanges()\l+ addOne()\l}">
<polygon fill="none" stroke="#000000" points="750,-.5 750,-112.5 907,-112.5 907,-.5 750,-.5"/>
<text text-anchor="start" x="758" y="-100.5" font-family="Helvetica,sans-Serif" font-size="10.00" fill="#000000">o2::soa::CombinationsBlock</text>
<text text-anchor="start" x="758" y="-89.5" font-family="Helvetica,sans-Serif" font-size="10.00" fill="#000000">StrictlyUpperIndexPolicy</text>
<text text-anchor="middle" x="828.5" y="-78.5" font-family="Helvetica,sans-Serif" font-size="10.00" fill="#000000">&lt; T, Ts &gt;</text>
<polyline fill="none" stroke="#000000" points="750,-71.5 907,-71.5 "/>
<text text-anchor="middle" x="828.5" y="-59.5" font-family="Helvetica,sans-Serif" font-size="10.00" fill="#000000"> </text>
<polyline fill="none" stroke="#000000" points="750,-52.5 907,-52.5 "/>
<text text-anchor="start" x="758" y="-40.5" font-family="Helvetica,sans-Serif" font-size="10.00" fill="#000000">+ CombinationsBlockStrictly</text>
<text text-anchor="start" x="758" y="-29.5" font-family="Helvetica,sans-Serif" font-size="10.00" fill="#000000">UpperIndexPolicy()</text>
<text text-anchor="start" x="758" y="-18.5" font-family="Helvetica,sans-Serif" font-size="10.00" fill="#000000">+ setRanges()</text>
<text text-anchor="start" x="758" y="-7.5" font-family="Helvetica,sans-Serif" font-size="10.00" fill="#000000">+ addOne()</text>
</a>
</g>
</g>
<!-- Node8&#45;&gt;Node10 -->
<g id="edge11" class="edge">
<title>Node8&#45;&gt;Node10</title>
<path fill="none" stroke="#191970" d="M817.0956,-151.5369C818.6166,-138.8616 820.2365,-125.3624 821.7635,-112.6378"/>
<polygon fill="none" stroke="#191970" points="813.6171,-151.1492 815.9006,-161.4951 820.5672,-151.9833 813.6171,-151.1492"/>
</g>
<!-- Node11 -->
<g id="node12" class="node">
<title>Node11</title>
<g id="a_node12"><a xlink:href="../../d1/d4d/structo2_1_1soa_1_1CombinationsBlockUpperIndexPolicy.html" target="_top" xlink:title="{o2::soa::CombinationsBlock\lUpperIndexPolicy\&lt; T, Ts \&gt;\n||+ CombinationsBlockUpperIndex\lPolicy()\l+ setRanges()\l+ addOne()\l}">
<polygon fill="none" stroke="#000000" points="925,-6 925,-107 1104,-107 1104,-6 925,-6"/>
<text text-anchor="start" x="933" y="-95" font-family="Helvetica,sans-Serif" font-size="10.00" fill="#000000">o2::soa::CombinationsBlock</text>
<text text-anchor="middle" x="1014.5" y="-84" font-family="Helvetica,sans-Serif" font-size="10.00" fill="#000000">UpperIndexPolicy&lt; T, Ts &gt;</text>
<polyline fill="none" stroke="#000000" points="925,-77 1104,-77 "/>
<text text-anchor="middle" x="1014.5" y="-65" font-family="Helvetica,sans-Serif" font-size="10.00" fill="#000000"> </text>
<polyline fill="none" stroke="#000000" points="925,-58 1104,-58 "/>
<text text-anchor="start" x="933" y="-46" font-family="Helvetica,sans-Serif" font-size="10.00" fill="#000000">+ CombinationsBlockUpperIndex</text>
<text text-anchor="start" x="933" y="-35" font-family="Helvetica,sans-Serif" font-size="10.00" fill="#000000">Policy()</text>
<text text-anchor="start" x="933" y="-24" font-family="Helvetica,sans-Serif" font-size="10.00" fill="#000000">+ setRanges()</text>
<text text-anchor="start" x="933" y="-13" font-family="Helvetica,sans-Serif" font-size="10.00" fill="#000000">+ addOne()</text>
</a>
</g>
</g>
<!-- Node8&#45;&gt;Node11 -->
<g id="edge12" class="edge">
<title>Node8&#45;&gt;Node11</title>
<path fill="none" stroke="#191970" d="M880.0058,-155.3928C901.1463,-139.8483 924.3662,-122.7748 945.4749,-107.2537"/>
<polygon fill="none" stroke="#191970" points="877.6899,-152.7513 871.7067,-161.4951 881.8366,-158.3909 877.6899,-152.7513"/>
</g>
<!-- Node12&#45;&gt;Node8 -->
<g id="edge14" class="edge">
<title>Node12&#45;&gt;Node8</title>
<path fill="none" stroke="#ffa500" d="M810.5,-310.8925C810.5,-291.568 810.5,-270.1438 810.5,-251.7581"/>
<polygon fill="#ffa500" stroke="#ffa500" points="807.0001,-311.0784 810.5,-321.0784 814.0001,-311.0784 807.0001,-311.0784"/>
<text text-anchor="middle" x="839" y="-284" font-family="Helvetica,sans-Serif" font-size="10.00" fill="#000000"> &lt; T, Ts... &gt;</text>
</g>
</g>
</svg>
