<?xml version="1.0" encoding="UTF-8" standalone="no"?>
<!DOCTYPE svg PUBLIC "-//W3C//DTD SVG 1.1//EN"
 "http://www.w3.org/Graphics/SVG/1.1/DTD/svg11.dtd">
<!-- Generated by graphviz version 2.40.1 (20161225.0304)
 -->
<!-- Title: /home/travis/build/AliceO2Group/AliceO2/GPU/GPUTracking/Standalone/qconfigoptions.h Pages: 1 -->
<svg width="2850pt" height="595pt"
 viewBox="0.00 0.00 2850.00 595.00" xmlns="http://www.w3.org/2000/svg" xmlns:xlink="http://www.w3.org/1999/xlink">
<g id="graph0" class="graph" transform="scale(1 1) rotate(0) translate(4 591)">
<title>/home/travis/build/AliceO2Group/AliceO2/GPU/GPUTracking/Standalone/qconfigoptions.h</title>
<!-- Node1 -->
<g id="node1" class="node">
<title>Node1</title>
<polygon fill="#bfbfbf" stroke="#000000" points="2168,-534.5 2168,-586.5 2331,-586.5 2331,-534.5 2168,-534.5"/>
<text text-anchor="start" x="2176" y="-574.5" font-family="Helvetica,sans-Serif" font-size="10.00" fill="#000000">/home/travis/build</text>
<text text-anchor="start" x="2176" y="-563.5" font-family="Helvetica,sans-Serif" font-size="10.00" fill="#000000">/AliceO2Group/AliceO2</text>
<text text-anchor="start" x="2176" y="-552.5" font-family="Helvetica,sans-Serif" font-size="10.00" fill="#000000">/GPU/GPUTracking/Standalone</text>
<text text-anchor="middle" x="2249.5" y="-541.5" font-family="Helvetica,sans-Serif" font-size="10.00" fill="#000000">/qconfigoptions.h</text>
</g>
<!-- Node2 -->
<g id="node2" class="node">
<title>Node2</title>
<g id="a_node2"><a xlink:href="../../da/d08/qconfig_8h.html" target="_top" xlink:title="/home/travis/build\l/AliceO2Group/AliceO2\l/GPU/GPUTracking/Standalone\l/utils/qconfig.h">
<polygon fill="none" stroke="#000000" points="2168,-445.5 2168,-497.5 2331,-497.5 2331,-445.5 2168,-445.5"/>
<text text-anchor="start" x="2176" y="-485.5" font-family="Helvetica,sans-Serif" font-size="10.00" fill="#000000">/home/travis/build</text>
<text text-anchor="start" x="2176" y="-474.5" font-family="Helvetica,sans-Serif" font-size="10.00" fill="#000000">/AliceO2Group/AliceO2</text>
<text text-anchor="start" x="2176" y="-463.5" font-family="Helvetica,sans-Serif" font-size="10.00" fill="#000000">/GPU/GPUTracking/Standalone</text>
<text text-anchor="middle" x="2249.5" y="-452.5" font-family="Helvetica,sans-Serif" font-size="10.00" fill="#000000">/utils/qconfig.h</text>
</a>
</g>
</g>
<!-- Node1&#45;&gt;Node2 -->
<g id="edge1" class="edge">
<title>Node1&#45;&gt;Node2</title>
<path fill="none" stroke="#191970" d="M2249.5,-524.1155C2249.5,-515.2061 2249.5,-505.8475 2249.5,-497.5341"/>
<polygon fill="#191970" stroke="#191970" points="2246.0001,-524.2784 2249.5,-534.2784 2253.0001,-524.2785 2246.0001,-524.2784"/>
</g>
<!-- Node2&#45;&gt;Node2 -->
<g id="edge20" class="edge">
<title>Node2&#45;&gt;Node2</title>
<path fill="none" stroke="#191970" d="M2340.7662,-482.6516C2345.9243,-479.9545 2349,-476.2373 2349,-471.5 2349,-464.2813 2341.8582,-459.4312 2331.0896,-456.9497"/>
<polygon fill="#191970" stroke="#191970" points="2339.3647,-479.4342 2331.0896,-486.0503 2341.6844,-486.0387 2339.3647,-479.4342"/>
</g>
<!-- Node3 -->
<g id="node3" class="node">
<title>Node3</title>
<g id="a_node3"><a xlink:href="../../d7/d36/GPUReconstructionTimeframe_8cxx.html" target="_top" xlink:title="/home/travis/build\l/AliceO2Group/AliceO2\l/GPU/GPUTracking/Base\l/GPUReconstructionTimeframe.cxx">
<polygon fill="none" stroke="#000000" points="833,-178.5 833,-230.5 1020,-230.5 1020,-178.5 833,-178.5"/>
<text text-anchor="start" x="841" y="-218.5" font-family="Helvetica,sans-Serif" font-size="10.00" fill="#000000">/home/travis/build</text>
<text text-anchor="start" x="841" y="-207.5" font-family="Helvetica,sans-Serif" font-size="10.00" fill="#000000">/AliceO2Group/AliceO2</text>
<text text-anchor="start" x="841" y="-196.5" font-family="Helvetica,sans-Serif" font-size="10.00" fill="#000000">/GPU/GPUTracking/Base</text>
<text text-anchor="middle" x="926.5" y="-185.5" font-family="Helvetica,sans-Serif" font-size="10.00" fill="#000000">/GPUReconstructionTimeframe.cxx</text>
</a>
</g>
</g>
<!-- Node2&#45;&gt;Node3 -->
<g id="edge2" class="edge">
<title>Node2&#45;&gt;Node3</title>
<path fill="none" stroke="#191970" d="M2157.7749,-466.4208C1990.3175,-456.682 1641.384,-434.1089 1522.5,-409 1320.476,-366.3315 1092.362,-275.4125 986.4545,-230.5889"/>
<polygon fill="#191970" stroke="#191970" points="2157.6214,-469.9176 2167.8069,-467.0014 2158.0259,-462.9293 2157.6214,-469.9176"/>
</g>
<!-- Node4 -->
<g id="node4" class="node">
<title>Node4</title>
<g id="a_node4"><a xlink:href="../../d4/d50/GPUDisplayConfig_8h.html" target="_top" xlink:title="/home/travis/build\l/AliceO2Group/AliceO2\l/GPU/GPUTracking/Standalone\l/display/GPUDisplayConfig.h">
<polygon fill="none" stroke="#000000" points="1532,-356.5 1532,-408.5 1695,-408.5 1695,-356.5 1532,-356.5"/>
<text text-anchor="start" x="1540" y="-396.5" font-family="Helvetica,sans-Serif" font-size="10.00" fill="#000000">/home/travis/build</text>
<text text-anchor="start" x="1540" y="-385.5" font-family="Helvetica,sans-Serif" font-size="10.00" fill="#000000">/AliceO2Group/AliceO2</text>
<text text-anchor="start" x="1540" y="-374.5" font-family="Helvetica,sans-Serif" font-size="10.00" fill="#000000">/GPU/GPUTracking/Standalone</text>
<text text-anchor="middle" x="1613.5" y="-363.5" font-family="Helvetica,sans-Serif" font-size="10.00" fill="#000000">/display/GPUDisplayConfig.h</text>
</a>
</g>
</g>
<!-- Node2&#45;&gt;Node4 -->
<g id="edge3" class="edge">
<title>Node2&#45;&gt;Node4</title>
<path fill="none" stroke="#191970" d="M2157.7368,-458.6589C2033.5405,-441.2793 1813.8544,-410.537 1695.1234,-393.9221"/>
<polygon fill="#191970" stroke="#191970" points="2157.5918,-462.1727 2167.9804,-460.0924 2158.562,-455.2402 2157.5918,-462.1727"/>
</g>
<!-- Node19 -->
<g id="node19" class="node">
<title>Node19</title>
<g id="a_node19"><a xlink:href="../../d7/d9f/genEvents_8cxx.html" target="_top" xlink:title="/home/travis/build\l/AliceO2Group/AliceO2\l/GPU/GPUTracking/Standalone\l/qa/genEvents.cxx">
<polygon fill="none" stroke="#000000" points="1987,-356.5 1987,-408.5 2150,-408.5 2150,-356.5 1987,-356.5"/>
<text text-anchor="start" x="1995" y="-396.5" font-family="Helvetica,sans-Serif" font-size="10.00" fill="#000000">/home/travis/build</text>
<text text-anchor="start" x="1995" y="-385.5" font-family="Helvetica,sans-Serif" font-size="10.00" fill="#000000">/AliceO2Group/AliceO2</text>
<text text-anchor="start" x="1995" y="-374.5" font-family="Helvetica,sans-Serif" font-size="10.00" fill="#000000">/GPU/GPUTracking/Standalone</text>
<text text-anchor="middle" x="2068.5" y="-363.5" font-family="Helvetica,sans-Serif" font-size="10.00" fill="#000000">/qa/genEvents.cxx</text>
</a>
</g>
</g>
<!-- Node2&#45;&gt;Node19 -->
<g id="edge19" class="edge">
<title>Node2&#45;&gt;Node19</title>
<path fill="none" stroke="#191970" d="M2187.1606,-440.8469C2165.761,-430.3245 2142.0283,-418.6548 2121.4459,-408.5341"/>
<polygon fill="#191970" stroke="#191970" points="2185.6548,-444.0067 2196.173,-445.2784 2188.7436,-437.725 2185.6548,-444.0067"/>
</g>
<!-- Node20 -->
<g id="node20" class="node">
<title>Node20</title>
<g id="a_node20"><a xlink:href="../../d8/d93/GPUQAConfig_8h.html" target="_top" xlink:title="/home/travis/build\l/AliceO2Group/AliceO2\l/GPU/GPUTracking/Standalone\l/qa/GPUQAConfig.h">
<polygon fill="none" stroke="#000000" points="2168,-356.5 2168,-408.5 2331,-408.5 2331,-356.5 2168,-356.5"/>
<text text-anchor="start" x="2176" y="-396.5" font-family="Helvetica,sans-Serif" font-size="10.00" fill="#000000">/home/travis/build</text>
<text text-anchor="start" x="2176" y="-385.5" font-family="Helvetica,sans-Serif" font-size="10.00" fill="#000000">/AliceO2Group/AliceO2</text>
<text text-anchor="start" x="2176" y="-374.5" font-family="Helvetica,sans-Serif" font-size="10.00" fill="#000000">/GPU/GPUTracking/Standalone</text>
<text text-anchor="middle" x="2249.5" y="-363.5" font-family="Helvetica,sans-Serif" font-size="10.00" fill="#000000">/qa/GPUQAConfig.h</text>
</a>
</g>
</g>
<!-- Node2&#45;&gt;Node20 -->
<g id="edge21" class="edge">
<title>Node2&#45;&gt;Node20</title>
<path fill="none" stroke="#191970" d="M2249.5,-435.1155C2249.5,-426.2061 2249.5,-416.8475 2249.5,-408.5341"/>
<polygon fill="#191970" stroke="#191970" points="2246.0001,-435.2784 2249.5,-445.2784 2253.0001,-435.2785 2246.0001,-435.2784"/>
</g>
<!-- Node25 -->
<g id="node25" class="node">
<title>Node25</title>
<g id="a_node25"><a xlink:href="../../de/ddc/GPUQA_8cxx.html" target="_top" xlink:title="/home/travis/build\l/AliceO2Group/AliceO2\l/GPU/GPUTracking/Standalone\l/qa/GPUQA.cxx">
<polygon fill="none" stroke="#000000" points="2498,-178.5 2498,-230.5 2661,-230.5 2661,-178.5 2498,-178.5"/>
<text text-anchor="start" x="2506" y="-218.5" font-family="Helvetica,sans-Serif" font-size="10.00" fill="#000000">/home/travis/build</text>
<text text-anchor="start" x="2506" y="-207.5" font-family="Helvetica,sans-Serif" font-size="10.00" fill="#000000">/AliceO2Group/AliceO2</text>
<text text-anchor="start" x="2506" y="-196.5" font-family="Helvetica,sans-Serif" font-size="10.00" fill="#000000">/GPU/GPUTracking/Standalone</text>
<text text-anchor="middle" x="2579.5" y="-185.5" font-family="Helvetica,sans-Serif" font-size="10.00" fill="#000000">/qa/GPUQA.cxx</text>
</a>
</g>
</g>
<!-- Node2&#45;&gt;Node25 -->
<g id="edge32" class="edge">
<title>Node2&#45;&gt;Node25</title>
<path fill="none" stroke="#191970" d="M2308.6533,-439.5424C2320.5195,-430.9231 2331.9502,-420.6892 2340.5,-409 2379.4292,-355.7763 2337.2152,-313.9677 2383.5,-267 2387.8871,-262.5481 2446.094,-244.2735 2497.9432,-228.6261"/>
<polygon fill="#191970" stroke="#191970" points="2306.6337,-436.6836 2300.3988,-445.2496 2310.6147,-442.4414 2306.6337,-436.6836"/>
</g>
<!-- Node26 -->
<g id="node26" class="node">
<title>Node26</title>
<g id="a_node26"><a xlink:href="../../dc/df9/standalone_8cxx.html" target="_top" xlink:title="/home/travis/build\l/AliceO2Group/AliceO2\l/GPU/GPUTracking/Standalone\l/standalone.cxx">
<polygon fill="none" stroke="#000000" points="2679,-178.5 2679,-230.5 2842,-230.5 2842,-178.5 2679,-178.5"/>
<text text-anchor="start" x="2687" y="-218.5" font-family="Helvetica,sans-Serif" font-size="10.00" fill="#000000">/home/travis/build</text>
<text text-anchor="start" x="2687" y="-207.5" font-family="Helvetica,sans-Serif" font-size="10.00" fill="#000000">/AliceO2Group/AliceO2</text>
<text text-anchor="start" x="2687" y="-196.5" font-family="Helvetica,sans-Serif" font-size="10.00" fill="#000000">/GPU/GPUTracking/Standalone</text>
<text text-anchor="middle" x="2760.5" y="-185.5" font-family="Helvetica,sans-Serif" font-size="10.00" fill="#000000">/standalone.cxx</text>
</a>
</g>
</g>
<!-- Node2&#45;&gt;Node26 -->
<g id="edge33" class="edge">
<title>Node2&#45;&gt;Node26</title>
<path fill="none" stroke="#191970" d="M2313.3953,-440.4775C2330.264,-431.2267 2348.0579,-420.4679 2363.5,-409 2390.4977,-388.9504 2389.6694,-374.8765 2417.5,-356 2500.6027,-299.6346 2608.0874,-256.1913 2680.4012,-230.5617"/>
<polygon fill="#191970" stroke="#191970" points="2311.2881,-437.6367 2304.1398,-445.4567 2314.6045,-443.8013 2311.2881,-437.6367"/>
</g>
<!-- Node27 -->
<g id="node27" class="node">
<title>Node27</title>
<g id="a_node27"><a xlink:href="../../da/df7/qconfig_8cxx.html" target="_top" xlink:title="/home/travis/build\l/AliceO2Group/AliceO2\l/GPU/GPUTracking/Standalone\l/utils/qconfig.cxx">
<polygon fill="none" stroke="#000000" points="2426,-356.5 2426,-408.5 2589,-408.5 2589,-356.5 2426,-356.5"/>
<text text-anchor="start" x="2434" y="-396.5" font-family="Helvetica,sans-Serif" font-size="10.00" fill="#000000">/home/travis/build</text>
<text text-anchor="start" x="2434" y="-385.5" font-family="Helvetica,sans-Serif" font-size="10.00" fill="#000000">/AliceO2Group/AliceO2</text>
<text text-anchor="start" x="2434" y="-374.5" font-family="Helvetica,sans-Serif" font-size="10.00" fill="#000000">/GPU/GPUTracking/Standalone</text>
<text text-anchor="middle" x="2507.5" y="-363.5" font-family="Helvetica,sans-Serif" font-size="10.00" fill="#000000">/utils/qconfig.cxx</text>
</a>
</g>
</g>
<!-- Node2&#45;&gt;Node27 -->
<g id="edge34" class="edge">
<title>Node2&#45;&gt;Node27</title>
<path fill="none" stroke="#191970" d="M2334.7611,-442.0882C2366.1168,-431.2717 2401.383,-419.1062 2431.8361,-408.6011"/>
<polygon fill="#191970" stroke="#191970" points="2333.4772,-438.8286 2325.1653,-445.3984 2335.76,-445.446 2333.4772,-438.8286"/>
</g>
<!-- Node5 -->
<g id="node5" class="node">
<title>Node5</title>
<g id="a_node5"><a xlink:href="../../d8/de7/GPUO2InterfaceConfiguration_8h.html" target="_top" xlink:title="/home/travis/build\l/AliceO2Group/AliceO2\l/GPU/GPUTracking/Interface\l/GPUO2InterfaceConfiguration.h">
<polygon fill="none" stroke="#000000" points="492.5,-267.5 492.5,-319.5 664.5,-319.5 664.5,-267.5 492.5,-267.5"/>
<text text-anchor="start" x="500.5" y="-307.5" font-family="Helvetica,sans-Serif" font-size="10.00" fill="#000000">/home/travis/build</text>
<text text-anchor="start" x="500.5" y="-296.5" font-family="Helvetica,sans-Serif" font-size="10.00" fill="#000000">/AliceO2Group/AliceO2</text>
<text text-anchor="start" x="500.5" y="-285.5" font-family="Helvetica,sans-Serif" font-size="10.00" fill="#000000">/GPU/GPUTracking/Interface</text>
<text text-anchor="middle" x="578.5" y="-274.5" font-family="Helvetica,sans-Serif" font-size="10.00" fill="#000000">/GPUO2InterfaceConfiguration.h</text>
</a>
</g>
</g>
<!-- Node4&#45;&gt;Node5 -->
<g id="edge4" class="edge">
<title>Node4&#45;&gt;Node5</title>
<path fill="none" stroke="#191970" d="M1521.7606,-374.6113C1323.5634,-357.5683 857.735,-317.5115 664.6677,-300.9096"/>
<polygon fill="#191970" stroke="#191970" points="1521.5901,-378.1095 1531.8532,-375.4792 1522.1899,-371.1352 1521.5901,-378.1095"/>
</g>
<!-- Node11 -->
<g id="node11" class="node">
<title>Node11</title>
<g id="a_node11"><a xlink:href="../../dc/d69/GPUDisplay_8h.html" target="_top" xlink:title="/home/travis/build\l/AliceO2Group/AliceO2\l/GPU/GPUTracking/Standalone\l/display/GPUDisplay.h">
<polygon fill="none" stroke="#000000" points="1532,-267.5 1532,-319.5 1695,-319.5 1695,-267.5 1532,-267.5"/>
<text text-anchor="start" x="1540" y="-307.5" font-family="Helvetica,sans-Serif" font-size="10.00" fill="#000000">/home/travis/build</text>
<text text-anchor="start" x="1540" y="-296.5" font-family="Helvetica,sans-Serif" font-size="10.00" fill="#000000">/AliceO2Group/AliceO2</text>
<text text-anchor="start" x="1540" y="-285.5" font-family="Helvetica,sans-Serif" font-size="10.00" fill="#000000">/GPU/GPUTracking/Standalone</text>
<text text-anchor="middle" x="1613.5" y="-274.5" font-family="Helvetica,sans-Serif" font-size="10.00" fill="#000000">/display/GPUDisplay.h</text>
</a>
</g>
</g>
<!-- Node4&#45;&gt;Node11 -->
<g id="edge10" class="edge">
<title>Node4&#45;&gt;Node11</title>
<path fill="none" stroke="#191970" d="M1613.5,-346.1155C1613.5,-337.2061 1613.5,-327.8475 1613.5,-319.5341"/>
<polygon fill="#191970" stroke="#191970" points="1610.0001,-346.2784 1613.5,-356.2784 1617.0001,-346.2785 1610.0001,-346.2784"/>
</g>
<!-- Node6 -->
<g id="node6" class="node">
<title>Node6</title>
<g id="a_node6"><a xlink:href="../../d4/d2e/GPUCATracking_8cxx.html" target="_top" xlink:title="/home/travis/build\l/AliceO2Group/AliceO2\l/Detectors/TPC/reconstruction\l/src/GPUCATracking.cxx">
<polygon fill="none" stroke="#000000" points="0,-178.5 0,-230.5 161,-230.5 161,-178.5 0,-178.5"/>
<text text-anchor="start" x="8" y="-218.5" font-family="Helvetica,sans-Serif" font-size="10.00" fill="#000000">/home/travis/build</text>
<text text-anchor="start" x="8" y="-207.5" font-family="Helvetica,sans-Serif" font-size="10.00" fill="#000000">/AliceO2Group/AliceO2</text>
<text text-anchor="start" x="8" y="-196.5" font-family="Helvetica,sans-Serif" font-size="10.00" fill="#000000">/Detectors/TPC/reconstruction</text>
<text text-anchor="middle" x="80.5" y="-185.5" font-family="Helvetica,sans-Serif" font-size="10.00" fill="#000000">/src/GPUCATracking.cxx</text>
</a>
</g>
</g>
<!-- Node5&#45;&gt;Node6 -->
<g id="edge5" class="edge">
<title>Node5&#45;&gt;Node6</title>
<path fill="none" stroke="#191970" d="M482.5159,-282.6272C399.186,-272.2871 275.5823,-254.7796 169.5,-231 166.8257,-230.4005 164.114,-229.7638 161.3819,-229.0974"/>
<polygon fill="#191970" stroke="#191970" points="482.1219,-286.105 492.4746,-283.8526 482.9769,-279.1574 482.1219,-286.105"/>
</g>
<!-- Node7 -->
<g id="node7" class="node">
<title>Node7</title>
<g id="a_node7"><a xlink:href="../../d1/df6/testGPUCATracking_8cxx.html" target="_top" xlink:title="This task tests the TPC CA Tracking library. ">
<polygon fill="none" stroke="#000000" points="179,-178.5 179,-230.5 340,-230.5 340,-178.5 179,-178.5"/>
<text text-anchor="start" x="187" y="-218.5" font-family="Helvetica,sans-Serif" font-size="10.00" fill="#000000">/home/travis/build</text>
<text text-anchor="start" x="187" y="-207.5" font-family="Helvetica,sans-Serif" font-size="10.00" fill="#000000">/AliceO2Group/AliceO2</text>
<text text-anchor="start" x="187" y="-196.5" font-family="Helvetica,sans-Serif" font-size="10.00" fill="#000000">/Detectors/TPC/reconstruction</text>
<text text-anchor="middle" x="259.5" y="-185.5" font-family="Helvetica,sans-Serif" font-size="10.00" fill="#000000">/test/testGPUCATracking.cxx</text>
</a>
</g>
</g>
<!-- Node5&#45;&gt;Node7 -->
<g id="edge6" class="edge">
<title>Node5&#45;&gt;Node7</title>
<path fill="none" stroke="#191970" d="M482.7497,-267.8235C441.6729,-256.6903 393.1782,-243.3895 349.5,-231 346.5227,-230.1555 343.4916,-229.2903 340.431,-228.4123"/>
<polygon fill="#191970" stroke="#191970" points="481.9124,-271.2227 492.4795,-270.4577 483.7417,-264.466 481.9124,-271.2227"/>
</g>
<!-- Node8 -->
<g id="node8" class="node">
<title>Node8</title>
<g id="a_node8"><a xlink:href="../../da/d78/CATrackerSpec_8cxx.html" target="_top" xlink:title="Processor spec for running TPC CA tracking. ">
<polygon fill="none" stroke="#000000" points="358.5,-178.5 358.5,-230.5 494.5,-230.5 494.5,-178.5 358.5,-178.5"/>
<text text-anchor="start" x="366.5" y="-218.5" font-family="Helvetica,sans-Serif" font-size="10.00" fill="#000000">/home/travis/build</text>
<text text-anchor="start" x="366.5" y="-207.5" font-family="Helvetica,sans-Serif" font-size="10.00" fill="#000000">/AliceO2Group/AliceO2</text>
<text text-anchor="start" x="366.5" y="-196.5" font-family="Helvetica,sans-Serif" font-size="10.00" fill="#000000">/Detectors/TPC/workflow</text>
<text text-anchor="middle" x="426.5" y="-185.5" font-family="Helvetica,sans-Serif" font-size="10.00" fill="#000000">/src/CATrackerSpec.cxx</text>
</a>
</g>
</g>
<!-- Node5&#45;&gt;Node8 -->
<g id="edge7" class="edge">
<title>Node5&#45;&gt;Node8</title>
<path fill="none" stroke="#191970" d="M524.7004,-261.9989C507.112,-251.7004 487.7845,-240.3837 470.9628,-230.5341"/>
<polygon fill="#191970" stroke="#191970" points="523.319,-265.2459 533.7171,-267.2784 526.8561,-259.2052 523.319,-265.2459"/>
</g>
<!-- Node9 -->
<g id="node9" class="node">
<title>Node9</title>
<g id="a_node9"><a xlink:href="../../d8/db5/testGPUTracking_8cxx.html" target="_top" xlink:title="/home/travis/build\l/AliceO2Group/AliceO2\l/GPU/GPUTracking/ctest\l/testGPUTracking.cxx">
<polygon fill="none" stroke="#000000" points="512.5,-178.5 512.5,-230.5 644.5,-230.5 644.5,-178.5 512.5,-178.5"/>
<text text-anchor="start" x="520.5" y="-218.5" font-family="Helvetica,sans-Serif" font-size="10.00" fill="#000000">/home/travis/build</text>
<text text-anchor="start" x="520.5" y="-207.5" font-family="Helvetica,sans-Serif" font-size="10.00" fill="#000000">/AliceO2Group/AliceO2</text>
<text text-anchor="start" x="520.5" y="-196.5" font-family="Helvetica,sans-Serif" font-size="10.00" fill="#000000">/GPU/GPUTracking/ctest</text>
<text text-anchor="middle" x="578.5" y="-185.5" font-family="Helvetica,sans-Serif" font-size="10.00" fill="#000000">/testGPUTracking.cxx</text>
</a>
</g>
</g>
<!-- Node5&#45;&gt;Node9 -->
<g id="edge8" class="edge">
<title>Node5&#45;&gt;Node9</title>
<path fill="none" stroke="#191970" d="M578.5,-257.1155C578.5,-248.2061 578.5,-238.8475 578.5,-230.5341"/>
<polygon fill="#191970" stroke="#191970" points="575.0001,-257.2784 578.5,-267.2784 582.0001,-257.2785 575.0001,-257.2784"/>
</g>
<!-- Node10 -->
<g id="node10" class="node">
<title>Node10</title>
<g id="a_node10"><a xlink:href="../../d0/d48/GPUO2Interface_8cxx.html" target="_top" xlink:title="/home/travis/build\l/AliceO2Group/AliceO2\l/GPU/GPUTracking/Interface\l/GPUO2Interface.cxx">
<polygon fill="none" stroke="#000000" points="662.5,-178.5 662.5,-230.5 814.5,-230.5 814.5,-178.5 662.5,-178.5"/>
<text text-anchor="start" x="670.5" y="-218.5" font-family="Helvetica,sans-Serif" font-size="10.00" fill="#000000">/home/travis/build</text>
<text text-anchor="start" x="670.5" y="-207.5" font-family="Helvetica,sans-Serif" font-size="10.00" fill="#000000">/AliceO2Group/AliceO2</text>
<text text-anchor="start" x="670.5" y="-196.5" font-family="Helvetica,sans-Serif" font-size="10.00" fill="#000000">/GPU/GPUTracking/Interface</text>
<text text-anchor="middle" x="738.5" y="-185.5" font-family="Helvetica,sans-Serif" font-size="10.00" fill="#000000">/GPUO2Interface.cxx</text>
</a>
</g>
</g>
<!-- Node5&#45;&gt;Node10 -->
<g id="edge9" class="edge">
<title>Node5&#45;&gt;Node10</title>
<path fill="none" stroke="#191970" d="M634.622,-262.2821C653.2718,-251.9082 673.8275,-240.4741 691.697,-230.5341"/>
<polygon fill="#191970" stroke="#191970" points="632.6775,-259.3587 625.6399,-267.2784 636.0803,-265.476 632.6775,-259.3587"/>
</g>
<!-- Node11&#45;&gt;Node3 -->
<g id="edge11" class="edge">
<title>Node11&#45;&gt;Node3</title>
<path fill="none" stroke="#191970" d="M1521.3299,-287.8789C1405.5588,-279.8516 1201.1471,-262.4717 1028.5,-231 1025.7101,-230.4914 1022.884,-229.9473 1020.0365,-229.3738"/>
<polygon fill="#191970" stroke="#191970" points="1521.3508,-291.3884 1531.5667,-288.5803 1521.8294,-284.4048 1521.3508,-291.3884"/>
</g>
<!-- Node12 -->
<g id="node12" class="node">
<title>Node12</title>
<g id="a_node12"><a xlink:href="../../d2/d58/GPUChainTracking_8cxx.html" target="_top" xlink:title="/home/travis/build\l/AliceO2Group/AliceO2\l/GPU/GPUTracking/Global\l/GPUChainTracking.cxx">
<polygon fill="none" stroke="#000000" points="2021.5,-178.5 2021.5,-230.5 2161.5,-230.5 2161.5,-178.5 2021.5,-178.5"/>
<text text-anchor="start" x="2029.5" y="-218.5" font-family="Helvetica,sans-Serif" font-size="10.00" fill="#000000">/home/travis/build</text>
<text text-anchor="start" x="2029.5" y="-207.5" font-family="Helvetica,sans-Serif" font-size="10.00" fill="#000000">/AliceO2Group/AliceO2</text>
<text text-anchor="start" x="2029.5" y="-196.5" font-family="Helvetica,sans-Serif" font-size="10.00" fill="#000000">/GPU/GPUTracking/Global</text>
<text text-anchor="middle" x="2091.5" y="-185.5" font-family="Helvetica,sans-Serif" font-size="10.00" fill="#000000">/GPUChainTracking.cxx</text>
</a>
</g>
</g>
<!-- Node11&#45;&gt;Node12 -->
<g id="edge12" class="edge">
<title>Node11&#45;&gt;Node12</title>
<path fill="none" stroke="#191970" d="M1705.5192,-283.5472C1786.9526,-273.6849 1908.6408,-256.3625 2012.5,-231 2015.4512,-230.2793 2018.4498,-229.4985 2021.4682,-228.6724"/>
<polygon fill="#191970" stroke="#191970" points="1704.8087,-280.1071 1695.296,-284.7717 1705.6413,-287.0575 1704.8087,-280.1071"/>
</g>
<!-- Node13 -->
<g id="node13" class="node">
<title>Node13</title>
<g id="a_node13"><a xlink:href="../../d3/d85/GPUChainTrackingIO_8cxx.html" target="_top" xlink:title="/home/travis/build\l/AliceO2Group/AliceO2\l/GPU/GPUTracking/Global\l/GPUChainTrackingIO.cxx">
<polygon fill="none" stroke="#000000" points="2179.5,-178.5 2179.5,-230.5 2319.5,-230.5 2319.5,-178.5 2179.5,-178.5"/>
<text text-anchor="start" x="2187.5" y="-218.5" font-family="Helvetica,sans-Serif" font-size="10.00" fill="#000000">/home/travis/build</text>
<text text-anchor="start" x="2187.5" y="-207.5" font-family="Helvetica,sans-Serif" font-size="10.00" fill="#000000">/AliceO2Group/AliceO2</text>
<text text-anchor="start" x="2187.5" y="-196.5" font-family="Helvetica,sans-Serif" font-size="10.00" fill="#000000">/GPU/GPUTracking/Global</text>
<text text-anchor="middle" x="2249.5" y="-185.5" font-family="Helvetica,sans-Serif" font-size="10.00" fill="#000000">/GPUChainTrackingIO.cxx</text>
</a>
</g>
</g>
<!-- Node11&#45;&gt;Node13 -->
<g id="edge13" class="edge">
<title>Node11&#45;&gt;Node13</title>
<path fill="none" stroke="#191970" d="M1705.2695,-289.1686C1816.4792,-282.5557 2009.033,-266.7165 2170.5,-231 2173.325,-230.3751 2176.1907,-229.6861 2179.0737,-228.9469"/>
<polygon fill="#191970" stroke="#191970" points="1704.8749,-285.6855 1695.0954,-289.7613 1705.282,-292.6737 1704.8749,-285.6855"/>
</g>
<!-- Node14 -->
<g id="node14" class="node">
<title>Node14</title>
<g id="a_node14"><a xlink:href="../../d8/d8f/GPUDisplay_8cxx.html" target="_top" xlink:title="/home/travis/build\l/AliceO2Group/AliceO2\l/GPU/GPUTracking/Standalone\l/display/GPUDisplay.cxx">
<polygon fill="none" stroke="#000000" points="1038,-178.5 1038,-230.5 1201,-230.5 1201,-178.5 1038,-178.5"/>
<text text-anchor="start" x="1046" y="-218.5" font-family="Helvetica,sans-Serif" font-size="10.00" fill="#000000">/home/travis/build</text>
<text text-anchor="start" x="1046" y="-207.5" font-family="Helvetica,sans-Serif" font-size="10.00" fill="#000000">/AliceO2Group/AliceO2</text>
<text text-anchor="start" x="1046" y="-196.5" font-family="Helvetica,sans-Serif" font-size="10.00" fill="#000000">/GPU/GPUTracking/Standalone</text>
<text text-anchor="middle" x="1119.5" y="-185.5" font-family="Helvetica,sans-Serif" font-size="10.00" fill="#000000">/display/GPUDisplay.cxx</text>
</a>
</g>
</g>
<!-- Node11&#45;&gt;Node14 -->
<g id="edge14" class="edge">
<title>Node11&#45;&gt;Node14</title>
<path fill="none" stroke="#191970" d="M1521.8213,-282.7218C1439.7264,-272.2561 1316.3269,-254.5113 1210.5,-231 1207.448,-230.3219 1204.3477,-229.5986 1201.2232,-228.8403"/>
<polygon fill="#191970" stroke="#191970" points="1521.5136,-286.2106 1531.8738,-283.9932 1522.3921,-279.266 1521.5136,-286.2106"/>
</g>
<!-- Node15 -->
<g id="node15" class="node">
<title>Node15</title>
<g id="a_node15"><a xlink:href="../../d5/d55/GPUDisplayBackend_8cxx.html" target="_top" xlink:title="/home/travis/build\l/AliceO2Group/AliceO2\l/GPU/GPUTracking/Standalone\l/display/GPUDisplayBackend.cxx">
<polygon fill="none" stroke="#000000" points="1219.5,-178.5 1219.5,-230.5 1397.5,-230.5 1397.5,-178.5 1219.5,-178.5"/>
<text text-anchor="start" x="1227.5" y="-218.5" font-family="Helvetica,sans-Serif" font-size="10.00" fill="#000000">/home/travis/build</text>
<text text-anchor="start" x="1227.5" y="-207.5" font-family="Helvetica,sans-Serif" font-size="10.00" fill="#000000">/AliceO2Group/AliceO2</text>
<text text-anchor="start" x="1227.5" y="-196.5" font-family="Helvetica,sans-Serif" font-size="10.00" fill="#000000">/GPU/GPUTracking/Standalone</text>
<text text-anchor="middle" x="1308.5" y="-185.5" font-family="Helvetica,sans-Serif" font-size="10.00" fill="#000000">/display/GPUDisplayBackend.cxx</text>
</a>
</g>
</g>
<!-- Node11&#45;&gt;Node15 -->
<g id="edge15" class="edge">
<title>Node11&#45;&gt;Node15</title>
<path fill="none" stroke="#191970" d="M1521.912,-266.7743C1482.5745,-255.2955 1436.7663,-241.9285 1397.6973,-230.5281"/>
<polygon fill="#191970" stroke="#191970" points="1521.1855,-270.2082 1531.7656,-269.6496 1523.1464,-263.4885 1521.1855,-270.2082"/>
</g>
<!-- Node16 -->
<g id="node16" class="node">
<title>Node16</title>
<g id="a_node16"><a xlink:href="../../d4/d10/GPUDisplayInterpolation_8cxx.html" target="_top" xlink:title="/home/travis/build\l/AliceO2Group/AliceO2\l/GPU/GPUTracking/Standalone\l/display/GPUDisplayInterpolation.cxx">
<polygon fill="none" stroke="#000000" points="1415.5,-178.5 1415.5,-230.5 1613.5,-230.5 1613.5,-178.5 1415.5,-178.5"/>
<text text-anchor="start" x="1423.5" y="-218.5" font-family="Helvetica,sans-Serif" font-size="10.00" fill="#000000">/home/travis/build</text>
<text text-anchor="start" x="1423.5" y="-207.5" font-family="Helvetica,sans-Serif" font-size="10.00" fill="#000000">/AliceO2Group/AliceO2</text>
<text text-anchor="start" x="1423.5" y="-196.5" font-family="Helvetica,sans-Serif" font-size="10.00" fill="#000000">/GPU/GPUTracking/Standalone</text>
<text text-anchor="middle" x="1514.5" y="-185.5" font-family="Helvetica,sans-Serif" font-size="10.00" fill="#000000">/display/GPUDisplayInterpolation.cxx</text>
</a>
</g>
</g>
<!-- Node11&#45;&gt;Node16 -->
<g id="edge16" class="edge">
<title>Node11&#45;&gt;Node16</title>
<path fill="none" stroke="#191970" d="M1576.8762,-260.5755C1565.8524,-250.6653 1553.913,-239.9319 1543.4593,-230.5341"/>
<polygon fill="#191970" stroke="#191970" points="1574.5556,-263.1958 1584.3322,-267.2784 1579.2354,-257.9901 1574.5556,-263.1958"/>
</g>
<!-- Node17 -->
<g id="node17" class="node">
<title>Node17</title>
<g id="a_node17"><a xlink:href="../../d8/d90/GPUDisplayKeys_8cxx.html" target="_top" xlink:title="/home/travis/build\l/AliceO2Group/AliceO2\l/GPU/GPUTracking/Standalone\l/display/GPUDisplayKeys.cxx">
<polygon fill="none" stroke="#000000" points="1632,-178.5 1632,-230.5 1795,-230.5 1795,-178.5 1632,-178.5"/>
<text text-anchor="start" x="1640" y="-218.5" font-family="Helvetica,sans-Serif" font-size="10.00" fill="#000000">/home/travis/build</text>
<text text-anchor="start" x="1640" y="-207.5" font-family="Helvetica,sans-Serif" font-size="10.00" fill="#000000">/AliceO2Group/AliceO2</text>
<text text-anchor="start" x="1640" y="-196.5" font-family="Helvetica,sans-Serif" font-size="10.00" fill="#000000">/GPU/GPUTracking/Standalone</text>
<text text-anchor="middle" x="1713.5" y="-185.5" font-family="Helvetica,sans-Serif" font-size="10.00" fill="#000000">/display/GPUDisplayKeys.cxx</text>
</a>
</g>
</g>
<!-- Node11&#45;&gt;Node17 -->
<g id="edge17" class="edge">
<title>Node11&#45;&gt;Node17</title>
<path fill="none" stroke="#191970" d="M1650.4938,-260.5755C1661.6289,-250.6653 1673.6889,-239.9319 1684.2481,-230.5341"/>
<polygon fill="#191970" stroke="#191970" points="1648.1055,-258.0156 1642.9624,-267.2784 1652.7593,-263.2446 1648.1055,-258.0156"/>
</g>
<!-- Node18 -->
<g id="node18" class="node">
<title>Node18</title>
<g id="a_node18"><a xlink:href="../../dc/d7e/GPUDisplayQuaternion_8cxx.html" target="_top" xlink:title="/home/travis/build\l/AliceO2Group/AliceO2\l/GPU/GPUTracking/Standalone\l/display/GPUDisplayQuaternion.cxx">
<polygon fill="none" stroke="#000000" points="1813.5,-178.5 1813.5,-230.5 2003.5,-230.5 2003.5,-178.5 1813.5,-178.5"/>
<text text-anchor="start" x="1821.5" y="-218.5" font-family="Helvetica,sans-Serif" font-size="10.00" fill="#000000">/home/travis/build</text>
<text text-anchor="start" x="1821.5" y="-207.5" font-family="Helvetica,sans-Serif" font-size="10.00" fill="#000000">/AliceO2Group/AliceO2</text>
<text text-anchor="start" x="1821.5" y="-196.5" font-family="Helvetica,sans-Serif" font-size="10.00" fill="#000000">/GPU/GPUTracking/Standalone</text>
<text text-anchor="middle" x="1908.5" y="-185.5" font-family="Helvetica,sans-Serif" font-size="10.00" fill="#000000">/display/GPUDisplayQuaternion.cxx</text>
</a>
</g>
</g>
<!-- Node11&#45;&gt;Node18 -->
<g id="edge18" class="edge">
<title>Node11&#45;&gt;Node18</title>
<path fill="none" stroke="#191970" d="M1705.1475,-265.8504C1742.4785,-254.5879 1785.4097,-241.6357 1822.1772,-230.5432"/>
<polygon fill="#191970" stroke="#191970" points="1703.845,-262.5875 1695.2822,-268.8267 1705.8669,-269.2891 1703.845,-262.5875"/>
</g>
<!-- Node20&#45;&gt;Node5 -->
<g id="edge22" class="edge">
<title>Node20&#45;&gt;Node5</title>
<path fill="none" stroke="#191970" d="M2157.6602,-355.9984C1971.7747,-330.6712 967.3221,-303.4269 664.7521,-295.6648"/>
<polygon fill="#191970" stroke="#191970" points="2157.3752,-359.4946 2167.7824,-357.5095 2158.4088,-352.5713 2157.3752,-359.4946"/>
</g>
<!-- Node21 -->
<g id="node21" class="node">
<title>Node21</title>
<g id="a_node21"><a xlink:href="../../da/dcc/GPUQA_8h.html" target="_top" xlink:title="/home/travis/build\l/AliceO2Group/AliceO2\l/GPU/GPUTracking/Standalone\l/qa/GPUQA.h">
<polygon fill="none" stroke="#000000" points="2168,-267.5 2168,-319.5 2331,-319.5 2331,-267.5 2168,-267.5"/>
<text text-anchor="start" x="2176" y="-307.5" font-family="Helvetica,sans-Serif" font-size="10.00" fill="#000000">/home/travis/build</text>
<text text-anchor="start" x="2176" y="-296.5" font-family="Helvetica,sans-Serif" font-size="10.00" fill="#000000">/AliceO2Group/AliceO2</text>
<text text-anchor="start" x="2176" y="-285.5" font-family="Helvetica,sans-Serif" font-size="10.00" fill="#000000">/GPU/GPUTracking/Standalone</text>
<text text-anchor="middle" x="2249.5" y="-274.5" font-family="Helvetica,sans-Serif" font-size="10.00" fill="#000000">/qa/GPUQA.h</text>
</a>
</g>
</g>
<!-- Node20&#45;&gt;Node21 -->
<g id="edge23" class="edge">
<title>Node20&#45;&gt;Node21</title>
<path fill="none" stroke="#191970" d="M2249.5,-346.1155C2249.5,-337.2061 2249.5,-327.8475 2249.5,-319.5341"/>
<polygon fill="#191970" stroke="#191970" points="2246.0001,-346.2784 2249.5,-356.2784 2253.0001,-346.2785 2246.0001,-346.2784"/>
</g>
<!-- Node21&#45;&gt;Node3 -->
<g id="edge24" class="edge">
<title>Node21&#45;&gt;Node3</title>
<path fill="none" stroke="#191970" d="M2157.6403,-289.047C1878.3101,-275.4741 1056.3461,-235.2844 1028.5,-231 1025.6971,-230.5687 1022.8596,-230.0926 1020.0021,-229.5785"/>
<polygon fill="#191970" stroke="#191970" points="2157.5869,-292.5484 2167.745,-289.5379 2157.9266,-285.5567 2157.5869,-292.5484"/>
</g>
<!-- Node21&#45;&gt;Node12 -->
<g id="edge25" class="edge">
<title>Node21&#45;&gt;Node12</title>
<path fill="none" stroke="#191970" d="M2194.0795,-262.2821C2175.6629,-251.9082 2155.364,-240.4741 2137.7179,-230.5341"/>
<polygon fill="#191970" stroke="#191970" points="2192.5188,-265.42 2202.9494,-267.2784 2195.9543,-259.321 2192.5188,-265.42"/>
</g>
<!-- Node21&#45;&gt;Node13 -->
<g id="edge26" class="edge">
<title>Node21&#45;&gt;Node13</title>
<path fill="none" stroke="#191970" d="M2249.5,-257.1155C2249.5,-248.2061 2249.5,-238.8475 2249.5,-230.5341"/>
<polygon fill="#191970" stroke="#191970" points="2246.0001,-257.2784 2249.5,-267.2784 2253.0001,-257.2785 2246.0001,-257.2784"/>
</g>
<!-- Node22 -->
<g id="node22" class="node">
<title>Node22</title>
<g id="a_node22"><a xlink:href="../../d0/dd4/GPUTPCGMMerger_8cxx.html" target="_top" xlink:title="/home/travis/build\l/AliceO2Group/AliceO2\l/GPU/GPUTracking/Merger\l/GPUTPCGMMerger.cxx">
<polygon fill="none" stroke="#000000" points="2337.5,-178.5 2337.5,-230.5 2479.5,-230.5 2479.5,-178.5 2337.5,-178.5"/>
<text text-anchor="start" x="2345.5" y="-218.5" font-family="Helvetica,sans-Serif" font-size="10.00" fill="#000000">/home/travis/build</text>
<text text-anchor="start" x="2345.5" y="-207.5" font-family="Helvetica,sans-Serif" font-size="10.00" fill="#000000">/AliceO2Group/AliceO2</text>
<text text-anchor="start" x="2345.5" y="-196.5" font-family="Helvetica,sans-Serif" font-size="10.00" fill="#000000">/GPU/GPUTracking/Merger</text>
<text text-anchor="middle" x="2408.5" y="-185.5" font-family="Helvetica,sans-Serif" font-size="10.00" fill="#000000">/GPUTPCGMMerger.cxx</text>
</a>
</g>
</g>
<!-- Node21&#45;&gt;Node22 -->
<g id="edge27" class="edge">
<title>Node21&#45;&gt;Node22</title>
<path fill="none" stroke="#191970" d="M2305.2712,-262.2821C2323.8045,-251.9082 2344.2318,-240.4741 2361.9896,-230.5341"/>
<polygon fill="#191970" stroke="#191970" points="2303.3617,-259.3399 2296.3453,-267.2784 2306.7808,-265.4481 2303.3617,-259.3399"/>
</g>
<!-- Node21&#45;&gt;Node25 -->
<g id="edge30" class="edge">
<title>Node21&#45;&gt;Node25</title>
<path fill="none" stroke="#191970" d="M2341.0776,-268.1709C2342.5622,-267.7765 2344.0372,-267.386 2345.5,-267 2408.8698,-250.2793 2425.2491,-248.165 2488.5,-231 2491.5173,-230.1812 2494.588,-229.3379 2497.6875,-228.4784"/>
<polygon fill="#191970" stroke="#191970" points="2339.9234,-264.8565 2331.1668,-270.8208 2341.7316,-271.6189 2339.9234,-264.8565"/>
</g>
<!-- Node21&#45;&gt;Node26 -->
<g id="edge31" class="edge">
<title>Node21&#45;&gt;Node26</title>
<path fill="none" stroke="#191970" d="M2341.3672,-274.4439C2355.4495,-271.7802 2369.8418,-269.2043 2383.5,-267 2510.4129,-246.5172 2544.6516,-257.2411 2670.5,-231 2673.2107,-230.4348 2675.9583,-229.8278 2678.7259,-229.187"/>
<polygon fill="#191970" stroke="#191970" points="2340.3456,-271.0758 2331.1828,-276.3948 2341.6627,-277.9508 2340.3456,-271.0758"/>
</g>
<!-- Node23 -->
<g id="node23" class="node">
<title>Node23</title>
<g id="a_node23"><a xlink:href="../../d0/d25/GPUReconstructionIncludesDevice_8h.html" target="_top" xlink:title="/home/travis/build\l/AliceO2Group/AliceO2\l/GPU/GPUTracking/Base\l/GPUReconstructionIncludesDevice.h">
<polygon fill="none" stroke="#000000" points="2310.5,-89.5 2310.5,-141.5 2506.5,-141.5 2506.5,-89.5 2310.5,-89.5"/>
<text text-anchor="start" x="2318.5" y="-129.5" font-family="Helvetica,sans-Serif" font-size="10.00" fill="#000000">/home/travis/build</text>
<text text-anchor="start" x="2318.5" y="-118.5" font-family="Helvetica,sans-Serif" font-size="10.00" fill="#000000">/AliceO2Group/AliceO2</text>
<text text-anchor="start" x="2318.5" y="-107.5" font-family="Helvetica,sans-Serif" font-size="10.00" fill="#000000">/GPU/GPUTracking/Base</text>
<text text-anchor="middle" x="2408.5" y="-96.5" font-family="Helvetica,sans-Serif" font-size="10.00" fill="#000000">/GPUReconstructionIncludesDevice.h</text>
</a>
</g>
</g>
<!-- Node22&#45;&gt;Node23 -->
<g id="edge28" class="edge">
<title>Node22&#45;&gt;Node23</title>
<path fill="none" stroke="#191970" d="M2408.5,-168.1155C2408.5,-159.2061 2408.5,-149.8475 2408.5,-141.5341"/>
<polygon fill="#191970" stroke="#191970" points="2405.0001,-168.2784 2408.5,-178.2784 2412.0001,-168.2785 2405.0001,-168.2784"/>
</g>
<!-- Node24 -->
<g id="node24" class="node">
<title>Node24</title>
<g id="a_node24"><a xlink:href="../../d3/d33/GPUReconstructionHIP_8hip_8cxx.html" target="_top" xlink:title="/home/travis/build\l/AliceO2Group/AliceO2\l/GPU/GPUTracking/Base\l/hip/GPUReconstructionHIP.hip.cxx">
<polygon fill="none" stroke="#000000" points="2316.5,-.5 2316.5,-52.5 2500.5,-52.5 2500.5,-.5 2316.5,-.5"/>
<text text-anchor="start" x="2324.5" y="-40.5" font-family="Helvetica,sans-Serif" font-size="10.00" fill="#000000">/home/travis/build</text>
<text text-anchor="start" x="2324.5" y="-29.5" font-family="Helvetica,sans-Serif" font-size="10.00" fill="#000000">/AliceO2Group/AliceO2</text>
<text text-anchor="start" x="2324.5" y="-18.5" font-family="Helvetica,sans-Serif" font-size="10.00" fill="#000000">/GPU/GPUTracking/Base</text>
<text text-anchor="middle" x="2408.5" y="-7.5" font-family="Helvetica,sans-Serif" font-size="10.00" fill="#000000">/hip/GPUReconstructionHIP.hip.cxx</text>
</a>
</g>
</g>
<!-- Node23&#45;&gt;Node24 -->
<g id="edge29" class="edge">
<title>Node23&#45;&gt;Node24</title>
<path fill="none" stroke="#191970" d="M2408.5,-79.1155C2408.5,-70.2061 2408.5,-60.8475 2408.5,-52.5341"/>
<polygon fill="#191970" stroke="#191970" points="2405.0001,-79.2784 2408.5,-89.2784 2412.0001,-79.2785 2405.0001,-79.2784"/>
</g>
</g>
</svg>
