<?xml version="1.0" encoding="UTF-8" standalone="no"?>
<!DOCTYPE svg PUBLIC "-//W3C//DTD SVG 1.1//EN"
 "http://www.w3.org/Graphics/SVG/1.1/DTD/svg11.dtd">
<!-- Generated by graphviz version 2.40.1 (20161225.0304)
 -->
<!-- Title: /home/travis/build/AliceO2Group/AliceO2/Framework/Core/include/Framework/RootTableBuilderHelpers.h Pages: 1 -->
<!--zoomable 341 -->
<svg id="main" version="1.1" xmlns="http://www.w3.org/2000/svg" xmlns:xlink="http://www.w3.org/1999/xlink" xml:space="preserve" onload="init(evt)">
<style type="text/css"><![CDATA[
.edge:hover path { stroke: red; }
.edge:hover polygon { stroke: red; fill: red; }
]]></style>
<script type="text/javascript"><![CDATA[
var edges = document.getElementsByTagName('g');
if (edges && edges.length) {
  for (var i=0;i<edges.length;i++) {
    if (edges[i].id.substr(0,4)=='edge') {
      edges[i].setAttribute('class','edge');
    }
  }
}
]]></script>
        <defs>
                <circle id="rim" cx="0" cy="0" r="7"/>
                <circle id="rim2" cx="0" cy="0" r="3.5"/>
                <g id="zoomPlus">
                        <use xlink:href="#rim" fill="#404040">
                                <set attributeName="fill" to="#808080" begin="zoomplus.mouseover" end="zoomplus.mouseout"/>
                        </use>
                        <path d="M-4,0h8M0,-4v8" fill="none" stroke="white" stroke-width="1.5" pointer-events="none"/>
                </g>
                <g id="zoomMin">
                        <use xlink:href="#rim" fill="#404040">
                                <set attributeName="fill" to="#808080" begin="zoomminus.mouseover" end="zoomminus.mouseout"/>
                        </use>
                        <path d="M-4,0h8" fill="none" stroke="white" stroke-width="1.5" pointer-events="none"/>
                </g>
                <g id="dirArrow">
                        <path fill="none" stroke="white" stroke-width="1.5" d="M0,-3.0v7 M-2.5,-0.5L0,-3.0L2.5,-0.5"/>
                </g>
               <g id="resetDef">
                       <use xlink:href="#rim2" fill="#404040">
                               <set attributeName="fill" to="#808080" begin="reset.mouseover" end="reset.mouseout"/>
                       </use>
               </g>
        </defs>

<script type="text/javascript">
var viewWidth = 2734;
var viewHeight = 341;
var sectionId = 'dynsection-0';
</script>
<script xlink:href="../../svgpan.js"/>
<svg id="graph" class="graph">
<g id="viewport">
<title>/home/travis/build/AliceO2Group/AliceO2/Framework/Core/include/Framework/RootTableBuilderHelpers.h</title>
<!-- Node0 -->
<g id="node1" class="node">
<title>Node0</title>
<polygon fill="#bfbfbf" stroke="#000000" points="2027.3157,-280.5 2027.3157,-332.5 2232.3157,-332.5 2232.3157,-280.5 2027.3157,-280.5"/>
<text text-anchor="start" x="2035.3157" y="-320.5" font-family="Helvetica,sans-Serif" font-size="10.00" fill="#000000">/home/travis/build</text>
<text text-anchor="start" x="2035.3157" y="-309.5" font-family="Helvetica,sans-Serif" font-size="10.00" fill="#000000">/AliceO2Group/AliceO2</text>
<text text-anchor="start" x="2035.3157" y="-298.5" font-family="Helvetica,sans-Serif" font-size="10.00" fill="#000000">/Framework/Core/include</text>
<text text-anchor="middle" x="2129.8157" y="-287.5" font-family="Helvetica,sans-Serif" font-size="10.00" fill="#000000">/Framework/RootTableBuilderHelpers.h</text>
</g>
<!-- Node1 -->
<g id="node2" class="node">
<title>Node1</title>
<g id="a_node2"><a xlink:href="../../d5/d98/TableBuilder_8h.html" target="_top" xlink:title="Framework/TableBuilder.h">
<polygon fill="none" stroke="#000000" points="1036.8157,-224.5 1036.8157,-243.5 1178.8157,-243.5 1178.8157,-224.5 1036.8157,-224.5"/>
<text text-anchor="middle" x="1107.8157" y="-231.5" font-family="Helvetica,sans-Serif" font-size="10.00" fill="#000000">Framework/TableBuilder.h</text>
</a>
</g>
</g>
<!-- Node0&#45;&gt;Node1 -->
<g id="edge1" class="edge">
<title>Node0&#45;&gt;Node1</title>
<path fill="none" stroke="#191970" d="M2027.1431,-299.2165C1823.8318,-284.7937 1373.74,-252.8645 1189.1804,-239.772"/>
<polygon fill="#191970" stroke="#191970" points="1189.2236,-236.2663 1179.001,-239.0498 1188.7283,-243.2488 1189.2236,-236.2663"/>
</g>
<!-- Node19 -->
<g id="node20" class="node">
<title>Node19</title>
<polygon fill="none" stroke="#bfbfbf" points="504.3157,-56.5 504.3157,-75.5 585.3157,-75.5 585.3157,-56.5 504.3157,-56.5"/>
<text text-anchor="middle" x="544.8157" y="-63.5" font-family="Helvetica,sans-Serif" font-size="10.00" fill="#000000">arrow/table.h</text>
</g>
<!-- Node0&#45;&gt;Node19 -->
<g id="edge61" class="edge">
<title>Node0&#45;&gt;Node19</title>
<path fill="none" stroke="#191970" d="M2027.2426,-304.5549C1658.0236,-297.3561 409.2141,-271.2317 231.8157,-244 140.1537,-229.9293 98.1801,-251.7333 30.8157,-188 5.5239,-164.0715 -11.7216,-137.6562 11.8157,-112 27.9968,-94.3623 363.8035,-75.299 493.9274,-68.5456"/>
<polygon fill="#191970" stroke="#191970" points="494.2298,-72.0347 504.0362,-68.0243 493.8692,-65.044 494.2298,-72.0347"/>
</g>
<!-- Node24 -->
<g id="node25" class="node">
<title>Node24</title>
<polygon fill="none" stroke="#bfbfbf" points="2159.8157,-56.5 2159.8157,-75.5 2203.8157,-75.5 2203.8157,-56.5 2159.8157,-56.5"/>
<text text-anchor="middle" x="2181.8157" y="-63.5" font-family="Helvetica,sans-Serif" font-size="10.00" fill="#000000">string</text>
</g>
<!-- Node0&#45;&gt;Node24 -->
<g id="edge67" class="edge">
<title>Node0&#45;&gt;Node24</title>
<path fill="none" stroke="#191970" d="M2138.0457,-280.3634C2145.3324,-256.4975 2155.8619,-220.1443 2162.8157,-188 2170.5629,-152.1881 2176.4351,-109.8095 2179.4823,-85.5988"/>
<polygon fill="#191970" stroke="#191970" points="2182.9699,-85.9131 2180.7137,-75.5613 2176.022,-85.0606 2182.9699,-85.9131"/>
</g>
<!-- Node25 -->
<g id="node26" class="node">
<title>Node25</title>
<polygon fill="none" stroke="#bfbfbf" points="2221.8157,-56.5 2221.8157,-75.5 2279.8157,-75.5 2279.8157,-56.5 2221.8157,-56.5"/>
<text text-anchor="middle" x="2250.8157" y="-63.5" font-family="Helvetica,sans-Serif" font-size="10.00" fill="#000000">memory</text>
</g>
<!-- Node0&#45;&gt;Node25 -->
<g id="edge68" class="edge">
<title>Node0&#45;&gt;Node25</title>
<path fill="none" stroke="#191970" d="M2144.9883,-280.2349C2151.2779,-269.137 2158.5527,-256.0219 2164.8157,-244 2194.5775,-186.8722 2226.9256,-117.8337 2242.0703,-85.0563"/>
<polygon fill="#191970" stroke="#191970" points="2245.3525,-86.2965 2246.3578,-75.7495 2238.9947,-83.3675 2245.3525,-86.2965"/>
</g>
<!-- Node34 -->
<g id="node35" class="node">
<title>Node34</title>
<polygon fill="none" stroke="#bfbfbf" points="21.3157,-112.5 21.3157,-131.5 62.3157,-131.5 62.3157,-112.5 21.3157,-112.5"/>
<text text-anchor="middle" x="41.8157" y="-119.5" font-family="Helvetica,sans-Serif" font-size="10.00" fill="#000000">tuple</text>
</g>
<!-- Node0&#45;&gt;Node34 -->
<g id="edge69" class="edge">
<title>Node0&#45;&gt;Node34</title>
<path fill="none" stroke="#191970" d="M2027.075,-304.4791C1616.682,-295.9225 113.7052,-259.7706 43.8157,-188 32.2166,-176.0887 33.118,-156.4906 36.079,-141.7383"/>
<polygon fill="#191970" stroke="#191970" points="39.5806,-142.1559 38.5717,-131.6092 32.7834,-140.483 39.5806,-142.1559"/>
</g>
<!-- Node37 -->
<g id="node38" class="node">
<title>Node37</title>
<polygon fill="none" stroke="#bfbfbf" points="1785.8157,-168.5 1785.8157,-187.5 1853.8157,-187.5 1853.8157,-168.5 1785.8157,-168.5"/>
<text text-anchor="middle" x="1819.8157" y="-175.5" font-family="Helvetica,sans-Serif" font-size="10.00" fill="#000000">arrow/stl.h</text>
</g>
<!-- Node0&#45;&gt;Node37 -->
<g id="edge59" class="edge">
<title>Node0&#45;&gt;Node37</title>
<path fill="none" stroke="#191970" d="M2067.0826,-280.4961C2002.0646,-253.5451 1902.9914,-212.4777 1852.248,-191.4437"/>
<polygon fill="#191970" stroke="#191970" points="1853.3462,-188.1102 1842.7682,-187.5142 1850.6657,-194.5767 1853.3462,-188.1102"/>
</g>
<!-- Node38 -->
<g id="node39" class="node">
<title>Node38</title>
<polygon fill="none" stroke="#bfbfbf" points="1872.3157,-168.5 1872.3157,-187.5 1981.3157,-187.5 1981.3157,-168.5 1872.3157,-168.5"/>
<text text-anchor="middle" x="1926.8157" y="-175.5" font-family="Helvetica,sans-Serif" font-size="10.00" fill="#000000">arrow/type_traits.h</text>
</g>
<!-- Node0&#45;&gt;Node38 -->
<g id="edge60" class="edge">
<title>Node0&#45;&gt;Node38</title>
<path fill="none" stroke="#191970" d="M2088.7356,-280.4961C2047.2237,-254.2189 1984.5123,-214.5222 1950.6043,-193.0583"/>
<polygon fill="#191970" stroke="#191970" points="1952.1673,-189.9054 1941.8459,-187.5142 1948.4233,-195.8201 1952.1673,-189.9054"/>
</g>
<!-- Node39 -->
<g id="node40" class="node">
<title>Node39</title>
<polygon fill="none" stroke="#bfbfbf" points="1999.3157,-168.5 1999.3157,-187.5 2088.3157,-187.5 2088.3157,-168.5 1999.3157,-168.5"/>
<text text-anchor="middle" x="2043.8157" y="-175.5" font-family="Helvetica,sans-Serif" font-size="10.00" fill="#000000">arrow/builder.h</text>
</g>
<!-- Node0&#45;&gt;Node39 -->
<g id="edge62" class="edge">
<title>Node0&#45;&gt;Node39</title>
<path fill="none" stroke="#191970" d="M2112.4123,-280.4961C2095.5776,-255.3418 2070.5129,-217.8906 2055.8005,-195.9075"/>
<polygon fill="#191970" stroke="#191970" points="2058.6538,-193.878 2050.1832,-187.5142 2052.8364,-197.7714 2058.6538,-193.878"/>
</g>
<!-- Node40 -->
<g id="node41" class="node">
<title>Node40</title>
<polygon fill="none" stroke="#bfbfbf" points="2106.3157,-168.5 2106.3157,-187.5 2153.3157,-187.5 2153.3157,-168.5 2106.3157,-168.5"/>
<text text-anchor="middle" x="2129.8157" y="-175.5" font-family="Helvetica,sans-Serif" font-size="10.00" fill="#000000">vector</text>
</g>
<!-- Node0&#45;&gt;Node40 -->
<g id="edge66" class="edge">
<title>Node0&#45;&gt;Node40</title>
<path fill="none" stroke="#191970" d="M2129.8157,-280.4961C2129.8157,-256.0156 2129.8157,-219.8881 2129.8157,-197.7068"/>
<polygon fill="#191970" stroke="#191970" points="2133.3158,-197.5141 2129.8157,-187.5142 2126.3158,-197.5142 2133.3158,-197.5141"/>
</g>
<!-- Node41 -->
<g id="node42" class="node">
<title>Node41</title>
<g id="a_node42"><a xlink:href="../../dd/da4/Logger_8h.html" target="_top" xlink:title="Framework/Logger.h">
<polygon fill="none" stroke="#000000" points="2248.3157,-224.5 2248.3157,-243.5 2363.3157,-243.5 2363.3157,-224.5 2248.3157,-224.5"/>
<text text-anchor="middle" x="2305.8157" y="-231.5" font-family="Helvetica,sans-Serif" font-size="10.00" fill="#000000">Framework/Logger.h</text>
</a>
</g>
</g>
<!-- Node0&#45;&gt;Node41 -->
<g id="edge58" class="edge">
<title>Node0&#45;&gt;Node41</title>
<path fill="none" stroke="#191970" d="M2193.3557,-280.3258C2220.4592,-269.161 2250.9254,-256.6111 2273.3044,-247.3924"/>
<polygon fill="#191970" stroke="#191970" points="2274.758,-250.5791 2282.6711,-243.534 2272.0917,-244.1067 2274.758,-250.5791"/>
</g>
<!-- Node42 -->
<g id="node43" class="node">
<title>Node42</title>
<polygon fill="none" stroke="#bfbfbf" points="2381.3157,-224.5 2381.3157,-243.5 2466.3157,-243.5 2466.3157,-224.5 2381.3157,-224.5"/>
<text text-anchor="middle" x="2423.8157" y="-231.5" font-family="Helvetica,sans-Serif" font-size="10.00" fill="#000000">TTreeReader.h</text>
</g>
<!-- Node0&#45;&gt;Node42 -->
<g id="edge63" class="edge">
<title>Node0&#45;&gt;Node42</title>
<path fill="none" stroke="#191970" d="M2232.6426,-281.143C2280.9801,-269.2231 2336.3426,-255.5708 2375.0066,-246.0363"/>
<polygon fill="#191970" stroke="#191970" points="2376.0838,-249.3756 2384.9549,-243.583 2374.4078,-242.5791 2376.0838,-249.3756"/>
</g>
<!-- Node43 -->
<g id="node44" class="node">
<title>Node43</title>
<polygon fill="none" stroke="#bfbfbf" points="2484.3157,-224.5 2484.3157,-243.5 2597.3157,-243.5 2597.3157,-224.5 2484.3157,-224.5"/>
<text text-anchor="middle" x="2540.8157" y="-231.5" font-family="Helvetica,sans-Serif" font-size="10.00" fill="#000000">TTreeReaderValue.h</text>
</g>
<!-- Node0&#45;&gt;Node43 -->
<g id="edge64" class="edge">
<title>Node0&#45;&gt;Node43</title>
<path fill="none" stroke="#191970" d="M2232.4682,-288.3922C2309.09,-274.8762 2411.4136,-256.8264 2476.7303,-245.3046"/>
<polygon fill="#191970" stroke="#191970" points="2477.6459,-248.6972 2486.8859,-243.5132 2476.4299,-241.8036 2477.6459,-248.6972"/>
</g>
<!-- Node44 -->
<g id="node45" class="node">
<title>Node44</title>
<polygon fill="none" stroke="#bfbfbf" points="2615.8157,-224.5 2615.8157,-243.5 2725.8157,-243.5 2725.8157,-224.5 2615.8157,-224.5"/>
<text text-anchor="middle" x="2670.8157" y="-231.5" font-family="Helvetica,sans-Serif" font-size="10.00" fill="#000000">TTreeReaderArray.h</text>
</g>
<!-- Node0&#45;&gt;Node44 -->
<g id="edge65" class="edge">
<title>Node0&#45;&gt;Node44</title>
<path fill="none" stroke="#191970" d="M2232.7342,-293.7606C2327.0479,-281.914 2470.8268,-263.422 2605.5725,-244.1529"/>
<polygon fill="#191970" stroke="#191970" points="2606.2688,-247.589 2615.6707,-242.705 2605.2751,-240.6599 2606.2688,-247.589"/>
</g>
<!-- Node2 -->
<g id="node3" class="node">
<title>Node2</title>
<g id="a_node3"><a xlink:href="../../de/d33/ASoA_8h.html" target="_top" xlink:title="Framework/ASoA.h">
<polygon fill="none" stroke="#000000" points="1053.8157,-168.5 1053.8157,-187.5 1161.8157,-187.5 1161.8157,-168.5 1053.8157,-168.5"/>
<text text-anchor="middle" x="1107.8157" y="-175.5" font-family="Helvetica,sans-Serif" font-size="10.00" fill="#000000">Framework/ASoA.h</text>
</a>
</g>
</g>
<!-- Node1&#45;&gt;Node2 -->
<g id="edge2" class="edge">
<title>Node1&#45;&gt;Node2</title>
<path fill="none" stroke="#191970" d="M1107.8157,-224.2455C1107.8157,-216.9382 1107.8157,-206.6944 1107.8157,-197.7046"/>
<polygon fill="#191970" stroke="#191970" points="1111.3158,-197.6426 1107.8157,-187.6427 1104.3158,-197.6427 1111.3158,-197.6426"/>
</g>
<!-- Node8 -->
<g id="node9" class="node">
<title>Node8</title>
<g id="a_node9"><a xlink:href="../../de/d9b/FunctionalHelpers_8h.html" target="_top" xlink:title="Framework/FunctionalHelpers.h">
<polygon fill="none" stroke="#000000" points="348.8157,-112.5 348.8157,-131.5 518.8157,-131.5 518.8157,-112.5 348.8157,-112.5"/>
<text text-anchor="middle" x="433.8157" y="-119.5" font-family="Helvetica,sans-Serif" font-size="10.00" fill="#000000">Framework/FunctionalHelpers.h</text>
</a>
</g>
</g>
<!-- Node1&#45;&gt;Node8 -->
<g id="edge45" class="edge">
<title>Node1&#45;&gt;Node8</title>
<path fill="none" stroke="#191970" d="M1036.5409,-224.98C970.1964,-216.3455 868.6281,-202.5188 780.8157,-188 677.9495,-170.9923 558.6609,-147.4637 490.1372,-133.5779"/>
<polygon fill="#191970" stroke="#191970" points="490.4913,-130.0784 479.9947,-131.5179 489.0979,-136.9384 490.4913,-130.0784"/>
</g>
<!-- Node9 -->
<g id="node10" class="node">
<title>Node9</title>
<polygon fill="none" stroke="#bfbfbf" points="271.3157,-56.5 271.3157,-75.5 336.3157,-75.5 336.3157,-56.5 271.3157,-56.5"/>
<text text-anchor="middle" x="303.8157" y="-63.5" font-family="Helvetica,sans-Serif" font-size="10.00" fill="#000000">functional</text>
</g>
<!-- Node1&#45;&gt;Node9 -->
<g id="edge53" class="edge">
<title>Node1&#45;&gt;Node9</title>
<path fill="none" stroke="#191970" d="M1036.6246,-232.3974C889.8288,-228.5433 558.1124,-216.847 448.8157,-188 393.0751,-173.2882 371.6488,-173.6747 331.8157,-132 319.4798,-119.0938 312.1773,-99.9304 308.1404,-85.5734"/>
<polygon fill="#191970" stroke="#191970" points="311.4943,-84.5588 305.6607,-75.7146 304.7058,-86.2663 311.4943,-84.5588"/>
</g>
<!-- Node1&#45;&gt;Node19 -->
<g id="edge51" class="edge">
<title>Node1&#45;&gt;Node19</title>
<path fill="none" stroke="#191970" d="M1036.4873,-229.9006C854.5823,-218.7104 384.5382,-184.8978 339.8157,-132 334.0768,-125.212 334.2608,-118.9394 339.8157,-112 358.7672,-88.3248 439.59,-75.998 493.9121,-70.2658"/>
<polygon fill="#191970" stroke="#191970" points="494.4646,-73.7279 504.0612,-69.2384 493.7595,-66.7635 494.4646,-73.7279"/>
</g>
<!-- Node1&#45;&gt;Node24 -->
<g id="edge55" class="edge">
<title>Node1&#45;&gt;Node24</title>
<path fill="none" stroke="#191970" d="M1178.9007,-231.6709C1315.8279,-225.6314 1624.5745,-204.4463 1872.8157,-132 1893.0489,-126.0952 1895.641,-118.1014 1915.8157,-112 2013.8928,-82.3389 2046.0413,-99.1991 2149.6668,-75.9399"/>
<polygon fill="#191970" stroke="#191970" points="2150.6333,-79.3088 2159.5851,-73.6417 2149.0531,-72.4895 2150.6333,-79.3088"/>
</g>
<!-- Node1&#45;&gt;Node25 -->
<g id="edge56" class="edge">
<title>Node1&#45;&gt;Node25</title>
<path fill="none" stroke="#191970" d="M1178.8352,-231.2328C1287.5956,-226.3368 1501.7473,-214.0963 1681.8157,-188 1682.6807,-187.8746 2138.1786,-91.7714 2211.919,-75.9455"/>
<polygon fill="#191970" stroke="#191970" points="2212.7806,-79.34 2221.8066,-73.7918 2211.2908,-72.5004 2212.7806,-79.34"/>
</g>
<!-- Node33 -->
<g id="node34" class="node">
<title>Node33</title>
<g id="a_node34"><a xlink:href="../../db/d4f/StructToTuple_8h.html" target="_top" xlink:title="Framework/StructToTuple.h">
<polygon fill="none" stroke="#000000" points="70.3157,-168.5 70.3157,-187.5 217.3157,-187.5 217.3157,-168.5 70.3157,-168.5"/>
<text text-anchor="middle" x="143.8157" y="-175.5" font-family="Helvetica,sans-Serif" font-size="10.00" fill="#000000">Framework/StructToTuple.h</text>
</a>
</g>
</g>
<!-- Node1&#45;&gt;Node33 -->
<g id="edge41" class="edge">
<title>Node1&#45;&gt;Node33</title>
<path fill="none" stroke="#191970" d="M1036.6159,-231.9186C888.2414,-227.225 534.9309,-214.1944 227.5519,-188.0049"/>
<polygon fill="#191970" stroke="#191970" points="227.8178,-184.5149 217.5551,-187.1471 227.2192,-191.4893 227.8178,-184.5149"/>
</g>
<!-- Node1&#45;&gt;Node34 -->
<g id="edge57" class="edge">
<title>Node1&#45;&gt;Node34</title>
<path fill="none" stroke="#191970" d="M1036.8133,-233.1399C807.4719,-230.0682 99.1162,-218.1697 60.8157,-188 47.0817,-177.1816 42.8473,-157.1047 41.7359,-141.9239"/>
<polygon fill="#191970" stroke="#191970" points="45.2199,-141.3819 41.3892,-131.5038 38.2238,-141.6147 45.2199,-141.3819"/>
</g>
<!-- Node35 -->
<g id="node36" class="node">
<title>Node35</title>
<g id="a_node36"><a xlink:href="../../d7/dbe/VariantHelpers_8h.html" target="_top" xlink:title="Framework/VariantHelpers.h">
<polygon fill="none" stroke="#000000" points="790.3157,-168.5 790.3157,-187.5 945.3157,-187.5 945.3157,-168.5 790.3157,-168.5"/>
<text text-anchor="middle" x="867.8157" y="-175.5" font-family="Helvetica,sans-Serif" font-size="10.00" fill="#000000">Framework/VariantHelpers.h</text>
</a>
</g>
</g>
<!-- Node1&#45;&gt;Node35 -->
<g id="edge46" class="edge">
<title>Node1&#45;&gt;Node35</title>
<path fill="none" stroke="#191970" d="M1066.8309,-224.4369C1025.8431,-214.8731 962.7153,-200.1432 918.58,-189.845"/>
<polygon fill="#191970" stroke="#191970" points="919.1652,-186.3876 908.6314,-187.5237 917.5745,-193.2045 919.1652,-186.3876"/>
</g>
<!-- Node36 -->
<g id="node37" class="node">
<title>Node36</title>
<polygon fill="none" stroke="#bfbfbf" points="235.8157,-168.5 235.8157,-187.5 291.8157,-187.5 291.8157,-168.5 235.8157,-168.5"/>
<text text-anchor="middle" x="263.8157" y="-175.5" font-family="Helvetica,sans-Serif" font-size="10.00" fill="#000000">sstream</text>
</g>
<!-- Node1&#45;&gt;Node36 -->
<g id="edge48" class="edge">
<title>Node1&#45;&gt;Node36</title>
<path fill="none" stroke="#191970" d="M1036.6211,-231.5295C867.5869,-225.4032 445.7903,-208.5139 305.8157,-188 304.5642,-187.8166 303.2952,-187.6139 302.0164,-187.3953"/>
<polygon fill="#191970" stroke="#191970" points="302.637,-183.9504 292.1507,-185.4627 301.2913,-190.8199 302.637,-183.9504"/>
</g>
<!-- Node1&#45;&gt;Node37 -->
<g id="edge49" class="edge">
<title>Node1&#45;&gt;Node37</title>
<path fill="none" stroke="#191970" d="M1178.8968,-232.2508C1300.7602,-228.544 1557.1902,-217.6505 1771.8157,-188 1773.0726,-187.8264 1774.3459,-187.639 1775.6294,-187.4402"/>
<polygon fill="#191970" stroke="#191970" points="1776.3064,-190.8752 1785.5664,-185.727 1775.1171,-183.977 1776.3064,-190.8752"/>
</g>
<!-- Node1&#45;&gt;Node38 -->
<g id="edge50" class="edge">
<title>Node1&#45;&gt;Node38</title>
<path fill="none" stroke="#191970" d="M1179.0465,-231.896C1311.4164,-227.497 1604.454,-215.4637 1861.7551,-188.0131"/>
<polygon fill="#191970" stroke="#191970" points="1862.4802,-191.4553 1872.0479,-186.9046 1861.7306,-184.4956 1862.4802,-191.4553"/>
</g>
<!-- Node1&#45;&gt;Node39 -->
<g id="edge52" class="edge">
<title>Node1&#45;&gt;Node39</title>
<path fill="none" stroke="#191970" d="M1178.9749,-231.4943C1356.2108,-225.0632 1814.9655,-207.2027 1989.0361,-187.903"/>
<polygon fill="#191970" stroke="#191970" points="1989.5599,-191.366 1999.0954,-186.748 1988.7614,-184.4117 1989.5599,-191.366"/>
</g>
<!-- Node1&#45;&gt;Node40 -->
<g id="edge54" class="edge">
<title>Node1&#45;&gt;Node40</title>
<path fill="none" stroke="#191970" d="M1179.0876,-232.9743C1371.7959,-229.8429 1901.166,-218.7776 2096.0555,-187.6165"/>
<polygon fill="#191970" stroke="#191970" points="2096.9045,-191.0233 2106.1917,-185.9244 2095.7519,-184.1188 2096.9045,-191.0233"/>
</g>
<!-- Node3 -->
<g id="node4" class="node">
<title>Node3</title>
<g id="a_node4"><a xlink:href="../../dd/dce/Pack_8h.html" target="_top" xlink:title="Framework/Pack.h">
<polygon fill="none" stroke="#000000" points="603.3157,-56.5 603.3157,-75.5 708.3157,-75.5 708.3157,-56.5 603.3157,-56.5"/>
<text text-anchor="middle" x="655.8157" y="-63.5" font-family="Helvetica,sans-Serif" font-size="10.00" fill="#000000">Framework/Pack.h</text>
</a>
</g>
</g>
<!-- Node2&#45;&gt;Node3 -->
<g id="edge3" class="edge">
<title>Node2&#45;&gt;Node3</title>
<path fill="none" stroke="#191970" d="M1079.3772,-168.479C1054.9188,-159.9451 1018.9276,-146.5566 988.8157,-132 973.0316,-124.3697 971.3365,-117.867 954.8157,-112 857.4565,-77.4251 825.0356,-91.553 718.7501,-76.0813"/>
<polygon fill="#191970" stroke="#191970" points="718.9865,-72.5774 708.5757,-74.5434 717.9402,-79.4988 718.9865,-72.5774"/>
</g>
<!-- Node7 -->
<g id="node8" class="node">
<title>Node7</title>
<g id="a_node8"><a xlink:href="../../d1/d00/CheckTypes_8h.html" target="_top" xlink:title="Framework/CheckTypes.h">
<polygon fill="none" stroke="#000000" points="1074.8157,-56.5 1074.8157,-75.5 1214.8157,-75.5 1214.8157,-56.5 1074.8157,-56.5"/>
<text text-anchor="middle" x="1144.8157" y="-63.5" font-family="Helvetica,sans-Serif" font-size="10.00" fill="#000000">Framework/CheckTypes.h</text>
</a>
</g>
</g>
<!-- Node2&#45;&gt;Node7 -->
<g id="edge7" class="edge">
<title>Node2&#45;&gt;Node7</title>
<path fill="none" stroke="#191970" d="M1161.8337,-168.4617C1182.6433,-161.8668 1204.3826,-150.742 1216.8157,-132 1230.78,-110.9499 1204.1119,-92.0495 1179.3715,-79.9249"/>
<polygon fill="#191970" stroke="#191970" points="1180.6178,-76.645 1170.0727,-75.6194 1177.6766,-82.9971 1180.6178,-76.645"/>
</g>
<!-- Node2&#45;&gt;Node8 -->
<g id="edge8" class="edge">
<title>Node2&#45;&gt;Node8</title>
<path fill="none" stroke="#191970" d="M1053.7997,-174.2023C952.922,-167.0038 728.7803,-150.5093 528.9585,-132.0853"/>
<polygon fill="#191970" stroke="#191970" points="529.1399,-128.5873 518.8599,-131.1506 528.4947,-135.5575 529.1399,-128.5873"/>
</g>
<!-- Node10 -->
<g id="node11" class="node">
<title>Node10</title>
<g id="a_node11"><a xlink:href="../../d9/de8/CompilerBuiltins_8h.html" target="_top" xlink:title="Framework/CompilerBuiltins.h">
<polygon fill="none" stroke="#000000" points="726.8157,-56.5 726.8157,-75.5 890.8157,-75.5 890.8157,-56.5 726.8157,-56.5"/>
<text text-anchor="middle" x="808.8157" y="-63.5" font-family="Helvetica,sans-Serif" font-size="10.00" fill="#000000">Framework/CompilerBuiltins.h</text>
</a>
</g>
</g>
<!-- Node2&#45;&gt;Node10 -->
<g id="edge11" class="edge">
<title>Node2&#45;&gt;Node10</title>
<path fill="none" stroke="#191970" d="M1093.3908,-168.3913C1071.5864,-154.2466 1028.5528,-127.7929 988.8157,-112 950.6225,-96.8207 905.8556,-85.3558 870.5212,-77.6683"/>
<polygon fill="#191970" stroke="#191970" points="870.8582,-74.1616 860.3485,-75.5022 869.4003,-81.0082 870.8582,-74.1616"/>
</g>
<!-- Node11 -->
<g id="node12" class="node">
<title>Node11</title>
<g id="a_node12"><a xlink:href="../../db/d31/Traits_8h.html" target="_top" xlink:title="Framework/Traits.h">
<polygon fill="none" stroke="#000000" points="145.3157,-112.5 145.3157,-131.5 254.3157,-131.5 254.3157,-112.5 145.3157,-112.5"/>
<text text-anchor="middle" x="199.8157" y="-119.5" font-family="Helvetica,sans-Serif" font-size="10.00" fill="#000000">Framework/Traits.h</text>
</a>
</g>
</g>
<!-- Node2&#45;&gt;Node11 -->
<g id="edge12" class="edge">
<title>Node2&#45;&gt;Node11</title>
<path fill="none" stroke="#191970" d="M1053.6557,-174.3997C1024.1427,-172.4589 986.9751,-170.0487 953.8157,-168 680.9784,-151.1433 612.5971,-149.7383 339.8157,-132 315.245,-130.4022 288.2592,-128.5078 264.593,-126.7998"/>
<polygon fill="#191970" stroke="#191970" points="264.55,-123.2876 254.3231,-126.0554 264.0438,-130.2693 264.55,-123.2876"/>
</g>
<!-- Node13 -->
<g id="node14" class="node">
<title>Node13</title>
<g id="a_node14"><a xlink:href="../../d0/d91/Expressions_8h.html" target="_top" xlink:title="Framework/Expressions.h">
<polygon fill="none" stroke="#000000" points="1426.3157,-112.5 1426.3157,-131.5 1567.3157,-131.5 1567.3157,-112.5 1426.3157,-112.5"/>
<text text-anchor="middle" x="1496.8157" y="-119.5" font-family="Helvetica,sans-Serif" font-size="10.00" fill="#000000">Framework/Expressions.h</text>
</a>
</g>
</g>
<!-- Node2&#45;&gt;Node13 -->
<g id="edge14" class="edge">
<title>Node2&#45;&gt;Node13</title>
<path fill="none" stroke="#191970" d="M1161.9045,-170.2134C1229.1347,-160.5351 1344.29,-143.9574 1420.4841,-132.9886"/>
<polygon fill="#191970" stroke="#191970" points="1421.1042,-136.4355 1430.5034,-131.5462 1420.1067,-129.5069 1421.1042,-136.4355"/>
</g>
<!-- Node2&#45;&gt;Node19 -->
<g id="edge34" class="edge">
<title>Node2&#45;&gt;Node19</title>
<path fill="none" stroke="#191970" d="M1053.7377,-171.8067C991.6262,-164.2704 886.825,-150.258 797.8157,-132 763.6003,-124.9816 755.6071,-120.8372 721.8157,-112 677.7831,-100.4845 627.5643,-87.4419 591.894,-78.1932"/>
<polygon fill="#191970" stroke="#191970" points="592.3342,-74.6917 581.7759,-75.5703 590.5776,-81.4677 592.3342,-74.6917"/>
</g>
<!-- Node20 -->
<g id="node21" class="node">
<title>Node20</title>
<polygon fill="none" stroke="#bfbfbf" points="909.3157,-56.5 909.3157,-75.5 1056.3157,-75.5 1056.3157,-56.5 909.3157,-56.5"/>
<text text-anchor="middle" x="982.8157" y="-63.5" font-family="Helvetica,sans-Serif" font-size="10.00" fill="#000000">gandiva/selection_vector.h</text>
</g>
<!-- Node2&#45;&gt;Node20 -->
<g id="edge39" class="edge">
<title>Node2&#45;&gt;Node20</title>
<path fill="none" stroke="#191970" d="M1133.7387,-168.4693C1162.0812,-156.6036 1201.1806,-135.0683 1182.8157,-112 1174.368,-101.3888 1105.2091,-87.126 1050.5517,-77.3099"/>
<polygon fill="#191970" stroke="#191970" points="1050.9905,-73.8332 1040.5326,-75.5307 1049.7665,-80.7254 1050.9905,-73.8332"/>
</g>
<!-- Node26 -->
<g id="node27" class="node">
<title>Node26</title>
<g id="a_node27"><a xlink:href="../../d1/dc1/ArrowCompatibility_8h.html" target="_top" xlink:title="Framework/ArrowCompatibility.h">
<polygon fill="none" stroke="#000000" points="536.8157,-112.5 536.8157,-131.5 712.8157,-131.5 712.8157,-112.5 536.8157,-112.5"/>
<text text-anchor="middle" x="624.8157" y="-119.5" font-family="Helvetica,sans-Serif" font-size="10.00" fill="#000000">Framework/ArrowCompatibility.h</text>
</a>
</g>
</g>
<!-- Node2&#45;&gt;Node26 -->
<g id="edge30" class="edge">
<title>Node2&#45;&gt;Node26</title>
<path fill="none" stroke="#191970" d="M1053.8154,-171.7391C972.3029,-162.2884 816.7886,-144.2577 717.0853,-132.6979"/>
<polygon fill="#191970" stroke="#191970" points="717.3522,-129.2055 707.0156,-131.5304 716.546,-136.1589 717.3522,-129.2055"/>
</g>
<!-- Node27 -->
<g id="node28" class="node">
<title>Node27</title>
<g id="a_node28"><a xlink:href="../../d4/de7/ArrowTypes_8h.html" target="_top" xlink:title="Framework/ArrowTypes.h">
<polygon fill="none" stroke="#000000" points="1269.3157,-112.5 1269.3157,-131.5 1408.3157,-131.5 1408.3157,-112.5 1269.3157,-112.5"/>
<text text-anchor="middle" x="1338.8157" y="-119.5" font-family="Helvetica,sans-Serif" font-size="10.00" fill="#000000">Framework/ArrowTypes.h</text>
</a>
</g>
</g>
<!-- Node2&#45;&gt;Node27 -->
<g id="edge32" class="edge">
<title>Node2&#45;&gt;Node27</title>
<path fill="none" stroke="#191970" d="M1147.2636,-168.4369C1186.6313,-158.8932 1247.2191,-144.2052 1289.6865,-133.9101"/>
<polygon fill="#191970" stroke="#191970" points="1290.6367,-137.2812 1299.5306,-131.5237 1288.9874,-130.4783 1290.6367,-137.2812"/>
</g>
<!-- Node28 -->
<g id="node29" class="node">
<title>Node28</title>
<polygon fill="none" stroke="#bfbfbf" points="1655.8157,-112.5 1655.8157,-131.5 1735.8157,-131.5 1735.8157,-112.5 1655.8157,-112.5"/>
<text text-anchor="middle" x="1695.8157" y="-119.5" font-family="Helvetica,sans-Serif" font-size="10.00" fill="#000000">arrow/array.h</text>
</g>
<!-- Node2&#45;&gt;Node28 -->
<g id="edge35" class="edge">
<title>Node2&#45;&gt;Node28</title>
<path fill="none" stroke="#191970" d="M1161.9878,-175.463C1257.6412,-170.5284 1462.8457,-157.904 1645.7012,-132.0098"/>
<polygon fill="#191970" stroke="#191970" points="1646.3682,-135.4501 1655.7707,-130.5671 1645.3753,-128.5209 1646.3682,-135.4501"/>
</g>
<!-- Node29 -->
<g id="node30" class="node">
<title>Node29</title>
<polygon fill="none" stroke="#bfbfbf" points="1753.8157,-112.5 1753.8157,-131.5 1863.8157,-131.5 1863.8157,-112.5 1753.8157,-112.5"/>
<text text-anchor="middle" x="1808.8157" y="-119.5" font-family="Helvetica,sans-Serif" font-size="10.00" fill="#000000">arrow/util/variant.h</text>
</g>
<!-- Node2&#45;&gt;Node29 -->
<g id="edge36" class="edge">
<title>Node2&#45;&gt;Node29</title>
<path fill="none" stroke="#191970" d="M1162.0674,-175.602C1270.5169,-170.4784 1521.9572,-156.946 1743.5037,-132.0646"/>
<polygon fill="#191970" stroke="#191970" points="1744.1548,-135.5133 1753.697,-130.9093 1743.3664,-128.5578 1744.1548,-135.5133"/>
</g>
<!-- Node30 -->
<g id="node31" class="node">
<title>Node30</title>
<polygon fill="none" stroke="#bfbfbf" points="807.3157,-112.5 807.3157,-131.5 946.3157,-131.5 946.3157,-112.5 807.3157,-112.5"/>
<text text-anchor="middle" x="876.8157" y="-119.5" font-family="Helvetica,sans-Serif" font-size="10.00" fill="#000000">arrow/compute/context.h</text>
</g>
<!-- Node2&#45;&gt;Node30 -->
<g id="edge37" class="edge">
<title>Node2&#45;&gt;Node30</title>
<path fill="none" stroke="#191970" d="M1068.3679,-168.4369C1029.0001,-158.8932 968.4123,-144.2052 925.9449,-133.9101"/>
<polygon fill="#191970" stroke="#191970" points="926.644,-130.4783 916.1008,-131.5237 924.9947,-137.2812 926.644,-130.4783"/>
</g>
<!-- Node31 -->
<g id="node32" class="node">
<title>Node31</title>
<polygon fill="none" stroke="#bfbfbf" points="1041.3157,-112.5 1041.3157,-131.5 1174.3157,-131.5 1174.3157,-112.5 1041.3157,-112.5"/>
<text text-anchor="middle" x="1107.8157" y="-119.5" font-family="Helvetica,sans-Serif" font-size="10.00" fill="#000000">arrow/compute/kernel.h</text>
</g>
<!-- Node2&#45;&gt;Node31 -->
<g id="edge38" class="edge">
<title>Node2&#45;&gt;Node31</title>
<path fill="none" stroke="#191970" d="M1107.8157,-168.2455C1107.8157,-160.9382 1107.8157,-150.6944 1107.8157,-141.7046"/>
<polygon fill="#191970" stroke="#191970" points="1111.3158,-141.6426 1107.8157,-131.6427 1104.3158,-141.6427 1111.3158,-141.6426"/>
</g>
<!-- Node32 -->
<g id="node33" class="node">
<title>Node32</title>
<polygon fill="none" stroke="#bfbfbf" points="1585.8157,-112.5 1585.8157,-131.5 1637.8157,-131.5 1637.8157,-112.5 1585.8157,-112.5"/>
<text text-anchor="middle" x="1611.8157" y="-119.5" font-family="Helvetica,sans-Serif" font-size="10.00" fill="#000000">cassert</text>
</g>
<!-- Node2&#45;&gt;Node32 -->
<g id="edge40" class="edge">
<title>Node2&#45;&gt;Node32</title>
<path fill="none" stroke="#191970" d="M1161.9363,-175.7227C1249.5359,-171.3574 1427.5418,-159.6653 1575.8157,-132 1575.9153,-131.9814 1576.0151,-131.9627 1576.115,-131.9438"/>
<polygon fill="#191970" stroke="#191970" points="1576.5837,-135.4248 1585.5926,-129.849 1575.0729,-128.5897 1576.5837,-135.4248"/>
</g>
<!-- Node4 -->
<g id="node5" class="node">
<title>Node4</title>
<polygon fill="none" stroke="#bfbfbf" points="562.3157,-.5 562.3157,-19.5 615.3157,-19.5 615.3157,-.5 562.3157,-.5"/>
<text text-anchor="middle" x="588.8157" y="-7.5" font-family="Helvetica,sans-Serif" font-size="10.00" fill="#000000">cstddef</text>
</g>
<!-- Node3&#45;&gt;Node4 -->
<g id="edge4" class="edge">
<title>Node3&#45;&gt;Node4</title>
<path fill="none" stroke="#191970" d="M644.1452,-56.2455C634.2496,-47.9746 619.853,-35.9416 608.2256,-26.2232"/>
<polygon fill="#191970" stroke="#191970" points="610.2699,-23.3703 600.3525,-19.6427 605.7807,-28.7413 610.2699,-23.3703"/>
</g>
<!-- Node5 -->
<g id="node6" class="node">
<title>Node5</title>
<polygon fill="none" stroke="#bfbfbf" points="633.3157,-.5 633.3157,-19.5 678.3157,-19.5 678.3157,-.5 633.3157,-.5"/>
<text text-anchor="middle" x="655.8157" y="-7.5" font-family="Helvetica,sans-Serif" font-size="10.00" fill="#000000">utility</text>
</g>
<!-- Node3&#45;&gt;Node5 -->
<g id="edge5" class="edge">
<title>Node3&#45;&gt;Node5</title>
<path fill="none" stroke="#191970" d="M655.8157,-56.2455C655.8157,-48.9382 655.8157,-38.6944 655.8157,-29.7046"/>
<polygon fill="#191970" stroke="#191970" points="659.3158,-29.6426 655.8157,-19.6427 652.3158,-29.6427 659.3158,-29.6426"/>
</g>
<!-- Node6 -->
<g id="node7" class="node">
<title>Node6</title>
<polygon fill="none" stroke="#bfbfbf" points="696.8157,-.5 696.8157,-19.5 742.8157,-19.5 742.8157,-.5 696.8157,-.5"/>
<text text-anchor="middle" x="719.8157" y="-7.5" font-family="Helvetica,sans-Serif" font-size="10.00" fill="#000000">cstdio</text>
</g>
<!-- Node3&#45;&gt;Node6 -->
<g id="edge6" class="edge">
<title>Node3&#45;&gt;Node6</title>
<path fill="none" stroke="#191970" d="M666.9637,-56.2455C676.3244,-48.0549 689.9015,-36.1749 700.9506,-26.5069"/>
<polygon fill="#191970" stroke="#191970" points="703.5745,-28.8618 708.7955,-19.6427 698.9649,-23.5937 703.5745,-28.8618"/>
</g>
<!-- Node8&#45;&gt;Node3 -->
<g id="edge9" class="edge">
<title>Node8&#45;&gt;Node3</title>
<path fill="none" stroke="#191970" d="M471.7266,-112.4369C509.4807,-102.9133 567.5422,-88.2672 608.3421,-77.9753"/>
<polygon fill="#191970" stroke="#191970" points="609.221,-81.3633 618.0612,-75.5237 607.5088,-74.576 609.221,-81.3633"/>
</g>
<!-- Node8&#45;&gt;Node9 -->
<g id="edge10" class="edge">
<title>Node8&#45;&gt;Node9</title>
<path fill="none" stroke="#191970" d="M411.4679,-112.3733C390.4124,-103.3032 358.6662,-89.6279 335.0982,-79.4755"/>
<polygon fill="#191970" stroke="#191970" points="336.4407,-76.243 325.8719,-75.5011 333.6713,-82.6719 336.4407,-76.243"/>
</g>
<!-- Node12 -->
<g id="node13" class="node">
<title>Node12</title>
<polygon fill="none" stroke="#bfbfbf" points="144.3157,-56.5 144.3157,-75.5 213.3157,-75.5 213.3157,-56.5 144.3157,-56.5"/>
<text text-anchor="middle" x="178.8157" y="-63.5" font-family="Helvetica,sans-Serif" font-size="10.00" fill="#000000">type_traits</text>
</g>
<!-- Node11&#45;&gt;Node12 -->
<g id="edge13" class="edge">
<title>Node11&#45;&gt;Node12</title>
<path fill="none" stroke="#191970" d="M196.1578,-112.2455C193.3573,-104.7776 189.4067,-94.2427 185.9833,-85.1137"/>
<polygon fill="#191970" stroke="#191970" points="189.2202,-83.777 182.4317,-75.6427 182.6659,-86.2349 189.2202,-83.777"/>
</g>
<!-- Node13&#45;&gt;Node3 -->
<g id="edge17" class="edge">
<title>Node13&#45;&gt;Node3</title>
<path fill="none" stroke="#191970" d="M1426.1753,-112.8865C1423.0142,-112.5681 1419.8832,-112.2703 1416.8157,-112 1110.2672,-84.983 1028.899,-108.3027 718.715,-75.9739"/>
<polygon fill="#191970" stroke="#191970" points="718.8404,-72.4679 708.5287,-74.9009 718.107,-79.4293 718.8404,-72.4679"/>
</g>
<!-- Node13&#45;&gt;Node7 -->
<g id="edge18" class="edge">
<title>Node13&#45;&gt;Node7</title>
<path fill="none" stroke="#191970" d="M1436.7047,-112.4369C1375.197,-102.6516 1279.6961,-87.4582 1214.8184,-77.1368"/>
<polygon fill="#191970" stroke="#191970" points="1215.1045,-73.6384 1204.6788,-75.5237 1214.0047,-80.5514 1215.1045,-73.6384"/>
</g>
<!-- Node13&#45;&gt;Node10 -->
<g id="edge16" class="edge">
<title>Node13&#45;&gt;Node10</title>
<path fill="none" stroke="#191970" d="M1426.1688,-112.9559C1423.0095,-112.6187 1419.8806,-112.298 1416.8157,-112 1190.8092,-90.0226 1130.9146,-96.3952 901.1478,-76.0875"/>
<polygon fill="#191970" stroke="#191970" points="901.4121,-72.5972 891.1409,-75.1957 900.7907,-79.5696 901.4121,-72.5972"/>
</g>
<!-- Node14 -->
<g id="node15" class="node">
<title>Node14</title>
<g id="a_node15"><a xlink:href="../../dd/dc2/BasicOps_8h.html" target="_top" xlink:title="Framework/BasicOps.h">
<polygon fill="none" stroke="#000000" points="1849.8157,-56.5 1849.8157,-75.5 1977.8157,-75.5 1977.8157,-56.5 1849.8157,-56.5"/>
<text text-anchor="middle" x="1913.8157" y="-63.5" font-family="Helvetica,sans-Serif" font-size="10.00" fill="#000000">Framework/BasicOps.h</text>
</a>
</g>
</g>
<!-- Node13&#45;&gt;Node14 -->
<g id="edge15" class="edge">
<title>Node13&#45;&gt;Node14</title>
<path fill="none" stroke="#191970" d="M1567.4366,-112.5501C1634.551,-103.5646 1738.6148,-89.6196 1839.5677,-76.0323"/>
<polygon fill="#191970" stroke="#191970" points="1840.1973,-79.4792 1849.6409,-74.6763 1839.2634,-72.5417 1840.1973,-79.4792"/>
</g>
<!-- Node15 -->
<g id="node16" class="node">
<title>Node15</title>
<polygon fill="none" stroke="#bfbfbf" points="1233.3157,-56.5 1233.3157,-75.5 1334.3157,-75.5 1334.3157,-56.5 1233.3157,-56.5"/>
<text text-anchor="middle" x="1283.8157" y="-63.5" font-family="Helvetica,sans-Serif" font-size="10.00" fill="#000000">arrow/type_fwd.h</text>
</g>
<!-- Node13&#45;&gt;Node15 -->
<g id="edge19" class="edge">
<title>Node13&#45;&gt;Node15</title>
<path fill="none" stroke="#191970" d="M1460.1997,-112.3733C1424.1677,-102.9001 1369.0279,-88.4032 1330.0043,-78.1435"/>
<polygon fill="#191970" stroke="#191970" points="1330.5152,-74.6589 1319.9539,-75.5011 1328.7353,-81.4289 1330.5152,-74.6589"/>
</g>
<!-- Node16 -->
<g id="node17" class="node">
<title>Node16</title>
<polygon fill="none" stroke="#bfbfbf" points="1995.8157,-56.5 1995.8157,-75.5 2141.8157,-75.5 2141.8157,-56.5 1995.8157,-56.5"/>
<text text-anchor="middle" x="2068.8157" y="-63.5" font-family="Helvetica,sans-Serif" font-size="10.00" fill="#000000">gandiva/gandiva_aliases.h</text>
</g>
<!-- Node13&#45;&gt;Node16 -->
<g id="edge20" class="edge">
<title>Node13&#45;&gt;Node16</title>
<path fill="none" stroke="#191970" d="M1567.4696,-113.0252C1570.6271,-112.6693 1573.7536,-112.3257 1576.8157,-112 1755.4267,-93.0019 1803.1768,-94.9941 1985.3202,-76.1267"/>
<polygon fill="#191970" stroke="#191970" points="1985.929,-79.5823 1995.512,-75.0639 1985.2029,-72.6201 1985.929,-79.5823"/>
</g>
<!-- Node17 -->
<g id="node18" class="node">
<title>Node17</title>
<polygon fill="none" stroke="#bfbfbf" points="1352.8157,-56.5 1352.8157,-75.5 1430.8157,-75.5 1430.8157,-56.5 1352.8157,-56.5"/>
<text text-anchor="middle" x="1391.8157" y="-63.5" font-family="Helvetica,sans-Serif" font-size="10.00" fill="#000000">arrow/type.h</text>
</g>
<!-- Node13&#45;&gt;Node17 -->
<g id="edge21" class="edge">
<title>Node13&#45;&gt;Node17</title>
<path fill="none" stroke="#191970" d="M1478.5261,-112.2455C1462.0395,-103.4527 1437.5806,-90.4079 1418.8392,-80.4125"/>
<polygon fill="#191970" stroke="#191970" points="1420.3663,-77.2604 1409.8957,-75.6427 1417.0722,-83.4368 1420.3663,-77.2604"/>
</g>
<!-- Node18 -->
<g id="node19" class="node">
<title>Node18</title>
<polygon fill="none" stroke="#bfbfbf" points="1449.3157,-56.5 1449.3157,-75.5 1544.3157,-75.5 1544.3157,-56.5 1449.3157,-56.5"/>
<text text-anchor="middle" x="1496.8157" y="-63.5" font-family="Helvetica,sans-Serif" font-size="10.00" fill="#000000">gandiva/arrow.h</text>
</g>
<!-- Node13&#45;&gt;Node18 -->
<g id="edge22" class="edge">
<title>Node13&#45;&gt;Node18</title>
<path fill="none" stroke="#191970" d="M1496.8157,-112.2455C1496.8157,-104.9382 1496.8157,-94.6944 1496.8157,-85.7046"/>
<polygon fill="#191970" stroke="#191970" points="1500.3158,-85.6426 1496.8157,-75.6427 1493.3158,-85.6427 1500.3158,-85.6426"/>
</g>
<!-- Node13&#45;&gt;Node19 -->
<g id="edge23" class="edge">
<title>Node13&#45;&gt;Node19</title>
<path fill="none" stroke="#191970" d="M1426.1778,-112.8567C1423.0161,-112.5464 1419.8842,-112.2585 1416.8157,-112 1055.2758,-81.5464 958.9333,-120.0368 595.3854,-76.015"/>
<polygon fill="#191970" stroke="#191970" points="595.7276,-72.5308 585.3766,-74.7904 594.8775,-79.479 595.7276,-72.5308"/>
</g>
<!-- Node13&#45;&gt;Node20 -->
<g id="edge24" class="edge">
<title>Node13&#45;&gt;Node20</title>
<path fill="none" stroke="#191970" d="M1426.1556,-113.0813C1422.9999,-112.7102 1419.8753,-112.3481 1416.8157,-112 1264.1978,-94.637 1223.3303,-93.4235 1066.5747,-76.0669"/>
<polygon fill="#191970" stroke="#191970" points="1066.8996,-72.5816 1056.5741,-74.9552 1066.1261,-79.5387 1066.8996,-72.5816"/>
</g>
<!-- Node21 -->
<g id="node22" class="node">
<title>Node21</title>
<polygon fill="none" stroke="#bfbfbf" points="1562.8157,-56.5 1562.8157,-75.5 1654.8157,-75.5 1654.8157,-56.5 1562.8157,-56.5"/>
<text text-anchor="middle" x="1608.8157" y="-63.5" font-family="Helvetica,sans-Serif" font-size="10.00" fill="#000000">gandiva/node.h</text>
</g>
<!-- Node13&#45;&gt;Node21 -->
<g id="edge25" class="edge">
<title>Node13&#45;&gt;Node21</title>
<path fill="none" stroke="#191970" d="M1516.0692,-112.3733C1533.8869,-103.4644 1560.5904,-90.1127 1580.7751,-80.0203"/>
<polygon fill="#191970" stroke="#191970" points="1582.4344,-83.1038 1589.8135,-75.5011 1579.3039,-76.8428 1582.4344,-83.1038"/>
</g>
<!-- Node22 -->
<g id="node23" class="node">
<title>Node22</title>
<polygon fill="none" stroke="#bfbfbf" points="1673.3157,-56.5 1673.3157,-75.5 1762.3157,-75.5 1762.3157,-56.5 1673.3157,-56.5"/>
<text text-anchor="middle" x="1717.8157" y="-63.5" font-family="Helvetica,sans-Serif" font-size="10.00" fill="#000000">gandiva/filter.h</text>
</g>
<!-- Node13&#45;&gt;Node22 -->
<g id="edge26" class="edge">
<title>Node13&#45;&gt;Node22</title>
<path fill="none" stroke="#191970" d="M1534.5559,-112.4369C1572.0605,-102.9335 1629.6956,-88.3291 1670.2981,-78.0407"/>
<polygon fill="#191970" stroke="#191970" points="1671.3973,-81.3728 1680.2312,-75.5237 1669.6778,-74.5873 1671.3973,-81.3728"/>
</g>
<!-- Node23 -->
<g id="node24" class="node">
<title>Node23</title>
<polygon fill="none" stroke="#bfbfbf" points="1780.3157,-56.5 1780.3157,-75.5 1831.3157,-75.5 1831.3157,-56.5 1780.3157,-56.5"/>
<text text-anchor="middle" x="1805.8157" y="-63.5" font-family="Helvetica,sans-Serif" font-size="10.00" fill="#000000">variant</text>
</g>
<!-- Node13&#45;&gt;Node23 -->
<g id="edge27" class="edge">
<title>Node13&#45;&gt;Node23</title>
<path fill="none" stroke="#191970" d="M1566.7753,-112.4619C1620.0029,-104.6981 1695.2103,-92.6451 1770.1906,-75.9308"/>
<polygon fill="#191970" stroke="#191970" points="1771.303,-79.2678 1780.2866,-73.6512 1769.7613,-72.4397 1771.303,-79.2678"/>
</g>
<!-- Node13&#45;&gt;Node24 -->
<g id="edge28" class="edge">
<title>Node13&#45;&gt;Node24</title>
<path fill="none" stroke="#191970" d="M1567.4601,-112.9295C1570.6201,-112.5994 1573.7498,-112.2875 1576.8157,-112 1827.9565,-88.4508 1897.8408,-122.6816 2149.4546,-75.8089"/>
<polygon fill="#191970" stroke="#191970" points="2150.4601,-79.1809 2159.6372,-73.8865 2149.1615,-72.3024 2150.4601,-79.1809"/>
</g>
<!-- Node13&#45;&gt;Node25 -->
<g id="edge29" class="edge">
<title>Node13&#45;&gt;Node25</title>
<path fill="none" stroke="#191970" d="M1567.4579,-112.906C1570.6185,-112.5823 1573.749,-112.2781 1576.8157,-112 1855.4733,-86.7267 1931.4036,-119.4642 2211.4329,-75.9234"/>
<polygon fill="#191970" stroke="#191970" points="2212.1469,-79.3542 2221.4812,-74.3421 2211.0587,-72.4393 2212.1469,-79.3542"/>
</g>
<!-- Node26&#45;&gt;Node19 -->
<g id="edge31" class="edge">
<title>Node26&#45;&gt;Node19</title>
<path fill="none" stroke="#191970" d="M610.8808,-112.2455C598.721,-103.7337 580.8693,-91.2375 566.7872,-81.3801"/>
<polygon fill="#191970" stroke="#191970" points="568.7904,-78.51 558.591,-75.6427 564.7762,-84.2447 568.7904,-78.51"/>
</g>
<!-- Node27&#45;&gt;Node15 -->
<g id="edge33" class="edge">
<title>Node27&#45;&gt;Node15</title>
<path fill="none" stroke="#191970" d="M1329.2354,-112.2455C1321.2699,-104.1352 1309.7517,-92.4075 1300.3078,-82.7919"/>
<polygon fill="#191970" stroke="#191970" points="1302.7904,-80.3247 1293.2862,-75.6427 1297.7962,-85.2297 1302.7904,-80.3247"/>
</g>
<!-- Node33&#45;&gt;Node11 -->
<g id="edge42" class="edge">
<title>Node33&#45;&gt;Node11</title>
<path fill="none" stroke="#191970" d="M153.5702,-168.2455C161.6805,-160.1352 173.4082,-148.4075 183.0238,-138.7919"/>
<polygon fill="#191970" stroke="#191970" points="185.5768,-141.1887 190.173,-131.6427 180.6271,-136.2389 185.5768,-141.1887"/>
</g>
<!-- Node33&#45;&gt;Node12 -->
<g id="edge44" class="edge">
<title>Node33&#45;&gt;Node12</title>
<path fill="none" stroke="#191970" d="M139.7757,-168.2284C134.9365,-155.0055 128.3591,-130.8962 135.8157,-112 140.3626,-100.4774 149.3089,-90.143 157.8691,-82.2024"/>
<polygon fill="#191970" stroke="#191970" points="160.2095,-84.8057 165.4847,-75.6175 155.631,-79.5106 160.2095,-84.8057"/>
</g>
<!-- Node33&#45;&gt;Node34 -->
<g id="edge43" class="edge">
<title>Node33&#45;&gt;Node34</title>
<path fill="none" stroke="#191970" d="M126.0487,-168.2455C110.1062,-159.4928 86.4898,-146.527 68.3168,-136.5496"/>
<polygon fill="#191970" stroke="#191970" points="69.8294,-133.3873 59.3791,-131.6427 66.4605,-139.5233 69.8294,-133.3873"/>
</g>
<!-- Node35&#45;&gt;Node10 -->
<g id="edge47" class="edge">
<title>Node35&#45;&gt;Node10</title>
<path fill="none" stroke="#191970" d="M841.9307,-168.4647C826.093,-161.1252 807.1363,-149.2779 797.8157,-132 789.9928,-117.4984 794.2159,-98.8047 799.5378,-85.0164"/>
<polygon fill="#191970" stroke="#191970" points="802.8633,-86.1456 803.6404,-75.5793 796.4437,-83.3548 802.8633,-86.1456"/>
</g>
</g>
</svg>
        <g id="navigator" transform="translate(0 0)" fill="#404254">
                <rect fill="#f2f5e9" fill-opacity="0.5" stroke="#606060" stroke-width=".5" x="0" y="0" width="60" height="60"/>
                <use id="zoomplus" xlink:href="#zoomPlus" x="17" y="9" onmousedown="handleZoom(evt,'in')"/>
                <use id="zoomminus" xlink:href="#zoomMin" x="42" y="9" onmousedown="handleZoom(evt,'out')"/>
                <use id="reset" xlink:href="#resetDef" x="30" y="36" onmousedown="handleReset()"/>
                <g id="arrowUp" xlink:href="#dirArrow" transform="translate(30 24)" onmousedown="handlePan(0,-1)">
                  <use xlink:href="#rim" fill="#404040">
                        <set attributeName="fill" to="#808080" begin="arrowUp.mouseover" end="arrowUp.mouseout"/>
                  </use>
                  <path fill="none" stroke="white" stroke-width="1.5" d="M0,-3.0v7 M-2.5,-0.5L0,-3.0L2.5,-0.5"/>
                </g>
                <g id="arrowRight" xlink:href="#dirArrow" transform="rotate(90) translate(36 -43)" onmousedown="handlePan(1,0)">
                  <use xlink:href="#rim" fill="#404040">
                        <set attributeName="fill" to="#808080" begin="arrowRight.mouseover" end="arrowRight.mouseout"/>
                  </use>
                  <path fill="none" stroke="white" stroke-width="1.5" d="M0,-3.0v7 M-2.5,-0.5L0,-3.0L2.5,-0.5"/>
                </g>
                <g id="arrowDown" xlink:href="#dirArrow" transform="rotate(180) translate(-30 -48)" onmousedown="handlePan(0,1)">
                  <use xlink:href="#rim" fill="#404040">
                        <set attributeName="fill" to="#808080" begin="arrowDown.mouseover" end="arrowDown.mouseout"/>
                  </use>
                  <path fill="none" stroke="white" stroke-width="1.5" d="M0,-3.0v7 M-2.5,-0.5L0,-3.0L2.5,-0.5"/>
                </g>
                <g id="arrowLeft" xlink:href="#dirArrow" transform="rotate(270) translate(-36 17)" onmousedown="handlePan(-1,0)">
                  <use xlink:href="#rim" fill="#404040">
                        <set attributeName="fill" to="#808080" begin="arrowLeft.mouseover" end="arrowLeft.mouseout"/>
                  </use>
                  <path fill="none" stroke="white" stroke-width="1.5" d="M0,-3.0v7 M-2.5,-0.5L0,-3.0L2.5,-0.5"/>
                </g>
        </g>
        <svg viewBox="0 0 15 15" width="100%" height="30px" preserveAspectRatio="xMaxYMin meet">
         <g id="arrow_out" transform="scale(0.3 0.3)">
          <a xlink:href="RootTableBuilderHelpers_8h__incl_org.svg" target="_base">
           <rect id="button" ry="5" rx="5" y="6" x="6" height="38" width="38"
                fill="#f2f5e9" fill-opacity="0.5" stroke="#606060" stroke-width="1.0"/>
           <path id="arrow"
             d="M 11.500037,31.436501 C 11.940474,20.09759 22.043105,11.32322 32.158766,21.979434 L 37.068811,17.246167 C 37.068811,17.246167 37.088388,32 37.088388,32 L 22.160133,31.978069 C 22.160133,31.978069 26.997745,27.140456 26.997745,27.140456 C 18.528582,18.264221 13.291696,25.230495 11.500037,31.436501 z"
             style="fill:#404040;"/>
          </a>
         </g>
        </svg>
</svg>
