<?xml version="1.0" encoding="UTF-8" standalone="no"?>
<!DOCTYPE svg PUBLIC "-//W3C//DTD SVG 1.1//EN"
 "http://www.w3.org/Graphics/SVG/1.1/DTD/svg11.dtd">
<!-- Generated by graphviz version 2.40.1 (20161225.0304)
 -->
<!-- Title: /home/travis/build/AliceO2Group/AliceO2/Detectors/MUON/MCH/Raw/Decoder/src/testPageDecoder.cxx Pages: 1 -->
<svg width="2624pt" height="419pt"
 viewBox="0.00 0.00 2624.47 419.00" xmlns="http://www.w3.org/2000/svg" xmlns:xlink="http://www.w3.org/1999/xlink">
<g id="graph0" class="graph" transform="scale(1 1) rotate(0) translate(4 415)">
<title>/home/travis/build/AliceO2Group/AliceO2/Detectors/MUON/MCH/Raw/Decoder/src/testPageDecoder.cxx</title>
<!-- Node0 -->
<g id="node1" class="node">
<title>Node0</title>
<polygon fill="#bfbfbf" stroke="#000000" points="1572.4707,-358.5 1572.4707,-410.5 1754.4707,-410.5 1754.4707,-358.5 1572.4707,-358.5"/>
<text text-anchor="start" x="1580.4707" y="-398.5" font-family="Helvetica,sans-Serif" font-size="10.00" fill="#000000">/home/travis/build</text>
<text text-anchor="start" x="1580.4707" y="-387.5" font-family="Helvetica,sans-Serif" font-size="10.00" fill="#000000">/AliceO2Group/AliceO2</text>
<text text-anchor="start" x="1580.4707" y="-376.5" font-family="Helvetica,sans-Serif" font-size="10.00" fill="#000000">/Detectors/MUON/MCH/Raw</text>
<text text-anchor="middle" x="1663.4707" y="-365.5" font-family="Helvetica,sans-Serif" font-size="10.00" fill="#000000">/Decoder/src/testPageDecoder.cxx</text>
</g>
<!-- Node1 -->
<g id="node2" class="node">
<title>Node1</title>
<polygon fill="none" stroke="#bfbfbf" points="557.4707,-302.5 557.4707,-321.5 689.4707,-321.5 689.4707,-302.5 557.4707,-302.5"/>
<text text-anchor="middle" x="623.4707" y="-309.5" font-family="Helvetica,sans-Serif" font-size="10.00" fill="#000000">boost/test/unit_test.hpp</text>
</g>
<!-- Node0&#45;&gt;Node1 -->
<g id="edge1" class="edge">
<title>Node0&#45;&gt;Node1</title>
<path fill="none" stroke="#191970" d="M1572.3285,-380.3713C1401.6056,-372.2369 1022.0882,-352.2584 703.4707,-322 702.3559,-321.8941 701.2327,-321.7851 700.1027,-321.6733"/>
<polygon fill="#191970" stroke="#191970" points="700.1007,-318.1541 689.7915,-320.5977 699.3744,-325.1164 700.1007,-318.1541"/>
</g>
<!-- Node2 -->
<g id="node3" class="node">
<title>Node2</title>
<polygon fill="none" stroke="#bfbfbf" points="1770.4707,-.5 1770.4707,-19.5 1830.4707,-19.5 1830.4707,-.5 1770.4707,-.5"/>
<text text-anchor="middle" x="1800.4707" y="-7.5" font-family="Helvetica,sans-Serif" font-size="10.00" fill="#000000">iostream</text>
</g>
<!-- Node0&#45;&gt;Node2 -->
<g id="edge2" class="edge">
<title>Node0&#45;&gt;Node2</title>
<path fill="none" stroke="#191970" d="M1754.5084,-378.6141C1963.6285,-363.8762 2460.4707,-321.4005 2460.4707,-250.5 2460.4707,-250.5 2460.4707,-250.5 2460.4707,-127.5 2460.4707,-64.1995 1983.815,-23.6288 1840.6532,-12.871"/>
<polygon fill="#191970" stroke="#191970" points="1840.7765,-9.3706 1830.5445,-12.1195 1840.2575,-16.3514 1840.7765,-9.3706"/>
</g>
<!-- Node3 -->
<g id="node4" class="node">
<title>Node3</title>
<polygon fill="none" stroke="#bfbfbf" points="2488.9707,-302.5 2488.9707,-321.5 2543.9707,-321.5 2543.9707,-302.5 2488.9707,-302.5"/>
<text text-anchor="middle" x="2516.4707" y="-309.5" font-family="Helvetica,sans-Serif" font-size="10.00" fill="#000000">fstream</text>
</g>
<!-- Node0&#45;&gt;Node3 -->
<g id="edge3" class="edge">
<title>Node0&#45;&gt;Node3</title>
<path fill="none" stroke="#191970" d="M1754.6211,-382.1312C1905.2702,-377.1763 2215.3198,-362.5803 2474.4707,-322 2475.762,-321.7978 2477.0722,-321.5767 2478.3928,-321.3403"/>
<polygon fill="#191970" stroke="#191970" points="2479.4675,-324.6942 2488.5779,-319.2858 2478.0833,-317.8324 2479.4675,-324.6942"/>
</g>
<!-- Node4 -->
<g id="node5" class="node">
<title>Node4</title>
<polygon fill="none" stroke="#bfbfbf" points="1707.9707,-118 1707.9707,-137 1778.9707,-137 1778.9707,-118 1707.9707,-118"/>
<text text-anchor="middle" x="1743.4707" y="-125" font-family="Helvetica,sans-Serif" font-size="10.00" fill="#000000">fmt/printf.h</text>
</g>
<!-- Node0&#45;&gt;Node4 -->
<g id="edge4" class="edge">
<title>Node0&#45;&gt;Node4</title>
<path fill="none" stroke="#191970" d="M1728.0973,-358.4098C1766.56,-339.1067 1812.1016,-308.7165 1834.4707,-266 1852.673,-231.2404 1842.2202,-210.969 1819.4707,-179 1808.0378,-162.9338 1789.9051,-150.3683 1774.2186,-141.6722"/>
<polygon fill="#191970" stroke="#191970" points="1775.8145,-138.5571 1765.3344,-137.0021 1772.5574,-144.7532 1775.8145,-138.5571"/>
</g>
<!-- Node5 -->
<g id="node6" class="node">
<title>Node5</title>
<g id="a_node6"><a xlink:href="../../dc/d3a/RDHManip_8h.html" target="_top" xlink:title="MCHRawCommon/RDHManip.h">
<polygon fill="none" stroke="#000000" points="254.9707,-118 254.9707,-137 421.9707,-137 421.9707,-118 254.9707,-118"/>
<text text-anchor="middle" x="338.4707" y="-125" font-family="Helvetica,sans-Serif" font-size="10.00" fill="#000000">MCHRawCommon/RDHManip.h</text>
</a>
</g>
</g>
<!-- Node0&#45;&gt;Node5 -->
<g id="edge5" class="edge">
<title>Node0&#45;&gt;Node5</title>
<path fill="none" stroke="#191970" d="M1572.4583,-382.0032C1440.9182,-377.0784 1190.5119,-362.7585 981.4707,-322 743.4923,-275.5993 467.9864,-176.2928 372.8448,-140.6083"/>
<polygon fill="#191970" stroke="#191970" points="374.0231,-137.3121 363.4312,-137.0639 371.5565,-143.8631 374.0231,-137.3121"/>
</g>
<!-- Node14 -->
<g id="node15" class="node">
<title>Node14</title>
<g id="a_node15"><a xlink:href="../../d0/d64/DataFormats_8h.html" target="_top" xlink:title="MCHRawCommon/DataFormats.h">
<polygon fill="none" stroke="#000000" points="2252.9707,-118 2252.9707,-137 2431.9707,-137 2431.9707,-118 2252.9707,-118"/>
<text text-anchor="middle" x="2342.4707" y="-125" font-family="Helvetica,sans-Serif" font-size="10.00" fill="#000000">MCHRawCommon/DataFormats.h</text>
</a>
</g>
</g>
<!-- Node0&#45;&gt;Node14 -->
<g id="edge16" class="edge">
<title>Node0&#45;&gt;Node14</title>
<path fill="none" stroke="#191970" d="M1735.3022,-358.4841C1832.6117,-323.096 2011.6225,-257.4848 2163.4707,-199 2214.7073,-179.2661 2273.7955,-155.4575 2309.6243,-140.9034"/>
<polygon fill="#191970" stroke="#191970" points="2311.1425,-144.0644 2319.0872,-137.0549 2308.5054,-137.5801 2311.1425,-144.0644"/>
</g>
<!-- Node15 -->
<g id="node16" class="node">
<title>Node15</title>
<g id="a_node16"><a xlink:href="../../dc/d36/PageDecoder_8h.html" target="_top" xlink:title="MCHRawDecoder/PageDecoder.h">
<polygon fill="none" stroke="#000000" points="1152.4707,-179.5 1152.4707,-198.5 1328.4707,-198.5 1328.4707,-179.5 1152.4707,-179.5"/>
<text text-anchor="middle" x="1240.4707" y="-186.5" font-family="Helvetica,sans-Serif" font-size="10.00" fill="#000000">MCHRawDecoder/PageDecoder.h</text>
</a>
</g>
</g>
<!-- Node0&#45;&gt;Node15 -->
<g id="edge17" class="edge">
<title>Node0&#45;&gt;Node15</title>
<path fill="none" stroke="#191970" d="M1572.1801,-371.6663C1492.8862,-356.8813 1378.1157,-326.389 1295.4707,-266 1274.625,-250.768 1258.6459,-225.2192 1249.4141,-207.7607"/>
<polygon fill="#191970" stroke="#191970" points="1252.4001,-205.9087 1244.7726,-198.5554 1246.1498,-209.0604 1252.4001,-205.9087"/>
</g>
<!-- Node30 -->
<g id="node31" class="node">
<title>Node30</title>
<g id="a_node31"><a xlink:href="../../d4/d78/DataFormats_2Headers_2include_2Headers_2RAWDataHeader_8h.html" target="_top" xlink:title="Headers/RAWDataHeader.h">
<polygon fill="none" stroke="#000000" points="782.9707,-179.5 782.9707,-198.5 931.9707,-198.5 931.9707,-179.5 782.9707,-179.5"/>
<text text-anchor="middle" x="857.4707" y="-186.5" font-family="Helvetica,sans-Serif" font-size="10.00" fill="#000000">Headers/RAWDataHeader.h</text>
</a>
</g>
</g>
<!-- Node0&#45;&gt;Node30 -->
<g id="edge48" class="edge">
<title>Node0&#45;&gt;Node30</title>
<path fill="none" stroke="#191970" d="M1572.1738,-375.7288C1404.6359,-358.6052 1055.2133,-317.8255 945.4707,-266 915.6555,-251.9199 888.2499,-224.7107 872.1981,-206.7001"/>
<polygon fill="#191970" stroke="#191970" points="874.4603,-203.9657 865.2694,-198.6952 869.1676,-208.5469 874.4603,-203.9657"/>
</g>
<!-- Node31 -->
<g id="node32" class="node">
<title>Node31</title>
<g id="a_node32"><a xlink:href="../../de/d1f/RefBuffers_8h.html" target="_top" xlink:title="RefBuffers.h">
<polygon fill="none" stroke="#000000" points="440.4707,-118 440.4707,-137 516.4707,-137 516.4707,-118 440.4707,-118"/>
<text text-anchor="middle" x="478.4707" y="-125" font-family="Helvetica,sans-Serif" font-size="10.00" fill="#000000">RefBuffers.h</text>
</a>
</g>
</g>
<!-- Node0&#45;&gt;Node31 -->
<g id="edge50" class="edge">
<title>Node0&#45;&gt;Node31</title>
<path fill="none" stroke="#191970" d="M1572.301,-381.4489C1453.3225,-376.0154 1239.2123,-361.2509 1060.4707,-322 985.2421,-305.4801 967.1959,-296.4991 896.4707,-266 858.4076,-249.5859 770.5073,-192.9415 731.4707,-179 694.3828,-165.7545 589.0101,-146.4285 526.5674,-135.6099"/>
<polygon fill="#191970" stroke="#191970" points="527.0063,-132.134 516.5571,-133.8847 525.8174,-139.0323 527.0063,-132.134"/>
</g>
<!-- Node32 -->
<g id="node33" class="node">
<title>Node32</title>
<g id="a_node33"><a xlink:href="../../da/db7/BareGBTDecoder_8h.html" target="_top" xlink:title="BareGBTDecoder.h">
<polygon fill="none" stroke="#000000" points="1609.4707,-302.5 1609.4707,-321.5 1717.4707,-321.5 1717.4707,-302.5 1609.4707,-302.5"/>
<text text-anchor="middle" x="1663.4707" y="-309.5" font-family="Helvetica,sans-Serif" font-size="10.00" fill="#000000">BareGBTDecoder.h</text>
</a>
</g>
</g>
<!-- Node0&#45;&gt;Node32 -->
<g id="edge53" class="edge">
<title>Node0&#45;&gt;Node32</title>
<path fill="none" stroke="#191970" d="M1663.4707,-358.3258C1663.4707,-349.5142 1663.4707,-339.8397 1663.4707,-331.621"/>
<polygon fill="#191970" stroke="#191970" points="1666.9708,-331.534 1663.4707,-321.534 1659.9708,-331.534 1666.9708,-331.534"/>
</g>
<!-- Node42 -->
<g id="node43" class="node">
<title>Node42</title>
<polygon fill="none" stroke="#bfbfbf" points="2562.4707,-302.5 2562.4707,-321.5 2616.4707,-321.5 2616.4707,-302.5 2562.4707,-302.5"/>
<text text-anchor="middle" x="2589.4707" y="-309.5" font-family="Helvetica,sans-Serif" font-size="10.00" fill="#000000">random</text>
</g>
<!-- Node0&#45;&gt;Node42 -->
<g id="edge88" class="edge">
<title>Node0&#45;&gt;Node42</title>
<path fill="none" stroke="#191970" d="M1754.7024,-380.4229C1945.8438,-371.5079 2383.8728,-349.0294 2552.1138,-321.888"/>
<polygon fill="#191970" stroke="#191970" points="2552.7977,-325.3223 2562.0824,-320.2188 2551.6416,-318.4184 2552.7977,-325.3223"/>
</g>
<!-- Node5&#45;&gt;Node2 -->
<g id="edge9" class="edge">
<title>Node5&#45;&gt;Node2</title>
<path fill="none" stroke="#191970" d="M345.5205,-117.7921C358.0459,-101.4535 385.9432,-68.9753 418.4707,-56 543.2985,-6.2059 1493.2064,-25.8783 1627.4707,-20 1672.8225,-18.0144 1724.8143,-14.8954 1759.8629,-12.6689"/>
<polygon fill="#191970" stroke="#191970" points="1760.4142,-16.1408 1770.17,-12.0088 1759.9668,-9.1551 1760.4142,-16.1408"/>
</g>
<!-- Node6 -->
<g id="node7" class="node">
<title>Node6</title>
<polygon fill="none" stroke="#bfbfbf" points="598.4707,-.5 598.4707,-19.5 648.4707,-19.5 648.4707,-.5 598.4707,-.5"/>
<text text-anchor="middle" x="623.4707" y="-7.5" font-family="Helvetica,sans-Serif" font-size="10.00" fill="#000000">cstdint</text>
</g>
<!-- Node5&#45;&gt;Node6 -->
<g id="edge6" class="edge">
<title>Node5&#45;&gt;Node6</title>
<path fill="none" stroke="#191970" d="M254.5561,-120.2185C160.9984,-111.2333 20.6082,-94.8165 4.4707,-76 -1.316,-69.2527 -1.5773,-62.5141 4.4707,-56 24.4615,-34.4685 459.747,-16.2342 588.1328,-11.3092"/>
<polygon fill="#191970" stroke="#191970" points="588.3571,-14.8033 598.2168,-10.9257 588.091,-7.8084 588.3571,-14.8033"/>
</g>
<!-- Node7 -->
<g id="node8" class="node">
<title>Node7</title>
<polygon fill="none" stroke="#bfbfbf" points="1297.9707,-56.5 1297.9707,-75.5 1362.9707,-75.5 1362.9707,-56.5 1297.9707,-56.5"/>
<text text-anchor="middle" x="1330.4707" y="-63.5" font-family="Helvetica,sans-Serif" font-size="10.00" fill="#000000">functional</text>
</g>
<!-- Node5&#45;&gt;Node7 -->
<g id="edge7" class="edge">
<title>Node5&#45;&gt;Node7</title>
<path fill="none" stroke="#191970" d="M388.999,-117.935C402.7321,-115.6483 417.6334,-113.4518 431.4707,-112 793.8331,-73.9807 887.4082,-106.6209 1250.4707,-76 1262.5527,-74.981 1275.6181,-73.5066 1287.618,-72.0017"/>
<polygon fill="#191970" stroke="#191970" points="1288.3682,-75.434 1297.8376,-70.682 1287.4717,-68.4916 1288.3682,-75.434"/>
</g>
<!-- Node8 -->
<g id="node9" class="node">
<title>Node8</title>
<polygon fill="none" stroke="#bfbfbf" points="537.9707,-56.5 537.9707,-75.5 594.9707,-75.5 594.9707,-56.5 537.9707,-56.5"/>
<text text-anchor="middle" x="566.4707" y="-63.5" font-family="Helvetica,sans-Serif" font-size="10.00" fill="#000000">gsl/span</text>
</g>
<!-- Node5&#45;&gt;Node8 -->
<g id="edge8" class="edge">
<title>Node5&#45;&gt;Node8</title>
<path fill="none" stroke="#191970" d="M374.0957,-117.8906C415.9531,-106.6001 485.133,-87.9398 528.1313,-76.3415"/>
<polygon fill="#191970" stroke="#191970" points="529.1969,-79.6793 537.9403,-73.6957 527.3739,-72.9208 529.1969,-79.6793"/>
</g>
<!-- Node9 -->
<g id="node10" class="node">
<title>Node9</title>
<polygon fill="none" stroke="#bfbfbf" points="197.4707,-56.5 197.4707,-75.5 241.4707,-75.5 241.4707,-56.5 197.4707,-56.5"/>
<text text-anchor="middle" x="219.4707" y="-63.5" font-family="Helvetica,sans-Serif" font-size="10.00" fill="#000000">string</text>
</g>
<!-- Node5&#45;&gt;Node9 -->
<g id="edge10" class="edge">
<title>Node5&#45;&gt;Node9</title>
<path fill="none" stroke="#191970" d="M319.8769,-117.8906C300.3154,-107.7811 269.3206,-91.7628 246.9398,-80.1962"/>
<polygon fill="#191970" stroke="#191970" points="248.4246,-77.0238 237.9339,-75.5419 245.2107,-83.2425 248.4246,-77.0238"/>
</g>
<!-- Node10 -->
<g id="node11" class="node">
<title>Node10</title>
<polygon fill="none" stroke="#bfbfbf" points="259.9707,-56.5 259.9707,-75.5 332.9707,-75.5 332.9707,-56.5 259.9707,-56.5"/>
<text text-anchor="middle" x="296.4707" y="-63.5" font-family="Helvetica,sans-Serif" font-size="10.00" fill="#000000">string_view</text>
</g>
<!-- Node5&#45;&gt;Node10 -->
<g id="edge11" class="edge">
<title>Node5&#45;&gt;Node10</title>
<path fill="none" stroke="#191970" d="M331.9082,-117.8906C325.7799,-108.917 316.4722,-95.2879 308.9335,-84.2491"/>
<polygon fill="#191970" stroke="#191970" points="311.6557,-82.029 303.1257,-75.7449 305.8751,-85.9768 311.6557,-82.029"/>
</g>
<!-- Node11 -->
<g id="node12" class="node">
<title>Node11</title>
<polygon fill="none" stroke="#bfbfbf" points="1449.9707,-.5 1449.9707,-19.5 1496.9707,-19.5 1496.9707,-.5 1449.9707,-.5"/>
<text text-anchor="middle" x="1473.4707" y="-7.5" font-family="Helvetica,sans-Serif" font-size="10.00" fill="#000000">vector</text>
</g>
<!-- Node5&#45;&gt;Node11 -->
<g id="edge12" class="edge">
<title>Node5&#45;&gt;Node11</title>
<path fill="none" stroke="#191970" d="M341.5151,-117.9611C347.2169,-101.8777 361.1763,-69.7737 385.4707,-56 408.9782,-42.6724 1258.7654,-16.4465 1439.7792,-11.0035"/>
<polygon fill="#191970" stroke="#191970" points="1439.8983,-14.5016 1449.7888,-10.7032 1439.6883,-7.5047 1439.8983,-14.5016"/>
</g>
<!-- Node12 -->
<g id="node13" class="node">
<title>Node12</title>
<g id="a_node13"><a xlink:href="../../dd/d9a/RDHFields_8h.html" target="_top" xlink:title="MCHRawCommon/RDHFields.h">
<polygon fill="none" stroke="#000000" points="13.4707,-56.5 13.4707,-75.5 179.4707,-75.5 179.4707,-56.5 13.4707,-56.5"/>
<text text-anchor="middle" x="96.4707" y="-63.5" font-family="Helvetica,sans-Serif" font-size="10.00" fill="#000000">MCHRawCommon/RDHFields.h</text>
</a>
</g>
</g>
<!-- Node5&#45;&gt;Node12 -->
<g id="edge13" class="edge">
<title>Node5&#45;&gt;Node12</title>
<path fill="none" stroke="#191970" d="M300.9237,-117.9581C258.6235,-107.2082 189.793,-89.7162 143.8337,-78.0365"/>
<polygon fill="#191970" stroke="#191970" points="144.6598,-74.6352 134.1057,-75.5643 142.9356,-81.4196 144.6598,-74.6352"/>
</g>
<!-- Node13 -->
<g id="node14" class="node">
<title>Node13</title>
<polygon fill="none" stroke="#bfbfbf" points="427.9707,-56.5 427.9707,-75.5 480.9707,-75.5 480.9707,-56.5 427.9707,-56.5"/>
<text text-anchor="middle" x="454.4707" y="-63.5" font-family="Helvetica,sans-Serif" font-size="10.00" fill="#000000">cstddef</text>
</g>
<!-- Node5&#45;&gt;Node13 -->
<g id="edge15" class="edge">
<title>Node5&#45;&gt;Node13</title>
<path fill="none" stroke="#191970" d="M356.5957,-117.8906C375.579,-107.8262 405.6079,-91.9057 427.4014,-80.3514"/>
<polygon fill="#191970" stroke="#191970" points="429.2773,-83.3184 436.473,-75.5419 425.9984,-77.1338 429.2773,-83.3184"/>
</g>
<!-- Node12&#45;&gt;Node6 -->
<g id="edge14" class="edge">
<title>Node12&#45;&gt;Node6</title>
<path fill="none" stroke="#191970" d="M179.7142,-56.9408C182.6693,-56.6227 185.5952,-56.3083 188.4707,-56 337.0879,-40.0651 514.3105,-21.4421 588.3057,-13.6835"/>
<polygon fill="#191970" stroke="#191970" points="588.8777,-17.1428 598.4583,-12.6192 588.1478,-10.1809 588.8777,-17.1428"/>
</g>
<!-- Node15&#45;&gt;Node7 -->
<g id="edge18" class="edge">
<title>Node15&#45;&gt;Node7</title>
<path fill="none" stroke="#191970" d="M1240.4781,-179.0464C1240.9628,-163.376 1243.8768,-132.618 1258.4707,-112 1268.0796,-98.4247 1283.0833,-87.9167 1296.9129,-80.3933"/>
<polygon fill="#191970" stroke="#191970" points="1298.8919,-83.3135 1306.2188,-75.6606 1295.7187,-77.074 1298.8919,-83.3135"/>
</g>
<!-- Node15&#45;&gt;Node8 -->
<g id="edge19" class="edge">
<title>Node15&#45;&gt;Node8</title>
<path fill="none" stroke="#191970" d="M1176.8815,-179.4972C1139.9735,-172.4765 1093.261,-160.9566 1054.4707,-143 1033.0906,-133.1029 1033.53,-120.2734 1011.4707,-112 850.1438,-51.4942 796.3069,-98.4121 625.4707,-76 618.9811,-75.1486 612.1125,-74.1107 605.4444,-73.0295"/>
<polygon fill="#191970" stroke="#191970" points="605.6551,-69.5161 595.2142,-71.3156 604.4984,-76.4199 605.6551,-69.5161"/>
</g>
<!-- Node16 -->
<g id="node17" class="node">
<title>Node16</title>
<polygon fill="none" stroke="#bfbfbf" points="1267.4707,-118 1267.4707,-137 1305.4707,-137 1305.4707,-118 1267.4707,-118"/>
<text text-anchor="middle" x="1286.4707" y="-125" font-family="Helvetica,sans-Serif" font-size="10.00" fill="#000000">map</text>
</g>
<!-- Node15&#45;&gt;Node16 -->
<g id="edge20" class="edge">
<title>Node15&#45;&gt;Node16</title>
<path fill="none" stroke="#191970" d="M1247.6582,-179.3906C1254.4373,-170.3273 1264.7685,-156.5149 1273.068,-145.4188"/>
<polygon fill="#191970" stroke="#191970" points="1275.995,-147.349 1279.1818,-137.2449 1270.3895,-143.1563 1275.995,-147.349"/>
</g>
<!-- Node17 -->
<g id="node18" class="node">
<title>Node17</title>
<g id="a_node18"><a xlink:href="../../dd/d58/SampaChannelHandler_8h.html" target="_top" xlink:title="MCHRawDecoder/SampaChannel\lHandler.h">
<polygon fill="none" stroke="#000000" points="1322.9707,-112.5 1322.9707,-142.5 1499.9707,-142.5 1499.9707,-112.5 1322.9707,-112.5"/>
<text text-anchor="start" x="1330.9707" y="-130.5" font-family="Helvetica,sans-Serif" font-size="10.00" fill="#000000">MCHRawDecoder/SampaChannel</text>
<text text-anchor="middle" x="1411.4707" y="-119.5" font-family="Helvetica,sans-Serif" font-size="10.00" fill="#000000">Handler.h</text>
</a>
</g>
</g>
<!-- Node15&#45;&gt;Node17 -->
<g id="edge21" class="edge">
<title>Node15&#45;&gt;Node17</title>
<path fill="none" stroke="#191970" d="M1267.1894,-179.3906C1291.9393,-170.4893 1329.426,-157.0073 1359.9857,-146.0165"/>
<polygon fill="#191970" stroke="#191970" points="1361.414,-149.2224 1369.6394,-142.5446 1359.0449,-142.6355 1361.414,-149.2224"/>
</g>
<!-- Node24 -->
<g id="node25" class="node">
<title>Node24</title>
<g id="a_node25"><a xlink:href="../../d2/d71/MUON_2MCH_2Raw_2ElecMap_2include_2MCHRawElecMap_2Mapper_8h.html" target="_top" xlink:title="MCHRawElecMap/Mapper.h">
<polygon fill="none" stroke="#000000" points="1063.4707,-118 1063.4707,-137 1211.4707,-137 1211.4707,-118 1063.4707,-118"/>
<text text-anchor="middle" x="1137.4707" y="-125" font-family="Helvetica,sans-Serif" font-size="10.00" fill="#000000">MCHRawElecMap/Mapper.h</text>
</a>
</g>
</g>
<!-- Node15&#45;&gt;Node24 -->
<g id="edge32" class="edge">
<title>Node15&#45;&gt;Node24</title>
<path fill="none" stroke="#191970" d="M1224.3769,-179.3906C1207.7478,-169.4616 1181.573,-153.833 1162.2913,-142.3201"/>
<polygon fill="#191970" stroke="#191970" points="1163.8317,-139.1634 1153.4514,-137.0419 1160.2431,-145.1736 1163.8317,-139.1634"/>
</g>
<!-- Node17&#45;&gt;Node7 -->
<g id="edge22" class="edge">
<title>Node17&#45;&gt;Node7</title>
<path fill="none" stroke="#191970" d="M1391.4482,-112.2977C1379.3847,-103.1384 1364.0319,-91.4816 1351.7496,-82.1562"/>
<polygon fill="#191970" stroke="#191970" points="1353.5208,-79.1065 1343.4398,-75.8469 1349.2878,-84.6816 1353.5208,-79.1065"/>
</g>
<!-- Node18 -->
<g id="node19" class="node">
<title>Node18</title>
<g id="a_node19"><a xlink:href="../../d0/d5b/SampaCluster_8h.html" target="_top" xlink:title="MCHRawCommon/SampaCluster.h">
<polygon fill="none" stroke="#000000" points="1381.4707,-56.5 1381.4707,-75.5 1565.4707,-75.5 1565.4707,-56.5 1381.4707,-56.5"/>
<text text-anchor="middle" x="1473.4707" y="-63.5" font-family="Helvetica,sans-Serif" font-size="10.00" fill="#000000">MCHRawCommon/SampaCluster.h</text>
</a>
</g>
</g>
<!-- Node17&#45;&gt;Node18 -->
<g id="edge23" class="edge">
<title>Node17&#45;&gt;Node18</title>
<path fill="none" stroke="#191970" d="M1426.7965,-112.2977C1435.7614,-103.4052 1447.0995,-92.1586 1456.3558,-82.9769"/>
<polygon fill="#191970" stroke="#191970" points="1458.9089,-85.3742 1463.5437,-75.8469 1453.9792,-80.4045 1458.9089,-85.3742"/>
</g>
<!-- Node21 -->
<g id="node22" class="node">
<title>Node21</title>
<g id="a_node22"><a xlink:href="../../d4/d09/DsElecId_8h.html" target="_top" xlink:title="MCHRawElecMap/DsElecId.h">
<polygon fill="none" stroke="#000000" points="1085.9707,-56.5 1085.9707,-75.5 1240.9707,-75.5 1240.9707,-56.5 1085.9707,-56.5"/>
<text text-anchor="middle" x="1163.4707" y="-63.5" font-family="Helvetica,sans-Serif" font-size="10.00" fill="#000000">MCHRawElecMap/DsElecId.h</text>
</a>
</g>
</g>
<!-- Node17&#45;&gt;Node21 -->
<g id="edge28" class="edge">
<title>Node17&#45;&gt;Node21</title>
<path fill="none" stroke="#191970" d="M1350.8031,-112.4554C1307.9717,-101.8339 1251.3598,-87.7951 1211.6224,-77.9408"/>
<polygon fill="#191970" stroke="#191970" points="1212.4503,-74.5402 1201.9019,-75.5303 1210.7654,-81.3344 1212.4503,-74.5402"/>
</g>
<!-- Node18&#45;&gt;Node2 -->
<g id="edge26" class="edge">
<title>Node18&#45;&gt;Node2</title>
<path fill="none" stroke="#191970" d="M1529.3124,-56.4369C1595.0471,-45.1796 1702.5763,-26.7648 1760.5033,-16.8446"/>
<polygon fill="#191970" stroke="#191970" points="1761.1155,-20.2908 1770.3812,-15.1529 1759.9338,-13.3912 1761.1155,-20.2908"/>
</g>
<!-- Node18&#45;&gt;Node11 -->
<g id="edge25" class="edge">
<title>Node18&#45;&gt;Node11</title>
<path fill="none" stroke="#191970" d="M1473.4707,-56.2455C1473.4707,-48.9382 1473.4707,-38.6944 1473.4707,-29.7046"/>
<polygon fill="#191970" stroke="#191970" points="1476.9708,-29.6426 1473.4707,-19.6427 1469.9708,-29.6427 1476.9708,-29.6426"/>
</g>
<!-- Node19 -->
<g id="node20" class="node">
<title>Node19</title>
<polygon fill="none" stroke="#bfbfbf" points="1568.9707,-.5 1568.9707,-19.5 1617.9707,-19.5 1617.9707,-.5 1568.9707,-.5"/>
<text text-anchor="middle" x="1593.4707" y="-7.5" font-family="Helvetica,sans-Serif" font-size="10.00" fill="#000000">cstdlib</text>
</g>
<!-- Node18&#45;&gt;Node19 -->
<g id="edge24" class="edge">
<title>Node18&#45;&gt;Node19</title>
<path fill="none" stroke="#191970" d="M1494.0994,-56.3733C1513.3625,-47.3838 1542.3193,-33.8706 1564.0126,-23.7471"/>
<polygon fill="#191970" stroke="#191970" points="1565.5294,-26.9017 1573.1111,-19.5011 1562.5692,-20.5584 1565.5294,-26.9017"/>
</g>
<!-- Node20 -->
<g id="node21" class="node">
<title>Node20</title>
<polygon fill="none" stroke="#bfbfbf" points="2051.9707,-.5 2051.9707,-19.5 2130.9707,-19.5 2130.9707,-.5 2051.9707,-.5"/>
<text text-anchor="middle" x="2091.4707" y="-7.5" font-family="Helvetica,sans-Serif" font-size="10.00" fill="#000000">fmt/format.h</text>
</g>
<!-- Node18&#45;&gt;Node20 -->
<g id="edge27" class="edge">
<title>Node18&#45;&gt;Node20</title>
<path fill="none" stroke="#191970" d="M1565.6576,-57.6465C1698.2214,-45.6342 1938.1042,-23.8973 2041.6587,-14.5137"/>
<polygon fill="#191970" stroke="#191970" points="2042.1923,-17.9798 2051.8356,-13.5915 2041.5606,-11.0083 2042.1923,-17.9798"/>
</g>
<!-- Node21&#45;&gt;Node6 -->
<g id="edge29" class="edge">
<title>Node21&#45;&gt;Node6</title>
<path fill="none" stroke="#191970" d="M1085.6882,-57.0078C1082.5755,-56.6643 1079.4937,-56.3272 1076.4707,-56 920.7196,-39.1416 734.6369,-20.8174 658.5236,-13.3999"/>
<polygon fill="#191970" stroke="#191970" points="658.8202,-9.9123 648.5281,-12.4269 658.142,-16.8794 658.8202,-9.9123"/>
</g>
<!-- Node22 -->
<g id="node23" class="node">
<title>Node22</title>
<polygon fill="none" stroke="#bfbfbf" points="878.9707,-.5 878.9707,-19.5 927.9707,-19.5 927.9707,-.5 878.9707,-.5"/>
<text text-anchor="middle" x="903.4707" y="-7.5" font-family="Helvetica,sans-Serif" font-size="10.00" fill="#000000">iosfwd</text>
</g>
<!-- Node21&#45;&gt;Node22 -->
<g id="edge30" class="edge">
<title>Node21&#45;&gt;Node22</title>
<path fill="none" stroke="#191970" d="M1119.0705,-56.4369C1067.8315,-45.4008 984.6548,-27.4858 938.0096,-17.4392"/>
<polygon fill="#191970" stroke="#191970" points="938.5955,-13.9852 928.0827,-15.3011 937.1216,-20.8282 938.5955,-13.9852"/>
</g>
<!-- Node23 -->
<g id="node24" class="node">
<title>Node23</title>
<polygon fill="none" stroke="#bfbfbf" points="1057.4707,-.5 1057.4707,-19.5 1113.4707,-19.5 1113.4707,-.5 1057.4707,-.5"/>
<text text-anchor="middle" x="1085.4707" y="-7.5" font-family="Helvetica,sans-Serif" font-size="10.00" fill="#000000">optional</text>
</g>
<!-- Node21&#45;&gt;Node23 -->
<g id="edge31" class="edge">
<title>Node21&#45;&gt;Node23</title>
<path fill="none" stroke="#191970" d="M1149.8841,-56.2455C1138.1402,-47.814 1120.9508,-35.4729 1107.2825,-25.6598"/>
<polygon fill="#191970" stroke="#191970" points="1109.066,-22.6316 1098.9015,-19.6427 1104.9836,-28.3179 1109.066,-22.6316"/>
</g>
<!-- Node24&#45;&gt;Node6 -->
<g id="edge37" class="edge">
<title>Node24&#45;&gt;Node6</title>
<path fill="none" stroke="#191970" d="M1087.7894,-117.9793C1075.3122,-115.8007 1061.928,-113.6449 1049.4707,-112 959.4545,-100.1138 712.5349,-133.7512 642.4707,-76 629.1264,-65.0009 624.8038,-45.2814 623.5637,-30.2524"/>
<polygon fill="#191970" stroke="#191970" points="627.0449,-29.7363 623.1179,-19.8961 620.0513,-30.0374 627.0449,-29.7363"/>
</g>
<!-- Node24&#45;&gt;Node7 -->
<g id="edge33" class="edge">
<title>Node24&#45;&gt;Node7</title>
<path fill="none" stroke="#191970" d="M1167.6269,-117.8906C1200.7692,-107.3298 1254.1469,-90.3208 1290.6949,-78.6747"/>
<polygon fill="#191970" stroke="#191970" points="1292.0609,-81.9129 1300.5262,-75.5419 1289.9356,-75.2433 1292.0609,-81.9129"/>
</g>
<!-- Node24&#45;&gt;Node8 -->
<g id="edge47" class="edge">
<title>Node24&#45;&gt;Node8</title>
<path fill="none" stroke="#191970" d="M1087.7969,-117.9218C1075.3195,-115.7446 1061.9334,-113.6039 1049.4707,-112 854.8666,-86.9553 803.3254,-106.3037 609.4707,-76 608.0035,-75.7706 606.5121,-75.5187 605.0085,-75.249"/>
<polygon fill="#191970" stroke="#191970" points="605.5287,-71.7839 595.0372,-73.26 604.1593,-78.6486 605.5287,-71.7839"/>
</g>
<!-- Node24&#45;&gt;Node20 -->
<g id="edge45" class="edge">
<title>Node24&#45;&gt;Node20</title>
<path fill="none" stroke="#191970" d="M1159.2724,-117.9226C1182.1323,-107.7968 1219.0326,-91.215 1250.4707,-76 1268.0048,-67.5141 1270.6739,-61.1127 1289.4707,-56 1325.823,-46.1123 1872.2886,-20.1393 2041.7471,-12.2834"/>
<polygon fill="#191970" stroke="#191970" points="2042.0596,-15.7727 2051.8871,-11.8141 2041.7359,-8.7802 2042.0596,-15.7727"/>
</g>
<!-- Node24&#45;&gt;Node21 -->
<g id="edge41" class="edge">
<title>Node24&#45;&gt;Node21</title>
<path fill="none" stroke="#191970" d="M1141.5332,-117.8906C1145.2131,-109.1862 1150.7448,-96.1015 1155.3327,-85.2494"/>
<polygon fill="#191970" stroke="#191970" points="1158.6806,-86.3185 1159.3509,-75.7449 1152.2331,-83.5927 1158.6806,-86.3185"/>
</g>
<!-- Node24&#45;&gt;Node23 -->
<g id="edge34" class="edge">
<title>Node24&#45;&gt;Node23</title>
<path fill="none" stroke="#191970" d="M1089.8205,-117.9866C1066.4926,-110.6697 1040.4744,-97.9348 1026.4707,-76 1014.1514,-56.7036 1036.1437,-37.5177 1056.6892,-24.8467"/>
<polygon fill="#191970" stroke="#191970" points="1058.7108,-27.72 1065.5994,-19.6702 1055.1944,-21.6673 1058.7108,-27.72"/>
</g>
<!-- Node25 -->
<g id="node26" class="node">
<title>Node25</title>
<polygon fill="none" stroke="#bfbfbf" points="1035.4707,-56.5 1035.4707,-75.5 1067.4707,-75.5 1067.4707,-56.5 1035.4707,-56.5"/>
<text text-anchor="middle" x="1051.4707" y="-63.5" font-family="Helvetica,sans-Serif" font-size="10.00" fill="#000000">set</text>
</g>
<!-- Node24&#45;&gt;Node25 -->
<g id="edge35" class="edge">
<title>Node24&#45;&gt;Node25</title>
<path fill="none" stroke="#191970" d="M1124.0332,-117.8906C1110.4011,-108.1421 1089.0861,-92.8994 1073.0784,-81.4521"/>
<polygon fill="#191970" stroke="#191970" points="1074.9839,-78.5118 1064.8138,-75.5419 1070.9121,-84.2057 1074.9839,-78.5118"/>
</g>
<!-- Node26 -->
<g id="node27" class="node">
<title>Node26</title>
<polygon fill="none" stroke="#bfbfbf" points="1719.9707,-56.5 1719.9707,-75.5 1784.9707,-75.5 1784.9707,-56.5 1719.9707,-56.5"/>
<text text-anchor="middle" x="1752.4707" y="-63.5" font-family="Helvetica,sans-Serif" font-size="10.00" fill="#000000">stdexcept</text>
</g>
<!-- Node24&#45;&gt;Node26 -->
<g id="edge36" class="edge">
<title>Node24&#45;&gt;Node26</title>
<path fill="none" stroke="#191970" d="M1207.1476,-117.9948C1223.9355,-115.865 1241.829,-113.7276 1258.4707,-112 1455.6886,-91.5263 1509.6819,-106.9183 1709.61,-75.9065"/>
<polygon fill="#191970" stroke="#191970" points="1710.2156,-79.3544 1719.5514,-74.3451 1709.1295,-72.4391 1710.2156,-79.3544"/>
</g>
<!-- Node27 -->
<g id="node28" class="node">
<title>Node27</title>
<g id="a_node28"><a xlink:href="../../d5/dcd/DsDetId_8h.html" target="_top" xlink:title="MCHRawElecMap/DsDetId.h">
<polygon fill="none" stroke="#000000" points="827.4707,-56.5 827.4707,-75.5 979.4707,-75.5 979.4707,-56.5 827.4707,-56.5"/>
<text text-anchor="middle" x="903.4707" y="-63.5" font-family="Helvetica,sans-Serif" font-size="10.00" fill="#000000">MCHRawElecMap/DsDetId.h</text>
</a>
</g>
</g>
<!-- Node24&#45;&gt;Node27 -->
<g id="edge38" class="edge">
<title>Node24&#45;&gt;Node27</title>
<path fill="none" stroke="#191970" d="M1101.1649,-117.9581C1060.3488,-107.2308 993.9869,-89.7895 949.5477,-78.11"/>
<polygon fill="#191970" stroke="#191970" points="950.4228,-74.7212 939.8616,-75.5643 948.6435,-81.4913 950.4228,-74.7212"/>
</g>
<!-- Node28 -->
<g id="node29" class="node">
<title>Node28</title>
<g id="a_node29"><a xlink:href="../../d8/d97/FeeLinkId_8h.html" target="_top" xlink:title="MCHRawElecMap/FeeLinkId.h">
<polygon fill="none" stroke="#000000" points="651.4707,-56.5 651.4707,-75.5 809.4707,-75.5 809.4707,-56.5 651.4707,-56.5"/>
<text text-anchor="middle" x="730.4707" y="-63.5" font-family="Helvetica,sans-Serif" font-size="10.00" fill="#000000">MCHRawElecMap/FeeLinkId.h</text>
</a>
</g>
</g>
<!-- Node24&#45;&gt;Node28 -->
<g id="edge42" class="edge">
<title>Node24&#45;&gt;Node28</title>
<path fill="none" stroke="#191970" d="M1084.9332,-117.9704C1073.269,-115.9317 1060.959,-113.8396 1049.4707,-112 968.4428,-99.0251 875.5627,-85.8198 811.0015,-76.9062"/>
<polygon fill="#191970" stroke="#191970" points="811.2732,-73.4107 800.8891,-75.5132 810.3179,-80.3452 811.2732,-73.4107"/>
</g>
<!-- Node29 -->
<g id="node30" class="node">
<title>Node29</title>
<polygon fill="none" stroke="#bfbfbf" points="1659.4707,-56.5 1659.4707,-75.5 1701.4707,-75.5 1701.4707,-56.5 1659.4707,-56.5"/>
<text text-anchor="middle" x="1680.4707" y="-63.5" font-family="Helvetica,sans-Serif" font-size="10.00" fill="#000000">array</text>
</g>
<!-- Node24&#45;&gt;Node29 -->
<g id="edge46" class="edge">
<title>Node24&#45;&gt;Node29</title>
<path fill="none" stroke="#191970" d="M1210.065,-117.9749C1226.0059,-115.9464 1242.8023,-113.8573 1258.4707,-112 1404.3556,-94.7066 1578.913,-76.4544 1649.04,-69.2216"/>
<polygon fill="#191970" stroke="#191970" points="1649.7891,-72.6631 1659.378,-68.1572 1649.0721,-65.6999 1649.7891,-72.6631"/>
</g>
<!-- Node27&#45;&gt;Node6 -->
<g id="edge39" class="edge">
<title>Node27&#45;&gt;Node6</title>
<path fill="none" stroke="#191970" d="M855.6551,-56.4369C799.6596,-45.2378 708.2458,-26.955 658.4663,-16.9991"/>
<polygon fill="#191970" stroke="#191970" points="658.9958,-13.5358 648.5035,-15.0066 657.6229,-20.3998 658.9958,-13.5358"/>
</g>
<!-- Node27&#45;&gt;Node22 -->
<g id="edge40" class="edge">
<title>Node27&#45;&gt;Node22</title>
<path fill="none" stroke="#191970" d="M903.4707,-56.2455C903.4707,-48.9382 903.4707,-38.6944 903.4707,-29.7046"/>
<polygon fill="#191970" stroke="#191970" points="906.9708,-29.6426 903.4707,-19.6427 899.9708,-29.6427 906.9708,-29.6426"/>
</g>
<!-- Node28&#45;&gt;Node6 -->
<g id="edge43" class="edge">
<title>Node28&#45;&gt;Node6</title>
<path fill="none" stroke="#191970" d="M711.8327,-56.2455C695.032,-47.4527 670.1072,-34.4079 651.0089,-24.4125"/>
<polygon fill="#191970" stroke="#191970" points="652.378,-21.1787 641.8951,-19.6427 649.1321,-27.3807 652.378,-21.1787"/>
</g>
<!-- Node28&#45;&gt;Node22 -->
<g id="edge44" class="edge">
<title>Node28&#45;&gt;Node22</title>
<path fill="none" stroke="#191970" d="M760.2104,-56.3733C790.4597,-46.5816 837.2894,-31.4229 869.107,-21.1235"/>
<polygon fill="#191970" stroke="#191970" points="870.4338,-24.3729 878.8699,-17.9633 868.278,-17.7131 870.4338,-24.3729"/>
</g>
<!-- Node30&#45;&gt;Node6 -->
<g id="edge49" class="edge">
<title>Node30&#45;&gt;Node6</title>
<path fill="none" stroke="#191970" d="M808.8045,-179.4453C725.5849,-162.0098 561.6741,-122.5115 528.4707,-76 509.2484,-49.0733 554.1054,-29.4709 588.5305,-18.9167"/>
<polygon fill="#191970" stroke="#191970" points="589.726,-22.2141 598.3484,-16.0574 587.7686,-15.4933 589.726,-22.2141"/>
</g>
<!-- Node31&#45;&gt;Node8 -->
<g id="edge52" class="edge">
<title>Node31&#45;&gt;Node8</title>
<path fill="none" stroke="#191970" d="M492.2207,-117.8906C506.1697,-108.1421 527.9805,-92.8994 544.3604,-81.4521"/>
<polygon fill="#191970" stroke="#191970" points="546.6255,-84.1392 552.8172,-75.5419 542.6156,-78.4015 546.6255,-84.1392"/>
</g>
<!-- Node31&#45;&gt;Node13 -->
<g id="edge51" class="edge">
<title>Node31&#45;&gt;Node13</title>
<path fill="none" stroke="#191970" d="M474.7207,-117.8906C471.3238,-109.1862 466.2176,-96.1015 461.9827,-85.2494"/>
<polygon fill="#191970" stroke="#191970" points="465.1696,-83.7882 458.2735,-75.7449 458.6485,-86.3331 465.1696,-83.7882"/>
</g>
<!-- Node32&#45;&gt;Node2 -->
<g id="edge79" class="edge">
<title>Node32&#45;&gt;Node2</title>
<path fill="none" stroke="#191970" d="M1611.566,-302.4667C1589.3958,-295.8244 1565.0817,-284.6614 1549.4707,-266 1524.3416,-235.9608 1521.0932,-215.4296 1535.4707,-179 1562.9445,-109.3869 1586.9952,-95.644 1650.4707,-56 1684.3039,-34.8692 1728.5149,-22.8611 1760.1588,-16.4532"/>
<polygon fill="#191970" stroke="#191970" points="1761.2155,-19.8142 1770.3752,-14.4897 1759.8943,-12.94 1761.2155,-19.8142"/>
</g>
<!-- Node32&#45;&gt;Node4 -->
<g id="edge73" class="edge">
<title>Node32&#45;&gt;Node4</title>
<path fill="none" stroke="#191970" d="M1717.6501,-302.7383C1756.6524,-294.8385 1804.4302,-282.1928 1816.4707,-266 1846.6934,-225.3544 1794.2362,-170.4956 1763.4539,-143.6525"/>
<polygon fill="#191970" stroke="#191970" points="1765.6858,-140.9562 1755.7954,-137.1576 1761.1583,-146.2949 1765.6858,-140.9562"/>
</g>
<!-- Node32&#45;&gt;Node8 -->
<g id="edge72" class="edge">
<title>Node32&#45;&gt;Node8</title>
<path fill="none" stroke="#191970" d="M1609.4524,-307.691C1537.3738,-301.3858 1405.9877,-287.9497 1295.4707,-266 1156.8236,-238.4634 735.3271,-115.655 605.1717,-77.4093"/>
<polygon fill="#191970" stroke="#191970" points="605.8311,-73.9551 595.2498,-74.4917 603.8562,-80.6707 605.8311,-73.9551"/>
</g>
<!-- Node32&#45;&gt;Node17 -->
<g id="edge71" class="edge">
<title>Node32&#45;&gt;Node17</title>
<path fill="none" stroke="#191970" d="M1609.2639,-306.3988C1575.5852,-300.6854 1532.8795,-289.1715 1501.4707,-266 1461.2836,-236.3524 1434.123,-182.9466 1420.8636,-151.8277"/>
<polygon fill="#191970" stroke="#191970" points="1424.0932,-150.4787 1417.0481,-142.5656 1417.6209,-153.145 1424.0932,-150.4787"/>
</g>
<!-- Node32&#45;&gt;Node20 -->
<g id="edge74" class="edge">
<title>Node32&#45;&gt;Node20</title>
<path fill="none" stroke="#191970" d="M1717.9193,-304.8432C1763.9378,-297.8483 1831.1644,-285.3877 1887.4707,-266 1950.8043,-244.1926 1965.871,-234.8217 2022.4707,-199 2056.4304,-177.5071 2072.0678,-177.0166 2093.4707,-143 2114.3663,-109.7896 2115.3794,-94.6242 2108.4707,-56 2106.8263,-46.8071 2103.4702,-37.047 2100.171,-28.8935"/>
<polygon fill="#191970" stroke="#191970" points="2103.3313,-27.3833 2096.1556,-19.5885 2096.9042,-30.1569 2103.3313,-27.3833"/>
</g>
<!-- Node32&#45;&gt;Node29 -->
<g id="edge54" class="edge">
<title>Node32&#45;&gt;Node29</title>
<path fill="none" stroke="#191970" d="M1664.1371,-302.3565C1666.6601,-265.8479 1675.657,-135.6569 1679.1088,-85.7066"/>
<polygon fill="#191970" stroke="#191970" points="1682.611,-85.7944 1679.8089,-75.5768 1675.6277,-85.3117 1682.611,-85.7944"/>
</g>
<!-- Node33 -->
<g id="node34" class="node">
<title>Node33</title>
<g id="a_node34"><a xlink:href="../../d7/ddc/BareElinkDecoder_8h.html" target="_top" xlink:title="BareElinkDecoder.h">
<polygon fill="none" stroke="#000000" points="1901.4707,-179.5 1901.4707,-198.5 2013.4707,-198.5 2013.4707,-179.5 1901.4707,-179.5"/>
<text text-anchor="middle" x="1957.4707" y="-186.5" font-family="Helvetica,sans-Serif" font-size="10.00" fill="#000000">BareElinkDecoder.h</text>
</a>
</g>
</g>
<!-- Node32&#45;&gt;Node33 -->
<g id="edge55" class="edge">
<title>Node32&#45;&gt;Node33</title>
<path fill="none" stroke="#191970" d="M1717.7764,-304.1336C1755.8658,-297.3007 1807.3086,-285.3829 1849.4707,-266 1884.0418,-250.1068 1918.9783,-222.6517 1939.4061,-205.181"/>
<polygon fill="#191970" stroke="#191970" points="1941.7394,-207.7903 1946.9844,-198.5848 1937.1436,-202.5102 1941.7394,-207.7903"/>
</g>
<!-- Node34 -->
<g id="node35" class="node">
<title>Node34</title>
<g id="a_node35"><a xlink:href="../../dc/d46/Assertions_8h.html" target="_top" xlink:title="Assertions.h">
<polygon fill="none" stroke="#000000" points="2157.9707,-118 2157.9707,-137 2234.9707,-137 2234.9707,-118 2157.9707,-118"/>
<text text-anchor="middle" x="2196.4707" y="-125" font-family="Helvetica,sans-Serif" font-size="10.00" fill="#000000">Assertions.h</text>
</a>
</g>
</g>
<!-- Node32&#45;&gt;Node34 -->
<g id="edge78" class="edge">
<title>Node32&#45;&gt;Node34</title>
<path fill="none" stroke="#191970" d="M1717.5975,-309.9609C1810.7459,-305.7439 1996.9916,-294.0062 2055.4707,-266 2113.8064,-238.0625 2162.6809,-176.1755 2184.3989,-145.4821"/>
<polygon fill="#191970" stroke="#191970" points="2187.4353,-147.2449 2190.2475,-137.0301 2181.6791,-143.2617 2187.4353,-147.2449"/>
</g>
<!-- Node38 -->
<g id="node39" class="node">
<title>Node38</title>
<g id="a_node39"><a xlink:href="../../d7/dee/MakeArray_8h.html" target="_top" xlink:title="MakeArray.h">
<polygon fill="none" stroke="#000000" points="1557.9707,-241 1557.9707,-260 1634.9707,-260 1634.9707,-241 1557.9707,-241"/>
<text text-anchor="middle" x="1596.4707" y="-248" font-family="Helvetica,sans-Serif" font-size="10.00" fill="#000000">MakeArray.h</text>
</a>
</g>
</g>
<!-- Node32&#45;&gt;Node38 -->
<g id="edge75" class="edge">
<title>Node32&#45;&gt;Node38</title>
<path fill="none" stroke="#191970" d="M1653.0019,-302.3906C1642.737,-292.9683 1626.8804,-278.4134 1614.5701,-267.1137"/>
<polygon fill="#191970" stroke="#191970" points="1616.8208,-264.4287 1607.087,-260.2449 1612.0872,-269.5856 1616.8208,-264.4287"/>
</g>
<!-- Node40 -->
<g id="node41" class="node">
<title>Node40</title>
<polygon fill="none" stroke="#bfbfbf" points="1691.4707,-235.5 1691.4707,-265.5 1807.4707,-265.5 1807.4707,-235.5 1691.4707,-235.5"/>
<text text-anchor="start" x="1699.4707" y="-253.5" font-family="Helvetica,sans-Serif" font-size="10.00" fill="#000000">boost/multiprecision</text>
<text text-anchor="middle" x="1749.4707" y="-242.5" font-family="Helvetica,sans-Serif" font-size="10.00" fill="#000000">/cpp_int.hpp</text>
</g>
<!-- Node32&#45;&gt;Node40 -->
<g id="edge80" class="edge">
<title>Node32&#45;&gt;Node40</title>
<path fill="none" stroke="#191970" d="M1676.9082,-302.3906C1688.4395,-294.1444 1705.4682,-281.9669 1720.1318,-271.4807"/>
<polygon fill="#191970" stroke="#191970" points="1722.3345,-274.2084 1728.4327,-265.5446 1718.2626,-268.5145 1722.3345,-274.2084"/>
</g>
<!-- Node41 -->
<g id="node42" class="node">
<title>Node41</title>
<g id="a_node42"><a xlink:href="../../d0/da1/PayloadDecoder_8h.html" target="_top" xlink:title="PayloadDecoder.h">
<polygon fill="none" stroke="#000000" points="1304.4707,-241 1304.4707,-260 1408.4707,-260 1408.4707,-241 1304.4707,-241"/>
<text text-anchor="middle" x="1356.4707" y="-248" font-family="Helvetica,sans-Serif" font-size="10.00" fill="#000000">PayloadDecoder.h</text>
</a>
</g>
</g>
<!-- Node32&#45;&gt;Node41 -->
<g id="edge81" class="edge">
<title>Node32&#45;&gt;Node41</title>
<path fill="none" stroke="#191970" d="M1611.1504,-302.4589C1562.661,-293.4911 1488.5654,-279.469 1424.4707,-266 1418.9903,-264.8483 1413.2706,-263.6069 1407.577,-262.3457"/>
<polygon fill="#191970" stroke="#191970" points="1407.9372,-258.8397 1397.414,-260.0693 1406.4072,-265.6705 1407.9372,-258.8397"/>
</g>
<!-- Node33&#45;&gt;Node2 -->
<g id="edge67" class="edge">
<title>Node33&#45;&gt;Node2</title>
<path fill="none" stroke="#191970" d="M1950.7966,-179.0726C1941.2024,-163.4382 1926.1586,-132.7287 1940.4707,-112 1968.318,-71.6676 2066.6213,-93.8393 2035.4707,-56 2011.2925,-26.6303 1901.583,-15.7437 1840.9898,-11.9233"/>
<polygon fill="#191970" stroke="#191970" points="1840.8255,-8.4075 1830.6358,-11.3091 1840.411,-15.3952 1840.8255,-8.4075"/>
</g>
<!-- Node33&#45;&gt;Node4 -->
<g id="edge65" class="edge">
<title>Node33&#45;&gt;Node4</title>
<path fill="none" stroke="#191970" d="M1922.5201,-179.4924C1889.2637,-170.3759 1837.856,-156.1019 1793.4707,-143 1790.2892,-142.0609 1786.9986,-141.0745 1783.6945,-140.0733"/>
<polygon fill="#191970" stroke="#191970" points="1784.4244,-136.6366 1773.838,-137.0584 1782.3768,-143.3304 1784.4244,-136.6366"/>
</g>
<!-- Node33&#45;&gt;Node7 -->
<g id="edge66" class="edge">
<title>Node33&#45;&gt;Node7</title>
<path fill="none" stroke="#191970" d="M1901.7824,-179.4959C1849.4782,-170.4687 1769.0684,-156.3322 1699.4707,-143 1556.8977,-115.6886 1518.9314,-108.3847 1372.7913,-76.0224"/>
<polygon fill="#191970" stroke="#191970" points="1373.527,-72.6006 1363.0066,-73.854 1372.0125,-79.4348 1373.527,-72.6006"/>
</g>
<!-- Node33&#45;&gt;Node11 -->
<g id="edge69" class="edge">
<title>Node33&#45;&gt;Node11</title>
<path fill="none" stroke="#191970" d="M1944.9638,-179.2061C1933.1756,-169.9454 1915.0448,-155.6257 1899.4707,-143 1852.393,-104.8349 1849.8786,-80.553 1794.4707,-56 1768.5393,-44.509 1584.5188,-22.6043 1507.3716,-13.8018"/>
<polygon fill="#191970" stroke="#191970" points="1507.5538,-10.3 1497.2226,-12.6491 1506.7637,-17.2553 1507.5538,-10.3"/>
</g>
<!-- Node33&#45;&gt;Node14 -->
<g id="edge58" class="edge">
<title>Node33&#45;&gt;Node14</title>
<path fill="none" stroke="#191970" d="M2013.8653,-179.9915C2082.4863,-169.03 2198.3499,-150.5219 2272.5695,-138.666"/>
<polygon fill="#191970" stroke="#191970" points="2273.4339,-142.0724 2282.7566,-137.0387 2272.3297,-135.16 2273.4339,-142.0724"/>
</g>
<!-- Node33&#45;&gt;Node17 -->
<g id="edge62" class="edge">
<title>Node33&#45;&gt;Node17</title>
<path fill="none" stroke="#191970" d="M1901.3004,-184.0442C1816.9492,-176.4067 1652.6083,-160.7691 1513.4707,-143 1512.3824,-142.861 1511.2879,-142.7198 1510.1879,-142.5766"/>
<polygon fill="#191970" stroke="#191970" points="1510.5433,-139.093 1500.1678,-141.2375 1509.616,-146.0314 1510.5433,-139.093"/>
</g>
<!-- Node33&#45;&gt;Node20 -->
<g id="edge64" class="edge">
<title>Node33&#45;&gt;Node20</title>
<path fill="none" stroke="#191970" d="M2012.4605,-179.4172C2034.3548,-172.8066 2057.7882,-161.682 2072.4707,-143 2098.3123,-110.119 2097.2762,-58.0558 2094.3354,-29.8091"/>
<polygon fill="#191970" stroke="#191970" points="2097.7744,-29.099 2093.0767,-19.6026 2090.8271,-29.9558 2097.7744,-29.099"/>
</g>
<!-- Node33&#45;&gt;Node26 -->
<g id="edge68" class="edge">
<title>Node33&#45;&gt;Node26</title>
<path fill="none" stroke="#191970" d="M1918.612,-179.4303C1892.6652,-171.9621 1858.4788,-159.9821 1831.4707,-143 1805.6518,-126.7656 1781.3859,-100.9342 1766.7312,-83.7269"/>
<polygon fill="#191970" stroke="#191970" points="1769.0698,-81.0649 1759.9864,-75.6112 1763.6863,-85.539 1769.0698,-81.0649"/>
</g>
<!-- Node33&#45;&gt;Node34 -->
<g id="edge56" class="edge">
<title>Node33&#45;&gt;Node34</title>
<path fill="none" stroke="#191970" d="M1994.5522,-179.4581C2036.2405,-168.7308 2104.0203,-151.2895 2149.4091,-139.61"/>
<polygon fill="#191970" stroke="#191970" points="2150.4899,-142.946 2159.3022,-137.0643 2148.7454,-136.1668 2150.4899,-142.946"/>
</g>
<!-- Node35 -->
<g id="node36" class="node">
<title>Node35</title>
<g id="a_node36"><a xlink:href="../../d5/d49/SampaHeader_8h.html" target="_top" xlink:title="MCHRawCommon/SampaHeader.h">
<polygon fill="none" stroke="#000000" points="1840.9707,-56.5 1840.9707,-75.5 2025.9707,-75.5 2025.9707,-56.5 1840.9707,-56.5"/>
<text text-anchor="middle" x="1933.4707" y="-63.5" font-family="Helvetica,sans-Serif" font-size="10.00" fill="#000000">MCHRawCommon/SampaHeader.h</text>
</a>
</g>
</g>
<!-- Node33&#45;&gt;Node35 -->
<g id="edge59" class="edge">
<title>Node33&#45;&gt;Node35</title>
<path fill="none" stroke="#191970" d="M1941.053,-179.2212C1929.2631,-171.1641 1914.296,-158.5536 1907.4707,-143 1898.8447,-123.343 1909.6545,-99.8545 1919.8454,-84.0313"/>
<polygon fill="#191970" stroke="#191970" points="1922.8075,-85.9016 1925.6225,-75.6876 1917.0524,-81.9168 1922.8075,-85.9016"/>
</g>
<!-- Node36 -->
<g id="node37" class="node">
<title>Node36</title>
<polygon fill="none" stroke="#bfbfbf" points="1949.4707,-118 1949.4707,-137 1993.4707,-137 1993.4707,-118 1949.4707,-118"/>
<text text-anchor="middle" x="1971.4707" y="-125" font-family="Helvetica,sans-Serif" font-size="10.00" fill="#000000">bitset</text>
</g>
<!-- Node33&#45;&gt;Node36 -->
<g id="edge63" class="edge">
<title>Node33&#45;&gt;Node36</title>
<path fill="none" stroke="#191970" d="M1959.6582,-179.3906C1961.6192,-170.776 1964.557,-157.8708 1967.0121,-147.0858"/>
<polygon fill="#191970" stroke="#191970" points="1970.4453,-147.7723 1969.2523,-137.2449 1963.6199,-146.2185 1970.4453,-147.7723"/>
</g>
<!-- Node37 -->
<g id="node38" class="node">
<title>Node37</title>
<polygon fill="none" stroke="#bfbfbf" points="2011.4707,-118 2011.4707,-137 2063.4707,-137 2063.4707,-118 2011.4707,-118"/>
<text text-anchor="middle" x="2037.4707" y="-125" font-family="Helvetica,sans-Serif" font-size="10.00" fill="#000000">cassert</text>
</g>
<!-- Node33&#45;&gt;Node37 -->
<g id="edge70" class="edge">
<title>Node33&#45;&gt;Node37</title>
<path fill="none" stroke="#191970" d="M1969.9707,-179.3906C1982.5342,-169.7324 2002.113,-154.6812 2016.9555,-143.271"/>
<polygon fill="#191970" stroke="#191970" points="2019.2635,-145.9115 2025.0585,-137.0419 2014.9972,-140.3618 2019.2635,-145.9115"/>
</g>
<!-- Node34&#45;&gt;Node20 -->
<g id="edge57" class="edge">
<title>Node34&#45;&gt;Node20</title>
<path fill="none" stroke="#191970" d="M2190.2014,-117.7563C2180.8352,-103.5188 2162.27,-76.4974 2143.4707,-56 2133.6688,-45.3128 2121.5948,-34.5108 2111.5492,-26.0624"/>
<polygon fill="#191970" stroke="#191970" points="2113.6239,-23.2367 2103.6825,-19.5736 2109.1697,-28.6367 2113.6239,-23.2367"/>
</g>
<!-- Node35&#45;&gt;Node2 -->
<g id="edge61" class="edge">
<title>Node35&#45;&gt;Node2</title>
<path fill="none" stroke="#191970" d="M1910.6072,-56.3733C1889.0657,-47.3032 1856.5869,-33.6279 1832.4751,-23.4755"/>
<polygon fill="#191970" stroke="#191970" points="1833.6104,-20.156 1823.0358,-19.5011 1830.894,-26.6075 1833.6104,-20.156"/>
</g>
<!-- Node35&#45;&gt;Node19 -->
<g id="edge60" class="edge">
<title>Node35&#45;&gt;Node19</title>
<path fill="none" stroke="#191970" d="M1875.4089,-56.4369C1804.5242,-44.7617 1686.8977,-25.388 1628.5386,-15.7759"/>
<polygon fill="#191970" stroke="#191970" points="1628.7919,-12.2705 1618.356,-14.0988 1627.6542,-19.1775 1628.7919,-12.2705"/>
</g>
<!-- Node38&#45;&gt;Node29 -->
<g id="edge76" class="edge">
<title>Node38&#45;&gt;Node29</title>
<path fill="none" stroke="#191970" d="M1601.6211,-240.708C1606.9903,-230.4072 1615.5687,-213.6844 1622.4707,-199 1641.3062,-158.9259 1661.621,-111.1781 1672.503,-85.189"/>
<polygon fill="#191970" stroke="#191970" points="1675.8153,-86.3397 1676.4352,-75.763 1669.3549,-83.6446 1675.8153,-86.3397"/>
</g>
<!-- Node39 -->
<g id="node40" class="node">
<title>Node39</title>
<polygon fill="none" stroke="#bfbfbf" points="1543.9707,-179.5 1543.9707,-198.5 1612.9707,-198.5 1612.9707,-179.5 1543.9707,-179.5"/>
<text text-anchor="middle" x="1578.4707" y="-186.5" font-family="Helvetica,sans-Serif" font-size="10.00" fill="#000000">type_traits</text>
</g>
<!-- Node38&#45;&gt;Node39 -->
<g id="edge77" class="edge">
<title>Node38&#45;&gt;Node39</title>
<path fill="none" stroke="#191970" d="M1593.6582,-240.8906C1591.1368,-232.276 1587.3597,-219.3708 1584.2031,-208.5858"/>
<polygon fill="#191970" stroke="#191970" points="1587.491,-207.3591 1581.3228,-198.7449 1580.7728,-209.3254 1587.491,-207.3591"/>
</g>
<!-- Node41&#45;&gt;Node8 -->
<g id="edge87" class="edge">
<title>Node41&#45;&gt;Node8</title>
<path fill="none" stroke="#191970" d="M1307.1873,-240.9815C1263.5993,-231.9984 1198.5576,-217.2082 1143.4707,-199 1082.9626,-178.9999 1066.0399,-175.9156 1011.4707,-143 992.8072,-131.7424 993.5992,-120.3608 973.4707,-112 829.8737,-52.3537 779.5377,-97.003 625.4707,-76 618.9855,-75.1159 612.1191,-74.0613 605.4518,-72.9737"/>
<polygon fill="#191970" stroke="#191970" points="605.6634,-69.4604 595.222,-71.2572 604.5049,-76.3639 605.6634,-69.4604"/>
</g>
<!-- Node41&#45;&gt;Node15 -->
<g id="edge84" class="edge">
<title>Node41&#45;&gt;Node15</title>
<path fill="none" stroke="#191970" d="M1338.3457,-240.8906C1319.3624,-230.8262 1289.3334,-214.9057 1267.54,-203.3514"/>
<polygon fill="#191970" stroke="#191970" points="1268.943,-200.1338 1258.4684,-198.5419 1265.664,-206.3184 1268.943,-200.1338"/>
</g>
<!-- Node41&#45;&gt;Node16 -->
<g id="edge85" class="edge">
<title>Node41&#45;&gt;Node16</title>
<path fill="none" stroke="#191970" d="M1355.4793,-240.6411C1353.6862,-226.2602 1348.9607,-199.0618 1337.4707,-179 1329.7727,-165.5592 1317.6864,-153.1371 1307.2116,-143.8616"/>
<polygon fill="#191970" stroke="#191970" points="1309.1645,-140.929 1299.2711,-137.1381 1304.641,-146.2712 1309.1645,-140.929"/>
</g>
<!-- Node41&#45;&gt;Node17 -->
<g id="edge83" class="edge">
<title>Node41&#45;&gt;Node17</title>
<path fill="none" stroke="#191970" d="M1360.7864,-240.8484C1369.2667,-221.8834 1388.3358,-179.2379 1400.5148,-152.0014"/>
<polygon fill="#191970" stroke="#191970" points="1403.7706,-153.2941 1404.6576,-142.7365 1397.3804,-150.4367 1403.7706,-153.2941"/>
</g>
<!-- Node41&#45;&gt;Node19 -->
<g id="edge86" class="edge">
<title>Node41&#45;&gt;Node19</title>
<path fill="none" stroke="#191970" d="M1376.5528,-240.98C1420.6712,-218.91 1525.9727,-159.677 1574.4707,-76 1582.7854,-61.654 1587.6733,-43.4186 1590.4039,-29.7525"/>
<polygon fill="#191970" stroke="#191970" points="1593.9162,-29.9913 1592.218,-19.5334 1587.0239,-28.7677 1593.9162,-29.9913"/>
</g>
<!-- Node41&#45;&gt;Node30 -->
<g id="edge82" class="edge">
<title>Node41&#45;&gt;Node30</title>
<path fill="none" stroke="#191970" d="M1304.0121,-244.0347C1217.923,-233.4245 1045.9039,-212.2237 942.3096,-199.4561"/>
<polygon fill="#191970" stroke="#191970" points="942.547,-195.959 932.1939,-198.2094 941.6907,-202.9064 942.547,-195.959"/>
</g>
</g>
</svg>
