<?xml version="1.0" encoding="UTF-8" standalone="no"?>
<!DOCTYPE svg PUBLIC "-//W3C//DTD SVG 1.1//EN"
 "http://www.w3.org/Graphics/SVG/1.1/DTD/svg11.dtd">
<!-- Generated by graphviz version 2.40.1 (20161225.0304)
 -->
<!-- Title: /home/travis/build/AliceO2Group/AliceO2/Detectors/MUON/MID/Raw/src/DecodedDataAggregator.cxx Pages: 1 -->
<svg width="1186pt" height="352pt"
 viewBox="0.00 0.00 1185.50 352.00" xmlns="http://www.w3.org/2000/svg" xmlns:xlink="http://www.w3.org/1999/xlink">
<g id="graph0" class="graph" transform="scale(1 1) rotate(0) translate(4 348)">
<title>/home/travis/build/AliceO2Group/AliceO2/Detectors/MUON/MID/Raw/src/DecodedDataAggregator.cxx</title>
<!-- Node0 -->
<g id="node1" class="node">
<title>Node0</title>
<polygon fill="#bfbfbf" stroke="#000000" points="862.5,-291.5 862.5,-343.5 1038.5,-343.5 1038.5,-291.5 862.5,-291.5"/>
<text text-anchor="start" x="870.5" y="-331.5" font-family="Helvetica,sans-Serif" font-size="10.00" fill="#000000">/home/travis/build</text>
<text text-anchor="start" x="870.5" y="-320.5" font-family="Helvetica,sans-Serif" font-size="10.00" fill="#000000">/AliceO2Group/AliceO2</text>
<text text-anchor="start" x="870.5" y="-309.5" font-family="Helvetica,sans-Serif" font-size="10.00" fill="#000000">/Detectors/MUON/MID/Raw</text>
<text text-anchor="middle" x="950.5" y="-298.5" font-family="Helvetica,sans-Serif" font-size="10.00" fill="#000000">/src/DecodedDataAggregator.cxx</text>
</g>
<!-- Node1 -->
<g id="node2" class="node">
<title>Node1</title>
<g id="a_node2"><a xlink:href="../../d7/d48/DecodedDataAggregator_8h.html" target="_top" xlink:title="MID decoded raw data aggregator. ">
<polygon fill="none" stroke="#000000" points="353.5,-235.5 353.5,-254.5 541.5,-254.5 541.5,-235.5 353.5,-235.5"/>
<text text-anchor="middle" x="447.5" y="-242.5" font-family="Helvetica,sans-Serif" font-size="10.00" fill="#000000">MIDRaw/DecodedDataAggregator.h</text>
</a>
</g>
</g>
<!-- Node0&#45;&gt;Node1 -->
<g id="edge1" class="edge">
<title>Node0&#45;&gt;Node1</title>
<path fill="none" stroke="#191970" d="M862.3085,-304.7885C766.3072,-290.9513 614.3753,-269.0526 523.4702,-255.95"/>
<polygon fill="#191970" stroke="#191970" points="523.9074,-252.4769 513.5103,-254.5144 522.9087,-259.4053 523.9074,-252.4769"/>
</g>
<!-- Node18 -->
<g id="node19" class="node">
<title>Node18</title>
<g id="a_node19"><a xlink:href="../../dc/de4/DetectorParameters_8h.html" target="_top" xlink:title="Useful detector parameters for MID. ">
<polygon fill="none" stroke="#000000" points="866,-235.5 866,-254.5 1035,-254.5 1035,-235.5 866,-235.5"/>
<text text-anchor="middle" x="950.5" y="-242.5" font-family="Helvetica,sans-Serif" font-size="10.00" fill="#000000">MIDBase/DetectorParameters.h</text>
</a>
</g>
</g>
<!-- Node0&#45;&gt;Node18 -->
<g id="edge23" class="edge">
<title>Node0&#45;&gt;Node18</title>
<path fill="none" stroke="#191970" d="M950.5,-291.3258C950.5,-282.5142 950.5,-272.8397 950.5,-264.621"/>
<polygon fill="#191970" stroke="#191970" points="954.0001,-264.534 950.5,-254.534 947.0001,-264.534 954.0001,-264.534"/>
</g>
<!-- Node20 -->
<g id="node21" class="node">
<title>Node20</title>
<g id="a_node21"><a xlink:href="../../d2/da5/CrateParameters_8h.html" target="_top" xlink:title="MID RO crate parameters. ">
<polygon fill="none" stroke="#000000" points="1027.5,-179.5 1027.5,-198.5 1177.5,-198.5 1177.5,-179.5 1027.5,-179.5"/>
<text text-anchor="middle" x="1102.5" y="-186.5" font-family="Helvetica,sans-Serif" font-size="10.00" fill="#000000">MIDRaw/CrateParameters.h</text>
</a>
</g>
</g>
<!-- Node0&#45;&gt;Node20 -->
<g id="edge26" class="edge">
<title>Node0&#45;&gt;Node20</title>
<path fill="none" stroke="#191970" d="M994.8085,-291.4461C1011.1167,-280.9962 1029.3019,-268.2841 1044.5,-255 1061.2702,-240.3418 1077.7787,-220.9334 1088.8683,-206.9622"/>
<polygon fill="#191970" stroke="#191970" points="1091.9415,-208.7122 1095.3215,-198.6709 1086.4175,-204.4127 1091.9415,-208.7122"/>
</g>
<!-- Node2 -->
<g id="node3" class="node">
<title>Node2</title>
<polygon fill="none" stroke="#bfbfbf" points="266,-179.5 266,-198.5 313,-198.5 313,-179.5 266,-179.5"/>
<text text-anchor="middle" x="289.5" y="-186.5" font-family="Helvetica,sans-Serif" font-size="10.00" fill="#000000">vector</text>
</g>
<!-- Node1&#45;&gt;Node2 -->
<g id="edge2" class="edge">
<title>Node1&#45;&gt;Node2</title>
<path fill="none" stroke="#191970" d="M420.3388,-235.3733C393.3462,-225.8062 351.8975,-211.1156 322.9055,-200.8399"/>
<polygon fill="#191970" stroke="#191970" points="323.809,-197.4469 313.2143,-197.4051 321.4705,-204.0447 323.809,-197.4469"/>
</g>
<!-- Node3 -->
<g id="node4" class="node">
<title>Node3</title>
<polygon fill="none" stroke="#bfbfbf" points="378.5,-118 378.5,-137 416.5,-137 416.5,-118 378.5,-118"/>
<text text-anchor="middle" x="397.5" y="-125" font-family="Helvetica,sans-Serif" font-size="10.00" fill="#000000">map</text>
</g>
<!-- Node1&#45;&gt;Node3 -->
<g id="edge3" class="edge">
<title>Node1&#45;&gt;Node3</title>
<path fill="none" stroke="#191970" d="M410.6816,-235.3966C392.1862,-228.5069 371.4327,-217.1473 360.5,-199 349.6069,-180.9184 364.4451,-159.2856 378.4449,-144.5852"/>
<polygon fill="#191970" stroke="#191970" points="381.2848,-146.7019 385.9676,-137.1982 376.3802,-141.7074 381.2848,-146.7019"/>
</g>
<!-- Node4 -->
<g id="node5" class="node">
<title>Node4</title>
<polygon fill="none" stroke="#bfbfbf" points="369.5,-179.5 369.5,-198.5 417.5,-198.5 417.5,-179.5 369.5,-179.5"/>
<text text-anchor="middle" x="393.5" y="-186.5" font-family="Helvetica,sans-Serif" font-size="10.00" fill="#000000">gsl/gsl</text>
</g>
<!-- Node1&#45;&gt;Node4 -->
<g id="edge4" class="edge">
<title>Node1&#45;&gt;Node4</title>
<path fill="none" stroke="#191970" d="M438.0939,-235.2455C430.3507,-227.2155 419.188,-215.6394 409.9682,-206.0781"/>
<polygon fill="#191970" stroke="#191970" points="412.2591,-203.4117 402.7983,-198.6427 407.2202,-208.2706 412.2591,-203.4117"/>
</g>
<!-- Node5 -->
<g id="node6" class="node">
<title>Node5</title>
<g id="a_node6"><a xlink:href="../../d3/d53/ColumnData_8h.html" target="_top" xlink:title="Strip pattern (aka digits) ">
<polygon fill="none" stroke="#000000" points="738,-179.5 738,-198.5 909,-198.5 909,-179.5 738,-179.5"/>
<text text-anchor="middle" x="823.5" y="-186.5" font-family="Helvetica,sans-Serif" font-size="10.00" fill="#000000">DataFormatsMID/ColumnData.h</text>
</a>
</g>
</g>
<!-- Node1&#45;&gt;Node5 -->
<g id="edge5" class="edge">
<title>Node1&#45;&gt;Node5</title>
<path fill="none" stroke="#191970" d="M511.7095,-235.4369C577.6812,-225.6113 680.2635,-210.3331 749.5783,-200.0096"/>
<polygon fill="#191970" stroke="#191970" points="750.1801,-203.4587 759.5554,-198.5237 749.1488,-196.5351 750.1801,-203.4587"/>
</g>
<!-- Node9 -->
<g id="node10" class="node">
<title>Node9</title>
<g id="a_node10"><a xlink:href="../../d2/df9/MUON_2MID_2include_2DataFormatsMID_2ROFRecord_8h.html" target="_top" xlink:title="Definition of the MID event record. ">
<polygon fill="none" stroke="#000000" points="85,-179.5 85,-198.5 248,-198.5 248,-179.5 85,-179.5"/>
<text text-anchor="middle" x="166.5" y="-186.5" font-family="Helvetica,sans-Serif" font-size="10.00" fill="#000000">DataFormatsMID/ROFRecord.h</text>
</a>
</g>
</g>
<!-- Node1&#45;&gt;Node9 -->
<g id="edge9" class="edge">
<title>Node1&#45;&gt;Node9</title>
<path fill="none" stroke="#191970" d="M399.5137,-235.4369C351.0186,-225.7724 276.0527,-210.8326 224.3121,-200.5213"/>
<polygon fill="#191970" stroke="#191970" points="224.7797,-197.0457 214.2884,-198.5237 223.4115,-203.9107 224.7797,-197.0457"/>
</g>
<!-- Node16 -->
<g id="node17" class="node">
<title>Node16</title>
<g id="a_node17"><a xlink:href="../../db/d83/CrateMapper_8h.html" target="_top" xlink:title="Mapper to convert the RO Ids to a format suitable for O2. ">
<polygon fill="none" stroke="#000000" points="435.5,-179.5 435.5,-198.5 565.5,-198.5 565.5,-179.5 435.5,-179.5"/>
<text text-anchor="middle" x="500.5" y="-186.5" font-family="Helvetica,sans-Serif" font-size="10.00" fill="#000000">MIDRaw/CrateMapper.h</text>
</a>
</g>
</g>
<!-- Node1&#45;&gt;Node16 -->
<g id="edge17" class="edge">
<title>Node1&#45;&gt;Node16</title>
<path fill="none" stroke="#191970" d="M456.7319,-235.2455C464.3317,-227.2155 475.2877,-215.6394 484.3368,-206.0781"/>
<polygon fill="#191970" stroke="#191970" points="487.0421,-208.3115 491.3739,-198.6427 481.958,-203.4998 487.0421,-208.3115"/>
</g>
<!-- Node17 -->
<g id="node18" class="node">
<title>Node17</title>
<g id="a_node18"><a xlink:href="../../d3/d4a/LocalBoardRO_8h.html" target="_top" xlink:title="Structure to store the FEE local board information. ">
<polygon fill="none" stroke="#000000" points="583.5,-179.5 583.5,-198.5 719.5,-198.5 719.5,-179.5 583.5,-179.5"/>
<text text-anchor="middle" x="651.5" y="-186.5" font-family="Helvetica,sans-Serif" font-size="10.00" fill="#000000">MIDRaw/LocalBoardRO.h</text>
</a>
</g>
</g>
<!-- Node1&#45;&gt;Node17 -->
<g id="edge20" class="edge">
<title>Node1&#45;&gt;Node17</title>
<path fill="none" stroke="#191970" d="M482.5689,-235.3733C516.9315,-225.9404 569.4392,-211.5265 606.7851,-201.2747"/>
<polygon fill="#191970" stroke="#191970" points="608.172,-204.5235 616.8888,-198.5011 606.319,-197.7732 608.172,-204.5235"/>
</g>
<!-- Node6 -->
<g id="node7" class="node">
<title>Node6</title>
<polygon fill="none" stroke="#bfbfbf" points="626.5,-56.5 626.5,-75.5 676.5,-75.5 676.5,-56.5 626.5,-56.5"/>
<text text-anchor="middle" x="651.5" y="-63.5" font-family="Helvetica,sans-Serif" font-size="10.00" fill="#000000">cstdint</text>
</g>
<!-- Node5&#45;&gt;Node6 -->
<g id="edge6" class="edge">
<title>Node5&#45;&gt;Node6</title>
<path fill="none" stroke="#191970" d="M823.9705,-179.3001C824.2035,-163.1434 822.2446,-130.6573 804.5,-112 788.2782,-94.9438 726.3141,-80.2842 686.3915,-72.3405"/>
<polygon fill="#191970" stroke="#191970" points="686.9955,-68.8925 676.5116,-70.4216 685.6608,-75.7641 686.9955,-68.8925"/>
</g>
<!-- Node7 -->
<g id="node8" class="node">
<title>Node7</title>
<polygon fill="none" stroke="#bfbfbf" points="735.5,-118 735.5,-137 795.5,-137 795.5,-118 735.5,-118"/>
<text text-anchor="middle" x="765.5" y="-125" font-family="Helvetica,sans-Serif" font-size="10.00" fill="#000000">iostream</text>
</g>
<!-- Node5&#45;&gt;Node7 -->
<g id="edge7" class="edge">
<title>Node5&#45;&gt;Node7</title>
<path fill="none" stroke="#191970" d="M814.4375,-179.3906C805.7207,-170.1478 792.346,-155.966 781.7804,-144.7628"/>
<polygon fill="#191970" stroke="#191970" points="784.0976,-142.1186 774.6903,-137.2449 779.005,-146.9213 784.0976,-142.1186"/>
</g>
<!-- Node8 -->
<g id="node9" class="node">
<title>Node8</title>
<polygon fill="none" stroke="#bfbfbf" points="883.5,-118 883.5,-137 925.5,-137 925.5,-118 883.5,-118"/>
<text text-anchor="middle" x="904.5" y="-125" font-family="Helvetica,sans-Serif" font-size="10.00" fill="#000000">array</text>
</g>
<!-- Node5&#45;&gt;Node8 -->
<g id="edge8" class="edge">
<title>Node5&#45;&gt;Node8</title>
<path fill="none" stroke="#191970" d="M836.1563,-179.3906C848.8768,-169.7324 868.7004,-154.6812 883.7284,-143.271"/>
<polygon fill="#191970" stroke="#191970" points="886.0846,-145.8766 891.9326,-137.0419 881.8516,-140.3015 886.0846,-145.8766"/>
</g>
<!-- Node10 -->
<g id="node11" class="node">
<title>Node10</title>
<g id="a_node11"><a xlink:href="../../d9/d80/InteractionRecord_8h.html" target="_top" xlink:title="CommonDataFormat/Interaction\lRecord.h">
<polygon fill="none" stroke="#000000" points="161.5,-112.5 161.5,-142.5 335.5,-142.5 335.5,-112.5 161.5,-112.5"/>
<text text-anchor="start" x="169.5" y="-130.5" font-family="Helvetica,sans-Serif" font-size="10.00" fill="#000000">CommonDataFormat/Interaction</text>
<text text-anchor="middle" x="248.5" y="-119.5" font-family="Helvetica,sans-Serif" font-size="10.00" fill="#000000">Record.h</text>
</a>
</g>
</g>
<!-- Node9&#45;&gt;Node10 -->
<g id="edge10" class="edge">
<title>Node9&#45;&gt;Node10</title>
<path fill="none" stroke="#191970" d="M179.3125,-179.3906C190.2047,-171.2215 206.2412,-159.1941 220.1331,-148.7752"/>
<polygon fill="#191970" stroke="#191970" points="222.5405,-151.3446 228.4405,-142.5446 218.3405,-145.7446 222.5405,-151.3446"/>
</g>
<!-- Node10&#45;&gt;Node6 -->
<g id="edge15" class="edge">
<title>Node10&#45;&gt;Node6</title>
<path fill="none" stroke="#191970" d="M335.945,-114.1554C423.4791,-100.7972 553.8308,-80.9048 616.0135,-71.4154"/>
<polygon fill="#191970" stroke="#191970" points="616.7421,-74.8448 626.0997,-69.8762 615.6861,-67.925 616.7421,-74.8448"/>
</g>
<!-- Node11 -->
<g id="node12" class="node">
<title>Node11</title>
<g id="a_node12"><a xlink:href="../../d2/d45/GPUCommonRtypes_8h.html" target="_top" xlink:title="GPUCommonRtypes.h">
<polygon fill="none" stroke="#000000" points="274,-56.5 274,-75.5 399,-75.5 399,-56.5 274,-56.5"/>
<text text-anchor="middle" x="336.5" y="-63.5" font-family="Helvetica,sans-Serif" font-size="10.00" fill="#000000">GPUCommonRtypes.h</text>
</a>
</g>
</g>
<!-- Node10&#45;&gt;Node11 -->
<g id="edge11" class="edge">
<title>Node10&#45;&gt;Node11</title>
<path fill="none" stroke="#191970" d="M270.2528,-112.2977C283.6968,-102.9022 300.9011,-90.8787 314.4078,-81.4395"/>
<polygon fill="#191970" stroke="#191970" points="316.4811,-84.2605 322.6729,-75.6633 312.4712,-78.5228 316.4811,-84.2605"/>
</g>
<!-- Node13 -->
<g id="node14" class="node">
<title>Node13</title>
<polygon fill="none" stroke="#bfbfbf" points="417,-56.5 417,-75.5 466,-75.5 466,-56.5 417,-56.5"/>
<text text-anchor="middle" x="441.5" y="-63.5" font-family="Helvetica,sans-Serif" font-size="10.00" fill="#000000">iosfwd</text>
</g>
<!-- Node10&#45;&gt;Node13 -->
<g id="edge13" class="edge">
<title>Node10&#45;&gt;Node13</title>
<path fill="none" stroke="#191970" d="M295.7131,-112.4554C330.1031,-101.4969 375.9088,-86.9008 406.9302,-77.0158"/>
<polygon fill="#191970" stroke="#191970" points="408.3805,-80.2271 416.8458,-73.8561 406.2552,-73.5575 408.3805,-80.2271"/>
</g>
<!-- Node14 -->
<g id="node15" class="node">
<title>Node14</title>
<polygon fill="none" stroke="#bfbfbf" points="0,-56.5 0,-75.5 47,-75.5 47,-56.5 0,-56.5"/>
<text text-anchor="middle" x="23.5" y="-63.5" font-family="Helvetica,sans-Serif" font-size="10.00" fill="#000000">cmath</text>
</g>
<!-- Node10&#45;&gt;Node14 -->
<g id="edge14" class="edge">
<title>Node10&#45;&gt;Node14</title>
<path fill="none" stroke="#191970" d="M190.3926,-112.434C154.5534,-103.0214 107.4221,-90.429 57.0447,-76.0944"/>
<polygon fill="#191970" stroke="#191970" points="57.8428,-72.6825 47.2661,-73.3015 55.9204,-79.4133 57.8428,-72.6825"/>
</g>
<!-- Node15 -->
<g id="node16" class="node">
<title>Node15</title>
<g id="a_node16"><a xlink:href="../../d4/dc6/LHCConstants_8h.html" target="_top" xlink:title="Header to collect LHC related constants. ">
<polygon fill="none" stroke="#000000" points="65.5,-56.5 65.5,-75.5 255.5,-75.5 255.5,-56.5 65.5,-56.5"/>
<text text-anchor="middle" x="160.5" y="-63.5" font-family="Helvetica,sans-Serif" font-size="10.00" fill="#000000">CommonConstants/LHCConstants.h</text>
</a>
</g>
</g>
<!-- Node10&#45;&gt;Node15 -->
<g id="edge16" class="edge">
<title>Node10&#45;&gt;Node15</title>
<path fill="none" stroke="#191970" d="M226.7472,-112.2977C213.3032,-102.9022 196.0989,-90.8787 182.5922,-81.4395"/>
<polygon fill="#191970" stroke="#191970" points="184.5288,-78.5228 174.3271,-75.6633 180.5189,-84.2605 184.5288,-78.5228"/>
</g>
<!-- Node12 -->
<g id="node13" class="node">
<title>Node12</title>
<polygon fill="none" stroke="#bfbfbf" points="307,-.5 307,-19.5 366,-19.5 366,-.5 307,-.5"/>
<text text-anchor="middle" x="336.5" y="-7.5" font-family="Helvetica,sans-Serif" font-size="10.00" fill="#000000">Rtypes.h</text>
</g>
<!-- Node11&#45;&gt;Node12 -->
<g id="edge12" class="edge">
<title>Node11&#45;&gt;Node12</title>
<path fill="none" stroke="#191970" d="M336.5,-56.2455C336.5,-48.9382 336.5,-38.6944 336.5,-29.7046"/>
<polygon fill="#191970" stroke="#191970" points="340.0001,-29.6426 336.5,-19.6427 333.0001,-29.6427 340.0001,-29.6426"/>
</g>
<!-- Node16&#45;&gt;Node3 -->
<g id="edge19" class="edge">
<title>Node16&#45;&gt;Node3</title>
<path fill="none" stroke="#191970" d="M484.4063,-179.3906C467.7772,-169.4616 441.6024,-153.833 422.3206,-142.3201"/>
<polygon fill="#191970" stroke="#191970" points="423.861,-139.1634 413.4807,-137.0419 420.2724,-145.1736 423.861,-139.1634"/>
</g>
<!-- Node16&#45;&gt;Node6 -->
<g id="edge18" class="edge">
<title>Node16&#45;&gt;Node6</title>
<path fill="none" stroke="#191970" d="M512.3487,-179.3484C538.1501,-158.3314 599.6543,-108.2319 631.5496,-82.251"/>
<polygon fill="#191970" stroke="#191970" points="634.1635,-84.636 639.7063,-75.6068 629.7426,-79.2087 634.1635,-84.636"/>
</g>
<!-- Node17&#45;&gt;Node6 -->
<g id="edge21" class="edge">
<title>Node17&#45;&gt;Node6</title>
<path fill="none" stroke="#191970" d="M651.5,-179.3484C651.5,-159.2295 651.5,-112.4608 651.5,-85.7098"/>
<polygon fill="#191970" stroke="#191970" points="655.0001,-85.6067 651.5,-75.6068 648.0001,-85.6068 655.0001,-85.6067"/>
</g>
<!-- Node17&#45;&gt;Node8 -->
<g id="edge22" class="edge">
<title>Node17&#45;&gt;Node8</title>
<path fill="none" stroke="#191970" d="M690.7537,-179.4581C741.1007,-167.2196 827.3976,-146.2423 873.4328,-135.0519"/>
<polygon fill="#191970" stroke="#191970" points="874.5313,-138.3869 883.4216,-132.6238 872.8778,-131.585 874.5313,-138.3869"/>
</g>
<!-- Node18&#45;&gt;Node8 -->
<g id="edge24" class="edge">
<title>Node18&#45;&gt;Node8</title>
<path fill="none" stroke="#191970" d="M946.7356,-235.3845C939.1543,-216.0192 921.9234,-172.0055 911.9712,-146.584"/>
<polygon fill="#191970" stroke="#191970" points="915.2211,-145.2843 908.3164,-137.2484 908.7028,-147.8362 915.2211,-145.2843"/>
</g>
<!-- Node19 -->
<g id="node20" class="node">
<title>Node19</title>
<polygon fill="none" stroke="#bfbfbf" points="965.5,-179.5 965.5,-198.5 1009.5,-198.5 1009.5,-179.5 965.5,-179.5"/>
<text text-anchor="middle" x="987.5" y="-186.5" font-family="Helvetica,sans-Serif" font-size="10.00" fill="#000000">string</text>
</g>
<!-- Node18&#45;&gt;Node19 -->
<g id="edge25" class="edge">
<title>Node18&#45;&gt;Node19</title>
<path fill="none" stroke="#191970" d="M956.9449,-235.2455C962.0382,-227.5367 969.2908,-216.5598 975.452,-207.2348"/>
<polygon fill="#191970" stroke="#191970" points="978.5365,-208.9155 981.1289,-198.6427 972.6962,-205.0566 978.5365,-208.9155"/>
</g>
<!-- Node20&#45;&gt;Node6 -->
<g id="edge27" class="edge">
<title>Node20&#45;&gt;Node6</title>
<path fill="none" stroke="#191970" d="M1085.451,-179.3052C1055.7592,-162.8569 992.2049,-129.5629 934.5,-112 847.6679,-85.5721 740.9553,-73.4546 686.7368,-68.6694"/>
<polygon fill="#191970" stroke="#191970" points="686.8752,-65.1686 676.6145,-67.8081 686.2817,-72.1434 686.8752,-65.1686"/>
</g>
<!-- Node20&#45;&gt;Node8 -->
<g id="edge28" class="edge">
<title>Node20&#45;&gt;Node8</title>
<path fill="none" stroke="#191970" d="M1071.5625,-179.3906C1034.3803,-167.8416 972.3717,-148.5814 935.266,-137.0561"/>
<polygon fill="#191970" stroke="#191970" points="936.0902,-133.6472 925.502,-134.0234 934.0137,-140.3322 936.0902,-133.6472"/>
</g>
</g>
</svg>
