<?xml version="1.0" encoding="UTF-8" standalone="no"?>
<!DOCTYPE svg PUBLIC "-//W3C//DTD SVG 1.1//EN"
 "http://www.w3.org/Graphics/SVG/1.1/DTD/svg11.dtd">
<!-- Generated by graphviz version 2.40.1 (20161225.0304)
 -->
<!-- Title: /home/travis/build/AliceO2Group/AliceO2/Detectors/TPC/calibration/src/CalibRawBase.cxx Pages: 1 -->
<svg width="3758pt" height="844pt"
 viewBox="0.00 0.00 3757.92 844.00" xmlns="http://www.w3.org/2000/svg" xmlns:xlink="http://www.w3.org/1999/xlink">
<g id="graph0" class="graph" transform="scale(1 1) rotate(0) translate(4 840)">
<title>/home/travis/build/AliceO2Group/AliceO2/Detectors/TPC/calibration/src/CalibRawBase.cxx</title>
<!-- Node0 -->
<g id="node1" class="node">
<title>Node0</title>
<polygon fill="#bfbfbf" stroke="#000000" points="2474.5,-783.5 2474.5,-835.5 2617.5,-835.5 2617.5,-783.5 2474.5,-783.5"/>
<text text-anchor="start" x="2482.5" y="-823.5" font-family="Helvetica,sans-Serif" font-size="10.00" fill="#000000">/home/travis/build</text>
<text text-anchor="start" x="2482.5" y="-812.5" font-family="Helvetica,sans-Serif" font-size="10.00" fill="#000000">/AliceO2Group/AliceO2</text>
<text text-anchor="start" x="2482.5" y="-801.5" font-family="Helvetica,sans-Serif" font-size="10.00" fill="#000000">/Detectors/TPC/calibration</text>
<text text-anchor="middle" x="2546" y="-790.5" font-family="Helvetica,sans-Serif" font-size="10.00" fill="#000000">/src/CalibRawBase.cxx</text>
</g>
<!-- Node1 -->
<g id="node2" class="node">
<title>Node1</title>
<polygon fill="none" stroke="#bfbfbf" points="2375,-727.5 2375,-746.5 2443,-746.5 2443,-727.5 2375,-727.5"/>
<text text-anchor="middle" x="2409" y="-734.5" font-family="Helvetica,sans-Serif" font-size="10.00" fill="#000000">TSystem.h</text>
</g>
<!-- Node0&#45;&gt;Node1 -->
<g id="edge1" class="edge">
<title>Node0&#45;&gt;Node1</title>
<path fill="none" stroke="#191970" d="M2496.5399,-783.3258C2476.1045,-772.5115 2453.2134,-760.3976 2435.9659,-751.2703"/>
<polygon fill="#191970" stroke="#191970" points="2437.4918,-748.1179 2427.016,-746.534 2434.2175,-754.305 2437.4918,-748.1179"/>
</g>
<!-- Node2 -->
<g id="node3" class="node">
<title>Node2</title>
<polygon fill="none" stroke="#bfbfbf" points="2461.5,-727.5 2461.5,-746.5 2538.5,-746.5 2538.5,-727.5 2461.5,-727.5"/>
<text text-anchor="middle" x="2500" y="-734.5" font-family="Helvetica,sans-Serif" font-size="10.00" fill="#000000">TObjString.h</text>
</g>
<!-- Node0&#45;&gt;Node2 -->
<g id="edge2" class="edge">
<title>Node0&#45;&gt;Node2</title>
<path fill="none" stroke="#191970" d="M2529.3929,-783.3258C2523.4844,-774.0135 2516.9645,-763.7375 2511.5696,-755.2347"/>
<polygon fill="#191970" stroke="#191970" points="2514.362,-753.1027 2506.0492,-746.534 2508.4513,-756.8529 2514.362,-753.1027"/>
</g>
<!-- Node3 -->
<g id="node4" class="node">
<title>Node3</title>
<polygon fill="none" stroke="#bfbfbf" points="2556.5,-727.5 2556.5,-746.5 2629.5,-746.5 2629.5,-727.5 2556.5,-727.5"/>
<text text-anchor="middle" x="2593" y="-734.5" font-family="Helvetica,sans-Serif" font-size="10.00" fill="#000000">TObjArray.h</text>
</g>
<!-- Node0&#45;&gt;Node3 -->
<g id="edge3" class="edge">
<title>Node0&#45;&gt;Node3</title>
<path fill="none" stroke="#191970" d="M2562.9681,-783.3258C2569.07,-773.9134 2575.8101,-763.5164 2581.3563,-754.961"/>
<polygon fill="#191970" stroke="#191970" points="2584.3165,-756.829 2586.8193,-746.534 2578.4427,-753.0211 2584.3165,-756.829"/>
</g>
<!-- Node4 -->
<g id="node5" class="node">
<title>Node4</title>
<g id="a_node5"><a xlink:href="../../d7/dd7/CalibRawBase_8h.html" target="_top" xlink:title="TPCCalibration/CalibRawBase.h">
<polygon fill="none" stroke="#000000" points="2648,-727.5 2648,-746.5 2818,-746.5 2818,-727.5 2648,-727.5"/>
<text text-anchor="middle" x="2733" y="-734.5" font-family="Helvetica,sans-Serif" font-size="10.00" fill="#000000">TPCCalibration/CalibRawBase.h</text>
</a>
</g>
</g>
<!-- Node0&#45;&gt;Node4 -->
<g id="edge4" class="edge">
<title>Node0&#45;&gt;Node4</title>
<path fill="none" stroke="#191970" d="M2613.2471,-783.4283C2642.3284,-772.1534 2675.0969,-759.449 2698.9952,-750.1837"/>
<polygon fill="#191970" stroke="#191970" points="2700.2766,-753.4408 2708.3351,-746.5626 2697.7461,-746.9142 2700.2766,-753.4408"/>
</g>
<!-- Node5 -->
<g id="node6" class="node">
<title>Node5</title>
<polygon fill="none" stroke="#bfbfbf" points="0,-671.5 0,-690.5 44,-690.5 44,-671.5 0,-671.5"/>
<text text-anchor="middle" x="22" y="-678.5" font-family="Helvetica,sans-Serif" font-size="10.00" fill="#000000">limits</text>
</g>
<!-- Node4&#45;&gt;Node5 -->
<g id="edge5" class="edge">
<title>Node4&#45;&gt;Node5</title>
<path fill="none" stroke="#191970" d="M2647.9748,-727.6004C2644.9476,-727.3786 2641.9488,-727.177 2639,-727 2352.7098,-709.8118 341.9008,-731.7166 58,-691 56.7359,-690.8187 55.4533,-690.6061 54.1625,-690.3682"/>
<polygon fill="#191970" stroke="#191970" points="54.8033,-686.925 44.2789,-688.145 53.267,-693.7543 54.8033,-686.925"/>
</g>
<!-- Node6 -->
<g id="node7" class="node">
<title>Node6</title>
<polygon fill="none" stroke="#bfbfbf" points="2250.5,-358.5 2250.5,-377.5 2297.5,-377.5 2297.5,-358.5 2250.5,-358.5"/>
<text text-anchor="middle" x="2274" y="-365.5" font-family="Helvetica,sans-Serif" font-size="10.00" fill="#000000">vector</text>
</g>
<!-- Node4&#45;&gt;Node6 -->
<g id="edge6" class="edge">
<title>Node4&#45;&gt;Node6</title>
<path fill="none" stroke="#191970" d="M2750.4879,-727.4006C2785.3924,-706.8774 2858.4187,-656.3231 2835,-604 2798.4802,-522.4058 2760.8004,-517.3879 2685,-470 2649.1686,-447.5994 2636.0591,-450.1265 2597,-434 2575.638,-425.1802 2571.2094,-420.3928 2549,-414 2526.1496,-407.4227 2376.3719,-383.8431 2307.9698,-373.2356"/>
<polygon fill="#191970" stroke="#191970" points="2308.1401,-369.7203 2297.7223,-371.6491 2307.0691,-376.6379 2308.1401,-369.7203"/>
</g>
<!-- Node7 -->
<g id="node8" class="node">
<title>Node7</title>
<polygon fill="none" stroke="#bfbfbf" points="2502,-476 2502,-495 2560,-495 2560,-476 2502,-476"/>
<text text-anchor="middle" x="2531" y="-483" font-family="Helvetica,sans-Serif" font-size="10.00" fill="#000000">memory</text>
</g>
<!-- Node4&#45;&gt;Node7 -->
<g id="edge7" class="edge">
<title>Node4&#45;&gt;Node7</title>
<path fill="none" stroke="#191970" d="M2651.465,-727.4792C2562.7401,-716.7236 2432.4117,-699.6008 2425,-691 2383.9394,-643.3516 2463.3391,-622.3501 2495,-568 2507.051,-547.3128 2517.5713,-521.8394 2524.077,-504.7173"/>
<polygon fill="#191970" stroke="#191970" points="2527.3912,-505.8461 2527.5867,-495.2531 2520.828,-503.4122 2527.3912,-505.8461"/>
</g>
<!-- Node8 -->
<g id="node9" class="node">
<title>Node8</title>
<polygon fill="none" stroke="#bfbfbf" points="2708,-414.5 2708,-433.5 2772,-433.5 2772,-414.5 2708,-414.5"/>
<text text-anchor="middle" x="2740" y="-421.5" font-family="Helvetica,sans-Serif" font-size="10.00" fill="#000000">algorithm</text>
</g>
<!-- Node4&#45;&gt;Node8 -->
<g id="edge8" class="edge">
<title>Node4&#45;&gt;Node8</title>
<path fill="none" stroke="#191970" d="M2801.5164,-727.444C2844.0352,-719.9518 2892.9768,-707.9386 2906,-691 2968.1073,-610.2206 2917.5633,-541.5345 2845,-470 2834.8519,-459.9958 2803.2005,-446.7898 2777.2791,-437.0946"/>
<polygon fill="#191970" stroke="#191970" points="2778.2753,-433.7318 2767.6818,-433.5647 2775.8589,-440.3016 2778.2753,-433.7318"/>
</g>
<!-- Node9 -->
<g id="node10" class="node">
<title>Node9</title>
<polygon fill="none" stroke="#bfbfbf" points="3663.5,-414.5 3663.5,-433.5 3720.5,-433.5 3720.5,-414.5 3663.5,-414.5"/>
<text text-anchor="middle" x="3692" y="-421.5" font-family="Helvetica,sans-Serif" font-size="10.00" fill="#000000">gsl/span</text>
</g>
<!-- Node4&#45;&gt;Node9 -->
<g id="edge9" class="edge">
<title>Node4&#45;&gt;Node9</title>
<path fill="none" stroke="#191970" d="M2818.2938,-730.4732C2995.6805,-715.7515 3388,-676.7237 3388,-619.5 3388,-619.5 3388,-619.5 3388,-552.5 3388,-523.9662 3572.0505,-462.0387 3653.7345,-435.9595"/>
<polygon fill="#191970" stroke="#191970" points="3654.9298,-439.2522 3663.4004,-432.8884 3652.81,-432.5809 3654.9298,-439.2522"/>
</g>
<!-- Node10 -->
<g id="node11" class="node">
<title>Node10</title>
<polygon fill="none" stroke="#bfbfbf" points="2434,-671.5 2434,-690.5 2494,-690.5 2494,-671.5 2434,-671.5"/>
<text text-anchor="middle" x="2464" y="-678.5" font-family="Helvetica,sans-Serif" font-size="10.00" fill="#000000">TString.h</text>
</g>
<!-- Node4&#45;&gt;Node10 -->
<g id="edge10" class="edge">
<title>Node4&#45;&gt;Node10</title>
<path fill="none" stroke="#191970" d="M2681.9213,-727.4486C2635.4168,-718.5843 2564.9216,-704.7261 2504,-691 2503.8996,-690.9774 2503.7991,-690.9547 2503.6985,-690.932"/>
<polygon fill="#191970" stroke="#191970" points="2504.6395,-687.5577 2494.105,-688.6864 2503.044,-694.3735 2504.6395,-687.5577"/>
</g>
<!-- Node11 -->
<g id="node12" class="node">
<title>Node11</title>
<polygon fill="none" stroke="#bfbfbf" points="82.5,-73 82.5,-92 141.5,-92 141.5,-73 82.5,-73"/>
<text text-anchor="middle" x="112" y="-80" font-family="Helvetica,sans-Serif" font-size="10.00" fill="#000000">Rtypes.h</text>
</g>
<!-- Node4&#45;&gt;Node11 -->
<g id="edge11" class="edge">
<title>Node4&#45;&gt;Node11</title>
<path fill="none" stroke="#191970" d="M2647.9709,-727.6615C2644.9448,-727.4225 2641.9473,-727.2006 2639,-727 2105.7721,-690.7045 1971.0096,-712.98 1437,-691 1285.2539,-684.7541 72,-771.3746 72,-619.5 72,-619.5 72,-619.5 72,-200 72,-163.3963 89.6108,-123.636 101.4619,-101.0237"/>
<polygon fill="#191970" stroke="#191970" points="104.5696,-102.6351 106.269,-92.1774 98.419,-99.2928 104.5696,-102.6351"/>
</g>
<!-- Node12 -->
<g id="node13" class="node">
<title>Node12</title>
<polygon fill="none" stroke="#bfbfbf" points="2703.5,-671.5 2703.5,-690.5 2762.5,-690.5 2762.5,-671.5 2703.5,-671.5"/>
<text text-anchor="middle" x="2733" y="-678.5" font-family="Helvetica,sans-Serif" font-size="10.00" fill="#000000">TChain.h</text>
</g>
<!-- Node4&#45;&gt;Node12 -->
<g id="edge12" class="edge">
<title>Node4&#45;&gt;Node12</title>
<path fill="none" stroke="#191970" d="M2733,-727.2455C2733,-719.9382 2733,-709.6944 2733,-700.7046"/>
<polygon fill="#191970" stroke="#191970" points="2736.5001,-700.6426 2733,-690.6427 2729.5001,-700.6427 2736.5001,-700.6426"/>
</g>
<!-- Node13 -->
<g id="node14" class="node">
<title>Node13</title>
<g id="a_node14"><a xlink:href="../../d1/d73/Defs_8h.html" target="_top" xlink:title="Common definitions for 2D coordinates. ">
<polygon fill="none" stroke="#000000" points="2159.5,-190.5 2159.5,-209.5 2292.5,-209.5 2292.5,-190.5 2159.5,-190.5"/>
<text text-anchor="middle" x="2226" y="-197.5" font-family="Helvetica,sans-Serif" font-size="10.00" fill="#000000">DataFormatsTPC/Defs.h</text>
</a>
</g>
</g>
<!-- Node4&#45;&gt;Node13 -->
<g id="edge13" class="edge">
<title>Node4&#45;&gt;Node13</title>
<path fill="none" stroke="#191970" d="M2818.3115,-736.0327C3062.8769,-732.1375 3749,-712.8879 3749,-619.5 3749,-619.5 3749,-619.5 3749,-485.5 3749,-452.6194 3752.6816,-437.805 3730,-414 3673.3753,-354.5709 3634.2272,-375.3714 3554,-358 3085.0941,-256.4688 2507.9336,-215.9026 2302.7855,-204.0332"/>
<polygon fill="#191970" stroke="#191970" points="2302.8998,-200.5341 2292.716,-203.4565 2302.4995,-207.5227 2302.8998,-200.5341"/>
</g>
<!-- Node26 -->
<g id="node27" class="node">
<title>Node26</title>
<g id="a_node27"><a xlink:href="../../d5/d1d/TPC_2base_2include_2TPCBase_2Mapper_8h.html" target="_top" xlink:title="TPCBase/Mapper.h">
<polygon fill="none" stroke="#000000" points="1653.5,-476 1653.5,-495 1760.5,-495 1760.5,-476 1653.5,-476"/>
<text text-anchor="middle" x="1707" y="-483" font-family="Helvetica,sans-Serif" font-size="10.00" fill="#000000">TPCBase/Mapper.h</text>
</a>
</g>
</g>
<!-- Node4&#45;&gt;Node26 -->
<g id="edge28" class="edge">
<title>Node4&#45;&gt;Node26</title>
<path fill="none" stroke="#191970" d="M2647.7538,-727.7778C2420.5791,-703.172 1817.4949,-637.6471 1813,-635 1761.2962,-604.551 1728.2449,-537.8312 1714.4236,-504.8051"/>
<polygon fill="#191970" stroke="#191970" points="1717.5988,-503.3201 1710.6127,-495.3549 1711.1068,-505.9382 1717.5988,-503.3201"/>
</g>
<!-- Node34 -->
<g id="node35" class="node">
<title>Node34</title>
<g id="a_node35"><a xlink:href="../../da/d61/PadROCPos_8h.html" target="_top" xlink:title="TPCBase/PadROCPos.h">
<polygon fill="none" stroke="#000000" points="2502.5,-358.5 2502.5,-377.5 2629.5,-377.5 2629.5,-358.5 2502.5,-358.5"/>
<text text-anchor="middle" x="2566" y="-365.5" font-family="Helvetica,sans-Serif" font-size="10.00" fill="#000000">TPCBase/PadROCPos.h</text>
</a>
</g>
</g>
<!-- Node4&#45;&gt;Node34 -->
<g id="edge63" class="edge">
<title>Node4&#45;&gt;Node34</title>
<path fill="none" stroke="#191970" d="M2778.411,-727.4711C2813.2926,-719.1225 2857.2638,-706.0006 2868,-691 2890.5043,-659.5569 2876.4285,-641.7369 2868,-604 2853.6551,-539.7732 2856.7909,-510.6026 2805,-470 2741.1374,-419.9335 2696.594,-474.0197 2626,-434 2605.6961,-422.4897 2588.5026,-401.6557 2577.7948,-386.4663"/>
<polygon fill="#191970" stroke="#191970" points="2580.4905,-384.2039 2571.996,-377.872 2574.6878,-388.1191 2580.4905,-384.2039"/>
</g>
<!-- Node41 -->
<g id="node42" class="node">
<title>Node41</title>
<g id="a_node42"><a xlink:href="../../db/d52/GBTFrameContainer_8h.html" target="_top" xlink:title="Container class for the GBT Frames. ">
<polygon fill="none" stroke="#000000" points="980.5,-537.5 980.5,-567.5 1141.5,-567.5 1141.5,-537.5 980.5,-537.5"/>
<text text-anchor="start" x="988.5" y="-555.5" font-family="Helvetica,sans-Serif" font-size="10.00" fill="#000000">TPCReconstruction/GBTFrame</text>
<text text-anchor="middle" x="1061" y="-544.5" font-family="Helvetica,sans-Serif" font-size="10.00" fill="#000000">Container.h</text>
</a>
</g>
</g>
<!-- Node4&#45;&gt;Node41 -->
<g id="edge64" class="edge">
<title>Node4&#45;&gt;Node41</title>
<path fill="none" stroke="#191970" d="M2647.9702,-727.6717C2644.9443,-727.4297 2641.947,-727.2045 2639,-727 2394.1253,-710.0052 1777.3893,-729.7284 1535,-691 1375.5919,-665.5301 1194.2481,-602.5995 1109.4767,-571.0939"/>
<polygon fill="#191970" stroke="#191970" points="1110.4615,-567.7256 1099.8689,-567.5037 1108.0112,-574.2828 1110.4615,-567.7256"/>
</g>
<!-- Node60 -->
<g id="node61" class="node">
<title>Node60</title>
<g id="a_node61"><a xlink:href="../../d3/d11/RawReader_8h.html" target="_top" xlink:title="TPCReconstruction/RawReader.h">
<polygon fill="none" stroke="#000000" points="2512.5,-671.5 2512.5,-690.5 2685.5,-690.5 2685.5,-671.5 2512.5,-671.5"/>
<text text-anchor="middle" x="2599" y="-678.5" font-family="Helvetica,sans-Serif" font-size="10.00" fill="#000000">TPCReconstruction/RawReader.h</text>
</a>
</g>
</g>
<!-- Node4&#45;&gt;Node60 -->
<g id="edge102" class="edge">
<title>Node4&#45;&gt;Node60</title>
<path fill="none" stroke="#191970" d="M2709.9646,-727.3733C2688.2612,-718.3032 2655.5382,-704.6279 2631.245,-694.4755"/>
<polygon fill="#191970" stroke="#191970" points="2632.3111,-691.1278 2621.7348,-690.5011 2629.6119,-697.5865 2632.3111,-691.1278"/>
</g>
<!-- Node71 -->
<g id="node72" class="node">
<title>Node71</title>
<g id="a_node72"><a xlink:href="../../d6/dbe/RawReaderEventSync_8h.html" target="_top" xlink:title="TPCReconstruction/RawReader\lEventSync.h">
<polygon fill="none" stroke="#000000" points="2660.5,-604.5 2660.5,-634.5 2825.5,-634.5 2825.5,-604.5 2660.5,-604.5"/>
<text text-anchor="start" x="2668.5" y="-622.5" font-family="Helvetica,sans-Serif" font-size="10.00" fill="#000000">TPCReconstruction/RawReader</text>
<text text-anchor="middle" x="2743" y="-611.5" font-family="Helvetica,sans-Serif" font-size="10.00" fill="#000000">EventSync.h</text>
</a>
</g>
</g>
<!-- Node4&#45;&gt;Node71 -->
<g id="edge155" class="edge">
<title>Node4&#45;&gt;Node71</title>
<path fill="none" stroke="#191970" d="M2744.74,-727.4549C2754.131,-719.0029 2766.5909,-705.7442 2772,-691 2777.9039,-674.9069 2770.6589,-657.0367 2761.9354,-643.1874"/>
<polygon fill="#191970" stroke="#191970" points="2764.665,-640.9798 2756.1127,-634.7261 2758.8985,-644.9482 2764.665,-640.9798"/>
</g>
<!-- Node72 -->
<g id="node73" class="node">
<title>Node72</title>
<g id="a_node73"><a xlink:href="../../df/d86/RawReaderCRU_8h.html" target="_top" xlink:title="TPCReconstruction/RawReader\lCRU.h">
<polygon fill="none" stroke="#000000" points="2898.5,-470.5 2898.5,-500.5 3063.5,-500.5 3063.5,-470.5 2898.5,-470.5"/>
<text text-anchor="start" x="2906.5" y="-488.5" font-family="Helvetica,sans-Serif" font-size="10.00" fill="#000000">TPCReconstruction/RawReader</text>
<text text-anchor="middle" x="2981" y="-477.5" font-family="Helvetica,sans-Serif" font-size="10.00" fill="#000000">CRU.h</text>
</a>
</g>
</g>
<!-- Node4&#45;&gt;Node72 -->
<g id="edge135" class="edge">
<title>Node4&#45;&gt;Node72</title>
<path fill="none" stroke="#191970" d="M2818.0818,-728.0952C2868.718,-721.0145 2926.4346,-709.2187 2944,-691 2991.3338,-641.9057 2989.0809,-553.9924 2984.5587,-510.825"/>
<polygon fill="#191970" stroke="#191970" points="2988.003,-510.1462 2983.3574,-500.6243 2981.0511,-510.965 2988.003,-510.1462"/>
</g>
<!-- Node14 -->
<g id="node15" class="node">
<title>Node14</title>
<polygon fill="none" stroke="#bfbfbf" points="2093.5,-134.5 2093.5,-153.5 2140.5,-153.5 2140.5,-134.5 2093.5,-134.5"/>
<text text-anchor="middle" x="2117" y="-141.5" font-family="Helvetica,sans-Serif" font-size="10.00" fill="#000000">cmath</text>
</g>
<!-- Node13&#45;&gt;Node14 -->
<g id="edge14" class="edge">
<title>Node13&#45;&gt;Node14</title>
<path fill="none" stroke="#191970" d="M2207.0136,-190.2455C2189.8208,-181.4125 2164.2762,-168.2887 2144.7868,-158.2758"/>
<polygon fill="#191970" stroke="#191970" points="2146.263,-155.0993 2135.7688,-153.6427 2143.0641,-161.3257 2146.263,-155.0993"/>
</g>
<!-- Node15 -->
<g id="node16" class="node">
<title>Node15</title>
<g id="a_node16"><a xlink:href="../../d2/dd0/Cartesian2D_8h.html" target="_top" xlink:title="MathUtils/Cartesian2D.h">
<polygon fill="none" stroke="#000000" points="1793.5,-73 1793.5,-92 1928.5,-92 1928.5,-73 1793.5,-73"/>
<text text-anchor="middle" x="1861" y="-80" font-family="Helvetica,sans-Serif" font-size="10.00" fill="#000000">MathUtils/Cartesian2D.h</text>
</a>
</g>
</g>
<!-- Node13&#45;&gt;Node15 -->
<g id="edge15" class="edge">
<title>Node13&#45;&gt;Node15</title>
<path fill="none" stroke="#191970" d="M2196.4397,-190.484C2131.0361,-169.4294 1974.0514,-118.8932 1900.402,-95.1842"/>
<polygon fill="#191970" stroke="#191970" points="1901.1726,-91.7554 1890.5811,-92.0227 1899.0275,-98.4187 1901.1726,-91.7554"/>
</g>
<!-- Node18 -->
<g id="node19" class="node">
<title>Node18</title>
<g id="a_node19"><a xlink:href="../../dd/d76/Cartesian3D_8h.html" target="_top" xlink:title="MathUtils/Cartesian3D.h">
<polygon fill="none" stroke="#000000" points="2158.5,-134.5 2158.5,-153.5 2293.5,-153.5 2293.5,-134.5 2158.5,-134.5"/>
<text text-anchor="middle" x="2226" y="-141.5" font-family="Helvetica,sans-Serif" font-size="10.00" fill="#000000">MathUtils/Cartesian3D.h</text>
</a>
</g>
</g>
<!-- Node13&#45;&gt;Node18 -->
<g id="edge18" class="edge">
<title>Node13&#45;&gt;Node18</title>
<path fill="none" stroke="#191970" d="M2226,-190.2455C2226,-182.9382 2226,-172.6944 2226,-163.7046"/>
<polygon fill="#191970" stroke="#191970" points="2229.5001,-163.6426 2226,-153.6427 2222.5001,-163.6427 2229.5001,-163.6426"/>
</g>
<!-- Node16 -->
<g id="node17" class="node">
<title>Node16</title>
<polygon fill="none" stroke="#bfbfbf" points="1682,-.5 1682,-30.5 1846,-30.5 1846,-.5 1682,-.5"/>
<text text-anchor="start" x="1690" y="-18.5" font-family="Helvetica,sans-Serif" font-size="10.00" fill="#000000">Math/GenVector/Displacement</text>
<text text-anchor="middle" x="1764" y="-7.5" font-family="Helvetica,sans-Serif" font-size="10.00" fill="#000000">Vector2D.h</text>
</g>
<!-- Node15&#45;&gt;Node16 -->
<g id="edge16" class="edge">
<title>Node15&#45;&gt;Node16</title>
<path fill="none" stroke="#191970" d="M1847.1023,-72.9005C1833.3265,-63.3853 1811.7795,-48.5023 1794.0779,-36.2755"/>
<polygon fill="#191970" stroke="#191970" points="1795.9651,-33.3253 1785.7479,-30.5218 1791.9868,-39.0849 1795.9651,-33.3253"/>
</g>
<!-- Node17 -->
<g id="node18" class="node">
<title>Node17</title>
<polygon fill="none" stroke="#bfbfbf" points="1864.5,-6 1864.5,-25 2053.5,-25 2053.5,-6 1864.5,-6"/>
<text text-anchor="middle" x="1959" y="-13" font-family="Helvetica,sans-Serif" font-size="10.00" fill="#000000">Math/GenVector/PositionVector2D.h</text>
</g>
<!-- Node15&#45;&gt;Node17 -->
<g id="edge17" class="edge">
<title>Node15&#45;&gt;Node17</title>
<path fill="none" stroke="#191970" d="M1875.041,-72.9005C1891.1238,-61.9052 1917.6906,-43.7422 1936.6316,-30.7927"/>
<polygon fill="#191970" stroke="#191970" points="1938.7052,-33.6148 1944.985,-25.0817 1934.7545,-27.8362 1938.7052,-33.6148"/>
</g>
<!-- Node18&#45;&gt;Node11 -->
<g id="edge24" class="edge">
<title>Node18&#45;&gt;Node11</title>
<path fill="none" stroke="#191970" d="M2158.4939,-134.7417C2155.6267,-134.4673 2152.7862,-134.2179 2150,-134 1740.8314,-102.0011 400.4054,-85.7131 151.846,-82.9319"/>
<polygon fill="#191970" stroke="#191970" points="151.8555,-79.4319 141.8172,-82.8204 151.7777,-86.4315 151.8555,-79.4319"/>
</g>
<!-- Node18&#45;&gt;Node15 -->
<g id="edge27" class="edge">
<title>Node18&#45;&gt;Node15</title>
<path fill="none" stroke="#191970" d="M2161.5332,-134.4627C2103.0826,-125.635 2014.6123,-111.8235 1938,-98 1931.2378,-96.7799 1924.1544,-95.4395 1917.1381,-94.0736"/>
<polygon fill="#191970" stroke="#191970" points="1917.44,-90.5658 1906.9518,-92.065 1916.0858,-97.4335 1917.44,-90.5658"/>
</g>
<!-- Node19 -->
<g id="node20" class="node">
<title>Node19</title>
<polygon fill="none" stroke="#bfbfbf" points="2047,-67.5 2047,-97.5 2211,-97.5 2211,-67.5 2047,-67.5"/>
<text text-anchor="start" x="2055" y="-85.5" font-family="Helvetica,sans-Serif" font-size="10.00" fill="#000000">Math/GenVector/Displacement</text>
<text text-anchor="middle" x="2129" y="-74.5" font-family="Helvetica,sans-Serif" font-size="10.00" fill="#000000">Vector3D.h</text>
</g>
<!-- Node18&#45;&gt;Node19 -->
<g id="edge19" class="edge">
<title>Node18&#45;&gt;Node19</title>
<path fill="none" stroke="#191970" d="M2210.8438,-134.3906C2197.716,-126.0673 2178.2711,-113.7389 2161.6285,-103.1872"/>
<polygon fill="#191970" stroke="#191970" points="2163.0486,-99.9433 2152.7289,-97.5446 2159.3003,-105.8553 2163.0486,-99.9433"/>
</g>
<!-- Node20 -->
<g id="node21" class="node">
<title>Node20</title>
<polygon fill="none" stroke="#bfbfbf" points="2229.5,-73 2229.5,-92 2418.5,-92 2418.5,-73 2229.5,-73"/>
<text text-anchor="middle" x="2324" y="-80" font-family="Helvetica,sans-Serif" font-size="10.00" fill="#000000">Math/GenVector/PositionVector3D.h</text>
</g>
<!-- Node18&#45;&gt;Node20 -->
<g id="edge20" class="edge">
<title>Node18&#45;&gt;Node20</title>
<path fill="none" stroke="#191970" d="M2241.3125,-134.3906C2257.0624,-124.5067 2281.8123,-108.9749 2300.1337,-97.4773"/>
<polygon fill="#191970" stroke="#191970" points="2302.1852,-100.3221 2308.795,-92.0419 2298.4643,-94.3929 2302.1852,-100.3221"/>
</g>
<!-- Node21 -->
<g id="node22" class="node">
<title>Node21</title>
<polygon fill="none" stroke="#bfbfbf" points="2437,-73 2437,-92 2597,-92 2597,-73 2437,-73"/>
<text text-anchor="middle" x="2517" y="-80" font-family="Helvetica,sans-Serif" font-size="10.00" fill="#000000">Math/GenVector/Rotation3D.h</text>
</g>
<!-- Node18&#45;&gt;Node21 -->
<g id="edge21" class="edge">
<title>Node18&#45;&gt;Node21</title>
<path fill="none" stroke="#191970" d="M2271.1495,-134.4581C2322.5478,-123.5956 2406.5205,-105.8488 2461.7758,-94.1711"/>
<polygon fill="#191970" stroke="#191970" points="2462.6845,-97.5565 2471.7446,-92.0643 2461.237,-90.7077 2462.6845,-97.5565"/>
</g>
<!-- Node22 -->
<g id="node23" class="node">
<title>Node22</title>
<polygon fill="none" stroke="#bfbfbf" points="2615,-73 2615,-92 2783,-92 2783,-73 2615,-73"/>
<text text-anchor="middle" x="2699" y="-80" font-family="Helvetica,sans-Serif" font-size="10.00" fill="#000000">Math/GenVector/Transform3D.h</text>
</g>
<!-- Node18&#45;&gt;Node22 -->
<g id="edge22" class="edge">
<title>Node18&#45;&gt;Node22</title>
<path fill="none" stroke="#191970" d="M2293.7337,-136.7248C2369.83,-128.3366 2496.974,-113.6764 2606,-98 2615.2591,-96.6687 2625.0189,-95.1593 2634.5944,-93.6177"/>
<polygon fill="#191970" stroke="#191970" points="2635.1715,-97.0699 2644.4777,-92.0057 2634.0446,-90.1612 2635.1715,-97.0699"/>
</g>
<!-- Node23 -->
<g id="node24" class="node">
<title>Node23</title>
<polygon fill="none" stroke="#bfbfbf" points="2801.5,-73 2801.5,-92 2974.5,-92 2974.5,-73 2801.5,-73"/>
<text text-anchor="middle" x="2888" y="-80" font-family="Helvetica,sans-Serif" font-size="10.00" fill="#000000">Math/GenVector/Translation3D.h</text>
</g>
<!-- Node18&#45;&gt;Node23 -->
<g id="edge23" class="edge">
<title>Node18&#45;&gt;Node23</title>
<path fill="none" stroke="#191970" d="M2293.6961,-140.232C2400.0468,-133.9222 2612.6496,-119.7325 2792,-98 2802.2877,-96.7534 2813.1612,-95.2135 2823.7481,-93.5926"/>
<polygon fill="#191970" stroke="#191970" points="2824.4445,-97.0263 2833.7822,-92.0206 2823.361,-90.1106 2824.4445,-97.0263"/>
</g>
<!-- Node24 -->
<g id="node25" class="node">
<title>Node24</title>
<polygon fill="none" stroke="#bfbfbf" points="1947,-73 1947,-92 2029,-92 2029,-73 1947,-73"/>
<text text-anchor="middle" x="1988" y="-80" font-family="Helvetica,sans-Serif" font-size="10.00" fill="#000000">TGeoMatrix.h</text>
</g>
<!-- Node18&#45;&gt;Node24 -->
<g id="edge25" class="edge">
<title>Node18&#45;&gt;Node24</title>
<path fill="none" stroke="#191970" d="M2183.9967,-134.4917C2145.7715,-125.6566 2087.868,-111.8167 2038,-98 2034.6131,-97.0616 2031.1084,-96.053 2027.5989,-95.0168"/>
<polygon fill="#191970" stroke="#191970" points="2028.3738,-91.5949 2017.7892,-92.0591 2026.353,-98.2969 2028.3738,-91.5949"/>
</g>
<!-- Node25 -->
<g id="node26" class="node">
<title>Node25</title>
<polygon fill="none" stroke="#bfbfbf" points="1152.5,-73 1152.5,-92 1201.5,-92 1201.5,-73 1152.5,-73"/>
<text text-anchor="middle" x="1177" y="-80" font-family="Helvetica,sans-Serif" font-size="10.00" fill="#000000">iosfwd</text>
</g>
<!-- Node18&#45;&gt;Node25 -->
<g id="edge26" class="edge">
<title>Node18&#45;&gt;Node25</title>
<path fill="none" stroke="#191970" d="M2158.4856,-134.8389C2155.6207,-134.5379 2152.7829,-134.2563 2150,-134 1784.1831,-100.3036 1338.8077,-86.716 1212.1163,-83.3694"/>
<polygon fill="#191970" stroke="#191970" points="1211.9485,-79.8639 1201.8608,-83.1026 1211.7664,-86.8615 1211.9485,-79.8639"/>
</g>
<!-- Node26&#45;&gt;Node6 -->
<g id="edge30" class="edge">
<title>Node26&#45;&gt;Node6</title>
<path fill="none" stroke="#191970" d="M1745.6916,-475.9219C1755.2327,-473.7701 1765.4533,-471.641 1775,-470 1910.8286,-446.6514 1949.6558,-468.8411 2083,-434 2105.3604,-428.1575 2109.314,-421.99 2131,-414 2168.1039,-400.3294 2211.4195,-386.7159 2240.573,-377.8874"/>
<polygon fill="#191970" stroke="#191970" points="2241.6937,-381.2053 2250.2609,-374.972 2239.6765,-374.5022 2241.6937,-381.2053"/>
</g>
<!-- Node26&#45;&gt;Node13 -->
<g id="edge34" class="edge">
<title>Node26&#45;&gt;Node13</title>
<path fill="none" stroke="#191970" d="M1740.2116,-475.9622C1748.5794,-473.784 1757.5784,-471.6327 1766,-470 1890.9065,-445.784 1939.9672,-497.8815 2050,-434 2139.3185,-382.1445 2197.7205,-265.2079 2218.0199,-219.1556"/>
<polygon fill="#191970" stroke="#191970" points="2221.3301,-220.3177 2222.0666,-209.7485 2214.8998,-217.5515 2221.3301,-220.3177"/>
</g>
<!-- Node26&#45;&gt;Node14 -->
<g id="edge33" class="edge">
<title>Node26&#45;&gt;Node14</title>
<path fill="none" stroke="#191970" d="M1665.2839,-475.9778C1603.2952,-461.7753 1493.7031,-436.4399 1490,-434 1459.4928,-413.8996 1441,-404.5338 1441,-368 1441,-368 1441,-368 1441,-256 1441,-190.1973 1945.9693,-154.4762 2083.0288,-145.9926"/>
<polygon fill="#191970" stroke="#191970" points="2083.5691,-149.4662 2093.3372,-145.3633 2083.1424,-142.4793 2083.5691,-149.4662"/>
</g>
<!-- Node27 -->
<g id="node28" class="node">
<title>Node27</title>
<polygon fill="none" stroke="#bfbfbf" points="2502,-414.5 2502,-433.5 2540,-433.5 2540,-414.5 2502,-414.5"/>
<text text-anchor="middle" x="2521" y="-421.5" font-family="Helvetica,sans-Serif" font-size="10.00" fill="#000000">map</text>
</g>
<!-- Node26&#45;&gt;Node27 -->
<g id="edge29" class="edge">
<title>Node26&#45;&gt;Node27</title>
<path fill="none" stroke="#191970" d="M1743.8522,-475.9529C1753.8938,-473.6662 1764.8127,-471.4652 1775,-470 1917.1426,-449.5559 2371.1617,-430.0768 2491.4957,-425.177"/>
<polygon fill="#191970" stroke="#191970" points="2491.9202,-428.6628 2501.7704,-424.7612 2491.637,-421.6685 2491.9202,-428.6628"/>
</g>
<!-- Node28 -->
<g id="node29" class="node">
<title>Node28</title>
<polygon fill="none" stroke="#bfbfbf" points="946,-414.5 946,-433.5 988,-433.5 988,-414.5 946,-414.5"/>
<text text-anchor="middle" x="967" y="-421.5" font-family="Helvetica,sans-Serif" font-size="10.00" fill="#000000">array</text>
</g>
<!-- Node26&#45;&gt;Node28 -->
<g id="edge31" class="edge">
<title>Node26&#45;&gt;Node28</title>
<path fill="none" stroke="#191970" d="M1653.4833,-481.0523C1508.7542,-469.0242 1112.8149,-436.1184 998.3679,-426.6069"/>
<polygon fill="#191970" stroke="#191970" points="998.4446,-423.1013 988.189,-425.761 997.8648,-430.0773 998.4446,-423.1013"/>
</g>
<!-- Node29 -->
<g id="node30" class="node">
<title>Node29</title>
<polygon fill="none" stroke="#bfbfbf" points="2173,-414.5 2173,-433.5 2217,-433.5 2217,-414.5 2173,-414.5"/>
<text text-anchor="middle" x="2195" y="-421.5" font-family="Helvetica,sans-Serif" font-size="10.00" fill="#000000">string</text>
</g>
<!-- Node26&#45;&gt;Node29 -->
<g id="edge32" class="edge">
<title>Node26&#45;&gt;Node29</title>
<path fill="none" stroke="#191970" d="M1744.9516,-475.9281C1754.696,-473.7246 1765.1961,-471.57 1775,-470 1944.2584,-442.8945 1990.4227,-465.0613 2159,-434 2160.2559,-433.7686 2161.5316,-433.5136 2162.8165,-433.2401"/>
<polygon fill="#191970" stroke="#191970" points="2163.774,-436.6096 2172.6748,-430.8628 2162.133,-429.8047 2163.774,-436.6096"/>
</g>
<!-- Node30 -->
<g id="node31" class="node">
<title>Node30</title>
<g id="a_node31"><a xlink:href="../../de/d41/PadPos_8h.html" target="_top" xlink:title="TPCBase/PadPos.h">
<polygon fill="none" stroke="#000000" points="1868,-302.5 1868,-321.5 1974,-321.5 1974,-302.5 1868,-302.5"/>
<text text-anchor="middle" x="1921" y="-309.5" font-family="Helvetica,sans-Serif" font-size="10.00" fill="#000000">TPCBase/PadPos.h</text>
</a>
</g>
</g>
<!-- Node26&#45;&gt;Node30 -->
<g id="edge35" class="edge">
<title>Node26&#45;&gt;Node30</title>
<path fill="none" stroke="#191970" d="M1735.2048,-475.9311C1758.3344,-467.2385 1791.1887,-452.8918 1816,-434 1855.8014,-403.6945 1891.2824,-356.116 1909.0227,-330.241"/>
<polygon fill="#191970" stroke="#191970" points="1912.0496,-332.0121 1914.7311,-321.7622 1906.2429,-328.1027 1912.0496,-332.0121"/>
</g>
<!-- Node31 -->
<g id="node32" class="node">
<title>Node31</title>
<g id="a_node32"><a xlink:href="../../dd/d0b/PadSecPos_8h.html" target="_top" xlink:title="TPCBase/PadSecPos.h">
<polygon fill="none" stroke="#000000" points="1693.5,-358.5 1693.5,-377.5 1816.5,-377.5 1816.5,-358.5 1693.5,-358.5"/>
<text text-anchor="middle" x="1755" y="-365.5" font-family="Helvetica,sans-Serif" font-size="10.00" fill="#000000">TPCBase/PadSecPos.h</text>
</a>
</g>
</g>
<!-- Node26&#45;&gt;Node31 -->
<g id="edge36" class="edge">
<title>Node26&#45;&gt;Node31</title>
<path fill="none" stroke="#191970" d="M1665.3629,-475.917C1605.151,-461.9642 1500.6217,-437.3461 1498,-434 1492.5178,-427.003 1492.2951,-420.8166 1498,-414 1521.2432,-386.2272 1615.6052,-375.2032 1683.244,-370.8397"/>
<polygon fill="#191970" stroke="#191970" points="1683.6674,-374.3205 1693.4361,-370.2191 1683.2418,-367.3335 1683.6674,-374.3205"/>
</g>
<!-- Node32 -->
<g id="node33" class="node">
<title>Node32</title>
<g id="a_node33"><a xlink:href="../../d3/dd6/Sector_8h.html" target="_top" xlink:title="TPCBase/Sector.h">
<polygon fill="none" stroke="#000000" points="2016.5,-246.5 2016.5,-265.5 2117.5,-265.5 2117.5,-246.5 2016.5,-246.5"/>
<text text-anchor="middle" x="2067" y="-253.5" font-family="Helvetica,sans-Serif" font-size="10.00" fill="#000000">TPCBase/Sector.h</text>
</a>
</g>
</g>
<!-- Node26&#45;&gt;Node32 -->
<g id="edge62" class="edge">
<title>Node26&#45;&gt;Node32</title>
<path fill="none" stroke="#191970" d="M1701.1468,-475.9336C1688.1748,-453.3745 1660.057,-395.9035 1685,-358 1720.26,-304.4188 1907.62,-274.7093 2006.2154,-262.573"/>
<polygon fill="#191970" stroke="#191970" points="2006.8307,-266.0242 2016.3388,-261.3503 2005.9913,-259.0747 2006.8307,-266.0242"/>
</g>
<!-- Node26&#45;&gt;Node34 -->
<g id="edge41" class="edge">
<title>Node26&#45;&gt;Node34</title>
<path fill="none" stroke="#191970" d="M1744.9628,-475.9973C1754.707,-473.7925 1765.2042,-471.62 1775,-470 1927.5361,-444.7742 1971.9733,-475.1663 2121,-434 2141.3163,-428.3879 2143.7128,-419.7162 2164,-414 2194.7447,-405.3373 2384.7246,-385.764 2492.1535,-375.1564"/>
<polygon fill="#191970" stroke="#191970" points="2492.6754,-378.622 2502.2841,-374.1585 2491.9891,-371.6557 2492.6754,-378.622"/>
</g>
<!-- Node36 -->
<g id="node37" class="node">
<title>Node36</title>
<g id="a_node37"><a xlink:href="../../d3/d54/DigitPos_8h.html" target="_top" xlink:title="TPCBase/DigitPos.h">
<polygon fill="none" stroke="#000000" points="1695,-414.5 1695,-433.5 1807,-433.5 1807,-414.5 1695,-414.5"/>
<text text-anchor="middle" x="1751" y="-421.5" font-family="Helvetica,sans-Serif" font-size="10.00" fill="#000000">TPCBase/DigitPos.h</text>
</a>
</g>
</g>
<!-- Node26&#45;&gt;Node36 -->
<g id="edge47" class="edge">
<title>Node26&#45;&gt;Node36</title>
<path fill="none" stroke="#191970" d="M1713.875,-475.8906C1720.3593,-466.8273 1730.2414,-453.0149 1738.1801,-441.9188"/>
<polygon fill="#191970" stroke="#191970" points="1741.0559,-443.9143 1744.0281,-433.7449 1735.3629,-439.8412 1741.0559,-443.9143"/>
</g>
<!-- Node38 -->
<g id="node39" class="node">
<title>Node38</title>
<g id="a_node39"><a xlink:href="../../d1/d1f/FECInfo_8h.html" target="_top" xlink:title="TPCBase/FECInfo.h">
<polygon fill="none" stroke="#000000" points="1283,-246.5 1283,-265.5 1391,-265.5 1391,-246.5 1283,-246.5"/>
<text text-anchor="middle" x="1337" y="-253.5" font-family="Helvetica,sans-Serif" font-size="10.00" fill="#000000">TPCBase/FECInfo.h</text>
</a>
</g>
</g>
<!-- Node26&#45;&gt;Node38 -->
<g id="edge55" class="edge">
<title>Node26&#45;&gt;Node38</title>
<path fill="none" stroke="#191970" d="M1665.6128,-475.9899C1656.2232,-473.9287 1646.2827,-471.8223 1637,-470 1544.0787,-451.7586 1503.1675,-490.2639 1427,-434 1373.2346,-394.2842 1349.3802,-313.2586 1340.8981,-275.8015"/>
<polygon fill="#191970" stroke="#191970" points="1344.247,-274.7227 1338.7431,-265.6696 1337.4002,-276.179 1344.247,-274.7227"/>
</g>
<!-- Node39 -->
<g id="node40" class="node">
<title>Node39</title>
<g id="a_node40"><a xlink:href="../../da/d9d/PadRegionInfo_8h.html" target="_top" xlink:title="TPCBase/PadRegionInfo.h">
<polygon fill="none" stroke="#000000" points="1901,-414.5 1901,-433.5 2041,-433.5 2041,-414.5 1901,-414.5"/>
<text text-anchor="middle" x="1971" y="-421.5" font-family="Helvetica,sans-Serif" font-size="10.00" fill="#000000">TPCBase/PadRegionInfo.h</text>
</a>
</g>
</g>
<!-- Node26&#45;&gt;Node39 -->
<g id="edge57" class="edge">
<title>Node26&#45;&gt;Node39</title>
<path fill="none" stroke="#191970" d="M1747.9603,-475.9581C1794.2995,-465.1632 1869.824,-447.5694 1919.9606,-435.8899"/>
<polygon fill="#191970" stroke="#191970" points="1920.9984,-439.2419 1929.9436,-433.5643 1919.4102,-432.4244 1920.9984,-439.2419"/>
</g>
<!-- Node40 -->
<g id="node41" class="node">
<title>Node40</title>
<g id="a_node41"><a xlink:href="../../d6/d42/PartitionInfo_8h.html" target="_top" xlink:title="TPCBase/PartitionInfo.h">
<polygon fill="none" stroke="#000000" points="1507.5,-414.5 1507.5,-433.5 1638.5,-433.5 1638.5,-414.5 1507.5,-414.5"/>
<text text-anchor="middle" x="1573" y="-421.5" font-family="Helvetica,sans-Serif" font-size="10.00" fill="#000000">TPCBase/PartitionInfo.h</text>
</a>
</g>
</g>
<!-- Node26&#45;&gt;Node40 -->
<g id="edge61" class="edge">
<title>Node26&#45;&gt;Node40</title>
<path fill="none" stroke="#191970" d="M1686.0625,-475.8906C1663.7402,-465.6457 1628.1963,-449.3326 1602.9243,-437.7339"/>
<polygon fill="#191970" stroke="#191970" points="1604.3389,-434.5322 1593.7905,-433.5419 1601.419,-440.8942 1604.3389,-434.5322"/>
</g>
<!-- Node31&#45;&gt;Node30 -->
<g id="edge40" class="edge">
<title>Node31&#45;&gt;Node30</title>
<path fill="none" stroke="#191970" d="M1783.5364,-358.3733C1811.0202,-349.1016 1852.7686,-335.0178 1883.0452,-324.804"/>
<polygon fill="#191970" stroke="#191970" points="1884.4794,-328.0141 1892.836,-321.5011 1882.2418,-321.3813 1884.4794,-328.0141"/>
</g>
<!-- Node31&#45;&gt;Node32 -->
<g id="edge37" class="edge">
<title>Node31&#45;&gt;Node32</title>
<path fill="none" stroke="#191970" d="M1767.0283,-358.3672C1785.6376,-343.9456 1823.026,-316.8532 1859,-302 1906.6292,-282.3345 1964.0264,-270.4492 2006.4503,-263.7005"/>
<polygon fill="#191970" stroke="#191970" points="2007.0016,-267.157 2016.3521,-262.1751 2005.9358,-260.2386 2007.0016,-267.157"/>
</g>
<!-- Node32&#45;&gt;Node13 -->
<g id="edge39" class="edge">
<title>Node32&#45;&gt;Node13</title>
<path fill="none" stroke="#191970" d="M2094.3331,-246.3733C2120.5434,-237.1419 2160.2984,-223.1402 2189.2668,-212.9375"/>
<polygon fill="#191970" stroke="#191970" points="2190.7542,-216.1244 2199.0236,-209.5011 2188.4288,-209.5219 2190.7542,-216.1244"/>
</g>
<!-- Node33 -->
<g id="node34" class="node">
<title>Node33</title>
<g id="a_node34"><a xlink:href="../../d0/dda/DataFormats_2Detectors_2TPC_2include_2DataFormatsTPC_2Constants_8h.html" target="_top" xlink:title="DataFormatsTPC/Constants.h">
<polygon fill="none" stroke="#000000" points="1982.5,-190.5 1982.5,-209.5 2141.5,-209.5 2141.5,-190.5 1982.5,-190.5"/>
<text text-anchor="middle" x="2062" y="-197.5" font-family="Helvetica,sans-Serif" font-size="10.00" fill="#000000">DataFormatsTPC/Constants.h</text>
</a>
</g>
</g>
<!-- Node32&#45;&gt;Node33 -->
<g id="edge38" class="edge">
<title>Node32&#45;&gt;Node33</title>
<path fill="none" stroke="#191970" d="M2066.1291,-246.2455C2065.4766,-238.9382 2064.562,-228.6944 2063.7593,-219.7046"/>
<polygon fill="#191970" stroke="#191970" points="2067.2365,-219.2918 2062.861,-209.6427 2060.2642,-219.9143 2067.2365,-219.2918"/>
</g>
<!-- Node34&#45;&gt;Node13 -->
<g id="edge42" class="edge">
<title>Node34&#45;&gt;Node13</title>
<path fill="none" stroke="#191970" d="M2556.5629,-358.4502C2543.0924,-345.0624 2517.287,-320.3042 2493,-302 2455.3773,-273.6453 2446.2919,-264.5813 2403,-246 2366.7527,-230.4423 2324.0009,-219.1512 2289.5945,-211.6496"/>
<polygon fill="#191970" stroke="#191970" points="2290.173,-208.1944 2279.6638,-209.5384 2288.7174,-215.0414 2290.173,-208.1944"/>
</g>
<!-- Node34&#45;&gt;Node30 -->
<g id="edge46" class="edge">
<title>Node34&#45;&gt;Node30</title>
<path fill="none" stroke="#191970" d="M2502.3168,-362.2196C2486.8337,-360.8262 2470.323,-359.3502 2455,-358 2284.9038,-343.0118 2084.2787,-325.8751 1984.2928,-317.3714"/>
<polygon fill="#191970" stroke="#191970" points="1984.322,-313.8614 1974.0614,-316.5015 1983.7289,-320.8362 1984.322,-313.8614"/>
</g>
<!-- Node35 -->
<g id="node36" class="node">
<title>Node35</title>
<g id="a_node36"><a xlink:href="../../dc/d14/ROC_8h.html" target="_top" xlink:title="TPCBase/ROC.h">
<polygon fill="none" stroke="#000000" points="2392,-302.5 2392,-321.5 2484,-321.5 2484,-302.5 2392,-302.5"/>
<text text-anchor="middle" x="2438" y="-309.5" font-family="Helvetica,sans-Serif" font-size="10.00" fill="#000000">TPCBase/ROC.h</text>
</a>
</g>
</g>
<!-- Node34&#45;&gt;Node35 -->
<g id="edge43" class="edge">
<title>Node34&#45;&gt;Node35</title>
<path fill="none" stroke="#191970" d="M2543.996,-358.3733C2523.3565,-349.3435 2492.2842,-335.7494 2469.1111,-325.6111"/>
<polygon fill="#191970" stroke="#191970" points="2470.2813,-322.3028 2459.7169,-321.5011 2467.4755,-328.7159 2470.2813,-322.3028"/>
</g>
<!-- Node35&#45;&gt;Node13 -->
<g id="edge44" class="edge">
<title>Node35&#45;&gt;Node13</title>
<path fill="none" stroke="#191970" d="M2431.8309,-302.4171C2422.1011,-288.0607 2401.8273,-261.0524 2378,-246 2352.2579,-229.7379 2320.4382,-218.9459 2292.5754,-211.9308"/>
<polygon fill="#191970" stroke="#191970" points="2293.0485,-208.445 2282.5077,-209.5141 2291.4145,-215.2517 2293.0485,-208.445"/>
</g>
<!-- Node35&#45;&gt;Node32 -->
<g id="edge45" class="edge">
<title>Node35&#45;&gt;Node32</title>
<path fill="none" stroke="#191970" d="M2391.7627,-305.0208C2325.0688,-294.9538 2201.7756,-276.3435 2127.7879,-265.1755"/>
<polygon fill="#191970" stroke="#191970" points="2128.0966,-261.6826 2117.6862,-263.6507 2127.0517,-268.6042 2128.0966,-261.6826"/>
</g>
<!-- Node36&#45;&gt;Node13 -->
<g id="edge48" class="edge">
<title>Node36&#45;&gt;Node13</title>
<path fill="none" stroke="#191970" d="M1728.5323,-414.4503C1703.9301,-402.5658 1669.8566,-381.012 1685,-358 1736.4255,-279.8535 2012.8569,-230.2978 2149.4748,-210.2207"/>
<polygon fill="#191970" stroke="#191970" points="2150.0705,-213.671 2159.463,-208.7688 2149.0635,-206.7438 2150.0705,-213.671"/>
</g>
<!-- Node36&#45;&gt;Node30 -->
<g id="edge53" class="edge">
<title>Node36&#45;&gt;Node30</title>
<path fill="none" stroke="#191970" d="M1767.2596,-414.3922C1782.5644,-405.263 1806.0509,-391.0323 1826,-378 1851.5452,-361.3119 1880.2316,-341.1843 1899.3323,-327.5783"/>
<polygon fill="#191970" stroke="#191970" points="1901.5348,-330.3063 1907.6355,-321.6442 1897.4646,-324.6112 1901.5348,-330.3063"/>
</g>
<!-- Node36&#45;&gt;Node31 -->
<g id="edge54" class="edge">
<title>Node36&#45;&gt;Node31</title>
<path fill="none" stroke="#191970" d="M1751.6967,-414.2455C1752.2187,-406.9382 1752.9504,-396.6944 1753.5925,-387.7046"/>
<polygon fill="#191970" stroke="#191970" points="1757.0898,-387.8667 1754.3112,-377.6427 1750.1076,-387.3679 1757.0898,-387.8667"/>
</g>
<!-- Node37 -->
<g id="node38" class="node">
<title>Node37</title>
<g id="a_node38"><a xlink:href="../../df/d26/CRU_8h.html" target="_top" xlink:title="TPCBase/CRU.h">
<polygon fill="none" stroke="#000000" points="2354,-358.5 2354,-377.5 2446,-377.5 2446,-358.5 2354,-358.5"/>
<text text-anchor="middle" x="2400" y="-365.5" font-family="Helvetica,sans-Serif" font-size="10.00" fill="#000000">TPCBase/CRU.h</text>
</a>
</g>
</g>
<!-- Node36&#45;&gt;Node37 -->
<g id="edge49" class="edge">
<title>Node36&#45;&gt;Node37</title>
<path fill="none" stroke="#191970" d="M1807.073,-419.8189C1907.4125,-412.2348 2124.2796,-395.3796 2307,-378 2318.8719,-376.8708 2331.5856,-375.5665 2343.6813,-374.2806"/>
<polygon fill="#191970" stroke="#191970" points="2344.0949,-377.7564 2353.6642,-373.2089 2343.3477,-370.7964 2344.0949,-377.7564"/>
</g>
<!-- Node37&#45;&gt;Node13 -->
<g id="edge50" class="edge">
<title>Node37&#45;&gt;Node13</title>
<path fill="none" stroke="#191970" d="M2396.2141,-358.1297C2386.0809,-332.1318 2357.8977,-262.6276 2340,-246 2323.1274,-230.3248 2300.2234,-219.6911 2279.3707,-212.6339"/>
<polygon fill="#191970" stroke="#191970" points="2280.2402,-209.2378 2269.6498,-209.5443 2278.1199,-215.909 2280.2402,-209.2378"/>
</g>
<!-- Node37&#45;&gt;Node32 -->
<g id="edge51" class="edge">
<title>Node37&#45;&gt;Node32</title>
<path fill="none" stroke="#191970" d="M2371.6086,-358.4509C2311.7675,-338.3242 2172.6571,-291.5363 2105.1323,-268.8253"/>
<polygon fill="#191970" stroke="#191970" points="2105.9136,-265.3954 2095.3195,-265.5249 2103.682,-272.0302 2105.9136,-265.3954"/>
</g>
<!-- Node37&#45;&gt;Node35 -->
<g id="edge52" class="edge">
<title>Node37&#45;&gt;Node35</title>
<path fill="none" stroke="#191970" d="M2406.6191,-358.2455C2411.9046,-350.4564 2419.4541,-339.3308 2425.8238,-329.9439"/>
<polygon fill="#191970" stroke="#191970" points="2428.7379,-331.8827 2431.4568,-321.6427 2422.9455,-327.9522 2428.7379,-331.8827"/>
</g>
<!-- Node38&#45;&gt;Node25 -->
<g id="edge56" class="edge">
<title>Node38&#45;&gt;Node25</title>
<path fill="none" stroke="#191970" d="M1331.3111,-246.3804C1318.227,-224.7372 1284.2465,-171.1985 1247,-134 1233.2514,-120.2691 1215.6197,-107.3195 1201.4916,-97.8403"/>
<polygon fill="#191970" stroke="#191970" points="1203.0722,-94.6915 1192.7894,-92.1389 1199.236,-100.5468 1203.0722,-94.6915"/>
</g>
<!-- Node39&#45;&gt;Node6 -->
<g id="edge58" class="edge">
<title>Node39&#45;&gt;Node6</title>
<path fill="none" stroke="#191970" d="M2022.7433,-414.4369C2085.0181,-402.9273 2187.7749,-383.936 2240.5038,-374.1907"/>
<polygon fill="#191970" stroke="#191970" points="2241.1584,-377.6291 2250.3557,-372.3699 2239.8861,-370.7457 2241.1584,-377.6291"/>
</g>
<!-- Node39&#45;&gt;Node13 -->
<g id="edge59" class="edge">
<title>Node39&#45;&gt;Node13</title>
<path fill="none" stroke="#191970" d="M1981.957,-414.375C2021.5179,-379.6235 2157.2749,-260.3702 2207.2981,-216.4283"/>
<polygon fill="#191970" stroke="#191970" points="2209.8807,-218.8184 2215.0838,-209.5891 2205.2609,-213.5593 2209.8807,-218.8184"/>
</g>
<!-- Node39&#45;&gt;Node30 -->
<g id="edge60" class="edge">
<title>Node39&#45;&gt;Node30</title>
<path fill="none" stroke="#191970" d="M1966.737,-414.4509C1958.4714,-395.936 1940.1335,-354.8591 1929.3566,-330.7187"/>
<polygon fill="#191970" stroke="#191970" points="1932.5247,-329.2295 1925.2522,-321.5249 1926.1328,-332.0831 1932.5247,-329.2295"/>
</g>
<!-- Node41&#45;&gt;Node6 -->
<g id="edge93" class="edge">
<title>Node41&#45;&gt;Node6</title>
<path fill="none" stroke="#191970" d="M1141.6914,-548.9491C1264.081,-542.7251 1485.0329,-527.8801 1509,-501 1534.9378,-471.9097 1471.2687,-442.3628 1498,-414 1523.8212,-386.6028 2094.329,-372.0153 2240.2516,-368.724"/>
<polygon fill="#191970" stroke="#191970" points="2240.4743,-372.22 2250.3939,-368.4981 2240.3184,-365.2217 2240.4743,-372.22"/>
</g>
<!-- Node41&#45;&gt;Node25 -->
<g id="edge99" class="edge">
<title>Node41&#45;&gt;Node25</title>
<path fill="none" stroke="#191970" d="M980.4436,-549.2511C805.723,-541.8138 405.9454,-522.5251 386,-501 376.6355,-490.8939 379.5515,-482.1755 386,-470 399.3277,-444.8358 422.2878,-457.0557 439,-434 456.9147,-409.2853 458,-398.5246 458,-368 458,-368 458,-368 458,-200 458,-129.8195 998.4342,-93.0101 1142.2159,-84.4588"/>
<polygon fill="#191970" stroke="#191970" points="1142.4727,-87.9499 1152.2504,-83.8699 1142.0625,-80.9619 1142.4727,-87.9499"/>
</g>
<!-- Node41&#45;&gt;Node26 -->
<g id="edge75" class="edge">
<title>Node41&#45;&gt;Node26</title>
<path fill="none" stroke="#191970" d="M1141.8715,-544.3289C1241.093,-534.2748 1414.443,-516.6154 1563,-501 1589.2643,-498.2393 1618.216,-495.1348 1643.2292,-492.4334"/>
<polygon fill="#191970" stroke="#191970" points="1643.7605,-495.8965 1653.3263,-491.3417 1643.008,-488.937 1643.7605,-495.8965"/>
</g>
<!-- Node41&#45;&gt;Node28 -->
<g id="edge95" class="edge">
<title>Node41&#45;&gt;Node28</title>
<path fill="none" stroke="#191970" d="M980.1291,-548.9624C857.4672,-542.7567 636.0233,-527.9363 612,-501 602.8295,-490.7175 602.9051,-480.3494 612,-470 633.2719,-445.7939 853.1001,-430.6161 935.7849,-425.7264"/>
<polygon fill="#191970" stroke="#191970" points="936.0587,-429.2165 945.839,-425.1428 935.653,-422.2283 936.0587,-429.2165"/>
</g>
<!-- Node42 -->
<g id="node43" class="node">
<title>Node42</title>
<g id="a_node43"><a xlink:href="../../d0/d4f/Detectors_2TPC_2base_2include_2TPCBase_2Digit_8h.html" target="_top" xlink:title="TPCBase/Digit.h">
<polygon fill="none" stroke="#000000" points="243.5,-476 243.5,-495 338.5,-495 338.5,-476 243.5,-476"/>
<text text-anchor="middle" x="291" y="-483" font-family="Helvetica,sans-Serif" font-size="10.00" fill="#000000">TPCBase/Digit.h</text>
</a>
</g>
</g>
<!-- Node41&#45;&gt;Node42 -->
<g id="edge65" class="edge">
<title>Node41&#45;&gt;Node42</title>
<path fill="none" stroke="#191970" d="M980.3159,-551.1458C848.3445,-547.9223 578.4323,-537.1016 353,-501 347.0344,-500.0446 340.8014,-498.7944 334.6848,-497.418"/>
<polygon fill="#191970" stroke="#191970" points="335.1071,-493.9209 324.5686,-495.0122 333.4875,-500.7309 335.1071,-493.9209"/>
</g>
<!-- Node49 -->
<g id="node50" class="node">
<title>Node49</title>
<g id="a_node50"><a xlink:href="../../d5/d41/AdcClockMonitor_8h.html" target="_top" xlink:title="Class to monitor the ADC smapling clock contained in the GBT frame. ">
<polygon fill="none" stroke="#000000" points="1327.5,-470.5 1327.5,-500.5 1482.5,-500.5 1482.5,-470.5 1327.5,-470.5"/>
<text text-anchor="start" x="1335.5" y="-488.5" font-family="Helvetica,sans-Serif" font-size="10.00" fill="#000000">TPCReconstruction/AdcClock</text>
<text text-anchor="middle" x="1405" y="-477.5" font-family="Helvetica,sans-Serif" font-size="10.00" fill="#000000">Monitor.h</text>
</a>
</g>
</g>
<!-- Node41&#45;&gt;Node49 -->
<g id="edge76" class="edge">
<title>Node41&#45;&gt;Node49</title>
<path fill="none" stroke="#191970" d="M1138.2003,-537.4639C1191.4416,-527.0942 1262.3065,-513.2921 1317.6207,-502.5186"/>
<polygon fill="#191970" stroke="#191970" points="1318.6139,-505.891 1327.7603,-500.5438 1317.2756,-499.0202 1318.6139,-505.891"/>
</g>
<!-- Node50 -->
<g id="node51" class="node">
<title>Node50</title>
<polygon fill="none" stroke="#bfbfbf" points="1261.5,-414.5 1261.5,-433.5 1336.5,-433.5 1336.5,-414.5 1261.5,-414.5"/>
<text text-anchor="middle" x="1299" y="-421.5" font-family="Helvetica,sans-Serif" font-size="10.00" fill="#000000">FairLogger.h</text>
</g>
<!-- Node41&#45;&gt;Node50 -->
<g id="edge101" class="edge">
<title>Node41&#45;&gt;Node50</title>
<path fill="none" stroke="#191970" d="M1141.8385,-548.5198C1259.9661,-541.8646 1468.2627,-526.623 1491,-501 1500.1448,-490.6946 1499.5323,-480.8179 1491,-470 1486.4539,-464.236 1401.9891,-445.5824 1346.6181,-433.8746"/>
<polygon fill="#191970" stroke="#191970" points="1347.1502,-430.4099 1336.6435,-431.774 1345.7076,-437.2597 1347.1502,-430.4099"/>
</g>
<!-- Node51 -->
<g id="node52" class="node">
<title>Node51</title>
<polygon fill="none" stroke="#bfbfbf" points="1149,-414.5 1149,-433.5 1205,-433.5 1205,-414.5 1149,-414.5"/>
<text text-anchor="middle" x="1177" y="-421.5" font-family="Helvetica,sans-Serif" font-size="10.00" fill="#000000">iomanip</text>
</g>
<!-- Node41&#45;&gt;Node51 -->
<g id="edge100" class="edge">
<title>Node41&#45;&gt;Node51</title>
<path fill="none" stroke="#191970" d="M1141.7834,-543.9707C1196.8211,-536.3003 1262.7205,-522.8143 1280,-501 1288.5549,-490.2 1287.4973,-481.5593 1280,-470 1272.3694,-458.2351 1241.0448,-445.2382 1214.9226,-436.0692"/>
<polygon fill="#191970" stroke="#191970" points="1215.8205,-432.6773 1205.226,-432.753 1213.5554,-439.3007 1215.8205,-432.6773"/>
</g>
<!-- Node52 -->
<g id="node53" class="node">
<title>Node52</title>
<g id="a_node53"><a xlink:href="../../dc/dea/GBTFrame_8h.html" target="_top" xlink:title="GBT Frame object. ">
<polygon fill="none" stroke="#000000" points="395,-476 395,-495 565,-495 565,-476 395,-476"/>
<text text-anchor="middle" x="480" y="-483" font-family="Helvetica,sans-Serif" font-size="10.00" fill="#000000">TPCReconstruction/GBTFrame.h</text>
</a>
</g>
</g>
<!-- Node41&#45;&gt;Node52 -->
<g id="edge80" class="edge">
<title>Node41&#45;&gt;Node52</title>
<path fill="none" stroke="#191970" d="M980.2642,-545.0895C884.4128,-536.0105 719.8002,-519.533 579,-501 568.8701,-499.6666 558.1776,-498.1293 547.7138,-496.5517"/>
<polygon fill="#191970" stroke="#191970" points="548.1915,-493.0841 537.7773,-495.0322 547.1333,-500.0037 548.1915,-493.0841"/>
</g>
<!-- Node53 -->
<g id="node54" class="node">
<title>Node53</title>
<g id="a_node54"><a xlink:href="../../df/dc4/HalfSAMPAData_8h.html" target="_top" xlink:title="Class for data from one half SAMPA. ">
<polygon fill="none" stroke="#000000" points="621,-476 621,-495 817,-495 817,-476 621,-476"/>
<text text-anchor="middle" x="719" y="-483" font-family="Helvetica,sans-Serif" font-size="10.00" fill="#000000">TPCReconstruction/HalfSAMPAData.h</text>
</a>
</g>
</g>
<!-- Node41&#45;&gt;Node53 -->
<g id="edge85" class="edge">
<title>Node41&#45;&gt;Node53</title>
<path fill="none" stroke="#191970" d="M984.2485,-537.4639C921.6391,-525.1983 834.5158,-508.1303 777.4597,-496.9526"/>
<polygon fill="#191970" stroke="#191970" points="778.0059,-493.4932 767.5195,-495.0053 776.6601,-500.3626 778.0059,-493.4932"/>
</g>
<!-- Node54 -->
<g id="node55" class="node">
<title>Node54</title>
<g id="a_node55"><a xlink:href="../../d1/df0/SyncPatternMonitor_8h.html" target="_top" xlink:title="Class to monitor the data stream and detect synchronization patterns. ">
<polygon fill="none" stroke="#000000" points="1103,-470.5 1103,-500.5 1271,-500.5 1271,-470.5 1103,-470.5"/>
<text text-anchor="start" x="1111" y="-488.5" font-family="Helvetica,sans-Serif" font-size="10.00" fill="#000000">TPCReconstruction/SyncPattern</text>
<text text-anchor="middle" x="1187" y="-477.5" font-family="Helvetica,sans-Serif" font-size="10.00" fill="#000000">Monitor.h</text>
</a>
</g>
</g>
<!-- Node41&#45;&gt;Node54 -->
<g id="edge87" class="edge">
<title>Node41&#45;&gt;Node54</title>
<path fill="none" stroke="#191970" d="M1089.2769,-537.4639C1107.0657,-528.0047 1130.2259,-515.6894 1149.5343,-505.4222"/>
<polygon fill="#191970" stroke="#191970" points="1151.1955,-508.503 1158.3816,-500.7177 1147.909,-502.3225 1151.1955,-508.503"/>
</g>
<!-- Node55 -->
<g id="node56" class="node">
<title>Node55</title>
<polygon fill="none" stroke="#bfbfbf" points="834.5,-476 834.5,-495 887.5,-495 887.5,-476 834.5,-476"/>
<text text-anchor="middle" x="861" y="-483" font-family="Helvetica,sans-Serif" font-size="10.00" fill="#000000">iterator</text>
</g>
<!-- Node41&#45;&gt;Node55 -->
<g id="edge92" class="edge">
<title>Node41&#45;&gt;Node55</title>
<path fill="none" stroke="#191970" d="M1007.3445,-537.4433C974.8161,-527.8989 932.6549,-514.7853 896,-501 894.375,-500.3889 892.7171,-499.741 891.05,-499.0704"/>
<polygon fill="#191970" stroke="#191970" points="892.1405,-495.7319 881.566,-495.076 889.4234,-502.1831 892.1405,-495.7319"/>
</g>
<!-- Node56 -->
<g id="node57" class="node">
<title>Node56</title>
<polygon fill="none" stroke="#bfbfbf" points="905.5,-476 905.5,-495 952.5,-495 952.5,-476 905.5,-476"/>
<text text-anchor="middle" x="929" y="-483" font-family="Helvetica,sans-Serif" font-size="10.00" fill="#000000">queue</text>
</g>
<!-- Node41&#45;&gt;Node56 -->
<g id="edge94" class="edge">
<title>Node41&#45;&gt;Node56</title>
<path fill="none" stroke="#191970" d="M1031.3766,-537.4639C1009.1289,-526.1715 978.8616,-510.8086 957.0139,-499.7192"/>
<polygon fill="#191970" stroke="#191970" points="958.4224,-496.5091 947.9212,-495.1039 955.2541,-502.7511 958.4224,-496.5091"/>
</g>
<!-- Node57 -->
<g id="node58" class="node">
<title>Node57</title>
<polygon fill="none" stroke="#bfbfbf" points="971,-476 971,-495 1019,-495 1019,-476 971,-476"/>
<text text-anchor="middle" x="995" y="-483" font-family="Helvetica,sans-Serif" font-size="10.00" fill="#000000">mutex</text>
</g>
<!-- Node41&#45;&gt;Node57 -->
<g id="edge96" class="edge">
<title>Node41&#45;&gt;Node57</title>
<path fill="none" stroke="#191970" d="M1046.0236,-537.2967C1035.7405,-526.8578 1022.0892,-512.9997 1011.4947,-502.2446"/>
<polygon fill="#191970" stroke="#191970" points="1013.9235,-499.7228 1004.4124,-495.055 1008.9367,-504.6352 1013.9235,-499.7228"/>
</g>
<!-- Node58 -->
<g id="node59" class="node">
<title>Node58</title>
<polygon fill="none" stroke="#bfbfbf" points="1037,-476 1037,-495 1085,-495 1085,-476 1037,-476"/>
<text text-anchor="middle" x="1061" y="-483" font-family="Helvetica,sans-Serif" font-size="10.00" fill="#000000">thread</text>
</g>
<!-- Node41&#45;&gt;Node58 -->
<g id="edge97" class="edge">
<title>Node41&#45;&gt;Node58</title>
<path fill="none" stroke="#191970" d="M1061,-537.2967C1061,-527.7699 1061,-515.3954 1061,-505.1306"/>
<polygon fill="#191970" stroke="#191970" points="1064.5001,-505.0549 1061,-495.055 1057.5001,-505.055 1064.5001,-505.0549"/>
</g>
<!-- Node59 -->
<g id="node60" class="node">
<title>Node59</title>
<polygon fill="none" stroke="#bfbfbf" points="2634.5,-414.5 2634.5,-433.5 2689.5,-433.5 2689.5,-414.5 2634.5,-414.5"/>
<text text-anchor="middle" x="2662" y="-421.5" font-family="Helvetica,sans-Serif" font-size="10.00" fill="#000000">fstream</text>
</g>
<!-- Node41&#45;&gt;Node59 -->
<g id="edge98" class="edge">
<title>Node41&#45;&gt;Node59</title>
<path fill="none" stroke="#191970" d="M1141.6042,-547.4118C1273.2091,-538.9319 1542.3942,-520.867 1770,-501 1905.2973,-489.1903 1938.7213,-482.0217 2074,-470 2284.8855,-451.2594 2337.9941,-451.3319 2549,-434 2573.9652,-431.9494 2602.0161,-429.468 2623.9244,-427.4901"/>
<polygon fill="#191970" stroke="#191970" points="2624.5023,-430.9521 2634.1454,-426.5636 2623.8703,-423.9807 2624.5023,-430.9521"/>
</g>
<!-- Node43 -->
<g id="node44" class="node">
<title>Node43</title>
<g id="a_node44"><a xlink:href="../../d2/d45/GPUCommonRtypes_8h.html" target="_top" xlink:title="GPUCommonRtypes.h">
<polygon fill="none" stroke="#000000" points="100.5,-358.5 100.5,-377.5 225.5,-377.5 225.5,-358.5 100.5,-358.5"/>
<text text-anchor="middle" x="163" y="-365.5" font-family="Helvetica,sans-Serif" font-size="10.00" fill="#000000">GPUCommonRtypes.h</text>
</a>
</g>
</g>
<!-- Node42&#45;&gt;Node43 -->
<g id="edge66" class="edge">
<title>Node42&#45;&gt;Node43</title>
<path fill="none" stroke="#191970" d="M243.3112,-476.8668C200.3279,-468.0003 141.8139,-452.8515 128,-434 116.6159,-418.4644 130.2163,-398.7441 143.6459,-384.9216"/>
<polygon fill="#191970" stroke="#191970" points="146.1503,-387.369 150.9295,-377.9133 141.2968,-382.3249 146.1503,-387.369"/>
</g>
<!-- Node44 -->
<g id="node45" class="node">
<title>Node44</title>
<g id="a_node45"><a xlink:href="../../df/d21/GPUCommonDef_8h.html" target="_top" xlink:title="GPUCommonDef.h">
<polygon fill="none" stroke="#000000" points="271.5,-358.5 271.5,-377.5 378.5,-377.5 378.5,-358.5 271.5,-358.5"/>
<text text-anchor="middle" x="325" y="-365.5" font-family="Helvetica,sans-Serif" font-size="10.00" fill="#000000">GPUCommonDef.h</text>
</a>
</g>
</g>
<!-- Node42&#45;&gt;Node44 -->
<g id="edge68" class="edge">
<title>Node42&#45;&gt;Node44</title>
<path fill="none" stroke="#191970" d="M302.4556,-475.826C312.6872,-466.3703 326.9627,-450.9554 333,-434 338.3768,-418.8995 335.5657,-400.7596 331.868,-387.3218"/>
<polygon fill="#191970" stroke="#191970" points="335.1831,-386.196 328.8518,-377.701 328.5036,-388.2901 335.1831,-386.196"/>
</g>
<!-- Node47 -->
<g id="node48" class="node">
<title>Node47</title>
<g id="a_node48"><a xlink:href="../../df/d5d/common_2include_2CommonDataFormat_2TimeStamp_8h.html" target="_top" xlink:title="CommonDataFormat/TimeStamp.h">
<polygon fill="none" stroke="#000000" points="137.5,-414.5 137.5,-433.5 324.5,-433.5 324.5,-414.5 137.5,-414.5"/>
<text text-anchor="middle" x="231" y="-421.5" font-family="Helvetica,sans-Serif" font-size="10.00" fill="#000000">CommonDataFormat/TimeStamp.h</text>
</a>
</g>
</g>
<!-- Node42&#45;&gt;Node47 -->
<g id="edge71" class="edge">
<title>Node42&#45;&gt;Node47</title>
<path fill="none" stroke="#191970" d="M281.625,-475.8906C272.5201,-466.5581 258.5026,-452.1902 247.5243,-440.9374"/>
<polygon fill="#191970" stroke="#191970" points="249.9957,-438.4586 240.5072,-433.7449 244.9852,-443.3468 249.9957,-438.4586"/>
</g>
<!-- Node48 -->
<g id="node49" class="node">
<title>Node48</title>
<polygon fill="none" stroke="#bfbfbf" points="380,-414.5 380,-433.5 430,-433.5 430,-414.5 380,-414.5"/>
<text text-anchor="middle" x="405" y="-421.5" font-family="Helvetica,sans-Serif" font-size="10.00" fill="#000000">climits</text>
</g>
<!-- Node42&#45;&gt;Node48 -->
<g id="edge74" class="edge">
<title>Node42&#45;&gt;Node48</title>
<path fill="none" stroke="#191970" d="M308.8125,-475.8906C327.4685,-465.8262 356.9797,-449.9057 378.3974,-438.3514"/>
<polygon fill="#191970" stroke="#191970" points="380.1734,-441.3702 387.3126,-433.5419 376.8498,-435.2095 380.1734,-441.3702"/>
</g>
<!-- Node43&#45;&gt;Node11 -->
<g id="edge67" class="edge">
<title>Node43&#45;&gt;Node11</title>
<path fill="none" stroke="#191970" d="M154.8732,-358.3546C147.7089,-349.4271 137.4362,-335.5288 131,-322 117.8866,-294.4357 112,-286.5246 112,-256 112,-256 112,-256 112,-200 112,-165.6399 112,-125.628 112,-102.2764"/>
<polygon fill="#191970" stroke="#191970" points="115.5001,-102.2489 112,-92.2489 108.5001,-102.249 115.5001,-102.2489"/>
</g>
<!-- Node45 -->
<g id="node46" class="node">
<title>Node45</title>
<g id="a_node46"><a xlink:href="../../d5/d93/GPUCommonDefSettings_8h.html" target="_top" xlink:title="GPUCommonDefSettings.h">
<polygon fill="none" stroke="#000000" points="140,-302.5 140,-321.5 288,-321.5 288,-302.5 140,-302.5"/>
<text text-anchor="middle" x="214" y="-309.5" font-family="Helvetica,sans-Serif" font-size="10.00" fill="#000000">GPUCommonDefSettings.h</text>
</a>
</g>
</g>
<!-- Node44&#45;&gt;Node45 -->
<g id="edge69" class="edge">
<title>Node44&#45;&gt;Node45</title>
<path fill="none" stroke="#191970" d="M305.9184,-358.3733C288.2598,-349.4644 261.7947,-336.1127 241.7902,-326.0203"/>
<polygon fill="#191970" stroke="#191970" points="243.3372,-322.8806 232.8326,-321.5011 240.1842,-329.1303 243.3372,-322.8806"/>
</g>
<!-- Node46 -->
<g id="node47" class="node">
<title>Node46</title>
<g id="a_node47"><a xlink:href="../../da/d5a/GPUCommonDefAPI_8h.html" target="_top" xlink:title="GPUCommonDefAPI.h">
<polygon fill="none" stroke="#000000" points="306,-302.5 306,-321.5 430,-321.5 430,-302.5 306,-302.5"/>
<text text-anchor="middle" x="368" y="-309.5" font-family="Helvetica,sans-Serif" font-size="10.00" fill="#000000">GPUCommonDefAPI.h</text>
</a>
</g>
</g>
<!-- Node44&#45;&gt;Node46 -->
<g id="edge70" class="edge">
<title>Node44&#45;&gt;Node46</title>
<path fill="none" stroke="#191970" d="M332.49,-358.2455C338.5326,-350.3761 347.1903,-339.101 354.4441,-329.6542"/>
<polygon fill="#191970" stroke="#191970" points="357.2815,-331.7058 360.5958,-321.6427 351.7295,-327.4426 357.2815,-331.7058"/>
</g>
<!-- Node47&#45;&gt;Node43 -->
<g id="edge72" class="edge">
<title>Node47&#45;&gt;Node43</title>
<path fill="none" stroke="#191970" d="M219.1553,-414.2455C209.112,-405.9746 194.5005,-393.9416 182.6996,-384.2232"/>
<polygon fill="#191970" stroke="#191970" points="184.6533,-381.298 174.709,-377.6427 180.2033,-386.7015 184.6533,-381.298"/>
</g>
<!-- Node47&#45;&gt;Node44 -->
<g id="edge73" class="edge">
<title>Node47&#45;&gt;Node44</title>
<path fill="none" stroke="#191970" d="M247.3736,-414.2455C261.9308,-405.5731 283.431,-392.7645 300.1152,-382.825"/>
<polygon fill="#191970" stroke="#191970" points="302.0144,-385.7676 308.8141,-377.6427 298.4317,-379.7539 302.0144,-385.7676"/>
</g>
<!-- Node49&#45;&gt;Node25 -->
<g id="edge78" class="edge">
<title>Node49&#45;&gt;Node25</title>
<path fill="none" stroke="#191970" d="M1341.4937,-470.4754C1305.3703,-460.7421 1264.8348,-447.4176 1252,-434 1230.9002,-411.9421 1233,-398.5246 1233,-368 1233,-368 1233,-368 1233,-200 1233,-161.4693 1208.1574,-122.14 1191.5649,-100.1688"/>
<polygon fill="#191970" stroke="#191970" points="1194.1848,-97.8376 1185.263,-92.1234 1188.6741,-102.1541 1194.1848,-97.8376"/>
</g>
<!-- Node49&#45;&gt;Node50 -->
<g id="edge77" class="edge">
<title>Node49&#45;&gt;Node50</title>
<path fill="none" stroke="#191970" d="M1379.0695,-470.4554C1362.4691,-460.8241 1341.0256,-448.3828 1324.5083,-438.7996"/>
<polygon fill="#191970" stroke="#191970" points="1325.8323,-435.5214 1315.4262,-433.5303 1322.3194,-441.5761 1325.8323,-435.5214"/>
</g>
<!-- Node49&#45;&gt;Node51 -->
<g id="edge79" class="edge">
<title>Node49&#45;&gt;Node51</title>
<path fill="none" stroke="#191970" d="M1349.2249,-470.4554C1307.5303,-459.2088 1251.6314,-444.1308 1214.9854,-434.2461"/>
<polygon fill="#191970" stroke="#191970" points="1215.7542,-430.8284 1205.1877,-431.6033 1213.9311,-437.5869 1215.7542,-430.8284"/>
</g>
<!-- Node52&#45;&gt;Node6 -->
<g id="edge83" class="edge">
<title>Node52&#45;&gt;Node6</title>
<path fill="none" stroke="#191970" d="M528.4535,-475.9431C611.6279,-459.9827 787.1033,-428.2521 937,-414 1070.1043,-401.3445 2045.5177,-374.2377 2240.2344,-368.917"/>
<polygon fill="#191970" stroke="#191970" points="2240.5291,-372.4104 2250.4299,-368.6388 2240.3382,-365.413 2240.5291,-372.4104"/>
</g>
<!-- Node52&#45;&gt;Node25 -->
<g id="edge81" class="edge">
<title>Node52&#45;&gt;Node25</title>
<path fill="none" stroke="#191970" d="M508.2594,-475.9489C548.6331,-460.3031 618,-425.1115 618,-368 618,-368 618,-368 618,-200 618,-146.2125 1019.4762,-99.2025 1141.951,-86.113"/>
<polygon fill="#191970" stroke="#191970" points="1142.6835,-89.5551 1152.2592,-85.0213 1141.9462,-82.594 1142.6835,-89.5551"/>
</g>
<!-- Node52&#45;&gt;Node28 -->
<g id="edge84" class="edge">
<title>Node52&#45;&gt;Node28</title>
<path fill="none" stroke="#191970" d="M538.3158,-475.9992C551.6702,-473.9266 565.8155,-471.813 579,-470 711.4059,-451.7925 869.8366,-434.3631 935.7992,-427.2995"/>
<polygon fill="#191970" stroke="#191970" points="936.3633,-430.7593 945.9355,-426.2179 935.6205,-423.7988 936.3633,-430.7593"/>
</g>
<!-- Node52&#45;&gt;Node51 -->
<g id="edge82" class="edge">
<title>Node52&#45;&gt;Node51</title>
<path fill="none" stroke="#191970" d="M557.0777,-475.9811C575.0871,-473.8869 594.2052,-471.7686 612,-470 809.8252,-450.3385 1047.2414,-433.0646 1138.5962,-426.6521"/>
<polygon fill="#191970" stroke="#191970" points="1139.0176,-430.1313 1148.749,-425.9421 1138.5292,-423.1484 1139.0176,-430.1313"/>
</g>
<!-- Node53&#45;&gt;Node28 -->
<g id="edge86" class="edge">
<title>Node53&#45;&gt;Node28</title>
<path fill="none" stroke="#191970" d="M757.4779,-475.9581C806.5775,-463.7822 890.5569,-442.9567 935.8512,-431.7244"/>
<polygon fill="#191970" stroke="#191970" points="936.8333,-435.0869 945.6969,-429.2828 935.1484,-428.2927 936.8333,-435.0869"/>
</g>
<!-- Node54&#45;&gt;Node25 -->
<g id="edge89" class="edge">
<title>Node54&#45;&gt;Node25</title>
<path fill="none" stroke="#191970" d="M1169.6338,-470.3341C1159.6823,-460.7993 1147.6823,-447.7334 1140,-434 1125.098,-407.3601 1121,-398.5246 1121,-368 1121,-368 1121,-368 1121,-200 1121,-161.4693 1145.8426,-122.14 1162.4351,-100.1688"/>
<polygon fill="#191970" stroke="#191970" points="1165.3259,-102.1541 1168.737,-92.1234 1159.8152,-97.8376 1165.3259,-102.1541"/>
</g>
<!-- Node54&#45;&gt;Node28 -->
<g id="edge91" class="edge">
<title>Node54&#45;&gt;Node28</title>
<path fill="none" stroke="#191970" d="M1133.1819,-470.4554C1090.6909,-458.5772 1032.9112,-442.4252 997.8766,-432.6314"/>
<polygon fill="#191970" stroke="#191970" points="998.7761,-429.2487 988.203,-429.9272 996.8914,-435.9903 998.7761,-429.2487"/>
</g>
<!-- Node54&#45;&gt;Node50 -->
<g id="edge88" class="edge">
<title>Node54&#45;&gt;Node50</title>
<path fill="none" stroke="#191970" d="M1214.3983,-470.4554C1232.1022,-460.734 1255.0195,-448.15 1272.5358,-438.5317"/>
<polygon fill="#191970" stroke="#191970" points="1274.5631,-441.4115 1281.644,-433.5303 1271.1939,-435.2756 1274.5631,-441.4115"/>
</g>
<!-- Node54&#45;&gt;Node51 -->
<g id="edge90" class="edge">
<title>Node54&#45;&gt;Node51</title>
<path fill="none" stroke="#191970" d="M1184.5281,-470.2977C1183.2267,-462.2945 1181.6153,-452.3843 1180.2177,-443.7889"/>
<polygon fill="#191970" stroke="#191970" points="1183.6608,-443.1555 1178.6011,-433.8469 1176.7515,-444.2791 1183.6608,-443.1555"/>
</g>
<!-- Node60&#45;&gt;Node6 -->
<g id="edge104" class="edge">
<title>Node60&#45;&gt;Node6</title>
<path fill="none" stroke="#191970" d="M2600.8325,-671.2199C2606.3713,-638.4854 2619.6105,-531.3751 2569,-470 2551.7543,-449.0862 2381.2532,-398.5535 2307.6,-377.4782"/>
<polygon fill="#191970" stroke="#191970" points="2308.4524,-374.0818 2297.876,-374.706 2306.5332,-380.8136 2308.4524,-374.0818"/>
</g>
<!-- Node60&#45;&gt;Node7 -->
<g id="edge106" class="edge">
<title>Node60&#45;&gt;Node7</title>
<path fill="none" stroke="#191970" d="M2594.7076,-671.2137C2590.708,-661.9584 2584.6753,-647.6424 2580,-635 2562.9384,-588.8639 2545.6321,-533.653 2536.8691,-504.9681"/>
<polygon fill="#191970" stroke="#191970" points="2540.1062,-503.5821 2533.8517,-495.0304 2533.4081,-505.6159 2540.1062,-503.5821"/>
</g>
<!-- Node60&#45;&gt;Node27 -->
<g id="edge105" class="edge">
<title>Node60&#45;&gt;Node27</title>
<path fill="none" stroke="#191970" d="M2560.4287,-671.4404C2528.805,-662.7303 2487.7289,-649.1067 2478,-635 2470.1779,-623.658 2471.0846,-615.9165 2478,-604 2494.1867,-576.1075 2519.6447,-592.1651 2541,-568 2562.3715,-543.8166 2562.6539,-532.6434 2569,-501 2571.7092,-487.4912 2574.4076,-482.6722 2569,-470 2563.8844,-458.0122 2553.9425,-447.6498 2544.4273,-439.8114"/>
<polygon fill="#191970" stroke="#191970" points="2546.3754,-436.8949 2536.3074,-433.5954 2542.1203,-442.4532 2546.3754,-436.8949"/>
</g>
<!-- Node60&#45;&gt;Node29 -->
<g id="edge103" class="edge">
<title>Node60&#45;&gt;Node29</title>
<path fill="none" stroke="#191970" d="M2512.4,-671.908C2509.2274,-671.5976 2506.0861,-671.2939 2503,-671 2368.7618,-658.215 1982.8662,-678.0919 1905,-568 1879.8477,-532.4381 1875.4608,-502.9059 1904,-470 1941.0638,-427.2651 2100.5195,-445.0415 2156,-434 2158.3137,-433.5395 2160.6952,-433.0267 2163.0864,-432.4832"/>
<polygon fill="#191970" stroke="#191970" points="2163.9226,-435.882 2172.822,-430.133 2162.2799,-429.0775 2163.9226,-435.882"/>
</g>
<!-- Node60&#45;&gt;Node30 -->
<g id="edge109" class="edge">
<title>Node60&#45;&gt;Node30</title>
<path fill="none" stroke="#191970" d="M2512.4077,-671.8225C2509.2329,-671.5361 2506.089,-671.2608 2503,-671 2379.6246,-660.584 2058.9997,-687.7831 1947,-635 1910.0259,-617.5749 1899.6246,-605.7702 1884,-568 1857.8012,-504.6683 1876.585,-480.7807 1892,-414 1898.7039,-384.9572 1908.5274,-351.8527 1914.8433,-331.4402"/>
<polygon fill="#191970" stroke="#191970" points="1918.2257,-332.3504 1917.8703,-321.7615 1911.5449,-330.2609 1918.2257,-332.3504"/>
</g>
<!-- Node61 -->
<g id="node62" class="node">
<title>Node61</title>
<polygon fill="none" stroke="#bfbfbf" points="2669.5,-543 2669.5,-562 2714.5,-562 2714.5,-543 2669.5,-543"/>
<text text-anchor="middle" x="2692" y="-550" font-family="Helvetica,sans-Serif" font-size="10.00" fill="#000000">utility</text>
</g>
<!-- Node60&#45;&gt;Node61 -->
<g id="edge107" class="edge">
<title>Node60&#45;&gt;Node61</title>
<path fill="none" stroke="#191970" d="M2605.3538,-671.3934C2615.13,-656.6997 2634.5606,-627.8381 2652,-604 2660.3754,-592.5516 2670.1343,-579.9729 2677.9162,-570.1128"/>
<polygon fill="#191970" stroke="#191970" points="2680.6859,-572.253 2684.1613,-562.2444 2675.203,-567.9012 2680.6859,-572.253"/>
</g>
<!-- Node62 -->
<g id="node63" class="node">
<title>Node62</title>
<polygon fill="none" stroke="#bfbfbf" points="2486.5,-610 2486.5,-629 2527.5,-629 2527.5,-610 2486.5,-610"/>
<text text-anchor="middle" x="2507" y="-617" font-family="Helvetica,sans-Serif" font-size="10.00" fill="#000000">tuple</text>
</g>
<!-- Node60&#45;&gt;Node62 -->
<g id="edge108" class="edge">
<title>Node60&#45;&gt;Node62</title>
<path fill="none" stroke="#191970" d="M2584.625,-671.3906C2569.9069,-661.5519 2546.8168,-646.1167 2529.6411,-634.6351"/>
<polygon fill="#191970" stroke="#191970" points="2531.5327,-631.6896 2521.2741,-629.0419 2527.6425,-637.5091 2531.5327,-631.6896"/>
</g>
<!-- Node63 -->
<g id="node64" class="node">
<title>Node63</title>
<g id="a_node64"><a xlink:href="../../d6/d2b/TPC_2base_2include_2TPCBase_2CalDet_8h.html" target="_top" xlink:title="TPCBase/CalDet.h">
<polygon fill="none" stroke="#000000" points="2095,-610 2095,-629 2199,-629 2199,-610 2095,-610"/>
<text text-anchor="middle" x="2147" y="-617" font-family="Helvetica,sans-Serif" font-size="10.00" fill="#000000">TPCBase/CalDet.h</text>
</a>
</g>
</g>
<!-- Node60&#45;&gt;Node63 -->
<g id="edge110" class="edge">
<title>Node60&#45;&gt;Node63</title>
<path fill="none" stroke="#191970" d="M2528.8709,-671.4581C2441.3922,-659.5556 2293.1649,-639.3875 2209.4369,-627.9953"/>
<polygon fill="#191970" stroke="#191970" points="2209.6866,-624.4971 2199.306,-626.6169 2208.7428,-631.4332 2209.6866,-624.4971"/>
</g>
<!-- Node60&#45;&gt;Node71 -->
<g id="edge132" class="edge">
<title>Node60&#45;&gt;Node71</title>
<path fill="none" stroke="#191970" d="M2621.5,-671.3906C2641.9811,-662.6435 2672.8197,-649.4728 2698.3022,-638.5897"/>
<polygon fill="#191970" stroke="#191970" points="2699.9519,-641.691 2707.7736,-634.5446 2697.2025,-635.2535 2699.9519,-641.691"/>
</g>
<!-- Node63&#45;&gt;Node6 -->
<g id="edge112" class="edge">
<title>Node63&#45;&gt;Node6</title>
<path fill="none" stroke="#191970" d="M2101.8481,-609.9339C2062.6697,-600.6095 2010.3472,-585.3315 1998,-568 1990.0058,-556.7786 1993.1882,-549.9102 1998,-537 2011.755,-500.0946 2021.7503,-489.4465 2056,-470 2135.6819,-424.7579 2192.6728,-497.2199 2259,-434 2271.336,-422.2419 2274.5089,-402.6234 2274.9418,-387.8246"/>
<polygon fill="#191970" stroke="#191970" points="2278.4401,-387.6236 2274.845,-377.6574 2271.4404,-387.6903 2278.4401,-387.6236"/>
</g>
<!-- Node63&#45;&gt;Node7 -->
<g id="edge111" class="edge">
<title>Node63&#45;&gt;Node7</title>
<path fill="none" stroke="#191970" d="M2199.0451,-615.6178C2277.2955,-609.0279 2420.8031,-593.7952 2465,-568 2490.9009,-552.8831 2510.639,-523.4238 2521.5212,-504.1085"/>
<polygon fill="#191970" stroke="#191970" points="2524.7327,-505.5265 2526.3905,-495.0621 2518.5689,-502.2087 2524.7327,-505.5265"/>
</g>
<!-- Node63&#45;&gt;Node13 -->
<g id="edge118" class="edge">
<title>Node63&#45;&gt;Node13</title>
<path fill="none" stroke="#191970" d="M2199.0953,-614.6741C2262.7744,-607.7722 2365.5846,-593.0652 2394,-568 2417.6105,-547.1732 2411.8182,-532.0541 2417,-501 2419.2676,-487.4101 2421.491,-483.0253 2417,-470 2400.0757,-420.9137 2375.4498,-420.056 2345,-378 2303.7299,-320.9994 2258.4217,-250.9613 2237.6169,-218.3397"/>
<polygon fill="#191970" stroke="#191970" points="2240.5194,-216.3814 2232.1996,-209.8215 2234.6127,-220.1379 2240.5194,-216.3814"/>
</g>
<!-- Node63&#45;&gt;Node26 -->
<g id="edge119" class="edge">
<title>Node63&#45;&gt;Node26</title>
<path fill="none" stroke="#191970" d="M2094.7161,-612.6487C2041.9571,-604.9058 1958.5678,-590.3848 1889,-568 1831.6459,-549.5452 1768.3478,-518.1607 1733.567,-499.8833"/>
<polygon fill="#191970" stroke="#191970" points="1735.0163,-496.6902 1724.5418,-495.0973 1731.7368,-502.8744 1735.0163,-496.6902"/>
</g>
<!-- Node63&#45;&gt;Node29 -->
<g id="edge113" class="edge">
<title>Node63&#45;&gt;Node29</title>
<path fill="none" stroke="#191970" d="M2094.9208,-614.6686C2036.6113,-608.0554 1947.5642,-593.9341 1927,-568 1899.9382,-533.8717 1898.6939,-503.1036 1927,-470 1960.4781,-430.8478 2105.5487,-444.4091 2156,-434 2158.3104,-433.5233 2160.6895,-432.9985 2163.079,-432.4466"/>
<polygon fill="#191970" stroke="#191970" points="2163.922,-435.8436 2172.811,-430.0785 2162.267,-429.0421 2163.922,-435.8436"/>
</g>
<!-- Node63&#45;&gt;Node32 -->
<g id="edge121" class="edge">
<title>Node63&#45;&gt;Node32</title>
<path fill="none" stroke="#191970" d="M2097.5507,-609.9615C2056.2218,-600.866 2002.007,-585.9202 1989,-568 1980.9068,-556.8498 1986.7324,-550.5899 1989,-537 1994.1818,-505.9459 1987.989,-490.3637 2012,-470 2085.556,-407.617 2163.7145,-507.6386 2226,-434 2278.5978,-371.815 2156.6921,-300.1868 2097.2441,-270.2759"/>
<polygon fill="#191970" stroke="#191970" points="2098.453,-266.9693 2087.9372,-265.6771 2095.352,-273.245 2098.453,-266.9693"/>
</g>
<!-- Node63&#45;&gt;Node35 -->
<g id="edge120" class="edge">
<title>Node63&#45;&gt;Node35</title>
<path fill="none" stroke="#191970" d="M2199.2572,-616.1132C2270.6321,-610.4685 2393.5752,-596.7881 2427,-568 2491.6751,-512.2966 2453.2662,-463.3389 2455,-378 2455.1806,-369.1129 2456.5651,-366.75 2455,-358 2453.3557,-348.8071 2449.9995,-339.047 2446.7003,-330.8935"/>
<polygon fill="#191970" stroke="#191970" points="2449.8606,-329.3833 2442.6849,-321.5885 2443.4335,-332.1569 2449.8606,-329.3833"/>
</g>
<!-- Node63&#45;&gt;Node50 -->
<g id="edge117" class="edge">
<title>Node63&#45;&gt;Node50</title>
<path fill="none" stroke="#191970" d="M2094.8098,-614.2337C2027.807,-606.8667 1908.2292,-591.6687 1808,-568 1713.8893,-545.7762 1692.82,-531.3282 1601,-501 1560.0293,-487.4674 1550.5808,-481.5224 1509,-470 1453.892,-454.7291 1389.5253,-441.2601 1346.7227,-432.9062"/>
<polygon fill="#191970" stroke="#191970" points="1347.343,-429.4614 1336.8601,-430.9974 1346.0128,-436.3339 1347.343,-429.4614"/>
</g>
<!-- Node64 -->
<g id="node65" class="node">
<title>Node64</title>
<polygon fill="none" stroke="#bfbfbf" points="2306.5,-476 2306.5,-495 2407.5,-495 2407.5,-476 2306.5,-476"/>
<text text-anchor="middle" x="2357" y="-483" font-family="Helvetica,sans-Serif" font-size="10.00" fill="#000000">boost/format.hpp</text>
</g>
<!-- Node63&#45;&gt;Node64 -->
<g id="edge114" class="edge">
<title>Node63&#45;&gt;Node64</title>
<path fill="none" stroke="#191970" d="M2146.2735,-609.8865C2145.5423,-592.813 2146.6222,-557.1087 2166,-537 2167.2927,-535.6586 2254.6423,-512.4597 2310.7545,-497.6606"/>
<polygon fill="#191970" stroke="#191970" points="2311.7208,-501.0255 2320.4985,-495.0923 2309.9366,-494.2567 2311.7208,-501.0255"/>
</g>
<!-- Node65 -->
<g id="node66" class="node">
<title>Node65</title>
<polygon fill="none" stroke="#bfbfbf" points="2175,-543 2175,-562 2315,-562 2315,-543 2175,-543"/>
<text text-anchor="middle" x="2245" y="-550" font-family="Helvetica,sans-Serif" font-size="10.00" fill="#000000">boost/range/combine.hpp</text>
</g>
<!-- Node63&#45;&gt;Node65 -->
<g id="edge115" class="edge">
<title>Node63&#45;&gt;Node65</title>
<path fill="none" stroke="#191970" d="M2161.041,-609.9005C2177.1238,-598.9052 2203.6906,-580.7422 2222.6316,-567.7927"/>
<polygon fill="#191970" stroke="#191970" points="2224.7052,-570.6148 2230.985,-562.0817 2220.7545,-564.8362 2224.7052,-570.6148"/>
</g>
<!-- Node66 -->
<g id="node67" class="node">
<title>Node66</title>
<polygon fill="none" stroke="#bfbfbf" points="2333,-543 2333,-562 2385,-562 2385,-543 2333,-543"/>
<text text-anchor="middle" x="2359" y="-550" font-family="Helvetica,sans-Serif" font-size="10.00" fill="#000000">cassert</text>
</g>
<!-- Node63&#45;&gt;Node66 -->
<g id="edge116" class="edge">
<title>Node63&#45;&gt;Node66</title>
<path fill="none" stroke="#191970" d="M2185.1085,-609.9917C2221.2783,-600.5977 2276.9515,-585.1752 2324,-568 2325.6309,-567.4046 2327.2934,-566.7694 2328.9641,-566.1085"/>
<polygon fill="#191970" stroke="#191970" points="2330.5798,-569.2268 2338.4593,-562.1441 2327.8828,-562.7673 2330.5798,-569.2268"/>
</g>
<!-- Node67 -->
<g id="node68" class="node">
<title>Node67</title>
<g id="a_node68"><a xlink:href="../../db/d9b/CalArray_8h.html" target="_top" xlink:title="TPCBase/CalArray.h">
<polygon fill="none" stroke="#000000" points="2007,-543 2007,-562 2119,-562 2119,-543 2007,-543"/>
<text text-anchor="middle" x="2063" y="-550" font-family="Helvetica,sans-Serif" font-size="10.00" fill="#000000">TPCBase/CalArray.h</text>
</a>
</g>
</g>
<!-- Node63&#45;&gt;Node67 -->
<g id="edge122" class="edge">
<title>Node63&#45;&gt;Node67</title>
<path fill="none" stroke="#191970" d="M2134.9648,-609.9005C2121.3668,-599.0544 2099.0246,-581.2339 2082.8376,-568.3229"/>
<polygon fill="#191970" stroke="#191970" points="2085.0131,-565.5811 2075.0128,-562.0817 2080.6481,-571.0535 2085.0131,-565.5811"/>
</g>
<!-- Node67&#45;&gt;Node6 -->
<g id="edge125" class="edge">
<title>Node67&#45;&gt;Node6</title>
<path fill="none" stroke="#191970" d="M2060.999,-542.8007C2058.0694,-525.5911 2054.8556,-489.6783 2074,-470 2144.0066,-398.0411 2231.9127,-510.4373 2297,-434 2308.7264,-420.2287 2298.9988,-400.1178 2288.8257,-385.7192"/>
<polygon fill="#191970" stroke="#191970" points="2291.4743,-383.4209 2282.6217,-377.6 2285.9122,-387.6709 2291.4743,-383.4209"/>
</g>
<!-- Node67&#45;&gt;Node7 -->
<g id="edge124" class="edge">
<title>Node67&#45;&gt;Node7</title>
<path fill="none" stroke="#191970" d="M2119.1156,-543.9598C2134.3252,-541.6711 2150.79,-539.2174 2166,-537 2284.4177,-519.7362 2424.5884,-500.2147 2491.5498,-490.9452"/>
<polygon fill="#191970" stroke="#191970" points="2492.2275,-494.3848 2501.6535,-489.5474 2491.2682,-487.4509 2492.2275,-494.3848"/>
</g>
<!-- Node67&#45;&gt;Node26 -->
<g id="edge131" class="edge">
<title>Node67&#45;&gt;Node26</title>
<path fill="none" stroke="#191970" d="M2012.372,-542.9717C1947.8767,-530.8335 1836.5312,-509.8781 1767.594,-496.9039"/>
<polygon fill="#191970" stroke="#191970" points="1768.2161,-493.4596 1757.7413,-495.0496 1766.9214,-500.3389 1768.2161,-493.4596"/>
</g>
<!-- Node67&#45;&gt;Node29 -->
<g id="edge126" class="edge">
<title>Node67&#45;&gt;Node29</title>
<path fill="none" stroke="#191970" d="M2055.6439,-542.8601C2044.0202,-526.3654 2024.3514,-492.3484 2041,-470 2042.88,-467.4764 2118.6213,-445.6563 2163.166,-432.9961"/>
<polygon fill="#191970" stroke="#191970" points="2164.293,-436.3146 2172.9579,-430.2178 2162.3823,-429.5804 2164.293,-436.3146"/>
</g>
<!-- Node67&#45;&gt;Node50 -->
<g id="edge130" class="edge">
<title>Node67&#45;&gt;Node50</title>
<path fill="none" stroke="#191970" d="M2006.8985,-548.981C1908.6683,-542.2593 1709.8072,-526.0007 1645,-501 1622.6814,-492.3902 1623.1933,-478.9277 1601,-470 1577.8969,-460.7063 1426.1392,-440.2895 1346.9402,-430.0732"/>
<polygon fill="#191970" stroke="#191970" points="1347.0942,-426.5643 1336.7296,-428.7608 1346.2018,-433.5072 1347.0942,-426.5643"/>
</g>
<!-- Node67&#45;&gt;Node64 -->
<g id="edge129" class="edge">
<title>Node67&#45;&gt;Node64</title>
<path fill="none" stroke="#191970" d="M2105.9379,-542.9703C2114.8805,-540.9917 2124.247,-538.9239 2133,-537 2206.3085,-520.8865 2225.0196,-518.5397 2298,-501 2302.5856,-499.8979 2307.3611,-498.7103 2312.1217,-497.5001"/>
<polygon fill="#191970" stroke="#191970" points="2312.9964,-500.8891 2321.807,-495.0048 2311.2499,-494.1105 2312.9964,-500.8891"/>
</g>
<!-- Node68 -->
<g id="node69" class="node">
<title>Node68</title>
<polygon fill="none" stroke="#bfbfbf" points="2083,-476 2083,-495 2127,-495 2127,-476 2083,-476"/>
<text text-anchor="middle" x="2105" y="-483" font-family="Helvetica,sans-Serif" font-size="10.00" fill="#000000">Vc/Vc</text>
</g>
<!-- Node67&#45;&gt;Node68 -->
<g id="edge123" class="edge">
<title>Node67&#45;&gt;Node68</title>
<path fill="none" stroke="#191970" d="M2069.0176,-542.9005C2075.38,-532.751 2085.5709,-516.4941 2093.4858,-503.8679"/>
<polygon fill="#191970" stroke="#191970" points="2096.6477,-505.4135 2098.9936,-495.0817 2090.7167,-501.6956 2096.6477,-505.4135"/>
</g>
<!-- Node69 -->
<g id="node70" class="node">
<title>Node69</title>
<polygon fill="none" stroke="#bfbfbf" points="2145,-476 2145,-495 2201,-495 2201,-476 2145,-476"/>
<text text-anchor="middle" x="2173" y="-483" font-family="Helvetica,sans-Serif" font-size="10.00" fill="#000000">numeric</text>
</g>
<!-- Node67&#45;&gt;Node69 -->
<g id="edge127" class="edge">
<title>Node67&#45;&gt;Node69</title>
<path fill="none" stroke="#191970" d="M2078.7603,-542.9005C2096.9757,-531.8057 2127.173,-513.4128 2148.4677,-500.4424"/>
<polygon fill="#191970" stroke="#191970" points="2150.5491,-503.2728 2157.2689,-495.0817 2146.9077,-497.2945 2150.5491,-503.2728"/>
</g>
<!-- Node70 -->
<g id="node71" class="node">
<title>Node70</title>
<polygon fill="none" stroke="#bfbfbf" points="2219.5,-476 2219.5,-495 2288.5,-495 2288.5,-476 2219.5,-476"/>
<text text-anchor="middle" x="2254" y="-483" font-family="Helvetica,sans-Serif" font-size="10.00" fill="#000000">type_traits</text>
</g>
<!-- Node67&#45;&gt;Node70 -->
<g id="edge128" class="edge">
<title>Node67&#45;&gt;Node70</title>
<path fill="none" stroke="#191970" d="M2090.3686,-542.9275C2119.8936,-532.597 2168.286,-515.6544 2210,-501 2212.407,-500.1544 2214.8878,-499.2822 2217.3878,-498.4028"/>
<polygon fill="#191970" stroke="#191970" points="2218.7394,-501.6377 2227.0101,-495.016 2216.4153,-495.0347 2218.7394,-501.6377"/>
</g>
<!-- Node71&#45;&gt;Node27 -->
<g id="edge133" class="edge">
<title>Node71&#45;&gt;Node27</title>
<path fill="none" stroke="#191970" d="M2742.2883,-604.4764C2740.8713,-587.1137 2736.6381,-558.213 2724,-537 2700.9529,-498.3156 2686.7369,-492.9588 2648,-470 2631.071,-459.9664 2581.752,-443.3172 2549.7899,-433.0395"/>
<polygon fill="#191970" stroke="#191970" points="2550.6763,-429.6485 2540.0855,-429.943 2548.5483,-436.3173 2550.6763,-429.6485"/>
</g>
<!-- Node71&#45;&gt;Node61 -->
<g id="edge134" class="edge">
<title>Node71&#45;&gt;Node61</title>
<path fill="none" stroke="#191970" d="M2731.4273,-604.2967C2723.7127,-594.1618 2713.5449,-580.804 2705.4671,-570.1921"/>
<polygon fill="#191970" stroke="#191970" points="2708.1151,-567.8921 2699.2732,-562.055 2702.5451,-572.1319 2708.1151,-567.8921"/>
</g>
<!-- Node72&#45;&gt;Node6 -->
<g id="edge140" class="edge">
<title>Node72&#45;&gt;Node6</title>
<path fill="none" stroke="#191970" d="M2919.3892,-470.4024C2887.2786,-461.5677 2847.768,-449.1608 2814,-434 2798.3545,-426.9756 2797.3135,-419.2909 2781,-414 2596.047,-354.0148 2538.2373,-399.5679 2345,-378 2332.7525,-376.633 2319.3595,-374.8278 2307.5386,-373.1277"/>
<polygon fill="#191970" stroke="#191970" points="2308.0255,-369.6618 2297.6236,-371.6744 2307.0103,-376.5878 2308.0255,-369.6618"/>
</g>
<!-- Node72&#45;&gt;Node8 -->
<g id="edge146" class="edge">
<title>Node72&#45;&gt;Node8</title>
<path fill="none" stroke="#191970" d="M2922.0448,-470.4554C2878.6799,-459.3893 2820.7788,-444.6137 2782.0313,-434.7258"/>
<polygon fill="#191970" stroke="#191970" points="2782.6815,-431.2796 2772.1265,-432.1983 2780.9506,-438.0623 2782.6815,-431.2796"/>
</g>
<!-- Node72&#45;&gt;Node9 -->
<g id="edge148" class="edge">
<title>Node72&#45;&gt;Node9</title>
<path fill="none" stroke="#191970" d="M3063.5746,-484.1684C3189.3248,-481.0411 3436.2983,-470.5813 3653.4446,-433.9945"/>
<polygon fill="#191970" stroke="#191970" points="3654.1668,-437.4219 3663.4352,-432.289 3652.9888,-430.5218 3654.1668,-437.4219"/>
</g>
<!-- Node72&#45;&gt;Node14 -->
<g id="edge144" class="edge">
<title>Node72&#45;&gt;Node14</title>
<path fill="none" stroke="#191970" d="M2963.2526,-470.4015C2953.0852,-460.8905 2940.8296,-447.826 2933,-434 2917.9584,-407.4387 2914,-398.5246 2914,-368 2914,-368 2914,-368 2914,-256 2914,-87.8103 2338.7583,-186.5642 2150.6562,-153.6276"/>
<polygon fill="#191970" stroke="#191970" points="2151.1589,-150.1597 2140.6728,-151.6734 2149.8142,-157.0293 2151.1589,-150.1597"/>
</g>
<!-- Node72&#45;&gt;Node27 -->
<g id="edge141" class="edge">
<title>Node72&#45;&gt;Node27</title>
<path fill="none" stroke="#191970" d="M2898.4957,-474.4695C2793.9488,-460.4921 2619.0763,-437.1124 2550.1729,-427.9003"/>
<polygon fill="#191970" stroke="#191970" points="2550.4269,-424.4032 2540.0512,-426.5471 2549.4992,-431.3415 2550.4269,-424.4032"/>
</g>
<!-- Node72&#45;&gt;Node28 -->
<g id="edge142" class="edge">
<title>Node72&#45;&gt;Node28</title>
<path fill="none" stroke="#191970" d="M2898.1513,-482.0808C2814.9624,-478.7187 2683.1113,-473.5837 2569,-470 1934.0005,-450.0574 1774.7666,-460.3345 1140,-434 1090.4995,-431.9464 1033.0963,-428.3968 998.4409,-426.1257"/>
<polygon fill="#191970" stroke="#191970" points="998.2366,-422.6047 988.0273,-425.4368 997.7744,-429.5894 998.2366,-422.6047"/>
</g>
<!-- Node72&#45;&gt;Node30 -->
<g id="edge153" class="edge">
<title>Node72&#45;&gt;Node30</title>
<path fill="none" stroke="#191970" d="M2957.2269,-470.2423C2931.6106,-454.3549 2889.2283,-429.6464 2850,-414 2759.8796,-378.0551 2734.7587,-373.6206 2639,-358 2513.8203,-337.5801 2135.3991,-320.6096 1984.3052,-314.4663"/>
<polygon fill="#191970" stroke="#191970" points="1984.3892,-310.967 1974.256,-314.0601 1984.1064,-317.9612 1984.3892,-310.967"/>
</g>
<!-- Node72&#45;&gt;Node34 -->
<g id="edge154" class="edge">
<title>Node72&#45;&gt;Node34</title>
<path fill="none" stroke="#191970" d="M2946.2029,-470.3696C2899.2699,-449.9964 2820.7352,-416.039 2814,-414 2756.5571,-396.61 2689.5369,-384.6554 2639.6595,-377.3008"/>
<polygon fill="#191970" stroke="#191970" points="2640.0017,-373.8139 2629.6036,-375.846 2638.9994,-380.7418 2640.0017,-373.8139"/>
</g>
<!-- Node72&#45;&gt;Node37 -->
<g id="edge150" class="edge">
<title>Node72&#45;&gt;Node37</title>
<path fill="none" stroke="#191970" d="M3063.7721,-484.0038C3202.3995,-480.0541 3461.7463,-465.7354 3412,-414 3376.624,-377.2095 2544.9048,-381.7017 2494,-378 2481.8516,-377.1166 2468.8464,-375.9049 2456.5023,-374.6295"/>
<polygon fill="#191970" stroke="#191970" points="2456.6356,-371.1241 2446.3221,-373.549 2455.8968,-378.085 2456.6356,-371.1241"/>
</g>
<!-- Node72&#45;&gt;Node51 -->
<g id="edge139" class="edge">
<title>Node72&#45;&gt;Node51</title>
<path fill="none" stroke="#191970" d="M2898.1497,-482.1328C2814.9595,-478.8108 2683.1074,-473.7059 2569,-470 1983.7566,-450.9929 1835.682,-480.7591 1252,-434 1239.9483,-433.0345 1226.8679,-431.4707 1215.0564,-429.8635"/>
<polygon fill="#191970" stroke="#191970" points="1215.4517,-426.3847 1205.0609,-428.454 1214.4741,-433.3161 1215.4517,-426.3847"/>
</g>
<!-- Node72&#45;&gt;Node59 -->
<g id="edge137" class="edge">
<title>Node72&#45;&gt;Node59</title>
<path fill="none" stroke="#191970" d="M2898.2658,-472.2577C2844.292,-463.182 2772.1413,-450.2305 2699.5912,-433.9921"/>
<polygon fill="#191970" stroke="#191970" points="2700.3437,-430.574 2689.8183,-431.7851 2698.8017,-437.402 2700.3437,-430.574"/>
</g>
<!-- Node73 -->
<g id="node74" class="node">
<title>Node73</title>
<polygon fill="none" stroke="#bfbfbf" points="2942,-414.5 2942,-433.5 3002,-433.5 3002,-414.5 2942,-414.5"/>
<text text-anchor="middle" x="2972" y="-421.5" font-family="Helvetica,sans-Serif" font-size="10.00" fill="#000000">iostream</text>
</g>
<!-- Node72&#45;&gt;Node73 -->
<g id="edge136" class="edge">
<title>Node72&#45;&gt;Node73</title>
<path fill="none" stroke="#191970" d="M2978.7753,-470.2977C2977.6041,-462.2945 2976.1538,-452.3843 2974.8959,-443.7889"/>
<polygon fill="#191970" stroke="#191970" points="2978.3522,-443.2347 2973.441,-433.8469 2971.426,-444.2484 2978.3522,-443.2347"/>
</g>
<!-- Node74 -->
<g id="node75" class="node">
<title>Node74</title>
<polygon fill="none" stroke="#bfbfbf" points="3495,-358.5 3495,-377.5 3545,-377.5 3545,-358.5 3495,-358.5"/>
<text text-anchor="middle" x="3520" y="-365.5" font-family="Helvetica,sans-Serif" font-size="10.00" fill="#000000">cstdint</text>
</g>
<!-- Node72&#45;&gt;Node74 -->
<g id="edge138" class="edge">
<title>Node72&#45;&gt;Node74</title>
<path fill="none" stroke="#191970" d="M3063.6731,-482.283C3178.2333,-476.8166 3378.6496,-463.3202 3445,-434 3469.6299,-423.1161 3491.9696,-401.16 3505.7386,-385.5638"/>
<polygon fill="#191970" stroke="#191970" points="3508.6471,-387.5468 3512.4664,-377.6644 3503.3179,-383.0081 3508.6471,-387.5468"/>
</g>
<!-- Node75 -->
<g id="node76" class="node">
<title>Node75</title>
<polygon fill="none" stroke="#bfbfbf" points="3020,-414.5 3020,-433.5 3064,-433.5 3064,-414.5 3020,-414.5"/>
<text text-anchor="middle" x="3042" y="-421.5" font-family="Helvetica,sans-Serif" font-size="10.00" fill="#000000">bitset</text>
</g>
<!-- Node72&#45;&gt;Node75 -->
<g id="edge143" class="edge">
<title>Node72&#45;&gt;Node75</title>
<path fill="none" stroke="#191970" d="M2996.0787,-470.2977C3004.8989,-461.4052 3016.0541,-450.1586 3025.1612,-440.9769"/>
<polygon fill="#191970" stroke="#191970" points="3027.6759,-443.4116 3032.2331,-433.8469 3022.706,-438.4821 3027.6759,-443.4116"/>
</g>
<!-- Node76 -->
<g id="node77" class="node">
<title>Node76</title>
<polygon fill="none" stroke="#bfbfbf" points="3082.5,-414.5 3082.5,-433.5 3155.5,-433.5 3155.5,-414.5 3082.5,-414.5"/>
<text text-anchor="middle" x="3119" y="-421.5" font-family="Helvetica,sans-Serif" font-size="10.00" fill="#000000">string_view</text>
</g>
<!-- Node72&#45;&gt;Node76 -->
<g id="edge145" class="edge">
<title>Node72&#45;&gt;Node76</title>
<path fill="none" stroke="#191970" d="M3014.7586,-470.4554C3037.2793,-460.419 3066.6467,-447.3314 3088.4692,-437.6061"/>
<polygon fill="#191970" stroke="#191970" points="3089.9056,-440.7979 3097.6149,-433.5303 3087.0561,-434.4041 3089.9056,-440.7979"/>
</g>
<!-- Node77 -->
<g id="node78" class="node">
<title>Node77</title>
<polygon fill="none" stroke="#bfbfbf" points="3173.5,-414.5 3173.5,-433.5 3238.5,-433.5 3238.5,-414.5 3173.5,-414.5"/>
<text text-anchor="middle" x="3206" y="-421.5" font-family="Helvetica,sans-Serif" font-size="10.00" fill="#000000">functional</text>
</g>
<!-- Node72&#45;&gt;Node77 -->
<g id="edge147" class="edge">
<title>Node72&#45;&gt;Node77</title>
<path fill="none" stroke="#191970" d="M3036.0412,-470.4554C3075.4034,-459.6964 3127.594,-445.431 3163.7065,-435.5602"/>
<polygon fill="#191970" stroke="#191970" points="3164.7185,-438.9121 3173.4418,-432.8992 3162.8728,-432.1598 3164.7185,-438.9121"/>
</g>
<!-- Node78 -->
<g id="node79" class="node">
<title>Node78</title>
<g id="a_node79"><a xlink:href="../../d7/df8/Types_8h.html" target="_top" xlink:title="MemoryResources/Types.h">
<polygon fill="none" stroke="#000000" points="3257,-414.5 3257,-433.5 3403,-433.5 3403,-414.5 3257,-414.5"/>
<text text-anchor="middle" x="3330" y="-421.5" font-family="Helvetica,sans-Serif" font-size="10.00" fill="#000000">MemoryResources/Types.h</text>
</a>
</g>
</g>
<!-- Node72&#45;&gt;Node78 -->
<g id="edge149" class="edge">
<title>Node72&#45;&gt;Node78</title>
<path fill="none" stroke="#191970" d="M3063.7081,-470.9254C3125.603,-460.0184 3209.0369,-445.3158 3265.9122,-435.2934"/>
<polygon fill="#191970" stroke="#191970" points="3266.6183,-438.723 3275.8591,-433.5406 3265.4034,-431.8292 3266.6183,-438.723"/>
</g>
<!-- Node79 -->
<g id="node80" class="node">
<title>Node79</title>
<g id="a_node80"><a xlink:href="../../d4/d78/DataFormats_2Headers_2include_2Headers_2RAWDataHeader_8h.html" target="_top" xlink:title="Headers/RAWDataHeader.h">
<polygon fill="none" stroke="#000000" points="3496.5,-414.5 3496.5,-433.5 3645.5,-433.5 3645.5,-414.5 3496.5,-414.5"/>
<text text-anchor="middle" x="3571" y="-421.5" font-family="Helvetica,sans-Serif" font-size="10.00" fill="#000000">Headers/RAWDataHeader.h</text>
</a>
</g>
</g>
<!-- Node72&#45;&gt;Node79 -->
<g id="edge151" class="edge">
<title>Node72&#45;&gt;Node79</title>
<path fill="none" stroke="#191970" d="M3063.641,-477.301C3163.1571,-467.3633 3335.361,-449.9612 3483,-434 3483.9363,-433.8988 3484.8782,-433.7967 3485.8249,-433.6938"/>
<polygon fill="#191970" stroke="#191970" points="3486.5545,-437.1349 3496.1136,-432.5661 3485.7918,-430.1765 3486.5545,-437.1349"/>
</g>
<!-- Node79&#45;&gt;Node74 -->
<g id="edge152" class="edge">
<title>Node79&#45;&gt;Node74</title>
<path fill="none" stroke="#191970" d="M3562.1165,-414.2455C3554.8034,-406.2155 3544.2609,-394.6394 3535.5533,-385.0781"/>
<polygon fill="#191970" stroke="#191970" points="3538.1028,-382.6795 3528.7817,-377.6427 3532.9273,-387.3928 3538.1028,-382.6795"/>
</g>
</g>
</svg>
