<?xml version="1.0" encoding="UTF-8" standalone="no"?>
<!DOCTYPE svg PUBLIC "-//W3C//DTD SVG 1.1//EN"
 "http://www.w3.org/Graphics/SVG/1.1/DTD/svg11.dtd">
<!-- Generated by graphviz version 2.40.1 (20161225.0304)
 -->
<!-- Title: /home/travis/build/AliceO2Group/AliceO2/Utilities/Mergers/include/Mergers/ObjectStore.h Pages: 1 -->
<svg width="527pt" height="239pt"
 viewBox="0.00 0.00 527.00 239.00" xmlns="http://www.w3.org/2000/svg" xmlns:xlink="http://www.w3.org/1999/xlink">
<g id="graph0" class="graph" transform="scale(1 1) rotate(0) translate(4 235)">
<title>/home/travis/build/AliceO2Group/AliceO2/Utilities/Mergers/include/Mergers/ObjectStore.h</title>
<!-- Node4 -->
<g id="node1" class="node">
<title>Node4</title>
<polygon fill="#bfbfbf" stroke="#000000" points="226.5,-178.5 226.5,-230.5 364.5,-230.5 364.5,-178.5 226.5,-178.5"/>
<text text-anchor="start" x="234.5" y="-218.5" font-family="Helvetica,sans-Serif" font-size="10.00" fill="#000000">/home/travis/build</text>
<text text-anchor="start" x="234.5" y="-207.5" font-family="Helvetica,sans-Serif" font-size="10.00" fill="#000000">/AliceO2Group/AliceO2</text>
<text text-anchor="start" x="234.5" y="-196.5" font-family="Helvetica,sans-Serif" font-size="10.00" fill="#000000">/Utilities/Mergers/include</text>
<text text-anchor="middle" x="295.5" y="-185.5" font-family="Helvetica,sans-Serif" font-size="10.00" fill="#000000">/Mergers/ObjectStore.h</text>
</g>
<!-- Node5 -->
<g id="node2" class="node">
<title>Node5</title>
<g id="a_node2"><a xlink:href="../../d4/dd2/FullHistoryMerger_8h.html" target="_top" xlink:title="Definition of O2 FullHistoryMerger, v0.1. ">
<polygon fill="none" stroke="#000000" points="44,-89.5 44,-141.5 199,-141.5 199,-89.5 44,-89.5"/>
<text text-anchor="start" x="52" y="-129.5" font-family="Helvetica,sans-Serif" font-size="10.00" fill="#000000">/home/travis/build</text>
<text text-anchor="start" x="52" y="-118.5" font-family="Helvetica,sans-Serif" font-size="10.00" fill="#000000">/AliceO2Group/AliceO2</text>
<text text-anchor="start" x="52" y="-107.5" font-family="Helvetica,sans-Serif" font-size="10.00" fill="#000000">/Utilities/Mergers/include</text>
<text text-anchor="middle" x="121.5" y="-96.5" font-family="Helvetica,sans-Serif" font-size="10.00" fill="#000000">/Mergers/FullHistoryMerger.h</text>
</a>
</g>
</g>
<!-- Node4&#45;&gt;Node5 -->
<g id="edge1" class="edge">
<title>Node4&#45;&gt;Node5</title>
<path fill="none" stroke="#191970" d="M235.2958,-173.7059C214.7959,-163.2203 192.0963,-151.6096 172.3982,-141.5341"/>
<polygon fill="#191970" stroke="#191970" points="233.7385,-176.8406 244.2354,-178.2784 236.9262,-170.6085 233.7385,-176.8406"/>
</g>
<!-- Node8 -->
<g id="node5" class="node">
<title>Node8</title>
<g id="a_node5"><a xlink:href="../../db/d19/IntegratingMerger_8h.html" target="_top" xlink:title="Definition of O2 IntegratingMerger, v0.1. ">
<polygon fill="none" stroke="#000000" points="217,-89.5 217,-141.5 374,-141.5 374,-89.5 217,-89.5"/>
<text text-anchor="start" x="225" y="-129.5" font-family="Helvetica,sans-Serif" font-size="10.00" fill="#000000">/home/travis/build</text>
<text text-anchor="start" x="225" y="-118.5" font-family="Helvetica,sans-Serif" font-size="10.00" fill="#000000">/AliceO2Group/AliceO2</text>
<text text-anchor="start" x="225" y="-107.5" font-family="Helvetica,sans-Serif" font-size="10.00" fill="#000000">/Utilities/Mergers/include</text>
<text text-anchor="middle" x="295.5" y="-96.5" font-family="Helvetica,sans-Serif" font-size="10.00" fill="#000000">/Mergers/IntegratingMerger.h</text>
</a>
</g>
</g>
<!-- Node4&#45;&gt;Node8 -->
<g id="edge4" class="edge">
<title>Node4&#45;&gt;Node8</title>
<path fill="none" stroke="#191970" d="M295.5,-168.1155C295.5,-159.2061 295.5,-149.8475 295.5,-141.5341"/>
<polygon fill="#191970" stroke="#191970" points="292.0001,-168.2784 295.5,-178.2784 299.0001,-168.2785 292.0001,-168.2784"/>
</g>
<!-- Node10 -->
<g id="node7" class="node">
<title>Node10</title>
<g id="a_node7"><a xlink:href="../../db/d8c/ObjectStore_8cxx.html" target="_top" xlink:title="Implementation of ObjectStore for Mergers, v0.1. ">
<polygon fill="none" stroke="#000000" points="392,-89.5 392,-141.5 519,-141.5 519,-89.5 392,-89.5"/>
<text text-anchor="start" x="400" y="-129.5" font-family="Helvetica,sans-Serif" font-size="10.00" fill="#000000">/home/travis/build</text>
<text text-anchor="start" x="400" y="-118.5" font-family="Helvetica,sans-Serif" font-size="10.00" fill="#000000">/AliceO2Group/AliceO2</text>
<text text-anchor="start" x="400" y="-107.5" font-family="Helvetica,sans-Serif" font-size="10.00" fill="#000000">/Utilities/Mergers/src</text>
<text text-anchor="middle" x="455.5" y="-96.5" font-family="Helvetica,sans-Serif" font-size="10.00" fill="#000000">/ObjectStore.cxx</text>
</a>
</g>
</g>
<!-- Node4&#45;&gt;Node10 -->
<g id="edge7" class="edge">
<title>Node4&#45;&gt;Node10</title>
<path fill="none" stroke="#191970" d="M351.622,-173.2821C370.2718,-162.9082 390.8275,-151.4741 408.697,-141.5341"/>
<polygon fill="#191970" stroke="#191970" points="349.6775,-170.3587 342.6399,-178.2784 353.0803,-176.476 349.6775,-170.3587"/>
</g>
<!-- Node6 -->
<g id="node3" class="node">
<title>Node6</title>
<g id="a_node3"><a xlink:href="../../db/d51/FullHistoryMerger_8cxx.html" target="_top" xlink:title="Implementation of O2 Mergers, v0.1. ">
<polygon fill="none" stroke="#000000" points="0,-.5 0,-52.5 127,-52.5 127,-.5 0,-.5"/>
<text text-anchor="start" x="8" y="-40.5" font-family="Helvetica,sans-Serif" font-size="10.00" fill="#000000">/home/travis/build</text>
<text text-anchor="start" x="8" y="-29.5" font-family="Helvetica,sans-Serif" font-size="10.00" fill="#000000">/AliceO2Group/AliceO2</text>
<text text-anchor="start" x="8" y="-18.5" font-family="Helvetica,sans-Serif" font-size="10.00" fill="#000000">/Utilities/Mergers/src</text>
<text text-anchor="middle" x="63.5" y="-7.5" font-family="Helvetica,sans-Serif" font-size="10.00" fill="#000000">/FullHistoryMerger.cxx</text>
</a>
</g>
</g>
<!-- Node5&#45;&gt;Node6 -->
<g id="edge2" class="edge">
<title>Node5&#45;&gt;Node6</title>
<path fill="none" stroke="#191970" d="M98.9207,-80.8525C92.781,-71.4313 86.2371,-61.3897 80.4661,-52.5341"/>
<polygon fill="#191970" stroke="#191970" points="96.0196,-82.8114 104.4118,-89.2784 101.8842,-78.9895 96.0196,-82.8114"/>
</g>
<!-- Node7 -->
<g id="node4" class="node">
<title>Node7</title>
<g id="a_node4"><a xlink:href="../../d8/d56/MergerBuilder_8cxx.html" target="_top" xlink:title="Definition of MergerBuilder for O2 Mergers. ">
<polygon fill="none" stroke="#000000" points="145,-.5 145,-52.5 272,-52.5 272,-.5 145,-.5"/>
<text text-anchor="start" x="153" y="-40.5" font-family="Helvetica,sans-Serif" font-size="10.00" fill="#000000">/home/travis/build</text>
<text text-anchor="start" x="153" y="-29.5" font-family="Helvetica,sans-Serif" font-size="10.00" fill="#000000">/AliceO2Group/AliceO2</text>
<text text-anchor="start" x="153" y="-18.5" font-family="Helvetica,sans-Serif" font-size="10.00" fill="#000000">/Utilities/Mergers/src</text>
<text text-anchor="middle" x="208.5" y="-7.5" font-family="Helvetica,sans-Serif" font-size="10.00" fill="#000000">/MergerBuilder.cxx</text>
</a>
</g>
</g>
<!-- Node5&#45;&gt;Node7 -->
<g id="edge3" class="edge">
<title>Node5&#45;&gt;Node7</title>
<path fill="none" stroke="#191970" d="M154.2444,-82.0029C163.7752,-72.2529 174.041,-61.7511 183.0509,-52.5341"/>
<polygon fill="#191970" stroke="#191970" points="151.6198,-79.6808 147.1323,-89.2784 156.6255,-84.5741 151.6198,-79.6808"/>
</g>
<!-- Node8&#45;&gt;Node7 -->
<g id="edge6" class="edge">
<title>Node8&#45;&gt;Node7</title>
<path fill="none" stroke="#191970" d="M262.7556,-82.0029C253.2248,-72.2529 242.959,-61.7511 233.9491,-52.5341"/>
<polygon fill="#191970" stroke="#191970" points="260.3745,-84.5741 269.8677,-89.2784 265.3802,-79.6808 260.3745,-84.5741"/>
</g>
<!-- Node9 -->
<g id="node6" class="node">
<title>Node9</title>
<g id="a_node6"><a xlink:href="../../d0/d24/IntegratingMerger_8cxx.html" target="_top" xlink:title="Implementation of O2 Mergers, v0.1. ">
<polygon fill="none" stroke="#000000" points="290,-.5 290,-52.5 417,-52.5 417,-.5 290,-.5"/>
<text text-anchor="start" x="298" y="-40.5" font-family="Helvetica,sans-Serif" font-size="10.00" fill="#000000">/home/travis/build</text>
<text text-anchor="start" x="298" y="-29.5" font-family="Helvetica,sans-Serif" font-size="10.00" fill="#000000">/AliceO2Group/AliceO2</text>
<text text-anchor="start" x="298" y="-18.5" font-family="Helvetica,sans-Serif" font-size="10.00" fill="#000000">/Utilities/Mergers/src</text>
<text text-anchor="middle" x="353.5" y="-7.5" font-family="Helvetica,sans-Serif" font-size="10.00" fill="#000000">/IntegratingMerger.cxx</text>
</a>
</g>
</g>
<!-- Node8&#45;&gt;Node9 -->
<g id="edge5" class="edge">
<title>Node8&#45;&gt;Node9</title>
<path fill="none" stroke="#191970" d="M318.0793,-80.8525C324.219,-71.4313 330.7629,-61.3897 336.5339,-52.5341"/>
<polygon fill="#191970" stroke="#191970" points="315.1158,-78.9895 312.5882,-89.2784 320.9804,-82.8114 315.1158,-78.9895"/>
</g>
</g>
</svg>
