<?xml version="1.0" encoding="UTF-8" standalone="no"?>
<!DOCTYPE svg PUBLIC "-//W3C//DTD SVG 1.1//EN"
 "http://www.w3.org/Graphics/SVG/1.1/DTD/svg11.dtd">
<!-- Generated by graphviz version 2.40.1 (20161225.0304)
 -->
<!-- Title: /home/travis/build/AliceO2Group/AliceO2/Framework/Core/include/Framework/ASoAHelpers.h Pages: 1 -->
<svg width="1162pt" height="150pt"
 viewBox="0.00 0.00 1161.50 150.00" xmlns="http://www.w3.org/2000/svg" xmlns:xlink="http://www.w3.org/1999/xlink">
<g id="graph0" class="graph" transform="scale(1 1) rotate(0) translate(4 146)">
<title>/home/travis/build/AliceO2Group/AliceO2/Framework/Core/include/Framework/ASoAHelpers.h</title>
<!-- Node45 -->
<g id="node1" class="node">
<title>Node45</title>
<polygon fill="#bfbfbf" stroke="#000000" points="491.5,-89.5 491.5,-141.5 640.5,-141.5 640.5,-89.5 491.5,-89.5"/>
<text text-anchor="start" x="499.5" y="-129.5" font-family="Helvetica,sans-Serif" font-size="10.00" fill="#000000">/home/travis/build</text>
<text text-anchor="start" x="499.5" y="-118.5" font-family="Helvetica,sans-Serif" font-size="10.00" fill="#000000">/AliceO2Group/AliceO2</text>
<text text-anchor="start" x="499.5" y="-107.5" font-family="Helvetica,sans-Serif" font-size="10.00" fill="#000000">/Framework/Core/include</text>
<text text-anchor="middle" x="566" y="-96.5" font-family="Helvetica,sans-Serif" font-size="10.00" fill="#000000">/Framework/ASoAHelpers.h</text>
</g>
<!-- Node46 -->
<g id="node2" class="node">
<title>Node46</title>
<g id="a_node2"><a xlink:href="../../df/d59/correlationsCollection_8cxx.html" target="_top" xlink:title="/home/travis/build\l/AliceO2Group/AliceO2\l/Analysis/Tasks/correlations\lCollection.cxx">
<polygon fill="none" stroke="#000000" points="0,-.5 0,-52.5 152,-52.5 152,-.5 0,-.5"/>
<text text-anchor="start" x="8" y="-40.5" font-family="Helvetica,sans-Serif" font-size="10.00" fill="#000000">/home/travis/build</text>
<text text-anchor="start" x="8" y="-29.5" font-family="Helvetica,sans-Serif" font-size="10.00" fill="#000000">/AliceO2Group/AliceO2</text>
<text text-anchor="start" x="8" y="-18.5" font-family="Helvetica,sans-Serif" font-size="10.00" fill="#000000">/Analysis/Tasks/correlations</text>
<text text-anchor="middle" x="76" y="-7.5" font-family="Helvetica,sans-Serif" font-size="10.00" fill="#000000">Collection.cxx</text>
</a>
</g>
</g>
<!-- Node45&#45;&gt;Node46 -->
<g id="edge1" class="edge">
<title>Node45&#45;&gt;Node46</title>
<path fill="none" stroke="#191970" d="M481.3964,-106.1728C398.9743,-96.2126 270.4483,-78.3571 161,-53 158.1389,-52.3371 155.2342,-51.6267 152.3083,-50.8794"/>
<polygon fill="#191970" stroke="#191970" points="481.1191,-109.6645 491.4643,-107.3779 481.9511,-102.7141 481.1191,-109.6645"/>
</g>
<!-- Node47 -->
<g id="node3" class="node">
<title>Node47</title>
<g id="a_node3"><a xlink:href="../../de/d5e/vertexerhf_8cxx.html" target="_top" xlink:title="/home/travis/build\l/AliceO2Group/AliceO2\l/Analysis/Tasks/vertexerhf.cxx">
<polygon fill="none" stroke="#000000" points="170,-6 170,-47 334,-47 334,-6 170,-6"/>
<text text-anchor="start" x="178" y="-35" font-family="Helvetica,sans-Serif" font-size="10.00" fill="#000000">/home/travis/build</text>
<text text-anchor="start" x="178" y="-24" font-family="Helvetica,sans-Serif" font-size="10.00" fill="#000000">/AliceO2Group/AliceO2</text>
<text text-anchor="middle" x="252" y="-13" font-family="Helvetica,sans-Serif" font-size="10.00" fill="#000000">/Analysis/Tasks/vertexerhf.cxx</text>
</a>
</g>
</g>
<!-- Node45&#45;&gt;Node47 -->
<g id="edge2" class="edge">
<title>Node45&#45;&gt;Node47</title>
<path fill="none" stroke="#191970" d="M481.5133,-92.0379C439.7939,-80.3971 388.7225,-66.0643 343,-53 336.3549,-51.1013 329.4408,-49.1123 322.5249,-47.1138"/>
<polygon fill="#191970" stroke="#191970" points="480.7865,-95.4687 491.3592,-94.7836 482.6669,-88.7259 480.7865,-95.4687"/>
</g>
<!-- Node48 -->
<g id="node4" class="node">
<title>Node48</title>
<g id="a_node4"><a xlink:href="../../d6/ddb/eventMixing_8cxx.html" target="_top" xlink:title="/home/travis/build\l/AliceO2Group/AliceO2\l/Analysis/Tutorials/src\l/eventMixing.cxx">
<polygon fill="none" stroke="#000000" points="352.5,-.5 352.5,-52.5 479.5,-52.5 479.5,-.5 352.5,-.5"/>
<text text-anchor="start" x="360.5" y="-40.5" font-family="Helvetica,sans-Serif" font-size="10.00" fill="#000000">/home/travis/build</text>
<text text-anchor="start" x="360.5" y="-29.5" font-family="Helvetica,sans-Serif" font-size="10.00" fill="#000000">/AliceO2Group/AliceO2</text>
<text text-anchor="start" x="360.5" y="-18.5" font-family="Helvetica,sans-Serif" font-size="10.00" fill="#000000">/Analysis/Tutorials/src</text>
<text text-anchor="middle" x="416" y="-7.5" font-family="Helvetica,sans-Serif" font-size="10.00" fill="#000000">/eventMixing.cxx</text>
</a>
</g>
</g>
<!-- Node45&#45;&gt;Node48 -->
<g id="edge3" class="edge">
<title>Node45&#45;&gt;Node48</title>
<path fill="none" stroke="#191970" d="M512.9083,-83.9989C495.5513,-73.7004 476.4781,-62.3837 459.8778,-52.5341"/>
<polygon fill="#191970" stroke="#191970" points="511.4202,-87.1857 521.8064,-89.2784 514.9922,-81.1656 511.4202,-87.1857"/>
</g>
<!-- Node49 -->
<g id="node5" class="node">
<title>Node49</title>
<g id="a_node5"><a xlink:href="../../d0/da7/tracksCombinations_8cxx.html" target="_top" xlink:title="/home/travis/build\l/AliceO2Group/AliceO2\l/Analysis/Tutorials/src\l/tracksCombinations.cxx">
<polygon fill="none" stroke="#000000" points="497.5,-.5 497.5,-52.5 634.5,-52.5 634.5,-.5 497.5,-.5"/>
<text text-anchor="start" x="505.5" y="-40.5" font-family="Helvetica,sans-Serif" font-size="10.00" fill="#000000">/home/travis/build</text>
<text text-anchor="start" x="505.5" y="-29.5" font-family="Helvetica,sans-Serif" font-size="10.00" fill="#000000">/AliceO2Group/AliceO2</text>
<text text-anchor="start" x="505.5" y="-18.5" font-family="Helvetica,sans-Serif" font-size="10.00" fill="#000000">/Analysis/Tutorials/src</text>
<text text-anchor="middle" x="566" y="-7.5" font-family="Helvetica,sans-Serif" font-size="10.00" fill="#000000">/tracksCombinations.cxx</text>
</a>
</g>
</g>
<!-- Node45&#45;&gt;Node49 -->
<g id="edge4" class="edge">
<title>Node45&#45;&gt;Node49</title>
<path fill="none" stroke="#191970" d="M566,-79.1155C566,-70.2061 566,-60.8475 566,-52.5341"/>
<polygon fill="#191970" stroke="#191970" points="562.5001,-79.2784 566,-89.2784 569.5001,-79.2785 562.5001,-79.2784"/>
</g>
<!-- Node50 -->
<g id="node6" class="node">
<title>Node50</title>
<g id="a_node6"><a xlink:href="../../d2/d08/benchmark__ASoAHelpers_8cxx.html" target="_top" xlink:title="/home/travis/build\l/AliceO2Group/AliceO2\l/Framework/Core/test/benchmark\l_ASoAHelpers.cxx">
<polygon fill="none" stroke="#000000" points="652.5,-.5 652.5,-52.5 831.5,-52.5 831.5,-.5 652.5,-.5"/>
<text text-anchor="start" x="660.5" y="-40.5" font-family="Helvetica,sans-Serif" font-size="10.00" fill="#000000">/home/travis/build</text>
<text text-anchor="start" x="660.5" y="-29.5" font-family="Helvetica,sans-Serif" font-size="10.00" fill="#000000">/AliceO2Group/AliceO2</text>
<text text-anchor="start" x="660.5" y="-18.5" font-family="Helvetica,sans-Serif" font-size="10.00" fill="#000000">/Framework/Core/test/benchmark</text>
<text text-anchor="middle" x="742" y="-7.5" font-family="Helvetica,sans-Serif" font-size="10.00" fill="#000000">_ASoAHelpers.cxx</text>
</a>
</g>
</g>
<!-- Node45&#45;&gt;Node50 -->
<g id="edge5" class="edge">
<title>Node45&#45;&gt;Node50</title>
<path fill="none" stroke="#191970" d="M626.8962,-84.7059C647.6317,-74.2203 670.5923,-62.6096 690.5167,-52.5341"/>
<polygon fill="#191970" stroke="#191970" points="625.1983,-81.6424 617.8539,-89.2784 628.3572,-87.8891 625.1983,-81.6424"/>
</g>
<!-- Node51 -->
<g id="node7" class="node">
<title>Node51</title>
<g id="a_node7"><a xlink:href="../../db/dc9/test__ASoA_8cxx.html" target="_top" xlink:title="/home/travis/build\l/AliceO2Group/AliceO2\l/Framework/Core/test/test\l_ASoA.cxx">
<polygon fill="none" stroke="#000000" points="849.5,-.5 849.5,-52.5 992.5,-52.5 992.5,-.5 849.5,-.5"/>
<text text-anchor="start" x="857.5" y="-40.5" font-family="Helvetica,sans-Serif" font-size="10.00" fill="#000000">/home/travis/build</text>
<text text-anchor="start" x="857.5" y="-29.5" font-family="Helvetica,sans-Serif" font-size="10.00" fill="#000000">/AliceO2Group/AliceO2</text>
<text text-anchor="start" x="857.5" y="-18.5" font-family="Helvetica,sans-Serif" font-size="10.00" fill="#000000">/Framework/Core/test/test</text>
<text text-anchor="middle" x="921" y="-7.5" font-family="Helvetica,sans-Serif" font-size="10.00" fill="#000000">_ASoA.cxx</text>
</a>
</g>
</g>
<!-- Node45&#45;&gt;Node51 -->
<g id="edge6" class="edge">
<title>Node45&#45;&gt;Node51</title>
<path fill="none" stroke="#191970" d="M650.5942,-98.4797C705.2528,-86.9409 777.7282,-70.6252 841,-53 843.6779,-52.254 846.399,-51.4728 849.1422,-50.6657"/>
<polygon fill="#191970" stroke="#191970" points="649.6692,-95.0975 640.6018,-100.5779 651.1077,-101.9481 649.6692,-95.0975"/>
</g>
<!-- Node52 -->
<g id="node8" class="node">
<title>Node52</title>
<g id="a_node8"><a xlink:href="../../da/d00/test__ASoAHelpers_8cxx.html" target="_top" xlink:title="/home/travis/build\l/AliceO2Group/AliceO2\l/Framework/Core/test/test\l_ASoAHelpers.cxx">
<polygon fill="none" stroke="#000000" points="1010.5,-.5 1010.5,-52.5 1153.5,-52.5 1153.5,-.5 1010.5,-.5"/>
<text text-anchor="start" x="1018.5" y="-40.5" font-family="Helvetica,sans-Serif" font-size="10.00" fill="#000000">/home/travis/build</text>
<text text-anchor="start" x="1018.5" y="-29.5" font-family="Helvetica,sans-Serif" font-size="10.00" fill="#000000">/AliceO2Group/AliceO2</text>
<text text-anchor="start" x="1018.5" y="-18.5" font-family="Helvetica,sans-Serif" font-size="10.00" fill="#000000">/Framework/Core/test/test</text>
<text text-anchor="middle" x="1082" y="-7.5" font-family="Helvetica,sans-Serif" font-size="10.00" fill="#000000">_ASoAHelpers.cxx</text>
</a>
</g>
</g>
<!-- Node45&#45;&gt;Node52 -->
<g id="edge7" class="edge">
<title>Node45&#45;&gt;Node52</title>
<path fill="none" stroke="#191970" d="M650.7937,-107.8472C739.2614,-98.8172 881.59,-81.3363 1002,-53 1004.706,-52.3632 1007.451,-51.6749 1010.2143,-50.9464"/>
<polygon fill="#191970" stroke="#191970" points="650.408,-104.3683 640.8095,-108.8537 651.1101,-111.333 650.408,-104.3683"/>
</g>
</g>
</svg>
