<?xml version="1.0" encoding="UTF-8" standalone="no"?>
<!DOCTYPE svg PUBLIC "-//W3C//DTD SVG 1.1//EN"
 "http://www.w3.org/Graphics/SVG/1.1/DTD/svg11.dtd">
<!-- Generated by graphviz version 2.40.1 (20161225.0304)
 -->
<!-- Title: /home/travis/build/AliceO2Group/AliceO2/Detectors/MUON/MID/Raw/exe/mid&#45;raw&#45;checker.cxx Pages: 1 -->
<svg width="1964pt" height="352pt"
 viewBox="0.00 0.00 1963.50 352.00" xmlns="http://www.w3.org/2000/svg" xmlns:xlink="http://www.w3.org/1999/xlink">
<g id="graph0" class="graph" transform="scale(1 1) rotate(0) translate(4 348)">
<title>/home/travis/build/AliceO2Group/AliceO2/Detectors/MUON/MID/Raw/exe/mid&#45;raw&#45;checker.cxx</title>
<!-- Node0 -->
<g id="node1" class="node">
<title>Node0</title>
<polygon fill="#bfbfbf" stroke="#000000" points="1305,-291.5 1305,-343.5 1451,-343.5 1451,-291.5 1305,-291.5"/>
<text text-anchor="start" x="1313" y="-331.5" font-family="Helvetica,sans-Serif" font-size="10.00" fill="#000000">/home/travis/build</text>
<text text-anchor="start" x="1313" y="-320.5" font-family="Helvetica,sans-Serif" font-size="10.00" fill="#000000">/AliceO2Group/AliceO2</text>
<text text-anchor="start" x="1313" y="-309.5" font-family="Helvetica,sans-Serif" font-size="10.00" fill="#000000">/Detectors/MUON/MID/Raw</text>
<text text-anchor="middle" x="1378" y="-298.5" font-family="Helvetica,sans-Serif" font-size="10.00" fill="#000000">/exe/mid&#45;raw&#45;checker.cxx</text>
</g>
<!-- Node1 -->
<g id="node2" class="node">
<title>Node1</title>
<polygon fill="none" stroke="#bfbfbf" points="762,-235.5 762,-254.5 822,-254.5 822,-235.5 762,-235.5"/>
<text text-anchor="middle" x="792" y="-242.5" font-family="Helvetica,sans-Serif" font-size="10.00" fill="#000000">iostream</text>
</g>
<!-- Node0&#45;&gt;Node1 -->
<g id="edge1" class="edge">
<title>Node0&#45;&gt;Node1</title>
<path fill="none" stroke="#191970" d="M1304.9752,-312.3608C1201.6029,-304.3754 1006.6598,-286.7038 832.025,-254.979"/>
<polygon fill="#191970" stroke="#191970" points="832.6105,-251.5281 822.1429,-253.1646 831.3464,-258.413 832.6105,-251.5281"/>
</g>
<!-- Node2 -->
<g id="node3" class="node">
<title>Node2</title>
<polygon fill="none" stroke="#bfbfbf" points="1900.5,-179.5 1900.5,-198.5 1955.5,-198.5 1955.5,-179.5 1900.5,-179.5"/>
<text text-anchor="middle" x="1928" y="-186.5" font-family="Helvetica,sans-Serif" font-size="10.00" fill="#000000">fstream</text>
</g>
<!-- Node0&#45;&gt;Node2 -->
<g id="edge2" class="edge">
<title>Node0&#45;&gt;Node2</title>
<path fill="none" stroke="#191970" d="M1451.2331,-302.2688C1497.8121,-291.5096 1558.9385,-275.3891 1611,-255 1628.771,-248.0402 1630.8602,-240.9325 1649,-235 1749.3245,-202.1897 1782.608,-220.096 1890.25,-198.9119"/>
<polygon fill="#191970" stroke="#191970" points="1891.1031,-202.3101 1900.2033,-196.8846 1889.7059,-195.451 1891.1031,-202.3101"/>
</g>
<!-- Node3 -->
<g id="node4" class="node">
<title>Node3</title>
<polygon fill="none" stroke="#bfbfbf" points="1658,-235.5 1658,-254.5 1808,-254.5 1808,-235.5 1658,-235.5"/>
<text text-anchor="middle" x="1733" y="-242.5" font-family="Helvetica,sans-Serif" font-size="10.00" fill="#000000">boost/program_options.hpp</text>
</g>
<!-- Node0&#45;&gt;Node3 -->
<g id="edge3" class="edge">
<title>Node0&#45;&gt;Node3</title>
<path fill="none" stroke="#191970" d="M1451.1258,-302.5659C1517.939,-288.9209 1615.3526,-269.0266 1676.4025,-256.5586"/>
<polygon fill="#191970" stroke="#191970" points="1677.1514,-259.978 1686.2488,-254.5478 1675.7507,-253.1196 1677.1514,-259.978"/>
</g>
<!-- Node4 -->
<g id="node5" class="node">
<title>Node4</title>
<g id="a_node5"><a xlink:href="../../df/dcf/CRUBareDecoder_8h.html" target="_top" xlink:title="MID CRU core decoder. ">
<polygon fill="none" stroke="#000000" points="1145,-235.5 1145,-254.5 1297,-254.5 1297,-235.5 1145,-235.5"/>
<text text-anchor="middle" x="1221" y="-242.5" font-family="Helvetica,sans-Serif" font-size="10.00" fill="#000000">MIDRaw/CRUBareDecoder.h</text>
</a>
</g>
</g>
<!-- Node0&#45;&gt;Node4 -->
<g id="edge4" class="edge">
<title>Node0&#45;&gt;Node4</title>
<path fill="none" stroke="#191970" d="M1321.3194,-291.3258C1297.4671,-280.3112 1270.6953,-267.9485 1250.8111,-258.7663"/>
<polygon fill="#191970" stroke="#191970" points="1252.1922,-255.5489 1241.646,-254.534 1249.2574,-261.904 1252.1922,-255.5489"/>
</g>
<!-- Node23 -->
<g id="node24" class="node">
<title>Node23</title>
<g id="a_node24"><a xlink:href="../../de/d75/MUON_2MID_2Raw_2include_2MIDRaw_2RawFileReader_8h.html" target="_top" xlink:title="MID raw file reader. ">
<polygon fill="none" stroke="#000000" points="1462.5,-235.5 1462.5,-254.5 1601.5,-254.5 1601.5,-235.5 1462.5,-235.5"/>
<text text-anchor="middle" x="1532" y="-242.5" font-family="Helvetica,sans-Serif" font-size="10.00" fill="#000000">MIDRaw/RawFileReader.h</text>
</a>
</g>
</g>
<!-- Node0&#45;&gt;Node23 -->
<g id="edge34" class="edge">
<title>Node0&#45;&gt;Node23</title>
<path fill="none" stroke="#191970" d="M1433.5975,-291.3258C1456.8877,-280.3613 1483.0156,-268.0608 1502.4921,-258.8917"/>
<polygon fill="#191970" stroke="#191970" points="1504.1917,-261.9601 1511.7485,-254.534 1501.2101,-255.6268 1504.1917,-261.9601"/>
</g>
<!-- Node26 -->
<g id="node27" class="node">
<title>Node26</title>
<g id="a_node27"><a xlink:href="../../dc/d62/CRUBareDataChecker_8h.html" target="_top" xlink:title="Class to check the bare data from the CRU. ">
<polygon fill="none" stroke="#000000" points="840.5,-235.5 840.5,-254.5 971.5,-254.5 971.5,-235.5 840.5,-235.5"/>
<text text-anchor="middle" x="906" y="-242.5" font-family="Helvetica,sans-Serif" font-size="10.00" fill="#000000">CRUBareDataChecker.h</text>
</a>
</g>
</g>
<!-- Node0&#45;&gt;Node26 -->
<g id="edge44" class="edge">
<title>Node0&#45;&gt;Node26</title>
<path fill="none" stroke="#191970" d="M1304.7679,-306.2514C1215.7576,-292.5793 1066.5179,-269.6558 978.0465,-256.0665"/>
<polygon fill="#191970" stroke="#191970" points="978.5107,-252.5968 968.0953,-254.5379 977.4479,-259.5157 978.5107,-252.5968"/>
</g>
<!-- Node5 -->
<g id="node6" class="node">
<title>Node5</title>
<polygon fill="none" stroke="#bfbfbf" points="1183,-56.5 1183,-75.5 1233,-75.5 1233,-56.5 1183,-56.5"/>
<text text-anchor="middle" x="1208" y="-63.5" font-family="Helvetica,sans-Serif" font-size="10.00" fill="#000000">cstdint</text>
</g>
<!-- Node4&#45;&gt;Node5 -->
<g id="edge5" class="edge">
<title>Node4&#45;&gt;Node5</title>
<path fill="none" stroke="#191970" d="M1212.7911,-235.1677C1205.9886,-226.3343 1196.8369,-212.6831 1193,-199 1181.9657,-159.6503 1193.1726,-111.594 1201.2687,-85.3666"/>
<polygon fill="#191970" stroke="#191970" points="1204.6966,-86.1443 1204.4742,-75.5518 1198.0425,-83.9711 1204.6966,-86.1443"/>
</g>
<!-- Node6 -->
<g id="node7" class="node">
<title>Node6</title>
<polygon fill="none" stroke="#bfbfbf" points="1340.5,-118 1340.5,-137 1387.5,-137 1387.5,-118 1340.5,-118"/>
<text text-anchor="middle" x="1364" y="-125" font-family="Helvetica,sans-Serif" font-size="10.00" fill="#000000">vector</text>
</g>
<!-- Node4&#45;&gt;Node6 -->
<g id="edge6" class="edge">
<title>Node4&#45;&gt;Node6</title>
<path fill="none" stroke="#191970" d="M1279.4166,-235.4193C1302.73,-228.8134 1328.0131,-217.6918 1345,-199 1357.79,-184.9263 1362.141,-163.2147 1363.5363,-147.408"/>
<polygon fill="#191970" stroke="#191970" points="1367.0469,-147.3147 1364.1084,-137.1356 1360.0577,-146.9254 1367.0469,-147.3147"/>
</g>
<!-- Node7 -->
<g id="node8" class="node">
<title>Node7</title>
<polygon fill="none" stroke="#bfbfbf" points="920,-118 920,-137 968,-137 968,-118 920,-118"/>
<text text-anchor="middle" x="944" y="-125" font-family="Helvetica,sans-Serif" font-size="10.00" fill="#000000">gsl/gsl</text>
</g>
<!-- Node4&#45;&gt;Node7 -->
<g id="edge7" class="edge">
<title>Node4&#45;&gt;Node7</title>
<path fill="none" stroke="#191970" d="M1149.9752,-235.4727C1095.5114,-227.1932 1025.6289,-214.166 1001,-199 979.9821,-186.0576 963.4686,-162.4612 953.741,-145.9267"/>
<polygon fill="#191970" stroke="#191970" points="956.7587,-144.1521 948.815,-137.1414 950.653,-147.5756 956.7587,-144.1521"/>
</g>
<!-- Node8 -->
<g id="node9" class="node">
<title>Node8</title>
<g id="a_node9"><a xlink:href="../../d2/df9/MUON_2MID_2include_2DataFormatsMID_2ROFRecord_8h.html" target="_top" xlink:title="Definition of the MID event record. ">
<polygon fill="none" stroke="#000000" points="528.5,-179.5 528.5,-198.5 691.5,-198.5 691.5,-179.5 528.5,-179.5"/>
<text text-anchor="middle" x="610" y="-186.5" font-family="Helvetica,sans-Serif" font-size="10.00" fill="#000000">DataFormatsMID/ROFRecord.h</text>
</a>
</g>
</g>
<!-- Node4&#45;&gt;Node8 -->
<g id="edge8" class="edge">
<title>Node4&#45;&gt;Node8</title>
<path fill="none" stroke="#191970" d="M1144.8518,-238.0208C1032.5253,-227.7257 822.7142,-208.4959 701.9574,-197.4282"/>
<polygon fill="#191970" stroke="#191970" points="702.2661,-193.9419 691.9884,-196.5145 701.6272,-200.9127 702.2661,-193.9419"/>
</g>
<!-- Node15 -->
<g id="node16" class="node">
<title>Node15</title>
<g id="a_node16"><a xlink:href="../../db/d83/CrateMapper_8h.html" target="_top" xlink:title="Mapper to convert the RO Ids to a format suitable for O2. ">
<polygon fill="none" stroke="#000000" points="748,-179.5 748,-198.5 878,-198.5 878,-179.5 748,-179.5"/>
<text text-anchor="middle" x="813" y="-186.5" font-family="Helvetica,sans-Serif" font-size="10.00" fill="#000000">MIDRaw/CrateMapper.h</text>
</a>
</g>
</g>
<!-- Node4&#45;&gt;Node15 -->
<g id="edge16" class="edge">
<title>Node4&#45;&gt;Node15</title>
<path fill="none" stroke="#191970" d="M1151.3259,-235.4369C1078.1799,-225.3972 963.5578,-209.6648 888.3492,-199.342"/>
<polygon fill="#191970" stroke="#191970" points="888.39,-195.8149 878.0069,-197.9225 887.4381,-202.7499 888.39,-195.8149"/>
</g>
<!-- Node17 -->
<g id="node18" class="node">
<title>Node17</title>
<g id="a_node18"><a xlink:href="../../d2/da5/CrateParameters_8h.html" target="_top" xlink:title="MID RO crate parameters. ">
<polygon fill="none" stroke="#000000" points="1604,-179.5 1604,-198.5 1754,-198.5 1754,-179.5 1604,-179.5"/>
<text text-anchor="middle" x="1679" y="-186.5" font-family="Helvetica,sans-Serif" font-size="10.00" fill="#000000">MIDRaw/CrateParameters.h</text>
</a>
</g>
</g>
<!-- Node4&#45;&gt;Node17 -->
<g id="edge19" class="edge">
<title>Node4&#45;&gt;Node17</title>
<path fill="none" stroke="#191970" d="M1297.1435,-235.6899C1378.9045,-225.6929 1508.5086,-209.8461 1593.6593,-199.4347"/>
<polygon fill="#191970" stroke="#191970" points="1594.3157,-202.8806 1603.8169,-198.1927 1593.466,-195.9323 1594.3157,-202.8806"/>
</g>
<!-- Node19 -->
<g id="node20" class="node">
<title>Node19</title>
<g id="a_node20"><a xlink:href="../../de/d54/ELinkDecoder_8h.html" target="_top" xlink:title="MID e&#45;link decoder. ">
<polygon fill="none" stroke="#000000" points="1202,-179.5 1202,-198.5 1336,-198.5 1336,-179.5 1202,-179.5"/>
<text text-anchor="middle" x="1269" y="-186.5" font-family="Helvetica,sans-Serif" font-size="10.00" fill="#000000">MIDRaw/ELinkDecoder.h</text>
</a>
</g>
</g>
<!-- Node4&#45;&gt;Node19 -->
<g id="edge22" class="edge">
<title>Node4&#45;&gt;Node19</title>
<path fill="none" stroke="#191970" d="M1229.361,-235.2455C1236.175,-227.2958 1245.9681,-215.8706 1254.1152,-206.3656"/>
<polygon fill="#191970" stroke="#191970" points="1256.8843,-208.513 1260.7349,-198.6427 1251.5695,-203.9575 1256.8843,-208.513"/>
</g>
<!-- Node20 -->
<g id="node21" class="node">
<title>Node20</title>
<g id="a_node21"><a xlink:href="../../d3/d4a/LocalBoardRO_8h.html" target="_top" xlink:title="Structure to store the FEE local board information. ">
<polygon fill="none" stroke="#000000" points="1010,-179.5 1010,-198.5 1146,-198.5 1146,-179.5 1010,-179.5"/>
<text text-anchor="middle" x="1078" y="-186.5" font-family="Helvetica,sans-Serif" font-size="10.00" fill="#000000">MIDRaw/LocalBoardRO.h</text>
</a>
</g>
</g>
<!-- Node4&#45;&gt;Node20 -->
<g id="edge25" class="edge">
<title>Node4&#45;&gt;Node20</title>
<path fill="none" stroke="#191970" d="M1196.4174,-235.3733C1173.0504,-226.2226 1137.7138,-212.3844 1111.7216,-202.2057"/>
<polygon fill="#191970" stroke="#191970" points="1112.8495,-198.8886 1102.2618,-198.5011 1110.297,-205.4066 1112.8495,-198.8886"/>
</g>
<!-- Node21 -->
<g id="node22" class="node">
<title>Node21</title>
<g id="a_node22"><a xlink:href="../../db/d21/MUON_2MID_2Raw_2include_2MIDRaw_2RawBuffer_8h.html" target="_top" xlink:title="Handler of the RAW buffer. ">
<polygon fill="none" stroke="#000000" points="1430,-179.5 1430,-198.5 1548,-198.5 1548,-179.5 1430,-179.5"/>
<text text-anchor="middle" x="1489" y="-186.5" font-family="Helvetica,sans-Serif" font-size="10.00" fill="#000000">MIDRaw/RawBuffer.h</text>
</a>
</g>
</g>
<!-- Node4&#45;&gt;Node21 -->
<g id="edge28" class="edge">
<title>Node4&#45;&gt;Node21</title>
<path fill="none" stroke="#191970" d="M1266.7663,-235.4369C1312.9215,-225.7925 1384.2178,-210.8948 1433.5537,-200.5858"/>
<polygon fill="#191970" stroke="#191970" points="1434.3498,-203.9951 1443.4224,-198.5237 1432.9179,-197.1431 1434.3498,-203.9951"/>
</g>
<!-- Node9 -->
<g id="node10" class="node">
<title>Node9</title>
<g id="a_node10"><a xlink:href="../../d9/d80/InteractionRecord_8h.html" target="_top" xlink:title="CommonDataFormat/Interaction\lRecord.h">
<polygon fill="none" stroke="#000000" points="236,-112.5 236,-142.5 410,-142.5 410,-112.5 236,-112.5"/>
<text text-anchor="start" x="244" y="-130.5" font-family="Helvetica,sans-Serif" font-size="10.00" fill="#000000">CommonDataFormat/Interaction</text>
<text text-anchor="middle" x="323" y="-119.5" font-family="Helvetica,sans-Serif" font-size="10.00" fill="#000000">Record.h</text>
</a>
</g>
</g>
<!-- Node8&#45;&gt;Node9 -->
<g id="edge9" class="edge">
<title>Node8&#45;&gt;Node9</title>
<path fill="none" stroke="#191970" d="M565.4711,-179.4581C522.2062,-170.187 455.5389,-155.9012 403.0516,-144.6539"/>
<polygon fill="#191970" stroke="#191970" points="403.6015,-141.1924 393.0901,-142.5193 402.1348,-148.037 403.6015,-141.1924"/>
</g>
<!-- Node9&#45;&gt;Node5 -->
<g id="edge14" class="edge">
<title>Node9&#45;&gt;Node5</title>
<path fill="none" stroke="#191970" d="M410.2522,-113.5887C414.8969,-113.0112 419.5014,-112.4761 424,-112 712.0244,-81.5171 1061.8737,-69.9497 1172.6248,-66.895"/>
<polygon fill="#191970" stroke="#191970" points="1172.9805,-70.3867 1182.8823,-66.6178 1172.7913,-63.3893 1172.9805,-70.3867"/>
</g>
<!-- Node10 -->
<g id="node11" class="node">
<title>Node10</title>
<g id="a_node11"><a xlink:href="../../d2/d45/GPUCommonRtypes_8h.html" target="_top" xlink:title="GPUCommonRtypes.h">
<polygon fill="none" stroke="#000000" points="208.5,-56.5 208.5,-75.5 333.5,-75.5 333.5,-56.5 208.5,-56.5"/>
<text text-anchor="middle" x="271" y="-63.5" font-family="Helvetica,sans-Serif" font-size="10.00" fill="#000000">GPUCommonRtypes.h</text>
</a>
</g>
</g>
<!-- Node9&#45;&gt;Node10 -->
<g id="edge10" class="edge">
<title>Node9&#45;&gt;Node10</title>
<path fill="none" stroke="#191970" d="M310.1461,-112.2977C302.7776,-103.5831 293.4974,-92.6075 285.8223,-83.5302"/>
<polygon fill="#191970" stroke="#191970" points="288.4552,-81.2233 279.3259,-75.8469 283.1098,-85.743 288.4552,-81.2233"/>
</g>
<!-- Node12 -->
<g id="node13" class="node">
<title>Node12</title>
<polygon fill="none" stroke="#bfbfbf" points="351.5,-56.5 351.5,-75.5 400.5,-75.5 400.5,-56.5 351.5,-56.5"/>
<text text-anchor="middle" x="376" y="-63.5" font-family="Helvetica,sans-Serif" font-size="10.00" fill="#000000">iosfwd</text>
</g>
<!-- Node9&#45;&gt;Node12 -->
<g id="edge12" class="edge">
<title>Node9&#45;&gt;Node12</title>
<path fill="none" stroke="#191970" d="M336.1011,-112.2977C343.6113,-103.5831 353.07,-92.6075 360.8927,-83.5302"/>
<polygon fill="#191970" stroke="#191970" points="363.6371,-85.707 367.514,-75.8469 358.3345,-81.1372 363.6371,-85.707"/>
</g>
<!-- Node13 -->
<g id="node14" class="node">
<title>Node13</title>
<polygon fill="none" stroke="#bfbfbf" points="418.5,-56.5 418.5,-75.5 465.5,-75.5 465.5,-56.5 418.5,-56.5"/>
<text text-anchor="middle" x="442" y="-63.5" font-family="Helvetica,sans-Serif" font-size="10.00" fill="#000000">cmath</text>
</g>
<!-- Node9&#45;&gt;Node13 -->
<g id="edge13" class="edge">
<title>Node9&#45;&gt;Node13</title>
<path fill="none" stroke="#191970" d="M352.1107,-112.4554C371.1824,-102.599 395.9482,-89.7999 414.6539,-80.1327"/>
<polygon fill="#191970" stroke="#191970" points="416.2824,-83.2309 423.5592,-75.5303 413.0685,-77.0122 416.2824,-83.2309"/>
</g>
<!-- Node14 -->
<g id="node15" class="node">
<title>Node14</title>
<g id="a_node15"><a xlink:href="../../d4/dc6/LHCConstants_8h.html" target="_top" xlink:title="Header to collect LHC related constants. ">
<polygon fill="none" stroke="#000000" points="0,-56.5 0,-75.5 190,-75.5 190,-56.5 0,-56.5"/>
<text text-anchor="middle" x="95" y="-63.5" font-family="Helvetica,sans-Serif" font-size="10.00" fill="#000000">CommonConstants/LHCConstants.h</text>
</a>
</g>
</g>
<!-- Node9&#45;&gt;Node14 -->
<g id="edge15" class="edge">
<title>Node9&#45;&gt;Node14</title>
<path fill="none" stroke="#191970" d="M267.2249,-112.4554C228.1814,-101.9239 176.6825,-88.0328 140.2006,-78.1923"/>
<polygon fill="#191970" stroke="#191970" points="140.8984,-74.7555 130.3319,-75.5303 139.0753,-81.5139 140.8984,-74.7555"/>
</g>
<!-- Node11 -->
<g id="node12" class="node">
<title>Node11</title>
<polygon fill="none" stroke="#bfbfbf" points="241.5,-.5 241.5,-19.5 300.5,-19.5 300.5,-.5 241.5,-.5"/>
<text text-anchor="middle" x="271" y="-7.5" font-family="Helvetica,sans-Serif" font-size="10.00" fill="#000000">Rtypes.h</text>
</g>
<!-- Node10&#45;&gt;Node11 -->
<g id="edge11" class="edge">
<title>Node10&#45;&gt;Node11</title>
<path fill="none" stroke="#191970" d="M271,-56.2455C271,-48.9382 271,-38.6944 271,-29.7046"/>
<polygon fill="#191970" stroke="#191970" points="274.5001,-29.6426 271,-19.6427 267.5001,-29.6427 274.5001,-29.6426"/>
</g>
<!-- Node15&#45;&gt;Node5 -->
<g id="edge17" class="edge">
<title>Node15&#45;&gt;Node5</title>
<path fill="none" stroke="#191970" d="M821.9168,-179.2863C837.9509,-162.4985 873.4916,-128.2941 911,-112 957.4486,-91.8222 1104.2205,-75.7963 1172.4667,-69.2273"/>
<polygon fill="#191970" stroke="#191970" points="1173.0933,-72.6836 1182.7182,-68.255 1172.4324,-65.7149 1173.0933,-72.6836"/>
</g>
<!-- Node16 -->
<g id="node17" class="node">
<title>Node16</title>
<polygon fill="none" stroke="#bfbfbf" points="724,-118 724,-137 762,-137 762,-118 724,-118"/>
<text text-anchor="middle" x="743" y="-125" font-family="Helvetica,sans-Serif" font-size="10.00" fill="#000000">map</text>
</g>
<!-- Node15&#45;&gt;Node16 -->
<g id="edge18" class="edge">
<title>Node15&#45;&gt;Node16</title>
<path fill="none" stroke="#191970" d="M802.0625,-179.3906C791.338,-169.9683 774.7713,-155.4134 761.9099,-144.1137"/>
<polygon fill="#191970" stroke="#191970" points="763.9143,-141.2158 754.0917,-137.2449 759.2941,-146.4745 763.9143,-141.2158"/>
</g>
<!-- Node17&#45;&gt;Node5 -->
<g id="edge20" class="edge">
<title>Node17&#45;&gt;Node5</title>
<path fill="none" stroke="#191970" d="M1648.8619,-179.3493C1625.6428,-171.279 1593.1897,-158.5923 1567,-143 1548.2719,-131.85 1548.9606,-120.7543 1529,-112 1478.2618,-89.7474 1315.799,-74.5212 1243.3972,-68.6706"/>
<polygon fill="#191970" stroke="#191970" points="1243.6383,-65.1788 1233.3924,-67.8757 1243.0838,-72.1569 1243.6383,-65.1788"/>
</g>
<!-- Node18 -->
<g id="node19" class="node">
<title>Node18</title>
<polygon fill="none" stroke="#bfbfbf" points="1478,-118 1478,-137 1520,-137 1520,-118 1478,-118"/>
<text text-anchor="middle" x="1499" y="-125" font-family="Helvetica,sans-Serif" font-size="10.00" fill="#000000">array</text>
</g>
<!-- Node17&#45;&gt;Node18 -->
<g id="edge21" class="edge">
<title>Node17&#45;&gt;Node18</title>
<path fill="none" stroke="#191970" d="M1645.2388,-179.4327C1615.6201,-170.7692 1571.5409,-157.2183 1534,-143 1532.3764,-142.3851 1530.7197,-141.7342 1529.0535,-141.0612"/>
<polygon fill="#191970" stroke="#191970" points="1530.1461,-137.7235 1519.5721,-137.0596 1527.4243,-144.1726 1530.1461,-137.7235"/>
</g>
<!-- Node19&#45;&gt;Node5 -->
<g id="edge23" class="edge">
<title>Node19&#45;&gt;Node5</title>
<path fill="none" stroke="#191970" d="M1264.2134,-179.3484C1254.1021,-158.9601 1230.4179,-111.2033 1217.2472,-84.6459"/>
<polygon fill="#191970" stroke="#191970" points="1220.3429,-83.0105 1212.7643,-75.6068 1214.0718,-86.1206 1220.3429,-83.0105"/>
</g>
<!-- Node19&#45;&gt;Node6 -->
<g id="edge24" class="edge">
<title>Node19&#45;&gt;Node6</title>
<path fill="none" stroke="#191970" d="M1283.8438,-179.3906C1299.0418,-169.5519 1322.8848,-154.1167 1340.6206,-142.6351"/>
<polygon fill="#191970" stroke="#191970" points="1342.768,-145.4144 1349.2605,-137.0419 1338.9639,-139.5382 1342.768,-145.4144"/>
</g>
<!-- Node20&#45;&gt;Node5 -->
<g id="edge26" class="edge">
<title>Node20&#45;&gt;Node5</title>
<path fill="none" stroke="#191970" d="M1088.2009,-179.3484C1110.3191,-158.4212 1162.9126,-108.6596 1190.4708,-82.5854"/>
<polygon fill="#191970" stroke="#191970" points="1192.988,-85.022 1197.8465,-75.6068 1188.1771,-79.9372 1192.988,-85.022"/>
</g>
<!-- Node20&#45;&gt;Node18 -->
<g id="edge27" class="edge">
<title>Node20&#45;&gt;Node18</title>
<path fill="none" stroke="#191970" d="M1144.9255,-179.5C1209.4874,-170.2998 1309.9602,-155.8887 1397,-143 1420.8396,-139.4699 1447.7955,-135.3689 1468.0068,-132.2722"/>
<polygon fill="#191970" stroke="#191970" points="1468.5556,-135.7291 1477.909,-130.7528 1467.4939,-128.8101 1468.5556,-135.7291"/>
</g>
<!-- Node21&#45;&gt;Node5 -->
<g id="edge29" class="edge">
<title>Node21&#45;&gt;Node5</title>
<path fill="none" stroke="#191970" d="M1480.3727,-179.3251C1465.1834,-162.907 1431.95,-129.6572 1397,-112 1347.0249,-86.752 1282.5061,-74.913 1243.2444,-69.7046"/>
<polygon fill="#191970" stroke="#191970" points="1243.4707,-66.2056 1233.1129,-68.434 1242.5996,-73.1512 1243.4707,-66.2056"/>
</g>
<!-- Node21&#45;&gt;Node6 -->
<g id="edge30" class="edge">
<title>Node21&#45;&gt;Node6</title>
<path fill="none" stroke="#191970" d="M1469.4688,-179.3906C1448.8292,-169.2359 1416.0724,-153.1196 1392.5398,-141.5416"/>
<polygon fill="#191970" stroke="#191970" points="1393.912,-138.3161 1383.3941,-137.0419 1390.8218,-144.5971 1393.912,-138.3161"/>
</g>
<!-- Node21&#45;&gt;Node7 -->
<g id="edge31" class="edge">
<title>Node21&#45;&gt;Node7</title>
<path fill="none" stroke="#191970" d="M1429.898,-182.3307C1315.9183,-169.4688 1068.9839,-141.6037 978.2987,-131.3704"/>
<polygon fill="#191970" stroke="#191970" points="978.6092,-127.8833 968.2797,-130.2398 977.8242,-134.8392 978.6092,-127.8833"/>
</g>
<!-- Node22 -->
<g id="node23" class="node">
<title>Node22</title>
<g id="a_node23"><a xlink:href="../../d4/d78/DataFormats_2Headers_2include_2Headers_2RAWDataHeader_8h.html" target="_top" xlink:title="Headers/RAWDataHeader.h">
<polygon fill="none" stroke="#000000" points="1575.5,-118 1575.5,-137 1724.5,-137 1724.5,-118 1575.5,-118"/>
<text text-anchor="middle" x="1650" y="-125" font-family="Helvetica,sans-Serif" font-size="10.00" fill="#000000">Headers/RAWDataHeader.h</text>
</a>
</g>
</g>
<!-- Node21&#45;&gt;Node22 -->
<g id="edge32" class="edge">
<title>Node21&#45;&gt;Node22</title>
<path fill="none" stroke="#191970" d="M1514.1563,-179.3906C1541.449,-168.9652 1585.192,-152.2559 1615.6397,-140.6252"/>
<polygon fill="#191970" stroke="#191970" points="1616.9277,-143.8799 1625.0204,-137.0419 1614.4298,-137.3408 1616.9277,-143.8799"/>
</g>
<!-- Node22&#45;&gt;Node5 -->
<g id="edge33" class="edge">
<title>Node22&#45;&gt;Node5</title>
<path fill="none" stroke="#191970" d="M1597.9477,-117.9311C1586.1447,-115.8729 1573.6543,-113.7826 1562,-112 1445.6461,-94.2025 1307.0906,-77.4938 1243.3195,-70.0543"/>
<polygon fill="#191970" stroke="#191970" points="1243.7183,-66.5772 1233.3811,-68.8995 1242.9103,-73.5304 1243.7183,-66.5772"/>
</g>
<!-- Node23&#45;&gt;Node2 -->
<g id="edge35" class="edge">
<title>Node23&#45;&gt;Node2</title>
<path fill="none" stroke="#191970" d="M1601.6047,-236.6008C1691.0058,-225.7387 1839.7997,-207.3875 1890.2827,-198.7734"/>
<polygon fill="#191970" stroke="#191970" points="1891.0142,-202.1977 1900.2158,-196.9458 1889.7475,-195.3132 1891.0142,-202.1977"/>
</g>
<!-- Node23&#45;&gt;Node6 -->
<g id="edge36" class="edge">
<title>Node23&#45;&gt;Node6</title>
<path fill="none" stroke="#191970" d="M1496.8906,-235.4827C1473.7954,-228.0665 1443.7481,-216.1257 1421,-199 1401.6748,-184.4512 1385.1609,-161.8906 1374.9582,-146.0101"/>
<polygon fill="#191970" stroke="#191970" points="1377.6921,-143.777 1369.4524,-137.1169 1371.7404,-147.4617 1377.6921,-143.777"/>
</g>
<!-- Node23&#45;&gt;Node17 -->
<g id="edge38" class="edge">
<title>Node23&#45;&gt;Node17</title>
<path fill="none" stroke="#191970" d="M1557.2702,-235.3733C1581.3966,-226.1822 1617.9362,-212.2624 1644.6877,-202.0713"/>
<polygon fill="#191970" stroke="#191970" points="1645.9607,-205.3318 1654.0596,-198.5011 1643.4687,-198.7904 1645.9607,-205.3318"/>
</g>
<!-- Node23&#45;&gt;Node18 -->
<g id="edge37" class="edge">
<title>Node23&#45;&gt;Node18</title>
<path fill="none" stroke="#191970" d="M1540.388,-235.4551C1550.7083,-222.4891 1565.8395,-198.67 1557,-179 1550.2931,-164.0754 1536.8865,-151.7164 1524.651,-142.8497"/>
<polygon fill="#191970" stroke="#191970" points="1526.302,-139.7404 1516.0613,-137.0239 1522.3728,-145.5336 1526.302,-139.7404"/>
</g>
<!-- Node23&#45;&gt;Node21 -->
<g id="edge39" class="edge">
<title>Node23&#45;&gt;Node21</title>
<path fill="none" stroke="#191970" d="M1524.51,-235.2455C1518.4674,-227.3761 1509.8097,-216.101 1502.5559,-206.6542"/>
<polygon fill="#191970" stroke="#191970" points="1505.2705,-204.4426 1496.4042,-198.6427 1499.7185,-208.7058 1505.2705,-204.4426"/>
</g>
<!-- Node24 -->
<g id="node25" class="node">
<title>Node24</title>
<g id="a_node25"><a xlink:href="../../df/db7/RawUnit_8h.html" target="_top" xlink:title="Raw data format MID. ">
<polygon fill="none" stroke="#000000" points="1772,-179.5 1772,-198.5 1882,-198.5 1882,-179.5 1772,-179.5"/>
<text text-anchor="middle" x="1827" y="-186.5" font-family="Helvetica,sans-Serif" font-size="10.00" fill="#000000">MIDRaw/RawUnit.h</text>
</a>
</g>
</g>
<!-- Node23&#45;&gt;Node24 -->
<g id="edge40" class="edge">
<title>Node23&#45;&gt;Node24</title>
<path fill="none" stroke="#191970" d="M1582.3771,-235.4369C1633.5005,-225.7321 1712.6455,-210.708 1766.9853,-200.3926"/>
<polygon fill="#191970" stroke="#191970" points="1767.6589,-203.8273 1776.8307,-198.5237 1766.3533,-196.9502 1767.6589,-203.8273"/>
</g>
<!-- Node24&#45;&gt;Node5 -->
<g id="edge41" class="edge">
<title>Node24&#45;&gt;Node5</title>
<path fill="none" stroke="#191970" d="M1818.99,-179.2999C1804.2269,-162.2109 1770.8457,-127.1195 1734,-112 1644.7213,-75.3648 1346.4938,-67.8753 1243.4112,-66.3707"/>
<polygon fill="#191970" stroke="#191970" points="1243.2648,-62.8685 1233.2182,-66.2324 1243.1698,-69.8679 1243.2648,-62.8685"/>
</g>
<!-- Node24&#45;&gt;Node22 -->
<g id="edge43" class="edge">
<title>Node24&#45;&gt;Node22</title>
<path fill="none" stroke="#191970" d="M1799.3438,-179.3906C1769.0789,-168.8749 1720.4145,-151.966 1686.9089,-140.3243"/>
<polygon fill="#191970" stroke="#191970" points="1688.0569,-137.0179 1677.462,-137.0419 1685.7593,-143.6302 1688.0569,-137.0179"/>
</g>
<!-- Node25 -->
<g id="node26" class="node">
<title>Node25</title>
<polygon fill="none" stroke="#bfbfbf" points="1800.5,-118 1800.5,-137 1853.5,-137 1853.5,-118 1800.5,-118"/>
<text text-anchor="middle" x="1827" y="-125" font-family="Helvetica,sans-Serif" font-size="10.00" fill="#000000">cstddef</text>
</g>
<!-- Node24&#45;&gt;Node25 -->
<g id="edge42" class="edge">
<title>Node24&#45;&gt;Node25</title>
<path fill="none" stroke="#191970" d="M1827,-179.3906C1827,-170.8657 1827,-158.1392 1827,-147.4235"/>
<polygon fill="#191970" stroke="#191970" points="1830.5001,-147.2448 1827,-137.2449 1823.5001,-147.2449 1830.5001,-147.2448"/>
</g>
<!-- Node26&#45;&gt;Node5 -->
<g id="edge45" class="edge">
<title>Node26&#45;&gt;Node5</title>
<path fill="none" stroke="#191970" d="M840.1668,-236.0837C837.0692,-235.7077 834.0016,-235.3445 831,-235 747.5103,-225.4191 405.5841,-245.4735 457,-179 529.4824,-85.2905 598.3097,-132.4583 715,-112 884.9655,-82.2015 1091.5069,-70.8512 1172.7586,-67.3395"/>
<polygon fill="#191970" stroke="#191970" points="1173.0859,-70.8289 1182.9304,-66.9129 1172.7925,-63.8351 1173.0859,-70.8289"/>
</g>
<!-- Node26&#45;&gt;Node6 -->
<g id="edge46" class="edge">
<title>Node26&#45;&gt;Node6</title>
<path fill="none" stroke="#191970" d="M916.1544,-235.4787C932.5746,-220.6907 966.603,-192.5022 1001,-179 1060.7013,-155.5649 1251.3511,-137.1125 1329.7905,-130.3203"/>
<polygon fill="#191970" stroke="#191970" points="1330.4231,-133.779 1340.0886,-129.4399 1329.8268,-126.8045 1330.4231,-133.779"/>
</g>
<!-- Node26&#45;&gt;Node7 -->
<g id="edge49" class="edge">
<title>Node26&#45;&gt;Node7</title>
<path fill="none" stroke="#191970" d="M909.1097,-235.3845C915.3447,-216.1053 929.4804,-172.3963 937.7182,-146.9241"/>
<polygon fill="#191970" stroke="#191970" points="941.1003,-147.8402 940.8473,-137.2484 934.44,-145.6862 941.1003,-147.8402"/>
</g>
<!-- Node26&#45;&gt;Node8 -->
<g id="edge50" class="edge">
<title>Node26&#45;&gt;Node8</title>
<path fill="none" stroke="#191970" d="M855.4521,-235.4369C804.1555,-225.7321 724.7421,-210.708 670.2182,-200.3926"/>
<polygon fill="#191970" stroke="#191970" points="670.8158,-196.9437 660.3394,-198.5237 669.5145,-203.8217 670.8158,-196.9437"/>
</g>
<!-- Node26&#45;&gt;Node16 -->
<g id="edge48" class="edge">
<title>Node26&#45;&gt;Node16</title>
<path fill="none" stroke="#191970" d="M841.6199,-235.4579C800.158,-227.8458 751.7111,-215.6857 739,-199 727.8591,-184.3754 730.9236,-162.7892 735.4998,-147.1637"/>
<polygon fill="#191970" stroke="#191970" points="738.8937,-148.051 738.7534,-137.4571 732.2566,-145.8263 738.8937,-148.051"/>
</g>
<!-- Node26&#45;&gt;Node20 -->
<g id="edge51" class="edge">
<title>Node26&#45;&gt;Node20</title>
<path fill="none" stroke="#191970" d="M935.5679,-235.3733C964.1688,-226.0613 1007.6788,-211.8953 1039.0819,-201.671"/>
<polygon fill="#191970" stroke="#191970" points="1040.3928,-204.9251 1048.818,-198.5011 1038.2257,-198.269 1040.3928,-204.9251"/>
</g>
<!-- Node27 -->
<g id="node28" class="node">
<title>Node27</title>
<polygon fill="none" stroke="#bfbfbf" points="466,-179.5 466,-198.5 510,-198.5 510,-179.5 466,-179.5"/>
<text text-anchor="middle" x="488" y="-186.5" font-family="Helvetica,sans-Serif" font-size="10.00" fill="#000000">string</text>
</g>
<!-- Node26&#45;&gt;Node27 -->
<g id="edge47" class="edge">
<title>Node26&#45;&gt;Node27</title>
<path fill="none" stroke="#191970" d="M840.1584,-236.1542C837.0631,-235.7594 833.9982,-235.3728 831,-235 695.7267,-218.1789 657.2116,-228.0797 520.2423,-198.9116"/>
<polygon fill="#191970" stroke="#191970" points="520.7213,-195.4344 510.2076,-196.7431 519.2427,-202.2765 520.7213,-195.4344"/>
</g>
</g>
</svg>
