<?xml version="1.0" encoding="UTF-8" standalone="no"?>
<!DOCTYPE svg PUBLIC "-//W3C//DTD SVG 1.1//EN"
 "http://www.w3.org/Graphics/SVG/1.1/DTD/svg11.dtd">
<!-- Generated by graphviz version 2.40.1 (20161225.0304)
 -->
<!-- Title: /home/travis/build/AliceO2Group/AliceO2/DataFormats/Detectors/TPC/include/DataFormatsTPC/TrackTPC.h Pages: 1 -->
<svg width="2819pt" height="372pt"
 viewBox="0.00 0.00 2819.00 372.00" xmlns="http://www.w3.org/2000/svg" xmlns:xlink="http://www.w3.org/1999/xlink">
<g id="graph0" class="graph" transform="scale(1 1) rotate(0) translate(4 368)">
<title>/home/travis/build/AliceO2Group/AliceO2/DataFormats/Detectors/TPC/include/DataFormatsTPC/TrackTPC.h</title>
<!-- Node49 -->
<g id="node1" class="node">
<title>Node49</title>
<polygon fill="#bfbfbf" stroke="#000000" points="1478,-300.5 1478,-363.5 1639,-363.5 1639,-300.5 1478,-300.5"/>
<text text-anchor="start" x="1486" y="-351.5" font-family="Helvetica,sans-Serif" font-size="10.00" fill="#000000">/home/travis/build</text>
<text text-anchor="start" x="1486" y="-340.5" font-family="Helvetica,sans-Serif" font-size="10.00" fill="#000000">/AliceO2Group/AliceO2</text>
<text text-anchor="start" x="1486" y="-329.5" font-family="Helvetica,sans-Serif" font-size="10.00" fill="#000000">/DataFormats/Detectors</text>
<text text-anchor="start" x="1486" y="-318.5" font-family="Helvetica,sans-Serif" font-size="10.00" fill="#000000">/TPC/include/DataFormatsTPC</text>
<text text-anchor="middle" x="1558.5" y="-307.5" font-family="Helvetica,sans-Serif" font-size="10.00" fill="#000000">/TrackTPC.h</text>
</g>
<!-- Node50 -->
<g id="node2" class="node">
<title>Node50</title>
<g id="a_node2"><a xlink:href="../../d6/da8/TrackTPC_8cxx.html" target="_top" xlink:title="Implementation of the TPC track. ">
<polygon fill="none" stroke="#000000" points="215,-206 215,-258 348,-258 348,-206 215,-206"/>
<text text-anchor="start" x="223" y="-246" font-family="Helvetica,sans-Serif" font-size="10.00" fill="#000000">/home/travis/build</text>
<text text-anchor="start" x="223" y="-235" font-family="Helvetica,sans-Serif" font-size="10.00" fill="#000000">/AliceO2Group/AliceO2</text>
<text text-anchor="start" x="223" y="-224" font-family="Helvetica,sans-Serif" font-size="10.00" fill="#000000">/DataFormats/Detectors</text>
<text text-anchor="middle" x="281.5" y="-213" font-family="Helvetica,sans-Serif" font-size="10.00" fill="#000000">/TPC/src/TrackTPC.cxx</text>
</a>
</g>
</g>
<!-- Node49&#45;&gt;Node50 -->
<g id="edge1" class="edge">
<title>Node49&#45;&gt;Node50</title>
<path fill="none" stroke="#191970" d="M1467.4524,-330.5719C1225.894,-326.1854 572.8794,-310.2765 362.5,-264 355.5595,-262.4733 348.4372,-260.4286 341.4338,-258.1075"/>
<polygon fill="#191970" stroke="#191970" points="1467.5429,-334.074 1477.6041,-330.7539 1467.6684,-327.0751 1467.5429,-334.074"/>
</g>
<!-- Node51 -->
<g id="node3" class="node">
<title>Node51</title>
<g id="a_node3"><a xlink:href="../../d0/d74/MatchTOF_8h.html" target="_top" xlink:title="Class to perform TOF matching to global tracks. ">
<polygon fill="none" stroke="#000000" points="105.5,-106 105.5,-158 293.5,-158 293.5,-106 105.5,-106"/>
<text text-anchor="start" x="113.5" y="-146" font-family="Helvetica,sans-Serif" font-size="10.00" fill="#000000">/home/travis/build</text>
<text text-anchor="start" x="113.5" y="-135" font-family="Helvetica,sans-Serif" font-size="10.00" fill="#000000">/AliceO2Group/AliceO2</text>
<text text-anchor="start" x="113.5" y="-124" font-family="Helvetica,sans-Serif" font-size="10.00" fill="#000000">/Detectors/GlobalTracking</text>
<text text-anchor="middle" x="199.5" y="-113" font-family="Helvetica,sans-Serif" font-size="10.00" fill="#000000">/include/GlobalTracking/MatchTOF.h</text>
</a>
</g>
</g>
<!-- Node49&#45;&gt;Node51 -->
<g id="edge2" class="edge">
<title>Node49&#45;&gt;Node51</title>
<path fill="none" stroke="#191970" d="M1467.5039,-331.4935C1209.58,-329.3904 486.4451,-318.6336 395.5,-264 366.9465,-246.847 381.6274,-221.8665 356.5,-200 335.9974,-182.158 310.0941,-168.3833 285.27,-158.0476"/>
<polygon fill="#191970" stroke="#191970" points="1467.5622,-334.994 1477.5896,-331.5732 1467.6176,-327.9942 1467.5622,-334.994"/>
</g>
<!-- Node54 -->
<g id="node6" class="node">
<title>Node54</title>
<g id="a_node6"><a xlink:href="../../d3/dac/MatchTPCITS_8h.html" target="_top" xlink:title="Class to perform TPC ITS matching. ">
<polygon fill="none" stroke="#000000" points="405,-206 405,-258 610,-258 610,-206 405,-206"/>
<text text-anchor="start" x="413" y="-246" font-family="Helvetica,sans-Serif" font-size="10.00" fill="#000000">/home/travis/build</text>
<text text-anchor="start" x="413" y="-235" font-family="Helvetica,sans-Serif" font-size="10.00" fill="#000000">/AliceO2Group/AliceO2</text>
<text text-anchor="start" x="413" y="-224" font-family="Helvetica,sans-Serif" font-size="10.00" fill="#000000">/Detectors/GlobalTracking</text>
<text text-anchor="middle" x="507.5" y="-213" font-family="Helvetica,sans-Serif" font-size="10.00" fill="#000000">/include/GlobalTracking/MatchTPCITS.h</text>
</a>
</g>
</g>
<!-- Node49&#45;&gt;Node54 -->
<g id="edge5" class="edge">
<title>Node49&#45;&gt;Node54</title>
<path fill="none" stroke="#191970" d="M1467.4686,-326.987C1311.9438,-317.9113 985.2334,-296.6209 710.5,-264 677.7278,-260.1087 642.1354,-254.8517 610.0395,-249.7238"/>
<polygon fill="#191970" stroke="#191970" points="1467.7293,-330.5079 1477.9153,-327.5932 1468.1349,-323.5197 1467.7293,-330.5079"/>
</g>
<!-- Node58 -->
<g id="node10" class="node">
<title>Node58</title>
<g id="a_node10"><a xlink:href="../../d6/d73/TPCITSMatchingSpec_8cxx.html" target="_top" xlink:title="/home/travis/build\l/AliceO2Group/AliceO2\l/Detectors/GlobalTrackingWorkflow\l/src/TPCITSMatchingSpec.cxx">
<polygon fill="none" stroke="#000000" points="388,-6 388,-58 575,-58 575,-6 388,-6"/>
<text text-anchor="start" x="396" y="-46" font-family="Helvetica,sans-Serif" font-size="10.00" fill="#000000">/home/travis/build</text>
<text text-anchor="start" x="396" y="-35" font-family="Helvetica,sans-Serif" font-size="10.00" fill="#000000">/AliceO2Group/AliceO2</text>
<text text-anchor="start" x="396" y="-24" font-family="Helvetica,sans-Serif" font-size="10.00" fill="#000000">/Detectors/GlobalTrackingWorkflow</text>
<text text-anchor="middle" x="481.5" y="-13" font-family="Helvetica,sans-Serif" font-size="10.00" fill="#000000">/src/TPCITSMatchingSpec.cxx</text>
</a>
</g>
</g>
<!-- Node49&#45;&gt;Node58 -->
<g id="edge12" class="edge">
<title>Node49&#45;&gt;Node58</title>
<path fill="none" stroke="#191970" d="M1467.5065,-328.7243C1308.3461,-322.0266 986.3584,-303.8992 881.5,-264 810.7081,-237.0632 794.56,-219.9461 743.5,-164 721.1999,-139.5659 731.6138,-120.3074 705.5,-100 660.8722,-65.2953 637.5838,-80.462 583.5,-64 577.1969,-62.0815 570.6806,-60.0797 564.1312,-58.0546"/>
<polygon fill="#191970" stroke="#191970" points="1467.6142,-332.2316 1477.7506,-329.149 1467.9042,-325.2376 1467.6142,-332.2316"/>
</g>
<!-- Node59 -->
<g id="node11" class="node">
<title>Node59</title>
<g id="a_node11"><a xlink:href="../../d8/d85/TPCInterpolationSpec_8cxx.html" target="_top" xlink:title="/home/travis/build\l/AliceO2Group/AliceO2\l/Detectors/GlobalTrackingWorkflow\l/tpcinterpolationworkflow/src\l/TPCInterpolationSpec.cxx">
<polygon fill="none" stroke="#000000" points="1162,-.5 1162,-63.5 1349,-63.5 1349,-.5 1162,-.5"/>
<text text-anchor="start" x="1170" y="-51.5" font-family="Helvetica,sans-Serif" font-size="10.00" fill="#000000">/home/travis/build</text>
<text text-anchor="start" x="1170" y="-40.5" font-family="Helvetica,sans-Serif" font-size="10.00" fill="#000000">/AliceO2Group/AliceO2</text>
<text text-anchor="start" x="1170" y="-29.5" font-family="Helvetica,sans-Serif" font-size="10.00" fill="#000000">/Detectors/GlobalTrackingWorkflow</text>
<text text-anchor="start" x="1170" y="-18.5" font-family="Helvetica,sans-Serif" font-size="10.00" fill="#000000">/tpcinterpolationworkflow/src</text>
<text text-anchor="middle" x="1255.5" y="-7.5" font-family="Helvetica,sans-Serif" font-size="10.00" fill="#000000">/TPCInterpolationSpec.cxx</text>
</a>
</g>
</g>
<!-- Node49&#45;&gt;Node59 -->
<g id="edge13" class="edge">
<title>Node49&#45;&gt;Node59</title>
<path fill="none" stroke="#191970" d="M1467.9545,-319.6522C1320.0511,-297.3255 1037.6153,-244.9152 983.5,-164 967.6871,-140.356 965.6042,-122.1094 983.5,-100 1031.8163,-40.3074 1078.1977,-83.4126 1152.5,-64 1155.5799,-63.1953 1158.7049,-62.3564 1161.8555,-61.4914"/>
<polygon fill="#191970" stroke="#191970" points="1467.5246,-323.1268 1477.9321,-321.1435 1468.5594,-316.2037 1467.5246,-323.1268"/>
</g>
<!-- Node60 -->
<g id="node12" class="node">
<title>Node60</title>
<g id="a_node12"><a xlink:href="../../dc/d42/CalibPadGainTracks_8h.html" target="_top" xlink:title="/home/travis/build\l/AliceO2Group/AliceO2\l/Detectors/TPC/calibration\l/include/TPCCalibration/CalibPad\lGainTracks.h">
<polygon fill="none" stroke="#000000" points="1471,-200.5 1471,-263.5 1646,-263.5 1646,-200.5 1471,-200.5"/>
<text text-anchor="start" x="1479" y="-251.5" font-family="Helvetica,sans-Serif" font-size="10.00" fill="#000000">/home/travis/build</text>
<text text-anchor="start" x="1479" y="-240.5" font-family="Helvetica,sans-Serif" font-size="10.00" fill="#000000">/AliceO2Group/AliceO2</text>
<text text-anchor="start" x="1479" y="-229.5" font-family="Helvetica,sans-Serif" font-size="10.00" fill="#000000">/Detectors/TPC/calibration</text>
<text text-anchor="start" x="1479" y="-218.5" font-family="Helvetica,sans-Serif" font-size="10.00" fill="#000000">/include/TPCCalibration/CalibPad</text>
<text text-anchor="middle" x="1558.5" y="-207.5" font-family="Helvetica,sans-Serif" font-size="10.00" fill="#000000">GainTracks.h</text>
</a>
</g>
</g>
<!-- Node49&#45;&gt;Node60 -->
<g id="edge14" class="edge">
<title>Node49&#45;&gt;Node60</title>
<path fill="none" stroke="#191970" d="M1558.5,-290.2111C1558.5,-281.37 1558.5,-272.1767 1558.5,-263.778"/>
<polygon fill="#191970" stroke="#191970" points="1555.0001,-290.3593 1558.5,-300.3594 1562.0001,-290.3594 1555.0001,-290.3593"/>
</g>
<!-- Node62 -->
<g id="node14" class="node">
<title>Node62</title>
<g id="a_node14"><a xlink:href="../../d3/d0c/TrackInterpolation_8h.html" target="_top" xlink:title="Definition of the TrackInterpolation class. ">
<polygon fill="none" stroke="#000000" points="1235,-200.5 1235,-263.5 1414,-263.5 1414,-200.5 1235,-200.5"/>
<text text-anchor="start" x="1243" y="-251.5" font-family="Helvetica,sans-Serif" font-size="10.00" fill="#000000">/home/travis/build</text>
<text text-anchor="start" x="1243" y="-240.5" font-family="Helvetica,sans-Serif" font-size="10.00" fill="#000000">/AliceO2Group/AliceO2</text>
<text text-anchor="start" x="1243" y="-229.5" font-family="Helvetica,sans-Serif" font-size="10.00" fill="#000000">/Detectors/TPC/calibration</text>
<text text-anchor="start" x="1243" y="-218.5" font-family="Helvetica,sans-Serif" font-size="10.00" fill="#000000">/SpacePoints/include/SpacePoints</text>
<text text-anchor="middle" x="1324.5" y="-207.5" font-family="Helvetica,sans-Serif" font-size="10.00" fill="#000000">/TrackInterpolation.h</text>
</a>
</g>
</g>
<!-- Node49&#45;&gt;Node62 -->
<g id="edge16" class="edge">
<title>Node49&#45;&gt;Node62</title>
<path fill="none" stroke="#191970" d="M1475.2704,-296.4318C1450.1336,-285.6896 1422.7223,-273.9753 1398.2492,-263.5168"/>
<polygon fill="#191970" stroke="#191970" points="1474.2112,-299.7853 1484.7821,-300.4966 1476.962,-293.3484 1474.2112,-299.7853"/>
</g>
<!-- Node68 -->
<g id="node20" class="node">
<title>Node68</title>
<g id="a_node20"><a xlink:href="../../d4/d15/TrackInterpolation_8cxx.html" target="_top" xlink:title="Implementation of the TrackInterpolation class. ">
<polygon fill="none" stroke="#000000" points="1675,-106 1675,-158 1882,-158 1882,-106 1675,-106"/>
<text text-anchor="start" x="1683" y="-146" font-family="Helvetica,sans-Serif" font-size="10.00" fill="#000000">/home/travis/build</text>
<text text-anchor="start" x="1683" y="-135" font-family="Helvetica,sans-Serif" font-size="10.00" fill="#000000">/AliceO2Group/AliceO2</text>
<text text-anchor="start" x="1683" y="-124" font-family="Helvetica,sans-Serif" font-size="10.00" fill="#000000">/Detectors/TPC/calibration</text>
<text text-anchor="middle" x="1778.5" y="-113" font-family="Helvetica,sans-Serif" font-size="10.00" fill="#000000">/SpacePoints/src/TrackInterpolation.cxx</text>
</a>
</g>
</g>
<!-- Node49&#45;&gt;Node68 -->
<g id="edge24" class="edge">
<title>Node49&#45;&gt;Node68</title>
<path fill="none" stroke="#191970" d="M1486.787,-294.2292C1476.6031,-285.6864 1467.5507,-275.6312 1461.5,-264 1448.3728,-238.7658 1443.2178,-221.791 1461.5,-200 1491.0875,-164.734 1620.6298,-174.2846 1665.5,-164 1673.4497,-162.1779 1681.6738,-160.1439 1689.8927,-158.0088"/>
<polygon fill="#191970" stroke="#191970" points="1484.7311,-297.0645 1494.7643,-300.4682 1489.0435,-291.5506 1484.7311,-297.0645"/>
</g>
<!-- Node69 -->
<g id="node21" class="node">
<title>Node69</title>
<g id="a_node21"><a xlink:href="../../d2/d14/Detectors_2TPC_2qc_2src_2PID_8cxx.html" target="_top" xlink:title="/home/travis/build\l/AliceO2Group/AliceO2\l/Detectors/TPC/qc/src\l/PID.cxx">
<polygon fill="none" stroke="#000000" points="1664,-206 1664,-258 1791,-258 1791,-206 1664,-206"/>
<text text-anchor="start" x="1672" y="-246" font-family="Helvetica,sans-Serif" font-size="10.00" fill="#000000">/home/travis/build</text>
<text text-anchor="start" x="1672" y="-235" font-family="Helvetica,sans-Serif" font-size="10.00" fill="#000000">/AliceO2Group/AliceO2</text>
<text text-anchor="start" x="1672" y="-224" font-family="Helvetica,sans-Serif" font-size="10.00" fill="#000000">/Detectors/TPC/qc/src</text>
<text text-anchor="middle" x="1727.5" y="-213" font-family="Helvetica,sans-Serif" font-size="10.00" fill="#000000">/PID.cxx</text>
</a>
</g>
</g>
<!-- Node49&#45;&gt;Node69 -->
<g id="edge25" class="edge">
<title>Node49&#45;&gt;Node69</title>
<path fill="none" stroke="#191970" d="M1620.7543,-295.1631C1641.5594,-282.8524 1664.3016,-269.3955 1683.4282,-258.078"/>
<polygon fill="#191970" stroke="#191970" points="1618.7965,-292.2547 1611.9727,-300.3594 1622.3613,-298.2791 1618.7965,-292.2547"/>
</g>
<!-- Node70 -->
<g id="node22" class="node">
<title>Node70</title>
<g id="a_node22"><a xlink:href="../../d2/d68/TrackCuts_8cxx.html" target="_top" xlink:title="/home/travis/build\l/AliceO2Group/AliceO2\l/Detectors/TPC/qc/src\l/TrackCuts.cxx">
<polygon fill="none" stroke="#000000" points="1809,-206 1809,-258 1936,-258 1936,-206 1809,-206"/>
<text text-anchor="start" x="1817" y="-246" font-family="Helvetica,sans-Serif" font-size="10.00" fill="#000000">/home/travis/build</text>
<text text-anchor="start" x="1817" y="-235" font-family="Helvetica,sans-Serif" font-size="10.00" fill="#000000">/AliceO2Group/AliceO2</text>
<text text-anchor="start" x="1817" y="-224" font-family="Helvetica,sans-Serif" font-size="10.00" fill="#000000">/Detectors/TPC/qc/src</text>
<text text-anchor="middle" x="1872.5" y="-213" font-family="Helvetica,sans-Serif" font-size="10.00" fill="#000000">/TrackCuts.cxx</text>
</a>
</g>
</g>
<!-- Node49&#45;&gt;Node70 -->
<g id="edge26" class="edge">
<title>Node49&#45;&gt;Node70</title>
<path fill="none" stroke="#191970" d="M1649.0254,-309.6303C1694.6307,-297.5628 1750.5052,-281.5559 1799.5,-264 1804.5804,-262.1796 1809.8072,-260.1711 1815.0177,-258.0742"/>
<polygon fill="#191970" stroke="#191970" points="1647.9417,-306.2961 1639.1592,-312.222 1649.7203,-313.0664 1647.9417,-306.2961"/>
</g>
<!-- Node71 -->
<g id="node23" class="node">
<title>Node71</title>
<g id="a_node23"><a xlink:href="../../db/d71/Tracks_8cxx.html" target="_top" xlink:title="/home/travis/build\l/AliceO2Group/AliceO2\l/Detectors/TPC/qc/src\l/Tracks.cxx">
<polygon fill="none" stroke="#000000" points="1954,-206 1954,-258 2081,-258 2081,-206 1954,-206"/>
<text text-anchor="start" x="1962" y="-246" font-family="Helvetica,sans-Serif" font-size="10.00" fill="#000000">/home/travis/build</text>
<text text-anchor="start" x="1962" y="-235" font-family="Helvetica,sans-Serif" font-size="10.00" fill="#000000">/AliceO2Group/AliceO2</text>
<text text-anchor="start" x="1962" y="-224" font-family="Helvetica,sans-Serif" font-size="10.00" fill="#000000">/Detectors/TPC/qc/src</text>
<text text-anchor="middle" x="2017.5" y="-213" font-family="Helvetica,sans-Serif" font-size="10.00" fill="#000000">/Tracks.cxx</text>
</a>
</g>
</g>
<!-- Node49&#45;&gt;Node71 -->
<g id="edge27" class="edge">
<title>Node49&#45;&gt;Node71</title>
<path fill="none" stroke="#191970" d="M1649.215,-322.2306C1728.3553,-312.247 1845.6577,-293.9002 1944.5,-264 1950.1954,-262.2771 1956.037,-260.2302 1961.8152,-258.0167"/>
<polygon fill="#191970" stroke="#191970" points="1648.7664,-318.7593 1639.2744,-323.4659 1649.6297,-325.7059 1648.7664,-318.7593"/>
</g>
<!-- Node72 -->
<g id="node24" class="node">
<title>Node72</title>
<g id="a_node24"><a xlink:href="../../d3/d64/GPUCATracking_8h.html" target="_top" xlink:title="Wrapper class for TPC CA Tracker algorithm. ">
<polygon fill="none" stroke="#000000" points="2099,-200.5 2099,-263.5 2260,-263.5 2260,-200.5 2099,-200.5"/>
<text text-anchor="start" x="2107" y="-251.5" font-family="Helvetica,sans-Serif" font-size="10.00" fill="#000000">/home/travis/build</text>
<text text-anchor="start" x="2107" y="-240.5" font-family="Helvetica,sans-Serif" font-size="10.00" fill="#000000">/AliceO2Group/AliceO2</text>
<text text-anchor="start" x="2107" y="-229.5" font-family="Helvetica,sans-Serif" font-size="10.00" fill="#000000">/Detectors/TPC/reconstruction</text>
<text text-anchor="start" x="2107" y="-218.5" font-family="Helvetica,sans-Serif" font-size="10.00" fill="#000000">/include/TPCReconstruction</text>
<text text-anchor="middle" x="2179.5" y="-207.5" font-family="Helvetica,sans-Serif" font-size="10.00" fill="#000000">/GPUCATracking.h</text>
</a>
</g>
</g>
<!-- Node49&#45;&gt;Node72 -->
<g id="edge28" class="edge">
<title>Node49&#45;&gt;Node72</title>
<path fill="none" stroke="#191970" d="M1649.1534,-326.3252C1755.7179,-318.2952 1937.3438,-300.348 2089.5,-264 2092.5646,-263.2679 2095.67,-262.4682 2098.7934,-261.615"/>
<polygon fill="#191970" stroke="#191970" points="1648.7925,-322.8422 1639.0785,-327.0716 1649.3098,-329.8231 1648.7925,-322.8422"/>
</g>
<!-- Node74 -->
<g id="node26" class="node">
<title>Node74</title>
<g id="a_node26"><a xlink:href="../../d1/df6/testGPUCATracking_8cxx.html" target="_top" xlink:title="This task tests the TPC CA Tracking library. ">
<polygon fill="none" stroke="#000000" points="2404,-106 2404,-158 2565,-158 2565,-106 2404,-106"/>
<text text-anchor="start" x="2412" y="-146" font-family="Helvetica,sans-Serif" font-size="10.00" fill="#000000">/home/travis/build</text>
<text text-anchor="start" x="2412" y="-135" font-family="Helvetica,sans-Serif" font-size="10.00" fill="#000000">/AliceO2Group/AliceO2</text>
<text text-anchor="start" x="2412" y="-124" font-family="Helvetica,sans-Serif" font-size="10.00" fill="#000000">/Detectors/TPC/reconstruction</text>
<text text-anchor="middle" x="2484.5" y="-113" font-family="Helvetica,sans-Serif" font-size="10.00" fill="#000000">/test/testGPUCATracking.cxx</text>
</a>
</g>
</g>
<!-- Node49&#45;&gt;Node74 -->
<g id="edge32" class="edge">
<title>Node49&#45;&gt;Node74</title>
<path fill="none" stroke="#191970" d="M1649.3916,-327.8836C1829.3734,-319.0731 2218.2341,-296.5114 2269.5,-264 2297.4365,-246.2835 2282.2176,-221.3336 2307.5,-200 2311.9814,-196.2185 2366.317,-175.5772 2413.6165,-158.0174"/>
<polygon fill="#191970" stroke="#191970" points="1648.9683,-324.4 1639.1499,-328.3812 1649.308,-331.3917 1648.9683,-324.4"/>
</g>
<!-- Node76 -->
<g id="node28" class="node">
<title>Node76</title>
<g id="a_node28"><a xlink:href="../../d5/daf/TPC_2workflow_2include_2TPCWorkflow_2TrackReaderSpec_8h.html" target="_top" xlink:title="/home/travis/build\l/AliceO2Group/AliceO2\l/Detectors/TPC/workflow\l/include/TPCWorkflow/TrackReader\lSpec.h">
<polygon fill="none" stroke="#000000" points="752.5,-100.5 752.5,-163.5 936.5,-163.5 936.5,-100.5 752.5,-100.5"/>
<text text-anchor="start" x="760.5" y="-151.5" font-family="Helvetica,sans-Serif" font-size="10.00" fill="#000000">/home/travis/build</text>
<text text-anchor="start" x="760.5" y="-140.5" font-family="Helvetica,sans-Serif" font-size="10.00" fill="#000000">/AliceO2Group/AliceO2</text>
<text text-anchor="start" x="760.5" y="-129.5" font-family="Helvetica,sans-Serif" font-size="10.00" fill="#000000">/Detectors/TPC/workflow</text>
<text text-anchor="start" x="760.5" y="-118.5" font-family="Helvetica,sans-Serif" font-size="10.00" fill="#000000">/include/TPCWorkflow/TrackReader</text>
<text text-anchor="middle" x="844.5" y="-107.5" font-family="Helvetica,sans-Serif" font-size="10.00" fill="#000000">Spec.h</text>
</a>
</g>
</g>
<!-- Node49&#45;&gt;Node76 -->
<g id="edge33" class="edge">
<title>Node49&#45;&gt;Node76</title>
<path fill="none" stroke="#191970" d="M1467.3515,-330.232C1320.0099,-325.9892 1037.2406,-311.7018 950.5,-264 909.0367,-241.1978 877.801,-194.8674 860.3282,-163.6217"/>
<polygon fill="#191970" stroke="#191970" points="1467.628,-333.7409 1477.7215,-330.5204 1467.8227,-326.7436 1467.628,-333.7409"/>
</g>
<!-- Node78 -->
<g id="node30" class="node">
<title>Node78</title>
<g id="a_node30"><a xlink:href="../../d0/d80/TPC_2workflow_2src_2RecoWorkflow_8cxx.html" target="_top" xlink:title="/home/travis/build\l/AliceO2Group/AliceO2\l/Detectors/TPC/workflow\l/src/RecoWorkflow.cxx">
<polygon fill="none" stroke="#000000" points="2316.5,-206 2316.5,-258 2452.5,-258 2452.5,-206 2316.5,-206"/>
<text text-anchor="start" x="2324.5" y="-246" font-family="Helvetica,sans-Serif" font-size="10.00" fill="#000000">/home/travis/build</text>
<text text-anchor="start" x="2324.5" y="-235" font-family="Helvetica,sans-Serif" font-size="10.00" fill="#000000">/AliceO2Group/AliceO2</text>
<text text-anchor="start" x="2324.5" y="-224" font-family="Helvetica,sans-Serif" font-size="10.00" fill="#000000">/Detectors/TPC/workflow</text>
<text text-anchor="middle" x="2384.5" y="-213" font-family="Helvetica,sans-Serif" font-size="10.00" fill="#000000">/src/RecoWorkflow.cxx</text>
</a>
</g>
</g>
<!-- Node49&#45;&gt;Node78 -->
<g id="edge37" class="edge">
<title>Node49&#45;&gt;Node78</title>
<path fill="none" stroke="#191970" d="M1649.2153,-326.901C1819.4593,-316.8043 2180.6412,-292.739 2302.5,-264 2309.3419,-262.3864 2316.3726,-260.3195 2323.3033,-258.0143"/>
<polygon fill="#191970" stroke="#191970" points="1648.8011,-323.4193 1639.0246,-327.5023 1649.2134,-330.4071 1648.8011,-323.4193"/>
</g>
<!-- Node79 -->
<g id="node31" class="node">
<title>Node79</title>
<g id="a_node31"><a xlink:href="../../d5/df5/DataInterpreterTPC_8cxx.html" target="_top" xlink:title="converting TPC data to Event Visualisation primitives ">
<polygon fill="none" stroke="#000000" points="2471,-206 2471,-258 2632,-258 2632,-206 2471,-206"/>
<text text-anchor="start" x="2479" y="-246" font-family="Helvetica,sans-Serif" font-size="10.00" fill="#000000">/home/travis/build</text>
<text text-anchor="start" x="2479" y="-235" font-family="Helvetica,sans-Serif" font-size="10.00" fill="#000000">/AliceO2Group/AliceO2</text>
<text text-anchor="start" x="2479" y="-224" font-family="Helvetica,sans-Serif" font-size="10.00" fill="#000000">/EventVisualisation/Detectors</text>
<text text-anchor="middle" x="2551.5" y="-213" font-family="Helvetica,sans-Serif" font-size="10.00" fill="#000000">/src/DataInterpreterTPC.cxx</text>
</a>
</g>
</g>
<!-- Node49&#45;&gt;Node79 -->
<g id="edge38" class="edge">
<title>Node49&#45;&gt;Node79</title>
<path fill="none" stroke="#191970" d="M1649.2562,-328.2383C1846.3771,-319.5676 2308.2364,-296.409 2461.5,-264 2468.9633,-262.4218 2476.6503,-260.3776 2484.2397,-258.0858"/>
<polygon fill="#191970" stroke="#191970" points="1649.0548,-324.7436 1639.2173,-328.6774 1649.3608,-331.7369 1649.0548,-324.7436"/>
</g>
<!-- Node80 -->
<g id="node32" class="node">
<title>Node80</title>
<g id="a_node32"><a xlink:href="../../df/d85/DataReaderTPC_8cxx.html" target="_top" xlink:title="TPC Detector&#45;specific reading from file(s) ">
<polygon fill="none" stroke="#000000" points="2650,-206 2650,-258 2811,-258 2811,-206 2650,-206"/>
<text text-anchor="start" x="2658" y="-246" font-family="Helvetica,sans-Serif" font-size="10.00" fill="#000000">/home/travis/build</text>
<text text-anchor="start" x="2658" y="-235" font-family="Helvetica,sans-Serif" font-size="10.00" fill="#000000">/AliceO2Group/AliceO2</text>
<text text-anchor="start" x="2658" y="-224" font-family="Helvetica,sans-Serif" font-size="10.00" fill="#000000">/EventVisualisation/Detectors</text>
<text text-anchor="middle" x="2730.5" y="-213" font-family="Helvetica,sans-Serif" font-size="10.00" fill="#000000">/src/DataReaderTPC.cxx</text>
</a>
</g>
</g>
<!-- Node49&#45;&gt;Node80 -->
<g id="edge39" class="edge">
<title>Node49&#45;&gt;Node80</title>
<path fill="none" stroke="#191970" d="M1649.5091,-329.5861C1874.6122,-323.0852 2452.8782,-303.0083 2641.5,-264 2649.0574,-262.4371 2656.8397,-260.3694 2664.5096,-258.0351"/>
<polygon fill="#191970" stroke="#191970" points="1649.2786,-326.0911 1639.383,-329.8762 1649.4791,-333.0883 1649.2786,-326.0911"/>
</g>
<!-- Node52 -->
<g id="node4" class="node">
<title>Node52</title>
<g id="a_node4"><a xlink:href="../../db/d6a/MatchTOF_8cxx.html" target="_top" xlink:title="/home/travis/build\l/AliceO2Group/AliceO2\l/Detectors/GlobalTracking\l/src/MatchTOF.cxx">
<polygon fill="none" stroke="#000000" points="227.5,-6 227.5,-58 369.5,-58 369.5,-6 227.5,-6"/>
<text text-anchor="start" x="235.5" y="-46" font-family="Helvetica,sans-Serif" font-size="10.00" fill="#000000">/home/travis/build</text>
<text text-anchor="start" x="235.5" y="-35" font-family="Helvetica,sans-Serif" font-size="10.00" fill="#000000">/AliceO2Group/AliceO2</text>
<text text-anchor="start" x="235.5" y="-24" font-family="Helvetica,sans-Serif" font-size="10.00" fill="#000000">/Detectors/GlobalTracking</text>
<text text-anchor="middle" x="298.5" y="-13" font-family="Helvetica,sans-Serif" font-size="10.00" fill="#000000">/src/MatchTOF.cxx</text>
</a>
</g>
</g>
<!-- Node51&#45;&gt;Node52 -->
<g id="edge3" class="edge">
<title>Node51&#45;&gt;Node52</title>
<path fill="none" stroke="#191970" d="M232.3095,-98.8591C245.3868,-85.6496 260.2245,-70.6622 272.5324,-58.2299"/>
<polygon fill="#191970" stroke="#191970" points="229.8008,-96.4183 225.2526,-105.9872 234.7754,-101.3431 229.8008,-96.4183"/>
</g>
<!-- Node53 -->
<g id="node5" class="node">
<title>Node53</title>
<g id="a_node5"><a xlink:href="../../d8/d84/RecoWorkflowSpec_8cxx.html" target="_top" xlink:title="/home/travis/build\l/AliceO2Group/AliceO2\l/Detectors/GlobalTrackingWorkflow\l/tofworkflow/src/RecoWorkflowSpec.cxx">
<polygon fill="none" stroke="#000000" points="0,-6 0,-58 209,-58 209,-6 0,-6"/>
<text text-anchor="start" x="8" y="-46" font-family="Helvetica,sans-Serif" font-size="10.00" fill="#000000">/home/travis/build</text>
<text text-anchor="start" x="8" y="-35" font-family="Helvetica,sans-Serif" font-size="10.00" fill="#000000">/AliceO2Group/AliceO2</text>
<text text-anchor="start" x="8" y="-24" font-family="Helvetica,sans-Serif" font-size="10.00" fill="#000000">/Detectors/GlobalTrackingWorkflow</text>
<text text-anchor="middle" x="104.5" y="-13" font-family="Helvetica,sans-Serif" font-size="10.00" fill="#000000">/tofworkflow/src/RecoWorkflowSpec.cxx</text>
</a>
</g>
</g>
<!-- Node51&#45;&gt;Node53 -->
<g id="edge4" class="edge">
<title>Node51&#45;&gt;Node53</title>
<path fill="none" stroke="#191970" d="M167.6671,-98.4917C155.2037,-85.3723 141.1197,-70.5471 129.4184,-58.2299"/>
<polygon fill="#191970" stroke="#191970" points="165.3628,-101.1478 174.7879,-105.9872 170.4378,-96.3266 165.3628,-101.1478"/>
</g>
<!-- Node54&#45;&gt;Node51 -->
<g id="edge6" class="edge">
<title>Node54&#45;&gt;Node51</title>
<path fill="none" stroke="#191970" d="M417.6342,-202.8228C374.011,-188.6594 322.0286,-171.782 279.7527,-158.0561"/>
<polygon fill="#191970" stroke="#191970" points="416.7886,-206.228 427.3807,-205.9872 418.9503,-199.5702 416.7886,-206.228"/>
</g>
<!-- Node54&#45;&gt;Node52 -->
<g id="edge7" class="edge">
<title>Node54&#45;&gt;Node52</title>
<path fill="none" stroke="#191970" d="M395.2678,-202.2308C374.9715,-192.7065 355.5175,-180.2473 340.5,-164 313.2398,-134.5073 303.6724,-87.3205 300.3149,-58.0755"/>
<polygon fill="#191970" stroke="#191970" points="394.0804,-205.5333 404.6395,-206.4034 396.9277,-199.1385 394.0804,-205.5333"/>
</g>
<!-- Node55 -->
<g id="node7" class="node">
<title>Node55</title>
<g id="a_node7"><a xlink:href="../../dc/d59/MatchTPCITS_8cxx.html" target="_top" xlink:title="/home/travis/build\l/AliceO2Group/AliceO2\l/Detectors/GlobalTracking\l/src/MatchTPCITS.cxx">
<polygon fill="none" stroke="#000000" points="349.5,-106 349.5,-158 491.5,-158 491.5,-106 349.5,-106"/>
<text text-anchor="start" x="357.5" y="-146" font-family="Helvetica,sans-Serif" font-size="10.00" fill="#000000">/home/travis/build</text>
<text text-anchor="start" x="357.5" y="-135" font-family="Helvetica,sans-Serif" font-size="10.00" fill="#000000">/AliceO2Group/AliceO2</text>
<text text-anchor="start" x="357.5" y="-124" font-family="Helvetica,sans-Serif" font-size="10.00" fill="#000000">/Detectors/GlobalTracking</text>
<text text-anchor="middle" x="420.5" y="-113" font-family="Helvetica,sans-Serif" font-size="10.00" fill="#000000">/src/MatchTPCITS.cxx</text>
</a>
</g>
</g>
<!-- Node54&#45;&gt;Node55 -->
<g id="edge8" class="edge">
<title>Node54&#45;&gt;Node55</title>
<path fill="none" stroke="#191970" d="M478.0274,-198.1234C466.693,-185.0954 453.9358,-170.4319 443.32,-158.2299"/>
<polygon fill="#191970" stroke="#191970" points="475.6646,-200.7401 484.8689,-205.9872 480.9458,-196.1455 475.6646,-200.7401"/>
</g>
<!-- Node56 -->
<g id="node8" class="node">
<title>Node56</title>
<g id="a_node8"><a xlink:href="../../da/d20/TPCITSMatchingSpec_8h.html" target="_top" xlink:title="/home/travis/build\l/AliceO2Group/AliceO2\l/Detectors/GlobalTrackingWorkflow\l/include/GlobalTrackingWorkflow\l/TPCITSMatchingSpec.h">
<polygon fill="none" stroke="#000000" points="510,-100.5 510,-163.5 697,-163.5 697,-100.5 510,-100.5"/>
<text text-anchor="start" x="518" y="-151.5" font-family="Helvetica,sans-Serif" font-size="10.00" fill="#000000">/home/travis/build</text>
<text text-anchor="start" x="518" y="-140.5" font-family="Helvetica,sans-Serif" font-size="10.00" fill="#000000">/AliceO2Group/AliceO2</text>
<text text-anchor="start" x="518" y="-129.5" font-family="Helvetica,sans-Serif" font-size="10.00" fill="#000000">/Detectors/GlobalTrackingWorkflow</text>
<text text-anchor="start" x="518" y="-118.5" font-family="Helvetica,sans-Serif" font-size="10.00" fill="#000000">/include/GlobalTrackingWorkflow</text>
<text text-anchor="middle" x="603.5" y="-107.5" font-family="Helvetica,sans-Serif" font-size="10.00" fill="#000000">/TPCITSMatchingSpec.h</text>
</a>
</g>
</g>
<!-- Node54&#45;&gt;Node56 -->
<g id="edge9" class="edge">
<title>Node54&#45;&gt;Node56</title>
<path fill="none" stroke="#191970" d="M539.4152,-198.755C550.2955,-187.4214 562.4225,-174.789 573.1744,-163.5891"/>
<polygon fill="#191970" stroke="#191970" points="536.8727,-196.3495 532.4723,-205.9872 541.9225,-201.1972 536.8727,-196.3495"/>
</g>
<!-- Node57 -->
<g id="node9" class="node">
<title>Node57</title>
<g id="a_node9"><a xlink:href="../../d5/db4/MatchTPCITSWorkflow_8cxx.html" target="_top" xlink:title="/home/travis/build\l/AliceO2Group/AliceO2\l/Detectors/GlobalTrackingWorkflow\l/src/MatchTPCITSWorkflow.cxx">
<polygon fill="none" stroke="#000000" points="593,-6 593,-58 780,-58 780,-6 593,-6"/>
<text text-anchor="start" x="601" y="-46" font-family="Helvetica,sans-Serif" font-size="10.00" fill="#000000">/home/travis/build</text>
<text text-anchor="start" x="601" y="-35" font-family="Helvetica,sans-Serif" font-size="10.00" fill="#000000">/AliceO2Group/AliceO2</text>
<text text-anchor="start" x="601" y="-24" font-family="Helvetica,sans-Serif" font-size="10.00" fill="#000000">/Detectors/GlobalTrackingWorkflow</text>
<text text-anchor="middle" x="686.5" y="-13" font-family="Helvetica,sans-Serif" font-size="10.00" fill="#000000">/src/MatchTPCITSWorkflow.cxx</text>
</a>
</g>
</g>
<!-- Node56&#45;&gt;Node57 -->
<g id="edge10" class="edge">
<title>Node56&#45;&gt;Node57</title>
<path fill="none" stroke="#191970" d="M636.2777,-92.5088C645.879,-80.9409 656.1327,-68.5871 664.8553,-58.078"/>
<polygon fill="#191970" stroke="#191970" points="633.4553,-90.4292 629.7617,-100.3594 638.8416,-94.8999 633.4553,-90.4292"/>
</g>
<!-- Node56&#45;&gt;Node58 -->
<g id="edge11" class="edge">
<title>Node56&#45;&gt;Node58</title>
<path fill="none" stroke="#191970" d="M556.9446,-93.8399C542.3706,-81.8939 526.6294,-68.9913 513.3151,-58.078"/>
<polygon fill="#191970" stroke="#191970" points="554.9457,-96.7269 564.8984,-100.3594 559.3833,-91.3132 554.9457,-96.7269"/>
</g>
<!-- Node61 -->
<g id="node13" class="node">
<title>Node61</title>
<g id="a_node13"><a xlink:href="../../d9/da6/CalibPadGainTracks_8cxx.html" target="_top" xlink:title="/home/travis/build\l/AliceO2Group/AliceO2\l/Detectors/TPC/calibration\l/src/CalibPadGainTracks.cxx">
<polygon fill="none" stroke="#000000" points="1900.5,-106 1900.5,-158 2052.5,-158 2052.5,-106 1900.5,-106"/>
<text text-anchor="start" x="1908.5" y="-146" font-family="Helvetica,sans-Serif" font-size="10.00" fill="#000000">/home/travis/build</text>
<text text-anchor="start" x="1908.5" y="-135" font-family="Helvetica,sans-Serif" font-size="10.00" fill="#000000">/AliceO2Group/AliceO2</text>
<text text-anchor="start" x="1908.5" y="-124" font-family="Helvetica,sans-Serif" font-size="10.00" fill="#000000">/Detectors/TPC/calibration</text>
<text text-anchor="middle" x="1976.5" y="-113" font-family="Helvetica,sans-Serif" font-size="10.00" fill="#000000">/src/CalibPadGainTracks.cxx</text>
</a>
</g>
</g>
<!-- Node60&#45;&gt;Node61 -->
<g id="edge15" class="edge">
<title>Node60&#45;&gt;Node61</title>
<path fill="none" stroke="#191970" d="M1656.1176,-199.762C1759.5391,-176.0339 1790.9059,-189.8338 1890.5,-164 1897.1307,-162.28 1903.9603,-160.2351 1910.7349,-158.0227"/>
<polygon fill="#191970" stroke="#191970" points="1655.1466,-196.3949 1646.2167,-202.0964 1656.753,-203.2081 1655.1466,-196.3949"/>
</g>
<!-- Node63 -->
<g id="node15" class="node">
<title>Node63</title>
<g id="a_node15"><a xlink:href="../../dc/d50/TPCInterpolationSpec_8h.html" target="_top" xlink:title="/home/travis/build\l/AliceO2Group/AliceO2\l/Detectors/GlobalTrackingWorkflow\l/tpcinterpolationworkflow/include\l/TPCInterpolationWorkflow/TPCInterpolationSpec.h">
<polygon fill="none" stroke="#000000" points="992.5,-100.5 992.5,-163.5 1254.5,-163.5 1254.5,-100.5 992.5,-100.5"/>
<text text-anchor="start" x="1000.5" y="-151.5" font-family="Helvetica,sans-Serif" font-size="10.00" fill="#000000">/home/travis/build</text>
<text text-anchor="start" x="1000.5" y="-140.5" font-family="Helvetica,sans-Serif" font-size="10.00" fill="#000000">/AliceO2Group/AliceO2</text>
<text text-anchor="start" x="1000.5" y="-129.5" font-family="Helvetica,sans-Serif" font-size="10.00" fill="#000000">/Detectors/GlobalTrackingWorkflow</text>
<text text-anchor="start" x="1000.5" y="-118.5" font-family="Helvetica,sans-Serif" font-size="10.00" fill="#000000">/tpcinterpolationworkflow/include</text>
<text text-anchor="middle" x="1123.5" y="-107.5" font-family="Helvetica,sans-Serif" font-size="10.00" fill="#000000">/TPCInterpolationWorkflow/TPCInterpolationSpec.h</text>
</a>
</g>
</g>
<!-- Node62&#45;&gt;Node63 -->
<g id="edge17" class="edge">
<title>Node62&#45;&gt;Node63</title>
<path fill="none" stroke="#191970" d="M1252.1509,-196.0054C1230.7942,-185.3802 1207.5926,-173.8371 1186.8487,-163.5168"/>
<polygon fill="#191970" stroke="#191970" points="1250.666,-199.1759 1261.1782,-200.4966 1253.7841,-192.9087 1250.666,-199.1759"/>
</g>
<!-- Node65 -->
<g id="node17" class="node">
<title>Node65</title>
<g id="a_node17"><a xlink:href="../../d2/d27/TPCResidualWriterSpec_8cxx.html" target="_top" xlink:title="/home/travis/build\l/AliceO2Group/AliceO2\l/Detectors/GlobalTrackingWorkflow\l/tpcinterpolationworkflow/src\l/TPCResidualWriterSpec.cxx">
<polygon fill="none" stroke="#000000" points="1273,-100.5 1273,-163.5 1460,-163.5 1460,-100.5 1273,-100.5"/>
<text text-anchor="start" x="1281" y="-151.5" font-family="Helvetica,sans-Serif" font-size="10.00" fill="#000000">/home/travis/build</text>
<text text-anchor="start" x="1281" y="-140.5" font-family="Helvetica,sans-Serif" font-size="10.00" fill="#000000">/AliceO2Group/AliceO2</text>
<text text-anchor="start" x="1281" y="-129.5" font-family="Helvetica,sans-Serif" font-size="10.00" fill="#000000">/Detectors/GlobalTrackingWorkflow</text>
<text text-anchor="start" x="1281" y="-118.5" font-family="Helvetica,sans-Serif" font-size="10.00" fill="#000000">/tpcinterpolationworkflow/src</text>
<text text-anchor="middle" x="1366.5" y="-107.5" font-family="Helvetica,sans-Serif" font-size="10.00" fill="#000000">/TPCResidualWriterSpec.cxx</text>
</a>
</g>
</g>
<!-- Node62&#45;&gt;Node65 -->
<g id="edge20" class="edge">
<title>Node62&#45;&gt;Node65</title>
<path fill="none" stroke="#191970" d="M1341.6886,-191.0748C1345.5124,-181.9704 1349.5108,-172.4505 1353.1532,-163.778"/>
<polygon fill="#191970" stroke="#191970" points="1338.4345,-189.7842 1337.7891,-200.3594 1344.8884,-192.4949 1338.4345,-189.7842"/>
</g>
<!-- Node66 -->
<g id="node18" class="node">
<title>Node66</title>
<g id="a_node18"><a xlink:href="../../da/ddb/TrackResiduals_8h.html" target="_top" xlink:title="Definition of the TrackResiduals class. ">
<polygon fill="none" stroke="#000000" points="1478,-100.5 1478,-163.5 1657,-163.5 1657,-100.5 1478,-100.5"/>
<text text-anchor="start" x="1486" y="-151.5" font-family="Helvetica,sans-Serif" font-size="10.00" fill="#000000">/home/travis/build</text>
<text text-anchor="start" x="1486" y="-140.5" font-family="Helvetica,sans-Serif" font-size="10.00" fill="#000000">/AliceO2Group/AliceO2</text>
<text text-anchor="start" x="1486" y="-129.5" font-family="Helvetica,sans-Serif" font-size="10.00" fill="#000000">/Detectors/TPC/calibration</text>
<text text-anchor="start" x="1486" y="-118.5" font-family="Helvetica,sans-Serif" font-size="10.00" fill="#000000">/SpacePoints/include/SpacePoints</text>
<text text-anchor="middle" x="1567.5" y="-107.5" font-family="Helvetica,sans-Serif" font-size="10.00" fill="#000000">/TrackResiduals.h</text>
</a>
</g>
</g>
<!-- Node62&#45;&gt;Node66 -->
<g id="edge21" class="edge">
<title>Node62&#45;&gt;Node66</title>
<path fill="none" stroke="#191970" d="M1410.5859,-196.5737C1436.7834,-185.7928 1465.388,-174.0214 1490.9143,-163.5168"/>
<polygon fill="#191970" stroke="#191970" points="1408.9688,-193.4543 1401.0532,-200.4966 1411.6327,-199.9276 1408.9688,-193.4543"/>
</g>
<!-- Node62&#45;&gt;Node68 -->
<g id="edge23" class="edge">
<title>Node62&#45;&gt;Node68</title>
<path fill="none" stroke="#191970" d="M1424.0711,-201.0354C1425.5555,-200.6807 1427.0324,-200.3353 1428.5,-200 1532.3651,-176.2691 1561.3741,-186.559 1665.5,-164 1673.6702,-162.2299 1682.1218,-160.206 1690.5551,-158.055"/>
<polygon fill="#191970" stroke="#191970" points="1423.0448,-197.684 1414.1883,-203.4989 1424.738,-204.4762 1423.0448,-197.684"/>
</g>
<!-- Node63&#45;&gt;Node59 -->
<g id="edge18" class="edge">
<title>Node63&#45;&gt;Node59</title>
<path fill="none" stroke="#191970" d="M1173.3712,-94.2188C1186.614,-84.1863 1200.7797,-73.4547 1213.553,-63.778"/>
<polygon fill="#191970" stroke="#191970" points="1171.1231,-91.5309 1165.2656,-100.3594 1175.3501,-97.1106 1171.1231,-91.5309"/>
</g>
<!-- Node64 -->
<g id="node16" class="node">
<title>Node64</title>
<g id="a_node16"><a xlink:href="../../d1/d67/TrackInterpolationWorkflow_8cxx.html" target="_top" xlink:title="/home/travis/build\l/AliceO2Group/AliceO2\l/Detectors/GlobalTrackingWorkflow\l/tpcinterpolationworkflow/src\l/TrackInterpolationWorkflow.cxx">
<polygon fill="none" stroke="#000000" points="957,-.5 957,-63.5 1144,-63.5 1144,-.5 957,-.5"/>
<text text-anchor="start" x="965" y="-51.5" font-family="Helvetica,sans-Serif" font-size="10.00" fill="#000000">/home/travis/build</text>
<text text-anchor="start" x="965" y="-40.5" font-family="Helvetica,sans-Serif" font-size="10.00" fill="#000000">/AliceO2Group/AliceO2</text>
<text text-anchor="start" x="965" y="-29.5" font-family="Helvetica,sans-Serif" font-size="10.00" fill="#000000">/Detectors/GlobalTrackingWorkflow</text>
<text text-anchor="start" x="965" y="-18.5" font-family="Helvetica,sans-Serif" font-size="10.00" fill="#000000">/tpcinterpolationworkflow/src</text>
<text text-anchor="middle" x="1050.5" y="-7.5" font-family="Helvetica,sans-Serif" font-size="10.00" fill="#000000">/TrackInterpolationWorkflow.cxx</text>
</a>
</g>
</g>
<!-- Node63&#45;&gt;Node64 -->
<g id="edge19" class="edge">
<title>Node63&#45;&gt;Node64</title>
<path fill="none" stroke="#191970" d="M1094.4625,-92.2226C1087.5647,-82.7736 1080.2955,-72.8157 1073.698,-63.778"/>
<polygon fill="#191970" stroke="#191970" points="1091.6793,-94.3461 1100.4023,-100.3594 1097.3331,-90.2188 1091.6793,-94.3461"/>
</g>
<!-- Node67 -->
<g id="node19" class="node">
<title>Node67</title>
<g id="a_node19"><a xlink:href="../../d9/df0/TrackResiduals_8cxx.html" target="_top" xlink:title="Implementation of the TrackResiduals class. ">
<polygon fill="none" stroke="#000000" points="1472,-6 1472,-58 1663,-58 1663,-6 1472,-6"/>
<text text-anchor="start" x="1480" y="-46" font-family="Helvetica,sans-Serif" font-size="10.00" fill="#000000">/home/travis/build</text>
<text text-anchor="start" x="1480" y="-35" font-family="Helvetica,sans-Serif" font-size="10.00" fill="#000000">/AliceO2Group/AliceO2</text>
<text text-anchor="start" x="1480" y="-24" font-family="Helvetica,sans-Serif" font-size="10.00" fill="#000000">/Detectors/TPC/calibration</text>
<text text-anchor="middle" x="1567.5" y="-13" font-family="Helvetica,sans-Serif" font-size="10.00" fill="#000000">/SpacePoints/src/TrackResiduals.cxx</text>
</a>
</g>
</g>
<!-- Node66&#45;&gt;Node67 -->
<g id="edge22" class="edge">
<title>Node66&#45;&gt;Node67</title>
<path fill="none" stroke="#191970" d="M1567.5,-90.1631C1567.5,-79.2863 1567.5,-67.8798 1567.5,-58.078"/>
<polygon fill="#191970" stroke="#191970" points="1564.0001,-90.3593 1567.5,-100.3594 1571.0001,-90.3594 1564.0001,-90.3593"/>
</g>
<!-- Node73 -->
<g id="node25" class="node">
<title>Node73</title>
<g id="a_node25"><a xlink:href="../../d4/d2e/GPUCATracking_8cxx.html" target="_top" xlink:title="/home/travis/build\l/AliceO2Group/AliceO2\l/Detectors/TPC/reconstruction\l/src/GPUCATracking.cxx">
<polygon fill="none" stroke="#000000" points="2225,-106 2225,-158 2386,-158 2386,-106 2225,-106"/>
<text text-anchor="start" x="2233" y="-146" font-family="Helvetica,sans-Serif" font-size="10.00" fill="#000000">/home/travis/build</text>
<text text-anchor="start" x="2233" y="-135" font-family="Helvetica,sans-Serif" font-size="10.00" fill="#000000">/AliceO2Group/AliceO2</text>
<text text-anchor="start" x="2233" y="-124" font-family="Helvetica,sans-Serif" font-size="10.00" fill="#000000">/Detectors/TPC/reconstruction</text>
<text text-anchor="middle" x="2305.5" y="-113" font-family="Helvetica,sans-Serif" font-size="10.00" fill="#000000">/src/GPUCATracking.cxx</text>
</a>
</g>
</g>
<!-- Node72&#45;&gt;Node73 -->
<g id="edge29" class="edge">
<title>Node72&#45;&gt;Node73</title>
<path fill="none" stroke="#191970" d="M2227.5818,-193.8399C2242.6336,-181.8939 2258.891,-168.9913 2272.6418,-158.078"/>
<polygon fill="#191970" stroke="#191970" points="2225.0243,-191.4012 2219.3672,-200.3594 2229.3759,-196.8843 2225.0243,-191.4012"/>
</g>
<!-- Node72&#45;&gt;Node74 -->
<g id="edge30" class="edge">
<title>Node72&#45;&gt;Node74</title>
<path fill="none" stroke="#191970" d="M2269.5835,-201.5669C2271.2347,-201.0381 2272.8747,-200.5153 2274.5,-200 2327.9834,-183.042 2342.191,-181.4987 2395.5,-164 2401.2723,-162.1052 2407.2352,-160.0897 2413.213,-158.0279"/>
<polygon fill="#191970" stroke="#191970" points="2268.4683,-198.249 2260.0281,-204.6533 2270.6198,-204.9102 2268.4683,-198.249"/>
</g>
<!-- Node75 -->
<g id="node27" class="node">
<title>Node75</title>
<g id="a_node27"><a xlink:href="../../da/d78/CATrackerSpec_8cxx.html" target="_top" xlink:title="Processor spec for running TPC CA tracking. ">
<polygon fill="none" stroke="#000000" points="2070.5,-106 2070.5,-158 2206.5,-158 2206.5,-106 2070.5,-106"/>
<text text-anchor="start" x="2078.5" y="-146" font-family="Helvetica,sans-Serif" font-size="10.00" fill="#000000">/home/travis/build</text>
<text text-anchor="start" x="2078.5" y="-135" font-family="Helvetica,sans-Serif" font-size="10.00" fill="#000000">/AliceO2Group/AliceO2</text>
<text text-anchor="start" x="2078.5" y="-124" font-family="Helvetica,sans-Serif" font-size="10.00" fill="#000000">/Detectors/TPC/workflow</text>
<text text-anchor="middle" x="2138.5" y="-113" font-family="Helvetica,sans-Serif" font-size="10.00" fill="#000000">/src/CATrackerSpec.cxx</text>
</a>
</g>
</g>
<!-- Node72&#45;&gt;Node75 -->
<g id="edge31" class="edge">
<title>Node72&#45;&gt;Node75</title>
<path fill="none" stroke="#191970" d="M2162.6224,-190.8352C2158.0805,-179.7573 2153.2936,-168.0819 2149.192,-158.078"/>
<polygon fill="#191970" stroke="#191970" points="2159.4954,-192.4346 2166.5273,-200.3594 2165.9721,-189.7791 2159.4954,-192.4346"/>
</g>
<!-- Node76&#45;&gt;Node57 -->
<g id="edge34" class="edge">
<title>Node76&#45;&gt;Node57</title>
<path fill="none" stroke="#191970" d="M786.0371,-94.9982C766.657,-82.7323 745.5051,-69.345 727.7032,-58.078"/>
<polygon fill="#191970" stroke="#191970" points="784.1862,-97.9688 794.5078,-100.3594 787.9298,-92.0539 784.1862,-97.9688"/>
</g>
<!-- Node76&#45;&gt;Node64 -->
<g id="edge35" class="edge">
<title>Node76&#45;&gt;Node64</title>
<path fill="none" stroke="#191970" d="M918.6489,-96.0054C940.5368,-85.3802 964.3155,-73.8371 985.5755,-63.5168"/>
<polygon fill="#191970" stroke="#191970" points="916.8645,-92.9809 909.3969,-100.4966 919.9215,-99.2782 916.8645,-92.9809"/>
</g>
<!-- Node77 -->
<g id="node29" class="node">
<title>Node77</title>
<g id="a_node29"><a xlink:href="../../d4/d3e/TPC_2workflow_2src_2TrackReaderSpec_8cxx.html" target="_top" xlink:title="/home/travis/build\l/AliceO2Group/AliceO2\l/Detectors/TPC/workflow\l/src/TrackReaderSpec.cxx">
<polygon fill="none" stroke="#000000" points="798.5,-6 798.5,-58 938.5,-58 938.5,-6 798.5,-6"/>
<text text-anchor="start" x="806.5" y="-46" font-family="Helvetica,sans-Serif" font-size="10.00" fill="#000000">/home/travis/build</text>
<text text-anchor="start" x="806.5" y="-35" font-family="Helvetica,sans-Serif" font-size="10.00" fill="#000000">/AliceO2Group/AliceO2</text>
<text text-anchor="start" x="806.5" y="-24" font-family="Helvetica,sans-Serif" font-size="10.00" fill="#000000">/Detectors/TPC/workflow</text>
<text text-anchor="middle" x="868.5" y="-13" font-family="Helvetica,sans-Serif" font-size="10.00" fill="#000000">/src/TrackReaderSpec.cxx</text>
</a>
</g>
</g>
<!-- Node76&#45;&gt;Node77 -->
<g id="edge36" class="edge">
<title>Node76&#45;&gt;Node77</title>
<path fill="none" stroke="#191970" d="M854.4602,-90.4993C857.0948,-79.5216 859.8646,-67.9808 862.2413,-58.078"/>
<polygon fill="#191970" stroke="#191970" points="851.0242,-89.8187 852.0938,-100.3594 857.8309,-91.4523 851.0242,-89.8187"/>
</g>
</g>
</svg>
