<?xml version="1.0" encoding="UTF-8" standalone="no"?>
<!DOCTYPE svg PUBLIC "-//W3C//DTD SVG 1.1//EN"
 "http://www.w3.org/Graphics/SVG/1.1/DTD/svg11.dtd">
<!-- Generated by graphviz version 2.40.1 (20161225.0304)
 -->
<!-- Title: /home/travis/build/AliceO2Group/AliceO2/Framework/Core/src/SimpleOptionsRetriever.cxx Pages: 1 -->
<!--zoomable 307 -->
<svg id="main" version="1.1" xmlns="http://www.w3.org/2000/svg" xmlns:xlink="http://www.w3.org/1999/xlink" xml:space="preserve" onload="init(evt)">
<style type="text/css"><![CDATA[
.edge:hover path { stroke: red; }
.edge:hover polygon { stroke: red; fill: red; }
]]></style>
<script type="text/javascript"><![CDATA[
var edges = document.getElementsByTagName('g');
if (edges && edges.length) {
  for (var i=0;i<edges.length;i++) {
    if (edges[i].id.substr(0,4)=='edge') {
      edges[i].setAttribute('class','edge');
    }
  }
}
]]></script>
        <defs>
                <circle id="rim" cx="0" cy="0" r="7"/>
                <circle id="rim2" cx="0" cy="0" r="3.5"/>
                <g id="zoomPlus">
                        <use xlink:href="#rim" fill="#404040">
                                <set attributeName="fill" to="#808080" begin="zoomplus.mouseover" end="zoomplus.mouseout"/>
                        </use>
                        <path d="M-4,0h8M0,-4v8" fill="none" stroke="white" stroke-width="1.5" pointer-events="none"/>
                </g>
                <g id="zoomMin">
                        <use xlink:href="#rim" fill="#404040">
                                <set attributeName="fill" to="#808080" begin="zoomminus.mouseover" end="zoomminus.mouseout"/>
                        </use>
                        <path d="M-4,0h8" fill="none" stroke="white" stroke-width="1.5" pointer-events="none"/>
                </g>
                <g id="dirArrow">
                        <path fill="none" stroke="white" stroke-width="1.5" d="M0,-3.0v7 M-2.5,-0.5L0,-3.0L2.5,-0.5"/>
                </g>
               <g id="resetDef">
                       <use xlink:href="#rim2" fill="#404040">
                               <set attributeName="fill" to="#808080" begin="reset.mouseover" end="reset.mouseout"/>
                       </use>
               </g>
        </defs>

<script type="text/javascript">
var viewWidth = 903;
var viewHeight = 307;
var sectionId = 'dynsection-0';
</script>
<script xlink:href="../../svgpan.js"/>
<svg id="graph" class="graph">
<g id="viewport">
<title>/home/travis/build/AliceO2Group/AliceO2/Framework/Core/src/SimpleOptionsRetriever.cxx</title>
<!-- Node0 -->
<g id="node1" class="node">
<title>Node0</title>
<polygon fill="#bfbfbf" stroke="#000000" points="451,-246.5 451,-298.5 642,-298.5 642,-246.5 451,-246.5"/>
<text text-anchor="start" x="459" y="-286.5" font-family="Helvetica,sans-Serif" font-size="10.00" fill="#000000">/home/travis/build</text>
<text text-anchor="start" x="459" y="-275.5" font-family="Helvetica,sans-Serif" font-size="10.00" fill="#000000">/AliceO2Group/AliceO2</text>
<text text-anchor="start" x="459" y="-264.5" font-family="Helvetica,sans-Serif" font-size="10.00" fill="#000000">/Framework/Core/src/SimpleOptions</text>
<text text-anchor="middle" x="546.5" y="-253.5" font-family="Helvetica,sans-Serif" font-size="10.00" fill="#000000">Retriever.cxx</text>
</g>
<!-- Node1 -->
<g id="node2" class="node">
<title>Node1</title>
<g id="a_node2"><a xlink:href="../../dd/d34/SimpleOptionsRetriever_8h.html" target="_top" xlink:title="Framework/SimpleOptionsRetriever.h">
<polygon fill="none" stroke="#000000" points="57,-190.5 57,-209.5 254,-209.5 254,-190.5 57,-190.5"/>
<text text-anchor="middle" x="155.5" y="-197.5" font-family="Helvetica,sans-Serif" font-size="10.00" fill="#000000">Framework/SimpleOptionsRetriever.h</text>
</a>
</g>
</g>
<!-- Node0&#45;&gt;Node1 -->
<g id="edge1" class="edge">
<title>Node0&#45;&gt;Node1</title>
<path fill="none" stroke="#191970" d="M450.8506,-254.7645C377.9286,-241.2432 279.6708,-223.024 216.9385,-211.3921"/>
<polygon fill="#191970" stroke="#191970" points="217.2729,-207.8945 206.8024,-209.5126 215.9967,-214.7772 217.2729,-207.8945"/>
</g>
<!-- Node4 -->
<g id="node5" class="node">
<title>Node4</title>
<polygon fill="none" stroke="#bfbfbf" points="216.5,-.5 216.5,-19.5 260.5,-19.5 260.5,-.5 216.5,-.5"/>
<text text-anchor="middle" x="238.5" y="-7.5" font-family="Helvetica,sans-Serif" font-size="10.00" fill="#000000">string</text>
</g>
<!-- Node0&#45;&gt;Node4 -->
<g id="edge23" class="edge">
<title>Node0&#45;&gt;Node4</title>
<path fill="none" stroke="#191970" d="M557.4585,-246.3006C568.9964,-214.155 582.2278,-159.4461 556.5,-123 552.156,-116.8462 349.476,-47.6233 270.0002,-20.6596"/>
<polygon fill="#191970" stroke="#191970" points="271.0983,-17.3363 260.504,-17.44 268.8507,-23.9656 271.0983,-17.3363"/>
</g>
<!-- Node5 -->
<g id="node6" class="node">
<title>Node5</title>
<polygon fill="none" stroke="#bfbfbf" points="0,-62 0,-81 47,-81 47,-62 0,-62"/>
<text text-anchor="middle" x="23.5" y="-69" font-family="Helvetica,sans-Serif" font-size="10.00" fill="#000000">vector</text>
</g>
<!-- Node0&#45;&gt;Node5 -->
<g id="edge24" class="edge">
<title>Node0&#45;&gt;Node5</title>
<path fill="none" stroke="#191970" d="M450.7616,-269.7945C325.2047,-264.6856 113.1566,-250.2183 47.5,-210 21.8514,-194.2888 18.3341,-182.7515 9.5,-154 2.9984,-132.8397 9.1964,-107.6411 15.2795,-90.7082"/>
<polygon fill="#191970" stroke="#191970" points="18.5592,-91.9313 18.9376,-81.3432 12.039,-89.3843 18.5592,-91.9313"/>
</g>
<!-- Node6 -->
<g id="node7" class="node">
<title>Node6</title>
<g id="a_node7"><a xlink:href="../../d0/d1c/ConfigParamSpec_8h.html" target="_top" xlink:title="Framework/ConfigParamSpec.h">
<polygon fill="none" stroke="#000000" points="380,-129 380,-148 547,-148 547,-129 380,-129"/>
<text text-anchor="middle" x="463.5" y="-136" font-family="Helvetica,sans-Serif" font-size="10.00" fill="#000000">Framework/ConfigParamSpec.h</text>
</a>
</g>
</g>
<!-- Node0&#45;&gt;Node6 -->
<g id="edge6" class="edge">
<title>Node0&#45;&gt;Node6</title>
<path fill="none" stroke="#191970" d="M530.2997,-246.3453C513.9629,-219.9703 489.1677,-179.9394 474.8288,-156.7899"/>
<polygon fill="#191970" stroke="#191970" points="477.7882,-154.9209 469.547,-148.2626 471.8373,-158.607 477.7882,-154.9209"/>
</g>
<!-- Node9 -->
<g id="node10" class="node">
<title>Node9</title>
<polygon fill="none" stroke="#bfbfbf" points="777.5,-.5 777.5,-19.5 827.5,-19.5 827.5,-.5 777.5,-.5"/>
<text text-anchor="middle" x="802.5" y="-7.5" font-family="Helvetica,sans-Serif" font-size="10.00" fill="#000000">cstring</text>
</g>
<!-- Node0&#45;&gt;Node9 -->
<g id="edge26" class="edge">
<title>Node0&#45;&gt;Node9</title>
<path fill="none" stroke="#191970" d="M564.1373,-246.4721C602.6284,-189.7237 691.0904,-59.6174 695.5,-56 707.1259,-46.4628 741.3609,-32.4803 768.0091,-22.4371"/>
<polygon fill="#191970" stroke="#191970" points="769.2772,-25.6998 777.4277,-18.9308 766.8349,-19.1396 769.2772,-25.6998"/>
</g>
<!-- Node11 -->
<g id="node12" class="node">
<title>Node11</title>
<polygon fill="none" stroke="#bfbfbf" points="846,-.5 846,-19.5 895,-19.5 895,-.5 846,-.5"/>
<text text-anchor="middle" x="870.5" y="-7.5" font-family="Helvetica,sans-Serif" font-size="10.00" fill="#000000">cstdlib</text>
</g>
<!-- Node0&#45;&gt;Node11 -->
<g id="edge25" class="edge">
<title>Node0&#45;&gt;Node11</title>
<path fill="none" stroke="#191970" d="M578.7509,-246.3708C645.4501,-192.3321 796.8341,-69.683 850.8745,-25.9003"/>
<polygon fill="#191970" stroke="#191970" points="853.1174,-28.5877 858.684,-19.5731 848.7108,-23.1488 853.1174,-28.5877"/>
</g>
<!-- Node16 -->
<g id="node17" class="node">
<title>Node16</title>
<g id="a_node17"><a xlink:href="../../da/d3e/PropertyTreeHelpers_8h.html" target="_top" xlink:title="PropertyTreeHelpers.h">
<polygon fill="none" stroke="#000000" points="272,-190.5 272,-209.5 397,-209.5 397,-190.5 272,-190.5"/>
<text text-anchor="middle" x="334.5" y="-197.5" font-family="Helvetica,sans-Serif" font-size="10.00" fill="#000000">PropertyTreeHelpers.h</text>
</a>
</g>
</g>
<!-- Node0&#45;&gt;Node16 -->
<g id="edge18" class="edge">
<title>Node0&#45;&gt;Node16</title>
<path fill="none" stroke="#191970" d="M470.2626,-246.4283C436.8539,-235.0031 399.1527,-222.11 371.9726,-212.8149"/>
<polygon fill="#191970" stroke="#191970" points="373.0569,-209.4868 362.4623,-209.5626 370.7917,-216.1102 373.0569,-209.4868"/>
</g>
<!-- Node18 -->
<g id="node19" class="node">
<title>Node18</title>
<polygon fill="none" stroke="#bfbfbf" points="737.5,-190.5 737.5,-209.5 887.5,-209.5 887.5,-190.5 737.5,-190.5"/>
<text text-anchor="middle" x="812.5" y="-197.5" font-family="Helvetica,sans-Serif" font-size="10.00" fill="#000000">boost/program_options.hpp</text>
</g>
<!-- Node0&#45;&gt;Node18 -->
<g id="edge22" class="edge">
<title>Node0&#45;&gt;Node18</title>
<path fill="none" stroke="#191970" d="M642.1563,-246.4283C684.9941,-234.7525 733.4565,-221.5438 767.7069,-212.2086"/>
<polygon fill="#191970" stroke="#191970" points="768.6876,-215.5691 777.4152,-209.5626 766.8468,-208.8155 768.6876,-215.5691"/>
</g>
<!-- Node2 -->
<g id="node3" class="node">
<title>Node2</title>
<g id="a_node3"><a xlink:href="../../df/d72/ParamRetriever_8h.html" target="_top" xlink:title="Framework/ParamRetriever.h">
<polygon fill="none" stroke="#000000" points="19,-129 19,-148 176,-148 176,-129 19,-129"/>
<text text-anchor="middle" x="97.5" y="-136" font-family="Helvetica,sans-Serif" font-size="10.00" fill="#000000">Framework/ParamRetriever.h</text>
</a>
</g>
</g>
<!-- Node1&#45;&gt;Node2 -->
<g id="edge2" class="edge">
<title>Node1&#45;&gt;Node2</title>
<path fill="none" stroke="#191970" d="M146.4375,-190.3906C137.7207,-181.1478 124.346,-166.966 113.7804,-155.7628"/>
<polygon fill="#191970" stroke="#191970" points="116.0976,-153.1186 106.6903,-148.2449 111.005,-157.9213 116.0976,-153.1186"/>
</g>
<!-- Node3 -->
<g id="node4" class="node">
<title>Node3</title>
<polygon fill="none" stroke="#bfbfbf" points="137,-56.5 137,-86.5 250,-86.5 250,-56.5 137,-56.5"/>
<text text-anchor="start" x="145" y="-74.5" font-family="Helvetica,sans-Serif" font-size="10.00" fill="#000000">boost/property_tree</text>
<text text-anchor="middle" x="193.5" y="-63.5" font-family="Helvetica,sans-Serif" font-size="10.00" fill="#000000">/ptree.hpp</text>
</g>
<!-- Node2&#45;&gt;Node3 -->
<g id="edge3" class="edge">
<title>Node2&#45;&gt;Node3</title>
<path fill="none" stroke="#191970" d="M111.2545,-128.9005C124.8882,-119.3853 146.2131,-104.5023 163.7321,-92.2755"/>
<polygon fill="#191970" stroke="#191970" points="165.779,-95.1151 171.9763,-86.5218 161.7728,-89.3748 165.779,-95.1151"/>
</g>
<!-- Node2&#45;&gt;Node4 -->
<g id="edge4" class="edge">
<title>Node2&#45;&gt;Node4</title>
<path fill="none" stroke="#191970" d="M98.497,-128.7817C100.7246,-111.8612 107.5861,-76.812 127.5,-56 148.5734,-33.9761 181.7547,-22.1073 206.3555,-15.9762"/>
<polygon fill="#191970" stroke="#191970" points="207.3514,-19.3386 216.313,-13.687 205.783,-12.5166 207.3514,-19.3386"/>
</g>
<!-- Node2&#45;&gt;Node5 -->
<g id="edge5" class="edge">
<title>Node2&#45;&gt;Node5</title>
<path fill="none" stroke="#191970" d="M86.8976,-128.9005C75.1381,-118.2535 55.9557,-100.8856 41.7664,-88.0385"/>
<polygon fill="#191970" stroke="#191970" points="43.8449,-85.1989 34.0827,-81.0817 39.1466,-90.388 43.8449,-85.1989"/>
</g>
<!-- Node6&#45;&gt;Node4 -->
<g id="edge17" class="edge">
<title>Node6&#45;&gt;Node4</title>
<path fill="none" stroke="#191970" d="M446.5884,-128.8416C407.4828,-106.508 310.6064,-51.1807 264.1494,-24.6486"/>
<polygon fill="#191970" stroke="#191970" points="265.7203,-21.5153 255.3009,-19.5952 262.2487,-27.5938 265.7203,-21.5153"/>
</g>
<!-- Node7 -->
<g id="node8" class="node">
<title>Node7</title>
<g id="a_node8"><a xlink:href="../../de/d56/Variant_8h.html" target="_top" xlink:title="Framework/Variant.h">
<polygon fill="none" stroke="#000000" points="526,-62 526,-81 643,-81 643,-62 526,-62"/>
<text text-anchor="middle" x="584.5" y="-69" font-family="Helvetica,sans-Serif" font-size="10.00" fill="#000000">Framework/Variant.h</text>
</a>
</g>
</g>
<!-- Node6&#45;&gt;Node7 -->
<g id="edge7" class="edge">
<title>Node6&#45;&gt;Node7</title>
<path fill="none" stroke="#191970" d="M480.8363,-128.9005C501.053,-117.7062 534.6872,-99.0823 558.1424,-86.0947"/>
<polygon fill="#191970" stroke="#191970" points="560.1429,-88.9878 567.1958,-81.0817 556.7519,-82.8639 560.1429,-88.9878"/>
</g>
<!-- Node7&#45;&gt;Node4 -->
<g id="edge16" class="edge">
<title>Node7&#45;&gt;Node4</title>
<path fill="none" stroke="#191970" d="M541.7399,-61.9606C531.8339,-59.8787 521.3178,-57.7708 511.5,-56 407.6228,-37.2639 377.1516,-44.3255 270.5885,-19.9482"/>
<polygon fill="#191970" stroke="#191970" points="271.2609,-16.5112 260.7278,-17.6535 269.6743,-23.329 271.2609,-16.5112"/>
</g>
<!-- Node8 -->
<g id="node9" class="node">
<title>Node8</title>
<polygon fill="none" stroke="#bfbfbf" points="279,-.5 279,-19.5 348,-19.5 348,-.5 279,-.5"/>
<text text-anchor="middle" x="313.5" y="-7.5" font-family="Helvetica,sans-Serif" font-size="10.00" fill="#000000">type_traits</text>
</g>
<!-- Node7&#45;&gt;Node8 -->
<g id="edge8" class="edge">
<title>Node7&#45;&gt;Node8</title>
<path fill="none" stroke="#191970" d="M542.2435,-61.9182C498.7038,-52.0444 428.5868,-36.1402 358.0413,-20.1223"/>
<polygon fill="#191970" stroke="#191970" points="358.6137,-16.6632 348.0869,-17.862 357.0636,-23.4895 358.6137,-16.6632"/>
</g>
<!-- Node7&#45;&gt;Node9 -->
<g id="edge9" class="edge">
<title>Node7&#45;&gt;Node9</title>
<path fill="none" stroke="#191970" d="M619.1291,-61.9537C654.1189,-52.2757 709.9928,-36.7335 767.3027,-20.3201"/>
<polygon fill="#191970" stroke="#191970" points="768.6126,-23.5856 777.2597,-17.4637 766.6823,-16.8569 768.6126,-23.5856"/>
</g>
<!-- Node10 -->
<g id="node11" class="node">
<title>Node10</title>
<polygon fill="none" stroke="#bfbfbf" points="366.5,-.5 366.5,-19.5 416.5,-19.5 416.5,-.5 366.5,-.5"/>
<text text-anchor="middle" x="391.5" y="-7.5" font-family="Helvetica,sans-Serif" font-size="10.00" fill="#000000">cstdint</text>
</g>
<!-- Node7&#45;&gt;Node10 -->
<g id="edge10" class="edge">
<title>Node7&#45;&gt;Node10</title>
<path fill="none" stroke="#191970" d="M554.3438,-61.8906C519.651,-50.8357 462.7851,-32.7152 426.2606,-21.0766"/>
<polygon fill="#191970" stroke="#191970" points="427.1241,-17.6784 416.5335,-17.977 424.9988,-24.348 427.1241,-17.6784"/>
</g>
<!-- Node7&#45;&gt;Node11 -->
<g id="edge11" class="edge">
<title>Node7&#45;&gt;Node11</title>
<path fill="none" stroke="#191970" d="M637.8888,-61.9446C686.8991,-52.8676 761.6978,-38.2486 835.7204,-20.0365"/>
<polygon fill="#191970" stroke="#191970" points="836.8223,-23.3693 845.6837,-17.5619 835.1349,-16.5757 836.8223,-23.3693"/>
</g>
<!-- Node12 -->
<g id="node13" class="node">
<title>Node12</title>
<polygon fill="none" stroke="#bfbfbf" points="435,-.5 435,-19.5 500,-19.5 500,-.5 435,-.5"/>
<text text-anchor="middle" x="467.5" y="-7.5" font-family="Helvetica,sans-Serif" font-size="10.00" fill="#000000">stdexcept</text>
</g>
<!-- Node7&#45;&gt;Node12 -->
<g id="edge12" class="edge">
<title>Node7&#45;&gt;Node12</title>
<path fill="none" stroke="#191970" d="M566.2188,-61.8906C546.9859,-51.7811 516.5121,-35.7628 494.5075,-24.1962"/>
<polygon fill="#191970" stroke="#191970" points="496.133,-21.0967 485.6529,-19.5419 492.876,-27.2928 496.133,-21.0967"/>
</g>
<!-- Node13 -->
<g id="node14" class="node">
<title>Node13</title>
<polygon fill="none" stroke="#bfbfbf" points="518,-.5 518,-19.5 567,-19.5 567,-.5 518,-.5"/>
<text text-anchor="middle" x="542.5" y="-7.5" font-family="Helvetica,sans-Serif" font-size="10.00" fill="#000000">iosfwd</text>
</g>
<!-- Node7&#45;&gt;Node13 -->
<g id="edge13" class="edge">
<title>Node7&#45;&gt;Node13</title>
<path fill="none" stroke="#191970" d="M577.9375,-61.8906C571.8092,-52.917 562.5015,-39.2879 554.9628,-28.2491"/>
<polygon fill="#191970" stroke="#191970" points="557.685,-26.029 549.155,-19.7449 551.9044,-29.9768 557.685,-26.029"/>
</g>
<!-- Node14 -->
<g id="node15" class="node">
<title>Node14</title>
<polygon fill="none" stroke="#bfbfbf" points="585,-.5 585,-19.5 668,-19.5 668,-.5 585,-.5"/>
<text text-anchor="middle" x="626.5" y="-7.5" font-family="Helvetica,sans-Serif" font-size="10.00" fill="#000000">initializer_list</text>
</g>
<!-- Node7&#45;&gt;Node14 -->
<g id="edge14" class="edge">
<title>Node7&#45;&gt;Node14</title>
<path fill="none" stroke="#191970" d="M591.0625,-61.8906C597.1908,-52.917 606.4985,-39.2879 614.0372,-28.2491"/>
<polygon fill="#191970" stroke="#191970" points="617.0956,-29.9768 619.845,-19.7449 611.315,-26.029 617.0956,-29.9768"/>
</g>
<!-- Node15 -->
<g id="node16" class="node">
<title>Node15</title>
<polygon fill="none" stroke="#bfbfbf" points="686,-.5 686,-19.5 759,-19.5 759,-.5 686,-.5"/>
<text text-anchor="middle" x="722.5" y="-7.5" font-family="Helvetica,sans-Serif" font-size="10.00" fill="#000000">string_view</text>
</g>
<!-- Node7&#45;&gt;Node15 -->
<g id="edge15" class="edge">
<title>Node7&#45;&gt;Node15</title>
<path fill="none" stroke="#191970" d="M606.0625,-61.8906C629.0512,-51.6457 665.656,-35.3326 691.6824,-23.7339"/>
<polygon fill="#191970" stroke="#191970" points="693.3796,-26.8095 701.0889,-19.5419 690.5302,-20.4156 693.3796,-26.8095"/>
</g>
<!-- Node16&#45;&gt;Node3 -->
<g id="edge20" class="edge">
<title>Node16&#45;&gt;Node3</title>
<path fill="none" stroke="#191970" d="M289.5623,-190.498C267.1284,-183.6968 241.0942,-172.3878 223.5,-154 208.509,-138.3329 200.9147,-114.5978 197.1258,-96.6018"/>
<polygon fill="#191970" stroke="#191970" points="200.5219,-95.7178 195.2668,-86.5181 193.6379,-96.987 200.5219,-95.7178"/>
</g>
<!-- Node16&#45;&gt;Node6 -->
<g id="edge19" class="edge">
<title>Node16&#45;&gt;Node6</title>
<path fill="none" stroke="#191970" d="M354.6563,-190.3906C376.051,-180.1908 410.062,-163.9763 434.3702,-152.3875"/>
<polygon fill="#191970" stroke="#191970" points="435.9648,-155.5047 443.4853,-148.0419 432.9524,-149.186 435.9648,-155.5047"/>
</g>
<!-- Node17 -->
<g id="node18" class="node">
<title>Node17</title>
<polygon fill="none" stroke="#bfbfbf" points="233,-123.5 233,-153.5 362,-153.5 362,-123.5 233,-123.5"/>
<text text-anchor="start" x="241" y="-141.5" font-family="Helvetica,sans-Serif" font-size="10.00" fill="#000000">boost/program_options</text>
<text text-anchor="middle" x="297.5" y="-130.5" font-family="Helvetica,sans-Serif" font-size="10.00" fill="#000000">/variables_map.hpp</text>
</g>
<!-- Node16&#45;&gt;Node17 -->
<g id="edge21" class="edge">
<title>Node16&#45;&gt;Node17</title>
<path fill="none" stroke="#191970" d="M328.7188,-190.3906C324.1749,-182.838 317.647,-171.9876 311.7341,-162.1593"/>
<polygon fill="#191970" stroke="#191970" points="314.7055,-160.309 306.5512,-153.5446 308.7074,-163.9177 314.7055,-160.309"/>
</g>
</g>
</svg>
        <g id="navigator" transform="translate(0 0)" fill="#404254">
                <rect fill="#f2f5e9" fill-opacity="0.5" stroke="#606060" stroke-width=".5" x="0" y="0" width="60" height="60"/>
                <use id="zoomplus" xlink:href="#zoomPlus" x="17" y="9" onmousedown="handleZoom(evt,'in')"/>
                <use id="zoomminus" xlink:href="#zoomMin" x="42" y="9" onmousedown="handleZoom(evt,'out')"/>
                <use id="reset" xlink:href="#resetDef" x="30" y="36" onmousedown="handleReset()"/>
                <g id="arrowUp" xlink:href="#dirArrow" transform="translate(30 24)" onmousedown="handlePan(0,-1)">
                  <use xlink:href="#rim" fill="#404040">
                        <set attributeName="fill" to="#808080" begin="arrowUp.mouseover" end="arrowUp.mouseout"/>
                  </use>
                  <path fill="none" stroke="white" stroke-width="1.5" d="M0,-3.0v7 M-2.5,-0.5L0,-3.0L2.5,-0.5"/>
                </g>
                <g id="arrowRight" xlink:href="#dirArrow" transform="rotate(90) translate(36 -43)" onmousedown="handlePan(1,0)">
                  <use xlink:href="#rim" fill="#404040">
                        <set attributeName="fill" to="#808080" begin="arrowRight.mouseover" end="arrowRight.mouseout"/>
                  </use>
                  <path fill="none" stroke="white" stroke-width="1.5" d="M0,-3.0v7 M-2.5,-0.5L0,-3.0L2.5,-0.5"/>
                </g>
                <g id="arrowDown" xlink:href="#dirArrow" transform="rotate(180) translate(-30 -48)" onmousedown="handlePan(0,1)">
                  <use xlink:href="#rim" fill="#404040">
                        <set attributeName="fill" to="#808080" begin="arrowDown.mouseover" end="arrowDown.mouseout"/>
                  </use>
                  <path fill="none" stroke="white" stroke-width="1.5" d="M0,-3.0v7 M-2.5,-0.5L0,-3.0L2.5,-0.5"/>
                </g>
                <g id="arrowLeft" xlink:href="#dirArrow" transform="rotate(270) translate(-36 17)" onmousedown="handlePan(-1,0)">
                  <use xlink:href="#rim" fill="#404040">
                        <set attributeName="fill" to="#808080" begin="arrowLeft.mouseover" end="arrowLeft.mouseout"/>
                  </use>
                  <path fill="none" stroke="white" stroke-width="1.5" d="M0,-3.0v7 M-2.5,-0.5L0,-3.0L2.5,-0.5"/>
                </g>
        </g>
        <svg viewBox="0 0 15 15" width="100%" height="30px" preserveAspectRatio="xMaxYMin meet">
         <g id="arrow_out" transform="scale(0.3 0.3)">
          <a xlink:href="SimpleOptionsRetriever_8cxx__incl_org.svg" target="_base">
           <rect id="button" ry="5" rx="5" y="6" x="6" height="38" width="38"
                fill="#f2f5e9" fill-opacity="0.5" stroke="#606060" stroke-width="1.0"/>
           <path id="arrow"
             d="M 11.500037,31.436501 C 11.940474,20.09759 22.043105,11.32322 32.158766,21.979434 L 37.068811,17.246167 C 37.068811,17.246167 37.088388,32 37.088388,32 L 22.160133,31.978069 C 22.160133,31.978069 26.997745,27.140456 26.997745,27.140456 C 18.528582,18.264221 13.291696,25.230495 11.500037,31.436501 z"
             style="fill:#404040;"/>
          </a>
         </g>
        </svg>
</svg>
