<?xml version="1.0" encoding="UTF-8" standalone="no"?>
<!DOCTYPE svg PUBLIC "-//W3C//DTD SVG 1.1//EN"
 "http://www.w3.org/Graphics/SVG/1.1/DTD/svg11.dtd">
<!-- Generated by graphviz version 2.40.1 (20161225.0304)
 -->
<!-- Title: /home/travis/build/AliceO2Group/AliceO2/Detectors/MUON/MID/Raw/include/MIDRaw/ColumnDataToLocalBoard.h Pages: 1 -->
<svg width="763pt" height="184pt"
 viewBox="0.00 0.00 762.50 184.00" xmlns="http://www.w3.org/2000/svg" xmlns:xlink="http://www.w3.org/1999/xlink">
<g id="graph0" class="graph" transform="scale(1 1) rotate(0) translate(4 180)">
<title>/home/travis/build/AliceO2Group/AliceO2/Detectors/MUON/MID/Raw/include/MIDRaw/ColumnDataToLocalBoard.h</title>
<!-- Node0 -->
<g id="node1" class="node">
<title>Node0</title>
<polygon fill="#bfbfbf" stroke="#000000" points="348,-112.5 348,-175.5 545,-175.5 545,-112.5 348,-112.5"/>
<text text-anchor="start" x="356" y="-163.5" font-family="Helvetica,sans-Serif" font-size="10.00" fill="#000000">/home/travis/build</text>
<text text-anchor="start" x="356" y="-152.5" font-family="Helvetica,sans-Serif" font-size="10.00" fill="#000000">/AliceO2Group/AliceO2</text>
<text text-anchor="start" x="356" y="-141.5" font-family="Helvetica,sans-Serif" font-size="10.00" fill="#000000">/Detectors/MUON/MID/Raw</text>
<text text-anchor="start" x="356" y="-130.5" font-family="Helvetica,sans-Serif" font-size="10.00" fill="#000000">/include/MIDRaw/ColumnDataToLocal</text>
<text text-anchor="middle" x="446.5" y="-119.5" font-family="Helvetica,sans-Serif" font-size="10.00" fill="#000000">Board.h</text>
</g>
<!-- Node1 -->
<g id="node2" class="node">
<title>Node1</title>
<polygon fill="none" stroke="#bfbfbf" points="273.5,-.5 273.5,-19.5 323.5,-19.5 323.5,-.5 273.5,-.5"/>
<text text-anchor="middle" x="298.5" y="-7.5" font-family="Helvetica,sans-Serif" font-size="10.00" fill="#000000">cstdint</text>
</g>
<!-- Node0&#45;&gt;Node1 -->
<g id="edge1" class="edge">
<title>Node0&#45;&gt;Node1</title>
<path fill="none" stroke="#191970" d="M411.4261,-112.2439C381.605,-85.2437 339.9936,-47.5685 316.5046,-26.3015"/>
<polygon fill="#191970" stroke="#191970" points="318.7633,-23.625 309.0011,-19.5078 314.065,-28.8141 318.7633,-23.625"/>
</g>
<!-- Node2 -->
<g id="node3" class="node">
<title>Node2</title>
<polygon fill="none" stroke="#bfbfbf" points="530,-56.5 530,-75.5 577,-75.5 577,-56.5 530,-56.5"/>
<text text-anchor="middle" x="553.5" y="-63.5" font-family="Helvetica,sans-Serif" font-size="10.00" fill="#000000">vector</text>
</g>
<!-- Node0&#45;&gt;Node2 -->
<g id="edge2" class="edge">
<title>Node0&#45;&gt;Node2</title>
<path fill="none" stroke="#191970" d="M489.7126,-112.4992C504.2744,-101.8841 519.8929,-90.4986 532.0304,-81.6507"/>
<polygon fill="#191970" stroke="#191970" points="534.1692,-84.4229 540.1883,-75.7039 530.0457,-78.7663 534.1692,-84.4229"/>
</g>
<!-- Node3 -->
<g id="node4" class="node">
<title>Node3</title>
<polygon fill="none" stroke="#bfbfbf" points="595,-56.5 595,-75.5 688,-75.5 688,-56.5 595,-56.5"/>
<text text-anchor="middle" x="641.5" y="-63.5" font-family="Helvetica,sans-Serif" font-size="10.00" fill="#000000">unordered_map</text>
</g>
<!-- Node0&#45;&gt;Node3 -->
<g id="edge3" class="edge">
<title>Node0&#45;&gt;Node3</title>
<path fill="none" stroke="#191970" d="M525.2519,-112.4992C554.164,-100.9344 585.3618,-88.4553 608.1517,-79.3393"/>
<polygon fill="#191970" stroke="#191970" points="609.6973,-82.4908 617.6822,-75.5271 607.0975,-75.9914 609.6973,-82.4908"/>
</g>
<!-- Node4 -->
<g id="node5" class="node">
<title>Node4</title>
<polygon fill="none" stroke="#bfbfbf" points="706.5,-56.5 706.5,-75.5 754.5,-75.5 754.5,-56.5 706.5,-56.5"/>
<text text-anchor="middle" x="730.5" y="-63.5" font-family="Helvetica,sans-Serif" font-size="10.00" fill="#000000">gsl/gsl</text>
</g>
<!-- Node0&#45;&gt;Node4 -->
<g id="edge4" class="edge">
<title>Node0&#45;&gt;Node4</title>
<path fill="none" stroke="#191970" d="M545.0324,-118.0301C588.8545,-106.305 641.2823,-92.0396 696.7228,-76.171"/>
<polygon fill="#191970" stroke="#191970" points="697.7275,-79.5241 706.3739,-73.4011 695.7963,-72.7957 697.7275,-79.5241"/>
</g>
<!-- Node5 -->
<g id="node6" class="node">
<title>Node5</title>
<g id="a_node6"><a xlink:href="../../d3/d53/ColumnData_8h.html" target="_top" xlink:title="Strip pattern (aka digits) ">
<polygon fill="none" stroke="#000000" points="0,-56.5 0,-75.5 171,-75.5 171,-56.5 0,-56.5"/>
<text text-anchor="middle" x="85.5" y="-63.5" font-family="Helvetica,sans-Serif" font-size="10.00" fill="#000000">DataFormatsMID/ColumnData.h</text>
</a>
</g>
</g>
<!-- Node0&#45;&gt;Node5 -->
<g id="edge5" class="edge">
<title>Node0&#45;&gt;Node5</title>
<path fill="none" stroke="#191970" d="M347.8552,-122.6862C280.8389,-108.2062 194.7233,-89.5995 139.8039,-77.7333"/>
<polygon fill="#191970" stroke="#191970" points="140.4376,-74.2895 129.9239,-75.5985 138.9592,-81.1316 140.4376,-74.2895"/>
</g>
<!-- Node8 -->
<g id="node9" class="node">
<title>Node8</title>
<g id="a_node9"><a xlink:href="../../db/d83/CrateMapper_8h.html" target="_top" xlink:title="Mapper to convert the RO Ids to a format suitable for O2. ">
<polygon fill="none" stroke="#000000" points="381.5,-56.5 381.5,-75.5 511.5,-75.5 511.5,-56.5 381.5,-56.5"/>
<text text-anchor="middle" x="446.5" y="-63.5" font-family="Helvetica,sans-Serif" font-size="10.00" fill="#000000">MIDRaw/CrateMapper.h</text>
</a>
</g>
</g>
<!-- Node0&#45;&gt;Node8 -->
<g id="edge9" class="edge">
<title>Node0&#45;&gt;Node8</title>
<path fill="none" stroke="#191970" d="M446.5,-112.2744C446.5,-103.3302 446.5,-93.8568 446.5,-85.8269"/>
<polygon fill="#191970" stroke="#191970" points="450.0001,-85.6425 446.5,-75.6426 443.0001,-85.6426 450.0001,-85.6425"/>
</g>
<!-- Node10 -->
<g id="node11" class="node">
<title>Node10</title>
<g id="a_node11"><a xlink:href="../../d3/d4a/LocalBoardRO_8h.html" target="_top" xlink:title="Structure to store the FEE local board information. ">
<polygon fill="none" stroke="#000000" points="189.5,-56.5 189.5,-75.5 325.5,-75.5 325.5,-56.5 189.5,-56.5"/>
<text text-anchor="middle" x="257.5" y="-63.5" font-family="Helvetica,sans-Serif" font-size="10.00" fill="#000000">MIDRaw/LocalBoardRO.h</text>
</a>
</g>
</g>
<!-- Node0&#45;&gt;Node10 -->
<g id="edge12" class="edge">
<title>Node0&#45;&gt;Node10</title>
<path fill="none" stroke="#191970" d="M370.1713,-112.4992C342.2744,-100.9863 312.182,-88.5672 290.1199,-79.4622"/>
<polygon fill="#191970" stroke="#191970" points="291.164,-76.1068 280.585,-75.5271 288.4935,-82.5774 291.164,-76.1068"/>
</g>
<!-- Node5&#45;&gt;Node1 -->
<g id="edge6" class="edge">
<title>Node5&#45;&gt;Node1</title>
<path fill="none" stroke="#191970" d="M122.116,-56.3733C161.7512,-45.9527 224.5068,-29.4536 263.4997,-19.2019"/>
<polygon fill="#191970" stroke="#191970" points="264.5691,-22.5398 273.3504,-16.6121 262.7891,-15.7699 264.5691,-22.5398"/>
</g>
<!-- Node6 -->
<g id="node7" class="node">
<title>Node6</title>
<polygon fill="none" stroke="#bfbfbf" points="55.5,-.5 55.5,-19.5 115.5,-19.5 115.5,-.5 55.5,-.5"/>
<text text-anchor="middle" x="85.5" y="-7.5" font-family="Helvetica,sans-Serif" font-size="10.00" fill="#000000">iostream</text>
</g>
<!-- Node5&#45;&gt;Node6 -->
<g id="edge7" class="edge">
<title>Node5&#45;&gt;Node6</title>
<path fill="none" stroke="#191970" d="M85.5,-56.2455C85.5,-48.9382 85.5,-38.6944 85.5,-29.7046"/>
<polygon fill="#191970" stroke="#191970" points="89.0001,-29.6426 85.5,-19.6427 82.0001,-29.6427 89.0001,-29.6426"/>
</g>
<!-- Node7 -->
<g id="node8" class="node">
<title>Node7</title>
<polygon fill="none" stroke="#bfbfbf" points="194.5,-.5 194.5,-19.5 236.5,-19.5 236.5,-.5 194.5,-.5"/>
<text text-anchor="middle" x="215.5" y="-7.5" font-family="Helvetica,sans-Serif" font-size="10.00" fill="#000000">array</text>
</g>
<!-- Node5&#45;&gt;Node7 -->
<g id="edge8" class="edge">
<title>Node5&#45;&gt;Node7</title>
<path fill="none" stroke="#191970" d="M107.8478,-56.3733C129.1586,-47.1932 161.4207,-33.2957 185.0709,-23.1079"/>
<polygon fill="#191970" stroke="#191970" points="186.5052,-26.301 194.3047,-19.1303 183.7358,-19.8722 186.5052,-26.301"/>
</g>
<!-- Node8&#45;&gt;Node1 -->
<g id="edge10" class="edge">
<title>Node8&#45;&gt;Node1</title>
<path fill="none" stroke="#191970" d="M421.0579,-56.3733C396.7674,-47.1822 359.9792,-33.2624 333.0457,-23.0713"/>
<polygon fill="#191970" stroke="#191970" points="334.2016,-19.7666 323.6101,-19.5011 331.7243,-26.3136 334.2016,-19.7666"/>
</g>
<!-- Node9 -->
<g id="node10" class="node">
<title>Node9</title>
<polygon fill="none" stroke="#bfbfbf" points="427.5,-.5 427.5,-19.5 465.5,-19.5 465.5,-.5 427.5,-.5"/>
<text text-anchor="middle" x="446.5" y="-7.5" font-family="Helvetica,sans-Serif" font-size="10.00" fill="#000000">map</text>
</g>
<!-- Node8&#45;&gt;Node9 -->
<g id="edge11" class="edge">
<title>Node8&#45;&gt;Node9</title>
<path fill="none" stroke="#191970" d="M446.5,-56.2455C446.5,-48.9382 446.5,-38.6944 446.5,-29.7046"/>
<polygon fill="#191970" stroke="#191970" points="450.0001,-29.6426 446.5,-19.6427 443.0001,-29.6427 450.0001,-29.6426"/>
</g>
<!-- Node10&#45;&gt;Node1 -->
<g id="edge13" class="edge">
<title>Node10&#45;&gt;Node1</title>
<path fill="none" stroke="#191970" d="M264.6417,-56.2455C270.3444,-48.4564 278.49,-37.3308 285.3625,-27.9439"/>
<polygon fill="#191970" stroke="#191970" points="288.3568,-29.7789 291.4402,-19.6427 282.7087,-25.6437 288.3568,-29.7789"/>
</g>
<!-- Node10&#45;&gt;Node7 -->
<g id="edge14" class="edge">
<title>Node10&#45;&gt;Node7</title>
<path fill="none" stroke="#191970" d="M250.1842,-56.2455C244.2821,-48.3761 235.8258,-37.101 228.7406,-27.6542"/>
<polygon fill="#191970" stroke="#191970" points="231.5321,-25.5427 222.732,-19.6427 225.932,-29.7427 231.5321,-25.5427"/>
</g>
</g>
</svg>
