<?xml version="1.0" encoding="UTF-8" standalone="no"?>
<!DOCTYPE svg PUBLIC "-//W3C//DTD SVG 1.1//EN"
 "http://www.w3.org/Graphics/SVG/1.1/DTD/svg11.dtd">
<!-- Generated by graphviz version 2.40.1 (20161225.0304)
 -->
<!-- Title: o2::tpc::ca::Config Pages: 1 -->
<svg width="187pt" height="248pt"
 viewBox="0.00 0.00 187.00 248.00" xmlns="http://www.w3.org/2000/svg" xmlns:xlink="http://www.w3.org/1999/xlink">
<g id="graph0" class="graph" transform="scale(1 1) rotate(0) translate(4 244)">
<title>o2::tpc::ca::Config</title>
<!-- Node1 -->
<g id="node1" class="node">
<title>Node1</title>
<polygon fill="#bfbfbf" stroke="#000000" points="0,-.5 0,-68.5 104,-68.5 104,-.5 0,-.5"/>
<text text-anchor="middle" x="52" y="-56.5" font-family="Helvetica,sans-Serif" font-size="10.00" fill="#000000">o2::tpc::ca::Config</text>
<polyline fill="none" stroke="#000000" points="0,-49.5 104,-49.5 "/>
<text text-anchor="middle" x="52" y="-37.5" font-family="Helvetica,sans-Serif" font-size="10.00" fill="#000000"> </text>
<polyline fill="none" stroke="#000000" points="0,-30.5 104,-30.5 "/>
<text text-anchor="start" x="8" y="-18.5" font-family="Helvetica,sans-Serif" font-size="10.00" fill="#000000">+ Config()</text>
<text text-anchor="start" x="8" y="-7.5" font-family="Helvetica,sans-Serif" font-size="10.00" fill="#000000">+ init()</text>
</g>
<!-- Node2 -->
<g id="node2" class="node">
<title>Node2</title>
<polygon fill="none" stroke="#bfbfbf" points="33,-182.5 33,-239.5 71,-239.5 71,-182.5 33,-182.5"/>
<text text-anchor="middle" x="52" y="-227.5" font-family="Helvetica,sans-Serif" font-size="10.00" fill="#000000">bool</text>
<polyline fill="none" stroke="#bfbfbf" points="33,-220.5 71,-220.5 "/>
<text text-anchor="middle" x="52" y="-208.5" font-family="Helvetica,sans-Serif" font-size="10.00" fill="#000000"> </text>
<polyline fill="none" stroke="#bfbfbf" points="33,-201.5 71,-201.5 "/>
<text text-anchor="middle" x="52" y="-189.5" font-family="Helvetica,sans-Serif" font-size="10.00" fill="#000000"> </text>
</g>
<!-- Node2&#45;&gt;Node1 -->
<g id="edge1" class="edge">
<title>Node2&#45;&gt;Node1</title>
<path fill="none" stroke="#404040" d="M52,-182.2494C52,-154.8266 52,-113.0563 52,-80.9167"/>
<polygon fill="none" stroke="#404040" points="52.0001,-80.683 48,-74.683 52,-68.683 56,-74.683 52.0001,-80.683"/>
<text text-anchor="middle" x="115.5" y="-156" font-family="Helvetica,sans-Serif" font-size="10.00" fill="#000000"> +caClusterer</text>
<text text-anchor="middle" x="115.5" y="-145" font-family="Helvetica,sans-Serif" font-size="10.00" fill="#000000">+outputCAClusters</text>
<text text-anchor="middle" x="115.5" y="-134" font-family="Helvetica,sans-Serif" font-size="10.00" fill="#000000">+zsDecoder</text>
<text text-anchor="middle" x="115.5" y="-123" font-family="Helvetica,sans-Serif" font-size="10.00" fill="#000000">+outputCompClustersFlat</text>
<text text-anchor="middle" x="115.5" y="-112" font-family="Helvetica,sans-Serif" font-size="10.00" fill="#000000">+outputCompClusters</text>
<text text-anchor="middle" x="115.5" y="-101" font-family="Helvetica,sans-Serif" font-size="10.00" fill="#000000">+outputTracks</text>
<text text-anchor="middle" x="115.5" y="-90" font-family="Helvetica,sans-Serif" font-size="10.00" fill="#000000">+processMC</text>
</g>
</g>
</svg>
