<?xml version="1.0" encoding="UTF-8" standalone="no"?>
<!DOCTYPE svg PUBLIC "-//W3C//DTD SVG 1.1//EN"
 "http://www.w3.org/Graphics/SVG/1.1/DTD/svg11.dtd">
<!-- Generated by graphviz version 2.40.1 (20161225.0304)
 -->
<!-- Title: /home/travis/build/AliceO2Group/AliceO2/GPU/TPCFastTransformation/TPCFastTransformManager.cxx Pages: 1 -->
<!--zoomable 453 -->
<svg id="main" version="1.1" xmlns="http://www.w3.org/2000/svg" xmlns:xlink="http://www.w3.org/1999/xlink" xml:space="preserve" onload="init(evt)">
<style type="text/css"><![CDATA[
.edge:hover path { stroke: red; }
.edge:hover polygon { stroke: red; fill: red; }
]]></style>
<script type="text/javascript"><![CDATA[
var edges = document.getElementsByTagName('g');
if (edges && edges.length) {
  for (var i=0;i<edges.length;i++) {
    if (edges[i].id.substr(0,4)=='edge') {
      edges[i].setAttribute('class','edge');
    }
  }
}
]]></script>
        <defs>
                <circle id="rim" cx="0" cy="0" r="7"/>
                <circle id="rim2" cx="0" cy="0" r="3.5"/>
                <g id="zoomPlus">
                        <use xlink:href="#rim" fill="#404040">
                                <set attributeName="fill" to="#808080" begin="zoomplus.mouseover" end="zoomplus.mouseout"/>
                        </use>
                        <path d="M-4,0h8M0,-4v8" fill="none" stroke="white" stroke-width="1.5" pointer-events="none"/>
                </g>
                <g id="zoomMin">
                        <use xlink:href="#rim" fill="#404040">
                                <set attributeName="fill" to="#808080" begin="zoomminus.mouseover" end="zoomminus.mouseout"/>
                        </use>
                        <path d="M-4,0h8" fill="none" stroke="white" stroke-width="1.5" pointer-events="none"/>
                </g>
                <g id="dirArrow">
                        <path fill="none" stroke="white" stroke-width="1.5" d="M0,-3.0v7 M-2.5,-0.5L0,-3.0L2.5,-0.5"/>
                </g>
               <g id="resetDef">
                       <use xlink:href="#rim2" fill="#404040">
                               <set attributeName="fill" to="#808080" begin="reset.mouseover" end="reset.mouseout"/>
                       </use>
               </g>
        </defs>

<script type="text/javascript">
var viewWidth = 1281;
var viewHeight = 453;
var sectionId = 'dynsection-0';
</script>
<script xlink:href="../../svgpan.js"/>
<svg id="graph" class="graph">
<g id="viewport">
<title>/home/travis/build/AliceO2Group/AliceO2/GPU/TPCFastTransformation/TPCFastTransformManager.cxx</title>
<!-- Node0 -->
<g id="node1" class="node">
<title>Node0</title>
<polygon fill="#bfbfbf" stroke="#000000" points="804,-392.5 804,-444.5 972,-444.5 972,-392.5 804,-392.5"/>
<text text-anchor="start" x="812" y="-432.5" font-family="Helvetica,sans-Serif" font-size="10.00" fill="#000000">/home/travis/build</text>
<text text-anchor="start" x="812" y="-421.5" font-family="Helvetica,sans-Serif" font-size="10.00" fill="#000000">/AliceO2Group/AliceO2</text>
<text text-anchor="start" x="812" y="-410.5" font-family="Helvetica,sans-Serif" font-size="10.00" fill="#000000">/GPU/TPCFastTransformation</text>
<text text-anchor="middle" x="888" y="-399.5" font-family="Helvetica,sans-Serif" font-size="10.00" fill="#000000">/TPCFastTransformManager.cxx</text>
</g>
<!-- Node1 -->
<g id="node2" class="node">
<title>Node1</title>
<g id="a_node2"><a xlink:href="../../d5/d2a/TPCFastTransformManager_8h.html" target="_top" xlink:title="Definition of TPCFastTransformManager class. ">
<polygon fill="none" stroke="#000000" points="1034,-224.5 1034,-243.5 1188,-243.5 1188,-224.5 1034,-224.5"/>
<text text-anchor="middle" x="1111" y="-231.5" font-family="Helvetica,sans-Serif" font-size="10.00" fill="#000000">TPCFastTransformManager.h</text>
</a>
</g>
</g>
<!-- Node0&#45;&gt;Node1 -->
<g id="edge1" class="edge">
<title>Node0&#45;&gt;Node1</title>
<path fill="none" stroke="#191970" d="M972.0597,-407.1735C1032.0346,-397.1684 1105.258,-380.3516 1124,-356 1147.0528,-326.0474 1131.9018,-279.0028 1120.4329,-252.9515"/>
<polygon fill="#191970" stroke="#191970" points="1123.5539,-251.3624 1116.1583,-243.7759 1117.2087,-254.3185 1123.5539,-251.3624"/>
</g>
<!-- Node8 -->
<g id="node9" class="node">
<title>Node8</title>
<polygon fill="none" stroke="#bfbfbf" points="1139,-168.5 1139,-187.5 1245,-187.5 1245,-168.5 1139,-168.5"/>
<text text-anchor="middle" x="1192" y="-175.5" font-family="Helvetica,sans-Serif" font-size="10.00" fill="#000000">AliTPCTransform.h</text>
</g>
<!-- Node0&#45;&gt;Node8 -->
<g id="edge12" class="edge">
<title>Node0&#45;&gt;Node8</title>
<path fill="none" stroke="#191970" d="M972.1907,-405.7962C1035.9331,-394.7462 1116.8368,-377.1982 1143,-356 1185.9368,-321.2113 1184.6907,-297.8731 1197,-244 1200.5195,-228.5966 1198.8158,-210.6997 1196.4845,-197.4316"/>
<polygon fill="#191970" stroke="#191970" points="1199.8949,-196.6376 1194.4795,-187.5313 1193.0341,-198.0271 1199.8949,-196.6376"/>
</g>
<!-- Node9 -->
<g id="node10" class="node">
<title>Node9</title>
<polygon fill="none" stroke="#bfbfbf" points="646,-336.5 646,-355.5 768,-355.5 768,-336.5 646,-336.5"/>
<text text-anchor="middle" x="707" y="-343.5" font-family="Helvetica,sans-Serif" font-size="10.00" fill="#000000">AliHLTTPCGeometry.h</text>
</g>
<!-- Node0&#45;&gt;Node9 -->
<g id="edge9" class="edge">
<title>Node0&#45;&gt;Node9</title>
<path fill="none" stroke="#191970" d="M822.9106,-392.4283C794.8874,-381.2035 763.3271,-368.5619 740.2227,-359.3074"/>
<polygon fill="#191970" stroke="#191970" points="741.4579,-356.0319 730.8735,-355.5626 738.855,-362.53 741.4579,-356.0319"/>
</g>
<!-- Node10 -->
<g id="node11" class="node">
<title>Node10</title>
<polygon fill="none" stroke="#bfbfbf" points="786,-336.5 786,-355.5 874,-355.5 874,-336.5 786,-336.5"/>
<text text-anchor="middle" x="830" y="-343.5" font-family="Helvetica,sans-Serif" font-size="10.00" fill="#000000">AliTPCParam.h</text>
</g>
<!-- Node0&#45;&gt;Node10 -->
<g id="edge10" class="edge">
<title>Node0&#45;&gt;Node10</title>
<path fill="none" stroke="#191970" d="M867.0607,-392.3258C859.3705,-382.7131 850.8588,-372.0735 843.9339,-363.4174"/>
<polygon fill="#191970" stroke="#191970" points="846.6072,-361.1563 837.6272,-355.534 841.1411,-365.5292 846.6072,-361.1563"/>
</g>
<!-- Node11 -->
<g id="node12" class="node">
<title>Node11</title>
<polygon fill="none" stroke="#bfbfbf" points="891.5,-336.5 891.5,-355.5 1002.5,-355.5 1002.5,-336.5 891.5,-336.5"/>
<text text-anchor="middle" x="947" y="-343.5" font-family="Helvetica,sans-Serif" font-size="10.00" fill="#000000">AliTPCRecoParam.h</text>
</g>
<!-- Node0&#45;&gt;Node11 -->
<g id="edge11" class="edge">
<title>Node0&#45;&gt;Node11</title>
<path fill="none" stroke="#191970" d="M909.3004,-392.3258C917.1231,-382.7131 925.7815,-372.0735 932.8258,-363.4174"/>
<polygon fill="#191970" stroke="#191970" points="935.644,-365.4995 939.2413,-355.534 930.2146,-361.0811 935.644,-365.4995"/>
</g>
<!-- Node12 -->
<g id="node13" class="node">
<title>Node12</title>
<polygon fill="none" stroke="#bfbfbf" points="1020.5,-336.5 1020.5,-355.5 1115.5,-355.5 1115.5,-336.5 1020.5,-336.5"/>
<text text-anchor="middle" x="1068" y="-343.5" font-family="Helvetica,sans-Serif" font-size="10.00" fill="#000000">AliTPCcalibDB.h</text>
</g>
<!-- Node0&#45;&gt;Node12 -->
<g id="edge13" class="edge">
<title>Node0&#45;&gt;Node12</title>
<path fill="none" stroke="#191970" d="M952.7298,-392.4283C980.5981,-381.2035 1011.9841,-368.5619 1034.9609,-359.3074"/>
<polygon fill="#191970" stroke="#191970" points="1036.2902,-362.5453 1044.2584,-355.5626 1033.6749,-356.0522 1036.2902,-362.5453"/>
</g>
<!-- Node13 -->
<g id="node14" class="node">
<title>Node13</title>
<g id="a_node14"><a xlink:href="../../d4/db1/TPCFastTransform_8h.html" target="_top" xlink:title="Definition of TPCFastTransform class. ">
<polygon fill="none" stroke="#000000" points="274.5,-336.5 274.5,-355.5 387.5,-355.5 387.5,-336.5 274.5,-336.5"/>
<text text-anchor="middle" x="331" y="-343.5" font-family="Helvetica,sans-Serif" font-size="10.00" fill="#000000">TPCFastTransform.h</text>
</a>
</g>
</g>
<!-- Node0&#45;&gt;Node13 -->
<g id="edge14" class="edge">
<title>Node0&#45;&gt;Node13</title>
<path fill="none" stroke="#191970" d="M803.7062,-407.5282C692.5645,-393.0618 499.2544,-367.9003 397.6971,-354.6814"/>
<polygon fill="#191970" stroke="#191970" points="397.9334,-351.1827 387.5653,-353.3626 397.0298,-358.1242 397.9334,-351.1827"/>
</g>
<!-- Node31 -->
<g id="node32" class="node">
<title>Node31</title>
<g id="a_node32"><a xlink:href="../../d0/d1e/SplineHelper2D_8h.html" target="_top" xlink:title="Definition of SplineHelper2D class. ">
<polygon fill="none" stroke="#000000" points="719.5,-280.5 719.5,-299.5 820.5,-299.5 820.5,-280.5 719.5,-280.5"/>
<text text-anchor="middle" x="770" y="-287.5" font-family="Helvetica,sans-Serif" font-size="10.00" fill="#000000">SplineHelper2D.h</text>
</a>
</g>
</g>
<!-- Node0&#45;&gt;Node31 -->
<g id="edge45" class="edge">
<title>Node0&#45;&gt;Node31</title>
<path fill="none" stroke="#191970" d="M803.9047,-408.6867C739.2504,-399.2081 657.6014,-382.3603 637,-356 612.9696,-325.2522 663.8742,-307.7895 709.4886,-298.6523"/>
<polygon fill="#191970" stroke="#191970" points="710.238,-302.0727 719.4124,-296.7735 708.9358,-295.1949 710.238,-302.0727"/>
</g>
<!-- Node2 -->
<g id="node3" class="node">
<title>Node2</title>
<polygon fill="none" stroke="#bfbfbf" points="701.5,-168.5 701.5,-187.5 748.5,-187.5 748.5,-168.5 701.5,-168.5"/>
<text text-anchor="middle" x="725" y="-175.5" font-family="Helvetica,sans-Serif" font-size="10.00" fill="#000000">cmath</text>
</g>
<!-- Node1&#45;&gt;Node2 -->
<g id="edge2" class="edge">
<title>Node1&#45;&gt;Node2</title>
<path fill="none" stroke="#191970" d="M1045.0828,-224.4369C962.0672,-212.3932 822.5826,-192.1571 758.7424,-182.8953"/>
<polygon fill="#191970" stroke="#191970" points="759.2055,-179.4259 748.8065,-181.4538 758.2004,-186.3534 759.2055,-179.4259"/>
</g>
<!-- Node3 -->
<g id="node4" class="node">
<title>Node3</title>
<g id="a_node4"><a xlink:href="../../df/d21/GPUCommonDef_8h.html" target="_top" xlink:title="GPUCommonDef.h">
<polygon fill="none" stroke="#000000" points="570.5,-56.5 570.5,-75.5 677.5,-75.5 677.5,-56.5 570.5,-56.5"/>
<text text-anchor="middle" x="624" y="-63.5" font-family="Helvetica,sans-Serif" font-size="10.00" fill="#000000">GPUCommonDef.h</text>
</a>
</g>
</g>
<!-- Node1&#45;&gt;Node3 -->
<g id="edge3" class="edge">
<title>Node1&#45;&gt;Node3</title>
<path fill="none" stroke="#191970" d="M1101.7023,-224.096C1087.8002,-209.8205 1060.2,-183.4797 1032,-168 920.3295,-106.7013 771.3619,-81.579 687.8055,-71.7948"/>
<polygon fill="#191970" stroke="#191970" points="688.0298,-68.2979 677.6992,-70.6491 687.2412,-75.2534 688.0298,-68.2979"/>
</g>
<!-- Node6 -->
<g id="node7" class="node">
<title>Node6</title>
<polygon fill="none" stroke="#bfbfbf" points="887.5,-.5 887.5,-19.5 946.5,-19.5 946.5,-.5 887.5,-.5"/>
<text text-anchor="middle" x="917" y="-7.5" font-family="Helvetica,sans-Serif" font-size="10.00" fill="#000000">Rtypes.h</text>
</g>
<!-- Node1&#45;&gt;Node6 -->
<g id="edge6" class="edge">
<title>Node1&#45;&gt;Node6</title>
<path fill="none" stroke="#191970" d="M1104.1426,-224.3915C1094.7433,-211.3534 1077.1767,-187.453 1061,-168 1016.9398,-115.0163 961.043,-55.7756 933.6564,-27.2252"/>
<polygon fill="#191970" stroke="#191970" points="935.8742,-24.4822 926.4184,-19.7031 930.83,-29.3358 935.8742,-24.4822"/>
</g>
<!-- Node7 -->
<g id="node8" class="node">
<title>Node7</title>
<polygon fill="none" stroke="#bfbfbf" points="947,-168.5 947,-187.5 1007,-187.5 1007,-168.5 947,-168.5"/>
<text text-anchor="middle" x="977" y="-175.5" font-family="Helvetica,sans-Serif" font-size="10.00" fill="#000000">TString.h</text>
</g>
<!-- Node1&#45;&gt;Node7 -->
<g id="edge7" class="edge">
<title>Node1&#45;&gt;Node7</title>
<path fill="none" stroke="#191970" d="M1087.9646,-224.3733C1066.2612,-215.3032 1033.5382,-201.6279 1009.245,-191.4755"/>
<polygon fill="#191970" stroke="#191970" points="1010.3111,-188.1278 999.7348,-187.5011 1007.6119,-194.5865 1010.3111,-188.1278"/>
</g>
<!-- Node1&#45;&gt;Node8 -->
<g id="edge8" class="edge">
<title>Node1&#45;&gt;Node8</title>
<path fill="none" stroke="#191970" d="M1125.1091,-224.2455C1137.4209,-215.7337 1155.4958,-203.2375 1169.7538,-193.3801"/>
<polygon fill="#191970" stroke="#191970" points="1171.8174,-196.2085 1178.0526,-187.6427 1167.8366,-190.4506 1171.8174,-196.2085"/>
</g>
<!-- Node4 -->
<g id="node5" class="node">
<title>Node4</title>
<g id="a_node5"><a xlink:href="../../d5/d93/GPUCommonDefSettings_8h.html" target="_top" xlink:title="GPUCommonDefSettings.h">
<polygon fill="none" stroke="#000000" points="508,-.5 508,-19.5 656,-19.5 656,-.5 508,-.5"/>
<text text-anchor="middle" x="582" y="-7.5" font-family="Helvetica,sans-Serif" font-size="10.00" fill="#000000">GPUCommonDefSettings.h</text>
</a>
</g>
</g>
<!-- Node3&#45;&gt;Node4 -->
<g id="edge4" class="edge">
<title>Node3&#45;&gt;Node4</title>
<path fill="none" stroke="#191970" d="M616.6842,-56.2455C610.7821,-48.3761 602.3258,-37.101 595.2406,-27.6542"/>
<polygon fill="#191970" stroke="#191970" points="598.0321,-25.5427 589.232,-19.6427 592.432,-29.7427 598.0321,-25.5427"/>
</g>
<!-- Node5 -->
<g id="node6" class="node">
<title>Node5</title>
<g id="a_node6"><a xlink:href="../../da/d5a/GPUCommonDefAPI_8h.html" target="_top" xlink:title="GPUCommonDefAPI.h">
<polygon fill="none" stroke="#000000" points="674,-.5 674,-19.5 798,-19.5 798,-.5 674,-.5"/>
<text text-anchor="middle" x="736" y="-7.5" font-family="Helvetica,sans-Serif" font-size="10.00" fill="#000000">GPUCommonDefAPI.h</text>
</a>
</g>
</g>
<!-- Node3&#45;&gt;Node5 -->
<g id="edge5" class="edge">
<title>Node3&#45;&gt;Node5</title>
<path fill="none" stroke="#191970" d="M643.2535,-56.3733C661.0712,-47.4644 687.7747,-34.1127 707.9594,-24.0203"/>
<polygon fill="#191970" stroke="#191970" points="709.6187,-27.1038 716.9978,-19.5011 706.4882,-20.8428 709.6187,-27.1038"/>
</g>
<!-- Node14 -->
<g id="node15" class="node">
<title>Node14</title>
<g id="a_node15"><a xlink:href="../../db/dff/FlatObject_8h.html" target="_top" xlink:title="Definition of FlatObject class. ">
<polygon fill="none" stroke="#000000" points="276.5,-112.5 276.5,-131.5 351.5,-131.5 351.5,-112.5 276.5,-112.5"/>
<text text-anchor="middle" x="314" y="-119.5" font-family="Helvetica,sans-Serif" font-size="10.00" fill="#000000">FlatObject.h</text>
</a>
</g>
</g>
<!-- Node13&#45;&gt;Node14 -->
<g id="edge15" class="edge">
<title>Node13&#45;&gt;Node14</title>
<path fill="none" stroke="#191970" d="M318.5788,-336.18C308.9984,-327.7529 296.4865,-314.6707 291,-300 270.416,-244.959 292.6416,-174.4132 305.7738,-141.0773"/>
<polygon fill="#191970" stroke="#191970" points="309.0929,-142.2083 309.6522,-131.6282 302.6172,-139.5503 309.0929,-142.2083"/>
</g>
<!-- Node23 -->
<g id="node24" class="node">
<title>Node23</title>
<g id="a_node24"><a xlink:href="../../d5/dde/TPCFastTransformGeo_8h.html" target="_top" xlink:title="Definition of TPCFastTransformGeo class. ">
<polygon fill="none" stroke="#000000" points="126,-112.5 126,-131.5 258,-131.5 258,-112.5 126,-112.5"/>
<text text-anchor="middle" x="192" y="-119.5" font-family="Helvetica,sans-Serif" font-size="10.00" fill="#000000">TPCFastTransformGeo.h</text>
</a>
</g>
</g>
<!-- Node13&#45;&gt;Node23 -->
<g id="edge26" class="edge">
<title>Node13&#45;&gt;Node23</title>
<path fill="none" stroke="#191970" d="M318.5719,-336.4229C307.9095,-327.7532 292.6279,-314.1986 282,-300 242.6792,-247.4681 212.258,-175.1783 199.1054,-141.1627"/>
<polygon fill="#191970" stroke="#191970" points="202.2729,-139.6446 195.4524,-131.5371 195.7283,-142.1284 202.2729,-139.6446"/>
</g>
<!-- Node24 -->
<g id="node25" class="node">
<title>Node24</title>
<g id="a_node25"><a xlink:href="../../d8/d93/TPCFastSpaceChargeCorrection_8h.html" target="_top" xlink:title="Definition of TPCFastSpaceChargeCorrection class. ">
<polygon fill="none" stroke="#000000" points="300,-280.5 300,-299.5 478,-299.5 478,-280.5 300,-280.5"/>
<text text-anchor="middle" x="389" y="-287.5" font-family="Helvetica,sans-Serif" font-size="10.00" fill="#000000">TPCFastSpaceChargeCorrection.h</text>
</a>
</g>
</g>
<!-- Node13&#45;&gt;Node24 -->
<g id="edge29" class="edge">
<title>Node13&#45;&gt;Node24</title>
<path fill="none" stroke="#191970" d="M341.1028,-336.2455C349.5028,-328.1352 361.6494,-316.4075 371.6084,-306.7919"/>
<polygon fill="#191970" stroke="#191970" points="374.25,-309.1066 379.0129,-299.6427 369.3878,-304.0707 374.25,-309.1066"/>
</g>
<!-- Node28 -->
<g id="node29" class="node">
<title>Node28</title>
<g id="a_node29"><a xlink:href="../../d6/da2/GPUCommonMath_8h.html" target="_top" xlink:title="GPUCommonMath.h">
<polygon fill="none" stroke="#000000" points="467.5,-224.5 467.5,-243.5 582.5,-243.5 582.5,-224.5 467.5,-224.5"/>
<text text-anchor="middle" x="525" y="-231.5" font-family="Helvetica,sans-Serif" font-size="10.00" fill="#000000">GPUCommonMath.h</text>
</a>
</g>
</g>
<!-- Node13&#45;&gt;Node28 -->
<g id="edge40" class="edge">
<title>Node13&#45;&gt;Node28</title>
<path fill="none" stroke="#191970" d="M387.7123,-339.7812C419.6163,-333.875 458.6163,-322.375 487,-300 502.2069,-288.0123 512.4512,-268.1401 518.434,-253.3279"/>
<polygon fill="#191970" stroke="#191970" points="521.8386,-254.2145 522.0473,-243.6217 515.2784,-251.7724 521.8386,-254.2145"/>
</g>
<!-- Node30 -->
<g id="node31" class="node">
<title>Node30</title>
<polygon fill="none" stroke="#bfbfbf" points="124,-280.5 124,-299.5 168,-299.5 168,-280.5 124,-280.5"/>
<text text-anchor="middle" x="146" y="-287.5" font-family="Helvetica,sans-Serif" font-size="10.00" fill="#000000">string</text>
</g>
<!-- Node13&#45;&gt;Node30 -->
<g id="edge44" class="edge">
<title>Node13&#45;&gt;Node30</title>
<path fill="none" stroke="#191970" d="M299.1974,-336.3733C265.3055,-326.1141 211.9497,-309.9631 177.9873,-299.6827"/>
<polygon fill="#191970" stroke="#191970" points="178.6981,-296.241 168.1129,-296.6936 176.67,-302.9408 178.6981,-296.241"/>
</g>
<!-- Node14&#45;&gt;Node3 -->
<g id="edge20" class="edge">
<title>Node14&#45;&gt;Node3</title>
<path fill="none" stroke="#191970" d="M351.7623,-114.6758C356.5529,-113.7649 361.3899,-112.8542 366,-112 432.0563,-99.7603 507.7433,-86.3367 559.9758,-77.1668"/>
<polygon fill="#191970" stroke="#191970" points="560.8548,-80.5661 570.0998,-75.3911 559.6455,-73.6714 560.8548,-80.5661"/>
</g>
<!-- Node15 -->
<g id="node16" class="node">
<title>Node15</title>
<polygon fill="none" stroke="#bfbfbf" points="217.5,-56.5 217.5,-75.5 270.5,-75.5 270.5,-56.5 217.5,-56.5"/>
<text text-anchor="middle" x="244" y="-63.5" font-family="Helvetica,sans-Serif" font-size="10.00" fill="#000000">cstddef</text>
</g>
<!-- Node14&#45;&gt;Node15 -->
<g id="edge16" class="edge">
<title>Node14&#45;&gt;Node15</title>
<path fill="none" stroke="#191970" d="M301.8069,-112.2455C291.3679,-103.8943 276.1345,-91.7076 263.926,-81.9408"/>
<polygon fill="#191970" stroke="#191970" points="266.0485,-79.1566 256.0533,-75.6427 261.6756,-84.6227 266.0485,-79.1566"/>
</g>
<!-- Node16 -->
<g id="node17" class="node">
<title>Node16</title>
<polygon fill="none" stroke="#bfbfbf" points="0,-56.5 0,-75.5 58,-75.5 58,-56.5 0,-56.5"/>
<text text-anchor="middle" x="29" y="-63.5" font-family="Helvetica,sans-Serif" font-size="10.00" fill="#000000">memory</text>
</g>
<!-- Node14&#45;&gt;Node16 -->
<g id="edge17" class="edge">
<title>Node14&#45;&gt;Node16</title>
<path fill="none" stroke="#191970" d="M276.3114,-113.8719C273.164,-113.2263 270.0289,-112.5947 267,-112 181.4903,-95.2117 156.8968,-95.4667 68.3432,-76.1722"/>
<polygon fill="#191970" stroke="#191970" points="68.9212,-72.7157 58.4024,-73.9835 67.4159,-79.552 68.9212,-72.7157"/>
</g>
<!-- Node17 -->
<g id="node18" class="node">
<title>Node17</title>
<polygon fill="none" stroke="#bfbfbf" points="289,-56.5 289,-75.5 339,-75.5 339,-56.5 289,-56.5"/>
<text text-anchor="middle" x="314" y="-63.5" font-family="Helvetica,sans-Serif" font-size="10.00" fill="#000000">cstring</text>
</g>
<!-- Node14&#45;&gt;Node17 -->
<g id="edge18" class="edge">
<title>Node14&#45;&gt;Node17</title>
<path fill="none" stroke="#191970" d="M314,-112.2455C314,-104.9382 314,-94.6944 314,-85.7046"/>
<polygon fill="#191970" stroke="#191970" points="317.5001,-85.6426 314,-75.6427 310.5001,-85.6427 317.5001,-85.6426"/>
</g>
<!-- Node18 -->
<g id="node19" class="node">
<title>Node18</title>
<polygon fill="none" stroke="#bfbfbf" points="357,-56.5 357,-75.5 409,-75.5 409,-56.5 357,-56.5"/>
<text text-anchor="middle" x="383" y="-63.5" font-family="Helvetica,sans-Serif" font-size="10.00" fill="#000000">cassert</text>
</g>
<!-- Node14&#45;&gt;Node18 -->
<g id="edge19" class="edge">
<title>Node14&#45;&gt;Node18</title>
<path fill="none" stroke="#191970" d="M326.0189,-112.2455C336.2098,-103.9746 351.0362,-91.9416 363.0107,-82.2232"/>
<polygon fill="#191970" stroke="#191970" points="365.5598,-84.662 371.1188,-75.6427 361.1486,-79.2268 365.5598,-84.662"/>
</g>
<!-- Node19 -->
<g id="node20" class="node">
<title>Node19</title>
<g id="a_node20"><a xlink:href="../../d2/d45/GPUCommonRtypes_8h.html" target="_top" xlink:title="GPUCommonRtypes.h">
<polygon fill="none" stroke="#000000" points="427.5,-56.5 427.5,-75.5 552.5,-75.5 552.5,-56.5 427.5,-56.5"/>
<text text-anchor="middle" x="490" y="-63.5" font-family="Helvetica,sans-Serif" font-size="10.00" fill="#000000">GPUCommonRtypes.h</text>
</a>
</g>
</g>
<!-- Node14&#45;&gt;Node19 -->
<g id="edge21" class="edge">
<title>Node14&#45;&gt;Node19</title>
<path fill="none" stroke="#191970" d="M344.2555,-112.3733C373.6483,-103.021 418.4292,-88.7725 450.5934,-78.5385"/>
<polygon fill="#191970" stroke="#191970" points="451.6713,-81.8685 460.1393,-75.5011 449.5488,-75.198 451.6713,-81.8685"/>
</g>
<!-- Node20 -->
<g id="node21" class="node">
<title>Node20</title>
<g id="a_node21"><a xlink:href="../../df/d5b/GPUCommonLogger_8h.html" target="_top" xlink:title="GPUCommonLogger.h">
<polygon fill="none" stroke="#000000" points="76.5,-56.5 76.5,-75.5 199.5,-75.5 199.5,-56.5 76.5,-56.5"/>
<text text-anchor="middle" x="138" y="-63.5" font-family="Helvetica,sans-Serif" font-size="10.00" fill="#000000">GPUCommonLogger.h</text>
</a>
</g>
</g>
<!-- Node14&#45;&gt;Node20 -->
<g id="edge23" class="edge">
<title>Node14&#45;&gt;Node20</title>
<path fill="none" stroke="#191970" d="M283.7445,-112.3733C254.3517,-103.021 209.5708,-88.7725 177.4066,-78.5385"/>
<polygon fill="#191970" stroke="#191970" points="178.4512,-75.198 167.8607,-75.5011 176.3287,-81.8685 178.4512,-75.198"/>
</g>
<!-- Node19&#45;&gt;Node6 -->
<g id="edge22" class="edge">
<title>Node19&#45;&gt;Node6</title>
<path fill="none" stroke="#191970" d="M552.7145,-57.1274C555.5142,-56.7438 558.2861,-56.3664 561,-56 675.9006,-40.4856 811.8188,-23.2259 877.52,-14.9518"/>
<polygon fill="#191970" stroke="#191970" points="877.9629,-18.4237 887.4477,-13.7026 877.089,-11.4785 877.9629,-18.4237"/>
</g>
<!-- Node21 -->
<g id="node22" class="node">
<title>Node21</title>
<polygon fill="none" stroke="#bfbfbf" points="144,-.5 144,-19.5 204,-19.5 204,-.5 144,-.5"/>
<text text-anchor="middle" x="174" y="-7.5" font-family="Helvetica,sans-Serif" font-size="10.00" fill="#000000">iostream</text>
</g>
<!-- Node20&#45;&gt;Node21 -->
<g id="edge24" class="edge">
<title>Node20&#45;&gt;Node21</title>
<path fill="none" stroke="#191970" d="M144.2707,-56.2455C149.2264,-48.5367 156.283,-37.5598 162.2776,-28.2348"/>
<polygon fill="#191970" stroke="#191970" points="165.3376,-29.9471 167.8011,-19.6427 159.4494,-26.1618 165.3376,-29.9471"/>
</g>
<!-- Node22 -->
<g id="node23" class="node">
<title>Node22</title>
<polygon fill="none" stroke="#bfbfbf" points="80,-.5 80,-19.5 126,-19.5 126,-.5 80,-.5"/>
<text text-anchor="middle" x="103" y="-7.5" font-family="Helvetica,sans-Serif" font-size="10.00" fill="#000000">cstdio</text>
</g>
<!-- Node20&#45;&gt;Node22 -->
<g id="edge25" class="edge">
<title>Node20&#45;&gt;Node22</title>
<path fill="none" stroke="#191970" d="M131.9035,-56.2455C127.0855,-48.5367 120.2249,-37.5598 114.3968,-28.2348"/>
<polygon fill="#191970" stroke="#191970" points="117.2947,-26.2677 109.0267,-19.6427 111.3587,-29.9777 117.2947,-26.2677"/>
</g>
<!-- Node23&#45;&gt;Node3 -->
<g id="edge27" class="edge">
<title>Node23&#45;&gt;Node3</title>
<path fill="none" stroke="#191970" d="M258.2483,-113.1278C261.2056,-112.744 264.1334,-112.3666 267,-112 394.3912,-95.7083 428.9662,-94.3787 560.3544,-76.0489"/>
<polygon fill="#191970" stroke="#191970" points="560.9859,-79.4947 570.4032,-74.6403 560.0141,-72.5624 560.9859,-79.4947"/>
</g>
<!-- Node23&#45;&gt;Node16 -->
<g id="edge28" class="edge">
<title>Node23&#45;&gt;Node16</title>
<path fill="none" stroke="#191970" d="M163.9793,-112.3733C136.9922,-103.1016 95.9983,-89.0178 66.2689,-78.804"/>
<polygon fill="#191970" stroke="#191970" points="67.2497,-75.4403 56.6551,-75.5011 64.9752,-82.0605 67.2497,-75.4403"/>
</g>
<!-- Node24&#45;&gt;Node3 -->
<g id="edge39" class="edge">
<title>Node24&#45;&gt;Node3</title>
<path fill="none" stroke="#191970" d="M382.4443,-280.3346C374.4286,-267.232 362.8733,-243.2588 371,-224 398.7377,-158.2672 425.0634,-149.1067 486,-112 511.4381,-96.5097 542.7256,-85.5292 569.0745,-78.1907"/>
<polygon fill="#191970" stroke="#191970" points="570.1559,-81.5245 578.9087,-75.5547 568.3435,-74.7632 570.1559,-81.5245"/>
</g>
<!-- Node24&#45;&gt;Node14 -->
<g id="edge38" class="edge">
<title>Node24&#45;&gt;Node14</title>
<path fill="none" stroke="#191970" d="M373.5975,-280.2087C361.9641,-271.9776 346.583,-259.1457 338,-244 319.5414,-211.4275 315.078,-166.993 314.119,-141.7198"/>
<polygon fill="#191970" stroke="#191970" points="317.6146,-141.485 313.8872,-131.5675 310.6164,-141.6448 317.6146,-141.485"/>
</g>
<!-- Node24&#45;&gt;Node23 -->
<g id="edge37" class="edge">
<title>Node24&#45;&gt;Node23</title>
<path fill="none" stroke="#191970" d="M374.6588,-280.4181C361.446,-271.422 341.4551,-257.3814 325,-244 281.3478,-208.5016 233.4969,-162.7779 208.8146,-138.639"/>
<polygon fill="#191970" stroke="#191970" points="211.2361,-136.1115 201.6496,-131.6004 206.3306,-141.1051 211.2361,-136.1115"/>
</g>
<!-- Node25 -->
<g id="node26" class="node">
<title>Node25</title>
<g id="a_node26"><a xlink:href="../../dd/d27/Spline2D_8h.html" target="_top" xlink:title="Definition of Spline2D class. ">
<polygon fill="none" stroke="#000000" points="380.5,-224.5 380.5,-243.5 449.5,-243.5 449.5,-224.5 380.5,-224.5"/>
<text text-anchor="middle" x="415" y="-231.5" font-family="Helvetica,sans-Serif" font-size="10.00" fill="#000000">Spline2D.h</text>
</a>
</g>
</g>
<!-- Node24&#45;&gt;Node25 -->
<g id="edge30" class="edge">
<title>Node24&#45;&gt;Node25</title>
<path fill="none" stroke="#191970" d="M393.5289,-280.2455C397.0334,-272.6973 401.9927,-262.0158 406.2623,-252.8197"/>
<polygon fill="#191970" stroke="#191970" points="409.4864,-254.1867 410.523,-243.6427 403.1373,-251.2389 409.4864,-254.1867"/>
</g>
<!-- Node25&#45;&gt;Node3 -->
<g id="edge36" class="edge">
<title>Node25&#45;&gt;Node3</title>
<path fill="none" stroke="#191970" d="M417.6565,-224.4386C421.9056,-210.5899 431.3804,-184.7755 447,-168 486.8814,-125.1671 548.8917,-95.1728 587.9319,-79.2628"/>
<polygon fill="#191970" stroke="#191970" points="589.3371,-82.4707 597.3351,-75.5221 586.7496,-75.9664 589.3371,-82.4707"/>
</g>
<!-- Node25&#45;&gt;Node14 -->
<g id="edge35" class="edge">
<title>Node25&#45;&gt;Node14</title>
<path fill="none" stroke="#191970" d="M406.3888,-224.4509C389.3196,-205.5227 350.9859,-163.014 329.4457,-139.1279"/>
<polygon fill="#191970" stroke="#191970" points="331.8856,-136.6073 322.5894,-131.5249 326.6872,-141.2952 331.8856,-136.6073"/>
</g>
<!-- Node26 -->
<g id="node27" class="node">
<title>Node26</title>
<g id="a_node27"><a xlink:href="../../de/da6/Spline1D_8h.html" target="_top" xlink:title="Definition of Spline1D class. ">
<polygon fill="none" stroke="#000000" points="614.5,-168.5 614.5,-187.5 683.5,-187.5 683.5,-168.5 614.5,-168.5"/>
<text text-anchor="middle" x="649" y="-175.5" font-family="Helvetica,sans-Serif" font-size="10.00" fill="#000000">Spline1D.h</text>
</a>
</g>
</g>
<!-- Node25&#45;&gt;Node26 -->
<g id="edge31" class="edge">
<title>Node25&#45;&gt;Node26</title>
<path fill="none" stroke="#191970" d="M449.5275,-225.737C490.6583,-215.8937 559.4564,-199.4292 604.5327,-188.6417"/>
<polygon fill="#191970" stroke="#191970" points="605.4201,-192.0283 614.3308,-186.2969 603.7908,-185.2205 605.4201,-192.0283"/>
</g>
<!-- Node26&#45;&gt;Node3 -->
<g id="edge32" class="edge">
<title>Node26&#45;&gt;Node3</title>
<path fill="none" stroke="#191970" d="M646.8685,-168.4509C642.7726,-150.1013 633.7301,-109.5908 628.3235,-85.3693"/>
<polygon fill="#191970" stroke="#191970" points="631.7206,-84.5222 626.1261,-75.5249 624.8888,-86.0472 631.7206,-84.5222"/>
</g>
<!-- Node26&#45;&gt;Node14 -->
<g id="edge33" class="edge">
<title>Node26&#45;&gt;Node14</title>
<path fill="none" stroke="#191970" d="M614.4109,-172.2179C554.226,-162.1572 430.1466,-141.4155 361.7865,-129.9882"/>
<polygon fill="#191970" stroke="#191970" points="362.1557,-126.5014 351.7155,-128.3047 361.0015,-133.4056 362.1557,-126.5014"/>
</g>
<!-- Node27 -->
<g id="node28" class="node">
<title>Node27</title>
<polygon fill="none" stroke="#bfbfbf" points="782.5,-112.5 782.5,-131.5 847.5,-131.5 847.5,-112.5 782.5,-112.5"/>
<text text-anchor="middle" x="815" y="-119.5" font-family="Helvetica,sans-Serif" font-size="10.00" fill="#000000">functional</text>
</g>
<!-- Node26&#45;&gt;Node27 -->
<g id="edge34" class="edge">
<title>Node26&#45;&gt;Node27</title>
<path fill="none" stroke="#191970" d="M677.5364,-168.3733C705.0202,-159.1016 746.7686,-145.0178 777.0452,-134.804"/>
<polygon fill="#191970" stroke="#191970" points="778.4794,-138.0141 786.836,-131.5011 776.2418,-131.3813 778.4794,-138.0141"/>
</g>
<!-- Node28&#45;&gt;Node2 -->
<g id="edge42" class="edge">
<title>Node28&#45;&gt;Node2</title>
<path fill="none" stroke="#191970" d="M560.5835,-224.4801C592.3935,-215.9072 640.5177,-202.785 691.3666,-188.1334"/>
<polygon fill="#191970" stroke="#191970" points="692.5939,-191.422 701.2284,-185.2824 690.6497,-184.6974 692.5939,-191.422"/>
</g>
<!-- Node28&#45;&gt;Node3 -->
<g id="edge41" class="edge">
<title>Node28&#45;&gt;Node3</title>
<path fill="none" stroke="#191970" d="M527.0452,-224.3926C531.9826,-202.7742 546.1009,-149.283 572,-112 579.951,-100.5542 591.3275,-90.0637 601.4133,-82.0006"/>
<polygon fill="#191970" stroke="#191970" points="603.6624,-84.6867 609.4782,-75.8307 599.4091,-79.127 603.6624,-84.6867"/>
</g>
<!-- Node29 -->
<g id="node30" class="node">
<title>Node29</title>
<polygon fill="none" stroke="#bfbfbf" points="456,-168.5 456,-187.5 520,-187.5 520,-168.5 456,-168.5"/>
<text text-anchor="middle" x="488" y="-175.5" font-family="Helvetica,sans-Serif" font-size="10.00" fill="#000000">algorithm</text>
</g>
<!-- Node28&#45;&gt;Node29 -->
<g id="edge43" class="edge">
<title>Node28&#45;&gt;Node29</title>
<path fill="none" stroke="#191970" d="M518.5551,-224.2455C513.4618,-216.5367 506.2092,-205.5598 500.048,-196.2348"/>
<polygon fill="#191970" stroke="#191970" points="502.8038,-194.0566 494.3711,-187.6427 496.9635,-197.9155 502.8038,-194.0566"/>
</g>
<!-- Node31&#45;&gt;Node2 -->
<g id="edge46" class="edge">
<title>Node31&#45;&gt;Node2</title>
<path fill="none" stroke="#191970" d="M766.1633,-280.4509C758.7575,-262.0186 742.3673,-221.2254 732.6512,-197.043"/>
<polygon fill="#191970" stroke="#191970" points="735.8029,-195.499 728.827,-187.5249 729.3075,-198.1088 735.8029,-195.499"/>
</g>
<!-- Node31&#45;&gt;Node3 -->
<g id="edge48" class="edge">
<title>Node31&#45;&gt;Node3</title>
<path fill="none" stroke="#191970" d="M737.1287,-280.4862C697.6167,-267.0804 633.1228,-238.4475 605,-188 586.6528,-155.0883 602.4598,-109.8531 614.1677,-84.7355"/>
<polygon fill="#191970" stroke="#191970" points="617.3963,-86.1016 618.6735,-75.584 611.1162,-83.0095 617.3963,-86.1016"/>
</g>
<!-- Node31&#45;&gt;Node6 -->
<g id="edge49" class="edge">
<title>Node31&#45;&gt;Node6</title>
<path fill="none" stroke="#191970" d="M820.5817,-288.3293C918.5821,-284.4788 1130.534,-272.9833 1197,-244 1238.0076,-226.1181 1273,-222.7368 1273,-178 1273,-178 1273,-178 1273,-122 1273,-56.337 1049.8339,-24.442 956.8861,-14.0055"/>
<polygon fill="#191970" stroke="#191970" points="957.0618,-10.5039 946.74,-12.8938 956.2993,-17.4623 957.0618,-10.5039"/>
</g>
<!-- Node31&#45;&gt;Node7 -->
<g id="edge50" class="edge">
<title>Node31&#45;&gt;Node7</title>
<path fill="none" stroke="#191970" d="M803.8593,-280.4422C829.2837,-272.5393 864.478,-260.0262 893,-244 917.7837,-230.0743 943.0033,-209.1633 959.2517,-194.6244"/>
<polygon fill="#191970" stroke="#191970" points="961.8463,-196.9953 966.8809,-187.6731 957.1318,-191.821 961.8463,-196.9953"/>
</g>
<!-- Node31&#45;&gt;Node25 -->
<g id="edge52" class="edge">
<title>Node31&#45;&gt;Node25</title>
<path fill="none" stroke="#191970" d="M719.2597,-283.8208C659.3996,-276.2417 556.6884,-262.3329 459.6571,-244.2057"/>
<polygon fill="#191970" stroke="#191970" points="460.1576,-240.7384 449.682,-242.3232 458.8594,-247.617 460.1576,-240.7384"/>
</g>
<!-- Node31&#45;&gt;Node26 -->
<g id="edge51" class="edge">
<title>Node31&#45;&gt;Node26</title>
<path fill="none" stroke="#191970" d="M759.6836,-280.4509C739.0558,-261.3574 692.5057,-218.2697 666.8328,-194.5063"/>
<polygon fill="#191970" stroke="#191970" points="669.0065,-191.7492 659.2903,-187.5249 664.2515,-196.8864 669.0065,-191.7492"/>
</g>
<!-- Node31&#45;&gt;Node27 -->
<g id="edge61" class="edge">
<title>Node31&#45;&gt;Node27</title>
<path fill="none" stroke="#191970" d="M807.5464,-280.4352C870.9438,-263.3803 994.4424,-225.936 1016,-188 1020.3917,-180.2718 1021.5401,-174.9512 1016,-168 996.5994,-143.6579 910.8003,-131.1601 857.7675,-125.6477"/>
<polygon fill="#191970" stroke="#191970" points="857.9251,-122.1461 847.6272,-124.6369 857.2307,-129.1116 857.9251,-122.1461"/>
</g>
<!-- Node32 -->
<g id="node33" class="node">
<title>Node32</title>
<polygon fill="none" stroke="#bfbfbf" points="881.5,-168.5 881.5,-187.5 928.5,-187.5 928.5,-168.5 881.5,-168.5"/>
<text text-anchor="middle" x="905" y="-175.5" font-family="Helvetica,sans-Serif" font-size="10.00" fill="#000000">vector</text>
</g>
<!-- Node31&#45;&gt;Node32 -->
<g id="edge47" class="edge">
<title>Node31&#45;&gt;Node32</title>
<path fill="none" stroke="#191970" d="M805.1732,-280.4265C826.3093,-273.2261 852.5867,-261.5444 871,-244 884.5164,-231.1215 893.622,-211.6879 898.9811,-197.2397"/>
<polygon fill="#191970" stroke="#191970" points="902.297,-198.3599 902.2307,-187.7653 895.6756,-196.0888 902.297,-198.3599"/>
</g>
<!-- Node33 -->
<g id="node34" class="node">
<title>Node33</title>
<g id="a_node34"><a xlink:href="../../d2/da7/SplineHelper1D_8h.html" target="_top" xlink:title="Definition of SplineHelper1D class. ">
<polygon fill="none" stroke="#000000" points="761.5,-224.5 761.5,-243.5 862.5,-243.5 862.5,-224.5 761.5,-224.5"/>
<text text-anchor="middle" x="812" y="-231.5" font-family="Helvetica,sans-Serif" font-size="10.00" fill="#000000">SplineHelper1D.h</text>
</a>
</g>
</g>
<!-- Node31&#45;&gt;Node33 -->
<g id="edge53" class="edge">
<title>Node31&#45;&gt;Node33</title>
<path fill="none" stroke="#191970" d="M777.3158,-280.2455C783.2179,-272.3761 791.6742,-261.101 798.7594,-251.6542"/>
<polygon fill="#191970" stroke="#191970" points="801.568,-253.7427 804.768,-243.6427 795.9679,-249.5427 801.568,-253.7427"/>
</g>
<!-- Node33&#45;&gt;Node2 -->
<g id="edge54" class="edge">
<title>Node33&#45;&gt;Node2</title>
<path fill="none" stroke="#191970" d="M796.8458,-224.2455C783.4973,-215.6534 763.8414,-203.0014 748.4617,-193.1018"/>
<polygon fill="#191970" stroke="#191970" points="750.2836,-190.1121 739.9806,-187.6427 746.4949,-195.9982 750.2836,-190.1121"/>
</g>
<!-- Node33&#45;&gt;Node3 -->
<g id="edge56" class="edge">
<title>Node33&#45;&gt;Node3</title>
<path fill="none" stroke="#191970" d="M805.1269,-224.4739C795.2595,-211.1143 776.1495,-186.3893 757,-168 721.5492,-133.9566 674.9807,-100.4333 647.3976,-81.5636"/>
<polygon fill="#191970" stroke="#191970" points="649.0563,-78.4596 638.8147,-75.7465 645.129,-84.2542 649.0563,-78.4596"/>
</g>
<!-- Node33&#45;&gt;Node6 -->
<g id="edge57" class="edge">
<title>Node33&#45;&gt;Node6</title>
<path fill="none" stroke="#191970" d="M816.5117,-224.375C832.5323,-190.1979 886.8643,-74.2894 908.2492,-28.6683"/>
<polygon fill="#191970" stroke="#191970" points="911.4298,-30.1293 912.5051,-19.5891 905.0916,-27.1582 911.4298,-30.1293"/>
</g>
<!-- Node33&#45;&gt;Node7 -->
<g id="edge58" class="edge">
<title>Node33&#45;&gt;Node7</title>
<path fill="none" stroke="#191970" d="M840.3645,-224.3733C867.6827,-215.1016 909.1796,-201.0178 939.2738,-190.804"/>
<polygon fill="#191970" stroke="#191970" points="940.661,-194.0294 949.0056,-187.5011 938.4113,-187.4008 940.661,-194.0294"/>
</g>
<!-- Node33&#45;&gt;Node26 -->
<g id="edge59" class="edge">
<title>Node33&#45;&gt;Node26</title>
<path fill="none" stroke="#191970" d="M783.9793,-224.3733C756.9922,-215.1016 715.9983,-201.0178 686.2689,-190.804"/>
<polygon fill="#191970" stroke="#191970" points="687.2497,-187.4403 676.6551,-187.5011 684.9752,-194.0605 687.2497,-187.4403"/>
</g>
<!-- Node33&#45;&gt;Node27 -->
<g id="edge60" class="edge">
<title>Node33&#45;&gt;Node27</title>
<path fill="none" stroke="#191970" d="M812.2558,-224.4509C812.7451,-206.184 813.8226,-165.9553 814.4724,-141.6976"/>
<polygon fill="#191970" stroke="#191970" points="817.9758,-141.6151 814.7449,-131.5249 810.9783,-141.4276 817.9758,-141.6151"/>
</g>
<!-- Node33&#45;&gt;Node32 -->
<g id="edge55" class="edge">
<title>Node33&#45;&gt;Node32</title>
<path fill="none" stroke="#191970" d="M828.1994,-224.2455C842.6018,-215.5731 863.8732,-202.7645 880.3799,-192.825"/>
<polygon fill="#191970" stroke="#191970" points="882.225,-195.7996 888.9863,-187.6427 878.614,-189.8028 882.225,-195.7996"/>
</g>
</g>
</svg>
        <g id="navigator" transform="translate(0 0)" fill="#404254">
                <rect fill="#f2f5e9" fill-opacity="0.5" stroke="#606060" stroke-width=".5" x="0" y="0" width="60" height="60"/>
                <use id="zoomplus" xlink:href="#zoomPlus" x="17" y="9" onmousedown="handleZoom(evt,'in')"/>
                <use id="zoomminus" xlink:href="#zoomMin" x="42" y="9" onmousedown="handleZoom(evt,'out')"/>
                <use id="reset" xlink:href="#resetDef" x="30" y="36" onmousedown="handleReset()"/>
                <g id="arrowUp" xlink:href="#dirArrow" transform="translate(30 24)" onmousedown="handlePan(0,-1)">
                  <use xlink:href="#rim" fill="#404040">
                        <set attributeName="fill" to="#808080" begin="arrowUp.mouseover" end="arrowUp.mouseout"/>
                  </use>
                  <path fill="none" stroke="white" stroke-width="1.5" d="M0,-3.0v7 M-2.5,-0.5L0,-3.0L2.5,-0.5"/>
                </g>
                <g id="arrowRight" xlink:href="#dirArrow" transform="rotate(90) translate(36 -43)" onmousedown="handlePan(1,0)">
                  <use xlink:href="#rim" fill="#404040">
                        <set attributeName="fill" to="#808080" begin="arrowRight.mouseover" end="arrowRight.mouseout"/>
                  </use>
                  <path fill="none" stroke="white" stroke-width="1.5" d="M0,-3.0v7 M-2.5,-0.5L0,-3.0L2.5,-0.5"/>
                </g>
                <g id="arrowDown" xlink:href="#dirArrow" transform="rotate(180) translate(-30 -48)" onmousedown="handlePan(0,1)">
                  <use xlink:href="#rim" fill="#404040">
                        <set attributeName="fill" to="#808080" begin="arrowDown.mouseover" end="arrowDown.mouseout"/>
                  </use>
                  <path fill="none" stroke="white" stroke-width="1.5" d="M0,-3.0v7 M-2.5,-0.5L0,-3.0L2.5,-0.5"/>
                </g>
                <g id="arrowLeft" xlink:href="#dirArrow" transform="rotate(270) translate(-36 17)" onmousedown="handlePan(-1,0)">
                  <use xlink:href="#rim" fill="#404040">
                        <set attributeName="fill" to="#808080" begin="arrowLeft.mouseover" end="arrowLeft.mouseout"/>
                  </use>
                  <path fill="none" stroke="white" stroke-width="1.5" d="M0,-3.0v7 M-2.5,-0.5L0,-3.0L2.5,-0.5"/>
                </g>
        </g>
        <svg viewBox="0 0 15 15" width="100%" height="30px" preserveAspectRatio="xMaxYMin meet">
         <g id="arrow_out" transform="scale(0.3 0.3)">
          <a xlink:href="TPCFastTransformManager_8cxx__incl_org.svg" target="_base">
           <rect id="button" ry="5" rx="5" y="6" x="6" height="38" width="38"
                fill="#f2f5e9" fill-opacity="0.5" stroke="#606060" stroke-width="1.0"/>
           <path id="arrow"
             d="M 11.500037,31.436501 C 11.940474,20.09759 22.043105,11.32322 32.158766,21.979434 L 37.068811,17.246167 C 37.068811,17.246167 37.088388,32 37.088388,32 L 22.160133,31.978069 C 22.160133,31.978069 26.997745,27.140456 26.997745,27.140456 C 18.528582,18.264221 13.291696,25.230495 11.500037,31.436501 z"
             style="fill:#404040;"/>
          </a>
         </g>
        </svg>
</svg>
