<?xml version="1.0" encoding="UTF-8" standalone="no"?>
<!DOCTYPE svg PUBLIC "-//W3C//DTD SVG 1.1//EN"
 "http://www.w3.org/Graphics/SVG/1.1/DTD/svg11.dtd">
<!-- Generated by graphviz version 2.40.1 (20161225.0304)
 -->
<!-- Title: JetFinderTask Pages: 1 -->
<svg width="2193pt" height="469pt"
 viewBox="0.00 0.00 2192.50 469.00" xmlns="http://www.w3.org/2000/svg" xmlns:xlink="http://www.w3.org/1999/xlink">
<g id="graph0" class="graph" transform="scale(1 1) rotate(0) translate(4 465)">
<title>JetFinderTask</title>
<!-- Node1 -->
<g id="node1" class="node">
<title>Node1</title>
<polygon fill="#bfbfbf" stroke="#000000" points="1093.5,-.5 1093.5,-68.5 1173.5,-68.5 1173.5,-.5 1093.5,-.5"/>
<text text-anchor="middle" x="1133.5" y="-56.5" font-family="Helvetica,sans-Serif" font-size="10.00" fill="#000000">JetFinderTask</text>
<polyline fill="none" stroke="#000000" points="1093.5,-49.5 1173.5,-49.5 "/>
<text text-anchor="middle" x="1133.5" y="-37.5" font-family="Helvetica,sans-Serif" font-size="10.00" fill="#000000"> </text>
<polyline fill="none" stroke="#000000" points="1093.5,-30.5 1173.5,-30.5 "/>
<text text-anchor="start" x="1101.5" y="-18.5" font-family="Helvetica,sans-Serif" font-size="10.00" fill="#000000">+ init()</text>
<text text-anchor="start" x="1101.5" y="-7.5" font-family="Helvetica,sans-Serif" font-size="10.00" fill="#000000">+ process()</text>
</g>
<!-- Node2 -->
<g id="node2" class="node">
<title>Node2</title>
<g id="a_node2"><a xlink:href="../../d6/d86/structo2_1_1framework_1_1Produces.html" target="_top" xlink:title="{o2::framework::Produces\l\&lt; o2::aod::JetConstituents \&gt;\n||}">
<polygon fill="none" stroke="#000000" points="0,-155 0,-223 155,-223 155,-155 0,-155"/>
<text text-anchor="start" x="8" y="-211" font-family="Helvetica,sans-Serif" font-size="10.00" fill="#000000">o2::framework::Produces</text>
<text text-anchor="middle" x="77.5" y="-200" font-family="Helvetica,sans-Serif" font-size="10.00" fill="#000000">&lt; o2::aod::JetConstituents &gt;</text>
<polyline fill="none" stroke="#000000" points="0,-193 155,-193 "/>
<text text-anchor="middle" x="77.5" y="-181" font-family="Helvetica,sans-Serif" font-size="10.00" fill="#000000"> </text>
<polyline fill="none" stroke="#000000" points="0,-174 155,-174 "/>
<text text-anchor="middle" x="77.5" y="-162" font-family="Helvetica,sans-Serif" font-size="10.00" fill="#000000"> </text>
</a>
</g>
</g>
<!-- Node2&#45;&gt;Node1 -->
<g id="edge1" class="edge">
<title>Node2&#45;&gt;Node1</title>
<path fill="none" stroke="#404040" d="M113.8916,-154.8898C141.6318,-131.1922 182.0154,-101.382 223.5,-87 304.487,-58.9231 900.2032,-40.7664 1081.3757,-35.8492"/>
<polygon fill="none" stroke="#404040" points="1081.4482,-35.8473 1087.3384,-31.6874 1093.4438,-35.5246 1087.5536,-39.6845 1081.4482,-35.8473"/>
<text text-anchor="middle" x="259.5" y="-106.5" font-family="Helvetica,sans-Serif" font-size="10.00" fill="#000000"> +constituents</text>
</g>
<!-- Node3 -->
<g id="node3" class="node">
<title>Node3</title>
<g id="a_node3"><a xlink:href="../../d6/d86/structo2_1_1framework_1_1Produces.html" target="_top" xlink:title="{o2::framework::Produces\&lt; T \&gt;\n||}">
<polygon fill="none" stroke="#000000" points="77,-282 77,-339 244,-339 244,-282 77,-282"/>
<text text-anchor="middle" x="160.5" y="-327" font-family="Helvetica,sans-Serif" font-size="10.00" fill="#000000">o2::framework::Produces&lt; T &gt;</text>
<polyline fill="none" stroke="#000000" points="77,-320 244,-320 "/>
<text text-anchor="middle" x="160.5" y="-308" font-family="Helvetica,sans-Serif" font-size="10.00" fill="#000000"> </text>
<polyline fill="none" stroke="#000000" points="77,-301 244,-301 "/>
<text text-anchor="middle" x="160.5" y="-289" font-family="Helvetica,sans-Serif" font-size="10.00" fill="#000000"> </text>
</a>
</g>
</g>
<!-- Node3&#45;&gt;Node2 -->
<g id="edge2" class="edge">
<title>Node3&#45;&gt;Node2</title>
<path fill="none" stroke="#ffa500" d="M88.198,-275.1848C82.8117,-270.108 78.09,-264.3976 74.5,-258 68.691,-247.6479 67.8235,-234.9835 68.9444,-223.3433"/>
<polygon fill="#ffa500" stroke="#ffa500" points="86.0188,-277.9257 95.911,-281.7198 90.5439,-272.5849 86.0188,-277.9257"/>
<text text-anchor="middle" x="145.5" y="-250" font-family="Helvetica,sans-Serif" font-size="10.00" fill="#000000"> &lt; o2::aod::JetConstituents &gt;</text>
</g>
<!-- Node23 -->
<g id="node23" class="node">
<title>Node23</title>
<g id="a_node23"><a xlink:href="../../d6/d86/structo2_1_1framework_1_1Produces.html" target="_top" xlink:title="{o2::framework::Produces\l\&lt; o2::aod::Jets \&gt;\n||}">
<polygon fill="none" stroke="#000000" points="173.5,-155 173.5,-223 311.5,-223 311.5,-155 173.5,-155"/>
<text text-anchor="start" x="181.5" y="-211" font-family="Helvetica,sans-Serif" font-size="10.00" fill="#000000">o2::framework::Produces</text>
<text text-anchor="middle" x="242.5" y="-200" font-family="Helvetica,sans-Serif" font-size="10.00" fill="#000000">&lt; o2::aod::Jets &gt;</text>
<polyline fill="none" stroke="#000000" points="173.5,-193 311.5,-193 "/>
<text text-anchor="middle" x="242.5" y="-181" font-family="Helvetica,sans-Serif" font-size="10.00" fill="#000000"> </text>
<polyline fill="none" stroke="#000000" points="173.5,-174 311.5,-174 "/>
<text text-anchor="middle" x="242.5" y="-162" font-family="Helvetica,sans-Serif" font-size="10.00" fill="#000000"> </text>
</a>
</g>
</g>
<!-- Node3&#45;&gt;Node23 -->
<g id="edge26" class="edge">
<title>Node3&#45;&gt;Node23</title>
<path fill="none" stroke="#ffa500" d="M207.0406,-274.5895C212.0325,-269.4037 216.6759,-263.8329 220.5,-258 227.3248,-247.5902 232.1612,-234.9126 235.5264,-223.2781"/>
<polygon fill="#ffa500" stroke="#ffa500" points="204.257,-272.4146 199.5322,-281.8976 209.1394,-277.4308 204.257,-272.4146"/>
<text text-anchor="middle" x="269.5" y="-250" font-family="Helvetica,sans-Serif" font-size="10.00" fill="#000000"> &lt; o2::aod::Jets &gt;</text>
</g>
<!-- Node4 -->
<g id="node4" class="node">
<title>Node4</title>
<g id="a_node4"><a xlink:href="../../d8/d71/structo2_1_1framework_1_1Configurable.html" target="_top" xlink:title="{o2::framework::Configurable\l\&lt; double \&gt;\n||+ Configurable()\l+ operator double()\l}">
<polygon fill="none" stroke="#000000" points="929,-149.5 929,-228.5 1084,-228.5 1084,-149.5 929,-149.5"/>
<text text-anchor="start" x="937" y="-216.5" font-family="Helvetica,sans-Serif" font-size="10.00" fill="#000000">o2::framework::Configurable</text>
<text text-anchor="middle" x="1006.5" y="-205.5" font-family="Helvetica,sans-Serif" font-size="10.00" fill="#000000">&lt; double &gt;</text>
<polyline fill="none" stroke="#000000" points="929,-198.5 1084,-198.5 "/>
<text text-anchor="middle" x="1006.5" y="-186.5" font-family="Helvetica,sans-Serif" font-size="10.00" fill="#000000"> </text>
<polyline fill="none" stroke="#000000" points="929,-179.5 1084,-179.5 "/>
<text text-anchor="start" x="937" y="-167.5" font-family="Helvetica,sans-Serif" font-size="10.00" fill="#000000">+ Configurable()</text>
<text text-anchor="start" x="937" y="-156.5" font-family="Helvetica,sans-Serif" font-size="10.00" fill="#000000">+ operator double()</text>
</a>
</g>
</g>
<!-- Node4&#45;&gt;Node1 -->
<g id="edge3" class="edge">
<title>Node4&#45;&gt;Node1</title>
<path fill="none" stroke="#404040" d="M1024.337,-149.2983C1034.4259,-129.3541 1048.2709,-105.5523 1064.5,-87 1070.2234,-80.4573 1076.8759,-74.1948 1083.7471,-68.419"/>
<polygon fill="none" stroke="#404040" points="1083.8172,-68.3629 1086.0018,-61.4907 1093.1857,-60.8641 1091.0011,-67.7363 1083.8172,-68.3629"/>
<text text-anchor="middle" x="1097" y="-112" font-family="Helvetica,sans-Serif" font-size="10.00" fill="#000000"> +rParamBkg</text>
<text text-anchor="middle" x="1097" y="-101" font-family="Helvetica,sans-Serif" font-size="10.00" fill="#000000">+rapBkg</text>
</g>
<!-- Node5 -->
<g id="node5" class="node">
<title>Node5</title>
<polygon fill="none" stroke="#bfbfbf" points="1064.5,-282 1064.5,-339 1114.5,-339 1114.5,-282 1064.5,-282"/>
<text text-anchor="middle" x="1089.5" y="-327" font-family="Helvetica,sans-Serif" font-size="10.00" fill="#000000">double</text>
<polyline fill="none" stroke="#bfbfbf" points="1064.5,-320 1114.5,-320 "/>
<text text-anchor="middle" x="1089.5" y="-308" font-family="Helvetica,sans-Serif" font-size="10.00" fill="#000000"> </text>
<polyline fill="none" stroke="#bfbfbf" points="1064.5,-301 1114.5,-301 "/>
<text text-anchor="middle" x="1089.5" y="-289" font-family="Helvetica,sans-Serif" font-size="10.00" fill="#000000"> </text>
</g>
<!-- Node5&#45;&gt;Node4 -->
<g id="edge4" class="edge">
<title>Node5&#45;&gt;Node4</title>
<path fill="none" stroke="#404040" d="M1069.8302,-281.7062C1061.0276,-268.8205 1050.3931,-253.2532 1040.373,-238.5852"/>
<polygon fill="none" stroke="#404040" points="1040.3332,-238.5269 1033.6458,-235.8288 1033.5643,-228.6181 1040.2516,-231.3162 1040.3332,-238.5269"/>
<text text-anchor="middle" x="1072" y="-250" font-family="Helvetica,sans-Serif" font-size="10.00" fill="#000000"> +value</text>
</g>
<!-- Node6 -->
<g id="node6" class="node">
<title>Node6</title>
<polygon fill="none" stroke="#bfbfbf" points="1305,-403.5 1305,-460.5 1334,-460.5 1334,-403.5 1305,-403.5"/>
<text text-anchor="middle" x="1319.5" y="-448.5" font-family="Helvetica,sans-Serif" font-size="10.00" fill="#000000">int</text>
<polyline fill="none" stroke="#bfbfbf" points="1305,-441.5 1334,-441.5 "/>
<text text-anchor="middle" x="1319.5" y="-429.5" font-family="Helvetica,sans-Serif" font-size="10.00" fill="#000000"> </text>
<polyline fill="none" stroke="#bfbfbf" points="1305,-422.5 1334,-422.5 "/>
<text text-anchor="middle" x="1319.5" y="-410.5" font-family="Helvetica,sans-Serif" font-size="10.00" fill="#000000"> </text>
</g>
<!-- Node6&#45;&gt;Node4 -->
<g id="edge5" class="edge">
<title>Node6&#45;&gt;Node4</title>
<path fill="none" stroke="#404040" d="M1304.9636,-418.4996C1298.2638,-412.941 1289.9359,-406.9024 1281.5,-403 1171.6811,-352.1985 1094.0842,-437.0082 1015.5,-345 991.4133,-316.7988 990.4858,-274.2291 994.8515,-240.6799"/>
<polygon fill="none" stroke="#404040" points="994.8583,-240.6341 991.8079,-234.1 996.6662,-228.7711 999.7166,-235.3052 994.8583,-240.6341"/>
<text text-anchor="middle" x="1035.5" y="-313.5" font-family="Helvetica,sans-Serif" font-size="10.00" fill="#000000"> +name</text>
<text text-anchor="middle" x="1035.5" y="-302.5" font-family="Helvetica,sans-Serif" font-size="10.00" fill="#000000">+help</text>
</g>
<!-- Node7 -->
<g id="node7" class="node">
<title>Node7</title>
<g id="a_node7"><a xlink:href="../../d8/d71/structo2_1_1framework_1_1Configurable.html" target="_top" xlink:title="{o2::framework::Configurable\&lt; T \&gt;\n||+ Configurable()\l+ operator T()\l}">
<polygon fill="none" stroke="#000000" points="1196.5,-276.5 1196.5,-344.5 1380.5,-344.5 1380.5,-276.5 1196.5,-276.5"/>
<text text-anchor="middle" x="1288.5" y="-332.5" font-family="Helvetica,sans-Serif" font-size="10.00" fill="#000000">o2::framework::Configurable&lt; T &gt;</text>
<polyline fill="none" stroke="#000000" points="1196.5,-325.5 1380.5,-325.5 "/>
<text text-anchor="middle" x="1288.5" y="-313.5" font-family="Helvetica,sans-Serif" font-size="10.00" fill="#000000"> </text>
<polyline fill="none" stroke="#000000" points="1196.5,-306.5 1380.5,-306.5 "/>
<text text-anchor="start" x="1204.5" y="-294.5" font-family="Helvetica,sans-Serif" font-size="10.00" fill="#000000">+ Configurable()</text>
<text text-anchor="start" x="1204.5" y="-283.5" font-family="Helvetica,sans-Serif" font-size="10.00" fill="#000000">+ operator T()</text>
</a>
</g>
</g>
<!-- Node6&#45;&gt;Node7 -->
<g id="edge7" class="edge">
<title>Node6&#45;&gt;Node7</title>
<path fill="none" stroke="#404040" d="M1312.1534,-403.2062C1308.5865,-389.2262 1304.2143,-372.0898 1300.2035,-356.37"/>
<polygon fill="none" stroke="#404040" points="1300.1929,-356.3282 1294.8337,-351.5034 1297.2261,-344.7007 1302.5853,-349.5256 1300.1929,-356.3282"/>
<text text-anchor="middle" x="1326.5" y="-377" font-family="Helvetica,sans-Serif" font-size="10.00" fill="#000000"> +name</text>
<text text-anchor="middle" x="1326.5" y="-366" font-family="Helvetica,sans-Serif" font-size="10.00" fill="#000000">+help</text>
</g>
<!-- Node14 -->
<g id="node14" class="node">
<title>Node14</title>
<g id="a_node14"><a xlink:href="../../d8/d71/structo2_1_1framework_1_1Configurable.html" target="_top" xlink:title="{o2::framework::Configurable\l\&lt; float \&gt;\n||+ Configurable()\l+ operator float()\l}">
<polygon fill="none" stroke="#000000" points="1488,-149.5 1488,-228.5 1643,-228.5 1643,-149.5 1488,-149.5"/>
<text text-anchor="start" x="1496" y="-216.5" font-family="Helvetica,sans-Serif" font-size="10.00" fill="#000000">o2::framework::Configurable</text>
<text text-anchor="middle" x="1565.5" y="-205.5" font-family="Helvetica,sans-Serif" font-size="10.00" fill="#000000">&lt; float &gt;</text>
<polyline fill="none" stroke="#000000" points="1488,-198.5 1643,-198.5 "/>
<text text-anchor="middle" x="1565.5" y="-186.5" font-family="Helvetica,sans-Serif" font-size="10.00" fill="#000000"> </text>
<polyline fill="none" stroke="#000000" points="1488,-179.5 1643,-179.5 "/>
<text text-anchor="start" x="1496" y="-167.5" font-family="Helvetica,sans-Serif" font-size="10.00" fill="#000000">+ Configurable()</text>
<text text-anchor="start" x="1496" y="-156.5" font-family="Helvetica,sans-Serif" font-size="10.00" fill="#000000">+ operator float()</text>
</a>
</g>
</g>
<!-- Node6&#45;&gt;Node14 -->
<g id="edge16" class="edge">
<title>Node6&#45;&gt;Node14</title>
<path fill="none" stroke="#404040" d="M1334.1517,-417.527C1369.3014,-382.806 1459.7045,-293.5053 1516.5325,-237.3704"/>
<polygon fill="none" stroke="#404040" points="1516.8139,-237.0923 1518.2715,-230.0301 1525.3511,-228.6592 1523.8936,-235.7215 1516.8139,-237.0923"/>
<text text-anchor="middle" x="1494.5" y="-313.5" font-family="Helvetica,sans-Serif" font-size="10.00" fill="#000000"> +name</text>
<text text-anchor="middle" x="1494.5" y="-302.5" font-family="Helvetica,sans-Serif" font-size="10.00" fill="#000000">+help</text>
</g>
<!-- Node7&#45;&gt;Node4 -->
<g id="edge6" class="edge">
<title>Node7&#45;&gt;Node4</title>
<path fill="none" stroke="#ffa500" d="M1195.722,-272.5029C1163.2801,-259.0103 1126.6815,-243.5567 1093.5,-229 1090.4553,-227.6643 1087.3553,-226.2931 1084.2273,-224.9002"/>
<polygon fill="#ffa500" stroke="#ffa500" points="1194.6227,-275.8361 1205.2004,-276.4384 1197.307,-269.3712 1194.6227,-275.8361"/>
<text text-anchor="middle" x="1187" y="-250" font-family="Helvetica,sans-Serif" font-size="10.00" fill="#000000"> &lt; double &gt;</text>
</g>
<!-- Node7&#45;&gt;Node14 -->
<g id="edge17" class="edge">
<title>Node7&#45;&gt;Node14</title>
<path fill="none" stroke="#ffa500" d="M1328.0167,-269.6578C1338.4516,-260.9255 1350.2467,-252.6428 1362.5,-247 1409.889,-225.1767 1428.5426,-244.0411 1478.5,-229 1481.5245,-228.0894 1484.5792,-227.0936 1487.6431,-226.0303"/>
<polygon fill="#ffa500" stroke="#ffa500" points="1325.5436,-267.1708 1320.3171,-276.3868 1330.15,-272.4416 1325.5436,-267.1708"/>
<text text-anchor="middle" x="1386.5" y="-250" font-family="Helvetica,sans-Serif" font-size="10.00" fill="#000000"> &lt; float &gt;</text>
</g>
<!-- Node8 -->
<g id="node8" class="node">
<title>Node8</title>
<polygon fill="none" stroke="#bfbfbf" points="1243,-403.5 1243,-460.5 1272,-460.5 1272,-403.5 1243,-403.5"/>
<text text-anchor="middle" x="1257.5" y="-448.5" font-family="Helvetica,sans-Serif" font-size="10.00" fill="#000000">T</text>
<polyline fill="none" stroke="#bfbfbf" points="1243,-441.5 1272,-441.5 "/>
<text text-anchor="middle" x="1257.5" y="-429.5" font-family="Helvetica,sans-Serif" font-size="10.00" fill="#000000"> </text>
<polyline fill="none" stroke="#bfbfbf" points="1243,-422.5 1272,-422.5 "/>
<text text-anchor="middle" x="1257.5" y="-410.5" font-family="Helvetica,sans-Serif" font-size="10.00" fill="#000000"> </text>
</g>
<!-- Node8&#45;&gt;Node7 -->
<g id="edge8" class="edge">
<title>Node8&#45;&gt;Node7</title>
<path fill="none" stroke="#404040" d="M1254.7351,-403.3509C1254.3285,-390.7682 1254.9621,-375.9433 1258.5,-363 1259.1595,-360.5871 1259.9562,-358.1685 1260.8588,-355.7663"/>
<polygon fill="none" stroke="#404040" points="1260.887,-355.7022 1259.6534,-348.5974 1265.7372,-344.726 1266.9708,-351.8308 1260.887,-355.7022"/>
<text text-anchor="middle" x="1278" y="-371.5" font-family="Helvetica,sans-Serif" font-size="10.00" fill="#000000"> +value</text>
</g>
<!-- Node9 -->
<g id="node9" class="node">
<title>Node9</title>
<polygon fill="none" stroke="#bfbfbf" points="329.5,-160.5 329.5,-217.5 385.5,-217.5 385.5,-160.5 329.5,-160.5"/>
<text text-anchor="middle" x="357.5" y="-205.5" font-family="Helvetica,sans-Serif" font-size="10.00" fill="#000000">Selector</text>
<polyline fill="none" stroke="#bfbfbf" points="329.5,-198.5 385.5,-198.5 "/>
<text text-anchor="middle" x="357.5" y="-186.5" font-family="Helvetica,sans-Serif" font-size="10.00" fill="#000000"> </text>
<polyline fill="none" stroke="#bfbfbf" points="329.5,-179.5 385.5,-179.5 "/>
<text text-anchor="middle" x="357.5" y="-167.5" font-family="Helvetica,sans-Serif" font-size="10.00" fill="#000000"> </text>
</g>
<!-- Node9&#45;&gt;Node1 -->
<g id="edge9" class="edge">
<title>Node9&#45;&gt;Node1</title>
<path fill="none" stroke="#404040" d="M374.6069,-160.0909C390.634,-135.9481 416.9678,-102.9866 449.5,-87 505.6511,-59.4068 930.4477,-41.7406 1080.8886,-36.2952"/>
<polygon fill="none" stroke="#404040" points="1081.3353,-36.2793 1087.1884,-32.0673 1093.3276,-35.8503 1087.4745,-40.0622 1081.3353,-36.2793"/>
<text text-anchor="middle" x="472" y="-112" font-family="Helvetica,sans-Serif" font-size="10.00" fill="#000000"> +selBkg</text>
<text text-anchor="middle" x="472" y="-101" font-family="Helvetica,sans-Serif" font-size="10.00" fill="#000000">+selJet</text>
</g>
<!-- Node10 -->
<g id="node10" class="node">
<title>Node10</title>
<polygon fill="none" stroke="#bfbfbf" points="403.5,-160.5 403.5,-217.5 461.5,-217.5 461.5,-160.5 403.5,-160.5"/>
<text text-anchor="middle" x="432.5" y="-205.5" font-family="Helvetica,sans-Serif" font-size="10.00" fill="#000000">Strategy</text>
<polyline fill="none" stroke="#bfbfbf" points="403.5,-198.5 461.5,-198.5 "/>
<text text-anchor="middle" x="432.5" y="-186.5" font-family="Helvetica,sans-Serif" font-size="10.00" fill="#000000"> </text>
<polyline fill="none" stroke="#bfbfbf" points="403.5,-179.5 461.5,-179.5 "/>
<text text-anchor="middle" x="432.5" y="-167.5" font-family="Helvetica,sans-Serif" font-size="10.00" fill="#000000"> </text>
</g>
<!-- Node10&#45;&gt;Node1 -->
<g id="edge10" class="edge">
<title>Node10&#45;&gt;Node1</title>
<path fill="none" stroke="#404040" d="M456.9478,-160.3735C461.2128,-156.2578 465.7981,-152.3048 470.5,-149 526.5068,-109.6343 545.2953,-104.4173 611.5,-87 699.3737,-63.8819 967.3516,-44.9093 1081.3186,-37.6629"/>
<polygon fill="none" stroke="#404040" points="1081.4923,-37.652 1087.2291,-33.2828 1093.4686,-36.8978 1087.7319,-41.267 1081.4923,-37.652"/>
<text text-anchor="middle" x="637.5" y="-106.5" font-family="Helvetica,sans-Serif" font-size="10.00" fill="#000000"> +strategy</text>
</g>
<!-- Node11 -->
<g id="node11" class="node">
<title>Node11</title>
<polygon fill="none" stroke="#bfbfbf" points="480,-155 480,-223 643,-223 643,-155 480,-155"/>
<text text-anchor="start" x="488" y="-211" font-family="Helvetica,sans-Serif" font-size="10.00" fill="#000000">unique_ptr&lt; fastjet</text>
<text text-anchor="middle" x="561.5" y="-200" font-family="Helvetica,sans-Serif" font-size="10.00" fill="#000000">::BackgroundEstimatorBase &gt;</text>
<polyline fill="none" stroke="#bfbfbf" points="480,-193 643,-193 "/>
<text text-anchor="middle" x="561.5" y="-181" font-family="Helvetica,sans-Serif" font-size="10.00" fill="#000000"> </text>
<polyline fill="none" stroke="#bfbfbf" points="480,-174 643,-174 "/>
<text text-anchor="middle" x="561.5" y="-162" font-family="Helvetica,sans-Serif" font-size="10.00" fill="#000000"> </text>
</g>
<!-- Node11&#45;&gt;Node1 -->
<g id="edge11" class="edge">
<title>Node11&#45;&gt;Node1</title>
<path fill="none" stroke="#404040" d="M619.8473,-154.9567C661.3713,-132.2396 719.2062,-103.5945 773.5,-87 879.9129,-54.4756 1010.3545,-41.853 1081.3576,-37.1434"/>
<polygon fill="none" stroke="#404040" points="1081.51,-37.1338 1087.2461,-32.7639 1093.4861,-36.378 1087.75,-40.748 1081.51,-37.1338"/>
<text text-anchor="middle" x="788.5" y="-106.5" font-family="Helvetica,sans-Serif" font-size="10.00" fill="#000000"> +bge</text>
</g>
<!-- Node12 -->
<g id="node12" class="node">
<title>Node12</title>
<polygon fill="none" stroke="#bfbfbf" points="661,-160.5 661,-217.5 816,-217.5 816,-160.5 661,-160.5"/>
<text text-anchor="middle" x="738.5" y="-205.5" font-family="Helvetica,sans-Serif" font-size="10.00" fill="#000000">vector&lt; fastjet::PseudoJet &gt;</text>
<polyline fill="none" stroke="#bfbfbf" points="661,-198.5 816,-198.5 "/>
<text text-anchor="middle" x="738.5" y="-186.5" font-family="Helvetica,sans-Serif" font-size="10.00" fill="#000000"> </text>
<polyline fill="none" stroke="#bfbfbf" points="661,-179.5 816,-179.5 "/>
<text text-anchor="middle" x="738.5" y="-167.5" font-family="Helvetica,sans-Serif" font-size="10.00" fill="#000000"> </text>
</g>
<!-- Node12&#45;&gt;Node1 -->
<g id="edge12" class="edge">
<title>Node12&#45;&gt;Node1</title>
<path fill="none" stroke="#404040" d="M769.6726,-160.4181C796.7478,-137.1521 838.0284,-105.274 879.5,-87 945.4961,-57.9196 1028.332,-44.6772 1081.1055,-38.8377"/>
<polygon fill="none" stroke="#404040" points="1081.2593,-38.8217 1086.81,-34.2185 1093.194,-37.5717 1087.6433,-42.175 1081.2593,-38.8217"/>
<text text-anchor="middle" x="897.5" y="-106.5" font-family="Helvetica,sans-Serif" font-size="10.00" fill="#000000"> +pJets</text>
</g>
<!-- Node13 -->
<g id="node13" class="node">
<title>Node13</title>
<polygon fill="none" stroke="#bfbfbf" points="834,-160.5 834,-217.5 911,-217.5 911,-160.5 834,-160.5"/>
<text text-anchor="middle" x="872.5" y="-205.5" font-family="Helvetica,sans-Serif" font-size="10.00" fill="#000000">JetDefinition</text>
<polyline fill="none" stroke="#bfbfbf" points="834,-198.5 911,-198.5 "/>
<text text-anchor="middle" x="872.5" y="-186.5" font-family="Helvetica,sans-Serif" font-size="10.00" fill="#000000"> </text>
<polyline fill="none" stroke="#bfbfbf" points="834,-179.5 911,-179.5 "/>
<text text-anchor="middle" x="872.5" y="-167.5" font-family="Helvetica,sans-Serif" font-size="10.00" fill="#000000"> </text>
</g>
<!-- Node13&#45;&gt;Node1 -->
<g id="edge13" class="edge">
<title>Node13&#45;&gt;Node1</title>
<path fill="none" stroke="#404040" d="M893.3657,-160.1163C911.2277,-137.3053 938.8604,-106.2166 969.5,-87 1003.7858,-65.4966 1047.671,-52.0546 1081.4156,-44.1612"/>
<polygon fill="none" stroke="#404040" points="1081.6401,-44.1112 1086.6257,-38.9013 1093.3524,-41.4995 1088.3668,-46.7095 1081.6401,-44.1112"/>
<text text-anchor="middle" x="1000" y="-112" font-family="Helvetica,sans-Serif" font-size="10.00" fill="#000000"> +jetDefBkg</text>
<text text-anchor="middle" x="1000" y="-101" font-family="Helvetica,sans-Serif" font-size="10.00" fill="#000000">+jetDef</text>
</g>
<!-- Node14&#45;&gt;Node1 -->
<g id="edge14" class="edge">
<title>Node14&#45;&gt;Node1</title>
<path fill="none" stroke="#404040" d="M1540.3956,-149.3853C1524.2986,-127.3968 1501.4019,-101.6109 1474.5,-87 1425.6852,-60.4877 1268.602,-44.8339 1185.7615,-38.2213"/>
<polygon fill="none" stroke="#404040" points="1185.579,-38.2072 1179.2862,-41.7286 1173.6153,-37.2742 1179.9082,-33.7528 1185.579,-38.2072"/>
<text text-anchor="middle" x="1562.5" y="-123" font-family="Helvetica,sans-Serif" font-size="10.00" fill="#000000"> +ghostEtamax</text>
<text text-anchor="middle" x="1562.5" y="-112" font-family="Helvetica,sans-Serif" font-size="10.00" fill="#000000">+rParam</text>
<text text-anchor="middle" x="1562.5" y="-101" font-family="Helvetica,sans-Serif" font-size="10.00" fill="#000000">+minJetPt</text>
<text text-anchor="middle" x="1562.5" y="-90" font-family="Helvetica,sans-Serif" font-size="10.00" fill="#000000">+maxJetEta</text>
</g>
<!-- Node15 -->
<g id="node15" class="node">
<title>Node15</title>
<g id="a_node15"><a xlink:href="../../d4/dc3/classfloat.html" target="_top" xlink:title="{float\n||}">
<polygon fill="none" stroke="#000000" points="1546.5,-282 1546.5,-339 1584.5,-339 1584.5,-282 1546.5,-282"/>
<text text-anchor="middle" x="1565.5" y="-327" font-family="Helvetica,sans-Serif" font-size="10.00" fill="#000000">float</text>
<polyline fill="none" stroke="#000000" points="1546.5,-320 1584.5,-320 "/>
<text text-anchor="middle" x="1565.5" y="-308" font-family="Helvetica,sans-Serif" font-size="10.00" fill="#000000"> </text>
<polyline fill="none" stroke="#000000" points="1546.5,-301 1584.5,-301 "/>
<text text-anchor="middle" x="1565.5" y="-289" font-family="Helvetica,sans-Serif" font-size="10.00" fill="#000000"> </text>
</a>
</g>
</g>
<!-- Node15&#45;&gt;Node14 -->
<g id="edge15" class="edge">
<title>Node15&#45;&gt;Node14</title>
<path fill="none" stroke="#404040" d="M1565.5,-281.7062C1565.5,-269.44 1565.5,-254.7438 1565.5,-240.7066"/>
<polygon fill="none" stroke="#404040" points="1565.5001,-240.6181 1561.5,-234.6182 1565.5,-228.6181 1569.5,-234.6181 1565.5001,-240.6181"/>
<text text-anchor="middle" x="1585" y="-250" font-family="Helvetica,sans-Serif" font-size="10.00" fill="#000000"> +value</text>
</g>
<!-- Node16 -->
<g id="node16" class="node">
<title>Node16</title>
<polygon fill="none" stroke="#bfbfbf" points="1102.5,-160.5 1102.5,-217.5 1164.5,-217.5 1164.5,-160.5 1102.5,-160.5"/>
<text text-anchor="middle" x="1133.5" y="-205.5" font-family="Helvetica,sans-Serif" font-size="10.00" fill="#000000">AreaType</text>
<polyline fill="none" stroke="#bfbfbf" points="1102.5,-198.5 1164.5,-198.5 "/>
<text text-anchor="middle" x="1133.5" y="-186.5" font-family="Helvetica,sans-Serif" font-size="10.00" fill="#000000"> </text>
<polyline fill="none" stroke="#bfbfbf" points="1102.5,-179.5 1164.5,-179.5 "/>
<text text-anchor="middle" x="1133.5" y="-167.5" font-family="Helvetica,sans-Serif" font-size="10.00" fill="#000000"> </text>
</g>
<!-- Node16&#45;&gt;Node1 -->
<g id="edge18" class="edge">
<title>Node16&#45;&gt;Node1</title>
<path fill="none" stroke="#404040" d="M1133.5,-160.3018C1133.5,-138.0285 1133.5,-106.6993 1133.5,-80.878"/>
<polygon fill="none" stroke="#404040" points="1133.5001,-80.7084 1129.5,-74.7085 1133.5,-68.7084 1137.5,-74.7084 1133.5001,-80.7084"/>
<text text-anchor="middle" x="1161.5" y="-106.5" font-family="Helvetica,sans-Serif" font-size="10.00" fill="#000000"> +areaType</text>
</g>
<!-- Node17 -->
<g id="node17" class="node">
<title>Node17</title>
<polygon fill="none" stroke="#bfbfbf" points="1183,-155 1183,-223 1294,-223 1294,-155 1183,-155"/>
<text text-anchor="start" x="1191" y="-211" font-family="Helvetica,sans-Serif" font-size="10.00" fill="#000000">unique_ptr&lt; fastjet</text>
<text text-anchor="middle" x="1238.5" y="-200" font-family="Helvetica,sans-Serif" font-size="10.00" fill="#000000">::Subtractor &gt;</text>
<polyline fill="none" stroke="#bfbfbf" points="1183,-193 1294,-193 "/>
<text text-anchor="middle" x="1238.5" y="-181" font-family="Helvetica,sans-Serif" font-size="10.00" fill="#000000"> </text>
<polyline fill="none" stroke="#bfbfbf" points="1183,-174 1294,-174 "/>
<text text-anchor="middle" x="1238.5" y="-162" font-family="Helvetica,sans-Serif" font-size="10.00" fill="#000000"> </text>
</g>
<!-- Node17&#45;&gt;Node1 -->
<g id="edge19" class="edge">
<title>Node17&#45;&gt;Node1</title>
<path fill="none" stroke="#404040" d="M1227.7029,-154.8807C1220.1201,-134.0631 1208.6288,-107.5878 1193.5,-87 1190.1421,-82.4305 1186.3223,-77.9789 1182.2745,-73.7246"/>
<polygon fill="none" stroke="#404040" points="1182.2674,-73.7177 1175.1862,-72.3551 1173.7203,-65.2946 1180.8016,-66.6571 1182.2674,-73.7177"/>
<text text-anchor="middle" x="1231" y="-106.5" font-family="Helvetica,sans-Serif" font-size="10.00" fill="#000000"> +sub</text>
</g>
<!-- Node18 -->
<g id="node18" class="node">
<title>Node18</title>
<polygon fill="none" stroke="#bfbfbf" points="1312,-160.5 1312,-217.5 1389,-217.5 1389,-160.5 1312,-160.5"/>
<text text-anchor="middle" x="1350.5" y="-205.5" font-family="Helvetica,sans-Serif" font-size="10.00" fill="#000000">JetAlgorithm</text>
<polyline fill="none" stroke="#bfbfbf" points="1312,-198.5 1389,-198.5 "/>
<text text-anchor="middle" x="1350.5" y="-186.5" font-family="Helvetica,sans-Serif" font-size="10.00" fill="#000000"> </text>
<polyline fill="none" stroke="#bfbfbf" points="1312,-179.5 1389,-179.5 "/>
<text text-anchor="middle" x="1350.5" y="-167.5" font-family="Helvetica,sans-Serif" font-size="10.00" fill="#000000"> </text>
</g>
<!-- Node18&#45;&gt;Node1 -->
<g id="edge20" class="edge">
<title>Node18&#45;&gt;Node1</title>
<path fill="none" stroke="#404040" d="M1327.1276,-160.1934C1308.0214,-138.0286 1279.3711,-107.7738 1249.5,-87 1229.7468,-73.2627 1205.8212,-61.7164 1184.842,-52.9812"/>
<polygon fill="none" stroke="#404040" points="1184.6643,-52.9096 1177.6037,-54.3753 1173.5352,-48.4215 1180.5958,-46.9559 1184.6643,-52.9096"/>
<text text-anchor="middle" x="1337" y="-112" font-family="Helvetica,sans-Serif" font-size="10.00" fill="#000000"> +algorithm</text>
<text text-anchor="middle" x="1337" y="-101" font-family="Helvetica,sans-Serif" font-size="10.00" fill="#000000">+algorithmBkg</text>
</g>
<!-- Node19 -->
<g id="node19" class="node">
<title>Node19</title>
<polygon fill="none" stroke="#bfbfbf" points="1407.5,-160.5 1407.5,-217.5 1469.5,-217.5 1469.5,-160.5 1407.5,-160.5"/>
<text text-anchor="middle" x="1438.5" y="-205.5" font-family="Helvetica,sans-Serif" font-size="10.00" fill="#000000">BkgMode</text>
<polyline fill="none" stroke="#bfbfbf" points="1407.5,-198.5 1469.5,-198.5 "/>
<text text-anchor="middle" x="1438.5" y="-186.5" font-family="Helvetica,sans-Serif" font-size="10.00" fill="#000000"> </text>
<polyline fill="none" stroke="#bfbfbf" points="1407.5,-179.5 1469.5,-179.5 "/>
<text text-anchor="middle" x="1438.5" y="-167.5" font-family="Helvetica,sans-Serif" font-size="10.00" fill="#000000"> </text>
</g>
<!-- Node19&#45;&gt;Node1 -->
<g id="edge21" class="edge">
<title>Node19&#45;&gt;Node1</title>
<path fill="none" stroke="#404040" d="M1429.0118,-160.2942C1419.7944,-136.9527 1403.4902,-105.0332 1378.5,-87 1348.1579,-65.1049 1247.9583,-48.9287 1185.4912,-40.6727"/>
<polygon fill="none" stroke="#404040" points="1185.4338,-40.6653 1178.9707,-43.8636 1173.5327,-39.1277 1179.9958,-35.9295 1185.4338,-40.6653"/>
<text text-anchor="middle" x="1442.5" y="-106.5" font-family="Helvetica,sans-Serif" font-size="10.00" fill="#000000"> +bkgMode</text>
</g>
<!-- Node20 -->
<g id="node20" class="node">
<title>Node20</title>
<g id="a_node20"><a xlink:href="../../d1/d9a/structo2_1_1framework_1_1expressions_1_1Filter.html" target="_top" xlink:title="A struct, containing the root of the expression tree. ">
<polygon fill="none" stroke="#000000" points="1782.5,-155 1782.5,-223 1934.5,-223 1934.5,-155 1782.5,-155"/>
<text text-anchor="start" x="1790.5" y="-211" font-family="Helvetica,sans-Serif" font-size="10.00" fill="#000000">o2::framework::expressions</text>
<text text-anchor="middle" x="1858.5" y="-200" font-family="Helvetica,sans-Serif" font-size="10.00" fill="#000000">::Filter</text>
<polyline fill="none" stroke="#000000" points="1782.5,-193 1934.5,-193 "/>
<text text-anchor="middle" x="1858.5" y="-181" font-family="Helvetica,sans-Serif" font-size="10.00" fill="#000000"> </text>
<polyline fill="none" stroke="#000000" points="1782.5,-174 1934.5,-174 "/>
<text text-anchor="start" x="1790.5" y="-162" font-family="Helvetica,sans-Serif" font-size="10.00" fill="#000000">+ Filter()</text>
</a>
</g>
</g>
<!-- Node20&#45;&gt;Node1 -->
<g id="edge22" class="edge">
<title>Node20&#45;&gt;Node1</title>
<path fill="none" stroke="#404040" d="M1826.3987,-154.9987C1801.983,-131.5181 1766.2472,-101.9302 1728.5,-87 1630.3764,-48.189 1312.2416,-37.9064 1185.9084,-35.3214"/>
<polygon fill="none" stroke="#404040" points="1185.5853,-35.3152 1179.5085,-39.1976 1173.5876,-35.0814 1179.6644,-31.1991 1185.5853,-35.3152"/>
<text text-anchor="middle" x="1825.5" y="-106.5" font-family="Helvetica,sans-Serif" font-size="10.00" fill="#000000"> +trackCuts</text>
</g>
<!-- Node21 -->
<g id="node21" class="node">
<title>Node21</title>
<polygon fill="none" stroke="#bfbfbf" points="1783,-276.5 1783,-344.5 1934,-344.5 1934,-276.5 1783,-276.5"/>
<text text-anchor="start" x="1791" y="-332.5" font-family="Helvetica,sans-Serif" font-size="10.00" fill="#000000">unique_ptr&lt; o2::framework</text>
<text text-anchor="middle" x="1858.5" y="-321.5" font-family="Helvetica,sans-Serif" font-size="10.00" fill="#000000">::expressions::Node &gt;</text>
<polyline fill="none" stroke="#bfbfbf" points="1783,-314.5 1934,-314.5 "/>
<text text-anchor="middle" x="1858.5" y="-302.5" font-family="Helvetica,sans-Serif" font-size="10.00" fill="#000000"> </text>
<polyline fill="none" stroke="#bfbfbf" points="1783,-295.5 1934,-295.5 "/>
<text text-anchor="middle" x="1858.5" y="-283.5" font-family="Helvetica,sans-Serif" font-size="10.00" fill="#000000"> </text>
</g>
<!-- Node21&#45;&gt;Node20 -->
<g id="edge23" class="edge">
<title>Node21&#45;&gt;Node20</title>
<path fill="none" stroke="#404040" d="M1858.5,-276.3321C1858.5,-263.6499 1858.5,-249.0424 1858.5,-235.448"/>
<polygon fill="none" stroke="#404040" points="1858.5001,-235.3324 1854.5,-229.3324 1858.5,-223.3324 1862.5,-229.3323 1858.5001,-235.3324"/>
<text text-anchor="middle" x="1876.5" y="-250" font-family="Helvetica,sans-Serif" font-size="10.00" fill="#000000"> +node</text>
</g>
<!-- Node22 -->
<g id="node22" class="node">
<title>Node22</title>
<polygon fill="none" stroke="#bfbfbf" points="1661,-160.5 1661,-217.5 1764,-217.5 1764,-160.5 1661,-160.5"/>
<text text-anchor="middle" x="1712.5" y="-205.5" font-family="Helvetica,sans-Serif" font-size="10.00" fill="#000000">GhostedAreaSpec</text>
<polyline fill="none" stroke="#bfbfbf" points="1661,-198.5 1764,-198.5 "/>
<text text-anchor="middle" x="1712.5" y="-186.5" font-family="Helvetica,sans-Serif" font-size="10.00" fill="#000000"> </text>
<polyline fill="none" stroke="#bfbfbf" points="1661,-179.5 1764,-179.5 "/>
<text text-anchor="middle" x="1712.5" y="-167.5" font-family="Helvetica,sans-Serif" font-size="10.00" fill="#000000"> </text>
</g>
<!-- Node22&#45;&gt;Node1 -->
<g id="edge24" class="edge">
<title>Node22&#45;&gt;Node1</title>
<path fill="none" stroke="#404040" d="M1691.1201,-160.336C1671.4736,-136.3502 1640.0685,-103.4815 1604.5,-87 1531.0753,-52.9769 1292.3908,-40.2424 1185.7723,-36.1688"/>
<polygon fill="none" stroke="#404040" points="1185.7394,-36.1677 1179.5959,-39.9436 1173.7476,-35.7249 1179.8911,-31.949 1185.7394,-36.1677"/>
<text text-anchor="middle" x="1693.5" y="-106.5" font-family="Helvetica,sans-Serif" font-size="10.00" fill="#000000"> +ghostSpec</text>
</g>
<!-- Node23&#45;&gt;Node1 -->
<g id="edge25" class="edge">
<title>Node23&#45;&gt;Node1</title>
<path fill="none" stroke="#404040" d="M272.1329,-154.7836C294.8042,-131.1976 328.2542,-101.572 364.5,-87 430.5716,-60.4371 918.431,-41.7507 1080.9768,-36.2071"/>
<polygon fill="none" stroke="#404040" points="1081.4589,-36.191 1087.3204,-31.9907 1093.452,-35.7858 1087.5905,-39.9861 1081.4589,-36.191"/>
<text text-anchor="middle" x="379.5" y="-106.5" font-family="Helvetica,sans-Serif" font-size="10.00" fill="#000000"> +jets</text>
</g>
<!-- Node24 -->
<g id="node24" class="node">
<title>Node24</title>
<polygon fill="none" stroke="#bfbfbf" points="1952.5,-160.5 1952.5,-217.5 2038.5,-217.5 2038.5,-160.5 1952.5,-160.5"/>
<text text-anchor="middle" x="1995.5" y="-205.5" font-family="Helvetica,sans-Serif" font-size="10.00" fill="#000000">AreaDefinition</text>
<polyline fill="none" stroke="#bfbfbf" points="1952.5,-198.5 2038.5,-198.5 "/>
<text text-anchor="middle" x="1995.5" y="-186.5" font-family="Helvetica,sans-Serif" font-size="10.00" fill="#000000"> </text>
<polyline fill="none" stroke="#bfbfbf" points="1952.5,-179.5 2038.5,-179.5 "/>
<text text-anchor="middle" x="1995.5" y="-167.5" font-family="Helvetica,sans-Serif" font-size="10.00" fill="#000000"> </text>
</g>
<!-- Node24&#45;&gt;Node1 -->
<g id="edge27" class="edge">
<title>Node24&#45;&gt;Node1</title>
<path fill="none" stroke="#404040" d="M1967.5011,-160.3322C1941.7144,-135.9947 1901.0991,-102.6098 1858.5,-87 1795.8405,-64.0393 1341.769,-43.1797 1185.8768,-36.6244"/>
<polygon fill="none" stroke="#404040" points="1185.8708,-36.6242 1179.7091,-40.3704 1173.8813,-36.1235 1180.0429,-32.3774 1185.8708,-36.6242"/>
<text text-anchor="middle" x="1965.5" y="-112" font-family="Helvetica,sans-Serif" font-size="10.00" fill="#000000"> +areaDefBkg</text>
<text text-anchor="middle" x="1965.5" y="-101" font-family="Helvetica,sans-Serif" font-size="10.00" fill="#000000">+areaDef</text>
</g>
<!-- Node25 -->
<g id="node25" class="node">
<title>Node25</title>
<polygon fill="none" stroke="#bfbfbf" points="2056.5,-160.5 2056.5,-217.5 2184.5,-217.5 2184.5,-160.5 2056.5,-160.5"/>
<text text-anchor="middle" x="2120.5" y="-205.5" font-family="Helvetica,sans-Serif" font-size="10.00" fill="#000000">RecombinationScheme</text>
<polyline fill="none" stroke="#bfbfbf" points="2056.5,-198.5 2184.5,-198.5 "/>
<text text-anchor="middle" x="2120.5" y="-186.5" font-family="Helvetica,sans-Serif" font-size="10.00" fill="#000000"> </text>
<polyline fill="none" stroke="#bfbfbf" points="2056.5,-179.5 2184.5,-179.5 "/>
<text text-anchor="middle" x="2120.5" y="-167.5" font-family="Helvetica,sans-Serif" font-size="10.00" fill="#000000"> </text>
</g>
<!-- Node25&#45;&gt;Node1 -->
<g id="edge28" class="edge">
<title>Node25&#45;&gt;Node1</title>
<path fill="none" stroke="#404040" d="M2097.7003,-160.3406C2076.4624,-136.0086 2042.4378,-102.6271 2004.5,-87 1928.9241,-55.8693 1361.7305,-39.9146 1185.548,-35.6733"/>
<polygon fill="none" stroke="#404040" points="1185.5474,-35.6733 1179.454,-39.5296 1173.5508,-35.3881 1179.6442,-31.5318 1185.5474,-35.6733"/>
<text text-anchor="middle" x="2118" y="-112" font-family="Helvetica,sans-Serif" font-size="10.00" fill="#000000"> +recombScheme</text>
<text text-anchor="middle" x="2118" y="-101" font-family="Helvetica,sans-Serif" font-size="10.00" fill="#000000">+recombSchemeBkg</text>
</g>
</g>
</svg>
