<?xml version="1.0" encoding="UTF-8" standalone="no"?>
<!DOCTYPE svg PUBLIC "-//W3C//DTD SVG 1.1//EN"
 "http://www.w3.org/Graphics/SVG/1.1/DTD/svg11.dtd">
<!-- Generated by graphviz version 2.40.1 (20161225.0304)
 -->
<!-- Title: o2::soa::CombinationsBlockStrictlyUpperIndexPolicy&lt; T, Ts &gt; Pages: 1 -->
<svg width="946pt" height="851pt"
 viewBox="0.00 0.00 946.00 851.00" xmlns="http://www.w3.org/2000/svg" xmlns:xlink="http://www.w3.org/1999/xlink">
<g id="graph0" class="graph" transform="scale(1 1) rotate(0) translate(4 847)">
<title>o2::soa::CombinationsBlockStrictlyUpperIndexPolicy&lt; T, Ts &gt;</title>
<!-- Node5 -->
<g id="node1" class="node">
<title>Node5</title>
<polygon fill="#bfbfbf" stroke="#000000" points="173.5,-.5 173.5,-112.5 330.5,-112.5 330.5,-.5 173.5,-.5"/>
<text text-anchor="start" x="181.5" y="-100.5" font-family="Helvetica,sans-Serif" font-size="10.00" fill="#000000">o2::soa::CombinationsBlock</text>
<text text-anchor="start" x="181.5" y="-89.5" font-family="Helvetica,sans-Serif" font-size="10.00" fill="#000000">StrictlyUpperIndexPolicy</text>
<text text-anchor="middle" x="252" y="-78.5" font-family="Helvetica,sans-Serif" font-size="10.00" fill="#000000">&lt; T, Ts &gt;</text>
<polyline fill="none" stroke="#000000" points="173.5,-71.5 330.5,-71.5 "/>
<text text-anchor="middle" x="252" y="-59.5" font-family="Helvetica,sans-Serif" font-size="10.00" fill="#000000"> </text>
<polyline fill="none" stroke="#000000" points="173.5,-52.5 330.5,-52.5 "/>
<text text-anchor="start" x="181.5" y="-40.5" font-family="Helvetica,sans-Serif" font-size="10.00" fill="#000000">+ CombinationsBlockStrictly</text>
<text text-anchor="start" x="181.5" y="-29.5" font-family="Helvetica,sans-Serif" font-size="10.00" fill="#000000">UpperIndexPolicy()</text>
<text text-anchor="start" x="181.5" y="-18.5" font-family="Helvetica,sans-Serif" font-size="10.00" fill="#000000">+ setRanges()</text>
<text text-anchor="start" x="181.5" y="-7.5" font-family="Helvetica,sans-Serif" font-size="10.00" fill="#000000">+ addOne()</text>
</g>
<!-- Node6 -->
<g id="node2" class="node">
<title>Node6</title>
<g id="a_node2"><a xlink:href="../../d0/d11/structo2_1_1soa_1_1CombinationsBlockIndexPolicyBase.html" target="_top" xlink:title="{o2::soa::CombinationsBlock\lIndexPolicyBase\&lt; T, Ts... \&gt;\n||+ CombinationsBlockIndexPolicyBase()\l}">
<polygon fill="none" stroke="#000000" points="147,-150.5 147,-218.5 357,-218.5 357,-150.5 147,-150.5"/>
<text text-anchor="start" x="155" y="-206.5" font-family="Helvetica,sans-Serif" font-size="10.00" fill="#000000">o2::soa::CombinationsBlock</text>
<text text-anchor="middle" x="252" y="-195.5" font-family="Helvetica,sans-Serif" font-size="10.00" fill="#000000">IndexPolicyBase&lt; T, Ts... &gt;</text>
<polyline fill="none" stroke="#000000" points="147,-188.5 357,-188.5 "/>
<text text-anchor="middle" x="252" y="-176.5" font-family="Helvetica,sans-Serif" font-size="10.00" fill="#000000"> </text>
<polyline fill="none" stroke="#000000" points="147,-169.5 357,-169.5 "/>
<text text-anchor="start" x="155" y="-157.5" font-family="Helvetica,sans-Serif" font-size="10.00" fill="#000000">+ CombinationsBlockIndexPolicyBase()</text>
</a>
</g>
</g>
<!-- Node6&#45;&gt;Node5 -->
<g id="edge1" class="edge">
<title>Node6&#45;&gt;Node5</title>
<path fill="none" stroke="#191970" d="M252,-140.1038C252,-131.2484 252,-121.8388 252,-112.6485"/>
<polygon fill="none" stroke="#191970" points="248.5001,-140.1983 252,-150.1983 255.5001,-140.1984 248.5001,-140.1983"/>
</g>
<!-- Node7 -->
<g id="node3" class="node">
<title>Node7</title>
<g id="a_node3"><a xlink:href="../../de/dac/structo2_1_1soa_1_1CombinationsIndexPolicyBase.html" target="_top" xlink:title="{o2::soa::CombinationsIndex\lPolicyBase\&lt; Ts... \&gt;\n||+ CombinationsIndexPolicyBase()\l+ moveToEnd()\l+ addOne()\l}">
<polygon fill="none" stroke="#000000" points="513.5,-382.5 513.5,-472.5 696.5,-472.5 696.5,-382.5 513.5,-382.5"/>
<text text-anchor="start" x="521.5" y="-460.5" font-family="Helvetica,sans-Serif" font-size="10.00" fill="#000000">o2::soa::CombinationsIndex</text>
<text text-anchor="middle" x="605" y="-449.5" font-family="Helvetica,sans-Serif" font-size="10.00" fill="#000000">PolicyBase&lt; Ts... &gt;</text>
<polyline fill="none" stroke="#000000" points="513.5,-442.5 696.5,-442.5 "/>
<text text-anchor="middle" x="605" y="-430.5" font-family="Helvetica,sans-Serif" font-size="10.00" fill="#000000"> </text>
<polyline fill="none" stroke="#000000" points="513.5,-423.5 696.5,-423.5 "/>
<text text-anchor="start" x="521.5" y="-411.5" font-family="Helvetica,sans-Serif" font-size="10.00" fill="#000000">+ CombinationsIndexPolicyBase()</text>
<text text-anchor="start" x="521.5" y="-400.5" font-family="Helvetica,sans-Serif" font-size="10.00" fill="#000000">+ moveToEnd()</text>
<text text-anchor="start" x="521.5" y="-389.5" font-family="Helvetica,sans-Serif" font-size="10.00" fill="#000000">+ addOne()</text>
</a>
</g>
</g>
<!-- Node7&#45;&gt;Node6 -->
<g id="edge2" class="edge">
<title>Node7&#45;&gt;Node6</title>
<path fill="none" stroke="#191970" d="M613.2409,-371.8249C615.1046,-337.3347 611.0897,-294.3603 586,-266 555.8934,-231.9688 443.4615,-209.5896 357.2751,-197.0397"/>
<polygon fill="none" stroke="#191970" points="609.7189,-372.005 612.4906,-382.2308 616.7008,-372.5085 609.7189,-372.005"/>
</g>
<!-- Node15 -->
<g id="node11" class="node">
<title>Node15</title>
<g id="a_node11"><a xlink:href="../../d0/d11/structo2_1_1soa_1_1CombinationsBlockIndexPolicyBase.html" target="_top" xlink:title="{o2::soa::CombinationsBlock\lIndexPolicyBase\&lt; T, Ts \&gt;\n||+ CombinationsBlockIndexPolicyBase()\l}">
<polygon fill="none" stroke="#000000" points="367,-266.5 367,-334.5 577,-334.5 577,-266.5 367,-266.5"/>
<text text-anchor="start" x="375" y="-322.5" font-family="Helvetica,sans-Serif" font-size="10.00" fill="#000000">o2::soa::CombinationsBlock</text>
<text text-anchor="middle" x="472" y="-311.5" font-family="Helvetica,sans-Serif" font-size="10.00" fill="#000000">IndexPolicyBase&lt; T, Ts &gt;</text>
<polyline fill="none" stroke="#000000" points="367,-304.5 577,-304.5 "/>
<text text-anchor="middle" x="472" y="-292.5" font-family="Helvetica,sans-Serif" font-size="10.00" fill="#000000"> </text>
<polyline fill="none" stroke="#000000" points="367,-285.5 577,-285.5 "/>
<text text-anchor="start" x="375" y="-273.5" font-family="Helvetica,sans-Serif" font-size="10.00" fill="#000000">+ CombinationsBlockIndexPolicyBase()</text>
</a>
</g>
</g>
<!-- Node7&#45;&gt;Node15 -->
<g id="edge15" class="edge">
<title>Node7&#45;&gt;Node15</title>
<path fill="none" stroke="#191970" d="M550.3214,-375.2881C535.985,-361.5985 520.8912,-347.1856 507.822,-334.706"/>
<polygon fill="none" stroke="#191970" points="548.0852,-377.9922 557.7347,-382.367 552.9195,-372.9296 548.0852,-377.9922"/>
</g>
<!-- Node8 -->
<g id="node4" class="node">
<title>Node8</title>
<polygon fill="none" stroke="#bfbfbf" points="746.5,-658.5 746.5,-726.5 861.5,-726.5 861.5,-658.5 746.5,-658.5"/>
<text text-anchor="start" x="754.5" y="-714.5" font-family="Helvetica,sans-Serif" font-size="10.00" fill="#000000">tuple&lt; typename Ts</text>
<text text-anchor="middle" x="804" y="-703.5" font-family="Helvetica,sans-Serif" font-size="10.00" fill="#000000">::iterator... &gt;</text>
<polyline fill="none" stroke="#bfbfbf" points="746.5,-696.5 861.5,-696.5 "/>
<text text-anchor="middle" x="804" y="-684.5" font-family="Helvetica,sans-Serif" font-size="10.00" fill="#000000"> </text>
<polyline fill="none" stroke="#bfbfbf" points="746.5,-677.5 861.5,-677.5 "/>
<text text-anchor="middle" x="804" y="-665.5" font-family="Helvetica,sans-Serif" font-size="10.00" fill="#000000"> </text>
</g>
<!-- Node8&#45;&gt;Node7 -->
<g id="edge3" class="edge">
<title>Node8&#45;&gt;Node7</title>
<path fill="none" stroke="#404040" d="M833.2373,-658.36C838.0008,-652.364 842.7587,-646.0913 847,-640 877.7799,-595.7945 895.0293,-564.0308 864,-520 845.1305,-493.2241 772.0851,-468.5782 708.3585,-451.4709"/>
<polygon fill="none" stroke="#404040" points="708.1862,-451.4256 701.3646,-453.7633 696.5829,-448.3655 703.4046,-446.0278 708.1862,-451.4256"/>
<text text-anchor="middle" x="909" y="-563" font-family="Helvetica,sans-Serif" font-size="10.00" fill="#000000"> +mCurrent</text>
</g>
<!-- Node12 -->
<g id="node8" class="node">
<title>Node12</title>
<g id="a_node8"><a xlink:href="../../de/dac/structo2_1_1soa_1_1CombinationsIndexPolicyBase.html" target="_top" xlink:title="{o2::soa::CombinationsIndex\lPolicyBase\&lt; Ts \&gt;\n||+ CombinationsIndexPolicyBase()\l+ moveToEnd()\l+ addOne()\l}">
<polygon fill="none" stroke="#000000" points="671.5,-520.5 671.5,-610.5 854.5,-610.5 854.5,-520.5 671.5,-520.5"/>
<text text-anchor="start" x="679.5" y="-598.5" font-family="Helvetica,sans-Serif" font-size="10.00" fill="#000000">o2::soa::CombinationsIndex</text>
<text text-anchor="middle" x="763" y="-587.5" font-family="Helvetica,sans-Serif" font-size="10.00" fill="#000000">PolicyBase&lt; Ts &gt;</text>
<polyline fill="none" stroke="#000000" points="671.5,-580.5 854.5,-580.5 "/>
<text text-anchor="middle" x="763" y="-568.5" font-family="Helvetica,sans-Serif" font-size="10.00" fill="#000000"> </text>
<polyline fill="none" stroke="#000000" points="671.5,-561.5 854.5,-561.5 "/>
<text text-anchor="start" x="679.5" y="-549.5" font-family="Helvetica,sans-Serif" font-size="10.00" fill="#000000">+ CombinationsIndexPolicyBase()</text>
<text text-anchor="start" x="679.5" y="-538.5" font-family="Helvetica,sans-Serif" font-size="10.00" fill="#000000">+ moveToEnd()</text>
<text text-anchor="start" x="679.5" y="-527.5" font-family="Helvetica,sans-Serif" font-size="10.00" fill="#000000">+ addOne()</text>
</a>
</g>
</g>
<!-- Node8&#45;&gt;Node12 -->
<g id="edge8" class="edge">
<title>Node8&#45;&gt;Node12</title>
<path fill="none" stroke="#404040" d="M793.0128,-658.4663C789.4177,-647.3304 785.3211,-634.6409 781.3349,-622.2934"/>
<polygon fill="none" stroke="#404040" points="781.2536,-622.0415 775.6037,-617.5606 777.5669,-610.6219 783.2168,-615.1028 781.2536,-622.0415"/>
<text text-anchor="middle" x="814" y="-632" font-family="Helvetica,sans-Serif" font-size="10.00" fill="#000000"> +mCurrent</text>
</g>
<!-- Node9 -->
<g id="node5" class="node">
<title>Node9</title>
<polygon fill="none" stroke="#bfbfbf" points="665,-664 665,-721 703,-721 703,-664 665,-664"/>
<text text-anchor="middle" x="684" y="-709" font-family="Helvetica,sans-Serif" font-size="10.00" fill="#000000">bool</text>
<polyline fill="none" stroke="#bfbfbf" points="665,-702 703,-702 "/>
<text text-anchor="middle" x="684" y="-690" font-family="Helvetica,sans-Serif" font-size="10.00" fill="#000000"> </text>
<polyline fill="none" stroke="#bfbfbf" points="665,-683 703,-683 "/>
<text text-anchor="middle" x="684" y="-671" font-family="Helvetica,sans-Serif" font-size="10.00" fill="#000000"> </text>
</g>
<!-- Node9&#45;&gt;Node7 -->
<g id="edge4" class="edge">
<title>Node9&#45;&gt;Node7</title>
<path fill="none" stroke="#404040" d="M664.8916,-676.6302C648.3764,-661.6339 625.5498,-637.5298 615,-611 599.0591,-570.9131 597.1678,-521.9803 598.9318,-484.7294"/>
<polygon fill="none" stroke="#404040" points="598.9422,-484.5529 595.3057,-478.3258 599.6551,-472.574 603.2916,-478.8011 598.9422,-484.5529"/>
<text text-anchor="middle" x="639" y="-563" font-family="Helvetica,sans-Serif" font-size="10.00" fill="#000000"> +mIsEnd</text>
</g>
<!-- Node9&#45;&gt;Node12 -->
<g id="edge9" class="edge">
<title>Node9&#45;&gt;Node12</title>
<path fill="none" stroke="#404040" d="M701.7291,-663.9987C709.563,-651.4051 719.0582,-636.1405 728.2112,-621.4263"/>
<polygon fill="none" stroke="#404040" points="728.4484,-621.0449 728.2211,-613.8374 734.7868,-610.8554 735.0141,-618.063 728.4484,-621.0449"/>
<text text-anchor="middle" x="747" y="-632" font-family="Helvetica,sans-Serif" font-size="10.00" fill="#000000"> +mIsEnd</text>
</g>
<!-- Node10 -->
<g id="node6" class="node">
<title>Node10</title>
<g id="a_node6"><a xlink:href="../../dd/da8/structo2_1_1soa_1_1NTupleType.html" target="_top" xlink:title="{o2::soa::NTupleType\l\&lt; uint64_t, sizeof...(Ts)\&gt;\n||}">
<polygon fill="none" stroke="#000000" points="376.5,-658.5 376.5,-726.5 513.5,-726.5 513.5,-658.5 376.5,-658.5"/>
<text text-anchor="start" x="384.5" y="-714.5" font-family="Helvetica,sans-Serif" font-size="10.00" fill="#000000">o2::soa::NTupleType</text>
<text text-anchor="middle" x="445" y="-703.5" font-family="Helvetica,sans-Serif" font-size="10.00" fill="#000000">&lt; uint64_t, sizeof...(Ts)&gt;</text>
<polyline fill="none" stroke="#000000" points="376.5,-696.5 513.5,-696.5 "/>
<text text-anchor="middle" x="445" y="-684.5" font-family="Helvetica,sans-Serif" font-size="10.00" fill="#000000"> </text>
<polyline fill="none" stroke="#000000" points="376.5,-677.5 513.5,-677.5 "/>
<text text-anchor="middle" x="445" y="-665.5" font-family="Helvetica,sans-Serif" font-size="10.00" fill="#000000"> </text>
</a>
</g>
</g>
<!-- Node10&#45;&gt;Node6 -->
<g id="edge13" class="edge">
<title>Node10&#45;&gt;Node6</title>
<path fill="none" stroke="#404040" d="M376.444,-687.2081C251.6179,-675.6724 0,-642.8288 0,-565.5 0,-565.5 0,-565.5 0,-300.5 0,-268.1846 69.2436,-237.8741 135.137,-216.346"/>
<polygon fill="none" stroke="#404040" points="135.5249,-216.2219 140.0204,-210.5836 146.9541,-212.5647 142.4586,-218.2031 135.5249,-216.2219"/>
<text text-anchor="middle" x="46" y="-425" font-family="Helvetica,sans-Serif" font-size="10.00" fill="#000000"> +mCurrentIndices</text>
</g>
<!-- Node10&#45;&gt;Node7 -->
<g id="edge5" class="edge">
<title>Node10&#45;&gt;Node7</title>
<path fill="none" stroke="#404040" d="M456.9908,-658.2131C470.3553,-622.2455 493.9551,-564.8212 523,-520 531.3801,-507.0681 541.5104,-494.1134 551.7497,-482.1661"/>
<polygon fill="none" stroke="#404040" points="552.0371,-481.8387 552.9892,-474.6907 559.9535,-472.8202 559.0014,-479.9682 552.0371,-481.8387"/>
<text text-anchor="middle" x="558.5" y="-563" font-family="Helvetica,sans-Serif" font-size="10.00" fill="#000000"> +mMaxOffset</text>
</g>
<!-- Node10&#45;&gt;Node12 -->
<g id="edge10" class="edge">
<title>Node10&#45;&gt;Node12</title>
<path fill="none" stroke="#404040" d="M513.5272,-666.9198C555.173,-651.1847 609.3325,-630.3847 657,-611 658.0348,-610.5792 659.0749,-610.1551 660.1194,-609.7281"/>
<polygon fill="none" stroke="#404040" points="660.3566,-609.6304 664.3793,-603.6455 671.4509,-605.0568 667.4283,-611.0417 660.3566,-609.6304"/>
<text text-anchor="middle" x="645.5" y="-632" font-family="Helvetica,sans-Serif" font-size="10.00" fill="#000000"> +mMaxOffset</text>
</g>
<!-- Node10&#45;&gt;Node15 -->
<g id="edge18" class="edge">
<title>Node10&#45;&gt;Node15</title>
<path fill="none" stroke="#404040" d="M441.5751,-658.2057C438.1214,-618.0531 433.9636,-549.5808 439,-491 443.2807,-441.2091 453.7443,-384.8981 461.751,-346.4926"/>
<polygon fill="none" stroke="#404040" points="461.7658,-346.4227 459.0964,-339.7239 464.2534,-334.6834 466.9227,-341.3823 461.7658,-346.4227"/>
<text text-anchor="middle" x="485" y="-494" font-family="Helvetica,sans-Serif" font-size="10.00" fill="#000000"> +mCurrentIndices</text>
</g>
<!-- Node11 -->
<g id="node7" class="node">
<title>Node11</title>
<g id="a_node7"><a xlink:href="../../dd/da8/structo2_1_1soa_1_1NTupleType.html" target="_top" xlink:title="{o2::soa::NTupleType\l\&lt; T, N, REST \&gt;\n||}">
<polygon fill="none" stroke="#000000" points="388.5,-774.5 388.5,-842.5 501.5,-842.5 501.5,-774.5 388.5,-774.5"/>
<text text-anchor="start" x="396.5" y="-830.5" font-family="Helvetica,sans-Serif" font-size="10.00" fill="#000000">o2::soa::NTupleType</text>
<text text-anchor="middle" x="445" y="-819.5" font-family="Helvetica,sans-Serif" font-size="10.00" fill="#000000">&lt; T, N, REST &gt;</text>
<polyline fill="none" stroke="#000000" points="388.5,-812.5 501.5,-812.5 "/>
<text text-anchor="middle" x="445" y="-800.5" font-family="Helvetica,sans-Serif" font-size="10.00" fill="#000000"> </text>
<polyline fill="none" stroke="#000000" points="388.5,-793.5 501.5,-793.5 "/>
<text text-anchor="middle" x="445" y="-781.5" font-family="Helvetica,sans-Serif" font-size="10.00" fill="#000000"> </text>
</a>
</g>
</g>
<!-- Node11&#45;&gt;Node10 -->
<g id="edge6" class="edge">
<title>Node11&#45;&gt;Node10</title>
<path fill="none" stroke="#ffa500" d="M445,-764.1851C445,-751.8048 445,-738.5422 445,-726.833"/>
<polygon fill="#ffa500" stroke="#ffa500" points="441.5001,-764.3235 445,-774.3236 448.5001,-764.3236 441.5001,-764.3235"/>
<text text-anchor="middle" x="507" y="-748" font-family="Helvetica,sans-Serif" font-size="10.00" fill="#000000"> &lt; uint64_t, sizeof...(Ts)&gt;</text>
</g>
<!-- Node12&#45;&gt;Node7 -->
<g id="edge7" class="edge">
<title>Node12&#45;&gt;Node7</title>
<path fill="none" stroke="#ffa500" d="M703.3279,-513.3813C687.9429,-499.9438 671.5159,-485.5962 656.5814,-472.5521"/>
<polygon fill="#ffa500" stroke="#ffa500" points="701.4308,-516.3714 711.2649,-520.3136 706.0356,-511.0992 701.4308,-516.3714"/>
<text text-anchor="middle" x="710.5" y="-494" font-family="Helvetica,sans-Serif" font-size="10.00" fill="#000000"> &lt; Ts... &gt;</text>
</g>
<!-- Node13 -->
<g id="node9" class="node">
<title>Node13</title>
<g id="a_node9"><a xlink:href="../../d6/d30/classuint64__t.html" target="_top" xlink:title="{uint64_t\n||}">
<polygon fill="none" stroke="#000000" points="110,-399 110,-456 166,-456 166,-399 110,-399"/>
<text text-anchor="middle" x="138" y="-444" font-family="Helvetica,sans-Serif" font-size="10.00" fill="#000000">uint64_t</text>
<polyline fill="none" stroke="#000000" points="110,-437 166,-437 "/>
<text text-anchor="middle" x="138" y="-425" font-family="Helvetica,sans-Serif" font-size="10.00" fill="#000000"> </text>
<polyline fill="none" stroke="#000000" points="110,-418 166,-418 "/>
<text text-anchor="middle" x="138" y="-406" font-family="Helvetica,sans-Serif" font-size="10.00" fill="#000000"> </text>
</a>
</g>
</g>
<!-- Node13&#45;&gt;Node6 -->
<g id="edge11" class="edge">
<title>Node13&#45;&gt;Node6</title>
<path fill="none" stroke="#404040" d="M130.1923,-398.8055C122.6452,-364.993 115.2391,-308.0933 137,-266 145.1263,-250.2809 157.8375,-236.9393 171.895,-225.8863"/>
<polygon fill="none" stroke="#404040" points="172.1359,-225.7092 174.599,-218.9318 181.8025,-218.5987 179.3393,-225.3762 172.1359,-225.7092"/>
<text text-anchor="middle" x="194" y="-298" font-family="Helvetica,sans-Serif" font-size="10.00" fill="#000000"> +mSlidingWindowSize</text>
</g>
<!-- Node13&#45;&gt;Node15 -->
<g id="edge16" class="edge">
<title>Node13&#45;&gt;Node15</title>
<path fill="none" stroke="#404040" d="M142.192,-398.6438C146.0944,-382.6104 153.5995,-363.7775 168,-353 201.0694,-328.2504 312.4348,-342.7841 353,-335 353.5677,-334.8911 354.1367,-334.7806 354.7067,-334.6687"/>
<polygon fill="none" stroke="#404040" points="355.0682,-334.5925 360.114,-329.4408 366.8101,-332.117 361.7644,-337.2687 355.0682,-334.5925"/>
<text text-anchor="middle" x="225" y="-356" font-family="Helvetica,sans-Serif" font-size="10.00" fill="#000000"> +mSlidingWindowSize</text>
</g>
<!-- Node14 -->
<g id="node10" class="node">
<title>Node14</title>
<polygon fill="none" stroke="#bfbfbf" points="201.5,-388 201.5,-467 364.5,-467 364.5,-388 201.5,-388"/>
<text text-anchor="start" x="209.5" y="-455" font-family="Helvetica,sans-Serif" font-size="10.00" fill="#000000">array&lt; std::vector</text>
<text text-anchor="start" x="209.5" y="-444" font-family="Helvetica,sans-Serif" font-size="10.00" fill="#000000">&lt; std::pair&lt; uint64</text>
<text text-anchor="middle" x="283" y="-433" font-family="Helvetica,sans-Serif" font-size="10.00" fill="#000000">_t, uint64_t &gt; &gt;, sizeof...(Ts)&gt;</text>
<polyline fill="none" stroke="#bfbfbf" points="201.5,-426 364.5,-426 "/>
<text text-anchor="middle" x="283" y="-414" font-family="Helvetica,sans-Serif" font-size="10.00" fill="#000000"> </text>
<polyline fill="none" stroke="#bfbfbf" points="201.5,-407 364.5,-407 "/>
<text text-anchor="middle" x="283" y="-395" font-family="Helvetica,sans-Serif" font-size="10.00" fill="#000000"> </text>
</g>
<!-- Node14&#45;&gt;Node6 -->
<g id="edge12" class="edge">
<title>Node14&#45;&gt;Node6</title>
<path fill="none" stroke="#404040" d="M271.9396,-387.7277C267.847,-371.4992 263.5803,-352.473 261,-335 255.8807,-300.334 253.6544,-260.767 252.6953,-230.9052"/>
<polygon fill="none" stroke="#404040" points="252.6908,-230.7395 248.5255,-224.853 252.3571,-218.7441 256.5224,-224.6306 252.6908,-230.7395"/>
<text text-anchor="middle" x="309.5" y="-298" font-family="Helvetica,sans-Serif" font-size="10.00" fill="#000000"> +mGroupedIndices</text>
</g>
<!-- Node14&#45;&gt;Node15 -->
<g id="edge17" class="edge">
<title>Node14&#45;&gt;Node15</title>
<path fill="none" stroke="#404040" d="M279.6699,-387.748C280.6198,-375.3974 283.9083,-362.5367 292,-353 292.1678,-352.8023 320.762,-344.432 355.1098,-334.4314"/>
<polygon fill="none" stroke="#404040" points="355.424,-334.34 360.0673,-328.8227 366.946,-330.9868 362.3028,-336.5041 355.424,-334.34"/>
<text text-anchor="middle" x="340.5" y="-356" font-family="Helvetica,sans-Serif" font-size="10.00" fill="#000000"> +mGroupedIndices</text>
</g>
<!-- Node15&#45;&gt;Node6 -->
<g id="edge14" class="edge">
<title>Node15&#45;&gt;Node6</title>
<path fill="none" stroke="#ffa500" d="M398.6045,-261.8006C372.0412,-247.7944 342.2635,-232.0935 316.5196,-218.5194"/>
<polygon fill="#ffa500" stroke="#ffa500" points="397.0011,-264.9118 407.4792,-266.48 400.266,-258.7198 397.0011,-264.9118"/>
<text text-anchor="middle" x="396.5" y="-240" font-family="Helvetica,sans-Serif" font-size="10.00" fill="#000000"> &lt; T, Ts... &gt;</text>
</g>
</g>
</svg>
