<?xml version="1.0" encoding="UTF-8" standalone="no"?>
<!DOCTYPE svg PUBLIC "-//W3C//DTD SVG 1.1//EN"
 "http://www.w3.org/Graphics/SVG/1.1/DTD/svg11.dtd">
<!-- Generated by graphviz version 2.40.1 (20161225.0304)
 -->
<!-- Title: /home/travis/build/AliceO2Group/AliceO2/Framework/Core/include/Framework/ParallelContext.h Pages: 1 -->
<svg width="2596pt" height="150pt"
 viewBox="0.00 0.00 2595.50 150.00" xmlns="http://www.w3.org/2000/svg" xmlns:xlink="http://www.w3.org/1999/xlink">
<g id="graph0" class="graph" transform="scale(1 1) rotate(0) translate(4 146)">
<title>/home/travis/build/AliceO2Group/AliceO2/Framework/Core/include/Framework/ParallelContext.h</title>
<!-- Node1 -->
<g id="node1" class="node">
<title>Node1</title>
<polygon fill="#bfbfbf" stroke="#000000" points="1206.5,-89.5 1206.5,-141.5 1366.5,-141.5 1366.5,-89.5 1206.5,-89.5"/>
<text text-anchor="start" x="1214.5" y="-129.5" font-family="Helvetica,sans-Serif" font-size="10.00" fill="#000000">/home/travis/build</text>
<text text-anchor="start" x="1214.5" y="-118.5" font-family="Helvetica,sans-Serif" font-size="10.00" fill="#000000">/AliceO2Group/AliceO2</text>
<text text-anchor="start" x="1214.5" y="-107.5" font-family="Helvetica,sans-Serif" font-size="10.00" fill="#000000">/Framework/Core/include</text>
<text text-anchor="middle" x="1286.5" y="-96.5" font-family="Helvetica,sans-Serif" font-size="10.00" fill="#000000">/Framework/ParallelContext.h</text>
</g>
<!-- Node2 -->
<g id="node2" class="node">
<title>Node2</title>
<g id="a_node2"><a xlink:href="../../d7/d54/runDataProcessing_8cxx.html" target="_top" xlink:title="/home/travis/build\l/AliceO2Group/AliceO2\l/Framework/Core/src/runDataProcessing.cxx">
<polygon fill="none" stroke="#000000" points="0,-6 0,-47 231,-47 231,-6 0,-6"/>
<text text-anchor="start" x="8" y="-35" font-family="Helvetica,sans-Serif" font-size="10.00" fill="#000000">/home/travis/build</text>
<text text-anchor="start" x="8" y="-24" font-family="Helvetica,sans-Serif" font-size="10.00" fill="#000000">/AliceO2Group/AliceO2</text>
<text text-anchor="middle" x="115.5" y="-13" font-family="Helvetica,sans-Serif" font-size="10.00" fill="#000000">/Framework/Core/src/runDataProcessing.cxx</text>
</a>
</g>
</g>
<!-- Node1&#45;&gt;Node2 -->
<g id="edge1" class="edge">
<title>Node1&#45;&gt;Node2</title>
<path fill="none" stroke="#191970" d="M1196.084,-111.8598C977.1775,-102.7629 423.2218,-77.9698 239.5,-53 227.8299,-51.4139 215.6218,-49.3334 203.6104,-47.0343"/>
<polygon fill="#191970" stroke="#191970" points="1196.1157,-115.364 1206.252,-112.2811 1196.4055,-108.37 1196.1157,-115.364"/>
</g>
<!-- Node3 -->
<g id="node3" class="node">
<title>Node3</title>
<g id="a_node3"><a xlink:href="../../db/d30/test__CallbackService_8cxx.html" target="_top" xlink:title="/home/travis/build\l/AliceO2Group/AliceO2\l/Framework/Core/test/test\l_CallbackService.cxx">
<polygon fill="none" stroke="#000000" points="249,-.5 249,-52.5 392,-52.5 392,-.5 249,-.5"/>
<text text-anchor="start" x="257" y="-40.5" font-family="Helvetica,sans-Serif" font-size="10.00" fill="#000000">/home/travis/build</text>
<text text-anchor="start" x="257" y="-29.5" font-family="Helvetica,sans-Serif" font-size="10.00" fill="#000000">/AliceO2Group/AliceO2</text>
<text text-anchor="start" x="257" y="-18.5" font-family="Helvetica,sans-Serif" font-size="10.00" fill="#000000">/Framework/Core/test/test</text>
<text text-anchor="middle" x="320.5" y="-7.5" font-family="Helvetica,sans-Serif" font-size="10.00" fill="#000000">_CallbackService.cxx</text>
</a>
</g>
</g>
<!-- Node1&#45;&gt;Node3 -->
<g id="edge2" class="edge">
<title>Node1&#45;&gt;Node3</title>
<path fill="none" stroke="#191970" d="M1196.1403,-111.9873C1002.077,-103.9765 550.8804,-82.725 400.5,-53 397.7729,-52.4609 395.0099,-51.8559 392.2314,-51.1977"/>
<polygon fill="#191970" stroke="#191970" points="1196.1719,-115.4914 1206.3071,-112.4046 1196.459,-108.4973 1196.1719,-115.4914"/>
</g>
<!-- Node4 -->
<g id="node4" class="node">
<title>Node4</title>
<g id="a_node4"><a xlink:href="../../d5/d47/test__CustomGUIGL_8cxx.html" target="_top" xlink:title="/home/travis/build\l/AliceO2Group/AliceO2\l/Framework/Core/test/test\l_CustomGUIGL.cxx">
<polygon fill="none" stroke="#000000" points="410,-.5 410,-52.5 553,-52.5 553,-.5 410,-.5"/>
<text text-anchor="start" x="418" y="-40.5" font-family="Helvetica,sans-Serif" font-size="10.00" fill="#000000">/home/travis/build</text>
<text text-anchor="start" x="418" y="-29.5" font-family="Helvetica,sans-Serif" font-size="10.00" fill="#000000">/AliceO2Group/AliceO2</text>
<text text-anchor="start" x="418" y="-18.5" font-family="Helvetica,sans-Serif" font-size="10.00" fill="#000000">/Framework/Core/test/test</text>
<text text-anchor="middle" x="481.5" y="-7.5" font-family="Helvetica,sans-Serif" font-size="10.00" fill="#000000">_CustomGUIGL.cxx</text>
</a>
</g>
</g>
<!-- Node1&#45;&gt;Node4 -->
<g id="edge3" class="edge">
<title>Node1&#45;&gt;Node4</title>
<path fill="none" stroke="#191970" d="M1196.0789,-110.3525C1029.527,-100.4319 680.4321,-77.4723 561.5,-53 558.7771,-52.4397 556.0178,-51.8166 553.2424,-51.1432"/>
<polygon fill="#191970" stroke="#191970" points="1196.1067,-113.8602 1206.2964,-110.9584 1196.5212,-106.8725 1196.1067,-113.8602"/>
</g>
<!-- Node5 -->
<g id="node5" class="node">
<title>Node5</title>
<g id="a_node5"><a xlink:href="../../d6/dd1/test__CustomGUISokol_8cxx.html" target="_top" xlink:title="/home/travis/build\l/AliceO2Group/AliceO2\l/Framework/Core/test/test\l_CustomGUISokol.cxx">
<polygon fill="none" stroke="#000000" points="571,-.5 571,-52.5 714,-52.5 714,-.5 571,-.5"/>
<text text-anchor="start" x="579" y="-40.5" font-family="Helvetica,sans-Serif" font-size="10.00" fill="#000000">/home/travis/build</text>
<text text-anchor="start" x="579" y="-29.5" font-family="Helvetica,sans-Serif" font-size="10.00" fill="#000000">/AliceO2Group/AliceO2</text>
<text text-anchor="start" x="579" y="-18.5" font-family="Helvetica,sans-Serif" font-size="10.00" fill="#000000">/Framework/Core/test/test</text>
<text text-anchor="middle" x="642.5" y="-7.5" font-family="Helvetica,sans-Serif" font-size="10.00" fill="#000000">_CustomGUISokol.cxx</text>
</a>
</g>
</g>
<!-- Node1&#45;&gt;Node5 -->
<g id="edge4" class="edge">
<title>Node1&#45;&gt;Node5</title>
<path fill="none" stroke="#191970" d="M1195.9965,-111.3161C1083.7979,-104.7955 887.2304,-88.9937 722.5,-53 719.7842,-52.4066 717.0308,-51.7553 714.2604,-51.058"/>
<polygon fill="#191970" stroke="#191970" points="1196.0716,-114.8259 1206.2543,-111.9 1196.4694,-107.8372 1196.0716,-114.8259"/>
</g>
<!-- Node6 -->
<g id="node6" class="node">
<title>Node6</title>
<g id="a_node6"><a xlink:href="../../d3/d66/test__Parallel_8cxx.html" target="_top" xlink:title="/home/travis/build\l/AliceO2Group/AliceO2\l/Framework/Core/test/test\l_Parallel.cxx">
<polygon fill="none" stroke="#000000" points="732,-.5 732,-52.5 875,-52.5 875,-.5 732,-.5"/>
<text text-anchor="start" x="740" y="-40.5" font-family="Helvetica,sans-Serif" font-size="10.00" fill="#000000">/home/travis/build</text>
<text text-anchor="start" x="740" y="-29.5" font-family="Helvetica,sans-Serif" font-size="10.00" fill="#000000">/AliceO2Group/AliceO2</text>
<text text-anchor="start" x="740" y="-18.5" font-family="Helvetica,sans-Serif" font-size="10.00" fill="#000000">/Framework/Core/test/test</text>
<text text-anchor="middle" x="803.5" y="-7.5" font-family="Helvetica,sans-Serif" font-size="10.00" fill="#000000">_Parallel.cxx</text>
</a>
</g>
</g>
<!-- Node1&#45;&gt;Node6 -->
<g id="edge5" class="edge">
<title>Node1&#45;&gt;Node6</title>
<path fill="none" stroke="#191970" d="M1196.1468,-105.8401C1113.9165,-96.0228 989.5408,-78.5982 883.5,-53 880.7977,-52.3477 878.0559,-51.6462 875.2953,-50.9065"/>
<polygon fill="#191970" stroke="#191970" points="1195.8702,-109.3317 1206.2117,-107.0289 1196.6913,-102.38 1195.8702,-109.3317"/>
</g>
<!-- Node7 -->
<g id="node7" class="node">
<title>Node7</title>
<g id="a_node7"><a xlink:href="../../d8/d7e/test__ParallelPipeline_8cxx.html" target="_top" xlink:title="/home/travis/build\l/AliceO2Group/AliceO2\l/Framework/Core/test/test\l_ParallelPipeline.cxx">
<polygon fill="none" stroke="#000000" points="893,-.5 893,-52.5 1036,-52.5 1036,-.5 893,-.5"/>
<text text-anchor="start" x="901" y="-40.5" font-family="Helvetica,sans-Serif" font-size="10.00" fill="#000000">/home/travis/build</text>
<text text-anchor="start" x="901" y="-29.5" font-family="Helvetica,sans-Serif" font-size="10.00" fill="#000000">/AliceO2Group/AliceO2</text>
<text text-anchor="start" x="901" y="-18.5" font-family="Helvetica,sans-Serif" font-size="10.00" fill="#000000">/Framework/Core/test/test</text>
<text text-anchor="middle" x="964.5" y="-7.5" font-family="Helvetica,sans-Serif" font-size="10.00" fill="#000000">_ParallelPipeline.cxx</text>
</a>
</g>
</g>
<!-- Node1&#45;&gt;Node7 -->
<g id="edge6" class="edge">
<title>Node1&#45;&gt;Node7</title>
<path fill="none" stroke="#191970" d="M1196.4052,-93.7603C1150.699,-82.345 1094.4299,-67.6992 1044.5,-53 1041.8333,-52.2149 1039.1217,-51.4004 1036.3866,-50.5651"/>
<polygon fill="#191970" stroke="#191970" points="1195.7397,-97.2014 1206.289,-96.2197 1197.43,-90.4085 1195.7397,-97.2014"/>
</g>
<!-- Node8 -->
<g id="node8" class="node">
<title>Node8</title>
<g id="a_node8"><a xlink:href="../../d0/d0b/test__ParallelProducer_8cxx.html" target="_top" xlink:title="/home/travis/build\l/AliceO2Group/AliceO2\l/Framework/Core/test/test\l_ParallelProducer.cxx">
<polygon fill="none" stroke="#000000" points="1054,-.5 1054,-52.5 1197,-52.5 1197,-.5 1054,-.5"/>
<text text-anchor="start" x="1062" y="-40.5" font-family="Helvetica,sans-Serif" font-size="10.00" fill="#000000">/home/travis/build</text>
<text text-anchor="start" x="1062" y="-29.5" font-family="Helvetica,sans-Serif" font-size="10.00" fill="#000000">/AliceO2Group/AliceO2</text>
<text text-anchor="start" x="1062" y="-18.5" font-family="Helvetica,sans-Serif" font-size="10.00" fill="#000000">/Framework/Core/test/test</text>
<text text-anchor="middle" x="1125.5" y="-7.5" font-family="Helvetica,sans-Serif" font-size="10.00" fill="#000000">_ParallelProducer.cxx</text>
</a>
</g>
</g>
<!-- Node1&#45;&gt;Node8 -->
<g id="edge7" class="edge">
<title>Node1&#45;&gt;Node8</title>
<path fill="none" stroke="#191970" d="M1230.283,-84.4235C1211.449,-74.0122 1190.6584,-62.5192 1172.5955,-52.5341"/>
<polygon fill="#191970" stroke="#191970" points="1228.6204,-87.5036 1239.0655,-89.2784 1232.007,-81.3773 1228.6204,-87.5036"/>
</g>
<!-- Node9 -->
<g id="node9" class="node">
<title>Node9</title>
<g id="a_node9"><a xlink:href="../../d7/d18/test__SimpleTracksED_8cxx.html" target="_top" xlink:title="/home/travis/build\l/AliceO2Group/AliceO2\l/Framework/Core/test/test\l_SimpleTracksED.cxx">
<polygon fill="none" stroke="#000000" points="1215,-.5 1215,-52.5 1358,-52.5 1358,-.5 1215,-.5"/>
<text text-anchor="start" x="1223" y="-40.5" font-family="Helvetica,sans-Serif" font-size="10.00" fill="#000000">/home/travis/build</text>
<text text-anchor="start" x="1223" y="-29.5" font-family="Helvetica,sans-Serif" font-size="10.00" fill="#000000">/AliceO2Group/AliceO2</text>
<text text-anchor="start" x="1223" y="-18.5" font-family="Helvetica,sans-Serif" font-size="10.00" fill="#000000">/Framework/Core/test/test</text>
<text text-anchor="middle" x="1286.5" y="-7.5" font-family="Helvetica,sans-Serif" font-size="10.00" fill="#000000">_SimpleTracksED.cxx</text>
</a>
</g>
</g>
<!-- Node1&#45;&gt;Node9 -->
<g id="edge8" class="edge">
<title>Node1&#45;&gt;Node9</title>
<path fill="none" stroke="#191970" d="M1286.5,-79.1155C1286.5,-70.2061 1286.5,-60.8475 1286.5,-52.5341"/>
<polygon fill="#191970" stroke="#191970" points="1283.0001,-79.2784 1286.5,-89.2784 1290.0001,-79.2785 1283.0001,-79.2784"/>
</g>
<!-- Node10 -->
<g id="node10" class="node">
<title>Node10</title>
<g id="a_node10"><a xlink:href="../../d1/d4f/test__TimePipeline_8cxx.html" target="_top" xlink:title="/home/travis/build\l/AliceO2Group/AliceO2\l/Framework/Core/test/test\l_TimePipeline.cxx">
<polygon fill="none" stroke="#000000" points="1376,-.5 1376,-52.5 1519,-52.5 1519,-.5 1376,-.5"/>
<text text-anchor="start" x="1384" y="-40.5" font-family="Helvetica,sans-Serif" font-size="10.00" fill="#000000">/home/travis/build</text>
<text text-anchor="start" x="1384" y="-29.5" font-family="Helvetica,sans-Serif" font-size="10.00" fill="#000000">/AliceO2Group/AliceO2</text>
<text text-anchor="start" x="1384" y="-18.5" font-family="Helvetica,sans-Serif" font-size="10.00" fill="#000000">/Framework/Core/test/test</text>
<text text-anchor="middle" x="1447.5" y="-7.5" font-family="Helvetica,sans-Serif" font-size="10.00" fill="#000000">_TimePipeline.cxx</text>
</a>
</g>
</g>
<!-- Node1&#45;&gt;Node10 -->
<g id="edge9" class="edge">
<title>Node1&#45;&gt;Node10</title>
<path fill="none" stroke="#191970" d="M1342.717,-84.4235C1361.551,-74.0122 1382.3416,-62.5192 1400.4045,-52.5341"/>
<polygon fill="#191970" stroke="#191970" points="1340.993,-81.3773 1333.9345,-89.2784 1344.3796,-87.5036 1340.993,-81.3773"/>
</g>
<!-- Node11 -->
<g id="node11" class="node">
<title>Node11</title>
<g id="a_node11"><a xlink:href="../../d3/dbe/dataSamplingParallel_8cxx.html" target="_top" xlink:title="/home/travis/build\l/AliceO2Group/AliceO2\l/Framework/TestWorkflows\l/src/dataSamplingParallel.cxx">
<polygon fill="none" stroke="#000000" points="1537,-.5 1537,-52.5 1698,-52.5 1698,-.5 1537,-.5"/>
<text text-anchor="start" x="1545" y="-40.5" font-family="Helvetica,sans-Serif" font-size="10.00" fill="#000000">/home/travis/build</text>
<text text-anchor="start" x="1545" y="-29.5" font-family="Helvetica,sans-Serif" font-size="10.00" fill="#000000">/AliceO2Group/AliceO2</text>
<text text-anchor="start" x="1545" y="-18.5" font-family="Helvetica,sans-Serif" font-size="10.00" fill="#000000">/Framework/TestWorkflows</text>
<text text-anchor="middle" x="1617.5" y="-7.5" font-family="Helvetica,sans-Serif" font-size="10.00" fill="#000000">/src/dataSamplingParallel.cxx</text>
</a>
</g>
</g>
<!-- Node1&#45;&gt;Node11 -->
<g id="edge10" class="edge">
<title>Node1&#45;&gt;Node11</title>
<path fill="none" stroke="#191970" d="M1376.4099,-93.1141C1422.0691,-81.5344 1478.3518,-66.9366 1528.5,-53 1531.1406,-52.2661 1533.823,-51.5129 1536.53,-50.7461"/>
<polygon fill="#191970" stroke="#191970" points="1375.3729,-89.7662 1366.5374,-95.6129 1377.0905,-96.5522 1375.3729,-89.7662"/>
</g>
<!-- Node12 -->
<g id="node12" class="node">
<title>Node12</title>
<g id="a_node12"><a xlink:href="../../db/d9e/dataSamplingTimePipeline_8cxx.html" target="_top" xlink:title="/home/travis/build\l/AliceO2Group/AliceO2\l/Framework/TestWorkflows\l/src/dataSamplingTimePipeline.cxx">
<polygon fill="none" stroke="#000000" points="1716.5,-.5 1716.5,-52.5 1904.5,-52.5 1904.5,-.5 1716.5,-.5"/>
<text text-anchor="start" x="1724.5" y="-40.5" font-family="Helvetica,sans-Serif" font-size="10.00" fill="#000000">/home/travis/build</text>
<text text-anchor="start" x="1724.5" y="-29.5" font-family="Helvetica,sans-Serif" font-size="10.00" fill="#000000">/AliceO2Group/AliceO2</text>
<text text-anchor="start" x="1724.5" y="-18.5" font-family="Helvetica,sans-Serif" font-size="10.00" fill="#000000">/Framework/TestWorkflows</text>
<text text-anchor="middle" x="1810.5" y="-7.5" font-family="Helvetica,sans-Serif" font-size="10.00" fill="#000000">/src/dataSamplingTimePipeline.cxx</text>
</a>
</g>
</g>
<!-- Node1&#45;&gt;Node12 -->
<g id="edge11" class="edge">
<title>Node1&#45;&gt;Node12</title>
<path fill="none" stroke="#191970" d="M1376.801,-104.8669C1462.3747,-94.1371 1594.2929,-75.9011 1707.5,-53 1710.3956,-52.4142 1713.3317,-51.7982 1716.2917,-51.1579"/>
<polygon fill="#191970" stroke="#191970" points="1376.3488,-101.3961 1366.8584,-106.1059 1377.2145,-108.3424 1376.3488,-101.3961"/>
</g>
<!-- Node13 -->
<g id="node13" class="node">
<title>Node13</title>
<g id="a_node13"><a xlink:href="../../db/d1a/flpQualification_8cxx.html" target="_top" xlink:title="/home/travis/build\l/AliceO2Group/AliceO2\l/Framework/TestWorkflows\l/src/flpQualification.cxx">
<polygon fill="none" stroke="#000000" points="1922.5,-.5 1922.5,-52.5 2068.5,-52.5 2068.5,-.5 1922.5,-.5"/>
<text text-anchor="start" x="1930.5" y="-40.5" font-family="Helvetica,sans-Serif" font-size="10.00" fill="#000000">/home/travis/build</text>
<text text-anchor="start" x="1930.5" y="-29.5" font-family="Helvetica,sans-Serif" font-size="10.00" fill="#000000">/AliceO2Group/AliceO2</text>
<text text-anchor="start" x="1930.5" y="-18.5" font-family="Helvetica,sans-Serif" font-size="10.00" fill="#000000">/Framework/TestWorkflows</text>
<text text-anchor="middle" x="1995.5" y="-7.5" font-family="Helvetica,sans-Serif" font-size="10.00" fill="#000000">/src/flpQualification.cxx</text>
</a>
</g>
</g>
<!-- Node1&#45;&gt;Node13 -->
<g id="edge12" class="edge">
<title>Node1&#45;&gt;Node13</title>
<path fill="none" stroke="#191970" d="M1376.6023,-112.5445C1499.2246,-107.159 1724.9822,-92.3865 1913.5,-53 1916.429,-52.3881 1919.4008,-51.71 1922.3908,-50.9799"/>
<polygon fill="#191970" stroke="#191970" points="1376.3494,-109.052 1366.5083,-112.9768 1376.649,-116.0456 1376.3494,-109.052"/>
</g>
<!-- Node14 -->
<g id="node14" class="node">
<title>Node14</title>
<g id="a_node14"><a xlink:href="../../d3/d09/o2ParallelWorkflow_8cxx.html" target="_top" xlink:title="/home/travis/build\l/AliceO2Group/AliceO2\l/Framework/TestWorkflows\l/src/o2ParallelWorkflow.cxx">
<polygon fill="none" stroke="#000000" points="2087,-.5 2087,-52.5 2236,-52.5 2236,-.5 2087,-.5"/>
<text text-anchor="start" x="2095" y="-40.5" font-family="Helvetica,sans-Serif" font-size="10.00" fill="#000000">/home/travis/build</text>
<text text-anchor="start" x="2095" y="-29.5" font-family="Helvetica,sans-Serif" font-size="10.00" fill="#000000">/AliceO2Group/AliceO2</text>
<text text-anchor="start" x="2095" y="-18.5" font-family="Helvetica,sans-Serif" font-size="10.00" fill="#000000">/Framework/TestWorkflows</text>
<text text-anchor="middle" x="2161.5" y="-7.5" font-family="Helvetica,sans-Serif" font-size="10.00" fill="#000000">/src/o2ParallelWorkflow.cxx</text>
</a>
</g>
</g>
<!-- Node1&#45;&gt;Node14 -->
<g id="edge13" class="edge">
<title>Node1&#45;&gt;Node14</title>
<path fill="none" stroke="#191970" d="M1376.798,-110.9463C1554.8791,-101.5407 1945.5209,-78.6864 2077.5,-53 2080.502,-52.4157 2083.5477,-51.761 2086.6119,-51.0504"/>
<polygon fill="#191970" stroke="#191970" points="1376.4731,-107.4584 1366.6707,-111.4788 1376.8407,-114.4488 1376.4731,-107.4584"/>
</g>
<!-- Node15 -->
<g id="node15" class="node">
<title>Node15</title>
<g id="a_node15"><a xlink:href="../../d8/d33/test__CompletionPolicies_8cxx.html" target="_top" xlink:title="/home/travis/build\l/AliceO2Group/AliceO2\l/Framework/TestWorkflows\l/src/test_CompletionPolicies.cxx">
<polygon fill="none" stroke="#000000" points="2254,-.5 2254,-52.5 2429,-52.5 2429,-.5 2254,-.5"/>
<text text-anchor="start" x="2262" y="-40.5" font-family="Helvetica,sans-Serif" font-size="10.00" fill="#000000">/home/travis/build</text>
<text text-anchor="start" x="2262" y="-29.5" font-family="Helvetica,sans-Serif" font-size="10.00" fill="#000000">/AliceO2Group/AliceO2</text>
<text text-anchor="start" x="2262" y="-18.5" font-family="Helvetica,sans-Serif" font-size="10.00" fill="#000000">/Framework/TestWorkflows</text>
<text text-anchor="middle" x="2341.5" y="-7.5" font-family="Helvetica,sans-Serif" font-size="10.00" fill="#000000">/src/test_CompletionPolicies.cxx</text>
</a>
</g>
</g>
<!-- Node1&#45;&gt;Node15 -->
<g id="edge14" class="edge">
<title>Node1&#45;&gt;Node15</title>
<path fill="none" stroke="#191970" d="M1376.6812,-111.978C1582.1323,-103.5719 2079.9706,-80.9386 2245.5,-53 2248.2278,-52.5396 2250.9897,-52.0332 2253.7706,-51.4884"/>
<polygon fill="#191970" stroke="#191970" points="1376.3782,-108.4873 1366.529,-112.3915 1376.6632,-115.4815 1376.3782,-108.4873"/>
</g>
<!-- Node16 -->
<g id="node16" class="node">
<title>Node16</title>
<g id="a_node16"><a xlink:href="../../d2/d0b/TPCDigitizerSpec_8cxx.html" target="_top" xlink:title="/home/travis/build\l/AliceO2Group/AliceO2\l/Steer/DigitizerWorkflow\l/src/TPCDigitizerSpec.cxx">
<polygon fill="none" stroke="#000000" points="2447.5,-.5 2447.5,-52.5 2587.5,-52.5 2587.5,-.5 2447.5,-.5"/>
<text text-anchor="start" x="2455.5" y="-40.5" font-family="Helvetica,sans-Serif" font-size="10.00" fill="#000000">/home/travis/build</text>
<text text-anchor="start" x="2455.5" y="-29.5" font-family="Helvetica,sans-Serif" font-size="10.00" fill="#000000">/AliceO2Group/AliceO2</text>
<text text-anchor="start" x="2455.5" y="-18.5" font-family="Helvetica,sans-Serif" font-size="10.00" fill="#000000">/Steer/DigitizerWorkflow</text>
<text text-anchor="middle" x="2517.5" y="-7.5" font-family="Helvetica,sans-Serif" font-size="10.00" fill="#000000">/src/TPCDigitizerSpec.cxx</text>
</a>
</g>
</g>
<!-- Node1&#45;&gt;Node16 -->
<g id="edge15" class="edge">
<title>Node1&#45;&gt;Node16</title>
<path fill="none" stroke="#191970" d="M1376.9271,-113.7355C1611.5393,-108.6549 2235.5649,-91.8021 2438.5,-53 2441.3418,-52.4566 2444.2217,-51.8364 2447.1165,-51.1547"/>
<polygon fill="#191970" stroke="#191970" points="1376.6472,-110.2406 1366.7245,-113.9543 1376.7973,-117.239 1376.6472,-110.2406"/>
</g>
</g>
</svg>
