<?xml version="1.0" encoding="UTF-8" standalone="no"?>
<!DOCTYPE svg PUBLIC "-//W3C//DTD SVG 1.1//EN"
 "http://www.w3.org/Graphics/SVG/1.1/DTD/svg11.dtd">
<!-- Generated by graphviz version 2.40.1 (20161225.0304)
 -->
<!-- Title: /home/travis/build/AliceO2Group/AliceO2/GPU/GPUTracking/Base/GPUHostDataTypes.h Pages: 1 -->
<!--zoomable 239 -->
<svg id="main" version="1.1" xmlns="http://www.w3.org/2000/svg" xmlns:xlink="http://www.w3.org/1999/xlink" xml:space="preserve" onload="init(evt)">
<style type="text/css"><![CDATA[
.edge:hover path { stroke: red; }
.edge:hover polygon { stroke: red; fill: red; }
]]></style>
<script type="text/javascript"><![CDATA[
var edges = document.getElementsByTagName('g');
if (edges && edges.length) {
  for (var i=0;i<edges.length;i++) {
    if (edges[i].id.substr(0,4)=='edge') {
      edges[i].setAttribute('class','edge');
    }
  }
}
]]></script>
        <defs>
                <circle id="rim" cx="0" cy="0" r="7"/>
                <circle id="rim2" cx="0" cy="0" r="3.5"/>
                <g id="zoomPlus">
                        <use xlink:href="#rim" fill="#404040">
                                <set attributeName="fill" to="#808080" begin="zoomplus.mouseover" end="zoomplus.mouseout"/>
                        </use>
                        <path d="M-4,0h8M0,-4v8" fill="none" stroke="white" stroke-width="1.5" pointer-events="none"/>
                </g>
                <g id="zoomMin">
                        <use xlink:href="#rim" fill="#404040">
                                <set attributeName="fill" to="#808080" begin="zoomminus.mouseover" end="zoomminus.mouseout"/>
                        </use>
                        <path d="M-4,0h8" fill="none" stroke="white" stroke-width="1.5" pointer-events="none"/>
                </g>
                <g id="dirArrow">
                        <path fill="none" stroke="white" stroke-width="1.5" d="M0,-3.0v7 M-2.5,-0.5L0,-3.0L2.5,-0.5"/>
                </g>
               <g id="resetDef">
                       <use xlink:href="#rim2" fill="#404040">
                               <set attributeName="fill" to="#808080" begin="reset.mouseover" end="reset.mouseout"/>
                       </use>
               </g>
        </defs>

<script type="text/javascript">
var viewWidth = 1345;
var viewHeight = 239;
var sectionId = 'dynsection-1';
</script>
<script xlink:href="../../svgpan.js"/>
<svg id="graph" class="graph">
<g id="viewport">
<title>/home/travis/build/AliceO2Group/AliceO2/GPU/GPUTracking/Base/GPUHostDataTypes.h</title>
<!-- Node19 -->
<g id="node1" class="node">
<title>Node19</title>
<polygon fill="#bfbfbf" stroke="#000000" points="548.5,-178.5 548.5,-230.5 680.5,-230.5 680.5,-178.5 548.5,-178.5"/>
<text text-anchor="start" x="556.5" y="-218.5" font-family="Helvetica,sans-Serif" font-size="10.00" fill="#000000">/home/travis/build</text>
<text text-anchor="start" x="556.5" y="-207.5" font-family="Helvetica,sans-Serif" font-size="10.00" fill="#000000">/AliceO2Group/AliceO2</text>
<text text-anchor="start" x="556.5" y="-196.5" font-family="Helvetica,sans-Serif" font-size="10.00" fill="#000000">/GPU/GPUTracking/Base</text>
<text text-anchor="middle" x="614.5" y="-185.5" font-family="Helvetica,sans-Serif" font-size="10.00" fill="#000000">/GPUHostDataTypes.h</text>
</g>
<!-- Node20 -->
<g id="node2" class="node">
<title>Node20</title>
<g id="a_node2"><a xlink:href="../../d4/d2e/GPUCATracking_8cxx.html" target="_top" xlink:title="/home/travis/build\l/AliceO2Group/AliceO2\l/Detectors/TPC/reconstruction\l/src/GPUCATracking.cxx">
<polygon fill="none" stroke="#000000" points="0,-.5 0,-52.5 161,-52.5 161,-.5 0,-.5"/>
<text text-anchor="start" x="8" y="-40.5" font-family="Helvetica,sans-Serif" font-size="10.00" fill="#000000">/home/travis/build</text>
<text text-anchor="start" x="8" y="-29.5" font-family="Helvetica,sans-Serif" font-size="10.00" fill="#000000">/AliceO2Group/AliceO2</text>
<text text-anchor="start" x="8" y="-18.5" font-family="Helvetica,sans-Serif" font-size="10.00" fill="#000000">/Detectors/TPC/reconstruction</text>
<text text-anchor="middle" x="80.5" y="-7.5" font-family="Helvetica,sans-Serif" font-size="10.00" fill="#000000">/src/GPUCATracking.cxx</text>
</a>
</g>
</g>
<!-- Node19&#45;&gt;Node20 -->
<g id="edge1" class="edge">
<title>Node19&#45;&gt;Node20</title>
<path fill="none" stroke="#191970" d="M538.2701,-198.6479C410.871,-188.2732 165.4331,-165.5234 133.5,-142 104.5461,-120.6712 90.9764,-79.6783 84.9383,-52.7093"/>
<polygon fill="#191970" stroke="#191970" points="538.1046,-202.1459 548.3542,-199.4633 538.6688,-195.1686 538.1046,-202.1459"/>
</g>
<!-- Node21 -->
<g id="node3" class="node">
<title>Node21</title>
<g id="a_node3"><a xlink:href="../../df/d6c/convertDigitsToRawZS_8cxx.html" target="_top" xlink:title="/home/travis/build\l/AliceO2Group/AliceO2\l/Detectors/TPC/simulation\l/run/convertDigitsToRawZS.cxx">
<polygon fill="none" stroke="#000000" points="142.5,-89.5 142.5,-141.5 310.5,-141.5 310.5,-89.5 142.5,-89.5"/>
<text text-anchor="start" x="150.5" y="-129.5" font-family="Helvetica,sans-Serif" font-size="10.00" fill="#000000">/home/travis/build</text>
<text text-anchor="start" x="150.5" y="-118.5" font-family="Helvetica,sans-Serif" font-size="10.00" fill="#000000">/AliceO2Group/AliceO2</text>
<text text-anchor="start" x="150.5" y="-107.5" font-family="Helvetica,sans-Serif" font-size="10.00" fill="#000000">/Detectors/TPC/simulation</text>
<text text-anchor="middle" x="226.5" y="-96.5" font-family="Helvetica,sans-Serif" font-size="10.00" fill="#000000">/run/convertDigitsToRawZS.cxx</text>
</a>
</g>
</g>
<!-- Node19&#45;&gt;Node21 -->
<g id="edge2" class="edge">
<title>Node19&#45;&gt;Node21</title>
<path fill="none" stroke="#191970" d="M538.1886,-189.8321C478.4326,-177.9852 393.3507,-160.3219 319.5,-142 316.567,-141.2723 313.5866,-140.516 310.5801,-139.7386"/>
<polygon fill="#191970" stroke="#191970" points="537.8094,-193.3247 548.2981,-191.8287 539.1658,-186.4574 537.8094,-193.3247"/>
</g>
<!-- Node22 -->
<g id="node4" class="node">
<title>Node22</title>
<g id="a_node4"><a xlink:href="../../d8/de7/GPUO2InterfaceConfiguration_8h.html" target="_top" xlink:title="/home/travis/build\l/AliceO2Group/AliceO2\l/GPU/GPUTracking/Interface\l/GPUO2InterfaceConfiguration.h">
<polygon fill="none" stroke="#000000" points="328.5,-89.5 328.5,-141.5 500.5,-141.5 500.5,-89.5 328.5,-89.5"/>
<text text-anchor="start" x="336.5" y="-129.5" font-family="Helvetica,sans-Serif" font-size="10.00" fill="#000000">/home/travis/build</text>
<text text-anchor="start" x="336.5" y="-118.5" font-family="Helvetica,sans-Serif" font-size="10.00" fill="#000000">/AliceO2Group/AliceO2</text>
<text text-anchor="start" x="336.5" y="-107.5" font-family="Helvetica,sans-Serif" font-size="10.00" fill="#000000">/GPU/GPUTracking/Interface</text>
<text text-anchor="middle" x="414.5" y="-96.5" font-family="Helvetica,sans-Serif" font-size="10.00" fill="#000000">/GPUO2InterfaceConfiguration.h</text>
</a>
</g>
</g>
<!-- Node19&#45;&gt;Node22 -->
<g id="edge3" class="edge">
<title>Node19&#45;&gt;Node22</title>
<path fill="none" stroke="#191970" d="M546.5143,-174.2464C522.6879,-163.6436 496.1507,-151.8346 473.1542,-141.6011"/>
<polygon fill="#191970" stroke="#191970" points="545.2855,-177.5304 555.8448,-178.3984 548.1315,-171.1351 545.2855,-177.5304"/>
</g>
<!-- Node27 -->
<g id="node9" class="node">
<title>Node27</title>
<g id="a_node9"><a xlink:href="../../de/d30/GPUTPCCFClusterizer_8cxx.html" target="_top" xlink:title="/home/travis/build\l/AliceO2Group/AliceO2\l/GPU/GPUTracking/TPCClusterFinder\l/GPUTPCCFClusterizer.cxx">
<polygon fill="none" stroke="#000000" points="519,-89.5 519,-141.5 710,-141.5 710,-89.5 519,-89.5"/>
<text text-anchor="start" x="527" y="-129.5" font-family="Helvetica,sans-Serif" font-size="10.00" fill="#000000">/home/travis/build</text>
<text text-anchor="start" x="527" y="-118.5" font-family="Helvetica,sans-Serif" font-size="10.00" fill="#000000">/AliceO2Group/AliceO2</text>
<text text-anchor="start" x="527" y="-107.5" font-family="Helvetica,sans-Serif" font-size="10.00" fill="#000000">/GPU/GPUTracking/TPCClusterFinder</text>
<text text-anchor="middle" x="614.5" y="-96.5" font-family="Helvetica,sans-Serif" font-size="10.00" fill="#000000">/GPUTPCCFClusterizer.cxx</text>
</a>
</g>
</g>
<!-- Node19&#45;&gt;Node27 -->
<g id="edge9" class="edge">
<title>Node19&#45;&gt;Node27</title>
<path fill="none" stroke="#191970" d="M614.5,-168.1155C614.5,-159.2061 614.5,-149.8475 614.5,-141.5341"/>
<polygon fill="#191970" stroke="#191970" points="611.0001,-168.2784 614.5,-178.2784 618.0001,-168.2785 611.0001,-168.2784"/>
</g>
<!-- Node28 -->
<g id="node10" class="node">
<title>Node28</title>
<g id="a_node10"><a xlink:href="../../d6/d5e/GPUTPCCFMCLabelFlattener_8cxx.html" target="_top" xlink:title="/home/travis/build\l/AliceO2Group/AliceO2\l/GPU/GPUTracking/TPCClusterFinder\l/GPUTPCCFMCLabelFlattener.cxx">
<polygon fill="none" stroke="#000000" points="728,-89.5 728,-141.5 919,-141.5 919,-89.5 728,-89.5"/>
<text text-anchor="start" x="736" y="-129.5" font-family="Helvetica,sans-Serif" font-size="10.00" fill="#000000">/home/travis/build</text>
<text text-anchor="start" x="736" y="-118.5" font-family="Helvetica,sans-Serif" font-size="10.00" fill="#000000">/AliceO2Group/AliceO2</text>
<text text-anchor="start" x="736" y="-107.5" font-family="Helvetica,sans-Serif" font-size="10.00" fill="#000000">/GPU/GPUTracking/TPCClusterFinder</text>
<text text-anchor="middle" x="823.5" y="-96.5" font-family="Helvetica,sans-Serif" font-size="10.00" fill="#000000">/GPUTPCCFMCLabelFlattener.cxx</text>
</a>
</g>
</g>
<!-- Node19&#45;&gt;Node28 -->
<g id="edge10" class="edge">
<title>Node19&#45;&gt;Node28</title>
<path fill="none" stroke="#191970" d="M685.2147,-174.387C710.1982,-163.7481 738.0687,-151.8798 762.2064,-141.6011"/>
<polygon fill="#191970" stroke="#191970" points="683.624,-171.2602 675.7947,-178.3984 686.3666,-177.7006 683.624,-171.2602"/>
</g>
<!-- Node29 -->
<g id="node11" class="node">
<title>Node29</title>
<g id="a_node11"><a xlink:href="../../df/da0/GPUTPCClusterFinder_8cxx.html" target="_top" xlink:title="/home/travis/build\l/AliceO2Group/AliceO2\l/GPU/GPUTracking/TPCClusterFinder\l/GPUTPCClusterFinder.cxx">
<polygon fill="none" stroke="#000000" points="937,-89.5 937,-141.5 1128,-141.5 1128,-89.5 937,-89.5"/>
<text text-anchor="start" x="945" y="-129.5" font-family="Helvetica,sans-Serif" font-size="10.00" fill="#000000">/home/travis/build</text>
<text text-anchor="start" x="945" y="-118.5" font-family="Helvetica,sans-Serif" font-size="10.00" fill="#000000">/AliceO2Group/AliceO2</text>
<text text-anchor="start" x="945" y="-107.5" font-family="Helvetica,sans-Serif" font-size="10.00" fill="#000000">/GPU/GPUTracking/TPCClusterFinder</text>
<text text-anchor="middle" x="1032.5" y="-96.5" font-family="Helvetica,sans-Serif" font-size="10.00" fill="#000000">/GPUTPCClusterFinder.cxx</text>
</a>
</g>
</g>
<!-- Node19&#45;&gt;Node29 -->
<g id="edge11" class="edge">
<title>Node19&#45;&gt;Node29</title>
<path fill="none" stroke="#191970" d="M690.5403,-190.534C754.2809,-178.5472 847.588,-160.3475 928.5,-142 931.2257,-141.3819 933.989,-140.7453 936.7762,-140.0944"/>
<polygon fill="#191970" stroke="#191970" points="689.7542,-187.1203 680.5706,-192.4035 691.0444,-194.0004 689.7542,-187.1203"/>
</g>
<!-- Node30 -->
<g id="node12" class="node">
<title>Node30</title>
<g id="a_node12"><a xlink:href="../../d0/dbd/MCLabelAccumulator_8cxx.html" target="_top" xlink:title="/home/travis/build\l/AliceO2Group/AliceO2\l/GPU/GPUTracking/TPCClusterFinder\l/MCLabelAccumulator.cxx">
<polygon fill="none" stroke="#000000" points="1146,-89.5 1146,-141.5 1337,-141.5 1337,-89.5 1146,-89.5"/>
<text text-anchor="start" x="1154" y="-129.5" font-family="Helvetica,sans-Serif" font-size="10.00" fill="#000000">/home/travis/build</text>
<text text-anchor="start" x="1154" y="-118.5" font-family="Helvetica,sans-Serif" font-size="10.00" fill="#000000">/AliceO2Group/AliceO2</text>
<text text-anchor="start" x="1154" y="-107.5" font-family="Helvetica,sans-Serif" font-size="10.00" fill="#000000">/GPU/GPUTracking/TPCClusterFinder</text>
<text text-anchor="middle" x="1241.5" y="-96.5" font-family="Helvetica,sans-Serif" font-size="10.00" fill="#000000">/MCLabelAccumulator.cxx</text>
</a>
</g>
</g>
<!-- Node19&#45;&gt;Node30 -->
<g id="edge12" class="edge">
<title>Node19&#45;&gt;Node30</title>
<path fill="none" stroke="#191970" d="M690.7878,-198.5271C793.0528,-189.8052 979.9711,-171.3526 1137.5,-142 1140.2476,-141.488 1143.0302,-140.9451 1145.8344,-140.3766"/>
<polygon fill="#191970" stroke="#191970" points="690.2255,-195.062 680.5555,-199.3913 690.8146,-202.0372 690.2255,-195.062"/>
</g>
<!-- Node22&#45;&gt;Node20 -->
<g id="edge4" class="edge">
<title>Node22&#45;&gt;Node20</title>
<path fill="none" stroke="#191970" d="M318.531,-88.7909C251.4724,-71.663 232.7374,-69.9898 169.5,-53 166.8532,-52.2889 164.1654,-51.5553 161.4538,-50.8055"/>
<polygon fill="#191970" stroke="#191970" points="317.7666,-92.2082 328.3236,-91.3135 319.5129,-85.4295 317.7666,-92.2082"/>
</g>
<!-- Node23 -->
<g id="node5" class="node">
<title>Node23</title>
<g id="a_node5"><a xlink:href="../../d1/df6/testGPUCATracking_8cxx.html" target="_top" xlink:title="This task tests the TPC CA Tracking library. ">
<polygon fill="none" stroke="#000000" points="179,-.5 179,-52.5 340,-52.5 340,-.5 179,-.5"/>
<text text-anchor="start" x="187" y="-40.5" font-family="Helvetica,sans-Serif" font-size="10.00" fill="#000000">/home/travis/build</text>
<text text-anchor="start" x="187" y="-29.5" font-family="Helvetica,sans-Serif" font-size="10.00" fill="#000000">/AliceO2Group/AliceO2</text>
<text text-anchor="start" x="187" y="-18.5" font-family="Helvetica,sans-Serif" font-size="10.00" fill="#000000">/Detectors/TPC/reconstruction</text>
<text text-anchor="middle" x="259.5" y="-7.5" font-family="Helvetica,sans-Serif" font-size="10.00" fill="#000000">/test/testGPUCATracking.cxx</text>
</a>
</g>
</g>
<!-- Node22&#45;&gt;Node23 -->
<g id="edge5" class="edge">
<title>Node22&#45;&gt;Node23</title>
<path fill="none" stroke="#191970" d="M360.1318,-84.2821C342.0648,-73.9082 322.1514,-62.4741 304.8404,-52.5341"/>
<polygon fill="#191970" stroke="#191970" points="358.4183,-87.3342 368.8332,-89.2784 361.904,-81.2637 358.4183,-87.3342"/>
</g>
<!-- Node24 -->
<g id="node6" class="node">
<title>Node24</title>
<g id="a_node6"><a xlink:href="../../da/d78/CATrackerSpec_8cxx.html" target="_top" xlink:title="Processor spec for running TPC CA tracking. ">
<polygon fill="none" stroke="#000000" points="358.5,-.5 358.5,-52.5 494.5,-52.5 494.5,-.5 358.5,-.5"/>
<text text-anchor="start" x="366.5" y="-40.5" font-family="Helvetica,sans-Serif" font-size="10.00" fill="#000000">/home/travis/build</text>
<text text-anchor="start" x="366.5" y="-29.5" font-family="Helvetica,sans-Serif" font-size="10.00" fill="#000000">/AliceO2Group/AliceO2</text>
<text text-anchor="start" x="366.5" y="-18.5" font-family="Helvetica,sans-Serif" font-size="10.00" fill="#000000">/Detectors/TPC/workflow</text>
<text text-anchor="middle" x="426.5" y="-7.5" font-family="Helvetica,sans-Serif" font-size="10.00" fill="#000000">/src/CATrackerSpec.cxx</text>
</a>
</g>
</g>
<!-- Node22&#45;&gt;Node24 -->
<g id="edge6" class="edge">
<title>Node22&#45;&gt;Node24</title>
<path fill="none" stroke="#191970" d="M419.4058,-79.1155C420.607,-70.2061 421.8689,-60.8475 422.9898,-52.5341"/>
<polygon fill="#191970" stroke="#191970" points="415.9032,-78.9004 418.0355,-89.2784 422.8404,-79.8358 415.9032,-78.9004"/>
</g>
<!-- Node25 -->
<g id="node7" class="node">
<title>Node25</title>
<g id="a_node7"><a xlink:href="../../d8/db5/testGPUTracking_8cxx.html" target="_top" xlink:title="/home/travis/build\l/AliceO2Group/AliceO2\l/GPU/GPUTracking/ctest\l/testGPUTracking.cxx">
<polygon fill="none" stroke="#000000" points="512.5,-.5 512.5,-52.5 644.5,-52.5 644.5,-.5 512.5,-.5"/>
<text text-anchor="start" x="520.5" y="-40.5" font-family="Helvetica,sans-Serif" font-size="10.00" fill="#000000">/home/travis/build</text>
<text text-anchor="start" x="520.5" y="-29.5" font-family="Helvetica,sans-Serif" font-size="10.00" fill="#000000">/AliceO2Group/AliceO2</text>
<text text-anchor="start" x="520.5" y="-18.5" font-family="Helvetica,sans-Serif" font-size="10.00" fill="#000000">/GPU/GPUTracking/ctest</text>
<text text-anchor="middle" x="578.5" y="-7.5" font-family="Helvetica,sans-Serif" font-size="10.00" fill="#000000">/testGPUTracking.cxx</text>
</a>
</g>
</g>
<!-- Node22&#45;&gt;Node25 -->
<g id="edge7" class="edge">
<title>Node22&#45;&gt;Node25</title>
<path fill="none" stroke="#191970" d="M471.7645,-84.4235C490.9495,-74.0122 512.1275,-62.5192 530.527,-52.5341"/>
<polygon fill="#191970" stroke="#191970" points="469.9382,-81.4324 462.8184,-89.2784 473.277,-87.5849 469.9382,-81.4324"/>
</g>
<!-- Node26 -->
<g id="node8" class="node">
<title>Node26</title>
<g id="a_node8"><a xlink:href="../../d0/d48/GPUO2Interface_8cxx.html" target="_top" xlink:title="/home/travis/build\l/AliceO2Group/AliceO2\l/GPU/GPUTracking/Interface\l/GPUO2Interface.cxx">
<polygon fill="none" stroke="#000000" points="662.5,-.5 662.5,-52.5 814.5,-52.5 814.5,-.5 662.5,-.5"/>
<text text-anchor="start" x="670.5" y="-40.5" font-family="Helvetica,sans-Serif" font-size="10.00" fill="#000000">/home/travis/build</text>
<text text-anchor="start" x="670.5" y="-29.5" font-family="Helvetica,sans-Serif" font-size="10.00" fill="#000000">/AliceO2Group/AliceO2</text>
<text text-anchor="start" x="670.5" y="-18.5" font-family="Helvetica,sans-Serif" font-size="10.00" fill="#000000">/GPU/GPUTracking/Interface</text>
<text text-anchor="middle" x="738.5" y="-7.5" font-family="Helvetica,sans-Serif" font-size="10.00" fill="#000000">/GPUO2Interface.cxx</text>
</a>
</g>
</g>
<!-- Node22&#45;&gt;Node26 -->
<g id="edge8" class="edge">
<title>Node22&#45;&gt;Node26</title>
<path fill="none" stroke="#191970" d="M510.1942,-89.0807C510.2962,-89.0538 510.3981,-89.0269 510.5,-89 573.8698,-72.2793 590.4137,-70.7602 653.5,-53 656.327,-52.2041 659.2026,-51.3804 662.104,-50.5374"/>
<polygon fill="#191970" stroke="#191970" points="509.332,-85.6883 500.5671,-91.6402 511.1307,-92.4533 509.332,-85.6883"/>
</g>
</g>
</svg>
        <g id="navigator" transform="translate(0 0)" fill="#404254">
                <rect fill="#f2f5e9" fill-opacity="0.5" stroke="#606060" stroke-width=".5" x="0" y="0" width="60" height="60"/>
                <use id="zoomplus" xlink:href="#zoomPlus" x="17" y="9" onmousedown="handleZoom(evt,'in')"/>
                <use id="zoomminus" xlink:href="#zoomMin" x="42" y="9" onmousedown="handleZoom(evt,'out')"/>
                <use id="reset" xlink:href="#resetDef" x="30" y="36" onmousedown="handleReset()"/>
                <g id="arrowUp" xlink:href="#dirArrow" transform="translate(30 24)" onmousedown="handlePan(0,-1)">
                  <use xlink:href="#rim" fill="#404040">
                        <set attributeName="fill" to="#808080" begin="arrowUp.mouseover" end="arrowUp.mouseout"/>
                  </use>
                  <path fill="none" stroke="white" stroke-width="1.5" d="M0,-3.0v7 M-2.5,-0.5L0,-3.0L2.5,-0.5"/>
                </g>
                <g id="arrowRight" xlink:href="#dirArrow" transform="rotate(90) translate(36 -43)" onmousedown="handlePan(1,0)">
                  <use xlink:href="#rim" fill="#404040">
                        <set attributeName="fill" to="#808080" begin="arrowRight.mouseover" end="arrowRight.mouseout"/>
                  </use>
                  <path fill="none" stroke="white" stroke-width="1.5" d="M0,-3.0v7 M-2.5,-0.5L0,-3.0L2.5,-0.5"/>
                </g>
                <g id="arrowDown" xlink:href="#dirArrow" transform="rotate(180) translate(-30 -48)" onmousedown="handlePan(0,1)">
                  <use xlink:href="#rim" fill="#404040">
                        <set attributeName="fill" to="#808080" begin="arrowDown.mouseover" end="arrowDown.mouseout"/>
                  </use>
                  <path fill="none" stroke="white" stroke-width="1.5" d="M0,-3.0v7 M-2.5,-0.5L0,-3.0L2.5,-0.5"/>
                </g>
                <g id="arrowLeft" xlink:href="#dirArrow" transform="rotate(270) translate(-36 17)" onmousedown="handlePan(-1,0)">
                  <use xlink:href="#rim" fill="#404040">
                        <set attributeName="fill" to="#808080" begin="arrowLeft.mouseover" end="arrowLeft.mouseout"/>
                  </use>
                  <path fill="none" stroke="white" stroke-width="1.5" d="M0,-3.0v7 M-2.5,-0.5L0,-3.0L2.5,-0.5"/>
                </g>
        </g>
        <svg viewBox="0 0 15 15" width="100%" height="30px" preserveAspectRatio="xMaxYMin meet">
         <g id="arrow_out" transform="scale(0.3 0.3)">
          <a xlink:href="GPUHostDataTypes_8h__dep__incl_org.svg" target="_base">
           <rect id="button" ry="5" rx="5" y="6" x="6" height="38" width="38"
                fill="#f2f5e9" fill-opacity="0.5" stroke="#606060" stroke-width="1.0"/>
           <path id="arrow"
             d="M 11.500037,31.436501 C 11.940474,20.09759 22.043105,11.32322 32.158766,21.979434 L 37.068811,17.246167 C 37.068811,17.246167 37.088388,32 37.088388,32 L 22.160133,31.978069 C 22.160133,31.978069 26.997745,27.140456 26.997745,27.140456 C 18.528582,18.264221 13.291696,25.230495 11.500037,31.436501 z"
             style="fill:#404040;"/>
          </a>
         </g>
        </svg>
</svg>
