<?xml version="1.0" encoding="UTF-8" standalone="no"?>
<!DOCTYPE svg PUBLIC "-//W3C//DTD SVG 1.1//EN"
 "http://www.w3.org/Graphics/SVG/1.1/DTD/svg11.dtd">
<!-- Generated by graphviz version 2.40.1 (20161225.0304)
 -->
<!-- Title: /home/travis/build/AliceO2Group/AliceO2/GPU/GPUTracking/Interface/GPUO2InterfaceConfiguration.h Pages: 1 -->
<!--zoomable 296 -->
<svg id="main" version="1.1" xmlns="http://www.w3.org/2000/svg" xmlns:xlink="http://www.w3.org/1999/xlink" xml:space="preserve" onload="init(evt)">
<style type="text/css"><![CDATA[
.edge:hover path { stroke: red; }
.edge:hover polygon { stroke: red; fill: red; }
]]></style>
<script type="text/javascript"><![CDATA[
var edges = document.getElementsByTagName('g');
if (edges && edges.length) {
  for (var i=0;i<edges.length;i++) {
    if (edges[i].id.substr(0,4)=='edge') {
      edges[i].setAttribute('class','edge');
    }
  }
}
]]></script>
        <defs>
                <circle id="rim" cx="0" cy="0" r="7"/>
                <circle id="rim2" cx="0" cy="0" r="3.5"/>
                <g id="zoomPlus">
                        <use xlink:href="#rim" fill="#404040">
                                <set attributeName="fill" to="#808080" begin="zoomplus.mouseover" end="zoomplus.mouseout"/>
                        </use>
                        <path d="M-4,0h8M0,-4v8" fill="none" stroke="white" stroke-width="1.5" pointer-events="none"/>
                </g>
                <g id="zoomMin">
                        <use xlink:href="#rim" fill="#404040">
                                <set attributeName="fill" to="#808080" begin="zoomminus.mouseover" end="zoomminus.mouseout"/>
                        </use>
                        <path d="M-4,0h8" fill="none" stroke="white" stroke-width="1.5" pointer-events="none"/>
                </g>
                <g id="dirArrow">
                        <path fill="none" stroke="white" stroke-width="1.5" d="M0,-3.0v7 M-2.5,-0.5L0,-3.0L2.5,-0.5"/>
                </g>
               <g id="resetDef">
                       <use xlink:href="#rim2" fill="#404040">
                               <set attributeName="fill" to="#808080" begin="reset.mouseover" end="reset.mouseout"/>
                       </use>
               </g>
        </defs>

<script type="text/javascript">
var viewWidth = 1265;
var viewHeight = 296;
var sectionId = 'dynsection-0';
</script>
<script xlink:href="../../svgpan.js"/>
<svg id="graph" class="graph">
<g id="viewport">
<title>/home/travis/build/AliceO2Group/AliceO2/GPU/GPUTracking/Interface/GPUO2InterfaceConfiguration.h</title>
<!-- Node0 -->
<g id="node1" class="node">
<title>Node0</title>
<polygon fill="#bfbfbf" stroke="#000000" points="418.5,-235.5 418.5,-287.5 590.5,-287.5 590.5,-235.5 418.5,-235.5"/>
<text text-anchor="start" x="426.5" y="-275.5" font-family="Helvetica,sans-Serif" font-size="10.00" fill="#000000">/home/travis/build</text>
<text text-anchor="start" x="426.5" y="-264.5" font-family="Helvetica,sans-Serif" font-size="10.00" fill="#000000">/AliceO2Group/AliceO2</text>
<text text-anchor="start" x="426.5" y="-253.5" font-family="Helvetica,sans-Serif" font-size="10.00" fill="#000000">/GPU/GPUTracking/Interface</text>
<text text-anchor="middle" x="504.5" y="-242.5" font-family="Helvetica,sans-Serif" font-size="10.00" fill="#000000">/GPUO2InterfaceConfiguration.h</text>
</g>
<!-- Node1 -->
<g id="node2" class="node">
<title>Node1</title>
<polygon fill="none" stroke="#bfbfbf" points="546.5,-56.5 546.5,-75.5 604.5,-75.5 604.5,-56.5 546.5,-56.5"/>
<text text-anchor="middle" x="575.5" y="-63.5" font-family="Helvetica,sans-Serif" font-size="10.00" fill="#000000">memory</text>
</g>
<!-- Node0&#45;&gt;Node1 -->
<g id="edge1" class="edge">
<title>Node0&#45;&gt;Node1</title>
<path fill="none" stroke="#191970" d="M508.11,-235.3813C513.021,-204.7343 523.4592,-152.9106 542.5,-112 547.1903,-101.9225 554.1769,-91.7714 560.5155,-83.5785"/>
<polygon fill="#191970" stroke="#191970" points="563.4376,-85.5311 567,-75.5531 557.9928,-81.1317 563.4376,-85.5311"/>
</g>
<!-- Node2 -->
<g id="node3" class="node">
<title>Node2</title>
<polygon fill="none" stroke="#bfbfbf" points="551.5,-118 551.5,-137 593.5,-137 593.5,-118 551.5,-118"/>
<text text-anchor="middle" x="572.5" y="-125" font-family="Helvetica,sans-Serif" font-size="10.00" fill="#000000">array</text>
</g>
<!-- Node0&#45;&gt;Node2 -->
<g id="edge2" class="edge">
<title>Node0&#45;&gt;Node2</title>
<path fill="none" stroke="#191970" d="M518.4869,-235.4408C524.4278,-224.262 531.3811,-211.0307 537.5,-199 546.4743,-181.3552 556.3629,-161.0721 563.3334,-146.6268"/>
<polygon fill="#191970" stroke="#191970" points="566.6576,-147.7901 567.8384,-137.2613 560.3495,-144.7557 566.6576,-147.7901"/>
</g>
<!-- Node3 -->
<g id="node4" class="node">
<title>Node3</title>
<polygon fill="none" stroke="#bfbfbf" points="475,-56.5 475,-75.5 522,-75.5 522,-56.5 475,-56.5"/>
<text text-anchor="middle" x="498.5" y="-63.5" font-family="Helvetica,sans-Serif" font-size="10.00" fill="#000000">vector</text>
</g>
<!-- Node0&#45;&gt;Node3 -->
<g id="edge3" class="edge">
<title>Node0&#45;&gt;Node3</title>
<path fill="none" stroke="#191970" d="M503.6908,-235.134C502.4728,-195.4463 500.1953,-121.2389 499.108,-85.8109"/>
<polygon fill="#191970" stroke="#191970" points="502.6049,-85.6518 498.7997,-75.7639 495.6082,-85.8666 502.6049,-85.6518"/>
</g>
<!-- Node4 -->
<g id="node5" class="node">
<title>Node4</title>
<polygon fill="none" stroke="#bfbfbf" points="1194.5,-56.5 1194.5,-75.5 1242.5,-75.5 1242.5,-56.5 1194.5,-56.5"/>
<text text-anchor="middle" x="1218.5" y="-63.5" font-family="Helvetica,sans-Serif" font-size="10.00" fill="#000000">gsl/gsl</text>
</g>
<!-- Node0&#45;&gt;Node4 -->
<g id="edge4" class="edge">
<title>Node0&#45;&gt;Node4</title>
<path fill="none" stroke="#191970" d="M590.564,-254.0646C777.6302,-237.0335 1207.9809,-192.8062 1250.5,-143 1265.5241,-125.401 1249.3108,-99.7598 1235.0114,-82.9806"/>
<polygon fill="#191970" stroke="#191970" points="1237.5875,-80.611 1228.2907,-75.5295 1232.3895,-85.2994 1237.5875,-80.611"/>
</g>
<!-- Node5 -->
<g id="node6" class="node">
<title>Node5</title>
<g id="a_node6"><a xlink:href="../../dd/dc6/GPUSettings_8h.html" target="_top" xlink:title="GPUSettings.h">
<polygon fill="none" stroke="#000000" points="13.5,-179.5 13.5,-198.5 99.5,-198.5 99.5,-179.5 13.5,-179.5"/>
<text text-anchor="middle" x="56.5" y="-186.5" font-family="Helvetica,sans-Serif" font-size="10.00" fill="#000000">GPUSettings.h</text>
</a>
</g>
</g>
<!-- Node0&#45;&gt;Node5 -->
<g id="edge5" class="edge">
<title>Node0&#45;&gt;Node5</title>
<path fill="none" stroke="#191970" d="M418.2302,-248.7343C340.2703,-237.0027 222.1069,-218.737 109.7645,-199.1796"/>
<polygon fill="#191970" stroke="#191970" points="110.063,-195.6788 99.6098,-197.4054 108.8582,-202.5744 110.063,-195.6788"/>
</g>
<!-- Node12 -->
<g id="node13" class="node">
<title>Node12</title>
<g id="a_node13"><a xlink:href="../../d4/d50/GPUDisplayConfig_8h.html" target="_top" xlink:title="GPUDisplayConfig.h">
<polygon fill="none" stroke="#000000" points="343.5,-179.5 343.5,-198.5 457.5,-198.5 457.5,-179.5 343.5,-179.5"/>
<text text-anchor="middle" x="400.5" y="-186.5" font-family="Helvetica,sans-Serif" font-size="10.00" fill="#000000">GPUDisplayConfig.h</text>
</a>
</g>
</g>
<!-- Node0&#45;&gt;Node12 -->
<g id="edge12" class="edge">
<title>Node0&#45;&gt;Node12</title>
<path fill="none" stroke="#191970" d="M466.9536,-235.3258C452.0152,-224.912 435.3481,-213.2931 422.4425,-204.2965"/>
<polygon fill="#191970" stroke="#191970" points="424.3814,-201.3816 414.1764,-198.534 420.3782,-207.124 424.3814,-201.3816"/>
</g>
<!-- Node15 -->
<g id="node16" class="node">
<title>Node15</title>
<g id="a_node16"><a xlink:href="../../d8/d93/GPUQAConfig_8h.html" target="_top" xlink:title="GPUQAConfig.h">
<polygon fill="none" stroke="#000000" points="233.5,-179.5 233.5,-198.5 325.5,-198.5 325.5,-179.5 233.5,-179.5"/>
<text text-anchor="middle" x="279.5" y="-186.5" font-family="Helvetica,sans-Serif" font-size="10.00" fill="#000000">GPUQAConfig.h</text>
</a>
</g>
</g>
<!-- Node0&#45;&gt;Node15 -->
<g id="edge18" class="edge">
<title>Node0&#45;&gt;Node15</title>
<path fill="none" stroke="#191970" d="M423.5877,-235.4283C387.9748,-223.953 347.7662,-210.9969 318.8915,-201.6928"/>
<polygon fill="#191970" stroke="#191970" points="319.7685,-198.2983 309.177,-198.5626 317.6216,-204.9609 319.7685,-198.2983"/>
</g>
<!-- Node16 -->
<g id="node17" class="node">
<title>Node16</title>
<g id="a_node17"><a xlink:href="../../d4/dc5/GPUDataTypes_8h.html" target="_top" xlink:title="GPUDataTypes.h">
<polygon fill="none" stroke="#000000" points="117.5,-179.5 117.5,-198.5 215.5,-198.5 215.5,-179.5 117.5,-179.5"/>
<text text-anchor="middle" x="166.5" y="-186.5" font-family="Helvetica,sans-Serif" font-size="10.00" fill="#000000">GPUDataTypes.h</text>
</a>
</g>
</g>
<!-- Node0&#45;&gt;Node16 -->
<g id="edge21" class="edge">
<title>Node0&#45;&gt;Node16</title>
<path fill="none" stroke="#191970" d="M418.3338,-243.0176C356.2278,-229.696 274.2933,-212.1214 221.013,-200.6929"/>
<polygon fill="#191970" stroke="#191970" points="221.5931,-197.2378 211.0814,-198.5626 220.1249,-204.0821 221.5931,-197.2378"/>
</g>
<!-- Node18 -->
<g id="node19" class="node">
<title>Node18</title>
<g id="a_node19"><a xlink:href="../../d6/d20/GPUHostDataTypes_8h.html" target="_top" xlink:title="GPUHostDataTypes.h">
<polygon fill="none" stroke="#000000" points="637.5,-179.5 637.5,-198.5 757.5,-198.5 757.5,-179.5 637.5,-179.5"/>
<text text-anchor="middle" x="697.5" y="-186.5" font-family="Helvetica,sans-Serif" font-size="10.00" fill="#000000">GPUHostDataTypes.h</text>
</a>
</g>
</g>
<!-- Node0&#45;&gt;Node18 -->
<g id="edge24" class="edge">
<title>Node0&#45;&gt;Node18</title>
<path fill="none" stroke="#191970" d="M573.9048,-235.4283C603.9192,-224.1534 637.7391,-211.449 662.4041,-202.1837"/>
<polygon fill="#191970" stroke="#191970" points="663.9133,-205.3556 672.0438,-198.5626 661.4516,-198.8027 663.9133,-205.3556"/>
</g>
<!-- Node20 -->
<g id="node21" class="node">
<title>Node20</title>
<g id="a_node21"><a xlink:href="../../d0/dda/DataFormats_2Detectors_2TPC_2include_2DataFormatsTPC_2Constants_8h.html" target="_top" xlink:title="DataFormatsTPC/Constants.h">
<polygon fill="none" stroke="#000000" points="1083,-118 1083,-137 1242,-137 1242,-118 1083,-118"/>
<text text-anchor="middle" x="1162.5" y="-125" font-family="Helvetica,sans-Serif" font-size="10.00" fill="#000000">DataFormatsTPC/Constants.h</text>
</a>
</g>
</g>
<!-- Node0&#45;&gt;Node20 -->
<g id="edge44" class="edge">
<title>Node0&#45;&gt;Node20</title>
<path fill="none" stroke="#191970" d="M590.522,-243.9818C727.1351,-216.1609 990.0355,-162.6219 1105.6178,-139.0839"/>
<polygon fill="#191970" stroke="#191970" points="1106.5724,-142.4614 1115.6729,-137.0362 1105.1755,-135.6022 1106.5724,-142.4614"/>
</g>
<!-- Node6 -->
<g id="node7" class="node">
<title>Node6</title>
<g id="a_node7"><a xlink:href="../../d6/da2/GPUCommonMath_8h.html" target="_top" xlink:title="GPUCommonMath.h">
<polygon fill="none" stroke="#000000" points="3,-118 3,-137 118,-137 118,-118 3,-118"/>
<text text-anchor="middle" x="60.5" y="-125" font-family="Helvetica,sans-Serif" font-size="10.00" fill="#000000">GPUCommonMath.h</text>
</a>
</g>
</g>
<!-- Node5&#45;&gt;Node6 -->
<g id="edge6" class="edge">
<title>Node5&#45;&gt;Node6</title>
<path fill="none" stroke="#191970" d="M57.125,-179.3906C57.6795,-170.8657 58.5072,-158.1392 59.2042,-147.4235"/>
<polygon fill="#191970" stroke="#191970" points="62.7097,-147.451 59.8662,-137.2449 55.7244,-146.9966 62.7097,-147.451"/>
</g>
<!-- Node7 -->
<g id="node8" class="node">
<title>Node7</title>
<g id="a_node8"><a xlink:href="../../df/d21/GPUCommonDef_8h.html" target="_top" xlink:title="GPUCommonDef.h">
<polygon fill="none" stroke="#000000" points="224,-56.5 224,-75.5 331,-75.5 331,-56.5 224,-56.5"/>
<text text-anchor="middle" x="277.5" y="-63.5" font-family="Helvetica,sans-Serif" font-size="10.00" fill="#000000">GPUCommonDef.h</text>
</a>
</g>
</g>
<!-- Node6&#45;&gt;Node7 -->
<g id="edge7" class="edge">
<title>Node6&#45;&gt;Node7</title>
<path fill="none" stroke="#191970" d="M94.4063,-117.8906C132.0679,-107.2169 192.9702,-89.9566 234.0885,-78.3033"/>
<polygon fill="#191970" stroke="#191970" points="235.1651,-81.6361 243.8318,-75.5419 233.2564,-74.9013 235.1651,-81.6361"/>
</g>
<!-- Node10 -->
<g id="node11" class="node">
<title>Node10</title>
<polygon fill="none" stroke="#bfbfbf" points="0,-56.5 0,-75.5 47,-75.5 47,-56.5 0,-56.5"/>
<text text-anchor="middle" x="23.5" y="-63.5" font-family="Helvetica,sans-Serif" font-size="10.00" fill="#000000">cmath</text>
</g>
<!-- Node6&#45;&gt;Node10 -->
<g id="edge10" class="edge">
<title>Node6&#45;&gt;Node10</title>
<path fill="none" stroke="#191970" d="M54.7188,-117.8906C49.374,-109.0068 41.2841,-95.5601 34.6789,-84.5811"/>
<polygon fill="#191970" stroke="#191970" points="37.5171,-82.5093 29.3628,-75.7449 31.5189,-86.118 37.5171,-82.5093"/>
</g>
<!-- Node11 -->
<g id="node12" class="node">
<title>Node11</title>
<polygon fill="none" stroke="#bfbfbf" points="65.5,-56.5 65.5,-75.5 129.5,-75.5 129.5,-56.5 65.5,-56.5"/>
<text text-anchor="middle" x="97.5" y="-63.5" font-family="Helvetica,sans-Serif" font-size="10.00" fill="#000000">algorithm</text>
</g>
<!-- Node6&#45;&gt;Node11 -->
<g id="edge11" class="edge">
<title>Node6&#45;&gt;Node11</title>
<path fill="none" stroke="#191970" d="M66.2813,-117.8906C71.626,-109.0068 79.7159,-95.5601 86.3211,-84.5811"/>
<polygon fill="#191970" stroke="#191970" points="89.4811,-86.118 91.6372,-75.7449 83.4829,-82.5093 89.4811,-86.118"/>
</g>
<!-- Node8 -->
<g id="node9" class="node">
<title>Node8</title>
<g id="a_node9"><a xlink:href="../../d5/d93/GPUCommonDefSettings_8h.html" target="_top" xlink:title="GPUCommonDefSettings.h">
<polygon fill="none" stroke="#000000" points="280.5,-.5 280.5,-19.5 428.5,-19.5 428.5,-.5 280.5,-.5"/>
<text text-anchor="middle" x="354.5" y="-7.5" font-family="Helvetica,sans-Serif" font-size="10.00" fill="#000000">GPUCommonDefSettings.h</text>
</a>
</g>
</g>
<!-- Node7&#45;&gt;Node8 -->
<g id="edge8" class="edge">
<title>Node7&#45;&gt;Node8</title>
<path fill="none" stroke="#191970" d="M290.9124,-56.2455C302.5057,-47.814 319.4748,-35.4729 332.9678,-25.6598"/>
<polygon fill="#191970" stroke="#191970" points="335.2126,-28.355 341.2413,-19.6427 331.0953,-22.6938 335.2126,-28.355"/>
</g>
<!-- Node9 -->
<g id="node10" class="node">
<title>Node9</title>
<g id="a_node10"><a xlink:href="../../da/d5a/GPUCommonDefAPI_8h.html" target="_top" xlink:title="GPUCommonDefAPI.h">
<polygon fill="none" stroke="#000000" points="138.5,-.5 138.5,-19.5 262.5,-19.5 262.5,-.5 138.5,-.5"/>
<text text-anchor="middle" x="200.5" y="-7.5" font-family="Helvetica,sans-Serif" font-size="10.00" fill="#000000">GPUCommonDefAPI.h</text>
</a>
</g>
</g>
<!-- Node7&#45;&gt;Node9 -->
<g id="edge9" class="edge">
<title>Node7&#45;&gt;Node9</title>
<path fill="none" stroke="#191970" d="M264.0876,-56.2455C252.4943,-47.814 235.5252,-35.4729 222.0322,-25.6598"/>
<polygon fill="#191970" stroke="#191970" points="223.9047,-22.6938 213.7587,-19.6427 219.7874,-28.355 223.9047,-22.6938"/>
</g>
<!-- Node12&#45;&gt;Node7 -->
<g id="edge13" class="edge">
<title>Node12&#45;&gt;Node7</title>
<path fill="none" stroke="#191970" d="M387.531,-179.3432C375.8368,-170.4081 358.3939,-156.5049 344.5,-143 324.88,-123.9293 304.5537,-99.8518 291.5107,-83.7449"/>
<polygon fill="#191970" stroke="#191970" points="294.0486,-81.3149 285.0646,-75.6991 288.5856,-85.6917 294.0486,-81.3149"/>
</g>
<!-- Node13 -->
<g id="node14" class="node">
<title>Node13</title>
<g id="a_node14"><a xlink:href="../../da/d08/qconfig_8h.html" target="_top" xlink:title="utils/qconfig.h">
<polygon fill="none" stroke="#000000" points="354,-118 354,-137 439,-137 439,-118 354,-118"/>
<text text-anchor="middle" x="396.5" y="-125" font-family="Helvetica,sans-Serif" font-size="10.00" fill="#000000">utils/qconfig.h</text>
</a>
</g>
</g>
<!-- Node12&#45;&gt;Node13 -->
<g id="edge14" class="edge">
<title>Node12&#45;&gt;Node13</title>
<path fill="none" stroke="#191970" d="M399.875,-179.3906C399.3205,-170.8657 398.4928,-158.1392 397.7958,-147.4235"/>
<polygon fill="#191970" stroke="#191970" points="401.2756,-146.9966 397.1338,-137.2449 394.2903,-147.451 401.2756,-146.9966"/>
</g>
<!-- Node13&#45;&gt;Node3 -->
<g id="edge15" class="edge">
<title>Node13&#45;&gt;Node3</title>
<path fill="none" stroke="#191970" d="M412.4375,-117.8906C428.9051,-107.9616 454.8258,-92.333 473.9204,-80.8201"/>
<polygon fill="#191970" stroke="#191970" points="475.9178,-83.7027 482.6744,-75.5419 472.3034,-77.7081 475.9178,-83.7027"/>
</g>
<!-- Node13&#45;&gt;Node13 -->
<g id="edge17" class="edge">
<title>Node13&#45;&gt;Node13</title>
<path fill="none" stroke="#191970" d="M418.8388,-137.0334C437.5005,-141.1075 457,-137.9297 457,-127.5 457,-118.9444 443.8785,-115.2687 428.8618,-116.4729"/>
<polygon fill="#191970" stroke="#191970" points="428.2136,-113.0307 418.8388,-117.9666 429.2455,-119.9542 428.2136,-113.0307"/>
</g>
<!-- Node14 -->
<g id="node15" class="node">
<title>Node14</title>
<g id="a_node15"><a xlink:href="../../d8/de9/qconfigoptions_8h.html" target="_top" xlink:title="qconfigoptions.h">
<polygon fill="none" stroke="#000000" points="349,-56.5 349,-75.5 446,-75.5 446,-56.5 349,-56.5"/>
<text text-anchor="middle" x="397.5" y="-63.5" font-family="Helvetica,sans-Serif" font-size="10.00" fill="#000000">qconfigoptions.h</text>
</a>
</g>
</g>
<!-- Node13&#45;&gt;Node14 -->
<g id="edge16" class="edge">
<title>Node13&#45;&gt;Node14</title>
<path fill="none" stroke="#191970" d="M396.6563,-117.8906C396.7949,-109.3657 397.0018,-96.6392 397.176,-85.9235"/>
<polygon fill="#191970" stroke="#191970" points="400.6784,-85.8005 397.3415,-75.7449 393.6793,-85.6866 400.6784,-85.8005"/>
</g>
<!-- Node15&#45;&gt;Node7 -->
<g id="edge19" class="edge">
<title>Node15&#45;&gt;Node7</title>
<path fill="none" stroke="#191970" d="M279.3431,-179.3484C279.0159,-159.2295 278.2555,-112.4608 277.8205,-85.7098"/>
<polygon fill="#191970" stroke="#191970" points="281.3184,-85.5485 277.6562,-75.6068 274.3193,-85.6624 281.3184,-85.5485"/>
</g>
<!-- Node15&#45;&gt;Node13 -->
<g id="edge20" class="edge">
<title>Node15&#45;&gt;Node13</title>
<path fill="none" stroke="#191970" d="M297.7813,-179.3906C317.0141,-169.2811 347.4879,-153.2628 369.4925,-141.6962"/>
<polygon fill="#191970" stroke="#191970" points="371.124,-144.7928 378.3471,-137.0419 367.867,-138.5967 371.124,-144.7928"/>
</g>
<!-- Node16&#45;&gt;Node7 -->
<g id="edge22" class="edge">
<title>Node16&#45;&gt;Node7</title>
<path fill="none" stroke="#191970" d="M175.21,-179.3484C193.9334,-158.6008 238.2333,-109.5117 261.9221,-83.262"/>
<polygon fill="#191970" stroke="#191970" points="264.7292,-85.3756 268.8305,-75.6068 259.5324,-80.6858 264.7292,-85.3756"/>
</g>
<!-- Node17 -->
<g id="node18" class="node">
<title>Node17</title>
<polygon fill="none" stroke="#bfbfbf" points="140,-118 140,-137 193,-137 193,-118 140,-118"/>
<text text-anchor="middle" x="166.5" y="-125" font-family="Helvetica,sans-Serif" font-size="10.00" fill="#000000">cstddef</text>
</g>
<!-- Node16&#45;&gt;Node17 -->
<g id="edge23" class="edge">
<title>Node16&#45;&gt;Node17</title>
<path fill="none" stroke="#191970" d="M166.5,-179.3906C166.5,-170.8657 166.5,-158.1392 166.5,-147.4235"/>
<polygon fill="#191970" stroke="#191970" points="170.0001,-147.2448 166.5,-137.2449 163.0001,-147.2449 170.0001,-147.2448"/>
</g>
<!-- Node18&#45;&gt;Node1 -->
<g id="edge28" class="edge">
<title>Node18&#45;&gt;Node1</title>
<path fill="none" stroke="#191970" d="M696.9371,-179.2803C695.5293,-163.3835 690.6153,-131.631 673.5,-112 664.7224,-101.9322 635.4827,-88.8641 611.2079,-79.2308"/>
<polygon fill="#191970" stroke="#191970" points="612.4514,-75.959 601.863,-75.5911 609.9109,-82.4817 612.4514,-75.959"/>
</g>
<!-- Node18&#45;&gt;Node2 -->
<g id="edge27" class="edge">
<title>Node18&#45;&gt;Node2</title>
<path fill="none" stroke="#191970" d="M677.9688,-179.3906C657.3292,-169.2359 624.5724,-153.1196 601.0398,-141.5416"/>
<polygon fill="#191970" stroke="#191970" points="602.412,-138.3161 591.8941,-137.0419 599.3218,-144.5971 602.412,-138.3161"/>
</g>
<!-- Node18&#45;&gt;Node3 -->
<g id="edge26" class="edge">
<title>Node18&#45;&gt;Node3</title>
<path fill="none" stroke="#191970" d="M692.3046,-179.4913C683.0025,-163.3242 661.9762,-130.4424 635.5,-112 618.5423,-100.1879 566.6773,-84.5294 531.8535,-74.8663"/>
<polygon fill="#191970" stroke="#191970" points="532.6585,-71.458 522.089,-72.1895 530.8078,-78.2089 532.6585,-71.458"/>
</g>
<!-- Node18&#45;&gt;Node7 -->
<g id="edge25" class="edge">
<title>Node18&#45;&gt;Node7</title>
<path fill="none" stroke="#191970" d="M683.3577,-179.2159C670.5562,-170.195 651.3367,-156.2375 635.5,-143 620.0604,-130.0943 620.6625,-120.6639 602.5,-112 498.9276,-62.5936 458.4174,-91.6959 341.3169,-76.1689"/>
<polygon fill="#191970" stroke="#191970" points="341.6469,-72.6809 331.2563,-74.7509 340.6699,-79.6124 341.6469,-72.6809"/>
</g>
<!-- Node19 -->
<g id="node20" class="node">
<title>Node19</title>
<polygon fill="none" stroke="#bfbfbf" points="871.5,-118 871.5,-137 919.5,-137 919.5,-118 871.5,-118"/>
<text text-anchor="middle" x="895.5" y="-125" font-family="Helvetica,sans-Serif" font-size="10.00" fill="#000000">mutex</text>
</g>
<!-- Node18&#45;&gt;Node19 -->
<g id="edge29" class="edge">
<title>Node18&#45;&gt;Node19</title>
<path fill="none" stroke="#191970" d="M738.1523,-179.4567C771.679,-171.1454 820.2584,-158.0823 861.5,-143 863.1336,-142.4026 864.7979,-141.7603 866.4687,-141.0891"/>
<polygon fill="#191970" stroke="#191970" points="868.1199,-144.1896 875.9382,-137.0394 865.3675,-137.7534 868.1199,-144.1896"/>
</g>
<!-- Node18&#45;&gt;Node20 -->
<g id="edge30" class="edge">
<title>Node18&#45;&gt;Node20</title>
<path fill="none" stroke="#191970" d="M757.5375,-182.6046C831.8631,-174.4687 962.257,-159.4808 1073.5,-143 1082.1797,-141.7141 1091.3162,-140.25 1100.2954,-138.7469"/>
<polygon fill="#191970" stroke="#191970" points="1101.0614,-142.167 1110.3335,-137.0408 1099.8884,-135.266 1101.0614,-142.167"/>
</g>
<!-- Node21 -->
<g id="node22" class="node">
<title>Node21</title>
<g id="a_node22"><a xlink:href="../../db/d14/MCTruthContainer_8h.html" target="_top" xlink:title="Definition of a container to keep Monte Carlo truth external to simulation objects. ">
<polygon fill="none" stroke="#000000" points="726,-112.5 726,-142.5 853,-142.5 853,-112.5 726,-112.5"/>
<text text-anchor="start" x="734" y="-130.5" font-family="Helvetica,sans-Serif" font-size="10.00" fill="#000000">SimulationDataFormat</text>
<text text-anchor="middle" x="789.5" y="-119.5" font-family="Helvetica,sans-Serif" font-size="10.00" fill="#000000">/MCTruthContainer.h</text>
</a>
</g>
</g>
<!-- Node18&#45;&gt;Node21 -->
<g id="edge31" class="edge">
<title>Node18&#45;&gt;Node21</title>
<path fill="none" stroke="#191970" d="M711.875,-179.3906C724.3261,-171.0673 742.7686,-158.7389 758.5534,-148.1872"/>
<polygon fill="#191970" stroke="#191970" points="760.6258,-151.0118 766.9943,-142.5446 756.7356,-145.1923 760.6258,-151.0118"/>
</g>
<!-- Node29 -->
<g id="node30" class="node">
<title>Node29</title>
<g id="a_node30"><a xlink:href="../../d7/dcd/MCCompLabel_8h.html" target="_top" xlink:title="SimulationDataFormat\l/MCCompLabel.h">
<polygon fill="none" stroke="#000000" points="938,-112.5 938,-142.5 1065,-142.5 1065,-112.5 938,-112.5"/>
<text text-anchor="start" x="946" y="-130.5" font-family="Helvetica,sans-Serif" font-size="10.00" fill="#000000">SimulationDataFormat</text>
<text text-anchor="middle" x="1001.5" y="-119.5" font-family="Helvetica,sans-Serif" font-size="10.00" fill="#000000">/MCCompLabel.h</text>
</a>
</g>
</g>
<!-- Node18&#45;&gt;Node29 -->
<g id="edge42" class="edge">
<title>Node18&#45;&gt;Node29</title>
<path fill="none" stroke="#191970" d="M746.207,-179.4867C790.7891,-170.7371 858.8643,-157.2723 927.6565,-143.1595"/>
<polygon fill="#191970" stroke="#191970" points="928.718,-146.5146 937.8087,-141.0731 927.3088,-139.6579 928.718,-146.5146"/>
</g>
<!-- Node21&#45;&gt;Node1 -->
<g id="edge40" class="edge">
<title>Node21&#45;&gt;Node1</title>
<path fill="none" stroke="#191970" d="M737.1497,-112.4554C699.1961,-101.5482 648.7029,-87.0373 614.3151,-77.1548"/>
<polygon fill="#191970" stroke="#191970" points="615.2076,-73.7697 604.6299,-74.3714 613.2742,-80.4974 615.2076,-73.7697"/>
</g>
<!-- Node21&#45;&gt;Node3 -->
<g id="edge41" class="edge">
<title>Node21&#45;&gt;Node3</title>
<path fill="none" stroke="#191970" d="M725.8782,-115.4007C674.8139,-105.4724 601.3594,-90.703 537.5,-76 535.8141,-75.6118 534.0897,-75.2053 532.3499,-74.7875"/>
<polygon fill="#191970" stroke="#191970" points="532.9274,-71.3249 522.3796,-72.3219 531.2469,-78.1202 532.9274,-71.3249"/>
</g>
<!-- Node21&#45;&gt;Node4 -->
<g id="edge37" class="edge">
<title>Node21&#45;&gt;Node4</title>
<path fill="none" stroke="#191970" d="M853.1431,-113.6707C856.3026,-113.0834 859.4348,-112.5226 862.5,-112 924.107,-101.4969 1107.6981,-79.216 1184.3181,-70.0591"/>
<polygon fill="#191970" stroke="#191970" points="1184.8808,-73.5169 1194.3957,-68.8567 1184.0515,-66.5662 1184.8808,-73.5169"/>
</g>
<!-- Node22 -->
<g id="node23" class="node">
<title>Node22</title>
<g id="a_node23"><a xlink:href="../../d2/d45/GPUCommonRtypes_8h.html" target="_top" xlink:title="GPUCommonRtypes.h">
<polygon fill="none" stroke="#000000" points="999,-56.5 999,-75.5 1124,-75.5 1124,-56.5 999,-56.5"/>
<text text-anchor="middle" x="1061.5" y="-63.5" font-family="Helvetica,sans-Serif" font-size="10.00" fill="#000000">GPUCommonRtypes.h</text>
</a>
</g>
</g>
<!-- Node21&#45;&gt;Node22 -->
<g id="edge32" class="edge">
<title>Node21&#45;&gt;Node22</title>
<path fill="none" stroke="#191970" d="M853.2719,-113.081C900.7617,-102.3434 964.8043,-87.8632 1009.2731,-77.8086"/>
<polygon fill="#191970" stroke="#191970" points="1010.3096,-81.1627 1019.2915,-75.5435 1008.7658,-74.3351 1010.3096,-81.1627"/>
</g>
<!-- Node24 -->
<g id="node25" class="node">
<title>Node24</title>
<polygon fill="none" stroke="#bfbfbf" points="690.5,-56.5 690.5,-75.5 740.5,-75.5 740.5,-56.5 690.5,-56.5"/>
<text text-anchor="middle" x="715.5" y="-63.5" font-family="Helvetica,sans-Serif" font-size="10.00" fill="#000000">cstdint</text>
</g>
<!-- Node21&#45;&gt;Node24 -->
<g id="edge34" class="edge">
<title>Node21&#45;&gt;Node24</title>
<path fill="none" stroke="#191970" d="M771.2079,-112.2977C760.2939,-103.2274 746.4329,-91.7077 735.2676,-82.4285"/>
<polygon fill="#191970" stroke="#191970" points="737.2762,-79.5468 727.3483,-75.8469 732.802,-84.9303 737.2762,-79.5468"/>
</g>
<!-- Node25 -->
<g id="node26" class="node">
<title>Node25</title>
<polygon fill="none" stroke="#bfbfbf" points="758.5,-56.5 758.5,-75.5 810.5,-75.5 810.5,-56.5 758.5,-56.5"/>
<text text-anchor="middle" x="784.5" y="-63.5" font-family="Helvetica,sans-Serif" font-size="10.00" fill="#000000">cassert</text>
</g>
<!-- Node21&#45;&gt;Node25 -->
<g id="edge35" class="edge">
<title>Node21&#45;&gt;Node25</title>
<path fill="none" stroke="#191970" d="M788.264,-112.2977C787.6206,-104.3834 786.8256,-94.6043 786.1322,-86.0759"/>
<polygon fill="#191970" stroke="#191970" points="789.5995,-85.5304 785.3006,-75.8469 782.6225,-86.0977 789.5995,-85.5304"/>
</g>
<!-- Node26 -->
<g id="node27" class="node">
<title>Node26</title>
<polygon fill="none" stroke="#bfbfbf" points="829,-56.5 829,-75.5 894,-75.5 894,-56.5 829,-56.5"/>
<text text-anchor="middle" x="861.5" y="-63.5" font-family="Helvetica,sans-Serif" font-size="10.00" fill="#000000">stdexcept</text>
</g>
<!-- Node21&#45;&gt;Node26 -->
<g id="edge36" class="edge">
<title>Node21&#45;&gt;Node26</title>
<path fill="none" stroke="#191970" d="M807.2978,-112.2977C817.9167,-103.2274 831.4031,-91.7077 842.2667,-82.4285"/>
<polygon fill="#191970" stroke="#191970" points="844.6413,-85.0031 849.9719,-75.8469 840.0949,-79.6805 844.6413,-85.0031"/>
</g>
<!-- Node27 -->
<g id="node28" class="node">
<title>Node27</title>
<polygon fill="none" stroke="#bfbfbf" points="912,-56.5 912,-75.5 981,-75.5 981,-56.5 912,-56.5"/>
<text text-anchor="middle" x="946.5" y="-63.5" font-family="Helvetica,sans-Serif" font-size="10.00" fill="#000000">type_traits</text>
</g>
<!-- Node21&#45;&gt;Node27 -->
<g id="edge38" class="edge">
<title>Node21&#45;&gt;Node27</title>
<path fill="none" stroke="#191970" d="M827.9065,-112.4554C853.8726,-102.284 887.839,-88.9787 912.763,-79.2155"/>
<polygon fill="#191970" stroke="#191970" points="914.136,-82.4366 922.1706,-75.5303 911.5829,-75.9188 914.136,-82.4366"/>
</g>
<!-- Node28 -->
<g id="node29" class="node">
<title>Node28</title>
<polygon fill="none" stroke="#bfbfbf" points="622.5,-56.5 622.5,-75.5 672.5,-75.5 672.5,-56.5 622.5,-56.5"/>
<text text-anchor="middle" x="647.5" y="-63.5" font-family="Helvetica,sans-Serif" font-size="10.00" fill="#000000">cstring</text>
</g>
<!-- Node21&#45;&gt;Node28 -->
<g id="edge39" class="edge">
<title>Node21&#45;&gt;Node28</title>
<path fill="none" stroke="#191970" d="M754.7629,-112.4554C731.5894,-102.419 701.3708,-89.3314 678.9158,-79.6061"/>
<polygon fill="#191970" stroke="#191970" points="680.0723,-76.2929 669.505,-75.5303 677.2903,-82.7164 680.0723,-76.2929"/>
</g>
<!-- Node23 -->
<g id="node24" class="node">
<title>Node23</title>
<polygon fill="none" stroke="#bfbfbf" points="1032,-.5 1032,-19.5 1091,-19.5 1091,-.5 1032,-.5"/>
<text text-anchor="middle" x="1061.5" y="-7.5" font-family="Helvetica,sans-Serif" font-size="10.00" fill="#000000">Rtypes.h</text>
</g>
<!-- Node22&#45;&gt;Node23 -->
<g id="edge33" class="edge">
<title>Node22&#45;&gt;Node23</title>
<path fill="none" stroke="#191970" d="M1061.5,-56.2455C1061.5,-48.9382 1061.5,-38.6944 1061.5,-29.7046"/>
<polygon fill="#191970" stroke="#191970" points="1065.0001,-29.6426 1061.5,-19.6427 1058.0001,-29.6427 1065.0001,-29.6426"/>
</g>
<!-- Node29&#45;&gt;Node22 -->
<g id="edge43" class="edge">
<title>Node29&#45;&gt;Node22</title>
<path fill="none" stroke="#191970" d="M1016.3315,-112.2977C1024.9204,-103.4941 1035.7602,-92.3833 1044.6679,-83.2529"/>
<polygon fill="#191970" stroke="#191970" points="1047.4152,-85.4489 1051.8932,-75.8469 1042.4047,-80.5606 1047.4152,-85.4489"/>
</g>
</g>
</svg>
        <g id="navigator" transform="translate(0 0)" fill="#404254">
                <rect fill="#f2f5e9" fill-opacity="0.5" stroke="#606060" stroke-width=".5" x="0" y="0" width="60" height="60"/>
                <use id="zoomplus" xlink:href="#zoomPlus" x="17" y="9" onmousedown="handleZoom(evt,'in')"/>
                <use id="zoomminus" xlink:href="#zoomMin" x="42" y="9" onmousedown="handleZoom(evt,'out')"/>
                <use id="reset" xlink:href="#resetDef" x="30" y="36" onmousedown="handleReset()"/>
                <g id="arrowUp" xlink:href="#dirArrow" transform="translate(30 24)" onmousedown="handlePan(0,-1)">
                  <use xlink:href="#rim" fill="#404040">
                        <set attributeName="fill" to="#808080" begin="arrowUp.mouseover" end="arrowUp.mouseout"/>
                  </use>
                  <path fill="none" stroke="white" stroke-width="1.5" d="M0,-3.0v7 M-2.5,-0.5L0,-3.0L2.5,-0.5"/>
                </g>
                <g id="arrowRight" xlink:href="#dirArrow" transform="rotate(90) translate(36 -43)" onmousedown="handlePan(1,0)">
                  <use xlink:href="#rim" fill="#404040">
                        <set attributeName="fill" to="#808080" begin="arrowRight.mouseover" end="arrowRight.mouseout"/>
                  </use>
                  <path fill="none" stroke="white" stroke-width="1.5" d="M0,-3.0v7 M-2.5,-0.5L0,-3.0L2.5,-0.5"/>
                </g>
                <g id="arrowDown" xlink:href="#dirArrow" transform="rotate(180) translate(-30 -48)" onmousedown="handlePan(0,1)">
                  <use xlink:href="#rim" fill="#404040">
                        <set attributeName="fill" to="#808080" begin="arrowDown.mouseover" end="arrowDown.mouseout"/>
                  </use>
                  <path fill="none" stroke="white" stroke-width="1.5" d="M0,-3.0v7 M-2.5,-0.5L0,-3.0L2.5,-0.5"/>
                </g>
                <g id="arrowLeft" xlink:href="#dirArrow" transform="rotate(270) translate(-36 17)" onmousedown="handlePan(-1,0)">
                  <use xlink:href="#rim" fill="#404040">
                        <set attributeName="fill" to="#808080" begin="arrowLeft.mouseover" end="arrowLeft.mouseout"/>
                  </use>
                  <path fill="none" stroke="white" stroke-width="1.5" d="M0,-3.0v7 M-2.5,-0.5L0,-3.0L2.5,-0.5"/>
                </g>
        </g>
        <svg viewBox="0 0 15 15" width="100%" height="30px" preserveAspectRatio="xMaxYMin meet">
         <g id="arrow_out" transform="scale(0.3 0.3)">
          <a xlink:href="GPUO2InterfaceConfiguration_8h__incl_org.svg" target="_base">
           <rect id="button" ry="5" rx="5" y="6" x="6" height="38" width="38"
                fill="#f2f5e9" fill-opacity="0.5" stroke="#606060" stroke-width="1.0"/>
           <path id="arrow"
             d="M 11.500037,31.436501 C 11.940474,20.09759 22.043105,11.32322 32.158766,21.979434 L 37.068811,17.246167 C 37.068811,17.246167 37.088388,32 37.088388,32 L 22.160133,31.978069 C 22.160133,31.978069 26.997745,27.140456 26.997745,27.140456 C 18.528582,18.264221 13.291696,25.230495 11.500037,31.436501 z"
             style="fill:#404040;"/>
          </a>
         </g>
        </svg>
</svg>
