<?xml version="1.0" encoding="UTF-8" standalone="no"?>
<!DOCTYPE svg PUBLIC "-//W3C//DTD SVG 1.1//EN"
 "http://www.w3.org/Graphics/SVG/1.1/DTD/svg11.dtd">
<!-- Generated by graphviz version 2.40.1 (20161225.0304)
 -->
<!-- Title: GPUCA_NAMESPACE::gpu::GPUSettingsDeviceProcessing Pages: 1 -->
<svg width="1004pt" height="1024pt"
 viewBox="0.00 0.00 1003.74 1024.00" xmlns="http://www.w3.org/2000/svg" xmlns:xlink="http://www.w3.org/1999/xlink">
<g id="graph0" class="graph" transform="scale(1 1) rotate(0) translate(4 1020)">
<title>GPUCA_NAMESPACE::gpu::GPUSettingsDeviceProcessing</title>
<!-- Node1 -->
<g id="node1" class="node">
<title>Node1</title>
<polygon fill="#bfbfbf" stroke="#000000" points="290.7449,-.5 290.7449,-112.5 472.7449,-112.5 472.7449,-.5 290.7449,-.5"/>
<text text-anchor="start" x="298.7449" y="-100.5" font-family="Helvetica,sans-Serif" font-size="10.00" fill="#000000">GPUCA_NAMESPACE::gpu</text>
<text text-anchor="middle" x="381.7449" y="-89.5" font-family="Helvetica,sans-Serif" font-size="10.00" fill="#000000">::GPUSettingsDeviceProcessing</text>
<polyline fill="none" stroke="#000000" points="290.7449,-82.5 472.7449,-82.5 "/>
<text text-anchor="start" x="298.7449" y="-70.5" font-family="Helvetica,sans-Serif" font-size="10.00" fill="#000000">+ debugLevel</text>
<text text-anchor="start" x="298.7449" y="-59.5" font-family="Helvetica,sans-Serif" font-size="10.00" fill="#000000">+ debugMask</text>
<text text-anchor="start" x="298.7449" y="-48.5" font-family="Helvetica,sans-Serif" font-size="10.00" fill="#000000">+ runQA</text>
<text text-anchor="start" x="298.7449" y="-37.5" font-family="Helvetica,sans-Serif" font-size="10.00" fill="#000000">+ keepAllMemory</text>
<polyline fill="none" stroke="#000000" points="290.7449,-30.5 472.7449,-30.5 "/>
<text text-anchor="start" x="298.7449" y="-18.5" font-family="Helvetica,sans-Serif" font-size="10.00" fill="#000000">+ GPUSettingsDeviceProcessing()</text>
<text text-anchor="start" x="298.7449" y="-7.5" font-family="Helvetica,sans-Serif" font-size="10.00" fill="#000000">+ SetDefaults()</text>
</g>
<!-- Node2 -->
<g id="node2" class="node">
<title>Node2</title>
<g id="a_node2"><a xlink:href="../../d4/dc3/classfloat.html" target="_top" xlink:title="{float\n||}">
<polygon fill="none" stroke="#000000" points="146.7449,-887 146.7449,-944 184.7449,-944 184.7449,-887 146.7449,-887"/>
<text text-anchor="middle" x="165.7449" y="-932" font-family="Helvetica,sans-Serif" font-size="10.00" fill="#000000">float</text>
<polyline fill="none" stroke="#000000" points="146.7449,-925 184.7449,-925 "/>
<text text-anchor="middle" x="165.7449" y="-913" font-family="Helvetica,sans-Serif" font-size="10.00" fill="#000000"> </text>
<polyline fill="none" stroke="#000000" points="146.7449,-906 184.7449,-906 "/>
<text text-anchor="middle" x="165.7449" y="-894" font-family="Helvetica,sans-Serif" font-size="10.00" fill="#000000"> </text>
</a>
</g>
</g>
<!-- Node2&#45;&gt;Node1 -->
<g id="edge1" class="edge">
<title>Node2&#45;&gt;Node1</title>
<path fill="none" stroke="#404040" d="M149.1143,-886.8169C91.6356,-783.5692 -87.607,-424.1888 52.7449,-182 76.4088,-141.166 191.209,-103.9354 278.602,-80.8158"/>
<polygon fill="none" stroke="#404040" points="278.857,-80.7493 283.652,-75.3635 290.4679,-77.7182 285.6728,-83.1041 278.857,-80.7493"/>
<text text-anchor="middle" x="111.7449" y="-417.5" font-family="Helvetica,sans-Serif" font-size="10.00" fill="#000000"> +memoryScalingFactor</text>
</g>
<!-- Node7 -->
<g id="node7" class="node">
<title>Node7</title>
<g id="a_node7"><a xlink:href="../../d6/d42/classGPUCA__NAMESPACE_1_1gpu_1_1GPUDisplayBackend.html" target="_top" xlink:title="{GPUCA_NAMESPACE::gpu\l::GPUDisplayBackend\n|+ GL_MIN_VERSION_MAJOR\l+ GL_MIN_VERSION_MINOR\l# INIT_WIDTH\l# GL_WINDOW_NAME\l# KEY_LEFT\l# KEY_RIGHT\l# KEY_PAGEUP\l# KEY_PAGEDOWN\l# KEY_SHIFT\l# KEY_ALT\l# KEY_CTRL\l# KEY_F1\l# KEY_F2\l# KEY_F3\l# KEY_F10\l# KEY_F11\l# KEY_F12\l# KEY_HOME\l# KEY_END\l# KEY_INSERT\l# KEY_ESCAPE\l# KEY_ENTER\l|+ GPUDisplayBackend()\l+ ~GPUDisplayBackend()\l+ StartDisplay()\l+ DisplayExit()\l+ SwitchFullscreen()\l+ ToggleMaximized()\l+ SetVSync()\l+ EnableSendKey()\l+ OpenGLPrint()\l# OpenGLMain()\l# HandleKeyRelease()\l# DrawGLScene()\l# HandleSendKey()\l# ReSizeGLScene()\l# InitGL()\l# ExitGL()\l# OpenGLWrapper()\l}">
<polygon fill="none" stroke="#000000" points="613.7449,-182.5 613.7449,-657.5 765.7449,-657.5 765.7449,-182.5 613.7449,-182.5"/>
<text text-anchor="start" x="621.7449" y="-645.5" font-family="Helvetica,sans-Serif" font-size="10.00" fill="#000000">GPUCA_NAMESPACE::gpu</text>
<text text-anchor="middle" x="689.7449" y="-634.5" font-family="Helvetica,sans-Serif" font-size="10.00" fill="#000000">::GPUDisplayBackend</text>
<polyline fill="none" stroke="#000000" points="613.7449,-627.5 765.7449,-627.5 "/>
<text text-anchor="start" x="621.7449" y="-615.5" font-family="Helvetica,sans-Serif" font-size="10.00" fill="#000000">+ GL_MIN_VERSION_MAJOR</text>
<text text-anchor="start" x="621.7449" y="-604.5" font-family="Helvetica,sans-Serif" font-size="10.00" fill="#000000">+ GL_MIN_VERSION_MINOR</text>
<text text-anchor="start" x="621.7449" y="-593.5" font-family="Helvetica,sans-Serif" font-size="10.00" fill="#000000"># INIT_WIDTH</text>
<text text-anchor="start" x="621.7449" y="-582.5" font-family="Helvetica,sans-Serif" font-size="10.00" fill="#000000"># GL_WINDOW_NAME</text>
<text text-anchor="start" x="621.7449" y="-571.5" font-family="Helvetica,sans-Serif" font-size="10.00" fill="#000000"># KEY_LEFT</text>
<text text-anchor="start" x="621.7449" y="-560.5" font-family="Helvetica,sans-Serif" font-size="10.00" fill="#000000"># KEY_RIGHT</text>
<text text-anchor="start" x="621.7449" y="-549.5" font-family="Helvetica,sans-Serif" font-size="10.00" fill="#000000"># KEY_PAGEUP</text>
<text text-anchor="start" x="621.7449" y="-538.5" font-family="Helvetica,sans-Serif" font-size="10.00" fill="#000000"># KEY_PAGEDOWN</text>
<text text-anchor="start" x="621.7449" y="-527.5" font-family="Helvetica,sans-Serif" font-size="10.00" fill="#000000"># KEY_SHIFT</text>
<text text-anchor="start" x="621.7449" y="-516.5" font-family="Helvetica,sans-Serif" font-size="10.00" fill="#000000"># KEY_ALT</text>
<text text-anchor="start" x="621.7449" y="-505.5" font-family="Helvetica,sans-Serif" font-size="10.00" fill="#000000"># KEY_CTRL</text>
<text text-anchor="start" x="621.7449" y="-494.5" font-family="Helvetica,sans-Serif" font-size="10.00" fill="#000000"># KEY_F1</text>
<text text-anchor="start" x="621.7449" y="-483.5" font-family="Helvetica,sans-Serif" font-size="10.00" fill="#000000"># KEY_F2</text>
<text text-anchor="start" x="621.7449" y="-472.5" font-family="Helvetica,sans-Serif" font-size="10.00" fill="#000000"># KEY_F3</text>
<text text-anchor="start" x="621.7449" y="-461.5" font-family="Helvetica,sans-Serif" font-size="10.00" fill="#000000"># KEY_F10</text>
<text text-anchor="start" x="621.7449" y="-450.5" font-family="Helvetica,sans-Serif" font-size="10.00" fill="#000000"># KEY_F11</text>
<text text-anchor="start" x="621.7449" y="-439.5" font-family="Helvetica,sans-Serif" font-size="10.00" fill="#000000"># KEY_F12</text>
<text text-anchor="start" x="621.7449" y="-428.5" font-family="Helvetica,sans-Serif" font-size="10.00" fill="#000000"># KEY_HOME</text>
<text text-anchor="start" x="621.7449" y="-417.5" font-family="Helvetica,sans-Serif" font-size="10.00" fill="#000000"># KEY_END</text>
<text text-anchor="start" x="621.7449" y="-406.5" font-family="Helvetica,sans-Serif" font-size="10.00" fill="#000000"># KEY_INSERT</text>
<text text-anchor="start" x="621.7449" y="-395.5" font-family="Helvetica,sans-Serif" font-size="10.00" fill="#000000"># KEY_ESCAPE</text>
<text text-anchor="start" x="621.7449" y="-384.5" font-family="Helvetica,sans-Serif" font-size="10.00" fill="#000000"># KEY_ENTER</text>
<polyline fill="none" stroke="#000000" points="613.7449,-377.5 765.7449,-377.5 "/>
<text text-anchor="start" x="621.7449" y="-365.5" font-family="Helvetica,sans-Serif" font-size="10.00" fill="#000000">+ GPUDisplayBackend()</text>
<text text-anchor="start" x="621.7449" y="-354.5" font-family="Helvetica,sans-Serif" font-size="10.00" fill="#000000">+ ~GPUDisplayBackend()</text>
<text text-anchor="start" x="621.7449" y="-343.5" font-family="Helvetica,sans-Serif" font-size="10.00" fill="#000000">+ StartDisplay()</text>
<text text-anchor="start" x="621.7449" y="-332.5" font-family="Helvetica,sans-Serif" font-size="10.00" fill="#000000">+ DisplayExit()</text>
<text text-anchor="start" x="621.7449" y="-321.5" font-family="Helvetica,sans-Serif" font-size="10.00" fill="#000000">+ SwitchFullscreen()</text>
<text text-anchor="start" x="621.7449" y="-310.5" font-family="Helvetica,sans-Serif" font-size="10.00" fill="#000000">+ ToggleMaximized()</text>
<text text-anchor="start" x="621.7449" y="-299.5" font-family="Helvetica,sans-Serif" font-size="10.00" fill="#000000">+ SetVSync()</text>
<text text-anchor="start" x="621.7449" y="-288.5" font-family="Helvetica,sans-Serif" font-size="10.00" fill="#000000">+ EnableSendKey()</text>
<text text-anchor="start" x="621.7449" y="-277.5" font-family="Helvetica,sans-Serif" font-size="10.00" fill="#000000">+ OpenGLPrint()</text>
<text text-anchor="start" x="621.7449" y="-266.5" font-family="Helvetica,sans-Serif" font-size="10.00" fill="#000000"># OpenGLMain()</text>
<text text-anchor="start" x="621.7449" y="-255.5" font-family="Helvetica,sans-Serif" font-size="10.00" fill="#000000"># HandleKeyRelease()</text>
<text text-anchor="start" x="621.7449" y="-244.5" font-family="Helvetica,sans-Serif" font-size="10.00" fill="#000000"># DrawGLScene()</text>
<text text-anchor="start" x="621.7449" y="-233.5" font-family="Helvetica,sans-Serif" font-size="10.00" fill="#000000"># HandleSendKey()</text>
<text text-anchor="start" x="621.7449" y="-222.5" font-family="Helvetica,sans-Serif" font-size="10.00" fill="#000000"># ReSizeGLScene()</text>
<text text-anchor="start" x="621.7449" y="-211.5" font-family="Helvetica,sans-Serif" font-size="10.00" fill="#000000"># InitGL()</text>
<text text-anchor="start" x="621.7449" y="-200.5" font-family="Helvetica,sans-Serif" font-size="10.00" fill="#000000"># ExitGL()</text>
<text text-anchor="start" x="621.7449" y="-189.5" font-family="Helvetica,sans-Serif" font-size="10.00" fill="#000000"># OpenGLWrapper()</text>
</a>
</g>
</g>
<!-- Node2&#45;&gt;Node7 -->
<g id="edge7" class="edge">
<title>Node2&#45;&gt;Node7</title>
<path fill="none" stroke="#404040" d="M183.007,-886.6303C216.2448,-834.0431 294.6843,-723.6777 393.7449,-676 435.1509,-656.0714 563.1134,-685.7442 599.7449,-658 601.4396,-656.7164 603.1024,-655.397 604.7339,-654.0436"/>
<polygon fill="none" stroke="#404040" points="604.8232,-653.9632 606.6045,-646.9756 613.7398,-645.9323 611.9585,-652.9199 604.8232,-653.9632"/>
<text text-anchor="middle" x="430.2449" y="-750.5" font-family="Helvetica,sans-Serif" font-size="10.00" fill="#000000"> #mMouseDnX</text>
<text text-anchor="middle" x="430.2449" y="-739.5" font-family="Helvetica,sans-Serif" font-size="10.00" fill="#000000">#mMouseDnY</text>
<text text-anchor="middle" x="430.2449" y="-728.5" font-family="Helvetica,sans-Serif" font-size="10.00" fill="#000000">#mouseMvX</text>
<text text-anchor="middle" x="430.2449" y="-717.5" font-family="Helvetica,sans-Serif" font-size="10.00" fill="#000000">#mouseMvY</text>
</g>
<!-- Node3 -->
<g id="node3" class="node">
<title>Node3</title>
<polygon fill="none" stroke="#bfbfbf" points="179.7449,-391.5 179.7449,-448.5 217.7449,-448.5 217.7449,-391.5 179.7449,-391.5"/>
<text text-anchor="middle" x="198.7449" y="-436.5" font-family="Helvetica,sans-Serif" font-size="10.00" fill="#000000">char</text>
<polyline fill="none" stroke="#bfbfbf" points="179.7449,-429.5 217.7449,-429.5 "/>
<text text-anchor="middle" x="198.7449" y="-417.5" font-family="Helvetica,sans-Serif" font-size="10.00" fill="#000000"> </text>
<polyline fill="none" stroke="#bfbfbf" points="179.7449,-410.5 217.7449,-410.5 "/>
<text text-anchor="middle" x="198.7449" y="-398.5" font-family="Helvetica,sans-Serif" font-size="10.00" fill="#000000"> </text>
</g>
<!-- Node3&#45;&gt;Node1 -->
<g id="edge2" class="edge">
<title>Node3&#45;&gt;Node1</title>
<path fill="none" stroke="#404040" d="M199.4642,-391.2672C199.6038,-345.2279 195.6742,-252.9059 165.7449,-182 161.8037,-172.6628 155.0341,-173.5863 151.7449,-164 146.9851,-150.1272 143.1187,-142.8617 151.7449,-131 167.5855,-109.2182 225.3443,-90.5527 279.013,-77.3531"/>
<polygon fill="none" stroke="#404040" points="279.0742,-77.3384 283.9745,-72.0481 290.7426,-74.5367 285.8423,-79.827 279.0742,-77.3384"/>
<text text-anchor="middle" x="227.2449" y="-156" font-family="Helvetica,sans-Serif" font-size="10.00" fill="#000000"> +trackletSelectorInPipeline</text>
<text text-anchor="middle" x="227.2449" y="-145" font-family="Helvetica,sans-Serif" font-size="10.00" fill="#000000">+trackletSelectorSlices</text>
<text text-anchor="middle" x="227.2449" y="-134" font-family="Helvetica,sans-Serif" font-size="10.00" fill="#000000">+trackletConstructorInPipeline</text>
</g>
<!-- Node4 -->
<g id="node4" class="node">
<title>Node4</title>
<polygon fill="none" stroke="#bfbfbf" points="293.2449,-391.5 293.2449,-448.5 338.2449,-448.5 338.2449,-391.5 293.2449,-391.5"/>
<text text-anchor="middle" x="315.7449" y="-436.5" font-family="Helvetica,sans-Serif" font-size="10.00" fill="#000000">size_t</text>
<polyline fill="none" stroke="#bfbfbf" points="293.2449,-429.5 338.2449,-429.5 "/>
<text text-anchor="middle" x="315.7449" y="-417.5" font-family="Helvetica,sans-Serif" font-size="10.00" fill="#000000"> </text>
<polyline fill="none" stroke="#bfbfbf" points="293.2449,-410.5 338.2449,-410.5 "/>
<text text-anchor="middle" x="315.7449" y="-398.5" font-family="Helvetica,sans-Serif" font-size="10.00" fill="#000000"> </text>
</g>
<!-- Node4&#45;&gt;Node1 -->
<g id="edge3" class="edge">
<title>Node4&#45;&gt;Node1</title>
<path fill="none" stroke="#404040" d="M309.45,-391.3295C299.1098,-338.0227 282.8585,-220.9092 316.7449,-131 317.7041,-128.4552 318.7934,-125.94 319.9933,-123.4605"/>
<polygon fill="none" stroke="#404040" points="320.0687,-123.3248 319.4885,-116.137 325.9001,-112.8369 326.4804,-120.0246 320.0687,-123.3248"/>
<text text-anchor="middle" x="375.7449" y="-145" font-family="Helvetica,sans-Serif" font-size="10.00" fill="#000000"> +forceMemoryPoolSize</text>
</g>
<!-- Node5 -->
<g id="node5" class="node">
<title>Node5</title>
<polygon fill="none" stroke="#bfbfbf" points="444.2449,-887 444.2449,-944 473.2449,-944 473.2449,-887 444.2449,-887"/>
<text text-anchor="middle" x="458.7449" y="-932" font-family="Helvetica,sans-Serif" font-size="10.00" fill="#000000">int</text>
<polyline fill="none" stroke="#bfbfbf" points="444.2449,-925 473.2449,-925 "/>
<text text-anchor="middle" x="458.7449" y="-913" font-family="Helvetica,sans-Serif" font-size="10.00" fill="#000000"> </text>
<polyline fill="none" stroke="#bfbfbf" points="444.2449,-906 473.2449,-906 "/>
<text text-anchor="middle" x="458.7449" y="-894" font-family="Helvetica,sans-Serif" font-size="10.00" fill="#000000"> </text>
</g>
<!-- Node5&#45;&gt;Node1 -->
<g id="edge4" class="edge">
<title>Node5&#45;&gt;Node1</title>
<path fill="none" stroke="#404040" d="M458.3323,-886.754C456.3051,-749.6673 447.0032,-167.445 434.7449,-131 433.9345,-128.5905 433.018,-126.1908 432.0119,-123.8093"/>
<polygon fill="none" stroke="#404040" points="431.9275,-123.6342 425.7172,-119.9691 426.7119,-112.8269 432.9221,-116.492 431.9275,-123.6342"/>
<text text-anchor="middle" x="527.2449" y="-472.5" font-family="Helvetica,sans-Serif" font-size="10.00" fill="#000000"> +platformNum</text>
<text text-anchor="middle" x="527.2449" y="-461.5" font-family="Helvetica,sans-Serif" font-size="10.00" fill="#000000">+nStreams</text>
<text text-anchor="middle" x="527.2449" y="-450.5" font-family="Helvetica,sans-Serif" font-size="10.00" fill="#000000">+memoryAllocationStrategy</text>
<text text-anchor="middle" x="527.2449" y="-439.5" font-family="Helvetica,sans-Serif" font-size="10.00" fill="#000000">+deviceNum</text>
<text text-anchor="middle" x="527.2449" y="-428.5" font-family="Helvetica,sans-Serif" font-size="10.00" fill="#000000">+tpcCompressionGatherMode</text>
<text text-anchor="middle" x="527.2449" y="-417.5" font-family="Helvetica,sans-Serif" font-size="10.00" fill="#000000">+nDeviceHelperThreads</text>
<text text-anchor="middle" x="527.2449" y="-406.5" font-family="Helvetica,sans-Serif" font-size="10.00" fill="#000000">+nThreads</text>
<text text-anchor="middle" x="527.2449" y="-395.5" font-family="Helvetica,sans-Serif" font-size="10.00" fill="#000000">+stuckProtection</text>
<text text-anchor="middle" x="527.2449" y="-384.5" font-family="Helvetica,sans-Serif" font-size="10.00" fill="#000000">+nTPCClustererLanes</text>
<text text-anchor="middle" x="527.2449" y="-373.5" font-family="Helvetica,sans-Serif" font-size="10.00" fill="#000000">+resetTimers</text>
<text text-anchor="middle" x="527.2449" y="-362.5" font-family="Helvetica,sans-Serif" font-size="10.00" fill="#000000">...</text>
</g>
<!-- Node5&#45;&gt;Node7 -->
<g id="edge9" class="edge">
<title>Node5&#45;&gt;Node7</title>
<path fill="none" stroke="#404040" d="M460.8576,-886.5868C465.6354,-829.4788 479.2312,-705.2045 508.7449,-676 538.0507,-647.0013 568.2724,-684.6315 599.7449,-658 601.5786,-656.4484 603.3749,-654.8553 605.1347,-653.2233"/>
<polygon fill="none" stroke="#404040" points="605.1354,-653.2226 606.5598,-646.1535 613.6329,-644.7494 612.2086,-651.8185 605.1354,-653.2226"/>
<text text-anchor="middle" x="554.2449" y="-767" font-family="Helvetica,sans-Serif" font-size="10.00" fill="#000000"> #mMouseWheel</text>
<text text-anchor="middle" x="554.2449" y="-756" font-family="Helvetica,sans-Serif" font-size="10.00" fill="#000000">#mDisplayHeight</text>
<text text-anchor="middle" x="554.2449" y="-745" font-family="Helvetica,sans-Serif" font-size="10.00" fill="#000000">+mSendKey</text>
<text text-anchor="middle" x="554.2449" y="-734" font-family="Helvetica,sans-Serif" font-size="10.00" fill="#000000">#mMaxFPSRate</text>
<text text-anchor="middle" x="554.2449" y="-723" font-family="Helvetica,sans-Serif" font-size="10.00" fill="#000000">+mNeedUpdate</text>
<text text-anchor="middle" x="554.2449" y="-712" font-family="Helvetica,sans-Serif" font-size="10.00" fill="#000000">+mDisplayControl</text>
<text text-anchor="middle" x="554.2449" y="-701" font-family="Helvetica,sans-Serif" font-size="10.00" fill="#000000">#mDisplayWidth</text>
</g>
<!-- Node6 -->
<g id="node6" class="node">
<title>Node6</title>
<polygon fill="none" stroke="#bfbfbf" points="808.7449,-887 808.7449,-944 846.7449,-944 846.7449,-887 808.7449,-887"/>
<text text-anchor="middle" x="827.7449" y="-932" font-family="Helvetica,sans-Serif" font-size="10.00" fill="#000000">bool</text>
<polyline fill="none" stroke="#bfbfbf" points="808.7449,-925 846.7449,-925 "/>
<text text-anchor="middle" x="827.7449" y="-913" font-family="Helvetica,sans-Serif" font-size="10.00" fill="#000000"> </text>
<polyline fill="none" stroke="#bfbfbf" points="808.7449,-906 846.7449,-906 "/>
<text text-anchor="middle" x="827.7449" y="-894" font-family="Helvetica,sans-Serif" font-size="10.00" fill="#000000"> </text>
</g>
<!-- Node6&#45;&gt;Node1 -->
<g id="edge5" class="edge">
<title>Node6&#45;&gt;Node1</title>
<path fill="none" stroke="#404040" d="M837.1841,-886.6651C844.441,-862.9036 853.8609,-828.1674 857.7449,-797 864.3951,-743.635 862.2157,-729.5916 857.7449,-676 839.2364,-454.1377 910.9453,-358.1105 774.7449,-182 738.9351,-135.697 588.6443,-97.3602 484.6579,-75.6928"/>
<polygon fill="none" stroke="#404040" points="484.6043,-75.6819 477.921,-78.39 472.8507,-73.2624 479.534,-70.5543 484.6043,-75.6819"/>
<text text-anchor="middle" x="927.7449" y="-478" font-family="Helvetica,sans-Serif" font-size="10.00" fill="#000000"> +runCompressionStatistics</text>
<text text-anchor="middle" x="927.7449" y="-467" font-family="Helvetica,sans-Serif" font-size="10.00" fill="#000000">+comparableDebutOutput</text>
<text text-anchor="middle" x="927.7449" y="-456" font-family="Helvetica,sans-Serif" font-size="10.00" fill="#000000">+runMC</text>
<text text-anchor="middle" x="927.7449" y="-445" font-family="Helvetica,sans-Serif" font-size="10.00" fill="#000000">+deviceTimers</text>
<text text-anchor="middle" x="927.7449" y="-434" font-family="Helvetica,sans-Serif" font-size="10.00" fill="#000000">+globalInitMutex</text>
<text text-anchor="middle" x="927.7449" y="-423" font-family="Helvetica,sans-Serif" font-size="10.00" fill="#000000">+mergerSortTracks</text>
<text text-anchor="middle" x="927.7449" y="-412" font-family="Helvetica,sans-Serif" font-size="10.00" fill="#000000">+fullMergerOnGPU</text>
<text text-anchor="start" x="859.7449" y="-401" font-family="Helvetica,sans-Serif" font-size="10.00" fill="#000000">+registerStandaloneInput</text>
<text text-anchor="middle" x="927.7449" y="-390" font-family="Helvetica,sans-Serif" font-size="10.00" fill="#000000">Memory</text>
<text text-anchor="middle" x="927.7449" y="-379" font-family="Helvetica,sans-Serif" font-size="10.00" fill="#000000">+fitSlowTracksInOtherPass</text>
<text text-anchor="middle" x="927.7449" y="-368" font-family="Helvetica,sans-Serif" font-size="10.00" fill="#000000">+gpuDeviceOnly</text>
<text text-anchor="middle" x="927.7449" y="-357" font-family="Helvetica,sans-Serif" font-size="10.00" fill="#000000">...</text>
</g>
<!-- Node6&#45;&gt;Node7 -->
<g id="edge10" class="edge">
<title>Node6&#45;&gt;Node7</title>
<path fill="none" stroke="#404040" d="M815.8221,-886.701C806.3528,-862.9602 793.321,-828.2346 784.7449,-797 770.2511,-744.2129 774.2781,-729.2866 761.7449,-676 761.2321,-673.8196 760.7128,-671.6299 760.1876,-669.432"/>
<polygon fill="none" stroke="#404040" points="760.1483,-669.2696 754.8485,-664.3797 757.3239,-657.6068 762.6237,-662.4967 760.1483,-669.2696"/>
<text text-anchor="middle" x="821.2449" y="-750.5" font-family="Helvetica,sans-Serif" font-size="10.00" fill="#000000"> #mMouseDnR</text>
<text text-anchor="middle" x="821.2449" y="-739.5" font-family="Helvetica,sans-Serif" font-size="10.00" fill="#000000">#mMouseDn</text>
<text text-anchor="middle" x="821.2449" y="-728.5" font-family="Helvetica,sans-Serif" font-size="10.00" fill="#000000">#mKeys</text>
<text text-anchor="middle" x="821.2449" y="-717.5" font-family="Helvetica,sans-Serif" font-size="10.00" fill="#000000">#mKeysShift</text>
</g>
<!-- Node7&#45;&gt;Node1 -->
<g id="edge6" class="edge">
<title>Node7&#45;&gt;Node1</title>
<path fill="none" stroke="#404040" d="M613.6078,-199.9647C609.2285,-193.7291 604.6114,-187.7196 599.7449,-182 568.7658,-145.5904 524.4195,-117.3714 483.8023,-96.9957"/>
<polygon fill="none" stroke="#404040" points="483.7952,-96.9923 476.648,-97.95 473.015,-91.7209 480.1622,-90.7632 483.7952,-96.9923"/>
<text text-anchor="middle" x="618.7449" y="-145" font-family="Helvetica,sans-Serif" font-size="10.00" fill="#000000"> +eventDisplay</text>
</g>
<!-- Node8 -->
<g id="node8" class="node">
<title>Node8</title>
<g id="a_node8"><a xlink:href="../../d9/dda/classGPUCA__NAMESPACE_1_1gpu_1_1GPUDisplay.html" target="_top" xlink:title="{GPUCA_NAMESPACE::gpu\l::GPUDisplay\n||+ GPUDisplay()\l+ ~GPUDisplay()\l+ GPUDisplay()\l+ StartDisplay()\l+ ShowNextEvent()\l+ WaitForNextEvent()\l+ SetCollisionFirstCluster()\l+ HandleKeyRelease()\l+ DrawGLScene()\l+ HandleSendKey()\l+ InitGL()\l+ ExitGL()\l+ ReSizeGLScene()\l}">
<polygon fill="none" stroke="#000000" points="511.7449,-815.5 511.7449,-1015.5 659.7449,-1015.5 659.7449,-815.5 511.7449,-815.5"/>
<text text-anchor="start" x="519.7449" y="-1003.5" font-family="Helvetica,sans-Serif" font-size="10.00" fill="#000000">GPUCA_NAMESPACE::gpu</text>
<text text-anchor="middle" x="585.7449" y="-992.5" font-family="Helvetica,sans-Serif" font-size="10.00" fill="#000000">::GPUDisplay</text>
<polyline fill="none" stroke="#000000" points="511.7449,-985.5 659.7449,-985.5 "/>
<text text-anchor="middle" x="585.7449" y="-973.5" font-family="Helvetica,sans-Serif" font-size="10.00" fill="#000000"> </text>
<polyline fill="none" stroke="#000000" points="511.7449,-966.5 659.7449,-966.5 "/>
<text text-anchor="start" x="519.7449" y="-954.5" font-family="Helvetica,sans-Serif" font-size="10.00" fill="#000000">+ GPUDisplay()</text>
<text text-anchor="start" x="519.7449" y="-943.5" font-family="Helvetica,sans-Serif" font-size="10.00" fill="#000000">+ ~GPUDisplay()</text>
<text text-anchor="start" x="519.7449" y="-932.5" font-family="Helvetica,sans-Serif" font-size="10.00" fill="#000000">+ GPUDisplay()</text>
<text text-anchor="start" x="519.7449" y="-921.5" font-family="Helvetica,sans-Serif" font-size="10.00" fill="#000000">+ StartDisplay()</text>
<text text-anchor="start" x="519.7449" y="-910.5" font-family="Helvetica,sans-Serif" font-size="10.00" fill="#000000">+ ShowNextEvent()</text>
<text text-anchor="start" x="519.7449" y="-899.5" font-family="Helvetica,sans-Serif" font-size="10.00" fill="#000000">+ WaitForNextEvent()</text>
<text text-anchor="start" x="519.7449" y="-888.5" font-family="Helvetica,sans-Serif" font-size="10.00" fill="#000000">+ SetCollisionFirstCluster()</text>
<text text-anchor="start" x="519.7449" y="-877.5" font-family="Helvetica,sans-Serif" font-size="10.00" fill="#000000">+ HandleKeyRelease()</text>
<text text-anchor="start" x="519.7449" y="-866.5" font-family="Helvetica,sans-Serif" font-size="10.00" fill="#000000">+ DrawGLScene()</text>
<text text-anchor="start" x="519.7449" y="-855.5" font-family="Helvetica,sans-Serif" font-size="10.00" fill="#000000">+ HandleSendKey()</text>
<text text-anchor="start" x="519.7449" y="-844.5" font-family="Helvetica,sans-Serif" font-size="10.00" fill="#000000">+ InitGL()</text>
<text text-anchor="start" x="519.7449" y="-833.5" font-family="Helvetica,sans-Serif" font-size="10.00" fill="#000000">+ ExitGL()</text>
<text text-anchor="start" x="519.7449" y="-822.5" font-family="Helvetica,sans-Serif" font-size="10.00" fill="#000000">+ ReSizeGLScene()</text>
</a>
</g>
</g>
<!-- Node8&#45;&gt;Node7 -->
<g id="edge8" class="edge">
<title>Node8&#45;&gt;Node7</title>
<path fill="none" stroke="#404040" d="M600.6678,-815.2476C607.5409,-772.2316 616.2732,-721.5014 625.7449,-676 626.1979,-673.824 626.6567,-671.6386 627.1209,-669.4448"/>
<polygon fill="none" stroke="#404040" points="627.1362,-669.3731 624.4836,-662.6676 629.653,-657.64 632.3056,-664.3455 627.1362,-669.3731"/>
<text text-anchor="middle" x="654.7449" y="-734" font-family="Helvetica,sans-Serif" font-size="10.00" fill="#000000"> #mDisplay</text>
</g>
<!-- Node9 -->
<g id="node9" class="node">
<title>Node9</title>
<polygon fill="none" stroke="#bfbfbf" points="677.7449,-887 677.7449,-944 721.7449,-944 721.7449,-887 677.7449,-887"/>
<text text-anchor="middle" x="699.7449" y="-932" font-family="Helvetica,sans-Serif" font-size="10.00" fill="#000000">static</text>
<polyline fill="none" stroke="#bfbfbf" points="677.7449,-925 721.7449,-925 "/>
<text text-anchor="middle" x="699.7449" y="-913" font-family="Helvetica,sans-Serif" font-size="10.00" fill="#000000"> </text>
<polyline fill="none" stroke="#bfbfbf" points="677.7449,-906 721.7449,-906 "/>
<text text-anchor="middle" x="699.7449" y="-894" font-family="Helvetica,sans-Serif" font-size="10.00" fill="#000000"> </text>
</g>
<!-- Node9&#45;&gt;Node7 -->
<g id="edge11" class="edge">
<title>Node9&#45;&gt;Node7</title>
<path fill="none" stroke="#404040" d="M696.9743,-886.7995C694.8016,-862.8217 691.9506,-827.7183 690.7449,-797 689.1324,-755.9139 688.251,-712.2899 687.8391,-669.8476"/>
<polygon fill="none" stroke="#404040" points="687.8372,-669.6143 683.7852,-663.6492 687.7329,-657.6147 691.7849,-663.5797 687.8372,-669.6143"/>
<text text-anchor="middle" x="726.2449" y="-789" font-family="Helvetica,sans-Serif" font-size="10.00" fill="#000000"> #KEY_F4</text>
<text text-anchor="middle" x="726.2449" y="-778" font-family="Helvetica,sans-Serif" font-size="10.00" fill="#000000">#KEY_DOWN</text>
<text text-anchor="middle" x="726.2449" y="-767" font-family="Helvetica,sans-Serif" font-size="10.00" fill="#000000">#KEY_UP</text>
<text text-anchor="middle" x="726.2449" y="-756" font-family="Helvetica,sans-Serif" font-size="10.00" fill="#000000">#KEY_F5</text>
<text text-anchor="middle" x="726.2449" y="-745" font-family="Helvetica,sans-Serif" font-size="10.00" fill="#000000">#INIT_HEIGHT</text>
<text text-anchor="middle" x="726.2449" y="-734" font-family="Helvetica,sans-Serif" font-size="10.00" fill="#000000">#KEY_F6</text>
<text text-anchor="middle" x="726.2449" y="-723" font-family="Helvetica,sans-Serif" font-size="10.00" fill="#000000">#KEY_F7</text>
<text text-anchor="middle" x="726.2449" y="-712" font-family="Helvetica,sans-Serif" font-size="10.00" fill="#000000">#KEY_SPACE</text>
<text text-anchor="middle" x="726.2449" y="-701" font-family="Helvetica,sans-Serif" font-size="10.00" fill="#000000">#KEY_F8</text>
<text text-anchor="middle" x="726.2449" y="-690" font-family="Helvetica,sans-Serif" font-size="10.00" fill="#000000">#KEY_F9</text>
<text text-anchor="middle" x="726.2449" y="-679" font-family="Helvetica,sans-Serif" font-size="10.00" fill="#000000">...</text>
</g>
</g>
</svg>
