<?xml version="1.0" encoding="UTF-8" standalone="no"?>
<!DOCTYPE svg PUBLIC "-//W3C//DTD SVG 1.1//EN"
 "http://www.w3.org/Graphics/SVG/1.1/DTD/svg11.dtd">
<!-- Generated by graphviz version 2.40.1 (20161225.0304)
 -->
<!-- Title: /home/travis/build/AliceO2Group/AliceO2/Detectors/MUON/MCH/Raw/Decoder/src/DecoderLogic.h Pages: 1 -->
<!--zoomable 240 -->
<svg id="main" version="1.1" xmlns="http://www.w3.org/2000/svg" xmlns:xlink="http://www.w3.org/1999/xlink" xml:space="preserve" onload="init(evt)">
<style type="text/css"><![CDATA[
.edge:hover path { stroke: red; }
.edge:hover polygon { stroke: red; fill: red; }
]]></style>
<script type="text/javascript"><![CDATA[
var edges = document.getElementsByTagName('g');
if (edges && edges.length) {
  for (var i=0;i<edges.length;i++) {
    if (edges[i].id.substr(0,4)=='edge') {
      edges[i].setAttribute('class','edge');
    }
  }
}
]]></script>
        <defs>
                <circle id="rim" cx="0" cy="0" r="7"/>
                <circle id="rim2" cx="0" cy="0" r="3.5"/>
                <g id="zoomPlus">
                        <use xlink:href="#rim" fill="#404040">
                                <set attributeName="fill" to="#808080" begin="zoomplus.mouseover" end="zoomplus.mouseout"/>
                        </use>
                        <path d="M-4,0h8M0,-4v8" fill="none" stroke="white" stroke-width="1.5" pointer-events="none"/>
                </g>
                <g id="zoomMin">
                        <use xlink:href="#rim" fill="#404040">
                                <set attributeName="fill" to="#808080" begin="zoomminus.mouseover" end="zoomminus.mouseout"/>
                        </use>
                        <path d="M-4,0h8" fill="none" stroke="white" stroke-width="1.5" pointer-events="none"/>
                </g>
                <g id="dirArrow">
                        <path fill="none" stroke="white" stroke-width="1.5" d="M0,-3.0v7 M-2.5,-0.5L0,-3.0L2.5,-0.5"/>
                </g>
               <g id="resetDef">
                       <use xlink:href="#rim2" fill="#404040">
                               <set attributeName="fill" to="#808080" begin="reset.mouseover" end="reset.mouseout"/>
                       </use>
               </g>
        </defs>

<script type="text/javascript">
var viewWidth = 858;
var viewHeight = 240;
var sectionId = 'dynsection-0';
</script>
<script xlink:href="../../svgpan.js"/>
<svg id="graph" class="graph">
<g id="viewport">
<title>/home/travis/build/AliceO2Group/AliceO2/Detectors/MUON/MCH/Raw/Decoder/src/DecoderLogic.h</title>
<!-- Node0 -->
<g id="node1" class="node">
<title>Node0</title>
<polygon fill="#bfbfbf" stroke="#000000" points="465,-179.5 465,-231.5 620,-231.5 620,-179.5 465,-179.5"/>
<text text-anchor="start" x="473" y="-219.5" font-family="Helvetica,sans-Serif" font-size="10.00" fill="#000000">/home/travis/build</text>
<text text-anchor="start" x="473" y="-208.5" font-family="Helvetica,sans-Serif" font-size="10.00" fill="#000000">/AliceO2Group/AliceO2</text>
<text text-anchor="start" x="473" y="-197.5" font-family="Helvetica,sans-Serif" font-size="10.00" fill="#000000">/Detectors/MUON/MCH/Raw</text>
<text text-anchor="middle" x="542.5" y="-186.5" font-family="Helvetica,sans-Serif" font-size="10.00" fill="#000000">/Decoder/src/DecoderLogic.h</text>
</g>
<!-- Node1 -->
<g id="node2" class="node">
<title>Node1</title>
<polygon fill="none" stroke="#bfbfbf" points="0,-.5 0,-19.5 47,-19.5 47,-.5 0,-.5"/>
<text text-anchor="middle" x="23.5" y="-7.5" font-family="Helvetica,sans-Serif" font-size="10.00" fill="#000000">vector</text>
</g>
<!-- Node0&#45;&gt;Node1 -->
<g id="edge1" class="edge">
<title>Node0&#45;&gt;Node1</title>
<path fill="none" stroke="#191970" d="M464.6422,-200.7218C357.4085,-193.0467 170.7824,-175.4355 111.5,-143 66.5243,-118.3922 40.5716,-59.7996 29.6533,-29.2598"/>
<polygon fill="#191970" stroke="#191970" points="32.9454,-28.0695 26.4117,-19.7291 26.3182,-30.3235 32.9454,-28.0695"/>
</g>
<!-- Node2 -->
<g id="node3" class="node">
<title>Node2</title>
<polygon fill="none" stroke="#bfbfbf" points="807.5,-118 807.5,-137 849.5,-137 849.5,-118 807.5,-118"/>
<text text-anchor="middle" x="828.5" y="-125" font-family="Helvetica,sans-Serif" font-size="10.00" fill="#000000">array</text>
</g>
<!-- Node0&#45;&gt;Node2 -->
<g id="edge2" class="edge">
<title>Node0&#45;&gt;Node2</title>
<path fill="none" stroke="#191970" d="M620.121,-189.8111C670.2314,-178.7955 736.4745,-162.5626 793.5,-143 795.3387,-142.3693 797.2141,-141.6803 799.0938,-140.9546"/>
<polygon fill="#191970" stroke="#191970" points="800.4718,-144.1723 808.379,-137.1205 797.8001,-137.7023 800.4718,-144.1723"/>
</g>
<!-- Node3 -->
<g id="node4" class="node">
<title>Node3</title>
<g id="a_node4"><a xlink:href="../../dd/d58/SampaChannelHandler_8h.html" target="_top" xlink:title="MCHRawDecoder/SampaChannel\lHandler.h">
<polygon fill="none" stroke="#000000" points="512,-112.5 512,-142.5 689,-142.5 689,-112.5 512,-112.5"/>
<text text-anchor="start" x="520" y="-130.5" font-family="Helvetica,sans-Serif" font-size="10.00" fill="#000000">MCHRawDecoder/SampaChannel</text>
<text text-anchor="middle" x="600.5" y="-119.5" font-family="Helvetica,sans-Serif" font-size="10.00" fill="#000000">Handler.h</text>
</a>
</g>
</g>
<!-- Node0&#45;&gt;Node3 -->
<g id="edge3" class="edge">
<title>Node0&#45;&gt;Node3</title>
<path fill="none" stroke="#191970" d="M562.1362,-179.0928C569.0098,-169.8489 576.6697,-159.5476 583.3264,-150.5955"/>
<polygon fill="#191970" stroke="#191970" points="586.1843,-152.6177 589.3428,-142.5046 580.5671,-148.4407 586.1843,-152.6177"/>
</g>
<!-- Node6 -->
<g id="node7" class="node">
<title>Node6</title>
<polygon fill="none" stroke="#bfbfbf" points="181,-.5 181,-19.5 230,-19.5 230,-.5 181,-.5"/>
<text text-anchor="middle" x="205.5" y="-7.5" font-family="Helvetica,sans-Serif" font-size="10.00" fill="#000000">cstdlib</text>
</g>
<!-- Node0&#45;&gt;Node6 -->
<g id="edge18" class="edge">
<title>Node0&#45;&gt;Node6</title>
<path fill="none" stroke="#191970" d="M464.5944,-196.0236C341.1361,-179.2273 109.4682,-139.8612 60.5,-76 55.0912,-68.9461 55.2502,-63.173 60.5,-56 62.2012,-53.6755 128.9625,-33.1446 171.2932,-20.3093"/>
<polygon fill="#191970" stroke="#191970" points="172.3998,-23.6312 180.9569,-17.384 170.3717,-16.9314 172.3998,-23.6312"/>
</g>
<!-- Node7 -->
<g id="node8" class="node">
<title>Node7</title>
<polygon fill="none" stroke="#bfbfbf" points="334.5,-.5 334.5,-19.5 394.5,-19.5 394.5,-.5 334.5,-.5"/>
<text text-anchor="middle" x="364.5" y="-7.5" font-family="Helvetica,sans-Serif" font-size="10.00" fill="#000000">iostream</text>
</g>
<!-- Node0&#45;&gt;Node7 -->
<g id="edge19" class="edge">
<title>Node0&#45;&gt;Node7</title>
<path fill="none" stroke="#191970" d="M524.3634,-179.3225C517.1293,-168.3503 508.9953,-155.3041 502.5,-143 482.8842,-105.8415 494.8338,-86.0842 465.5,-56 448.9698,-39.0469 425.0355,-27.7699 404.6149,-20.6262"/>
<polygon fill="#191970" stroke="#191970" points="405.5132,-17.2374 394.9204,-17.4446 403.3304,-23.8884 405.5132,-17.2374"/>
</g>
<!-- Node9 -->
<g id="node10" class="node">
<title>Node9</title>
<g id="a_node10"><a xlink:href="../../d4/d09/DsElecId_8h.html" target="_top" xlink:title="MCHRawElecMap/DsElecId.h">
<polygon fill="none" stroke="#000000" points="596,-56.5 596,-75.5 751,-75.5 751,-56.5 596,-56.5"/>
<text text-anchor="middle" x="673.5" y="-63.5" font-family="Helvetica,sans-Serif" font-size="10.00" fill="#000000">MCHRawElecMap/DsElecId.h</text>
</a>
</g>
</g>
<!-- Node0&#45;&gt;Node9 -->
<g id="edge17" class="edge">
<title>Node0&#45;&gt;Node9</title>
<path fill="none" stroke="#191970" d="M620.0317,-193.1508C649.361,-184.2951 679.8869,-169.0931 697.5,-143 709.6623,-124.982 698.2464,-100.4991 687.3771,-84.0191"/>
<polygon fill="#191970" stroke="#191970" points="690.1805,-81.9215 681.5481,-75.7788 684.4658,-85.964 690.1805,-81.9215"/>
</g>
<!-- Node12 -->
<g id="node13" class="node">
<title>Node12</title>
<polygon fill="none" stroke="#bfbfbf" points="742.5,-.5 742.5,-19.5 798.5,-19.5 798.5,-.5 742.5,-.5"/>
<text text-anchor="middle" x="770.5" y="-7.5" font-family="Helvetica,sans-Serif" font-size="10.00" fill="#000000">optional</text>
</g>
<!-- Node0&#45;&gt;Node12 -->
<g id="edge20" class="edge">
<title>Node0&#45;&gt;Node12</title>
<path fill="none" stroke="#191970" d="M620.4213,-188.3147C651.8708,-178.6786 687.1173,-164.201 714.5,-143 743.0606,-120.887 747.236,-109.597 760.5,-76 766.3516,-61.1783 768.8021,-43.2382 769.817,-29.8055"/>
<polygon fill="#191970" stroke="#191970" points="773.3155,-29.928 770.375,-19.7495 766.3263,-29.5402 773.3155,-29.928"/>
</g>
<!-- Node13 -->
<g id="node14" class="node">
<title>Node13</title>
<g id="a_node14"><a xlink:href="../../d5/d49/SampaHeader_8h.html" target="_top" xlink:title="MCHRawCommon/SampaHeader.h">
<polygon fill="none" stroke="#000000" points="272,-56.5 272,-75.5 457,-75.5 457,-56.5 272,-56.5"/>
<text text-anchor="middle" x="364.5" y="-63.5" font-family="Helvetica,sans-Serif" font-size="10.00" fill="#000000">MCHRawCommon/SampaHeader.h</text>
</a>
</g>
</g>
<!-- Node0&#45;&gt;Node13 -->
<g id="edge14" class="edge">
<title>Node0&#45;&gt;Node13</title>
<path fill="none" stroke="#191970" d="M509.0196,-179.2611C472.539,-150.671 415.3377,-105.8419 384.9965,-82.0633"/>
<polygon fill="#191970" stroke="#191970" points="386.8721,-79.0864 376.8423,-75.6727 382.5542,-84.596 386.8721,-79.0864"/>
</g>
<!-- Node4 -->
<g id="node5" class="node">
<title>Node4</title>
<polygon fill="none" stroke="#bfbfbf" points="513,-56.5 513,-75.5 578,-75.5 578,-56.5 513,-56.5"/>
<text text-anchor="middle" x="545.5" y="-63.5" font-family="Helvetica,sans-Serif" font-size="10.00" fill="#000000">functional</text>
</g>
<!-- Node3&#45;&gt;Node4 -->
<g id="edge4" class="edge">
<title>Node3&#45;&gt;Node4</title>
<path fill="none" stroke="#191970" d="M586.9045,-112.2977C579.1109,-103.5831 569.2953,-92.6075 561.1774,-83.5302"/>
<polygon fill="#191970" stroke="#191970" points="563.5813,-80.9678 554.3062,-75.8469 558.3635,-85.6341 563.5813,-80.9678"/>
</g>
<!-- Node5 -->
<g id="node6" class="node">
<title>Node5</title>
<g id="a_node6"><a xlink:href="../../d0/d5b/SampaCluster_8h.html" target="_top" xlink:title="MCHRawCommon/SampaCluster.h">
<polygon fill="none" stroke="#000000" points="69.5,-56.5 69.5,-75.5 253.5,-75.5 253.5,-56.5 69.5,-56.5"/>
<text text-anchor="middle" x="161.5" y="-63.5" font-family="Helvetica,sans-Serif" font-size="10.00" fill="#000000">MCHRawCommon/SampaCluster.h</text>
</a>
</g>
</g>
<!-- Node3&#45;&gt;Node5 -->
<g id="edge5" class="edge">
<title>Node3&#45;&gt;Node5</title>
<path fill="none" stroke="#191970" d="M511.926,-115.0916C432.106,-103.9095 315.8851,-87.628 239.5035,-76.9276"/>
<polygon fill="#191970" stroke="#191970" points="239.8521,-73.4423 229.4632,-75.521 238.8809,-80.3746 239.8521,-73.4423"/>
</g>
<!-- Node3&#45;&gt;Node9 -->
<g id="edge10" class="edge">
<title>Node3&#45;&gt;Node9</title>
<path fill="none" stroke="#191970" d="M618.5449,-112.2977C629.3114,-103.2274 642.9851,-91.7077 653.9995,-82.4285"/>
<polygon fill="#191970" stroke="#191970" points="656.4191,-84.9667 661.8118,-75.8469 651.9089,-79.6132 656.4191,-84.9667"/>
</g>
<!-- Node5&#45;&gt;Node1 -->
<g id="edge7" class="edge">
<title>Node5&#45;&gt;Node1</title>
<path fill="none" stroke="#191970" d="M137.777,-56.3733C115.3263,-47.2629 81.4261,-33.5062 56.3745,-23.3404"/>
<polygon fill="#191970" stroke="#191970" points="57.4957,-20.0182 46.9135,-19.5011 54.8635,-26.5045 57.4957,-20.0182"/>
</g>
<!-- Node5&#45;&gt;Node6 -->
<g id="edge6" class="edge">
<title>Node5&#45;&gt;Node6</title>
<path fill="none" stroke="#191970" d="M169.1642,-56.2455C175.3473,-48.3761 184.2063,-37.101 191.6289,-27.6542"/>
<polygon fill="#191970" stroke="#191970" points="194.4975,-29.6683 197.9236,-19.6427 188.9932,-25.3435 194.4975,-29.6683"/>
</g>
<!-- Node5&#45;&gt;Node7 -->
<g id="edge8" class="edge">
<title>Node5&#45;&gt;Node7</title>
<path fill="none" stroke="#191970" d="M196.3969,-56.3733C231.9382,-46.5688 286.9862,-31.3831 324.3239,-21.0831"/>
<polygon fill="#191970" stroke="#191970" points="325.6454,-24.3493 334.3546,-18.316 323.7838,-17.6014 325.6454,-24.3493"/>
</g>
<!-- Node8 -->
<g id="node9" class="node">
<title>Node8</title>
<polygon fill="none" stroke="#bfbfbf" points="84,-.5 84,-19.5 163,-19.5 163,-.5 84,-.5"/>
<text text-anchor="middle" x="123.5" y="-7.5" font-family="Helvetica,sans-Serif" font-size="10.00" fill="#000000">fmt/format.h</text>
</g>
<!-- Node5&#45;&gt;Node8 -->
<g id="edge9" class="edge">
<title>Node5&#45;&gt;Node8</title>
<path fill="none" stroke="#191970" d="M154.8809,-56.2455C149.5954,-48.4564 142.0459,-37.3308 135.6762,-27.9439"/>
<polygon fill="#191970" stroke="#191970" points="138.5545,-25.9522 130.0432,-19.6427 132.7621,-29.8827 138.5545,-25.9522"/>
</g>
<!-- Node10 -->
<g id="node11" class="node">
<title>Node10</title>
<polygon fill="none" stroke="#bfbfbf" points="657.5,-.5 657.5,-19.5 707.5,-19.5 707.5,-.5 657.5,-.5"/>
<text text-anchor="middle" x="682.5" y="-7.5" font-family="Helvetica,sans-Serif" font-size="10.00" fill="#000000">cstdint</text>
</g>
<!-- Node9&#45;&gt;Node10 -->
<g id="edge11" class="edge">
<title>Node9&#45;&gt;Node10</title>
<path fill="none" stroke="#191970" d="M675.0677,-56.2455C676.2421,-48.9382 677.8884,-38.6944 679.3332,-29.7046"/>
<polygon fill="#191970" stroke="#191970" points="682.8191,-30.0714 680.9503,-19.6427 675.9078,-28.9606 682.8191,-30.0714"/>
</g>
<!-- Node11 -->
<g id="node12" class="node">
<title>Node11</title>
<polygon fill="none" stroke="#bfbfbf" points="590,-.5 590,-19.5 639,-19.5 639,-.5 590,-.5"/>
<text text-anchor="middle" x="614.5" y="-7.5" font-family="Helvetica,sans-Serif" font-size="10.00" fill="#000000">iosfwd</text>
</g>
<!-- Node9&#45;&gt;Node11 -->
<g id="edge12" class="edge">
<title>Node9&#45;&gt;Node11</title>
<path fill="none" stroke="#191970" d="M663.223,-56.2455C654.6782,-48.1352 642.3222,-36.4075 632.1915,-26.7919"/>
<polygon fill="#191970" stroke="#191970" points="634.3218,-23.9884 624.6592,-19.6427 629.5028,-29.0655 634.3218,-23.9884"/>
</g>
<!-- Node9&#45;&gt;Node12 -->
<g id="edge13" class="edge">
<title>Node9&#45;&gt;Node12</title>
<path fill="none" stroke="#191970" d="M690.3961,-56.2455C705.418,-47.5731 727.6043,-34.7645 744.821,-24.825"/>
<polygon fill="#191970" stroke="#191970" points="746.8871,-27.6737 753.7975,-19.6427 743.3872,-21.6114 746.8871,-27.6737"/>
</g>
<!-- Node13&#45;&gt;Node6 -->
<g id="edge15" class="edge">
<title>Node13&#45;&gt;Node6</title>
<path fill="none" stroke="#191970" d="M337.1669,-56.3733C310.2417,-46.8902 269.0231,-32.3729 239.8876,-22.1114"/>
<polygon fill="#191970" stroke="#191970" points="240.724,-18.6952 230.1292,-18.6744 238.3985,-25.2977 240.724,-18.6952"/>
</g>
<!-- Node13&#45;&gt;Node7 -->
<g id="edge16" class="edge">
<title>Node13&#45;&gt;Node7</title>
<path fill="none" stroke="#191970" d="M364.5,-56.2455C364.5,-48.9382 364.5,-38.6944 364.5,-29.7046"/>
<polygon fill="#191970" stroke="#191970" points="368.0001,-29.6426 364.5,-19.6427 361.0001,-29.6427 368.0001,-29.6426"/>
</g>
</g>
</svg>
        <g id="navigator" transform="translate(0 0)" fill="#404254">
                <rect fill="#f2f5e9" fill-opacity="0.5" stroke="#606060" stroke-width=".5" x="0" y="0" width="60" height="60"/>
                <use id="zoomplus" xlink:href="#zoomPlus" x="17" y="9" onmousedown="handleZoom(evt,'in')"/>
                <use id="zoomminus" xlink:href="#zoomMin" x="42" y="9" onmousedown="handleZoom(evt,'out')"/>
                <use id="reset" xlink:href="#resetDef" x="30" y="36" onmousedown="handleReset()"/>
                <g id="arrowUp" xlink:href="#dirArrow" transform="translate(30 24)" onmousedown="handlePan(0,-1)">
                  <use xlink:href="#rim" fill="#404040">
                        <set attributeName="fill" to="#808080" begin="arrowUp.mouseover" end="arrowUp.mouseout"/>
                  </use>
                  <path fill="none" stroke="white" stroke-width="1.5" d="M0,-3.0v7 M-2.5,-0.5L0,-3.0L2.5,-0.5"/>
                </g>
                <g id="arrowRight" xlink:href="#dirArrow" transform="rotate(90) translate(36 -43)" onmousedown="handlePan(1,0)">
                  <use xlink:href="#rim" fill="#404040">
                        <set attributeName="fill" to="#808080" begin="arrowRight.mouseover" end="arrowRight.mouseout"/>
                  </use>
                  <path fill="none" stroke="white" stroke-width="1.5" d="M0,-3.0v7 M-2.5,-0.5L0,-3.0L2.5,-0.5"/>
                </g>
                <g id="arrowDown" xlink:href="#dirArrow" transform="rotate(180) translate(-30 -48)" onmousedown="handlePan(0,1)">
                  <use xlink:href="#rim" fill="#404040">
                        <set attributeName="fill" to="#808080" begin="arrowDown.mouseover" end="arrowDown.mouseout"/>
                  </use>
                  <path fill="none" stroke="white" stroke-width="1.5" d="M0,-3.0v7 M-2.5,-0.5L0,-3.0L2.5,-0.5"/>
                </g>
                <g id="arrowLeft" xlink:href="#dirArrow" transform="rotate(270) translate(-36 17)" onmousedown="handlePan(-1,0)">
                  <use xlink:href="#rim" fill="#404040">
                        <set attributeName="fill" to="#808080" begin="arrowLeft.mouseover" end="arrowLeft.mouseout"/>
                  </use>
                  <path fill="none" stroke="white" stroke-width="1.5" d="M0,-3.0v7 M-2.5,-0.5L0,-3.0L2.5,-0.5"/>
                </g>
        </g>
        <svg viewBox="0 0 15 15" width="100%" height="30px" preserveAspectRatio="xMaxYMin meet">
         <g id="arrow_out" transform="scale(0.3 0.3)">
          <a xlink:href="DecoderLogic_8h__incl_org.svg" target="_base">
           <rect id="button" ry="5" rx="5" y="6" x="6" height="38" width="38"
                fill="#f2f5e9" fill-opacity="0.5" stroke="#606060" stroke-width="1.0"/>
           <path id="arrow"
             d="M 11.500037,31.436501 C 11.940474,20.09759 22.043105,11.32322 32.158766,21.979434 L 37.068811,17.246167 C 37.068811,17.246167 37.088388,32 37.088388,32 L 22.160133,31.978069 C 22.160133,31.978069 26.997745,27.140456 26.997745,27.140456 C 18.528582,18.264221 13.291696,25.230495 11.500037,31.436501 z"
             style="fill:#404040;"/>
          </a>
         </g>
        </svg>
</svg>
