<?xml version="1.0" encoding="UTF-8" standalone="no"?>
<!DOCTYPE svg PUBLIC "-//W3C//DTD SVG 1.1//EN"
 "http://www.w3.org/Graphics/SVG/1.1/DTD/svg11.dtd">
<!-- Generated by graphviz version 2.40.1 (20161225.0304)
 -->
<!-- Title: o2::data::PrimaryChunk Pages: 1 -->
<svg width="655pt" height="612pt"
 viewBox="0.00 0.00 655.00 612.00" xmlns="http://www.w3.org/2000/svg" xmlns:xlink="http://www.w3.org/1999/xlink">
<g id="graph0" class="graph" transform="scale(1 1) rotate(0) translate(4 608)">
<title>o2::data::PrimaryChunk</title>
<!-- Node1 -->
<g id="node1" class="node">
<title>Node1</title>
<polygon fill="#bfbfbf" stroke="#000000" points="246.5,-.5 246.5,-57.5 377.5,-57.5 377.5,-.5 246.5,-.5"/>
<text text-anchor="middle" x="312" y="-45.5" font-family="Helvetica,sans-Serif" font-size="10.00" fill="#000000">o2::data::PrimaryChunk</text>
<polyline fill="none" stroke="#000000" points="246.5,-38.5 377.5,-38.5 "/>
<text text-anchor="middle" x="312" y="-26.5" font-family="Helvetica,sans-Serif" font-size="10.00" fill="#000000"> </text>
<polyline fill="none" stroke="#000000" points="246.5,-19.5 377.5,-19.5 "/>
<text text-anchor="start" x="254.5" y="-7.5" font-family="Helvetica,sans-Serif" font-size="10.00" fill="#000000">+ ClassDefNV()</text>
</g>
<!-- Node2 -->
<g id="node2" class="node">
<title>Node2</title>
<polygon fill="none" stroke="#bfbfbf" points="213,-105.5 213,-162.5 325,-162.5 325,-105.5 213,-105.5"/>
<text text-anchor="middle" x="269" y="-150.5" font-family="Helvetica,sans-Serif" font-size="10.00" fill="#000000">vector&lt; TParticle &gt;</text>
<polyline fill="none" stroke="#bfbfbf" points="213,-143.5 325,-143.5 "/>
<text text-anchor="middle" x="269" y="-131.5" font-family="Helvetica,sans-Serif" font-size="10.00" fill="#000000"> </text>
<polyline fill="none" stroke="#bfbfbf" points="213,-124.5 325,-124.5 "/>
<text text-anchor="middle" x="269" y="-112.5" font-family="Helvetica,sans-Serif" font-size="10.00" fill="#000000"> </text>
</g>
<!-- Node2&#45;&gt;Node1 -->
<g id="edge1" class="edge">
<title>Node2&#45;&gt;Node1</title>
<path fill="none" stroke="#404040" d="M280.7499,-105.3083C285.3479,-94.0808 290.7006,-81.0103 295.6632,-68.8922"/>
<polygon fill="none" stroke="#404040" points="295.7165,-68.7619 294.2888,-61.6935 300.2643,-57.657 301.692,-64.7254 295.7165,-68.7619"/>
<text text-anchor="middle" x="322.5" y="-79" font-family="Helvetica,sans-Serif" font-size="10.00" fill="#000000"> +mParticles</text>
</g>
<!-- Node3 -->
<g id="node3" class="node">
<title>Node3</title>
<g id="a_node3"><a xlink:href="../../d5/dbc/structo2_1_1data_1_1SubEventInfo.html" target="_top" xlink:title="{o2::data::SubEventInfo\n||+ ClassDefNV()\l}">
<polygon fill="none" stroke="#000000" points="343.5,-105.5 343.5,-162.5 470.5,-162.5 470.5,-105.5 343.5,-105.5"/>
<text text-anchor="middle" x="407" y="-150.5" font-family="Helvetica,sans-Serif" font-size="10.00" fill="#000000">o2::data::SubEventInfo</text>
<polyline fill="none" stroke="#000000" points="343.5,-143.5 470.5,-143.5 "/>
<text text-anchor="middle" x="407" y="-131.5" font-family="Helvetica,sans-Serif" font-size="10.00" fill="#000000"> </text>
<polyline fill="none" stroke="#000000" points="343.5,-124.5 470.5,-124.5 "/>
<text text-anchor="start" x="351.5" y="-112.5" font-family="Helvetica,sans-Serif" font-size="10.00" fill="#000000">+ ClassDefNV()</text>
</a>
</g>
</g>
<!-- Node3&#45;&gt;Node1 -->
<g id="edge2" class="edge">
<title>Node3&#45;&gt;Node1</title>
<path fill="none" stroke="#404040" d="M383.4821,-105.3221C375.5341,-95.8581 366.5147,-85.3615 358,-76 355.1479,-72.8643 352.1557,-69.6496 349.1238,-66.4448"/>
<polygon fill="none" stroke="#404040" points="348.8642,-66.1741 341.8242,-64.6121 340.5583,-57.513 347.5983,-59.0749 348.8642,-66.1741"/>
<text text-anchor="middle" x="410" y="-79" font-family="Helvetica,sans-Serif" font-size="10.00" fill="#000000"> +mSubEventInfo</text>
</g>
<!-- Node4 -->
<g id="node4" class="node">
<title>Node4</title>
<g id="a_node4"><a xlink:href="../../d4/db1/classo2_1_1dataformats_1_1MCEventHeader.html" target="_top" xlink:title="{o2::dataformats::MCEvent\lHeader\n||+ MCEventHeader()\l+ MCEventHeader()\l+ operator=()\l+ ~MCEventHeader()\l+ setEmbeddingFileName()\l+ setEmbeddingEventIndex()\l+ getEmbeddedIndex()\l+ Reset()\l+ getMCEventStats()\l# ClassDefOverride()\l}">
<polygon fill="none" stroke="#000000" points="137,-232.5 137,-399.5 297,-399.5 297,-232.5 137,-232.5"/>
<text text-anchor="start" x="145" y="-387.5" font-family="Helvetica,sans-Serif" font-size="10.00" fill="#000000">o2::dataformats::MCEvent</text>
<text text-anchor="middle" x="217" y="-376.5" font-family="Helvetica,sans-Serif" font-size="10.00" fill="#000000">Header</text>
<polyline fill="none" stroke="#000000" points="137,-369.5 297,-369.5 "/>
<text text-anchor="middle" x="217" y="-357.5" font-family="Helvetica,sans-Serif" font-size="10.00" fill="#000000"> </text>
<polyline fill="none" stroke="#000000" points="137,-350.5 297,-350.5 "/>
<text text-anchor="start" x="145" y="-338.5" font-family="Helvetica,sans-Serif" font-size="10.00" fill="#000000">+ MCEventHeader()</text>
<text text-anchor="start" x="145" y="-327.5" font-family="Helvetica,sans-Serif" font-size="10.00" fill="#000000">+ MCEventHeader()</text>
<text text-anchor="start" x="145" y="-316.5" font-family="Helvetica,sans-Serif" font-size="10.00" fill="#000000">+ operator=()</text>
<text text-anchor="start" x="145" y="-305.5" font-family="Helvetica,sans-Serif" font-size="10.00" fill="#000000">+ ~MCEventHeader()</text>
<text text-anchor="start" x="145" y="-294.5" font-family="Helvetica,sans-Serif" font-size="10.00" fill="#000000">+ setEmbeddingFileName()</text>
<text text-anchor="start" x="145" y="-283.5" font-family="Helvetica,sans-Serif" font-size="10.00" fill="#000000">+ setEmbeddingEventIndex()</text>
<text text-anchor="start" x="145" y="-272.5" font-family="Helvetica,sans-Serif" font-size="10.00" fill="#000000">+ getEmbeddedIndex()</text>
<text text-anchor="start" x="145" y="-261.5" font-family="Helvetica,sans-Serif" font-size="10.00" fill="#000000">+ Reset()</text>
<text text-anchor="start" x="145" y="-250.5" font-family="Helvetica,sans-Serif" font-size="10.00" fill="#000000">+ getMCEventStats()</text>
<text text-anchor="start" x="145" y="-239.5" font-family="Helvetica,sans-Serif" font-size="10.00" fill="#000000"># ClassDefOverride()</text>
</a>
</g>
</g>
<!-- Node4&#45;&gt;Node3 -->
<g id="edge3" class="edge">
<title>Node4&#45;&gt;Node3</title>
<path fill="none" stroke="#404040" d="M220.387,-232.4805C224.9589,-213.4067 233.0627,-194.7346 247,-181 272.5975,-155.7748 292.3357,-170.9436 331.0766,-163.1447"/>
<polygon fill="none" stroke="#404040" points="331.4936,-163.0395 336.3322,-157.6928 343.1287,-160.1028 338.29,-165.4496 331.4936,-163.0395"/>
<text text-anchor="middle" x="297" y="-195" font-family="Helvetica,sans-Serif" font-size="10.00" fill="#000000"> +mMCEventHeader</text>
</g>
<!-- Node5 -->
<g id="node5" class="node">
<title>Node5</title>
<g id="a_node5"><a xlink:href="../../dd/d8f/classFairMCEventHeader.html" target="_top" xlink:title="{FairMCEventHeader\n||}">
<polygon fill="none" stroke="#000000" points="0,-497 0,-554 112,-554 112,-497 0,-497"/>
<text text-anchor="middle" x="56" y="-542" font-family="Helvetica,sans-Serif" font-size="10.00" fill="#000000">FairMCEventHeader</text>
<polyline fill="none" stroke="#000000" points="0,-535 112,-535 "/>
<text text-anchor="middle" x="56" y="-523" font-family="Helvetica,sans-Serif" font-size="10.00" fill="#000000"> </text>
<polyline fill="none" stroke="#000000" points="0,-516 112,-516 "/>
<text text-anchor="middle" x="56" y="-504" font-family="Helvetica,sans-Serif" font-size="10.00" fill="#000000"> </text>
</a>
</g>
</g>
<!-- Node5&#45;&gt;Node4 -->
<g id="edge4" class="edge">
<title>Node5&#45;&gt;Node4</title>
<path fill="none" stroke="#191970" d="M84.1857,-488.8236C103.086,-464.2297 128.7732,-430.8045 152.5215,-399.9021"/>
<polygon fill="none" stroke="#191970" points="81.3671,-486.7474 78.0488,-496.8092 86.9174,-491.0128 81.3671,-486.7474"/>
</g>
<!-- Node6 -->
<g id="node6" class="node">
<title>Node6</title>
<polygon fill="none" stroke="#bfbfbf" points="130.5,-497 130.5,-554 159.5,-554 159.5,-497 130.5,-497"/>
<text text-anchor="middle" x="145" y="-542" font-family="Helvetica,sans-Serif" font-size="10.00" fill="#000000">int</text>
<polyline fill="none" stroke="#bfbfbf" points="130.5,-535 159.5,-535 "/>
<text text-anchor="middle" x="145" y="-523" font-family="Helvetica,sans-Serif" font-size="10.00" fill="#000000"> </text>
<polyline fill="none" stroke="#bfbfbf" points="130.5,-516 159.5,-516 "/>
<text text-anchor="middle" x="145" y="-504" font-family="Helvetica,sans-Serif" font-size="10.00" fill="#000000"> </text>
</g>
<!-- Node6&#45;&gt;Node4 -->
<g id="edge5" class="edge">
<title>Node6&#45;&gt;Node4</title>
<path fill="none" stroke="#404040" d="M140.7636,-496.9373C138.5491,-474.8469 137.7779,-443.7836 146,-418 146.7682,-415.5911 147.6148,-413.189 148.5311,-410.7981"/>
<polygon fill="none" stroke="#404040" points="148.5588,-410.7335 147.2513,-403.6419 153.2945,-399.7075 154.602,-406.7991 148.5588,-410.7335"/>
<text text-anchor="middle" x="207" y="-421" font-family="Helvetica,sans-Serif" font-size="10.00" fill="#000000"> #mEmbeddingFileName</text>
</g>
<!-- Node7 -->
<g id="node7" class="node">
<title>Node7</title>
<polygon fill="none" stroke="#bfbfbf" points="271,-497 271,-554 309,-554 309,-497 271,-497"/>
<text text-anchor="middle" x="290" y="-542" font-family="Helvetica,sans-Serif" font-size="10.00" fill="#000000">Int_t</text>
<polyline fill="none" stroke="#bfbfbf" points="271,-535 309,-535 "/>
<text text-anchor="middle" x="290" y="-523" font-family="Helvetica,sans-Serif" font-size="10.00" fill="#000000"> </text>
<polyline fill="none" stroke="#bfbfbf" points="271,-516 309,-516 "/>
<text text-anchor="middle" x="290" y="-504" font-family="Helvetica,sans-Serif" font-size="10.00" fill="#000000"> </text>
</g>
<!-- Node7&#45;&gt;Node4 -->
<g id="edge6" class="edge">
<title>Node7&#45;&gt;Node4</title>
<path fill="none" stroke="#404040" d="M286.1971,-496.6636C282.8015,-474.7 276.9606,-443.9273 268,-418 267.179,-415.6244 266.314,-413.2336 265.4113,-410.8348"/>
<polygon fill="none" stroke="#404040" points="265.3699,-410.7304 259.4362,-406.6326 260.9367,-399.5793 266.8703,-403.6771 265.3699,-410.7304"/>
<text text-anchor="middle" x="336.5" y="-421" font-family="Helvetica,sans-Serif" font-size="10.00" fill="#000000"> #mEmbeddingEventIndex</text>
</g>
<!-- Node8 -->
<g id="node8" class="node">
<title>Node8</title>
<g id="a_node8"><a xlink:href="../../d9/ddb/classo2_1_1dataformats_1_1MCEventStats.html" target="_top" xlink:title="{o2::dataformats::MCEvent\lStats\n||+ setNHits()\l+ getNHits()\l+ setNTransportedTracks()\l+ getNTransportedTracks()\l+ setNKeptTracks()\l+ getNKeptTracks()\l+ setNSteps()\l+ getNSteps()\l+ add()\l}">
<polygon fill="none" stroke="#000000" points="371,-447.5 371,-603.5 517,-603.5 517,-447.5 371,-447.5"/>
<text text-anchor="start" x="379" y="-591.5" font-family="Helvetica,sans-Serif" font-size="10.00" fill="#000000">o2::dataformats::MCEvent</text>
<text text-anchor="middle" x="444" y="-580.5" font-family="Helvetica,sans-Serif" font-size="10.00" fill="#000000">Stats</text>
<polyline fill="none" stroke="#000000" points="371,-573.5 517,-573.5 "/>
<text text-anchor="middle" x="444" y="-561.5" font-family="Helvetica,sans-Serif" font-size="10.00" fill="#000000"> </text>
<polyline fill="none" stroke="#000000" points="371,-554.5 517,-554.5 "/>
<text text-anchor="start" x="379" y="-542.5" font-family="Helvetica,sans-Serif" font-size="10.00" fill="#000000">+ setNHits()</text>
<text text-anchor="start" x="379" y="-531.5" font-family="Helvetica,sans-Serif" font-size="10.00" fill="#000000">+ getNHits()</text>
<text text-anchor="start" x="379" y="-520.5" font-family="Helvetica,sans-Serif" font-size="10.00" fill="#000000">+ setNTransportedTracks()</text>
<text text-anchor="start" x="379" y="-509.5" font-family="Helvetica,sans-Serif" font-size="10.00" fill="#000000">+ getNTransportedTracks()</text>
<text text-anchor="start" x="379" y="-498.5" font-family="Helvetica,sans-Serif" font-size="10.00" fill="#000000">+ setNKeptTracks()</text>
<text text-anchor="start" x="379" y="-487.5" font-family="Helvetica,sans-Serif" font-size="10.00" fill="#000000">+ getNKeptTracks()</text>
<text text-anchor="start" x="379" y="-476.5" font-family="Helvetica,sans-Serif" font-size="10.00" fill="#000000">+ setNSteps()</text>
<text text-anchor="start" x="379" y="-465.5" font-family="Helvetica,sans-Serif" font-size="10.00" fill="#000000">+ getNSteps()</text>
<text text-anchor="start" x="379" y="-454.5" font-family="Helvetica,sans-Serif" font-size="10.00" fill="#000000">+ add()</text>
</a>
</g>
</g>
<!-- Node8&#45;&gt;Node4 -->
<g id="edge7" class="edge">
<title>Node8&#45;&gt;Node4</title>
<path fill="none" stroke="#404040" d="M427.5878,-447.286C422.2871,-436.1855 415.2753,-425.885 406,-418 374.2816,-391.036 350.3223,-415.778 308.3506,-400.0988"/>
<polygon fill="none" stroke="#404040" points="308.245,-400.052 301.1384,-401.2751 297.276,-395.1855 304.3826,-393.9624 308.245,-400.052"/>
<text text-anchor="middle" x="453" y="-421" font-family="Helvetica,sans-Serif" font-size="10.00" fill="#000000"> #mEventStats</text>
</g>
<!-- Node9 -->
<g id="node9" class="node">
<title>Node9</title>
<polygon fill="none" stroke="#bfbfbf" points="315,-287.5 315,-344.5 371,-344.5 371,-287.5 315,-287.5"/>
<text text-anchor="middle" x="343" y="-332.5" font-family="Helvetica,sans-Serif" font-size="10.00" fill="#000000">uint16_t</text>
<polyline fill="none" stroke="#bfbfbf" points="315,-325.5 371,-325.5 "/>
<text text-anchor="middle" x="343" y="-313.5" font-family="Helvetica,sans-Serif" font-size="10.00" fill="#000000"> </text>
<polyline fill="none" stroke="#bfbfbf" points="315,-306.5 371,-306.5 "/>
<text text-anchor="middle" x="343" y="-294.5" font-family="Helvetica,sans-Serif" font-size="10.00" fill="#000000"> </text>
</g>
<!-- Node9&#45;&gt;Node3 -->
<g id="edge8" class="edge">
<title>Node9&#45;&gt;Node3</title>
<path fill="none" stroke="#404040" d="M342.3795,-287.4214C342.8499,-259.0627 346.5704,-215.0326 363,-181 364.4312,-178.0353 366.1156,-175.1307 367.9758,-172.3115"/>
<polygon fill="none" stroke="#404040" points="368.1275,-172.11 368.5399,-164.9107 375.3441,-162.5224 374.9316,-169.7217 368.1275,-172.11"/>
<text text-anchor="middle" x="383" y="-200.5" font-family="Helvetica,sans-Serif" font-size="10.00" fill="#000000"> +part</text>
<text text-anchor="middle" x="383" y="-189.5" font-family="Helvetica,sans-Serif" font-size="10.00" fill="#000000">+nparts</text>
</g>
<!-- Node10 -->
<g id="node10" class="node">
<title>Node10</title>
<g id="a_node10"><a xlink:href="../../d4/dc3/classfloat.html" target="_top" xlink:title="{float\n||}">
<polygon fill="none" stroke="#000000" points="389,-287.5 389,-344.5 427,-344.5 427,-287.5 389,-287.5"/>
<text text-anchor="middle" x="408" y="-332.5" font-family="Helvetica,sans-Serif" font-size="10.00" fill="#000000">float</text>
<polyline fill="none" stroke="#000000" points="389,-325.5 427,-325.5 "/>
<text text-anchor="middle" x="408" y="-313.5" font-family="Helvetica,sans-Serif" font-size="10.00" fill="#000000"> </text>
<polyline fill="none" stroke="#000000" points="389,-306.5 427,-306.5 "/>
<text text-anchor="middle" x="408" y="-294.5" font-family="Helvetica,sans-Serif" font-size="10.00" fill="#000000"> </text>
</a>
</g>
</g>
<!-- Node10&#45;&gt;Node3 -->
<g id="edge9" class="edge">
<title>Node10&#45;&gt;Node3</title>
<path fill="none" stroke="#404040" d="M407.8415,-287.1616C407.6755,-256.943 407.4132,-209.2065 407.2256,-175.0602"/>
<polygon fill="none" stroke="#404040" points="407.2237,-174.7033 403.1908,-168.7254 407.1577,-162.7035 411.1907,-168.6814 407.2237,-174.7033"/>
<text text-anchor="middle" x="438" y="-195" font-family="Helvetica,sans-Serif" font-size="10.00" fill="#000000"> +eventtime</text>
</g>
<!-- Node11 -->
<g id="node11" class="node">
<title>Node11</title>
<polygon fill="none" stroke="#bfbfbf" points="467,-287.5 467,-344.5 517,-344.5 517,-287.5 467,-287.5"/>
<text text-anchor="middle" x="492" y="-332.5" font-family="Helvetica,sans-Serif" font-size="10.00" fill="#000000">int32_t</text>
<polyline fill="none" stroke="#bfbfbf" points="467,-325.5 517,-325.5 "/>
<text text-anchor="middle" x="492" y="-313.5" font-family="Helvetica,sans-Serif" font-size="10.00" fill="#000000"> </text>
<polyline fill="none" stroke="#bfbfbf" points="467,-306.5 517,-306.5 "/>
<text text-anchor="middle" x="492" y="-294.5" font-family="Helvetica,sans-Serif" font-size="10.00" fill="#000000"> </text>
</g>
<!-- Node11&#45;&gt;Node3 -->
<g id="edge10" class="edge">
<title>Node11&#45;&gt;Node3</title>
<path fill="none" stroke="#404040" d="M493.3579,-287.2567C493.4062,-258.3708 489.7812,-213.5782 470,-181 467.9461,-177.6174 465.5491,-174.3981 462.9131,-171.3484"/>
<polygon fill="none" stroke="#404040" points="462.8214,-171.2555 455.7598,-169.7949 454.392,-162.7147 461.4537,-164.1753 462.8214,-171.2555"/>
<text text-anchor="middle" x="530" y="-206" font-family="Helvetica,sans-Serif" font-size="10.00" fill="#000000"> +runID</text>
<text text-anchor="middle" x="530" y="-195" font-family="Helvetica,sans-Serif" font-size="10.00" fill="#000000">+maxEvents</text>
<text text-anchor="middle" x="530" y="-184" font-family="Helvetica,sans-Serif" font-size="10.00" fill="#000000">+npersistenttracks</text>
</g>
<!-- Node12 -->
<g id="node12" class="node">
<title>Node12</title>
<g id="a_node12"><a xlink:href="../../d3/d87/classuint32__t.html" target="_top" xlink:title="{uint32_t\n||}">
<polygon fill="none" stroke="#000000" points="581,-287.5 581,-344.5 637,-344.5 637,-287.5 581,-287.5"/>
<text text-anchor="middle" x="609" y="-332.5" font-family="Helvetica,sans-Serif" font-size="10.00" fill="#000000">uint32_t</text>
<polyline fill="none" stroke="#000000" points="581,-325.5 637,-325.5 "/>
<text text-anchor="middle" x="609" y="-313.5" font-family="Helvetica,sans-Serif" font-size="10.00" fill="#000000"> </text>
<polyline fill="none" stroke="#000000" points="581,-306.5 637,-306.5 "/>
<text text-anchor="middle" x="609" y="-294.5" font-family="Helvetica,sans-Serif" font-size="10.00" fill="#000000"> </text>
</a>
</g>
</g>
<!-- Node12&#45;&gt;Node3 -->
<g id="edge11" class="edge">
<title>Node12&#45;&gt;Node3</title>
<path fill="none" stroke="#404040" d="M611.1817,-287.2947C611.8418,-256.9378 607.9226,-209.5687 581,-181 567.1321,-166.2842 522.9183,-154.4479 482.5336,-146.3343"/>
<polygon fill="none" stroke="#404040" points="482.4991,-146.3277 475.8469,-149.1111 470.719,-144.0412 477.3712,-141.2577 482.4991,-146.3277"/>
<text text-anchor="middle" x="623.5" y="-206" font-family="Helvetica,sans-Serif" font-size="10.00" fill="#000000"> +index</text>
<text text-anchor="middle" x="623.5" y="-195" font-family="Helvetica,sans-Serif" font-size="10.00" fill="#000000">+eventID</text>
<text text-anchor="middle" x="623.5" y="-184" font-family="Helvetica,sans-Serif" font-size="10.00" fill="#000000">+seed</text>
</g>
</g>
</svg>
