<?xml version="1.0" encoding="UTF-8" standalone="no"?>
<!DOCTYPE svg PUBLIC "-//W3C//DTD SVG 1.1//EN"
 "http://www.w3.org/Graphics/SVG/1.1/DTD/svg11.dtd">
<!-- Generated by graphviz version 2.40.1 (20161225.0304)
 -->
<!-- Title: o2::soa::CombinationsBlockFullIndexPolicy&lt; T, Ts &gt; Pages: 1 -->
<svg width="1002pt" height="840pt"
 viewBox="0.00 0.00 1002.00 840.00" xmlns="http://www.w3.org/2000/svg" xmlns:xlink="http://www.w3.org/1999/xlink">
<g id="graph0" class="graph" transform="scale(1 1) rotate(0) translate(4 836)">
<title>o2::soa::CombinationsBlockFullIndexPolicy&lt; T, Ts &gt;</title>
<!-- Node5 -->
<g id="node1" class="node">
<title>Node5</title>
<polygon fill="#bfbfbf" stroke="#000000" points="0,-.5 0,-101.5 166,-101.5 166,-.5 0,-.5"/>
<text text-anchor="start" x="8" y="-89.5" font-family="Helvetica,sans-Serif" font-size="10.00" fill="#000000">o2::soa::CombinationsBlock</text>
<text text-anchor="middle" x="83" y="-78.5" font-family="Helvetica,sans-Serif" font-size="10.00" fill="#000000">FullIndexPolicy&lt; T, Ts &gt;</text>
<polyline fill="none" stroke="#000000" points="0,-71.5 166,-71.5 "/>
<text text-anchor="middle" x="83" y="-59.5" font-family="Helvetica,sans-Serif" font-size="10.00" fill="#000000"> </text>
<polyline fill="none" stroke="#000000" points="0,-52.5 166,-52.5 "/>
<text text-anchor="start" x="8" y="-40.5" font-family="Helvetica,sans-Serif" font-size="10.00" fill="#000000">+ CombinationsBlockFullIndex</text>
<text text-anchor="start" x="8" y="-29.5" font-family="Helvetica,sans-Serif" font-size="10.00" fill="#000000">Policy()</text>
<text text-anchor="start" x="8" y="-18.5" font-family="Helvetica,sans-Serif" font-size="10.00" fill="#000000">+ setRanges()</text>
<text text-anchor="start" x="8" y="-7.5" font-family="Helvetica,sans-Serif" font-size="10.00" fill="#000000">+ addOne()</text>
</g>
<!-- Node6 -->
<g id="node2" class="node">
<title>Node6</title>
<g id="a_node2"><a xlink:href="../../d0/d11/structo2_1_1soa_1_1CombinationsBlockIndexPolicyBase.html" target="_top" xlink:title="{o2::soa::CombinationsBlock\lIndexPolicyBase\&lt; T, Ts... \&gt;\n||+ CombinationsBlockIndexPolicyBase()\l}">
<polygon fill="none" stroke="#000000" points="373,-139.5 373,-207.5 583,-207.5 583,-139.5 373,-139.5"/>
<text text-anchor="start" x="381" y="-195.5" font-family="Helvetica,sans-Serif" font-size="10.00" fill="#000000">o2::soa::CombinationsBlock</text>
<text text-anchor="middle" x="478" y="-184.5" font-family="Helvetica,sans-Serif" font-size="10.00" fill="#000000">IndexPolicyBase&lt; T, Ts... &gt;</text>
<polyline fill="none" stroke="#000000" points="373,-177.5 583,-177.5 "/>
<text text-anchor="middle" x="478" y="-165.5" font-family="Helvetica,sans-Serif" font-size="10.00" fill="#000000"> </text>
<polyline fill="none" stroke="#000000" points="373,-158.5 583,-158.5 "/>
<text text-anchor="start" x="381" y="-146.5" font-family="Helvetica,sans-Serif" font-size="10.00" fill="#000000">+ CombinationsBlockIndexPolicyBase()</text>
</a>
</g>
</g>
<!-- Node6&#45;&gt;Node5 -->
<g id="edge1" class="edge">
<title>Node6&#45;&gt;Node5</title>
<path fill="none" stroke="#191970" d="M363.3332,-137.9388C300.3135,-118.3947 223.5519,-94.5889 166.2975,-76.8328"/>
<polygon fill="none" stroke="#191970" points="362.3373,-141.2943 372.9253,-140.9135 364.4108,-134.6085 362.3373,-141.2943"/>
</g>
<!-- Node7 -->
<g id="node3" class="node">
<title>Node7</title>
<g id="a_node3"><a xlink:href="../../de/dac/structo2_1_1soa_1_1CombinationsIndexPolicyBase.html" target="_top" xlink:title="{o2::soa::CombinationsIndex\lPolicyBase\&lt; Ts... \&gt;\n||+ CombinationsIndexPolicyBase()\l+ moveToEnd()\l+ addOne()\l}">
<polygon fill="none" stroke="#000000" points="747.5,-371.5 747.5,-461.5 930.5,-461.5 930.5,-371.5 747.5,-371.5"/>
<text text-anchor="start" x="755.5" y="-449.5" font-family="Helvetica,sans-Serif" font-size="10.00" fill="#000000">o2::soa::CombinationsIndex</text>
<text text-anchor="middle" x="839" y="-438.5" font-family="Helvetica,sans-Serif" font-size="10.00" fill="#000000">PolicyBase&lt; Ts... &gt;</text>
<polyline fill="none" stroke="#000000" points="747.5,-431.5 930.5,-431.5 "/>
<text text-anchor="middle" x="839" y="-419.5" font-family="Helvetica,sans-Serif" font-size="10.00" fill="#000000"> </text>
<polyline fill="none" stroke="#000000" points="747.5,-412.5 930.5,-412.5 "/>
<text text-anchor="start" x="755.5" y="-400.5" font-family="Helvetica,sans-Serif" font-size="10.00" fill="#000000">+ CombinationsIndexPolicyBase()</text>
<text text-anchor="start" x="755.5" y="-389.5" font-family="Helvetica,sans-Serif" font-size="10.00" fill="#000000">+ moveToEnd()</text>
<text text-anchor="start" x="755.5" y="-378.5" font-family="Helvetica,sans-Serif" font-size="10.00" fill="#000000">+ addOne()</text>
</a>
</g>
</g>
<!-- Node7&#45;&gt;Node6 -->
<g id="edge2" class="edge">
<title>Node7&#45;&gt;Node6</title>
<path fill="none" stroke="#191970" d="M809.4385,-362.5491C782.9369,-319.2226 740.0954,-260.1615 687,-226 656.0882,-206.1114 618.1192,-193.7559 583.063,-186.0807"/>
<polygon fill="none" stroke="#191970" points="806.528,-364.5007 814.6812,-371.2665 812.5267,-360.893 806.528,-364.5007"/>
</g>
<!-- Node15 -->
<g id="node11" class="node">
<title>Node15</title>
<g id="a_node11"><a xlink:href="../../d0/d11/structo2_1_1soa_1_1CombinationsBlockIndexPolicyBase.html" target="_top" xlink:title="{o2::soa::CombinationsBlock\lIndexPolicyBase\&lt; T, Ts \&gt;\n||+ CombinationsBlockIndexPolicyBase()\l}">
<polygon fill="none" stroke="#000000" points="302,-255.5 302,-323.5 512,-323.5 512,-255.5 302,-255.5"/>
<text text-anchor="start" x="310" y="-311.5" font-family="Helvetica,sans-Serif" font-size="10.00" fill="#000000">o2::soa::CombinationsBlock</text>
<text text-anchor="middle" x="407" y="-300.5" font-family="Helvetica,sans-Serif" font-size="10.00" fill="#000000">IndexPolicyBase&lt; T, Ts &gt;</text>
<polyline fill="none" stroke="#000000" points="302,-293.5 512,-293.5 "/>
<text text-anchor="middle" x="407" y="-281.5" font-family="Helvetica,sans-Serif" font-size="10.00" fill="#000000"> </text>
<polyline fill="none" stroke="#000000" points="302,-274.5 512,-274.5 "/>
<text text-anchor="start" x="310" y="-262.5" font-family="Helvetica,sans-Serif" font-size="10.00" fill="#000000">+ CombinationsBlockIndexPolicyBase()</text>
</a>
</g>
</g>
<!-- Node7&#45;&gt;Node15 -->
<g id="edge15" class="edge">
<title>Node7&#45;&gt;Node15</title>
<path fill="none" stroke="#191970" d="M737.9363,-372.6415C736.2829,-372.0799 734.6367,-371.5322 733,-371 643.2817,-341.8284 617.3449,-347.5894 526,-324 521.418,-322.8167 516.7447,-321.582 512.0297,-320.3135"/>
<polygon fill="none" stroke="#191970" points="736.8706,-375.9769 747.4655,-375.9985 739.1966,-369.3746 736.8706,-375.9769"/>
</g>
<!-- Node8 -->
<g id="node4" class="node">
<title>Node8</title>
<polygon fill="none" stroke="#bfbfbf" points="753.5,-647.5 753.5,-715.5 868.5,-715.5 868.5,-647.5 753.5,-647.5"/>
<text text-anchor="start" x="761.5" y="-703.5" font-family="Helvetica,sans-Serif" font-size="10.00" fill="#000000">tuple&lt; typename Ts</text>
<text text-anchor="middle" x="811" y="-692.5" font-family="Helvetica,sans-Serif" font-size="10.00" fill="#000000">::iterator... &gt;</text>
<polyline fill="none" stroke="#bfbfbf" points="753.5,-685.5 868.5,-685.5 "/>
<text text-anchor="middle" x="811" y="-673.5" font-family="Helvetica,sans-Serif" font-size="10.00" fill="#000000"> </text>
<polyline fill="none" stroke="#bfbfbf" points="753.5,-666.5 868.5,-666.5 "/>
<text text-anchor="middle" x="811" y="-654.5" font-family="Helvetica,sans-Serif" font-size="10.00" fill="#000000"> </text>
</g>
<!-- Node8&#45;&gt;Node7 -->
<g id="edge3" class="edge">
<title>Node8&#45;&gt;Node7</title>
<path fill="none" stroke="#404040" d="M838.0173,-647.4959C842.042,-641.5358 845.8798,-635.2393 849,-629 855.0362,-616.9299 855.9771,-613.3428 858,-600 864.0623,-560.0125 862.0898,-549.2371 858,-509 856.8311,-497.5 854.8648,-485.3179 852.629,-473.7018"/>
<polygon fill="none" stroke="#404040" points="852.6113,-473.614 847.4975,-468.5298 850.2237,-461.8539 855.3375,-466.9381 852.6113,-473.614"/>
<text text-anchor="middle" x="890" y="-552" font-family="Helvetica,sans-Serif" font-size="10.00" fill="#000000"> +mCurrent</text>
</g>
<!-- Node12 -->
<g id="node8" class="node">
<title>Node12</title>
<g id="a_node8"><a xlink:href="../../de/dac/structo2_1_1soa_1_1CombinationsIndexPolicyBase.html" target="_top" xlink:title="{o2::soa::CombinationsIndex\lPolicyBase\&lt; Ts \&gt;\n||+ CombinationsIndexPolicyBase()\l+ moveToEnd()\l+ addOne()\l}">
<polygon fill="none" stroke="#000000" points="665.5,-509.5 665.5,-599.5 848.5,-599.5 848.5,-509.5 665.5,-509.5"/>
<text text-anchor="start" x="673.5" y="-587.5" font-family="Helvetica,sans-Serif" font-size="10.00" fill="#000000">o2::soa::CombinationsIndex</text>
<text text-anchor="middle" x="757" y="-576.5" font-family="Helvetica,sans-Serif" font-size="10.00" fill="#000000">PolicyBase&lt; Ts &gt;</text>
<polyline fill="none" stroke="#000000" points="665.5,-569.5 848.5,-569.5 "/>
<text text-anchor="middle" x="757" y="-557.5" font-family="Helvetica,sans-Serif" font-size="10.00" fill="#000000"> </text>
<polyline fill="none" stroke="#000000" points="665.5,-550.5 848.5,-550.5 "/>
<text text-anchor="start" x="673.5" y="-538.5" font-family="Helvetica,sans-Serif" font-size="10.00" fill="#000000">+ CombinationsIndexPolicyBase()</text>
<text text-anchor="start" x="673.5" y="-527.5" font-family="Helvetica,sans-Serif" font-size="10.00" fill="#000000">+ moveToEnd()</text>
<text text-anchor="start" x="673.5" y="-516.5" font-family="Helvetica,sans-Serif" font-size="10.00" fill="#000000">+ addOne()</text>
</a>
</g>
</g>
<!-- Node8&#45;&gt;Node12 -->
<g id="edge8" class="edge">
<title>Node8&#45;&gt;Node12</title>
<path fill="none" stroke="#404040" d="M796.529,-647.4663C791.7452,-636.2156 786.2872,-623.3791 780.9861,-610.9117"/>
<polygon fill="none" stroke="#404040" points="780.8813,-610.6651 774.8524,-606.7087 776.1857,-599.6219 782.2145,-603.5783 780.8813,-610.6651"/>
<text text-anchor="middle" x="816" y="-621" font-family="Helvetica,sans-Serif" font-size="10.00" fill="#000000"> +mCurrent</text>
</g>
<!-- Node9 -->
<g id="node5" class="node">
<title>Node9</title>
<polygon fill="none" stroke="#bfbfbf" points="930,-653 930,-710 968,-710 968,-653 930,-653"/>
<text text-anchor="middle" x="949" y="-698" font-family="Helvetica,sans-Serif" font-size="10.00" fill="#000000">bool</text>
<polyline fill="none" stroke="#bfbfbf" points="930,-691 968,-691 "/>
<text text-anchor="middle" x="949" y="-679" font-family="Helvetica,sans-Serif" font-size="10.00" fill="#000000"> </text>
<polyline fill="none" stroke="#bfbfbf" points="930,-672 968,-672 "/>
<text text-anchor="middle" x="949" y="-660" font-family="Helvetica,sans-Serif" font-size="10.00" fill="#000000"> </text>
</g>
<!-- Node9&#45;&gt;Node7 -->
<g id="edge4" class="edge">
<title>Node9&#45;&gt;Node7</title>
<path fill="none" stroke="#404040" d="M949.6558,-652.8597C949.3803,-617.3899 945.2851,-555.9172 923,-509 916.6108,-495.5487 907.6079,-482.66 897.8525,-470.9994"/>
<polygon fill="none" stroke="#404040" points="897.8099,-470.9507 890.8476,-469.0729 889.9031,-461.9239 896.8655,-463.8017 897.8099,-470.9507"/>
<text text-anchor="middle" x="970" y="-552" font-family="Helvetica,sans-Serif" font-size="10.00" fill="#000000"> +mIsEnd</text>
</g>
<!-- Node9&#45;&gt;Node12 -->
<g id="edge9" class="edge">
<title>Node9&#45;&gt;Node12</title>
<path fill="none" stroke="#404040" d="M929.8884,-668.8585C907.7879,-654.2399 869.9978,-629.2433 835.375,-606.3418"/>
<polygon fill="none" stroke="#404040" points="835.2412,-606.2534 828.0302,-606.2794 825.2326,-599.633 832.4437,-599.607 835.2412,-606.2534"/>
<text text-anchor="middle" x="888" y="-621" font-family="Helvetica,sans-Serif" font-size="10.00" fill="#000000"> +mIsEnd</text>
</g>
<!-- Node10 -->
<g id="node6" class="node">
<title>Node10</title>
<g id="a_node6"><a xlink:href="../../dd/da8/structo2_1_1soa_1_1NTupleType.html" target="_top" xlink:title="{o2::soa::NTupleType\l\&lt; uint64_t, sizeof...(Ts)\&gt;\n||}">
<polygon fill="none" stroke="#000000" points="469.5,-647.5 469.5,-715.5 606.5,-715.5 606.5,-647.5 469.5,-647.5"/>
<text text-anchor="start" x="477.5" y="-703.5" font-family="Helvetica,sans-Serif" font-size="10.00" fill="#000000">o2::soa::NTupleType</text>
<text text-anchor="middle" x="538" y="-692.5" font-family="Helvetica,sans-Serif" font-size="10.00" fill="#000000">&lt; uint64_t, sizeof...(Ts)&gt;</text>
<polyline fill="none" stroke="#000000" points="469.5,-685.5 606.5,-685.5 "/>
<text text-anchor="middle" x="538" y="-673.5" font-family="Helvetica,sans-Serif" font-size="10.00" fill="#000000"> </text>
<polyline fill="none" stroke="#000000" points="469.5,-666.5 606.5,-666.5 "/>
<text text-anchor="middle" x="538" y="-654.5" font-family="Helvetica,sans-Serif" font-size="10.00" fill="#000000"> </text>
</a>
</g>
</g>
<!-- Node10&#45;&gt;Node5 -->
<g id="edge19" class="edge">
<title>Node10&#45;&gt;Node5</title>
<path fill="none" stroke="#404040" d="M469.3435,-677.1215C339.5344,-666.9501 71,-636.0528 71,-554.5 71,-554.5 71,-554.5 71,-173.5 71,-153.9497 72.5326,-132.7276 74.5024,-113.5256"/>
<polygon fill="none" stroke="#404040" points="74.5073,-113.4803 71.1832,-107.081 75.8117,-101.5514 79.1358,-107.9506 74.5073,-113.4803"/>
<text text-anchor="middle" x="113" y="-345" font-family="Helvetica,sans-Serif" font-size="10.00" fill="#000000"> +mBeginIndices</text>
</g>
<!-- Node10&#45;&gt;Node6 -->
<g id="edge13" class="edge">
<title>Node10&#45;&gt;Node6</title>
<path fill="none" stroke="#404040" d="M586.252,-647.1787C600.7223,-634.1806 614.8899,-618.0968 623,-600 638.6835,-565.0042 652.8272,-287.8262 633,-255 622.9118,-238.2978 608.1399,-224.8477 591.6667,-214.0689"/>
<polygon fill="none" stroke="#404040" points="591.4625,-213.9445 584.2573,-214.2363 581.2167,-207.6976 588.4219,-207.4057 591.4625,-213.9445"/>
<text text-anchor="middle" x="688" y="-414" font-family="Helvetica,sans-Serif" font-size="10.00" fill="#000000"> +mCurrentIndices</text>
</g>
<!-- Node10&#45;&gt;Node7 -->
<g id="edge5" class="edge">
<title>Node10&#45;&gt;Node7</title>
<path fill="none" stroke="#404040" d="M538.2964,-647.3562C540.4838,-608.784 549.8892,-546.512 586,-509 633.5698,-459.5843 668.7443,-485.9998 733,-462 734.026,-461.6168 735.0565,-461.2292 736.0909,-460.8376"/>
<polygon fill="none" stroke="#404040" points="736.1002,-460.834 740.2526,-454.9385 747.2918,-456.5039 743.1393,-462.3995 736.1002,-460.834"/>
<text text-anchor="middle" x="621.5" y="-552" font-family="Helvetica,sans-Serif" font-size="10.00" fill="#000000"> +mMaxOffset</text>
</g>
<!-- Node10&#45;&gt;Node12 -->
<g id="edge10" class="edge">
<title>Node10&#45;&gt;Node12</title>
<path fill="none" stroke="#404040" d="M606.5174,-652.0472C621.435,-644.9805 636.951,-637.1145 651,-629 662.8259,-622.1695 675.0047,-614.3884 686.7038,-606.4919"/>
<polygon fill="none" stroke="#404040" points="686.9425,-606.3284 689.6299,-599.6367 696.8405,-599.5438 694.153,-606.2354 686.9425,-606.3284"/>
<text text-anchor="middle" x="704.5" y="-621" font-family="Helvetica,sans-Serif" font-size="10.00" fill="#000000"> +mMaxOffset</text>
</g>
<!-- Node10&#45;&gt;Node15 -->
<g id="edge18" class="edge">
<title>Node10&#45;&gt;Node15</title>
<path fill="none" stroke="#404040" d="M515.6323,-647.4187C489.3982,-605.6087 446.8499,-531.6763 426,-462 413.5764,-420.4826 409.1154,-371.1633 407.5912,-335.9156"/>
<polygon fill="none" stroke="#404040" points="407.58,-335.5993 403.3692,-329.7453 407.1532,-323.6069 411.3641,-329.4608 407.58,-335.5993"/>
<text text-anchor="middle" x="481" y="-483" font-family="Helvetica,sans-Serif" font-size="10.00" fill="#000000"> +mCurrentIndices</text>
</g>
<!-- Node11 -->
<g id="node7" class="node">
<title>Node11</title>
<g id="a_node7"><a xlink:href="../../dd/da8/structo2_1_1soa_1_1NTupleType.html" target="_top" xlink:title="{o2::soa::NTupleType\l\&lt; T, N, REST \&gt;\n||}">
<polygon fill="none" stroke="#000000" points="481.5,-763.5 481.5,-831.5 594.5,-831.5 594.5,-763.5 481.5,-763.5"/>
<text text-anchor="start" x="489.5" y="-819.5" font-family="Helvetica,sans-Serif" font-size="10.00" fill="#000000">o2::soa::NTupleType</text>
<text text-anchor="middle" x="538" y="-808.5" font-family="Helvetica,sans-Serif" font-size="10.00" fill="#000000">&lt; T, N, REST &gt;</text>
<polyline fill="none" stroke="#000000" points="481.5,-801.5 594.5,-801.5 "/>
<text text-anchor="middle" x="538" y="-789.5" font-family="Helvetica,sans-Serif" font-size="10.00" fill="#000000"> </text>
<polyline fill="none" stroke="#000000" points="481.5,-782.5 594.5,-782.5 "/>
<text text-anchor="middle" x="538" y="-770.5" font-family="Helvetica,sans-Serif" font-size="10.00" fill="#000000"> </text>
</a>
</g>
</g>
<!-- Node11&#45;&gt;Node10 -->
<g id="edge6" class="edge">
<title>Node11&#45;&gt;Node10</title>
<path fill="none" stroke="#ffa500" d="M538,-753.1851C538,-740.8048 538,-727.5422 538,-715.833"/>
<polygon fill="#ffa500" stroke="#ffa500" points="534.5001,-753.3235 538,-763.3236 541.5001,-753.3236 534.5001,-753.3235"/>
<text text-anchor="middle" x="600" y="-737" font-family="Helvetica,sans-Serif" font-size="10.00" fill="#000000"> &lt; uint64_t, sizeof...(Ts)&gt;</text>
</g>
<!-- Node12&#45;&gt;Node7 -->
<g id="edge7" class="edge">
<title>Node12&#45;&gt;Node7</title>
<path fill="none" stroke="#ffa500" d="M789.0439,-500.5724C796.6667,-487.7439 804.7236,-474.1846 812.0898,-461.7879"/>
<polygon fill="#ffa500" stroke="#ffa500" points="785.9493,-498.9289 783.8499,-509.3136 791.9671,-502.5047 785.9493,-498.9289"/>
<text text-anchor="middle" x="822.5" y="-483" font-family="Helvetica,sans-Serif" font-size="10.00" fill="#000000"> &lt; Ts... &gt;</text>
</g>
<!-- Node13 -->
<g id="node9" class="node">
<title>Node13</title>
<g id="a_node9"><a xlink:href="../../d6/d30/classuint64__t.html" target="_top" xlink:title="{uint64_t\n||}">
<polygon fill="none" stroke="#000000" points="177,-388 177,-445 233,-445 233,-388 177,-388"/>
<text text-anchor="middle" x="205" y="-433" font-family="Helvetica,sans-Serif" font-size="10.00" fill="#000000">uint64_t</text>
<polyline fill="none" stroke="#000000" points="177,-426 233,-426 "/>
<text text-anchor="middle" x="205" y="-414" font-family="Helvetica,sans-Serif" font-size="10.00" fill="#000000"> </text>
<polyline fill="none" stroke="#000000" points="177,-407 233,-407 "/>
<text text-anchor="middle" x="205" y="-395" font-family="Helvetica,sans-Serif" font-size="10.00" fill="#000000"> </text>
</a>
</g>
</g>
<!-- Node13&#45;&gt;Node6 -->
<g id="edge11" class="edge">
<title>Node13&#45;&gt;Node6</title>
<path fill="none" stroke="#404040" d="M188.708,-387.9794C171.1504,-353.031 149.4338,-293.7038 179,-255 201.5468,-225.4849 286.7406,-204.1006 360.4508,-190.6617"/>
<polygon fill="none" stroke="#404040" points="360.8274,-190.5947 366.0333,-185.6049 372.6416,-188.4911 367.4357,-193.481 360.8274,-190.5947"/>
<text text-anchor="middle" x="236" y="-287" font-family="Helvetica,sans-Serif" font-size="10.00" fill="#000000"> +mSlidingWindowSize</text>
</g>
<!-- Node13&#45;&gt;Node15 -->
<g id="edge16" class="edge">
<title>Node13&#45;&gt;Node15</title>
<path fill="none" stroke="#404040" d="M226.8225,-387.7455C239.5403,-372.5359 256.6595,-354.4812 275,-342 281.7906,-337.3788 289.0484,-333.0715 296.537,-329.0745"/>
<polygon fill="none" stroke="#404040" points="296.5548,-329.0655 300.0922,-322.7817 307.2532,-323.6301 303.7158,-329.914 296.5548,-329.0655"/>
<text text-anchor="middle" x="332" y="-345" font-family="Helvetica,sans-Serif" font-size="10.00" fill="#000000"> +mSlidingWindowSize</text>
</g>
<!-- Node14 -->
<g id="node10" class="node">
<title>Node14</title>
<polygon fill="none" stroke="#bfbfbf" points="435.5,-377 435.5,-456 598.5,-456 598.5,-377 435.5,-377"/>
<text text-anchor="start" x="443.5" y="-444" font-family="Helvetica,sans-Serif" font-size="10.00" fill="#000000">array&lt; std::vector</text>
<text text-anchor="start" x="443.5" y="-433" font-family="Helvetica,sans-Serif" font-size="10.00" fill="#000000">&lt; std::pair&lt; uint64</text>
<text text-anchor="middle" x="517" y="-422" font-family="Helvetica,sans-Serif" font-size="10.00" fill="#000000">_t, uint64_t &gt; &gt;, sizeof...(Ts)&gt;</text>
<polyline fill="none" stroke="#bfbfbf" points="435.5,-415 598.5,-415 "/>
<text text-anchor="middle" x="517" y="-403" font-family="Helvetica,sans-Serif" font-size="10.00" fill="#000000"> </text>
<polyline fill="none" stroke="#bfbfbf" points="435.5,-396 598.5,-396 "/>
<text text-anchor="middle" x="517" y="-384" font-family="Helvetica,sans-Serif" font-size="10.00" fill="#000000"> </text>
</g>
<!-- Node14&#45;&gt;Node6 -->
<g id="edge12" class="edge">
<title>Node14&#45;&gt;Node6</title>
<path fill="none" stroke="#404040" d="M530.6518,-376.6261C533.2042,-365.5188 534.8454,-353.3778 534,-342 531.1031,-303.0115 533.0321,-292.1984 521,-255 516.5341,-241.1933 512.7478,-238.8466 506,-226 504.6828,-223.4923 503.3265,-220.9194 501.9546,-218.3241"/>
<polygon fill="none" stroke="#404040" points="501.9098,-218.2395 495.5647,-214.813 496.2872,-207.6382 502.6322,-211.0646 501.9098,-218.2395"/>
<text text-anchor="middle" x="580.5" y="-287" font-family="Helvetica,sans-Serif" font-size="10.00" fill="#000000"> +mGroupedIndices</text>
</g>
<!-- Node14&#45;&gt;Node15 -->
<g id="edge17" class="edge">
<title>Node14&#45;&gt;Node15</title>
<path fill="none" stroke="#404040" d="M460.1632,-376.8487C451.7832,-369.5154 443.7223,-361.4742 437,-353 432.5826,-347.4314 428.6214,-341.106 425.1376,-334.6573"/>
<polygon fill="none" stroke="#404040" points="425.0798,-334.5412 418.8241,-330.9541 419.7292,-323.8 425.9849,-327.3871 425.0798,-334.5412"/>
<text text-anchor="middle" x="485.5" y="-345" font-family="Helvetica,sans-Serif" font-size="10.00" fill="#000000"> +mGroupedIndices</text>
</g>
<!-- Node15&#45;&gt;Node6 -->
<g id="edge14" class="edge">
<title>Node15&#45;&gt;Node6</title>
<path fill="none" stroke="#ffa500" d="M433.2172,-246.6663C441.0505,-233.8683 449.5323,-220.0106 456.9858,-207.833"/>
<polygon fill="#ffa500" stroke="#ffa500" points="430.1536,-244.9672 427.9183,-255.3236 436.124,-248.6216 430.1536,-244.9672"/>
<text text-anchor="middle" x="473.5" y="-229" font-family="Helvetica,sans-Serif" font-size="10.00" fill="#000000"> &lt; T, Ts... &gt;</text>
</g>
</g>
</svg>
