<?xml version="1.0" encoding="UTF-8" standalone="no"?>
<!DOCTYPE svg PUBLIC "-//W3C//DTD SVG 1.1//EN"
 "http://www.w3.org/Graphics/SVG/1.1/DTD/svg11.dtd">
<!-- Generated by graphviz version 2.40.1 (20161225.0304)
 -->
<!-- Title: /home/travis/build/AliceO2Group/AliceO2/Detectors/MUON/MCH/Raw/Common/test/testRDHManip.cxx Pages: 1 -->
<svg width="729pt" height="229pt"
 viewBox="0.00 0.00 729.46 229.00" xmlns="http://www.w3.org/2000/svg" xmlns:xlink="http://www.w3.org/1999/xlink">
<g id="graph0" class="graph" transform="scale(1 1) rotate(0) translate(4 225)">
<title>/home/travis/build/AliceO2Group/AliceO2/Detectors/MUON/MCH/Raw/Common/test/testRDHManip.cxx</title>
<!-- Node0 -->
<g id="node1" class="node">
<title>Node0</title>
<polygon fill="#bfbfbf" stroke="#000000" points="220.9582,-168.5 220.9582,-220.5 399.9582,-220.5 399.9582,-168.5 220.9582,-168.5"/>
<text text-anchor="start" x="228.9582" y="-208.5" font-family="Helvetica,sans-Serif" font-size="10.00" fill="#000000">/home/travis/build</text>
<text text-anchor="start" x="228.9582" y="-197.5" font-family="Helvetica,sans-Serif" font-size="10.00" fill="#000000">/AliceO2Group/AliceO2</text>
<text text-anchor="start" x="228.9582" y="-186.5" font-family="Helvetica,sans-Serif" font-size="10.00" fill="#000000">/Detectors/MUON/MCH/Raw</text>
<text text-anchor="middle" x="310.4582" y="-175.5" font-family="Helvetica,sans-Serif" font-size="10.00" fill="#000000">/Common/test/testRDHManip.cxx</text>
</g>
<!-- Node1 -->
<g id="node2" class="node">
<title>Node1</title>
<polygon fill="none" stroke="#bfbfbf" points="76.4582,-112.5 76.4582,-131.5 208.4582,-131.5 208.4582,-112.5 76.4582,-112.5"/>
<text text-anchor="middle" x="142.4582" y="-119.5" font-family="Helvetica,sans-Serif" font-size="10.00" fill="#000000">boost/test/unit_test.hpp</text>
</g>
<!-- Node0&#45;&gt;Node1 -->
<g id="edge1" class="edge">
<title>Node0&#45;&gt;Node1</title>
<path fill="none" stroke="#191970" d="M249.8064,-168.3258C224.0509,-157.2111 195.1143,-144.7236 173.7796,-135.5167"/>
<polygon fill="#191970" stroke="#191970" points="175.1192,-132.2828 164.5508,-131.534 172.3455,-138.7099 175.1192,-132.2828"/>
</g>
<!-- Node2 -->
<g id="node3" class="node">
<title>Node2</title>
<g id="a_node3"><a xlink:href="../../dc/d3a/RDHManip_8h.html" target="_top" xlink:title="MCHRawCommon/RDHManip.h">
<polygon fill="none" stroke="#000000" points="226.9582,-112.5 226.9582,-131.5 393.9582,-131.5 393.9582,-112.5 226.9582,-112.5"/>
<text text-anchor="middle" x="310.4582" y="-119.5" font-family="Helvetica,sans-Serif" font-size="10.00" fill="#000000">MCHRawCommon/RDHManip.h</text>
</a>
</g>
</g>
<!-- Node0&#45;&gt;Node2 -->
<g id="edge2" class="edge">
<title>Node0&#45;&gt;Node2</title>
<path fill="none" stroke="#191970" d="M310.4582,-168.3258C310.4582,-159.5142 310.4582,-149.8397 310.4582,-141.621"/>
<polygon fill="#191970" stroke="#191970" points="313.9583,-141.534 310.4582,-131.534 306.9583,-141.534 313.9583,-141.534"/>
</g>
<!-- Node12 -->
<g id="node13" class="node">
<title>Node12</title>
<g id="a_node13"><a xlink:href="../../d4/d78/DataFormats_2Headers_2include_2Headers_2RAWDataHeader_8h.html" target="_top" xlink:title="Headers/RAWDataHeader.h">
<polygon fill="none" stroke="#000000" points="554.9582,-112.5 554.9582,-131.5 703.9582,-131.5 703.9582,-112.5 554.9582,-112.5"/>
<text text-anchor="middle" x="629.4582" y="-119.5" font-family="Helvetica,sans-Serif" font-size="10.00" fill="#000000">Headers/RAWDataHeader.h</text>
</a>
</g>
</g>
<!-- Node0&#45;&gt;Node12 -->
<g id="edge13" class="edge">
<title>Node0&#45;&gt;Node12</title>
<path fill="none" stroke="#191970" d="M400.1664,-174.1118C457.4572,-161.0911 529.7122,-144.6696 577.6361,-133.7778"/>
<polygon fill="#191970" stroke="#191970" points="578.5035,-137.17 587.4791,-131.5407 576.9521,-130.344 578.5035,-137.17"/>
</g>
<!-- Node3 -->
<g id="node4" class="node">
<title>Node3</title>
<polygon fill="none" stroke="#bfbfbf" points="527.4582,-.5 527.4582,-19.5 577.4582,-19.5 577.4582,-.5 527.4582,-.5"/>
<text text-anchor="middle" x="552.4582" y="-7.5" font-family="Helvetica,sans-Serif" font-size="10.00" fill="#000000">cstdint</text>
</g>
<!-- Node2&#45;&gt;Node3 -->
<g id="edge3" class="edge">
<title>Node2&#45;&gt;Node3</title>
<path fill="none" stroke="#191970" d="M229.4516,-112.4611C141.3018,-101.6885 11.8188,-84.5497 4.4582,-76 -1.3412,-69.2636 -1.5585,-62.543 4.4582,-56 39.1609,-18.2624 401.4158,-11.468 517.1333,-10.2585"/>
<polygon fill="#191970" stroke="#191970" points="517.267,-13.7575 527.2326,-10.1608 517.1992,-6.7578 517.267,-13.7575"/>
</g>
<!-- Node4 -->
<g id="node5" class="node">
<title>Node4</title>
<polygon fill="none" stroke="#bfbfbf" points="13.9582,-56.5 13.9582,-75.5 78.9582,-75.5 78.9582,-56.5 13.9582,-56.5"/>
<text text-anchor="middle" x="46.4582" y="-63.5" font-family="Helvetica,sans-Serif" font-size="10.00" fill="#000000">functional</text>
</g>
<!-- Node2&#45;&gt;Node4 -->
<g id="edge4" class="edge">
<title>Node2&#45;&gt;Node4</title>
<path fill="none" stroke="#191970" d="M261.6283,-112.4505C218.5861,-103.9149 153.9308,-90.8085 89.0913,-76.317"/>
<polygon fill="#191970" stroke="#191970" points="89.6311,-72.8512 79.1072,-74.0748 88.0972,-79.681 89.6311,-72.8512"/>
</g>
<!-- Node5 -->
<g id="node6" class="node">
<title>Node5</title>
<polygon fill="none" stroke="#bfbfbf" points="96.9582,-56.5 96.9582,-75.5 153.9582,-75.5 153.9582,-56.5 96.9582,-56.5"/>
<text text-anchor="middle" x="125.4582" y="-63.5" font-family="Helvetica,sans-Serif" font-size="10.00" fill="#000000">gsl/span</text>
</g>
<!-- Node2&#45;&gt;Node5 -->
<g id="edge5" class="edge">
<title>Node2&#45;&gt;Node5</title>
<path fill="none" stroke="#191970" d="M278.6556,-112.3733C246.7803,-102.7245 197.6883,-87.8642 163.7056,-77.5776"/>
<polygon fill="#191970" stroke="#191970" points="164.7,-74.2218 154.1148,-74.6744 162.6719,-80.9216 164.7,-74.2218"/>
</g>
<!-- Node6 -->
<g id="node7" class="node">
<title>Node6</title>
<polygon fill="none" stroke="#bfbfbf" points="172.4582,-56.5 172.4582,-75.5 232.4582,-75.5 232.4582,-56.5 172.4582,-56.5"/>
<text text-anchor="middle" x="202.4582" y="-63.5" font-family="Helvetica,sans-Serif" font-size="10.00" fill="#000000">iostream</text>
</g>
<!-- Node2&#45;&gt;Node6 -->
<g id="edge6" class="edge">
<title>Node2&#45;&gt;Node6</title>
<path fill="none" stroke="#191970" d="M291.6461,-112.2455C274.611,-103.4125 249.3007,-90.2887 229.9901,-80.2758"/>
<polygon fill="#191970" stroke="#191970" points="231.5435,-77.1388 221.0548,-75.6427 228.3213,-83.353 231.5435,-77.1388"/>
</g>
<!-- Node7 -->
<g id="node8" class="node">
<title>Node7</title>
<polygon fill="none" stroke="#bfbfbf" points="250.4582,-56.5 250.4582,-75.5 294.4582,-75.5 294.4582,-56.5 250.4582,-56.5"/>
<text text-anchor="middle" x="272.4582" y="-63.5" font-family="Helvetica,sans-Serif" font-size="10.00" fill="#000000">string</text>
</g>
<!-- Node2&#45;&gt;Node7 -->
<g id="edge7" class="edge">
<title>Node2&#45;&gt;Node7</title>
<path fill="none" stroke="#191970" d="M303.8391,-112.2455C298.5537,-104.4564 291.0041,-93.3308 284.6345,-83.9439"/>
<polygon fill="#191970" stroke="#191970" points="287.5127,-81.9522 279.0015,-75.6427 281.7204,-85.8827 287.5127,-81.9522"/>
</g>
<!-- Node8 -->
<g id="node9" class="node">
<title>Node8</title>
<polygon fill="none" stroke="#bfbfbf" points="312.9582,-56.5 312.9582,-75.5 385.9582,-75.5 385.9582,-56.5 312.9582,-56.5"/>
<text text-anchor="middle" x="349.4582" y="-63.5" font-family="Helvetica,sans-Serif" font-size="10.00" fill="#000000">string_view</text>
</g>
<!-- Node2&#45;&gt;Node8 -->
<g id="edge8" class="edge">
<title>Node2&#45;&gt;Node8</title>
<path fill="none" stroke="#191970" d="M317.2515,-112.2455C322.6761,-104.4564 330.4243,-93.3308 336.9616,-83.9439"/>
<polygon fill="#191970" stroke="#191970" points="339.9,-85.849 342.7428,-75.6427 334.1557,-81.8485 339.9,-85.849"/>
</g>
<!-- Node9 -->
<g id="node10" class="node">
<title>Node9</title>
<polygon fill="none" stroke="#bfbfbf" points="403.9582,-56.5 403.9582,-75.5 450.9582,-75.5 450.9582,-56.5 403.9582,-56.5"/>
<text text-anchor="middle" x="427.4582" y="-63.5" font-family="Helvetica,sans-Serif" font-size="10.00" fill="#000000">vector</text>
</g>
<!-- Node2&#45;&gt;Node9 -->
<g id="edge9" class="edge">
<title>Node2&#45;&gt;Node9</title>
<path fill="none" stroke="#191970" d="M330.5713,-112.3733C349.2686,-103.4241 377.3326,-89.9917 398.4517,-79.8835"/>
<polygon fill="#191970" stroke="#191970" points="400.0987,-82.9755 407.6077,-75.5011 397.0766,-76.6614 400.0987,-82.9755"/>
</g>
<!-- Node10 -->
<g id="node11" class="node">
<title>Node10</title>
<g id="a_node11"><a xlink:href="../../dd/d9a/RDHFields_8h.html" target="_top" xlink:title="MCHRawCommon/RDHFields.h">
<polygon fill="none" stroke="#000000" points="469.4582,-56.5 469.4582,-75.5 635.4582,-75.5 635.4582,-56.5 469.4582,-56.5"/>
<text text-anchor="middle" x="552.4582" y="-63.5" font-family="Helvetica,sans-Serif" font-size="10.00" fill="#000000">MCHRawCommon/RDHFields.h</text>
</a>
</g>
</g>
<!-- Node2&#45;&gt;Node10 -->
<g id="edge10" class="edge">
<title>Node2&#45;&gt;Node10</title>
<path fill="none" stroke="#191970" d="M351.7846,-112.4369C393.201,-102.8529 457.036,-88.0812 501.5517,-77.78"/>
<polygon fill="#191970" stroke="#191970" points="502.3489,-81.1881 511.3024,-75.5237 500.7707,-74.3683 502.3489,-81.1881"/>
</g>
<!-- Node11 -->
<g id="node12" class="node">
<title>Node11</title>
<polygon fill="none" stroke="#bfbfbf" points="653.9582,-56.5 653.9582,-75.5 706.9582,-75.5 706.9582,-56.5 653.9582,-56.5"/>
<text text-anchor="middle" x="680.4582" y="-63.5" font-family="Helvetica,sans-Serif" font-size="10.00" fill="#000000">cstddef</text>
</g>
<!-- Node2&#45;&gt;Node11 -->
<g id="edge12" class="edge">
<title>Node2&#45;&gt;Node11</title>
<path fill="none" stroke="#191970" d="M394.0291,-113.6365C459.5246,-106.3555 553.0567,-94.363 643.901,-75.8754"/>
<polygon fill="#191970" stroke="#191970" points="644.733,-79.2775 653.8191,-73.8285 643.3181,-72.422 644.733,-79.2775"/>
</g>
<!-- Node10&#45;&gt;Node3 -->
<g id="edge11" class="edge">
<title>Node10&#45;&gt;Node3</title>
<path fill="none" stroke="#191970" d="M552.4582,-56.2455C552.4582,-48.9382 552.4582,-38.6944 552.4582,-29.7046"/>
<polygon fill="#191970" stroke="#191970" points="555.9583,-29.6426 552.4582,-19.6427 548.9583,-29.6427 555.9583,-29.6426"/>
</g>
<!-- Node12&#45;&gt;Node3 -->
<g id="edge14" class="edge">
<title>Node12&#45;&gt;Node3</title>
<path fill="none" stroke="#191970" d="M661.4957,-112.4614C693.4993,-101.2625 735.4136,-81.0036 716.4582,-56 700.9447,-35.5363 630.9958,-21.6666 587.6139,-14.8626"/>
<polygon fill="#191970" stroke="#191970" points="587.8822,-11.3633 577.4703,-13.3239 586.8323,-18.2841 587.8822,-11.3633"/>
</g>
</g>
</svg>
