<?xml version="1.0" encoding="UTF-8" standalone="no"?>
<!DOCTYPE svg PUBLIC "-//W3C//DTD SVG 1.1//EN"
 "http://www.w3.org/Graphics/SVG/1.1/DTD/svg11.dtd">
<!-- Generated by graphviz version 2.40.1 (20161225.0304)
 -->
<!-- Title: o2::framework::Produces&lt; T &gt; Pages: 1 -->
<svg width="2504pt" height="182pt"
 viewBox="0.00 0.00 2504.00 182.00" xmlns="http://www.w3.org/2000/svg" xmlns:xlink="http://www.w3.org/1999/xlink">
<g id="graph0" class="graph" transform="scale(1 1) rotate(0) translate(4 178)">
<title>o2::framework::Produces&lt; T &gt;</title>
<!-- Node0 -->
<g id="node1" class="node">
<title>Node0</title>
<polygon fill="#bfbfbf" stroke="#000000" points="1173.5,-116.5 1173.5,-173.5 1340.5,-173.5 1340.5,-116.5 1173.5,-116.5"/>
<text text-anchor="middle" x="1257" y="-161.5" font-family="Helvetica,sans-Serif" font-size="10.00" fill="#000000">o2::framework::Produces&lt; T &gt;</text>
<polyline fill="none" stroke="#000000" points="1173.5,-154.5 1340.5,-154.5 "/>
<text text-anchor="middle" x="1257" y="-142.5" font-family="Helvetica,sans-Serif" font-size="10.00" fill="#000000"> </text>
<polyline fill="none" stroke="#000000" points="1173.5,-135.5 1340.5,-135.5 "/>
<text text-anchor="middle" x="1257" y="-123.5" font-family="Helvetica,sans-Serif" font-size="10.00" fill="#000000"> </text>
</g>
<!-- Node1 -->
<g id="node2" class="node">
<title>Node1</title>
<g id="a_node2"><a xlink:href="../../d6/d86/structo2_1_1framework_1_1Produces.html" target="_top" xlink:title="{o2::framework::Produces\l\&lt; aod::EvSels \&gt;\n||}">
<polygon fill="none" stroke="#000000" points="0,-.5 0,-68.5 138,-68.5 138,-.5 0,-.5"/>
<text text-anchor="start" x="8" y="-56.5" font-family="Helvetica,sans-Serif" font-size="10.00" fill="#000000">o2::framework::Produces</text>
<text text-anchor="middle" x="69" y="-45.5" font-family="Helvetica,sans-Serif" font-size="10.00" fill="#000000">&lt; aod::EvSels &gt;</text>
<polyline fill="none" stroke="#000000" points="0,-38.5 138,-38.5 "/>
<text text-anchor="middle" x="69" y="-26.5" font-family="Helvetica,sans-Serif" font-size="10.00" fill="#000000"> </text>
<polyline fill="none" stroke="#000000" points="0,-19.5 138,-19.5 "/>
<text text-anchor="middle" x="69" y="-7.5" font-family="Helvetica,sans-Serif" font-size="10.00" fill="#000000"> </text>
</a>
</g>
</g>
<!-- Node0&#45;&gt;Node1 -->
<g id="edge1" class="edge">
<title>Node0&#45;&gt;Node1</title>
<path fill="none" stroke="#ffa500" d="M1163.3159,-142.7661C951.2887,-137.3492 439.8459,-122.1551 269,-98 213.8158,-90.1978 199.8171,-86.7911 147,-69 144.0532,-68.0074 141.065,-66.9455 138.0619,-65.8323"/>
<polygon fill="#ffa500" stroke="#ffa500" points="1163.4038,-146.2694 1173.4894,-143.0244 1163.5815,-139.2716 1163.4038,-146.2694"/>
<text text-anchor="middle" x="310" y="-90" font-family="Helvetica,sans-Serif" font-size="10.00" fill="#000000"> &lt; aod::EvSels &gt;</text>
</g>
<!-- Node2 -->
<g id="node3" class="node">
<title>Node2</title>
<g id="a_node3"><a xlink:href="../../d6/d86/structo2_1_1framework_1_1Produces.html" target="_top" xlink:title="{o2::framework::Produces\l\&lt; aod::SecVtx2Prong \&gt;\n||}">
<polygon fill="none" stroke="#000000" points="156,-.5 156,-68.5 294,-68.5 294,-.5 156,-.5"/>
<text text-anchor="start" x="164" y="-56.5" font-family="Helvetica,sans-Serif" font-size="10.00" fill="#000000">o2::framework::Produces</text>
<text text-anchor="middle" x="225" y="-45.5" font-family="Helvetica,sans-Serif" font-size="10.00" fill="#000000">&lt; aod::SecVtx2Prong &gt;</text>
<polyline fill="none" stroke="#000000" points="156,-38.5 294,-38.5 "/>
<text text-anchor="middle" x="225" y="-26.5" font-family="Helvetica,sans-Serif" font-size="10.00" fill="#000000"> </text>
<polyline fill="none" stroke="#000000" points="156,-19.5 294,-19.5 "/>
<text text-anchor="middle" x="225" y="-7.5" font-family="Helvetica,sans-Serif" font-size="10.00" fill="#000000"> </text>
</a>
</g>
</g>
<!-- Node0&#45;&gt;Node2 -->
<g id="edge2" class="edge">
<title>Node0&#45;&gt;Node2</title>
<path fill="none" stroke="#ffa500" d="M1163.205,-142.6852C972.0837,-137.5051 543.4354,-123.3953 399,-98 363.3698,-91.7353 325.4525,-78.7137 294.1391,-66.0836"/>
<polygon fill="#ffa500" stroke="#ffa500" points="1163.1424,-146.1847 1173.2328,-142.9547 1163.3305,-139.1872 1163.1424,-146.1847"/>
<text text-anchor="middle" x="458" y="-90" font-family="Helvetica,sans-Serif" font-size="10.00" fill="#000000"> &lt; aod::SecVtx2Prong &gt;</text>
</g>
<!-- Node3 -->
<g id="node4" class="node">
<title>Node3</title>
<g id="a_node4"><a xlink:href="../../d6/d86/structo2_1_1framework_1_1Produces.html" target="_top" xlink:title="{o2::framework::Produces\l\&lt; o2::aod::JetConstituents \&gt;\n||}">
<polygon fill="none" stroke="#000000" points="312.5,-.5 312.5,-68.5 467.5,-68.5 467.5,-.5 312.5,-.5"/>
<text text-anchor="start" x="320.5" y="-56.5" font-family="Helvetica,sans-Serif" font-size="10.00" fill="#000000">o2::framework::Produces</text>
<text text-anchor="middle" x="390" y="-45.5" font-family="Helvetica,sans-Serif" font-size="10.00" fill="#000000">&lt; o2::aod::JetConstituents &gt;</text>
<polyline fill="none" stroke="#000000" points="312.5,-38.5 467.5,-38.5 "/>
<text text-anchor="middle" x="390" y="-26.5" font-family="Helvetica,sans-Serif" font-size="10.00" fill="#000000"> </text>
<polyline fill="none" stroke="#000000" points="312.5,-19.5 467.5,-19.5 "/>
<text text-anchor="middle" x="390" y="-7.5" font-family="Helvetica,sans-Serif" font-size="10.00" fill="#000000"> </text>
</a>
</g>
</g>
<!-- Node0&#45;&gt;Node3 -->
<g id="edge3" class="edge">
<title>Node0&#45;&gt;Node3</title>
<path fill="none" stroke="#ffa500" d="M1163.3827,-141.8578C1000.5536,-135.8649 671.7937,-121.2854 559,-98 527.5368,-91.5047 494.1759,-80.0308 465.4809,-68.6065"/>
<polygon fill="#ffa500" stroke="#ffa500" points="1163.2675,-145.3559 1173.3885,-142.223 1163.5229,-138.3605 1163.2675,-145.3559"/>
<text text-anchor="middle" x="630" y="-90" font-family="Helvetica,sans-Serif" font-size="10.00" fill="#000000"> &lt; o2::aod::JetConstituents &gt;</text>
</g>
<!-- Node4 -->
<g id="node5" class="node">
<title>Node4</title>
<g id="a_node5"><a xlink:href="../../d6/d86/structo2_1_1framework_1_1Produces.html" target="_top" xlink:title="{o2::framework::Produces\l\&lt; aod::Due \&gt;\n||}">
<polygon fill="none" stroke="#000000" points="486,-.5 486,-68.5 624,-68.5 624,-.5 486,-.5"/>
<text text-anchor="start" x="494" y="-56.5" font-family="Helvetica,sans-Serif" font-size="10.00" fill="#000000">o2::framework::Produces</text>
<text text-anchor="middle" x="555" y="-45.5" font-family="Helvetica,sans-Serif" font-size="10.00" fill="#000000">&lt; aod::Due &gt;</text>
<polyline fill="none" stroke="#000000" points="486,-38.5 624,-38.5 "/>
<text text-anchor="middle" x="555" y="-26.5" font-family="Helvetica,sans-Serif" font-size="10.00" fill="#000000"> </text>
<polyline fill="none" stroke="#000000" points="486,-19.5 624,-19.5 "/>
<text text-anchor="middle" x="555" y="-7.5" font-family="Helvetica,sans-Serif" font-size="10.00" fill="#000000"> </text>
</a>
</g>
</g>
<!-- Node0&#45;&gt;Node4 -->
<g id="edge4" class="edge">
<title>Node0&#45;&gt;Node4</title>
<path fill="none" stroke="#ffa500" d="M1163.3669,-138.6478C1066.3719,-131.4089 910.573,-117.9374 777,-98 712.4304,-88.3622 695.221,-88.7655 633,-69 630.0364,-68.0586 627.0342,-67.0394 624.0196,-65.9617"/>
<polygon fill="#ffa500" stroke="#ffa500" points="1163.2091,-142.1456 1173.4401,-139.3929 1163.7256,-135.1646 1163.2091,-142.1456"/>
<text text-anchor="middle" x="812" y="-90" font-family="Helvetica,sans-Serif" font-size="10.00" fill="#000000"> &lt; aod::Due &gt;</text>
</g>
<!-- Node5 -->
<g id="node6" class="node">
<title>Node5</title>
<g id="a_node6"><a xlink:href="../../d6/d86/structo2_1_1framework_1_1Produces.html" target="_top" xlink:title="{o2::framework::Produces\l\&lt; aod::Hashes \&gt;\n||}">
<polygon fill="none" stroke="#000000" points="642,-.5 642,-68.5 780,-68.5 780,-.5 642,-.5"/>
<text text-anchor="start" x="650" y="-56.5" font-family="Helvetica,sans-Serif" font-size="10.00" fill="#000000">o2::framework::Produces</text>
<text text-anchor="middle" x="711" y="-45.5" font-family="Helvetica,sans-Serif" font-size="10.00" fill="#000000">&lt; aod::Hashes &gt;</text>
<polyline fill="none" stroke="#000000" points="642,-38.5 780,-38.5 "/>
<text text-anchor="middle" x="711" y="-26.5" font-family="Helvetica,sans-Serif" font-size="10.00" fill="#000000"> </text>
<polyline fill="none" stroke="#000000" points="642,-19.5 780,-19.5 "/>
<text text-anchor="middle" x="711" y="-7.5" font-family="Helvetica,sans-Serif" font-size="10.00" fill="#000000"> </text>
</a>
</g>
</g>
<!-- Node0&#45;&gt;Node5 -->
<g id="edge5" class="edge">
<title>Node0&#45;&gt;Node5</title>
<path fill="none" stroke="#ffa500" d="M1163.0943,-139.9162C1066.7495,-132.3772 913.7363,-113.8893 789,-69 786.0742,-67.9471 783.1035,-66.8347 780.115,-65.6798"/>
<polygon fill="#ffa500" stroke="#ffa500" points="1162.8701,-143.4092 1173.1064,-140.6762 1163.4,-136.4292 1162.8701,-143.4092"/>
<text text-anchor="middle" x="919" y="-90" font-family="Helvetica,sans-Serif" font-size="10.00" fill="#000000"> &lt; aod::Hashes &gt;</text>
</g>
<!-- Node6 -->
<g id="node7" class="node">
<title>Node6</title>
<g id="a_node7"><a xlink:href="../../d6/d86/structo2_1_1framework_1_1Produces.html" target="_top" xlink:title="{o2::framework::Produces\l\&lt; aod::FooBars \&gt;\n||}">
<polygon fill="none" stroke="#000000" points="798,-.5 798,-68.5 936,-68.5 936,-.5 798,-.5"/>
<text text-anchor="start" x="806" y="-56.5" font-family="Helvetica,sans-Serif" font-size="10.00" fill="#000000">o2::framework::Produces</text>
<text text-anchor="middle" x="867" y="-45.5" font-family="Helvetica,sans-Serif" font-size="10.00" fill="#000000">&lt; aod::FooBars &gt;</text>
<polyline fill="none" stroke="#000000" points="798,-38.5 936,-38.5 "/>
<text text-anchor="middle" x="867" y="-26.5" font-family="Helvetica,sans-Serif" font-size="10.00" fill="#000000"> </text>
<polyline fill="none" stroke="#000000" points="798,-19.5 936,-19.5 "/>
<text text-anchor="middle" x="867" y="-7.5" font-family="Helvetica,sans-Serif" font-size="10.00" fill="#000000"> </text>
</a>
</g>
</g>
<!-- Node0&#45;&gt;Node6 -->
<g id="edge6" class="edge">
<title>Node0&#45;&gt;Node6</title>
<path fill="none" stroke="#ffa500" d="M1163.3874,-132.389C1116.676,-124.7907 1059.6835,-113.5306 1010,-98 984.9806,-90.1792 958.5041,-79.2316 935.2241,-68.6258"/>
<polygon fill="#ffa500" stroke="#ffa500" points="1163.07,-135.8825 1173.4968,-134.0026 1164.1735,-128.97 1163.07,-135.8825"/>
<text text-anchor="middle" x="1054.5" y="-90" font-family="Helvetica,sans-Serif" font-size="10.00" fill="#000000"> &lt; aod::FooBars &gt;</text>
</g>
<!-- Node7 -->
<g id="node8" class="node">
<title>Node7</title>
<g id="a_node8"><a xlink:href="../../d6/d86/structo2_1_1framework_1_1Produces.html" target="_top" xlink:title="{o2::framework::Produces\l\&lt; aod::EtaPhiPt \&gt;\n||}">
<polygon fill="none" stroke="#000000" points="954,-.5 954,-68.5 1092,-68.5 1092,-.5 954,-.5"/>
<text text-anchor="start" x="962" y="-56.5" font-family="Helvetica,sans-Serif" font-size="10.00" fill="#000000">o2::framework::Produces</text>
<text text-anchor="middle" x="1023" y="-45.5" font-family="Helvetica,sans-Serif" font-size="10.00" fill="#000000">&lt; aod::EtaPhiPt &gt;</text>
<polyline fill="none" stroke="#000000" points="954,-38.5 1092,-38.5 "/>
<text text-anchor="middle" x="1023" y="-26.5" font-family="Helvetica,sans-Serif" font-size="10.00" fill="#000000"> </text>
<polyline fill="none" stroke="#000000" points="954,-19.5 1092,-19.5 "/>
<text text-anchor="middle" x="1023" y="-7.5" font-family="Helvetica,sans-Serif" font-size="10.00" fill="#000000"> </text>
</a>
</g>
</g>
<!-- Node0&#45;&gt;Node7 -->
<g id="edge7" class="edge">
<title>Node0&#45;&gt;Node7</title>
<path fill="none" stroke="#ffa500" d="M1163.6744,-115.3675C1149.8251,-110.0831 1135.8866,-104.2496 1123,-98 1105.6984,-89.6093 1087.6955,-78.8771 1071.8115,-68.6331"/>
<polygon fill="#ffa500" stroke="#ffa500" points="1162.6416,-118.7178 1173.2341,-118.9366 1165.09,-112.16 1162.6416,-118.7178"/>
<text text-anchor="middle" x="1168.5" y="-90" font-family="Helvetica,sans-Serif" font-size="10.00" fill="#000000"> &lt; aod::EtaPhiPt &gt;</text>
</g>
<!-- Node8 -->
<g id="node9" class="node">
<title>Node8</title>
<g id="a_node9"><a xlink:href="../../d6/d86/structo2_1_1framework_1_1Produces.html" target="_top" xlink:title="{o2::framework::Produces\l\&lt; aod::Tre \&gt;\n||}">
<polygon fill="none" stroke="#000000" points="1110,-.5 1110,-68.5 1248,-68.5 1248,-.5 1110,-.5"/>
<text text-anchor="start" x="1118" y="-56.5" font-family="Helvetica,sans-Serif" font-size="10.00" fill="#000000">o2::framework::Produces</text>
<text text-anchor="middle" x="1179" y="-45.5" font-family="Helvetica,sans-Serif" font-size="10.00" fill="#000000">&lt; aod::Tre &gt;</text>
<polyline fill="none" stroke="#000000" points="1110,-38.5 1248,-38.5 "/>
<text text-anchor="middle" x="1179" y="-26.5" font-family="Helvetica,sans-Serif" font-size="10.00" fill="#000000"> </text>
<polyline fill="none" stroke="#000000" points="1110,-19.5 1248,-19.5 "/>
<text text-anchor="middle" x="1179" y="-7.5" font-family="Helvetica,sans-Serif" font-size="10.00" fill="#000000"> </text>
</a>
</g>
</g>
<!-- Node0&#45;&gt;Node8 -->
<g id="edge8" class="edge">
<title>Node0&#45;&gt;Node8</title>
<path fill="none" stroke="#ffa500" d="M1230.7075,-107.7524C1221.7677,-95.0876 1211.8278,-81.006 1203.0706,-68.6001"/>
<polygon fill="#ffa500" stroke="#ffa500" points="1228.0838,-110.1046 1236.71,-116.2559 1233.8026,-106.0678 1228.0838,-110.1046"/>
<text text-anchor="middle" x="1255" y="-90" font-family="Helvetica,sans-Serif" font-size="10.00" fill="#000000"> &lt; aod::Tre &gt;</text>
</g>
<!-- Node9 -->
<g id="node10" class="node">
<title>Node9</title>
<g id="a_node10"><a xlink:href="../../d6/d86/structo2_1_1framework_1_1Produces.html" target="_top" xlink:title="{o2::framework::Produces\l\&lt; aod::Cents \&gt;\n||}">
<polygon fill="none" stroke="#000000" points="1266,-.5 1266,-68.5 1404,-68.5 1404,-.5 1266,-.5"/>
<text text-anchor="start" x="1274" y="-56.5" font-family="Helvetica,sans-Serif" font-size="10.00" fill="#000000">o2::framework::Produces</text>
<text text-anchor="middle" x="1335" y="-45.5" font-family="Helvetica,sans-Serif" font-size="10.00" fill="#000000">&lt; aod::Cents &gt;</text>
<polyline fill="none" stroke="#000000" points="1266,-38.5 1404,-38.5 "/>
<text text-anchor="middle" x="1335" y="-26.5" font-family="Helvetica,sans-Serif" font-size="10.00" fill="#000000"> </text>
<polyline fill="none" stroke="#000000" points="1266,-19.5 1404,-19.5 "/>
<text text-anchor="middle" x="1335" y="-7.5" font-family="Helvetica,sans-Serif" font-size="10.00" fill="#000000"> </text>
</a>
</g>
</g>
<!-- Node0&#45;&gt;Node9 -->
<g id="edge9" class="edge">
<title>Node0&#45;&gt;Node9</title>
<path fill="none" stroke="#ffa500" d="M1283.912,-107.9456C1286.3176,-104.589 1288.7085,-101.2363 1291,-98 1297.7429,-88.4768 1304.9844,-78.0926 1311.607,-68.5324"/>
<polygon fill="#ffa500" stroke="#ffa500" points="1280.9485,-106.0717 1277.9506,-116.2336 1286.6312,-110.1593 1280.9485,-106.0717"/>
<text text-anchor="middle" x="1338" y="-90" font-family="Helvetica,sans-Serif" font-size="10.00" fill="#000000"> &lt; aod::Cents &gt;</text>
</g>
<!-- Node10 -->
<g id="node11" class="node">
<title>Node10</title>
<g id="a_node11"><a xlink:href="../../d6/d86/structo2_1_1framework_1_1Produces.html" target="_top" xlink:title="{o2::framework::Produces\l\&lt; aod::Uno \&gt;\n||}">
<polygon fill="none" stroke="#000000" points="1422,-.5 1422,-68.5 1560,-68.5 1560,-.5 1422,-.5"/>
<text text-anchor="start" x="1430" y="-56.5" font-family="Helvetica,sans-Serif" font-size="10.00" fill="#000000">o2::framework::Produces</text>
<text text-anchor="middle" x="1491" y="-45.5" font-family="Helvetica,sans-Serif" font-size="10.00" fill="#000000">&lt; aod::Uno &gt;</text>
<polyline fill="none" stroke="#000000" points="1422,-38.5 1560,-38.5 "/>
<text text-anchor="middle" x="1491" y="-26.5" font-family="Helvetica,sans-Serif" font-size="10.00" fill="#000000"> </text>
<polyline fill="none" stroke="#000000" points="1422,-19.5 1560,-19.5 "/>
<text text-anchor="middle" x="1491" y="-7.5" font-family="Helvetica,sans-Serif" font-size="10.00" fill="#000000"> </text>
</a>
</g>
</g>
<!-- Node0&#45;&gt;Node10 -->
<g id="edge10" class="edge">
<title>Node0&#45;&gt;Node10</title>
<path fill="none" stroke="#ffa500" d="M1347.6747,-112.5799C1359.0125,-107.9576 1370.3559,-103.0491 1381,-98 1399.3292,-89.3055 1418.6908,-78.6591 1435.9756,-68.5867"/>
<polygon fill="#ffa500" stroke="#ffa500" points="1346.1467,-109.4217 1338.1678,-116.3922 1348.7521,-115.9188 1346.1467,-109.4217"/>
<text text-anchor="middle" x="1438" y="-90" font-family="Helvetica,sans-Serif" font-size="10.00" fill="#000000"> &lt; aod::Uno &gt;</text>
</g>
<!-- Node11 -->
<g id="node12" class="node">
<title>Node11</title>
<g id="a_node12"><a xlink:href="../../d6/d86/structo2_1_1framework_1_1Produces.html" target="_top" xlink:title="{o2::framework::Produces\l\&lt; aod::Cand2Prong \&gt;\n||}">
<polygon fill="none" stroke="#000000" points="1578,-.5 1578,-68.5 1716,-68.5 1716,-.5 1578,-.5"/>
<text text-anchor="start" x="1586" y="-56.5" font-family="Helvetica,sans-Serif" font-size="10.00" fill="#000000">o2::framework::Produces</text>
<text text-anchor="middle" x="1647" y="-45.5" font-family="Helvetica,sans-Serif" font-size="10.00" fill="#000000">&lt; aod::Cand2Prong &gt;</text>
<polyline fill="none" stroke="#000000" points="1578,-38.5 1716,-38.5 "/>
<text text-anchor="middle" x="1647" y="-26.5" font-family="Helvetica,sans-Serif" font-size="10.00" fill="#000000"> </text>
<polyline fill="none" stroke="#000000" points="1578,-19.5 1716,-19.5 "/>
<text text-anchor="middle" x="1647" y="-7.5" font-family="Helvetica,sans-Serif" font-size="10.00" fill="#000000"> </text>
</a>
</g>
</g>
<!-- Node0&#45;&gt;Node11 -->
<g id="edge11" class="edge">
<title>Node0&#45;&gt;Node11</title>
<path fill="none" stroke="#ffa500" d="M1350.6833,-128.3978C1413.5967,-115.7491 1497.7051,-95.9088 1569,-69 1571.9092,-67.902 1574.866,-66.752 1577.8429,-65.5658"/>
<polygon fill="#ffa500" stroke="#ffa500" points="1349.8999,-124.9849 1340.7733,-130.366 1351.2636,-131.8508 1349.8999,-124.9849"/>
<text text-anchor="middle" x="1565.5" y="-90" font-family="Helvetica,sans-Serif" font-size="10.00" fill="#000000"> &lt; aod::Cand2Prong &gt;</text>
</g>
<!-- Node12 -->
<g id="node13" class="node">
<title>Node12</title>
<g id="a_node13"><a xlink:href="../../d6/d86/structo2_1_1framework_1_1Produces.html" target="_top" xlink:title="{o2::framework::Produces\l\&lt; aod::TrackSelection \&gt;\n||}">
<polygon fill="none" stroke="#000000" points="1734,-.5 1734,-68.5 1872,-68.5 1872,-.5 1734,-.5"/>
<text text-anchor="start" x="1742" y="-56.5" font-family="Helvetica,sans-Serif" font-size="10.00" fill="#000000">o2::framework::Produces</text>
<text text-anchor="middle" x="1803" y="-45.5" font-family="Helvetica,sans-Serif" font-size="10.00" fill="#000000">&lt; aod::TrackSelection &gt;</text>
<polyline fill="none" stroke="#000000" points="1734,-38.5 1872,-38.5 "/>
<text text-anchor="middle" x="1803" y="-26.5" font-family="Helvetica,sans-Serif" font-size="10.00" fill="#000000"> </text>
<polyline fill="none" stroke="#000000" points="1734,-19.5 1872,-19.5 "/>
<text text-anchor="middle" x="1803" y="-7.5" font-family="Helvetica,sans-Serif" font-size="10.00" fill="#000000"> </text>
</a>
</g>
</g>
<!-- Node0&#45;&gt;Node12 -->
<g id="edge12" class="edge">
<title>Node0&#45;&gt;Node12</title>
<path fill="none" stroke="#ffa500" d="M1350.5205,-140.0823C1446.8777,-132.6708 1600.193,-114.2787 1725,-69 1727.9231,-67.9395 1730.8915,-66.8209 1733.8781,-65.6608"/>
<polygon fill="#ffa500" stroke="#ffa500" points="1350.2204,-136.5948 1340.5082,-140.8286 1350.7408,-143.5755 1350.2204,-136.5948"/>
<text text-anchor="middle" x="1724.5" y="-90" font-family="Helvetica,sans-Serif" font-size="10.00" fill="#000000"> &lt; aod::TrackSelection &gt;</text>
</g>
<!-- Node13 -->
<g id="node14" class="node">
<title>Node13</title>
<g id="a_node14"><a xlink:href="../../d6/d86/structo2_1_1framework_1_1Produces.html" target="_top" xlink:title="{o2::framework::Produces\l\&lt; aod::EtaPhis \&gt;\n||}">
<polygon fill="none" stroke="#000000" points="1890,-.5 1890,-68.5 2028,-68.5 2028,-.5 1890,-.5"/>
<text text-anchor="start" x="1898" y="-56.5" font-family="Helvetica,sans-Serif" font-size="10.00" fill="#000000">o2::framework::Produces</text>
<text text-anchor="middle" x="1959" y="-45.5" font-family="Helvetica,sans-Serif" font-size="10.00" fill="#000000">&lt; aod::EtaPhis &gt;</text>
<polyline fill="none" stroke="#000000" points="1890,-38.5 2028,-38.5 "/>
<text text-anchor="middle" x="1959" y="-26.5" font-family="Helvetica,sans-Serif" font-size="10.00" fill="#000000"> </text>
<polyline fill="none" stroke="#000000" points="1890,-19.5 2028,-19.5 "/>
<text text-anchor="middle" x="1959" y="-7.5" font-family="Helvetica,sans-Serif" font-size="10.00" fill="#000000"> </text>
</a>
</g>
</g>
<!-- Node0&#45;&gt;Node13 -->
<g id="edge13" class="edge">
<title>Node0&#45;&gt;Node13</title>
<path fill="none" stroke="#ffa500" d="M1350.8504,-142.8568C1457.827,-138.9978 1637.4842,-128.1995 1789,-98 1823.1421,-91.1949 1859.4833,-78.4336 1889.764,-66.1259"/>
<polygon fill="#ffa500" stroke="#ffa500" points="1350.6003,-139.3632 1340.7281,-143.209 1350.8438,-146.359 1350.6003,-139.3632"/>
<text text-anchor="middle" x="1871" y="-90" font-family="Helvetica,sans-Serif" font-size="10.00" fill="#000000"> &lt; aod::EtaPhis &gt;</text>
</g>
<!-- Node14 -->
<g id="node15" class="node">
<title>Node14</title>
<g id="a_node15"><a xlink:href="../../d6/d86/structo2_1_1framework_1_1Produces.html" target="_top" xlink:title="{o2::framework::Produces\l\&lt; o2::aod::Jets \&gt;\n||}">
<polygon fill="none" stroke="#000000" points="2046,-.5 2046,-68.5 2184,-68.5 2184,-.5 2046,-.5"/>
<text text-anchor="start" x="2054" y="-56.5" font-family="Helvetica,sans-Serif" font-size="10.00" fill="#000000">o2::framework::Produces</text>
<text text-anchor="middle" x="2115" y="-45.5" font-family="Helvetica,sans-Serif" font-size="10.00" fill="#000000">&lt; o2::aod::Jets &gt;</text>
<polyline fill="none" stroke="#000000" points="2046,-38.5 2184,-38.5 "/>
<text text-anchor="middle" x="2115" y="-26.5" font-family="Helvetica,sans-Serif" font-size="10.00" fill="#000000"> </text>
<polyline fill="none" stroke="#000000" points="2046,-19.5 2184,-19.5 "/>
<text text-anchor="middle" x="2115" y="-7.5" font-family="Helvetica,sans-Serif" font-size="10.00" fill="#000000"> </text>
</a>
</g>
</g>
<!-- Node0&#45;&gt;Node14 -->
<g id="edge14" class="edge">
<title>Node0&#45;&gt;Node14</title>
<path fill="none" stroke="#ffa500" d="M1350.9327,-143.2785C1479.5979,-139.7949 1717.5487,-129.3236 1918,-98 1971.784,-89.5954 1985.4608,-86.5233 2037,-69 2039.944,-67.999 2042.9299,-66.9302 2045.9309,-65.8112"/>
<polygon fill="#ffa500" stroke="#ffa500" points="1350.6276,-139.7853 1340.7228,-143.5465 1350.8113,-146.7828 1350.6276,-139.7853"/>
<text text-anchor="middle" x="2020" y="-90" font-family="Helvetica,sans-Serif" font-size="10.00" fill="#000000"> &lt; o2::aod::Jets &gt;</text>
</g>
<!-- Node15 -->
<g id="node16" class="node">
<title>Node15</title>
<g id="a_node16"><a xlink:href="../../d6/d86/structo2_1_1framework_1_1Produces.html" target="_top" xlink:title="{o2::framework::Produces\l\&lt; aod::Mults \&gt;\n||}">
<polygon fill="none" stroke="#000000" points="2202,-.5 2202,-68.5 2340,-68.5 2340,-.5 2202,-.5"/>
<text text-anchor="start" x="2210" y="-56.5" font-family="Helvetica,sans-Serif" font-size="10.00" fill="#000000">o2::framework::Produces</text>
<text text-anchor="middle" x="2271" y="-45.5" font-family="Helvetica,sans-Serif" font-size="10.00" fill="#000000">&lt; aod::Mults &gt;</text>
<polyline fill="none" stroke="#000000" points="2202,-38.5 2340,-38.5 "/>
<text text-anchor="middle" x="2271" y="-26.5" font-family="Helvetica,sans-Serif" font-size="10.00" fill="#000000"> </text>
<polyline fill="none" stroke="#000000" points="2202,-19.5 2340,-19.5 "/>
<text text-anchor="middle" x="2271" y="-7.5" font-family="Helvetica,sans-Serif" font-size="10.00" fill="#000000"> </text>
</a>
</g>
</g>
<!-- Node0&#45;&gt;Node15 -->
<g id="edge15" class="edge">
<title>Node0&#45;&gt;Node15</title>
<path fill="none" stroke="#ffa500" d="M1350.7547,-141.5457C1533.4841,-134.4852 1931.2573,-117.4185 2067,-98 2123.885,-89.8624 2138.4771,-87.1488 2193,-69 2195.9503,-68.0179 2198.9415,-66.9648 2201.947,-65.859"/>
<polygon fill="#ffa500" stroke="#ffa500" points="1350.4828,-138.0534 1340.6248,-141.9353 1350.752,-145.0483 1350.4828,-138.0534"/>
<text text-anchor="middle" x="2169" y="-90" font-family="Helvetica,sans-Serif" font-size="10.00" fill="#000000"> &lt; aod::Mults &gt;</text>
</g>
<!-- Node16 -->
<g id="node17" class="node">
<title>Node16</title>
<g id="a_node17"><a xlink:href="../../d6/d86/structo2_1_1framework_1_1Produces.html" target="_top" xlink:title="{o2::framework::Produces\l\&lt; aod::EtaPhi \&gt;\n||}">
<polygon fill="none" stroke="#000000" points="2358,-.5 2358,-68.5 2496,-68.5 2496,-.5 2358,-.5"/>
<text text-anchor="start" x="2366" y="-56.5" font-family="Helvetica,sans-Serif" font-size="10.00" fill="#000000">o2::framework::Produces</text>
<text text-anchor="middle" x="2427" y="-45.5" font-family="Helvetica,sans-Serif" font-size="10.00" fill="#000000">&lt; aod::EtaPhi &gt;</text>
<polyline fill="none" stroke="#000000" points="2358,-38.5 2496,-38.5 "/>
<text text-anchor="middle" x="2427" y="-26.5" font-family="Helvetica,sans-Serif" font-size="10.00" fill="#000000"> </text>
<polyline fill="none" stroke="#000000" points="2358,-19.5 2496,-19.5 "/>
<text text-anchor="middle" x="2427" y="-7.5" font-family="Helvetica,sans-Serif" font-size="10.00" fill="#000000"> </text>
</a>
</g>
</g>
<!-- Node0&#45;&gt;Node16 -->
<g id="edge16" class="edge">
<title>Node0&#45;&gt;Node16</title>
<path fill="none" stroke="#ffa500" d="M1350.7544,-142.268C1557.3794,-135.9395 2046.6367,-119.184 2211,-98 2273.1588,-89.9886 2289.3486,-88.2254 2349,-69 2351.9596,-68.0461 2354.9585,-67.0166 2357.9703,-65.9303"/>
<polygon fill="#ffa500" stroke="#ffa500" points="1350.423,-138.7764 1340.5343,-142.5796 1350.6364,-145.7732 1350.423,-138.7764"/>
<text text-anchor="middle" x="2324.5" y="-90" font-family="Helvetica,sans-Serif" font-size="10.00" fill="#000000"> &lt; aod::EtaPhi &gt;</text>
</g>
</g>
</svg>
