<?xml version="1.0" encoding="UTF-8" standalone="no"?>
<!DOCTYPE svg PUBLIC "-//W3C//DTD SVG 1.1//EN"
 "http://www.w3.org/Graphics/SVG/1.1/DTD/svg11.dtd">
<!-- Generated by graphviz version 2.40.1 (20161225.0304)
 -->
<!-- Title: EventSelectionTask Pages: 1 -->
<svg width="411pt" height="331pt"
 viewBox="0.00 0.00 411.00 331.00" xmlns="http://www.w3.org/2000/svg" xmlns:xlink="http://www.w3.org/1999/xlink">
<g id="graph0" class="graph" transform="scale(1 1) rotate(0) translate(4 327)">
<title>EventSelectionTask</title>
<!-- Node1 -->
<g id="node1" class="node">
<title>Node1</title>
<polygon fill="#bfbfbf" stroke="#000000" points="169,-.5 169,-101.5 280,-101.5 280,-.5 169,-.5"/>
<text text-anchor="middle" x="224.5" y="-89.5" font-family="Helvetica,sans-Serif" font-size="10.00" fill="#000000">EventSelectionTask</text>
<polyline fill="none" stroke="#000000" points="169,-82.5 280,-82.5 "/>
<text text-anchor="middle" x="224.5" y="-70.5" font-family="Helvetica,sans-Serif" font-size="10.00" fill="#000000"> </text>
<polyline fill="none" stroke="#000000" points="169,-63.5 280,-63.5 "/>
<text text-anchor="start" x="177" y="-51.5" font-family="Helvetica,sans-Serif" font-size="10.00" fill="#000000">+ getVZero()</text>
<text text-anchor="start" x="177" y="-40.5" font-family="Helvetica,sans-Serif" font-size="10.00" fill="#000000">+ getZdc()</text>
<text text-anchor="start" x="177" y="-29.5" font-family="Helvetica,sans-Serif" font-size="10.00" fill="#000000">+ createAliases()</text>
<text text-anchor="start" x="177" y="-18.5" font-family="Helvetica,sans-Serif" font-size="10.00" fill="#000000">+ init()</text>
<text text-anchor="start" x="177" y="-7.5" font-family="Helvetica,sans-Serif" font-size="10.00" fill="#000000">+ process()</text>
</g>
<!-- Node2 -->
<g id="node2" class="node">
<title>Node2</title>
<g id="a_node2"><a xlink:href="../../d6/d86/structo2_1_1framework_1_1Produces.html" target="_top" xlink:title="{o2::framework::Produces\l\&lt; aod::EvSels \&gt;\n||}">
<polygon fill="none" stroke="#000000" points="14.5,-149.5 14.5,-217.5 152.5,-217.5 152.5,-149.5 14.5,-149.5"/>
<text text-anchor="start" x="22.5" y="-205.5" font-family="Helvetica,sans-Serif" font-size="10.00" fill="#000000">o2::framework::Produces</text>
<text text-anchor="middle" x="83.5" y="-194.5" font-family="Helvetica,sans-Serif" font-size="10.00" fill="#000000">&lt; aod::EvSels &gt;</text>
<polyline fill="none" stroke="#000000" points="14.5,-187.5 152.5,-187.5 "/>
<text text-anchor="middle" x="83.5" y="-175.5" font-family="Helvetica,sans-Serif" font-size="10.00" fill="#000000"> </text>
<polyline fill="none" stroke="#000000" points="14.5,-168.5 152.5,-168.5 "/>
<text text-anchor="middle" x="83.5" y="-156.5" font-family="Helvetica,sans-Serif" font-size="10.00" fill="#000000"> </text>
</a>
</g>
</g>
<!-- Node2&#45;&gt;Node1 -->
<g id="edge1" class="edge">
<title>Node2&#45;&gt;Node1</title>
<path fill="none" stroke="#404040" d="M119.811,-149.378C132.6497,-137.3133 147.4843,-123.3729 161.8756,-109.8492"/>
<polygon fill="none" stroke="#404040" points="162.0123,-109.7207 163.6455,-102.6969 170.7571,-101.5031 169.1239,-108.5268 162.0123,-109.7207"/>
<text text-anchor="middle" x="169.5" y="-123" font-family="Helvetica,sans-Serif" font-size="10.00" fill="#000000"> +evsel</text>
</g>
<!-- Node3 -->
<g id="node3" class="node">
<title>Node3</title>
<g id="a_node3"><a xlink:href="../../d6/d86/structo2_1_1framework_1_1Produces.html" target="_top" xlink:title="{o2::framework::Produces\&lt; T \&gt;\n||}">
<polygon fill="none" stroke="#000000" points="0,-265.5 0,-322.5 167,-322.5 167,-265.5 0,-265.5"/>
<text text-anchor="middle" x="83.5" y="-310.5" font-family="Helvetica,sans-Serif" font-size="10.00" fill="#000000">o2::framework::Produces&lt; T &gt;</text>
<polyline fill="none" stroke="#000000" points="0,-303.5 167,-303.5 "/>
<text text-anchor="middle" x="83.5" y="-291.5" font-family="Helvetica,sans-Serif" font-size="10.00" fill="#000000"> </text>
<polyline fill="none" stroke="#000000" points="0,-284.5 167,-284.5 "/>
<text text-anchor="middle" x="83.5" y="-272.5" font-family="Helvetica,sans-Serif" font-size="10.00" fill="#000000"> </text>
</a>
</g>
</g>
<!-- Node3&#45;&gt;Node2 -->
<g id="edge2" class="edge">
<title>Node3&#45;&gt;Node2</title>
<path fill="none" stroke="#ffa500" d="M83.5,-254.9162C83.5,-242.7375 83.5,-229.4096 83.5,-217.6001"/>
<polygon fill="#ffa500" stroke="#ffa500" points="80.0001,-255.2559 83.5,-265.2559 87.0001,-255.2559 80.0001,-255.2559"/>
<text text-anchor="middle" x="124.5" y="-239" font-family="Helvetica,sans-Serif" font-size="10.00" fill="#000000"> &lt; aod::EvSels &gt;</text>
</g>
<!-- Node4 -->
<g id="node4" class="node">
<title>Node4</title>
<polygon fill="none" stroke="#bfbfbf" points="171,-155 171,-212 278,-212 278,-155 171,-155"/>
<text text-anchor="middle" x="224.5" y="-200" font-family="Helvetica,sans-Serif" font-size="10.00" fill="#000000">map&lt; string, int &gt;</text>
<polyline fill="none" stroke="#bfbfbf" points="171,-193 278,-193 "/>
<text text-anchor="middle" x="224.5" y="-181" font-family="Helvetica,sans-Serif" font-size="10.00" fill="#000000"> </text>
<polyline fill="none" stroke="#bfbfbf" points="171,-174 278,-174 "/>
<text text-anchor="middle" x="224.5" y="-162" font-family="Helvetica,sans-Serif" font-size="10.00" fill="#000000"> </text>
</g>
<!-- Node4&#45;&gt;Node1 -->
<g id="edge3" class="edge">
<title>Node4&#45;&gt;Node1</title>
<path fill="none" stroke="#404040" d="M224.5,-154.7495C224.5,-142.7404 224.5,-128.2802 224.5,-114.0201"/>
<polygon fill="none" stroke="#404040" points="224.5001,-113.6065 220.5,-107.6065 224.5,-101.6065 228.5,-107.6065 224.5001,-113.6065"/>
<text text-anchor="middle" x="254" y="-123" font-family="Helvetica,sans-Serif" font-size="10.00" fill="#000000"> +mClasses</text>
</g>
<!-- Node5 -->
<g id="node5" class="node">
<title>Node5</title>
<polygon fill="none" stroke="#bfbfbf" points="260.5,-265.5 260.5,-322.5 298.5,-322.5 298.5,-265.5 260.5,-265.5"/>
<text text-anchor="middle" x="279.5" y="-310.5" font-family="Helvetica,sans-Serif" font-size="10.00" fill="#000000">map</text>
<polyline fill="none" stroke="#bfbfbf" points="260.5,-303.5 298.5,-303.5 "/>
<text text-anchor="middle" x="279.5" y="-291.5" font-family="Helvetica,sans-Serif" font-size="10.00" fill="#000000"> </text>
<polyline fill="none" stroke="#bfbfbf" points="260.5,-284.5 298.5,-284.5 "/>
<text text-anchor="middle" x="279.5" y="-272.5" font-family="Helvetica,sans-Serif" font-size="10.00" fill="#000000"> </text>
</g>
<!-- Node5&#45;&gt;Node4 -->
<g id="edge4" class="edge">
<title>Node5&#45;&gt;Node4</title>
<path fill="none" stroke="#ffa500" d="M254.5976,-260.9289C251.6677,-256.3685 248.8795,-251.6517 246.5,-247 240.8678,-235.9897 236.128,-223.2104 232.5071,-212.0147"/>
<polygon fill="#ffa500" stroke="#ffa500" points="251.8463,-263.1093 260.3362,-269.4475 257.6519,-259.1983 251.8463,-263.1093"/>
<text text-anchor="middle" x="283" y="-239" font-family="Helvetica,sans-Serif" font-size="10.00" fill="#000000"> &lt; string, int &gt;</text>
</g>
<!-- Node6 -->
<g id="node6" class="node">
<title>Node6</title>
<polygon fill="none" stroke="#bfbfbf" points="296,-155 296,-212 403,-212 403,-155 296,-155"/>
<text text-anchor="middle" x="349.5" y="-200" font-family="Helvetica,sans-Serif" font-size="10.00" fill="#000000">map&lt; int, string &gt;</text>
<polyline fill="none" stroke="#bfbfbf" points="296,-193 403,-193 "/>
<text text-anchor="middle" x="349.5" y="-181" font-family="Helvetica,sans-Serif" font-size="10.00" fill="#000000"> </text>
<polyline fill="none" stroke="#bfbfbf" points="296,-174 403,-174 "/>
<text text-anchor="middle" x="349.5" y="-162" font-family="Helvetica,sans-Serif" font-size="10.00" fill="#000000"> </text>
</g>
<!-- Node5&#45;&gt;Node6 -->
<g id="edge6" class="edge">
<title>Node5&#45;&gt;Node6</title>
<path fill="none" stroke="#ffa500" d="M305.4077,-265.9805C310.3907,-259.9439 315.345,-253.4364 319.5,-247 326.5095,-236.1417 332.8577,-223.3885 337.8905,-212.1712"/>
<polygon fill="#ffa500" stroke="#ffa500" points="302.5021,-263.9931 298.6672,-273.8696 307.8242,-268.5403 302.5021,-263.9931"/>
<text text-anchor="middle" x="362" y="-239" font-family="Helvetica,sans-Serif" font-size="10.00" fill="#000000"> &lt; int, string &gt;</text>
</g>
<!-- Node6&#45;&gt;Node1 -->
<g id="edge5" class="edge">
<title>Node6&#45;&gt;Node1</title>
<path fill="none" stroke="#404040" d="M322.3769,-154.7495C310.1321,-141.77 295.1861,-125.9272 280.6966,-110.5684"/>
<polygon fill="none" stroke="#404040" points="280.4767,-110.3353 273.4497,-108.7158 272.242,-101.6065 279.2689,-103.226 280.4767,-110.3353"/>
<text text-anchor="middle" x="327" y="-123" font-family="Helvetica,sans-Serif" font-size="10.00" fill="#000000"> +mAliases</text>
</g>
</g>
</svg>
