<?xml version="1.0" encoding="UTF-8" standalone="no"?>
<!DOCTYPE svg PUBLIC "-//W3C//DTD SVG 1.1//EN"
 "http://www.w3.org/Graphics/SVG/1.1/DTD/svg11.dtd">
<!-- Generated by graphviz version 2.40.1 (20161225.0304)
 -->
<!-- Title: /home/travis/build/AliceO2Group/AliceO2/Detectors/MUON/MCH/Mapping/Interface/include/MCHMappingInterface/Segmentation.h Pages: 1 -->
<svg width="2877pt" height="261pt"
 viewBox="0.00 0.00 2877.00 261.00" xmlns="http://www.w3.org/2000/svg" xmlns:xlink="http://www.w3.org/1999/xlink">
<g id="graph0" class="graph" transform="scale(1 1) rotate(0) translate(4 257)">
<title>/home/travis/build/AliceO2Group/AliceO2/Detectors/MUON/MCH/Mapping/Interface/include/MCHMappingInterface/Segmentation.h</title>
<!-- Node11 -->
<g id="node1" class="node">
<title>Node11</title>
<polygon fill="#bfbfbf" stroke="#000000" points="1360,-189.5 1360,-252.5 1572,-252.5 1572,-189.5 1360,-189.5"/>
<text text-anchor="start" x="1368" y="-240.5" font-family="Helvetica,sans-Serif" font-size="10.00" fill="#000000">/home/travis/build</text>
<text text-anchor="start" x="1368" y="-229.5" font-family="Helvetica,sans-Serif" font-size="10.00" fill="#000000">/AliceO2Group/AliceO2</text>
<text text-anchor="start" x="1368" y="-218.5" font-family="Helvetica,sans-Serif" font-size="10.00" fill="#000000">/Detectors/MUON/MCH/Mapping</text>
<text text-anchor="start" x="1368" y="-207.5" font-family="Helvetica,sans-Serif" font-size="10.00" fill="#000000">/Interface/include/MCHMappingInterface</text>
<text text-anchor="middle" x="1466" y="-196.5" font-family="Helvetica,sans-Serif" font-size="10.00" fill="#000000">/Segmentation.h</text>
</g>
<!-- Node12 -->
<g id="node2" class="node">
<title>Node12</title>
<g id="a_node2"><a xlink:href="../../d4/d61/cli_8cxx.html" target="_top" xlink:title="/home/travis/build\l/AliceO2Group/AliceO2\l/Detectors/MUON/MCH/Mapping\l/cli/cli.cxx">
<polygon fill="none" stroke="#000000" points="0,-95 0,-147 170,-147 170,-95 0,-95"/>
<text text-anchor="start" x="8" y="-135" font-family="Helvetica,sans-Serif" font-size="10.00" fill="#000000">/home/travis/build</text>
<text text-anchor="start" x="8" y="-124" font-family="Helvetica,sans-Serif" font-size="10.00" fill="#000000">/AliceO2Group/AliceO2</text>
<text text-anchor="start" x="8" y="-113" font-family="Helvetica,sans-Serif" font-size="10.00" fill="#000000">/Detectors/MUON/MCH/Mapping</text>
<text text-anchor="middle" x="85" y="-102" font-family="Helvetica,sans-Serif" font-size="10.00" fill="#000000">/cli/cli.cxx</text>
</a>
</g>
</g>
<!-- Node11&#45;&gt;Node12 -->
<g id="edge1" class="edge">
<title>Node11&#45;&gt;Node12</title>
<path fill="none" stroke="#191970" d="M1349.598,-218.9425C1076.576,-213.4552 401.3371,-195.8644 179,-153 170.9595,-151.4499 162.6665,-149.3733 154.4917,-147.019"/>
<polygon fill="#191970" stroke="#191970" points="1349.8609,-222.4483 1359.9286,-219.1482 1350.0003,-215.4497 1349.8609,-222.4483"/>
</g>
<!-- Node13 -->
<g id="node3" class="node">
<title>Node13</title>
<g id="a_node3"><a xlink:href="../../d7/d47/Impl3_2src_2CreateSegmentation_8cxx.html" target="_top" xlink:title="/home/travis/build\l/AliceO2Group/AliceO2\l/Detectors/MUON/MCH/Mapping\l/Impl3/src/CreateSegmentation.cxx">
<polygon fill="none" stroke="#000000" points="188,-95 188,-147 376,-147 376,-95 188,-95"/>
<text text-anchor="start" x="196" y="-135" font-family="Helvetica,sans-Serif" font-size="10.00" fill="#000000">/home/travis/build</text>
<text text-anchor="start" x="196" y="-124" font-family="Helvetica,sans-Serif" font-size="10.00" fill="#000000">/AliceO2Group/AliceO2</text>
<text text-anchor="start" x="196" y="-113" font-family="Helvetica,sans-Serif" font-size="10.00" fill="#000000">/Detectors/MUON/MCH/Mapping</text>
<text text-anchor="middle" x="282" y="-102" font-family="Helvetica,sans-Serif" font-size="10.00" fill="#000000">/Impl3/src/CreateSegmentation.cxx</text>
</a>
</g>
</g>
<!-- Node11&#45;&gt;Node13 -->
<g id="edge2" class="edge">
<title>Node11&#45;&gt;Node13</title>
<path fill="none" stroke="#191970" d="M1349.8525,-217.1936C1110.0354,-208.7609 567.3192,-186.5579 385,-153 376.4367,-151.4238 367.586,-149.3645 358.8348,-147.0494"/>
<polygon fill="#191970" stroke="#191970" points="1349.8806,-220.6966 1359.9969,-217.5484 1350.1254,-213.7009 1349.8806,-220.6966"/>
</g>
<!-- Node14 -->
<g id="node4" class="node">
<title>Node14</title>
<g id="a_node4"><a xlink:href="../../d3/d19/Impl4_2src_2CreateSegmentation_8cxx.html" target="_top" xlink:title="/home/travis/build\l/AliceO2Group/AliceO2\l/Detectors/MUON/MCH/Mapping\l/Impl4/src/CreateSegmentation.cxx">
<polygon fill="none" stroke="#000000" points="394,-95 394,-147 582,-147 582,-95 394,-95"/>
<text text-anchor="start" x="402" y="-135" font-family="Helvetica,sans-Serif" font-size="10.00" fill="#000000">/home/travis/build</text>
<text text-anchor="start" x="402" y="-124" font-family="Helvetica,sans-Serif" font-size="10.00" fill="#000000">/AliceO2Group/AliceO2</text>
<text text-anchor="start" x="402" y="-113" font-family="Helvetica,sans-Serif" font-size="10.00" fill="#000000">/Detectors/MUON/MCH/Mapping</text>
<text text-anchor="middle" x="488" y="-102" font-family="Helvetica,sans-Serif" font-size="10.00" fill="#000000">/Impl4/src/CreateSegmentation.cxx</text>
</a>
</g>
</g>
<!-- Node11&#45;&gt;Node14 -->
<g id="edge3" class="edge">
<title>Node11&#45;&gt;Node14</title>
<path fill="none" stroke="#191970" d="M1349.5977,-215.1913C1145.9358,-204.4877 733.1004,-180.2391 591,-153 582.6324,-151.396 573.9856,-149.3514 565.423,-147.0733"/>
<polygon fill="#191970" stroke="#191970" points="1349.5618,-218.6941 1359.7311,-215.7218 1349.9278,-211.7037 1349.5618,-218.6941"/>
</g>
<!-- Node15 -->
<g id="node5" class="node">
<title>Node15</title>
<g id="a_node5"><a xlink:href="../../dd/d1c/SegmentationContours_8h.html" target="_top" xlink:title="/home/travis/build\l/AliceO2Group/AliceO2\l/Detectors/MUON/MCH/Mapping\l/SegContour/include/MCHMappingSegContour\l/SegmentationContours.h">
<polygon fill="none" stroke="#000000" points="600.5,-89.5 600.5,-152.5 837.5,-152.5 837.5,-89.5 600.5,-89.5"/>
<text text-anchor="start" x="608.5" y="-140.5" font-family="Helvetica,sans-Serif" font-size="10.00" fill="#000000">/home/travis/build</text>
<text text-anchor="start" x="608.5" y="-129.5" font-family="Helvetica,sans-Serif" font-size="10.00" fill="#000000">/AliceO2Group/AliceO2</text>
<text text-anchor="start" x="608.5" y="-118.5" font-family="Helvetica,sans-Serif" font-size="10.00" fill="#000000">/Detectors/MUON/MCH/Mapping</text>
<text text-anchor="start" x="608.5" y="-107.5" font-family="Helvetica,sans-Serif" font-size="10.00" fill="#000000">/SegContour/include/MCHMappingSegContour</text>
<text text-anchor="middle" x="719" y="-96.5" font-family="Helvetica,sans-Serif" font-size="10.00" fill="#000000">/SegmentationContours.h</text>
</a>
</g>
</g>
<!-- Node11&#45;&gt;Node15 -->
<g id="edge4" class="edge">
<title>Node11&#45;&gt;Node15</title>
<path fill="none" stroke="#191970" d="M1349.4969,-212.4887C1225.537,-202.41 1023.987,-183.0908 852,-153 847.3212,-152.1814 842.5617,-151.2954 837.7627,-150.3575"/>
<polygon fill="#191970" stroke="#191970" points="1349.516,-216.0015 1359.765,-213.3168 1350.0787,-209.0241 1349.516,-216.0015"/>
</g>
<!-- Node17 -->
<g id="node7" class="node">
<title>Node17</title>
<g id="a_node7"><a xlink:href="../../d5/d2d/MUON_2MCH_2Mapping_2test_2src_2Segmentation_8cxx.html" target="_top" xlink:title="/home/travis/build\l/AliceO2Group/AliceO2\l/Detectors/MUON/MCH/Mapping\l/test/src/Segmentation.cxx">
<polygon fill="none" stroke="#000000" points="781,-.5 781,-52.5 951,-52.5 951,-.5 781,-.5"/>
<text text-anchor="start" x="789" y="-40.5" font-family="Helvetica,sans-Serif" font-size="10.00" fill="#000000">/home/travis/build</text>
<text text-anchor="start" x="789" y="-29.5" font-family="Helvetica,sans-Serif" font-size="10.00" fill="#000000">/AliceO2Group/AliceO2</text>
<text text-anchor="start" x="789" y="-18.5" font-family="Helvetica,sans-Serif" font-size="10.00" fill="#000000">/Detectors/MUON/MCH/Mapping</text>
<text text-anchor="middle" x="866" y="-7.5" font-family="Helvetica,sans-Serif" font-size="10.00" fill="#000000">/test/src/Segmentation.cxx</text>
</a>
</g>
</g>
<!-- Node11&#45;&gt;Node17 -->
<g id="edge9" class="edge">
<title>Node11&#45;&gt;Node17</title>
<path fill="none" stroke="#191970" d="M1349.4004,-214.9214C1189.0994,-205.4381 916.6475,-184.8403 884,-153 857.5584,-127.2121 857.8974,-81.4581 861.3663,-52.618"/>
<polygon fill="#191970" stroke="#191970" points="1349.6057,-218.4393 1359.7933,-215.53 1350.015,-211.4513 1349.6057,-218.4393"/>
</g>
<!-- Node18 -->
<g id="node8" class="node">
<title>Node18</title>
<g id="a_node8"><a xlink:href="../../da/d72/BenchSegmentation_8cxx.html" target="_top" xlink:title="/home/travis/build\l/AliceO2Group/AliceO2\l/Detectors/MUON/MCH/Mapping\l/test/src/BenchSegmentation.cxx">
<polygon fill="none" stroke="#000000" points="893.5,-95 893.5,-147 1070.5,-147 1070.5,-95 893.5,-95"/>
<text text-anchor="start" x="901.5" y="-135" font-family="Helvetica,sans-Serif" font-size="10.00" fill="#000000">/home/travis/build</text>
<text text-anchor="start" x="901.5" y="-124" font-family="Helvetica,sans-Serif" font-size="10.00" fill="#000000">/AliceO2Group/AliceO2</text>
<text text-anchor="start" x="901.5" y="-113" font-family="Helvetica,sans-Serif" font-size="10.00" fill="#000000">/Detectors/MUON/MCH/Mapping</text>
<text text-anchor="middle" x="982" y="-102" font-family="Helvetica,sans-Serif" font-size="10.00" fill="#000000">/test/src/BenchSegmentation.cxx</text>
</a>
</g>
</g>
<!-- Node11&#45;&gt;Node18 -->
<g id="edge7" class="edge">
<title>Node11&#45;&gt;Node18</title>
<path fill="none" stroke="#191970" d="M1349.6701,-204.8911C1272.5893,-193.1457 1169.5538,-175.3901 1080,-153 1072.881,-151.2201 1065.5286,-149.1895 1058.2001,-147.0342"/>
<polygon fill="#191970" stroke="#191970" points="1349.481,-208.4022 1359.8919,-206.4367 1350.5276,-201.4809 1349.481,-208.4022"/>
</g>
<!-- Node19 -->
<g id="node9" class="node">
<title>Node19</title>
<g id="a_node9"><a xlink:href="../../dc/d1b/generatePadIndices_8cxx.html" target="_top" xlink:title="/home/travis/build\l/AliceO2Group/AliceO2\l/Detectors/MUON/MCH/Mapping\l/test/src/generatePadIndices.cxx">
<polygon fill="none" stroke="#000000" points="1089,-95 1089,-147 1263,-147 1263,-95 1089,-95"/>
<text text-anchor="start" x="1097" y="-135" font-family="Helvetica,sans-Serif" font-size="10.00" fill="#000000">/home/travis/build</text>
<text text-anchor="start" x="1097" y="-124" font-family="Helvetica,sans-Serif" font-size="10.00" fill="#000000">/AliceO2Group/AliceO2</text>
<text text-anchor="start" x="1097" y="-113" font-family="Helvetica,sans-Serif" font-size="10.00" fill="#000000">/Detectors/MUON/MCH/Mapping</text>
<text text-anchor="middle" x="1176" y="-102" font-family="Helvetica,sans-Serif" font-size="10.00" fill="#000000">/test/src/generatePadIndices.cxx</text>
</a>
</g>
</g>
<!-- Node11&#45;&gt;Node19 -->
<g id="edge8" class="edge">
<title>Node11&#45;&gt;Node19</title>
<path fill="none" stroke="#191970" d="M1364.7991,-186.1031C1327.6831,-173.3045 1286.3417,-159.0489 1251.8286,-147.1478"/>
<polygon fill="#191970" stroke="#191970" points="1364.0455,-189.5455 1374.6402,-189.4966 1366.3275,-182.9279 1364.0455,-189.5455"/>
</g>
<!-- Node20 -->
<g id="node10" class="node">
<title>Node20</title>
<g id="a_node10"><a xlink:href="../../d9/da3/testPadIndices_8cxx.html" target="_top" xlink:title="/home/travis/build\l/AliceO2Group/AliceO2\l/Detectors/MUON/MCH/Mapping\l/test/src/testPadIndices.cxx">
<polygon fill="none" stroke="#000000" points="1281,-95 1281,-147 1451,-147 1451,-95 1281,-95"/>
<text text-anchor="start" x="1289" y="-135" font-family="Helvetica,sans-Serif" font-size="10.00" fill="#000000">/home/travis/build</text>
<text text-anchor="start" x="1289" y="-124" font-family="Helvetica,sans-Serif" font-size="10.00" fill="#000000">/AliceO2Group/AliceO2</text>
<text text-anchor="start" x="1289" y="-113" font-family="Helvetica,sans-Serif" font-size="10.00" fill="#000000">/Detectors/MUON/MCH/Mapping</text>
<text text-anchor="middle" x="1366" y="-102" font-family="Helvetica,sans-Serif" font-size="10.00" fill="#000000">/test/src/testPadIndices.cxx</text>
</a>
</g>
</g>
<!-- Node11&#45;&gt;Node20 -->
<g id="edge10" class="edge">
<title>Node11&#45;&gt;Node20</title>
<path fill="none" stroke="#191970" d="M1427.1752,-182.1752C1415.4167,-170.4167 1402.7892,-157.7892 1392.078,-147.078"/>
<polygon fill="#191970" stroke="#191970" points="1424.8134,-184.7632 1434.3594,-189.3594 1429.7632,-179.8134 1424.8134,-184.7632"/>
</g>
<!-- Node21 -->
<g id="node11" class="node">
<title>Node21</title>
<g id="a_node11"><a xlink:href="../../d4/d03/PreClusterFinderMapping_8h.html" target="_top" xlink:title="/home/travis/build\l/AliceO2Group/AliceO2\l/Detectors/MUON/MCH/PreClustering\l/src/PreClusterFinderMapping.h">
<polygon fill="none" stroke="#000000" points="1469,-95 1469,-147 1663,-147 1663,-95 1469,-95"/>
<text text-anchor="start" x="1477" y="-135" font-family="Helvetica,sans-Serif" font-size="10.00" fill="#000000">/home/travis/build</text>
<text text-anchor="start" x="1477" y="-124" font-family="Helvetica,sans-Serif" font-size="10.00" fill="#000000">/AliceO2Group/AliceO2</text>
<text text-anchor="start" x="1477" y="-113" font-family="Helvetica,sans-Serif" font-size="10.00" fill="#000000">/Detectors/MUON/MCH/PreClustering</text>
<text text-anchor="middle" x="1566" y="-102" font-family="Helvetica,sans-Serif" font-size="10.00" fill="#000000">/src/PreClusterFinderMapping.h</text>
</a>
</g>
</g>
<!-- Node11&#45;&gt;Node21 -->
<g id="edge11" class="edge">
<title>Node11&#45;&gt;Node21</title>
<path fill="none" stroke="#191970" d="M1504.8248,-182.1752C1516.5833,-170.4167 1529.2108,-157.7892 1539.922,-147.078"/>
<polygon fill="#191970" stroke="#191970" points="1502.2368,-179.8134 1497.6406,-189.3594 1507.1866,-184.7632 1502.2368,-179.8134"/>
</g>
<!-- Node23 -->
<g id="node13" class="node">
<title>Node23</title>
<g id="a_node13"><a xlink:href="../../d4/dbc/PreClusterFinderMapping_8cxx.html" target="_top" xlink:title="/home/travis/build\l/AliceO2Group/AliceO2\l/Detectors/MUON/MCH/PreClustering\l/src/PreClusterFinderMapping.cxx">
<polygon fill="none" stroke="#000000" points="1594,-.5 1594,-52.5 1788,-52.5 1788,-.5 1594,-.5"/>
<text text-anchor="start" x="1602" y="-40.5" font-family="Helvetica,sans-Serif" font-size="10.00" fill="#000000">/home/travis/build</text>
<text text-anchor="start" x="1602" y="-29.5" font-family="Helvetica,sans-Serif" font-size="10.00" fill="#000000">/AliceO2Group/AliceO2</text>
<text text-anchor="start" x="1602" y="-18.5" font-family="Helvetica,sans-Serif" font-size="10.00" fill="#000000">/Detectors/MUON/MCH/PreClustering</text>
<text text-anchor="middle" x="1691" y="-7.5" font-family="Helvetica,sans-Serif" font-size="10.00" fill="#000000">/src/PreClusterFinderMapping.cxx</text>
</a>
</g>
</g>
<!-- Node11&#45;&gt;Node23 -->
<g id="edge14" class="edge">
<title>Node11&#45;&gt;Node23</title>
<path fill="none" stroke="#191970" d="M1582.0301,-194.0412C1621.5965,-182.544 1659.1318,-168.2615 1672,-153 1695.5494,-125.0708 1696.6794,-80.8023 1694.4787,-52.7252"/>
<polygon fill="#191970" stroke="#191970" points="1580.8786,-190.7297 1572.2143,-196.8273 1582.79,-197.4637 1580.8786,-190.7297"/>
</g>
<!-- Node24 -->
<g id="node14" class="node">
<title>Node24</title>
<g id="a_node14"><a xlink:href="../../d7/de0/MUON_2MCH_2Simulation_2src_2Digitizer_8cxx.html" target="_top" xlink:title="/home/travis/build\l/AliceO2Group/AliceO2\l/Detectors/MUON/MCH/Simulation\l/src/Digitizer.cxx">
<polygon fill="none" stroke="#000000" points="1719,-95 1719,-147 1901,-147 1901,-95 1719,-95"/>
<text text-anchor="start" x="1727" y="-135" font-family="Helvetica,sans-Serif" font-size="10.00" fill="#000000">/home/travis/build</text>
<text text-anchor="start" x="1727" y="-124" font-family="Helvetica,sans-Serif" font-size="10.00" fill="#000000">/AliceO2Group/AliceO2</text>
<text text-anchor="start" x="1727" y="-113" font-family="Helvetica,sans-Serif" font-size="10.00" fill="#000000">/Detectors/MUON/MCH/Simulation</text>
<text text-anchor="middle" x="1810" y="-102" font-family="Helvetica,sans-Serif" font-size="10.00" fill="#000000">/src/Digitizer.cxx</text>
</a>
</g>
</g>
<!-- Node11&#45;&gt;Node24 -->
<g id="edge15" class="edge">
<title>Node11&#45;&gt;Node24</title>
<path fill="none" stroke="#191970" d="M1581.857,-188.5056C1621.0099,-177.3996 1664.9442,-164.8009 1705,-153 1711.4894,-151.0881 1718.1982,-149.0911 1724.9407,-147.0694"/>
<polygon fill="#191970" stroke="#191970" points="1580.6781,-185.2018 1572.0111,-191.2956 1582.5866,-191.9366 1580.6781,-185.2018"/>
</g>
<!-- Node25 -->
<g id="node15" class="node">
<title>Node25</title>
<g id="a_node15"><a xlink:href="../../dc/dc3/testDigitization_8cxx.html" target="_top" xlink:title="/home/travis/build\l/AliceO2Group/AliceO2\l/Detectors/MUON/MCH/Simulation\l/test/testDigitization.cxx">
<polygon fill="none" stroke="#000000" points="1919,-95 1919,-147 2101,-147 2101,-95 1919,-95"/>
<text text-anchor="start" x="1927" y="-135" font-family="Helvetica,sans-Serif" font-size="10.00" fill="#000000">/home/travis/build</text>
<text text-anchor="start" x="1927" y="-124" font-family="Helvetica,sans-Serif" font-size="10.00" fill="#000000">/AliceO2Group/AliceO2</text>
<text text-anchor="start" x="1927" y="-113" font-family="Helvetica,sans-Serif" font-size="10.00" fill="#000000">/Detectors/MUON/MCH/Simulation</text>
<text text-anchor="middle" x="2010" y="-102" font-family="Helvetica,sans-Serif" font-size="10.00" fill="#000000">/test/testDigitization.cxx</text>
</a>
</g>
</g>
<!-- Node11&#45;&gt;Node25 -->
<g id="edge16" class="edge">
<title>Node11&#45;&gt;Node25</title>
<path fill="none" stroke="#191970" d="M1582.2841,-208.2838C1672.4177,-197.2047 1800.0611,-178.8386 1910,-153 1917.4528,-151.2484 1925.1519,-149.2102 1932.8157,-147.0266"/>
<polygon fill="#191970" stroke="#191970" points="1581.8118,-204.8154 1572.3085,-209.4991 1582.6584,-211.764 1581.8118,-204.8154"/>
</g>
<!-- Node26 -->
<g id="node16" class="node">
<title>Node26</title>
<g id="a_node16"><a xlink:href="../../d0/d75/DataDecoderSpec_8cxx.html" target="_top" xlink:title="/home/travis/build\l/AliceO2Group/AliceO2\l/Detectors/MUON/MCH/Workflow\l/src/DataDecoderSpec.cxx">
<polygon fill="none" stroke="#000000" points="2119,-95 2119,-147 2293,-147 2293,-95 2119,-95"/>
<text text-anchor="start" x="2127" y="-135" font-family="Helvetica,sans-Serif" font-size="10.00" fill="#000000">/home/travis/build</text>
<text text-anchor="start" x="2127" y="-124" font-family="Helvetica,sans-Serif" font-size="10.00" fill="#000000">/AliceO2Group/AliceO2</text>
<text text-anchor="start" x="2127" y="-113" font-family="Helvetica,sans-Serif" font-size="10.00" fill="#000000">/Detectors/MUON/MCH/Workflow</text>
<text text-anchor="middle" x="2206" y="-102" font-family="Helvetica,sans-Serif" font-size="10.00" fill="#000000">/src/DataDecoderSpec.cxx</text>
</a>
</g>
</g>
<!-- Node11&#45;&gt;Node26 -->
<g id="edge17" class="edge">
<title>Node11&#45;&gt;Node26</title>
<path fill="none" stroke="#191970" d="M1582.6132,-216.2799C1712.5481,-209.2698 1928.2712,-192.3949 2110,-153 2117.6404,-151.3437 2125.5253,-149.2963 2133.3389,-147.0439"/>
<polygon fill="#191970" stroke="#191970" points="1582.0492,-212.8048 1572.2479,-216.828 1582.4188,-219.795 1582.0492,-212.8048"/>
</g>
<!-- Node27 -->
<g id="node17" class="node">
<title>Node27</title>
<g id="a_node17"><a xlink:href="../../d2/d75/DigitSamplerSpec_8cxx.html" target="_top" xlink:title="Implementation of a data processor to read and send digits. ">
<polygon fill="none" stroke="#000000" points="2311,-95 2311,-147 2485,-147 2485,-95 2311,-95"/>
<text text-anchor="start" x="2319" y="-135" font-family="Helvetica,sans-Serif" font-size="10.00" fill="#000000">/home/travis/build</text>
<text text-anchor="start" x="2319" y="-124" font-family="Helvetica,sans-Serif" font-size="10.00" fill="#000000">/AliceO2Group/AliceO2</text>
<text text-anchor="start" x="2319" y="-113" font-family="Helvetica,sans-Serif" font-size="10.00" fill="#000000">/Detectors/MUON/MCH/Workflow</text>
<text text-anchor="middle" x="2398" y="-102" font-family="Helvetica,sans-Serif" font-size="10.00" fill="#000000">/src/DigitSamplerSpec.cxx</text>
</a>
</g>
</g>
<!-- Node11&#45;&gt;Node27 -->
<g id="edge18" class="edge">
<title>Node11&#45;&gt;Node27</title>
<path fill="none" stroke="#191970" d="M1582.1356,-215.0126C1778.446,-204.3122 2167.6373,-180.4404 2302,-153 2309.9179,-151.3829 2318.09,-149.3138 2326.1692,-147.0073"/>
<polygon fill="#191970" stroke="#191970" points="1581.8687,-211.5219 1572.0731,-215.5588 1582.2481,-218.5116 1581.8687,-211.5219"/>
</g>
<!-- Node28 -->
<g id="node18" class="node">
<title>Node28</title>
<g id="a_node18"><a xlink:href="../../db/d1c/file-to-digits-workflow_8cxx.html" target="_top" xlink:title="/home/travis/build\l/AliceO2Group/AliceO2\l/Detectors/MUON/MCH/Workflow\l/src/file&#45;to&#45;digits&#45;workflow.cxx">
<polygon fill="none" stroke="#000000" points="2503,-95 2503,-147 2677,-147 2677,-95 2503,-95"/>
<text text-anchor="start" x="2511" y="-135" font-family="Helvetica,sans-Serif" font-size="10.00" fill="#000000">/home/travis/build</text>
<text text-anchor="start" x="2511" y="-124" font-family="Helvetica,sans-Serif" font-size="10.00" fill="#000000">/AliceO2Group/AliceO2</text>
<text text-anchor="start" x="2511" y="-113" font-family="Helvetica,sans-Serif" font-size="10.00" fill="#000000">/Detectors/MUON/MCH/Workflow</text>
<text text-anchor="middle" x="2590" y="-102" font-family="Helvetica,sans-Serif" font-size="10.00" fill="#000000">/src/file&#45;to&#45;digits&#45;workflow.cxx</text>
</a>
</g>
</g>
<!-- Node11&#45;&gt;Node28 -->
<g id="edge19" class="edge">
<title>Node11&#45;&gt;Node28</title>
<path fill="none" stroke="#191970" d="M1582.4709,-217.0422C1813.5471,-208.5737 2322.4657,-186.6839 2494,-153 2502.0161,-151.4259 2510.2875,-149.3678 2518.4569,-147.0536"/>
<polygon fill="#191970" stroke="#191970" points="1582.2173,-213.549 1572.3514,-217.411 1582.4723,-220.5444 1582.2173,-213.549"/>
</g>
<!-- Node29 -->
<g id="node19" class="node">
<title>Node29</title>
<g id="a_node19"><a xlink:href="../../d0/d5c/PreClusterSinkSpec_8cxx.html" target="_top" xlink:title="Implementation of a data processor to write preclusters. ">
<polygon fill="none" stroke="#000000" points="2695,-95 2695,-147 2869,-147 2869,-95 2695,-95"/>
<text text-anchor="start" x="2703" y="-135" font-family="Helvetica,sans-Serif" font-size="10.00" fill="#000000">/home/travis/build</text>
<text text-anchor="start" x="2703" y="-124" font-family="Helvetica,sans-Serif" font-size="10.00" fill="#000000">/AliceO2Group/AliceO2</text>
<text text-anchor="start" x="2703" y="-113" font-family="Helvetica,sans-Serif" font-size="10.00" fill="#000000">/Detectors/MUON/MCH/Workflow</text>
<text text-anchor="middle" x="2782" y="-102" font-family="Helvetica,sans-Serif" font-size="10.00" fill="#000000">/src/PreClusterSinkSpec.cxx</text>
</a>
</g>
</g>
<!-- Node11&#45;&gt;Node29 -->
<g id="edge20" class="edge">
<title>Node11&#45;&gt;Node29</title>
<path fill="none" stroke="#191970" d="M1582.4596,-218.4533C1845.0762,-212.0704 2476.7806,-192.9584 2686,-153 2694.1105,-151.451 2702.4787,-149.3922 2710.7367,-147.0629"/>
<polygon fill="#191970" stroke="#191970" points="1582.0464,-214.9621 1572.1337,-218.7023 1582.2152,-221.9601 1582.0464,-214.9621"/>
</g>
<!-- Node16 -->
<g id="node6" class="node">
<title>Node16</title>
<g id="a_node6"><a xlink:href="../../de/de2/SegmentationContours_8cxx.html" target="_top" xlink:title="/home/travis/build\l/AliceO2Group/AliceO2\l/Detectors/MUON/MCH/Mapping\l/SegContour/src/SegmentationContours.cxx">
<polygon fill="none" stroke="#000000" points="535,-.5 535,-52.5 763,-52.5 763,-.5 535,-.5"/>
<text text-anchor="start" x="543" y="-40.5" font-family="Helvetica,sans-Serif" font-size="10.00" fill="#000000">/home/travis/build</text>
<text text-anchor="start" x="543" y="-29.5" font-family="Helvetica,sans-Serif" font-size="10.00" fill="#000000">/AliceO2Group/AliceO2</text>
<text text-anchor="start" x="543" y="-18.5" font-family="Helvetica,sans-Serif" font-size="10.00" fill="#000000">/Detectors/MUON/MCH/Mapping</text>
<text text-anchor="middle" x="649" y="-7.5" font-family="Helvetica,sans-Serif" font-size="10.00" fill="#000000">/SegContour/src/SegmentationContours.cxx</text>
</a>
</g>
</g>
<!-- Node15&#45;&gt;Node16 -->
<g id="edge5" class="edge">
<title>Node15&#45;&gt;Node16</title>
<path fill="none" stroke="#191970" d="M689.3649,-80.9926C682.2648,-71.4075 674.8631,-61.4152 668.366,-52.6442"/>
<polygon fill="#191970" stroke="#191970" points="686.7315,-83.3177 695.4963,-89.27 692.3564,-79.1511 686.7315,-83.3177"/>
</g>
<!-- Node15&#45;&gt;Node17 -->
<g id="edge6" class="edge">
<title>Node15&#45;&gt;Node17</title>
<path fill="none" stroke="#191970" d="M777.185,-83.5953C793.302,-73.2344 810.4471,-62.2126 825.3313,-52.6442"/>
<polygon fill="#191970" stroke="#191970" points="774.8769,-80.9182 768.3578,-89.27 778.6623,-86.8065 774.8769,-80.9182"/>
</g>
<!-- Node22 -->
<g id="node12" class="node">
<title>Node22</title>
<g id="a_node12"><a xlink:href="../../d8/dfc/PreClusterFinder_8cxx.html" target="_top" xlink:title="/home/travis/build\l/AliceO2Group/AliceO2\l/Detectors/MUON/MCH/PreClustering\l/src/PreClusterFinder.cxx">
<polygon fill="none" stroke="#000000" points="1382,-.5 1382,-52.5 1576,-52.5 1576,-.5 1382,-.5"/>
<text text-anchor="start" x="1390" y="-40.5" font-family="Helvetica,sans-Serif" font-size="10.00" fill="#000000">/home/travis/build</text>
<text text-anchor="start" x="1390" y="-29.5" font-family="Helvetica,sans-Serif" font-size="10.00" fill="#000000">/AliceO2Group/AliceO2</text>
<text text-anchor="start" x="1390" y="-18.5" font-family="Helvetica,sans-Serif" font-size="10.00" fill="#000000">/Detectors/MUON/MCH/PreClustering</text>
<text text-anchor="middle" x="1479" y="-7.5" font-family="Helvetica,sans-Serif" font-size="10.00" fill="#000000">/src/PreClusterFinder.cxx</text>
</a>
</g>
</g>
<!-- Node21&#45;&gt;Node22 -->
<g id="edge12" class="edge">
<title>Node21&#45;&gt;Node22</title>
<path fill="none" stroke="#191970" d="M1534.9734,-87.2986C1524.5396,-75.9654 1513.06,-63.4962 1503.2271,-52.8157"/>
<polygon fill="#191970" stroke="#191970" points="1532.6485,-89.9409 1541.9966,-94.9273 1537.7984,-85.1997 1532.6485,-89.9409"/>
</g>
<!-- Node21&#45;&gt;Node23 -->
<g id="edge13" class="edge">
<title>Node21&#45;&gt;Node23</title>
<path fill="none" stroke="#191970" d="M1608.8557,-88.6011C1624.2973,-76.9272 1641.5199,-63.907 1656.1909,-52.8157"/>
<polygon fill="#191970" stroke="#191970" points="1606.354,-86.1047 1600.4877,-94.9273 1610.5754,-91.6886 1606.354,-86.1047"/>
</g>
</g>
</svg>
